g 029
v -1.724999 3.031835 -14.25
v -1.725 3.031836 -15.75
v -1.725 -0.0003656006 -15.75
v -1.724999 -0.0003659058 -14.25
v -1.774999 3.031835 -14.25
v -1.774999 -0.0003659058 -14.25
v -1.775 -0.0003656006 -15.75
v -1.775 3.031836 -15.75
v -1.774999 -0.0003659058 -14.25
v -1.724999 -0.0003659058 -14.25
v -1.725 -0.0003656006 -15.75
v -1.775 -0.0003656006 -15.75
v -1.774999 3.031835 -14.25
v -1.724999 3.031835 -14.25
v -1.724999 -0.0003659058 -14.25
v -1.774999 -0.0003659058 -14.25
v -1.775 3.031836 -15.75
v -1.725 3.031836 -15.75
v -1.724999 3.031835 -14.25
v -1.774999 3.031835 -14.25
v -1.775 -0.0003656006 -15.75
v -1.725 -0.0003656006 -15.75
v -1.725 3.031836 -15.75
v -1.775 3.031836 -15.75
v 1.774957 3.031835 -14.25
v 1.774956 3.031835 -15.75
v 1.774956 -0.0003656006 -15.75
v 1.774957 -0.0003662109 -14.25
v 1.724957 3.031835 -14.25
v 1.724957 -0.0003662109 -14.25
v 1.724956 -0.0003656006 -15.75
v 1.724956 3.031835 -15.75
v 1.724957 -0.0003662109 -14.25
v 1.774957 -0.0003662109 -14.25
v 1.774956 -0.0003656006 -15.75
v 1.724956 -0.0003656006 -15.75
v 1.724957 3.031835 -14.25
v 1.774957 3.031835 -14.25
v 1.774957 -0.0003662109 -14.25
v 1.724957 -0.0003662109 -14.25
v 1.724956 3.031835 -15.75
v 1.774956 3.031835 -15.75
v 1.774957 3.031835 -14.25
v 1.724957 3.031835 -14.25
v 1.724956 -0.0003656006 -15.75
v 1.774956 -0.0003656006 -15.75
v 1.774956 3.031835 -15.75
v 1.724956 3.031835 -15.75
v 1.774957 3.031836 -19.25
v 1.774956 3.031836 -20.75
v 1.774956 -0.0003649902 -20.75
v 1.774957 -0.0003649902 -19.25
v 1.724957 3.031836 -19.25
v 1.724957 -0.0003649902 -19.25
v 1.724956 -0.0003649902 -20.75
v 1.724956 3.031836 -20.75
v 1.724957 -0.0003649902 -19.25
v 1.774957 -0.0003649902 -19.25
v 1.774956 -0.0003649902 -20.75
v 1.724956 -0.0003649902 -20.75
v 1.724957 3.031836 -19.25
v 1.774957 3.031836 -19.25
v 1.774957 -0.0003649902 -19.25
v 1.724957 -0.0003649902 -19.25
v 1.724956 3.031836 -20.75
v 1.774956 3.031836 -20.75
v 1.774957 3.031836 -19.25
v 1.724957 3.031836 -19.25
v 1.724956 -0.0003649902 -20.75
v 1.774956 -0.0003649902 -20.75
v 1.774956 3.031836 -20.75
v 1.724956 3.031836 -20.75
v -1.724999 3.031836 -19.25
v -1.725 3.031837 -20.75
v -1.725 -0.0003646851 -20.75
v -1.724999 -0.0003649902 -19.25
v -1.774999 3.031836 -19.25
v -1.774999 -0.0003649902 -19.25
v -1.775 -0.0003646851 -20.75
v -1.775 3.031837 -20.75
v -1.774999 -0.0003649902 -19.25
v -1.724999 -0.0003649902 -19.25
v -1.725 -0.0003646851 -20.75
v -1.775 -0.0003646851 -20.75
v -1.774999 3.031836 -19.25
v -1.724999 3.031836 -19.25
v -1.724999 -0.0003649902 -19.25
v -1.774999 -0.0003649902 -19.25
v -1.775 3.031837 -20.75
v -1.725 3.031837 -20.75
v -1.724999 3.031836 -19.25
v -1.774999 3.031836 -19.25
v -1.775 -0.0003646851 -20.75
v -1.725 -0.0003646851 -20.75
v -1.725 3.031837 -20.75
v -1.775 3.031837 -20.75
v -0.2512939 3.479585 -15.50078
v 0.248706 3.479585 -15.50078
v 0.248706 3.479585 -14.50078
v -0.2512939 3.479585 -14.50078
v -0.2512939 3.429585 -15.50078
v -0.2512939 3.429585 -14.50078
v 0.248706 3.429585 -14.50078
v 0.248706 3.429585 -15.50078
v -0.2512939 3.429585 -14.50078
v -0.2512939 3.479585 -14.50078
v 0.248706 3.479585 -14.50078
v 0.248706 3.429585 -14.50078
v -0.2512939 3.429585 -15.50078
v -0.2512939 3.479585 -15.50078
v -0.2512939 3.479585 -14.50078
v -0.2512939 3.429585 -14.50078
v 0.248706 3.429585 -15.50078
v 0.248706 3.479585 -15.50078
v -0.2512939 3.479585 -15.50078
v -0.2512939 3.429585 -15.50078
v 0.248706 3.429585 -14.50078
v 0.248706 3.479585 -14.50078
v 0.248706 3.479585 -15.50078
v 0.248706 3.429585 -15.50078
v -0.2512939 3.478964 -20.41417
v 0.248706 3.478964 -20.41417
v 0.248706 3.478963 -19.41417
v -0.2512939 3.478963 -19.41417
v -0.2512939 3.428964 -20.41417
v -0.2512939 3.428963 -19.41417
v 0.248706 3.428963 -19.41417
v 0.248706 3.428964 -20.41417
v -0.2512939 3.428963 -19.41417
v -0.2512939 3.478963 -19.41417
v 0.248706 3.478963 -19.41417
v 0.248706 3.428963 -19.41417
v -0.2512939 3.428964 -20.41417
v -0.2512939 3.478964 -20.41417
v -0.2512939 3.478963 -19.41417
v -0.2512939 3.428963 -19.41417
v 0.248706 3.428964 -20.41417
v 0.248706 3.478964 -20.41417
v -0.2512939 3.478964 -20.41417
v -0.2512939 3.428964 -20.41417
v 0.248706 3.428963 -19.41417
v 0.248706 3.478963 -19.41417
v 0.248706 3.478964 -20.41417
v 0.248706 3.428964 -20.41417
vt 0.7314453 0.7998047
vt 0.7089844 0.7998047
vt 0.7089844 0.7685547
vt 0.7314453 0.7685547
vt 0.7314453 0.7998047
vt 0.7314453 0.7685547
vt 0.7089844 0.7685547
vt 0.7089844 0.7998047
vt 0.7314453 0.7685547
vt 0.7314453 0.7685547
vt 0.7089844 0.7685547
vt 0.7089844 0.7685547
vt 0.7312291 0.7994519
vt 0.7312291 0.7994519
vt 0.7312291 0.768769
vt 0.7312291 0.768769
vt 0.7093382 0.7995325
vt 0.7093382 0.7995325
vt 0.7314706 0.7995325
vt 0.7314706 0.7995325
vt 0.7093382 0.7688496
vt 0.7093382 0.7688496
vt 0.7093382 0.7995325
vt 0.7093382 0.7995325
vt 0.7314453 0.7998047
vt 0.7089844 0.7998047
vt 0.7089844 0.7685547
vt 0.7314453 0.7685547
vt 0.7314453 0.7998047
vt 0.7314453 0.7685547
vt 0.7089844 0.7685547
vt 0.7089844 0.7998047
vt 0.7314453 0.7685547
vt 0.7314453 0.7685547
vt 0.7089844 0.7685547
vt 0.7089844 0.7685547
vt 0.7312291 0.7994519
vt 0.7312291 0.7994519
vt 0.7312291 0.768769
vt 0.7312291 0.768769
vt 0.7093382 0.7995325
vt 0.7093382 0.7995325
vt 0.7314706 0.7995325
vt 0.7314706 0.7995325
vt 0.7093382 0.7688496
vt 0.7093382 0.7688496
vt 0.7093382 0.7995325
vt 0.7093382 0.7995325
vt 0.7314453 0.7998047
vt 0.7089844 0.7998047
vt 0.7089844 0.7685547
vt 0.7314453 0.7685547
vt 0.7314453 0.7998047
vt 0.7314453 0.7685547
vt 0.7089844 0.7685547
vt 0.7089844 0.7998047
vt 0.7314453 0.7685547
vt 0.7314453 0.7685547
vt 0.7089844 0.7685547
vt 0.7089844 0.7685547
vt 0.7312291 0.7994519
vt 0.7312291 0.7994519
vt 0.7312291 0.768769
vt 0.7312291 0.768769
vt 0.7093382 0.7995325
vt 0.7093382 0.7995325
vt 0.7314706 0.7995325
vt 0.7314706 0.7995325
vt 0.7093382 0.7688496
vt 0.7093382 0.7688496
vt 0.7093382 0.7995325
vt 0.7093382 0.7995325
vt 0.7314453 0.7998047
vt 0.7089844 0.7998047
vt 0.7089844 0.7685547
vt 0.7314453 0.7685547
vt 0.7314453 0.7998047
vt 0.7314453 0.7685547
vt 0.7089844 0.7685547
vt 0.7089844 0.7998047
vt 0.7314453 0.7685547
vt 0.7314453 0.7685547
vt 0.7089844 0.7685547
vt 0.7089844 0.7685547
vt 0.7312291 0.7994519
vt 0.7312291 0.7994519
vt 0.7312291 0.768769
vt 0.7312291 0.768769
vt 0.7093382 0.7995325
vt 0.7093382 0.7995325
vt 0.7314706 0.7995325
vt 0.7314706 0.7995325
vt 0.7093382 0.7688496
vt 0.7093382 0.7688496
vt 0.7093382 0.7995325
vt 0.7093382 0.7995325
vt 0.2197266 0.6855469
vt 0.2353516 0.6855469
vt 0.2353516 0.6552734
vt 0.2197266 0.6552734
vt 0.2353516 0.6855469
vt 0.2353516 0.6552734
vt 0.2197266 0.6552734
vt 0.2197266 0.6855469
vt 0.2353516 0.6855469
vt 0.2353516 0.6552734
vt 0.2197266 0.6552734
vt 0.2197266 0.6855469
vt 0.2353516 0.6855469
vt 0.2353516 0.6552734
vt 0.2197266 0.6552734
vt 0.2197266 0.6855469
vt 0.2353516 0.6855469
vt 0.2353516 0.6552734
vt 0.2197266 0.6552734
vt 0.2197266 0.6855469
vt 0.2353516 0.6855469
vt 0.2353516 0.6552734
vt 0.2197266 0.6552734
vt 0.2197266 0.6855469
vt 0.2197266 0.6855469
vt 0.2353516 0.6855469
vt 0.2353516 0.6552734
vt 0.2197266 0.6552734
vt 0.2353516 0.6855469
vt 0.2353516 0.6552734
vt 0.2197266 0.6552734
vt 0.2197266 0.6855469
vt 0.2353516 0.6855469
vt 0.2353516 0.6552734
vt 0.2197266 0.6552734
vt 0.2197266 0.6855469
vt 0.2353516 0.6855469
vt 0.2353516 0.6552734
vt 0.2197266 0.6552734
vt 0.2197266 0.6855469
vt 0.2353516 0.6855469
vt 0.2353516 0.6552734
vt 0.2197266 0.6552734
vt 0.2197266 0.6855469
vt 0.2353516 0.6855469
vt 0.2353516 0.6552734
vt 0.2197266 0.6552734
vt 0.2197266 0.6855469
vn 1 0 -8.138021E-07
vn 1 0 -8.13802E-07
vn 1 0 -8.138021E-07
vn 1 0 -8.13802E-07
vn -1 0 8.138021E-07
vn -1 0 8.13802E-07
vn -1 0 8.138021E-07
vn -1 0 8.13802E-07
vn 0 -1 -2.034505E-07
vn 0 -1 -2.034505E-07
vn 0 -1 -2.034505E-07
vn 0 -1 -2.034505E-07
vn 0 0 1
vn 0 0 1
vn 0 0 1
vn 0 0 1
vn 0 1 2.034505E-07
vn 0 1 2.034505E-07
vn 0 1 2.034505E-07
vn 0 1 2.034505E-07
vn 0 0 -1
vn 0 0 -1
vn 0 0 -1
vn 0 0 -1
vn 1 0 -8.138021E-07
vn 1 0 -8.13802E-07
vn 1 0 -8.13802E-07
vn 1 0 -8.13802E-07
vn -1 0 8.138021E-07
vn -1 0 8.13802E-07
vn -1 0 8.13802E-07
vn -1 0 8.13802E-07
vn 0 -1 -4.069011E-07
vn 0 -1 -4.069011E-07
vn 0 -1 -4.069011E-07
vn 0 -1 -4.069011E-07
vn 0 0 1
vn 0 0 1
vn 0 0 1
vn 0 0 1
vn 0 1 3.051758E-07
vn 0 1 3.051757E-07
vn 0 1 3.051758E-07
vn 0 1 3.051757E-07
vn 0 0 -1
vn 0 0 -1
vn 0 0 -1
vn 0 0 -1
vn 1 0 -8.13802E-07
vn 1 0 -8.13802E-07
vn 1 0 -8.13802E-07
vn 1 0 -8.13802E-07
vn -1 0 8.13802E-07
vn -1 0 8.138021E-07
vn -1 0 8.138022E-07
vn -1 0 8.138021E-07
vn 0 -1 0
vn 0 -1 0
vn 0 -1 0
vn 0 -1 0
vn 0 -8.051596E-07 1
vn 0 -8.051596E-07 1
vn 0 -8.051596E-07 1
vn 0 -8.051596E-07 1
vn 0 1 2.034505E-07
vn 0 1 2.034505E-07
vn 0 1 2.034505E-07
vn 0 1 2.034505E-07
vn 0 8.051596E-07 -1
vn 0 8.051596E-07 -1
vn 0 8.051596E-07 -1
vn 0 8.051596E-07 -1
vn 1 0 -8.138021E-07
vn 1 0 -8.13802E-07
vn 1 0 -8.138021E-07
vn 1 0 -8.13802E-07
vn -1 0 8.138021E-07
vn -1 0 8.13802E-07
vn -1 0 8.138021E-07
vn -1 0 8.13802E-07
vn 0 -1 -2.034505E-07
vn 0 -1 -2.034505E-07
vn 0 -1 -2.034505E-07
vn 0 -1 -2.034505E-07
vn 0 0 1
vn 0 0 1
vn 0 0 1
vn 0 0 1
vn 0 1 2.034505E-07
vn 0 1 2.034505E-07
vn 0 1 2.034505E-07
vn 0 1 2.034505E-07
vn 0 0 -1
vn 0 0 -1
vn 0 0 -1
vn 0 0 -1
vn 0 1 3.051758E-07
vn 0 1 3.051758E-07
vn 0 1 3.051758E-07
vn 0 1 3.051758E-07
vn 0 -1 -3.051758E-07
vn 0 -1 -3.051758E-07
vn 0 -1 -3.051758E-07
vn 0 -1 -3.051758E-07
vn 9.765625E-06 0 1
vn 9.765625E-06 0 1
vn 9.765625E-06 0 1
vn 9.765625E-06 0 1
vn -1 0 0
vn -1 0 0
vn -1 0 0
vn -1 0 0
vn -9.765625E-06 0 -1
vn -9.765625E-06 0 -1
vn -9.765625E-06 0 -1
vn -9.765625E-06 0 -1
vn 1 0 0
vn 1 0 0
vn 1 0 0
vn 1 0 0
vn 0 1 3.0756E-07
vn 0 1 3.0756E-07
vn 0 1 3.0756E-07
vn 0 1 3.0756E-07
vn 0 -1 -3.099441E-07
vn 0 -1 -3.099442E-07
vn 0 -1 -3.099441E-07
vn 0 -1 -3.099442E-07
vn 4.882812E-06 0 1
vn 4.882812E-06 0 1
vn 4.882812E-06 0 1
vn 4.882812E-06 0 1
vn -1 0 0
vn -1 0 0
vn -1 0 0
vn -1 0 0
vn -4.882812E-06 0 -1
vn -4.882812E-06 0 -1
vn -4.882812E-06 0 -1
vn -4.882812E-06 0 -1
vn 1 0 0
vn 1 0 0
vn 1 0 0
vn 1 0 0
g 029_0
f 3/3/3 2/2/2 1/1/1
f 4/4/4 3/3/3 1/1/1
f 7/7/7 6/6/6 5/5/5
f 8/8/8 7/7/7 5/5/5
f 11/11/11 10/10/10 9/9/9
f 12/12/12 11/11/11 9/9/9
f 15/15/15 14/14/14 13/13/13
f 16/16/16 15/15/15 13/13/13
f 19/19/19 18/18/18 17/17/17
f 20/20/20 19/19/19 17/17/17
f 23/23/23 22/22/22 21/21/21
f 24/24/24 23/23/23 21/21/21
f 27/27/27 26/26/26 25/25/25
f 28/28/28 27/27/27 25/25/25
f 31/31/31 30/30/30 29/29/29
f 32/32/32 31/31/31 29/29/29
f 35/35/35 34/34/34 33/33/33
f 36/36/36 35/35/35 33/33/33
f 39/39/39 38/38/38 37/37/37
f 40/40/40 39/39/39 37/37/37
f 43/43/43 42/42/42 41/41/41
f 44/44/44 43/43/43 41/41/41
f 47/47/47 46/46/46 45/45/45
f 48/48/48 47/47/47 45/45/45
f 51/51/51 50/50/50 49/49/49
f 52/52/52 51/51/51 49/49/49
f 55/55/55 54/54/54 53/53/53
f 56/56/56 55/55/55 53/53/53
f 59/59/59 58/58/58 57/57/57
f 60/60/60 59/59/59 57/57/57
f 63/63/63 62/62/62 61/61/61
f 64/64/64 63/63/63 61/61/61
f 67/67/67 66/66/66 65/65/65
f 68/68/68 67/67/67 65/65/65
f 71/71/71 70/70/70 69/69/69
f 72/72/72 71/71/71 69/69/69
f 75/75/75 74/74/74 73/73/73
f 76/76/76 75/75/75 73/73/73
f 79/79/79 78/78/78 77/77/77
f 80/80/80 79/79/79 77/77/77
f 83/83/83 82/82/82 81/81/81
f 84/84/84 83/83/83 81/81/81
f 87/87/87 86/86/86 85/85/85
f 88/88/88 87/87/87 85/85/85
f 91/91/91 90/90/90 89/89/89
f 92/92/92 91/91/91 89/89/89
f 95/95/95 94/94/94 93/93/93
f 96/96/96 95/95/95 93/93/93
f 99/99/99 98/98/98 97/97/97
f 100/100/100 99/99/99 97/97/97
f 103/103/103 102/102/102 101/101/101
f 104/104/104 103/103/103 101/101/101
f 107/107/107 106/106/106 105/105/105
f 108/108/108 107/107/107 105/105/105
f 111/111/111 110/110/110 109/109/109
f 112/112/112 111/111/111 109/109/109
f 115/115/115 114/114/114 113/113/113
f 116/116/116 115/115/115 113/113/113
f 119/119/119 118/118/118 117/117/117
f 120/120/120 119/119/119 117/117/117
f 123/123/123 122/122/122 121/121/121
f 124/124/124 123/123/123 121/121/121
f 127/127/127 126/126/126 125/125/125
f 128/128/128 127/127/127 125/125/125
f 131/131/131 130/130/130 129/129/129
f 132/132/132 131/131/131 129/129/129
f 135/135/135 134/134/134 133/133/133
f 136/136/136 135/135/135 133/133/133
f 139/139/139 138/138/138 137/137/137
f 140/140/140 139/139/139 137/137/137
f 143/143/143 142/142/142 141/141/141
f 144/144/144 143/143/143 141/141/141
