g 1
v -0.16 0.1 -0.2
v -0.16 0.1 -0.44
v 0.16 0.09999999 -0.44
v -0.08 0.1 -0.2
v 0.16 0.09999999 0.08
v -0.08 0.1 0.08
v -0.08 0.09999999 0.44
v -0.08 0.1 0.2
v 0.16 0.09999999 0.2
v 0.16 0.09999999 0.44
v 0.16 -0.1 -0.44
v -0.16 -0.09999999 -0.44
v -0.16 -0.09999999 -0.2
v -0.08 -0.09999999 -0.2
v 0.16 -0.1 0.08
v -0.08 -0.09999999 0.08
v 0.16 -0.1 0.2
v -0.08 -0.09999999 0.2
v -0.08 -0.09999999 0.44
v 0.16 -0.1 0.44
v -0.16 -0.09999999 -0.2
v -0.16 -0.09999999 -0.44
v -0.16 0.1 -0.44
v -0.16 0.1 -0.2
v -0.08 -0.09999999 -0.2
v -0.08 0.1 -0.2
v -0.08 0.1 0.08
v -0.08 -0.09999999 0.08
v -0.08 -0.09999999 0.2
v -0.08 0.1 0.2
v -0.08 0.09999999 0.44
v -0.08 -0.09999999 0.44
v 0.16 0.09999999 0.08
v 0.16 0.09999999 -0.44
v 0.16 -0.1 -0.44
v 0.16 -0.1 0.08
v 0.16 0.09999999 0.44
v 0.16 0.09999999 0.2
v 0.16 -0.1 0.2
v 0.16 -0.1 0.44
v 0.16 0.09999999 -0.44
v -0.16 0.1 -0.44
v -0.16 -0.09999999 -0.44
v 0.16 -0.1 -0.44
v 0.16 0.09999999 0.2
v -0.08 0.1 0.2
v -0.08 -0.09999999 0.2
v 0.16 -0.1 0.2
v -0.16 -0.09999999 -0.2
v -0.16 0.1 -0.2
v -0.08 0.1 -0.2
v -0.08 -0.09999999 -0.2
v -0.08 0.1 0.08
v 0.16 0.09999999 0.08
v 0.16 -0.1 0.08
v -0.08 -0.09999999 0.08
v -0.08 0.09999999 0.44
v 0.16 0.09999999 0.44
v 0.16 -0.1 0.44
v -0.08 -0.09999999 0.44
vt 0.6367188 0.09570313
vt 0.6308594 0.09570313
vt 0.6308594 0.1035156
vt 0.6367188 0.09765625
vt 0.6435547 0.1035156
vt 0.6435547 0.09765625
vt 0.6669922 0.1054688
vt 0.6669922 0.09960938
vt 0.6611328 0.09960938
vt 0.6611328 0.1054688
vt 0.7099609 0.001953125
vt 0.7099609 0.009765625
vt 0.7158203 0.009765625
vt 0.7158203 0.0078125
vt 0.7226563 0.001953125
vt 0.7226563 0.0078125
vt 0.7080078 0.06738281
vt 0.7021484 0.06738281
vt 0.7021484 0.07324219
vt 0.7080078 0.07324219
vt 0.7177734 0.07617188
vt 0.7119141 0.07617188
vt 0.7119141 0.08105469
vt 0.7177734 0.08105469
vt 0.6816406 0.08398438
vt 0.6816406 0.08886719
vt 0.6884766 0.08886719
vt 0.6884766 0.08398438
vt 0.6982422 0.09082031
vt 0.6982422 0.09570313
vt 0.7041016 0.09570313
vt 0.7041016 0.09082031
vt 0.7060547 0.05761719
vt 0.6933594 0.05761719
vt 0.6933594 0.0625
vt 0.7060547 0.0625
vt 0.6777344 0.09765625
vt 0.671875 0.09765625
vt 0.671875 0.1025391
vt 0.6777344 0.1025391
vt 0.6923828 0.07226563
vt 0.7001953 0.07226563
vt 0.7001953 0.06738281
vt 0.6923828 0.06738281
vt 0.7099609 0.07226563
vt 0.7158203 0.07226563
vt 0.7158203 0.06738281
vt 0.7099609 0.06738281
vt 0.7060547 0.1025391
vt 0.7109375 0.1025391
vt 0.7109375 0.1005859
vt 0.7060547 0.1005859
vt 0.6904297 0.09570313
vt 0.6962891 0.09570313
vt 0.6962891 0.09082031
vt 0.6904297 0.09082031
vt 0.7119141 0.08398438
vt 0.7060547 0.08398438
vt 0.7060547 0.08886719
vt 0.7119141 0.08886719
vn 0 1 0
vn 0 1 0
vn 0 1 0
vn 0 1 0
vn 0 1 0
vn 0 1 0
vn 0 1 0
vn 0 1 0
vn 0 1 0
vn 0 1 0
vn 0 -1 0
vn 0 -1 0
vn 0 -1 0
vn 0 -1 0
vn 0 -1 0
vn 0 -1 0
vn 0 -1 0
vn 0 -1 0
vn 0 -1 0
vn 0 -1 0
vn -1 0 0
vn -1 0 0
vn -1 0 0
vn -1 0 0
vn -1 0 0
vn -1 0 0
vn -1 0 0
vn -1 0 0
vn -1 0 0
vn -1 0 0
vn -1 0 0
vn -1 0 0
vn 1 0 0
vn 1 0 0
vn 1 0 0
vn 1 0 0
vn 1 0 0
vn 1 0 0
vn 1 0 0
vn 1 0 0
vn 0 0 -1
vn 0 0 -1
vn 0 0 -1
vn 0 0 -1
vn 0 0 -1
vn 0 0 -1
vn 0 0 -1
vn 0 0 -1
vn 0 0 1
vn 0 0 1
vn 0 0 1
vn 0 0 1
vn 0 0 1
vn 0 0 1
vn 0 0 1
vn 0 0 1
vn 0 0 1
vn 0 0 1
vn 0 0 1
vn 0 0 1
g 1_0
f 3/3/3 2/2/2 1/1/1
f 4/4/4 3/3/3 1/1/1
f 5/5/5 3/3/3 4/4/4
f 6/6/6 5/5/5 4/4/4
f 9/9/9 8/8/8 7/7/7
f 10/10/10 9/9/9 7/7/7
f 13/13/13 12/12/12 11/11/11
f 14/14/14 13/13/13 11/11/11
f 15/15/15 14/14/14 11/11/11
f 16/16/16 14/14/14 15/15/15
f 19/19/19 18/18/18 17/17/17
f 20/20/20 19/19/19 17/17/17
f 23/23/23 22/22/22 21/21/21
f 24/24/24 23/23/23 21/21/21
f 27/27/27 26/26/26 25/25/25
f 28/28/28 27/27/27 25/25/25
f 31/31/31 30/30/30 29/29/29
f 32/32/32 31/31/31 29/29/29
f 35/35/35 34/34/34 33/33/33
f 36/36/36 35/35/35 33/33/33
f 39/39/39 38/38/38 37/37/37
f 40/40/40 39/39/39 37/37/37
f 43/43/43 42/42/42 41/41/41
f 44/44/44 43/43/43 41/41/41
f 47/47/47 46/46/46 45/45/45
f 48/48/48 47/47/47 45/45/45
f 51/51/51 50/50/50 49/49/49
f 52/52/52 51/51/51 49/49/49
f 55/55/55 54/54/54 53/53/53
f 56/56/56 55/55/55 53/53/53
f 59/59/59 58/58/58 57/57/57
f 60/60/60 59/59/59 57/57/57
