# Mesh "1" exported with Unity Assets Bundle Extractor; 60 vertices, 96 indices, 320 bits per vertex
g 1
# SubMesh 0
# Vertices
v -0.160000 0.100000 -0.200000
vt 0.187500 0.765625
vn -0.000000 1.000000 0.000000
v -0.160000 0.100000 -0.440000
vt 0.140625 0.765625
vn -0.000000 1.000000 0.000000
v 0.160000 0.100000 -0.440000
vt 0.140625 0.828125
vn -0.000000 1.000000 0.000000
v -0.080000 0.100000 -0.200000
vt 0.187500 0.781250
vn -0.000000 1.000000 0.000000
v 0.160000 0.100000 0.080000
vt 0.242188 0.828125
vn -0.000000 1.000000 0.000000
v -0.080000 0.100000 0.080000
vt 0.242188 0.781250
vn -0.000000 1.000000 0.000000
v -0.080000 0.100000 0.440000
vt 0.429688 0.843750
vn -0.000000 1.000000 0.000000
v -0.080000 0.100000 0.200000
vt 0.429688 0.796875
vn -0.000000 1.000000 0.000000
v 0.160000 0.100000 0.200000
vt 0.382813 0.796875
vn -0.000000 1.000000 0.000000
v 0.160000 0.100000 0.440000
vt 0.382813 0.843750
vn -0.000000 1.000000 0.000000
v 0.160000 -0.100000 -0.440000
vt 0.773438 0.015625
vn -0.000000 -1.000000 0.000000
v -0.160000 -0.100000 -0.440000
vt 0.773438 0.078125
vn -0.000000 -1.000000 0.000000
v -0.160000 -0.100000 -0.200000
vt 0.820313 0.078125
vn -0.000000 -1.000000 0.000000
v -0.080000 -0.100000 -0.200000
vt 0.820313 0.062500
vn -0.000000 -1.000000 0.000000
v 0.160000 -0.100000 0.080000
vt 0.875000 0.015625
vn -0.000000 -1.000000 0.000000
v -0.080000 -0.100000 0.080000
vt 0.875000 0.062500
vn -0.000000 -1.000000 0.000000
v 0.160000 -0.100000 0.200000
vt 0.757813 0.539063
vn -0.000000 -1.000000 0.000000
v -0.080000 -0.100000 0.200000
vt 0.710938 0.539063
vn -0.000000 -1.000000 0.000000
v -0.080000 -0.100000 0.440000
vt 0.710938 0.585938
vn -0.000000 -1.000000 0.000000
v 0.160000 -0.100000 0.440000
vt 0.757813 0.585938
vn -0.000000 -1.000000 0.000000
v -0.160000 -0.100000 -0.200000
vt 0.835938 0.609375
vn -1.000000 0.000000 0.000000
v -0.160000 -0.100000 -0.440000
vt 0.789063 0.609375
vn -1.000000 0.000000 0.000000
v -0.160000 0.100000 -0.440000
vt 0.789063 0.648438
vn -1.000000 0.000000 0.000000
v -0.160000 0.100000 -0.200000
vt 0.835938 0.648438
vn -1.000000 0.000000 0.000000
v -0.080000 -0.100000 -0.200000
vt 0.546875 0.671875
vn -1.000000 0.000000 0.000000
v -0.080000 0.100000 -0.200000
vt 0.546875 0.710938
vn -1.000000 0.000000 0.000000
v -0.080000 0.100000 0.080000
vt 0.601563 0.710938
vn -1.000000 0.000000 0.000000
v -0.080000 -0.100000 0.080000
vt 0.601563 0.671875
vn -1.000000 0.000000 0.000000
v -0.080000 -0.100000 0.200000
vt 0.679688 0.726563
vn -1.000000 0.000000 0.000000
v -0.080000 0.100000 0.200000
vt 0.679688 0.765625
vn -1.000000 0.000000 0.000000
v -0.080000 0.100000 0.440000
vt 0.726563 0.765625
vn -1.000000 0.000000 0.000000
v -0.080000 -0.100000 0.440000
vt 0.726563 0.726563
vn -1.000000 0.000000 0.000000
v 0.160000 0.100000 0.080000
vt 0.742188 0.460938
vn 1.000000 0.000000 0.000000
v 0.160000 0.100000 -0.440000
vt 0.640625 0.460938
vn 1.000000 0.000000 0.000000
v 0.160000 -0.100000 -0.440000
vt 0.640625 0.500000
vn 1.000000 0.000000 0.000000
v 0.160000 -0.100000 0.080000
vt 0.742188 0.500000
vn 1.000000 0.000000 0.000000
v 0.160000 0.100000 0.440000
vt 0.515625 0.781250
vn 1.000000 0.000000 0.000000
v 0.160000 0.100000 0.200000
vt 0.468750 0.781250
vn 1.000000 0.000000 0.000000
v 0.160000 -0.100000 0.200000
vt 0.468750 0.820313
vn 1.000000 0.000000 0.000000
v 0.160000 -0.100000 0.440000
vt 0.515625 0.820313
vn 1.000000 0.000000 0.000000
v 0.160000 0.100000 -0.440000
vt 0.632813 0.578125
vn -0.000000 0.000000 -1.000000
v -0.160000 0.100000 -0.440000
vt 0.695313 0.578125
vn -0.000000 0.000000 -1.000000
v -0.160000 -0.100000 -0.440000
vt 0.695313 0.539063
vn -0.000000 0.000000 -1.000000
v 0.160000 -0.100000 -0.440000
vt 0.632813 0.539063
vn -0.000000 0.000000 -1.000000
v 0.160000 0.100000 0.200000
vt 0.773438 0.578125
vn -0.000000 0.000000 -1.000000
v -0.080000 0.100000 0.200000
vt 0.820313 0.578125
vn -0.000000 0.000000 -1.000000
v -0.080000 -0.100000 0.200000
vt 0.820313 0.539063
vn -0.000000 0.000000 -1.000000
v 0.160000 -0.100000 0.200000
vt 0.773438 0.539063
vn -0.000000 0.000000 -1.000000
v -0.160000 -0.100000 -0.200000
vt 0.742188 0.820313
vn -0.000000 0.000000 1.000000
v -0.160000 0.100000 -0.200000
vt 0.781250 0.820313
vn -0.000000 0.000000 1.000000
v -0.080000 0.100000 -0.200000
vt 0.781250 0.804688
vn -0.000000 0.000000 1.000000
v -0.080000 -0.100000 -0.200000
vt 0.742188 0.804688
vn -0.000000 0.000000 1.000000
v -0.080000 0.100000 0.080000
vt 0.617188 0.765625
vn -0.000000 0.000000 1.000000
v 0.160000 0.100000 0.080000
vt 0.664063 0.765625
vn -0.000000 0.000000 1.000000
v 0.160000 -0.100000 0.080000
vt 0.664063 0.726563
vn -0.000000 0.000000 1.000000
v -0.080000 -0.100000 0.080000
vt 0.617188 0.726563
vn -0.000000 0.000000 1.000000
v -0.080000 0.100000 0.440000
vt 0.789063 0.671875
vn -0.000000 0.000000 1.000000
v 0.160000 0.100000 0.440000
vt 0.742188 0.671875
vn -0.000000 0.000000 1.000000
v 0.160000 -0.100000 0.440000
vt 0.742188 0.710938
vn -0.000000 0.000000 1.000000
v -0.080000 -0.100000 0.440000
vt 0.789063 0.710938
vn -0.000000 0.000000 1.000000
# Faces (1 to 60)
g 1_0
f -58/-58/-58 -59/-59/-59 -60/-60/-60
f -57/-57/-57 -58/-58/-58 -60/-60/-60
f -56/-56/-56 -58/-58/-58 -57/-57/-57
f -55/-55/-55 -56/-56/-56 -57/-57/-57
f -52/-52/-52 -53/-53/-53 -54/-54/-54
f -51/-51/-51 -52/-52/-52 -54/-54/-54
f -48/-48/-48 -49/-49/-49 -50/-50/-50
f -47/-47/-47 -48/-48/-48 -50/-50/-50
f -46/-46/-46 -47/-47/-47 -50/-50/-50
f -45/-45/-45 -47/-47/-47 -46/-46/-46
f -42/-42/-42 -43/-43/-43 -44/-44/-44
f -41/-41/-41 -42/-42/-42 -44/-44/-44
f -38/-38/-38 -39/-39/-39 -40/-40/-40
f -37/-37/-37 -38/-38/-38 -40/-40/-40
f -34/-34/-34 -35/-35/-35 -36/-36/-36
f -33/-33/-33 -34/-34/-34 -36/-36/-36
f -30/-30/-30 -31/-31/-31 -32/-32/-32
f -29/-29/-29 -30/-30/-30 -32/-32/-32
f -26/-26/-26 -27/-27/-27 -28/-28/-28
f -25/-25/-25 -26/-26/-26 -28/-28/-28
f -22/-22/-22 -23/-23/-23 -24/-24/-24
f -21/-21/-21 -22/-22/-22 -24/-24/-24
f -18/-18/-18 -19/-19/-19 -20/-20/-20
f -17/-17/-17 -18/-18/-18 -20/-20/-20
f -14/-14/-14 -15/-15/-15 -16/-16/-16
f -13/-13/-13 -14/-14/-14 -16/-16/-16
f -10/-10/-10 -11/-11/-11 -12/-12/-12
f -9/-9/-9 -10/-10/-10 -12/-12/-12
f -6/-6/-6 -7/-7/-7 -8/-8/-8
f -5/-5/-5 -6/-6/-6 -8/-8/-8
f -2/-2/-2 -3/-3/-3 -4/-4/-4
f -1/-1/-1 -2/-2/-2 -4/-4/-4

