g 1
v -0.16 0.1 -0.2
v -0.16 0.1 -0.44
v 0.16 0.09999999 -0.44
v -0.08 0.1 -0.2
v 0.16 0.09999999 0.08
v -0.08 0.1 0.08
v -0.08 0.09999999 0.44
v -0.08 0.1 0.2
v 0.16 0.09999999 0.2
v 0.16 0.09999999 0.44
v 0.16 -0.1 -0.44
v -0.16 -0.09999999 -0.44
v -0.16 -0.09999999 -0.2
v -0.08 -0.09999999 -0.2
v 0.16 -0.1 0.08
v -0.08 -0.09999999 0.08
v 0.16 -0.1 0.2
v -0.08 -0.09999999 0.2
v -0.08 -0.09999999 0.44
v 0.16 -0.1 0.44
v -0.16 -0.09999999 -0.2
v -0.16 -0.09999999 -0.44
v -0.16 0.1 -0.44
v -0.16 0.1 -0.2
v -0.08 -0.09999999 -0.2
v -0.08 0.1 -0.2
v -0.08 0.1 0.08
v -0.08 -0.09999999 0.08
v -0.08 -0.09999999 0.2
v -0.08 0.1 0.2
v -0.08 0.09999999 0.44
v -0.08 -0.09999999 0.44
v 0.16 0.09999999 0.08
v 0.16 0.09999999 -0.44
v 0.16 -0.1 -0.44
v 0.16 -0.1 0.08
v 0.16 0.09999999 0.44
v 0.16 0.09999999 0.2
v 0.16 -0.1 0.2
v 0.16 -0.1 0.44
v 0.16 0.09999999 -0.44
v -0.16 0.1 -0.44
v -0.16 -0.09999999 -0.44
v 0.16 -0.1 -0.44
v 0.16 0.09999999 0.2
v -0.08 0.1 0.2
v -0.08 -0.09999999 0.2
v 0.16 -0.1 0.2
v -0.16 -0.09999999 -0.2
v -0.16 0.1 -0.2
v -0.08 0.1 -0.2
v -0.08 -0.09999999 -0.2
v -0.08 0.1 0.08
v 0.16 0.09999999 0.08
v 0.16 -0.1 0.08
v -0.08 -0.09999999 0.08
v -0.08 0.09999999 0.44
v 0.16 0.09999999 0.44
v 0.16 -0.1 0.44
v -0.08 -0.09999999 0.44
vt 0.1875 0.765625
vt 0.140625 0.765625
vt 0.140625 0.828125
vt 0.1875 0.78125
vt 0.2421875 0.828125
vt 0.2421875 0.78125
vt 0.4296875 0.84375
vt 0.4296875 0.796875
vt 0.3828125 0.796875
vt 0.3828125 0.84375
vt 0.7734375 0.015625
vt 0.7734375 0.078125
vt 0.8203125 0.078125
vt 0.8203125 0.0625
vt 0.875 0.015625
vt 0.875 0.0625
vt 0.7578125 0.5390625
vt 0.7109375 0.5390625
vt 0.7109375 0.5859375
vt 0.7578125 0.5859375
vt 0.8359375 0.609375
vt 0.7890625 0.609375
vt 0.7890625 0.6484375
vt 0.8359375 0.6484375
vt 0.546875 0.671875
vt 0.546875 0.7109375
vt 0.6015625 0.7109375
vt 0.6015625 0.671875
vt 0.6796875 0.7265625
vt 0.6796875 0.765625
vt 0.7265625 0.765625
vt 0.7265625 0.7265625
vt 0.7421875 0.4609375
vt 0.640625 0.4609375
vt 0.640625 0.5
vt 0.7421875 0.5
vt 0.515625 0.78125
vt 0.46875 0.78125
vt 0.46875 0.8203125
vt 0.515625 0.8203125
vt 0.6328125 0.578125
vt 0.6953125 0.578125
vt 0.6953125 0.5390625
vt 0.6328125 0.5390625
vt 0.7734375 0.578125
vt 0.8203125 0.578125
vt 0.8203125 0.5390625
vt 0.7734375 0.5390625
vt 0.7421875 0.8203125
vt 0.78125 0.8203125
vt 0.78125 0.8046875
vt 0.7421875 0.8046875
vt 0.6171875 0.765625
vt 0.6640625 0.765625
vt 0.6640625 0.7265625
vt 0.6171875 0.7265625
vt 0.7890625 0.671875
vt 0.7421875 0.671875
vt 0.7421875 0.7109375
vt 0.7890625 0.7109375
vn 0 1 0
vn 0 1 0
vn 0 1 0
vn 0 1 0
vn 0 1 0
vn 0 1 0
vn 0 1 0
vn 0 1 0
vn 0 1 0
vn 0 1 0
vn 0 -1 0
vn 0 -1 0
vn 0 -1 0
vn 0 -1 0
vn 0 -1 0
vn 0 -1 0
vn 0 -1 0
vn 0 -1 0
vn 0 -1 0
vn 0 -1 0
vn -1 0 0
vn -1 0 0
vn -1 0 0
vn -1 0 0
vn -1 0 0
vn -1 0 0
vn -1 0 0
vn -1 0 0
vn -1 0 0
vn -1 0 0
vn -1 0 0
vn -1 0 0
vn 1 0 0
vn 1 0 0
vn 1 0 0
vn 1 0 0
vn 1 0 0
vn 1 0 0
vn 1 0 0
vn 1 0 0
vn 0 0 -1
vn 0 0 -1
vn 0 0 -1
vn 0 0 -1
vn 0 0 -1
vn 0 0 -1
vn 0 0 -1
vn 0 0 -1
vn 0 0 1
vn 0 0 1
vn 0 0 1
vn 0 0 1
vn 0 0 1
vn 0 0 1
vn 0 0 1
vn 0 0 1
vn 0 0 1
vn 0 0 1
vn 0 0 1
vn 0 0 1
g 1_0
f 3/3/3 2/2/2 1/1/1
f 4/4/4 3/3/3 1/1/1
f 5/5/5 3/3/3 4/4/4
f 6/6/6 5/5/5 4/4/4
f 9/9/9 8/8/8 7/7/7
f 10/10/10 9/9/9 7/7/7
f 13/13/13 12/12/12 11/11/11
f 14/14/14 13/13/13 11/11/11
f 15/15/15 14/14/14 11/11/11
f 16/16/16 14/14/14 15/15/15
f 19/19/19 18/18/18 17/17/17
f 20/20/20 19/19/19 17/17/17
f 23/23/23 22/22/22 21/21/21
f 24/24/24 23/23/23 21/21/21
f 27/27/27 26/26/26 25/25/25
f 28/28/28 27/27/27 25/25/25
f 31/31/31 30/30/30 29/29/29
f 32/32/32 31/31/31 29/29/29
f 35/35/35 34/34/34 33/33/33
f 36/36/36 35/35/35 33/33/33
f 39/39/39 38/38/38 37/37/37
f 40/40/40 39/39/39 37/37/37
f 43/43/43 42/42/42 41/41/41
f 44/44/44 43/43/43 41/41/41
f 47/47/47 46/46/46 45/45/45
f 48/48/48 47/47/47 45/45/45
f 51/51/51 50/50/50 49/49/49
f 52/52/52 51/51/51 49/49/49
f 55/55/55 54/54/54 53/53/53
f 56/56/56 55/55/55 53/53/53
f 59/59/59 58/58/58 57/57/57
f 60/60/60 59/59/59 57/57/57
