g 22
v 0.02108071 0.02108074 -0.08432304
v 0.02108071 -0.0210807 -0.08432304
v 0.02108072 -0.0210807 -1.525879E-07
v 0.02108072 0.02108074 -1.525879E-07
v -0.02108073 0.02108074 -0.08432304
v 0.02108071 0.02108074 -0.08432304
v 0.02108072 0.02108074 -1.525879E-07
v -0.02108072 0.02108074 -1.430511E-07
v -0.02108072 -0.0210807 -1.430511E-07
v 0.02108072 -0.0210807 -1.525879E-07
v 0.02108071 -0.0210807 -0.08432304
v -0.02108072 -0.0210807 -0.08432304
v -0.02108072 0.02108074 -1.430511E-07
v -0.02108072 -0.0210807 -1.430511E-07
v -0.02108072 -0.0210807 -0.08432304
v -0.02108073 0.02108074 -0.08432304
v -0.02108072 -0.0210807 -0.08432304
v 0.02108071 -0.0210807 -0.08432304
v 0.02108071 0.02108074 -0.08432304
v -0.02108073 0.02108074 -0.08432304
v -0.02108072 0.02108074 -1.430511E-07
v 0.02108072 0.02108074 -1.525879E-07
v 0.02108072 -0.0210807 -1.525879E-07
v -0.02108072 -0.0210807 -1.430511E-07
vt 0.4998997 0.4981406
vt 0.4995199 0.4981406
vt 0.4995199 0.4989002
vt 0.4998997 0.4989002
vt 0.4996818 0.4981406
vt 0.499302 0.4981406
vt 0.499302 0.4989002
vt 0.4996818 0.4989002
vt 0.5003182 0.4989002
vt 0.500698 0.4989002
vt 0.500698 0.4981406
vt 0.5003182 0.4981406
vt 0.5001003 0.4989002
vt 0.5004801 0.4989002
vt 0.5004801 0.4981406
vt 0.5001003 0.4981406
vt 0.4996818 0.4995199
vt 0.499302 0.4995199
vt 0.499302 0.4998997
vt 0.4996818 0.4998997
vt 0.5003182 0.4998997
vt 0.500698 0.4998997
vt 0.500698 0.4995199
vt 0.5003182 0.4995199
vn 1 0 0
vn 1 0 0
vn 1 0 0
vn 1 0 0
vn 0 1 0
vn 0 1 0
vn 0 1 0
vn 0 1 0
vn 0 -1 0
vn 0 -1 0
vn 0 -1 0
vn 0 -1 0
vn -1 0 0
vn -1 0 0
vn -1 0 0
vn -1 0 0
vn 0 0 -1
vn 0 0 -1
vn 0 0 -1
vn 0 0 -1
vn 0 0 1
vn 0 0 1
vn 0 0 1
vn 0 0 1
g 22_0
f 3/3/3 2/2/2 1/1/1
f 4/4/4 3/3/3 1/1/1
f 7/7/7 6/6/6 5/5/5
f 8/8/8 7/7/7 5/5/5
f 11/11/11 10/10/10 9/9/9
f 12/12/12 11/11/11 9/9/9
f 15/15/15 14/14/14 13/13/13
f 16/16/16 15/15/15 13/13/13
f 19/19/19 18/18/18 17/17/17
f 20/20/20 19/19/19 17/17/17
f 23/23/23 22/22/22 21/21/21
f 24/24/24 23/23/23 21/21/21
