# Mesh "3" exported with Unity Assets Bundle Extractor; 36 vertices, 60 indices, 320 bits per vertex
g 3
# SubMesh 0
# Vertices
v -0.080000 0.100000 0.040000
vt 0.320313 0.554688
vn -0.000000 1.000000 0.000000
v -0.080000 0.100000 -0.280000
vt 0.257813 0.554688
vn -0.000000 1.000000 0.000000
v 0.160000 0.100000 -0.280000
vt 0.257813 0.601563
vn -0.000000 1.000000 0.000000
v 0.160000 0.100000 0.280000
vt 0.367188 0.601563
vn -0.000000 1.000000 0.000000
v -0.160000 0.100000 0.280000
vt 0.367188 0.539063
vn -0.000000 1.000000 0.000000
v -0.160000 0.100000 0.040000
vt 0.320313 0.539063
vn -0.000000 1.000000 0.000000
v 0.160000 -0.100000 -0.280000
vt 0.718750 0.093750
vn -0.000000 -1.000000 0.000000
v -0.080000 -0.100000 -0.280000
vt 0.718750 0.140625
vn -0.000000 -1.000000 0.000000
v -0.080000 -0.100000 0.040000
vt 0.781250 0.140625
vn -0.000000 -1.000000 0.000000
v 0.160000 -0.100000 0.280000
vt 0.828125 0.093750
vn -0.000000 -1.000000 0.000000
v -0.160000 -0.100000 0.280000
vt 0.828125 0.156250
vn -0.000000 -1.000000 0.000000
v -0.160000 -0.100000 0.040000
vt 0.781250 0.156250
vn -0.000000 -1.000000 0.000000
v -0.160000 -0.100000 0.040000
vt 0.320313 0.804688
vn -1.000000 0.000000 0.000000
v -0.160000 0.100000 0.040000
vt 0.320313 0.843750
vn -1.000000 0.000000 0.000000
v -0.160000 0.100000 0.280000
vt 0.367188 0.843750
vn -1.000000 0.000000 0.000000
v -0.160000 -0.100000 0.280000
vt 0.367188 0.804688
vn -1.000000 0.000000 0.000000
v -0.080000 -0.100000 -0.280000
vt 0.382813 0.742188
vn -1.000000 0.000000 0.000000
v -0.080000 0.100000 -0.280000
vt 0.382813 0.781250
vn -1.000000 0.000000 0.000000
v -0.080000 0.100000 0.040000
vt 0.445313 0.781250
vn -1.000000 0.000000 0.000000
v -0.080000 -0.100000 0.040000
vt 0.445313 0.742188
vn -1.000000 0.000000 0.000000
v 0.160000 0.100000 0.280000
vt 0.617188 0.539063
vn 1.000000 0.000000 0.000000
v 0.160000 0.100000 -0.280000
vt 0.507813 0.539063
vn 1.000000 0.000000 0.000000
v 0.160000 -0.100000 -0.280000
vt 0.507813 0.578125
vn 1.000000 0.000000 0.000000
v 0.160000 -0.100000 0.280000
vt 0.617188 0.578125
vn 1.000000 0.000000 0.000000
v 0.160000 0.100000 -0.280000
vt 0.257813 0.843750
vn -0.000000 0.000000 -1.000000
v -0.080000 0.100000 -0.280000
vt 0.304688 0.843750
vn -0.000000 0.000000 -1.000000
v -0.080000 -0.100000 -0.280000
vt 0.304688 0.804688
vn -0.000000 0.000000 -1.000000
v 0.160000 -0.100000 -0.280000
vt 0.257813 0.804688
vn -0.000000 0.000000 -1.000000
v -0.080000 0.100000 0.040000
vt 0.851563 0.781250
vn -0.000000 0.000000 -1.000000
v -0.160000 0.100000 0.040000
vt 0.851563 0.765625
vn -0.000000 0.000000 -1.000000
v -0.160000 -0.100000 0.040000
vt 0.812500 0.765625
vn -0.000000 0.000000 -1.000000
v -0.080000 -0.100000 0.040000
vt 0.812500 0.781250
vn -0.000000 0.000000 -1.000000
v -0.160000 -0.100000 0.280000
vt 0.468750 0.671875
vn -0.000000 0.000000 1.000000
v -0.160000 0.100000 0.280000
vt 0.468750 0.710938
vn -0.000000 0.000000 1.000000
v 0.160000 0.100000 0.280000
vt 0.531250 0.710938
vn -0.000000 0.000000 1.000000
v 0.160000 -0.100000 0.280000
vt 0.531250 0.671875
vn -0.000000 0.000000 1.000000
# Faces (1 to 36)
g 3_0
f -34/-34/-34 -35/-35/-35 -36/-36/-36
f -33/-33/-33 -34/-34/-34 -36/-36/-36
f -32/-32/-32 -33/-33/-33 -36/-36/-36
f -31/-31/-31 -32/-32/-32 -36/-36/-36
f -28/-28/-28 -29/-29/-29 -30/-30/-30
f -27/-27/-27 -28/-28/-28 -30/-30/-30
f -28/-28/-28 -27/-27/-27 -26/-26/-26
f -25/-25/-25 -28/-28/-28 -26/-26/-26
f -22/-22/-22 -23/-23/-23 -24/-24/-24
f -21/-21/-21 -22/-22/-22 -24/-24/-24
f -18/-18/-18 -19/-19/-19 -20/-20/-20
f -17/-17/-17 -18/-18/-18 -20/-20/-20
f -14/-14/-14 -15/-15/-15 -16/-16/-16
f -13/-13/-13 -14/-14/-14 -16/-16/-16
f -10/-10/-10 -11/-11/-11 -12/-12/-12
f -9/-9/-9 -10/-10/-10 -12/-12/-12
f -6/-6/-6 -7/-7/-7 -8/-8/-8
f -5/-5/-5 -6/-6/-6 -8/-8/-8
f -2/-2/-2 -3/-3/-3 -4/-4/-4
f -1/-1/-1 -2/-2/-2 -4/-4/-4

