g A_1_r
v -0.08010446 0.08103507 -0.0730488
v -0.08020125 0.08109097 0.07146892
v 0.04554979 0.008488568 0.0713572
v 0.04564657 0.008432693 -0.07316057
v 0.1278218 0.4411739 -0.07304887
v -0.08010446 0.08103507 -0.0730488
v 0.04564657 0.008432693 -0.07316057
v 0.2535729 0.3685716 -0.07316054
v 0.2535729 0.3685716 -0.07316054
v 0.04564657 0.008432693 -0.07316057
v 0.04554979 0.008488568 0.0713572
v 0.2534761 0.3686274 0.07135721
v 0.2534761 0.3686274 0.07135721
v 0.04554979 0.008488568 0.0713572
v -0.08020125 0.08109097 0.07146892
v 0.1277251 0.4412298 0.07146895
v 0.1277251 0.4412298 0.07146895
v -0.08020125 0.08109097 0.07146892
v -0.08010446 0.08103507 -0.0730488
v 0.1278218 0.4411739 -0.07304887
v 0.1278218 0.4411739 -0.07304887
v 0.2535729 0.3685716 -0.07316054
v 0.2534761 0.3686274 0.07135721
v 0.1277251 0.4412298 0.07146895
vt 0.4159187 0.8735545
vt 0.4159187 0.9720759
vt 0.5012406 0.9720759
vt 0.5012406 0.8735545
vt 0.5187223 0.9866205
vt 0.5187223 0.3728327
vt 0.4202011 0.3728327
vt 0.4202011 0.9866203
vt 0.5099689 0.8939035
vt 0.5099689 0.3623478
vt 0.4114475 0.3623478
vt 0.4114475 0.8939035
vt 0.5176238 0.9736679
vt 0.5176238 0.3598804
vt 0.4191026 0.3598804
vt 0.4191021 0.9736679
vt 0.5107623 0.8938957
vt 0.5107623 0.3623398
vt 0.412241 0.3623398
vt 0.412241 0.8938957
vt 0.5198988 0.8791191
vt 0.4345771 0.8791191
vt 0.4345771 0.9776403
vt 0.5198988 0.9776403
vn -0.5 -0.8660254 0
vn -0.5 -0.8660254 0
vn -0.5 -0.8660254 0
vn -0.5 -0.8660254 0
vn -0.0006663399 0.0003846652 -0.9999997
vn -0.0006663399 0.0003846652 -0.9999997
vn -0.0006663398 0.0003846652 -0.9999997
vn -0.0006663399 0.0003846652 -0.9999997
vn 0.8660251 -0.4999999 0.0007732973
vn 0.8660251 -0.4999999 0.0007732973
vn 0.8660251 -0.4999999 0.0007732973
vn 0.8660251 -0.4999999 0.0007732972
vn 0.0006663508 -0.0003847775 0.9999997
vn 0.0006663508 -0.0003847775 0.9999997
vn 0.0006663508 -0.0003847775 0.9999997
vn 0.0006663508 -0.0003847775 0.9999997
vn -0.8660251 0.4999999 -0.0007732972
vn -0.8660251 0.4999999 -0.0007732972
vn -0.8660251 0.4999999 -0.0007732972
vn -0.8660251 0.4999999 -0.0007732972
vn 0.5 0.8660254 2.363206E-07
vn 0.5000001 0.8660253 2.363205E-07
vn 0.5 0.8660254 2.363206E-07
vn 0.5 0.8660254 2.363205E-07
g A_1_r_0
f 3/3/3 2/2/2 1/1/1
f 4/4/4 3/3/3 1/1/1
f 7/7/7 6/6/6 5/5/5
f 8/8/8 7/7/7 5/5/5
f 11/11/11 10/10/10 9/9/9
f 12/12/12 11/11/11 9/9/9
f 15/15/15 14/14/14 13/13/13
f 16/16/16 15/15/15 13/13/13
f 19/19/19 18/18/18 17/17/17
f 20/20/20 19/19/19 17/17/17
f 23/23/23 22/22/22 21/21/21
f 24/24/24 23/23/23 21/21/21
