g A_2_L
v 0.2896964 0.1233408 0.07615546
v 0.2796676 0.02237646 -0.02499456
v 0.2796676 0.02237647 0.07615546
v 0.2896963 0.1233408 -0.02499462
v -0.0200557 0.1467067 -0.02499459
v -0.0300843 0.04574241 -0.02499453
v 0.2796676 0.02237646 -0.02499456
v 0.2896963 0.1233408 -0.02499462
v -0.02005571 0.1467066 0.07615537
v -0.0200557 0.1467067 -0.02499459
v 0.2896963 0.1233408 -0.02499462
v 0.2896964 0.1233408 0.07615546
v -0.0300843 0.04574237 0.07615542
v -0.02005571 0.1467066 0.07615537
v 0.2796676 0.02237647 0.07615546
v 0.2896964 0.1233408 0.07615546
v -0.0300843 0.04574241 -0.02499453
v -0.0300843 0.04574237 0.07615542
v 0.2796676 0.02237646 -0.02499456
v 0.2796676 0.02237647 0.07615546
v -0.02005571 0.1467066 0.07615537
v -0.0300843 0.04574237 0.07615542
v -0.0300843 0.04574241 -0.02499453
v -0.0200557 0.1467067 -0.02499459
vt 0.4217856 0.4285512
vt 0.4907507 0.3599643
vt 0.4217856 0.3599643
vt 0.4907507 0.4285512
vt 0.4501575 0.9769167
vt 0.5193157 0.9821543
vt 0.5193152 0.3700799
vt 0.4501575 0.3648416
vt 0.4437716 0.985698
vt 0.5127367 0.985698
vt 0.5127367 0.3752727
vt 0.4437716 0.3752727
vt 0.4482252 0.9848183
vt 0.5173828 0.9795804
vt 0.4482254 0.3727437
vt 0.5173828 0.3675056
vt 0.5117501 0.369703
vt 0.4427853 0.369703
vt 0.5117501 0.9801279
vt 0.4427853 0.9801279
vt 0.5075124 0.4340535
vt 0.5075124 0.3654665
vt 0.4385476 0.3654665
vt 0.4385476 0.4340535
vn 0.9951031 -0.09884279 -1.672656E-07
vn 0.9951031 -0.09884278 -1.672656E-07
vn 0.9951031 -0.09884279 -1.672656E-07
vn 0.9951031 -0.09884279 -1.672656E-07
vn -1.576314E-07 -6.101176E-07 -1
vn -1.576314E-07 -6.101176E-07 -1
vn -1.576314E-07 -6.101176E-07 -1
vn -1.576314E-07 -6.101176E-07 -1
vn 0.07522037 0.9971669 0
vn 0.07522036 0.9971669 0
vn 0.07522037 0.9971669 0
vn 0.07522036 0.9971669 0
vn -1.868269E-07 2.783129E-07 1
vn -1.868269E-07 2.783129E-07 1
vn -1.868269E-07 2.783129E-07 1
vn -1.868269E-07 2.783129E-07 1
vn -0.0752206 -0.9971669 -1.18373E-07
vn -0.0752206 -0.9971669 -1.18373E-07
vn -0.0752206 -0.9971669 -1.18373E-07
vn -0.0752206 -0.9971669 -1.18373E-07
vn -0.9951031 0.09884174 0
vn -0.9951031 0.09884175 0
vn -0.9951031 0.09884175 0
vn -0.9951031 0.09884174 0
g A_2_L_0
f 3/3/3 2/2/2 1/1/1
f 2/2/2 4/4/4 1/1/1
f 7/7/7 6/6/6 5/5/5
f 5/5/5 8/8/8 7/7/7
f 11/11/11 10/10/10 9/9/9
f 9/9/9 12/12/12 11/11/11
f 15/15/15 14/14/14 13/13/13
f 14/14/14 15/15/15 16/16/16
f 19/19/19 18/18/18 17/17/17
f 18/18/18 19/19/19 20/20/20
f 23/23/23 22/22/22 21/21/21
f 21/21/21 24/24/24 23/23/23
