g Ad
v -8.720794 -1.473376 -9.127687
v -0.9677637 -1.473369 -4.949565
v -0.9677637 -1.473372 -9.127687
v -8.720794 -1.473374 -4.949565
v -0.9677637 -1.473372 -9.127687
v -8.720794 -1.373215 -9.127687
v -8.720794 -1.473376 -9.127687
v -0.9677637 -1.37321 -9.127687
v -0.9677637 -1.473369 -4.949565
v -0.9677637 -1.37321 -9.127687
v -0.9677637 -1.473372 -9.127687
v -0.9677637 -1.373206 -4.949565
v -8.720794 -1.473374 -4.949565
v -0.9677637 -1.373206 -4.949565
v -0.9677637 -1.473369 -4.949565
v -8.720794 -1.373208 -4.949565
v -8.720794 -1.473376 -9.127687
v -8.720794 -1.373208 -4.949565
v -8.720794 -1.473374 -4.949565
v -8.720794 -1.373215 -9.127687
v -8.720794 -1.373215 -9.127687
v -0.9677637 -1.373206 -4.949565
v -8.720794 -1.373208 -4.949565
v -0.9677637 -1.37321 -9.127687
v -42.61037 -1.505705 -9.141919
v -34.85734 -1.505691 -4.963796
v -34.85734 -1.505696 -9.141919
v -42.61037 -1.505705 -4.963796
v -34.85734 -1.505696 -9.141919
v -42.61037 -1.405542 -9.14192
v -42.61037 -1.505705 -9.141919
v -34.85734 -1.405532 -9.14192
v -34.85734 -1.505691 -4.963796
v -34.85734 -1.405532 -9.14192
v -34.85734 -1.505696 -9.141919
v -34.85734 -1.405525 -4.963798
v -42.61037 -1.505705 -4.963796
v -34.85734 -1.405525 -4.963798
v -34.85734 -1.505691 -4.963796
v -42.61037 -1.40554 -4.963798
v -42.61037 -1.505705 -9.141919
v -42.61037 -1.40554 -4.963798
v -42.61037 -1.505705 -4.963796
v -42.61037 -1.405542 -9.14192
v -42.61037 -1.405542 -9.14192
v -34.85734 -1.405525 -4.963798
v -42.61037 -1.40554 -4.963798
v -34.85734 -1.405532 -9.14192
vt 0.7900828 0.4844311
vt 0.9636266 0.5779542
vt 0.9636266 0.4844311
vt 0.7900828 0.5779542
vt 0.9636266 0.4844311
vt 0.7900828 0.4844311
vt 0.7900828 0.4844311
vt 0.9636266 0.4844311
vt 0.9636266 0.5779542
vt 0.9636266 0.4844311
vt 0.9636266 0.4844311
vt 0.9636266 0.5779542
vt 0.7900828 0.5779542
vt 0.9636266 0.5779542
vt 0.9636266 0.5779542
vt 0.7900828 0.5779542
vt 0.7900828 0.4844311
vt 0.7900828 0.5779542
vt 0.7900828 0.5779542
vt 0.7900828 0.4844311
vt 0.9636266 0.4844311
vt 0.7900828 0.5779542
vt 0.9636266 0.5779542
vt 0.7900828 0.4844311
vt 0.7901902 0.3858405
vt 0.963734 0.4793636
vt 0.963734 0.3858405
vt 0.7901902 0.4793636
vt 0.963734 0.3858405
vt 0.7901902 0.3858405
vt 0.7901902 0.3858405
vt 0.963734 0.3858405
vt 0.963734 0.4793636
vt 0.963734 0.3858405
vt 0.963734 0.3858405
vt 0.963734 0.4793636
vt 0.7901902 0.4793636
vt 0.963734 0.4793636
vt 0.963734 0.4793636
vt 0.7901902 0.4793636
vt 0.7901902 0.3858405
vt 0.7901902 0.4793636
vt 0.7901902 0.4793636
vt 0.7901902 0.3858405
vt 0.963734 0.3858405
vt 0.7901902 0.4793636
vt 0.963734 0.4793636
vt 0.7901902 0.3858405
vn 0 -1 0
vn 0 -1 0
vn 0 -1 0
vn 0 -1 0
vn 0 0 -1
vn 0 0 -1
vn 0 0 -1
vn 0 0 -1
vn 1 0 0
vn 1 0 0
vn 1 0 0
vn 1 0 0
vn 0 0 1
vn 0 0 1
vn 0 0 1
vn 0 0 1
vn -1 0 0
vn -1 0 0
vn -1 0 0
vn -1 0 0
vn 0 1 0
vn 0 1 0
vn 0 1 0
vn 0 1 0
vn 0 -1 0
vn 0 -1 0
vn 0 -1 0
vn 0 -1 0
vn 0 -1.21871E-05 -1
vn 0 -1.21871E-05 -1
vn 0 -1.21871E-05 -1
vn 0 -1.21871E-05 -1
vn 1 0 0
vn 1 0 0
vn 1 0 0
vn 1 0 0
vn 0 1.21868E-05 1
vn 0 1.21868E-05 1
vn 0 1.21868E-05 1
vn 0 1.21868E-05 1
vn -1 0 0
vn -1 0 0
vn -1 0 0
vn -1 0 0
vn 0 1 0
vn 0 1 0
vn 0 1 0
vn 0 1 0
g Ad_0
f 3/3/3 2/2/2 1/1/1
f 4/4/4 1/1/1 2/2/2
f 7/7/7 6/6/6 5/5/5
f 8/8/8 5/5/5 6/6/6
f 11/11/11 10/10/10 9/9/9
f 12/12/12 9/9/9 10/10/10
f 15/15/15 14/14/14 13/13/13
f 16/16/16 13/13/13 14/14/14
f 19/19/19 18/18/18 17/17/17
f 20/20/20 17/17/17 18/18/18
f 23/23/23 22/22/22 21/21/21
f 24/24/24 21/21/21 22/22/22
f 27/27/27 26/26/26 25/25/25
f 28/28/28 25/25/25 26/26/26
f 31/31/31 30/30/30 29/29/29
f 32/32/32 29/29/29 30/30/30
f 35/35/35 34/34/34 33/33/33
f 36/36/36 33/33/33 34/34/34
f 39/39/39 38/38/38 37/37/37
f 40/40/40 37/37/37 38/38/38
f 43/43/43 42/42/42 41/41/41
f 44/44/44 41/41/41 42/42/42
f 47/47/47 46/46/46 45/45/45
f 48/48/48 45/45/45 46/46/46
