g alien_planet_decor_small_space_016
v -90.6761 -27.84394 14.92261
v -90.73553 -28.38655 14.49842
v -91.96927 -26.84933 14.49854
v -91.42662 -26.90879 14.92269
v -90.6761 -27.84394 14.92261
v -91.42662 -26.90879 14.92269
v -89.74095 -27.09342 14.92267
v -90.49147 -26.15827 14.92274
v -91.42662 -26.90879 14.92269
v -91.96927 -26.84933 14.49854
v -90.43204 -25.61559 14.49863
v -90.49147 -26.15827 14.92274
v -90.49147 -26.15827 14.92274
v -90.43204 -25.61559 14.49863
v -89.1983 -27.15282 14.49851
v -89.74095 -27.09342 14.92267
v -89.60896 -27.1076 11.2809
v -89.1983 -27.15282 14.49851
v -90.47702 -26.02601 11.2809
v -90.43204 -25.61559 14.49863
v -89.74095 -27.09342 14.92267
v -89.1983 -27.15282 14.49851
v -90.73553 -28.38655 14.49842
v -90.6761 -27.84394 14.92261
v -88.88519 -28.17946 13.43235
v -89.054 -28.40807 13.18157
v -89.53519 -27.70125 13.52332
v -89.17789 -27.74948 13.64025
v -88.88519 -28.17946 13.43235
v -89.17789 -27.74948 13.64025
v -88.78666 -27.39375 13.45539
v -88.49393 -27.82373 13.24749
v -90.51277 -27.51494 11.35004
v -89.53519 -27.70125 13.52332
v -89.054 -28.40807 13.18157
v -90.19121 -27.98728 11.12166
v -89.17789 -27.74948 13.64025
v -89.53519 -27.70125 13.52332
v -88.89204 -27.11649 13.21944
v -88.78666 -27.39375 13.45539
v -90.08298 -27.12416 11.14696
v -88.89204 -27.11649 13.21944
v -89.53519 -27.70125 13.52332
v -90.51277 -27.51494 11.35004
v -88.78666 -27.39375 13.45539
v -88.89204 -27.11649 13.21944
v -88.41086 -27.82331 12.87769
v -88.49393 -27.82373 13.24749
v -89.76142 -27.59651 10.91858
v -88.41086 -27.82331 12.87769
v -88.89204 -27.11649 13.21944
v -90.08298 -27.12416 11.14696
v -88.49393 -27.82373 13.24749
v -88.41086 -27.82331 12.87769
v -89.054 -28.40807 13.18157
v -88.88519 -28.17946 13.43235
v -90.19121 -27.98728 11.12166
v -89.054 -28.40807 13.18157
v -88.41086 -27.82331 12.87769
v -89.76142 -27.59651 10.91858
v -92.26233 -27.59293 12.63971
v -92.25452 -27.75537 12.38535
v -92.09806 -27.14153 12.31129
v -92.16714 -27.21951 12.59466
v -92.26233 -27.59293 12.63971
v -92.16714 -27.21951 12.59466
v -91.95544 -27.64315 12.87172
v -91.86026 -27.26974 12.82667
v -90.87512 -27.75296 10.73823
v -92.09806 -27.14153 12.31129
v -92.25452 -27.75537 12.38535
v -90.97968 -28.16317 10.78772
v -92.16714 -27.21951 12.59466
v -92.09806 -27.14153 12.31129
v -91.59359 -27.2241 12.69268
v -91.86026 -27.26974 12.82667
v -90.538 -27.80814 10.9931
v -91.59359 -27.2241 12.69268
v -92.09806 -27.14153 12.31129
v -90.87512 -27.75296 10.73823
v -91.86026 -27.26974 12.82667
v -91.59359 -27.2241 12.69268
v -91.75005 -27.83794 12.76674
v -91.95544 -27.64315 12.87172
v -90.64256 -28.21835 11.0426
v -91.75005 -27.83794 12.76674
v -91.59359 -27.2241 12.69268
v -90.538 -27.80814 10.9931
v -91.95544 -27.64315 12.87172
v -91.75005 -27.83794 12.76674
v -92.25452 -27.75537 12.38535
v -92.26233 -27.59293 12.63971
v -90.97968 -28.16317 10.78772
v -92.25452 -27.75537 12.38535
v -91.75005 -27.83794 12.76674
v -90.64256 -28.21835 11.0426
v -90.73553 -28.38655 14.49842
v -90.69057 -27.97566 11.2809
v -91.55861 -26.89406 11.2809
v -91.96927 -26.84933 14.49854
v -91.96927 -26.84933 14.49854
v -91.55861 -26.89406 11.2809
v -90.47702 -26.02601 11.2809
v -90.43204 -25.61559 14.49863
v -90.73553 -28.38655 14.49842
v -89.1983 -27.15282 14.49851
v -90.69057 -27.97566 11.2809
v -89.60896 -27.1076 11.2809
v -91.68806 -28.56357 11.46535
v -91.68806 -26.68857 11.46535
v -89.03181 -26.68857 11.46535
v -89.03181 -28.56357 11.46535
v -91.68806 -28.56357 10.52785
v -91.68806 -28.56357 11.46535
v -89.03181 -28.56357 11.46535
v -89.03181 -28.56357 10.52785
v -89.03181 -28.56357 10.52785
v -89.03181 -28.56357 11.46535
v -89.03181 -26.68857 11.46535
v -89.03181 -26.68857 10.52785
v -91.68806 -26.68857 10.52785
v -91.68806 -26.68857 11.46535
v -91.68806 -28.56357 11.46535
v -91.68806 -28.56357 10.52785
v -89.81306 -27.93857 11.31194
v -89.81306 -26.06357 11.31194
v -88.25056 -26.06357 11.31194
v -88.25056 -27.93857 11.31194
v -89.81306 -27.93857 10.52785
v -89.81306 -27.93857 11.31194
v -88.25056 -27.93857 11.31194
v -88.25056 -27.93857 10.52785
v -88.25056 -27.93857 10.52785
v -88.25056 -27.93857 11.31194
v -88.25056 -26.06357 11.31194
v -88.25056 -26.06357 10.52785
v -88.25056 -26.06357 10.52785
v -88.25056 -26.06357 11.31194
v -89.81306 -26.06357 11.31194
v -89.81306 -26.06357 10.52785
v -91.84431 -27.00107 11.77785
v -91.84431 -25.43857 11.77785
v -88.87556 -25.43857 11.77785
v -88.87556 -27.00107 11.77785
v -91.84431 -27.00107 10.52785
v -91.84431 -27.00107 11.77785
v -88.87556 -27.00107 11.77785
v -88.87556 -27.00107 10.52785
v -88.87556 -27.00107 10.52785
v -88.87556 -27.00107 11.77785
v -88.87556 -25.43857 11.77785
v -88.87556 -25.43857 10.52785
v -88.87556 -25.43857 10.52785
v -88.87556 -25.43857 11.77785
v -91.84431 -25.43857 11.77785
v -91.84431 -25.43857 10.52785
v -91.84431 -25.43857 10.52785
v -91.84431 -25.43857 11.77785
v -91.84431 -27.00107 11.77785
v -91.84431 -27.00107 10.52785
v -92.46931 -27.46982 11.15285
v -92.46931 -25.59482 11.15285
v -90.12556 -25.59482 11.15285
v -90.12556 -27.46982 11.15285
v -92.46931 -27.46982 10.52785
v -92.46931 -27.46982 11.15285
v -90.12556 -27.46982 11.15285
v -90.12556 -27.46982 10.52785
v -90.12556 -25.59482 10.52785
v -90.12556 -25.59482 11.15285
v -92.46931 -25.59482 11.15285
v -92.46931 -25.59482 10.52785
v -92.46931 -25.59482 10.52785
v -92.46931 -25.59482 11.15285
v -92.46931 -27.46982 11.15285
v -92.46931 -27.46982 10.52785
v -89.03181 -29.6544 10.60616
v -89.65607 -29.65445 10.60616
v -89.03181 -28.56361 10.60616
v -89.6559 -28.56357 10.60616
v -88.25056 -28.56355 10.60616
v -89.03181 -28.56361 10.60616
v -88.25056 -27.93857 10.60616
v -89.03181 -27.93857 10.60616
v -92.46931 -28.56352 10.60616
v -92.46931 -27.46982 10.60616
v -91.68803 -28.56359 10.60616
v -91.68806 -27.46982 10.60616
v -89.65607 -29.65445 10.60616
v -91.68806 -29.65439 10.60616
v -89.6559 -28.56357 10.60616
v -91.68803 -28.56359 10.60616
v -87.47033 -27.93857 10.60616
v -88.25056 -26.06353 10.60616
v -87.4706 -26.06362 10.60616
v -88.25056 -27.93857 10.60616
v -93.24941 -25.59483 10.60616
v -93.24972 -25.59483 10.60616
v -93.25078 -25.59483 10.60616
v -93.24972 -25.59483 10.60616
v -93.24941 -25.59483 10.60616
v -92.46931 -27.46982 10.60616
v -93.24931 -27.46982 10.60616
v -92.46931 -25.59483 10.60616
v -93.24941 -25.59483 10.60616
v -93.24972 -25.59483 10.60616
v -92.46931 -25.59483 10.60616
vt 0.2005304 0.9859549
vt 0.2152508 0.9610031
vt 0.13198 0.9616126
vt 0.1470642 0.9863462
vt 0.1302147 0.9921875
vt 0.1901543 0.9908792
vt 0.1289063 0.9322481
vt 0.1888459 0.9309396
vt 0.2005304 0.9859549
vt 0.2152508 0.9610031
vt 0.1319799 0.9616126
vt 0.1470642 0.9863462
vt 0.2005303 0.985955
vt 0.2152508 0.9610031
vt 0.1319801 0.9616126
vt 0.1470643 0.9863462
vt 0.1430368 0.8026333
vt 0.1302474 0.9871191
vt 0.2018049 0.8026101
vt 0.21398 0.984375
vt 0.2005304 0.9859549
vt 0.2152508 0.961003
vt 0.1319799 0.9616126
vt 0.1470642 0.9863463
vt 0.1876846 0.9801002
vt 0.1953555 0.9670975
vt 0.1519624 0.9674152
vt 0.1598229 0.9803041
vt 0.1580839 0.9921875
vt 0.1580839 0.966916
vt 0.1328125 0.966916
vt 0.1328125 0.9921875
vt 0.1583413 0.828094
vt 0.1508678 0.9396657
vt 0.1959247 0.9396657
vt 0.1884514 0.8280941
vt 0.1876846 0.9801002
vt 0.1953555 0.9670975
vt 0.1519624 0.9674152
vt 0.1598229 0.9803041
vt 0.1583414 0.828094
vt 0.1508678 0.9396657
vt 0.1959247 0.9396657
vt 0.1884514 0.8280941
vt 0.1876845 0.9801002
vt 0.1953555 0.9670975
vt 0.1519624 0.9674151
vt 0.1598229 0.980304
vt 0.1583413 0.828094
vt 0.1508678 0.9396657
vt 0.1959247 0.9396657
vt 0.1884514 0.8280941
vt 0.1876846 0.9801001
vt 0.1953555 0.9670974
vt 0.1519624 0.9674152
vt 0.1598229 0.9803041
vt 0.1583414 0.828094
vt 0.1508678 0.9396657
vt 0.1959247 0.9396657
vt 0.1884514 0.8280941
vt 0.1842696 0.9785436
vt 0.1900665 0.9687177
vt 0.1572745 0.9689577
vt 0.1632147 0.9786978
vt 0.1551479 0.9892513
vt 0.1542 0.9708
vt 0.1357485 0.9892513
vt 0.1366965 0.9708
vt 0.1616925 0.8405118
vt 0.1558826 0.927248
vt 0.19091 0.927248
vt 0.1851002 0.8405118
vt 0.1842696 0.9785436
vt 0.1900665 0.9687177
vt 0.1572745 0.9689577
vt 0.1632147 0.9786978
vt 0.1616925 0.8405118
vt 0.1558826 0.927248
vt 0.19091 0.927248
vt 0.1851002 0.8405118
vt 0.1842696 0.9785438
vt 0.1900665 0.9687177
vt 0.1572746 0.9689577
vt 0.1632147 0.9786978
vt 0.1616925 0.8405118
vt 0.1558826 0.927248
vt 0.19091 0.927248
vt 0.1851002 0.8405118
vt 0.1842696 0.9785436
vt 0.1900665 0.9687176
vt 0.1572745 0.9689577
vt 0.1632147 0.9786978
vt 0.1616925 0.8405117
vt 0.1558826 0.927248
vt 0.19091 0.927248
vt 0.1851002 0.8405119
vt 0.1328125 0.8467925
vt 0.3145691 0.834618
vt 0.3145737 0.7778001
vt 0.1328125 0.765625
vt 0.2139799 0.9843749
vt 0.2018052 0.8026136
vt 0.1449879 0.8026099
vt 0.1328125 0.9843749
vt 0.1328125 0.984375
vt 0.2165451 0.9871191
vt 0.1449873 0.8026181
vt 0.2037559 0.8026335
vt 0.3710938 0.9921875
vt 0.3710938 0.8984375
vt 0.2382812 0.8984375
vt 0.2382812 0.9921875
vt 0.3710938 0.9921875
vt 0.3710938 0.9453125
vt 0.2382812 0.9453125
vt 0.2382812 0.9921875
vt 0.3710938 0.9921875
vt 0.3710938 0.9453125
vt 0.2773438 0.9453125
vt 0.2773438 0.9921875
vt 0.3710938 0.9921875
vt 0.3710938 0.9453125
vt 0.2773437 0.9453125
vt 0.2773437 0.9921875
vt 0.2773437 0.9726563
vt 0.3710938 0.9726563
vt 0.3710938 0.8945313
vt 0.2773437 0.8945313
vt 0.3710938 0.9375
vt 0.3710938 0.8984375
vt 0.2929687 0.8984375
vt 0.2929687 0.9375
vt 0.3710938 0.9375
vt 0.3710938 0.8984375
vt 0.2773437 0.8984375
vt 0.2773437 0.9375
vt 0.3710938 0.9921875
vt 0.3710938 0.953125
vt 0.2929687 0.953125
vt 0.2929687 0.9921875
vt 0.3710938 0.8437499
vt 0.2929687 0.8437499
vt 0.2929687 0.9921875
vt 0.3710937 0.9921875
vt 0.3710938 0.84375
vt 0.3085937 0.84375
vt 0.3085937 0.9921875
vt 0.3710937 0.9921875
vt 0.3710938 0.9921875
vt 0.3710938 0.9296875
vt 0.2929687 0.9296875
vt 0.2929687 0.9921875
vt 0.3710938 0.8437499
vt 0.3085937 0.8437499
vt 0.3085937 0.9921875
vt 0.3710937 0.9921875
vt 0.3710938 0.9921875
vt 0.3710938 0.9296875
vt 0.2929687 0.9296875
vt 0.2929687 0.9921875
vt 0.3710938 0.9921875
vt 0.3710938 0.8984375
vt 0.2539063 0.8984375
vt 0.2539063 0.9921875
vt 0.3710938 0.9335938
vt 0.3710938 0.9023438
vt 0.2539062 0.9023438
vt 0.2539062 0.9335938
vt 0.3710938 0.9921875
vt 0.3710938 0.9609375
vt 0.2539062 0.9609375
vt 0.2539062 0.9921875
vt 0.3710938 0.9335938
vt 0.3710938 0.9023438
vt 0.2773437 0.9023438
vt 0.2773437 0.9335938
vt 0.3164885 0.7421887
vt 0.3164636 0.7734526
vt 0.3710799 0.742188
vt 0.3710905 0.7734382
vt 0.3397976 0.8046272
vt 0.3398221 0.8437518
vt 0.3710937 0.8046294
vt 0.3710935 0.8437499
vt 0.331973 0.7889838
vt 0.3319728 0.84375
vt 0.3710927 0.7889806
vt 0.3710935 0.8437499
vt 0.3164806 0.7423037
vt 0.3167543 0.8432881
vt 0.3710497 0.7422643
vt 0.3710932 0.84375
vt 0.3320236 0.8437502
vt 0.3710893 0.7498598
vt 0.3320312 0.7498872
vt 0.3710932 0.84375
vt 0.3321545 0.84378
vt 0.3320051 0.8437499
vt 0.3319701 0.8437451
vt 0.3359504 0.8437426
vt 0.3321545 0.84378
vt 0.3710838 0.7498602
vt 0.3320274 0.749904
vt 0.3710932 0.84375
vt 0.3321545 0.84378
vt 0.3359504 0.8437426
vt 0.3710932 0.84375
vn -0.5767938 -0.462968 0.6730301
vn -0.5767938 -0.462968 0.6730301
vn -0.5767938 -0.462968 0.6730301
vn -0.576796 -0.462973 0.6730248
vn 1.22403E-07 -7.822338E-05 1
vn 1.22403E-07 -7.822338E-05 1
vn 1.22403E-07 -7.822338E-05 1
vn 4.35929E-07 -7.536085E-05 1
vn -0.4629186 0.5767439 0.6731068
vn -0.4629186 0.5767439 0.6731068
vn -0.4629186 0.5767439 0.6731068
vn -0.4629155 0.5767426 0.6731101
vn 0.5767966 0.4628682 0.6730964
vn 0.5767967 0.4628683 0.6730964
vn 0.5767966 0.4628683 0.6730964
vn 0.5767947 0.4628642 0.6731007
vn 0.7766966 0.6233587 -0.09036689
vn 0.7766967 0.6233587 -0.09036689
vn 0.7766967 0.6233587 -0.09036689
vn 0.7766955 0.6233603 -0.09036593
vn 0.4629178 -0.5768466 0.6730194
vn 0.4629178 -0.5768466 0.6730194
vn 0.4629178 -0.5768466 0.6730194
vn 0.462917 -0.5768464 0.6730201
vn -0.3229162 -0.5810454 0.7470685
vn -0.3229161 -0.5810454 0.7470685
vn -0.3229161 -0.5810454 0.7470685
vn -0.3229158 -0.5810452 0.7470688
vn 0.4889961 -0.08677242 0.8679593
vn 0.4889961 -0.08677242 0.8679593
vn 0.4889961 -0.0867724 0.8679593
vn 0.4889964 -0.08677246 0.8679591
vn -0.7283175 -0.6281804 0.2737572
vn -0.7283176 -0.6281803 0.2737571
vn -0.7283176 -0.6281804 0.2737571
vn -0.7283185 -0.6281785 0.2737589
vn -0.1749865 0.5986586 0.781657
vn -0.1749865 0.5986587 0.781657
vn -0.1749865 0.5986587 0.781657
vn -0.1749825 0.5986577 0.7816585
vn -0.5527892 0.7715725 0.3148013
vn -0.5527892 0.7715725 0.3148013
vn -0.5527892 0.7715725 0.3148013
vn -0.5527909 0.7715714 0.3148014
vn 0.8519498 0.487172 0.1919507
vn 0.8519498 0.487172 0.1919507
vn 0.8519498 0.487172 0.1919507
vn 0.8519489 0.4871743 0.1919483
vn 0.6656983 0.6392916 -0.3849051
vn 0.6656983 0.6392918 -0.384905
vn 0.6656983 0.6392918 -0.384905
vn 0.6656964 0.6392938 -0.3849048
vn 0.7040156 -0.6925313 0.1573602
vn 0.7040156 -0.6925313 0.1573602
vn 0.7040156 -0.6925313 0.1573602
vn 0.7040152 -0.6925312 0.1573627
vn 0.4901707 -0.7604609 -0.4259481
vn 0.4901708 -0.7604609 -0.4259482
vn 0.4901708 -0.7604609 -0.4259481
vn 0.4901696 -0.7604624 -0.4259468
vn -0.9592978 0.223721 -0.1723268
vn -0.9592978 0.223721 -0.1723269
vn -0.9592978 0.223721 -0.1723269
vn -0.9592978 0.2237228 -0.1723244
vn -0.5605166 0.2385522 0.793041
vn -0.5605167 0.2385523 0.793041
vn -0.5605167 0.2385523 0.793041
vn -0.560515 0.2385535 0.7930417
vn -0.7614664 0.1171688 -0.6375269
vn -0.7614663 0.1171688 -0.6375269
vn -0.7614663 0.1171688 -0.6375269
vn -0.7614657 0.1171758 -0.6375263
vn -0.03616804 0.9657559 0.2569194
vn -0.03616804 0.9657558 0.2569194
vn -0.03616805 0.9657559 0.2569194
vn -0.03616825 0.9657555 0.2569205
vn 0.2734915 0.949094 -0.1562787
vn 0.2734916 0.9490939 -0.1562787
vn 0.2734916 0.9490939 -0.1562787
vn 0.2734896 0.9490941 -0.1562812
vn 0.4498984 -0.006924367 0.8930529
vn 0.4498984 -0.006924367 0.8930529
vn 0.4498984 -0.006924367 0.8930529
vn 0.4498982 -0.006924428 0.8930531
vn 0.8184392 -0.1414183 0.5569183
vn 0.8184392 -0.1414183 0.5569183
vn 0.8184392 -0.1414183 0.5569183
vn 0.8184376 -0.1414221 0.5569197
vn -0.4732348 -0.7489544 0.4638062
vn -0.4732348 -0.7489544 0.4638062
vn -0.4732348 -0.7489544 0.4638061
vn -0.473228 -0.7489604 0.4638034
vn -0.2165206 -0.9733409 0.07567164
vn -0.2165206 -0.9733409 0.07567164
vn -0.2165206 -0.9733409 0.07567164
vn -0.2165166 -0.9733417 0.07567331
vn -0.7766964 -0.6233455 -0.09046072
vn -0.7766963 -0.6233456 -0.09046071
vn -0.7766963 -0.6233455 -0.09046071
vn -0.776697 -0.6233448 -0.09046029
vn -0.6233508 0.7767046 -0.09035289
vn -0.6233508 0.7767046 -0.09035289
vn -0.6233508 0.7767046 -0.09035289
vn -0.6233531 0.7767026 -0.09035454
vn 0.6233519 -0.7766898 -0.09047309
vn 0.6233518 -0.7766898 -0.09047308
vn 0.6233519 -0.7766898 -0.09047309
vn 0.6233517 -0.7766899 -0.0904729
vn 0 0 1
vn 0 0 1
vn 0 0 1
vn 0 0 1
vn 0 -1 0
vn 0 -1 0
vn 0 -1 0
vn 0 -1 0
vn 1 0 0
vn 1 0 0
vn 1 0 0
vn 1 0 0
vn -1 0 0
vn -1 0 0
vn -1 0 0
vn -1 0 0
vn 0 0 1
vn 0 0 1
vn 0 0 1
vn 0 0 1
vn 0 -1 0
vn 0 -1 0
vn 0 -1 0
vn 0 -1 0
vn 1 0 0
vn 1 0 0
vn 1 0 0
vn 1 0 0
vn 0 1 0
vn 0 1 0
vn 0 1 0
vn 0 1 0
vn 0 0 1
vn 0 0 1
vn 0 0 1
vn 0 0 1
vn 0 -1 0
vn 0 -1 0
vn 0 -1 0
vn 0 -1 0
vn 1 0 0
vn 1 0 0
vn 1 0 0
vn 1 0 0
vn 0 1 0
vn 0 1 0
vn 0 1 0
vn 0 1 0
vn -1 0 0
vn -1 0 0
vn -1 0 0
vn -1 0 0
vn 0 0 1
vn 0 0 1
vn 0 0 1
vn 0 0 1
vn 0 -1 0
vn 0 -1 0
vn 0 -1 0
vn 0 -1 0
vn 0 1 0
vn 0 1 0
vn 0 1 0
vn 0 1 0
vn -1 0 0
vn -1 0 0
vn -1 0 0
vn -1 0 0
vn 2.933242E-06 -5.595458E-07 1
vn 2.933243E-06 -5.595458E-07 1
vn 2.933242E-06 -5.595458E-07 1
vn 0 1.119016E-06 1
vn 7.813263E-07 -9.766084E-07 1
vn 7.813263E-07 -9.766084E-07 1
vn 7.813264E-07 -9.766085E-07 1
vn 0 0 1
vn 0 -5.580606E-07 1
vn 0 -5.580606E-07 1
vn 0 -5.580606E-07 1
vn 0 -5.580295E-07 1
vn -9.010803E-07 1.119156E-06 1
vn -9.010803E-07 1.119156E-06 1
vn -9.010802E-07 1.119156E-06 1
vn -3.003512E-07 0 1
vn 7.825412E-07 0 1
vn 7.825412E-07 0 1
vn 7.825412E-07 0 1
vn 7.82267E-07 0 1
vn 0 -0.2425356 0.9701425
vn 0 -0.2425356 0.9701425
vn 0 -0.2425356 0.9701425
vn 0 -0.2425356 0.9701425
vn -7.825167E-07 0 1
vn -7.825167E-07 0 1
vn -7.825167E-07 0 1
vn -7.82409E-07 0 1
vn 0 -0.2425356 0.9701425
vn 0 -0.2425356 0.9701425
vn 0 -0.2425356 0.9701425
g alien_planet_decor_small_space_016_0
f 3/3/3 2/2/2 1/1/1
f 4/4/4 3/3/3 1/1/1
f 7/7/7 6/6/6 5/5/5
f 8/8/8 6/6/6 7/7/7
f 11/11/11 10/10/10 9/9/9
f 12/12/12 11/11/11 9/9/9
f 15/15/15 14/14/14 13/13/13
f 16/16/16 15/15/15 13/13/13
f 19/19/19 18/18/18 17/17/17
f 20/20/20 18/18/18 19/19/19
f 23/23/23 22/22/22 21/21/21
f 24/24/24 23/23/23 21/21/21
f 27/27/27 26/26/26 25/25/25
f 28/28/28 27/27/27 25/25/25
f 31/31/31 30/30/30 29/29/29
f 32/32/32 31/31/31 29/29/29
f 35/35/35 34/34/34 33/33/33
f 36/36/36 35/35/35 33/33/33
f 39/39/39 38/38/38 37/37/37
f 40/40/40 39/39/39 37/37/37
f 43/43/43 42/42/42 41/41/41
f 44/44/44 43/43/43 41/41/41
f 47/47/47 46/46/46 45/45/45
f 48/48/48 47/47/47 45/45/45
f 51/51/51 50/50/50 49/49/49
f 52/52/52 51/51/51 49/49/49
f 55/55/55 54/54/54 53/53/53
f 56/56/56 55/55/55 53/53/53
f 59/59/59 58/58/58 57/57/57
f 60/60/60 59/59/59 57/57/57
f 63/63/63 62/62/62 61/61/61
f 64/64/64 63/63/63 61/61/61
f 67/67/67 66/66/66 65/65/65
f 68/68/68 66/66/66 67/67/67
f 71/71/71 70/70/70 69/69/69
f 72/72/72 71/71/71 69/69/69
f 75/75/75 74/74/74 73/73/73
f 76/76/76 75/75/75 73/73/73
f 79/79/79 78/78/78 77/77/77
f 80/80/80 79/79/79 77/77/77
f 83/83/83 82/82/82 81/81/81
f 84/84/84 83/83/83 81/81/81
f 87/87/87 86/86/86 85/85/85
f 88/88/88 87/87/87 85/85/85
f 91/91/91 90/90/90 89/89/89
f 92/92/92 91/91/91 89/89/89
f 95/95/95 94/94/94 93/93/93
f 96/96/96 95/95/95 93/93/93
f 99/99/99 98/98/98 97/97/97
f 100/100/100 99/99/99 97/97/97
f 103/103/103 102/102/102 101/101/101
f 104/104/104 103/103/103 101/101/101
f 107/107/107 106/106/106 105/105/105
f 108/108/108 106/106/106 107/107/107
g alien_planet_decor_small_space_016_1
f 111/111/111 110/110/110 109/109/109
f 112/112/112 111/111/111 109/109/109
f 115/115/115 114/114/114 113/113/113
f 116/116/116 115/115/115 113/113/113
f 119/119/119 118/118/118 117/117/117
f 120/120/120 119/119/119 117/117/117
f 123/123/123 122/122/122 121/121/121
f 124/124/124 123/123/123 121/121/121
f 127/127/127 126/126/126 125/125/125
f 128/128/128 127/127/127 125/125/125
f 131/131/131 130/130/130 129/129/129
f 132/132/132 131/131/131 129/129/129
f 135/135/135 134/134/134 133/133/133
f 136/136/136 135/135/135 133/133/133
f 139/139/139 138/138/138 137/137/137
f 140/140/140 139/139/139 137/137/137
f 143/143/143 142/142/142 141/141/141
f 144/144/144 143/143/143 141/141/141
f 147/147/147 146/146/146 145/145/145
f 148/148/148 147/147/147 145/145/145
f 151/151/151 150/150/150 149/149/149
f 152/152/152 151/151/151 149/149/149
f 155/155/155 154/154/154 153/153/153
f 156/156/156 155/155/155 153/153/153
f 159/159/159 158/158/158 157/157/157
f 160/160/160 159/159/159 157/157/157
f 163/163/163 162/162/162 161/161/161
f 164/164/164 163/163/163 161/161/161
f 167/167/167 166/166/166 165/165/165
f 168/168/168 167/167/167 165/165/165
f 171/171/171 170/170/170 169/169/169
f 172/172/172 171/171/171 169/169/169
f 175/175/175 174/174/174 173/173/173
f 176/176/176 175/175/175 173/173/173
f 179/179/179 178/178/178 177/177/177
f 179/179/179 180/180/180 178/178/178
f 183/183/183 182/182/182 181/181/181
f 183/183/183 184/184/184 182/182/182
f 187/187/187 186/186/186 185/185/185
f 187/187/187 188/188/188 186/186/186
f 191/191/191 190/190/190 189/189/189
f 192/192/192 190/190/190 191/191/191
f 195/195/195 194/194/194 193/193/193
f 194/194/194 196/196/196 193/193/193
f 199/199/199 198/198/198 197/197/197
f 197/197/197 200/200/200 199/199/199
f 203/203/203 202/202/202 201/201/201
f 204/204/204 201/201/201 202/202/202
f 207/207/207 206/206/206 205/205/205
