g Arch_08
v -0.5277429 1.904779 -1.95447
v 0.4975561 -2.904781 -1.95447
v 0.4975561 1.904779 -1.95447
v -0.5277429 -2.904781 -1.95447
v -0.5269604 2.40478 -0.9544701
v 0.4990991 2.40478 -1.45447
v 0.4991198 2.40478 -0.9544698
v -0.5269714 2.40478 -1.45447
v -0.5277527 1.904779 -1.45447
v 0.4975342 1.904779 -1.45447
v 0.4990991 2.40478 -1.45447
v -0.5269714 2.40478 -1.45447
v 0.4975342 1.904779 -1.45447
v 0.4975561 1.904779 -1.95447
v 0.4975342 1.404779 -1.435257
v 0.4975561 -2.904781 -1.95447
v 0.4975561 -2.904781 -1.435257
v 0.4991198 1.90478 -0.9544691
v 0.4991198 1.404779 -0.9544694
v 0.4990991 2.40478 -1.45447
v 0.4991198 2.40478 -0.9544698
v 0.4991198 2.40478 -0.4544697
v 0.4991198 1.90478 -0.4544694
v 0.4991198 2.904781 -0.9544699
v 0.4991211 2.904781 4.577637E-07
v 0.4991198 2.404781 4.577637E-07
v -0.5269604 2.40478 -0.9544701
v 0.4991198 2.40478 -0.9544698
v 0.4991198 2.904781 -0.9544699
v -0.5269604 2.904781 -0.9544703
v -0.5269604 1.90478 -0.4544694
v -0.5269604 2.40478 -0.45447
v 0.4991198 2.40478 -0.4544697
v 0.4991198 1.90478 -0.4544694
v -0.5269604 1.404779 -0.9544694
v -0.5269604 1.90478 -0.9544693
v 0.4991198 1.90478 -0.9544691
v 0.4991198 1.404779 -0.9544694
v -0.5277527 1.904779 -1.45447
v 0.4975561 1.904779 -1.95447
v 0.4975342 1.904779 -1.45447
v -0.5277429 1.904779 -1.95447
v -0.5269604 1.90478 -0.4544694
v 0.4991198 1.90478 -0.4544694
v 0.4991198 1.90478 -0.9544691
v -0.5269604 1.90478 -0.9544693
v -0.5269604 1.404779 -0.9544694
v 0.4991198 1.404779 -0.9544694
v 0.4975342 1.404779 -1.435257
v -0.5277527 1.404778 -1.435258
v -0.5277429 -2.904781 -1.435257
v -0.5277527 1.404778 -1.435258
v 0.4975342 1.404779 -1.435257
v 0.4975561 -2.904781 -1.435257
v 0.4991198 2.904781 -0.9544699
v 0.4991211 2.904781 4.577637E-07
v -0.5269592 2.904781 4.577637E-07
v -0.5269604 2.904781 -0.9544703
v -0.5269604 2.404781 4.577637E-07
v 0.4991198 2.404781 4.577637E-07
v 0.4991198 2.40478 -0.4544697
v -0.5269604 2.40478 -0.45447
v -0.5277429 1.904779 1.954471
v 0.4975561 1.904779 1.954471
v 0.4975561 -2.904781 1.954471
v -0.5277429 -2.904781 1.954471
v -0.5269604 2.40478 0.9544709
v 0.4991198 2.40478 0.9544706
v 0.4990991 2.40478 1.45447
v -0.5269714 2.40478 1.454471
v -0.5277527 1.904779 1.454471
v -0.5269714 2.40478 1.454471
v 0.4990991 2.40478 1.45447
v 0.4975342 1.904779 1.45447
v 0.4975342 1.904779 1.45447
v 0.4975342 1.404779 1.436183
v 0.4975561 1.904779 1.954471
v 0.4975561 -2.904781 1.954471
v 0.4975561 -2.904781 1.436183
v 0.4991198 1.90478 0.95447
v 0.4991198 1.404779 0.9544703
v 0.4990991 2.40478 1.45447
v 0.4991198 2.40478 0.9544706
v 0.4991198 2.40478 0.4544707
v 0.4991198 1.90478 0.4544704
v 0.4991198 2.904781 0.9544706
v 0.4991211 2.904781 4.577637E-07
v 0.4991198 2.404781 4.577637E-07
v -0.5269604 2.40478 0.9544709
v -0.5269604 2.904781 0.9544709
v 0.4991198 2.904781 0.9544706
v 0.4991198 2.40478 0.9544706
v -0.5269604 1.90478 0.4544704
v 0.4991198 1.90478 0.4544704
v 0.4991198 2.40478 0.4544707
v -0.5269604 2.40478 0.454471
v -0.5269604 1.404779 0.9544703
v 0.4991198 1.404779 0.9544703
v 0.4991198 1.90478 0.95447
v -0.5269604 1.90478 0.95447
v -0.5277527 1.904779 1.454471
v 0.4975342 1.904779 1.45447
v 0.4975561 1.904779 1.954471
v -0.5277429 1.904779 1.954471
v -0.5269604 1.90478 0.4544704
v 0.4991198 1.90478 0.95447
v 0.4991198 1.90478 0.4544704
v -0.5269604 1.90478 0.95447
v -0.5269604 1.404779 0.9544703
v 0.4975342 1.404779 1.436183
v 0.4991198 1.404779 0.9544703
v -0.5277527 1.404778 1.436183
v -0.5277429 -2.904781 1.436183
v 0.4975561 -2.904781 1.436183
v 0.4975342 1.404779 1.436183
v -0.5277527 1.404778 1.436183
v -0.5269592 2.904781 4.577637E-07
v 0.4991211 2.904781 4.577637E-07
v 0.4991198 2.904781 0.9544706
v -0.5269604 2.904781 0.9544709
v 0.4991198 2.40478 0.4544707
v 0.4991198 2.404781 4.577637E-07
v -0.5269604 2.404781 4.577637E-07
v -0.5269604 2.40478 0.454471
v -0.5277527 1.904779 -1.45447
v -0.5277527 1.404778 -1.435258
v -0.5277429 1.904779 -1.95447
v -0.5277429 -2.904781 -1.95447
v -0.5277429 -2.904781 -1.435257
v -0.5269604 1.90478 -0.9544693
v -0.5269604 1.404779 -0.9544694
v -0.5269714 2.40478 -1.45447
v -0.5269604 2.40478 -0.9544701
v -0.5269604 2.40478 -0.45447
v -0.5269604 1.90478 -0.4544694
v -0.5269604 2.904781 -0.9544703
v -0.5269592 2.904781 4.577637E-07
v -0.5269604 2.404781 4.577637E-07
v -0.5277527 1.904779 1.454471
v -0.5277429 1.904779 1.954471
v -0.5277527 1.404778 1.436183
v -0.5277429 -2.904781 1.954471
v -0.5277429 -2.904781 1.436183
v -0.5269604 1.90478 0.95447
v -0.5269604 1.404779 0.9544703
v -0.5269714 2.40478 1.454471
v -0.5269604 2.40478 0.9544709
v -0.5269604 2.40478 0.454471
v -0.5269604 1.90478 0.4544704
v -0.5269604 2.904781 0.9544709
v -0.5269592 2.904781 4.577637E-07
v -0.5269604 2.404781 4.577637E-07
vt 0.1068335 0.5371141
vt 0.09179688 0.4619141
vt 0.09179688 0.5371094
vt 0.1068325 0.4619141
vt 0.1068447 0.4707106
vt 0.09179688 0.4619141
vt 0.09179688 0.4707031
vt 0.1068322 0.4619141
vt 0.1068325 0.4619133
vt 0.09179688 0.4619141
vt 0.09179688 0.4707031
vt 0.1068322 0.4707031
vt 0.08496094 0.5371094
vt 0.09179688 0.5371094
vt 0.08467962 0.5292945
vt 0.09179688 0.4619141
vt 0.08469827 0.4619141
vt 0.07714844 0.5371094
vt 0.07714844 0.5292969
vt 0.08496094 0.5449219
vt 0.07714844 0.5449219
vt 0.06933594 0.5449219
vt 0.06933594 0.5371094
vt 0.07714844 0.5527344
vt 0.0625 0.5527344
vt 0.0625 0.5449219
vt 0.1068322 0.4619141
vt 0.09179688 0.4619141
vt 0.09179688 0.4707031
vt 0.1068322 0.4707031
vt 0.09140996 0.4619141
vt 0.09140996 0.4707031
vt 0.1064453 0.4707031
vt 0.1064453 0.4619141
vt 0.09140996 0.4619141
vt 0.09140996 0.4707031
vt 0.1064453 0.4707031
vt 0.1064453 0.4619141
vt 0.1068325 0.4707031
vt 0.09179688 0.4619141
vt 0.09179688 0.4707031
vt 0.1068325 0.4619141
vt 0.09138496 0.4707181
vt 0.1064453 0.4707031
vt 0.1064453 0.4619141
vt 0.09140996 0.4619141
vt 0.09138466 0.4707183
vt 0.1064453 0.4707031
vt 0.1064628 0.4622411
vt 0.09140965 0.4622518
vt 0.09140965 0.4619141
vt 0.09140965 0.5302734
vt 0.1064453 0.5302734
vt 0.1064453 0.4619141
vt 0.09179688 0.4763181
vt 0.1068322 0.4763181
vt 0.1068322 0.4619141
vt 0.09179688 0.4619141
vt 0.09140996 0.4695083
vt 0.1064453 0.4695083
vt 0.1064453 0.4619141
vt 0.09140996 0.4619141
vt 0.1068335 0.5371141
vt 0.09179688 0.5371094
vt 0.09179688 0.4619141
vt 0.1068325 0.4619141
vt 0.1068447 0.4707106
vt 0.09179688 0.4707031
vt 0.09179688 0.4619141
vt 0.1068322 0.4619141
vt 0.1068325 0.4619141
vt 0.1068322 0.4707024
vt 0.09179688 0.4707031
vt 0.09179688 0.4619141
vt 0.08496094 0.5371094
vt 0.08469315 0.5292947
vt 0.09179688 0.5371094
vt 0.09179688 0.4619141
vt 0.08471092 0.4619141
vt 0.07714844 0.5371094
vt 0.07714844 0.5292969
vt 0.08496094 0.5449219
vt 0.07714844 0.5449219
vt 0.06933594 0.5449219
vt 0.06933594 0.5371094
vt 0.07714844 0.5527344
vt 0.0625 0.5527344
vt 0.0625 0.5449219
vt 0.1068322 0.4619141
vt 0.1068322 0.4707031
vt 0.09179688 0.4707031
vt 0.09179688 0.4619141
vt 0.09140996 0.4619141
vt 0.1064453 0.4619141
vt 0.1064453 0.4707031
vt 0.09140996 0.4707031
vt 0.09140996 0.4619141
vt 0.1064453 0.4619141
vt 0.1064453 0.4707031
vt 0.09140996 0.4707031
vt 0.1068574 0.4707181
vt 0.09179688 0.4707031
vt 0.09179688 0.4619141
vt 0.1068325 0.4619141
vt 0.09140996 0.4707031
vt 0.1064453 0.4619141
vt 0.1064453 0.4707031
vt 0.09140996 0.4619141
vt 0.09140996 0.4707031
vt 0.1064623 0.4622256
vt 0.1064453 0.4707031
vt 0.0914083 0.4622354
vt 0.09140965 0.4619141
vt 0.1064453 0.4619141
vt 0.1064453 0.5302734
vt 0.09140965 0.5302734
vt 0.09179688 0.4763181
vt 0.09179688 0.4619141
vt 0.1068322 0.4619141
vt 0.1068322 0.4763181
vt 0.1064453 0.4695083
vt 0.09140996 0.4695083
vt 0.09140996 0.4619141
vt 0.1064453 0.4619141
vt 0.08496137 0.5371091
vt 0.08467987 0.5292945
vt 0.09179686 0.5371094
vt 0.09179688 0.4619141
vt 0.08469827 0.4619141
vt 0.07714877 0.5371093
vt 0.07714909 0.5292969
vt 0.08496127 0.5449216
vt 0.07714844 0.5449219
vt 0.06933594 0.5449219
vt 0.06933594 0.5371094
vt 0.07714844 0.5527344
vt 0.0625 0.5527344
vt 0.0625 0.5449219
vt 0.08496137 0.5371091
vt 0.09179687 0.5371094
vt 0.08469343 0.5292946
vt 0.09179688 0.4619141
vt 0.08471092 0.4619141
vt 0.07714877 0.5371093
vt 0.07714909 0.5292969
vt 0.08496127 0.5449216
vt 0.07714844 0.5449219
vt 0.06933594 0.5449219
vt 0.06933594 0.5371094
vt 0.07714844 0.5527344
vt 0.0625 0.5527344
vt 0.0625 0.5449219
vn 0 0 -1
vn 0 0 -1
vn 0 0 -1
vn 0 0 -1
vn 0 1 0
vn 0 1 0
vn 0 1 0
vn 0 1 0
vn 0 0 -1
vn 0 0 -1
vn 0 0 -1
vn 0 0 -1
vn 0.9999973 -0.001083341 -0.002099595
vn 1 0 4.313227E-05
vn 0.9999992 -2.301417E-05 -0.001276642
vn 1 0 2.115961E-05
vn 1 0 0
vn 0.9999986 -0.0005419521 -0.001613723
vn 0.9999946 0 -0.003298096
vn 0.9999975 -0.001564928 -0.00160643
vn 1 0 -1.383464E-05
vn 1 0 0
vn 1 0 0
vn 1 0 0
vn 1 0 0
vn 1 0 0
vn 0 0 -1
vn 0 0 -1
vn 0 0 -1
vn 0 0 -1
vn 0 0 1
vn 0 0 1
vn 0 0 1
vn 0 0 1
vn 0 0 1
vn 0 0 1
vn 0 0 1
vn 0 0 1
vn 0 1 0
vn 0 1 0
vn 0 1 0
vn 0 1 0
vn 0 -1 0
vn 0 -1 0
vn 0 -1 0
vn 0 -1 0
vn 0 -1 0
vn 0 -1 0
vn 0 -1 0
vn 0 -1 0
vn 0 0 1
vn 0 0 1
vn 0 0 1
vn 0 0 1
vn 0 1 0
vn 0 1 0
vn 0 1 0
vn 0 1 0
vn 0 -1 0
vn 0 -1 0
vn 0 -1 0
vn 0 -1 0
vn 0 0 1
vn 0 0 1
vn 0 0 1
vn 0 0 1
vn 0 1 0
vn 0 1 0
vn 0 1 0
vn 0 1 0
vn 0 0 1
vn 0 0 1
vn 0 0 1
vn 0 0 1
vn 0.9999973 -0.001081413 0.002099595
vn 0.9999992 -2.185722E-05 0.00127536
vn 1 0 -4.317E-05
vn 1 0 -2.119736E-05
vn 1 0 0
vn 0.9999986 -0.0005409744 0.001612668
vn 0.9999946 0 0.003291765
vn 0.9999975 -0.001564928 0.001606431
vn 1 0 1.383464E-05
vn 1 0 0
vn 1 0 0
vn 1 0 0
vn 1 0 0
vn 1 0 0
vn 0 0 1
vn 0 0 1
vn 0 0 1
vn 0 0 1
vn 0 0 -1
vn 0 0 -1
vn 0 0 -1
vn 0 0 -1
vn 0 0 -1
vn 0 0 -1
vn 0 0 -1
vn 0 0 -1
vn 0 1 0
vn 0 1 0
vn 0 1 0
vn 0 1 0
vn 0 -1 0
vn 0 -1 0
vn 0 -1 0
vn 0 -1 0
vn 0 -1 0
vn 0 -1 0
vn 0 -1 0
vn 0 -1 0
vn 0 0 -1
vn 0 0 -1
vn 0 0 -1
vn 0 0 -1
vn 0 1 0
vn 0 1 0
vn 0 1 0
vn 0 1 0
vn 0 -1 0
vn 0 -1 0
vn 0 -1 0
vn 0 -1 0
vn -0.9999993 0.0005408753 0.001049802
vn -0.9999999 1.157295E-05 0.0006387832
vn -1 0 -1.91699E-05
vn -1 0 -9.404277E-06
vn -1 0 0
vn -0.9999996 0.0002705628 0.0008064492
vn -0.9999987 0 0.001647784
vn -0.9999994 0.0007812478 0.0008032198
vn -1 0 7.324224E-06
vn -1 0 0
vn -1 0 0
vn -1 0 0
vn -1 0 0
vn -1 0 0
vn -0.9999993 0.0005399109 -0.001049801
vn -1 0 1.918667E-05
vn -0.9999999 1.09944E-05 -0.0006381439
vn -1 0 9.421047E-06
vn -1 0 0
vn -0.9999996 0.0002700746 -0.0008059218
vn -0.9999987 0 -0.001644622
vn -0.9999994 0.0007812476 -0.0008032193
vn -1 0 -7.324224E-06
vn -1 0 0
vn -1 0 0
vn -1 0 0
vn -1 0 0
vn -1 0 0
g Arch_08_0
f 3/3/3 2/2/2 1/1/1
f 4/4/4 1/1/1 2/2/2
f 7/7/7 6/6/6 5/5/5
f 8/8/8 5/5/5 6/6/6
f 11/11/11 10/10/10 9/9/9
f 12/12/12 11/11/11 9/9/9
f 15/15/15 14/14/14 13/13/13
f 15/15/15 16/16/16 14/14/14
f 15/15/15 17/17/17 16/16/16
f 15/15/15 13/13/13 18/18/18
f 18/18/18 19/19/19 15/15/15
f 13/13/13 20/20/20 18/18/18
f 20/20/20 21/21/21 18/18/18
f 18/18/18 21/21/21 22/22/22
f 18/18/18 22/22/22 23/23/23
f 21/21/21 24/24/24 22/22/22
f 24/24/24 25/25/25 22/22/22
f 25/25/25 26/26/26 22/22/22
f 29/29/29 28/28/28 27/27/27
f 30/30/30 29/29/29 27/27/27
f 33/33/33 32/32/32 31/31/31
f 34/34/34 33/33/33 31/31/31
f 37/37/37 36/36/36 35/35/35
f 38/38/38 37/37/37 35/35/35
f 41/41/41 40/40/40 39/39/39
f 42/42/42 39/39/39 40/40/40
f 45/45/45 44/44/44 43/43/43
f 43/43/43 46/46/46 45/45/45
f 49/49/49 48/48/48 47/47/47
f 47/47/47 50/50/50 49/49/49
f 53/53/53 52/52/52 51/51/51
f 54/54/54 53/53/53 51/51/51
f 57/57/57 56/56/56 55/55/55
f 58/58/58 57/57/57 55/55/55
f 61/61/61 60/60/60 59/59/59
f 62/62/62 61/61/61 59/59/59
f 65/65/65 64/64/64 63/63/63
f 63/63/63 66/66/66 65/65/65
f 69/69/69 68/68/68 67/67/67
f 67/67/67 70/70/70 69/69/69
f 73/73/73 72/72/72 71/71/71
f 74/74/74 73/73/73 71/71/71
f 77/77/77 76/76/76 75/75/75
f 78/78/78 76/76/76 77/77/77
f 79/79/79 76/76/76 78/78/78
f 75/75/75 76/76/76 80/80/80
f 81/81/81 80/80/80 76/76/76
f 82/82/82 75/75/75 80/80/80
f 83/83/83 82/82/82 80/80/80
f 83/83/83 80/80/80 84/84/84
f 84/84/84 80/80/80 85/85/85
f 86/86/86 83/83/83 84/84/84
f 87/87/87 86/86/86 84/84/84
f 88/88/88 87/87/87 84/84/84
f 91/91/91 90/90/90 89/89/89
f 92/92/92 91/91/91 89/89/89
f 95/95/95 94/94/94 93/93/93
f 96/96/96 95/95/95 93/93/93
f 99/99/99 98/98/98 97/97/97
f 100/100/100 99/99/99 97/97/97
f 103/103/103 102/102/102 101/101/101
f 101/101/101 104/104/104 103/103/103
f 107/107/107 106/106/106 105/105/105
f 108/108/108 105/105/105 106/106/106
f 111/111/111 110/110/110 109/109/109
f 112/112/112 109/109/109 110/110/110
f 115/115/115 114/114/114 113/113/113
f 116/116/116 115/115/115 113/113/113
f 119/119/119 118/118/118 117/117/117
f 120/120/120 119/119/119 117/117/117
f 123/123/123 122/122/122 121/121/121
f 124/124/124 123/123/123 121/121/121
f 127/127/127 126/126/126 125/125/125
f 128/128/128 126/126/126 127/127/127
f 129/129/129 126/126/126 128/128/128
f 125/125/125 126/126/126 130/130/130
f 131/131/131 130/130/130 126/126/126
f 132/132/132 125/125/125 130/130/130
f 133/133/133 132/132/132 130/130/130
f 133/133/133 130/130/130 134/134/134
f 134/134/134 130/130/130 135/135/135
f 136/136/136 133/133/133 134/134/134
f 137/137/137 136/136/136 134/134/134
f 138/138/138 137/137/137 134/134/134
f 141/141/141 140/140/140 139/139/139
f 141/141/141 142/142/142 140/140/140
f 141/141/141 143/143/143 142/142/142
f 141/141/141 139/139/139 144/144/144
f 144/144/144 145/145/145 141/141/141
f 139/139/139 146/146/146 144/144/144
f 146/146/146 147/147/147 144/144/144
f 144/144/144 147/147/147 148/148/148
f 144/144/144 148/148/148 149/149/149
f 147/147/147 150/150/150 148/148/148
f 150/150/150 151/151/151 148/148/148
f 151/151/151 152/152/152 148/148/148
