g Arena_Underwater_01_11
v -6.495988 6.856973 20.33273
v -6.495988 7.106979 3.110355
v -6.495988 6.856973 3.110355
v -6.495988 7.106979 20.33273
v -6.745995 7.106979 20.33273
v -6.745995 6.856973 3.110355
v -6.745995 7.106979 3.110355
v -6.745995 6.856973 20.33273
v -6.495988 7.106979 20.33273
v -6.745995 7.106979 3.110355
v -6.495988 7.106979 3.110355
v -6.745995 7.106979 20.33273
v -6.246001 6.606966 20.33273
v -6.246001 6.856973 3.110355
v -6.246001 6.606966 3.110355
v -6.246001 6.856973 20.33273
v -6.495988 6.606966 20.33273
v -6.246001 6.606966 3.110355
v -6.495988 6.606966 3.110355
v -6.246001 6.606966 20.33273
v -6.246001 6.856973 20.33273
v -6.495988 6.856973 3.110355
v -6.246001 6.856973 3.110355
v -6.495988 6.856973 20.33273
v -6.495988 6.356979 20.33273
v -6.495988 6.606966 3.110355
v -6.495988 6.356979 3.110355
v -6.495988 6.606966 20.33273
v -6.745995 6.356979 20.33273
v -6.495988 6.356979 3.110355
v -6.745995 6.356979 3.110355
v -6.495988 6.356979 20.33273
v -6.745995 6.606966 20.33273
v -6.745995 6.356979 3.110355
v -6.745995 6.606966 3.110355
v -6.745995 6.356979 20.33273
v -6.996001 6.606966 20.33273
v -6.745995 6.606966 3.110355
v -6.996001 6.606966 3.110355
v -6.745995 6.606966 20.33273
v -6.996001 6.856973 20.33273
v -6.996001 6.606966 3.110355
v -6.996001 6.856973 3.110355
v -6.996001 6.606966 20.33273
v -6.745995 6.856973 20.33273
v -6.996001 6.856973 3.110355
v -6.745995 6.856973 3.110355
v -6.996001 6.856973 20.33273
v -6.371004 6.481982 20.33273
v -5.870991 6.981977 20.33273
v -6.371004 6.981977 20.33273
v -5.870991 6.481982 20.33273
v -6.870998 6.481964 20.33273
v -6.870998 5.981969 20.33273
v -6.371004 5.981969 20.33273
v -6.870998 6.981977 20.33273
v -6.371004 7.48197 20.33273
v -6.870998 7.48197 20.33273
v -7.370992 6.481964 20.33273
v -7.370992 6.981977 20.33273
v -5.870991 6.481982 20.33273
v -5.870991 6.981977 21.33274
v -5.870991 6.981977 20.33273
v -5.870991 6.481982 21.33274
v -6.371004 6.481982 20.33273
v -5.870991 6.481982 21.33274
v -5.870991 6.481982 20.33273
v -6.371004 6.481982 21.33274
v -5.870991 6.981977 20.33273
v -6.371004 6.981977 21.33274
v -6.371004 6.981977 20.33273
v -5.870991 6.981977 21.33274
v -6.371004 6.981977 20.33273
v -6.371004 7.48197 21.33274
v -6.371004 7.48197 20.33273
v -6.371004 6.981977 21.33274
v -6.870998 7.48197 20.33273
v -6.870998 6.981977 21.33274
v -6.870998 6.981977 20.33273
v -6.870998 7.48197 21.33274
v -6.371004 7.48197 20.33273
v -6.870998 7.48197 21.33274
v -6.870998 7.48197 20.33273
v -6.371004 7.48197 21.33274
v -7.370992 6.481964 20.33273
v -6.870998 6.481964 21.33274
v -6.870998 6.481964 20.33273
v -7.370992 6.481964 21.33274
v -7.370992 6.981977 20.33273
v -7.370992 6.481964 21.33274
v -7.370992 6.481964 20.33273
v -7.370992 6.981977 21.33274
v -6.870998 6.981977 20.33273
v -7.370992 6.981977 21.33274
v -7.370992 6.981977 20.33273
v -6.870998 6.981977 21.33274
v -6.371004 5.981969 20.33273
v -6.371004 6.481982 21.33274
v -6.371004 6.481982 20.33273
v -6.371004 5.981969 21.33274
v -6.870998 5.981969 20.33273
v -6.371004 5.981969 21.33274
v -6.371004 5.981969 20.33273
v -6.870998 5.981969 21.33274
v -6.870998 6.481964 20.33273
v -6.870998 5.981969 21.33274
v -6.870998 5.981969 20.33273
v -6.870998 6.481964 21.33274
v -6.370986 6.481964 3.11921
v -5.870991 6.981977 3.11921
v -5.870991 6.481964 3.11921
v -6.370986 6.981977 3.11921
v -6.870998 6.481964 3.11921
v -6.870998 5.981969 3.11921
v -6.371004 5.981969 3.11921
v -6.870998 6.981977 3.11921
v -6.371004 7.48197 3.11921
v -6.870998 7.48197 3.11921
v -7.370992 6.481964 3.11921
v -7.370992 6.981977 3.11921
v -5.870991 6.481964 3.11921
v -5.870991 6.981977 1.619209
v -5.870991 6.481964 1.619209
v -5.870991 6.981977 3.11921
v -6.371004 7.48197 1.619209
v -6.370986 6.981977 3.11921
v -6.371004 7.48197 3.11921
v -6.370986 6.981977 1.619209
v -6.870998 5.981969 3.11921
v -6.371004 5.981969 1.619209
v -6.870998 5.981969 1.619209
v -6.371004 5.981969 3.11921
v -6.371004 7.48197 3.11921
v -6.870998 7.48197 1.619209
v -6.371004 7.48197 1.619209
v -6.870998 7.48197 3.11921
v -6.870998 7.48197 1.619209
v -6.870998 6.981977 3.11921
v -6.870998 6.981977 1.619209
v -6.870998 7.48197 3.11921
v -6.870998 6.481964 1.619209
v -6.870998 5.981969 3.11921
v -6.870998 5.981969 1.619209
v -6.870998 6.481964 3.11921
v -6.870998 5.981969 3.598241
v -6.870998 6.981977 3.598241
v -6.870998 6.481964 3.598241
v -7.370992 6.981977 3.11921
v -7.370992 6.481964 1.619209
v -7.370992 6.981977 1.619209
v -7.370992 6.481964 3.11921
v -6.371004 5.981969 3.11921
v -6.370986 6.481964 1.619209
v -6.371004 5.981969 1.619209
v -6.370986 6.481964 3.11921
v -7.370992 6.981977 1.619209
v -6.870998 6.981977 3.11921
v -7.370992 6.981977 3.11921
v -6.870998 6.981977 1.619209
v -6.870998 6.481964 3.11921
v -7.370992 6.481964 1.619209
v -7.370992 6.481964 3.11921
v -6.870998 6.481964 1.619209
v -6.370986 6.481964 1.619209
v -5.870991 6.481964 3.11921
v -5.870991 6.481964 1.619209
v -6.370986 6.481964 3.11921
v -5.870991 6.981977 1.619209
v -6.370986 6.981977 3.11921
v -6.370986 6.981977 1.619209
v -5.870991 6.981977 3.11921
vt 0.1126186 0.03997113
vt 0.983668 0.02530654
vt 0.983668 0.03997113
vt 0.1126186 0.02530654
vt 0.1126186 0.06951044
vt 0.983668 0.05484585
vt 0.983668 0.06951044
vt 0.1126186 0.05484585
vt 0.1126186 0.05484585
vt 0.983668 0.03997113
vt 0.983668 0.05484585
vt 0.1126186 0.03997113
vt 0.1126186 0.05484585
vt 0.983668 0.03997113
vt 0.983668 0.05484585
vt 0.1126186 0.03997113
vt 0.1126186 0.03997113
vt 0.983668 0.02530654
vt 0.983668 0.03997113
vt 0.1126186 0.02530654
vt 0.1126186 0.06951044
vt 0.983668 0.05484585
vt 0.983668 0.06951044
vt 0.1126186 0.05484585
vt 0.1126186 0.06951044
vt 0.983668 0.05484585
vt 0.983668 0.06951044
vt 0.1126186 0.05484585
vt 0.1126186 0.05484585
vt 0.983668 0.03997113
vt 0.983668 0.05484585
vt 0.1126186 0.03997113
vt 0.1126186 0.03997113
vt 0.983668 0.02530654
vt 0.983668 0.03997113
vt 0.1126186 0.02530654
vt 0.1126186 0.06951044
vt 0.983668 0.05484585
vt 0.983668 0.06951044
vt 0.1126186 0.05484585
vt 0.1126186 0.05484585
vt 0.983668 0.03997113
vt 0.983668 0.05484585
vt 0.1126186 0.03997113
vt 0.1126186 0.03997113
vt 0.983668 0.02530654
vt 0.983668 0.03997113
vt 0.1126186 0.02530654
vt 0.7070372 0.6640641
vt 0.6796893 0.691412
vt 0.6796893 0.6640641
vt 0.7070372 0.691412
vt 0.7070372 0.6328137
vt 0.7324188 0.6328137
vt 0.7324188 0.6640641
vt 0.6796893 0.6328137
vt 0.6542927 0.6640641
vt 0.6542927 0.6328137
vt 0.7070372 0.6035146
vt 0.6796893 0.6035146
vt 0.7050709 0.5429649
vt 0.6816406 0.6015633
vt 0.6816406 0.5429649
vt 0.7050709 0.6015633
vt 0.6816406 0.5429649
vt 0.656244 0.6015633
vt 0.656244 0.5429649
vt 0.6816406 0.6015633
vt 0.7324188 0.5429649
vt 0.7050709 0.6015633
vt 0.7050709 0.5429649
vt 0.7324188 0.6015633
vt 0.6816406 0.5429649
vt 0.656244 0.6015633
vt 0.656244 0.5429649
vt 0.6816406 0.6015633
vt 0.7324188 0.5429649
vt 0.7050709 0.6015633
vt 0.7050709 0.5429649
vt 0.7324188 0.6015633
vt 0.7050709 0.5429649
vt 0.6816406 0.6015633
vt 0.6816406 0.5429649
vt 0.7050709 0.6015633
vt 0.7324188 0.5429649
vt 0.7050709 0.6015633
vt 0.7050709 0.5429649
vt 0.7324188 0.6015633
vt 0.7050709 0.5429649
vt 0.6816406 0.6015633
vt 0.6816406 0.5429649
vt 0.7050709 0.6015633
vt 0.6816406 0.5429649
vt 0.656244 0.6015633
vt 0.656244 0.5429649
vt 0.6816406 0.6015633
vt 0.7324188 0.5429649
vt 0.7050709 0.6015633
vt 0.7050709 0.5429649
vt 0.7324188 0.6015633
vt 0.7050709 0.5429649
vt 0.6816406 0.6015633
vt 0.6816406 0.5429649
vt 0.7050709 0.6015633
vt 0.6816406 0.5429649
vt 0.656244 0.6015633
vt 0.656244 0.5429649
vt 0.6816406 0.6015633
vt 0.6796893 0.6640641
vt 0.7070372 0.691412
vt 0.6796893 0.691412
vt 0.7070372 0.6640641
vt 0.6796893 0.6328137
vt 0.6542927 0.6328137
vt 0.6542927 0.6640641
vt 0.7070372 0.6328137
vt 0.7324188 0.6640641
vt 0.7324188 0.6328137
vt 0.6796893 0.6035146
vt 0.7070372 0.6035146
vt 0.7050709 0.6015633
vt 0.6816406 0.5136658
vt 0.7050709 0.5136658
vt 0.6816406 0.6015633
vt 0.656244 0.5136658
vt 0.6816406 0.6015633
vt 0.656244 0.6015633
vt 0.6816406 0.5136658
vt 0.7050709 0.6015633
vt 0.6816406 0.5136658
vt 0.7050709 0.5136658
vt 0.6816406 0.6015633
vt 0.7050709 0.6015633
vt 0.6816406 0.5136658
vt 0.7050709 0.5136658
vt 0.6816406 0.6015633
vt 0.7324188 0.5136658
vt 0.7050709 0.6015633
vt 0.7050709 0.5136658
vt 0.7324188 0.6015633
vt 0.6816406 0.5136658
vt 0.656244 0.6015633
vt 0.656244 0.5136658
vt 0.6816406 0.6015633
vt 0.656244 0.6015633
vt 0.7050709 0.6015633
vt 0.6816406 0.6015633
vt 0.7050709 0.6015633
vt 0.6816406 0.5136658
vt 0.7050709 0.5136658
vt 0.6816406 0.6015633
vt 0.7324188 0.6015633
vt 0.7050709 0.5136658
vt 0.7324188 0.5136658
vt 0.7050709 0.6015633
vt 0.656244 0.5136658
vt 0.6816406 0.6015633
vt 0.656244 0.6015633
vt 0.6816406 0.5136658
vt 0.7050709 0.6015633
vt 0.7324188 0.5136658
vt 0.7324188 0.6015633
vt 0.7050709 0.5136658
vt 0.6816406 0.5136658
vt 0.656244 0.6015633
vt 0.656244 0.5136658
vt 0.6816406 0.6015633
vt 0.7324188 0.5136658
vt 0.7050709 0.6015633
vt 0.7050709 0.5136658
vt 0.7324188 0.6015633
vn 0.9999995 0.0009775162 0
vn 0.9999995 0.0009775162 0
vn 0.9999995 0.0009775162 0
vn 0.9999995 0.0009775162 0
vn -0.9999995 0.0009775162 0
vn -0.9999995 0.0009775162 0
vn -0.9999995 0.0009775162 0
vn -0.9999995 0.0009775162 0
vn -0.0009775162 0.9999995 0
vn -0.0009775162 0.9999995 0
vn -0.0009775162 0.9999995 0
vn -0.0009775162 0.9999995 0
vn 0.9999995 0.0009775162 0
vn 0.9999995 0.0009775162 0
vn 0.9999995 0.0009775162 0
vn 0.9999995 0.0009775162 0
vn -0.0009775162 -0.9999995 0
vn -0.0009775162 -0.9999995 0
vn -0.0009775162 -0.9999995 0
vn -0.0009775162 -0.9999995 0
vn -0.0009775162 0.9999995 0
vn -0.0009775162 0.9999995 0
vn -0.0009775162 0.9999995 0
vn -0.0009775162 0.9999995 0
vn 0.9999995 0.0009775162 0
vn 0.9999995 0.0009775162 0
vn 0.9999995 0.0009775162 0
vn 0.9999995 0.0009775162 0
vn -0.0009775162 -0.9999995 0
vn -0.0009775162 -0.9999995 0
vn -0.0009775162 -0.9999995 0
vn -0.0009775162 -0.9999995 0
vn -0.9999995 -0.0009775162 0
vn -0.9999995 -0.0009775162 0
vn -0.9999995 0.0009775162 0
vn -0.9999995 0.0009775162 0
vn -0.0009775162 -0.9999995 0
vn -0.0009775162 -0.9999995 0
vn -0.0009775162 -0.9999995 0
vn -0.0009775162 -0.9999995 0
vn -0.9999995 0.0009775162 0
vn -0.9999995 0.0009775162 0
vn -0.9999995 0.0009775162 0
vn -0.9999995 0.0009775162 0
vn -0.0009775162 0.9999995 0
vn -0.0009775162 0.9999995 0
vn -0.0009775162 0.9999995 0
vn -0.0009775162 0.9999995 0
vn -0.0009775162 0.0009775162 -0.999999
vn -0.0009775162 0.0009775162 -0.999999
vn -0.0009775162 0.0009775162 -0.999999
vn -0.0009775162 0.0009775162 -0.999999
vn -0.0009775162 0.0009775162 -0.999999
vn -0.0009775162 0.0009775162 -0.999999
vn -0.0009775162 0.0009775162 -0.999999
vn -0.0009775162 0.0009775162 -0.999999
vn -0.0009775162 0.0009775162 -0.999999
vn -0.0009775162 0.0009775162 -0.999999
vn -0.0009775162 0.0009775162 -0.999999
vn -0.0009775162 0.0009775162 -0.999999
vn 0.9999995 0.0009775162 0
vn 0.9999995 0.0009775162 0
vn 0.9999995 0.0009775162 0
vn 0.9999995 0.0009775162 0
vn -0.0009775162 -0.9999995 0
vn -0.0009775162 -0.9999995 0
vn -0.0009775162 -0.9999995 0
vn -0.0009775162 -0.9999995 0
vn -0.0009775162 0.9999995 0
vn -0.0009775162 0.9999995 0
vn -0.0009775162 0.9999995 0
vn -0.0009775162 0.9999995 0
vn 0.9999995 0.0009775162 0
vn 0.9999995 0.0009775162 0
vn 0.9999995 0.0009775162 0
vn 0.9999995 0.0009775162 0
vn -0.9999995 0.0009775162 0
vn -0.9999995 0.0009775162 0
vn -0.9999995 0.0009775162 0
vn -0.9999995 0.0009775162 0
vn -0.0009775162 0.9999995 0
vn -0.0009775162 0.9999995 0
vn -0.0009775162 0.9999995 0
vn -0.0009775162 0.9999995 0
vn -0.0009775162 -0.9999995 0
vn -0.0009775162 -0.9999995 0
vn -0.0009775162 -0.9999995 0
vn -0.0009775162 -0.9999995 0
vn -0.9999995 0.0009775162 0
vn -0.9999995 0.0009775162 0
vn -0.9999995 0.0009775162 0
vn -0.9999995 0.0009775162 0
vn -0.0009775162 0.9999995 0
vn -0.0009775162 0.9999995 0
vn -0.0009775162 0.9999995 0
vn -0.0009775162 0.9999995 0
vn 0.9999995 0.0009775162 0
vn 0.9999995 0.0009775162 0
vn 0.9999995 0.0009775162 0
vn 0.9999995 0.0009775162 0
vn -0.0009775162 -0.9999995 0
vn -0.0009775162 -0.9999995 0
vn -0.0009775162 -0.9999995 0
vn -0.0009775162 -0.9999995 0
vn -0.9999995 0.0009775162 0
vn -0.9999995 0.0009775162 0
vn -0.9999995 0.0009775162 0
vn -0.9999995 0.0009775162 0
vn -0.0009775162 0.0009775162 0.999999
vn -0.0009775162 0.0009775162 0.999999
vn -0.0009775162 0.0009775162 0.999999
vn -0.0009775162 0.0009775162 0.999999
vn -0.0009775162 0.0009775162 0.999999
vn -0.0009775162 0.0009775162 0.999999
vn -0.0009775162 0.0009775162 0.999999
vn -0.0009775162 0.0009775162 0.999999
vn -0.0009775162 0.0009775162 0.999999
vn -0.0009775162 0.0009775162 0.999999
vn -0.0009775162 0.0009775162 0.999999
vn -0.0009775162 0.0009775162 0.999999
vn 0.9999995 0.0009775162 0
vn 0.9999995 0.0009775162 0
vn 0.9999995 0.0009775162 0
vn 0.9999995 0.0009775162 0
vn 0.9999995 0.0009775162 0
vn 0.9999995 0.0009775162 0
vn 0.9999995 0.0009775162 0
vn 0.9999995 0.0009775162 0
vn -0.0009775162 -0.9999995 0
vn -0.0009775162 -0.9999995 0
vn -0.0009775162 -0.9999995 0
vn -0.0009775162 -0.9999995 0
vn -0.0009775162 0.9999995 0
vn -0.0009775162 0.9999995 0
vn -0.0009775162 0.9999995 0
vn -0.0009775162 0.9999995 0
vn -0.9999995 0.0009775162 0
vn -0.9999995 0.0009775162 0
vn -0.9999995 0.0009775162 0
vn -0.9999995 0.0009775162 0
vn -0.9999995 0.0009775162 0
vn -0.9999995 0.0009775162 0
vn -0.9999995 0.0009775162 0
vn -0.9999995 0.0009775162 0
vn -0.0009775162 0.9999995 0
vn -0.0009775162 0.9999995 0
vn -0.0009775162 0.9999995 0
vn -0.9999995 0.0009775162 0
vn -0.9999995 0.0009775162 0
vn -0.9999995 0.0009775162 0
vn -0.9999995 0.0009775162 0
vn 0.9999995 0.0009775162 0
vn 0.9999995 0.0009775162 0
vn 0.9999995 0.0009775162 0
vn 0.9999995 0.0009775162 0
vn -0.0009775162 0.9999995 0
vn -0.0009775162 0.9999995 0
vn -0.0009775162 0.9999995 0
vn -0.0009775162 0.9999995 0
vn -0.0009775162 -0.9999995 0
vn -0.0009775162 -0.9999995 0
vn -0.0009775162 -0.9999995 0
vn -0.0009775162 -0.9999995 0
vn -0.0009775162 -0.9999995 0
vn -0.0009775162 -0.9999995 0
vn -0.0009775162 -0.9999995 0
vn -0.0009775162 -0.9999995 0
vn -0.0009775162 0.9999995 0
vn -0.0009775162 0.9999995 0
vn -0.0009775162 0.9999995 0
vn -0.0009775162 0.9999995 0
g Arena_Underwater_01_11_0
f 3/3/3 2/2/2 1/1/1
f 4/4/4 1/1/1 2/2/2
f 7/7/7 6/6/6 5/5/5
f 8/8/8 5/5/5 6/6/6
f 11/11/11 10/10/10 9/9/9
f 12/12/12 9/9/9 10/10/10
f 15/15/15 14/14/14 13/13/13
f 16/16/16 13/13/13 14/14/14
f 19/19/19 18/18/18 17/17/17
f 20/20/20 17/17/17 18/18/18
f 23/23/23 22/22/22 21/21/21
f 24/24/24 21/21/21 22/22/22
f 27/27/27 26/26/26 25/25/25
f 28/28/28 25/25/25 26/26/26
f 31/31/31 30/30/30 29/29/29
f 32/32/32 29/29/29 30/30/30
f 35/35/35 34/34/34 33/33/33
f 36/36/36 33/33/33 34/34/34
f 39/39/39 38/38/38 37/37/37
f 40/40/40 37/37/37 38/38/38
f 43/43/43 42/42/42 41/41/41
f 44/44/44 41/41/41 42/42/42
f 47/47/47 46/46/46 45/45/45
f 48/48/48 45/45/45 46/46/46
f 51/51/51 50/50/50 49/49/49
f 52/52/52 49/49/49 50/50/50
f 49/49/49 53/53/53 51/51/51
f 53/53/53 49/49/49 54/54/54
f 55/55/55 54/54/54 49/49/49
f 56/56/56 51/51/51 53/53/53
f 51/51/51 56/56/56 57/57/57
f 58/58/58 57/57/57 56/56/56
f 53/53/53 59/59/59 56/56/56
f 60/60/60 56/56/56 59/59/59
f 63/63/63 62/62/62 61/61/61
f 64/64/64 61/61/61 62/62/62
f 67/67/67 66/66/66 65/65/65
f 68/68/68 65/65/65 66/66/66
f 71/71/71 70/70/70 69/69/69
f 72/72/72 69/69/69 70/70/70
f 75/75/75 74/74/74 73/73/73
f 76/76/76 73/73/73 74/74/74
f 79/79/79 78/78/78 77/77/77
f 80/80/80 77/77/77 78/78/78
f 83/83/83 82/82/82 81/81/81
f 84/84/84 81/81/81 82/82/82
f 87/87/87 86/86/86 85/85/85
f 88/88/88 85/85/85 86/86/86
f 91/91/91 90/90/90 89/89/89
f 92/92/92 89/89/89 90/90/90
f 95/95/95 94/94/94 93/93/93
f 96/96/96 93/93/93 94/94/94
f 99/99/99 98/98/98 97/97/97
f 100/100/100 97/97/97 98/98/98
f 103/103/103 102/102/102 101/101/101
f 104/104/104 101/101/101 102/102/102
f 107/107/107 106/106/106 105/105/105
f 108/108/108 105/105/105 106/106/106
f 111/111/111 110/110/110 109/109/109
f 112/112/112 109/109/109 110/110/110
f 109/109/109 112/112/112 113/113/113
f 113/113/113 114/114/114 109/109/109
f 115/115/115 109/109/109 114/114/114
f 116/116/116 113/113/113 112/112/112
f 112/112/112 117/117/117 116/116/116
f 118/118/118 116/116/116 117/117/117
f 113/113/113 116/116/116 119/119/119
f 120/120/120 119/119/119 116/116/116
f 123/123/123 122/122/122 121/121/121
f 124/124/124 121/121/121 122/122/122
f 127/127/127 126/126/126 125/125/125
f 128/128/128 125/125/125 126/126/126
f 131/131/131 130/130/130 129/129/129
f 132/132/132 129/129/129 130/130/130
f 135/135/135 134/134/134 133/133/133
f 136/136/136 133/133/133 134/134/134
f 139/139/139 138/138/138 137/137/137
f 138/138/138 140/140/140 137/137/137
f 143/143/143 142/142/142 141/141/141
f 144/144/144 141/141/141 142/142/142
f 147/147/147 146/146/146 145/145/145
f 146/146/146 147/147/147 145/145/145
f 150/150/150 149/149/149 148/148/148
f 151/151/151 148/148/148 149/149/149
f 154/154/154 153/153/153 152/152/152
f 155/155/155 152/152/152 153/153/153
f 158/158/158 157/157/157 156/156/156
f 159/159/159 156/156/156 157/157/157
f 162/162/162 161/161/161 160/160/160
f 163/163/163 160/160/160 161/161/161
f 166/166/166 165/165/165 164/164/164
f 167/167/167 164/164/164 165/165/165
f 170/170/170 169/169/169 168/168/168
f 171/171/171 168/168/168 169/169/169
