g Arena_Underwater_COl001
v 14.21453 14.21453 9.905724
v 5.202881 19.41739 9.905724
v 5.202881 19.41739 14.58073
v 14.21453 14.21453 14.58073
v -5.203016 19.41734 14.58073
v -5.203016 19.41734 9.905724
v -5.203016 19.41734 9.905724
v -14.21444 14.21461 9.905724
v -14.21444 14.21461 14.58073
v -5.203016 19.41734 14.58073
v -19.41739 5.202883 14.58073
v -19.41739 5.202883 9.905724
v -19.41734 -5.203014 14.58073
v -19.41734 -5.203014 9.905724
v -19.41734 -5.203014 9.905724
v -14.21453 -14.21453 9.905724
v -14.21453 -14.21453 14.58073
v -19.41734 -5.203014 14.58073
v -5.203016 -19.41739 14.58073
v -5.203016 -19.41739 9.905724
v 5.202881 -19.41739 14.58073
v 5.202881 -19.41739 9.905724
v 5.202881 -19.41739 9.905724
v 14.21448 -14.21453 9.905724
v 14.21448 -14.21453 14.58073
v 5.202881 -19.41739 14.58073
v 19.41739 -5.202881 14.58073
v 19.41739 -5.202881 9.905724
v 19.41739 5.202883 14.58073
v 19.41739 5.202883 9.905724
v 19.41739 5.202883 9.905724
v 14.21453 14.21453 9.905724
v 14.21453 14.21453 14.58073
v 19.41739 5.202883 14.58073
v 15.4762 4.14686 13.8767
v 15.4762 4.14686 18.5517
v 15.4762 -4.146948 18.5517
v 15.4762 -4.146948 13.8767
v 11.32946 -11.32928 18.5517
v 11.32946 -11.32928 13.8767
v 11.32946 -11.32928 13.8767
v 11.32946 -11.32928 18.5517
v 4.146725 -15.47625 18.5517
v 4.146725 -15.47625 13.8767
v -4.146948 -15.4762 18.5517
v -4.146948 -15.4762 13.8767
v -11.32928 -11.32946 18.5517
v -11.32928 -11.32946 13.8767
v -11.32928 -11.32946 13.8767
v -11.32928 -11.32946 18.5517
v -15.4762 -4.146948 18.5517
v -15.4762 -4.146948 13.8767
v -15.4762 4.14686 18.5517
v -15.4762 4.14686 13.8767
v -11.32924 11.32954 18.5517
v -11.32924 11.32954 13.8767
v -11.32924 11.32954 13.8767
v -11.32924 11.32954 18.5517
v -4.147081 15.47616 18.5517
v -4.147081 15.47616 13.8767
v 4.146858 15.4762 18.5517
v 4.146858 15.4762 13.8767
v 11.32937 11.32937 18.5517
v 11.32937 11.32937 13.8767
v 11.32937 11.32937 13.8767
v 11.32937 11.32937 18.5517
v 15.4762 4.14686 18.5517
v 15.4762 4.14686 13.8767
v 8.444162 8.444342 17.93478
v 3.090925 11.53498 17.93478
v 3.090925 11.53498 22.60974
v 8.444162 8.444342 22.60974
v -3.091015 11.53498 22.60974
v -3.091015 11.53498 17.93478
v -3.091015 11.53498 17.93478
v -8.444164 8.444296 17.93478
v -8.444164 8.444296 22.60974
v -3.091015 11.53498 22.60974
v -11.53502 3.090792 22.60974
v -11.53502 3.090792 17.93478
v -11.53502 -3.090879 22.60974
v -11.53502 -3.090879 17.93478
v -11.53502 -3.090879 17.93478
v -8.444164 -8.444296 17.93478
v -8.444164 -8.444296 22.60974
v -11.53502 -3.090879 22.60974
v -3.090881 -11.53502 22.60974
v -3.090881 -11.53502 17.93478
v 3.090702 -11.53507 22.60974
v 3.090702 -11.53507 17.93478
v 3.090702 -11.53507 17.93478
v 8.444385 -8.444074 17.93478
v 8.444385 -8.444074 22.60974
v 3.090702 -11.53507 22.60974
v 11.53498 -3.091013 22.60974
v 11.53498 -3.091013 17.93478
v 11.53502 3.090792 22.60974
v 11.53502 3.090792 17.93478
v 11.53502 3.090792 17.93478
v 8.444162 8.444342 17.93478
v 8.444162 8.444342 22.60974
v 11.53502 3.090792 22.60974
v -9.151791 23.15176 1.51606
v -9.151791 23.15176 11.408
v 8.909638 23.15176 11.408
v 8.909638 23.15176 1.51606
v 23.25325 8.409977 1.352585
v 23.25325 8.409977 11.59208
v 23.25325 -8.661227 11.59212
v 23.25325 -8.661227 1.352585
v 9.311446 -23.00271 0.920229
v 9.311446 -23.00271 11.408
v -8.776443 -23.00271 11.408
v -8.776443 -23.00267 0.920229
v -23.30209 -8.648396 0.920229
v -23.30209 -8.648396 11.408
v -23.30209 9.173325 11.408
v -23.30209 9.173325 0.920229
vt 0 0
vt 0.083299 0
vt 0.083299 1
vt 0 1
vt 0.1667048 1
vt 0.1667048 0
vt 0.1667048 0
vt 0.2500038 0
vt 0.2500038 1
vt 0.1667048 1
vt 0.3333028 1
vt 0.3333028 0
vt 0.4166934 1
vt 0.4166934 0
vt 0.4166934 0
vt 0.5000076 0
vt 0.5000076 1
vt 0.4166934 1
vt 0.5833066 1
vt 0.5833066 0
vt 0.6666972 1
vt 0.6666972 0
vt 0.6666972 0
vt 0.7499962 0
vt 0.7499962 1
vt 0.6666972 1
vt 0.8332952 1
vt 0.8332952 0
vt 0.916701 1
vt 0.916701 0
vt 0.916701 0
vt 1 0
vt 1 1
vt 0.916701 1
vt 0 0
vt 0 1
vt 0.083299 1
vt 0.083299 0
vt 0.1667048 1
vt 0.1667048 0
vt 0.1667048 0
vt 0.1667048 1
vt 0.2500038 1
vt 0.2500038 0
vt 0.3333028 1
vt 0.3333028 0
vt 0.4166934 1
vt 0.4166934 0
vt 0.4166934 0
vt 0.4166934 1
vt 0.5000076 1
vt 0.5000076 0
vt 0.5833066 1
vt 0.5833066 0
vt 0.6666972 1
vt 0.6666972 0
vt 0.6666972 0
vt 0.6666972 1
vt 0.7499962 1
vt 0.7499962 0
vt 0.8332952 1
vt 0.8332952 0
vt 0.916701 1
vt 0.916701 0
vt 0.916701 0
vt 0.916701 1
vt 1 1
vt 1 0
vt 0 0
vt 0.083299 0
vt 0.083299 1
vt 0 1
vt 0.1667048 1
vt 0.1667048 0
vt 0.1667048 0
vt 0.2500038 0
vt 0.2500038 1
vt 0.1667048 1
vt 0.3333028 1
vt 0.3333028 0
vt 0.4166934 1
vt 0.4166934 0
vt 0.4166934 0
vt 0.5000076 0
vt 0.5000076 1
vt 0.4166934 1
vt 0.5833066 1
vt 0.5833066 0
vt 0.6666972 1
vt 0.6666972 0
vt 0.6666972 0
vt 0.7499962 0
vt 0.7499962 1
vt 0.6666972 1
vt 0.8332952 1
vt 0.8332952 0
vt 0.916701 1
vt 0.916701 0
vt 0.916701 0
vt 1 0
vt 1 1
vt 0.916701 1
vt 0 0
vt 0 1
vt 1 1
vt 1 0
vt 0 0
vt 0 1
vt 1 1
vt 1 0
vt 0 0
vt 0 1
vt 1 1
vt 1 0
vt 0 0
vt 0 1
vt 1 1
vt 1 0
vn -0.7067446 -0.7067446 -0.03200431
vn -0.2588175 -0.9659263 0
vn -0.2588175 -0.9659263 0
vn -0.7067446 -0.7067446 -0.03200431
vn 0.2588175 -0.9659263 0
vn 0.2588175 -0.9659263 0
vn 0.2588175 -0.9659263 0
vn 0.7067446 -0.7067446 -0.03200431
vn 0.7067446 -0.7067446 -0.03200431
vn 0.2588175 -0.9659263 0
vn 0.9659263 -0.2588175 0
vn 0.9659263 -0.2588175 0
vn 0.9659263 0.2588175 0
vn 0.9659263 0.2588175 0
vn 0.9659263 0.2588175 0
vn 0.7067446 0.7067446 -0.03200431
vn 0.7067446 0.7067446 -0.03200431
vn 0.9659263 0.2588175 0
vn 0.2588175 0.9659263 0
vn 0.2588175 0.9659263 0
vn -0.2588175 0.9659263 0
vn -0.2588175 0.9659263 0
vn -0.2588175 0.9659263 0
vn -0.7067446 0.7067446 -0.03200431
vn -0.7067446 0.7067446 -0.03200431
vn -0.2588175 0.9659263 0
vn -0.9659263 0.2588175 0
vn -0.9659263 0.2588175 0
vn -0.9659263 -0.2588175 0
vn -0.9659263 -0.2588175 0
vn -0.9659263 -0.2588175 0
vn -0.7067446 -0.7067446 -0.03200431
vn -0.7067446 -0.7067446 -0.03200431
vn -0.9659263 -0.2588175 0
vn -0.9659263 -0.2588175 0
vn -0.9659263 -0.2588175 0
vn -0.9659263 0.2588175 0
vn -0.9659263 0.2588175 0
vn -0.7067446 0.7067446 -0.03200431
vn -0.7067446 0.7067446 -0.03200431
vn -0.7067446 0.7067446 -0.03200431
vn -0.7067446 0.7067446 -0.03200431
vn -0.2588175 0.9659263 0
vn -0.2588175 0.9659263 0
vn 0.2588175 0.9659263 0
vn 0.2588175 0.9659263 0
vn 0.7067446 0.7067446 -0.03200431
vn 0.7067446 0.7067446 -0.03200431
vn 0.7067446 0.7067446 -0.03200431
vn 0.7067446 0.7067446 -0.03200431
vn 0.9659263 0.2588175 0
vn 0.9659263 0.2588175 0
vn 0.9659263 -0.2588175 0
vn 0.9659263 -0.2588175 0
vn 0.7067446 -0.7067446 -0.03200431
vn 0.7067446 -0.7067446 -0.03200431
vn 0.7067446 -0.7067446 -0.03200431
vn 0.7067446 -0.7067446 -0.03200431
vn 0.2588175 -0.9659263 0
vn 0.2588175 -0.9659263 0
vn -0.2588175 -0.9659263 0
vn -0.2588175 -0.9659263 0
vn -0.7067446 -0.7067446 -0.03200431
vn -0.7067446 -0.7067446 -0.03200431
vn -0.7067446 -0.7067446 -0.03200431
vn -0.7067446 -0.7067446 -0.03200431
vn -0.9659263 -0.2588175 0
vn -0.9659263 -0.2588175 0
vn -0.7067446 -0.7067446 -0.03200431
vn -0.2588175 -0.9659263 0
vn -0.2588175 -0.9659263 0
vn -0.7067446 -0.7067446 -0.03200431
vn 0.2588175 -0.9659263 0
vn 0.2588175 -0.9659263 0
vn 0.2588175 -0.9659263 0
vn 0.7067446 -0.7067446 -0.03200431
vn 0.7067446 -0.7067446 -0.03200431
vn 0.2588175 -0.9659263 0
vn 0.9659263 -0.2588175 0
vn 0.9659263 -0.2588175 0
vn 0.9659263 0.2588175 0
vn 0.9659263 0.2588175 0
vn 0.9659263 0.2588175 0
vn 0.7067446 0.7067446 -0.03200431
vn 0.7067446 0.7067446 -0.03200431
vn 0.9659263 0.2588175 0
vn 0.2588175 0.9659263 0
vn 0.2588175 0.9659263 0
vn -0.2588175 0.9659263 0
vn -0.2588175 0.9659263 0
vn -0.2588175 0.9659263 0
vn -0.7067446 0.7067446 -0.03200431
vn -0.7067446 0.7067446 -0.03200431
vn -0.2588175 0.9659263 0
vn -0.9659263 0.2588175 0
vn -0.9659263 0.2588175 0
vn -0.9659263 -0.2588175 0
vn -0.9659263 -0.2588175 0
vn -0.9659263 -0.2588175 0
vn -0.7067446 -0.7067446 -0.03200431
vn -0.7067446 -0.7067446 -0.03200431
vn -0.9659263 -0.2588175 0
vn -0.0009775162 -0.9999995 0
vn -0.0009775162 -0.9999995 0
vn -0.0009775162 -0.9999995 0
vn -0.0009775162 -0.9999995 0
vn -0.9999995 0.0009775162 0
vn -0.9999995 0.0009775162 0
vn -0.9999995 0.0009775162 0
vn -0.9999995 0.0009775162 0
vn -0.0009775162 0.9999995 0
vn -0.0009775162 0.9999995 0
vn -0.0009775162 0.9999995 0
vn -0.0009775162 0.9999995 0
vn 0.9999995 0.0009775162 0
vn 0.9999995 0.0009775162 0
vn 0.9999995 0.0009775162 0
vn 0.9999995 0.0009775162 0
g Arena_Underwater_COl001_0
f 3/3/3 2/2/2 1/1/1
f 4/4/4 3/3/3 1/1/1
f 3/3/3 5/5/5 2/2/2
f 5/5/5 6/6/6 2/2/2
f 9/9/9 8/8/8 7/7/7
f 10/10/10 9/9/9 7/7/7
f 9/9/9 11/11/11 8/8/8
f 11/11/11 12/12/12 8/8/8
f 11/11/11 13/13/13 12/12/12
f 13/13/13 14/14/14 12/12/12
f 17/17/17 16/16/16 15/15/15
f 18/18/18 17/17/17 15/15/15
f 17/17/17 19/19/19 16/16/16
f 19/19/19 20/20/20 16/16/16
f 19/19/19 21/21/21 20/20/20
f 21/21/21 22/22/22 20/20/20
f 25/25/25 24/24/24 23/23/23
f 26/26/26 25/25/25 23/23/23
f 25/25/25 27/27/27 24/24/24
f 27/27/27 28/28/28 24/24/24
f 27/27/27 29/29/29 28/28/28
f 29/29/29 30/30/30 28/28/28
f 33/33/33 32/32/32 31/31/31
f 34/34/34 33/33/33 31/31/31
f 37/37/37 36/36/36 35/35/35
f 38/38/38 37/37/37 35/35/35
f 39/39/39 37/37/37 38/38/38
f 40/40/40 39/39/39 38/38/38
f 43/43/43 42/42/42 41/41/41
f 44/44/44 43/43/43 41/41/41
f 45/45/45 43/43/43 44/44/44
f 46/46/46 45/45/45 44/44/44
f 47/47/47 45/45/45 46/46/46
f 48/48/48 47/47/47 46/46/46
f 51/51/51 50/50/50 49/49/49
f 52/52/52 51/51/51 49/49/49
f 53/53/53 51/51/51 52/52/52
f 54/54/54 53/53/53 52/52/52
f 55/55/55 53/53/53 54/54/54
f 56/56/56 55/55/55 54/54/54
f 59/59/59 58/58/58 57/57/57
f 60/60/60 59/59/59 57/57/57
f 61/61/61 59/59/59 60/60/60
f 62/62/62 61/61/61 60/60/60
f 63/63/63 61/61/61 62/62/62
f 64/64/64 63/63/63 62/62/62
f 67/67/67 66/66/66 65/65/65
f 68/68/68 67/67/67 65/65/65
f 71/71/71 70/70/70 69/69/69
f 72/72/72 71/71/71 69/69/69
f 71/71/71 73/73/73 70/70/70
f 73/73/73 74/74/74 70/70/70
f 77/77/77 76/76/76 75/75/75
f 78/78/78 77/77/77 75/75/75
f 77/77/77 79/79/79 76/76/76
f 79/79/79 80/80/80 76/76/76
f 79/79/79 81/81/81 80/80/80
f 81/81/81 82/82/82 80/80/80
f 85/85/85 84/84/84 83/83/83
f 86/86/86 85/85/85 83/83/83
f 85/85/85 87/87/87 84/84/84
f 87/87/87 88/88/88 84/84/84
f 87/87/87 89/89/89 88/88/88
f 89/89/89 90/90/90 88/88/88
f 93/93/93 92/92/92 91/91/91
f 94/94/94 93/93/93 91/91/91
f 93/93/93 95/95/95 92/92/92
f 95/95/95 96/96/96 92/92/92
f 95/95/95 97/97/97 96/96/96
f 97/97/97 98/98/98 96/96/96
f 101/101/101 100/100/100 99/99/99
f 102/102/102 101/101/101 99/99/99
f 105/105/105 104/104/104 103/103/103
f 106/106/106 105/105/105 103/103/103
f 109/109/109 108/108/108 107/107/107
f 110/110/110 109/109/109 107/107/107
f 113/113/113 112/112/112 111/111/111
f 114/114/114 113/113/113 111/111/111
f 117/117/117 116/116/116 115/115/115
f 118/118/118 117/117/117 115/115/115
