# Mesh "Arm_Right" exported with Unity Assets Bundle Extractor; 24 vertices, 36 indices, 48 bytes per vertex
g Arm_Right
# SubMesh 0
# Vertices
v 0.214509 0.256294 -0.261297
vt 0.692171 0.377760
vn -0.018160 0.999820 0.005526
v 0.228779 0.254165 0.237453
vt 0.746863 0.377760
vn -0.018160 0.999820 0.005526
v -0.221434 0.243696 0.264336
vt 0.746863 0.493139
vn -0.018160 0.999820 0.005526
v -0.235703 0.245825 -0.234415
vt 0.692171 0.493139
vn -0.018160 0.999820 0.005526
v -0.200661 -1.256274 0.255219
vt 0.809918 0.380759
vn 0.018160 -0.999820 -0.005526
v 0.249552 -1.245804 0.228337
vt 0.809918 0.495101
vn 0.018160 -0.999820 -0.005526
v 0.235282 -1.243675 -0.270413
vt 0.754522 0.495101
vn 0.018160 -0.999820 -0.005526
v -0.214930 -1.254145 -0.243531
vt 0.754522 0.380759
vn 0.018160 -0.999820 -0.005526
v -0.221434 0.243696 0.264336
vt 0.628352 0.369894
vn 0.043382 -0.004734 0.999047
v 0.228779 0.254165 0.237453
vt 0.685975 0.369895
vn 0.043382 -0.004734 0.999047
v 0.249552 -1.245804 0.228337
vt 0.685975 0.005419
vn 0.043382 -0.004734 0.999047
v -0.200661 -1.256274 0.255219
vt 0.628352 0.005418
vn 0.043382 -0.004734 0.999047
v -0.235703 0.245825 -0.234415
vt 0.813375 0.369693
vn -0.998893 -0.018383 0.043288
v -0.221434 0.243696 0.264336
vt 0.872401 0.369693
vn -0.998893 -0.018383 0.043288
v -0.200661 -1.256274 0.255219
vt 0.872401 0.007251
vn -0.998893 -0.018383 0.043288
v -0.214930 -1.254145 -0.243531
vt 0.813375 0.007251
vn -0.998893 -0.018383 0.043288
v 0.214509 0.256294 -0.261297
vt 0.811313 0.370664
vn -0.043382 0.004734 -0.999047
v -0.235703 0.245825 -0.234415
vt 0.751278 0.370664
vn -0.043382 0.004734 -0.999047
v 0.235282 -1.243675 -0.270413
vt 0.811313 0.005628
vn -0.043382 0.004734 -0.999047
v -0.214930 -1.254145 -0.243531
vt 0.751278 0.005628
vn -0.043382 0.004734 -0.999047
v 0.228779 0.254165 0.237453
vt 0.748354 0.369635
vn 0.998893 0.018383 -0.043288
v 0.214509 0.256294 -0.261297
vt 0.689448 0.369635
vn 0.998893 0.018383 -0.043288
v 0.249552 -1.245804 0.228337
vt 0.748354 0.004058
vn 0.998893 0.018383 -0.043288
v 0.235282 -1.243675 -0.270413
vt 0.689448 0.004058
vn 0.998893 0.018383 -0.043288
# Faces (1 to 24)
f -22/-22/-22 -23/-23/-23 -24/-24/-24
f -21/-21/-21 -22/-22/-22 -24/-24/-24
f -18/-18/-18 -19/-19/-19 -20/-20/-20
f -17/-17/-17 -18/-18/-18 -20/-20/-20
f -14/-14/-14 -15/-15/-15 -16/-16/-16
f -13/-13/-13 -14/-14/-14 -16/-16/-16
f -10/-10/-10 -11/-11/-11 -12/-12/-12
f -9/-9/-9 -10/-10/-10 -12/-12/-12
f -6/-6/-6 -7/-7/-7 -8/-8/-8
f -6/-6/-6 -5/-5/-5 -7/-7/-7
f -2/-2/-2 -3/-3/-3 -4/-4/-4
f -2/-2/-2 -1/-1/-1 -3/-3/-3

