g Arm_R
v 0.2738623 -0.2686958 0.05038074
v -0.2697901 -0.2686958 0.05038074
v -0.2697901 -0.0008117557 0.05038074
v 0.2738623 -0.0008117557 0.05038074
v 0.2738623 -0.2686958 -0.06853247
v 0.2738623 -0.0008117557 -0.06853247
v -0.2697901 -0.0008117557 -0.06853247
v -0.2697901 -0.2686958 -0.06853247
v 0.2738623 -0.2686958 0.05038074
v 0.2738623 -0.2686958 -0.06853247
v -0.2697901 -0.2686958 -0.06853247
v -0.2697901 -0.2686958 0.05038074
v -0.2697901 -0.2686958 0.05038074
v -0.2697901 -0.2686958 -0.06853247
v -0.2697901 -0.0008117557 -0.06853247
v -0.2697901 -0.0008117557 0.05038074
v -0.2697901 -0.0008117557 0.05038074
v -0.2697901 -0.0008117557 -0.06853247
v 0.2738623 -0.0008117557 -0.06853247
v 0.2738623 -0.0008117557 0.05038074
v 0.2738623 -0.0008117557 0.05038074
v 0.2738623 -0.0008117557 -0.06853247
v 0.2738623 -0.2686958 -0.06853247
v 0.2738623 -0.2686958 0.05038074
vt 0.03947633 0.8891674
vt 0.04806077 0.8891674
vt 0.04806077 0.88494
vt 0.03947633 0.88494
vt 0.03938556 0.8849789
vt 0.03938556 0.8892063
vt 0.04797 0.8892063
vt 0.04797 0.8849789
vt 0.0394893 0.884914
vt 0.0394893 0.8867943
vt 0.04807374 0.8867943
vt 0.04807374 0.884914
vt 0.05171759 0.8840842
vt 0.04985028 0.8840842
vt 0.04985028 0.8883115
vt 0.05171759 0.8883115
vt 0.09907465 0.8739306
vt 0.09907465 0.8758109
vt 0.1076591 0.8758109
vt 0.1076591 0.8739306
vt 0.05173056 0.8840582
vt 0.04985028 0.8840582
vt 0.04985028 0.8882986
vt 0.05173056 0.8882986
vn -0.0009775162 0.0009775162 0.999999
vn -0.0009775162 0.0009775162 0.999999
vn -0.0009775162 0.0009775162 0.999999
vn -0.0009775162 0.0009775162 0.999999
vn -0.0009775162 0.0009775162 -0.999999
vn -0.0009775162 0.0009775162 -0.999999
vn -0.0009775162 0.0009775162 -0.999999
vn -0.0009775162 0.0009775162 -0.999999
vn -0.0009775162 -0.9999995 0
vn -0.0009775162 -0.9999995 0
vn -0.0009775162 -0.9999995 0
vn -0.0009775162 -0.9999995 0
vn -0.9999995 0.0009775162 0
vn -0.9999995 0.0009775162 0
vn -0.9999995 0.0009775162 0
vn -0.9999995 0.0009775162 0
vn -0.0009775162 0.9999995 0
vn -0.0009775162 0.9999995 0
vn -0.0009775162 0.9999995 0
vn -0.0009775162 0.9999995 0
vn 0.9999995 -0.0009775162 0
vn 0.9999995 -0.0009775162 0
vn 0.9999995 -0.0009775162 0
vn 0.9999995 -0.0009775162 0
g Arm_R_0
f 3/3/3 2/2/2 1/1/1
f 4/4/4 3/3/3 1/1/1
f 7/7/7 6/6/6 5/5/5
f 8/8/8 7/7/7 5/5/5
f 11/11/11 10/10/10 9/9/9
f 12/12/12 11/11/11 9/9/9
f 15/15/15 14/14/14 13/13/13
f 16/16/16 15/15/15 13/13/13
f 19/19/19 18/18/18 17/17/17
f 20/20/20 19/19/19 17/17/17
f 23/23/23 22/22/22 21/21/21
f 24/24/24 23/23/23 21/21/21
