g Arm_Right001
v 0.07380717 0.08054621 -0.08163851
v 0.08063893 0.0798007 0.07569175
v -0.0766671 0.07690576 0.08250875
v -0.08349888 0.07765126 -0.07482152
v -0.06808732 -0.3954501 0.07989798
v 0.08921871 -0.3925551 0.07308098
v 0.08238694 -0.3918097 -0.0842493
v -0.07491909 -0.3947046 -0.0774323
v -0.0766671 0.07690576 0.08250875
v 0.08063893 0.0798007 0.07569175
v 0.08921871 -0.3925551 0.07308098
v -0.06808732 -0.3954501 0.07989798
v -0.08349888 0.07765126 -0.07482152
v -0.0766671 0.07690576 0.08250875
v -0.06808732 -0.3954501 0.07989798
v -0.07491909 -0.3947046 -0.0774323
v 0.07380717 0.08054621 -0.08163851
v -0.08349888 0.07765126 -0.07482152
v 0.08238694 -0.3918097 -0.0842493
v -0.07491909 -0.3947046 -0.0774323
v 0.08063893 0.0798007 0.07569175
v 0.07380717 0.08054621 -0.08163851
v 0.08921871 -0.3925551 0.07308098
v 0.08238694 -0.3918097 -0.0842493
vt 0.6921709 0.3777603
vt 0.7468628 0.3777603
vt 0.7468628 0.4931394
vt 0.6921709 0.4931394
vt 0.8099177 0.3807594
vt 0.8099177 0.4951011
vt 0.7545217 0.4951011
vt 0.7545217 0.3807594
vt 0.6283523 0.3698944
vt 0.6859747 0.3698946
vt 0.6859747 0.00541862
vt 0.6283523 0.005418098
vt 0.8133745 0.3696929
vt 0.8724005 0.3696925
vt 0.8724005 0.007250961
vt 0.8133745 0.007251396
vt 0.8113133 0.3706643
vt 0.7512781 0.3706643
vt 0.8113133 0.005627924
vt 0.7512781 0.005627891
vt 0.7483544 0.3696349
vt 0.6894478 0.3696349
vt 0.7483544 0.004058153
vt 0.6894478 0.004058172
vn -0.01816045 0.9998198 0.005526146
vn -0.01816045 0.9998198 0.005526147
vn -0.01816045 0.9998198 0.005526147
vn -0.01816045 0.9998198 0.005526146
vn 0.01816047 -0.9998198 -0.00552604
vn 0.01816047 -0.9998198 -0.00552604
vn 0.01816047 -0.9998198 -0.00552604
vn 0.01816047 -0.9998198 -0.00552604
vn 0.04338178 -0.004733854 0.9990473
vn 0.04338179 -0.004733836 0.9990473
vn 0.04338178 -0.004733854 0.9990473
vn 0.04338179 -0.004733836 0.9990473
vn -0.9988936 -0.01838297 0.04328796
vn -0.9988936 -0.01838297 0.04328796
vn -0.9988936 -0.01838297 0.04328796
vn -0.9988936 -0.01838296 0.04328795
vn -0.04338175 0.004733919 -0.9990473
vn -0.04338172 0.004733966 -0.9990473
vn -0.04338174 0.004733938 -0.9990473
vn -0.04338175 0.004733919 -0.9990473
vn 0.9988936 0.01838297 -0.04328792
vn 0.9988936 0.01838297 -0.04328793
vn 0.9988936 0.01838297 -0.04328799
vn 0.9988936 0.01838296 -0.04328799
g Arm_Right001_0
f 3/3/3 2/2/2 1/1/1
f 4/4/4 3/3/3 1/1/1
f 7/7/7 6/6/6 5/5/5
f 8/8/8 7/7/7 5/5/5
f 11/11/11 10/10/10 9/9/9
f 12/12/12 11/11/11 9/9/9
f 15/15/15 14/14/14 13/13/13
f 16/16/16 15/15/15 13/13/13
f 19/19/19 18/18/18 17/17/17
f 19/19/19 20/20/20 18/18/18
f 23/23/23 22/22/22 21/21/21
f 23/23/23 24/24/24 22/22/22
