g armadillo_rocket
v 0.03234993 -0.1725337 -0.03235006
v 0.03234993 -0.1725337 -0.05391676
v -0.03234993 -0.1725337 -0.05391676
v -0.03234993 -0.1725337 -0.03235006
v 0.05391685 -0.1725337 0.03235008
v 0.05391685 -0.1725337 -0.03235006
v 0.03234993 -0.1725337 -0.03235006
v 0.03234993 -0.1725337 0.03235008
v -0.03234993 -0.1725337 0.03235008
v -0.03234993 -0.1725337 -0.03235006
v -0.0539167 -0.1725337 -0.03235006
v -0.0539167 -0.1725337 0.03235008
v 0.03234993 -0.1725337 0.05391685
v 0.03234993 -0.1725337 0.03235008
v -0.03234993 -0.1725337 0.03235008
v -0.03234993 -0.1725337 0.05391685
v -0.03235008 0.2156671 -0.05391674
v 0.03235 0.2156671 -0.05391674
v 0.03235 0.2156671 -0.03235004
v -0.03235008 0.2156671 -0.03235004
v 0.05391678 0.2156671 0.03235004
v 0.05391678 0.2156671 -0.03235004
v -0.05391678 0.2156671 -0.03235004
v 0.03235 0.2156671 0.03235004
v -0.03235008 0.2156671 0.03235004
v -0.05391678 0.2156671 0.03235004
v 0.03235 0.2156671 0.05391682
v -0.03235008 0.2156671 0.05391682
v 0.03234993 -0.1725337 -0.03235006
v 0.03234993 -0.1941005 -0.03235004
v 0.03234993 -0.1941005 0.03235008
v 0.03234993 -0.1725337 0.03235008
v 0.03235 0.2156671 -0.05391674
v 0.03234993 -0.1725337 -0.05391676
v 0.03234993 -0.1725337 -0.03235006
v 0.03235 0.2156671 -0.03235004
v 0.05391678 0.2156671 -0.03235004
v 0.05391685 -0.1725337 -0.03235006
v 0.03235 0.2156671 0.03235004
v 0.03234993 -0.1725337 0.03235008
v 0.03234993 -0.1725337 0.05391685
v 0.03235 0.2156671 0.05391682
v 0.05391678 0.2156671 0.03235004
v 0.05391685 -0.1725337 0.03235008
v -0.03234993 -0.1941005 0.03235008
v -0.03234993 -0.1941005 -0.03235004
v -0.03234993 -0.1725337 -0.03235006
v -0.03234993 -0.1725337 0.03235008
v -0.03234993 -0.1725337 -0.03235006
v -0.03234993 -0.1725337 -0.05391676
v -0.03235008 0.2156671 -0.05391674
v -0.03235008 0.2156671 -0.03235004
v -0.0539167 -0.1725337 -0.03235006
v -0.05391678 0.2156671 -0.03235004
v -0.03234993 -0.1725337 0.05391685
v -0.03234993 -0.1725337 0.03235008
v -0.03235008 0.2156671 0.03235004
v -0.03235008 0.2156671 0.05391682
v -0.0539167 -0.1725337 0.03235008
v -0.05391678 0.2156671 0.03235004
v -0.03234993 -0.1941005 -0.03235004
v 0.03234993 -0.1941005 -0.03235004
v 0.03234993 -0.1725337 -0.03235006
v -0.03234993 -0.1725337 -0.03235006
v 0.03234993 -0.1725337 0.03235008
v 0.03234993 -0.1941005 0.03235008
v -0.03234993 -0.1941005 0.03235008
v -0.03234993 -0.1725337 0.03235008
v 0.03235 0.2156671 0.05391682
v 0.03234993 -0.1725337 0.05391685
v -0.03234993 -0.1725337 0.05391685
v -0.03235008 0.2156671 0.05391682
v 0.05391685 -0.1725337 0.03235008
v 0.05391678 0.2156671 0.03235004
v 0.05391678 0.2156671 -0.03235004
v 0.05391685 -0.1725337 -0.03235006
v -0.0539167 -0.1725337 -0.03235006
v -0.05391678 0.2156671 -0.03235004
v -0.05391678 0.2156671 0.03235004
v -0.0539167 -0.1725337 0.03235008
v -0.03235008 0.2156671 -0.05391674
v -0.03234993 -0.1725337 -0.05391676
v 0.03234993 -0.1725337 -0.05391676
v 0.03235 0.2156671 -0.05391674
v -0.03234993 -0.1941005 0.03235008
v 0.03234993 -0.1941005 0.03235008
v 0.03234993 -0.1941005 -0.03235004
v -0.03234993 -0.1941005 -0.03235004
v 0.01078346 -0.2156672 -0.01078331
v 0.01078346 -0.2156672 -0.03235004
v -0.01078331 -0.2156672 -0.03235004
v -0.01078331 -0.2156672 -0.01078331
v 0.01078346 -0.1941005 -0.03235004
v -0.01078331 -0.1941005 -0.03235004
v -0.01078331 -0.2156672 0.01078339
v 0.01078346 -0.2156672 0.01078339
v 0.03234993 -0.2156672 -0.01078331
v 0.03234993 -0.2156672 0.01078339
v 0.01078346 -0.2156672 0.03235008
v -0.01078331 -0.2156672 0.03235008
v 0.01078346 -0.1941005 0.03235008
v -0.01078331 -0.1941005 0.03235008
v -0.03235 -0.2156672 0.01078339
v -0.03235 -0.2156672 -0.01078331
v 0.01078346 -0.1941005 0.01078339
v 0.01078346 -0.2156672 0.03235008
v 0.01078346 -0.2156672 0.01078339
v -0.01078331 -0.2156672 -0.01078331
v -0.01078331 -0.2156672 -0.03235004
v -0.01078331 -0.1941005 -0.01078331
v -0.03235 -0.2156672 -0.01078331
v -0.01078331 -0.2156672 -0.01078331
v -0.03235 -0.1941005 -0.01078331
v 0.03234993 -0.1941005 0.01078339
v 0.01078346 -0.2156672 0.01078339
v 0.03234993 -0.2156672 0.01078339
v 0.03234993 -0.1941005 -0.01078331
v 0.03234993 -0.2156672 -0.01078331
v 0.03234993 -0.2156672 0.01078339
v 0.03234993 -0.1941005 0.01078339
v 0.01078346 -0.2156672 -0.01078331
v 0.01078346 -0.1941005 -0.01078331
v 0.01078346 -0.1941005 -0.03235004
v 0.01078346 -0.2156672 -0.03235004
v -0.01078331 -0.2156672 0.03235008
v -0.01078331 -0.2156672 0.01078339
v -0.01078331 -0.1941005 0.01078339
v -0.01078331 -0.1941005 0.03235008
v -0.03235 -0.2156672 0.01078339
v -0.03235 -0.1941005 0.01078339
v -0.03235 -0.1941005 -0.01078331
v -0.03235 -0.2156672 -0.01078331
v -0.07548347 0.1078336 -0.01078331
v -0.07548347 0.1078336 0.01078339
v -0.05391678 0.1078336 0.01078339
v -0.05391678 0.1078336 -0.01078331
v -0.07548355 0.1941004 -0.01078335
v -0.05391678 0.1941004 -0.01078335
v -0.05391678 0.1941004 0.01078335
v -0.07548355 0.1941004 0.01078335
v -0.05391678 0.1941004 -0.01078335
v -0.07548355 0.1941004 -0.01078335
v -0.07548347 0.1078336 -0.01078331
v -0.05391678 0.1078336 -0.01078331
v -0.07548347 0.1078336 0.01078339
v -0.07548355 0.1941004 0.01078335
v -0.05391678 0.1941004 0.01078335
v -0.05391678 0.1078336 0.01078339
v 0.07548355 0.1078335 -0.01078331
v 0.05391693 0.1078336 -0.01078331
v 0.05391693 0.1078336 0.01078339
v 0.07548355 0.1078335 0.01078339
v 0.05391678 0.1941004 0.01078335
v 0.05391678 0.1941004 -0.01078335
v 0.07548355 0.1941004 -0.01078335
v 0.07548355 0.1941004 0.01078335
v 0.05391678 0.1941004 -0.01078335
v 0.05391693 0.1078336 -0.01078331
v 0.07548355 0.1078335 -0.01078331
v 0.07548355 0.1941004 -0.01078335
v 0.07548355 0.1078335 0.01078339
v 0.07548355 0.1941004 0.01078335
v 0.05391678 0.1941004 0.01078335
v 0.05391693 0.1078336 0.01078339
v 0.01078354 0.1078336 -0.07548349
v -0.01078323 0.1078336 -0.07548349
v -0.01078323 0.1078336 -0.05391674
v 0.01078354 0.1078336 -0.05391674
v 0.01078339 0.1941004 -0.07548347
v 0.01078339 0.1941004 -0.05391672
v -0.01078339 0.1941004 -0.05391672
v -0.01078339 0.1941004 -0.07548347
v 0.01078339 0.1941004 -0.05391672
v 0.01078339 0.1941004 -0.07548347
v 0.01078354 0.1078336 -0.07548349
v 0.01078354 0.1078336 -0.05391674
v -0.01078323 0.1078336 -0.07548349
v -0.01078339 0.1941004 -0.07548347
v -0.01078339 0.1941004 -0.05391672
v -0.01078323 0.1078336 -0.05391674
v 0.01078354 0.1078336 0.07548355
v 0.01078354 0.1078336 0.05391685
v -0.01078323 0.1078336 0.05391685
v -0.01078323 0.1078336 0.07548355
v -0.01078339 0.1941004 0.05391682
v 0.01078339 0.1941004 0.05391682
v 0.01078339 0.1941004 0.07548351
v -0.01078339 0.1941004 0.07548351
v 0.01078339 0.1941004 0.05391682
v 0.01078354 0.1078336 0.05391685
v 0.01078354 0.1078336 0.07548355
v 0.01078339 0.1941004 0.07548351
v -0.01078323 0.1078336 0.07548355
v -0.01078339 0.1941004 0.07548351
v -0.01078339 0.1941004 0.05391682
v -0.01078323 0.1078336 0.05391685
vt 0.8046875 0.84375
vt 0.8125 0.84375
vt 0.8125 0.8203125
vt 0.8046875 0.8203125
vt 0.8125 0.8828125
vt 0.8125 0.859375
vt 0.8046875 0.859375
vt 0.8046875 0.8828125
vt 0.8046875 0.9375
vt 0.8046875 0.9609375
vt 0.8125 0.9609375
vt 0.8125 0.9375
vt 0.8125 0.8984375
vt 0.8046875 0.8984375
vt 0.8046875 0.921875
vt 0.8125 0.921875
vt 0.984375 0.8515625
vt 0.9609375 0.8515625
vt 0.9609375 0.859375
vt 0.984375 0.859375
vt 0.953125 0.8828125
vt 0.953125 0.859375
vt 0.9921875 0.859375
vt 0.9609375 0.8828125
vt 0.984375 0.8828125
vt 0.9921875 0.8828125
vt 0.9609375 0.890625
vt 0.984375 0.890625
vt 0.8046875 0.859375
vt 0.796875 0.859375
vt 0.796875 0.8828125
vt 0.8046875 0.8828125
vt 0.953125 0.84375
vt 0.8125 0.84375
vt 0.8125 0.8515625
vt 0.953125 0.8515625
vt 0.953125 0.859375
vt 0.8125 0.859375
vt 0.953125 0.890625
vt 0.8125 0.890625
vt 0.8125 0.8984375
vt 0.953125 0.8984375
vt 0.953125 0.8828125
vt 0.8125 0.8828125
vt 0.796875 0.9375
vt 0.796875 0.9609375
vt 0.8046875 0.9609375
vt 0.8046875 0.9375
vt 0.8125 0.8125
vt 0.8125 0.8203125
vt 0.953125 0.8203125
vt 0.953125 0.8125
vt 0.8125 0.8046875
vt 0.953125 0.8046875
vt 0.8125 0.921875
vt 0.8125 0.9296875
vt 0.953125 0.9296875
vt 0.953125 0.921875
vt 0.8125 0.9375
vt 0.953125 0.9375
vt 0.796875 0.8203125
vt 0.796875 0.84375
vt 0.8046875 0.84375
vt 0.8046875 0.8203125
vt 0.8046875 0.8984375
vt 0.796875 0.8984375
vt 0.796875 0.921875
vt 0.8046875 0.921875
vt 0.953125 0.8984375
vt 0.8125 0.8984375
vt 0.8125 0.921875
vt 0.953125 0.921875
vt 0.8125 0.8828125
vt 0.953125 0.8828125
vt 0.953125 0.859375
vt 0.8125 0.859375
vt 0.8125 0.9609375
vt 0.953125 0.9609375
vt 0.953125 0.9375
vt 0.8125 0.9375
vt 0.953125 0.8203125
vt 0.8125 0.8203125
vt 0.8125 0.84375
vt 0.953125 0.84375
vt 0.7734375 0.8828125
vt 0.796875 0.8828125
vt 0.796875 0.859375
vt 0.7734375 0.859375
vt 0.7734375 0.90625
vt 0.7734375 0.8984375
vt 0.765625 0.8984375
vt 0.765625 0.90625
vt 0.7734375 0.890625
vt 0.765625 0.890625
vt 0.765625 0.9140625
vt 0.7734375 0.9140625
vt 0.78125 0.90625
vt 0.78125 0.9140625
vt 0.7734375 0.921875
vt 0.765625 0.921875
vt 0.7734375 0.9296875
vt 0.765625 0.9296875
vt 0.7578125 0.9140625
vt 0.7578125 0.90625
vt 0.78125 0.9296875
vt 0.7734375 0.921875
vt 0.78125 0.921875
vt 0.7578125 0.8984375
vt 0.765625 0.8984375
vt 0.7578125 0.890625
vt 0.75 0.8984375
vt 0.7578125 0.8984375
vt 0.75 0.890625
vt 0.7890625 0.9296875
vt 0.78125 0.921875
vt 0.7890625 0.921875
vt 0.7890625 0.90625
vt 0.78125 0.90625
vt 0.78125 0.9140625
vt 0.7890625 0.9140625
vt 0.78125 0.8984375
vt 0.7890625 0.8984375
vt 0.7890625 0.890625
vt 0.78125 0.890625
vt 0.7578125 0.9296875
vt 0.7578125 0.921875
vt 0.75 0.921875
vt 0.75 0.9296875
vt 0.7578125 0.9140625
vt 0.75 0.9140625
vt 0.75 0.90625
vt 0.7578125 0.90625
vt 0.90625 0.9765625
vt 0.90625 0.984375
vt 0.8984375 0.984375
vt 0.8984375 0.9765625
vt 0.9375 0.9765625
vt 0.9453125 0.9765625
vt 0.9453125 0.984375
vt 0.9375 0.984375
vt 0.9375 0.96875
vt 0.9375 0.9765625
vt 0.90625 0.9765625
vt 0.90625 0.96875
vt 0.90625 0.984375
vt 0.9375 0.984375
vt 0.9375 0.9921875
vt 0.90625 0.9921875
vt 0.90625 0.9765625
vt 0.8984375 0.9765625
vt 0.8984375 0.984375
vt 0.90625 0.984375
vt 0.9453125 0.984375
vt 0.9453125 0.9765625
vt 0.9375 0.9765625
vt 0.9375 0.984375
vt 0.9375 0.96875
vt 0.90625 0.96875
vt 0.90625 0.9765625
vt 0.9375 0.9765625
vt 0.90625 0.984375
vt 0.9375 0.984375
vt 0.9375 0.9921875
vt 0.90625 0.9921875
vt 0.90625 0.9765625
vt 0.90625 0.984375
vt 0.8984375 0.984375
vt 0.8984375 0.9765625
vt 0.9375 0.9765625
vt 0.9453125 0.9765625
vt 0.9453125 0.984375
vt 0.9375 0.984375
vt 0.9375 0.96875
vt 0.9375 0.9765625
vt 0.90625 0.9765625
vt 0.90625 0.96875
vt 0.90625 0.984375
vt 0.9375 0.984375
vt 0.9375 0.9921875
vt 0.90625 0.9921875
vt 0.90625 0.9765625
vt 0.8984375 0.9765625
vt 0.8984375 0.984375
vt 0.90625 0.984375
vt 0.9453125 0.984375
vt 0.9453125 0.9765625
vt 0.9375 0.9765625
vt 0.9375 0.984375
vt 0.9375 0.96875
vt 0.90625 0.96875
vt 0.90625 0.9765625
vt 0.9375 0.9765625
vt 0.90625 0.984375
vt 0.9375 0.984375
vt 0.9375 0.9921875
vt 0.90625 0.9921875
vn 0.57735 -0.5773506 -0.5773502
vn 0.7071066 -0.7071069 0
vn -0.7071066 -0.7071069 0
vn -0.57735 -0.5773506 -0.5773501
vn 0 -0.7071068 0.7071066
vn 0 -0.7071068 -0.7071066
vn 0.57735 -0.5773506 -0.5773502
vn 0.5773503 -0.5773503 0.5773503
vn -0.5773503 -0.5773504 0.5773502
vn -0.57735 -0.5773506 -0.5773501
vn 0 -0.7071066 -0.7071068
vn 0 -0.7071066 0.7071068
vn 0.7071066 -0.7071069 0
vn 0.5773503 -0.5773503 0.5773503
vn -0.5773503 -0.5773504 0.5773502
vn -0.7071066 -0.7071069 0
vn -0.7071069 0.7071066 0
vn 0.7071068 0.7071066 0
vn 0.3015113 0.904534 -0.3015114
vn -0.3015113 0.904534 -0.3015115
vn 0 0.7071068 0.7071068
vn 0 0.7071068 -0.7071068
vn 0 0.7071069 -0.7071066
vn 0.3015113 0.904534 0.3015114
vn -0.3015113 0.904534 0.3015115
vn 0 0.7071069 0.7071066
vn 0.7071068 0.7071066 0
vn -0.7071069 0.7071066 0
vn 0.57735 -0.5773506 -0.5773502
vn 0.7071069 -6.253585E-07 -0.7071066
vn 0.7071068 0 0.7071068
vn 0.5773503 -0.5773503 0.5773503
vn 0.7071068 0.7071066 0
vn 0.7071066 -0.7071069 0
vn 0.57735 -0.5773506 -0.5773502
vn 0.3015113 0.904534 -0.3015114
vn 0 0.7071068 -0.7071068
vn 0 -0.7071068 -0.7071066
vn 0.3015113 0.904534 0.3015114
vn 0.5773503 -0.5773503 0.5773503
vn 0.7071066 -0.7071069 0
vn 0.7071068 0.7071066 0
vn 0 0.7071068 0.7071068
vn 0 -0.7071068 0.7071066
vn -0.7071068 0 0.7071068
vn -0.7071069 -6.253585E-07 -0.7071066
vn -0.57735 -0.5773506 -0.5773501
vn -0.5773503 -0.5773504 0.5773502
vn -0.57735 -0.5773506 -0.5773501
vn -0.7071066 -0.7071069 0
vn -0.7071069 0.7071066 0
vn -0.3015113 0.904534 -0.3015115
vn 0 -0.7071066 -0.7071068
vn 0 0.7071069 -0.7071066
vn -0.7071066 -0.7071069 0
vn -0.5773503 -0.5773504 0.5773502
vn -0.3015113 0.904534 0.3015115
vn -0.7071069 0.7071066 0
vn 0 -0.7071066 0.7071068
vn 0 0.7071069 0.7071066
vn -0.7071069 -6.253585E-07 -0.7071066
vn 0.7071069 -6.253585E-07 -0.7071066
vn 0.57735 -0.5773506 -0.5773502
vn -0.57735 -0.5773506 -0.5773501
vn 0.5773503 -0.5773503 0.5773503
vn 0.7071068 0 0.7071068
vn -0.7071068 0 0.7071068
vn -0.5773503 -0.5773504 0.5773502
vn 0 0 1
vn 0 0 1
vn 0 0 1
vn 0 0 1
vn 1 1.965322E-07 0
vn 1 1.965322E-07 0
vn 1 1.965322E-07 0
vn 1 1.965322E-07 0
vn -1 -1.965322E-07 0
vn -1 -1.965322E-07 0
vn -1 -1.965322E-07 0
vn -1 -1.965322E-07 0
vn 0 0 -1
vn 0 0 -1
vn 0 0 -1
vn 0 0 -1
vn 0 -1 0
vn 0 -1 0
vn 0 -1 0
vn 0 -1 0
vn 0.3015113 -0.904534 -0.3015113
vn 0.5773503 -0.5773503 -0.5773503
vn -0.5773503 -0.5773503 -0.5773503
vn -0.3015113 -0.904534 -0.3015113
vn 0.7071068 0 -0.7071068
vn -0.7071068 0 -0.7071068
vn -0.3015112 -0.904534 0.3015116
vn 0.3015112 -0.904534 0.3015116
vn 0.5773503 -0.5773503 -0.5773503
vn 0.5773503 -0.5773503 0.5773503
vn 0.5773503 -0.57735 0.5773506
vn -0.5773503 -0.57735 0.5773506
vn 0.7071068 0 0.7071068
vn -0.7071068 0 0.7071068
vn -0.5773503 -0.5773502 0.5773503
vn -0.5773503 -0.5773502 -0.5773503
vn 0.7071068 0 0.7071068
vn 0.5773503 -0.57735 0.5773506
vn 0.3015112 -0.904534 0.3015116
vn -0.3015113 -0.904534 -0.3015113
vn -0.5773503 -0.5773503 -0.5773503
vn -0.7071068 0 -0.7071068
vn -0.5773503 -0.5773502 -0.5773503
vn -0.3015113 -0.904534 -0.3015113
vn -0.7071068 0 -0.7071068
vn 0.7071068 0 0.7071068
vn 0.3015112 -0.904534 0.3015116
vn 0.5773503 -0.5773503 0.5773503
vn 0.7071068 0 -0.7071068
vn 0.5773503 -0.5773503 -0.5773503
vn 0.5773503 -0.5773503 0.5773503
vn 0.7071068 0 0.7071068
vn 0.3015113 -0.904534 -0.3015113
vn 0.7071068 0 -0.7071068
vn 0.7071068 0 -0.7071068
vn 0.5773503 -0.5773503 -0.5773503
vn -0.5773503 -0.57735 0.5773506
vn -0.3015112 -0.904534 0.3015116
vn -0.7071068 0 0.7071068
vn -0.7071068 0 0.7071068
vn -0.5773503 -0.5773502 0.5773503
vn -0.7071068 0 0.7071068
vn -0.7071068 0 -0.7071068
vn -0.5773503 -0.5773502 -0.5773503
vn -0.57735 -0.5773506 -0.5773502
vn -0.57735 -0.5773503 0.5773504
vn 0 -0.7071066 0.7071069
vn 0 -0.7071069 -0.7071066
vn -0.5773506 0.57735 -0.5773504
vn 0 0.7071066 -0.7071069
vn 0 0.7071069 0.7071066
vn -0.5773506 0.5773502 0.5773501
vn 0 0.7071066 -0.7071069
vn -0.5773506 0.57735 -0.5773504
vn -0.57735 -0.5773506 -0.5773502
vn 0 -0.7071069 -0.7071066
vn -0.57735 -0.5773503 0.5773504
vn -0.5773506 0.5773502 0.5773501
vn 0 0.7071069 0.7071066
vn 0 -0.7071066 0.7071069
vn 0.5773494 -0.5773515 -0.5773499
vn -2.501452E-06 -0.7071058 -0.7071077
vn -2.501452E-06 -0.7071054 0.7071081
vn 0.5773493 -0.5773513 0.5773503
vn 0 0.7071073 0.7071062
vn 0 0.707107 -0.7071065
vn 0.5773503 0.5773501 -0.5773504
vn 0.5773503 0.5773504 0.5773501
vn 0 0.707107 -0.7071065
vn -2.501452E-06 -0.7071058 -0.7071077
vn 0.5773494 -0.5773515 -0.5773499
vn 0.5773503 0.5773501 -0.5773504
vn 0.5773493 -0.5773513 0.5773503
vn 0.5773503 0.5773504 0.5773501
vn 0 0.7071073 0.7071062
vn -2.501452E-06 -0.7071054 0.7071081
vn 0.5773509 -0.5773498 -0.5773503
vn -0.5773497 -0.5773507 -0.5773504
vn -0.7071061 -0.7071074 0
vn 0.7071074 -0.7071061 0
vn 0.5773498 0.5773509 -0.5773503
vn 0.7071061 0.7071074 0
vn -0.7071073 0.7071062 0
vn -0.5773509 0.5773499 -0.5773501
vn 0.7071061 0.7071074 0
vn 0.5773498 0.5773509 -0.5773503
vn 0.5773509 -0.5773498 -0.5773503
vn 0.7071074 -0.7071061 0
vn -0.5773497 -0.5773507 -0.5773504
vn -0.5773509 0.5773499 -0.5773501
vn -0.7071073 0.7071062 0
vn -0.7071061 -0.7071074 0
vn 0.5773507 -0.5773497 0.5773503
vn 0.7071074 -0.7071061 0
vn -0.7071062 -0.7071073 0
vn -0.5773498 -0.5773506 0.5773505
vn -0.7071072 0.7071062 0
vn 0.7071061 0.7071075 0
vn 0.5773497 0.5773509 0.5773502
vn -0.5773509 0.57735 0.5773501
vn 0.7071061 0.7071075 0
vn 0.7071074 -0.7071061 0
vn 0.5773507 -0.5773497 0.5773503
vn 0.5773497 0.5773509 0.5773502
vn -0.5773498 -0.5773506 0.5773505
vn -0.5773509 0.57735 0.5773501
vn -0.7071072 0.7071062 0
vn -0.7071062 -0.7071073 0
g armadillo_rocket_0
f 3/3/3 2/2/2 1/1/1
f 4/4/4 3/3/3 1/1/1
f 7/7/7 6/6/6 5/5/5
f 8/8/8 7/7/7 5/5/5
f 11/11/11 10/10/10 9/9/9
f 12/12/12 11/11/11 9/9/9
f 15/15/15 14/14/14 13/13/13
f 16/16/16 15/15/15 13/13/13
f 19/19/19 18/18/18 17/17/17
f 20/20/20 19/19/19 17/17/17
f 20/20/20 21/21/21 19/19/19
f 21/21/21 22/22/22 19/19/19
f 21/21/21 20/20/20 23/23/23
f 24/24/24 21/21/21 23/23/23
f 25/25/25 24/24/24 23/23/23
f 26/26/26 25/25/25 23/23/23
f 27/27/27 24/24/24 25/25/25
f 28/28/28 27/27/27 25/25/25
f 31/31/31 30/30/30 29/29/29
f 32/32/32 31/31/31 29/29/29
f 35/35/35 34/34/34 33/33/33
f 36/36/36 35/35/35 33/33/33
f 36/36/36 37/37/37 35/35/35
f 37/37/37 38/38/38 35/35/35
f 41/41/41 40/40/40 39/39/39
f 42/42/42 41/41/41 39/39/39
f 39/39/39 40/40/40 43/43/43
f 40/40/40 44/44/44 43/43/43
f 47/47/47 46/46/46 45/45/45
f 48/48/48 47/47/47 45/45/45
f 51/51/51 50/50/50 49/49/49
f 52/52/52 51/51/51 49/49/49
f 52/52/52 49/49/49 53/53/53
f 54/54/54 52/52/52 53/53/53
f 57/57/57 56/56/56 55/55/55
f 58/58/58 57/57/57 55/55/55
f 59/59/59 56/56/56 57/57/57
f 60/60/60 59/59/59 57/57/57
f 63/63/63 62/62/62 61/61/61
f 64/64/64 63/63/63 61/61/61
f 67/67/67 66/66/66 65/65/65
f 68/68/68 67/67/67 65/65/65
f 71/71/71 70/70/70 69/69/69
f 72/72/72 71/71/71 69/69/69
f 75/75/75 74/74/74 73/73/73
f 76/76/76 75/75/75 73/73/73
f 79/79/79 78/78/78 77/77/77
f 80/80/80 79/79/79 77/77/77
f 83/83/83 82/82/82 81/81/81
f 84/84/84 83/83/83 81/81/81
f 87/87/87 86/86/86 85/85/85
f 88/88/88 87/87/87 85/85/85
f 91/91/91 90/90/90 89/89/89
f 92/92/92 91/91/91 89/89/89
f 93/93/93 90/90/90 91/91/91
f 94/94/94 93/93/93 91/91/91
f 92/92/92 89/89/89 95/95/95
f 89/89/89 96/96/96 95/95/95
f 89/89/89 97/97/97 96/96/96
f 97/97/97 98/98/98 96/96/96
f 95/95/95 96/96/96 99/99/99
f 100/100/100 95/95/95 99/99/99
f 100/100/100 99/99/99 101/101/101
f 102/102/102 100/100/100 101/101/101
f 92/92/92 95/95/95 103/103/103
f 104/104/104 92/92/92 103/103/103
f 101/101/101 106/106/106 105/105/105
f 106/106/106 107/107/107 105/105/105
f 94/94/94 109/109/109 108/108/108
f 110/110/110 94/94/94 108/108/108
f 110/110/110 112/112/112 111/111/111
f 113/113/113 110/110/110 111/111/111
f 105/105/105 115/115/115 114/114/114
f 115/115/115 116/116/116 114/114/114
f 119/119/119 118/118/118 117/117/117
f 120/120/120 119/119/119 117/117/117
f 117/117/117 118/118/118 121/121/121
f 122/122/122 117/117/117 121/121/121
f 122/122/122 121/121/121 123/123/123
f 121/121/121 124/124/124 123/123/123
f 127/127/127 126/126/126 125/125/125
f 128/128/128 127/127/127 125/125/125
f 129/129/129 126/126/126 127/127/127
f 130/130/130 129/129/129 127/127/127
f 130/130/130 131/131/131 129/129/129
f 131/131/131 132/132/132 129/129/129
f 135/135/135 134/134/134 133/133/133
f 136/136/136 135/135/135 133/133/133
f 139/139/139 138/138/138 137/137/137
f 140/140/140 139/139/139 137/137/137
f 143/143/143 142/142/142 141/141/141
f 144/144/144 143/143/143 141/141/141
f 142/142/142 143/143/143 145/145/145
f 146/146/146 142/142/142 145/145/145
f 146/146/146 145/145/145 147/147/147
f 145/145/145 148/148/148 147/147/147
f 151/151/151 150/150/150 149/149/149
f 152/152/152 151/151/151 149/149/149
f 155/155/155 154/154/154 153/153/153
f 156/156/156 155/155/155 153/153/153
f 159/159/159 158/158/158 157/157/157
f 160/160/160 159/159/159 157/157/157
f 161/161/161 159/159/159 160/160/160
f 162/162/162 161/161/161 160/160/160
f 162/162/162 163/163/163 161/161/161
f 163/163/163 164/164/164 161/161/161
f 167/167/167 166/166/166 165/165/165
f 168/168/168 167/167/167 165/165/165
f 171/171/171 170/170/170 169/169/169
f 172/172/172 171/171/171 169/169/169
f 175/175/175 174/174/174 173/173/173
f 176/176/176 175/175/175 173/173/173
f 174/174/174 175/175/175 177/177/177
f 178/178/178 174/174/174 177/177/177
f 178/178/178 177/177/177 179/179/179
f 177/177/177 180/180/180 179/179/179
f 183/183/183 182/182/182 181/181/181
f 184/184/184 183/183/183 181/181/181
f 187/187/187 186/186/186 185/185/185
f 188/188/188 187/187/187 185/185/185
f 191/191/191 190/190/190 189/189/189
f 192/192/192 191/191/191 189/189/189
f 193/193/193 191/191/191 192/192/192
f 194/194/194 193/193/193 192/192/192
f 194/194/194 195/195/195 193/193/193
f 195/195/195 196/196/196 193/193/193
