g Armor_Army_1_right
v -0.2887413 0.1612443 -0.1539954
v -0.2887412 0.1612443 0.1539952
v -0.2887412 -0.03125002 0.1539953
v -0.2887413 -0.03124998 -0.1539954
v -0.2115293 0.1705313 -0.1732449
v -0.2115293 0.1705312 0.1732446
v -0.2115293 0.112783 0.1732446
v -0.2115293 0.112783 -0.1732449
v -0.1730304 0.112783 -0.173245
v -0.1730303 0.112783 0.1732446
v -0.1730303 0.07428414 0.1732447
v -0.1730304 0.07428421 -0.173245
v -0.0960329 0.112783 -0.173245
v -0.0960329 0.07428421 -0.173245
v -0.09603281 0.07428414 0.1732447
v -0.09603281 0.112783 0.1732446
v -0.05753402 0.1705313 -0.173245
v -0.05753402 0.112783 -0.173245
v -0.05753393 0.112783 0.1732446
v -0.05753393 0.1705312 0.1732446
v 0.01924935 0.1612443 -0.1539955
v 0.01924936 -0.03124997 -0.1539955
v 0.01924944 -0.03125001 0.1539952
v 0.01924943 0.1612443 0.1539951
v -0.1730304 0.112783 -0.173245
v -0.0960329 0.112783 -0.173245
v -0.2115293 0.1705313 -0.1732449
v -0.2115293 0.112783 -0.1732449
v -0.0960329 0.07428421 -0.173245
v -0.1730304 0.07428421 -0.173245
v -0.05753402 0.112783 -0.173245
v -0.05753402 0.1705313 -0.173245
v 0.01924936 -0.03124997 -0.1539955
v 0.01924935 0.1612443 -0.1539955
v -0.2887413 0.1612443 -0.1539954
v -0.2887413 -0.03124998 -0.1539954
v -0.1730303 0.112783 0.1732446
v -0.2115293 0.112783 0.1732446
v -0.2115293 0.1705312 0.1732446
v -0.09603281 0.112783 0.1732446
v -0.09603281 0.07428414 0.1732447
v -0.1730303 0.07428414 0.1732447
v -0.05753393 0.112783 0.1732446
v -0.05753393 0.1705312 0.1732446
v 0.01924944 -0.03125001 0.1539952
v -0.2887412 -0.03125002 0.1539953
v -0.2887412 0.1612443 0.1539952
v 0.01924943 0.1612443 0.1539951
v -0.2887412 -0.03125002 0.1539953
v 0.01924944 -0.03125001 0.1539952
v 0.01924936 -0.03124997 -0.1539955
v -0.2887413 -0.03124998 -0.1539954
v -0.1730303 0.07428414 0.1732447
v -0.09603281 0.07428414 0.1732447
v -0.0960329 0.07428421 -0.173245
v -0.1730304 0.07428421 -0.173245
v -0.2115293 0.112783 0.1732446
v -0.1730303 0.112783 0.1732446
v -0.1730304 0.112783 -0.173245
v -0.2115293 0.112783 -0.1732449
v -0.09603281 0.112783 0.1732446
v -0.05753393 0.112783 0.1732446
v -0.05753402 0.112783 -0.173245
v -0.0960329 0.112783 -0.173245
v -0.2887412 0.1612443 0.1539952
v -0.2887413 0.1612443 -0.1539954
v 0.01924935 0.1612443 -0.1539955
v 0.01924943 0.1612443 0.1539951
v -0.2115293 0.1705312 0.1732446
v -0.2115293 0.1705313 -0.1732449
v -0.05753402 0.1705313 -0.173245
v -0.05753393 0.1705312 0.1732446
vt 0.765625 0.5625
vt 0.890625 0.5625
vt 0.890625 0.640625
vt 0.765625 0.640625
vt 0.0625 0.515625
vt 0.1875 0.515625
vt 0.1875 0.53125
vt 0.0625 0.53125
vt 0.0625 0.546875
vt 0.1875 0.546875
vt 0.1875 0.5625
vt 0.0625 0.5625
vt 0.0625 0.609375
vt 0.0625 0.59375
vt 0.1875 0.59375
vt 0.1875 0.609375
vt 0.0625 0.453125
vt 0.0625 0.4375
vt 0.1875 0.4375
vt 0.1875 0.453125
vt 0.765625 0.4375
vt 0.765625 0.359375
vt 0.890625 0.359375
vt 0.890625 0.4375
vt 0.046875 0.5
vt 0.046875 0.46875
vt 0.0625 0.515625
vt 0.046875 0.515625
vt 0.03125 0.46875
vt 0.03125 0.5
vt 0.046875 0.453125
vt 0.0625 0.453125
vt 0.6875 0.4375
vt 0.765625 0.4375
vt 0.765625 0.5625
vt 0.6875 0.5625
vt 0.203125 0.5
vt 0.203125 0.515625
vt 0.1875 0.515625
vt 0.203125 0.46875
vt 0.21875 0.46875
vt 0.21875 0.5
vt 0.203125 0.453125
vt 0.1875 0.453125
vt 0.96875 0.4375
vt 0.96875 0.5625
vt 0.890625 0.5625
vt 0.890625 0.4375
vt 0.890625 0.234375
vt 0.890625 0.359375
vt 0.765625 0.359375
vt 0.765625 0.234375
vt 0.1875 0.5625
vt 0.1875 0.59375
vt 0.0625 0.59375
vt 0.0625 0.5625
vt 0.1875 0.53125
vt 0.1875 0.546875
vt 0.0625 0.546875
vt 0.0625 0.53125
vt 0.1875 0.609375
vt 0.1875 0.625
vt 0.0625 0.625
vt 0.0625 0.609375
vt 0.890625 0.5625
vt 0.765625 0.5625
vt 0.765625 0.4375
vt 0.890625 0.4375
vt 0.1875 0.515625
vt 0.0625 0.515625
vt 0.0625 0.453125
vt 0.1875 0.453125
vn -1 0 2.663161E-07
vn -1 0 2.663161E-07
vn -1 0 2.663161E-07
vn -1 0 2.663161E-07
vn -1 0 2.663161E-07
vn -1 0 2.663161E-07
vn -1 0 2.663161E-07
vn -1 0 2.663161E-07
vn -1 0 2.663161E-07
vn -1 0 2.663161E-07
vn -1 0 2.663161E-07
vn -1 0 2.663161E-07
vn 1 0 -2.663161E-07
vn 1 0 -2.663161E-07
vn 1 0 -2.663161E-07
vn 1 0 -2.663161E-07
vn 1 0 -2.663161E-07
vn 1 0 -2.663161E-07
vn 1 0 -2.663161E-07
vn 1 0 -2.663161E-07
vn 1 0 -2.663161E-07
vn 1 0 -2.663161E-07
vn 1 0 -2.663161E-07
vn 1 0 -2.663161E-07
vn -2.663161E-07 0 -1
vn -2.663161E-07 0 -1
vn -2.663161E-07 0 -1
vn -2.663161E-07 0 -1
vn -2.663161E-07 0 -1
vn -2.663161E-07 0 -1
vn -2.663161E-07 0 -1
vn -2.663161E-07 0 -1
vn -2.663161E-07 0 -1
vn -2.663161E-07 0 -1
vn -2.663161E-07 0 -1
vn -2.663161E-07 0 -1
vn 2.663161E-07 0 1
vn 2.663161E-07 0 1
vn 2.663161E-07 0 1
vn 2.663161E-07 0 1
vn 2.66316E-07 2.477147E-06 1
vn 2.66316E-07 2.477147E-06 1
vn 2.663161E-07 0 1
vn 2.663161E-07 0 1
vn 2.663161E-07 5.945159E-07 1
vn 2.663161E-07 5.945159E-07 1
vn 2.663161E-07 5.945159E-07 1
vn 2.663161E-07 5.945159E-07 1
vn 0 -1 -1.238575E-07
vn 0 -1 -1.238575E-07
vn 0 -1 -1.238575E-07
vn 0 -1 -1.238575E-07
vn 0 -1 -2.201911E-07
vn 0 -1 -2.201911E-07
vn 0 -1 -2.201911E-07
vn 0 -1 -2.201911E-07
vn 0 -1 0
vn 0 -1 0
vn 0 -1 0
vn 0 -1 0
vn 0 -1 0
vn 0 -1 0
vn 0 -1 0
vn 0 -1 0
vn 0 1 1.238576E-07
vn 0 1 1.238576E-07
vn 0 1 1.238576E-07
vn 0 1 1.238576E-07
vn 0 1 3.302867E-07
vn 0 1 3.302867E-07
vn 0 1 3.302867E-07
vn 0 1 3.302867E-07
g Armor_Army_1_right_0
f 3/3/3 2/2/2 1/1/1
f 4/4/4 3/3/3 1/1/1
f 7/7/7 6/6/6 5/5/5
f 8/8/8 7/7/7 5/5/5
f 11/11/11 10/10/10 9/9/9
f 12/12/12 11/11/11 9/9/9
f 15/15/15 14/14/14 13/13/13
f 16/16/16 15/15/15 13/13/13
f 19/19/19 18/18/18 17/17/17
f 20/20/20 19/19/19 17/17/17
f 23/23/23 22/22/22 21/21/21
f 24/24/24 23/23/23 21/21/21
f 27/27/27 26/26/26 25/25/25
f 28/28/28 27/27/27 25/25/25
f 25/25/25 26/26/26 29/29/29
f 30/30/30 25/25/25 29/29/29
f 26/26/26 27/27/27 31/31/31
f 27/27/27 32/32/32 31/31/31
f 35/35/35 34/34/34 33/33/33
f 36/36/36 35/35/35 33/33/33
f 39/39/39 38/38/38 37/37/37
f 40/40/40 39/39/39 37/37/37
f 40/40/40 37/37/37 41/41/41
f 37/37/37 42/42/42 41/41/41
f 39/39/39 40/40/40 43/43/43
f 44/44/44 39/39/39 43/43/43
f 47/47/47 46/46/46 45/45/45
f 48/48/48 47/47/47 45/45/45
f 51/51/51 50/50/50 49/49/49
f 52/52/52 51/51/51 49/49/49
f 55/55/55 54/54/54 53/53/53
f 56/56/56 55/55/55 53/53/53
f 59/59/59 58/58/58 57/57/57
f 60/60/60 59/59/59 57/57/57
f 63/63/63 62/62/62 61/61/61
f 64/64/64 63/63/63 61/61/61
f 67/67/67 66/66/66 65/65/65
f 68/68/68 67/67/67 65/65/65
f 71/71/71 70/70/70 69/69/69
f 72/72/72 71/71/71 69/69/69
