# Mesh "Armor_Royal_3_right" exported with Unity Assets Bundle Extractor; 212 vertices, 384 indices, 256 bits per vertex
g Armor_Royal_3_right
# SubMesh 0
# Vertices
v -0.159339 0.196125 0.168720
vt 0.593750 0.125000
vn -0.000000 0.000000 1.000000
v -0.096507 0.196125 0.168720
vt 0.625000 0.125000
vn -0.000000 0.000000 1.000000
v -0.159339 0.162125 0.168720
vt 0.593750 0.109375
vn -0.000000 0.000000 1.000000
v -0.159339 0.060125 0.168720
vt 0.593750 0.062500
vn -0.000000 0.000000 1.000000
v -0.190755 0.060125 0.168720
vt 0.578125 0.062500
vn -0.000000 0.000000 1.000000
v -0.190755 0.162125 0.168720
vt 0.578125 0.109375
vn -0.000000 0.000000 1.000000
v -0.159339 0.026125 0.168720
vt 0.593750 0.046875
vn -0.000000 0.000000 1.000000
v -0.096507 0.162125 0.168720
vt 0.625000 0.109375
vn -0.000000 0.000000 1.000000
v -0.096507 0.060125 0.168720
vt 0.625000 0.062500
vn -0.000000 0.000000 1.000000
v -0.096507 0.026125 0.168720
vt 0.625000 0.046875
vn -0.000000 0.000000 1.000000
v -0.065091 0.162125 0.168720
vt 0.640625 0.109375
vn -0.000000 0.000000 1.000000
v -0.065091 0.060125 0.168720
vt 0.640625 0.062500
vn -0.000000 0.000000 1.000000
v -0.065091 0.162125 0.151720
vt 0.250000 0.437500
vn -0.000000 0.000000 1.000000
v 0.029157 0.162125 0.151720
vt 0.203125 0.437500
vn -0.000000 0.000000 1.000000
v -0.065091 0.060125 0.151720
vt 0.250000 0.390625
vn -0.000000 0.000000 1.000000
v -0.065091 -0.177875 0.151720
vt 0.250000 0.281250
vn -0.000000 0.000000 1.000000
v 0.029157 -0.177875 0.151720
vt 0.203125 0.281250
vn -0.000000 0.000000 1.000000
v -0.096507 0.060125 0.151720
vt 0.265625 0.390625
vn -0.000000 0.000000 1.000000
v -0.096507 0.026125 0.151720
vt 0.265625 0.375000
vn -0.000000 0.000000 1.000000
v -0.190755 -0.177875 0.151720
vt 0.312500 0.281250
vn -0.000000 0.000000 1.000000
v -0.190755 -0.211875 0.151720
vt 0.312500 0.265625
vn -0.000000 0.000000 1.000000
v -0.065091 -0.211875 0.151720
vt 0.250000 0.265625
vn -0.000000 0.000000 1.000000
v -0.159339 0.060125 0.151720
vt 0.296875 0.390625
vn -0.000000 0.000000 1.000000
v -0.190755 0.060125 0.151720
vt 0.312500 0.390625
vn -0.000000 0.000000 1.000000
v -0.285003 -0.177875 0.151720
vt 0.359375 0.281250
vn -0.000000 0.000000 1.000000
v -0.190755 0.162125 0.151720
vt 0.312500 0.437500
vn -0.000000 0.000000 1.000000
v -0.285003 0.162125 0.151720
vt 0.359375 0.437500
vn -0.000000 0.000000 1.000000
v -0.159339 0.162125 -0.171280
vt 0.593750 0.109375
vn -0.000000 0.000000 -1.000000
v -0.096507 0.196125 -0.171280
vt 0.625000 0.125000
vn -0.000000 0.000000 -1.000000
v -0.159339 0.196125 -0.171280
vt 0.593750 0.125000
vn -0.000000 0.000000 -1.000000
v -0.159339 0.060125 -0.171280
vt 0.593750 0.062500
vn -0.000000 0.000000 -1.000000
v -0.159339 0.026125 -0.171280
vt 0.593750 0.046875
vn -0.000000 0.000000 -1.000000
v -0.096507 0.162125 -0.171280
vt 0.625000 0.109375
vn -0.000000 0.000000 -1.000000
v -0.096507 0.060125 -0.171280
vt 0.625000 0.062500
vn -0.000000 0.000000 -1.000000
v -0.065091 0.162125 -0.171280
vt 0.640625 0.109375
vn -0.000000 0.000000 -1.000000
v -0.065091 0.060125 -0.171280
vt 0.640625 0.062500
vn -0.000000 0.000000 -1.000000
v -0.096507 0.026125 -0.171280
vt 0.625000 0.046875
vn -0.000000 0.000000 -1.000000
v -0.190755 0.060125 -0.171280
vt 0.578125 0.062500
vn -0.000000 0.000000 -1.000000
v -0.190755 0.162125 -0.171280
vt 0.578125 0.109375
vn -0.000000 0.000000 -1.000000
v -0.065091 -0.211875 -0.154280
vt 0.312500 0.265625
vn -0.000000 0.000000 -1.000000
v -0.190755 -0.177875 -0.154280
vt 0.250000 0.281250
vn -0.000000 0.000000 -1.000000
v -0.190755 -0.211875 -0.154280
vt 0.250000 0.265625
vn -0.000000 0.000000 -1.000000
v -0.065091 -0.177875 -0.154280
vt 0.312500 0.281250
vn -0.000000 0.000000 -1.000000
v -0.065091 0.060125 -0.154280
vt 0.312500 0.390625
vn -0.000000 0.000000 -1.000000
v -0.096507 0.026125 -0.154280
vt 0.296875 0.375000
vn -0.000000 0.000000 -1.000000
v -0.159339 0.060125 -0.154280
vt 0.265625 0.390625
vn -0.000000 0.000000 -1.000000
v -0.190755 0.060125 -0.154280
vt 0.250000 0.390625
vn -0.000000 0.000000 -1.000000
v -0.285003 -0.177875 -0.154280
vt 0.203125 0.281250
vn -0.000000 0.000000 -1.000000
v -0.285003 0.162125 -0.154280
vt 0.203125 0.437500
vn -0.000000 0.000000 -1.000000
v -0.190755 0.162125 -0.154280
vt 0.250000 0.437500
vn -0.000000 0.000000 -1.000000
v -0.096507 0.060125 -0.154280
vt 0.296875 0.390625
vn -0.000000 0.000000 -1.000000
v 0.029157 -0.177875 -0.154280
vt 0.359375 0.281250
vn -0.000000 0.000000 -1.000000
v 0.029157 0.162125 -0.154280
vt 0.359375 0.437500
vn -0.000000 0.000000 -1.000000
v -0.065091 0.162125 -0.154280
vt 0.312500 0.437500
vn -0.000000 0.000000 -1.000000
v -0.190755 -0.211875 -0.154280
vt 0.796875 0.625000
vn -0.000000 -1.000000 0.000000
v -0.190755 -0.211875 0.151720
vt 0.796875 0.781250
vn -0.000000 -1.000000 0.000000
v -0.065091 -0.211875 0.151720
vt 0.734375 0.781250
vn -0.000000 -1.000000 0.000000
v -0.065091 -0.211875 -0.154280
vt 0.734375 0.625000
vn -0.000000 -1.000000 0.000000
v -0.096507 0.196125 0.168720
vt 0.453125 0.335938
vn 1.000000 0.000000 0.000000
v -0.096507 0.196125 -0.171280
vt 0.453125 0.507813
vn 1.000000 0.000000 0.000000
v -0.096507 0.162125 -0.171280
vt 0.437500 0.507813
vn 1.000000 0.000000 0.000000
v -0.096507 0.162125 0.168720
vt 0.437500 0.335938
vn 1.000000 0.000000 0.000000
v -0.096507 0.060125 0.168720
vt 0.289063 0.164063
vn 1.000000 0.000000 0.000000
v -0.096507 0.060125 0.151720
vt 0.281250 0.164063
vn 1.000000 0.000000 0.000000
v -0.096507 0.026125 0.151720
vt 0.281250 0.148438
vn 1.000000 0.000000 0.000000
v -0.096507 0.026125 0.168720
vt 0.289063 0.148438
vn 1.000000 0.000000 0.000000
v -0.065091 0.162125 0.168720
vt 0.289063 0.226563
vn 1.000000 0.000000 0.000000
v -0.065091 0.162125 0.151720
vt 0.281250 0.226563
vn 1.000000 0.000000 0.000000
v -0.065091 0.060125 0.151720
vt 0.281250 0.179688
vn 1.000000 0.000000 0.000000
v -0.065091 0.060125 0.168720
vt 0.289063 0.179688
vn 1.000000 0.000000 0.000000
v -0.065091 -0.177875 0.151720
vt 0.734375 0.781250
vn 1.000000 0.000000 0.000000
v -0.065091 -0.177875 -0.154280
vt 0.734375 0.625000
vn 1.000000 0.000000 0.000000
v -0.065091 -0.211875 -0.154280
vt 0.750000 0.625000
vn 1.000000 0.000000 0.000000
v -0.065091 -0.211875 0.151720
vt 0.750000 0.781250
vn 1.000000 0.000000 0.000000
v -0.065091 -0.177875 0.151720
vt 0.734375 0.781250
vn -0.000000 -1.000000 0.000000
v 0.029157 -0.177875 0.151720
vt 0.687500 0.781250
vn -0.000000 -1.000000 0.000000
v 0.029157 -0.177875 -0.154280
vt 0.687500 0.625000
vn -0.000000 -1.000000 0.000000
v -0.065091 -0.177875 -0.154280
vt 0.734375 0.625000
vn -0.000000 -1.000000 0.000000
v -0.285003 -0.177875 -0.154280
vt 0.843750 0.625000
vn -0.000000 -1.000000 0.000000
v -0.285003 -0.177875 0.151720
vt 0.843750 0.781250
vn -0.000000 -1.000000 0.000000
v -0.190755 -0.177875 0.151720
vt 0.796875 0.781250
vn -0.000000 -1.000000 0.000000
v -0.190755 -0.177875 -0.154280
vt 0.796875 0.625000
vn -0.000000 -1.000000 0.000000
v 0.029157 0.162125 0.151720
vt 0.828125 0.593750
vn 1.000000 0.000000 0.000000
v 0.029157 0.162125 -0.154280
vt 0.671875 0.593750
vn 1.000000 0.000000 0.000000
v 0.029157 -0.177875 -0.154280
vt 0.671875 0.437500
vn 1.000000 0.000000 0.000000
v 0.029157 -0.177875 0.151720
vt 0.828125 0.437500
vn 1.000000 0.000000 0.000000
v -0.159339 0.026125 0.151720
vt 0.312500 0.148438
vn -0.000000 -1.000000 0.000000
v -0.159339 0.026125 0.168720
vt 0.312500 0.156250
vn -0.000000 -1.000000 0.000000
v -0.096507 0.026125 0.168720
vt 0.281250 0.156250
vn -0.000000 -1.000000 0.000000
v -0.096507 0.026125 0.151720
vt 0.281250 0.148438
vn -0.000000 -1.000000 0.000000
v -0.159339 0.060125 0.151720
vt 0.296875 0.390625
vn -0.000000 0.000000 -1.000000
v -0.159339 0.026125 0.151720
vt 0.296875 0.375000
vn -0.000000 0.000000 -1.000000
v -0.096507 0.026125 0.151720
vt 0.265625 0.375000
vn -0.000000 0.000000 -1.000000
v -0.096507 0.060125 0.151720
vt 0.296875 0.179688
vn -0.000000 -1.000000 0.000000
v -0.096507 0.060125 0.168720
vt 0.296875 0.187500
vn -0.000000 -1.000000 0.000000
v -0.065091 0.060125 0.168720
vt 0.281250 0.187500
vn -0.000000 -1.000000 0.000000
v -0.065091 0.060125 0.151720
vt 0.281250 0.179688
vn -0.000000 -1.000000 0.000000
v -0.190755 0.060125 0.151720
vt 0.296875 0.148438
vn -0.000000 -1.000000 0.000000
v -0.190755 0.060125 0.168720
vt 0.296875 0.156250
vn -0.000000 -1.000000 0.000000
v -0.159339 0.060125 0.168720
vt 0.281250 0.156250
vn -0.000000 -1.000000 0.000000
v -0.159339 0.060125 0.151720
vt 0.281250 0.148438
vn -0.000000 -1.000000 0.000000
v -0.096507 0.196125 -0.171280
vt 0.468750 0.335938
vn -0.000000 1.000000 0.000000
v -0.096507 0.196125 0.168720
vt 0.468750 0.507813
vn -0.000000 1.000000 0.000000
v -0.159339 0.196125 0.168720
vt 0.437500 0.507813
vn -0.000000 1.000000 0.000000
v -0.159339 0.196125 -0.171280
vt 0.437500 0.335938
vn -0.000000 1.000000 0.000000
v -0.285003 -0.177875 0.151720
vt 0.671875 0.437500
vn -1.000000 0.000000 0.000000
v -0.285003 -0.177875 -0.154280
vt 0.828125 0.437500
vn -1.000000 0.000000 0.000000
v -0.285003 0.162125 -0.154280
vt 0.828125 0.593750
vn -1.000000 0.000000 0.000000
v -0.285003 0.162125 0.151720
vt 0.671875 0.593750
vn -1.000000 0.000000 0.000000
v -0.190755 0.060125 0.168720
vt 0.312500 0.156250
vn -1.000000 0.000000 0.000000
v -0.190755 0.060125 0.151720
vt 0.320313 0.156250
vn -1.000000 0.000000 0.000000
v -0.190755 0.162125 0.151720
vt 0.320313 0.203125
vn -1.000000 0.000000 0.000000
v -0.190755 0.162125 0.168720
vt 0.312500 0.203125
vn -1.000000 0.000000 0.000000
v -0.190755 -0.211875 0.151720
vt 0.750000 0.625000
vn -1.000000 0.000000 0.000000
v -0.190755 -0.211875 -0.154280
vt 0.750000 0.781250
vn -1.000000 0.000000 0.000000
v -0.190755 -0.177875 -0.154280
vt 0.734375 0.781250
vn -1.000000 0.000000 0.000000
v -0.190755 -0.177875 0.151720
vt 0.734375 0.625000
vn -1.000000 0.000000 0.000000
v -0.159339 0.162125 0.168720
vt 0.453125 0.507813
vn -1.000000 0.000000 0.000000
v -0.159339 0.162125 -0.171280
vt 0.453125 0.335938
vn -1.000000 0.000000 0.000000
v -0.159339 0.196125 -0.171280
vt 0.468750 0.335938
vn -1.000000 0.000000 0.000000
v -0.159339 0.196125 0.168720
vt 0.468750 0.507813
vn -1.000000 0.000000 0.000000
v -0.159339 0.026125 0.168720
vt 0.281250 0.148438
vn -1.000000 0.000000 0.000000
v -0.159339 0.026125 0.151720
vt 0.289063 0.148438
vn -1.000000 0.000000 0.000000
v -0.159339 0.060125 0.151720
vt 0.289063 0.164063
vn -1.000000 0.000000 0.000000
v -0.159339 0.060125 0.168720
vt 0.281250 0.164063
vn -1.000000 0.000000 0.000000
v -0.159339 -0.177875 0.151720
vt 0.328125 0.148438
vn -0.000000 -1.000000 0.000000
v -0.159339 -0.177875 0.168720
vt 0.328125 0.156250
vn -0.000000 -1.000000 0.000000
v -0.096507 -0.177875 0.168720
vt 0.296875 0.156250
vn -0.000000 -1.000000 0.000000
v -0.096507 -0.177875 0.151720
vt 0.296875 0.148438
vn -0.000000 -1.000000 0.000000
v -0.096507 -0.075875 0.168720
vt 0.296875 0.203125
vn 1.000000 0.000000 0.000000
v -0.096507 -0.075875 0.151720
vt 0.289063 0.203125
vn 1.000000 0.000000 0.000000
v -0.096507 -0.177875 0.151720
vt 0.289063 0.156250
vn 1.000000 0.000000 0.000000
v -0.096507 -0.177875 0.168720
vt 0.296875 0.156250
vn 1.000000 0.000000 0.000000
v -0.096507 -0.075875 0.151720
vt 0.296875 0.195313
vn -0.000000 1.000000 0.000000
v -0.096507 -0.075875 0.168720
vt 0.296875 0.203125
vn -0.000000 1.000000 0.000000
v -0.159339 -0.075875 0.168720
vt 0.328125 0.203125
vn -0.000000 1.000000 0.000000
v -0.159339 -0.075875 0.151720
vt 0.328125 0.195313
vn -0.000000 1.000000 0.000000
v -0.159339 -0.177875 0.168720
vt 0.328125 0.156250
vn -0.000000 0.000000 1.000000
v -0.159339 -0.075875 0.168720
vt 0.328125 0.203125
vn -0.000000 0.000000 1.000000
v -0.096507 -0.075875 0.168720
vt 0.296875 0.203125
vn -0.000000 0.000000 1.000000
v -0.096507 -0.177875 0.168720
vt 0.296875 0.156250
vn -0.000000 0.000000 1.000000
v -0.159339 -0.075875 0.168720
vt 0.328125 0.203125
vn -1.000000 0.000000 0.000000
v -0.159339 -0.177875 0.168720
vt 0.328125 0.156250
vn -1.000000 0.000000 0.000000
v -0.159339 -0.177875 0.151720
vt 0.335938 0.156250
vn -1.000000 0.000000 0.000000
v -0.159339 -0.075875 0.151720
vt 0.335938 0.203125
vn -1.000000 0.000000 0.000000
v -0.159339 -0.177875 -0.154280
vt 0.328125 0.148438
vn -0.000000 -1.000000 0.000000
v -0.096507 -0.177875 -0.154280
vt 0.296875 0.148438
vn -0.000000 -1.000000 0.000000
v -0.096507 -0.177875 -0.171280
vt 0.296875 0.156250
vn -0.000000 -1.000000 0.000000
v -0.159339 -0.177875 -0.171280
vt 0.328125 0.156250
vn -0.000000 -1.000000 0.000000
v -0.096507 -0.075875 -0.171280
vt 0.296875 0.203125
vn 1.000000 0.000000 0.000000
v -0.096507 -0.177875 -0.171280
vt 0.296875 0.156250
vn 1.000000 0.000000 0.000000
v -0.096507 -0.177875 -0.154280
vt 0.289063 0.156250
vn 1.000000 0.000000 0.000000
v -0.096507 -0.075875 -0.154280
vt 0.289063 0.203125
vn 1.000000 0.000000 0.000000
v -0.096507 -0.075875 -0.154280
vt 0.296875 0.195313
vn -0.000000 1.000000 0.000000
v -0.159339 -0.075875 -0.154280
vt 0.328125 0.195313
vn -0.000000 1.000000 0.000000
v -0.159339 -0.075875 -0.171280
vt 0.328125 0.203125
vn -0.000000 1.000000 0.000000
v -0.096507 -0.075875 -0.171280
vt 0.296875 0.203125
vn -0.000000 1.000000 0.000000
v -0.159339 -0.177875 -0.171280
vt 0.328125 0.156250
vn -0.000000 0.000000 -1.000000
v -0.096507 -0.177875 -0.171280
vt 0.296875 0.156250
vn -0.000000 0.000000 -1.000000
v -0.096507 -0.075875 -0.171280
vt 0.296875 0.203125
vn -0.000000 0.000000 -1.000000
v -0.159339 -0.075875 -0.171280
vt 0.328125 0.203125
vn -0.000000 0.000000 -1.000000
v -0.159339 -0.075875 -0.171280
vt 0.328125 0.203125
vn -1.000000 0.000000 0.000000
v -0.159339 -0.075875 -0.154280
vt 0.335938 0.203125
vn -1.000000 0.000000 0.000000
v -0.159339 -0.177875 -0.154280
vt 0.335938 0.156250
vn -1.000000 0.000000 0.000000
v -0.159339 -0.177875 -0.171280
vt 0.328125 0.156250
vn -1.000000 0.000000 0.000000
v -0.096507 0.026125 -0.154280
vt 0.296875 0.375000
vn -0.000000 0.000000 1.000000
v -0.159339 0.026125 -0.154280
vt 0.265625 0.375000
vn -0.000000 0.000000 1.000000
v -0.159339 0.060125 -0.154280
vt 0.265625 0.390625
vn -0.000000 0.000000 1.000000
v -0.096507 0.162125 0.168720
vt 0.468750 0.507813
vn -0.000000 1.000000 0.000000
v -0.065091 0.162125 -0.154280
vt 0.484375 0.343750
vn -0.000000 1.000000 0.000000
v -0.065091 0.162125 0.151720
vt 0.484375 0.500000
vn -0.000000 1.000000 0.000000
v -0.065091 0.162125 0.168720
vt 0.484375 0.507813
vn -0.000000 1.000000 0.000000
v 0.029157 0.162125 -0.154280
vt 0.531250 0.343750
vn -0.000000 1.000000 0.000000
v 0.029157 0.162125 0.151720
vt 0.531250 0.500000
vn -0.000000 1.000000 0.000000
v -0.065091 0.162125 -0.171280
vt 0.484375 0.335938
vn -0.000000 1.000000 0.000000
v -0.096507 0.162125 -0.171280
vt 0.468750 0.335938
vn -0.000000 1.000000 0.000000
v -0.159339 0.162125 0.168720
vt 0.437500 0.507813
vn -0.000000 1.000000 0.000000
v -0.190755 0.162125 0.168720
vt 0.421875 0.507813
vn -0.000000 1.000000 0.000000
v -0.190755 0.162125 0.151720
vt 0.421875 0.500000
vn -0.000000 1.000000 0.000000
v -0.190755 0.162125 -0.154280
vt 0.421875 0.343750
vn -0.000000 1.000000 0.000000
v -0.285003 0.162125 0.151720
vt 0.375000 0.500000
vn -0.000000 1.000000 0.000000
v -0.285003 0.162125 -0.154280
vt 0.375000 0.343750
vn -0.000000 1.000000 0.000000
v -0.159339 0.162125 -0.171280
vt 0.437500 0.335938
vn -0.000000 1.000000 0.000000
v -0.190755 0.162125 -0.171280
vt 0.421875 0.335938
vn -0.000000 1.000000 0.000000
v -0.096507 0.060125 -0.154280
vt 0.289063 0.164063
vn 1.000000 0.000000 0.000000
v -0.096507 0.060125 -0.171280
vt 0.281250 0.164063
vn 1.000000 0.000000 0.000000
v -0.096507 0.026125 -0.171280
vt 0.281250 0.148438
vn 1.000000 0.000000 0.000000
v -0.096507 0.026125 -0.154280
vt 0.289063 0.148438
vn 1.000000 0.000000 0.000000
v -0.065091 0.162125 -0.154280
vt 0.289063 0.226563
vn 1.000000 0.000000 0.000000
v -0.065091 0.162125 -0.171280
vt 0.281250 0.226563
vn 1.000000 0.000000 0.000000
v -0.065091 0.060125 -0.171280
vt 0.281250 0.179688
vn 1.000000 0.000000 0.000000
v -0.065091 0.060125 -0.154280
vt 0.289063 0.179688
vn 1.000000 0.000000 0.000000
v -0.159339 0.026125 -0.171280
vt 0.312500 0.148438
vn -0.000000 -1.000000 0.000000
v -0.159339 0.026125 -0.154280
vt 0.312500 0.156250
vn -0.000000 -1.000000 0.000000
v -0.096507 0.026125 -0.154280
vt 0.281250 0.156250
vn -0.000000 -1.000000 0.000000
v -0.096507 0.026125 -0.171280
vt 0.281250 0.148438
vn -0.000000 -1.000000 0.000000
v -0.096507 0.060125 -0.171280
vt 0.296875 0.179688
vn -0.000000 -1.000000 0.000000
v -0.096507 0.060125 -0.154280
vt 0.296875 0.187500
vn -0.000000 -1.000000 0.000000
v -0.065091 0.060125 -0.154280
vt 0.281250 0.187500
vn -0.000000 -1.000000 0.000000
v -0.065091 0.060125 -0.171280
vt 0.281250 0.179688
vn -0.000000 -1.000000 0.000000
v -0.190755 0.060125 -0.171280
vt 0.296875 0.148438
vn -0.000000 -1.000000 0.000000
v -0.190755 0.060125 -0.154280
vt 0.296875 0.156250
vn -0.000000 -1.000000 0.000000
v -0.159339 0.060125 -0.154280
vt 0.281250 0.156250
vn -0.000000 -1.000000 0.000000
v -0.159339 0.060125 -0.171280
vt 0.281250 0.148438
vn -0.000000 -1.000000 0.000000
v -0.190755 0.060125 -0.154280
vt 0.312500 0.156250
vn -1.000000 0.000000 0.000000
v -0.190755 0.060125 -0.171280
vt 0.320313 0.156250
vn -1.000000 0.000000 0.000000
v -0.190755 0.162125 -0.171280
vt 0.320313 0.203125
vn -1.000000 0.000000 0.000000
v -0.190755 0.162125 -0.154280
vt 0.312500 0.203125
vn -1.000000 0.000000 0.000000
v -0.159339 0.026125 -0.154280
vt 0.281250 0.148438
vn -1.000000 0.000000 0.000000
v -0.159339 0.026125 -0.171280
vt 0.289063 0.148438
vn -1.000000 0.000000 0.000000
v -0.159339 0.060125 -0.171280
vt 0.289063 0.164063
vn -1.000000 0.000000 0.000000
v -0.159339 0.060125 -0.154280
vt 0.281250 0.164063
vn -1.000000 0.000000 0.000000
# Faces (1 to 212)
g Armor_Royal_3_right_0
f -210/-210/-210 -211/-211/-211 -212/-212/-212
f -210/-210/-210 -209/-209/-209 -211/-211/-211
f -209/-209/-209 -210/-210/-210 -208/-208/-208
f -210/-210/-210 -207/-207/-207 -208/-208/-208
f -209/-209/-209 -206/-206/-206 -211/-211/-211
f -205/-205/-205 -211/-211/-211 -206/-206/-206
f -206/-206/-206 -204/-204/-204 -205/-205/-205
f -206/-206/-206 -203/-203/-203 -204/-204/-204
f -202/-202/-202 -205/-205/-205 -204/-204/-204
f -201/-201/-201 -202/-202/-202 -204/-204/-204
f -198/-198/-198 -199/-199/-199 -200/-200/-200
f -198/-198/-198 -197/-197/-197 -199/-199/-199
f -197/-197/-197 -196/-196/-196 -199/-199/-199
f -197/-197/-197 -198/-198/-198 -195/-195/-195
f -195/-195/-195 -194/-194/-194 -197/-197/-197
f -194/-194/-194 -193/-193/-193 -197/-197/-197
f -197/-197/-197 -193/-193/-193 -192/-192/-192
f -191/-191/-191 -197/-197/-197 -192/-192/-192
f -194/-194/-194 -190/-190/-190 -193/-193/-193
f -190/-190/-190 -189/-189/-189 -193/-193/-193
f -189/-189/-189 -188/-188/-188 -193/-193/-193
f -189/-189/-189 -187/-187/-187 -188/-188/-188
f -187/-187/-187 -186/-186/-186 -188/-188/-188
f -183/-183/-183 -184/-184/-184 -185/-185/-185
f -182/-182/-182 -185/-185/-185 -184/-184/-184
f -181/-181/-181 -182/-182/-182 -184/-184/-184
f -181/-181/-181 -184/-184/-184 -180/-180/-180
f -181/-181/-181 -180/-180/-180 -179/-179/-179
f -180/-180/-180 -178/-178/-178 -179/-179/-179
f -178/-178/-178 -177/-177/-177 -179/-179/-179
f -179/-179/-179 -176/-176/-176 -181/-181/-181
f -185/-185/-185 -182/-182/-182 -175/-175/-175
f -174/-174/-174 -185/-185/-185 -175/-175/-175
f -171/-171/-171 -172/-172/-172 -173/-173/-173
f -170/-170/-170 -173/-173/-173 -172/-172/-172
f -172/-172/-172 -169/-169/-169 -170/-170/-170
f -172/-172/-172 -168/-168/-168 -169/-169/-169
f -172/-172/-172 -167/-167/-167 -168/-168/-168
f -166/-166/-166 -167/-167/-167 -172/-172/-172
f -165/-165/-165 -166/-166/-166 -172/-172/-172
f -166/-166/-166 -165/-165/-165 -164/-164/-164
f -163/-163/-163 -166/-166/-166 -164/-164/-164
f -169/-169/-169 -168/-168/-168 -162/-162/-162
f -170/-170/-170 -169/-169/-169 -161/-161/-161
f -169/-169/-169 -160/-160/-160 -161/-161/-161
f -159/-159/-159 -160/-160/-160 -169/-169/-169
f -156/-156/-156 -157/-157/-157 -158/-158/-158
f -155/-155/-155 -156/-156/-156 -158/-158/-158
f -152/-152/-152 -153/-153/-153 -154/-154/-154
f -151/-151/-151 -152/-152/-152 -154/-154/-154
f -148/-148/-148 -149/-149/-149 -150/-150/-150
f -147/-147/-147 -148/-148/-148 -150/-150/-150
f -144/-144/-144 -145/-145/-145 -146/-146/-146
f -143/-143/-143 -144/-144/-144 -146/-146/-146
f -140/-140/-140 -141/-141/-141 -142/-142/-142
f -139/-139/-139 -140/-140/-140 -142/-142/-142
f -136/-136/-136 -137/-137/-137 -138/-138/-138
f -135/-135/-135 -136/-136/-136 -138/-138/-138
f -132/-132/-132 -133/-133/-133 -134/-134/-134
f -131/-131/-131 -132/-132/-132 -134/-134/-134
f -128/-128/-128 -129/-129/-129 -130/-130/-130
f -127/-127/-127 -128/-128/-128 -130/-130/-130
f -124/-124/-124 -125/-125/-125 -126/-126/-126
f -123/-123/-123 -124/-124/-124 -126/-126/-126
f -120/-120/-120 -121/-121/-121 -122/-122/-122
f -117/-117/-117 -118/-118/-118 -119/-119/-119
f -116/-116/-116 -117/-117/-117 -119/-119/-119
f -113/-113/-113 -114/-114/-114 -115/-115/-115
f -112/-112/-112 -113/-113/-113 -115/-115/-115
f -109/-109/-109 -110/-110/-110 -111/-111/-111
f -108/-108/-108 -109/-109/-109 -111/-111/-111
f -105/-105/-105 -106/-106/-106 -107/-107/-107
f -104/-104/-104 -105/-105/-105 -107/-107/-107
f -101/-101/-101 -102/-102/-102 -103/-103/-103
f -100/-100/-100 -101/-101/-101 -103/-103/-103
f -97/-97/-97 -98/-98/-98 -99/-99/-99
f -96/-96/-96 -97/-97/-97 -99/-99/-99
f -93/-93/-93 -94/-94/-94 -95/-95/-95
f -92/-92/-92 -93/-93/-93 -95/-95/-95
f -89/-89/-89 -90/-90/-90 -91/-91/-91
f -88/-88/-88 -89/-89/-89 -91/-91/-91
f -85/-85/-85 -86/-86/-86 -87/-87/-87
f -84/-84/-84 -85/-85/-85 -87/-87/-87
f -81/-81/-81 -82/-82/-82 -83/-83/-83
f -80/-80/-80 -81/-81/-81 -83/-83/-83
f -77/-77/-77 -78/-78/-78 -79/-79/-79
f -76/-76/-76 -77/-77/-77 -79/-79/-79
f -73/-73/-73 -74/-74/-74 -75/-75/-75
f -72/-72/-72 -73/-73/-73 -75/-75/-75
f -69/-69/-69 -70/-70/-70 -71/-71/-71
f -68/-68/-68 -69/-69/-69 -71/-71/-71
f -65/-65/-65 -66/-66/-66 -67/-67/-67
f -64/-64/-64 -65/-65/-65 -67/-67/-67
f -61/-61/-61 -62/-62/-62 -63/-63/-63
f -60/-60/-60 -61/-61/-61 -63/-63/-63
f -57/-57/-57 -58/-58/-58 -59/-59/-59
f -56/-56/-56 -57/-57/-57 -59/-59/-59
f -53/-53/-53 -54/-54/-54 -55/-55/-55
f -52/-52/-52 -53/-53/-53 -55/-55/-55
f -49/-49/-49 -50/-50/-50 -51/-51/-51
f -48/-48/-48 -49/-49/-49 -51/-51/-51
f -45/-45/-45 -46/-46/-46 -47/-47/-47
f -42/-42/-42 -43/-43/-43 -44/-44/-44
f -41/-41/-41 -42/-42/-42 -44/-44/-44
f -43/-43/-43 -42/-42/-42 -40/-40/-40
f -42/-42/-42 -39/-39/-39 -40/-40/-40
f -43/-43/-43 -38/-38/-38 -44/-44/-44
f -38/-38/-38 -37/-37/-37 -44/-44/-44
f -34/-34/-34 -35/-35/-35 -36/-36/-36
f -33/-33/-33 -34/-34/-34 -36/-36/-36
f -32/-32/-32 -34/-34/-34 -33/-33/-33
f -31/-31/-31 -32/-32/-32 -33/-33/-33
f -33/-33/-33 -36/-36/-36 -30/-30/-30
f -29/-29/-29 -33/-33/-33 -30/-30/-30
f -26/-26/-26 -27/-27/-27 -28/-28/-28
f -25/-25/-25 -26/-26/-26 -28/-28/-28
f -22/-22/-22 -23/-23/-23 -24/-24/-24
f -21/-21/-21 -22/-22/-22 -24/-24/-24
f -18/-18/-18 -19/-19/-19 -20/-20/-20
f -17/-17/-17 -18/-18/-18 -20/-20/-20
f -14/-14/-14 -15/-15/-15 -16/-16/-16
f -13/-13/-13 -14/-14/-14 -16/-16/-16
f -10/-10/-10 -11/-11/-11 -12/-12/-12
f -9/-9/-9 -10/-10/-10 -12/-12/-12
f -6/-6/-6 -7/-7/-7 -8/-8/-8
f -5/-5/-5 -6/-6/-6 -8/-8/-8
f -2/-2/-2 -3/-3/-3 -4/-4/-4
f -1/-1/-1 -2/-2/-2 -4/-4/-4

