# Mesh "armor_metal_medium_left" exported with Unity Assets Bundle Extractor; 48 vertices, 72 indices, 32 bytes per vertex
g armor_metal_medium_left
# SubMesh 0
# Vertices
v 0.291463 -0.120212 -0.161448
vt 0.140625 -0.000000
vn -0.000000 -1.000000 0.000000
v -0.014537 -0.120212 -0.161447
vt 0.000000 0.000000
vn -0.000000 -1.000000 0.000000
v 0.291463 -0.120212 0.161553
vt 0.140625 0.171875
vn -0.000000 -1.000000 0.000000
v -0.014537 -0.120212 0.161553
vt 0.000000 0.171875
vn -0.000000 -1.000000 0.000000
v -0.014537 -0.120212 -0.161447
vt 0.000000 0.593750
vn -0.000000 0.000000 -1.000000
v 0.291463 -0.120212 -0.161448
vt 0.140625 0.593750
vn -0.000000 0.000000 -1.000000
v -0.014537 0.151788 -0.161448
vt 0.000000 0.718750
vn -0.000000 0.000000 -1.000000
v 0.291463 0.151788 -0.161448
vt 0.140625 0.718750
vn -0.000000 0.000000 -1.000000
v -0.014537 0.151788 0.161552
vt 0.312500 0.296875
vn -1.000000 0.000000 0.000000
v -0.014537 -0.120212 0.161553
vt 0.312500 0.171875
vn -1.000000 0.000000 0.000000
v -0.014537 0.151788 -0.161448
vt 0.140625 0.296875
vn -1.000000 0.000000 0.000000
v -0.014537 -0.120212 -0.161447
vt 0.140625 0.171875
vn -1.000000 0.000000 0.000000
v 0.291463 0.151788 -0.161448
vt 0.312500 0.296875
vn -0.000000 1.000000 0.000000
v 0.291463 0.151788 0.161552
vt 0.140625 0.296875
vn -0.000000 1.000000 0.000000
v -0.014537 0.151788 -0.161448
vt 0.312500 0.437500
vn -0.000000 1.000000 0.000000
v -0.014537 0.151788 0.161552
vt 0.140625 0.437500
vn -0.000000 1.000000 0.000000
v 0.291463 0.151788 0.161552
vt 0.140625 0.296875
vn 1.000000 0.000000 0.000000
v 0.291463 0.151788 -0.161448
vt 0.312500 0.296875
vn 1.000000 0.000000 0.000000
v 0.291463 -0.120212 0.161553
vt 0.140625 0.171875
vn 1.000000 0.000000 0.000000
v 0.291463 -0.120212 -0.161448
vt 0.312500 0.171875
vn 1.000000 0.000000 0.000000
v -0.014537 -0.120212 0.161553
vt 0.000000 0.593750
vn -0.000000 0.000000 1.000000
v -0.014537 0.151788 0.161552
vt 0.000000 0.718750
vn -0.000000 0.000000 1.000000
v 0.291463 -0.120212 0.161553
vt 0.140625 0.593750
vn -0.000000 0.000000 1.000000
v 0.291463 0.151788 0.161552
vt 0.140625 0.718750
vn -0.000000 0.000000 1.000000
v 0.189463 0.083788 0.178552
vt 0.531250 0.109375
vn -0.000000 -1.000000 0.000000
v 0.189463 0.083787 -0.178448
vt 0.384411 0.109375
vn -0.000000 -1.000000 0.000000
v 0.087463 0.083788 0.178552
vt 0.531250 0.156250
vn -0.000000 -1.000000 0.000000
v 0.087463 0.083787 -0.178448
vt 0.384411 0.156250
vn -0.000000 -1.000000 0.000000
v 0.189463 0.168788 0.178552
vt 0.531250 0.343750
vn -0.000000 1.000000 0.000000
v 0.087463 0.168788 0.178552
vt 0.531250 0.390625
vn -0.000000 1.000000 0.000000
v 0.189463 0.168788 -0.178448
vt 0.384411 0.343750
vn -0.000000 1.000000 0.000000
v 0.087463 0.168788 -0.178448
vt 0.384411 0.390625
vn -0.000000 1.000000 0.000000
v 0.189463 0.083788 0.178552
vt 0.078125 0.359375
vn -0.000000 0.000000 1.000000
v 0.087463 0.083788 0.178552
vt 0.031250 0.359375
vn -0.000000 0.000000 1.000000
v 0.189463 0.168788 0.178552
vt 0.078125 0.390625
vn -0.000000 0.000000 1.000000
v 0.087463 0.168788 0.178552
vt 0.031250 0.390625
vn -0.000000 0.000000 1.000000
v 0.189463 0.168788 -0.178448
vt 0.571911 0.328125
vn 1.000000 0.000000 0.000000
v 0.189463 0.083787 -0.178448
vt 0.571911 0.296875
vn 1.000000 0.000000 0.000000
v 0.189463 0.168788 0.178552
vt 0.718750 0.328125
vn 1.000000 0.000000 0.000000
v 0.189463 0.083788 0.178552
vt 0.718750 0.296875
vn 1.000000 0.000000 0.000000
v 0.087463 0.083787 -0.178448
vt 0.384411 0.203125
vn -1.000000 0.000000 0.000000
v 0.087463 0.168788 -0.178448
vt 0.384411 0.234375
vn -1.000000 0.000000 0.000000
v 0.087463 0.083788 0.178552
vt 0.531250 0.203125
vn -1.000000 0.000000 0.000000
v 0.087463 0.168788 0.178552
vt 0.531250 0.234375
vn -1.000000 0.000000 0.000000
v 0.189463 0.168788 -0.178448
vt 0.078125 0.390625
vn -0.000000 0.000000 -1.000000
v 0.087463 0.168788 -0.178448
vt 0.031250 0.390625
vn -0.000000 0.000000 -1.000000
v 0.189463 0.083787 -0.178448
vt 0.078125 0.359375
vn -0.000000 0.000000 -1.000000
v 0.087463 0.083787 -0.178448
vt 0.031250 0.359375
vn -0.000000 0.000000 -1.000000
# Faces (1 to 48)
f -46/-46/-46 -47/-47/-47 -48/-48/-48
f -47/-47/-47 -46/-46/-46 -45/-45/-45
f -42/-42/-42 -43/-43/-43 -44/-44/-44
f -43/-43/-43 -42/-42/-42 -41/-41/-41
f -38/-38/-38 -39/-39/-39 -40/-40/-40
f -39/-39/-39 -38/-38/-38 -37/-37/-37
f -34/-34/-34 -35/-35/-35 -36/-36/-36
f -35/-35/-35 -34/-34/-34 -33/-33/-33
f -30/-30/-30 -31/-31/-31 -32/-32/-32
f -31/-31/-31 -30/-30/-30 -29/-29/-29
f -26/-26/-26 -27/-27/-27 -28/-28/-28
f -27/-27/-27 -26/-26/-26 -25/-25/-25
f -22/-22/-22 -23/-23/-23 -24/-24/-24
f -23/-23/-23 -22/-22/-22 -21/-21/-21
f -18/-18/-18 -19/-19/-19 -20/-20/-20
f -19/-19/-19 -18/-18/-18 -17/-17/-17
f -14/-14/-14 -15/-15/-15 -16/-16/-16
f -15/-15/-15 -14/-14/-14 -13/-13/-13
f -10/-10/-10 -11/-11/-11 -12/-12/-12
f -11/-11/-11 -10/-10/-10 -9/-9/-9
f -6/-6/-6 -7/-7/-7 -8/-8/-8
f -7/-7/-7 -6/-6/-6 -5/-5/-5
f -2/-2/-2 -3/-3/-3 -4/-4/-4
f -3/-3/-3 -2/-2/-2 -1/-1/-1

