# Mesh "Armor_Army_3_right" exported with Unity Assets Bundle Extractor; 120 vertices, 228 indices, 32 bytes per vertex
g Armor_Army_3_right
# SubMesh 0
# Vertices
v -0.039265 0.078031 -0.139673
vt 0.062473 0.906166
vn -0.000000 0.000000 -1.000000
v -0.075003 0.078031 -0.139673
vt 0.078009 0.906166
vn -0.000000 0.000000 -1.000000
v 0.032211 -0.168318 -0.139673
vt 0.031286 0.796923
vn -0.000000 0.000000 -1.000000
v 0.032211 0.183609 -0.139673
vt 0.031286 0.953123
vn -0.000001 0.000000 -1.000000
v -0.039265 0.183609 -0.139673
vt 0.062473 0.953123
vn -0.000000 0.000000 -1.000000
v -0.075003 0.042838 -0.139673
vt 0.078009 0.890570
vn -0.000000 0.000000 -1.000000
v -0.182217 0.042838 -0.139673
vt 0.125142 0.890570
vn -0.000000 0.000000 -1.000000
v -0.289431 -0.168318 -0.139673
vt 0.171866 0.796923
vn 0.000001 0.000000 -1.000000
v -0.182217 0.078031 -0.139673
vt 0.125142 0.906166
vn -0.000000 0.000000 -1.000000
v -0.217955 0.078031 -0.139673
vt 0.140679 0.906166
vn 0.000001 0.000000 -1.000000
v -0.217955 0.183609 -0.139673
vt 0.140679 0.953123
vn 0.000001 0.000000 -1.000000
v -0.289431 0.183609 -0.139673
vt 0.171866 0.953123
vn -0.000000 0.000000 -1.000000
v -0.217954 0.078031 0.167271
vt 0.062864 0.906400
vn 0.000000 -0.000000 1.000000
v -0.217954 0.204328 0.167271
vt 0.062916 0.963160
vn 0.000000 -0.000000 1.000000
v -0.182216 0.078031 0.167271
vt 0.078245 0.906400
vn 0.000000 -0.000000 1.000000
v -0.075002 0.078031 0.167271
vt 0.124907 0.906400
vn 0.000000 -0.000000 1.000000
v -0.075002 0.042838 0.167271
vt 0.124907 0.890961
vn 0.000000 0.000000 1.000000
v -0.182216 0.042838 0.167271
vt 0.078245 0.890961
vn 0.000000 0.000000 1.000000
v -0.039265 0.204328 0.167271
vt 0.140236 0.963160
vn 0.000000 -0.000000 1.000000
v -0.039265 0.078031 0.167271
vt 0.140288 0.906400
vn 0.000000 -0.000000 1.000000
v -0.075003 0.078031 -0.160713
vt 0.078245 0.906400
vn -0.000000 0.000001 -1.000000
v -0.182217 0.042838 -0.160713
vt 0.124907 0.890961
vn -0.000000 0.000001 -1.000000
v -0.075003 0.042838 -0.160713
vt 0.078245 0.890961
vn -0.000000 0.000001 -1.000000
v -0.182217 0.078031 -0.160713
vt 0.124907 0.906400
vn -0.000000 0.000001 -1.000000
v -0.039265 0.204328 -0.160713
vt 0.062916 0.963160
vn -0.000000 0.000000 -1.000000
v -0.039265 0.078031 -0.160713
vt 0.062864 0.906400
vn -0.000000 0.000000 -1.000000
v -0.217955 0.204328 -0.160713
vt 0.140236 0.963160
vn -0.000000 0.000000 -1.000000
v -0.217955 0.078031 -0.160713
vt 0.140288 0.906400
vn -0.000000 0.000000 -1.000000
v 0.032211 -0.168318 0.146231
vt 0.171866 0.796923
vn 0.000000 -0.000000 1.000000
v -0.075003 0.078031 0.146231
vt 0.125142 0.906166
vn 0.000000 -0.000000 1.000000
v -0.039265 0.078031 0.146231
vt 0.140679 0.906166
vn 0.000000 -0.000000 1.000000
v -0.039265 0.183609 0.146231
vt 0.140679 0.953123
vn 0.000000 0.000000 1.000000
v 0.032211 0.183609 0.146231
vt 0.171866 0.953123
vn 0.000000 -0.000000 1.000000
v -0.075003 0.042838 0.146231
vt 0.125142 0.890570
vn -0.000000 -0.000000 1.000000
v -0.289430 -0.168318 0.146231
vt 0.031286 0.796923
vn -0.000000 -0.000000 1.000000
v -0.182217 0.042838 0.146231
vt 0.078009 0.890570
vn 0.000000 -0.000000 1.000000
v -0.182217 0.078031 0.146231
vt 0.078009 0.906166
vn 0.000000 -0.000000 1.000000
v -0.217954 0.078031 0.146231
vt 0.062473 0.906166
vn -0.000000 -0.000000 1.000000
v -0.289430 0.183609 0.146231
vt 0.031286 0.953123
vn -0.000000 -0.000000 1.000000
v -0.217954 0.183609 0.146231
vt 0.062473 0.953123
vn 0.000000 0.000000 1.000000
v -0.289431 0.183609 -0.139673
vt 0.702808 0.546508
vn -1.000000 0.000000 0.000000
v -0.289430 -0.168318 0.146231
vt 0.578448 0.391057
vn -1.000000 0.000000 0.000000
v -0.289431 -0.168318 -0.139673
vt 0.702808 0.391057
vn -1.000000 0.000000 0.000000
v -0.289430 0.183609 0.146231
vt 0.578447 0.546508
vn -1.000000 0.000000 0.000000
v -0.217955 0.204328 -0.160713
vt 0.718722 0.556204
vn -1.000000 0.000000 0.000000
v -0.217955 0.078031 -0.139673
vt 0.703103 0.500640
vn -1.000000 0.000000 0.000000
v -0.217955 0.078031 -0.160713
vt 0.718722 0.500640
vn -1.000000 0.000000 0.000000
v -0.217955 0.183609 -0.139673
vt 0.703103 0.547497
vn -1.000000 0.000000 0.000000
v -0.217954 0.183609 0.146231
vt 0.578153 0.547497
vn -1.000000 0.000000 0.000000
v -0.217954 0.204328 0.167271
vt 0.562534 0.556204
vn -1.000000 0.000000 0.000000
v -0.217954 0.078031 0.167271
vt 0.562534 0.500640
vn -1.000000 0.000000 0.000000
v -0.217954 0.078031 0.146231
vt 0.578153 0.500640
vn -1.000000 0.000000 0.000000
v -0.182217 0.078031 -0.160713
vt 0.718722 0.500020
vn -1.000000 0.000000 0.000000
v -0.182217 0.042838 -0.139673
vt 0.703103 0.484402
vn -1.000000 0.000000 0.000000
v -0.182217 0.042838 -0.160713
vt 0.718722 0.484402
vn -1.000000 0.000000 0.000000
v -0.182217 0.078031 -0.139673
vt 0.703103 0.500020
vn -1.000000 0.000000 0.000000
v -0.182217 0.078031 0.146231
vt 0.578153 0.500020
vn -1.000000 0.000000 0.000002
v -0.182216 0.042838 0.167271
vt 0.562534 0.484402
vn -1.000000 0.000000 0.000002
v -0.182217 0.042838 0.146231
vt 0.578153 0.484402
vn -1.000000 0.000000 0.000002
v -0.182216 0.078031 0.167271
vt 0.562534 0.500020
vn -1.000000 0.000000 0.000002
v 0.032211 0.183609 0.146231
vt 0.578448 0.546508
vn 1.000000 0.000000 -0.000000
v 0.032211 -0.168318 -0.139673
vt 0.702808 0.391057
vn 1.000000 0.000000 -0.000000
v 0.032211 -0.168318 0.146231
vt 0.578448 0.391057
vn 1.000000 0.000000 -0.000000
v 0.032211 0.183609 -0.139673
vt 0.702808 0.546508
vn 1.000000 0.000000 -0.000000
v -0.039265 0.183609 -0.139673
vt 0.703103 0.547497
vn 1.000000 0.000000 -0.000000
v -0.039265 0.078031 -0.160713
vt 0.718722 0.500640
vn 1.000000 0.000000 -0.000000
v -0.039265 0.078031 -0.139673
vt 0.703103 0.500640
vn 1.000000 0.000000 -0.000000
v -0.039265 0.204328 -0.160713
vt 0.718722 0.556204
vn 1.000000 0.000000 -0.000000
v -0.039265 0.204328 0.167271
vt 0.562534 0.556204
vn 1.000000 0.000000 -0.000000
v -0.039265 0.183609 0.146231
vt 0.578153 0.547497
vn 1.000000 0.000000 -0.000000
v -0.039265 0.078031 0.146231
vt 0.578153 0.500640
vn 1.000000 0.000000 -0.000000
v -0.039265 0.078031 0.167271
vt 0.562534 0.500640
vn 1.000000 0.000000 -0.000000
v -0.075003 0.078031 -0.139673
vt 0.703103 0.500020
vn 1.000000 0.000000 -0.000000
v -0.075003 0.042838 -0.160713
vt 0.718722 0.484402
vn 1.000000 0.000000 -0.000000
v -0.075003 0.042838 -0.139673
vt 0.703103 0.484402
vn 1.000000 0.000000 -0.000000
v -0.075003 0.078031 -0.160713
vt 0.718722 0.500020
vn 1.000000 0.000000 -0.000000
v -0.075002 0.078031 0.167271
vt 0.562534 0.500020
vn 1.000000 0.000000 -0.000002
v -0.075003 0.042838 0.146231
vt 0.578153 0.484402
vn 1.000000 0.000000 -0.000002
v -0.075002 0.042838 0.167271
vt 0.562534 0.484402
vn 1.000000 0.000000 -0.000002
v -0.075003 0.078031 0.146231
vt 0.578153 0.500020
vn 1.000000 0.000000 -0.000002
v -0.217955 0.204328 -0.160713
vt 0.062636 0.765585
vn -0.000000 1.000000 0.000000
v -0.039265 0.204328 0.167271
vt 0.140598 0.609433
vn -0.000000 1.000000 0.000000
v -0.217954 0.204328 0.167271
vt 0.062636 0.609433
vn -0.000000 1.000000 0.000000
v -0.039265 0.204328 -0.160713
vt 0.140598 0.765585
vn -0.000000 1.000000 0.000000
v -0.289431 0.183609 -0.139673
vt 0.031731 0.749970
vn -0.000000 1.000000 0.000000
v -0.217954 0.183609 0.146231
vt 0.062196 0.625048
vn -0.000000 1.000000 0.000000
v -0.289430 0.183609 0.146231
vt 0.031731 0.625048
vn -0.000000 1.000000 0.000000
v -0.217955 0.183609 -0.139673
vt 0.062196 0.749970
vn -0.000000 1.000000 0.000000
v -0.039265 0.183609 -0.139673
vt 0.140912 0.749970
vn -0.000000 1.000000 0.000000
v 0.032211 0.183609 0.146231
vt 0.171628 0.625048
vn -0.000000 1.000000 0.000000
v -0.039265 0.183609 0.146231
vt 0.140912 0.625048
vn -0.000000 1.000000 0.000000
v 0.032211 0.183609 -0.139673
vt 0.171628 0.749970
vn -0.000000 1.000000 0.000000
v -0.289430 -0.168318 0.146231
vt 0.766085 0.937141
vn -0.000000 -1.000000 -0.000000
v 0.032211 -0.168318 -0.139673
vt 0.905834 0.812920
vn -0.000000 -1.000000 -0.000000
v -0.289431 -0.168318 -0.139673
vt 0.766085 0.812920
vn -0.000000 -1.000000 -0.000000
v 0.032211 -0.168318 0.146231
vt 0.905834 0.937141
vn -0.000000 -1.000000 -0.000000
v -0.182217 0.042838 -0.139673
vt 0.812530 0.812552
vn -0.000000 -1.000000 -0.000000
v -0.075003 0.042838 -0.160713
vt 0.859388 0.796933
vn -0.000000 -1.000000 -0.000000
v -0.182217 0.042838 -0.160713
vt 0.812530 0.796933
vn -0.000000 -1.000000 -0.000000
v -0.075003 0.042838 -0.139673
vt 0.859388 0.812552
vn -0.000000 -1.000000 -0.000000
v -0.182216 0.042838 0.167271
vt 0.812530 0.953128
vn -0.000001 -1.000000 0.000000
v -0.075003 0.042838 0.146231
vt 0.859388 0.937508
vn -0.000001 -1.000000 0.000000
v -0.182217 0.042838 0.146231
vt 0.812530 0.937508
vn -0.000001 -1.000000 0.000000
v -0.075002 0.042838 0.167271
vt 0.859388 0.953128
vn -0.000001 -1.000000 0.000000
v -0.217955 0.078031 -0.139673
vt 0.796910 0.812552
vn -0.000000 -1.000000 -0.000000
v -0.182217 0.078031 -0.160713
vt 0.812530 0.796933
vn -0.000000 -1.000000 -0.000000
v -0.217955 0.078031 -0.160713
vt 0.796910 0.796933
vn -0.000000 -1.000000 -0.000000
v -0.182217 0.078031 -0.139673
vt 0.812530 0.812552
vn -0.000000 -1.000000 -0.000000
v -0.075003 0.078031 -0.139673
vt 0.859388 0.812552
vn -0.000000 -1.000000 -0.000000
v -0.039265 0.078031 -0.160713
vt 0.875008 0.796933
vn -0.000000 -1.000000 -0.000000
v -0.075003 0.078031 -0.160713
vt 0.859388 0.796933
vn -0.000000 -1.000000 -0.000000
v -0.039265 0.078031 -0.139673
vt 0.875008 0.812552
vn -0.000000 -1.000000 -0.000000
v -0.217954 0.078031 0.167271
vt 0.796910 0.953128
vn -0.000000 -1.000000 0.000000
v -0.182217 0.078031 0.146231
vt 0.812530 0.937508
vn -0.000000 -1.000000 0.000000
v -0.217954 0.078031 0.146231
vt 0.796910 0.937508
vn -0.000000 -1.000000 0.000000
v -0.182216 0.078031 0.167271
vt 0.812530 0.953128
vn -0.000000 -1.000000 0.000000
v -0.075002 0.078031 0.167271
vt 0.859388 0.953128
vn -0.000000 -1.000000 0.000000
v -0.039265 0.078031 0.146231
vt 0.875008 0.937508
vn -0.000000 -1.000000 0.000000
v -0.075003 0.078031 0.146231
vt 0.859388 0.937508
vn -0.000000 -1.000000 0.000000
v -0.039265 0.078031 0.167271
vt 0.875008 0.953128
vn -0.000000 -1.000000 0.000000
# Faces (1 to 120)
f -118/-118/-118 -119/-119/-119 -120/-120/-120
f -118/-118/-118 -120/-120/-120 -117/-117/-117
f -116/-116/-116 -117/-117/-117 -120/-120/-120
f -115/-115/-115 -119/-119/-119 -118/-118/-118
f -115/-115/-115 -118/-118/-118 -114/-114/-114
f -113/-113/-113 -114/-114/-114 -118/-118/-118
f -114/-114/-114 -113/-113/-113 -112/-112/-112
f -113/-113/-113 -111/-111/-111 -112/-112/-112
f -111/-111/-111 -113/-113/-113 -110/-110/-110
f -109/-109/-109 -110/-110/-110 -113/-113/-113
f -106/-106/-106 -107/-107/-107 -108/-108/-108
f -106/-106/-106 -105/-105/-105 -107/-107/-107
f -105/-105/-105 -106/-106/-106 -104/-104/-104
f -103/-103/-103 -104/-104/-104 -106/-106/-106
f -102/-102/-102 -107/-107/-107 -105/-105/-105
f -101/-101/-101 -102/-102/-102 -105/-105/-105
f -98/-98/-98 -99/-99/-99 -100/-100/-100
f -97/-97/-97 -100/-100/-100 -99/-99/-99
f -100/-100/-100 -97/-97/-97 -96/-96/-96
f -100/-100/-100 -96/-96/-96 -95/-95/-95
f -94/-94/-94 -96/-96/-96 -97/-97/-97
f -93/-93/-93 -94/-94/-94 -97/-97/-97
f -90/-90/-90 -91/-91/-91 -92/-92/-92
f -90/-90/-90 -92/-92/-92 -89/-89/-89
f -88/-88/-88 -89/-89/-89 -92/-92/-92
f -87/-87/-87 -92/-92/-92 -91/-91/-91
f -92/-92/-92 -87/-87/-87 -86/-86/-86
f -85/-85/-85 -86/-86/-86 -87/-87/-87
f -85/-85/-85 -84/-84/-84 -86/-86/-86
f -86/-86/-86 -84/-84/-84 -83/-83/-83
f -86/-86/-86 -83/-83/-83 -82/-82/-82
f -81/-81/-81 -82/-82/-82 -83/-83/-83
f -78/-78/-78 -79/-79/-79 -80/-80/-80
f -77/-77/-77 -80/-80/-80 -79/-79/-79
f -74/-74/-74 -75/-75/-75 -76/-76/-76
f -73/-73/-73 -76/-76/-76 -75/-75/-75
f -73/-73/-73 -72/-72/-72 -76/-76/-76
f -71/-71/-71 -76/-76/-76 -72/-72/-72
f -71/-71/-71 -72/-72/-72 -70/-70/-70
f -69/-69/-69 -70/-70/-70 -72/-72/-72
f -66/-66/-66 -67/-67/-67 -68/-68/-68
f -65/-65/-65 -68/-68/-68 -67/-67/-67
f -62/-62/-62 -63/-63/-63 -64/-64/-64
f -61/-61/-61 -64/-64/-64 -63/-63/-63
f -58/-58/-58 -59/-59/-59 -60/-60/-60
f -57/-57/-57 -60/-60/-60 -59/-59/-59
f -54/-54/-54 -55/-55/-55 -56/-56/-56
f -53/-53/-53 -56/-56/-56 -55/-55/-55
f -53/-53/-53 -52/-52/-52 -56/-56/-56
f -51/-51/-51 -56/-56/-56 -52/-52/-52
f -51/-51/-51 -52/-52/-52 -50/-50/-50
f -49/-49/-49 -50/-50/-50 -52/-52/-52
f -46/-46/-46 -47/-47/-47 -48/-48/-48
f -45/-45/-45 -48/-48/-48 -47/-47/-47
f -42/-42/-42 -43/-43/-43 -44/-44/-44
f -41/-41/-41 -44/-44/-44 -43/-43/-43
f -38/-38/-38 -39/-39/-39 -40/-40/-40
f -37/-37/-37 -40/-40/-40 -39/-39/-39
f -34/-34/-34 -35/-35/-35 -36/-36/-36
f -33/-33/-33 -36/-36/-36 -35/-35/-35
f -30/-30/-30 -31/-31/-31 -32/-32/-32
f -29/-29/-29 -32/-32/-32 -31/-31/-31
f -26/-26/-26 -27/-27/-27 -28/-28/-28
f -25/-25/-25 -28/-28/-28 -27/-27/-27
f -22/-22/-22 -23/-23/-23 -24/-24/-24
f -21/-21/-21 -24/-24/-24 -23/-23/-23
f -18/-18/-18 -19/-19/-19 -20/-20/-20
f -17/-17/-17 -20/-20/-20 -19/-19/-19
f -14/-14/-14 -15/-15/-15 -16/-16/-16
f -13/-13/-13 -16/-16/-16 -15/-15/-15
f -10/-10/-10 -11/-11/-11 -12/-12/-12
f -9/-9/-9 -12/-12/-12 -11/-11/-11
f -6/-6/-6 -7/-7/-7 -8/-8/-8
f -5/-5/-5 -8/-8/-8 -7/-7/-7
f -2/-2/-2 -3/-3/-3 -4/-4/-4
f -1/-1/-1 -4/-4/-4 -3/-3/-3

