# Mesh "Armor_Arm_adamant_Left" exported with Unity Assets Bundle Extractor; 176 vertices, 318 indices, 32 bytes per vertex
g Armor_Arm_adamant_Left
# SubMesh 0
# Vertices
v -0.005375 0.146858 -0.145384
vt 0.703125 0.375000
vn -1.000000 0.000000 -0.000000
v -0.005375 -0.134392 0.169182
vt 0.546875 0.234375
vn -1.000000 0.000000 -0.000000
v -0.005375 -0.134392 -0.145384
vt 0.703125 0.234375
vn -1.000000 0.000000 -0.000000
v -0.005375 0.146858 0.169182
vt 0.546875 0.375000
vn -1.000000 0.000000 -0.000000
v 0.054847 0.178108 -0.145384
vt 0.468750 0.171875
vn -1.000000 0.000000 -0.000000
v 0.054847 0.146858 0.169182
vt 0.484375 0.015625
vn -1.000000 0.000000 -0.000000
v 0.054847 0.146858 -0.145384
vt 0.484375 0.171875
vn -1.000000 0.000000 -0.000000
v 0.054847 0.178108 0.169182
vt 0.468750 0.015625
vn -1.000000 0.000000 -0.000000
v 0.115069 -0.134392 -0.145384
vt 0.703125 0.171875
vn -1.000000 0.000000 0.000000
v 0.115069 -0.228142 0.169182
vt 0.546875 0.125000
vn -1.000000 0.000000 0.000000
v 0.115069 -0.228142 -0.145384
vt 0.703125 0.125000
vn -1.000000 0.000000 0.000000
v 0.115069 -0.134392 0.169182
vt 0.546875 0.171875
vn -1.000000 0.000000 0.000000
v 0.175292 -0.228142 -0.145384
vt 0.703125 0.093750
vn -1.000000 0.000000 -0.000000
v 0.175292 -0.290642 0.169182
vt 0.546875 0.062500
vn -1.000000 0.000000 -0.000000
v 0.175292 -0.290642 -0.145384
vt 0.703125 0.062500
vn -1.000000 0.000000 -0.000000
v 0.175292 -0.228142 0.169182
vt 0.546875 0.093750
vn -1.000000 0.000000 -0.000000
v 0.235514 0.178108 -0.132802
vt 0.984375 0.765625
vn -1.000000 0.000000 0.000000
v 0.235514 0.115608 0.151382
vt 0.890625 0.734375
vn -1.000000 0.000000 0.000000
v 0.235514 0.115608 -0.132802
vt 0.984375 0.734375
vn -1.000000 0.000000 0.000000
v 0.235514 0.178108 0.151382
vt 0.890625 0.765625
vn -1.000000 0.000000 0.000000
v 0.265625 0.209358 -0.132802
vt 0.984375 0.640625
vn -1.000000 0.000000 0.000000
v 0.265625 0.178108 0.151382
vt 0.890625 0.625000
vn -1.000000 0.000000 0.000000
v 0.265625 0.178108 -0.132802
vt 0.984375 0.625000
vn -1.000000 0.000000 0.000000
v 0.265625 0.209358 0.151382
vt 0.890625 0.640625
vn -1.000000 0.000000 0.000000
v 0.295736 -0.103142 -0.101552
vt 0.343750 0.218750
vn -1.000000 0.000000 0.000000
v 0.295736 -0.134392 0.120132
vt 0.406250 0.234375
vn -1.000000 0.000000 0.000000
v 0.295736 -0.134392 -0.101552
vt 0.343750 0.234375
vn -1.000000 0.000000 0.000000
v 0.295736 -0.103142 0.120132
vt 0.406250 0.218750
vn -1.000000 0.000000 0.000000
v 0.145181 0.178108 -0.145384
vt 0.421875 0.171875
vn 1.000000 0.000000 0.000000
v 0.145181 0.146858 0.169182
vt 0.406250 0.015625
vn 1.000000 0.000000 0.000000
v 0.145181 0.178108 0.169182
vt 0.421875 0.015625
vn 1.000000 0.000000 0.000000
v 0.145181 0.146858 -0.145384
vt 0.406250 0.171875
vn 1.000000 0.000000 0.000000
v 0.265625 -0.071892 -0.145384
vt 0.015625 0.125000
vn 1.000000 0.000000 0.000000
v 0.265625 -0.290642 0.169182
vt 0.171875 0.015625
vn 1.000000 0.000000 0.000000
v 0.265625 -0.071892 0.169182
vt 0.171875 0.125000
vn 1.000000 0.000000 0.000000
v 0.265625 -0.290642 -0.145384
vt 0.015625 0.015625
vn 1.000000 0.000000 0.000000
v 0.265625 0.146858 -0.145384
vt 0.015625 0.265625
vn 1.000000 0.000000 0.000000
v 0.265625 0.021858 0.169182
vt 0.171875 0.203125
vn 1.000000 0.000000 0.000000
v 0.265625 0.146858 0.169182
vt 0.171875 0.265625
vn 1.000000 0.000000 0.000000
v 0.265625 0.021858 -0.145384
vt 0.015625 0.203125
vn 1.000000 0.000000 0.000000
v 0.295736 0.021858 -0.145384
vt 0.015625 0.187500
vn 1.000000 0.000000 0.000000
v 0.295736 -0.071892 0.169182
vt 0.171875 0.140625
vn 1.000000 0.000000 0.000000
v 0.295736 0.021858 0.169182
vt 0.171875 0.187500
vn 1.000000 0.000000 0.000000
v 0.295736 -0.071892 -0.145384
vt 0.015625 0.140625
vn 1.000000 0.000000 0.000000
v 0.295736 0.209358 -0.132802
vt 0.984375 0.656250
vn 1.000000 0.000000 0.000000
v 0.295736 0.115608 0.151382
vt 0.890625 0.703125
vn 1.000000 0.000000 0.000000
v 0.295736 0.209358 0.151382
vt 0.890625 0.656250
vn 1.000000 0.000000 0.000000
v 0.295736 0.115608 -0.132802
vt 0.984375 0.703125
vn 1.000000 0.000000 0.000000
v 0.325847 -0.228142 -0.101552
vt 0.343750 0.359375
vn 1.000000 0.000000 0.000000
v 0.325847 -0.259392 0.120132
vt 0.406250 0.343750
vn 1.000000 0.000000 0.000000
v 0.325847 -0.228142 0.120132
vt 0.406250 0.359375
vn 1.000000 0.000000 0.000000
v 0.325847 -0.259392 -0.101552
vt 0.343750 0.343750
vn 1.000000 0.000000 0.000000
v 0.355958 -0.103142 -0.101552
vt 0.531250 0.234375
vn 1.000000 0.000000 0.000000
v 0.355958 -0.228142 0.120132
vt 0.453125 0.296875
vn 1.000000 0.000000 0.000000
v 0.355958 -0.103142 0.120132
vt 0.453125 0.234375
vn 1.000000 0.000000 0.000000
v 0.355958 -0.228142 -0.101552
vt 0.531250 0.296875
vn 1.000000 0.000000 0.000000
v 0.265625 -0.259392 0.120132
vt 0.406250 0.312500
vn 0.000000 0.000000 1.000000
v 0.295736 -0.134392 0.120132
vt 0.421875 0.250000
vn 0.000000 0.000000 1.000000
v 0.325847 -0.259392 0.120132
vt 0.437500 0.312500
vn 0.000000 0.000000 1.000000
v 0.265625 -0.134392 0.120132
vt 0.406250 0.250000
vn 0.000000 0.000000 1.000000
v 0.295736 -0.103142 0.120132
vt 0.421875 0.234375
vn -0.000000 0.000000 1.000000
v 0.325847 -0.228142 0.120132
vt 0.437500 0.296875
vn -0.000000 0.000000 1.000000
v 0.355958 -0.228142 0.120132
vt 0.453125 0.296875
vn 0.000000 0.000000 1.000000
v 0.355958 -0.103142 0.120132
vt 0.453125 0.234375
vn 0.000000 0.000000 1.000000
v 0.235514 0.115608 0.151382
vt 0.859375 0.703125
vn 0.000000 0.000000 1.000000
v 0.265625 0.178108 0.151382
vt 0.875000 0.671875
vn 0.000000 0.000000 1.000000
v 0.295736 0.115608 0.151382
vt 0.890625 0.703125
vn 0.000000 0.000000 1.000000
v 0.235514 0.178108 0.151382
vt 0.859375 0.671875
vn 0.000000 0.000000 1.000000
v 0.265625 0.209358 0.151382
vt 0.875000 0.656250
vn 0.000000 0.000000 1.000000
v 0.295736 0.209358 0.151382
vt 0.890625 0.656250
vn 0.000000 0.000000 1.000000
v -0.005375 -0.134392 0.169182
vt 0.328125 0.109375
vn 0.000000 0.000000 1.000000
v 0.054847 0.146858 0.169182
vt 0.296875 0.250000
vn -0.000002 -0.000000 1.000000
v 0.115069 -0.134392 0.169182
vt 0.265625 0.109375
vn 0.000002 0.000000 1.000000
v -0.005375 0.146858 0.169182
vt 0.328125 0.250000
vn 0.000000 0.000000 1.000000
v 0.054847 0.178108 0.169182
vt 0.296875 0.265625
vn -0.000000 -0.000000 1.000000
v 0.145181 0.146858 0.169182
vt 0.250000 0.250000
vn 0.000000 0.000000 1.000000
v 0.115069 -0.228142 0.169182
vt 0.265625 0.062500
vn 0.000000 0.000000 1.000000
v 0.175292 -0.228142 0.169182
vt 0.234375 0.062500
vn 0.000000 0.000000 1.000000
v 0.145181 0.178108 0.169182
vt 0.250000 0.265625
vn -0.000000 -0.000001 1.000000
v 0.265625 -0.071892 0.169182
vt 0.187500 0.140625
vn -0.000000 0.000000 1.000000
v 0.265625 -0.290642 0.169182
vt 0.187500 0.031250
vn 0.000000 -0.000000 1.000000
v 0.175292 -0.290642 0.169182
vt 0.234375 0.031250
vn 0.000000 -0.000000 1.000000
v 0.265625 0.021858 0.169182
vt 0.187500 0.187500
vn -0.000000 0.000000 1.000000
v 0.265625 0.146858 0.169182
vt 0.187500 0.250000
vn 0.000000 0.000000 1.000000
v 0.295736 -0.071892 0.169182
vt 0.171875 0.140625
vn -0.000000 0.000000 1.000000
v 0.295736 0.021858 0.169182
vt 0.171875 0.187500
vn -0.000000 0.000000 1.000000
v 0.175292 -0.290642 0.169182
vt 0.546875 0.062500
vn -0.000000 -1.000000 0.000000
v 0.265625 -0.290642 -0.145384
vt 0.703125 0.015625
vn -0.000000 -1.000000 0.000000
v 0.175292 -0.290642 -0.145384
vt 0.703125 0.062500
vn -0.000000 -1.000000 0.000000
v 0.265625 -0.290642 0.169182
vt 0.546875 0.015625
vn -0.000000 -1.000000 0.000000
v 0.265625 -0.259392 0.120132
vt 0.406250 0.312500
vn -0.000000 -1.000000 0.000000
v 0.325847 -0.259392 -0.101552
vt 0.343750 0.343750
vn -0.000000 -1.000000 0.000000
v 0.265625 -0.259392 -0.101552
vt 0.343750 0.312500
vn -0.000000 -1.000000 0.000000
v 0.325847 -0.259392 0.120132
vt 0.406250 0.343750
vn -0.000000 -1.000000 0.000000
v 0.325847 -0.228142 0.120132
vt 0.406250 0.359375
vn -0.000000 -1.000000 0.000000
v 0.355958 -0.228142 -0.101552
vt 0.343750 0.375000
vn -0.000000 -1.000000 0.000000
v 0.325847 -0.228142 -0.101552
vt 0.343750 0.359375
vn -0.000000 -1.000000 0.000000
v 0.355958 -0.228142 0.120132
vt 0.406250 0.375000
vn -0.000000 -1.000000 0.000000
v 0.115069 -0.228142 0.169182
vt 0.546875 0.125000
vn -0.000000 -1.000000 0.000000
v 0.175292 -0.228142 -0.145384
vt 0.703125 0.093750
vn -0.000000 -1.000000 0.000000
v 0.115069 -0.228142 -0.145384
vt 0.703125 0.125000
vn -0.000000 -1.000000 0.000000
v 0.175292 -0.228142 0.169182
vt 0.546875 0.093750
vn -0.000000 -1.000000 0.000000
v -0.005375 -0.134392 0.169182
vt 0.546875 0.234375
vn -0.000000 -1.000000 0.000000
v 0.115069 -0.134392 -0.145384
vt 0.703125 0.171875
vn -0.000000 -1.000000 0.000000
v -0.005375 -0.134392 -0.145384
vt 0.703125 0.234375
vn -0.000000 -1.000000 0.000000
v 0.115069 -0.134392 0.169182
vt 0.546875 0.171875
vn -0.000000 -1.000000 0.000000
v 0.265625 -0.071892 0.169182
vt 0.171875 0.125000
vn -0.000000 -1.000000 0.000000
v 0.295736 -0.071892 -0.145384
vt 0.015625 0.140625
vn -0.000000 -1.000000 0.000000
v 0.265625 -0.071892 -0.145384
vt 0.015625 0.125000
vn -0.000000 -1.000000 0.000000
v 0.295736 -0.071892 0.169182
vt 0.171875 0.140625
vn -0.000000 -1.000000 0.000000
v 0.235514 0.115608 0.151382
vt 0.890625 0.734375
vn -0.000000 -1.000000 0.000000
v 0.295736 0.115608 -0.132802
vt 0.984375 0.703125
vn -0.000000 -1.000000 0.000000
v 0.235514 0.115608 -0.132802
vt 0.984375 0.734375
vn -0.000000 -1.000000 0.000000
v 0.295736 0.115608 0.151382
vt 0.890625 0.703125
vn -0.000000 -1.000000 0.000000
v 0.265625 -0.134392 0.120132
vt 0.406250 0.250000
vn -0.000000 1.000000 0.000000
v 0.295736 -0.134392 -0.101552
vt 0.343750 0.234375
vn -0.000000 1.000000 0.000000
v 0.295736 -0.134392 0.120132
vt 0.406250 0.234375
vn -0.000000 1.000000 0.000000
v 0.265625 -0.134392 -0.101552
vt 0.343750 0.250000
vn -0.000000 1.000000 0.000000
v 0.295736 -0.103142 0.120132
vt 0.406250 0.218750
vn -0.000000 1.000000 0.000000
v 0.355958 -0.103142 -0.101552
vt 0.343750 0.187500
vn -0.000000 1.000000 0.000000
v 0.355958 -0.103142 0.120132
vt 0.406250 0.187500
vn -0.000000 1.000000 0.000000
v 0.295736 -0.103142 -0.101552
vt 0.343750 0.218750
vn -0.000000 1.000000 0.000000
v 0.265625 0.021858 0.169182
vt 0.171875 0.203125
vn -0.000000 1.000000 0.000000
v 0.295736 0.021858 -0.145384
vt 0.015625 0.187500
vn -0.000000 1.000000 0.000000
v 0.295736 0.021858 0.169182
vt 0.171875 0.187500
vn -0.000000 1.000000 0.000000
v 0.265625 0.021858 -0.145384
vt 0.015625 0.203125
vn -0.000000 1.000000 0.000000
v -0.005375 0.146858 0.169182
vt 0.515625 0.015625
vn -0.000000 1.000000 0.000000
v 0.054847 0.146858 -0.145384
vt 0.484375 0.171875
vn -0.000000 1.000000 0.000000
v 0.054847 0.146858 0.169182
vt 0.484375 0.015625
vn -0.000000 1.000000 0.000000
v -0.005375 0.146858 -0.145384
vt 0.515625 0.171875
vn -0.000000 1.000000 0.000000
v 0.145181 0.146858 0.169182
vt 0.406250 0.015625
vn -0.000000 1.000000 0.000000
v 0.265625 0.146858 -0.145384
vt 0.343750 0.171875
vn -0.000000 1.000000 0.000000
v 0.265625 0.146858 0.169182
vt 0.343750 0.015625
vn -0.000000 1.000000 0.000000
v 0.145181 0.146858 -0.145384
vt 0.406250 0.171875
vn -0.000000 1.000000 0.000000
v 0.235514 0.178108 0.151382
vt 0.890625 0.609375
vn -0.000000 1.000000 0.000000
v 0.265625 0.178108 -0.132802
vt 0.984375 0.625000
vn -0.000000 1.000000 0.000000
v 0.265625 0.178108 0.151382
vt 0.890625 0.625000
vn -0.000000 1.000000 0.000000
v 0.235514 0.178108 -0.132802
vt 0.984375 0.609375
vn -0.000000 1.000000 0.000000
v 0.054847 0.178108 0.169182
vt 0.468750 0.015625
vn -0.000000 1.000000 0.000000
v 0.145181 0.178108 -0.145384
vt 0.421875 0.171875
vn -0.000000 1.000000 0.000000
v 0.145181 0.178108 0.169182
vt 0.421875 0.015625
vn -0.000000 1.000000 0.000000
v 0.054847 0.178108 -0.145384
vt 0.468750 0.171875
vn -0.000000 1.000000 0.000000
v 0.265625 0.209358 0.151382
vt 0.890625 0.640625
vn -0.000000 1.000000 0.000000
v 0.295736 0.209358 -0.132802
vt 0.984375 0.656250
vn -0.000000 1.000000 0.000000
v 0.295736 0.209358 0.151382
vt 0.890625 0.656250
vn -0.000000 1.000000 0.000000
v 0.265625 0.209358 -0.132802
vt 0.984375 0.640625
vn -0.000000 1.000000 0.000000
v -0.005375 -0.134392 -0.145384
vt 0.328125 0.109375
vn -0.000000 -0.000000 -1.000000
v 0.054847 0.146858 -0.145384
vt 0.296875 0.250000
vn 0.000000 0.000000 -1.000000
v -0.005375 0.146858 -0.145384
vt 0.328125 0.250000
vn -0.000000 -0.000000 -1.000000
v 0.115069 -0.134392 -0.145384
vt 0.265625 0.109375
vn -0.000003 0.000000 -1.000000
v 0.054847 0.178108 -0.145384
vt 0.296875 0.265625
vn -0.000000 -0.000000 -1.000000
v 0.145181 0.146858 -0.145384
vt 0.250000 0.250000
vn -0.000000 0.000000 -1.000000
v 0.115069 -0.228142 -0.145384
vt 0.265625 0.062500
vn -0.000000 0.000000 -1.000000
v 0.175292 -0.228142 -0.145384
vt 0.234375 0.062500
vn -0.000000 0.000000 -1.000000
v 0.145181 0.178108 -0.145384
vt 0.250000 0.265625
vn -0.000000 0.000000 -1.000000
v 0.265625 -0.071892 -0.145384
vt 0.187500 0.140625
vn -0.000000 0.000000 -1.000000
v 0.265625 -0.290642 -0.145384
vt 0.187500 0.031250
vn -0.000000 0.000000 -1.000000
v 0.175292 -0.290642 -0.145384
vt 0.234375 0.031250
vn -0.000000 0.000000 -1.000000
v 0.265625 0.021858 -0.145384
vt 0.187500 0.187500
vn -0.000000 0.000000 -1.000000
v 0.265625 0.146858 -0.145384
vt 0.187500 0.250000
vn -0.000000 -0.000000 -1.000000
v 0.295736 -0.071892 -0.145384
vt 0.171875 0.140625
vn -0.000000 0.000000 -1.000000
v 0.295736 0.021858 -0.145384
vt 0.171875 0.187500
vn -0.000000 0.000000 -1.000000
v 0.265625 -0.259392 -0.101552
vt 0.406250 0.312500
vn -0.000000 0.000000 -1.000000
v 0.295736 -0.134392 -0.101552
vt 0.421875 0.250000
vn -0.000000 0.000000 -1.000000
v 0.265625 -0.134392 -0.101552
vt 0.406250 0.250000
vn -0.000000 0.000000 -1.000000
v 0.325847 -0.259392 -0.101552
vt 0.437500 0.312500
vn -0.000000 0.000000 -1.000000
v 0.295736 -0.103142 -0.101552
vt 0.421875 0.234375
vn -0.000000 0.000000 -1.000000
v 0.325847 -0.228142 -0.101552
vt 0.437500 0.296875
vn -0.000000 0.000000 -1.000000
v 0.355958 -0.228142 -0.101552
vt 0.453125 0.296875
vn -0.000000 0.000000 -1.000000
v 0.355958 -0.103142 -0.101552
vt 0.453125 0.234375
vn -0.000000 0.000000 -1.000000
v 0.235514 0.115608 -0.132802
vt 0.859375 0.703125
vn -0.000000 0.000000 -1.000000
v 0.265625 0.178108 -0.132802
vt 0.875000 0.671875
vn -0.000001 0.000000 -1.000000
v 0.235514 0.178108 -0.132802
vt 0.859375 0.671875
vn -0.000000 0.000000 -1.000000
v 0.295736 0.115608 -0.132802
vt 0.890625 0.703125
vn -0.000001 0.000000 -1.000000
v 0.265625 0.209358 -0.132802
vt 0.875000 0.656250
vn -0.000001 0.000000 -1.000000
v 0.295736 0.209358 -0.132802
vt 0.890625 0.656250
vn -0.000001 0.000000 -1.000000
# Faces (1 to 176)
f -174/-174/-174 -175/-175/-175 -176/-176/-176
f -173/-173/-173 -176/-176/-176 -175/-175/-175
f -170/-170/-170 -171/-171/-171 -172/-172/-172
f -169/-169/-169 -172/-172/-172 -171/-171/-171
f -166/-166/-166 -167/-167/-167 -168/-168/-168
f -165/-165/-165 -168/-168/-168 -167/-167/-167
f -162/-162/-162 -163/-163/-163 -164/-164/-164
f -161/-161/-161 -164/-164/-164 -163/-163/-163
f -158/-158/-158 -159/-159/-159 -160/-160/-160
f -157/-157/-157 -160/-160/-160 -159/-159/-159
f -154/-154/-154 -155/-155/-155 -156/-156/-156
f -153/-153/-153 -156/-156/-156 -155/-155/-155
f -150/-150/-150 -151/-151/-151 -152/-152/-152
f -149/-149/-149 -152/-152/-152 -151/-151/-151
f -146/-146/-146 -147/-147/-147 -148/-148/-148
f -145/-145/-145 -148/-148/-148 -147/-147/-147
f -142/-142/-142 -143/-143/-143 -144/-144/-144
f -141/-141/-141 -144/-144/-144 -143/-143/-143
f -138/-138/-138 -139/-139/-139 -140/-140/-140
f -137/-137/-137 -140/-140/-140 -139/-139/-139
f -134/-134/-134 -135/-135/-135 -136/-136/-136
f -133/-133/-133 -136/-136/-136 -135/-135/-135
f -130/-130/-130 -131/-131/-131 -132/-132/-132
f -129/-129/-129 -132/-132/-132 -131/-131/-131
f -126/-126/-126 -127/-127/-127 -128/-128/-128
f -125/-125/-125 -128/-128/-128 -127/-127/-127
f -122/-122/-122 -123/-123/-123 -124/-124/-124
f -121/-121/-121 -124/-124/-124 -123/-123/-123
f -118/-118/-118 -119/-119/-119 -120/-120/-120
f -117/-117/-117 -120/-120/-120 -119/-119/-119
f -119/-119/-119 -118/-118/-118 -116/-116/-116
f -115/-115/-115 -116/-116/-116 -118/-118/-118
f -115/-115/-115 -114/-114/-114 -116/-116/-116
f -113/-113/-113 -116/-116/-116 -114/-114/-114
f -110/-110/-110 -111/-111/-111 -112/-112/-112
f -109/-109/-109 -112/-112/-112 -111/-111/-111
f -111/-111/-111 -110/-110/-110 -108/-108/-108
f -107/-107/-107 -108/-108/-108 -110/-110/-110
f -104/-104/-104 -105/-105/-105 -106/-106/-106
f -103/-103/-103 -106/-106/-106 -105/-105/-105
f -105/-105/-105 -104/-104/-104 -102/-102/-102
f -101/-101/-101 -102/-102/-102 -104/-104/-104
f -104/-104/-104 -100/-100/-100 -101/-101/-101
f -99/-99/-99 -101/-101/-101 -100/-100/-100
f -98/-98/-98 -102/-102/-102 -101/-101/-101
f -99/-99/-99 -97/-97/-97 -101/-101/-101
f -97/-97/-97 -99/-99/-99 -96/-96/-96
f -95/-95/-95 -96/-96/-96 -99/-99/-99
f -94/-94/-94 -101/-101/-101 -97/-97/-97
f -93/-93/-93 -101/-101/-101 -94/-94/-94
f -97/-97/-97 -92/-92/-92 -94/-94/-94
f -91/-91/-91 -94/-94/-94 -92/-92/-92
f -88/-88/-88 -89/-89/-89 -90/-90/-90
f -87/-87/-87 -90/-90/-90 -89/-89/-89
f -84/-84/-84 -85/-85/-85 -86/-86/-86
f -83/-83/-83 -86/-86/-86 -85/-85/-85
f -80/-80/-80 -81/-81/-81 -82/-82/-82
f -79/-79/-79 -82/-82/-82 -81/-81/-81
f -76/-76/-76 -77/-77/-77 -78/-78/-78
f -75/-75/-75 -78/-78/-78 -77/-77/-77
f -72/-72/-72 -73/-73/-73 -74/-74/-74
f -71/-71/-71 -74/-74/-74 -73/-73/-73
f -68/-68/-68 -69/-69/-69 -70/-70/-70
f -67/-67/-67 -70/-70/-70 -69/-69/-69
f -64/-64/-64 -65/-65/-65 -66/-66/-66
f -63/-63/-63 -66/-66/-66 -65/-65/-65
f -60/-60/-60 -61/-61/-61 -62/-62/-62
f -59/-59/-59 -62/-62/-62 -61/-61/-61
f -56/-56/-56 -57/-57/-57 -58/-58/-58
f -55/-55/-55 -58/-58/-58 -57/-57/-57
f -52/-52/-52 -53/-53/-53 -54/-54/-54
f -51/-51/-51 -54/-54/-54 -53/-53/-53
f -48/-48/-48 -49/-49/-49 -50/-50/-50
f -47/-47/-47 -50/-50/-50 -49/-49/-49
f -44/-44/-44 -45/-45/-45 -46/-46/-46
f -43/-43/-43 -46/-46/-46 -45/-45/-45
f -40/-40/-40 -41/-41/-41 -42/-42/-42
f -39/-39/-39 -42/-42/-42 -41/-41/-41
f -36/-36/-36 -37/-37/-37 -38/-38/-38
f -35/-35/-35 -38/-38/-38 -37/-37/-37
f -32/-32/-32 -33/-33/-33 -34/-34/-34
f -31/-31/-31 -34/-34/-34 -33/-33/-33
f -28/-28/-28 -29/-29/-29 -30/-30/-30
f -27/-27/-27 -30/-30/-30 -29/-29/-29
f -29/-29/-29 -26/-26/-26 -27/-27/-27
f -25/-25/-25 -27/-27/-27 -26/-26/-26
f -27/-27/-27 -25/-25/-25 -24/-24/-24
f -23/-23/-23 -24/-24/-24 -25/-25/-25
f -26/-26/-26 -22/-22/-22 -25/-25/-25
f -23/-23/-23 -25/-25/-25 -21/-21/-21
f -21/-21/-21 -20/-20/-20 -23/-23/-23
f -19/-19/-19 -23/-23/-23 -20/-20/-20
f -18/-18/-18 -21/-21/-21 -25/-25/-25
f -25/-25/-25 -17/-17/-17 -18/-18/-18
f -21/-21/-21 -18/-18/-18 -16/-16/-16
f -15/-15/-15 -16/-16/-16 -18/-18/-18
f -12/-12/-12 -13/-13/-13 -14/-14/-14
f -11/-11/-11 -14/-14/-14 -13/-13/-13
f -13/-13/-13 -10/-10/-10 -11/-11/-11
f -9/-9/-9 -11/-11/-11 -10/-10/-10
f -9/-9/-9 -10/-10/-10 -8/-8/-8
f -7/-7/-7 -8/-8/-8 -10/-10/-10
f -4/-4/-4 -5/-5/-5 -6/-6/-6
f -3/-3/-3 -6/-6/-6 -5/-5/-5
f -5/-5/-5 -2/-2/-2 -3/-3/-3
f -1/-1/-1 -3/-3/-3 -2/-2/-2

