g Arms_Mesh
v -0.1138588 -0.5272396 0.4111454
v 0.1320639 -0.4943403 0.3804829
v -0.00210877 -0.0112958 -0.1773385
v -0.2480314 -0.04419513 -0.1466759
v -0.1185796 -0.3388465 0.5754195
v -0.2527522 0.1441979 0.01759812
v -0.006829545 0.1770973 -0.01306443
v 0.1273431 -0.3059472 0.5447569
v -0.1138588 -0.5272396 0.4111454
v -0.1185796 -0.3388465 0.5754195
v 0.1273431 -0.3059472 0.5447569
v 0.1320639 -0.4943403 0.3804829
v 0.1320639 -0.4943403 0.3804829
v 0.1273431 -0.3059472 0.5447569
v -0.006829545 0.1770973 -0.01306443
v -0.00210877 -0.0112958 -0.1773385
v -0.00210877 -0.0112958 -0.1773385
v -0.006829545 0.1770973 -0.01306443
v -0.2527522 0.1441979 0.01759812
v -0.2480314 -0.04419513 -0.1466759
v -0.2480314 -0.04419513 -0.1466759
v -0.2527522 0.1441979 0.01759812
v -0.1185796 -0.3388465 0.5754195
v -0.1138588 -0.5272396 0.4111454
v 0.3744884 -0.33429 0.4737822
v 0.1643452 -0.2523409 0.3659643
v 0.562727 0.2388796 -0.03714145
v 0.77287 0.1569305 0.07067645
v 0.4010593 -0.5045064 0.2926179
v 0.799441 -0.01328592 -0.1104878
v 0.5892978 0.06866313 -0.2183057
v 0.1909161 -0.4225574 0.1848
v 0.3744884 -0.33429 0.4737822
v 0.4010593 -0.5045064 0.2926179
v 0.1909161 -0.4225574 0.1848
v 0.1643452 -0.2523409 0.3659643
v 0.1643452 -0.2523409 0.3659643
v 0.1909161 -0.4225574 0.1848
v 0.5892978 0.06866313 -0.2183057
v 0.562727 0.2388796 -0.03714145
v 0.562727 0.2388796 -0.03714145
v 0.5892978 0.06866313 -0.2183057
v 0.799441 -0.01328592 -0.1104878
v 0.77287 0.1569305 0.07067645
v 0.77287 0.1569305 0.07067645
v 0.799441 -0.01328592 -0.1104878
v 0.4010593 -0.5045064 0.2926179
v 0.3744884 -0.33429 0.4737822
vt 0.8749058 0.0002772452
vt 0.8125199 0.0002772452
vt 0.8125199 0.3749776
vt 0.8749058 0.3749776
vt 0.6876549 0.0006676987
vt 0.6876549 0.3747333
vt 0.7498414 0.3747333
vt 0.7498413 0.0006676987
vt 0.7502348 0.4995673
vt 0.7502348 0.3751937
vt 0.8124284 0.3751937
vt 0.8124284 0.4995673
vt 0.8123293 0.0004921891
vt 0.7500771 0.0004921574
vt 0.7500771 0.3748665
vt 0.8123293 0.3748665
vt 0.6876221 0.3751937
vt 0.6876222 0.4996488
vt 0.7498814 0.4996488
vt 0.7498813 0.3751937
vt 0.6873756 0.3747509
vt 0.6251479 0.3747505
vt 0.6251479 0.0002376686
vt 0.6873756 0.0002380711
vt 0.6876548 0.0002772452
vt 0.7500407 0.0002772452
vt 0.7500407 0.3749776
vt 0.6876548 0.3749776
vt 0.8749057 0.0006676987
vt 0.8749057 0.3747333
vt 0.8127192 0.3747333
vt 0.8127192 0.0006676987
vt 0.7502348 0.3754026
vt 0.7502348 0.4997762
vt 0.8124284 0.4997762
vt 0.8124284 0.3754026
vt 0.750077 0.0004921891
vt 0.8123292 0.0004921574
vt 0.8123292 0.3748665
vt 0.750077 0.3748665
vt 0.6876221 0.4997762
vt 0.6876222 0.3753211
vt 0.7498814 0.3753211
vt 0.7498813 0.4997762
vt 0.6251479 0.3747509
vt 0.6873756 0.3747505
vt 0.6873756 0.0002376686
vt 0.6251479 0.0002380711
vn 0.018883 -0.7535709 -0.6570954
vn 0.018883 -0.7535709 -0.6570954
vn 0.018883 -0.7535709 -0.6570954
vn 0.018883 -0.7535709 -0.6570954
vn -0.01888294 0.753571 0.6570954
vn -0.01888294 0.753571 0.6570954
vn -0.01888294 0.753571 0.6570954
vn -0.01888294 0.753571 0.6570954
vn 0.1788968 -0.6440598 0.7437627
vn 0.1788968 -0.6440598 0.7437627
vn 0.1788968 -0.6440598 0.7437627
vn 0.1788968 -0.6440598 0.7437627
vn 0.9836866 0.1315969 -0.1226499
vn 0.9836866 0.1315969 -0.1226499
vn 0.9836866 0.1315969 -0.1226499
vn 0.9836866 0.1315969 -0.1226499
vn -0.1788968 0.6440597 -0.7437627
vn -0.1788968 0.6440597 -0.7437627
vn -0.1788968 0.6440597 -0.7437627
vn -0.1788968 0.6440597 -0.7437627
vn -0.9836866 -0.1315969 0.1226499
vn -0.9836866 -0.1315969 0.1226499
vn -0.9836866 -0.1315969 0.1226499
vn -0.9836866 -0.1315969 0.1226499
vn -0.1062836 0.6808646 0.7246566
vn -0.1062836 0.6808646 0.7246566
vn -0.1062836 0.6808646 0.7246566
vn -0.1062836 0.6808646 0.7246566
vn 0.1062835 -0.6808646 -0.7246566
vn 0.1062835 -0.6808646 -0.7246566
vn 0.1062835 -0.6808646 -0.7246566
vn 0.1062835 -0.6808646 -0.7246566
vn -0.5311751 -0.6549608 0.5374749
vn -0.5311751 -0.6549608 0.5374749
vn -0.5311751 -0.6549608 0.5374749
vn -0.5311751 -0.6549608 0.5374749
vn -0.8405689 0.3277951 -0.4312705
vn -0.8405689 0.3277951 -0.4312705
vn -0.8405689 0.3277951 -0.4312705
vn -0.8405689 0.3277951 -0.4312705
vn 0.5311755 0.6549605 -0.537475
vn 0.5311755 0.6549605 -0.537475
vn 0.5311755 0.6549605 -0.537475
vn 0.5311755 0.6549605 -0.537475
vn 0.840569 -0.3277951 0.4312705
vn 0.840569 -0.3277951 0.4312705
vn 0.840569 -0.3277951 0.4312705
vn 0.840569 -0.3277951 0.4312705
g Arms_Mesh_0
f 3/3/3 2/2/2 1/1/1
f 4/4/4 3/3/3 1/1/1
f 7/7/7 6/6/6 5/5/5
f 8/8/8 7/7/7 5/5/5
f 11/11/11 10/10/10 9/9/9
f 12/12/12 11/11/11 9/9/9
f 15/15/15 14/14/14 13/13/13
f 16/16/16 15/15/15 13/13/13
f 19/19/19 18/18/18 17/17/17
f 20/20/20 19/19/19 17/17/17
f 23/23/23 22/22/22 21/21/21
f 24/24/24 23/23/23 21/21/21
f 27/27/27 26/26/26 25/25/25
f 28/28/28 27/27/27 25/25/25
f 31/31/31 30/30/30 29/29/29
f 32/32/32 31/31/31 29/29/29
f 35/35/35 34/34/34 33/33/33
f 36/36/36 35/35/35 33/33/33
f 39/39/39 38/38/38 37/37/37
f 40/40/40 39/39/39 37/37/37
f 43/43/43 42/42/42 41/41/41
f 44/44/44 43/43/43 41/41/41
f 47/47/47 46/46/46 45/45/45
f 48/48/48 47/47/47 45/45/45
