# Mesh "Arms_Mesh" exported with Unity Assets Bundle Extractor; 48 vertices, 72 indices, 32 bytes per vertex
g Arms_Mesh
# SubMesh 0
# Vertices
v -0.250001 -0.624835 -0.125822
vt 0.874906 0.000277
vn -0.000000 0.001316 -0.999999
v 0.000000 -0.624835 -0.125822
vt 0.812520 0.000277
vn -0.000000 0.001316 -0.999999
v 0.000000 0.125164 -0.124836
vt 0.812520 0.374978
vn -0.000000 0.001316 -0.999999
v -0.250001 0.125164 -0.124836
vt 0.874906 0.374978
vn -0.000000 0.001316 -0.999999
v -0.250001 -0.625164 0.124178
vt 0.687655 0.000668
vn -0.000000 -0.001316 0.999999
v -0.250001 0.124835 0.125165
vt 0.687655 0.374733
vn -0.000000 -0.001316 0.999999
v 0.000000 0.124835 0.125165
vt 0.749841 0.374733
vn -0.000000 -0.001316 0.999999
v 0.000000 -0.625164 0.124178
vt 0.749841 0.000668
vn -0.000000 -0.001316 0.999999
v -0.250001 -0.624835 -0.125822
vt 0.750235 0.499567
vn -0.000000 -0.999999 -0.001315
v -0.250001 -0.625164 0.124178
vt 0.750235 0.375194
vn -0.000000 -0.999999 -0.001315
v 0.000000 -0.625164 0.124178
vt 0.812428 0.375194
vn -0.000000 -0.999999 -0.001315
v 0.000000 -0.624835 -0.125822
vt 0.812428 0.499567
vn -0.000000 -0.999999 -0.001315
v 0.000000 -0.624835 -0.125822
vt 0.812329 0.000492
vn 1.000000 0.000000 0.000000
v 0.000000 -0.625164 0.124178
vt 0.750077 0.000492
vn 1.000000 0.000000 0.000000
v 0.000000 0.124835 0.125165
vt 0.750077 0.374866
vn 1.000000 0.000000 0.000000
v 0.000000 0.125164 -0.124836
vt 0.812329 0.374867
vn 1.000000 0.000000 0.000000
v 0.000000 0.125164 -0.124836
vt 0.687622 0.499776
vn -0.000000 0.999999 0.001315
v 0.000000 0.124835 0.125165
vt 0.687622 0.375321
vn -0.000000 0.999999 0.001315
v -0.250001 0.124835 0.125165
vt 0.749881 0.375321
vn -0.000000 0.999999 0.001315
v -0.250001 0.125164 -0.124836
vt 0.749881 0.499776
vn -0.000000 0.999999 0.001315
v -0.250001 0.125164 -0.124836
vt 0.625148 0.374751
vn -1.000000 0.000000 0.000000
v -0.250001 0.124835 0.125165
vt 0.687376 0.374750
vn -1.000000 0.000000 0.000000
v -0.250001 -0.625164 0.124178
vt 0.687376 0.000238
vn -1.000000 0.000000 0.000000
v -0.250001 -0.624835 -0.125822
vt 0.625148 0.000238
vn -1.000000 0.000000 0.000000
v 0.352334 -0.689775 0.030537
vt 0.687655 0.000277
vn 0.098225 -0.243728 0.964857
v 0.153794 -0.548504 0.086435
vt 0.750041 0.000277
vn 0.098225 -0.243728 0.964857
v 0.603584 0.042654 0.189975
vt 0.750041 0.374978
vn 0.098225 -0.243728 0.964857
v 0.802124 -0.098617 0.134077
vt 0.687655 0.374978
vn 0.098225 -0.243728 0.964857
v 0.327778 -0.628843 -0.210678
vt 0.874906 0.000668
vn -0.098225 0.243728 -0.964857
v 0.777568 -0.037685 -0.107137
vt 0.874906 0.374733
vn -0.098225 0.243728 -0.964857
v 0.579027 0.103587 -0.051240
vt 0.812719 0.374733
vn -0.098225 0.243728 -0.964857
v 0.129237 -0.487572 -0.154780
vt 0.812719 0.000668
vn -0.098225 0.243728 -0.964857
v 0.352334 -0.689775 0.030537
vt 0.750235 0.375403
vn -0.599720 -0.788211 -0.138054
v 0.327778 -0.628843 -0.210678
vt 0.750235 0.499776
vn -0.599720 -0.788211 -0.138054
v 0.129237 -0.487572 -0.154780
vt 0.812428 0.499776
vn -0.599720 -0.788211 -0.138054
v 0.153794 -0.548504 0.086435
vt 0.812428 0.375403
vn -0.599720 -0.788211 -0.138054
v 0.153794 -0.548504 0.086435
vt 0.750077 0.000492
vn -0.794158 0.565084 0.223591
v 0.129237 -0.487572 -0.154780
vt 0.812329 0.000492
vn -0.794158 0.565084 0.223591
v 0.579027 0.103587 -0.051240
vt 0.812329 0.374866
vn -0.794158 0.565084 0.223591
v 0.603584 0.042654 0.189975
vt 0.750077 0.374867
vn -0.794158 0.565084 0.223591
v 0.603584 0.042654 0.189975
vt 0.687622 0.375194
vn 0.599720 0.788211 0.138054
v 0.579027 0.103587 -0.051240
vt 0.687622 0.499649
vn 0.599720 0.788211 0.138054
v 0.777568 -0.037685 -0.107137
vt 0.749881 0.499649
vn 0.599720 0.788211 0.138054
v 0.802124 -0.098617 0.134077
vt 0.749881 0.375194
vn 0.599720 0.788211 0.138054
v 0.802124 -0.098617 0.134077
vt 0.687376 0.374751
vn 0.794158 -0.565084 -0.223591
v 0.777568 -0.037685 -0.107137
vt 0.625148 0.374750
vn 0.794158 -0.565084 -0.223591
v 0.327778 -0.628843 -0.210678
vt 0.625148 0.000238
vn 0.794158 -0.565084 -0.223591
v 0.352334 -0.689775 0.030537
vt 0.687376 0.000238
vn 0.794158 -0.565084 -0.223591
# Faces (1 to 48)
f -46/-46/-46 -47/-47/-47 -48/-48/-48
f -45/-45/-45 -46/-46/-46 -48/-48/-48
f -42/-42/-42 -43/-43/-43 -44/-44/-44
f -41/-41/-41 -42/-42/-42 -44/-44/-44
f -38/-38/-38 -39/-39/-39 -40/-40/-40
f -37/-37/-37 -38/-38/-38 -40/-40/-40
f -34/-34/-34 -35/-35/-35 -36/-36/-36
f -33/-33/-33 -34/-34/-34 -36/-36/-36
f -30/-30/-30 -31/-31/-31 -32/-32/-32
f -29/-29/-29 -30/-30/-30 -32/-32/-32
f -26/-26/-26 -27/-27/-27 -28/-28/-28
f -25/-25/-25 -26/-26/-26 -28/-28/-28
f -22/-22/-22 -23/-23/-23 -24/-24/-24
f -21/-21/-21 -22/-22/-22 -24/-24/-24
f -18/-18/-18 -19/-19/-19 -20/-20/-20
f -17/-17/-17 -18/-18/-18 -20/-20/-20
f -14/-14/-14 -15/-15/-15 -16/-16/-16
f -13/-13/-13 -14/-14/-14 -16/-16/-16
f -10/-10/-10 -11/-11/-11 -12/-12/-12
f -9/-9/-9 -10/-10/-10 -12/-12/-12
f -6/-6/-6 -7/-7/-7 -8/-8/-8
f -5/-5/-5 -6/-6/-6 -8/-8/-8
f -2/-2/-2 -3/-3/-3 -4/-4/-4
f -1/-1/-1 -2/-2/-2 -4/-4/-4

