g Arms_Mesh
v -0.2500007 -0.6249996 -0.1250008
v 2.861023E-07 0.125 -0.1250004
v -0.2500007 0.125 -0.1250004
v 2.861023E-07 -0.6249996 -0.1250008
v -0.2500007 -0.6249997 0.1249995
v 2.861023E-07 0.1249999 0.1249999
v 2.861023E-07 -0.6249997 0.1249995
v -0.2500007 0.1249999 0.1249999
v -0.2500007 -0.6249996 -0.1250008
v 2.861023E-07 -0.6249997 0.1249995
v 2.861023E-07 -0.6249996 -0.1250008
v -0.2500007 -0.6249997 0.1249995
v 2.861023E-07 -0.6249996 -0.1250008
v 2.861023E-07 0.1249999 0.1249999
v 2.861023E-07 0.125 -0.1250004
v 2.861023E-07 -0.6249997 0.1249995
v 2.861023E-07 0.125 -0.1250004
v -0.2500007 0.1249999 0.1249999
v -0.2500007 0.125 -0.1250004
v 2.861023E-07 0.1249999 0.1249999
v -0.2500007 0.125 -0.1250004
v -0.2500007 -0.6249997 0.1249995
v -0.2500007 -0.6249996 -0.1250008
v -0.2500007 0.1249999 0.1249999
v 0.3065811 -0.6566697 0.01114019
v 0.5778139 0.07463407 0.1400888
v 0.7734667 -0.07863083 0.113064
v 0.1109282 -0.5034048 0.03816495
v 0.3065811 -0.6132576 -0.2350621
v 0.5778139 0.1180462 -0.1061136
v 0.1109282 -0.4599927 -0.2080374
v 0.7734667 -0.03521872 -0.1331383
v 0.3065811 -0.6566697 0.01114019
v 0.1109282 -0.4599927 -0.2080374
v 0.1109282 -0.5034048 0.03816495
v 0.3065811 -0.6132576 -0.2350621
v 0.1109282 -0.5034048 0.03816495
v 0.5778139 0.1180462 -0.1061136
v 0.5778139 0.07463407 0.1400888
v 0.1109282 -0.4599927 -0.2080374
v 0.5778139 0.07463407 0.1400888
v 0.7734667 -0.03521872 -0.1331383
v 0.7734667 -0.07863083 0.113064
v 0.5778139 0.1180462 -0.1061136
v 0.7734667 -0.07863083 0.113064
v 0.3065811 -0.6132576 -0.2350621
v 0.3065811 -0.6566697 0.01114019
v 0.7734667 -0.03521872 -0.1331383
vt 0.8749058 0.0002772452
vt 0.8125199 0.3749776
vt 0.8749058 0.3749776
vt 0.8125199 0.0002772452
vt 0.6876549 0.0006676987
vt 0.7498414 0.3747333
vt 0.7498413 0.0006676987
vt 0.6876549 0.3747333
vt 0.7502348 0.4995673
vt 0.8124284 0.3751937
vt 0.8124284 0.4995673
vt 0.7502348 0.3751937
vt 0.8123293 0.0004921891
vt 0.7500771 0.3748665
vt 0.8123293 0.3748665
vt 0.7500771 0.0004921574
vt 0.6876221 0.4997762
vt 0.7498814 0.3753211
vt 0.7498813 0.4997762
vt 0.6876222 0.3753211
vt 0.6251479 0.3747509
vt 0.6873756 0.0002376686
vt 0.6251479 0.0002380711
vt 0.6873756 0.3747505
vt 0.6876548 0.0002772452
vt 0.7500407 0.3749776
vt 0.6876548 0.3749776
vt 0.7500407 0.0002772452
vt 0.8749057 0.0006676987
vt 0.8127192 0.3747333
vt 0.8127192 0.0006676987
vt 0.8749057 0.3747333
vt 0.7502348 0.3754026
vt 0.8124284 0.4997762
vt 0.8124284 0.3754026
vt 0.7502348 0.4997762
vt 0.750077 0.0004921891
vt 0.8123292 0.3748665
vt 0.750077 0.3748665
vt 0.8123292 0.0004921574
vt 0.6876221 0.3751937
vt 0.7498814 0.4996488
vt 0.7498813 0.3751937
vt 0.6876222 0.4996488
vt 0.6873756 0.3747509
vt 0.6251479 0.0002376686
vt 0.6873756 0.0002380711
vt 0.6251479 0.3747505
vn 0 5.205485E-07 -1
vn 0 5.205485E-07 -1
vn 0 5.205485E-07 -1
vn 0 5.205485E-07 -1
vn 0 -5.205485E-07 1
vn 0 -5.205485E-07 1
vn 0 -5.205485E-07 1
vn 0 -5.205485E-07 1
vn 0 -1 -5.205485E-07
vn 0 -1 -5.205485E-07
vn 0 -1 -5.205485E-07
vn 0 -1 -5.205485E-07
vn 1 0 0
vn 1 0 0
vn 1 0 0
vn 1 0 0
vn 0 1 5.205485E-07
vn 0 1 5.205485E-07
vn 0 1 5.205485E-07
vn 0 1 5.205485E-07
vn -1 0 0
vn -1 0 0
vn -1 0 0
vn -1 0 0
vn 0 -0.1736482 0.9848077
vn 1.154021E-07 -0.1736482 0.9848077
vn 1.220698E-07 -0.1736482 0.9848077
vn 0 -0.1736482 0.9848077
vn 0 0.1736481 -0.9848077
vn 0 0.1736481 -0.9848077
vn 0 0.1736481 -0.9848077
vn 0 0.1736481 -0.9848077
vn -0.6225145 -0.7707186 -0.1358985
vn -0.6225145 -0.7707186 -0.1358985
vn -0.6225146 -0.7707186 -0.1358985
vn -0.6225145 -0.7707186 -0.1358985
vn -0.7826084 0.613057 0.1080985
vn -0.7826084 0.613057 0.1080985
vn -0.7826084 0.613057 0.1080985
vn -0.7826084 0.613057 0.1080985
vn 0.6225145 0.7707186 0.1358985
vn 0.6225145 0.7707186 0.1358985
vn 0.6225146 0.7707186 0.1358985
vn 0.6225145 0.7707187 0.1358985
vn 0.7826084 -0.613057 -0.1080985
vn 0.7826084 -0.613057 -0.1080985
vn 0.7826084 -0.613057 -0.1080985
vn 0.7826084 -0.613057 -0.1080985
g Arms_Mesh_0
f 3/3/3 2/2/2 1/1/1
f 4/4/4 1/1/1 2/2/2
f 7/7/7 6/6/6 5/5/5
f 8/8/8 5/5/5 6/6/6
f 11/11/11 10/10/10 9/9/9
f 12/12/12 9/9/9 10/10/10
f 15/15/15 14/14/14 13/13/13
f 16/16/16 13/13/13 14/14/14
f 19/19/19 18/18/18 17/17/17
f 20/20/20 17/17/17 18/18/18
f 23/23/23 22/22/22 21/21/21
f 24/24/24 21/21/21 22/22/22
f 27/27/27 26/26/26 25/25/25
f 28/28/28 25/25/25 26/26/26
f 31/31/31 30/30/30 29/29/29
f 32/32/32 29/29/29 30/30/30
f 35/35/35 34/34/34 33/33/33
f 36/36/36 33/33/33 34/34/34
f 39/39/39 38/38/38 37/37/37
f 40/40/40 37/37/37 38/38/38
f 43/43/43 42/42/42 41/41/41
f 44/44/44 41/41/41 42/42/42
f 47/47/47 46/46/46 45/45/45
f 48/48/48 45/45/45 46/46/46
