# Mesh "Arms_mesh" exported with Unity Assets Bundle Extractor; 48 vertices, 72 indices, 32 bytes per vertex
g Arms_mesh
# SubMesh 0
# Vertices
v -0.250001 -0.125001 0.625000
vt 0.874906 0.000277
vn -0.000000 -1.000000 0.000000
v 0.000000 -0.125001 0.625000
vt 0.812520 0.000277
vn -0.000000 -1.000000 0.000000
v 0.000000 -0.125000 -0.125000
vt 0.812520 0.374978
vn -0.000000 -1.000000 0.000000
v -0.250001 -0.125000 -0.125000
vt 0.874906 0.374978
vn -0.000000 -1.000000 0.000000
v -0.250001 0.124999 0.625000
vt 0.687655 0.000668
vn -0.000000 1.000000 0.000000
v -0.250001 0.125000 -0.125000
vt 0.687655 0.374733
vn -0.000000 1.000000 0.000000
v 0.000000 0.125000 -0.125000
vt 0.749841 0.374733
vn -0.000000 1.000000 0.000000
v 0.000000 0.124999 0.625000
vt 0.749841 0.000668
vn -0.000000 1.000000 0.000000
v -0.250001 -0.125001 0.625000
vt 0.750235 0.499567
vn -0.000000 0.000000 1.000000
v -0.250001 0.124999 0.625000
vt 0.750235 0.375194
vn -0.000000 0.000000 1.000000
v 0.000000 0.124999 0.625000
vt 0.812428 0.375194
vn -0.000000 0.000000 1.000000
v 0.000000 -0.125001 0.625000
vt 0.812428 0.499567
vn -0.000000 0.000000 1.000000
v 0.000000 -0.125001 0.625000
vt 0.812329 0.000492
vn 1.000000 0.000000 0.000000
v 0.000000 0.124999 0.625000
vt 0.750077 0.000492
vn 1.000000 0.000000 0.000000
v 0.000000 0.125000 -0.125000
vt 0.750077 0.374866
vn 1.000000 0.000000 0.000000
v 0.000000 -0.125000 -0.125000
vt 0.812329 0.374867
vn 1.000000 0.000000 0.000000
v 0.000000 -0.125000 -0.125000
vt 0.687622 0.499776
vn -0.000000 0.000000 -1.000000
v 0.000000 0.125000 -0.125000
vt 0.687622 0.375321
vn -0.000000 0.000000 -1.000000
v -0.250001 0.125000 -0.125000
vt 0.749881 0.375321
vn -0.000000 0.000000 -1.000000
v -0.250001 -0.125000 -0.125000
vt 0.749881 0.499776
vn -0.000000 0.000000 -1.000000
v -0.250001 -0.125000 -0.125000
vt 0.625148 0.374751
vn -1.000000 0.000000 0.000000
v -0.250001 0.125000 -0.125000
vt 0.687376 0.374750
vn -1.000000 0.000000 0.000000
v -0.250001 0.124999 0.625000
vt 0.687376 0.000238
vn -1.000000 0.000000 0.000000
v -0.250001 -0.125001 0.625000
vt 0.625148 0.000238
vn -1.000000 0.000000 0.000000
v 0.289769 -0.044766 0.650038
vt 0.687654 0.000189
vn -0.000000 0.965926 0.258818
v 0.098258 -0.003175 0.494816
vt 0.749555 0.000189
vn -0.000000 0.965926 0.258818
v 0.580348 0.145525 -0.060141
vt 0.749555 0.374516
vn -0.000000 0.965926 0.258818
v 0.771860 0.103933 0.095081
vt 0.687654 0.374516
vn -0.000000 0.965926 0.258818
v 0.289769 -0.286248 0.585333
vt 0.874239 0.001218
vn -0.000000 -0.965926 -0.258818
v 0.771860 -0.137549 0.030377
vt 0.874239 0.372373
vn -0.000000 -0.965926 -0.258818
v 0.580348 -0.095957 -0.124845
vt 0.813022 0.372373
vn -0.000000 -0.965926 -0.258818
v 0.098257 -0.244657 0.430111
vt 0.813023 0.001218
vn -0.000000 -0.965926 -0.258818
v 0.289769 -0.044766 0.650038
vt 0.750235 0.375194
vn -0.642788 -0.198266 0.739942
v 0.289769 -0.286248 0.585333
vt 0.750235 0.499567
vn -0.642788 -0.198266 0.739942
v 0.098257 -0.244657 0.430111
vt 0.812428 0.499567
vn -0.642788 -0.198266 0.739942
v 0.098258 -0.003175 0.494816
vt 0.812428 0.375194
vn -0.642788 -0.198266 0.739942
v 0.098258 -0.003175 0.494816
vt 0.750077 0.000492
vn -0.766044 0.166365 -0.620885
v 0.098257 -0.244657 0.430111
vt 0.812329 0.000492
vn -0.766044 0.166365 -0.620885
v 0.580348 -0.095957 -0.124845
vt 0.812329 0.374866
vn -0.766044 0.166365 -0.620885
v 0.580348 0.145525 -0.060141
vt 0.750077 0.374867
vn -0.766044 0.166365 -0.620885
v 0.580348 0.145525 -0.060141
vt 0.687622 0.375321
vn 0.642788 0.198266 -0.739942
v 0.580348 -0.095957 -0.124845
vt 0.687622 0.499776
vn 0.642788 0.198266 -0.739942
v 0.771860 -0.137549 0.030377
vt 0.749881 0.499776
vn 0.642788 0.198266 -0.739942
v 0.771860 0.103933 0.095081
vt 0.749881 0.375321
vn 0.642788 0.198266 -0.739942
v 0.771860 0.103933 0.095081
vt 0.687376 0.374751
vn 0.766044 -0.166365 0.620885
v 0.771860 -0.137549 0.030377
vt 0.625148 0.374750
vn 0.766044 -0.166365 0.620885
v 0.289769 -0.286248 0.585333
vt 0.625148 0.000238
vn 0.766044 -0.166365 0.620885
v 0.289769 -0.044766 0.650038
vt 0.687376 0.000238
vn 0.766044 -0.166365 0.620885
# Faces (1 to 48)
f -46/-46/-46 -47/-47/-47 -48/-48/-48
f -45/-45/-45 -46/-46/-46 -48/-48/-48
f -42/-42/-42 -43/-43/-43 -44/-44/-44
f -41/-41/-41 -42/-42/-42 -44/-44/-44
f -38/-38/-38 -39/-39/-39 -40/-40/-40
f -37/-37/-37 -38/-38/-38 -40/-40/-40
f -34/-34/-34 -35/-35/-35 -36/-36/-36
f -33/-33/-33 -34/-34/-34 -36/-36/-36
f -30/-30/-30 -31/-31/-31 -32/-32/-32
f -29/-29/-29 -30/-30/-30 -32/-32/-32
f -26/-26/-26 -27/-27/-27 -28/-28/-28
f -25/-25/-25 -26/-26/-26 -28/-28/-28
f -22/-22/-22 -23/-23/-23 -24/-24/-24
f -21/-21/-21 -22/-22/-22 -24/-24/-24
f -18/-18/-18 -19/-19/-19 -20/-20/-20
f -17/-17/-17 -18/-18/-18 -20/-20/-20
f -14/-14/-14 -15/-15/-15 -16/-16/-16
f -13/-13/-13 -14/-14/-14 -16/-16/-16
f -10/-10/-10 -11/-11/-11 -12/-12/-12
f -9/-9/-9 -10/-10/-10 -12/-12/-12
f -6/-6/-6 -7/-7/-7 -8/-8/-8
f -5/-5/-5 -6/-6/-6 -8/-8/-8
f -2/-2/-2 -3/-3/-3 -4/-4/-4
f -1/-1/-1 -2/-2/-2 -4/-4/-4

