g Arms_Mesh
v -0.2500009 -0.6249995 -0.1250009
v 5.722046E-08 -0.6249996 -0.1250008
v 4.005432E-07 0.125 -0.1250004
v -0.2500006 0.1250001 -0.1250005
v -0.250001 -0.6249996 0.1249995
v -0.2500007 0.1249999 0.1249999
v 3.242493E-07 0.1249999 0.125
v -1.907349E-08 -0.6249997 0.1249996
v -0.2500009 -0.6249995 -0.1250009
v -0.250001 -0.6249996 0.1249995
v -1.907349E-08 -0.6249997 0.1249996
v 5.722046E-08 -0.6249996 -0.1250008
v 5.722046E-08 -0.6249996 -0.1250008
v -1.907349E-08 -0.6249997 0.1249996
v 3.242493E-07 0.1249999 0.125
v 4.005432E-07 0.125 -0.1250004
v 4.005432E-07 0.125 -0.1250004
v 3.242493E-07 0.1249999 0.125
v -0.2500007 0.1249999 0.1249999
v -0.2500006 0.1250001 -0.1250005
v -0.2500006 0.1250001 -0.1250005
v -0.2500007 0.1249999 0.1249999
v -0.250001 -0.6249996 0.1249995
v -0.2500009 -0.6249995 -0.1250009
v 0.7476208 -0.123826 -0.6261801
v 0.4976819 -0.1182517 -0.6263077
v 0.4971194 -0.1263043 0.1236488
v 0.7470584 -0.1318786 0.1237763
v 0.7531934 0.126098 -0.6234924
v 0.752631 0.1180454 0.1264641
v 0.502692 0.1236197 0.1263366
v 0.5032545 0.1316723 -0.6236199
v 0.7476208 -0.123826 -0.6261801
v 0.7531934 0.126098 -0.6234924
v 0.5032545 0.1316723 -0.6236199
v 0.4976819 -0.1182517 -0.6263077
v 0.4976819 -0.1182517 -0.6263077
v 0.5032545 0.1316723 -0.6236199
v 0.502692 0.1236197 0.1263366
v 0.4971194 -0.1263043 0.1236488
v 0.4971194 -0.1263043 0.1236488
v 0.502692 0.1236197 0.1263366
v 0.752631 0.1180454 0.1264641
v 0.7470584 -0.1318786 0.1237763
v 0.7470584 -0.1318786 0.1237763
v 0.752631 0.1180454 0.1264641
v 0.7531934 0.126098 -0.6234924
v 0.7476208 -0.123826 -0.6261801
vt 0.8749058 0.0002772452
vt 0.8125199 0.0002772452
vt 0.8125199 0.3749776
vt 0.8749058 0.3749776
vt 0.6876549 0.0006676987
vt 0.6876549 0.3747333
vt 0.7498414 0.3747333
vt 0.7498413 0.0006676987
vt 0.7502348 0.4997762
vt 0.7502348 0.3754026
vt 0.8124284 0.3754026
vt 0.8124284 0.4997762
vt 0.8123293 0.0004921891
vt 0.7500771 0.0004921574
vt 0.7500771 0.3748665
vt 0.8123293 0.3748665
vt 0.6876221 0.4996488
vt 0.6876222 0.3751937
vt 0.7498814 0.3751937
vt 0.7498813 0.4996489
vt 0.6251479 0.3747509
vt 0.6873756 0.3747505
vt 0.6873756 0.0002376686
vt 0.6251479 0.0002380711
vt 0.6876548 0.0002772452
vt 0.7500407 0.0002772452
vt 0.7500407 0.3749776
vt 0.6876548 0.3749776
vt 0.8749057 0.0006676987
vt 0.8749057 0.3747333
vt 0.8127192 0.3747333
vt 0.8127192 0.0006676987
vt 0.7502348 0.3754026
vt 0.7502348 0.4997762
vt 0.8124284 0.4997762
vt 0.8124284 0.3754026
vt 0.750077 0.0004921891
vt 0.8123292 0.0004921574
vt 0.8123292 0.3748665
vt 0.750077 0.3748665
vt 0.6876221 0.3751937
vt 0.6876222 0.4996488
vt 0.7498814 0.4996488
vt 0.7498813 0.3751937
vt 0.6873756 0.3747509
vt 0.6251479 0.3747505
vt 0.6251479 0.0002376686
vt 0.6873756 0.0002380711
vn 0 5.205485E-07 -1
vn 0 5.205485E-07 -1
vn 0 5.205485E-07 -1
vn 0 5.205485E-07 -1
vn 0 -5.205485E-07 1
vn 0 -5.205485E-07 1
vn 0 -5.205485E-07 1
vn 0 -5.205485E-07 1
vn 0 -1 -5.130865E-07
vn 0 -1 -5.205485E-07
vn 0 -1 -5.205485E-07
vn 0 -1 -5.130865E-07
vn 1 0 2.980346E-07
vn 1 0 0
vn 1 0 0
vn 1 0 2.980346E-07
vn 0 1 5.130922E-07
vn 0 1 5.205485E-07
vn 0 1 5.205485E-07
vn 0 1 5.130922E-07
vn -1 0 -2.980346E-07
vn -1 0 0
vn -1 0 0
vn -1 0 -2.980346E-07
vn -0.02289345 -0.9996808 -0.01068413
vn -0.02290219 -0.9996805 -0.01068821
vn -0.02213053 -0.9996896 -0.01144735
vn -0.0221265 -0.9996982 -0.01068228
vn 0.02210524 0.9996903 0.01143426
vn 0.02212228 0.9996983 0.01068024
vn 0.02288472 0.9996811 0.01068006
vn 0.02212237 0.9997022 0.01029886
vn 0 0.01106432 -0.9999388
vn 0.0007630237 0.01068285 -0.9999427
vn 0 0.01067878 -0.999943
vn 0.000762728 0.01125076 -0.9999365
vn -0.9997466 0.0224962 -0.0007625716
vn -0.9997469 0.02249621 -0.00038128
vn -0.9997466 0.0224962 -0.0007625716
vn -0.9997501 0.02230564 -0.00152516
vn -0.0003813673 -0.01048812 0.9999449
vn 0 -0.01067878 0.999943
vn -0.000763315 -0.01068693 0.9999427
vn -0.0007627328 -0.01067878 0.9999427
vn 0.9997509 -0.02230566 0.000762575
vn 0.9997547 -0.02213197 0.00076316
vn 0.9997466 -0.0224962 0.0007625716
vn 0.9997553 -0.0221151 0.0003812834
g Arms_Mesh_0
f 3/3/3 2/2/2 1/1/1
f 4/4/4 3/3/3 1/1/1
f 7/7/7 6/6/6 5/5/5
f 8/8/8 7/7/7 5/5/5
f 11/11/11 10/10/10 9/9/9
f 12/12/12 11/11/11 9/9/9
f 15/15/15 14/14/14 13/13/13
f 16/16/16 15/15/15 13/13/13
f 19/19/19 18/18/18 17/17/17
f 20/20/20 19/19/19 17/17/17
f 23/23/23 22/22/22 21/21/21
f 24/24/24 23/23/23 21/21/21
f 27/27/27 26/26/26 25/25/25
f 28/28/28 27/27/27 25/25/25
f 31/31/31 30/30/30 29/29/29
f 32/32/32 31/31/31 29/29/29
f 35/35/35 34/34/34 33/33/33
f 36/36/36 35/35/35 33/33/33
f 39/39/39 38/38/38 37/37/37
f 40/40/40 39/39/39 37/37/37
f 43/43/43 42/42/42 41/41/41
f 44/44/44 43/43/43 41/41/41
f 47/47/47 46/46/46 45/45/45
f 48/48/48 47/47/47 45/45/45
