g Arms_Mesh
v 0.5006111 -0.06458641 0.1448657
v 0.750485 -0.06340538 -0.6051756
v 0.5004869 -0.06458747 -0.6051342
v 0.7506092 -0.06340446 0.1448244
v 0.4994289 0.1854111 0.1448656
v 0.749303 0.1865921 -0.6051759
v 0.7494271 0.1865931 0.1448243
v 0.4993047 0.18541 -0.6051344
v 0.4993047 0.18541 -0.6051344
v 0.750485 -0.06340538 -0.6051756
v 0.749303 0.1865921 -0.6051759
v 0.5004869 -0.06458747 -0.6051342
v 0.4994289 0.1854111 0.1448656
v 0.5004869 -0.06458747 -0.6051342
v 0.4993047 0.18541 -0.6051344
v 0.5006111 -0.06458641 0.1448657
v 0.7494271 0.1865931 0.1448243
v 0.5006111 -0.06458641 0.1448657
v 0.4994289 0.1854111 0.1448656
v 0.7506092 -0.06340446 0.1448244
v 0.749303 0.1865921 -0.6051759
v 0.7506092 -0.06340446 0.1448244
v 0.7494271 0.1865931 0.1448243
v 0.750485 -0.06340538 -0.6051756
vt 0.7500407 0.3749776
vt 0.6876548 0.0006760309
vt 0.7500407 0.0006760309
vt 0.6876548 0.3749776
vt 0.8127192 0.3747333
vt 0.8749057 0.0006760309
vt 0.8749057 0.3747333
vt 0.8127192 0.0006760309
vt 0.8124284 0.4997762
vt 0.7502348 0.3754026
vt 0.7502348 0.4997762
vt 0.8124284 0.3754026
vt 0.8123292 0.3748665
vt 0.750077 0.0006760309
vt 0.8123292 0.0006760309
vt 0.750077 0.3748665
vt 0.7498814 0.4996488
vt 0.6876221 0.3751937
vt 0.6876222 0.4996488
vt 0.7498813 0.3751937
vt 0.6251479 0.0006760309
vt 0.6873756 0.3747509
vt 0.6251479 0.3747505
vt 0.6873756 0.0006760309
vn 0.004727891 -0.9999888 4.793823E-07
vn 0.004728251 -0.9999888 5.99425E-07
vn 0.004728375 -0.9999888 6.410774E-07
vn 0.004727765 -0.9999888 4.377301E-07
vn -0.004728132 0.9999888 -5.602794E-07
vn -0.004728312 0.9999888 -6.204427E-07
vn -0.00472807 0.9999888 -5.39404E-07
vn -0.004728375 0.9999888 -6.413181E-07
vn -0.0001655518 -1.545742E-06 -1
vn -0.0001655518 -1.545743E-06 -1
vn -0.0001657036 -1.699031E-06 -1
vn -0.0001653999 -1.392454E-06 -1
vn -0.9999888 -0.004728585 0.0001656032
vn -0.9999888 -0.004728496 0.0001655732
vn -0.9999888 -0.004728464 0.0001655627
vn -0.9999888 -0.004728616 0.0001656136
vn 0.0001650857 1.286057E-06 1
vn 0.0001650857 1.286056E-06 1
vn 0.0001651911 1.181681E-06 1
vn 0.0001649803 1.390432E-06 1
vn 0.9999888 0.004728236 -0.0001656127
vn 0.9999888 0.004728234 -0.000165613
vn 0.9999888 0.004728234 -0.0001656131
vn 0.9999888 0.004728235 -0.0001656126
g Arms_Mesh_0
f 3/3/3 2/2/2 1/1/1
f 4/4/4 1/1/1 2/2/2
f 7/7/7 6/6/6 5/5/5
f 8/8/8 5/5/5 6/6/6
f 11/11/11 10/10/10 9/9/9
f 12/12/12 9/9/9 10/10/10
f 15/15/15 14/14/14 13/13/13
f 16/16/16 13/13/13 14/14/14
f 19/19/19 18/18/18 17/17/17
f 20/20/20 17/17/17 18/18/18
f 23/23/23 22/22/22 21/21/21
f 24/24/24 21/21/21 22/22/22
