g Arms_Mesh
v -0.2500007 -0.5645873 -0.1051356
v 2.670288E-07 -0.5645873 -0.1051356
v 2.670288E-07 0.1854125 -0.1051351
v -0.2500007 0.1854125 -0.1051351
v -0.2500007 -0.5645875 0.1448648
v -0.2500007 0.1854123 0.1448653
v 2.670288E-07 0.1854123 0.1448653
v 2.670288E-07 -0.5645875 0.1448648
v -0.2500007 -0.5645873 -0.1051356
v -0.2500007 -0.5645875 0.1448648
v 2.670288E-07 -0.5645875 0.1448648
v 2.670288E-07 -0.5645873 -0.1051356
v 2.670288E-07 -0.5645873 -0.1051356
v 2.670288E-07 -0.5645875 0.1448648
v 2.670288E-07 0.1854123 0.1448653
v 2.670288E-07 0.1854125 -0.1051351
v 2.670288E-07 0.1854125 -0.1051351
v 2.670288E-07 0.1854123 0.1448653
v -0.2500007 0.1854123 0.1448653
v -0.2500007 0.1854125 -0.1051351
v -0.2500007 0.1854125 -0.1051351
v -0.2500007 0.1854123 0.1448653
v -0.2500007 -0.5645875 0.1448648
v -0.2500007 -0.5645873 -0.1051356
v 0.2910912 -0.5811352 0.1361577
v 0.09896381 -0.4211741 0.1360302
v 0.5787932 0.1551516 0.1466182
v 0.7709206 -0.00480957 0.1467457
v 0.2934475 -0.5785045 -0.1138177
v 0.7732768 -0.002178817 -0.1032297
v 0.5811495 0.1577823 -0.1033573
v 0.10132 -0.4185433 -0.1139453
v 0.2910912 -0.5811352 0.1361577
v 0.2934475 -0.5785045 -0.1138177
v 0.10132 -0.4185433 -0.1139453
v 0.09896381 -0.4211741 0.1360302
v 0.09896381 -0.4211741 0.1360302
v 0.10132 -0.4185433 -0.1139453
v 0.5811495 0.1577823 -0.1033573
v 0.5787932 0.1551516 0.1466182
v 0.5787932 0.1551516 0.1466182
v 0.5811495 0.1577823 -0.1033573
v 0.7732768 -0.002178817 -0.1032297
v 0.7709206 -0.00480957 0.1467457
v 0.7709206 -0.00480957 0.1467457
v 0.7732768 -0.002178817 -0.1032297
v 0.2934475 -0.5785045 -0.1138177
v 0.2910912 -0.5811352 0.1361577
vt 0.8749058 0.0002772452
vt 0.8125199 0.0002772452
vt 0.8125199 0.3749776
vt 0.8749058 0.3749776
vt 0.6876549 0.0006676987
vt 0.6876549 0.3747333
vt 0.7498414 0.3747333
vt 0.7498413 0.0006676987
vt 0.7502348 0.4995673
vt 0.7502348 0.3751937
vt 0.8124284 0.3751937
vt 0.8124284 0.4995673
vt 0.8123293 0.0004921891
vt 0.7500771 0.0004921574
vt 0.7500771 0.3748665
vt 0.8123293 0.3748665
vt 0.6876221 0.4997762
vt 0.6876222 0.3753211
vt 0.7498814 0.3753211
vt 0.7498813 0.4997762
vt 0.6251479 0.3747509
vt 0.6873756 0.3747505
vt 0.6873756 0.0002376686
vt 0.6251479 0.0002380711
vt 0.6876548 0.0002772452
vt 0.7500407 0.0002772452
vt 0.7500407 0.3749776
vt 0.6876548 0.3749776
vt 0.8749057 0.0006676987
vt 0.8749057 0.3747333
vt 0.8127192 0.3747333
vt 0.8127192 0.0006676987
vt 0.7502348 0.3754026
vt 0.7502348 0.4997762
vt 0.8124284 0.4997762
vt 0.8124284 0.3754026
vt 0.750077 0.0004921891
vt 0.8123292 0.0004921574
vt 0.8123292 0.3748665
vt 0.750077 0.3748665
vt 0.6876221 0.3751937
vt 0.6876222 0.4996488
vt 0.7498814 0.4996488
vt 0.7498813 0.3751937
vt 0.6873756 0.3747509
vt 0.6251479 0.3747505
vt 0.6251479 0.0002376686
vt 0.6873756 0.0002380711
vn 0 0 -1
vn 0 0 -1
vn 0 0 -1
vn 0 0 -1
vn 0 0 1
vn 0 0 1
vn 0 0 1
vn 0 0 1
vn 0 -1 0
vn 0 -1 0
vn 0 -1 0
vn 0 -1 0
vn 1 0 0
vn 1 0 0
vn 1 0 0
vn 1 0 0
vn 0 1 0
vn 0 1 0
vn 0 1 0
vn 0 1 0
vn -1 0 0
vn -1 0 0
vn -1 0 0
vn -1 0 0
vn -0.009424956 -0.01052282 0.9999002
vn -0.009424956 -0.01052282 0.9999002
vn -0.009424956 -0.01052282 0.9999002
vn -0.009424956 -0.01052282 0.9999002
vn 0.009424915 0.01052289 -0.9999002
vn 0.009424915 0.01052289 -0.9999002
vn 0.009424915 0.01052289 -0.9999002
vn 0.009424915 0.01052289 -0.9999002
vn -0.6397726 -0.7684346 -0.01411735
vn -0.6397726 -0.7684346 -0.01411735
vn -0.6397726 -0.7684346 -0.01411735
vn -0.6397726 -0.7684346 -0.01411735
vn -0.7685063 0.6398419 -0.0005100906
vn -0.7685063 0.6398419 -0.0005100906
vn -0.7685063 0.6398419 -0.0005100906
vn -0.7685063 0.6398419 -0.0005100906
vn 0.6397728 0.7684344 0.01411752
vn 0.6397728 0.7684344 0.01411752
vn 0.6397728 0.7684344 0.01411752
vn 0.6397728 0.7684344 0.01411752
vn 0.7685063 -0.6398419 0.0005102206
vn 0.7685063 -0.6398419 0.0005102206
vn 0.7685063 -0.6398419 0.0005102206
vn 0.7685063 -0.6398419 0.0005102206
g Arms_Mesh_0
f 3/3/3 2/2/2 1/1/1
f 4/4/4 3/3/3 1/1/1
f 7/7/7 6/6/6 5/5/5
f 8/8/8 7/7/7 5/5/5
f 11/11/11 10/10/10 9/9/9
f 12/12/12 11/11/11 9/9/9
f 15/15/15 14/14/14 13/13/13
f 16/16/16 15/15/15 13/13/13
f 19/19/19 18/18/18 17/17/17
f 20/20/20 19/19/19 17/17/17
f 23/23/23 22/22/22 21/21/21
f 24/24/24 23/23/23 21/21/21
f 27/27/27 26/26/26 25/25/25
f 28/28/28 27/27/27 25/25/25
f 31/31/31 30/30/30 29/29/29
f 32/32/32 31/31/31 29/29/29
f 35/35/35 34/34/34 33/33/33
f 36/36/36 35/35/35 33/33/33
f 39/39/39 38/38/38 37/37/37
f 40/40/40 39/39/39 37/37/37
f 43/43/43 42/42/42 41/41/41
f 44/44/44 43/43/43 41/41/41
f 47/47/47 46/46/46 45/45/45
f 48/48/48 47/47/47 45/45/45
