g Arms_Mesh
v -0.2500008 -0.6249996 -0.125001
v 2.765655E-07 -0.6249996 -0.125001
v 2.765655E-07 0.125 -0.1250004
v -0.2500008 0.125 -0.1250004
v -0.2500008 -0.6249998 0.1249992
v -0.2500008 0.1249998 0.1249999
v 2.765655E-07 0.1249998 0.1249999
v 2.765655E-07 -0.6249998 0.1249992
v -0.2500008 -0.6249996 -0.125001
v -0.2500008 -0.6249998 0.1249992
v 2.765655E-07 -0.6249998 0.1249992
v 2.765655E-07 -0.6249996 -0.125001
v 2.765655E-07 -0.6249996 -0.125001
v 2.765655E-07 -0.6249998 0.1249992
v 2.765655E-07 0.1249998 0.1249999
v 2.765655E-07 0.125 -0.1250004
v 2.765655E-07 0.125 -0.1250004
v 2.765655E-07 0.1249998 0.1249999
v -0.2500008 0.1249998 0.1249999
v -0.2500008 0.125 -0.1250004
v -0.2500008 0.125 -0.1250004
v -0.2500008 0.1249998 0.1249999
v -0.2500008 -0.6249998 0.1249992
v -0.2500008 -0.6249996 -0.125001
v 0.2286938 -0.6177536 0.1162924
v 0.05332039 -0.439583 0.1161649
v 0.5877725 0.08648605 0.1267529
v 0.7631459 -0.09168441 0.1268804
v 0.2312986 -0.6153686 -0.1336832
v 0.7657507 -0.08929947 -0.1230951
v 0.5903773 0.088871 -0.1232227
v 0.05592518 -0.4371981 -0.1338107
v 0.2286938 -0.6177536 0.1162924
v 0.2312986 -0.6153686 -0.1336832
v 0.05592518 -0.4371981 -0.1338107
v 0.05332039 -0.439583 0.1161649
v 0.05332039 -0.439583 0.1161649
v 0.05592518 -0.4371981 -0.1338107
v 0.5903773 0.088871 -0.1232227
v 0.5877725 0.08648605 0.1267529
v 0.5877725 0.08648605 0.1267529
v 0.5903773 0.088871 -0.1232227
v 0.7657507 -0.08929947 -0.1230951
v 0.7631459 -0.09168441 0.1268804
v 0.7631459 -0.09168441 0.1268804
v 0.7657507 -0.08929947 -0.1230951
v 0.2312986 -0.6153686 -0.1336832
v 0.2286938 -0.6177536 0.1162924
vt 0.8749058 0.0002772452
vt 0.8125199 0.0002772452
vt 0.8125199 0.3749776
vt 0.8749058 0.3749776
vt 0.6876549 0.0006676987
vt 0.6876549 0.3747333
vt 0.7498414 0.3747333
vt 0.7498413 0.0006676987
vt 0.7502348 0.4995673
vt 0.7502348 0.3751937
vt 0.8124284 0.3751937
vt 0.8124284 0.4995673
vt 0.8123293 0.0004921891
vt 0.7500771 0.0004921574
vt 0.7500771 0.3748665
vt 0.8123293 0.3748665
vt 0.6876221 0.4997762
vt 0.6876222 0.3753211
vt 0.7498814 0.3753211
vt 0.7498813 0.4997762
vt 0.6251479 0.3747509
vt 0.6873756 0.3747505
vt 0.6873756 0.0002376686
vt 0.6251479 0.0002380711
vt 0.6876548 0.0002772452
vt 0.7500407 0.0002772452
vt 0.7500407 0.3749776
vt 0.6876548 0.3749776
vt 0.8749057 0.0006676987
vt 0.8749057 0.3747333
vt 0.8127192 0.3747333
vt 0.8127192 0.0006676987
vt 0.7502348 0.3754026
vt 0.7502348 0.4997762
vt 0.8124284 0.4997762
vt 0.8124284 0.3754026
vt 0.750077 0.0004921891
vt 0.8123292 0.0004921574
vt 0.8123292 0.3748665
vt 0.750077 0.3748665
vt 0.6876221 0.3751937
vt 0.6876222 0.4996488
vt 0.7498814 0.4996488
vt 0.7498813 0.3751937
vt 0.6873756 0.3747509
vt 0.6251479 0.3747505
vt 0.6251479 0.0002376686
vt 0.6873756 0.0002380711
vn 0 0 -1
vn 0 0 -1
vn 0 0 -1
vn 0 0 -1
vn 0 0 1
vn 0 0 1
vn 0 0 1
vn 0 0 1
vn 0 -1 0
vn 0 -1 0
vn 0 -1 0
vn 0 -1 0
vn 1 0 0
vn 1 0 0
vn 1 0 0
vn 1 0 0
vn 0 1 0
vn 0 1 0
vn 0 1 0
vn 0 1 0
vn -1 0 0
vn -1 0 0
vn -1 0 0
vn -1 0 0
vn -0.01041895 -0.009539728 0.9999002
vn -0.01041895 -0.009539728 0.9999002
vn -0.01041895 -0.009539728 0.9999002
vn -0.01041895 -0.009539728 0.9999002
vn 0.010419 0.009539675 -0.9999002
vn 0.010419 0.009539675 -0.9999002
vn 0.010419 0.009539675 -0.9999002
vn 0.010419 0.009539675 -0.9999002
vn -0.7126027 -0.7014257 -0.01411756
vn -0.7126027 -0.7014257 -0.01411756
vn -0.7126027 -0.7014257 -0.01411756
vn -0.7126027 -0.7014257 -0.01411756
vn -0.7014902 0.7126789 -0.0005100901
vn -0.7014902 0.7126789 -0.0005100901
vn -0.7014902 0.7126789 -0.0005100901
vn -0.7014902 0.7126789 -0.0005100901
vn 0.7126027 0.7014257 0.01411751
vn 0.7126027 0.7014257 0.01411751
vn 0.7126027 0.7014257 0.01411751
vn 0.7126027 0.7014257 0.01411751
vn 0.7014903 -0.7126788 0.0005102855
vn 0.7014903 -0.7126788 0.0005102855
vn 0.7014903 -0.7126788 0.0005102855
vn 0.7014903 -0.7126788 0.0005102855
g Arms_Mesh_0
f 3/3/3 2/2/2 1/1/1
f 4/4/4 3/3/3 1/1/1
f 7/7/7 6/6/6 5/5/5
f 8/8/8 7/7/7 5/5/5
f 11/11/11 10/10/10 9/9/9
f 12/12/12 11/11/11 9/9/9
f 15/15/15 14/14/14 13/13/13
f 16/16/16 15/15/15 13/13/13
f 19/19/19 18/18/18 17/17/17
f 20/20/20 19/19/19 17/17/17
f 23/23/23 22/22/22 21/21/21
f 24/24/24 23/23/23 21/21/21
f 27/27/27 26/26/26 25/25/25
f 28/28/28 27/27/27 25/25/25
f 31/31/31 30/30/30 29/29/29
f 32/32/32 31/31/31 29/29/29
f 35/35/35 34/34/34 33/33/33
f 36/36/36 35/35/35 33/33/33
f 39/39/39 38/38/38 37/37/37
f 40/40/40 39/39/39 37/37/37
f 43/43/43 42/42/42 41/41/41
f 44/44/44 43/43/43 41/41/41
f 47/47/47 46/46/46 45/45/45
f 48/48/48 47/47/47 45/45/45
