g Arms_Mesh
v 3.242493E-07 -0.01315621 -0.1764186
v -0.2500007 -0.01315621 -0.1764186
v -0.2500007 -0.5761605 0.3190871
v 3.242493E-07 -0.5761605 0.3190871
v 3.242493E-07 0.1520127 0.01124962
v 3.242493E-07 -0.4109915 0.5067554
v -0.2500007 -0.4109915 0.5067554
v -0.2500007 0.1520127 0.01124962
v 3.242493E-07 -0.4109915 0.5067554
v 3.242493E-07 -0.5761605 0.3190871
v -0.2500007 -0.5761605 0.3190871
v -0.2500007 -0.4109915 0.5067554
v 3.242493E-07 0.1520127 0.01124962
v 3.242493E-07 -0.01315621 -0.1764186
v 3.242493E-07 -0.5761605 0.3190871
v 3.242493E-07 -0.4109915 0.5067554
v -0.2500007 0.1520127 0.01124962
v -0.2500007 -0.01315621 -0.1764186
v 3.242493E-07 -0.01315621 -0.1764186
v 3.242493E-07 0.1520127 0.01124962
v -0.2500007 -0.4109915 0.5067554
v -0.2500007 -0.5761605 0.3190871
v -0.2500007 -0.01315621 -0.1764186
v -0.2500007 0.1520127 0.01124962
v 0.5064492 0.06242856 -0.153845
v 0.5099859 -0.6598961 0.0479817
v 0.7595875 -0.6549738 0.06122398
v 0.7560506 0.06735074 -0.1406027
v 0.4923708 0.1295343 0.08656885
v 0.7419724 0.1344566 0.09981123
v 0.745509 -0.5878681 0.3016378
v 0.4959076 -0.5927903 0.2883955
v 0.4959076 -0.5927903 0.2883955
v 0.745509 -0.5878681 0.3016378
v 0.7595875 -0.6549738 0.06122398
v 0.5099859 -0.6598961 0.0479817
v 0.4923708 0.1295343 0.08656885
v 0.4959076 -0.5927903 0.2883955
v 0.5099859 -0.6598961 0.0479817
v 0.5064492 0.06242856 -0.153845
v 0.7419724 0.1344566 0.09981123
v 0.4923708 0.1295343 0.08656885
v 0.5064492 0.06242856 -0.153845
v 0.7560506 0.06735074 -0.1406027
v 0.745509 -0.5878681 0.3016378
v 0.7419724 0.1344566 0.09981123
v 0.7560506 0.06735074 -0.1406027
v 0.7595875 -0.6549738 0.06122398
vt 0.8125199 0.3749776
vt 0.8749058 0.3749776
vt 0.8749058 0.0002772452
vt 0.8125199 0.0002772452
vt 0.7498414 0.3747333
vt 0.7498413 0.0006676987
vt 0.6876549 0.0006676987
vt 0.6876549 0.3747333
vt 0.8124283 0.3751937
vt 0.8124283 0.4995674
vt 0.7502348 0.4995674
vt 0.7502348 0.3751937
vt 0.7500771 0.3748665
vt 0.8123293 0.3748665
vt 0.8123293 0.0004921891
vt 0.7500771 0.0004921574
vt 0.7498814 0.3753211
vt 0.7498813 0.4997762
vt 0.6876221 0.4997762
vt 0.6876222 0.3753211
vt 0.6873756 0.0002376686
vt 0.6251479 0.0002380711
vt 0.6251479 0.3747509
vt 0.6873756 0.3747505
vt 0.8125199 0.3749776
vt 0.8125199 0.0002772452
vt 0.8749058 0.0002772452
vt 0.8749058 0.3749776
vt 0.7498414 0.3747333
vt 0.6876549 0.3747333
vt 0.6876549 0.0006676987
vt 0.7498413 0.0006676987
vt 0.8124283 0.3751937
vt 0.7502348 0.3751937
vt 0.7502348 0.4995674
vt 0.8124283 0.4995674
vt 0.7500771 0.3748665
vt 0.7500771 0.0004921574
vt 0.8123293 0.0004921891
vt 0.8123293 0.3748665
vt 0.7498814 0.3753211
vt 0.6876222 0.3753211
vt 0.6876221 0.4997762
vt 0.7498813 0.4997762
vt 0.6873756 0.0002376686
vt 0.6873756 0.3747505
vt 0.6251479 0.3747509
vt 0.6251479 0.0002380711
vn 0 -0.6606624 -0.7506832
vn 0 -0.6606624 -0.7506832
vn 0 -0.660686 -0.7506624
vn 0 -0.660686 -0.7506624
vn 0 0.6606624 0.7506832
vn 0 0.6605548 0.7507778
vn 0 0.6605548 0.7507778
vn 0 0.6606624 0.7506832
vn 0 -0.7506832 0.6606624
vn 0 -0.7507542 0.6605817
vn 0 -0.7507542 0.6605817
vn 0 -0.7506832 0.6606624
vn 1 0 0
vn 1 0 0
vn 1 0 0
vn 1 0 0
vn 0 0.7507778 -0.6605548
vn 0 0.7506416 -0.6607096
vn 0 0.7506416 -0.6607096
vn 0 0.7507778 -0.6605548
vn -1 0 0
vn -1 0 0
vn -1 0 0
vn -1 0 0
vn 0.05571615 -0.2684679 -0.9616759
vn 0.05568714 -0.2689003 -0.9615569
vn 0.0549367 -0.268961 -0.9615831
vn 0.05800128 -0.2682559 -0.9616001
vn -0.05569286 0.2685464 0.9616554
vn -0.05646371 0.2685841 0.9615999
vn -0.05493788 0.2682037 0.9617945
vn -0.05607372 0.2681621 0.9617406
vn 0.004960487 -0.9630977 0.2691064
vn 0.006105177 -0.9630916 0.2691047
vn 0.003052239 -0.9629813 0.2695508
vn 0.004579506 -0.9632229 0.2686644
vn -0.9983997 -0.01964753 -0.05302925
vn -0.9984096 -0.01944954 -0.05291418
vn -0.9983552 -0.0198374 -0.05378987
vn -0.9983768 -0.01983025 -0.05338914
vn -0.004577726 0.963039 -0.2693229
vn -0.00457712 0.9631024 -0.2690965
vn -0.005722123 0.9630334 -0.2693212
vn -0.004577824 0.9632505 -0.2685657
vn 0.9984046 0.01981566 0.05287353
vn 0.9984133 0.0196253 0.05277872
vn 0.9983463 0.02022643 0.05380995
vn 0.9983741 0.0191113 0.05370274
g Arms_Mesh_0
f 3/3/3 2/2/2 1/1/1
f 4/4/4 3/3/3 1/1/1
f 7/7/7 6/6/6 5/5/5
f 8/8/8 7/7/7 5/5/5
f 11/11/11 10/10/10 9/9/9
f 12/12/12 11/11/11 9/9/9
f 15/15/15 14/14/14 13/13/13
f 16/16/16 15/15/15 13/13/13
f 19/19/19 18/18/18 17/17/17
f 20/20/20 19/19/19 17/17/17
f 23/23/23 22/22/22 21/21/21
f 24/24/24 23/23/23 21/21/21
f 27/27/27 26/26/26 25/25/25
f 28/28/28 27/27/27 25/25/25
f 31/31/31 30/30/30 29/29/29
f 32/32/32 31/31/31 29/29/29
f 35/35/35 34/34/34 33/33/33
f 36/36/36 35/35/35 33/33/33
f 39/39/39 38/38/38 37/37/37
f 40/40/40 39/39/39 37/37/37
f 43/43/43 42/42/42 41/41/41
f 44/44/44 43/43/43 41/41/41
f 47/47/47 46/46/46 45/45/45
f 48/48/48 47/47/47 45/45/45
