g Arms_Mesh_runner
v -0.2502893 0.1264431 -0.6245937
v -0.0002887154 0.1268799 -0.6246207
v -0.0002039337 0.1246237 0.1253754
v -0.2502045 0.1241869 0.1254023
v -0.2498526 -0.1235556 -0.6253459
v -0.2497678 -0.1258119 0.1246502
v 0.0002327633 -0.1253751 0.1246233
v 0.0001479816 -0.1231189 -0.6253728
v -0.2502893 0.1264431 -0.6245937
v -0.2498526 -0.1235556 -0.6253459
v 0.0001479816 -0.1231189 -0.6253728
v -0.0002887154 0.1268799 -0.6246207
v -0.0002887154 0.1268799 -0.6246207
v 0.0001479816 -0.1231189 -0.6253728
v 0.0002327633 -0.1253751 0.1246233
v -0.0002039337 0.1246237 0.1253754
v -0.0002039337 0.1246237 0.1253754
v 0.0002327633 -0.1253751 0.1246233
v -0.2497678 -0.1258119 0.1246502
v -0.2502045 0.1241869 0.1254023
v -0.2502045 0.1241869 0.1254023
v -0.2497678 -0.1258119 0.1246502
v -0.2498526 -0.1235556 -0.6253459
v -0.2502893 0.1264431 -0.6245937
v 0.7280477 -0.3000028 -0.6675266
v 0.4780468 -0.2999724 -0.6670901
v 0.479357 -0.2965664 0.08290073
v 0.7293575 -0.2965967 0.08246429
v 0.7280756 -0.05000489 -0.6686621
v 0.7293858 -0.04659898 0.08132881
v 0.4793853 -0.04656874 0.08176536
v 0.478075 -0.04997475 -0.6682255
v 0.7280477 -0.3000028 -0.6675266
v 0.7280756 -0.05000489 -0.6686621
v 0.478075 -0.04997475 -0.6682255
v 0.4780468 -0.2999724 -0.6670901
v 0.4780468 -0.2999724 -0.6670901
v 0.478075 -0.04997475 -0.6682255
v 0.4793853 -0.04656874 0.08176536
v 0.479357 -0.2965664 0.08290073
v 0.479357 -0.2965664 0.08290073
v 0.4793853 -0.04656874 0.08176536
v 0.7293858 -0.04659898 0.08132881
v 0.7293575 -0.2965967 0.08246429
v 0.7293575 -0.2965967 0.08246429
v 0.7293858 -0.04659898 0.08132881
v 0.7280756 -0.05000489 -0.6686621
v 0.7280477 -0.3000028 -0.6675266
vt 0.8749058 0.0002772452
vt 0.8125199 0.0002772452
vt 0.8125199 0.3749776
vt 0.8749058 0.3749776
vt 0.6876549 0.0006676987
vt 0.6876549 0.3747333
vt 0.7498414 0.3747333
vt 0.7498413 0.0006676987
vt 0.7502348 0.4995673
vt 0.7502348 0.3751937
vt 0.8124284 0.3751937
vt 0.8124284 0.4995673
vt 0.8123293 0.0004921891
vt 0.7500771 0.0004921574
vt 0.7500771 0.3748665
vt 0.8123293 0.3748665
vt 0.6876221 0.4997762
vt 0.6876222 0.3753211
vt 0.7498814 0.3753211
vt 0.7498813 0.4997762
vt 0.6251479 0.3747509
vt 0.6873756 0.3747505
vt 0.6873756 0.0002376686
vt 0.6251479 0.0002380711
vt 0.6876538 0.0001886674
vt 0.7495552 0.0001886674
vt 0.7495552 0.3745163
vt 0.6876538 0.3745163
vt 0.8742388 0.001217939
vt 0.8742388 0.372373
vt 0.8130225 0.372373
vt 0.8130226 0.001217939
vt 0.7502348 0.3751937
vt 0.7502348 0.4995673
vt 0.8124284 0.4995673
vt 0.8124284 0.3751937
vt 0.750077 0.0004921891
vt 0.8123292 0.0004921574
vt 0.8123292 0.3748665
vt 0.750077 0.3748665
vt 0.6876221 0.3753211
vt 0.6876222 0.4997762
vt 0.7498814 0.4997762
vt 0.7498813 0.375321
vt 0.6873756 0.3747509
vt 0.6251479 0.3747505
vt 0.6251479 0.0002376686
vt 0.6873756 0.0002380711
vn -0.001746793 0.9999939 0.003008516
vn -0.001746793 0.9999939 0.003008516
vn -0.001746793 0.9999939 0.003008516
vn -0.001746793 0.9999939 0.003008516
vn 0.001746793 -0.9999939 -0.003008516
vn 0.001746793 -0.9999939 -0.003008516
vn 0.001746793 -0.9999939 -0.003008516
vn 0.001746793 -0.9999939 -0.003008516
vn -0.0001129823 0.003008379 -0.9999955
vn -0.0001129823 0.003008379 -0.9999955
vn -0.0001129823 0.003008379 -0.9999955
vn -0.0001129823 0.003008379 -0.9999955
vn 0.9999985 0.001747118 -0.0001077867
vn 0.9999985 0.001747118 -0.0001077867
vn 0.9999985 0.001747118 -0.0001077867
vn 0.9999985 0.001747118 -0.0001077867
vn 0.0001129824 -0.003008379 0.9999955
vn 0.0001129824 -0.003008379 0.9999955
vn 0.0001129824 -0.003008379 0.9999955
vn 0.0001129824 -0.003008379 0.9999955
vn -0.9999985 -0.001747118 0.000107774
vn -0.9999985 -0.001747118 0.000107774
vn -0.9999985 -0.001747118 0.000107774
vn -0.9999985 -0.001747118 0.000107774
vn -0.0001132245 -0.9999897 0.004541628
vn -0.0001132244 -0.9999897 0.004541628
vn -0.0001132244 -0.9999897 0.004541628
vn -0.0001132244 -0.9999897 0.004541628
vn 0.0001128033 0.9999897 -0.004541488
vn 0.0001128033 0.9999897 -0.004541488
vn 0.0001128033 0.9999897 -0.004541488
vn 0.0001128033 0.9999897 -0.004541488
vn -0.001746587 -0.004541568 -0.9999882
vn -0.001746586 -0.004541568 -0.9999882
vn -0.001746587 -0.004541568 -0.9999882
vn -0.001746587 -0.004541568 -0.9999882
vn -0.9999985 0.0001210002 0.001746448
vn -0.9999985 0.0001210002 0.001746448
vn -0.9999985 0.0001210002 0.001746448
vn -0.9999985 0.0001210002 0.001746448
vn 0.001746512 0.004541493 0.9999882
vn 0.001746512 0.004541493 0.9999882
vn 0.001746512 0.004541493 0.9999882
vn 0.001746512 0.004541493 0.9999882
vn 0.9999985 -0.000120389 -0.001746145
vn 0.9999985 -0.000120389 -0.001746145
vn 0.9999985 -0.000120389 -0.001746145
vn 0.9999985 -0.000120389 -0.001746145
g Arms_Mesh_runner_0
f 3/3/3 2/2/2 1/1/1
f 4/4/4 3/3/3 1/1/1
f 7/7/7 6/6/6 5/5/5
f 8/8/8 7/7/7 5/5/5
f 11/11/11 10/10/10 9/9/9
f 12/12/12 11/11/11 9/9/9
f 15/15/15 14/14/14 13/13/13
f 16/16/16 15/15/15 13/13/13
f 19/19/19 18/18/18 17/17/17
f 20/20/20 19/19/19 17/17/17
f 23/23/23 22/22/22 21/21/21
f 24/24/24 23/23/23 21/21/21
f 27/27/27 26/26/26 25/25/25
f 28/28/28 27/27/27 25/25/25
f 31/31/31 30/30/30 29/29/29
f 32/32/32 31/31/31 29/29/29
f 35/35/35 34/34/34 33/33/33
f 36/36/36 35/35/35 33/33/33
f 39/39/39 38/38/38 37/37/37
f 40/40/40 39/39/39 37/37/37
f 43/43/43 42/42/42 41/41/41
f 44/44/44 43/43/43 41/41/41
f 47/47/47 46/46/46 45/45/45
f 48/48/48 47/47/47 45/45/45
