# Mesh "Arms_mesh" exported with Unity Assets Bundle Extractor; 48 vertices, 72 indices, 32 bytes per vertex
g Arms_mesh
# SubMesh 0
# Vertices
v -0.249999 0.125002 -0.125000
vt 0.749947 0.499796
vn 0.000011 1.000000 0.000000
v 0.000001 0.125000 -0.125000
vt 0.687630 0.499796
vn 0.000011 1.000000 0.000000
v 0.000001 0.125000 0.125000
vt 0.687630 0.375123
vn 0.000011 1.000000 0.000000
v -0.249999 0.125002 0.125000
vt 0.749947 0.375123
vn 0.000011 1.000000 0.000000
v -0.000007 -0.625001 0.125000
vt 0.812459 0.375123
vn -0.000011 -1.000000 0.000000
v -0.000007 -0.625001 -0.125000
vt 0.812459 0.499796
vn -0.000011 -1.000000 0.000000
v -0.250007 -0.624998 -0.125000
vt 0.750142 0.499796
vn -0.000011 -1.000000 0.000000
v -0.250007 -0.624998 0.125000
vt 0.750142 0.375123
vn -0.000011 -1.000000 0.000000
v -0.250007 -0.624998 0.125000
vt 0.687464 0.000121
vn -1.000000 0.000011 0.000000
v -0.250007 -0.624998 -0.125000
vt 0.625034 0.000121
vn -1.000000 0.000011 0.000000
v -0.249999 0.125002 -0.125000
vt 0.625034 0.374913
vn -1.000000 0.000011 0.000000
v -0.249999 0.125002 0.125000
vt 0.687464 0.374913
vn -1.000000 0.000011 0.000000
v -0.250007 -0.624998 -0.125000
vt 0.874961 0.000080
vn -0.000000 0.000000 -1.000000
v -0.000007 -0.625001 -0.125000
vt 0.812484 0.000080
vn -0.000000 0.000000 -1.000000
v 0.000001 0.125000 -0.125000
vt 0.812484 0.374995
vn -0.000000 0.000000 -1.000000
v -0.249999 0.125002 -0.125000
vt 0.874961 0.374994
vn -0.000000 0.000000 -1.000000
v -0.000007 -0.625001 0.125000
vt 0.750047 0.000121
vn 1.000000 -0.000011 0.000000
v 0.000001 0.125000 0.125000
vt 0.750047 0.374913
vn 1.000000 -0.000011 0.000000
v 0.000001 0.125000 -0.125000
vt 0.812476 0.374913
vn 1.000000 -0.000011 0.000000
v -0.000007 -0.625001 -0.125000
vt 0.812476 0.000121
vn 1.000000 -0.000011 0.000000
v -0.250007 -0.624998 0.125000
vt 0.687509 0.000080
vn -0.000000 0.000000 1.000000
v -0.249999 0.125002 0.125000
vt 0.687509 0.374995
vn -0.000000 0.000000 1.000000
v 0.000001 0.125000 0.125000
vt 0.749987 0.374994
vn -0.000000 0.000000 1.000000
v -0.000007 -0.625001 0.125000
vt 0.749987 0.000080
vn -0.000000 0.000000 1.000000
v 0.540517 0.086867 0.104548
vt 0.687630 0.375123
vn 0.602314 0.798134 0.014124
v 0.558945 0.077370 -0.144590
vt 0.687630 0.499796
vn 0.602314 0.798134 0.014124
v 0.757658 -0.072951 -0.124162
vt 0.749947 0.499796
vn 0.602314 0.798134 0.014124
v 0.739231 -0.063454 0.124975
vt 0.749947 0.375123
vn 0.602314 0.798134 0.014124
v 0.305921 -0.671553 -0.134755
vt 0.750142 0.499796
vn -0.602314 -0.798135 -0.014124
v 0.107208 -0.521232 -0.155183
vt 0.812459 0.499796
vn -0.602314 -0.798135 -0.014124
v 0.088781 -0.511735 0.093955
vt 0.812459 0.375123
vn -0.602314 -0.798135 -0.014124
v 0.287495 -0.662056 0.114382
vt 0.750142 0.375123
vn -0.602314 -0.798135 -0.014124
v 0.757658 -0.072951 -0.124162
vt 0.625034 0.374913
vn 0.794849 -0.601281 0.081710
v 0.305921 -0.671553 -0.134755
vt 0.625034 0.000121
vn 0.794849 -0.601281 0.081710
v 0.287495 -0.662056 0.114382
vt 0.687464 0.000121
vn 0.794849 -0.601281 0.081710
v 0.739231 -0.063454 0.124975
vt 0.687464 0.374913
vn 0.794849 -0.601281 0.081710
v 0.558945 0.077370 -0.144590
vt 0.812484 0.374995
vn 0.073708 -0.037989 -0.996556
v 0.107208 -0.521232 -0.155183
vt 0.812484 0.000080
vn 0.073708 -0.037989 -0.996556
v 0.305921 -0.671553 -0.134755
vt 0.874961 0.000080
vn 0.073708 -0.037989 -0.996556
v 0.757658 -0.072951 -0.124162
vt 0.874961 0.374994
vn 0.073708 -0.037989 -0.996556
v 0.558945 0.077370 -0.144590
vt 0.812476 0.374913
vn -0.794849 0.601281 -0.081710
v 0.540517 0.086867 0.104548
vt 0.750047 0.374913
vn -0.794849 0.601281 -0.081710
v 0.088781 -0.511735 0.093955
vt 0.750047 0.000121
vn -0.794849 0.601281 -0.081710
v 0.107208 -0.521232 -0.155183
vt 0.812476 0.000121
vn -0.794849 0.601281 -0.081710
v 0.540517 0.086867 0.104548
vt 0.749987 0.374994
vn -0.073708 0.037989 0.996556
v 0.739231 -0.063454 0.124975
vt 0.687509 0.374995
vn -0.073708 0.037989 0.996556
v 0.287495 -0.662056 0.114382
vt 0.687509 0.000080
vn -0.073708 0.037989 0.996556
v 0.088781 -0.511735 0.093955
vt 0.749987 0.000080
vn -0.073708 0.037989 0.996556
# Faces (1 to 48)
f -46/-46/-46 -47/-47/-47 -48/-48/-48
f -45/-45/-45 -46/-46/-46 -48/-48/-48
f -42/-42/-42 -43/-43/-43 -44/-44/-44
f -41/-41/-41 -42/-42/-42 -44/-44/-44
f -38/-38/-38 -39/-39/-39 -40/-40/-40
f -37/-37/-37 -38/-38/-38 -40/-40/-40
f -34/-34/-34 -35/-35/-35 -36/-36/-36
f -33/-33/-33 -34/-34/-34 -36/-36/-36
f -30/-30/-30 -31/-31/-31 -32/-32/-32
f -29/-29/-29 -30/-30/-30 -32/-32/-32
f -26/-26/-26 -27/-27/-27 -28/-28/-28
f -25/-25/-25 -26/-26/-26 -28/-28/-28
f -22/-22/-22 -23/-23/-23 -24/-24/-24
f -21/-21/-21 -22/-22/-22 -24/-24/-24
f -18/-18/-18 -19/-19/-19 -20/-20/-20
f -17/-17/-17 -18/-18/-18 -20/-20/-20
f -14/-14/-14 -15/-15/-15 -16/-16/-16
f -13/-13/-13 -14/-14/-14 -16/-16/-16
f -10/-10/-10 -11/-11/-11 -12/-12/-12
f -9/-9/-9 -10/-10/-10 -12/-12/-12
f -6/-6/-6 -7/-7/-7 -8/-8/-8
f -5/-5/-5 -6/-6/-6 -8/-8/-8
f -2/-2/-2 -3/-3/-3 -4/-4/-4
f -1/-1/-1 -2/-2/-2 -4/-4/-4

