g assault2_ground
v -436.1044 -0.2474464 228.5845
v -741.9509 -0.2475877 -227.5878
v -436.1046 -0.2475877 -227.5879
v -741.9505 -0.2474464 228.5846
v -741.951 -0.247729 -683.7603
v -436.1048 -0.247729 -683.7604
v -741.951 -0.2478703 -1139.933
v -436.1049 -0.2478703 -1139.933
v -741.9513 -0.2480115 -1596.105
v -436.1051 -0.2480115 -1596.105
v -1047.797 -0.2475877 -227.5877
v -1047.797 -0.2474464 228.5847
v -741.9504 -0.2473051 684.757
v -1047.797 -0.2473051 684.7571
v -741.9503 -0.2471638 1140.93
v -1047.796 -0.2471638 1140.93
v -741.9501 -0.2470226 1597.102
v -1047.796 -0.2470226 1597.102
v -1353.643 -0.2475877 -227.5877
v -1353.643 -0.2474464 228.5848
v -1047.797 -0.2480115 -1596.105
v -1047.797 -0.2478703 -1139.933
v -1353.644 -0.2480115 -1596.105
v -1353.644 -0.2478703 -1139.933
v -1047.797 -0.247729 -683.7602
v -1353.643 -0.247729 -683.7601
v -436.104 -0.2470226 1597.102
v -1353.642 -0.2471638 1140.93
v -1353.642 -0.2470226 1597.102
v -1353.642 -0.2473051 684.7573
v -436.1041 -0.2471638 1140.929
v -130.2579 -0.2470226 1597.102
v -130.2581 -0.2471638 1140.929
v -436.1043 -0.2473051 684.7568
v -130.2582 -0.2473051 684.7568
v -130.2584 -0.2474464 228.5844
v -130.2585 -0.2475877 -227.588
v -130.2587 -0.247729 -683.7604
v -130.2588 -0.2478703 -1139.933
v -130.259 -0.2480115 -1596.105
v 158.3886 -0.2475877 -227.588
v 158.3887 -0.2474464 228.5844
v 158.3889 -0.2473051 684.7568
v 158.389 -0.2471638 1140.929
v 158.3892 -0.2470226 1597.102
v 447.0359 -0.2474464 228.5844
v 447.0357 -0.2475877 -227.588
v 447.0355 -0.247729 -683.7604
v 158.3884 -0.247729 -683.7604
v 447.0354 -0.2478703 -1139.933
v 158.3883 -0.2478703 -1139.933
v 447.0352 -0.2480115 -1596.105
v 158.3881 -0.2480115 -1596.105
v 447.0363 -0.2470226 1597.102
v 447.0361 -0.2471638 1140.929
v 447.036 -0.2473051 684.7568
vt 19.78369 -261.6998
vt -323.1341 262.7
vt 19.78366 262.7
vt -323.1342 -261.6998
vt -323.134 787.0999
vt 19.78375 787.0999
vt -323.1339 1311.5
vt 19.78384 1311.5
vt -323.1339 1835.9
vt 19.78394 1835.9
vt -666.052 262.7
vt -666.0519 -261.6998
vt -323.1342 -786.0997
vt -666.052 -786.0997
vt -323.1343 -1310.5
vt -666.0521 -1310.5
vt -323.1344 -1834.899
vt -666.0522 -1834.899
vt -1008.97 262.7001
vt -1008.97 -261.6998
vt -666.0517 1835.9
vt -666.0518 1311.5
vt -1008.969 1835.9
vt -1008.969 1311.5
vt -666.0519 787.1
vt -1008.97 787.1
vt 19.78345 -1834.899
vt -1008.97 -1310.5
vt -1008.97 -1834.899
vt -1008.97 -786.0997
vt 19.78351 -1310.5
vt 362.7011 -1834.899
vt 362.7012 -1310.5
vt 19.78363 -786.0996
vt 362.7013 -786.0996
vt 362.7014 -261.6998
vt 362.7014 262.7
vt 362.7015 787.0999
vt 362.7016 1311.5
vt 362.7017 1835.9
vt 686.3356 262.6999
vt 686.3354 -261.7
vt 686.3354 -786.0998
vt 686.3353 -1310.5
vt 686.3352 -1834.9
vt 1009.97 -261.7001
vt 1009.97 262.6998
vt 1009.97 787.0997
vt 686.3357 787.0998
vt 1009.97 1311.5
vt 686.3358 1311.5
vt 1009.97 1835.899
vt 686.3358 1835.9
vt 1009.969 -1834.9
vt 1009.969 -1310.5
vt 1009.97 -786.1
vn 0 1 0
vn 0 1 0
vn 0 1 0
vn 0 1 0
vn 0 1 0
vn 0 1 0
vn 0 1 0
vn 0 1 0
vn 0 1 0
vn 0 1 0
vn 0 1 0
vn 0 1 0
vn 0 1 0
vn 0 1 0
vn 0 1 0
vn 0 1 0
vn 0 1 0
vn 0 1 0
vn 0 1 0
vn 0 1 0
vn 0 1 0
vn 0 1 0
vn 0 1 0
vn 0 1 0
vn 0 1 0
vn 0 1 0
vn 0 1 0
vn 0 1 0
vn 0 1 0
vn 0 1 0
vn 0 1 0
vn 0 1 0
vn 0 1 0
vn 0 1 0
vn 0 1 0
vn 0 1 0
vn 0 1 0
vn 0 1 0
vn 0 1 0
vn 0 1 0
vn 0 1 0
vn 0 1 0
vn 0 1 0
vn 0 1 0
vn 0 1 0
vn 0 1 0
vn 0 1 0
vn 0 1 0
vn 0 1 0
vn 0 1 0
vn 0 1 0
vn 0 1 0
vn 0 1 0
vn 0 1 0
vn 0 1 0
vn 0 1 0
g assault2_ground_0
f 3/3/3 2/2/2 1/1/1
f 4/4/4 1/1/1 2/2/2
f 2/2/2 3/3/3 5/5/5
f 6/6/6 5/5/5 3/3/3
f 5/5/5 6/6/6 7/7/7
f 8/8/8 7/7/7 6/6/6
f 7/7/7 8/8/8 9/9/9
f 10/10/10 9/9/9 8/8/8
f 2/2/2 11/11/11 4/4/4
f 12/12/12 4/4/4 11/11/11
f 4/4/4 12/12/12 13/13/13
f 14/14/14 13/13/13 12/12/12
f 13/13/13 14/14/14 15/15/15
f 16/16/16 15/15/15 14/14/14
f 15/15/15 16/16/16 17/17/17
f 18/18/18 17/17/17 16/16/16
f 11/11/11 19/19/19 12/12/12
f 20/20/20 12/12/12 19/19/19
f 12/12/12 20/20/20 14/14/14
f 9/9/9 21/21/21 7/7/7
f 22/22/22 7/7/7 21/21/21
f 21/21/21 23/23/23 22/22/22
f 24/24/24 22/22/22 23/23/23
f 22/22/22 24/24/24 25/25/25
f 26/26/26 25/25/25 24/24/24
f 25/25/25 26/26/26 11/11/11
f 19/19/19 11/11/11 26/26/26
f 25/25/25 5/5/5 22/22/22
f 7/7/7 22/22/22 5/5/5
f 5/5/5 25/25/25 2/2/2
f 11/11/11 2/2/2 25/25/25
f 17/17/17 27/27/27 15/15/15
f 16/16/16 28/28/28 18/18/18
f 29/29/29 18/18/18 28/28/28
f 28/28/28 16/16/16 30/30/30
f 14/14/14 30/30/30 16/16/16
f 30/30/30 14/14/14 20/20/20
f 27/27/27 32/32/32 31/31/31
f 33/33/33 31/31/31 32/32/32
f 31/31/31 15/15/15 27/27/27
f 31/31/31 33/33/33 34/34/34
f 35/35/35 34/34/34 33/33/33
f 15/15/15 31/31/31 13/13/13
f 34/34/34 13/13/13 31/31/31
f 34/34/34 35/35/35 1/1/1
f 36/36/36 1/1/1 35/35/35
f 1/1/1 36/36/36 3/3/3
f 37/37/37 3/3/3 36/36/36
f 3/3/3 37/37/37 6/6/6
f 38/38/38 6/6/6 37/37/37
f 6/6/6 38/38/38 8/8/8
f 39/39/39 8/8/8 38/38/38
f 8/8/8 39/39/39 10/10/10
f 40/40/40 10/10/10 39/39/39
f 13/13/13 34/34/34 4/4/4
f 1/1/1 4/4/4 34/34/34
g assault2_ground_1
f 37/37/37 36/36/36 41/41/41
f 42/42/42 41/41/41 36/36/36
f 36/36/36 35/35/35 42/42/42
f 43/43/43 42/42/42 35/35/35
f 35/35/35 33/33/33 43/43/43
f 44/44/44 43/43/43 33/33/33
f 33/33/33 32/32/32 44/44/44
f 45/45/45 44/44/44 32/32/32
f 42/42/42 46/46/46 41/41/41
f 47/47/47 41/41/41 46/46/46
f 47/47/47 48/48/48 41/41/41
f 49/49/49 41/41/41 48/48/48
f 48/48/48 50/50/50 49/49/49
f 51/51/51 49/49/49 50/50/50
f 50/50/50 52/52/52 51/51/51
f 53/53/53 51/51/51 52/52/52
f 45/45/45 54/54/54 44/44/44
f 55/55/55 44/44/44 54/54/54
f 44/44/44 55/55/55 43/43/43
f 56/56/56 43/43/43 55/55/55
f 43/43/43 56/56/56 42/42/42
f 46/46/46 42/42/42 56/56/56
f 53/53/53 40/40/40 51/51/51
f 39/39/39 51/51/51 40/40/40
f 51/51/51 39/39/39 49/49/49
f 38/38/38 49/49/49 39/39/39
f 49/49/49 38/38/38 41/41/41
f 37/37/37 41/41/41 38/38/38
