g assault_ground
v -0.3792512 -0.1462301 0.0245953
v -0.4472558 -0.4472558 0.0245953
v -0.4472558 0.1446098 0.0245953
v -0.3792511 0.1446099 0.0245953
v -0.3792511 0.2740891 0.0245953
v -0.4472558 0.2740892 0.0245953
v -0.4472558 0.4472558 0.0245953
v 0.1856591 0.2740891 0.0245953
v 0.185197 0.1446106 0.0245953
v 0.4472558 0.2740891 0.0245953
v 0.4472558 0.4472558 0.0245953
v 0.4472558 0.144611 0.0245953
v 0.1841566 -0.1468845 0.0245953
v 0.1830845 -0.4472558 0.0245953
v -0.3792512 -0.4472558 0.0245953
v 0.4472558 -0.4472558 0.0245953
vt -50.99606 -19.35563
vt -60.22997 -60.22997
vt -60.22997 20.13564
vt -50.99604 20.13565
vt -50.99604 37.71679
vt -60.22997 37.7168
vt -60.22997 61.22998
vt 25.70944 37.71679
vt 25.6467 20.13575
vt 61.22998 37.71679
vt 61.22998 61.22998
vt 61.22998 20.13579
vt 25.50543 -19.44449
vt 25.35987 -60.22997
vt -50.99607 -60.22997
vt 61.22998 -60.22997
vn 0 0 1
vn 0 0 1
vn 0 0 1
vn 0 0 1
vn 0 0 1
vn 0 0 1
vn 0 0 1
vn 0 0 1
vn 0 0 1
vn 0 0 1
vn 0 0 1
vn 0 0 1
vn 0 0 1
vn 0 0 1
vn 0 0 1
vn 0 0 1
g assault_ground_0
f 3/3/3 2/2/2 1/1/1
f 4/4/4 3/3/3 1/1/1
f 3/3/3 4/4/4 5/5/5
f 6/6/6 3/3/3 5/5/5
f 7/7/7 6/6/6 5/5/5
f 5/5/5 4/4/4 8/8/8
f 5/5/5 8/8/8 7/7/7
f 4/4/4 9/9/9 8/8/8
f 4/4/4 1/1/1 9/9/9
f 8/8/8 9/9/9 10/10/10
f 11/11/11 8/8/8 10/10/10
f 8/8/8 11/11/11 7/7/7
f 9/9/9 12/12/12 10/10/10
f 1/1/1 13/13/13 9/9/9
f 13/13/13 1/1/1 14/14/14
f 1/1/1 15/15/15 14/14/14
f 15/15/15 1/1/1 2/2/2
f 16/16/16 13/13/13 14/14/14
f 9/9/9 13/13/13 16/16/16
f 12/12/12 9/9/9 16/16/16
