g Autodoor2_Zone1
v 9.683603 16.58601 2.69288
v 5.245534 16.58601 2.282383E-06
v 5.245534 16.58601 2.692879
v 9.683603 16.58601 2.282383E-06
v 5.245534 16.68601 2.69288
v 9.683603 16.68601 2.294304E-06
v 9.683603 16.68601 2.692879
v 5.245534 16.68601 2.294304E-06
v 6.023135 -11.46531 3.900002
v 5.323134 -11.46531 3.900003
v 5.323134 -11.46531 -1.061595E-06
v 6.023135 -11.46531 -1.061595E-06
v 5.323134 -11.56531 3.900002
v 6.023135 -11.56531 3.900002
v 6.023135 -11.5653 -1.073516E-06
v 5.323134 -11.5653 -1.073516E-06
v 6.023135 -11.46531 -1.061595E-06
v 6.023135 -11.5653 -1.073516E-06
v 6.023135 -11.56531 3.900002
v 6.023135 -11.46531 3.900002
v 8.934146 -11.56531 3.900002
v 8.934146 -11.5653 -1.073516E-06
v 8.934146 -11.46531 -1.061595E-06
v 8.934146 -11.46531 3.900002
v 9.634146 -11.46531 3.900002
v 8.934146 -11.46531 3.900002
v 8.934146 -11.46531 -1.061595E-06
v 9.634146 -11.46531 -1.061595E-06
v 9.683603 16.58601 3.900002
v 5.245534 16.58601 2.692879
v 5.245534 16.58601 3.900002
v 9.683603 16.58601 2.69288
v 5.245534 16.68601 3.900002
v 9.683603 16.68601 2.692879
v 9.683603 16.68601 3.900002
v 5.245534 16.68601 2.69288
v 9.634146 -11.5653 -1.073516E-06
v 8.934146 -11.5653 -1.073516E-06
v 8.934146 -11.56531 3.900002
v 9.634146 -11.56531 3.900002
vt 0.3271495 0.7851558
vt 0.432679 0.8486328
vt 0.432679 0.7851281
vt 0.3271484 0.8486328
vt 0.4326779 0.7851558
vt 0.3271484 0.8486328
vt 0.3271059 0.7851281
vt 0.432679 0.8486328
vt 0.3800533 0.8435051
vt 0.3896083 0.8435051
vt 0.3896084 0.79027
vt 0.3800533 0.79027
vt 0.3800349 0.8435019
vt 0.3895899 0.8435051
vt 0.3896084 0.79027
vt 0.3800533 0.7902668
vt 0.3800165 0.7902699
vt 0.3786514 0.7902699
vt 0.3786514 0.8435051
vt 0.3800164 0.8435051
vt 0.3800165 0.843503
vt 0.3800165 0.7902678
vt 0.3786513 0.7902678
vt 0.3786515 0.843503
vt 0.3690733 0.8435051
vt 0.3786283 0.8435051
vt 0.3786283 0.79027
vt 0.3690733 0.79027
vt 0.3271484 0.7793369
vt 0.4326791 0.8075632
vt 0.432679 0.7792969
vt 0.3271484 0.8075569
vt 0.432679 0.7793369
vt 0.3271032 0.8075632
vt 0.3270867 0.7792969
vt 0.432679 0.8075569
vt 0.3800165 0.79027
vt 0.3704615 0.79027
vt 0.3704614 0.8435051
vt 0.3800164 0.8435051
vn 1.276761E-06 -1 0
vn 1.276761E-06 -1 0
vn 1.276761E-06 -1 0
vn 0 -1 0
vn -6.383803E-07 1 0
vn -6.383803E-07 1 0
vn -6.383803E-07 1 0
vn 0 1 0
vn -1.397323E-06 1 2.200785E-06
vn -1.397323E-06 1 2.200785E-06
vn -1.397323E-06 1 2.200785E-06
vn -1.397323E-06 1 2.200785E-06
vn 0 -1 -2.200785E-06
vn 0 -1 -2.200785E-06
vn 0 -1 -2.200785E-06
vn 0 -1 -2.200785E-06
vn 1 0 0
vn 1 0 0
vn 1 0 0
vn 1 0 0
vn -1 0 0
vn -1 0 0
vn -1 0 0
vn -1 0 0
vn 0 1 2.200787E-06
vn 0 1 2.200787E-06
vn 0 1 2.200787E-06
vn 0 1 2.200787E-06
vn 7.120565E-07 -1 0
vn 7.120565E-07 -1 0
vn 7.120565E-07 -1 0
vn 0 -1 0
vn -1.424113E-06 1 0
vn -1.424113E-06 1 0
vn -1.424113E-06 1 0
vn 0 1 0
vn 0 -1 -2.200787E-06
vn 0 -1 -2.200787E-06
vn 0 -1 -2.200787E-06
vn 0 -1 -2.200787E-06
g Autodoor2_Zone1_0
f 3/3/3 2/2/2 1/1/1
f 4/4/4 1/1/1 2/2/2
f 7/7/7 6/6/6 5/5/5
f 8/8/8 5/5/5 6/6/6
f 11/11/11 10/10/10 9/9/9
f 12/12/12 11/11/11 9/9/9
f 15/15/15 14/14/14 13/13/13
f 16/16/16 15/15/15 13/13/13
f 19/19/19 18/18/18 17/17/17
f 20/20/20 19/19/19 17/17/17
f 23/23/23 22/22/22 21/21/21
f 24/24/24 23/23/23 21/21/21
f 27/27/27 26/26/26 25/25/25
f 28/28/28 27/27/27 25/25/25
f 31/31/31 30/30/30 29/29/29
f 32/32/32 29/29/29 30/30/30
f 35/35/35 34/34/34 33/33/33
f 36/36/36 33/33/33 34/34/34
f 39/39/39 38/38/38 37/37/37
f 40/40/40 39/39/39 37/37/37
