g avatar_halfmetal_mechanist_legs_mesh
v -0.1861335 0.8376009 0.1057918
v -0.1861335 0.8376009 0.1368141
v -0.1861335 0.6514673 0.136814
v -0.1861335 0.6514673 0.1057918
v 0 0.837601 -0.1423862
v 0 0.8376009 0.1057918
v 0 0.4653338 0.1057917
v 0 0.4653338 -0.1423863
v -0.03102225 0.3412448 -0.1734086
v -0.03102225 0.4653338 -0.1734085
v -0.03102225 0.4653338 0.136814
v -0.03102225 0.3412448 0.136814
v -0.09306677 0.6514673 0.1057918
v -0.09306677 0.6514673 0.136814
v -0.09306677 0.8376009 0.1368141
v -0.09306677 0.8376009 0.1057918
v -0.03102225 0.1861335 0.1368139
v -0.03102225 0.124089 0.1368139
v -0.03102225 0.124089 -0.1423863
v -0.03102225 0.124089 -0.1734086
v -0.03102225 0.1861335 -0.1734086
v 0.248178 2.958513E-08 -0.1423864
v 0.248178 -3.328327E-08 0.2298807
v 0.248178 0.124089 0.2298807
v 0.248178 0.124089 -0.1423863
v 0.248178 0.4653338 -0.1423863
v 0.248178 0.4653338 0.1057917
v 0.248178 0.8376009 0.1057918
v 0.248178 0.8376009 -0.1423862
v 0.2792003 0.124089 -0.1734086
v 0.2792003 0.124089 0.1368139
v 0.2792003 0.1861335 0.1368139
v 0.2792003 0.1861335 -0.1734086
v 0.2792003 0.3412448 -0.1734086
v 0.2792003 0.3412448 0.136814
v 0.2792003 0.4653338 0.136814
v 0.2792003 0.4653338 -0.1734085
v 0.248178 0.124089 0.2298807
v 0.248178 -3.328327E-08 0.2298807
v 0 -3.328327E-08 0.2298807
v 0 0.124089 0.2298807
v -0.09306677 0.8376009 0.1368141
v -0.09306677 0.6514673 0.136814
v -0.1861335 0.6514673 0.136814
v -0.1861335 0.8376009 0.1368141
v 0.2792003 0.4653338 0.136814
v 0.2792003 0.3412448 0.136814
v -0.03102225 0.3412448 0.136814
v -0.03102225 0.4653338 0.136814
v -0.03102225 0.1861335 0.1368139
v 0.2792003 0.1861335 0.1368139
v 0.2792003 0.124089 0.1368139
v -0.03102225 0.124089 0.1368139
v 0.248178 0.3412448 0.1057917
v 0.248178 0.1861335 0.1057917
v 0 0.1861335 0.1057917
v 0 0.3412448 0.1057917
v 0.248178 0.8376009 0.1057918
v 0.248178 0.4653338 0.1057917
v 0 0.4653338 0.1057917
v 0 0.8376009 0.1057918
v 0 0.124089 -0.1423863
v 0 2.958513E-08 -0.1423864
v 0.248178 2.958513E-08 -0.1423864
v 0.248178 0.124089 -0.1423863
v 0.248178 2.958513E-08 -0.1423864
v 0 2.958513E-08 -0.1423864
v 0 -3.328327E-08 0.2298807
v 0.248178 -3.328327E-08 0.2298807
v 0.2792003 0.124089 -0.1734086
v -0.03102225 0.124089 -0.1734086
v -0.03102225 0.124089 0.1368139
v 0.2792003 0.124089 0.1368139
v 0.248178 0.4653338 -0.1423863
v 0 0.4653338 -0.1423863
v 0 0.4653338 0.1057917
v 0.248178 0.4653338 0.1057917
v -0.09306677 0.6514673 0.1057918
v -0.1861335 0.6514673 0.1057918
v -0.1861335 0.6514673 0.136814
v -0.09306677 0.6514673 0.136814
v 0.248178 0.124089 0.2298807
v 0 0.124089 0.2298807
v 0 0.124089 -0.1423863
v 0.248178 0.124089 -0.1423863
v 0.2792003 0.4653338 0.136814
v -0.03102225 0.4653338 0.136814
v -0.03102225 0.4653338 -0.1734085
v 0.2792003 0.4653338 -0.1734085
v -0.09306677 0.8376009 0.1368141
v -0.1861335 0.8376009 0.1368141
v -0.1861335 0.8376009 0.1057918
v -0.09306677 0.8376009 0.1057918
v 0.248178 0.8376009 0.1057918
v 0 0.8376009 0.1057918
v 0 0.837601 -0.1423862
v 0.248178 0.8376009 -0.1423862
v 0.248178 0.1861335 -0.1423863
v 0.248178 0.1861335 0.1057917
v 0.248178 0.3412448 0.1057917
v 0.248178 0.3412448 -0.1423863
v 0 0.3412448 -0.1423863
v 0 0.3412448 0.1057917
v 0 0.1861335 0.1057917
v 0 0.1861335 -0.1423863
v -0.03102225 0.3412448 -0.1734086
v -0.03102225 0.3412448 0.136814
v 0.2792003 0.3412448 0.136814
v 0.2792003 0.3412448 -0.1734086
v -0.03102225 0.1861335 -0.1734086
v 0.2792003 0.1861335 -0.1734086
v 0.2792003 0.1861335 0.1368139
v -0.03102225 0.1861335 0.1368139
v 0.248178 0.8376009 -0.1423862
v 0 0.837601 -0.1423862
v 0 0.4653338 -0.1423863
v 0.248178 0.4653338 -0.1423863
v 0.2792003 0.4653338 -0.1734085
v -0.03102225 0.4653338 -0.1734085
v -0.03102225 0.3412448 -0.1734086
v 0.2792003 0.3412448 -0.1734086
v 0.248178 0.3412448 -0.1423863
v 0 0.3412448 -0.1423863
v 0 0.1861335 -0.1423863
v 0.248178 0.1861335 -0.1423863
v -0.03102225 0.1861335 -0.1734086
v -0.03102225 0.124089 -0.1734086
v 0.2792003 0.124089 -0.1734086
v 0.2792003 0.1861335 -0.1734086
v 0 2.958513E-08 -0.1423864
v 0 0.124089 -0.1423863
v 0 0.124089 0.2298807
v 0 -3.328327E-08 0.2298807
v -0.248178 0.837601 -0.1423862
v -0.248178 0.8376009 0.1057918
v -0.248178 0.4653338 0.1057917
v -0.248178 0.4653338 -0.1423863
v -0.2792003 0.3412448 -0.1734086
v -0.2792003 0.4653338 -0.1734085
v -0.2792003 0.4653338 0.136814
v -0.2792003 0.3412448 0.136814
v -0.2792003 0.1861335 0.1368139
v -0.2792003 0.124089 0.1368139
v -0.2792003 0.124089 -0.1423863
v -0.2792003 0.124089 -0.1734086
v -0.2792003 0.1861335 -0.1734086
v 0 2.958513E-08 -0.1423864
v 0 -3.328327E-08 0.2298807
v 0 0.124089 0.2298807
v 0 0.124089 -0.1423863
v 0 0.4653338 -0.1423863
v 0 0.4653338 0.1057917
v 0 0.8376009 0.1057918
v 0 0.8376009 -0.1423862
v 0.03102225 0.124089 -0.1734086
v 0.03102225 0.124089 0.1368139
v 0.03102225 0.1861335 0.1368139
v 0.03102225 0.1861335 -0.1734086
v 0.03102225 0.3412448 -0.1734086
v 0.03102225 0.3412448 0.136814
v 0.03102225 0.4653338 0.136814
v 0.03102225 0.4653338 -0.1734085
v 0 0.124089 0.2298807
v 0 -3.328327E-08 0.2298807
v -0.248178 -3.328327E-08 0.2298807
v -0.248178 0.124089 0.2298807
v 0.03102225 0.4653338 0.136814
v 0.03102225 0.3412448 0.136814
v -0.2792003 0.3412448 0.136814
v -0.2792003 0.4653338 0.136814
v -0.2792003 0.1861335 0.1368139
v 0.03102225 0.1861335 0.1368139
v 0.03102225 0.124089 0.1368139
v -0.2792003 0.124089 0.1368139
v 0 0.3412448 0.1057917
v 0 0.1861335 0.1057917
v -0.248178 0.1861335 0.1057917
v -0.248178 0.3412448 0.1057917
v 0 0.8376009 0.1057918
v 0 0.4653338 0.1057917
v -0.248178 0.4653338 0.1057917
v -0.248178 0.8376009 0.1057918
v -0.248178 0.124089 -0.1423863
v -0.248178 2.958513E-08 -0.1423864
v 0 2.958513E-08 -0.1423864
v 0 0.124089 -0.1423863
v 0 2.958513E-08 -0.1423864
v -0.248178 2.958513E-08 -0.1423864
v -0.248178 -3.328327E-08 0.2298807
v 0 -3.328327E-08 0.2298807
v 0.03102225 0.124089 -0.1734086
v -0.2792003 0.124089 -0.1734086
v -0.2792003 0.124089 0.1368139
v 0.03102225 0.124089 0.1368139
v 0 0.4653338 -0.1423863
v -0.248178 0.4653338 -0.1423863
v -0.248178 0.4653338 0.1057917
v 0 0.4653338 0.1057917
v 0 0.124089 0.2298807
v -0.248178 0.124089 0.2298807
v -0.248178 0.124089 -0.1423863
v 0 0.124089 -0.1423863
v 0.03102225 0.4653338 0.136814
v -0.2792003 0.4653338 0.136814
v -0.2792003 0.4653338 -0.1734085
v 0.03102225 0.4653338 -0.1734085
v 0 0.8376009 0.1057918
v -0.248178 0.8376009 0.1057918
v -0.248178 0.837601 -0.1423862
v 0 0.8376009 -0.1423862
v 0 0.1861335 -0.1423863
v 0 0.1861335 0.1057917
v 0 0.3412448 0.1057917
v 0 0.3412448 -0.1423863
v -0.248178 0.3412448 -0.1423863
v -0.248178 0.3412448 0.1057917
v -0.248178 0.1861335 0.1057917
v -0.248178 0.1861335 -0.1423863
v -0.2792003 0.3412448 -0.1734086
v -0.2792003 0.3412448 0.136814
v 0.03102225 0.3412448 0.136814
v 0.03102225 0.3412448 -0.1734086
v -0.2792003 0.1861335 -0.1734086
v 0.03102225 0.1861335 -0.1734086
v 0.03102225 0.1861335 0.1368139
v -0.2792003 0.1861335 0.1368139
v 0 0.8376009 -0.1423862
v -0.248178 0.837601 -0.1423862
v -0.248178 0.4653338 -0.1423863
v 0 0.4653338 -0.1423863
v 0.03102225 0.4653338 -0.1734085
v -0.2792003 0.4653338 -0.1734085
v -0.2792003 0.3412448 -0.1734086
v 0.03102225 0.3412448 -0.1734086
v 0 0.3412448 -0.1423863
v -0.248178 0.3412448 -0.1423863
v -0.248178 0.1861335 -0.1423863
v 0 0.1861335 -0.1423863
v -0.2792003 0.1861335 -0.1734086
v -0.2792003 0.124089 -0.1734086
v 0.03102225 0.124089 -0.1734086
v 0.03102225 0.1861335 -0.1734086
v -0.248178 2.958513E-08 -0.1423864
v -0.248178 0.124089 -0.1423863
v -0.248178 0.124089 0.2298807
v -0.248178 -3.328327E-08 0.2298807
vt 0.71875 0.0625
vt 0.7265625 0.0625
vt 0.7265625 0.015625
vt 0.71875 0.015625
vt 0.3203125 0.5546875
vt 0.3828125 0.5546875
vt 0.3828125 0.4609375
vt 0.3203125 0.4609375
vt 0.703125 0.609375
vt 0.734375 0.609375
vt 0.734375 0.53125
vt 0.703125 0.53125
vt 0.7578125 0.015625
vt 0.75 0.015625
vt 0.75 0.0625
vt 0.7578125 0.0625
vt 0.4921875 0.765625
vt 0.4921875 0.78125
vt 0.5625 0.78125
vt 0.5703125 0.78125
vt 0.5703125 0.765625
vt 0.78125 0.34375
vt 0.78125 0.25
vt 0.75 0.25
vt 0.75 0.34375
vt 0.5078125 0.4609375
vt 0.4453125 0.4609375
vt 0.4453125 0.5546875
vt 0.5078125 0.5546875
vt 0.3359375 0.78125
vt 0.4140625 0.78125
vt 0.4140625 0.765625
vt 0.3359375 0.765625
vt 0.703125 0.375
vt 0.703125 0.453125
vt 0.734375 0.453125
vt 0.734375 0.375
vt 0.75 0.25
vt 0.78125 0.25
vt 0.78125 0.1875
vt 0.75 0.1875
vt 0.75 0.0625
vt 0.75 0.015625
vt 0.7265625 0.015625
vt 0.7265625 0.0625
vt 0.734375 0.453125
vt 0.703125 0.453125
vt 0.703125 0.53125
vt 0.734375 0.53125
vt 0.4921875 0.765625
vt 0.4140625 0.765625
vt 0.4140625 0.78125
vt 0.4921875 0.78125
vt 0.2734375 0.8203125
vt 0.2734375 0.859375
vt 0.3359375 0.859375
vt 0.3359375 0.8203125
vt 0.4453125 0.5546875
vt 0.4453125 0.4609375
vt 0.3828125 0.4609375
vt 0.3828125 0.5546875
vt 0.75 0.40625
vt 0.78125 0.40625
vt 0.78125 0.34375
vt 0.75 0.34375
vt 0.78125 0.34375
vt 0.84375 0.34375
vt 0.84375 0.25
vt 0.78125 0.25
vt 0.4140625 0.859375
vt 0.4921875 0.859375
vt 0.4921875 0.78125
vt 0.4140625 0.78125
vt 0.4453125 0.3984375
vt 0.3828125 0.3984375
vt 0.3828125 0.4609375
vt 0.4453125 0.4609375
vt 0.75 0.0078125
vt 0.7265625 0.0078125
vt 0.7265625 0.015625
vt 0.75 0.015625
vt 0.75 0.25
vt 0.6875 0.25
vt 0.6875 0.34375
vt 0.75 0.34375
vt 0.734375 0.453125
vt 0.734375 0.53125
vt 0.8125 0.53125
vt 0.8125 0.453125
vt 0.75 0.0625
vt 0.7265625 0.0625
vt 0.7265625 0.0703125
vt 0.75 0.0703125
vt 0.4453125 0.5546875
vt 0.3828125 0.5546875
vt 0.3828125 0.6171875
vt 0.4453125 0.6171875
vt 0.2109375 0.859375
vt 0.2734375 0.859375
vt 0.2734375 0.8203125
vt 0.2109375 0.8203125
vt 0.3984375 0.8203125
vt 0.3359375 0.8203125
vt 0.3359375 0.859375
vt 0.3984375 0.859375
vt 0.625 0.53125
vt 0.703125 0.53125
vt 0.703125 0.453125
vt 0.625 0.453125
vt 0.4921875 0.6875
vt 0.4140625 0.6875
vt 0.4140625 0.765625
vt 0.4921875 0.765625
vt 0.4453125 0.5546875
vt 0.3828125 0.5546875
vt 0.3828125 0.4609375
vt 0.4453125 0.4609375
vt 0.734375 0.453125
vt 0.734375 0.53125
vt 0.703125 0.53125
vt 0.703125 0.453125
vt 0.2734375 0.8203125
vt 0.3359375 0.8203125
vt 0.3359375 0.859375
vt 0.2734375 0.859375
vt 0.4921875 0.765625
vt 0.4921875 0.78125
vt 0.4140625 0.78125
vt 0.4140625 0.765625
vt 0.78125 0.34375
vt 0.75 0.34375
vt 0.75 0.25
vt 0.78125 0.25
vt 0.3203125 0.5546875
vt 0.3828125 0.5546875
vt 0.3828125 0.4609375
vt 0.3203125 0.4609375
vt 0.703125 0.609375
vt 0.734375 0.609375
vt 0.734375 0.53125
vt 0.703125 0.53125
vt 0.4921875 0.765625
vt 0.4921875 0.78125
vt 0.5625 0.78125
vt 0.5703125 0.78125
vt 0.5703125 0.765625
vt 0.78125 0.34375
vt 0.78125 0.25
vt 0.75 0.25
vt 0.75 0.34375
vt 0.5078125 0.4609375
vt 0.4453125 0.4609375
vt 0.4453125 0.5546875
vt 0.5078125 0.5546875
vt 0.3359375 0.78125
vt 0.4140625 0.78125
vt 0.4140625 0.765625
vt 0.3359375 0.765625
vt 0.703125 0.375
vt 0.703125 0.453125
vt 0.734375 0.453125
vt 0.734375 0.375
vt 0.75 0.25
vt 0.78125 0.25
vt 0.78125 0.1875
vt 0.75 0.1875
vt 0.734375 0.453125
vt 0.703125 0.453125
vt 0.703125 0.53125
vt 0.734375 0.53125
vt 0.4921875 0.765625
vt 0.4140625 0.765625
vt 0.4140625 0.78125
vt 0.4921875 0.78125
vt 0.2734375 0.8203125
vt 0.2734375 0.859375
vt 0.3359375 0.859375
vt 0.3359375 0.8203125
vt 0.4453125 0.5546875
vt 0.4453125 0.4609375
vt 0.3828125 0.4609375
vt 0.3828125 0.5546875
vt 0.75 0.40625
vt 0.78125 0.40625
vt 0.78125 0.34375
vt 0.75 0.34375
vt 0.78125 0.34375
vt 0.84375 0.34375
vt 0.84375 0.25
vt 0.78125 0.25
vt 0.4140625 0.859375
vt 0.4921875 0.859375
vt 0.4921875 0.78125
vt 0.4140625 0.78125
vt 0.4453125 0.3984375
vt 0.3828125 0.3984375
vt 0.3828125 0.4609375
vt 0.4453125 0.4609375
vt 0.75 0.25
vt 0.6875 0.25
vt 0.6875 0.34375
vt 0.75 0.34375
vt 0.734375 0.453125
vt 0.734375 0.53125
vt 0.8125 0.53125
vt 0.8125 0.453125
vt 0.4453125 0.5546875
vt 0.3828125 0.5546875
vt 0.3828125 0.6171875
vt 0.4453125 0.6171875
vt 0.2109375 0.859375
vt 0.2734375 0.859375
vt 0.2734375 0.8203125
vt 0.2109375 0.8203125
vt 0.3984375 0.8203125
vt 0.3359375 0.8203125
vt 0.3359375 0.859375
vt 0.3984375 0.859375
vt 0.625 0.53125
vt 0.703125 0.53125
vt 0.703125 0.453125
vt 0.625 0.453125
vt 0.4921875 0.6875
vt 0.4140625 0.6875
vt 0.4140625 0.765625
vt 0.4921875 0.765625
vt 0.4453125 0.5546875
vt 0.3828125 0.5546875
vt 0.3828125 0.4609375
vt 0.4453125 0.4609375
vt 0.734375 0.453125
vt 0.734375 0.53125
vt 0.703125 0.53125
vt 0.703125 0.453125
vt 0.2734375 0.8203125
vt 0.3359375 0.8203125
vt 0.3359375 0.859375
vt 0.2734375 0.859375
vt 0.4921875 0.765625
vt 0.4921875 0.78125
vt 0.4140625 0.78125
vt 0.4140625 0.765625
vt 0.78125 0.34375
vt 0.75 0.34375
vt 0.75 0.25
vt 0.78125 0.25
vn -1 0 0
vn -1 0 0
vn -1 0 0
vn -1 0 0
vn -1 0 0
vn -1 0 0
vn -1 0 0
vn -1 0 0
vn -1 0 0
vn -1 0 0
vn -1 0 0
vn -1 0 0
vn 1 0 0
vn 1 0 0
vn 1 0 0
vn 1 0 0
vn -1 0 0
vn -1 0 0
vn -1 0 0
vn -1 0 0
vn -1 0 0
vn 1 0 0
vn 1 0 0
vn 1 0 0
vn 1 0 0
vn 1 0 0
vn 1 0 0
vn 1 0 0
vn 1 0 0
vn 1 0 0
vn 1 0 0
vn 1 0 0
vn 1 0 0
vn 1 0 0
vn 1 0 0
vn 1 0 0
vn 1 0 0
vn 0 -2.419321E-07 1
vn 0 -2.419321E-07 1
vn 0 -2.419321E-07 1
vn 0 -2.419321E-07 1
vn 0 -1.61288E-07 1
vn 0 -1.61288E-07 1
vn 0 -1.61288E-07 1
vn 0 -1.61288E-07 1
vn 0 -2.903184E-07 1
vn 0 -2.903184E-07 1
vn 0 -2.903184E-07 1
vn 0 -2.903184E-07 1
vn 0 0 1
vn 0 0 1
vn 0 0 1
vn 0 0 1
vn 0 -1.935457E-07 1
vn 0 -1.935457E-07 1
vn 0 -1.935457E-07 1
vn 0 -1.935457E-07 1
vn 0 -1.61288E-07 1
vn 0 -1.61288E-07 1
vn 0 -1.61288E-07 1
vn 0 -1.61288E-07 1
vn 0 2.41932E-07 -1
vn 0 2.41932E-07 -1
vn 0 2.41932E-07 -1
vn 0 2.41932E-07 -1
vn 0 -1 -1.688799E-07
vn 0 -1 -1.688799E-07
vn 0 -1 -1.688799E-07
vn 0 -1 -1.688799E-07
vn 0 -1 -1.681182E-07
vn 0 -1 -1.681182E-07
vn 0 -1 -1.681182E-07
vn 0 -1 -1.681182E-07
vn 0 -1 0
vn 0 -1 0
vn 0 -1 0
vn 0 -1 0
vn 0 -1 0
vn 0 -1 0
vn 0 -1 0
vn 0 -1 0
vn 0 1 1.801267E-07
vn 0 1 1.801267E-07
vn 0 1 1.801267E-07
vn 0 1 1.801267E-07
vn 0 1 0
vn 0 1 0
vn 0 1 0
vn 0 1 0
vn 0 1 0
vn 0 1 0
vn 0 1 0
vn 0 1 0
vn 0 1 1.200845E-07
vn 0 1 1.200845E-07
vn 0 1 1.200845E-07
vn 0 1 1.200845E-07
vn 1 0 0
vn 1 0 0
vn 1 0 0
vn 1 0 0
vn -1 0 0
vn -1 0 0
vn -1 0 0
vn -1 0 0
vn -1.548365E-07 -1 0
vn -1.548365E-07 -1 0
vn -1.548365E-07 -1 0
vn -1.548365E-07 -1 0
vn 0 1 0
vn 0 1 0
vn 0 1 0
vn 0 1 0
vn 0 1.20966E-07 -1
vn 0 1.20966E-07 -1
vn 0 1.20966E-07 -1
vn 0 1.20966E-07 -1
vn 0 3.870913E-07 -1
vn 0 3.870913E-07 -1
vn 0 3.870913E-07 -1
vn 0 3.870913E-07 -1
vn 0 1.935456E-07 -1
vn 0 1.935456E-07 -1
vn 0 1.935456E-07 -1
vn 0 1.935456E-07 -1
vn 0 0 -1
vn 0 0 -1
vn 0 0 -1
vn 0 0 -1
vn -1 0 0
vn -1 0 0
vn -1 0 0
vn -1 0 0
vn -1 0 0
vn -1 0 0
vn -1 0 0
vn -1 0 0
vn -1 0 0
vn -1 0 0
vn -1 0 0
vn -1 0 0
vn -1 0 0
vn -1 0 0
vn -1 0 0
vn -1 0 0
vn -1 0 0
vn 1 0 0
vn 1 0 0
vn 1 0 0
vn 1 0 0
vn 1 0 0
vn 1 0 0
vn 1 0 0
vn 1 0 0
vn 1 0 0
vn 1 0 0
vn 1 0 0
vn 1 0 0
vn 1 0 0
vn 1 0 0
vn 1 0 0
vn 1 0 0
vn 0 -2.419321E-07 1
vn 0 -2.419321E-07 1
vn 0 -2.419321E-07 1
vn 0 -2.419321E-07 1
vn 0 -2.903184E-07 1
vn 0 -2.903184E-07 1
vn 0 -2.903184E-07 1
vn 0 -2.903184E-07 1
vn 0 0 1
vn 0 0 1
vn 0 0 1
vn 0 0 1
vn 0 -1.935457E-07 1
vn 0 -1.935457E-07 1
vn 0 -1.935457E-07 1
vn 0 -1.935457E-07 1
vn 0 -1.61288E-07 1
vn 0 -1.61288E-07 1
vn 0 -1.61288E-07 1
vn 0 -1.61288E-07 1
vn 0 2.41932E-07 -1
vn 0 2.41932E-07 -1
vn 0 2.41932E-07 -1
vn 0 2.41932E-07 -1
vn 0 -1 -1.688799E-07
vn 0 -1 -1.688799E-07
vn 0 -1 -1.688799E-07
vn 0 -1 -1.688799E-07
vn 0 -1 -1.681182E-07
vn 0 -1 -1.681182E-07
vn 0 -1 -1.681182E-07
vn 0 -1 -1.681182E-07
vn 0 -1 0
vn 0 -1 0
vn 0 -1 0
vn 0 -1 0
vn 0 1 1.801267E-07
vn 0 1 1.801267E-07
vn 0 1 1.801267E-07
vn 0 1 1.801267E-07
vn 0 1 0
vn 0 1 0
vn 0 1 0
vn 0 1 0
vn 0 1 1.200845E-07
vn 0 1 1.200845E-07
vn 0 1 1.200845E-07
vn 0 1 1.200845E-07
vn 1 0 0
vn 1 0 0
vn 1 0 0
vn 1 0 0
vn -1 0 0
vn -1 0 0
vn -1 0 0
vn -1 0 0
vn -1.548365E-07 -1 0
vn -1.548365E-07 -1 0
vn -1.548365E-07 -1 0
vn -1.548365E-07 -1 0
vn 0 1 0
vn 0 1 0
vn 0 1 0
vn 0 1 0
vn 0 1.20966E-07 -1
vn 0 1.20966E-07 -1
vn 0 1.20966E-07 -1
vn 0 1.20966E-07 -1
vn 0 3.870913E-07 -1
vn 0 3.870913E-07 -1
vn 0 3.870913E-07 -1
vn 0 3.870913E-07 -1
vn 0 1.935456E-07 -1
vn 0 1.935456E-07 -1
vn 0 1.935456E-07 -1
vn 0 1.935456E-07 -1
vn 0 0 -1
vn 0 0 -1
vn 0 0 -1
vn 0 0 -1
vn -1 0 0
vn -1 0 0
vn -1 0 0
vn -1 0 0
g avatar_halfmetal_mechanist_legs_mesh_0
f 3/3/3 2/2/2 1/1/1
f 4/4/4 3/3/3 1/1/1
f 7/7/7 6/6/6 5/5/5
f 8/8/8 7/7/7 5/5/5
f 11/11/11 10/10/10 9/9/9
f 12/12/12 11/11/11 9/9/9
f 15/15/15 14/14/14 13/13/13
f 16/16/16 15/15/15 13/13/13
f 19/19/19 18/18/18 17/17/17
f 17/17/17 20/20/20 19/19/19
f 17/17/17 21/21/21 20/20/20
f 24/24/24 23/23/23 22/22/22
f 25/25/25 24/24/24 22/22/22
f 28/28/28 27/27/27 26/26/26
f 29/29/29 28/28/28 26/26/26
f 32/32/32 31/31/31 30/30/30
f 33/33/33 32/32/32 30/30/30
f 36/36/36 35/35/35 34/34/34
f 37/37/37 36/36/36 34/34/34
f 40/40/40 39/39/39 38/38/38
f 41/41/41 40/40/40 38/38/38
f 44/44/44 43/43/43 42/42/42
f 45/45/45 44/44/44 42/42/42
f 48/48/48 47/47/47 46/46/46
f 49/49/49 48/48/48 46/46/46
f 52/52/52 51/51/51 50/50/50
f 53/53/53 52/52/52 50/50/50
f 56/56/56 55/55/55 54/54/54
f 57/57/57 56/56/56 54/54/54
f 60/60/60 59/59/59 58/58/58
f 61/61/61 60/60/60 58/58/58
f 64/64/64 63/63/63 62/62/62
f 65/65/65 64/64/64 62/62/62
f 68/68/68 67/67/67 66/66/66
f 69/69/69 68/68/68 66/66/66
f 72/72/72 71/71/71 70/70/70
f 73/73/73 72/72/72 70/70/70
f 76/76/76 75/75/75 74/74/74
f 77/77/77 76/76/76 74/74/74
f 80/80/80 79/79/79 78/78/78
f 81/81/81 80/80/80 78/78/78
f 84/84/84 83/83/83 82/82/82
f 85/85/85 84/84/84 82/82/82
f 88/88/88 87/87/87 86/86/86
f 89/89/89 88/88/88 86/86/86
f 92/92/92 91/91/91 90/90/90
f 93/93/93 92/92/92 90/90/90
f 96/96/96 95/95/95 94/94/94
f 97/97/97 96/96/96 94/94/94
f 100/100/100 99/99/99 98/98/98
f 101/101/101 100/100/100 98/98/98
f 104/104/104 103/103/103 102/102/102
f 105/105/105 104/104/104 102/102/102
f 108/108/108 107/107/107 106/106/106
f 109/109/109 108/108/108 106/106/106
f 112/112/112 111/111/111 110/110/110
f 113/113/113 112/112/112 110/110/110
f 116/116/116 115/115/115 114/114/114
f 117/117/117 116/116/116 114/114/114
f 120/120/120 119/119/119 118/118/118
f 121/121/121 120/120/120 118/118/118
f 124/124/124 123/123/123 122/122/122
f 125/125/125 124/124/124 122/122/122
f 128/128/128 127/127/127 126/126/126
f 129/129/129 128/128/128 126/126/126
f 132/132/132 131/131/131 130/130/130
f 133/133/133 132/132/132 130/130/130
f 136/136/136 135/135/135 134/134/134
f 137/137/137 136/136/136 134/134/134
f 140/140/140 139/139/139 138/138/138
f 141/141/141 140/140/140 138/138/138
f 144/144/144 143/143/143 142/142/142
f 142/142/142 145/145/145 144/144/144
f 142/142/142 146/146/146 145/145/145
f 149/149/149 148/148/148 147/147/147
f 150/150/150 149/149/149 147/147/147
f 153/153/153 152/152/152 151/151/151
f 154/154/154 153/153/153 151/151/151
f 157/157/157 156/156/156 155/155/155
f 158/158/158 157/157/157 155/155/155
f 161/161/161 160/160/160 159/159/159
f 162/162/162 161/161/161 159/159/159
f 165/165/165 164/164/164 163/163/163
f 166/166/166 165/165/165 163/163/163
f 169/169/169 168/168/168 167/167/167
f 170/170/170 169/169/169 167/167/167
f 173/173/173 172/172/172 171/171/171
f 174/174/174 173/173/173 171/171/171
f 177/177/177 176/176/176 175/175/175
f 178/178/178 177/177/177 175/175/175
f 181/181/181 180/180/180 179/179/179
f 182/182/182 181/181/181 179/179/179
f 185/185/185 184/184/184 183/183/183
f 186/186/186 185/185/185 183/183/183
f 189/189/189 188/188/188 187/187/187
f 190/190/190 189/189/189 187/187/187
f 193/193/193 192/192/192 191/191/191
f 194/194/194 193/193/193 191/191/191
f 197/197/197 196/196/196 195/195/195
f 198/198/198 197/197/197 195/195/195
f 201/201/201 200/200/200 199/199/199
f 202/202/202 201/201/201 199/199/199
f 205/205/205 204/204/204 203/203/203
f 206/206/206 205/205/205 203/203/203
f 209/209/209 208/208/208 207/207/207
f 210/210/210 209/209/209 207/207/207
f 213/213/213 212/212/212 211/211/211
f 214/214/214 213/213/213 211/211/211
f 217/217/217 216/216/216 215/215/215
f 218/218/218 217/217/217 215/215/215
f 221/221/221 220/220/220 219/219/219
f 222/222/222 221/221/221 219/219/219
f 225/225/225 224/224/224 223/223/223
f 226/226/226 225/225/225 223/223/223
f 229/229/229 228/228/228 227/227/227
f 230/230/230 229/229/229 227/227/227
f 233/233/233 232/232/232 231/231/231
f 234/234/234 233/233/233 231/231/231
f 237/237/237 236/236/236 235/235/235
f 238/238/238 237/237/237 235/235/235
f 241/241/241 240/240/240 239/239/239
f 242/242/242 241/241/241 239/239/239
f 245/245/245 244/244/244 243/243/243
f 246/246/246 245/245/245 243/243/243
