g avatar_indian_girl_legs
v -0.2817556 0.8564358 0.1369203
v -0.2853697 0.5951595 0.14218
v -0.2853697 0.5951595 -0.1425688
v -0.2817556 0.8564358 -0.1354194
v -0.25 0.15625 0.203125
v -0.25 8.878875E-09 0.203125
v -0.25 -4.780932E-09 -0.109375
v -0.25 0.15625 0.109375
v -0.25 0.46875 -0.109375
v -0.25 0.46875 0.109375
v -0.25 0.5970767 -0.109375
v -0.25 0.5970767 0.109375
v -0.25 0.46875 0.109375
v -0.25 0.46875 -0.109375
v -0.25 0.8750001 -0.1316505
v -0.25 0.6562501 -0.1406252
v -0.25 0.6562501 -0.1718752
v -0.25 0.8750001 -0.1629005
v -0.25 0.8750001 -0.1629005
v -0.25 0.7812501 -0.1667468
v -0.25 0.7812501 -0.1979968
v -0.25 0.8750001 -0.1941505
v -0.1585387 0.5951595 0.14218
v -0.159375 0.5625 0.1431248
v -0.159375 0.5625 -0.14375
v -0.1585387 0.5951595 -0.1425688
v -0.15625 0.7812501 -0.1667466
v -0.15625 0.7500001 -0.1680287
v -0.15625 0.7500001 -0.1992787
v -0.15625 0.7812501 -0.1979966
v 0.03125 0.15625 0.203125
v 0.03125 8.878875E-09 0.203125
v 0.03125 -4.780932E-09 -0.109375
v 0.03125 0.15625 0.109375
v 0.03125 0.46875 -0.109375
v 0.03125 0.46875 0.109375
v 0.03125 0.5970767 -0.109375
v 0.03125 0.5970767 0.109375
v 0.03125 0.46875 0.109375
v 0.03125 0.46875 -0.109375
v -0.09375 0.7500001 -0.1992787
v -0.09375 0.7500001 -0.1680287
v -0.09375 0.7812501 -0.1667466
v -0.09374998 0.7812501 -0.1979966
v -0.03125 -4.780932E-09 -0.109375
v -0.03125 8.878875E-09 0.203125
v -0.03125 0.15625 0.203125
v -0.03125 0.15625 0.109375
v -0.03125 0.46875 -0.109375
v -0.03125 0.46875 0.109375
v 0 0.6562501 -0.1718752
v 0 0.6562501 -0.1406252
v 3.814697E-08 0.8750001 -0.1316505
v 3.814697E-08 0.8750001 -0.1629005
v 0 0.7812501 -0.1979968
v 0 0.7812501 -0.1667468
v 3.814697E-08 0.8750001 -0.1629005
v 3.814697E-08 0.8750001 -0.1941505
v 0.1593749 0.5625 -0.14375
v 0.1593749 0.5625 0.1431248
v 0.1585385 0.5951595 0.14218
v 0.1585385 0.5951595 -0.1425688
v 0.25 -4.780932E-09 -0.109375
v 0.25 8.878875E-09 0.203125
v 0.25 0.15625 0.203125
v 0.25 0.15625 0.109375
v 0.25 0.46875 -0.109375
v 0.25 0.46875 0.109375
v 0.2853695 0.5951595 -0.1425688
v 0.2853695 0.5951595 0.14218
v 0.2817555 0.8564358 0.1369203
v 0.2817555 0.8564358 -0.1354194
v -0.1585387 0.5951595 0.14218
v -0.2853697 0.5951595 0.14218
v -0.2817556 0.8564358 0.1369203
v -0.1291598 0.8564358 0.1369203
v -0.1269784 0.5951595 0.14218
v -0.159375 0.5625 0.1431248
v -0.1269784 0.5625 0.1431248
v -0.04232618 0.5625 0.1431248
v -0.04232617 0.5951595 0.14218
v 0.04232603 0.5625 0.1431248
v 0.04232605 0.5951595 0.14218
v 0.1269782 0.5625 0.1431248
v 0.1269783 0.5951595 0.14218
v 0.04305319 0.8564358 0.1369203
v 0.1291597 0.8564358 0.1369203
v 0.2817555 0.8564358 0.1369203
v 0.1585385 0.5951595 0.14218
v 0.2853695 0.5951595 0.14218
v -0.04305331 0.8564358 0.1369203
v 0.1593749 0.5625 0.1431248
v -0.03125 8.878875E-09 0.203125
v -0.25 8.878875E-09 0.203125
v -0.25 0.15625 0.203125
v -0.03125 0.15625 0.203125
v 0.25 8.878875E-09 0.203125
v 0.03125 8.878875E-09 0.203125
v 0.03125 0.15625 0.203125
v 0.25 0.15625 0.203125
v -0.03125 0.46875 0.109375
v -0.03125 0.15625 0.109375
v -0.25 0.15625 0.109375
v -0.25 0.46875 0.109375
v 0.25 0.46875 0.109375
v 0.25 0.15625 0.109375
v 0.03125 0.15625 0.109375
v 0.03125 0.46875 0.109375
v -0.2817556 0.8564358 -0.1354194
v -0.2853697 0.5951595 -0.1425688
v -0.1585387 0.5951595 -0.1425688
v -0.1269784 0.5951595 -0.1425688
v -0.1269784 0.5625 -0.14375
v -0.159375 0.5625 -0.14375
v -0.1291598 0.8564358 -0.1354194
v -0.04232617 0.5951595 -0.1425688
v -0.04232618 0.5625 -0.14375
v 0.04232605 0.5951595 -0.1425688
v 0.04232603 0.5625 -0.14375
v 0.1269783 0.5951595 -0.1425688
v 0.1269782 0.5625 -0.14375
v 0.1593749 0.5625 -0.14375
v 0.1585385 0.5951595 -0.1425688
v 0.1291597 0.8564358 -0.1354194
v 0.2817555 0.8564358 -0.1354194
v 0.2853695 0.5951595 -0.1425688
v -0.04305331 0.8564358 -0.1354194
v 0.04305319 0.8564358 -0.1354194
v -0.25 0.8750001 -0.1629005
v -0.25 0.6562501 -0.1718752
v 0 0.6562501 -0.1718752
v 3.814697E-08 0.8750001 -0.1629005
v -0.25 0.8750001 -0.1941505
v -0.25 0.7812501 -0.1979968
v 0 0.7812501 -0.1979968
v 3.814697E-08 0.8750001 -0.1941505
v -0.15625 0.7812501 -0.1979966
v -0.15625 0.7500001 -0.1992787
v -0.09375 0.7500001 -0.1992787
v -0.09374998 0.7812501 -0.1979966
v -0.25 -4.780932E-09 -0.109375
v -0.03125 -4.780932E-09 -0.109375
v -0.03125 0.46875 -0.109375
v -0.25 0.46875 -0.109375
v 0.25 0.5970767 -0.109375
v 0.03125 0.5970767 -0.109375
v 0.03125 0.46875 -0.109375
v 0.25 0.46875 -0.109375
v -0.25 -4.780932E-09 -0.109375
v -0.25 8.878875E-09 0.203125
v -0.03125 8.878875E-09 0.203125
v -0.03125 -4.780932E-09 -0.109375
v 0.03125 -4.780932E-09 -0.109375
v 0.03125 8.878875E-09 0.203125
v 0.25 8.878875E-09 0.203125
v 0.25 -4.780932E-09 -0.109375
v -0.2853697 0.5951595 -0.1425688
v -0.2853697 0.5951595 0.14218
v -0.1585387 0.5951595 0.14218
v -0.1585387 0.5951595 -0.1425688
v 0.1585385 0.5951595 -0.1425688
v 0.1585385 0.5951595 0.14218
v 0.2853695 0.5951595 0.14218
v 0.2853695 0.5951595 -0.1425688
v -0.25 0.6562501 -0.1718752
v -0.25 0.6562501 -0.1406252
v 0 0.6562501 -0.1406252
v 0 0.6562501 -0.1718752
v -0.15625 0.7500001 -0.1992787
v -0.15625 0.7500001 -0.1680287
v -0.09375 0.7500001 -0.1680287
v -0.09375 0.7500001 -0.1992787
v -0.25 0.7812501 -0.1979968
v -0.25 0.7812501 -0.1667468
v 0 0.7812501 -0.1667468
v 0 0.7812501 -0.1979968
v -0.03125 0.15625 0.203125
v -0.25 0.15625 0.203125
v -0.25 0.15625 0.109375
v -0.03125 0.15625 0.109375
v 0.25 0.15625 0.203125
v 0.03125 0.15625 0.203125
v 0.03125 0.15625 0.109375
v 0.25 0.15625 0.109375
v -0.25 0.46875 0.109375
v -0.03125 0.46875 0.109375
v -0.03125 0.46875 -0.109375
v -0.25 0.46875 -0.109375
v 0.25 0.46875 0.109375
v 0.25 0.46875 -0.109375
v 0.03125 0.46875 -0.109375
v 0.03125 0.46875 0.109375
v 3.814697E-08 0.8750001 -0.1316505
v -0.25 0.8750001 -0.1316505
v -0.25 0.8750001 -0.1629005
v 3.814697E-08 0.8750001 -0.1629005
v 3.814697E-08 0.8750001 -0.1629005
v -0.25 0.8750001 -0.1629005
v -0.25 0.8750001 -0.1941505
v 3.814697E-08 0.8750001 -0.1941505
v -0.03125 0.5970767 -0.109375
v -0.03125 0.46875 -0.109375
v -0.03125 0.46875 0.109375
v -0.03125 0.5970767 0.109375
v 0.25 0.5970767 -0.109375
v 0.25 0.46875 -0.109375
v 0.25 0.46875 0.109375
v 0.25 0.5970767 0.109375
v -0.03125 0.5970767 0.109375
v -0.03125 0.46875 0.109375
v -0.25 0.46875 0.109375
v -0.25 0.5970767 0.109375
v 0.25 0.5970767 0.109375
v 0.25 0.46875 0.109375
v 0.03125 0.46875 0.109375
v 0.03125 0.5970767 0.109375
v -0.25 0.5970767 -0.109375
v -0.25 0.46875 -0.109375
v -0.03125 0.46875 -0.109375
v -0.03125 0.5970767 -0.109375
v 0.25 -4.780932E-09 -0.109375
v 0.25 0.46875 -0.109375
v 0.03125 0.46875 -0.109375
v 0.03125 -4.780932E-09 -0.109375
v -0.25 0.46875 0.109375
v -0.25 0.46875 -0.109375
v -0.03125 0.46875 -0.109375
v -0.03125 0.46875 0.109375
v 0.25 0.46875 0.109375
v 0.03125 0.46875 0.109375
v 0.03125 0.46875 -0.109375
v 0.25 0.46875 -0.109375
v -0.25 0.8750001 -0.1316505
v 3.814697E-08 0.8750001 -0.1316505
v 0 0.6562501 -0.1406252
v -0.25 0.6562501 -0.1406252
v 0.2817555 0.8564358 0.1369203
v 0.1291597 0.8564358 0.1369203
v 0.1291597 0.8564358 -0.1354194
v 0.2817555 0.8564358 -0.1354194
v 0.04305319 0.8564358 -0.1354194
v 0.04305319 0.8564358 0.1369203
v -0.04305331 0.8564358 -0.1354194
v -0.04305331 0.8564358 0.1369203
v -0.1291598 0.8564358 -0.1354194
v -0.1291598 0.8564358 0.1369203
v -0.2817556 0.8564358 -0.1354194
v -0.2817556 0.8564358 0.1369203
v 0.1593749 0.5625 0.1431248
v 0.1593749 0.5625 -0.14375
v 0.1269782 0.5625 -0.14375
v 0.1269782 0.5625 0.1431248
v 0.04232603 0.5625 0.1431248
v 0.04232603 0.5625 -0.14375
v -0.04232618 0.5625 0.1431248
v -0.04232618 0.5625 -0.14375
v -0.1269784 0.5625 0.1431248
v -0.1269784 0.5625 -0.14375
v -0.159375 0.5625 -0.14375
v -0.159375 0.5625 0.1431248
vt 0.796876 0.265626
vt 0.796876 0.203125
vt 0.726562 0.203125
vt 0.726562 0.265626
vt 0.289063 0.09375
vt 0.289063 0.054687
vt 0.210938 0.054687
vt 0.265625 0.09375
vt 0.210938 0.1718749
vt 0.265625 0.171875
vt 0.210938 0.203125
vt 0.265625 0.203125
vt 0.265625 0.171875
vt 0.210938 0.1718749
vt 0.53125 0.828125
vt 0.53125 0.773437
vt 0.523436 0.773437
vt 0.523436 0.828125
vt 0.226563 0.984375
vt 0.226563 0.960937
vt 0.21875 0.960937
vt 0.21875 0.984375
vt 0.703125 0.125
vt 0.695312 0.125
vt 0.695312 0.195313
vt 0.703125 0.195313
vt 0.328125 0.203125
vt 0.328125 0.195313
vt 0.320313 0.195313
vt 0.320313 0.203125
vt 0.820312 0.390625
vt 0.820312 0.351561
vt 0.742187 0.351561
vt 0.796877 0.390625
vt 0.742187 0.4687497
vt 0.796877 0.46875
vt 0.742187 0.5
vt 0.796877 0.5
vt 0.796877 0.46875
vt 0.742187 0.4687497
vt 0.304688 0.195313
vt 0.296875 0.195313
vt 0.296875 0.203125
vt 0.304688 0.203125
vt 0.15625 0.054687
vt 0.078125 0.054687
vt 0.078125 0.09375
vt 0.101562 0.09375
vt 0.15625 0.1718749
vt 0.101562 0.171875
vt 0.460936 0.773437
vt 0.453125 0.773437
vt 0.453125 0.828125
vt 0.460936 0.828125
vt 0.15625 0.960937
vt 0.148438 0.960937
vt 0.148438 0.984375
vt 0.15625 0.984375
vt 0.617187 0.195313
vt 0.617187 0.125
vt 0.609375 0.125
vt 0.609375 0.195313
vt 0.687502 0.351561
vt 0.609377 0.351561
vt 0.609377 0.390625
vt 0.632812 0.390625
vt 0.687502 0.4687497
vt 0.632812 0.46875
vt 0.585937 0.203125
vt 0.515625 0.203125
vt 0.515625 0.265626
vt 0.585937 0.265626
vt 0.40625 0.203125
vt 0.375 0.203125
vt 0.375 0.265626
vt 0.4130805 0.265626
vt 0.4140262 0.203125
vt 0.40625 0.195313
vt 0.4141904 0.195313
vt 0.4349384 0.195313
vt 0.4348837 0.203125
vt 0.4556866 0.195313
vt 0.4557413 0.203125
vt 0.4764346 0.195313
vt 0.4765988 0.203125
vt 0.4560565 0.265626
vt 0.4775445 0.265626
vt 0.515625 0.265626
vt 0.484375 0.203125
vt 0.515625 0.203125
vt 0.4345685 0.265626
vt 0.484375 0.195313
vt 0.062503 0.132813
vt 0.007811 0.132813
vt 0.007811 0.171875
vt 0.062503 0.171875
vt 0.609377 0.351561
vt 0.554687 0.351561
vt 0.554687 0.390625
vt 0.609377 0.390625
vt 0.06250301 0.273438
vt 0.062503 0.195313
vt 0.007811 0.195313
vt 0.007811 0.273438
vt 0.0625 0.492186
vt 0.0625 0.414061
vt 0.007813 0.414061
vt 0.007813 0.492186
vt 0.726562 0.265626
vt 0.726562 0.203125
vt 0.695312 0.203125
vt 0.6875359 0.203125
vt 0.6873717 0.195313
vt 0.695312 0.195313
vt 0.6884816 0.265626
vt 0.6666782 0.203125
vt 0.6666236 0.195313
vt 0.6458207 0.203125
vt 0.6458755 0.195313
vt 0.6249632 0.203125
vt 0.6251274 0.195313
vt 0.617187 0.195313
vt 0.617187 0.203125
vt 0.6240175 0.265626
vt 0.585937 0.265626
vt 0.585937 0.203125
vt 0.6669935 0.265626
vt 0.6455055 0.265626
vt 0.523436 0.828125
vt 0.523436 0.773437
vt 0.460936 0.773437
vt 0.460936 0.828125
vt 0.21875 0.984375
vt 0.21875 0.960937
vt 0.15625 0.960937
vt 0.15625 0.984375
vt 0.320313 0.203125
vt 0.320313 0.195313
vt 0.304688 0.195313
vt 0.304688 0.203125
vt 0.210938 0.054687
vt 0.15625 0.054687
vt 0.15625 0.1718749
vt 0.210938 0.1718749
vt 0.687502 0.5
vt 0.742187 0.5
vt 0.742187 0.4687497
vt 0.687502 0.4687497
vt 0.007811 0.054687
vt 0.007811 0.132813
vt 0.062503 0.132813
vt 0.062503 0.054687
vt 0.742187 0.351561
vt 0.820312 0.351561
vt 0.820312 0.296875
vt 0.742187 0.296875
vt 0.734376 0.195313
vt 0.734376 0.125
vt 0.703125 0.125
vt 0.703125 0.195313
vt 0.609375 0.195313
vt 0.609375 0.125
vt 0.578125 0.125
vt 0.578125 0.195313
vt 0.523436 0.773437
vt 0.523436 0.765625
vt 0.460936 0.765625
vt 0.460936 0.773437
vt 0.320313 0.195313
vt 0.320313 0.1875
vt 0.304688 0.1875
vt 0.304688 0.195313
vt 0.21875 0.960937
vt 0.21875 0.953125
vt 0.15625 0.953125
vt 0.15625 0.960937
vt 0.062503 0.171875
vt 0.007811 0.171875
vt 0.007811 0.195313
vt 0.062503 0.195313
vt 0.0625 0.390625
vt 0.007813 0.390625
vt 0.007813 0.414061
vt 0.0625 0.414061
vt 0.007813 0.320313
vt 0.062503 0.320313
vt 0.062503 0.375
vt 0.007813 0.375
vt 0.0625 0.539062
vt 0.0625 0.593751
vt 0.007811 0.593751
vt 0.007811 0.539062
vt 0.460936 0.835937
vt 0.523436 0.835937
vt 0.523436 0.828125
vt 0.460936 0.828125
vt 0.15625 0.992187
vt 0.21875 0.992187
vt 0.21875 0.984375
vt 0.15625 0.984375
vt 0.15625 0.203125
vt 0.15625 0.1718749
vt 0.101562 0.171875
vt 0.101562 0.203125
vt 0.687502 0.5
vt 0.687502 0.4687497
vt 0.632812 0.46875
vt 0.632812 0.5
vt 0.062503 0.304688
vt 0.06250301 0.273438
vt 0.007811 0.273438
vt 0.007811 0.304688
vt 0.0625 0.523436
vt 0.0625 0.492186
vt 0.007813 0.492186
vt 0.007813 0.523436
vt 0.210938 0.203125
vt 0.210938 0.1718749
vt 0.15625 0.1718749
vt 0.15625 0.203125
vt 0.687502 0.351561
vt 0.687502 0.4687497
vt 0.742187 0.4687497
vt 0.742187 0.351561
vt 0.007813 0.320313
vt 0.007813 0.375
vt 0.062503 0.375
vt 0.062503 0.320313
vt 0.0625 0.539062
vt 0.007811 0.539062
vt 0.007811 0.593751
vt 0.0625 0.593751
vt 0.523436 0.828125
vt 0.460936 0.828125
vt 0.460936 0.773437
vt 0.523436 0.773437
vt 0.585937 0.335938
vt 0.6240175 0.335938
vt 0.6240175 0.265626
vt 0.585937 0.265626
vt 0.6455055 0.265626
vt 0.6455055 0.335938
vt 0.6669935 0.265626
vt 0.6669935 0.335938
vt 0.6884815 0.265626
vt 0.6884816 0.335938
vt 0.726562 0.265626
vt 0.726562 0.335938
vt 0.617187 0.125
vt 0.617187 0.195313
vt 0.6251274 0.195313
vt 0.6251274 0.125
vt 0.6458755 0.125
vt 0.6458755 0.195313
vt 0.6666236 0.125
vt 0.6666236 0.195313
vt 0.6873717 0.125
vt 0.6873717 0.195313
vt 0.695312 0.195313
vt 0.695312 0.125
vn -0.9999044 0.01383127 0
vn -0.9999044 0.01383127 0
vn -0.9999044 0.01383127 0
vn -0.9999044 0.01383127 0
vn -1 0 0
vn -1 0 0
vn -1 0 0
vn -1 0 0
vn -1 0 0
vn -1 0 0
vn -1 0 0
vn -1 0 0
vn -1 0 0
vn -1 0 0
vn -1 0 0
vn -1 0 0
vn -1 0 0
vn -1 0 0
vn -1 0 0
vn -1 0 0
vn -1 0 0
vn -1 0 0
vn -0.9996723 0.02559992 0
vn -0.9996723 0.02559992 0
vn -0.9996723 0.02559992 0
vn -0.9996723 0.02559992 0
vn -1 0 0
vn -1 0 0
vn -1 0 0
vn -1 0 0
vn -1 0 0
vn -1 0 0
vn -1 0 0
vn -1 0 0
vn -1 0 0
vn -1 0 0
vn -1 0 0
vn -1 0 0
vn -1 0 0
vn -1 0 0
vn 1 -3.723003E-07 4.768372E-07
vn 1 -3.723003E-07 4.768372E-07
vn 1 -3.723003E-07 4.768372E-07
vn 1 -3.723003E-07 4.768372E-07
vn 1 0 0
vn 1 0 0
vn 1 0 0
vn 1 0 0
vn 1 0 0
vn 1 0 0
vn 1 -1.743862E-07 0
vn 1 -1.743862E-07 0
vn 1 -1.743862E-07 0
vn 1 -1.743862E-07 0
vn 1 -4.069012E-07 0
vn 1 -4.069012E-07 0
vn 1 -4.069012E-07 0
vn 1 -4.069012E-07 0
vn 0.9996723 0.02559899 0
vn 0.9996723 0.02559899 0
vn 0.9996723 0.02559899 0
vn 0.9996723 0.02559899 0
vn 1 0 0
vn 1 0 0
vn 1 0 0
vn 1 0 0
vn 1 0 0
vn 1 0 0
vn 0.9999044 0.01383104 0
vn 0.9999044 0.01383104 0
vn 0.9999044 0.01383104 0
vn 0.9999044 0.01383104 0
vn 0 0.02308878 0.9997334
vn 0 0.02012668 0.9997975
vn 0 0.02012671 0.9997975
vn 0 0.02012672 0.9997975
vn 0 0.02452232 0.9996994
vn 0 0.02891738 0.9995818
vn 0 0.02891744 0.9995818
vn 0 0.0289175 0.9995818
vn 0 0.02452234 0.9996994
vn 0 0.02891751 0.9995818
vn 0 0.02452234 0.9996994
vn 0 0.02891721 0.9995819
vn 0 0.0245222 0.9996994
vn 0 0.0201267 0.9997975
vn 0 0.02012671 0.9997975
vn 0 0.02012671 0.9997975
vn 0 0.02308862 0.9997334
vn 0 0.02012668 0.9997975
vn 0 0.02012671 0.9997975
vn 0 0.02891692 0.9995819
vn 0 0 1
vn 0 0 1
vn 0 0 1
vn 0 0 1
vn 0 0 1
vn 0 0 1
vn 0 0 1
vn 0 0 1
vn 0 0 1
vn 0 0 1
vn 0 0 1
vn 0 0 1
vn 0 0 1
vn 0 0 1
vn 0 0 1
vn 0 0 1
vn 0 0.02735336 -0.9996258
vn 0 0.02735346 -0.9996258
vn 0 0.03031535 -0.9995404
vn 0 0.03174878 -0.9994959
vn 0 0.0361436 -0.9993466
vn 0 0.03614357 -0.9993466
vn 0 0.02735333 -0.9996258
vn 0 0.03174879 -0.9994959
vn 0 0.03614364 -0.9993466
vn 0 0.0317488 -0.9994959
vn 0 0.03614364 -0.9993466
vn 0 0.03174868 -0.9994959
vn 0 0.03614337 -0.9993466
vn 0 0.03614309 -0.9993466
vn 0 0.0303152 -0.9995404
vn 0 0.02735338 -0.9996258
vn 0 0.02735339 -0.9996258
vn 0 0.02735336 -0.9996258
vn 0 0.02735334 -0.9996258
vn 0 0.02735336 -0.9996258
vn 0 0.04099292 -0.9991595
vn 0 0.04099292 -0.9991595
vn 0 0.04099292 -0.9991595
vn 0 0.04099292 -0.9991595
vn 0 0.0409929 -0.9991595
vn 0 0.0409929 -0.9991595
vn 0 0.0409929 -0.9991595
vn 0 0.0409929 -0.9991595
vn 0 0.04099258 -0.9991595
vn 0 0.04099258 -0.9991595
vn 0 0.04099258 -0.9991595
vn 0 0.04099258 -0.9991595
vn 0 0 -1
vn 0 0 -1
vn 0 0 -1
vn 0 0 -1
vn 0 -1.327074E-07 -1
vn 0 -1.327074E-07 -1
vn 0 -1.327074E-07 -1
vn 0 -1.327074E-07 -1
vn 0 -1 0
vn 0 -1 0
vn 0 -1 0
vn 0 -1 0
vn 0 -1 0
vn 0 -1 0
vn 0 -1 0
vn 0 -1 0
vn 0 -1 0
vn 0 -1 0
vn 0 -1 0
vn 0 -1 0
vn 0 -1 0
vn 0 -1 0
vn 0 -1 0
vn 0 -1 0
vn 0 -1 0
vn 0 -1 0
vn 0 -1 0
vn 0 -1 0
vn 0 -1 0
vn 0 -1 0
vn 0 -1 0
vn 0 -1 0
vn 0 -1 0
vn 0 -1 0
vn 0 -1 0
vn 0 -1 0
vn 0 1 0
vn 0 1 0
vn 0 1 0
vn 0 1 0
vn 0 1 0
vn 0 1 0
vn 0 1 0
vn 0 1 0
vn 0 -1 0
vn 0 -1 0
vn 0 -1 0
vn 0 -1 0
vn 0 -1 0
vn 0 -1 0
vn 0 -1 0
vn 0 -1 0
vn 0 1 0
vn 0 1 0
vn 0 1 0
vn 0 1 0
vn 0 1 0
vn 0 1 0
vn 0 1 0
vn 0 1 0
vn 1 0 0
vn 1 0 0
vn 1 0 0
vn 1 0 0
vn 1 0 0
vn 1 0 0
vn 1 0 0
vn 1 0 0
vn 0 0 1
vn 0 0 1
vn 0 0 1
vn 0 0 1
vn 0 0 1
vn 0 0 1
vn 0 0 1
vn 0 0 1
vn 0 -1.327074E-07 -1
vn 0 -1.327074E-07 -1
vn 0 -1.327074E-07 -1
vn 0 -1.327074E-07 -1
vn 0 0 -1
vn 0 0 -1
vn 0 0 -1
vn 0 0 -1
vn 0 1 0
vn 0 1 0
vn 0 1 0
vn 0 1 0
vn 0 1 0
vn 0 1 0
vn 0 1 0
vn 0 1 0
vn 0 -0.04099281 0.9991595
vn 0 -0.04099281 0.9991595
vn 0 -0.04099281 0.9991595
vn 0 -0.04099281 0.9991595
vn 0 1 0
vn 0 1 0
vn 0 1 0
vn 0 1 0
vn 0 1 0
vn 0 1 0
vn 0 1 0
vn 0 1 0
vn 0 1 0
vn 0 1 0
vn 0 1 0
vn 0 1 0
vn 0 -1 0
vn 0 -1 0
vn 0 -1 0
vn 0 -1 0
vn 0 -1 0
vn 0 -1 0
vn 0 -1 0
vn 0 -1 0
vn 0 -1 0
vn 0 -1 0
vn 0 -1 0
vn 0 -1 0
g avatar_indian_girl_legs_0
f 3/3/3 2/2/2 1/1/1
f 4/4/4 3/3/3 1/1/1
f 7/7/7 6/6/6 5/5/5
f 8/8/8 7/7/7 5/5/5
f 7/7/7 8/8/8 9/9/9
f 8/8/8 10/10/10 9/9/9
f 13/13/13 12/12/12 11/11/11
f 14/14/14 13/13/13 11/11/11
f 17/17/17 16/16/16 15/15/15
f 18/18/18 17/17/17 15/15/15
f 21/21/21 20/20/20 19/19/19
f 22/22/22 21/21/21 19/19/19
f 25/25/25 24/24/24 23/23/23
f 26/26/26 25/25/25 23/23/23
f 29/29/29 28/28/28 27/27/27
f 30/30/30 29/29/29 27/27/27
f 33/33/33 32/32/32 31/31/31
f 34/34/34 33/33/33 31/31/31
f 33/33/33 34/34/34 35/35/35
f 34/34/34 36/36/36 35/35/35
f 39/39/39 38/38/38 37/37/37
f 40/40/40 39/39/39 37/37/37
f 43/43/43 42/42/42 41/41/41
f 44/44/44 43/43/43 41/41/41
f 47/47/47 46/46/46 45/45/45
f 48/48/48 47/47/47 45/45/45
f 48/48/48 45/45/45 49/49/49
f 50/50/50 48/48/48 49/49/49
f 53/53/53 52/52/52 51/51/51
f 54/54/54 53/53/53 51/51/51
f 57/57/57 56/56/56 55/55/55
f 58/58/58 57/57/57 55/55/55
f 61/61/61 60/60/60 59/59/59
f 62/62/62 61/61/61 59/59/59
f 65/65/65 64/64/64 63/63/63
f 66/66/66 65/65/65 63/63/63
f 66/66/66 63/63/63 67/67/67
f 68/68/68 66/66/66 67/67/67
f 71/71/71 70/70/70 69/69/69
f 72/72/72 71/71/71 69/69/69
f 75/75/75 74/74/74 73/73/73
f 76/76/76 75/75/75 73/73/73
f 77/77/77 76/76/76 73/73/73
f 77/77/77 73/73/73 78/78/78
f 79/79/79 77/77/77 78/78/78
f 77/77/77 79/79/79 80/80/80
f 81/81/81 77/77/77 80/80/80
f 76/76/76 77/77/77 81/81/81
f 81/81/81 80/80/80 82/82/82
f 83/83/83 81/81/81 82/82/82
f 83/83/83 82/82/82 84/84/84
f 85/85/85 83/83/83 84/84/84
f 86/86/86 83/83/83 85/85/85
f 87/87/87 86/86/86 85/85/85
f 88/88/88 87/87/87 85/85/85
f 89/89/89 88/88/88 85/85/85
f 89/89/89 85/85/85 84/84/84
f 88/88/88 89/89/89 90/90/90
f 91/91/91 81/81/81 83/83/83
f 86/86/86 91/91/91 83/83/83
f 91/91/91 76/76/76 81/81/81
f 92/92/92 89/89/89 84/84/84
f 95/95/95 94/94/94 93/93/93
f 96/96/96 95/95/95 93/93/93
f 99/99/99 98/98/98 97/97/97
f 100/100/100 99/99/99 97/97/97
f 103/103/103 102/102/102 101/101/101
f 104/104/104 103/103/103 101/101/101
f 107/107/107 106/106/106 105/105/105
f 108/108/108 107/107/107 105/105/105
f 111/111/111 110/110/110 109/109/109
f 111/111/111 109/109/109 112/112/112
f 111/111/111 112/112/112 113/113/113
f 114/114/114 111/111/111 113/113/113
f 109/109/109 115/115/115 112/112/112
f 112/112/112 116/116/116 113/113/113
f 116/116/116 117/117/117 113/113/113
f 116/116/116 118/118/118 117/117/117
f 118/118/118 119/119/119 117/117/117
f 118/118/118 120/120/120 119/119/119
f 120/120/120 121/121/121 119/119/119
f 121/121/121 120/120/120 122/122/122
f 120/120/120 123/123/123 122/122/122
f 120/120/120 124/124/124 123/123/123
f 124/124/124 120/120/120 118/118/118
f 124/124/124 125/125/125 123/123/123
f 126/126/126 123/123/123 125/125/125
f 127/127/127 116/116/116 112/112/112
f 115/115/115 127/127/127 112/112/112
f 128/128/128 118/118/118 116/116/116
f 127/127/127 128/128/128 116/116/116
f 128/128/128 124/124/124 118/118/118
f 131/131/131 130/130/130 129/129/129
f 132/132/132 131/131/131 129/129/129
f 135/135/135 134/134/134 133/133/133
f 136/136/136 135/135/135 133/133/133
f 139/139/139 138/138/138 137/137/137
f 140/140/140 139/139/139 137/137/137
f 143/143/143 142/142/142 141/141/141
f 144/144/144 143/143/143 141/141/141
f 147/147/147 146/146/146 145/145/145
f 148/148/148 147/147/147 145/145/145
f 151/151/151 150/150/150 149/149/149
f 152/152/152 151/151/151 149/149/149
f 155/155/155 154/154/154 153/153/153
f 156/156/156 155/155/155 153/153/153
f 159/159/159 158/158/158 157/157/157
f 160/160/160 159/159/159 157/157/157
f 163/163/163 162/162/162 161/161/161
f 164/164/164 163/163/163 161/161/161
f 167/167/167 166/166/166 165/165/165
f 168/168/168 167/167/167 165/165/165
f 171/171/171 170/170/170 169/169/169
f 172/172/172 171/171/171 169/169/169
f 175/175/175 174/174/174 173/173/173
f 176/176/176 175/175/175 173/173/173
f 179/179/179 178/178/178 177/177/177
f 180/180/180 179/179/179 177/177/177
f 183/183/183 182/182/182 181/181/181
f 184/184/184 183/183/183 181/181/181
f 187/187/187 186/186/186 185/185/185
f 188/188/188 187/187/187 185/185/185
f 191/191/191 190/190/190 189/189/189
f 192/192/192 191/191/191 189/189/189
f 195/195/195 194/194/194 193/193/193
f 196/196/196 195/195/195 193/193/193
f 199/199/199 198/198/198 197/197/197
f 200/200/200 199/199/199 197/197/197
f 203/203/203 202/202/202 201/201/201
f 204/204/204 203/203/203 201/201/201
f 207/207/207 206/206/206 205/205/205
f 208/208/208 207/207/207 205/205/205
f 211/211/211 210/210/210 209/209/209
f 212/212/212 211/211/211 209/209/209
f 215/215/215 214/214/214 213/213/213
f 216/216/216 215/215/215 213/213/213
f 219/219/219 218/218/218 217/217/217
f 220/220/220 219/219/219 217/217/217
f 223/223/223 222/222/222 221/221/221
f 224/224/224 223/223/223 221/221/221
f 227/227/227 226/226/226 225/225/225
f 228/228/228 227/227/227 225/225/225
f 231/231/231 230/230/230 229/229/229
f 232/232/232 231/231/231 229/229/229
f 235/235/235 234/234/234 233/233/233
f 236/236/236 235/235/235 233/233/233
f 239/239/239 238/238/238 237/237/237
f 240/240/240 239/239/239 237/237/237
f 238/238/238 239/239/239 241/241/241
f 242/242/242 238/238/238 241/241/241
f 242/242/242 241/241/241 243/243/243
f 244/244/244 242/242/242 243/243/243
f 244/244/244 243/243/243 245/245/245
f 246/246/246 244/244/244 245/245/245
f 245/245/245 247/247/247 246/246/246
f 247/247/247 248/248/248 246/246/246
f 251/251/251 250/250/250 249/249/249
f 252/252/252 251/251/251 249/249/249
f 251/251/251 252/252/252 253/253/253
f 254/254/254 251/251/251 253/253/253
f 254/254/254 253/253/253 255/255/255
f 256/256/256 254/254/254 255/255/255
f 256/256/256 255/255/255 257/257/257
f 258/258/258 256/256/256 257/257/257
f 259/259/259 258/258/258 257/257/257
f 260/260/260 259/259/259 257/257/257
