g avatar_captain_pixelgun_legs
v -0.2628778 -0.1562498 0.3437503
v -0.2628778 -0.1562498 0.2187501
v -0.2628778 0.1562502 0.2187501
v -0.2628778 0.1562502 0.3437503
v -0.2500257 -0.1874998 0.1250002
v -0.2500257 -0.1874998 1.525879E-07
v -0.2500257 0.1250003 1.525879E-07
v -0.2500257 -0.1249998 0.1250002
v -0.2500257 -0.1249998 0.2187501
v -0.2500257 0.1250001 0.2187501
v -0.2500257 -0.1249998 0.4687501
v -0.2500257 -0.1249998 0.3437501
v -0.2500257 0.1250001 0.3437501
v -0.2500257 0.1250003 0.4687501
v -0.2500257 -0.1249996 0.8437501
v -0.2500257 -0.1249996 0.4687501
v -0.2500257 0.1250002 0.4687501
v -0.2500257 0.1250002 0.8437501
v -0.2187758 -0.1562499 0.6562503
v -0.2187758 -0.1562499 0.5000003
v -0.2187758 -0.1249998 0.5000001
v -0.2187758 -0.1249998 0.6562501
v -0.1875257 -0.1562499 0.5000003
v -0.1875257 -0.1562499 0.4687501
v -0.1875257 -0.1249998 0.4687501
v -0.1875257 -0.1249998 0.5000001
v -0.06252576 -0.1249998 0.4687501
v -0.06252576 -0.1562499 0.4687501
v -0.06252576 -0.1562499 0.5000003
v -0.06252576 -0.1249998 0.5000001
v -0.03127576 -0.1249998 0.5000001
v -0.03127576 -0.1562499 0.5000003
v -0.03127576 -0.1562499 0.6562503
v -0.03127576 -0.1249998 0.6562501
v -2.574921E-05 0.1250003 1.525879E-07
v -2.574921E-05 -0.1874998 1.525879E-07
v -2.574921E-05 -0.1874998 0.1250002
v -2.574921E-05 -0.1249998 0.1250002
v -2.574921E-05 -0.1249998 0.2187501
v -2.574921E-05 0.1250001 0.2187501
v -2.573967E-05 0.1250001 0.3437501
v -2.573967E-05 -0.1249998 0.3437501
v -2.573967E-05 -0.1249998 0.4687501
v -2.573967E-05 0.1250003 0.4687501
v -2.574921E-05 0.1250002 0.4687501
v -2.574921E-05 -0.1249996 0.4687501
v -2.574921E-05 -0.1249996 0.8437501
v -2.574921E-05 0.1250002 0.8437501
v 0.01282634 0.1562502 0.2187501
v 0.01282634 -0.1562498 0.2187501
v 0.01282634 -0.1562498 0.3437503
v 0.01282634 0.1562502 0.3437503
v 0.01282634 -0.1562498 0.2187501
v -0.2628778 -0.1562498 0.2187501
v -0.2628778 -0.1562498 0.3437503
v 0.01282634 -0.1562498 0.3437503
v -0.03127576 -0.1562499 0.6562503
v -0.03127576 -0.1562499 0.5000003
v -0.06252576 -0.1562499 0.5000003
v -0.1875257 -0.1562499 0.5000003
v -0.2187758 -0.1562499 0.5000003
v -0.2187758 -0.1562499 0.6562503
v -0.06252576 -0.1562499 0.4687501
v -0.1875257 -0.1562499 0.4687501
v -2.574921E-05 -0.1874998 1.525879E-07
v -0.2500257 -0.1874998 1.525879E-07
v -0.2500257 -0.1874998 0.1250002
v -2.574921E-05 -0.1874998 0.1250002
v -2.574921E-05 -0.1249998 0.1250002
v -0.2500257 -0.1249998 0.1250002
v -0.2500257 -0.1249998 0.2187501
v -2.574921E-05 -0.1249998 0.2187501
v -2.573967E-05 -0.1249998 0.3437501
v -0.2500257 -0.1249998 0.3437501
v -0.2500257 -0.1249998 0.4687501
v -2.573967E-05 -0.1249998 0.4687501
v -2.574921E-05 -0.1249996 0.4687501
v -0.2500257 -0.1249996 0.4687501
v -0.2500257 -0.1249996 0.8437501
v -2.574921E-05 -0.1249996 0.8437501
v -0.2628778 0.1562502 0.3437503
v -0.2628778 0.1562502 0.2187501
v 0.01282634 0.1562502 0.2187501
v 0.01282634 0.1562502 0.3437503
v -0.2500257 0.1250001 0.2187501
v -0.2500257 0.1250003 1.525879E-07
v -2.574921E-05 0.1250003 1.525879E-07
v -2.574921E-05 0.1250001 0.2187501
v -0.2500257 0.1250003 0.4687501
v -0.2500257 0.1250001 0.3437501
v -2.573967E-05 0.1250001 0.3437501
v -2.573967E-05 0.1250003 0.4687501
v -0.2500257 0.1250002 0.8437501
v -0.2500257 0.1250002 0.4687501
v -2.574921E-05 0.1250002 0.4687501
v -2.574921E-05 0.1250002 0.8437501
v -0.2500257 0.1250003 1.525879E-07
v -0.2500257 -0.1874998 1.525879E-07
v -2.574921E-05 -0.1874998 1.525879E-07
v -2.574921E-05 0.1250003 1.525879E-07
v -0.2628778 0.1562502 0.2187501
v -0.2628778 -0.1562498 0.2187501
v 0.01282634 -0.1562498 0.2187501
v 0.01282634 0.1562502 0.2187501
v -0.1875257 -0.1249998 0.4687501
v -0.1875257 -0.1562499 0.4687501
v -0.06252576 -0.1562499 0.4687501
v -0.06252576 -0.1249998 0.4687501
v -0.2500257 0.1250002 0.4687501
v -0.2500257 -0.1249996 0.4687501
v -2.574921E-05 -0.1249996 0.4687501
v -2.574921E-05 0.1250002 0.4687501
v -0.2187758 -0.1249998 0.5000001
v -0.2187758 -0.1562499 0.5000003
v -0.1875257 -0.1562499 0.5000003
v -0.1875257 -0.1249998 0.5000001
v -0.06252576 -0.1249998 0.5000001
v -0.06252576 -0.1562499 0.5000003
v -0.03127576 -0.1562499 0.5000003
v -0.03127576 -0.1249998 0.5000001
v -2.574921E-05 -0.1874998 0.1250002
v -0.2500257 -0.1874998 0.1250002
v -0.2500257 -0.1249998 0.1250002
v -2.574921E-05 -0.1249998 0.1250002
v 0.01282634 -0.1562498 0.3437503
v -0.2628778 -0.1562498 0.3437503
v -0.2628778 0.1562502 0.3437503
v 0.01282634 0.1562502 0.3437503
v -2.573967E-05 -0.1249998 0.4687501
v -0.2500257 -0.1249998 0.4687501
v -0.2500257 0.1250003 0.4687501
v -2.573967E-05 0.1250003 0.4687501
v -0.03127576 -0.1562499 0.6562503
v -0.2187758 -0.1562499 0.6562503
v -0.2187758 -0.1249998 0.6562501
v -0.03127576 -0.1249998 0.6562501
v -2.574921E-05 -0.1249996 0.8437501
v -0.2500257 -0.1249996 0.8437501
v -0.2500257 0.1250002 0.8437501
v -2.574921E-05 0.1250002 0.8437501
v 0.2626061 -0.1562498 0.3437503
v 0.2626061 0.1562502 0.3437503
v 0.2626061 0.1562502 0.2187501
v 0.2626061 -0.1562498 0.2187501
v 0.2500001 -0.1874998 0.1250002
v 0.2500001 -0.1249998 0.1250002
v 0.2500001 0.1250003 1.525879E-07
v 0.2500001 -0.1874998 1.525879E-07
v 0.2500001 -0.1249998 0.2187501
v 0.2500001 0.1250001 0.2187501
v 0.2500001 -0.1249998 0.4687501
v 0.2500001 0.1250003 0.4687501
v 0.2500001 0.1250001 0.3437501
v 0.2500001 -0.1249998 0.3437501
v 0.2500001 -0.1249996 0.8437501
v 0.2500001 0.1250002 0.8437501
v 0.2500001 0.1250002 0.4687501
v 0.2500001 -0.1249996 0.4687501
v 0.2187501 -0.1562499 0.6562503
v 0.2187501 -0.1249998 0.6562501
v 0.2187501 -0.1249998 0.5000001
v 0.2187501 -0.1562499 0.5000003
v 0.1875001 -0.1562499 0.5000003
v 0.1875001 -0.1249998 0.5000001
v 0.1875001 -0.1249998 0.4687501
v 0.1875001 -0.1562499 0.4687501
v 0.06250013 -0.1562499 0.5000003
v 0.06250013 -0.1562499 0.4687501
v 0.06250013 -0.1249998 0.4687501
v 0.06250013 -0.1249998 0.5000001
v 0.03125013 -0.1562499 0.6562503
v 0.03125013 -0.1562499 0.5000003
v 0.03125013 -0.1249998 0.5000001
v 0.03125013 -0.1249998 0.6562501
v 1.525879E-07 -0.1874998 0.1250002
v 1.525879E-07 -0.1874998 1.525879E-07
v 1.525879E-07 0.1250003 1.525879E-07
v 1.525879E-07 -0.1249998 0.1250002
v 1.525879E-07 -0.1249998 0.2187501
v 1.525879E-07 0.1250001 0.2187501
v 1.335144E-07 -0.1249998 0.4687501
v 1.335144E-07 -0.1249998 0.3437501
v 1.335144E-07 0.1250001 0.3437501
v 1.335144E-07 0.1250003 0.4687501
v 1.144409E-07 -0.1249996 0.8437501
v 1.144409E-07 -0.1249996 0.4687501
v 1.144409E-07 0.1250002 0.4687501
v 1.144409E-07 0.1250002 0.8437501
v -0.01260595 -0.1562498 0.3437503
v -0.01260595 -0.1562498 0.2187501
v -0.01260595 0.1562502 0.2187501
v -0.01260595 0.1562502 0.3437503
v -0.01260595 -0.1562498 0.2187501
v -0.01260595 -0.1562498 0.3437503
v 0.2626061 -0.1562498 0.3437503
v 0.2626061 -0.1562498 0.2187501
v 0.2187501 -0.1562499 0.6562503
v 0.2187501 -0.1562499 0.5000003
v 0.1875001 -0.1562499 0.5000003
v 0.06250013 -0.1562499 0.5000003
v 0.03125013 -0.1562499 0.5000003
v 0.03125013 -0.1562499 0.6562503
v 0.06250013 -0.1562499 0.4687501
v 0.1875001 -0.1562499 0.4687501
v 1.525879E-07 -0.1874998 1.525879E-07
v 1.525879E-07 -0.1874998 0.1250002
v 0.2500001 -0.1874998 0.1250002
v 0.2500001 -0.1874998 1.525879E-07
v 1.525879E-07 -0.1249998 0.1250002
v 1.525879E-07 -0.1249998 0.2187501
v 0.2500001 -0.1249998 0.2187501
v 0.2500001 -0.1249998 0.1250002
v 1.335144E-07 -0.1249998 0.3437501
v 1.335144E-07 -0.1249998 0.4687501
v 0.2500001 -0.1249998 0.4687501
v 0.2500001 -0.1249998 0.3437501
v 1.144409E-07 -0.1249996 0.4687501
v 1.144409E-07 -0.1249996 0.8437501
v 0.2500001 -0.1249996 0.8437501
v 0.2500001 -0.1249996 0.4687501
v -0.01260595 0.1562502 0.2187501
v 0.2626061 0.1562502 0.2187501
v 0.2626061 0.1562502 0.3437503
v -0.01260595 0.1562502 0.3437503
v 1.525879E-07 0.1250003 1.525879E-07
v 0.2500001 0.1250003 1.525879E-07
v 0.2500001 0.1250001 0.2187501
v 1.525879E-07 0.1250001 0.2187501
v 1.335144E-07 0.1250001 0.3437501
v 0.2500001 0.1250001 0.3437501
v 0.2500001 0.1250003 0.4687501
v 1.335144E-07 0.1250003 0.4687501
v 1.144409E-07 0.1250002 0.4687501
v 0.2500001 0.1250002 0.4687501
v 0.2500001 0.1250002 0.8437501
v 1.144409E-07 0.1250002 0.8437501
v 0.2500001 0.1250003 1.525879E-07
v 1.525879E-07 0.1250003 1.525879E-07
v 1.525879E-07 -0.1874998 1.525879E-07
v 0.2500001 -0.1874998 1.525879E-07
v 0.2626061 0.1562502 0.2187501
v -0.01260595 0.1562502 0.2187501
v -0.01260595 -0.1562498 0.2187501
v 0.2626061 -0.1562498 0.2187501
v 0.1875001 -0.1249998 0.4687501
v 0.06250013 -0.1249998 0.4687501
v 0.06250013 -0.1562499 0.4687501
v 0.1875001 -0.1562499 0.4687501
v 0.2500001 0.1250002 0.4687501
v 1.144409E-07 0.1250002 0.4687501
v 1.144409E-07 -0.1249996 0.4687501
v 0.2500001 -0.1249996 0.4687501
v 0.2187501 -0.1249998 0.5000001
v 0.1875001 -0.1249998 0.5000001
v 0.1875001 -0.1562499 0.5000003
v 0.2187501 -0.1562499 0.5000003
v 0.06250013 -0.1249998 0.5000001
v 0.03125013 -0.1249998 0.5000001
v 0.03125013 -0.1562499 0.5000003
v 0.06250013 -0.1562499 0.5000003
v 0.2500001 -0.1249998 0.1250002
v 0.2500001 -0.1874998 0.1250002
v 1.525879E-07 -0.1874998 0.1250002
v 1.525879E-07 -0.1249998 0.1250002
v 0.2626061 0.1562502 0.3437503
v 0.2626061 -0.1562498 0.3437503
v -0.01260595 -0.1562498 0.3437503
v -0.01260595 0.1562502 0.3437503
v 0.2500001 0.1250003 0.4687501
v 0.2500001 -0.1249998 0.4687501
v 1.335144E-07 -0.1249998 0.4687501
v 1.335144E-07 0.1250003 0.4687501
v 0.2187501 -0.1249998 0.6562501
v 0.2187501 -0.1562499 0.6562503
v 0.03125013 -0.1562499 0.6562503
v 0.03125013 -0.1249998 0.6562501
v 0.2500001 0.1250002 0.8437501
v 0.2500001 -0.1249996 0.8437501
v 1.144409E-07 -0.1249996 0.8437501
v 1.144409E-07 0.1250002 0.8437501
vt 0.4375 0.140625
vt 0.4375 0.109375
vt 0.359375 0.109375
vt 0.359375 0.140625
vt 0.140625 0.1171875
vt 0.140625 0.0859375
vt 0.06250048 0.0859375
vt 0.125 0.1171875
vt 0.125 0.140625
vt 0.06250048 0.140625
vt 0.2812493 0.1874999
vt 0.2812493 0.15625
vt 0.21875 0.15625
vt 0.21875 0.1874999
vt 0.0703125 0.3125
vt 0.0703125 0.2187501
vt 0.0078125 0.21875
vt 0.0078125 0.3125
vt 0.1484375 0.375
vt 0.1484375 0.3358753
vt 0.1562624 0.3358753
vt 0.1562624 0.375
vt 0.1562624 0.3358753
vt 0.1562624 0.3280503
vt 0.1633081 0.3280503
vt 0.1633081 0.3358753
vt 0.1806824 0.3280503
vt 0.1875622 0.3280503
vt 0.1875622 0.3358753
vt 0.1806824 0.3358753
vt 0.1875622 0.3358753
vt 0.1953869 0.3358753
vt 0.1953876 0.375
vt 0.1875622 0.375
vt 0.2812499 0.0859375
vt 0.2031252 0.0859375
vt 0.2031252 0.1171875
vt 0.2187499 0.1171875
vt 0.2187499 0.140625
vt 0.2812495 0.140625
vt 0.4062493 0.15625
vt 0.3437493 0.15625
vt 0.3437493 0.1874999
vt 0.4062498 0.1874999
vt 0.1953123 0.21875
vt 0.1328123 0.2187501
vt 0.1328123 0.3125
vt 0.1953123 0.3125
vt 0.59375 0.109375
vt 0.515625 0.109375
vt 0.515625 0.140625
vt 0.59375 0.140625
vt 0.515625 0.109375
vt 0.4375 0.109375
vt 0.4375 0.140625
vt 0.515625 0.140625
vt 0.1953876 0.375
vt 0.1953869 0.3358753
vt 0.1875622 0.3358753
vt 0.1562624 0.3358753
vt 0.1484375 0.3358753
vt 0.1484375 0.375
vt 0.1875622 0.3280503
vt 0.1562624 0.3280503
vt 0.2031252 0.0859375
vt 0.140625 0.0859375
vt 0.140625 0.1171875
vt 0.2031252 0.1171875
vt 0.2031252 0.1328125
vt 0.140625 0.1328125
vt 0.140625 0.15625
vt 0.2031249 0.15625
vt 0.3437493 0.15625
vt 0.2812493 0.15625
vt 0.2812493 0.1874999
vt 0.3437493 0.1874999
vt 0.1328123 0.2187501
vt 0.0703125 0.2187501
vt 0.0703125 0.3125
vt 0.1328123 0.3125
vt 0.6718752 0.140625
vt 0.6718752 0.109375
vt 0.59375 0.109375
vt 0.59375 0.140625
vt 0.3437494 0.1406252
vt 0.3437494 0.08593774
vt 0.2812499 0.0859375
vt 0.2812495 0.140625
vt 0.4687498 0.1874991
vt 0.4687493 0.1562492
vt 0.4062493 0.15625
vt 0.4062498 0.1874999
vt 0.2578123 0.3125
vt 0.2578123 0.21875
vt 0.1953123 0.21875
vt 0.1953123 0.3125
vt 0.140625 0.007812344
vt 0.140625 0.0859375
vt 0.2031252 0.0859375
vt 0.2031252 0.007812344
vt 0.4375 0.1169736
vt 0.4375 0.109375
vt 0.515625 0.109375
vt 0.515625 0.1169736
vt 0.1562624 0.3358753
vt 0.1562624 0.3280503
vt 0.1875622 0.3280503
vt 0.1875622 0.3358753
vt 0.0703125 0.1562501
vt 0.0703125 0.2187501
vt 0.1328123 0.2187501
vt 0.1328123 0.1562501
vt 0.1484375 0.3437003
vt 0.1484375 0.3358753
vt 0.1562624 0.3358753
vt 0.1562624 0.3437003
vt 0.1875622 0.3437003
vt 0.1875622 0.3358753
vt 0.1953869 0.3358753
vt 0.1953869 0.3437003
vt 0.2031252 0.1171875
vt 0.140625 0.1171875
vt 0.140625 0.1328125
vt 0.2031252 0.1328125
vt 0.515625 0.140625
vt 0.4375 0.140625
vt 0.4375 0.133292
vt 0.515625 0.133292
vt 0.3437493 0.1874999
vt 0.2812493 0.1874999
vt 0.2812493 0.2500003
vt 0.3437493 0.2500003
vt 0.1953876 0.375
vt 0.1484375 0.375
vt 0.1484382 0.367128
vt 0.1953876 0.367128
vt 0.1328123 0.3125
vt 0.0703125 0.3125
vt 0.0703125 0.375
vt 0.1328123 0.375
vt 0.4375 0.140625
vt 0.359375 0.140625
vt 0.359375 0.109375
vt 0.4375 0.109375
vt 0.140625 0.1171875
vt 0.125 0.1171875
vt 0.06250048 0.0859375
vt 0.140625 0.0859375
vt 0.125 0.140625
vt 0.06250048 0.140625
vt 0.2812493 0.1874999
vt 0.21875 0.1874999
vt 0.21875 0.15625
vt 0.2812493 0.15625
vt 0.0703125 0.3125
vt 0.0078125 0.3125
vt 0.0078125 0.21875
vt 0.0703125 0.2187501
vt 0.1484375 0.375
vt 0.1562624 0.375
vt 0.1562624 0.3358753
vt 0.1484375 0.3358753
vt 0.1562624 0.3358753
vt 0.1633081 0.3358753
vt 0.1633081 0.3280503
vt 0.1562624 0.3280503
vt 0.1875622 0.3358753
vt 0.1875622 0.3280503
vt 0.1806824 0.3280503
vt 0.1806824 0.3358753
vt 0.1953876 0.375
vt 0.1953869 0.3358753
vt 0.1875622 0.3358753
vt 0.1875622 0.375
vt 0.2031252 0.1171875
vt 0.2031252 0.0859375
vt 0.2812499 0.0859375
vt 0.2187499 0.1171875
vt 0.2187499 0.140625
vt 0.2812495 0.140625
vt 0.3437493 0.1874999
vt 0.3437493 0.15625
vt 0.4062493 0.15625
vt 0.4062498 0.1874999
vt 0.1328123 0.3125
vt 0.1328123 0.2187501
vt 0.1953123 0.21875
vt 0.1953123 0.3125
vt 0.515625 0.140625
vt 0.515625 0.109375
vt 0.59375 0.109375
vt 0.59375 0.140625
vt 0.515625 0.109375
vt 0.515625 0.140625
vt 0.4375 0.140625
vt 0.4375 0.109375
vt 0.1484375 0.375
vt 0.1484375 0.3358753
vt 0.1562624 0.3358753
vt 0.1875622 0.3358753
vt 0.1953869 0.3358753
vt 0.1953876 0.375
vt 0.1875622 0.3280503
vt 0.1562624 0.3280503
vt 0.2031252 0.0859375
vt 0.2031252 0.1171875
vt 0.140625 0.1171875
vt 0.140625 0.0859375
vt 0.2031252 0.1328125
vt 0.2031249 0.15625
vt 0.140625 0.15625
vt 0.140625 0.1328125
vt 0.3437493 0.15625
vt 0.3437493 0.1874999
vt 0.2812493 0.1874999
vt 0.2812493 0.15625
vt 0.1328123 0.2187501
vt 0.1328123 0.3125
vt 0.0703125 0.3125
vt 0.0703125 0.2187501
vt 0.59375 0.109375
vt 0.6718752 0.109375
vt 0.6718752 0.140625
vt 0.59375 0.140625
vt 0.2812499 0.0859375
vt 0.3437494 0.08593774
vt 0.3437494 0.1406252
vt 0.2812495 0.140625
vt 0.4062493 0.15625
vt 0.4687493 0.1562492
vt 0.4687498 0.1874991
vt 0.4062498 0.1874999
vt 0.1953123 0.21875
vt 0.2578123 0.21875
vt 0.2578123 0.3125
vt 0.1953123 0.3125
vt 0.140625 0.007812344
vt 0.2031252 0.007812344
vt 0.2031252 0.0859375
vt 0.140625 0.0859375
vt 0.4375 0.1169736
vt 0.515625 0.1169736
vt 0.515625 0.109375
vt 0.4375 0.109375
vt 0.1562624 0.3358753
vt 0.1875622 0.3358753
vt 0.1875622 0.3280503
vt 0.1562624 0.3280503
vt 0.0703125 0.1562501
vt 0.1328123 0.1562501
vt 0.1328123 0.2187501
vt 0.0703125 0.2187501
vt 0.1484375 0.3437003
vt 0.1562624 0.3437003
vt 0.1562624 0.3358753
vt 0.1484375 0.3358753
vt 0.1875622 0.3437003
vt 0.1953869 0.3437003
vt 0.1953869 0.3358753
vt 0.1875622 0.3358753
vt 0.140625 0.1328125
vt 0.140625 0.1171875
vt 0.2031252 0.1171875
vt 0.2031252 0.1328125
vt 0.4375 0.133292
vt 0.4375 0.140625
vt 0.515625 0.140625
vt 0.515625 0.133292
vt 0.2812493 0.2500003
vt 0.2812493 0.1874999
vt 0.3437493 0.1874999
vt 0.3437493 0.2500003
vt 0.1484382 0.367128
vt 0.1484375 0.375
vt 0.1953876 0.375
vt 0.1953876 0.367128
vt 0.0703125 0.375
vt 0.0703125 0.3125
vt 0.1328123 0.3125
vt 0.1328123 0.375
vn -1 0 0
vn -1 0 0
vn -1 0 0
vn -1 0 0
vn -1 0 0
vn -1 0 0
vn -1 0 0
vn -1 0 0
vn -1 0 0
vn -1 0 0
vn -1 0 0
vn -1 0 0
vn -1 0 0
vn -1 0 0
vn -1 0 0
vn -1 0 0
vn -1 0 0
vn -1 0 0
vn -1 0 0
vn -1 0 0
vn -1 0 0
vn -1 0 0
vn -1 0 0
vn -1 0 0
vn -1 0 0
vn -1 0 0
vn 1 0 0
vn 1 0 0
vn 1 0 0
vn 1 0 0
vn 1 0 0
vn 1 0 0
vn 1 0 0
vn 1 0 0
vn 1 0 0
vn 1 0 0
vn 1 0 0
vn 1 0 0
vn 1 0 0
vn 1 0 0
vn 1 0 0
vn 1 0 0
vn 1 0 0
vn 1 0 0
vn 1 0 0
vn 1 0 0
vn 1 0 0
vn 1 0 0
vn 1 0 0
vn 1 0 0
vn 1 0 0
vn 1 0 0
vn 0 -1 0
vn 0 -1 0
vn 0 -1 0
vn 0 -1 0
vn 0 -1 0
vn 0 -1 0
vn 0 -1 0
vn 0 -1 0
vn 0 -1 0
vn 0 -1 0
vn 0 -1 0
vn 0 -1 0
vn 0 -1 0
vn 0 -1 0
vn 0 -1 0
vn 0 -1 0
vn 0 -1 0
vn 0 -1 0
vn 0 -1 0
vn 0 -1 0
vn 0 -1 0
vn 0 -1 0
vn 0 -1 0
vn 0 -1 0
vn 0 -1 0
vn 0 -1 0
vn 0 -1 0
vn 0 -1 0
vn 0 1 0
vn 0 1 0
vn 0 1 0
vn 0 1 0
vn 0 1 6.975446E-07
vn 0 1 6.975446E-07
vn 0 1 6.975446E-07
vn 0 1 6.975446E-07
vn 0 1 -1.220703E-06
vn 0 1 -1.220703E-06
vn 0 1 -1.220703E-06
vn 0 1 -1.220703E-06
vn 0 1 0
vn 0 1 0
vn 0 1 0
vn 0 1 0
vn 0 0 -1
vn 0 0 -1
vn 0 0 -1
vn 0 0 -1
vn 0 0 -1
vn 0 0 -1
vn 0 0 -1
vn 0 0 -1
vn 0 0 -1
vn 0 0 -1
vn 0 0 -1
vn 0 0 -1
vn 0 0 -1
vn 0 0 -1
vn 0 0 -1
vn 0 0 -1
vn 0 -4.882812E-06 -1
vn 0 -4.882812E-06 -1
vn 0 -4.882812E-06 -1
vn 0 -4.882812E-06 -1
vn 0 -4.882812E-06 -1
vn 0 -4.882812E-06 -1
vn 0 -4.882812E-06 -1
vn 0 -4.882812E-06 -1
vn 0 0 1
vn 0 0 1
vn 0 0 1
vn 0 0 1
vn 0 0 1
vn 0 0 1
vn 0 0 1
vn 0 0 1
vn 0 0 1
vn 0 0 1
vn 0 0 1
vn 0 0 1
vn 0 4.882812E-06 1
vn 0 4.882812E-06 1
vn 0 4.882812E-06 1
vn 0 4.882812E-06 1
vn 0 0 1
vn 0 0 1
vn 0 0 1
vn 0 0 1
vn 1 0 0
vn 1 0 0
vn 1 0 0
vn 1 0 0
vn 1 0 0
vn 1 0 0
vn 1 0 0
vn 1 0 0
vn 1 0 0
vn 1 0 0
vn 1 0 0
vn 1 0 0
vn 1 0 0
vn 1 0 0
vn 1 0 0
vn 1 0 0
vn 1 0 0
vn 1 0 0
vn 1 0 0
vn 1 0 0
vn 1 0 0
vn 1 0 0
vn 1 0 0
vn 1 0 0
vn 1 0 0
vn 1 0 0
vn -1 0 0
vn -1 0 0
vn -1 0 0
vn -1 0 0
vn -1 0 0
vn -1 0 0
vn -1 0 0
vn -1 0 0
vn -1 0 0
vn -1 0 0
vn -1 0 0
vn -1 0 0
vn -1 0 0
vn -1 0 0
vn -1 0 0
vn -1 0 0
vn -1 0 0
vn -1 0 0
vn -1 0 0
vn -1 0 0
vn -1 0 0
vn -1 0 0
vn -1 0 0
vn -1 0 0
vn -1 0 0
vn -1 0 0
vn 0 -1 0
vn 0 -1 0
vn 0 -1 0
vn 0 -1 0
vn 0 -1 0
vn 0 -1 0
vn 0 -1 0
vn 0 -1 0
vn 0 -1 0
vn 0 -1 0
vn 0 -1 0
vn 0 -1 0
vn 0 -1 0
vn 0 -1 0
vn 0 -1 0
vn 0 -1 0
vn 0 -1 0
vn 0 -1 0
vn 0 -1 0
vn 0 -1 0
vn 0 -1 0
vn 0 -1 0
vn 0 -1 0
vn 0 -1 0
vn 0 -1 0
vn 0 -1 0
vn 0 -1 0
vn 0 -1 0
vn 0 1 0
vn 0 1 0
vn 0 1 0
vn 0 1 0
vn 0 1 6.975446E-07
vn 0 1 6.975446E-07
vn 0 1 6.975446E-07
vn 0 1 6.975446E-07
vn 0 1 -1.220703E-06
vn 0 1 -1.220703E-06
vn 0 1 -1.220703E-06
vn 0 1 -1.220703E-06
vn 0 1 0
vn 0 1 0
vn 0 1 0
vn 0 1 0
vn 0 0 -1
vn 0 0 -1
vn 0 0 -1
vn 0 0 -1
vn 0 0 -1
vn 0 0 -1
vn 0 0 -1
vn 0 0 -1
vn 0 0 -1
vn 0 0 -1
vn 0 0 -1
vn 0 0 -1
vn 0 0 -1
vn 0 0 -1
vn 0 0 -1
vn 0 0 -1
vn 0 -4.882812E-06 -1
vn 0 -4.882812E-06 -1
vn 0 -4.882812E-06 -1
vn 0 -4.882812E-06 -1
vn 0 -4.882812E-06 -1
vn 0 -4.882812E-06 -1
vn 0 -4.882812E-06 -1
vn 0 -4.882812E-06 -1
vn 0 0 1
vn 0 0 1
vn 0 0 1
vn 0 0 1
vn 0 0 1
vn 0 0 1
vn 0 0 1
vn 0 0 1
vn 0 0 1
vn 0 0 1
vn 0 0 1
vn 0 0 1
vn 0 4.882812E-06 1
vn 0 4.882812E-06 1
vn 0 4.882812E-06 1
vn 0 4.882812E-06 1
vn 0 0 1
vn 0 0 1
vn 0 0 1
vn 0 0 1
g avatar_captain_pixelgun_legs_0
f 3/3/3 2/2/2 1/1/1
f 4/4/4 3/3/3 1/1/1
f 7/7/7 6/6/6 5/5/5
f 8/8/8 7/7/7 5/5/5
f 7/7/7 8/8/8 9/9/9
f 10/10/10 7/7/7 9/9/9
f 13/13/13 12/12/12 11/11/11
f 14/14/14 13/13/13 11/11/11
f 17/17/17 16/16/16 15/15/15
f 18/18/18 17/17/17 15/15/15
f 21/21/21 20/20/20 19/19/19
f 22/22/22 21/21/21 19/19/19
f 25/25/25 24/24/24 23/23/23
f 26/26/26 25/25/25 23/23/23
f 29/29/29 28/28/28 27/27/27
f 30/30/30 29/29/29 27/27/27
f 33/33/33 32/32/32 31/31/31
f 34/34/34 33/33/33 31/31/31
f 37/37/37 36/36/36 35/35/35
f 38/38/38 37/37/37 35/35/35
f 39/39/39 38/38/38 35/35/35
f 40/40/40 39/39/39 35/35/35
f 43/43/43 42/42/42 41/41/41
f 44/44/44 43/43/43 41/41/41
f 47/47/47 46/46/46 45/45/45
f 48/48/48 47/47/47 45/45/45
f 51/51/51 50/50/50 49/49/49
f 52/52/52 51/51/51 49/49/49
f 55/55/55 54/54/54 53/53/53
f 56/56/56 55/55/55 53/53/53
f 59/59/59 58/58/58 57/57/57
f 57/57/57 60/60/60 59/59/59
f 57/57/57 61/61/61 60/60/60
f 57/57/57 62/62/62 61/61/61
f 59/59/59 60/60/60 63/63/63
f 60/60/60 64/64/64 63/63/63
f 67/67/67 66/66/66 65/65/65
f 68/68/68 67/67/67 65/65/65
f 71/71/71 70/70/70 69/69/69
f 72/72/72 71/71/71 69/69/69
f 75/75/75 74/74/74 73/73/73
f 76/76/76 75/75/75 73/73/73
f 79/79/79 78/78/78 77/77/77
f 80/80/80 79/79/79 77/77/77
f 83/83/83 82/82/82 81/81/81
f 84/84/84 83/83/83 81/81/81
f 87/87/87 86/86/86 85/85/85
f 88/88/88 87/87/87 85/85/85
f 91/91/91 90/90/90 89/89/89
f 92/92/92 91/91/91 89/89/89
f 95/95/95 94/94/94 93/93/93
f 96/96/96 95/95/95 93/93/93
f 99/99/99 98/98/98 97/97/97
f 100/100/100 99/99/99 97/97/97
f 103/103/103 102/102/102 101/101/101
f 104/104/104 103/103/103 101/101/101
f 107/107/107 106/106/106 105/105/105
f 108/108/108 107/107/107 105/105/105
f 111/111/111 110/110/110 109/109/109
f 112/112/112 111/111/111 109/109/109
f 115/115/115 114/114/114 113/113/113
f 116/116/116 115/115/115 113/113/113
f 119/119/119 118/118/118 117/117/117
f 120/120/120 119/119/119 117/117/117
f 123/123/123 122/122/122 121/121/121
f 124/124/124 123/123/123 121/121/121
f 127/127/127 126/126/126 125/125/125
f 128/128/128 127/127/127 125/125/125
f 131/131/131 130/130/130 129/129/129
f 132/132/132 131/131/131 129/129/129
f 135/135/135 134/134/134 133/133/133
f 136/136/136 135/135/135 133/133/133
f 139/139/139 138/138/138 137/137/137
f 140/140/140 139/139/139 137/137/137
f 143/143/143 142/142/142 141/141/141
f 144/144/144 143/143/143 141/141/141
f 147/147/147 146/146/146 145/145/145
f 148/148/148 147/147/147 145/145/145
f 146/146/146 147/147/147 149/149/149
f 147/147/147 150/150/150 149/149/149
f 153/153/153 152/152/152 151/151/151
f 154/154/154 153/153/153 151/151/151
f 157/157/157 156/156/156 155/155/155
f 158/158/158 157/157/157 155/155/155
f 161/161/161 160/160/160 159/159/159
f 162/162/162 161/161/161 159/159/159
f 165/165/165 164/164/164 163/163/163
f 166/166/166 165/165/165 163/163/163
f 169/169/169 168/168/168 167/167/167
f 170/170/170 169/169/169 167/167/167
f 173/173/173 172/172/172 171/171/171
f 174/174/174 173/173/173 171/171/171
f 177/177/177 176/176/176 175/175/175
f 178/178/178 177/177/177 175/175/175
f 177/177/177 178/178/178 179/179/179
f 180/180/180 177/177/177 179/179/179
f 183/183/183 182/182/182 181/181/181
f 184/184/184 183/183/183 181/181/181
f 187/187/187 186/186/186 185/185/185
f 188/188/188 187/187/187 185/185/185
f 191/191/191 190/190/190 189/189/189
f 192/192/192 191/191/191 189/189/189
f 195/195/195 194/194/194 193/193/193
f 196/196/196 195/195/195 193/193/193
f 199/199/199 198/198/198 197/197/197
f 197/197/197 200/200/200 199/199/199
f 197/197/197 201/201/201 200/200/200
f 197/197/197 202/202/202 201/201/201
f 199/199/199 200/200/200 203/203/203
f 204/204/204 199/199/199 203/203/203
f 207/207/207 206/206/206 205/205/205
f 208/208/208 207/207/207 205/205/205
f 211/211/211 210/210/210 209/209/209
f 212/212/212 211/211/211 209/209/209
f 215/215/215 214/214/214 213/213/213
f 216/216/216 215/215/215 213/213/213
f 219/219/219 218/218/218 217/217/217
f 220/220/220 219/219/219 217/217/217
f 223/223/223 222/222/222 221/221/221
f 224/224/224 223/223/223 221/221/221
f 227/227/227 226/226/226 225/225/225
f 228/228/228 227/227/227 225/225/225
f 231/231/231 230/230/230 229/229/229
f 232/232/232 231/231/231 229/229/229
f 235/235/235 234/234/234 233/233/233
f 236/236/236 235/235/235 233/233/233
f 239/239/239 238/238/238 237/237/237
f 240/240/240 239/239/239 237/237/237
f 243/243/243 242/242/242 241/241/241
f 244/244/244 243/243/243 241/241/241
f 247/247/247 246/246/246 245/245/245
f 248/248/248 247/247/247 245/245/245
f 251/251/251 250/250/250 249/249/249
f 252/252/252 251/251/251 249/249/249
f 255/255/255 254/254/254 253/253/253
f 256/256/256 255/255/255 253/253/253
f 259/259/259 258/258/258 257/257/257
f 260/260/260 259/259/259 257/257/257
f 263/263/263 262/262/262 261/261/261
f 264/264/264 263/263/263 261/261/261
f 267/267/267 266/266/266 265/265/265
f 268/268/268 267/267/267 265/265/265
f 271/271/271 270/270/270 269/269/269
f 272/272/272 271/271/271 269/269/269
f 275/275/275 274/274/274 273/273/273
f 276/276/276 275/275/275 273/273/273
f 279/279/279 278/278/278 277/277/277
f 280/280/280 279/279/279 277/277/277
