g avatar_robotic_arms_mesh
v -0.106804 1.253193 -0.473814
v 0.09319647 1.135537 -0.4738137
v 0.09319634 1.253193 -0.4738138
v -0.1068039 1.135537 -0.4738139
v 0.1181962 1.488504 -0.5023734
v -0.131804 1.253192 -0.5023734
v 0.1181964 1.253193 -0.5023732
v -0.1318042 1.488504 -0.5023736
v 0.0931968 0.7531555 -0.4738133
v 0.09319644 0.9590533 -0.2453379
v 0.09319658 0.9590532 -0.4738135
v 0.09319663 0.7531556 -0.2453378
v 0.09319658 0.9590532 -0.4738135
v -0.1068036 0.7531554 -0.4738136
v 0.0931968 0.7531555 -0.4738133
v -0.1068038 0.9590531 -0.4738138
v 0.04319641 0.9590533 -0.3024569
v 0.04319629 1.135537 -0.4166948
v 0.04319647 0.9590533 -0.4166946
v 0.0431962 1.135537 -0.302457
v 0.09319615 1.253193 -0.2453382
v -0.1318044 1.488504 -0.2453387
v 0.1181959 1.488505 -0.2453384
v -0.1068042 1.253192 -0.2453384
v 0.1181962 1.253193 -0.2453382
v -0.1318042 1.253192 -0.2453384
v -0.1068037 0.7531555 -0.245338
v 0.0931968 0.7531555 -0.4738133
v -0.1068036 0.7531554 -0.4738136
v 0.09319663 0.7531556 -0.2453378
v 0.1181964 1.253193 -0.5023732
v 0.09319615 1.253193 -0.2453382
v 0.1181962 1.253193 -0.2453382
v 0.09319634 1.253193 -0.4738138
v -0.106804 1.253193 -0.473814
v -0.131804 1.253192 -0.5023734
v -0.1068042 1.253192 -0.2453384
v -0.1318042 1.253192 -0.2453384
v 0.09319663 0.7531556 -0.2453378
v -0.1068039 0.9590532 -0.2453382
v 0.09319644 0.9590533 -0.2453379
v -0.1068037 0.7531555 -0.245338
v 0.0431962 1.135537 -0.302457
v 0.09319647 1.135537 -0.4738137
v 0.04319629 1.135537 -0.4166948
v 0.09319626 1.135537 -0.2453381
v -0.1068039 1.135537 -0.4738139
v -0.05680387 1.135537 -0.4166948
v -0.1068041 1.135537 -0.2453383
v -0.05680395 1.135537 -0.3024572
v -0.05680387 1.135537 -0.4166948
v -0.05680379 0.9590532 -0.302457
v -0.05680371 0.9590531 -0.4166948
v -0.05680395 1.135537 -0.3024572
v 0.04319629 1.135537 -0.4166948
v -0.05680371 0.9590531 -0.4166948
v 0.04319647 0.9590533 -0.4166946
v -0.05680387 1.135537 -0.4166948
v -0.1318042 1.488504 -0.5023736
v 0.1181959 1.488505 -0.2453384
v -0.1318044 1.488504 -0.2453387
v 0.1181962 1.488504 -0.5023734
v 0.0431962 1.135537 -0.302457
v -0.05680379 0.9590532 -0.302457
v -0.05680395 1.135537 -0.3024572
v 0.04319641 0.9590533 -0.3024569
v -0.131804 1.253192 -0.5023734
v -0.1318044 1.488504 -0.2453387
v -0.1318042 1.253192 -0.2453384
v -0.1318042 1.488504 -0.5023736
v -0.1068036 0.7531554 -0.4738136
v -0.1068039 0.9590532 -0.2453382
v -0.1068037 0.7531555 -0.245338
v -0.1068038 0.9590531 -0.4738138
v 0.09319634 1.253193 -0.4738138
v 0.09319626 1.135537 -0.2453381
v 0.09319615 1.253193 -0.2453382
v 0.09319647 1.135537 -0.4738137
v 0.1181962 1.253193 -0.2453382
v 0.1181962 1.488504 -0.5023734
v 0.1181964 1.253193 -0.5023732
v 0.1181959 1.488505 -0.2453384
v -0.05680379 0.9590532 -0.302457
v -0.1068038 0.9590531 -0.4738138
v -0.05680371 0.9590531 -0.4166948
v -0.1068039 0.9590532 -0.2453382
v 0.09319658 0.9590532 -0.4738135
v 0.04319647 0.9590533 -0.4166946
v 0.04319641 0.9590533 -0.3024569
v 0.09319644 0.9590533 -0.2453379
v -0.1068039 1.135537 -0.4738139
v -0.1068042 1.253192 -0.2453384
v -0.1068041 1.135537 -0.2453383
v -0.106804 1.253193 -0.473814
v 0.09319626 1.135537 -0.2453381
v -0.1068042 1.253192 -0.2453384
v 0.09319615 1.253193 -0.2453382
v -0.1068041 1.135537 -0.2453383
v -0.1068047 1.253193 0.4696199
v 0.09319574 1.135538 0.4696203
v -0.1068046 1.135538 0.46962
v 0.09319562 1.253194 0.4696202
v 0.1181954 1.488505 0.4976292
v -0.1318048 1.253193 0.4976292
v -0.131805 1.488505 0.4976288
v 0.1181956 1.253194 0.4976294
v 0.09319609 0.7531565 0.4696205
v 0.09319606 0.9590539 0.2455461
v 0.09319629 0.7531562 0.2455463
v 0.09319592 0.9590541 0.4696205
v 0.09319592 0.9590541 0.4696205
v -0.1068043 0.7531564 0.4696203
v -0.1068045 0.9590539 0.4696202
v 0.09319609 0.7531565 0.4696205
v 0.04319597 0.959054 0.3015646
v 0.04319566 1.135538 0.4136015
v 0.0431958 1.135538 0.3015645
v 0.04319586 0.9590541 0.4136018
v 0.09319579 1.253193 0.2455459
v -0.1318048 1.488505 0.2455454
v -0.1068045 1.253193 0.2455457
v 0.1181956 1.488505 0.2455457
v 0.1181958 1.253193 0.2455459
v -0.1318046 1.253193 0.2455456
v -0.1068041 0.753156 0.2455461
v 0.09319609 0.7531565 0.4696205
v 0.09319629 0.7531562 0.2455463
v -0.1068043 0.7531564 0.4696203
v 0.1181956 1.253194 0.4976294
v 0.09319579 1.253193 0.2455459
v 0.09319562 1.253194 0.4696202
v 0.1181958 1.253193 0.2455459
v -0.1068047 1.253193 0.4696199
v -0.1318048 1.253193 0.4976292
v -0.1068045 1.253193 0.2455457
v -0.1318046 1.253193 0.2455456
v 0.09319629 0.7531562 0.2455463
v -0.1068043 0.9590538 0.2455459
v -0.1068041 0.753156 0.2455461
v 0.09319606 0.9590539 0.2455461
v 0.0431958 1.135538 0.3015645
v 0.09319574 1.135538 0.4696203
v 0.09319592 1.135538 0.2455459
v 0.04319566 1.135538 0.4136015
v -0.1068046 1.135538 0.46962
v -0.0568045 1.135538 0.4136015
v -0.1068045 1.135538 0.2455457
v -0.05680441 1.135538 0.3015644
v -0.0568045 1.135538 0.4136015
v -0.05680425 0.9590539 0.3015646
v -0.05680441 1.135538 0.3015644
v -0.05680433 0.9590539 0.4136016
v 0.04319566 1.135538 0.4136015
v -0.05680433 0.9590539 0.4136016
v -0.0568045 1.135538 0.4136015
v 0.04319586 0.9590541 0.4136018
v -0.131805 1.488505 0.4976288
v 0.1181956 1.488505 0.2455457
v 0.1181954 1.488505 0.4976292
v -0.1318048 1.488505 0.2455454
v 0.0431958 1.135538 0.3015645
v -0.05680425 0.9590539 0.3015646
v 0.04319597 0.959054 0.3015646
v -0.05680441 1.135538 0.3015644
v -0.1318048 1.253193 0.4976292
v -0.1318048 1.488505 0.2455454
v -0.131805 1.488505 0.4976288
v -0.1318046 1.253193 0.2455456
v -0.1068043 0.7531564 0.4696203
v -0.1068043 0.9590538 0.2455459
v -0.1068045 0.9590539 0.4696202
v -0.1068041 0.753156 0.2455461
v 0.09319562 1.253194 0.4696202
v 0.09319592 1.135538 0.2455459
v 0.09319574 1.135538 0.4696203
v 0.09319579 1.253193 0.2455459
v 0.1181958 1.253193 0.2455459
v 0.1181954 1.488505 0.4976292
v 0.1181956 1.488505 0.2455457
v 0.1181956 1.253194 0.4976294
v -0.05680425 0.9590539 0.3015646
v -0.1068045 0.9590539 0.4696202
v -0.1068043 0.9590538 0.2455459
v -0.05680433 0.9590539 0.4136016
v 0.09319592 0.9590541 0.4696205
v 0.04319586 0.9590541 0.4136018
v 0.04319597 0.959054 0.3015646
v 0.09319606 0.9590539 0.2455461
v -0.1068046 1.135538 0.46962
v -0.1068045 1.253193 0.2455457
v -0.1068047 1.253193 0.4696199
v -0.1068045 1.135538 0.2455457
v 0.09319592 1.135538 0.2455459
v -0.1068045 1.253193 0.2455457
v -0.1068045 1.135538 0.2455457
v 0.09319579 1.253193 0.2455459
vt 0.328125 0.921875
vt 0.265625 0.890625
vt 0.265625 0.921875
vt 0.328125 0.890625
vt 0.2578125 0.984375
vt 0.3359375 0.921875
vt 0.2578125 0.921875
vt 0.3359375 0.984375
vt 0.0234375 0.7890625
vt 0.0859375 0.84375
vt 0.0234375 0.84375
vt 0.0859375 0.7890625
vt 0.265625 0.84375
vt 0.328125 0.7890625
vt 0.265625 0.7890625
vt 0.328125 0.84375
vt 0.0703125 0.84375
vt 0.0390625 0.890625
vt 0.0390625 0.84375
vt 0.0703125 0.890625
vt 0.328125 0.984375
vt 0.2578125 0.921875
vt 0.3359375 0.921875
vt 0.265625 0.984375
vt 0.3359375 0.984375
vt 0.2578125 0.984375
vt 0.390625 0.5625
vt 0.453125 0.625
vt 0.453125 0.5625
vt 0.390625 0.625
vt 0.6484375 0.546875
vt 0.578125 0.5546875
vt 0.578125 0.546875
vt 0.640625 0.5546875
vt 0.640625 0.6171875
vt 0.6484375 0.625
vt 0.578125 0.6171875
vt 0.578125 0.625
vt 0.265625 0.7890625
vt 0.328125 0.84375
vt 0.265625 0.84375
vt 0.328125 0.7890625
vt 0.59375 0.5703125
vt 0.640625 0.5546875
vt 0.625 0.5703125
vt 0.578125 0.5546875
vt 0.640625 0.6171875
vt 0.625 0.6015625
vt 0.578125 0.6171875
vt 0.59375 0.6015625
vt 0.0390625 0.890625
vt 0.0703125 0.84375
vt 0.0390625 0.84375
vt 0.0703125 0.890625
vt 0.28125 0.890625
vt 0.3125 0.84375
vt 0.28125 0.84375
vt 0.3125 0.890625
vt 0.796875 0.984375
vt 0.7265625 0.90625
vt 0.7265625 0.984375
vt 0.796875 0.90625
vt 0.28125 0.890625
vt 0.3125 0.84375
vt 0.3125 0.890625
vt 0.28125 0.84375
vt 0.015625 0.921875
vt 0.0859375 0.984375
vt 0.0859375 0.921875
vt 0.015625 0.984375
vt 0.0234375 0.7890625
vt 0.0859375 0.84375
vt 0.0859375 0.7890625
vt 0.0234375 0.84375
vt 0.0234375 0.921875
vt 0.0859375 0.890625
vt 0.0859375 0.921875
vt 0.0234375 0.890625
vt 0.0859375 0.921875
vt 0.015625 0.984375
vt 0.015625 0.921875
vt 0.0859375 0.984375
vt 0.59375 0.6015625
vt 0.640625 0.6171875
vt 0.625 0.6015625
vt 0.578125 0.6171875
vt 0.640625 0.5546875
vt 0.625 0.5703125
vt 0.59375 0.5703125
vt 0.578125 0.5546875
vt 0.0234375 0.890625
vt 0.0859375 0.921875
vt 0.0859375 0.890625
vt 0.0234375 0.921875
vt 0.265625 0.890625
vt 0.328125 0.921875
vt 0.265625 0.921875
vt 0.328125 0.890625
vt 0.328125 0.921875
vt 0.265625 0.890625
vt 0.328125 0.890625
vt 0.265625 0.921875
vt 0.2578125 0.984375
vt 0.3359375 0.921875
vt 0.3359375 0.984375
vt 0.2578125 0.921875
vt 0.0234375 0.7890625
vt 0.0859375 0.84375
vt 0.0859375 0.7890625
vt 0.0234375 0.84375
vt 0.265625 0.84375
vt 0.328125 0.7890625
vt 0.328125 0.84375
vt 0.265625 0.7890625
vt 0.0703125 0.84375
vt 0.0390625 0.890625
vt 0.0703125 0.890625
vt 0.0390625 0.84375
vt 0.328125 0.984375
vt 0.2578125 0.921875
vt 0.265625 0.984375
vt 0.3359375 0.921875
vt 0.3359375 0.984375
vt 0.2578125 0.984375
vt 0.390625 0.5625
vt 0.453125 0.625
vt 0.390625 0.625
vt 0.453125 0.5625
vt 0.6484375 0.546875
vt 0.578125 0.5546875
vt 0.640625 0.5546875
vt 0.578125 0.546875
vt 0.640625 0.6171875
vt 0.6484375 0.625
vt 0.578125 0.6171875
vt 0.578125 0.625
vt 0.265625 0.7890625
vt 0.328125 0.84375
vt 0.328125 0.7890625
vt 0.265625 0.84375
vt 0.59375 0.5703125
vt 0.640625 0.5546875
vt 0.578125 0.5546875
vt 0.625 0.5703125
vt 0.640625 0.6171875
vt 0.625 0.6015625
vt 0.578125 0.6171875
vt 0.59375 0.6015625
vt 0.0390625 0.890625
vt 0.0703125 0.84375
vt 0.0703125 0.890625
vt 0.0390625 0.84375
vt 0.28125 0.890625
vt 0.3125 0.84375
vt 0.3125 0.890625
vt 0.28125 0.84375
vt 0.796875 0.984375
vt 0.7265625 0.90625
vt 0.796875 0.90625
vt 0.7265625 0.984375
vt 0.28125 0.890625
vt 0.3125 0.84375
vt 0.28125 0.84375
vt 0.3125 0.890625
vt 0.015625 0.921875
vt 0.0859375 0.984375
vt 0.015625 0.984375
vt 0.0859375 0.921875
vt 0.0234375 0.7890625
vt 0.0859375 0.84375
vt 0.0234375 0.84375
vt 0.0859375 0.7890625
vt 0.0234375 0.921875
vt 0.0859375 0.890625
vt 0.0234375 0.890625
vt 0.0859375 0.921875
vt 0.0859375 0.921875
vt 0.015625 0.984375
vt 0.0859375 0.984375
vt 0.015625 0.921875
vt 0.59375 0.6015625
vt 0.640625 0.6171875
vt 0.578125 0.6171875
vt 0.625 0.6015625
vt 0.640625 0.5546875
vt 0.625 0.5703125
vt 0.59375 0.5703125
vt 0.578125 0.5546875
vt 0.0234375 0.890625
vt 0.0859375 0.921875
vt 0.0234375 0.921875
vt 0.0859375 0.890625
vt 0.265625 0.890625
vt 0.328125 0.921875
vt 0.328125 0.890625
vt 0.265625 0.921875
vn 0 0 -1
vn -0.0002050861 0 -1
vn 0 0.001640687 -0.9999986
vn 0.0002050021 0 -1
vn -0.0002051703 0 -1
vn 0.0002050869 -0.000820344 -0.9999996
vn 0 0 -1
vn 0 0 -1
vn 1 1.065264E-06 0
vn 1 1.065264E-06 0.0001907305
vn 1 1.065264E-06 0
vn 1 1.065264E-06 0
vn 0 0 -1
vn 0 0 -1
vn 0 0 -1
vn 0 0 -1
vn 1 1.065264E-06 0
vn 1 1.065264E-06 0
vn 0.9999999 1.065264E-06 -0.000381461
vn 0.9999999 1.065264E-06 -0.0003813882
vn 0 0 1
vn 0 0 1
vn 0 0 1
vn 0 0.002460521 0.999997
vn 0 0 1
vn 0 0.0008200079 0.9999996
vn 1.065264E-06 -1 0.0001906941
vn 1.065264E-06 -1 0
vn 1.065264E-06 -0.9999999 0.0003813882
vn 1.065264E-06 -1 0
vn 1.065264E-06 -1 0
vn 1.065265E-06 -1 0
vn 1.065265E-06 -1 0
vn -0.0001897745 -1 0
vn 1.065265E-06 -1 0
vn 1.065264E-06 -1 0
vn 1.065264E-06 -1 -0.0001906941
vn 1.065264E-06 -1 0
vn -0.00020496 0 1
vn 0 0 1
vn 0 0 1
vn 0 0 1
vn 1.065264E-06 -1 -0.0001906941
vn -0.0003800323 -0.9999999 0
vn -0.0001894835 -1 0
vn 0.0001917594 -1 0
vn 0.000191905 -1 0
vn 4.877519E-05 -0.9999999 -0.0003816794
vn 1.065264E-06 -1 0.0001908397
vn 1.065264E-06 -1 0
vn -1 -1.065264E-06 0
vn -0.9999995 0.0007618564 -0.0005721912
vn -1 -1.065264E-06 0
vn -0.9999999 -1.065264E-06 -0.000381461
vn -0.0002050861 0 -1
vn 0.0001538777 0 -1
vn 0 0 -1
vn 0.0001537515 0 -1
vn -1.065264E-06 1 0
vn 0.0003806141 0.9999999 0
vn -1.065264E-06 1 0
vn -0.0001921968 1 0
vn 0.0004100041 0 0.9999999
vn 0.0002563567 0.0008203445 0.9999996
vn 0 0 1
vn 0 0 1
vn -0.9999988 -0.001526907 0
vn -0.9999982 -0.001526907 -0.001144381
vn -0.9999996 0.000761711 -0.0003813881
vn -1 -1.065264E-06 0
vn -0.9999999 -1.065264E-06 0.000381461
vn -1 -1.065264E-06 0.0001907305
vn -1 -1.065264E-06 0.0001907305
vn -1 -1.065264E-06 0
vn 0.9999988 0.001526617 0
vn 0.9999999 1.065264E-06 0.0003813882
vn 1 1.065264E-06 0
vn 1 1.065264E-06 0
vn 1 1.065264E-06 0.0001907669
vn 0.9999988 0.001527198 0
vn 1 1.065264E-06 0
vn 1 1.065264E-06 0
vn -1.065264E-06 1 -0.0001906941
vn -1.065264E-06 1 0
vn -1.065264E-06 1 0
vn -1.065264E-06 1 0.0001906941
vn -1.065264E-06 1 0
vn -1.065264E-06 0.9999999 -0.0003813882
vn -1.065264E-06 1 0
vn -1.065264E-06 1 0
vn -1 -1.065264E-06 0
vn -0.9999997 0.0007618565 0
vn -1 -1.065264E-06 0.0001907305
vn -1 -1.065264E-06 0
vn 0.0002050441 0 1
vn 0 0.002460521 0.999997
vn 0 0 1
vn 0 0 1
vn 0 0 1
vn -0.0002091166 -0.0008364701 0.9999996
vn 0 0 1
vn -0.000209205 0 1
vn 0 0 1
vn 0 0 1
vn 0 0 1
vn 0.0002090301 0 1
vn 1 1.065264E-06 0
vn 1 1.065264E-06 0
vn 1 1.065264E-06 0
vn 0.9999999 1.065264E-06 -0.000381461
vn 0 0 1
vn 0 0 1
vn 0 0 1
vn 0 0 1
vn 0.9999995 1.065264E-06 0.000953652
vn 0.9999996 0.0007638415 0.0003813881
vn 0.9999987 -0.001525068 -0.0003815333
vn 1 1.065264E-06 0
vn -0.0002090738 0 -1
vn 0 0 -1
vn -0.0001045369 0 -1
vn -0.0002090717 -0.001672588 -0.9999986
vn 0 0 -1
vn 0 0 -1
vn 9.641233E-05 -1 0
vn 1.065264E-06 -1 0
vn 1.065264E-06 -1 0
vn 1.065264E-06 -0.9999997 -0.0007627763
vn 1.065265E-06 -1 0
vn 1.065264E-06 -1 0
vn 1.065265E-06 -1 0
vn 1.065264E-06 -1 0
vn 1.065264E-06 -1 0
vn 1.065264E-06 -1 0
vn 1.065264E-06 -1 0
vn 1.065264E-06 -1 0
vn 0 0 -1
vn 0 0 -1
vn 0.0001045369 0 -1
vn -0.0002090738 0 -1
vn -0.0001894835 -0.9999999 -0.0003810975
vn -0.0001896288 -0.9999999 0.0003813882
vn 1.065264E-06 -1 0
vn 1.065264E-06 -0.9999999 0.0003813882
vn 1.065264E-06 -1 0
vn 1.065264E-06 -0.9999997 0.0007633585
vn 1.065264E-06 -0.9999998 -0.0005720822
vn -4.664466E-05 -1 0
vn -0.9999997 -1.065264E-06 -0.0007629217
vn -0.9999988 -0.001526907 -0.0001907303
vn -1 -1.065264E-06 0
vn -0.9999999 -1.065264E-06 -0.000381461
vn 0 0 1
vn -0.0001567726 0 1
vn -5.230126E-05 0 1
vn 0 0 1
vn -1.065264E-06 1 0
vn -0.000191324 1 0
vn -0.0001919049 0.9999999 -0.0003816793
vn -1.065264E-06 1 0
vn -0.0002090738 0 -1
vn 0 -0.0008361202 -0.9999996
vn -0.0004181483 0.0008362943 -0.9999996
vn -5.226845E-05 0 -1
vn -0.9999987 -0.001526907 -0.0003814605
vn -0.9999988 -0.001526907 0
vn -0.9999997 -1.065264E-06 -0.0007629217
vn -1 -1.065264E-06 0
vn -1 -1.065264E-06 0
vn -0.9999995 -1.065264E-06 -0.000953561
vn -1 -1.065264E-06 0
vn -0.9999997 -1.065264E-06 -0.0007629217
vn 1 1.065264E-06 0
vn 1 1.065264E-06 0
vn 0.9999997 -0.000762002 0
vn 1 1.065264E-06 0
vn 0.9999995 1.065264E-06 -0.000953652
vn 0.9999999 1.065264E-06 -0.0003815338
vn 0.9999989 -0.001524486 0
vn 1 1.065264E-06 0
vn -4.877519E-05 1 0
vn -1.065264E-06 1 0
vn -1.065264E-06 0.9999997 -0.0007627763
vn -0.0001440859 1 0
vn -1.065264E-06 0.9999999 -0.0003813882
vn -1.065264E-06 0.9999997 -0.0007627763
vn -0.0001917594 1 0
vn -1.065264E-06 1 0
vn -0.9999994 -0.0007639868 -0.0007629215
vn -1 -1.065264E-06 0
vn -1 -1.065264E-06 0
vn -0.9999993 0.0007618562 0.0009536518
vn 0.0002090728 0.0008362951 -0.9999996
vn -0.0001045369 0 -1
vn 0 -0.0008362949 -0.9999996
vn -0.0002090738 0 -1
g avatar_robotic_arms_mesh_0
f 3/3/3 2/2/2 1/1/1
f 4/4/4 1/1/1 2/2/2
f 7/7/7 6/6/6 5/5/5
f 8/8/8 5/5/5 6/6/6
f 11/11/11 10/10/10 9/9/9
f 12/12/12 9/9/9 10/10/10
f 15/15/15 14/14/14 13/13/13
f 16/16/16 13/13/13 14/14/14
f 19/19/19 18/18/18 17/17/17
f 20/20/20 17/17/17 18/18/18
f 23/23/23 22/22/22 21/21/21
f 24/24/24 21/21/21 22/22/22
f 25/25/25 23/23/23 21/21/21
f 26/26/26 24/24/24 22/22/22
f 29/29/29 28/28/28 27/27/27
f 30/30/30 27/27/27 28/28/28
f 33/33/33 32/32/32 31/31/31
f 34/34/34 31/31/31 32/32/32
f 34/34/34 35/35/35 31/31/31
f 36/36/36 31/31/31 35/35/35
f 35/35/35 37/37/37 36/36/36
f 38/38/38 36/36/36 37/37/37
f 41/41/41 40/40/40 39/39/39
f 42/42/42 39/39/39 40/40/40
f 45/45/45 44/44/44 43/43/43
f 46/46/46 43/43/43 44/44/44
f 44/44/44 45/45/45 47/47/47
f 48/48/48 47/47/47 45/45/45
f 46/46/46 49/49/49 43/43/43
f 47/47/47 48/48/48 49/49/49
f 50/50/50 43/43/43 49/49/49
f 50/50/50 49/49/49 48/48/48
f 53/53/53 52/52/52 51/51/51
f 54/54/54 51/51/51 52/52/52
f 57/57/57 56/56/56 55/55/55
f 58/58/58 55/55/55 56/56/56
f 61/61/61 60/60/60 59/59/59
f 62/62/62 59/59/59 60/60/60
f 65/65/65 64/64/64 63/63/63
f 66/66/66 63/63/63 64/64/64
f 69/69/69 68/68/68 67/67/67
f 70/70/70 67/67/67 68/68/68
f 73/73/73 72/72/72 71/71/71
f 74/74/74 71/71/71 72/72/72
f 77/77/77 76/76/76 75/75/75
f 78/78/78 75/75/75 76/76/76
f 81/81/81 80/80/80 79/79/79
f 82/82/82 79/79/79 80/80/80
f 85/85/85 84/84/84 83/83/83
f 86/86/86 83/83/83 84/84/84
f 84/84/84 85/85/85 87/87/87
f 88/88/88 87/87/87 85/85/85
f 83/83/83 86/86/86 89/89/89
f 88/88/88 89/89/89 87/87/87
f 90/90/90 89/89/89 86/86/86
f 90/90/90 87/87/87 89/89/89
f 93/93/93 92/92/92 91/91/91
f 94/94/94 91/91/91 92/92/92
f 97/97/97 96/96/96 95/95/95
f 98/98/98 95/95/95 96/96/96
f 101/101/101 100/100/100 99/99/99
f 102/102/102 99/99/99 100/100/100
f 105/105/105 104/104/104 103/103/103
f 106/106/106 103/103/103 104/104/104
f 109/109/109 108/108/108 107/107/107
f 110/110/110 107/107/107 108/108/108
f 113/113/113 112/112/112 111/111/111
f 114/114/114 111/111/111 112/112/112
f 117/117/117 116/116/116 115/115/115
f 118/118/118 115/115/115 116/116/116
f 121/121/121 120/120/120 119/119/119
f 122/122/122 119/119/119 120/120/120
f 122/122/122 123/123/123 119/119/119
f 121/121/121 124/124/124 120/120/120
f 127/127/127 126/126/126 125/125/125
f 128/128/128 125/125/125 126/126/126
f 131/131/131 130/130/130 129/129/129
f 132/132/132 129/129/129 130/130/130
f 131/131/131 129/129/129 133/133/133
f 134/134/134 133/133/133 129/129/129
f 133/133/133 134/134/134 135/135/135
f 136/136/136 135/135/135 134/134/134
f 139/139/139 138/138/138 137/137/137
f 140/140/140 137/137/137 138/138/138
f 143/143/143 142/142/142 141/141/141
f 144/144/144 141/141/141 142/142/142
f 142/142/142 145/145/145 144/144/144
f 146/146/146 144/144/144 145/145/145
f 143/143/143 141/141/141 147/147/147
f 145/145/145 147/147/147 146/146/146
f 148/148/148 147/147/147 141/141/141
f 148/148/148 146/146/146 147/147/147
f 151/151/151 150/150/150 149/149/149
f 152/152/152 149/149/149 150/150/150
f 155/155/155 154/154/154 153/153/153
f 156/156/156 153/153/153 154/154/154
f 159/159/159 158/158/158 157/157/157
f 160/160/160 157/157/157 158/158/158
f 163/163/163 162/162/162 161/161/161
f 164/164/164 161/161/161 162/162/162
f 167/167/167 166/166/166 165/165/165
f 168/168/168 165/165/165 166/166/166
f 171/171/171 170/170/170 169/169/169
f 172/172/172 169/169/169 170/170/170
f 175/175/175 174/174/174 173/173/173
f 176/176/176 173/173/173 174/174/174
f 179/179/179 178/178/178 177/177/177
f 180/180/180 177/177/177 178/178/178
f 183/183/183 182/182/182 181/181/181
f 184/184/184 181/181/181 182/182/182
f 182/182/182 185/185/185 184/184/184
f 186/186/186 184/184/184 185/185/185
f 181/181/181 187/187/187 183/183/183
f 186/186/186 185/185/185 187/187/187
f 188/188/188 183/183/183 187/187/187
f 188/188/188 187/187/187 185/185/185
f 191/191/191 190/190/190 189/189/189
f 192/192/192 189/189/189 190/190/190
f 195/195/195 194/194/194 193/193/193
f 196/196/196 193/193/193 194/194/194
