g avatar_frozen_mesh_head
v 1.87408 -0.4636727 -0.1933818
v 1.874079 -0.4943795 -0.1933826
v 1.874233 -0.4943803 -0.162676
v 1.874389 -0.4636742 -0.1319687
v 1.874386 -0.5250878 -0.1319702
v 1.874232 -0.5250871 -0.1626768
v 1.84368 -0.5250866 -0.1318157
v 1.843526 -0.4943791 -0.1625216
v 1.843686 -0.340846 -0.1318113
v 1.843525 -0.5250859 -0.1625223
v 1.843377 -0.3408445 -0.1932245
v 1.843372 -0.4943784 -0.1932281
v 1.967584 -0.5865099 0.082511
v 1.998292 -0.5558043 0.08235727
v 1.967592 -0.3715625 0.08251613
v 1.998291 -0.586511 0.08235653
v 2.029005 -0.3715647 0.08220718
v 2.028998 -0.5558054 0.08220278
v 1.843377 -0.3408445 -0.1932245
v 1.843372 -0.4943784 -0.1932281
v 1.87408 -0.4636727 -0.1933818
v 1.90479 -0.3408468 -0.1935334
v 1.904786 -0.4636739 -0.1935363
v 1.874079 -0.4943795 -0.1933826
v 1.935342 -0.3408472 -0.2243945
v 1.935346 -0.2487269 -0.2243923
v 1.81252 -0.2487224 -0.2237744
v 1.812517 -0.3408427 -0.2237766
v 1.721941 -0.3715534 0.08375186
v 1.721932 -0.6172075 0.08374599
v 1.721779 -0.5865001 0.05304016
v 1.721632 -0.3715519 0.02233871
v 1.721624 -0.5864993 0.02233359
v 1.721778 -0.6172068 0.05303942
v 1.752641 -0.5557951 0.083593
v 1.752485 -0.5865012 0.05288569
v 1.752638 -0.6172087 0.08359154
v 1.752332 -0.5557937 0.02217985
v 1.752484 -0.6172079 0.05288496
v 1.752331 -0.5865005 0.02217912
v 1.721624 -0.5864993 0.02233359
v 1.752331 -0.5865005 0.02217912
v 1.752332 -0.5557937 0.02217985
v 1.721632 -0.3715519 0.02233871
v 1.783045 -0.3715542 0.02202977
v 1.783038 -0.5557948 0.02202538
v 2.05957 -0.0337907 0.05135419
v 1.998157 -0.03378843 0.05166312
v 1.936736 -0.2487336 0.05196693
v 2.059557 -0.3715651 0.05134613
v 1.936731 -0.3715606 0.051964
v 1.998292 -0.5558043 0.08235727
v 1.998291 -0.586511 0.08235653
v 1.998445 -0.5865117 0.1130631
v 1.998601 -0.5558057 0.1437704
v 1.998599 -0.6172193 0.143769
v 1.998444 -0.6172185 0.1130624
v 1.967901 -0.371564 0.1439293
v 1.967892 -0.6172181 0.1439234
v 1.967739 -0.5865107 0.1132176
v 1.967592 -0.3715625 0.08251613
v 1.967584 -0.5865099 0.082511
v 1.967738 -0.6172174 0.1132169
v 1.998601 -0.5558057 0.1437704
v 1.967892 -0.6172181 0.1439234
v 1.967901 -0.371564 0.1439293
v 2.029314 -0.3715662 0.1436203
v 2.029307 -0.5558069 0.1436159
v 1.998599 -0.6172193 0.143769
v 1.814219 -0.2487305 0.113998
v 1.813601 -0.2487275 -0.008828347
v 1.813597 -0.3715546 -0.008831275
v 1.814215 -0.3715575 0.1139951
v 1.505302 -0.2487103 -0.2529363
v 1.50532 0.242598 -0.2529246
v 1.507792 0.2425862 0.2383807
v 1.507773 -0.2487221 0.238369
v 1.507792 0.2425862 0.2383807
v 1.50532 0.242598 -0.2529246
v 1.996622 0.2425799 -0.2553961
v 1.999094 0.2425681 0.2359092
v 1.874233 -0.4943803 -0.162676
v 1.874079 -0.4943795 -0.1933826
v 1.843372 -0.4943784 -0.1932281
v 1.843526 -0.4943791 -0.1625216
v 1.874386 -0.5250878 -0.1319702
v 1.874232 -0.5250871 -0.1626768
v 1.843525 -0.5250859 -0.1625223
v 1.84368 -0.5250866 -0.1318157
v 1.874232 -0.5250871 -0.1626768
v 1.874233 -0.4943803 -0.162676
v 1.843526 -0.4943791 -0.1625216
v 1.843525 -0.5250859 -0.1625223
v 1.84368 -0.5250866 -0.1318157
v 1.843686 -0.340846 -0.1318113
v 1.874389 -0.4636742 -0.1319687
v 1.874386 -0.5250878 -0.1319702
v 1.905099 -0.3408483 -0.1321203
v 1.905095 -0.4636753 -0.1321232
v 1.721932 -0.6172075 0.08374599
v 1.721941 -0.3715534 0.08375186
v 1.752641 -0.5557951 0.083593
v 1.752638 -0.6172087 0.08359154
v 1.783354 -0.3715557 0.08344293
v 1.783347 -0.5557963 0.08343853
v 1.812517 -0.3408427 -0.2237766
v 1.81252 -0.2487224 -0.2237744
v 1.813138 -0.2487253 -0.1009481
v 1.813135 -0.3408456 -0.1009503
v 1.904786 -0.4636739 -0.1935363
v 1.87408 -0.4636727 -0.1933818
v 1.874389 -0.4636742 -0.1319687
v 1.905095 -0.4636753 -0.1321232
v 1.691389 -0.3715529 0.1146129
v 1.690771 -0.37155 -0.008213403
v 1.690776 -0.248723 -0.008210476
v 1.691394 -0.248726 0.1146159
v 1.752485 -0.5865012 0.05288569
v 1.752331 -0.5865005 0.02217912
v 1.721624 -0.5864993 0.02233359
v 1.721779 -0.5865001 0.05304016
v 2.029018 -0.0337903 0.08221523
v 2.029327 -0.03379178 0.1436284
v 2.02933 0.05832853 0.1436306
v 2.029021 0.05833001 0.08221743
v 1.752638 -0.6172087 0.08359154
v 1.752484 -0.6172079 0.05288496
v 1.721778 -0.6172068 0.05303942
v 1.721932 -0.6172075 0.08374599
v 1.937349 -0.3715636 0.1747903
v 1.936731 -0.3715606 0.051964
v 1.936736 -0.2487336 0.05196693
v 1.937354 -0.2487365 0.1747933
v 1.783347 -0.5557963 0.08343853
v 1.783354 -0.3715557 0.08344293
v 1.783045 -0.3715542 0.02202977
v 1.783038 -0.5557948 0.02202538
v 1.813135 -0.3408456 -0.1009503
v 1.813138 -0.2487253 -0.1009481
v 1.935964 -0.2487299 -0.1015659
v 1.93596 -0.3408502 -0.1015682
v 2.060187 -0.03379365 0.1741805
v 1.998775 -0.03379138 0.1744894
v 1.998157 -0.03378843 0.05166312
v 2.05957 -0.0337907 0.05135419
v 1.998445 -0.5865117 0.1130631
v 1.998291 -0.586511 0.08235653
v 1.967584 -0.5865099 0.082511
v 1.967739 -0.5865107 0.1132176
v 1.999094 0.2425681 0.2359092
v 1.999076 -0.2487402 0.2358975
v 1.507773 -0.2487221 0.238369
v 1.507792 0.2425862 0.2383807
v 2.029307 -0.5558069 0.1436159
v 2.029314 -0.3715662 0.1436203
v 2.029005 -0.3715647 0.08220718
v 2.028998 -0.5558054 0.08220278
v 1.691389 -0.3715529 0.1146129
v 1.691394 -0.248726 0.1146159
v 1.814219 -0.2487305 0.113998
v 1.814215 -0.3715575 0.1139951
v 1.99862 -0.03379064 0.1437829
v 1.998624 0.05832966 0.1437851
v 2.02933 0.05832853 0.1436306
v 2.029327 -0.03379178 0.1436284
v 1.937349 -0.3715636 0.1747903
v 1.937354 -0.2487365 0.1747933
v 2.060175 -0.3715681 0.1741725
v 2.060187 -0.03379365 0.1741805
v 1.998775 -0.03379138 0.1744894
v 1.998444 -0.6172185 0.1130624
v 1.998445 -0.5865117 0.1130631
v 1.967739 -0.5865107 0.1132176
v 1.967738 -0.6172174 0.1132169
v 1.998599 -0.6172193 0.143769
v 1.998444 -0.6172185 0.1130624
v 1.967738 -0.6172174 0.1132169
v 1.967892 -0.6172181 0.1439234
v 2.060175 -0.3715681 0.1741725
v 2.059557 -0.3715651 0.05134613
v 1.936731 -0.3715606 0.051964
v 1.937349 -0.3715636 0.1747903
v 1.813597 -0.3715546 -0.008831275
v 1.690771 -0.37155 -0.008213403
v 1.691389 -0.3715529 0.1146129
v 1.814215 -0.3715575 0.1139951
v 1.813135 -0.3408456 -0.1009503
v 1.93596 -0.3408502 -0.1015682
v 1.935342 -0.3408472 -0.2243945
v 1.812517 -0.3408427 -0.2237766
v 1.998315 0.05833114 0.0823719
v 1.998311 -0.03378917 0.08236971
v 2.029018 -0.0337903 0.08221523
v 2.029021 0.05833001 0.08221743
v 2.028998 -0.5558054 0.08220278
v 1.998292 -0.5558043 0.08235727
v 1.998601 -0.5558057 0.1437704
v 2.029307 -0.5558069 0.1436159
v 2.060175 -0.3715681 0.1741725
v 2.060187 -0.03379365 0.1741805
v 2.05957 -0.0337907 0.05135419
v 2.059557 -0.3715651 0.05134613
v 1.752484 -0.6172079 0.05288496
v 1.752485 -0.5865012 0.05288569
v 1.721779 -0.5865001 0.05304016
v 1.721778 -0.6172068 0.05303942
v 1.996604 -0.2487284 -0.2554078
v 1.505302 -0.2487103 -0.2529363
v 1.507773 -0.2487221 0.238369
v 1.999076 -0.2487402 0.2358975
v 1.996622 0.2425799 -0.2553961
v 1.996604 -0.2487284 -0.2554078
v 1.999076 -0.2487402 0.2358975
v 1.999094 0.2425681 0.2359092
v 1.935346 -0.2487269 -0.2243923
v 1.935342 -0.3408472 -0.2243945
v 1.93596 -0.3408502 -0.1015682
v 1.935964 -0.2487299 -0.1015659
v 1.996604 -0.2487284 -0.2554078
v 1.996622 0.2425799 -0.2553961
v 1.50532 0.242598 -0.2529246
v 1.505302 -0.2487103 -0.2529363
v 1.813597 -0.3715546 -0.008831275
v 1.813601 -0.2487275 -0.008828347
v 1.690776 -0.248723 -0.008210476
v 1.690771 -0.37155 -0.008213403
v 1.783038 -0.5557948 0.02202538
v 1.752332 -0.5557937 0.02217985
v 1.752641 -0.5557951 0.083593
v 1.783347 -0.5557963 0.08343853
v 2.029021 0.05833001 0.08221743
v 2.02933 0.05832853 0.1436306
v 1.998624 0.05832966 0.1437851
v 1.998315 0.05833114 0.0823719
v 1.905099 -0.3408483 -0.1321203
v 1.90479 -0.3408468 -0.1935334
v 1.904786 -0.4636739 -0.1935363
v 1.905095 -0.4636753 -0.1321232
vt 0.4375 0.1328125
vt 0.4296875 0.1328125
vt 0.4296875 0.125
vt 0.4375 0.1171875
vt 0.421875 0.1171875
vt 0.421875 0.125
vt 0.265625 0.2890625
vt 0.2734375 0.28125
vt 0.3125 0.2890625
vt 0.265625 0.28125
vt 0.3125 0.2734375
vt 0.2734375 0.2734375
vt 0.6796875 0.9609375
vt 0.6875 0.96875
vt 0.734375 0.9609375
vt 0.6796875 0.96875
vt 0.734375 0.9765625
vt 0.6875 0.9765625
vt 0.7421875 0.9296875
vt 0.703125 0.9296875
vt 0.7109375 0.9375
vt 0.7421875 0.9453125
vt 0.7109375 0.9453125
vt 0.703125 0.9375
vt 0.7421875 0.953125
vt 0.765625 0.953125
vt 0.765625 0.921875
vt 0.7421875 0.921875
vt 0.3046875 0.34375
vt 0.2421875 0.34375
vt 0.25 0.3359375
vt 0.3046875 0.328125
vt 0.25 0.328125
vt 0.2421875 0.3359375
vt 0.4140625 0.0625
vt 0.40625 0.0703125
vt 0.3984375 0.0625
vt 0.4140625 0.078125
vt 0.3984375 0.0703125
vt 0.40625 0.078125
vt 0.6796875 0.8984375
vt 0.6796875 0.90625
vt 0.6875 0.90625
vt 0.734375 0.8984375
vt 0.734375 0.9140625
vt 0.6875 0.9140625
vt 0.8203125 0.984375
vt 0.8203125 0.96875
vt 0.765625 0.953125
vt 0.734375 0.984375
vt 0.734375 0.953125
vt 0.4140625 0.0625
vt 0.40625 0.0625
vt 0.40625 0.0546875
vt 0.4140625 0.046875
vt 0.3984375 0.046875
vt 0.3984375 0.0546875
vt 0.3046875 0.359375
vt 0.2421875 0.359375
vt 0.25 0.3515625
vt 0.3046875 0.34375
vt 0.25 0.34375
vt 0.2421875 0.3515625
vt 0.6875 0.96875
vt 0.671875 0.9609375
vt 0.734375 0.9609375
vt 0.734375 0.9765625
vt 0.6875 0.9765625
vt 0.671875 0.96875
vt 0.4921875 0.0546875
vt 0.4921875 0.0859375
vt 0.4609375 0.0859375
vt 0.4609375 0.0546875
vt 0.3359375 0.2578125
vt 0.4609375 0.2578125
vt 0.4609375 0.3828125
vt 0.3359375 0.3828125
vt 0.53125 0.4296875
vt 0.65625 0.4296875
vt 0.65625 0.5546875
vt 0.53125 0.5546875
vt 0.40625 0.9375
vt 0.3984375 0.9375
vt 0.3984375 0.9296875
vt 0.40625 0.9296875
vt 0.4140625 0.9375
vt 0.40625 0.9375
vt 0.40625 0.9296875
vt 0.4140625 0.9296875
vt 0.6953125 0.9375
vt 0.703125 0.9375
vt 0.703125 0.9296875
vt 0.6953125 0.9296875
vt 0.6953125 0.9296875
vt 0.7421875 0.9296875
vt 0.7109375 0.9375
vt 0.6953125 0.9375
vt 0.7421875 0.9453125
vt 0.7109375 0.9453125
vt 0.671875 0.8984375
vt 0.734375 0.8984375
vt 0.6875 0.90625
vt 0.671875 0.90625
vt 0.734375 0.9140625
vt 0.6875 0.9140625
vt 0.3125 0.265625
vt 0.3359375 0.265625
vt 0.3359375 0.296875
vt 0.3125 0.296875
vt 0.3984375 0.9453125
vt 0.3984375 0.9375
vt 0.4140625 0.9375
vt 0.4140625 0.9453125
vt 0.3046875 0.3515625
vt 0.3046875 0.3203125
vt 0.3359375 0.3203125
vt 0.3359375 0.3515625
vt 0.4609375 0.90625
vt 0.453125 0.90625
vt 0.453125 0.8984375
vt 0.4609375 0.8984375
vt 0.546875 0.0625
vt 0.546875 0.046875
vt 0.5703125 0.046875
vt 0.5703125 0.0625
vt 0.46875 0.90625
vt 0.4609375 0.90625
vt 0.4609375 0.8984375
vt 0.46875 0.8984375
vt 0.3046875 0.3671875
vt 0.3046875 0.3359375
vt 0.3359375 0.3359375
vt 0.3359375 0.3671875
vt 0.4140625 0.0625
vt 0.4609375 0.0625
vt 0.4609375 0.078125
vt 0.4140625 0.078125
vt 0.7421875 0.921875
vt 0.765625 0.921875
vt 0.765625 0.953125
vt 0.7421875 0.953125
vt 0.546875 0.5703125
vt 0.546875 0.5546875
vt 0.578125 0.5546875
vt 0.578125 0.5703125
vt 0.4765625 0.96875
vt 0.46875 0.96875
vt 0.46875 0.9609375
vt 0.4765625 0.9609375
vt 0.890625 0.96875
vt 0.765625 0.96875
vt 0.765625 0.84375
vt 0.890625 0.84375
vt 0.4140625 0.046875
vt 0.4609375 0.046875
vt 0.4609375 0.0625
vt 0.4140625 0.0625
vt 0.734375 0.890625
vt 0.765625 0.890625
vt 0.765625 0.921875
vt 0.734375 0.921875
vt 0.8203125 0.96875
vt 0.84375 0.96875
vt 0.84375 0.9765625
vt 0.8203125 0.9765625
vt 0.734375 0.953125
vt 0.765625 0.953125
vt 0.734375 0.984375
vt 0.8203125 0.984375
vt 0.8203125 0.96875
vt 0.671875 0.96875
vt 0.6796875 0.96875
vt 0.6796875 0.9609375
vt 0.671875 0.9609375
vt 0.484375 0.96875
vt 0.4765625 0.96875
vt 0.4765625 0.9609375
vt 0.484375 0.9609375
vt 0.4921875 0.984375
vt 0.4609375 0.984375
vt 0.4609375 0.953125
vt 0.4921875 0.953125
vt 0.4453125 0.921875
vt 0.4453125 0.890625
vt 0.4765625 0.890625
vt 0.4765625 0.921875
vt 0.421875 0.921875
vt 0.421875 0.953125
vt 0.390625 0.953125
vt 0.390625 0.921875
vt 0.84375 0.96875
vt 0.8203125 0.96875
vt 0.8203125 0.9765625
vt 0.84375 0.9765625
vt 0.46875 0.9765625
vt 0.46875 0.96875
vt 0.484375 0.96875
vt 0.484375 0.9765625
vt 0.4609375 0.0390625
vt 0.546875 0.0390625
vt 0.546875 0.0703125
vt 0.4609375 0.0703125
vt 0.671875 0.90625
vt 0.6796875 0.90625
vt 0.6796875 0.8984375
vt 0.671875 0.8984375
vt 0.3828125 0.96875
vt 0.3828125 0.84375
vt 0.5078125 0.84375
vt 0.5078125 0.96875
vt 0.6171875 0.1484375
vt 0.4921875 0.1484375
vt 0.4921875 0.0234375
vt 0.6171875 0.0234375
vt 0.4921875 0.140625
vt 0.46875 0.140625
vt 0.46875 0.109375
vt 0.4921875 0.109375
vt 0.2890625 0.96875
vt 0.1640625 0.96875
vt 0.1640625 0.84375
vt 0.2890625 0.84375
vt 0.734375 0.921875
vt 0.765625 0.921875
vt 0.765625 0.890625
vt 0.734375 0.890625
vt 0.453125 0.9140625
vt 0.453125 0.90625
vt 0.46875 0.90625
vt 0.46875 0.9140625
vt 0.5703125 0.5625
vt 0.5546875 0.5625
vt 0.5546875 0.5546875
vt 0.5703125 0.5546875
vt 0.46875 0.1171875
vt 0.46875 0.1328125
vt 0.4375 0.1328125
vt 0.4375 0.1171875
vn 0.9999867 0 -0.005152603
vn 0.9999867 0 -0.005152603
vn 0.9999877 0 -0.004961771
vn 0.9999872 0 -0.005057187
vn 0.9999877 0 -0.004961771
vn 0.9999877 0 -0.004961771
vn -0.9999877 0 0.004961771
vn -0.9999877 0 0.004961771
vn -0.9999877 0 0.004961771
vn -0.9999877 0 0.004961771
vn -0.9999877 0 0.004961771
vn -0.9999877 0 0.004961771
vn -0.004577484 0 -0.9999895
vn -0.004577484 0 -0.9999895
vn -0.004577484 0 -0.9999895
vn -0.004577484 0 -0.9999895
vn -0.004577484 0 -0.9999895
vn -0.004577484 0 -0.9999895
vn -0.004577484 0 -0.9999895
vn -0.004577484 0 -0.9999895
vn -0.004577484 0 -0.9999895
vn -0.004577484 0 -0.9999895
vn -0.004577484 0 -0.9999895
vn -0.004577484 0 -0.9999895
vn -0.006103262 0 -0.9999814
vn -0.004577484 0 -0.9999895
vn -0.004577484 0 -0.9999895
vn -0.006103262 0 -0.9999814
vn -0.9999872 0 0.005057187
vn -0.9999872 0 0.005057187
vn -0.9999874 0 0.005009479
vn -0.9999873 0 0.005033333
vn -0.9999873 0 0.005033333
vn -0.9999872 0 0.005057187
vn 0.9999871 -0.0003816745 -0.005057187
vn 0.9999871 -0.0003816745 -0.005057187
vn 0.9999871 -0.0003816745 -0.005057187
vn 0.9999874 -0.0003816746 -0.005009478
vn 0.9999871 -0.0003816745 -0.005057187
vn 0.9999874 -0.0003816746 -0.005009478
vn -0.006103408 0 -0.9999813
vn -0.006103408 0 -0.9999813
vn -0.004577593 0 -0.9999895
vn -0.006103408 0 -0.9999813
vn -0.006103408 0 -0.9999813
vn -0.004577593 0 -0.9999895
vn -0.006103262 2.384087E-05 -0.9999814
vn -0.006103262 2.384087E-05 -0.9999814
vn -0.006103262 0.0001907269 -0.9999813
vn -0.004577484 0 -0.9999895
vn -0.004577484 0 -0.9999895
vn 0.9999872 0 -0.005057187
vn 0.9999872 0 -0.005057187
vn 0.9999872 0 -0.005057187
vn 0.9999872 0 -0.005057187
vn 0.9999872 0 -0.005057187
vn 0.9999872 0 -0.005057187
vn -0.9999872 0 0.005057187
vn -0.9999872 0 0.005057187
vn -0.9999872 0 0.005057187
vn -0.9999872 0 0.005057187
vn -0.9999872 0 0.005057187
vn -0.9999872 0 0.005057187
vn 0.004577484 0 0.9999895
vn 0.004577484 0 0.9999895
vn 0.004577484 0 0.9999895
vn 0.004577484 0 0.9999895
vn 0.004577484 0 0.9999895
vn 0.004577484 0 0.9999895
vn 0.9999872 -0.0001908373 -0.005057187
vn 0.9999873 -0.0001908373 -0.005033333
vn 0.9999874 0 -0.00502737
vn 0.9999872 0 -0.005057187
vn -0.9999877 0.0001908373 0.004961771
vn -0.9999877 0.0001908373 0.004961771
vn -0.9999877 0.0001908373 0.004961771
vn -0.9999877 0.0001908373 0.004961771
vn 0 1 0
vn 0 1 0
vn 0 1 0
vn 0 1 0
vn 0 -1 0
vn 0 -1 0
vn 0 -1 0
vn 0 -1 0
vn 0 -1 -9.538344E-05
vn 0 -1 0
vn 0 -1 -0.0001907669
vn 0 -1 -9.538344E-05
vn -0.004577484 0 -0.9999895
vn -0.004577484 0 -0.9999895
vn -0.004577484 0 -0.9999895
vn -0.004577484 0 -0.9999895
vn 0.006103262 0 0.9999814
vn 0.004577484 0 0.9999895
vn 0.006103262 0 0.9999814
vn 0.006103262 0 0.9999814
vn 0.004577484 0 0.9999895
vn 0.006103262 0 0.9999814
vn 0.004577484 0 0.9999895
vn 0.006103262 0 0.9999814
vn 0.004577484 0 0.9999895
vn 0.004577484 0 0.9999895
vn 0.006103262 0 0.9999814
vn 0.004577484 0 0.9999895
vn -0.9999877 0 0.004961771
vn -0.9999877 0 0.004961771
vn -0.9999872 0 0.005057187
vn -0.9999872 0 0.005057187
vn 0 -1 0
vn 0 -1 0
vn 0 -1 0
vn 0 -1 0
vn -0.9999877 0 0.004961771
vn -0.9999874 0 0.00502737
vn -0.9999874 0.0001908373 0.00502737
vn -0.9999877 0.0001908373 0.004961771
vn 0 -1 0
vn 0 -1 -2.384586E-05
vn 0 -1 -2.384586E-05
vn 0 -1 0
vn 0.9999877 -2.385467E-05 -0.004961771
vn 0.9999877 -2.385467E-05 -0.004961771
vn 0.9999877 -4.770933E-05 -0.004961771
vn 0.9999877 -4.770933E-05 -0.004961771
vn 0 -1 0
vn 0 -1 0
vn 0 -1 0
vn 0 -1 0
vn -0.9999867 0 0.005152603
vn -0.9999872 0 0.005057187
vn -0.9999872 0 0.005057187
vn -0.9999867 0 0.005152603
vn 0.9999877 0 -0.004961771
vn 0.9999877 0 -0.004961771
vn 0.9999873 0 -0.005033333
vn 0.9999873 0 -0.005033333
vn 0.006103844 0 0.9999813
vn 0.004577921 0 0.9999895
vn 0.004578357 0 0.9999895
vn 0.006103262 0 0.9999814
vn 0 1 0
vn 0 1 0
vn 0 1 0
vn 0 1 0
vn 0 -1 -9.538344E-05
vn 0 -1 -9.538344E-05
vn 0 -1 -9.538344E-05
vn 0 -1 -9.538344E-05
vn 0.004577484 0 0.9999895
vn 0.004577484 0 0.9999895
vn 0.004577484 0 0.9999895
vn 0.004577484 0 0.9999895
vn 0.9999877 0 -0.004961771
vn 0.9999877 0 -0.004961771
vn 0.9999877 0 -0.004961771
vn 0.9999877 0 -0.004961771
vn 0.004577921 0 0.9999895
vn 0.006103844 0 0.9999813
vn 0.006103844 0 0.9999813
vn 0.004577921 0 0.9999895
vn 0.004577484 -2.384106E-05 0.9999895
vn 0.004577484 -4.768213E-05 0.9999895
vn 0.004577484 -4.768213E-05 0.9999895
vn 0.004577484 -2.384106E-05 0.9999895
vn 0.004577484 0 0.9999895
vn 0.006103262 0 0.9999814
vn 0.004578357 0 0.9999895
vn 0.006104426 -2.384542E-05 0.9999813
vn 0.006103262 -2.384087E-05 0.9999814
vn -0.004577484 0 -0.9999895
vn -0.004577484 0 -0.9999895
vn -0.004577484 0 -0.9999895
vn -0.004577484 0 -0.9999895
vn 0 -1 0
vn 0 -1 0
vn 0 -1 0
vn 0 -1 0
vn 0 -1 0
vn 0 -1 0
vn 0 -1 0
vn 0 -1 0
vn 0 -1 -2.384586E-05
vn 0 -1 -2.384586E-05
vn 0 -1 -9.538344E-05
vn 0 -1 -9.538344E-05
vn 0 -1 0
vn 0 -1 0
vn 0 -1 0
vn 0 -1 0
vn -0.004577484 4.768213E-05 -0.9999895
vn -0.004577484 2.384106E-05 -0.9999895
vn -0.004577484 2.384106E-05 -0.9999895
vn -0.004577484 4.768213E-05 -0.9999895
vn 0 -1 0
vn 0 -1 0
vn 0 -1 0
vn 0 -1 0
vn 0.9999867 0 -0.005152603
vn 0.9999867 -4.770929E-05 -0.005152603
vn 0.9999872 -4.770932E-05 -0.005057187
vn 0.9999874 0 -0.005009479
vn -0.006103262 0 -0.9999814
vn -0.004577484 0 -0.9999895
vn -0.004577484 0 -0.9999895
vn -0.006103262 0 -0.9999814
vn 0 -1 0
vn 0 -1 0
vn 0 -1 0
vn 0 -1 0
vn 0.9999867 -0.0001908372 -0.005152603
vn 0.9999867 -0.0001908372 -0.005152603
vn 0.9999877 -0.0001908373 -0.004961771
vn 0.9999867 -0.0001908372 -0.005152603
vn 0.9999877 0 -0.004961771
vn 0.9999877 0 -0.004961771
vn 0.9999877 0 -0.004961771
vn 0.9999872 0 -0.005057187
vn -0.006103262 0 -0.9999814
vn -0.004577484 0 -0.9999895
vn -0.004577484 0 -0.9999895
vn -0.006103262 0 -0.9999814
vn -0.004577621 0 -0.9999895
vn -0.004577593 0 -0.9999895
vn -0.004577621 0 -0.9999895
vn -0.004577621 0 -0.9999895
vn 0 -1 -2.384586E-05
vn 0 -1 -2.384586E-05
vn 0 -1 0
vn 0 -1 0
vn 0 1 0
vn 0 1 0
vn 0 1 0
vn 0 1 0
vn 0.9999871 -0.0003816745 -0.005057187
vn 0.9999876 -0.0003816746 -0.00496177
vn 0.9999876 -0.0003816746 -0.00496177
vn 0.9999871 -0.0003816745 -0.005057187
g avatar_frozen_mesh_head_0
f 3/3/3 2/2/2 1/1/1
f 3/3/3 1/1/1 4/4/4
f 4/4/4 5/5/5 3/3/3
f 3/3/3 5/5/5 6/6/6
f 9/9/9 8/8/8 7/7/7
f 8/8/8 10/10/10 7/7/7
f 9/9/9 11/11/11 8/8/8
f 11/11/11 12/12/12 8/8/8
f 15/15/15 14/14/14 13/13/13
f 14/14/14 16/16/16 13/13/13
f 15/15/15 17/17/17 14/14/14
f 17/17/17 18/18/18 14/14/14
f 21/21/21 20/20/20 19/19/19
f 19/19/19 22/22/22 21/21/21
f 22/22/22 23/23/23 21/21/21
f 21/21/21 24/24/24 20/20/20
f 27/27/27 26/26/26 25/25/25
f 28/28/28 27/27/27 25/25/25
f 31/31/31 30/30/30 29/29/29
f 31/31/31 29/29/29 32/32/32
f 33/33/33 31/31/31 32/32/32
f 31/31/31 34/34/34 30/30/30
f 37/37/37 36/36/36 35/35/35
f 36/36/36 38/38/38 35/35/35
f 37/37/37 39/39/39 36/36/36
f 36/36/36 40/40/40 38/38/38
f 43/43/43 42/42/42 41/41/41
f 43/43/43 41/41/41 44/44/44
f 43/43/43 44/44/44 45/45/45
f 46/46/46 43/43/43 45/45/45
f 49/49/49 48/48/48 47/47/47
f 49/49/49 47/47/47 50/50/50
f 49/49/49 50/50/50 51/51/51
f 54/54/54 53/53/53 52/52/52
f 54/54/54 52/52/52 55/55/55
f 55/55/55 56/56/56 54/54/54
f 54/54/54 56/56/56 57/57/57
f 60/60/60 59/59/59 58/58/58
f 58/58/58 61/61/61 60/60/60
f 61/61/61 62/62/62 60/60/60
f 60/60/60 63/63/63 59/59/59
f 66/66/66 65/65/65 64/64/64
f 66/66/66 64/64/64 67/67/67
f 64/64/64 68/68/68 67/67/67
f 65/65/65 69/69/69 64/64/64
f 72/72/72 71/71/71 70/70/70
f 73/73/73 72/72/72 70/70/70
f 76/76/76 75/75/75 74/74/74
f 77/77/77 76/76/76 74/74/74
f 80/80/80 79/79/79 78/78/78
f 81/81/81 80/80/80 78/78/78
f 84/84/84 83/83/83 82/82/82
f 85/85/85 84/84/84 82/82/82
f 88/88/88 87/87/87 86/86/86
f 89/89/89 88/88/88 86/86/86
f 92/92/92 91/91/91 90/90/90
f 93/93/93 92/92/92 90/90/90
f 96/96/96 95/95/95 94/94/94
f 94/94/94 97/97/97 96/96/96
f 98/98/98 95/95/95 96/96/96
f 99/99/99 98/98/98 96/96/96
f 102/102/102 101/101/101 100/100/100
f 100/100/100 103/103/103 102/102/102
f 104/104/104 101/101/101 102/102/102
f 105/105/105 104/104/104 102/102/102
f 108/108/108 107/107/107 106/106/106
f 109/109/109 108/108/108 106/106/106
f 112/112/112 111/111/111 110/110/110
f 113/113/113 112/112/112 110/110/110
f 116/116/116 115/115/115 114/114/114
f 117/117/117 116/116/116 114/114/114
f 120/120/120 119/119/119 118/118/118
f 121/121/121 120/120/120 118/118/118
f 124/124/124 123/123/123 122/122/122
f 125/125/125 124/124/124 122/122/122
f 128/128/128 127/127/127 126/126/126
f 129/129/129 128/128/128 126/126/126
f 132/132/132 131/131/131 130/130/130
f 133/133/133 132/132/132 130/130/130
f 136/136/136 135/135/135 134/134/134
f 137/137/137 136/136/136 134/134/134
f 140/140/140 139/139/139 138/138/138
f 141/141/141 140/140/140 138/138/138
f 144/144/144 143/143/143 142/142/142
f 145/145/145 144/144/144 142/142/142
f 148/148/148 147/147/147 146/146/146
f 149/149/149 148/148/148 146/146/146
f 152/152/152 151/151/151 150/150/150
f 153/153/153 152/152/152 150/150/150
f 156/156/156 155/155/155 154/154/154
f 157/157/157 156/156/156 154/154/154
f 160/160/160 159/159/159 158/158/158
f 161/161/161 160/160/160 158/158/158
f 164/164/164 163/163/163 162/162/162
f 165/165/165 164/164/164 162/162/162
f 168/168/168 167/167/167 166/166/166
f 168/168/168 169/169/169 167/167/167
f 169/169/169 170/170/170 167/167/167
f 173/173/173 172/172/172 171/171/171
f 174/174/174 173/173/173 171/171/171
f 177/177/177 176/176/176 175/175/175
f 178/178/178 177/177/177 175/175/175
f 181/181/181 180/180/180 179/179/179
f 182/182/182 181/181/181 179/179/179
f 185/185/185 184/184/184 183/183/183
f 186/186/186 185/185/185 183/183/183
f 189/189/189 188/188/188 187/187/187
f 190/190/190 189/189/189 187/187/187
f 193/193/193 192/192/192 191/191/191
f 194/194/194 193/193/193 191/191/191
f 197/197/197 196/196/196 195/195/195
f 198/198/198 197/197/197 195/195/195
f 201/201/201 200/200/200 199/199/199
f 202/202/202 201/201/201 199/199/199
f 205/205/205 204/204/204 203/203/203
f 206/206/206 205/205/205 203/203/203
f 209/209/209 208/208/208 207/207/207
f 210/210/210 209/209/209 207/207/207
f 213/213/213 212/212/212 211/211/211
f 214/214/214 213/213/213 211/211/211
f 217/217/217 216/216/216 215/215/215
f 218/218/218 217/217/217 215/215/215
f 221/221/221 220/220/220 219/219/219
f 222/222/222 221/221/221 219/219/219
f 225/225/225 224/224/224 223/223/223
f 226/226/226 225/225/225 223/223/223
f 229/229/229 228/228/228 227/227/227
f 230/230/230 229/229/229 227/227/227
f 233/233/233 232/232/232 231/231/231
f 234/234/234 233/233/233 231/231/231
f 237/237/237 236/236/236 235/235/235
f 238/238/238 237/237/237 235/235/235
