g avatar_robo_elf_head
v 0.1533337 -0.3253833 1.844457
v 0.1311279 -0.3335674 1.859968
v 0.1412328 -0.3220944 1.880374
v 0.1634386 -0.3139102 1.864863
v -0.1710864 -0.2144359 1.941465
v -0.1609813 -0.2029629 1.961871
v -0.0927389 -0.2534985 1.988577
v -0.1230532 -0.2879177 1.927359
v -0.181191 -0.2259089 1.921058
v -0.1508766 -0.1914898 1.982276
v 0.06229394 -0.3337303 1.95752
v 0.03197968 -0.3681496 1.896302
v -0.04627605 -0.35391 1.894922
v 0.004247995 -0.2965449 1.996952
v 0.06229394 -0.3337303 1.95752
v 0.1412328 -0.3220944 1.880374
v 0.1311279 -0.3335674 1.859968
v 0.03197968 -0.3681496 1.896302
v 0.1517123 -0.3108825 1.900743
v 0.1213977 -0.3453018 1.839525
v 0.0637339 -0.222481 2.014311
v -0.04123886 -0.2097921 2.001583
v -0.03453489 -0.1904012 2.016712
v 0.03028173 -0.318386 1.937333
v -0.06130991 -0.2673352 1.955397
v -0.06798692 -0.2863061 1.939735
v 0.1295989 -0.2538162 1.982776
v 0.2026182 -0.2461659 1.899584
v 0.1959276 -0.2653469 1.884188
v 0.1095277 -0.3113593 1.936589
v 0.2097391 -0.2271421 1.914989
v 0.1896679 -0.2846852 1.868803
v -0.1271785 -0.2076007 1.951552
v -0.1204883 -0.1884197 1.966948
v -0.04123886 -0.2097921 2.001583
v -0.06130991 -0.2673352 1.955397
v -0.133869 -0.2267816 1.936157
v -0.1137978 -0.1692387 1.982343
v -0.0927389 -0.2534985 1.988577
v 0.004247995 -0.2965449 1.996952
v -0.04627605 -0.35391 1.894922
v -0.1230532 -0.2879177 1.927359
v -0.08254674 -0.241759 2.008791
v -0.1330707 -0.2991242 1.906761
v -0.1753888 -0.1779971 1.935455
v -0.1686985 -0.158816 1.950851
v -0.1204883 -0.1884197 1.966948
v -0.1271785 -0.2076007 1.951552
v -0.208777 -0.1698375 1.934907
v -0.1986722 -0.1583644 1.955313
v -0.1609813 -0.2029629 1.961871
v -0.1710864 -0.2144359 1.941465
v 0.1295989 -0.2538162 1.982776
v 0.1095277 -0.3113593 1.936589
v 0.03028173 -0.318386 1.937333
v 0.0637339 -0.222481 2.014311
v 0.136299 -0.2338694 1.997213
v 0.1295989 -0.2538162 1.982776
v 0.0637339 -0.222481 2.014311
v 0.03028173 -0.318386 1.937333
v 0.1095277 -0.3113593 1.936589
v 0.1028469 -0.3297744 1.920235
v 0.2218518 -0.2376511 1.880683
v 0.2151613 -0.2568321 1.865287
v 0.1959276 -0.2653469 1.884188
v 0.2026182 -0.2461659 1.899584
v 0.07267847 -0.3212799 1.977239
v 0.06229394 -0.3337303 1.95752
v 0.004247995 -0.2965449 1.996952
v -0.04627605 -0.35391 1.894922
v 0.03197968 -0.3681496 1.896302
v 0.02215469 -0.3786453 1.875209
v 0.4146611 0.1714907 1.774399
v 0.4146611 0.1163045 1.774399
v 0.4146611 0.1163045 1.829585
v 0.4146611 0.1714907 1.829585
v -0.4164038 0.1714907 1.774399
v -0.4164038 0.1714907 1.829585
v -0.4164038 0.1163045 1.829585
v -0.4164038 0.1163045 1.774399
v 0.02683075 -0.2424063 1.664026
v 0.02683075 -0.2424063 1.719213
v 0.02683075 -0.2148132 1.719213
v 0.02683075 -0.2148132 1.664026
v 0.2207459 0.226677 1.526061
v -0.2224888 0.226677 1.526061
v -0.2224888 -0.2148132 1.526061
v 0.2207459 -0.2148132 1.526061
v 0.02683075 -0.2424063 1.664026
v 0.02683075 -0.2148132 1.664026
v -0.02857367 -0.2148132 1.664026
v -0.02857367 -0.2424063 1.664026
v -0.02857367 -0.2148132 1.664026
v -0.02857367 -0.2148132 1.719213
v -0.02857367 -0.2424063 1.719213
v -0.02857367 -0.2424063 1.664026
v 0.1930437 0.1990838 1.995144
v 0.1930437 -0.1872202 1.995144
v -0.1947866 -0.1872202 1.995144
v -0.1947866 0.1990838 1.995144
v 0.1930437 -0.1872202 1.995144
v 0.1930437 -0.1872202 1.967551
v -0.1947866 -0.1872202 1.967551
v -0.1947866 -0.1872202 1.995144
v 0.1930437 -0.1872202 1.967551
v 0.1930437 -0.1872202 1.995144
v 0.1930437 0.1990838 1.995144
v 0.1930437 0.1990838 1.967551
v 0.02683075 -0.2424063 1.719213
v -0.02857367 -0.2424063 1.719213
v -0.02857367 -0.2148132 1.719213
v 0.02683075 -0.2148132 1.719213
v -0.1947866 -0.1872202 1.995144
v -0.1947866 -0.1872202 1.967551
v -0.1947866 0.1990838 1.967551
v -0.1947866 0.1990838 1.995144
v -0.1947866 0.1990838 1.967551
v 0.1930437 0.1990838 1.967551
v 0.1930437 0.1990838 1.995144
v -0.1947866 0.1990838 1.995144
v 0.2207459 0.226677 1.967551
v 0.2207459 -0.2148133 1.967551
v -0.2224888 -0.2148133 1.967551
v -0.2224888 0.226677 1.967551
v -0.4164038 0.1163045 1.774399
v -0.2224888 -0.02166123 1.664026
v -0.2224888 0.03352508 1.664026
v -0.4164038 0.1714907 1.774399
v -0.4164038 0.1163045 1.829585
v -0.4164038 0.1714907 1.829585
v -0.2224888 0.03352505 1.829585
v -0.2224888 -0.02166126 1.829585
v -0.2224888 0.226677 1.526061
v 0.2207459 0.226677 1.526061
v 0.2207459 0.226677 1.967551
v -0.2224888 0.226677 1.967551
v 0.2207459 0.226677 1.967551
v 0.2207459 0.226677 1.526061
v 0.2207459 -0.2148132 1.526061
v 0.2207459 -0.2148133 1.967551
v -0.2224888 0.226677 1.526061
v -0.2224888 0.226677 1.967551
v -0.2224888 -0.2148133 1.967551
v -0.2224888 -0.2148132 1.526061
v -0.02857367 -0.2424063 1.664026
v -0.02857367 -0.2424063 1.719213
v 0.02683075 -0.2424063 1.719213
v 0.02683075 -0.2424063 1.664026
v -0.4164038 0.1714907 1.774399
v -0.2224888 0.03352508 1.664026
v -0.2224888 0.03352505 1.829585
v -0.4164038 0.1714907 1.829585
v -0.4164038 0.1163045 1.829585
v -0.2224888 -0.02166126 1.829585
v -0.2224888 -0.02166123 1.664026
v -0.4164038 0.1163045 1.774399
v 0.2207459 -0.2148133 1.967551
v 0.2207459 -0.2148132 1.526061
v -0.2224888 -0.2148132 1.526061
v -0.2224888 -0.2148133 1.967551
v 0.4146611 0.1163045 1.829585
v 0.4146611 0.1163045 1.774399
v 0.2207459 -0.02166123 1.664026
v 0.2207459 -0.02166126 1.829585
v 0.4146611 0.1714907 1.774399
v 0.4146611 0.1714907 1.829585
v 0.2207459 0.03352505 1.829585
v 0.2207459 0.03352508 1.664026
v 0.4146611 0.1163045 1.829585
v 0.2207459 -0.02166126 1.829585
v 0.2207459 0.03352505 1.829585
v 0.4146611 0.1714907 1.829585
v 0.4146611 0.1163045 1.774399
v 0.4146611 0.1714907 1.774399
v 0.2207459 0.03352508 1.664026
v 0.2207459 -0.02166123 1.664026
vt 0.28125 0.84375
vt 0.28125 0.859375
vt 0.2890625 0.859375
vt 0.2890625 0.84375
vt 0.28125 0.96875
vt 0.2890625 0.96875
vt 0.296875 0.9375
vt 0.2734375 0.9375
vt 0.2734375 0.96875
vt 0.296875 0.96875
vt 0.296875 0.8828125
vt 0.2734375 0.8828125
vt 0.265625 0.90625
vt 0.3046875 0.90625
vt 0.296875 0.8828125
vt 0.2890625 0.859375
vt 0.28125 0.859375
vt 0.2734375 0.8828125
vt 0.296875 0.859375
vt 0.2734375 0.859375
vt 0.3046875 0.90625
vt 0.296875 0.9375
vt 0.3046875 0.9375
vt 0.265625 0.90625
vt 0.2734375 0.9375
vt 0.265625 0.9375
vt 0.296875 0.8828125
vt 0.2890625 0.859375
vt 0.28125 0.859375
vt 0.2734375 0.8828125
vt 0.296875 0.859375
vt 0.2734375 0.859375
vt 0.28125 0.96875
vt 0.2890625 0.96875
vt 0.296875 0.9375
vt 0.2734375 0.9375
vt 0.2734375 0.96875
vt 0.296875 0.96875
vt 0.296875 0.9375
vt 0.3046875 0.90625
vt 0.265625 0.90625
vt 0.2734375 0.9375
vt 0.3046875 0.9375
vt 0.265625 0.9375
vt 0.28125 0.9765625
vt 0.2890625 0.9765625
vt 0.2890625 0.96875
vt 0.28125 0.96875
vt 0.28125 0.9765625
vt 0.2890625 0.9765625
vt 0.2890625 0.96875
vt 0.28125 0.96875
vt 0.296875 0.8828125
vt 0.2734375 0.8828125
vt 0.265625 0.90625
vt 0.3046875 0.90625
vt 0.3046875 0.8828125
vt 0.296875 0.8828125
vt 0.3046875 0.90625
vt 0.265625 0.90625
vt 0.2734375 0.8828125
vt 0.265625 0.8828125
vt 0.2890625 0.84375
vt 0.28125 0.84375
vt 0.28125 0.859375
vt 0.2890625 0.859375
vt 0.3046875 0.8828125
vt 0.296875 0.8828125
vt 0.3046875 0.90625
vt 0.265625 0.90625
vt 0.2734375 0.8828125
vt 0.265625 0.8828125
vt 0.25 0.921875
vt 0.234375 0.921875
vt 0.234375 0.9375
vt 0.25 0.9375
vt 0.25 0.921875
vt 0.25 0.9375
vt 0.234375 0.9375
vt 0.234375 0.921875
vt 0.3203125 0.8828125
vt 0.3203125 0.8984375
vt 0.328125 0.8984375
vt 0.328125 0.8828125
vt 0.375 0.3046875
vt 0.25 0.3046875
vt 0.25 0.4296875
vt 0.375 0.4296875
vt 0.3203125 0.4375
vt 0.3203125 0.4296875
vt 0.3046875 0.4296875
vt 0.3046875 0.4375
vt 0.328125 0.8828125
vt 0.328125 0.8984375
vt 0.3203125 0.8984375
vt 0.3203125 0.8828125
vt 0.734375 0.5859375
vt 0.734375 0.4765625
vt 0.625 0.4765625
vt 0.625 0.5859375
vt 0.1875 0.984375
vt 0.1875 0.9765625
vt 0.078125 0.9765625
vt 0.078125 0.984375
vt 0.3359375 0.96875
vt 0.3359375 0.9765625
vt 0.4453125 0.9765625
vt 0.4453125 0.96875
vt 0.6875 0.4609375
vt 0.671875 0.4609375
vt 0.671875 0.46875
vt 0.6875 0.46875
vt 0.3359375 0.9765625
vt 0.3359375 0.96875
vt 0.4453125 0.96875
vt 0.4453125 0.9765625
vt 0.640625 0.96875
vt 0.53125 0.96875
vt 0.53125 0.9765625
vt 0.640625 0.9765625
vt 0.7421875 0.59375
vt 0.7421875 0.46875
vt 0.6171875 0.46875
vt 0.6171875 0.59375
vt 0.3203125 0.375
vt 0.28125 0.34375
vt 0.296875 0.34375
vt 0.3359375 0.375
vt 0.2890625 0.3671875
vt 0.2890625 0.3828125
vt 0.34375 0.34375
vt 0.34375 0.328125
vt 0.6484375 0.84375
vt 0.5234375 0.84375
vt 0.5234375 0.96875
vt 0.6484375 0.96875
vt 0.453125 0.96875
vt 0.453125 0.84375
vt 0.328125 0.84375
vt 0.328125 0.96875
vt 0.453125 0.84375
vt 0.453125 0.96875
vt 0.328125 0.96875
vt 0.328125 0.84375
vt 0.125 0.890625
vt 0.125 0.90625
vt 0.140625 0.90625
vt 0.140625 0.890625
vt 0.6796875 0.9140625
vt 0.65625 0.890625
vt 0.65625 0.921875
vt 0.6796875 0.921875
vt 0.25 0.9375
vt 0.1953125 0.9375
vt 0.1953125 0.890625
vt 0.25 0.921875
vt 0.1953125 0.9765625
vt 0.1953125 0.8515625
vt 0.0703125 0.8515625
vt 0.0703125 0.9765625
vt 0.25 0.9375
vt 0.25 0.921875
vt 0.1953125 0.890625
vt 0.1953125 0.9375
vt 0.6796875 0.9140625
vt 0.6796875 0.921875
vt 0.65625 0.921875
vt 0.65625 0.890625
vt 0.34375 0.3671875
vt 0.2890625 0.328125
vt 0.2890625 0.34375
vt 0.34375 0.3828125
vt 0.3203125 0.375
vt 0.3359375 0.375
vt 0.296875 0.34375
vt 0.28125 0.34375
vn 0.4781278 -0.8452905 0.2384906
vn 0.4781278 -0.8452905 0.2384906
vn 0.4781278 -0.8452905 0.2384906
vn 0.4781278 -0.8452905 0.2384906
vn -0.6154931 -0.5165905 0.5952331
vn -0.6154931 -0.5165905 0.5952331
vn -0.6154931 -0.5165905 0.5952331
vn -0.6154931 -0.5165905 0.5952331
vn -0.6154995 -0.516594 0.5952235
vn -0.6154928 -0.5165861 0.5952373
vn -0.1596236 -0.8246305 0.5426831
vn -0.1596235 -0.8246306 0.542683
vn -0.1596235 -0.8246306 0.542683
vn -0.1596235 -0.8246305 0.5426831
vn 0.4073229 -0.8673595 0.2859642
vn 0.4073229 -0.8673595 0.2859642
vn 0.4073229 -0.8673595 0.2859642
vn 0.4073229 -0.8673595 0.2859642
vn 0.3987951 -0.8744681 0.2761668
vn 0.4101642 -0.861506 0.299287
vn -0.1664579 -0.5701245 0.8045183
vn -0.1664579 -0.5701246 0.8045183
vn -0.1664579 -0.5701245 0.8045183
vn -0.173342 -0.590023 0.7885591
vn -0.173342 -0.590023 0.7885591
vn -0.173342 -0.590023 0.788559
vn 0.6222895 -0.6104048 0.490063
vn 0.6222895 -0.6104048 0.490063
vn 0.6222895 -0.6104048 0.490063
vn 0.6222895 -0.6104048 0.490063
vn 0.6159375 -0.6220336 0.4834203
vn 0.6234838 -0.6003159 0.5008879
vn -0.4567867 -0.4544722 0.7647227
vn -0.4567868 -0.4544722 0.7647227
vn -0.4567868 -0.4544722 0.7647227
vn -0.4567868 -0.4544722 0.7647227
vn -0.4567843 -0.4544641 0.764729
vn -0.4567837 -0.454463 0.76473
vn -0.3700651 -0.7194445 0.5877512
vn -0.3700651 -0.7194445 0.5877512
vn -0.3700651 -0.7194445 0.5877512
vn -0.3700651 -0.7194445 0.5877512
vn -0.3675647 -0.7116863 0.5986643
vn -0.377981 -0.7236171 0.577502
vn -0.5099329 -0.4232335 0.7488938
vn -0.5099329 -0.4232335 0.7488937
vn -0.5099329 -0.4232335 0.7488938
vn -0.5099329 -0.4232335 0.7488938
vn -0.6576531 -0.4691239 0.5894194
vn -0.6576531 -0.4691239 0.5894194
vn -0.6576531 -0.4691239 0.5894194
vn -0.6576531 -0.4691239 0.5894194
vn 0.0637868 -0.6381131 0.7672958
vn 0.0637868 -0.638113 0.7672959
vn 0.0637868 -0.6381131 0.7672958
vn 0.0637868 -0.6381131 0.7672958
vn 0.09178525 -0.6038881 0.7917668
vn 0.09178524 -0.6038881 0.7917668
vn 0.09178523 -0.603888 0.7917668
vn 0.06683114 -0.6759821 0.7338814
vn 0.06683114 -0.6759819 0.7338814
vn 0.06683114 -0.6759819 0.7338814
vn 0.6848378 -0.5862553 0.432784
vn 0.6848378 -0.5862553 0.432784
vn 0.6848379 -0.5862553 0.432784
vn 0.6848378 -0.5862552 0.432784
vn -0.1259188 -0.8075555 0.5761932
vn -0.1259188 -0.8075555 0.5761932
vn -0.1259189 -0.8075554 0.5761933
vn -0.1636105 -0.8507183 0.4995098
vn -0.1636105 -0.8507183 0.4995098
vn -0.1636105 -0.8507183 0.4995098
vn 1 0 0
vn 1 0 0
vn 1 0 0
vn 1 0 0
vn -1 0 0
vn -1 0 0
vn -1 0 0
vn -1 0 0
vn 1 0 0
vn 1 0 0
vn 1 0 0
vn 1 0 0
vn 0 0 -1
vn 0 0 -1
vn 0 0 -1
vn 0 0 -1
vn 0 0 -1
vn 0 0 -1
vn 0 0 -1
vn 0 0 -1
vn -1 0 0
vn -1 0 0
vn -1 0 0
vn -1 0 0
vn 0 0 1
vn 0 0 1
vn 0 0 1
vn 0 0 1
vn 0 -1 0
vn 0 -1 0
vn 0 -1 0
vn 0 -1 0
vn 1 0 0
vn 1 0 0
vn 1 0 0
vn 1 0 0
vn 0 0 1
vn 0 0 1
vn 0 0 1
vn 0 0 1
vn -1 0 0
vn -1 0 0
vn -1 0 0
vn -1 0 0
vn 0 1 0
vn 0 1 0
vn 0 1 0
vn 0 1 0
vn 0 0 1
vn 0 0 1
vn 0 0 1
vn 0 0 1
vn -0.4946647 0 -0.8690839
vn -0.4946647 0 -0.8690839
vn -0.4946646 0 -0.8690839
vn -0.4946647 0 -0.8690839
vn 0 0 1
vn 0 0 1
vn 0 0 1
vn 0 0 1
vn 0 1 1.7281E-07
vn 0 1 1.7281E-07
vn 0 1 1.7281E-07
vn 0 1 1.7281E-07
vn 1 0 0
vn 1 0 0
vn 1 0 0
vn 1 0 0
vn -1 0 0
vn -1 0 0
vn -1 0 0
vn -1 0 0
vn 0 -1 -3.456199E-07
vn 0 -1 -3.456199E-07
vn 0 -1 -3.456199E-07
vn 0 -1 -3.456199E-07
vn 0.5797206 0.8148154 1.452269E-07
vn 0.5797206 0.8148153 1.452269E-07
vn 0.5797205 0.8148154 1.452269E-07
vn 0.5797206 0.8148153 1.452269E-07
vn -0.5797207 -0.8148152 -1.161815E-07
vn -0.5797207 -0.8148152 -1.161815E-07
vn -0.5797208 -0.8148152 -1.161815E-07
vn -0.5797207 -0.8148152 -1.161815E-07
vn 0 -1 -1.7281E-07
vn 0 -1 -1.7281E-07
vn 0 -1 -1.7281E-07
vn 0 -1 -1.7281E-07
vn 0.5797204 -0.8148155 -1.161815E-07
vn 0.5797204 -0.8148155 -1.161815E-07
vn 0.5797204 -0.8148155 -1.161815E-07
vn 0.5797204 -0.8148155 -1.161815E-07
vn -0.5797201 0.8148157 1.597495E-07
vn -0.5797201 0.8148156 1.597495E-07
vn -0.5797201 0.8148157 1.597495E-07
vn -0.5797201 0.8148157 1.597495E-07
vn 0 0 1
vn 0 0 1
vn 0 0 1
vn 0 0 1
vn 0.4946643 0 -0.8690841
vn 0.4946643 0 -0.8690841
vn 0.4946643 0 -0.8690841
vn 0.4946643 0 -0.8690841
g avatar_robo_elf_head_0
f 3/3/3 2/2/2 1/1/1
f 4/4/4 3/3/3 1/1/1
f 7/7/7 6/6/6 5/5/5
f 8/8/8 7/7/7 5/5/5
f 9/9/9 8/8/8 5/5/5
f 10/10/10 6/6/6 7/7/7
f 13/13/13 12/12/12 11/11/11
f 14/14/14 13/13/13 11/11/11
f 17/17/17 16/16/16 15/15/15
f 18/18/18 17/17/17 15/15/15
f 19/19/19 15/15/15 16/16/16
f 20/20/20 17/17/17 18/18/18
f 23/23/23 22/22/22 21/21/21
f 24/24/24 21/21/21 22/22/22
f 25/25/25 24/24/24 22/22/22
f 26/26/26 24/24/24 25/25/25
f 29/29/29 28/28/28 27/27/27
f 30/30/30 29/29/29 27/27/27
f 31/31/31 27/27/27 28/28/28
f 32/32/32 29/29/29 30/30/30
f 35/35/35 34/34/34 33/33/33
f 36/36/36 35/35/35 33/33/33
f 37/37/37 36/36/36 33/33/33
f 38/38/38 34/34/34 35/35/35
f 41/41/41 40/40/40 39/39/39
f 42/42/42 41/41/41 39/39/39
f 43/43/43 39/39/39 40/40/40
f 44/44/44 41/41/41 42/42/42
f 47/47/47 46/46/46 45/45/45
f 48/48/48 47/47/47 45/45/45
f 51/51/51 50/50/50 49/49/49
f 52/52/52 51/51/51 49/49/49
f 55/55/55 54/54/54 53/53/53
f 56/56/56 55/55/55 53/53/53
f 59/59/59 58/58/58 57/57/57
f 62/62/62 61/61/61 60/60/60
f 65/65/65 64/64/64 63/63/63
f 66/66/66 65/65/65 63/63/63
f 69/69/69 68/68/68 67/67/67
f 72/72/72 71/71/71 70/70/70
f 75/75/75 74/74/74 73/73/73
f 76/76/76 75/75/75 73/73/73
f 79/79/79 78/78/78 77/77/77
f 80/80/80 79/79/79 77/77/77
f 83/83/83 82/82/82 81/81/81
f 84/84/84 83/83/83 81/81/81
f 87/87/87 86/86/86 85/85/85
f 88/88/88 87/87/87 85/85/85
f 91/91/91 90/90/90 89/89/89
f 92/92/92 91/91/91 89/89/89
f 95/95/95 94/94/94 93/93/93
f 96/96/96 95/95/95 93/93/93
f 99/99/99 98/98/98 97/97/97
f 100/100/100 99/99/99 97/97/97
f 103/103/103 102/102/102 101/101/101
f 104/104/104 103/103/103 101/101/101
f 107/107/107 106/106/106 105/105/105
f 108/108/108 107/107/107 105/105/105
f 111/111/111 110/110/110 109/109/109
f 112/112/112 111/111/111 109/109/109
f 115/115/115 114/114/114 113/113/113
f 116/116/116 115/115/115 113/113/113
f 119/119/119 118/118/118 117/117/117
f 120/120/120 119/119/119 117/117/117
f 123/123/123 122/122/122 121/121/121
f 124/124/124 123/123/123 121/121/121
f 127/127/127 126/126/126 125/125/125
f 128/128/128 127/127/127 125/125/125
f 131/131/131 130/130/130 129/129/129
f 132/132/132 131/131/131 129/129/129
f 135/135/135 134/134/134 133/133/133
f 136/136/136 135/135/135 133/133/133
f 139/139/139 138/138/138 137/137/137
f 140/140/140 139/139/139 137/137/137
f 143/143/143 142/142/142 141/141/141
f 144/144/144 143/143/143 141/141/141
f 147/147/147 146/146/146 145/145/145
f 148/148/148 147/147/147 145/145/145
f 151/151/151 150/150/150 149/149/149
f 152/152/152 151/151/151 149/149/149
f 155/155/155 154/154/154 153/153/153
f 156/156/156 155/155/155 153/153/153
f 159/159/159 158/158/158 157/157/157
f 160/160/160 159/159/159 157/157/157
f 163/163/163 162/162/162 161/161/161
f 164/164/164 163/163/163 161/161/161
f 167/167/167 166/166/166 165/165/165
f 168/168/168 167/167/167 165/165/165
f 171/171/171 170/170/170 169/169/169
f 172/172/172 171/171/171 169/169/169
f 175/175/175 174/174/174 173/173/173
f 176/176/176 175/175/175 173/173/173
