g avatar_ruin_demon_mesh_body
v 1.170268 -0.2492589 0.1242593
v 1.324251 -0.249259 0.1242593
v 1.324251 -0.249259 -0.1249996
v 1.170268 -0.2492588 -0.1249996
v 1.006375 -0.2492588 0.1242591
v 1.006375 -0.2492588 -0.1249996
v 0.8427007 -0.2492588 0.1242593
v 0.8427007 -0.2492588 -0.1249996
v 1.495726 -0.2492592 -0.1249992
v 1.495726 -0.2492592 0.1242598
v 1.170268 0.2492588 0.1242592
v 1.006375 0.2492587 0.1242591
v 1.006375 0.2492587 -0.1249996
v 1.170268 0.2492588 -0.1249997
v 1.324251 0.2492588 0.1242593
v 1.324251 0.2492588 -0.1249997
v 1.495726 0.2492587 0.1242597
v 1.495726 0.2492587 -0.1249993
v 0.8427008 0.2492589 -0.1249997
v 0.8427008 0.2492589 0.1242592
v 1.170268 0.2492588 -0.1249997
v 1.006375 0.2492587 -0.1249996
v 1.006375 -0.2492588 -0.1249996
v 1.170268 -0.2492588 -0.1249996
v 1.324251 0.2492588 -0.1249997
v 1.324251 -0.249259 -0.1249996
v 1.495726 0.2492587 -0.1249993
v 1.495726 -0.2492592 -0.1249992
v 0.8427007 -0.2492588 -0.1249996
v 0.8427008 0.2492589 -0.1249997
v 1.170268 -0.2492589 0.1242593
v 1.006375 -0.2492588 0.1242591
v 1.006375 0.2492587 0.1242591
v 1.170268 0.2492588 0.1242592
v 1.324251 -0.249259 0.1242593
v 1.324251 0.2492588 0.1242593
v 1.495726 -0.2492592 0.1242598
v 1.495726 0.2492587 0.1242597
v 0.8427008 0.2492589 0.1242592
v 0.8427007 -0.2492588 0.1242593
v 0.8427007 -0.2492588 0.1242593
v 0.8427007 -0.2492588 -0.1249996
v 0.8427008 0.2492589 -0.1249997
v 0.8427008 0.2492589 0.1242592
v 1.495726 0.2492587 -0.1249993
v 1.495726 -0.2492592 -0.1249992
v 1.495726 -0.2492592 0.1242598
v 1.495726 0.2492587 0.1242597
vt 0.6054688 0.5
vt 0.5683594 0.5
vt 0.5683594 0.5625
vt 0.6054688 0.5625
vt 0.6425781 0.5
vt 0.6425781 0.5625
vt 0.6796875 0.5
vt 0.6796875 0.5625
vt 0.53125 0.5625
vt 0.53125 0.5
vt 0.6054688 0.75
vt 0.6425781 0.75
vt 0.6425781 0.6875
vt 0.6054688 0.6875
vt 0.5683594 0.75
vt 0.5683594 0.6875
vt 0.53125 0.75
vt 0.53125 0.6875
vt 0.6796875 0.6875
vt 0.6796875 0.75
vt 0.6054688 0.6875
vt 0.6425781 0.6875
vt 0.6425781 0.5625
vt 0.6054688 0.5625
vt 0.5683594 0.6875
vt 0.5683594 0.5625
vt 0.53125 0.6875
vt 0.53125 0.5625
vt 0.6796875 0.5625
vt 0.6796875 0.6875
vt 0.6054688 0.875
vt 0.6425781 0.875
vt 0.6425781 0.75
vt 0.6054688 0.75
vt 0.5683594 0.875
vt 0.5683594 0.75
vt 0.53125 0.875
vt 0.53125 0.75
vt 0.6796875 0.75
vt 0.6796875 0.875
vt 0.6796875 0.875
vt 0.7421875 0.875
vt 0.7421875 0.75
vt 0.6796875 0.75
vt 0.46875 0.75
vt 0.46875 0.875
vt 0.53125 0.875
vt 0.53125 0.75
vn -6.443858E-07 -1 0
vn -6.443858E-07 -1 0
vn -6.443858E-07 -1 0
vn -6.443858E-07 -1 0
vn 1.288772E-07 -1 0
vn 1.288772E-07 -1 0
vn 1.288772E-07 -1 0
vn 1.288772E-07 -1 0
vn -1.546529E-06 -1 0
vn -1.546529E-06 -1 0
vn -7.73264E-07 1 0
vn -7.732642E-07 1 0
vn -7.73264E-07 1 0
vn -7.73264E-07 1 0
vn 1.031016E-06 1 0
vn 1.031016E-06 1 0
vn 1.031016E-06 1 0
vn 1.031016E-06 1 0
vn 1.159894E-06 1 0
vn 1.159894E-06 1 0
vn -1.610968E-06 0 -1
vn -1.610968E-06 0 -1
vn -1.610968E-06 0 -1
vn -1.610968E-06 0 -1
vn 1.031017E-06 0 -1
vn 1.031016E-06 0 -1
vn 1.031017E-06 0 -1
vn 1.031017E-06 0 -1
vn 1.804279E-06 0 -1
vn 1.804279E-06 0 -1
vn 9.021402E-07 0 1
vn 9.021402E-07 0 1
vn 9.021402E-07 0 1
vn 9.021402E-07 0 1
vn -1.288773E-06 0 1
vn -1.288773E-06 0 1
vn -1.288773E-06 0 1
vn -1.288773E-06 0 1
vn -1.095457E-06 0 1
vn -1.095457E-06 0 1
vn -1 3.060833E-07 0
vn -1 3.060833E-07 0
vn -1 3.060833E-07 0
vn -1 3.060833E-07 0
vn 1 -1.224332E-06 1.224332E-06
vn 1 -1.224332E-06 1.224332E-06
vn 1 -1.224332E-06 1.224332E-06
vn 1 -1.224332E-06 1.224332E-06
g avatar_ruin_demon_mesh_body_0
f 3/3/3 2/2/2 1/1/1
f 4/4/4 3/3/3 1/1/1
f 4/4/4 1/1/1 5/5/5
f 6/6/6 4/4/4 5/5/5
f 6/6/6 5/5/5 7/7/7
f 8/8/8 6/6/6 7/7/7
f 2/2/2 3/3/3 9/9/9
f 10/10/10 2/2/2 9/9/9
f 13/13/13 12/12/12 11/11/11
f 14/14/14 13/13/13 11/11/11
f 14/14/14 11/11/11 15/15/15
f 16/16/16 14/14/14 15/15/15
f 16/16/16 15/15/15 17/17/17
f 18/18/18 16/16/16 17/17/17
f 12/12/12 13/13/13 19/19/19
f 20/20/20 12/12/12 19/19/19
f 23/23/23 22/22/22 21/21/21
f 24/24/24 23/23/23 21/21/21
f 24/24/24 21/21/21 25/25/25
f 26/26/26 24/24/24 25/25/25
f 26/26/26 25/25/25 27/27/27
f 28/28/28 26/26/26 27/27/27
f 22/22/22 23/23/23 29/29/29
f 30/30/30 22/22/22 29/29/29
f 33/33/33 32/32/32 31/31/31
f 34/34/34 33/33/33 31/31/31
f 34/34/34 31/31/31 35/35/35
f 36/36/36 34/34/34 35/35/35
f 36/36/36 35/35/35 37/37/37
f 38/38/38 36/36/36 37/37/37
f 32/32/32 33/33/33 39/39/39
f 40/40/40 32/32/32 39/39/39
f 43/43/43 42/42/42 41/41/41
f 44/44/44 43/43/43 41/41/41
f 47/47/47 46/46/46 45/45/45
f 48/48/48 47/47/47 45/45/45
