g aztec_christmas_tree_present_2
v 32.62047 44.4612 -0.004934928
v 31.6606 44.48197 -0.004934928
v 32.13015 43.99165 -0.004934928
v 32.15091 44.95152 -0.004934928
v 32.62047 44.4612 0.6739548
v 31.6606 44.48197 0.6739548
v 32.15091 44.95152 0.6739542
v 32.13015 43.99165 0.6739548
v 32.13015 43.99165 0.6739548
v 31.6606 44.48197 -0.004934928
v 31.6606 44.48197 0.6739548
v 32.13015 43.99165 -0.004934928
v 32.62047 44.4612 0.6739548
v 32.13015 43.99165 -0.004934928
v 32.13015 43.99165 0.6739548
v 32.62047 44.4612 -0.004934928
v 32.15091 44.95152 0.6739542
v 32.62047 44.4612 -0.004934928
v 32.62047 44.4612 0.6739548
v 32.15091 44.95152 -0.004934928
v 31.6606 44.48197 0.6739548
v 32.15091 44.95152 -0.004934928
v 32.15091 44.95152 0.6739542
v 31.6606 44.48197 -0.004934928
vt 0.8359375 0.546875
vt 0.9609375 0.421875
vt 0.9609375 0.546875
vt 0.8359375 0.421875
vt 0.8359375 0.421875
vt 0.9609375 0.546875
vt 0.8359375 0.546875
vt 0.9609375 0.421875
vt 0.8359375 0.421875
vt 0.9609375 0.296875
vt 0.9609375 0.421875
vt 0.8359375 0.296875
vt 0.835938 0.421875
vt 0.9609375 0.296875
vt 0.9609375 0.421875
vt 0.835938 0.296875
vt 0.835938 0.421875
vt 0.9609375 0.296875
vt 0.9609375 0.421875
vt 0.835938 0.296875
vt 0.835938 0.421875
vt 0.9609375 0.296875
vt 0.9609375 0.421875
vt 0.835938 0.296875
vn 0 0 -1
vn 0 0 -1
vn 0 0 -1
vn 0 0 -1
vn 0 1.112247E-06 1
vn 0 1.112247E-06 1
vn 0 1.112247E-06 1
vn 0 0 1
vn -0.7222323 -0.6916505 0
vn -0.7222323 -0.6916506 0
vn -0.7222323 -0.6916506 0
vn -0.7222323 -0.6916506 0
vn 0.6916523 -0.7222306 0
vn 0.6916523 -0.7222307 0
vn 0.6916523 -0.7222307 0
vn 0.6916523 -0.7222307 0
vn 0.7222323 0.6916506 0
vn 0.7222323 0.6916506 0
vn 0.7222323 0.6916505 0
vn 0.7222323 0.6916506 0
vn -0.6916523 0.7222307 0
vn -0.6916523 0.7222307 0
vn -0.6916523 0.7222307 0
vn -0.6916523 0.7222307 0
g aztec_christmas_tree_present_2_0
f 3/3/3 2/2/2 1/1/1
f 4/4/4 1/1/1 2/2/2
f 7/7/7 6/6/6 5/5/5
f 8/8/8 5/5/5 6/6/6
f 11/11/11 10/10/10 9/9/9
f 12/12/12 9/9/9 10/10/10
f 15/15/15 14/14/14 13/13/13
f 16/16/16 13/13/13 14/14/14
f 19/19/19 18/18/18 17/17/17
f 20/20/20 17/17/17 18/18/18
f 23/23/23 22/22/22 21/21/21
f 24/24/24 21/21/21 22/22/22
