# Mesh "B_1_r" exported with Unity Assets Bundle Extractor; 24 vertices, 36 indices, 384 bits per vertex
g B_1_r
# SubMesh 0
# Vertices
v -0.072555 0.066721 -0.076119
vt 0.430952 0.868244
vn -0.500000 -0.866025 0.000000
v -0.072246 0.066543 0.068682
vt 0.430952 0.966765
vn -0.500000 -0.866025 0.000000
v 0.053259 -0.005918 0.069038
vt 0.516274 0.966765
vn -0.500000 -0.866025 0.000000
v 0.052951 -0.005740 -0.075763
vt 0.516274 0.868244
vn -0.500000 -0.866025 0.000000
v 0.135371 0.426860 -0.076119
vt 0.503689 0.958325
vn 0.002128 -0.001229 -0.999997
v -0.072555 0.066721 -0.076119
vt 0.503689 0.344537
vn 0.002128 -0.001229 -0.999997
v 0.052951 -0.005740 -0.075763
vt 0.405167 0.344537
vn 0.002128 -0.001229 -0.999997
v 0.260877 0.354399 -0.075763
vt 0.405167 0.958324
vn 0.002128 -0.001229 -0.999997
v 0.260877 0.354399 -0.075763
vt 0.518417 0.891949
vn 0.866023 -0.499998 -0.002460
v 0.052951 -0.005740 -0.075763
vt 0.518417 0.360393
vn 0.866023 -0.499998 -0.002460
v 0.053259 -0.005918 0.069038
vt 0.419896 0.360393
vn 0.866023 -0.499998 -0.002460
v 0.261186 0.354221 0.069038
vt 0.419896 0.891949
vn 0.866023 -0.499998 -0.002460
v 0.261186 0.354221 0.069038
vt 0.515357 0.981809
vn -0.002128 0.001229 0.999997
v 0.053259 -0.005918 0.069038
vt 0.515357 0.368022
vn -0.002128 0.001229 0.999997
v -0.072246 0.066543 0.068682
vt 0.416836 0.368022
vn -0.002128 0.001229 0.999997
v 0.135680 0.426682 0.068682
vt 0.416836 0.981809
vn -0.002128 0.001229 0.999997
v 0.135680 0.426682 0.068682
vt 0.510196 0.893911
vn -0.866023 0.499999 0.002460
v -0.072246 0.066543 0.068682
vt 0.510196 0.362356
vn -0.866023 0.499999 0.002460
v -0.072555 0.066721 -0.076119
vt 0.411675 0.362356
vn -0.866023 0.499999 0.002460
v 0.135371 0.426860 -0.076119
vt 0.411675 0.893911
vn -0.866023 0.499999 0.002460
v 0.135371 0.426860 -0.076119
vt 0.504865 0.873809
vn 0.500000 0.866025 0.000000
v 0.260877 0.354399 -0.075763
vt 0.419544 0.873809
vn 0.500000 0.866025 0.000000
v 0.261186 0.354221 0.069038
vt 0.419544 0.972330
vn 0.500000 0.866025 0.000000
v 0.135680 0.426682 0.068682
vt 0.504865 0.972330
vn 0.500000 0.866025 0.000000
# Faces (1 to 24)
g B_1_r_0
f -22/-22/-22 -23/-23/-23 -24/-24/-24
f -21/-21/-21 -22/-22/-22 -24/-24/-24
f -18/-18/-18 -19/-19/-19 -20/-20/-20
f -17/-17/-17 -18/-18/-18 -20/-20/-20
f -14/-14/-14 -15/-15/-15 -16/-16/-16
f -13/-13/-13 -14/-14/-14 -16/-16/-16
f -10/-10/-10 -11/-11/-11 -12/-12/-12
f -9/-9/-9 -10/-10/-10 -12/-12/-12
f -6/-6/-6 -7/-7/-7 -8/-8/-8
f -5/-5/-5 -6/-6/-6 -8/-8/-8
f -2/-2/-2 -3/-3/-3 -4/-4/-4
f -1/-1/-1 -2/-2/-2 -4/-4/-4

