# Mesh "B_saw_16" exported with Unity Assets Bundle Extractor; 4 vertices, 6 indices, 32 bytes per vertex
g B_saw_16
# SubMesh 0
# Vertices
v -0.007653 0.000000 -0.007653
vt 0.343750 0.953125
vn -0.000000 1.000000 -0.000000
v 0.007654 0.000000 -0.007653
vt 0.328125 0.953125
vn -0.000000 1.000000 -0.000000
v 0.007653 0.000000 0.007654
vt 0.328125 0.968750
vn -0.000000 1.000000 -0.000000
v -0.007653 0.000000 0.007654
vt 0.343750 0.968750
vn -0.000000 1.000000 -0.000000
# Faces (1 to 4)
f -2/-2/-2 -3/-3/-3 -4/-4/-4
f -1/-1/-1 -2/-2/-2 -4/-4/-4

