g background_2_halloween_1_mountains_1_1
v 185.452 280.6364 1.763317E-05
v 185.452 280.6365 81.9523
v 233.2412 248.8752 81.95232
v 233.2412 248.8752 2.840751E-05
v 132.4315 302.4644 1.096997E-05
v 132.4315 302.4644 81.9523
v 185.452 280.6365 81.9523
v 185.452 280.6364 1.763317E-05
v 76.21711 313.5202 7.969789E-06
v 76.21712 313.5202 81.95232
v 132.4315 302.4644 81.9523
v 132.4315 302.4644 1.096997E-05
v 18.96922 313.379 1.151797E-05
v 18.96922 313.3791 81.95232
v 76.21712 313.5202 81.95232
v 76.21711 313.5202 7.969789E-06
v -37.1122 302.0462 2.019857E-05
v -37.11221 302.0463 81.95232
v 18.96922 313.3791 81.95232
v 18.96922 313.379 1.151797E-05
v -89.87201 279.9575 3.286775E-05
v -89.87203 279.9575 81.95232
v -37.11221 302.0463 81.95232
v -37.1122 302.0462 2.019857E-05
v -137.2826 247.9614 4.926122E-05
v -137.2826 247.9615 81.95234
v -89.87203 279.9575 81.95232
v -89.87201 279.9575 3.286775E-05
v -180.3303 210.021 4.524202E-05
v -180.3304 210.021 81.95233
v -137.2826 247.9614 81.95236
v -137.2825 247.9615 5.444921E-05
v -215.1372 164.4566 4.675966E-05
v -215.1372 164.4566 81.95233
v -180.3304 210.021 81.95233
v -180.3303 210.021 4.524202E-05
v -240.3656 113.0192 3.941256E-05
v -240.3657 113.0192 81.95235
v -215.1372 164.4566 81.95233
v -215.1372 164.4566 4.675966E-05
v -255.0461 57.68544 4.263901E-05
v -255.0461 57.68546 81.95235
v -240.3657 113.0192 81.95235
v -240.3656 113.0192 3.941256E-05
v -258.6144 0.5817561 4.654943E-05
v -258.6145 0.5817636 81.95234
v -255.0461 57.68546 81.95235
v -255.0461 57.68544 4.263901E-05
v -250.9336 -56.09729 6.075914E-05
v -250.9336 -56.09733 81.95236
v -258.6145 0.5817636 81.95234
v -258.6144 0.5817561 4.654943E-05
v -232.2986 -110.1736 7.533173E-05
v -232.2985 -110.1736 81.95237
v -250.9336 -56.09733 81.95236
v -250.9336 -56.09729 6.075914E-05
v 348.3329 -54.40576 1.25624E-05
v 348.3329 -54.40573 81.9523
v 330.0226 -108.7869 81.95234
v 330.0226 -108.787 4.971832E-05
v 355.6942 2.457664 1.37422E-05
v 355.6942 2.457659 81.95229
v 348.3329 -54.40573 81.9523
v 348.3329 -54.40576 1.25624E-05
v 351.824 59.61804 -3.108958E-07
v 351.8241 59.61808 81.95232
v 355.6942 2.457659 81.95229
v 355.6942 2.457664 1.37422E-05
v 336.8708 114.8788 -5.018069E-06
v 336.8708 114.8787 81.9523
v 351.8241 59.61808 81.95232
v 351.824 59.61804 -3.108958E-07
v 311.4091 166.1161 -5.081232E-06
v 311.4093 166.1161 81.95229
v 336.8708 114.8787 81.9523
v 336.8708 114.8788 -5.018069E-06
v 276.4178 211.3612 4.572497E-06
v 276.4178 211.3613 81.95229
v 311.4093 166.1161 81.95229
v 311.4091 166.1161 -5.081232E-06
v 233.2413 248.8751 2.901788E-05
v 233.2412 248.8752 81.95233
v 276.4178 211.3613 81.95229
v 276.4178 211.3612 4.572497E-06
vt 0.8538446 0.0003602579
vt 0.8538443 0.8096183
vt 0.5705322 0.8096147
vt 0.5705327 0.0003562644
vt 1.136944 0.0003648475
vt 1.136944 0.809623
vt 0.8538443 0.8096183
vt 0.8538446 0.0003602579
vt 1.419816 0.0003700331
vt 1.419816 0.8096284
vt 1.136944 0.809623
vt 1.136944 0.0003648475
vt 1.702477 0.0003758743
vt 1.702477 0.8096336
vt 1.419816 0.8096284
vt 1.419816 0.0003700331
vt 1.984977 0.0003811792
vt 1.984977 0.8096388
vt 1.702477 0.8096336
vt 1.702477 0.0003758743
vt 2.267394 0.0003857687
vt 2.267393 0.8096434
vt 1.984977 0.8096388
vt 1.984977 0.0003811792
vt 2.549819 0.0003897622
vt 2.549793 0.8096485
vt 2.267393 0.8096434
vt 2.267394 0.0003857687
vt 2.833132 0.0003939047
vt 2.833131 0.8096519
vt 2.549819 0.8096483
vt 2.549819 0.0003899112
vt 3.116231 0.0003984943
vt 3.116231 0.8096567
vt 2.833131 0.8096519
vt 2.833132 0.0003939047
vt 3.399103 0.0004036799
vt 3.399103 0.809662
vt 3.116231 0.8096567
vt 3.116231 0.0003984943
vt 3.681764 0.0004095212
vt 3.681764 0.8096673
vt 3.399103 0.809662
vt 3.399103 0.0004036799
vt 3.964264 0.000414826
vt 3.964264 0.8096724
vt 3.681764 0.8096673
vt 3.681764 0.0004095212
vt 4.246681 0.0004194155
vt 4.24668 0.8096771
vt 3.964264 0.8096724
vt 3.964264 0.000414826
vt 4.529106 0.000423409
vt 4.529079 0.8096821
vt 4.24668 0.8096771
vt 4.246681 0.0004194155
vt -1.125442 0.0003260571
vt -1.125442 0.8095841
vt -1.408754 0.8095804
vt -1.408754 0.0003220636
vt -0.8423421 0.0003306467
vt -0.8423426 0.8095888
vt -1.125442 0.8095841
vt -1.125442 0.0003260571
vt -0.5594701 0.0003358323
vt -0.5594706 0.8095942
vt -0.8423426 0.8095888
vt -0.8423421 0.0003306467
vt -0.2768092 0.0003416736
vt -0.2768094 0.8095994
vt -0.5594706 0.8095942
vt -0.5594701 0.0003358323
vt 0.005690881 0.0003469784
vt 0.005690881 0.8096046
vt -0.2768094 0.8095994
vt -0.2768092 0.0003416736
vt 0.2881072 0.0003515679
vt 0.2881067 0.8096092
vt 0.005690881 0.8096046
vt 0.005690881 0.0003469784
vt 0.5705326 0.0003555614
vt 0.5705059 0.8096142
vt 0.2881067 0.8096092
vt 0.2881072 0.0003515679
vn -0.5535144 -0.8328396 0
vn -0.5535144 -0.8328396 0
vn -0.5535144 -0.8328396 0
vn -0.5535144 -0.8328396 0
vn -0.3806899 -0.9247028 3.450688E-07
vn -0.38069 -0.9247028 3.450688E-07
vn -0.38069 -0.9247028 3.450688E-07
vn -0.3806899 -0.9247028 3.450688E-07
vn -0.1929755 -0.9812036 4.279905E-07
vn -0.1929755 -0.9812036 4.279905E-07
vn -0.1929755 -0.9812036 4.279905E-07
vn -0.1929756 -0.9812036 4.279905E-07
vn 0.002465775 -0.999997 4.314206E-07
vn 0.002465775 -0.999997 4.314206E-07
vn 0.002465775 -0.999997 4.314206E-07
vn 0.002465775 -0.999997 4.314206E-07
vn 0.1980737 -0.9801871 5.226601E-07
vn 0.1980737 -0.9801871 5.226601E-07
vn 0.1980737 -0.9801871 5.226601E-07
vn 0.1980737 -0.9801871 5.226601E-07
vn 0.3861868 -0.9224206 5.240944E-07
vn 0.3861868 -0.9224206 5.240943E-07
vn 0.3861867 -0.9224206 5.240943E-07
vn 0.3861868 -0.9224206 5.240943E-07
vn 0.5593998 -0.828898 2.100782E-07
vn 0.5593998 -0.828898 2.100782E-07
vn 0.5593998 -0.828898 2.100783E-07
vn 0.5593998 -0.828898 2.100783E-07
vn 0.6612014 -0.7502084 1.533333E-07
vn 0.6612014 -0.7502084 1.533333E-07
vn 0.6612014 -0.7502084 1.533333E-07
vn 0.6612014 -0.7502084 1.533333E-07
vn 0.7946647 -0.6070486 2.136674E-07
vn 0.7946647 -0.6070486 2.136674E-07
vn 0.7946647 -0.6070486 2.136674E-07
vn 0.7946647 -0.6070486 2.136674E-07
vn 0.897824 -0.4403544 4.705788E-07
vn 0.897824 -0.4403545 4.705788E-07
vn 0.897824 -0.4403544 4.705788E-07
vn 0.897824 -0.4403545 4.705788E-07
vn 0.9665611 -0.2564364 4.824666E-07
vn 0.9665611 -0.2564364 4.824666E-07
vn 0.9665611 -0.2564364 4.824666E-07
vn 0.9665611 -0.2564365 4.824666E-07
vn 0.9980533 -0.0623668 4.277336E-07
vn 0.9980533 -0.0623668 4.277336E-07
vn 0.9980533 -0.06236682 4.277336E-07
vn 0.9980533 -0.06236682 4.277336E-07
vn 0.9909424 0.1342878 4.614117E-07
vn 0.9909424 0.1342878 4.614118E-07
vn 0.9909424 0.1342879 4.614118E-07
vn 0.9909424 0.1342879 4.614118E-07
vn 0.9454373 0.325804 1.627447E-07
vn 0.9454373 0.325804 1.627447E-07
vn 0.9454373 0.325804 1.627447E-07
vn 0.9454374 0.325804 1.627447E-07
vn -0.9477213 0.3190992 0
vn -0.9477213 0.3190992 0
vn -0.9477213 0.3190992 0
vn -0.9477213 0.3190992 0
vn -0.9917243 0.1283859 0
vn -0.9917243 0.1283858 0
vn -0.9917243 0.1283858 0
vn -0.9917243 0.1283858 0
vn -0.9977157 -0.06755289 5.884409E-07
vn -0.9977157 -0.06755286 5.88441E-07
vn -0.9977157 -0.06755289 5.884409E-07
vn -0.9977157 -0.06755288 5.88441E-07
vn -0.9652845 -0.2612009 8.868313E-07
vn -0.9652845 -0.2612009 8.868313E-07
vn -0.9652845 -0.2612009 8.868313E-07
vn -0.9652845 -0.2612009 8.868313E-07
vn -0.895523 -0.4450153 8.533714E-07
vn -0.895523 -0.4450153 8.533713E-07
vn -0.895523 -0.4450153 8.533714E-07
vn -0.895523 -0.4450153 8.533713E-07
vn -0.7910374 -0.6117677 1.183493E-06
vn -0.7910374 -0.6117677 1.183493E-06
vn -0.7910374 -0.6117677 1.183493E-06
vn -0.7910374 -0.6117677 1.183493E-06
vn -0.6558708 -0.7548731 5.411779E-07
vn -0.6558708 -0.7548731 5.411778E-07
vn -0.6558708 -0.7548731 5.411778E-07
vn -0.6558708 -0.7548731 5.411778E-07
g background_2_halloween_1_mountains_1_1_0
f 3/3/3 2/2/2 1/1/1
f 4/4/4 3/3/3 1/1/1
f 7/7/7 6/6/6 5/5/5
f 8/8/8 7/7/7 5/5/5
f 11/11/11 10/10/10 9/9/9
f 12/12/12 11/11/11 9/9/9
f 15/15/15 14/14/14 13/13/13
f 16/16/16 15/15/15 13/13/13
f 19/19/19 18/18/18 17/17/17
f 20/20/20 19/19/19 17/17/17
f 23/23/23 22/22/22 21/21/21
f 24/24/24 23/23/23 21/21/21
f 27/27/27 26/26/26 25/25/25
f 28/28/28 27/27/27 25/25/25
f 31/31/31 30/30/30 29/29/29
f 32/32/32 31/31/31 29/29/29
f 35/35/35 34/34/34 33/33/33
f 36/36/36 35/35/35 33/33/33
f 39/39/39 38/38/38 37/37/37
f 40/40/40 39/39/39 37/37/37
f 43/43/43 42/42/42 41/41/41
f 44/44/44 43/43/43 41/41/41
f 47/47/47 46/46/46 45/45/45
f 48/48/48 47/47/47 45/45/45
f 51/51/51 50/50/50 49/49/49
f 52/52/52 51/51/51 49/49/49
f 55/55/55 54/54/54 53/53/53
f 56/56/56 55/55/55 53/53/53
f 59/59/59 58/58/58 57/57/57
f 60/60/60 59/59/59 57/57/57
f 63/63/63 62/62/62 61/61/61
f 64/64/64 63/63/63 61/61/61
f 67/67/67 66/66/66 65/65/65
f 68/68/68 67/67/67 65/65/65
f 71/71/71 70/70/70 69/69/69
f 72/72/72 71/71/71 69/69/69
f 75/75/75 74/74/74 73/73/73
f 76/76/76 75/75/75 73/73/73
f 79/79/79 78/78/78 77/77/77
f 80/80/80 79/79/79 77/77/77
f 83/83/83 82/82/82 81/81/81
f 84/84/84 83/83/83 81/81/81
