# Mesh "background_2_halloween_1_Car03" exported with Unity Assets Bundle Extractor; 124 vertices, 180 indices, 40 bytes per vertex
g background_2_halloween_1_Car03
# SubMesh 0
# Vertices
v -2.228987 0.240103 0.248624
vt 0.912109 0.785156
vn -0.417296 0.908658 0.014318
v 1.265964 1.856904 -0.498031
vt 0.894531 0.689453
vn -0.417296 0.908658 0.014318
v 1.266455 1.845010 0.271144
vt 0.912109 0.689453
vn -0.417296 0.908658 0.014318
v -1.807967 0.445532 -0.517835
vt 0.894531 0.773438
vn -0.417300 0.908656 0.014317
v 0.235082 1.383594 -0.504666
vt 0.894531 0.716797
vn -0.417278 0.908666 0.014288
v -2.229500 0.251978 -0.520565
vt 0.894531 0.785156
vn -0.417316 0.908649 0.014306
v 0.960178 1.716499 -0.500013
vt 0.894531 0.697266
vn -0.417290 0.908661 0.014315
v 0.234838 1.389282 -0.873567
vt 0.884766 0.716797
vn -0.417290 0.908661 0.014315
v 0.959931 1.722197 -0.868898
vt 0.884766 0.697266
vn -0.417290 0.908661 0.014315
v -2.228987 0.240103 0.248624
vt 0.912109 0.785156
vn -0.417310 0.908653 0.014241
v 0.960178 1.716499 -0.500013
vt 0.894531 0.697266
vn -0.417310 0.908653 0.014241
v 1.265964 1.856904 -0.498031
vt 0.894531 0.689453
vn -0.417310 0.908653 0.014241
v -2.228987 0.240103 0.248624
vt 0.912109 0.785156
vn -0.417278 0.908665 0.014401
v 0.235082 1.383594 -0.504666
vt 0.894531 0.716797
vn -0.417278 0.908665 0.014401
v 0.960178 1.716499 -0.500013
vt 0.894531 0.697266
vn -0.417278 0.908665 0.014401
v -1.084815 0.777559 -0.513182
vt 0.894531 0.753906
vn -0.417304 0.908653 0.014345
v -1.808194 0.451240 -0.886745
vt 0.884766 0.773438
vn -0.417304 0.908654 0.014345
v -1.085057 0.783271 -0.882077
vt 0.884766 0.753906
vn -0.417304 0.908654 0.014345
v -1.807967 0.445532 -0.517835
vt 0.894531 0.773438
vn -0.417292 0.908660 0.014316
v 0.235082 1.383594 -0.504666
vt 0.894531 0.716797
vn -0.314596 0.694249 -0.647339
v -1.807967 0.445532 -0.517835
vt 0.894531 0.773438
vn -0.314596 0.694249 -0.647339
v -1.084815 0.777559 -0.513182
vt 0.894531 0.753906
vn -0.314596 0.694249 -0.647339
v 2.229500 -0.252007 0.238095
vt 0.912109 0.689453
vn 0.417294 -0.908659 -0.014306
v -1.266453 -1.845029 -0.553619
vt 0.894531 0.785156
vn 0.417294 -0.908659 -0.014306
v -1.265941 -1.856904 0.215579
vt 0.912109 0.785156
vn 0.417294 -0.908659 -0.014306
v 2.229004 -0.240117 -0.531079
vt 0.894531 0.689453
vn 0.417301 -0.908656 -0.014315
v 1.923231 -0.380513 -0.533042
vt 0.894531 0.697266
vn 0.417290 -0.908661 -0.014309
v 2.229500 -0.252007 0.238095
vt 0.912109 0.689453
vn 0.417304 -0.908653 -0.014361
v -0.121780 -1.319448 -0.546241
vt 0.894531 0.753906
vn 0.417305 -0.908654 -0.014320
v -0.844927 -1.651484 -0.550894
vt 0.894531 0.773438
vn 0.417304 -0.908653 -0.014361
v -1.266453 -1.845029 -0.553619
vt 0.894531 0.785156
vn 0.417304 -0.908653 -0.014361
v -0.844927 -1.651484 -0.550894
vt 0.894531 0.773438
vn 0.417308 -0.908653 -0.014313
v -0.122010 -1.313740 -0.915121
vt 0.884766 0.753906
vn 0.417308 -0.908653 -0.014313
v -0.845162 -1.645781 -0.919784
vt 0.884766 0.773438
vn 0.417307 -0.908653 -0.014313
v 2.229500 -0.252007 0.238095
vt 0.912109 0.689453
vn 0.417305 -0.908653 -0.014364
v -0.121780 -1.319448 -0.546241
vt 0.894531 0.753906
vn 0.417305 -0.908653 -0.014364
v -0.844927 -1.651484 -0.550894
vt 0.894531 0.773438
vn 0.417305 -0.908653 -0.014364
v 1.198120 -0.713428 -0.537725
vt 0.894531 0.716797
vn 0.417287 -0.908662 -0.014337
v 1.922972 -0.374805 -0.901952
vt 0.884766 0.697266
vn 0.417287 -0.908662 -0.014337
v 1.197885 -0.707715 -0.906625
vt 0.884766 0.716797
vn 0.417287 -0.908662 -0.014337
v 1.923231 -0.380513 -0.533042
vt 0.894531 0.697266
vn 0.417281 -0.908664 -0.014352
v -0.121780 -1.319448 -0.546241
vt 0.894531 0.753906
vn 0.161562 -0.338843 -0.926867
v 1.923231 -0.380513 -0.533042
vt 0.894531 0.697266
vn 0.161562 -0.338843 -0.926867
v 1.198120 -0.713428 -0.537725
vt 0.894531 0.716797
vn 0.161562 -0.338843 -0.926867
v -1.265941 -1.856904 0.215579
vt 0.825764 0.783965
vn 0.000656 -0.015457 0.999880
v 1.266455 1.845010 0.271144
vt 0.880005 0.693563
vn 0.000656 -0.015457 0.999880
v 2.229500 -0.252007 0.238095
vt 0.825764 0.693563
vn 0.000656 -0.015457 0.999880
v -2.228987 0.240103 0.248624
vt 0.880005 0.783965
vn 0.000654 -0.015455 0.999880
v -1.084815 0.777559 -0.513182
vt 0.937500 0.728516
vn 0.908777 0.417241 0.005838
v -0.966746 0.525615 -0.886154
vt 0.929688 0.736328
vn 0.908777 0.417241 0.005838
v -0.966502 0.519922 -0.517240
vt 0.937500 0.736328
vn 0.908777 0.417241 0.005838
v -1.085057 0.783271 -0.882077
vt 0.929688 0.728516
vn 0.908793 0.417206 0.005866
v -0.966502 0.519922 -0.517240
vt 0.894531 0.753906
vn 0.417306 -0.908653 -0.014320
v -1.689888 0.193589 -0.890813
vt 0.884766 0.773438
vn 0.417306 -0.908653 -0.014320
v -1.689647 0.187886 -0.521898
vt 0.894531 0.773438
vn 0.417306 -0.908653 -0.014320
v -0.966746 0.525615 -0.886154
vt 0.884766 0.753906
vn 0.417297 -0.908658 -0.014299
v -1.689647 0.187886 -0.521898
vt 0.939453 0.730469
vn -0.908774 -0.417248 -0.005897
v -1.808194 0.451240 -0.886745
vt 0.929688 0.736328
vn -0.908774 -0.417248 -0.005897
v -1.807967 0.445532 -0.517835
vt 0.939453 0.736328
vn -0.908774 -0.417248 -0.005897
v -1.689888 0.193589 -0.890813
vt 0.929688 0.730469
vn -0.908796 -0.417199 -0.005854
v 0.960178 1.716499 -0.500013
vt 0.937500 0.728516
vn 0.908777 0.417240 0.005885
v 1.078261 1.464565 -0.872961
vt 0.929688 0.736328
vn 0.908777 0.417240 0.005885
v 1.078491 1.458862 -0.504061
vt 0.937500 0.736328
vn 0.908777 0.417240 0.005885
v 0.959931 1.722197 -0.868898
vt 0.929688 0.728516
vn 0.908752 0.417297 0.005839
v 1.078491 1.458862 -0.504061
vt 0.894531 0.697266
vn 0.417291 -0.908660 -0.014326
v 0.353176 1.131660 -0.877625
vt 0.884766 0.716797
vn 0.417291 -0.908660 -0.014326
v 0.353400 1.125947 -0.508729
vt 0.894531 0.716797
vn 0.417291 -0.908660 -0.014326
v 1.078261 1.464565 -0.872961
vt 0.884766 0.697266
vn 0.417283 -0.908664 -0.014307
v 0.353400 1.125947 -0.508729
vt 0.939453 0.730469
vn -0.908777 -0.417242 -0.005832
v 0.234838 1.389282 -0.873567
vt 0.929688 0.736328
vn -0.908777 -0.417242 -0.005832
v 0.235082 1.383594 -0.504666
vt 0.939453 0.736328
vn -0.908777 -0.417242 -0.005832
v 0.353176 1.131660 -0.877625
vt 0.929688 0.730469
vn -0.908736 -0.417330 -0.005910
v -0.844927 -1.651484 -0.550894
vt 0.939453 0.728516
vn -0.908764 -0.417270 -0.005862
v -0.987332 -1.336230 -0.914920
vt 0.929688 0.736328
vn -0.908764 -0.417270 -0.005862
v -0.987093 -1.341934 -0.546029
vt 0.939453 0.736328
vn -0.908764 -0.417270 -0.005862
v -0.845162 -1.645781 -0.919784
vt 0.929688 0.728516
vn -0.908758 -0.417282 -0.005874
v -0.987093 -1.341934 -0.546029
vt 0.894531 0.773438
vn -0.417313 0.908650 0.014333
v -0.264183 -1.004180 -0.910256
vt 0.884766 0.753906
vn -0.417313 0.908650 0.014333
v -0.263941 -1.009888 -0.541366
vt 0.894531 0.753906
vn -0.417313 0.908650 0.014333
v -0.987332 -1.336230 -0.914920
vt 0.884766 0.773438
vn -0.417319 0.908647 0.014319
v -0.263941 -1.009888 -0.541366
vt 0.939453 0.728516
vn 0.908774 0.417247 0.005891
v -0.122010 -1.313740 -0.915121
vt 0.929688 0.736328
vn 0.908774 0.417247 0.005891
v -0.121780 -1.319448 -0.546241
vt 0.939453 0.736328
vn 0.908774 0.417247 0.005891
v -0.264183 -1.004180 -0.910256
vt 0.929688 0.728516
vn 0.908760 0.417277 0.005861
v 1.198120 -0.713428 -0.537725
vt 0.939453 0.728516
vn -0.908790 -0.417213 -0.005813
v 1.055717 -0.398169 -0.901751
vt 0.929688 0.736328
vn -0.908790 -0.417213 -0.005813
v 1.055974 -0.403867 -0.532856
vt 0.939453 0.736328
vn -0.908790 -0.417213 -0.005813
v 1.197885 -0.707715 -0.906625
vt 0.929688 0.728516
vn -0.908758 -0.417281 -0.005885
v 1.055974 -0.403867 -0.532856
vt 0.894531 0.716797
vn -0.417299 0.908656 0.014326
v 1.780823 -0.065239 -0.897058
vt 0.884766 0.697266
vn -0.417299 0.908656 0.014326
v 1.781057 -0.070947 -0.528183
vt 0.894531 0.697266
vn -0.417299 0.908656 0.014326
v 1.055717 -0.398169 -0.901751
vt 0.884766 0.716797
vn -0.417299 0.908656 0.014326
v 1.781057 -0.070947 -0.528183
vt 0.939453 0.728516
vn 0.908762 0.417275 0.005819
v 1.922972 -0.374805 -0.901952
vt 0.929688 0.736328
vn 0.908762 0.417275 0.005819
v 1.923231 -0.380513 -0.533042
vt 0.939453 0.736328
vn 0.908762 0.417275 0.005819
v 1.780823 -0.065239 -0.897058
vt 0.929688 0.728516
vn 0.908789 0.417215 0.005879
v -2.229500 0.251978 -0.520565
vt 0.939453 0.785156
vn -0.908769 -0.417259 -0.005836
v -1.265941 -1.856904 0.215579
vt 0.958984 0.726563
vn -0.908769 -0.417259 -0.005836
v -1.266453 -1.845029 -0.553619
vt 0.939453 0.726563
vn -0.908769 -0.417259 -0.005836
v -2.228987 0.240103 0.248624
vt 0.958984 0.785156
vn -0.908769 -0.417259 -0.005836
v 1.266455 1.845010 0.271144
vt 0.958984 0.666016
vn 0.908770 0.417256 0.005864
v 2.229004 -0.240117 -0.531079
vt 0.939453 0.722656
vn 0.908770 0.417256 0.005864
v 2.229500 -0.252007 0.238095
vt 0.958984 0.722656
vn 0.908770 0.417256 0.005864
v 1.265964 1.856904 -0.498031
vt 0.939453 0.666016
vn 0.908771 0.417253 0.005873
v -0.105853 -1.114375 0.878726
vt 0.830078 0.753906
vn 0.000653 -0.015458 0.999880
v 1.188886 1.596099 0.919785
vt 0.875000 0.699219
vn 0.000653 -0.015458 0.999880
v 1.991418 -0.151416 0.892244
vt 0.830078 0.699219
vn 0.000653 -0.015458 0.999880
v -0.908401 0.633130 0.906261
vt 0.875000 0.753906
vn 0.000650 -0.015457 0.999880
v -0.106365 -1.102480 0.109562
vt 0.912109 0.753906
vn 0.417298 -0.908657 -0.014322
v 1.991418 -0.151416 0.892244
vt 0.929688 0.695313
vn 0.417298 -0.908657 -0.014322
v 1.990908 -0.139526 0.123060
vt 0.912109 0.695313
vn 0.417298 -0.908657 -0.014322
v -0.105853 -1.114375 0.878726
vt 0.929688 0.753906
vn 0.417300 -0.908656 -0.014330
v 1.990908 -0.139526 0.123060
vt 0.958984 0.716797
vn 0.908776 0.417243 0.005876
v 1.188886 1.596099 0.919785
vt 0.976563 0.671875
vn 0.908776 0.417243 0.005876
v 1.188400 1.607988 0.150610
vt 0.958984 0.671875
vn 0.908776 0.417243 0.005876
v 1.991418 -0.151416 0.892244
vt 0.976563 0.716797
vn 0.908771 0.417254 0.005847
v 1.188400 1.607988 0.150610
vt 0.912109 0.695313
vn -0.417298 0.908657 0.014320
v -0.908401 0.633130 0.906261
vt 0.929688 0.753906
vn -0.417298 0.908657 0.014320
v -0.908897 0.645024 0.137087
vt 0.912109 0.753906
vn -0.417298 0.908657 0.014320
v 1.188886 1.596099 0.919785
vt 0.929688 0.695313
vn -0.417301 0.908656 0.014309
v -0.908897 0.645024 0.137087
vt 0.958984 0.779297
vn -0.908770 -0.417256 -0.005847
v -0.105853 -1.114375 0.878726
vt 0.976563 0.730469
vn -0.908770 -0.417256 -0.005847
v -0.106365 -1.102480 0.109562
vt 0.958984 0.730469
vn -0.908770 -0.417256 -0.005847
v -0.908401 0.633130 0.906261
vt 0.976563 0.779297
vn -0.908767 -0.417263 -0.005867
# Faces (1 to 124)
f -122/-122/-122 -123/-123/-123 -124/-124/-124
f -120/-120/-120 -121/-121/-121 -124/-124/-124
f -121/-121/-121 -119/-119/-119 -124/-124/-124
f -117/-117/-117 -120/-120/-120 -118/-118/-118
f -116/-116/-116 -117/-117/-117 -118/-118/-118
f -113/-113/-113 -114/-114/-114 -115/-115/-115
f -110/-110/-110 -111/-111/-111 -112/-112/-112
f -107/-107/-107 -108/-108/-108 -109/-109/-109
f -108/-108/-108 -106/-106/-106 -109/-109/-109
f -103/-103/-103 -104/-104/-104 -105/-105/-105
f -100/-100/-100 -101/-101/-101 -102/-102/-102
f -98/-98/-98 -99/-99/-99 -102/-102/-102
f -96/-96/-96 -98/-98/-98 -97/-97/-97
f -94/-94/-94 -95/-95/-95 -97/-97/-97
f -92/-92/-92 -96/-96/-96 -93/-93/-93
f -91/-91/-91 -92/-92/-92 -93/-93/-93
f -88/-88/-88 -89/-89/-89 -90/-90/-90
f -85/-85/-85 -86/-86/-86 -87/-87/-87
f -86/-86/-86 -84/-84/-84 -87/-87/-87
f -81/-81/-81 -82/-82/-82 -83/-83/-83
f -78/-78/-78 -79/-79/-79 -80/-80/-80
f -77/-77/-77 -80/-80/-80 -79/-79/-79
f -74/-74/-74 -75/-75/-75 -76/-76/-76
f -73/-73/-73 -76/-76/-76 -75/-75/-75
f -70/-70/-70 -71/-71/-71 -72/-72/-72
f -69/-69/-69 -72/-72/-72 -71/-71/-71
f -66/-66/-66 -67/-67/-67 -68/-68/-68
f -65/-65/-65 -68/-68/-68 -67/-67/-67
f -62/-62/-62 -63/-63/-63 -64/-64/-64
f -61/-61/-61 -64/-64/-64 -63/-63/-63
f -58/-58/-58 -59/-59/-59 -60/-60/-60
f -57/-57/-57 -60/-60/-60 -59/-59/-59
f -54/-54/-54 -55/-55/-55 -56/-56/-56
f -53/-53/-53 -56/-56/-56 -55/-55/-55
f -50/-50/-50 -51/-51/-51 -52/-52/-52
f -49/-49/-49 -52/-52/-52 -51/-51/-51
f -46/-46/-46 -47/-47/-47 -48/-48/-48
f -45/-45/-45 -48/-48/-48 -47/-47/-47
f -42/-42/-42 -43/-43/-43 -44/-44/-44
f -41/-41/-41 -44/-44/-44 -43/-43/-43
f -38/-38/-38 -39/-39/-39 -40/-40/-40
f -37/-37/-37 -40/-40/-40 -39/-39/-39
f -34/-34/-34 -35/-35/-35 -36/-36/-36
f -33/-33/-33 -36/-36/-36 -35/-35/-35
f -30/-30/-30 -31/-31/-31 -32/-32/-32
f -29/-29/-29 -32/-32/-32 -31/-31/-31
f -26/-26/-26 -27/-27/-27 -28/-28/-28
f -25/-25/-25 -28/-28/-28 -27/-27/-27
f -22/-22/-22 -23/-23/-23 -24/-24/-24
f -21/-21/-21 -24/-24/-24 -23/-23/-23
f -18/-18/-18 -19/-19/-19 -20/-20/-20
f -17/-17/-17 -20/-20/-20 -19/-19/-19
f -14/-14/-14 -15/-15/-15 -16/-16/-16
f -13/-13/-13 -16/-16/-16 -15/-15/-15
f -10/-10/-10 -11/-11/-11 -12/-12/-12
f -9/-9/-9 -12/-12/-12 -11/-11/-11
f -6/-6/-6 -7/-7/-7 -8/-8/-8
f -5/-5/-5 -8/-8/-8 -7/-7/-7
f -2/-2/-2 -3/-3/-3 -4/-4/-4
f -1/-1/-1 -4/-4/-4 -3/-3/-3

