g background_1_western_1_rope02
v 8.522765 -6.250001 2.500022
v 8.522765 -6.250003 17.5
v 8.75 -6.250003 17.5
v 8.75 -6.250001 2.500022
v -8.75 -6.250001 2.500022
v -8.75 -6.250003 17.5
v -8.522765 -6.250003 17.5
v -8.522765 -6.250001 2.500022
v 8.522765 6.250002 2.500022
v 8.522765 6.249999 17.5
v 8.75 6.249999 17.5
v 8.75 6.250002 2.500022
v -8.75 6.250002 2.500022
v -8.75 6.249999 17.5
v -8.522765 6.249999 17.5
v -8.522765 6.250002 2.500022
vt 0.40625 0.9456954
vt 0.4062499 0.6523438
vt 0.3984375 0.6523438
vt 0.3984376 0.9456954
vt 0.40625 0.9456954
vt 0.4062499 0.6523438
vt 0.3984375 0.6523438
vt 0.3984376 0.9456954
vt 0.40625 0.9456954
vt 0.4062499 0.6523439
vt 0.3984375 0.6523439
vt 0.3984376 0.9456954
vt 0.40625 0.9456954
vt 0.4062499 0.6523438
vt 0.3984375 0.6523438
vt 0.3984376 0.9456954
vn 0 -1 -1.627606E-07
vn 0 -1 -1.627606E-07
vn 0 -1 -1.627606E-07
vn 0 -1 -1.627606E-07
vn 0 -1 -1.627606E-07
vn 0 -1 -1.627606E-07
vn 0 -1 -1.627606E-07
vn 0 -1 -1.627606E-07
vn 0 -1 -1.627606E-07
vn 0 -1 -1.627606E-07
vn 0 -1 -1.627606E-07
vn 0 -1 -1.627606E-07
vn 0 -1 -1.627606E-07
vn 0 -1 -1.627606E-07
vn 0 -1 -1.627606E-07
vn 0 -1 -1.627606E-07
g background_1_western_1_rope02_0
f 3/3/3 2/2/2 1/1/1
f 4/4/4 3/3/3 1/1/1
f 7/7/7 6/6/6 5/5/5
f 8/8/8 7/7/7 5/5/5
f 11/11/11 10/10/10 9/9/9
f 12/12/12 11/11/11 9/9/9
f 15/15/15 14/14/14 13/13/13
f 16/16/16 15/15/15 13/13/13
