# Mesh "background_2_space_3_piston02" exported with Unity Assets Bundle Extractor; 40 vertices, 60 indices, 320 bits per vertex
g background_2_space_3_piston02
# SubMesh 0
# Vertices
v 0.820779 0.820786 -3.830325
vt 0.968750 0.406250
vn 1.000000 0.000001 0.000000
v 0.820780 -0.820780 -3.830326
vt 0.828125 0.406250
vn 1.000000 0.000001 0.000000
v 0.820780 -0.820781 2.371148
vt 0.828125 0.937500
vn 1.000000 0.000001 0.000000
v 0.820780 0.820785 2.371148
vt 0.968750 0.937500
vn 1.000000 0.000001 0.000000
v -0.820786 -0.820782 2.371148
vt 0.828125 0.937500
vn 0.000001 -1.000000 -0.000000
v 0.820780 -0.820781 2.371148
vt 0.968750 0.937500
vn 0.000001 -1.000000 -0.000000
v 0.820780 -0.820780 -3.830326
vt 0.968750 0.406250
vn 0.000001 -1.000000 -0.000000
v -0.820786 -0.820781 -3.830326
vt 0.828125 0.406250
vn 0.000001 -1.000000 -0.000000
v -0.820786 -0.820781 -3.830326
vt 0.968750 0.406250
vn -1.000000 -0.000001 0.000000
v -0.820787 0.820785 -3.830325
vt 0.828125 0.406250
vn -1.000000 -0.000001 0.000000
v -0.820787 0.820784 2.371148
vt 0.828125 0.937500
vn -1.000000 -0.000001 0.000000
v -0.820786 -0.820782 2.371148
vt 0.968750 0.937500
vn -1.000000 -0.000001 0.000000
v 0.820780 0.820785 2.371148
vt 0.828125 0.937500
vn -0.000001 1.000000 0.000000
v -0.820787 0.820784 2.371148
vt 0.968750 0.937500
vn -0.000001 1.000000 0.000000
v -0.820787 0.820785 -3.830325
vt 0.968750 0.406250
vn -0.000001 1.000000 0.000000
v 0.820779 0.820786 -3.830325
vt 0.828125 0.406250
vn -0.000001 1.000000 0.000000
v 1.367970 -1.367966 2.371157
vt 0.093750 0.328125
vn 0.000001 -0.000001 -1.000000
v 1.367973 1.367972 2.371155
vt 0.312500 0.328125
vn 0.000001 -0.000001 -1.000000
v -1.367970 1.367971 2.371154
vt 0.312500 0.109375
vn 0.000001 -0.000001 -1.000000
v -1.367973 -1.367969 2.371155
vt 0.093750 0.109375
vn 0.000001 -0.000001 -1.000000
v -1.367973 -1.367969 2.371155
vt 0.031250 0.437500
vn 0.000001 -1.000000 -0.000000
v -1.367972 -1.367969 3.830327
vt 0.031250 0.562500
vn 0.000001 -1.000000 -0.000000
v 1.367970 -1.367967 3.830328
vt 0.265625 0.562500
vn 0.000001 -1.000000 -0.000000
v 1.367970 -1.367966 2.371157
vt 0.265625 0.437500
vn 0.000001 -1.000000 -0.000000
v -1.367970 1.367971 2.371154
vt 0.031250 0.437500
vn -1.000000 0.000001 0.000000
v -1.367969 1.367972 3.830325
vt 0.031250 0.562500
vn -1.000000 0.000001 0.000000
v -1.367972 -1.367969 3.830327
vt 0.265625 0.562500
vn -1.000000 0.000001 0.000000
v -1.367973 -1.367969 2.371155
vt 0.265625 0.437500
vn -1.000000 0.000001 0.000000
v 1.367973 1.367972 2.371155
vt 0.031250 0.437500
vn -0.000000 1.000000 -0.000001
v 1.367973 1.367974 3.830327
vt 0.031250 0.562500
vn -0.000000 1.000000 -0.000001
v -1.367969 1.367972 3.830325
vt 0.265625 0.562500
vn -0.000000 1.000000 -0.000001
v -1.367970 1.367971 2.371154
vt 0.265625 0.437500
vn -0.000000 1.000000 -0.000001
v 1.367973 1.367974 3.830327
vt 0.093750 0.109375
vn -0.000000 0.000000 1.000000
v 1.367970 -1.367967 3.830328
vt 0.093750 0.328125
vn -0.000000 0.000000 1.000000
v -1.367972 -1.367969 3.830327
vt 0.312500 0.328125
vn -0.000000 0.000000 1.000000
v -1.367969 1.367972 3.830325
vt 0.312500 0.109375
vn -0.000000 0.000000 1.000000
v 1.367973 1.367972 2.371155
vt 0.031250 0.437500
vn 1.000000 -0.000001 -0.000000
v 1.367970 -1.367966 2.371157
vt 0.265625 0.437500
vn 1.000000 -0.000001 -0.000000
v 1.367970 -1.367967 3.830328
vt 0.265625 0.562500
vn 1.000000 -0.000001 -0.000000
v 1.367973 1.367974 3.830327
vt 0.031250 0.562500
vn 1.000000 -0.000001 -0.000000
# Faces (1 to 40)
g background_2_space_3_piston02_0
f -38/-38/-38 -39/-39/-39 -40/-40/-40
f -37/-37/-37 -38/-38/-38 -40/-40/-40
f -34/-34/-34 -35/-35/-35 -36/-36/-36
f -33/-33/-33 -34/-34/-34 -36/-36/-36
f -30/-30/-30 -31/-31/-31 -32/-32/-32
f -29/-29/-29 -30/-30/-30 -32/-32/-32
f -26/-26/-26 -27/-27/-27 -28/-28/-28
f -25/-25/-25 -26/-26/-26 -28/-28/-28
f -22/-22/-22 -23/-23/-23 -24/-24/-24
f -21/-21/-21 -22/-22/-22 -24/-24/-24
f -18/-18/-18 -19/-19/-19 -20/-20/-20
f -17/-17/-17 -18/-18/-18 -20/-20/-20
f -14/-14/-14 -15/-15/-15 -16/-16/-16
f -13/-13/-13 -14/-14/-14 -16/-16/-16
f -10/-10/-10 -11/-11/-11 -12/-12/-12
f -9/-9/-9 -10/-10/-10 -12/-12/-12
f -6/-6/-6 -7/-7/-7 -8/-8/-8
f -5/-5/-5 -6/-6/-6 -8/-8/-8
f -2/-2/-2 -3/-3/-3 -4/-4/-4
f -1/-1/-1 -2/-2/-2 -4/-4/-4

