g background_2_halloween_1_Car05
v -0.7148086 2.109766 -0.7773875
v -0.8872618 1.330732 -1.146329
v -0.7148086 2.109766 -1.146329
v -0.8872618 1.330732 -0.7773874
v -1.338948 -0.7096484 -0.008116149
v -1.338943 -0.7096582 -0.7773872
v -1.510944 -1.486601 -0.777387
v -1.510944 -1.486601 -1.146328
v -1.338943 -0.7096582 -1.146329
v -1.510942 -1.486592 -0.008116302
v -1.611193 -1.939463 -0.008116302
v -1.611193 -1.939463 -0.7773871
v -0.6420751 2.438281 -0.7773873
v -0.8872618 1.330732 -0.008116531
v -0.7148024 2.109756 -0.008116608
v -0.6420813 2.438281 -0.00811676
v -0.7148086 2.109766 -0.7773875
v -0.6420751 2.438281 -0.7773873
v -1.338948 -0.7096484 -0.008116149
v 0.7423112 -1.98542 -0.7773911
v 0.9143195 -1.208477 -1.146333
v 0.7423112 -1.98542 -1.146333
v 0.9143118 -1.208477 -0.7773911
v 1.366002 0.8319043 -0.008120575
v 1.36601 0.8319043 -0.7773915
v 1.538466 1.610937 -0.7773915
v 1.538466 1.610937 -1.146333
v 1.36601 0.8319043 -1.146333
v 1.538466 1.610937 -0.008120728
v 1.611194 1.939482 -0.008120728
v 1.611194 1.939482 -0.7773915
v 0.642066 -2.438291 -0.7773909
v 0.9143118 -1.208477 -0.008120193
v 0.7423205 -1.98541 -0.008120193
v 0.642066 -2.438291 -0.008120117
v 0.7423112 -1.98542 -0.7773911
v 0.642066 -2.438291 -0.7773909
v 1.366002 0.8319043 -0.008120575
v -0.3652299 2.377002 -0.008117218
v -0.7148024 2.109756 -0.008116608
v -0.6420813 2.438281 -0.00811676
v 1.278571 2.013096 -0.008120193
v -0.8872618 1.330732 -0.008116531
v -1.334361 -2.000752 -0.00811676
v 0.9143118 -1.208477 -0.008120193
v 0.7423205 -1.98541 -0.008120193
v 0.642066 -2.438291 -0.008120117
v 1.366002 0.8319043 -0.008120575
v 1.538466 1.610937 -0.008120728
v 1.611194 1.939482 -0.008120728
v -1.510942 -1.486592 -0.008116302
v -1.611193 -1.939463 -0.008116302
v -1.338948 -0.7096484 -0.008116149
v -0.8872618 1.330732 -0.008116531
v -1.334361 -2.000752 -0.00811676
v -1.338948 -0.7096484 -0.008116149
v -1.334361 -2.000752 -0.00811676
v 0.642066 -2.438291 -0.008120117
v 0.3094336 -2.364648 -0.008119507
v -1.338943 -0.7096582 -0.7773872
v -1.062106 -0.7709473 -1.146329
v -1.062106 -0.7709473 -0.7773877
v -1.338943 -0.7096582 -1.146329
v -1.062106 -0.7709473 -0.7773877
v -1.234103 -1.547881 -1.146329
v -1.234103 -1.547881 -0.7773874
v -1.062106 -0.7709473 -1.146329
v -1.234103 -1.547881 -0.7773874
v -1.510944 -1.486601 -1.146328
v -1.510944 -1.486601 -0.777387
v -1.234103 -1.547881 -1.146329
v -0.7148086 2.109766 -0.7773875
v -0.4379542 2.048476 -1.146329
v -0.4379542 2.048476 -0.777388
v -0.7148086 2.109766 -1.146329
v -0.4379542 2.048476 -0.777388
v -0.6104167 1.269443 -1.146329
v -0.6104181 1.269434 -0.7773879
v -0.4379542 2.048476 -1.146329
v -0.6104181 1.269434 -0.7773879
v -0.8872618 1.330732 -1.146329
v -0.8872618 1.330732 -0.7773874
v -0.6104167 1.269443 -1.146329
v 0.7423112 -1.98542 -0.7773911
v 0.4096927 -1.911777 -1.146332
v 0.4096927 -1.911777 -0.7773904
v 0.7423112 -1.98542 -1.146333
v 0.4096927 -1.911777 -0.7773904
v 0.5816978 -1.134834 -1.146332
v 0.5816978 -1.134834 -0.7773904
v 0.4096927 -1.911777 -1.146332
v 0.5816978 -1.134834 -0.7773904
v 0.9143195 -1.208477 -1.146333
v 0.9143118 -1.208477 -0.7773911
v 0.5816978 -1.134834 -1.146332
v 1.36601 0.8319043 -0.7773915
v 1.03337 0.9055371 -1.146332
v 1.03337 0.9055371 -0.7773907
v 1.36601 0.8319043 -1.146333
v 1.03337 0.9055371 -0.7773907
v 1.205847 1.68458 -1.146332
v 1.205847 1.68458 -0.7773909
v 1.03337 0.9055371 -1.146332
v 1.205847 1.68458 -0.7773909
v 1.538466 1.610937 -1.146333
v 1.538466 1.610937 -0.7773915
v 1.205847 1.68458 -1.146332
v -1.611193 -1.939463 -0.7773871
v 0.642066 -2.438291 -0.008120117
v 0.642066 -2.438291 -0.7773909
v -1.611193 -1.939463 -0.008116302
v -0.6420813 2.438281 -0.00811676
v 1.611194 1.939482 -0.7773915
v 1.611194 1.939482 -0.008120728
v -0.6420751 2.438281 -0.7773873
v 0.6718475 -1.036904 0.6420109
v -0.7070495 1.632021 0.6420144
v 1.170661 1.216357 0.6420111
v -1.205872 -0.6212207 0.6420147
v 0.6718475 -1.036904 -0.1272595
v 1.170661 1.216357 0.6420111
v 1.170664 1.216357 -0.1272599
v 0.6718475 -1.036904 0.6420109
v 1.170664 1.216357 -0.1272599
v -0.7070495 1.632021 0.6420144
v -0.7070495 1.632021 -0.1272565
v 1.170661 1.216357 0.6420111
v -0.7070495 1.632021 -0.1272565
v -1.205872 -0.6212207 0.6420147
v -1.205872 -0.6212207 -0.1272563
v -0.7070495 1.632021 0.6420144
v -1.205872 -0.6212207 -0.1272563
v 0.6718475 -1.036904 0.6420109
v 0.6718475 -1.036904 -0.1272595
v -1.205872 -0.6212207 0.6420147
v 0.09059631 -0.4897754 1.146332
v 0.1459592 1.013975 1.146333
v 0.4105398 0.9554101 1.146332
v -0.1739627 -0.4312109 1.146333
v 0.09060241 -0.4897851 0.6149254
v 0.4105398 0.9554101 1.146332
v 0.4105398 0.9554101 0.6149251
v 0.09059631 -0.4897754 1.146332
v 0.4105398 0.9554101 0.6149251
v 0.1459592 1.013975 1.146333
v 0.1459592 1.013975 0.6149258
v 0.4105398 0.9554101 1.146332
v 0.1459592 1.013975 0.6149258
v -0.1739627 -0.4312109 1.146333
v -0.1739813 -0.4312012 0.614926
v 0.1459592 1.013975 1.146333
v -0.1739813 -0.4312012 0.614926
v 0.09059631 -0.4897754 1.146332
v 0.09060241 -0.4897851 0.6149254
v -0.1739627 -0.4312109 1.146333
vt 0.8925782 0.4316405
vt 0.8847657 0.4511718
vt 0.8847657 0.4316405
vt 0.8925782 0.4511718
vt 0.9121094 0.501953
vt 0.8925782 0.501953
vt 0.8925781 0.5214843
vt 0.8847656 0.5214843
vt 0.8847657 0.501953
vt 0.9121094 0.5214843
vt 0.9121094 0.533203
vt 0.8925781 0.533203
vt 0.8925782 0.423828
vt 0.9121094 0.4511718
vt 0.9121094 0.4316405
vt 0.9121094 0.423828
vt 0.8925782 0.4316405
vt 0.8925782 0.423828
vt 0.9121094 0.501953
vt 0.8925781 0.5214843
vt 0.8847657 0.501953
vt 0.8847656 0.5214843
vt 0.8925782 0.501953
vt 0.9121094 0.4511718
vt 0.8925782 0.4511718
vt 0.8925782 0.4316405
vt 0.8847657 0.4316405
vt 0.8847657 0.4511718
vt 0.9121094 0.4316405
vt 0.9121094 0.423828
vt 0.8925782 0.423828
vt 0.8925781 0.533203
vt 0.9121094 0.501953
vt 0.9121094 0.5214843
vt 0.9121094 0.533203
vt 0.8925781 0.5214843
vt 0.8925781 0.533203
vt 0.9121094 0.4511718
vt 0.8750001 0.4042968
vt 0.8808594 0.4121093
vt 0.8808594 0.4042968
vt 0.8339844 0.4042968
vt 0.8808594 0.4277343
vt 0.8750001 0.4980468
vt 0.8261719 0.4726561
vt 0.8261719 0.4882811
vt 0.8261719 0.4980468
vt 0.8261719 0.4277343
vt 0.8261719 0.4121093
vt 0.8261719 0.4042968
vt 0.8808594 0.4882811
vt 0.8808594 0.4980468
vt 0.8808594 0.4726561
vt 0.8808594 0.4277343
vt 0.8750001 0.4980468
vt 0.8808594 0.4726561
vt 0.8750001 0.4980468
vt 0.8261719 0.4980468
vt 0.8339844 0.4980468
vt 0.9394532 0.3808593
vt 0.9316407 0.3886718
vt 0.9394532 0.3886718
vt 0.9316407 0.3808593
vt 0.8925782 0.501953
vt 0.8847656 0.5214843
vt 0.8925781 0.5214843
vt 0.8847657 0.501953
vt 0.9394532 0.4921874
vt 0.9316407 0.4999999
vt 0.9394532 0.4999999
vt 0.9316407 0.4921874
vt 0.9394532 0.3808593
vt 0.9316407 0.3886718
vt 0.9394532 0.3886718
vt 0.9316407 0.3808593
vt 0.8925782 0.4316405
vt 0.8847657 0.4511718
vt 0.8925782 0.4511718
vt 0.8847657 0.4316405
vt 0.9394532 0.4921874
vt 0.9316407 0.4999999
vt 0.9394532 0.4999999
vt 0.9316407 0.4921874
vt 0.9394532 0.4433593
vt 0.9316407 0.4511718
vt 0.9394532 0.4511718
vt 0.9316407 0.4433593
vt 0.8925781 0.5214843
vt 0.8847657 0.501953
vt 0.8925782 0.501953
vt 0.8847656 0.5214843
vt 0.9394532 0.4296874
vt 0.9316407 0.4374999
vt 0.9394532 0.4374999
vt 0.9316407 0.4296874
vt 0.9394532 0.4433593
vt 0.9316407 0.4511718
vt 0.9394532 0.4511718
vt 0.9316407 0.4433593
vt 0.8925782 0.4511718
vt 0.8847657 0.4316405
vt 0.8925782 0.4316405
vt 0.8847657 0.4511718
vt 0.9394532 0.4296874
vt 0.9316407 0.4374999
vt 0.9394532 0.4374999
vt 0.9316407 0.4296874
vt 0.9414063 0.4999999
vt 0.9589844 0.4433593
vt 0.9414063 0.4433593
vt 0.9589844 0.4999999
vt 0.9589844 0.3808593
vt 0.9414063 0.4374999
vt 0.9589844 0.4374999
vt 0.9414063 0.3808593
vt 0.8300782 0.4687499
vt 0.8750001 0.4218749
vt 0.8300782 0.4218749
vt 0.8750001 0.4687499
vt 0.9101563 0.5039061
vt 0.9296876 0.4433593
vt 0.9101563 0.4433593
vt 0.9296876 0.5039061
vt 0.9589844 0.4335936
vt 0.9765626 0.3867187
vt 0.9589844 0.3867187
vt 0.9765626 0.4335937
vt 0.9101563 0.4433593
vt 0.9296876 0.5039061
vt 0.9101563 0.5039061
vt 0.9296876 0.4433593
vt 0.9589844 0.4960936
vt 0.9765626 0.4492187
vt 0.9589844 0.4492186
vt 0.9765626 0.4960937
vt 0.8593751 0.3730468
vt 0.8671876 0.3300781
vt 0.8593751 0.3300781
vt 0.8671876 0.3730468
vt 0.8984376 0.4921874
vt 0.9082032 0.4570311
vt 0.8984376 0.4570311
vt 0.9082032 0.4921874
vt 0.8574219 0.3144531
vt 0.8671876 0.3300781
vt 0.8671876 0.3144531
vt 0.8574219 0.3300781
vt 0.9746094 0.4277343
vt 0.9882813 0.3945312
vt 0.9746094 0.3945312
vt 0.9882813 0.4277343
vt 0.8593751 0.3730468
vt 0.8671876 0.3867187
vt 0.8671876 0.3730468
vt 0.8593751 0.3867187
vn -0.9763633 0.2161359 0
vn -0.9763633 0.2161359 0
vn -0.9763633 0.2161358 0
vn -0.9763633 0.2161359 0
vn -0.9763623 0.2161403 -8.07173E-07
vn -0.9763607 0.2161476 0
vn -0.9763607 0.2161476 0
vn -0.9763607 0.2161476 0
vn -0.9763607 0.2161476 0
vn -0.9763633 0.2161359 -8.039621E-07
vn -0.976363 0.2161372 0
vn -0.976363 0.2161372 0
vn -0.9763658 0.2161245 -7.843476E-06
vn -0.9763612 0.2161459 1.690479E-06
vn -0.9763658 0.2161245 -7.843476E-06
vn -0.9763658 0.2161245 -7.843475E-06
vn -0.9763567 0.2161656 0.0001011129
vn -0.9763567 0.2161656 0.0001011129
vn -0.9763567 0.2161656 0.0001011129
vn 0.9763587 -0.216157 0
vn 0.9763587 -0.216157 0
vn 0.9763587 -0.216157 0
vn 0.9763607 -0.2161478 2.019031E-05
vn 0.9763604 -0.2161491 0
vn 0.9763624 -0.2161396 0
vn 0.9763637 -0.2161344 0
vn 0.9763625 -0.2161396 0
vn 0.9763624 -0.2161396 0
vn 0.9763648 -0.2161291 0
vn 0.9763648 -0.2161292 0
vn 0.9763648 -0.2161291 0
vn 0.9763629 -0.216138 0
vn 0.9763625 -0.2161392 7.378359E-07
vn 0.9763629 -0.216138 0
vn 0.9763629 -0.216138 0
vn 0.976366 -0.2161234 -7.936995E-05
vn 0.976366 -0.2161234 -7.936996E-05
vn 0.976366 -0.2161234 -7.936996E-05
vn 1.762053E-06 0 1
vn 1.762405E-06 -1.581686E-07 1
vn 1.674239E-06 0 1
vn 1.686235E-06 -2.575077E-07 1
vn 1.786857E-06 -3.047096E-07 1
vn 1.491984E-06 -3.779114E-07 1
vn 1.615931E-06 -2.406078E-07 1
vn 1.655402E-06 -2.943053E-07 1
vn 1.65469E-06 -1.978361E-07 1
vn 1.729003E-06 -1.949728E-07 1
vn 1.699449E-06 -2.297049E-07 1
vn 1.53061E-06 -3.388175E-07 1
vn 1.289318E-06 -4.475143E-07 1
vn -0.1528369 -0.6903858 0.7071126
vn 1.228588E-06 -4.683713E-07 1
vn 2.932946E-06 -4.623161E-07 1
vn 2.932946E-06 -4.623161E-07 1
vn 2.932946E-06 -4.62316E-07 1
vn 0.002094289 0.009467869 -0.999953
vn 0.002094289 0.009467869 -0.999953
vn 0.002094289 0.00946787 -0.999953
vn 0.2161561 0.9763588 0
vn 0.2161561 0.9763588 0
vn 0.2161561 0.9763588 0
vn 0.2161561 0.9763588 0
vn 0.9763609 -0.2161465 0
vn 0.9763609 -0.2161466 0
vn 0.9763609 -0.2161466 0
vn 0.9763609 -0.2161465 0
vn -0.216121 -0.9763666 0
vn -0.216121 -0.9763666 0
vn -0.216121 -0.9763666 0
vn -0.216121 -0.9763666 0
vn 0.2161435 0.9763616 0
vn 0.2161435 0.9763616 0
vn 0.2161435 0.9763616 0
vn 0.2161435 0.9763616 0
vn 0.976361 -0.2161461 -1.885079E-06
vn 0.976361 -0.2161461 -1.885079E-06
vn 0.976361 -0.2161461 -1.885079E-06
vn 0.9763608 -0.216147 0
vn -0.2161844 -0.9763525 0
vn -0.2161844 -0.9763525 0
vn -0.2161844 -0.9763525 0
vn -0.2161504 -0.97636 -2.669283E-05
vn -0.2161677 -0.9763563 0
vn -0.2161677 -0.9763563 0
vn -0.2161677 -0.9763563 0
vn -0.2161677 -0.9763563 0
vn -0.9763594 0.2161533 0
vn -0.9763594 0.2161533 0
vn -0.9763594 0.2161533 0
vn -0.9763594 0.2161533 0
vn 0.2161705 0.9763556 4.470222E-06
vn 0.2161705 0.9763556 4.470222E-06
vn 0.2161705 0.9763556 4.470222E-06
vn 0.2161658 0.9763567 0
vn -0.2161269 -0.9763653 0
vn -0.2161269 -0.9763653 0
vn -0.2161269 -0.9763653 0
vn -0.2161268 -0.9763653 0
vn -0.9763576 0.2161614 0
vn -0.9763576 0.2161614 0
vn -0.9763576 0.2161614 0
vn -0.9763576 0.2161614 0
vn 0.2161668 0.9763565 0
vn 0.2161669 0.9763565 0
vn 0.2161668 0.9763565 0
vn 0.2161669 0.9763565 0
vn -0.2161474 -0.9763607 0
vn -0.2161474 -0.9763607 0
vn -0.2161474 -0.9763607 0
vn -0.1528369 -0.6903858 0.7071126
vn 0.2161339 0.9763638 0
vn 0.2161339 0.9763638 0
vn 0.2161339 0.9763638 0
vn 0.2161345 0.9763637 1.736281E-06
vn 1.843487E-06 -3.625213E-07 1
vn 1.811714E-06 -3.789368E-07 1
vn 1.689973E-06 -4.418344E-07 1
vn 1.965229E-06 -2.996237E-07 1
vn 0.9763618 -0.2161423 3.873303E-06
vn 0.9763618 -0.2161423 3.873303E-06
vn 0.9763618 -0.2161423 3.873303E-06
vn 0.9763622 -0.216141 0
vn 0.2161351 0.9763634 6.497228E-07
vn 0.2161349 0.9763635 2.077017E-07
vn 0.2161348 0.9763635 0
vn 0.2161352 0.9763634 8.574249E-07
vn -0.9763609 0.2161467 0
vn -0.9763609 0.2161467 0
vn -0.9763609 0.2161467 0
vn -0.9763609 0.2161467 0
vn -0.2161438 -0.9763616 0
vn -0.2161438 -0.9763616 0
vn -0.2161438 -0.9763616 0
vn -0.2161438 -0.9763616 0
vn 3.870704E-06 -7.513354E-07 1
vn 3.870704E-06 -7.513353E-07 1
vn 3.870704E-06 -7.513353E-07 1
vn 1.582617E-06 -6.670959E-07 1
vn 0.9763609 -0.2161468 0
vn 0.9763609 -0.2161468 0
vn 0.9763609 -0.2161468 0
vn 0.9763597 -0.2161521 1.518627E-05
vn 0.2161171 0.9763674 0
vn 0.2161171 0.9763674 0
vn 0.2161171 0.9763674 0
vn 0.2161172 0.9763674 0
vn -0.9763598 0.2161516 3.81751E-05
vn -0.9763598 0.2161516 3.81751E-05
vn -0.9763598 0.2161516 3.81751E-05
vn -0.9763628 0.2161382 0
vn -0.2161835 -0.9763528 1.545938E-05
vn -0.2161835 -0.9763528 1.545937E-05
vn -0.2161835 -0.9763528 1.545937E-05
vn -0.216134 -0.9763638 -1.037118E-05
g background_2_halloween_1_Car05_0
f 3/3/3 2/2/2 1/1/1
f 2/2/2 4/4/4 1/1/1
f 4/4/4 5/5/5 1/1/1
f 6/6/6 5/5/5 4/4/4
f 7/7/7 5/5/5 6/6/6
f 8/8/8 7/7/7 6/6/6
f 9/9/9 8/8/8 6/6/6
f 10/10/10 5/5/5 7/7/7
f 11/11/11 10/10/10 7/7/7
f 12/12/12 11/11/11 7/7/7
f 14/14/14 13/13/13 5/5/5
f 15/15/15 13/13/13 14/14/14
f 16/16/16 13/13/13 15/15/15
f 19/19/19 18/18/18 17/17/17
f 22/22/22 21/21/21 20/20/20
f 21/21/21 23/23/23 20/20/20
f 23/23/23 24/24/24 20/20/20
f 25/25/25 24/24/24 23/23/23
f 26/26/26 24/24/24 25/25/25
f 27/27/27 26/26/26 25/25/25
f 28/28/28 27/27/27 25/25/25
f 29/29/29 24/24/24 26/26/26
f 30/30/30 29/29/29 26/26/26
f 31/31/31 30/30/30 26/26/26
f 33/33/33 32/32/32 24/24/24
f 34/34/34 32/32/32 33/33/33
f 35/35/35 32/32/32 34/34/34
f 38/38/38 37/37/37 36/36/36
f 41/41/41 40/40/40 39/39/39
f 40/40/40 42/42/42 39/39/39
f 43/43/43 42/42/42 40/40/40
f 44/44/44 42/42/42 43/43/43
f 45/45/45 42/42/42 44/44/44
f 46/46/46 45/45/45 44/44/44
f 47/47/47 46/46/46 44/44/44
f 48/48/48 42/42/42 45/45/45
f 49/49/49 42/42/42 48/48/48
f 50/50/50 42/42/42 49/49/49
f 52/52/52 44/44/44 51/51/51
f 51/51/51 44/44/44 53/53/53
f 56/56/56 55/55/55 54/54/54
f 59/59/59 58/58/58 57/57/57
f 62/62/62 61/61/61 60/60/60
f 63/63/63 60/60/60 61/61/61
f 66/66/66 65/65/65 64/64/64
f 67/67/67 64/64/64 65/65/65
f 70/70/70 69/69/69 68/68/68
f 71/71/71 68/68/68 69/69/69
f 74/74/74 73/73/73 72/72/72
f 75/75/75 72/72/72 73/73/73
f 78/78/78 77/77/77 76/76/76
f 79/79/79 76/76/76 77/77/77
f 82/82/82 81/81/81 80/80/80
f 83/83/83 80/80/80 81/81/81
f 86/86/86 85/85/85 84/84/84
f 87/87/87 84/84/84 85/85/85
f 90/90/90 89/89/89 88/88/88
f 91/91/91 88/88/88 89/89/89
f 94/94/94 93/93/93 92/92/92
f 95/95/95 92/92/92 93/93/93
f 98/98/98 97/97/97 96/96/96
f 99/99/99 96/96/96 97/97/97
f 102/102/102 101/101/101 100/100/100
f 103/103/103 100/100/100 101/101/101
f 106/106/106 105/105/105 104/104/104
f 107/107/107 104/104/104 105/105/105
f 110/110/110 109/109/109 108/108/108
f 111/111/111 108/108/108 109/109/109
f 114/114/114 113/113/113 112/112/112
f 115/115/115 112/112/112 113/113/113
f 118/118/118 117/117/117 116/116/116
f 119/119/119 116/116/116 117/117/117
f 122/122/122 121/121/121 120/120/120
f 123/123/123 120/120/120 121/121/121
f 126/126/126 125/125/125 124/124/124
f 127/127/127 124/124/124 125/125/125
f 130/130/130 129/129/129 128/128/128
f 131/131/131 128/128/128 129/129/129
f 134/134/134 133/133/133 132/132/132
f 135/135/135 132/132/132 133/133/133
f 138/138/138 137/137/137 136/136/136
f 139/139/139 136/136/136 137/137/137
f 142/142/142 141/141/141 140/140/140
f 143/143/143 140/140/140 141/141/141
f 146/146/146 145/145/145 144/144/144
f 147/147/147 144/144/144 145/145/145
f 150/150/150 149/149/149 148/148/148
f 151/151/151 148/148/148 149/149/149
f 154/154/154 153/153/153 152/152/152
f 155/155/155 152/152/152 153/153/153
