# Mesh "background_2_future_1_background_city2d_001" exported with Unity Assets Bundle Extractor; 88 vertices, 132 indices, 320 bits per vertex
g background_2_future_1_background_city2d_001
# SubMesh 0
# Vertices
v 378.412262 351.061554 45.759071
vt 0.853844 0.809618
vn -0.931104 -0.364753 0.000001
v 399.343109 297.631348 45.759106
vt 0.570532 0.809615
vn -0.931104 -0.364753 0.000001
v 399.343048 297.631348 -36.193199
vt 0.570533 0.000356
vn -0.931105 -0.364752 0.000000
v 378.412262 351.061462 -36.193211
vt 0.853845 0.000360
vn -0.931105 -0.364752 0.000000
v 378.412262 351.061554 45.759071
vt 0.853844 0.809618
vn -0.842191 -0.539180 0.000001
v 347.489685 399.362030 -36.193211
vt 1.136944 0.000365
vn -0.842191 -0.539180 0.000000
v 347.489716 399.362061 45.759075
vt 1.136944 0.809623
vn -0.842191 -0.539180 0.000001
v 378.412262 351.061462 -36.193211
vt 0.853845 0.000360
vn -0.842191 -0.539180 0.000000
v 307.746857 440.675720 45.759083
vt 1.419816 0.809628
vn -0.720675 -0.693273 0.000000
v 347.489716 399.362061 45.759075
vt 1.136944 0.809623
vn -0.720675 -0.693273 0.000000
v 307.746826 440.675720 -36.193211
vt 1.419816 0.000370
vn -0.720675 -0.693273 0.000000
v 347.489685 399.362030 -36.193211
vt 1.136944 0.000365
vn -0.720675 -0.693273 0.000001
v 260.692291 473.380798 45.759083
vt 1.702477 0.809634
vn -0.570729 -0.821139 0.000000
v 307.746857 440.675720 45.759083
vt 1.419816 0.809628
vn -0.570729 -0.821138 0.000000
v 307.746826 440.675720 -36.193211
vt 1.419816 0.000370
vn -0.570729 -0.821139 0.000000
v 260.692261 473.380768 -36.193203
vt 1.702477 0.000376
vn -0.570728 -0.821139 0.000001
v 208.122635 496.141235 45.759094
vt 1.984977 0.809639
vn -0.397317 -0.917681 0.000001
v 260.692291 473.380798 45.759083
vt 1.702477 0.809634
vn -0.397317 -0.917681 0.000001
v 260.692261 473.380768 -36.193203
vt 1.702477 0.000376
vn -0.397317 -0.917681 0.000001
v 208.122620 496.141205 -36.193192
vt 1.984977 0.000381
vn -0.397317 -0.917681 0.000001
v 208.122635 496.141235 45.759094
vt 1.984977 0.809639
vn -0.207187 -0.978301 0.000002
v 152.033234 508.019867 -36.193180
vt 2.267394 0.000386
vn -0.207187 -0.978301 0.000002
v 152.033249 508.019989 45.759094
vt 2.267393 0.809643
vn -0.207187 -0.978301 0.000002
v 208.122620 496.141205 -36.193192
vt 1.984977 0.000381
vn -0.207186 -0.978302 0.000001
v 152.033249 508.019989 45.759094
vt 2.267393 0.809643
vn -0.011030 -0.999939 0.000001
v 94.486725 508.654663 -36.193172
vt 2.549819 0.000390
vn -0.011030 -0.999939 0.000001
v 94.486725 508.654755 45.759125
vt 2.549793 0.809648
vn -0.011030 -0.999939 0.000001
v 152.033234 508.019867 -36.193180
vt 2.267394 0.000386
vn -0.011031 -0.999939 0.000001
v 94.486725 508.654755 45.759125
vt 2.545342 0.809537
vn 0.113621 -0.993524 0.000001
v 36.833767 502.061401 -36.193184
vt 2.828655 0.000283
vn 0.113621 -0.993524 0.000001
v 36.833691 502.061462 45.759106
vt 2.828654 0.809541
vn 0.113620 -0.993524 0.000001
v 94.486725 508.654663 -36.193172
vt 2.545343 0.000279
vn 0.113621 -0.993524 0.000001
v -18.916739 485.235840 45.759094
vt 3.111754 0.809545
vn 0.288931 -0.957350 0.000001
v 36.833691 502.061462 45.759106
vt 2.828654 0.809541
vn 0.288931 -0.957350 0.000001
v 36.833767 502.061401 -36.193184
vt 2.828655 0.000283
vn 0.288931 -0.957350 0.000001
v -18.916817 485.235931 -36.193176
vt 3.111754 0.000287
vn 0.288928 -0.957351 -0.000001
v -70.651344 459.279877 45.759109
vt 3.394626 0.809551
vn 0.448439 -0.893813 -0.000001
v -18.916739 485.235840 45.759094
vt 3.111754 0.809545
vn 0.448439 -0.893813 -0.000001
v -18.916817 485.235931 -36.193176
vt 3.111754 0.000287
vn 0.448439 -0.893813 -0.000001
v -70.651306 459.279907 -36.193195
vt 3.394627 0.000292
vn 0.448440 -0.893813 -0.000000
v -116.032127 425.156525 45.759129
vt 3.677287 0.809556
vn 0.600989 -0.799257 0.000000
v -70.651344 459.279877 45.759109
vt 3.394626 0.809551
vn 0.600989 -0.799257 0.000000
v -70.651306 459.279907 -36.193195
vt 3.394627 0.000292
vn 0.600989 -0.799257 0.000000
v -116.032166 425.156433 -36.193176
vt 3.677287 0.000298
vn 0.600990 -0.799257 0.000001
v -152.631058 383.468048 45.759136
vt 3.959787 0.809561
vn 0.751490 -0.659744 0.000000
v -116.032127 425.156525 45.759129
vt 3.677287 0.809556
vn 0.751490 -0.659744 0.000000
v -116.032166 425.156433 -36.193176
vt 3.677287 0.000298
vn 0.751490 -0.659745 0.000000
v -152.631058 383.468048 -36.193165
vt 3.959787 0.000303
vn 0.751490 -0.659745 -0.000000
v -178.406357 334.718872 45.759140
vt 4.242204 0.809566
vn 0.884036 -0.467419 -0.000000
v -152.631058 383.468048 45.759136
vt 3.959787 0.809561
vn 0.884036 -0.467419 -0.000000
v -152.631058 383.468048 -36.193165
vt 3.959787 0.000303
vn 0.884036 -0.467419 -0.000000
v -178.406281 334.718811 -36.193169
vt 4.242204 0.000308
vn 0.884037 -0.467418 0.000001
v -192.281799 279.931732 45.759144
vt 4.524603 0.809571
vn 0.969394 -0.245510 0.000001
v -178.406357 334.718872 45.759140
vt 4.242204 0.809566
vn 0.969394 -0.245510 0.000001
v -178.406281 334.718811 -36.193169
vt 4.242204 0.000308
vn 0.969394 -0.245510 0.000001
v -192.281799 279.931732 -36.193165
vt 4.524630 0.000312
vn 0.969394 -0.245511 0.000000
v -204.560928 223.300461 45.759140
vt 2.804991 0.810166
vn 0.977291 -0.211902 0.000000
v -192.281799 279.931732 45.759144
vt 2.522331 0.810161
vn 0.977291 -0.211902 0.000000
v -192.281799 279.931732 -36.193165
vt 2.522331 0.000903
vn 0.977291 -0.211902 0.000000
v -204.560928 223.300323 -36.193172
vt 2.804992 0.000909
vn 0.977291 -0.211902 0.000000
v -205.905930 163.431656 45.759144
vt 3.087492 0.810172
vn 0.999748 -0.022460 0.000000
v -204.560928 223.300461 45.759140
vt 2.804991 0.810166
vn 0.999748 -0.022460 0.000000
v -204.560928 223.300323 -36.193172
vt 2.804992 0.000909
vn 0.999748 -0.022460 0.000000
v -205.905853 163.431610 -36.193165
vt 3.087492 0.000914
vn 0.999748 -0.022459 0.000001
v -197.400940 103.666794 45.759121
vt 3.369908 0.810176
vn 0.990025 0.140888 0.000001
v -205.905930 163.431656 45.759144
vt 3.087492 0.810172
vn 0.990025 0.140888 0.000001
v -205.905853 163.431610 -36.193165
vt 3.087492 0.000914
vn 0.990025 0.140888 0.000001
v -197.401093 103.666756 -36.193165
vt 3.369908 0.000919
vn 0.990026 0.140884 -0.000002
v -179.879410 47.345310 45.759155
vt 3.652307 0.810181
vn 0.954860 0.297055 -0.000002
v -197.400940 103.666794 45.759121
vt 3.369908 0.810176
vn 0.954860 0.297055 -0.000002
v -197.401093 103.666756 -36.193165
vt 3.369908 0.000919
vn 0.954860 0.297055 -0.000002
v -179.879486 47.345234 -36.193142
vt 3.652334 0.000923
vn 0.954860 0.297057 -0.000001
v 407.374329 128.428101 45.759071
vt 2.728784 0.811129
vn -0.940534 0.339700 0.000002
v 387.927246 74.584686 45.759087
vt 2.446122 0.811124
vn -0.940534 0.339700 0.000002
v 387.927094 74.584686 -36.193237
vt 2.446123 0.001866
vn -0.940534 0.339700 0.000002
v 407.374359 128.428329 -36.193222
vt 2.728784 0.001872
vn -0.940533 0.339702 0.000001
v 415.905884 185.003586 45.759087
vt 3.011284 0.811135
vn -0.988820 0.149114 -0.000000
v 407.374329 128.428101 45.759071
vt 2.728784 0.811129
vn -0.988820 0.149114 0.000000
v 407.374359 128.428329 -36.193222
vt 2.728784 0.001872
vn -0.988820 0.149114 -0.000000
v 415.905914 185.003586 -36.193218
vt 3.011284 0.001877
vn -0.988820 0.149114 -0.000000
v 413.194244 242.136444 45.759071
vt 3.293700 0.811139
vn -0.998876 -0.047409 0.000000
v 415.905884 185.003586 45.759087
vt 3.011284 0.811135
vn -0.998876 -0.047409 -0.000000
v 415.905914 185.003586 -36.193218
vt 3.011284 0.001877
vn -0.998876 -0.047409 0.000000
v 413.194214 242.136520 -36.193226
vt 3.293700 0.001882
vn -0.998876 -0.047410 0.000000
v 413.194244 242.136444 45.759071
vt 3.293700 0.811139
vn -0.970235 -0.242165 0.000001
v 399.343048 297.631348 -36.193199
vt 3.576126 0.001886
vn -0.970235 -0.242165 0.000000
v 399.343109 297.631348 45.759106
vt 3.576099 0.811144
vn -0.970235 -0.242164 0.000001
v 413.194214 242.136520 -36.193226
vt 3.293700 0.001882
vn -0.970235 -0.242165 0.000000
# Faces (1 to 88)
g background_2_future_1_background_city2d_001_0
f -86/-86/-86 -87/-87/-87 -88/-88/-88
f -88/-88/-88 -85/-85/-85 -86/-86/-86
f -82/-82/-82 -83/-83/-83 -84/-84/-84
f -83/-83/-83 -81/-81/-81 -84/-84/-84
f -78/-78/-78 -79/-79/-79 -80/-80/-80
f -78/-78/-78 -77/-77/-77 -79/-79/-79
f -74/-74/-74 -75/-75/-75 -76/-76/-76
f -76/-76/-76 -73/-73/-73 -74/-74/-74
f -70/-70/-70 -71/-71/-71 -72/-72/-72
f -72/-72/-72 -69/-69/-69 -70/-70/-70
f -66/-66/-66 -67/-67/-67 -68/-68/-68
f -67/-67/-67 -65/-65/-65 -68/-68/-68
f -62/-62/-62 -63/-63/-63 -64/-64/-64
f -63/-63/-63 -61/-61/-61 -64/-64/-64
f -58/-58/-58 -59/-59/-59 -60/-60/-60
f -59/-59/-59 -57/-57/-57 -60/-60/-60
f -54/-54/-54 -55/-55/-55 -56/-56/-56
f -56/-56/-56 -53/-53/-53 -54/-54/-54
f -50/-50/-50 -51/-51/-51 -52/-52/-52
f -52/-52/-52 -49/-49/-49 -50/-50/-50
f -46/-46/-46 -47/-47/-47 -48/-48/-48
f -48/-48/-48 -45/-45/-45 -46/-46/-46
f -42/-42/-42 -43/-43/-43 -44/-44/-44
f -44/-44/-44 -41/-41/-41 -42/-42/-42
f -38/-38/-38 -39/-39/-39 -40/-40/-40
f -40/-40/-40 -37/-37/-37 -38/-38/-38
f -34/-34/-34 -35/-35/-35 -36/-36/-36
f -36/-36/-36 -33/-33/-33 -34/-34/-34
f -30/-30/-30 -31/-31/-31 -32/-32/-32
f -32/-32/-32 -29/-29/-29 -30/-30/-30
f -26/-26/-26 -27/-27/-27 -28/-28/-28
f -28/-28/-28 -25/-25/-25 -26/-26/-26
f -22/-22/-22 -23/-23/-23 -24/-24/-24
f -24/-24/-24 -21/-21/-21 -22/-22/-22
f -18/-18/-18 -19/-19/-19 -20/-20/-20
f -20/-20/-20 -17/-17/-17 -18/-18/-18
f -14/-14/-14 -15/-15/-15 -16/-16/-16
f -16/-16/-16 -13/-13/-13 -14/-14/-14
f -10/-10/-10 -11/-11/-11 -12/-12/-12
f -12/-12/-12 -9/-9/-9 -10/-10/-10
f -6/-6/-6 -7/-7/-7 -8/-8/-8
f -8/-8/-8 -5/-5/-5 -6/-6/-6
f -2/-2/-2 -3/-3/-3 -4/-4/-4
f -3/-3/-3 -1/-1/-1 -4/-4/-4

