# Mesh "background_2_military_3_projector_2" exported with Unity Assets Bundle Extractor; 24 vertices, 48 indices, 32 bytes per vertex
g background_2_military_3_projector_2
# SubMesh 0
# Vertices
v 1.849258 -0.161789 0.000000
vt 0.750000 0.000000
vn 0.996083 -0.087146 -0.014998
v 3.236214 -0.283141 92.816032
vt 0.750000 1.000000
vn 0.996083 -0.087146 -0.014998
v 2.488556 2.088125 92.816032
vt 0.875000 1.000000
vn 0.765958 0.642715 -0.014998
v 1.422024 1.193220 0.000000
vt 0.875000 0.000000
vn 0.765958 0.642715 -0.014998
v 0.283146 3.236190 92.816032
vt 1.000000 1.000000
vn 0.087146 0.996083 -0.014998
v 0.161789 1.849257 0.000000
vt 1.000000 0.000000
vn 0.087146 0.996083 -0.014998
v 0.161789 1.849257 0.000000
vt 0.000000 0.000000
vn 0.087146 0.996083 -0.014998
v 0.283146 3.236190 92.816032
vt 0.000000 1.000000
vn 0.087146 0.996083 -0.014998
v -2.088123 2.488533 92.816032
vt 0.125000 1.000000
vn -0.642715 0.765958 -0.014998
v -1.193218 1.422024 0.000000
vt 0.125000 0.000000
vn -0.642715 0.765958 -0.014998
v -3.236187 0.283121 92.816032
vt 0.250000 1.000000
vn -0.996083 0.087146 -0.014998
v -1.849258 0.161789 0.000000
vt 0.250000 0.000000
vn -0.996083 0.087146 -0.014998
v -1.849258 0.161789 0.000000
vt 0.250000 0.000000
vn -0.996083 0.087146 -0.014998
v -3.236187 0.283121 92.816032
vt 0.250000 1.000000
vn -0.996083 0.087146 -0.014998
v -2.488529 -2.088145 92.816032
vt 0.375000 1.000000
vn -0.765958 -0.642715 -0.014998
v -1.422024 -1.193220 0.000000
vt 0.375000 0.000000
vn -0.765958 -0.642715 -0.014998
v -0.283119 -3.236209 92.816032
vt 0.500000 1.000000
vn -0.087146 -0.996083 -0.014998
v -0.161789 -1.849257 0.000000
vt 0.500000 0.000000
vn -0.087146 -0.996083 -0.014998
v -0.161789 -1.849257 0.000000
vt 0.500000 0.000000
vn -0.087146 -0.996083 -0.014998
v -0.283119 -3.236209 92.816032
vt 0.500000 1.000000
vn -0.087146 -0.996083 -0.014998
v 2.088146 -2.488553 92.816032
vt 0.625000 1.000000
vn 0.642715 -0.765959 -0.014998
v 1.193218 -1.422024 0.000000
vt 0.625000 0.000000
vn 0.642715 -0.765959 -0.014998
v 3.236214 -0.283141 92.816032
vt 0.750000 1.000000
vn 0.996083 -0.087146 -0.014998
v 1.849258 -0.161789 0.000000
vt 0.750000 0.000000
vn 0.996083 -0.087146 -0.014998
# Faces (1 to 24)
f -22/-22/-22 -23/-23/-23 -24/-24/-24
f -21/-21/-21 -22/-22/-22 -24/-24/-24
f -20/-20/-20 -22/-22/-22 -21/-21/-21
f -19/-19/-19 -20/-20/-20 -21/-21/-21
f -16/-16/-16 -17/-17/-17 -18/-18/-18
f -15/-15/-15 -16/-16/-16 -18/-18/-18
f -14/-14/-14 -16/-16/-16 -15/-15/-15
f -13/-13/-13 -14/-14/-14 -15/-15/-15
f -10/-10/-10 -11/-11/-11 -12/-12/-12
f -9/-9/-9 -10/-10/-10 -12/-12/-12
f -8/-8/-8 -10/-10/-10 -9/-9/-9
f -7/-7/-7 -8/-8/-8 -9/-9/-9
f -4/-4/-4 -5/-5/-5 -6/-6/-6
f -3/-3/-3 -4/-4/-4 -6/-6/-6
f -2/-2/-2 -4/-4/-4 -3/-3/-3
f -1/-1/-1 -2/-2/-2 -3/-3/-3

