g bank_watering place
v -2.851936 0.4050105 -2.689361E-05
v -6.351935 0.4050115 -2.689361E-05
v -6.351936 -0.2824885 -2.689361E-05
v -2.851936 -0.2824894 -2.689361E-05
v -2.914436 0.3425106 0.4374731
v -2.914436 -0.2199894 0.4374731
v -6.289436 -0.2199885 0.4374731
v -6.289435 0.3425114 0.4374731
v -2.851936 0.4050105 -2.689361E-05
v -2.851936 0.4050105 0.4999731
v -6.351935 0.4050115 0.4999731
v -6.351935 0.4050115 -2.689361E-05
v -6.351935 0.4050115 -2.689361E-05
v -6.351935 0.4050115 0.4999731
v -6.351936 -0.2824885 0.4999731
v -6.351936 -0.2824885 -2.689361E-05
v -6.351936 -0.2824885 -2.689361E-05
v -6.351936 -0.2824885 0.4999731
v -2.851936 -0.2824894 0.4999731
v -2.851936 -0.2824894 -2.689361E-05
v -2.851936 -0.2824894 -2.689361E-05
v -2.851936 -0.2824894 0.4999731
v -2.851936 0.4050105 0.4999731
v -2.851936 0.4050105 -2.689361E-05
v -2.851936 0.4050105 0.4999731
v -2.914436 0.3425106 0.4999731
v -6.289435 0.3425114 0.4999731
v -6.351935 0.4050115 0.4999731
v -6.289436 -0.2199885 0.4999731
v -6.351936 -0.2824885 0.4999731
v -2.914436 -0.2199894 0.4999731
v -2.851936 -0.2824894 0.4999731
v -2.914436 0.3425106 0.4999731
v -2.914436 0.3425106 0.4374731
v -6.289435 0.3425114 0.4374731
v -6.289435 0.3425114 0.4999731
v -6.289435 0.3425114 0.4999731
v -6.289435 0.3425114 0.4374731
v -6.289436 -0.2199885 0.4374731
v -6.289436 -0.2199885 0.4999731
v -6.289436 -0.2199885 0.4999731
v -6.289436 -0.2199885 0.4374731
v -2.914436 -0.2199894 0.4374731
v -2.914436 -0.2199894 0.4999731
v -2.914436 -0.2199894 0.4999731
v -2.914436 -0.2199894 0.4374731
v -2.914436 0.3425106 0.4374731
v -2.914436 0.3425106 0.4999731
vt 0.7792969 0.3222656
vt 0.8339844 0.3222656
vt 0.8339844 0.3115234
vt 0.7792969 0.3115234
vt 0.8330078 0.3398438
vt 0.8330078 0.3310547
vt 0.7802734 0.3310547
vt 0.7802734 0.3398438
vt 0.7792969 0.3222656
vt 0.7792969 0.3300781
vt 0.8339844 0.3300781
vt 0.8339844 0.3222656
vt 0.8339844 0.3222656
vt 0.8339844 0.3300781
vt 0.8447266 0.3300781
vt 0.8447266 0.3222656
vt 0.8339844 0.3486328
vt 0.8339844 0.3408203
vt 0.7792969 0.3408203
vt 0.7792969 0.3486328
vt 0.7685547 0.3222656
vt 0.7685547 0.3300781
vt 0.7792969 0.3300781
vt 0.7792969 0.3222656
vt 0.7792969 0.3300781
vt 0.7802734 0.3310547
vt 0.8330078 0.3310547
vt 0.8339844 0.3300781
vt 0.8330078 0.3398438
vt 0.8339844 0.3408203
vt 0.7802734 0.3398438
vt 0.7792969 0.3408203
vt 0.7802734 0.3496094
vt 0.7802734 0.3505859
vt 0.8330078 0.3505859
vt 0.8330078 0.3496094
vt 0.7802734 0.3496094
vt 0.7802734 0.3505859
vt 0.7890625 0.3505859
vt 0.7890625 0.3496094
vt 0.7802734 0.3496094
vt 0.7802734 0.3505859
vt 0.8330078 0.3505859
vt 0.8330078 0.3496094
vt 0.7802734 0.3496094
vt 0.7802734 0.3505859
vt 0.7890625 0.3505859
vt 0.7890625 0.3496094
vn 0 0 -1
vn 0 0 -1
vn 0 0 -1
vn 0 0 -1
vn 0 0 1
vn 0 0 1
vn 0 0 1
vn 0 0 1
vn 0 1 0
vn 0 1 0
vn 0 1 0
vn 0 1 0
vn -1 0 0
vn -1 0 0
vn -1 0 0
vn -1 0 0
vn 0 -1 0
vn 0 -1 0
vn 0 -1 0
vn 0 -1 0
vn 1 0 0
vn 1 0 0
vn 1 0 0
vn 1 0 0
vn 0 0 1
vn 0 0 1
vn 0 0 1
vn 0 0 1
vn 0 0 1
vn 0 0 1
vn 0 0 1
vn 0 0 1
vn 0 -1 0
vn 0 -1 0
vn 0 -1 0
vn 0 -1 0
vn 1 0 0
vn 1 0 0
vn 1 0 0
vn 1 0 0
vn 0 1 0
vn 0 1 0
vn 0 1 0
vn 0 1 0
vn -1 0 0
vn -1 0 0
vn -1 0 0
vn -1 0 0
g bank_watering place_0
f 3/3/3 2/2/2 1/1/1
f 4/4/4 3/3/3 1/1/1
f 7/7/7 6/6/6 5/5/5
f 8/8/8 7/7/7 5/5/5
f 11/11/11 10/10/10 9/9/9
f 12/12/12 11/11/11 9/9/9
f 15/15/15 14/14/14 13/13/13
f 16/16/16 15/15/15 13/13/13
f 19/19/19 18/18/18 17/17/17
f 20/20/20 19/19/19 17/17/17
f 23/23/23 22/22/22 21/21/21
f 24/24/24 23/23/23 21/21/21
f 27/27/27 26/26/26 25/25/25
f 28/28/28 27/27/27 25/25/25
f 29/29/29 27/27/27 28/28/28
f 30/30/30 29/29/29 28/28/28
f 31/31/31 29/29/29 30/30/30
f 32/32/32 31/31/31 30/30/30
f 26/26/26 31/31/31 32/32/32
f 25/25/25 26/26/26 32/32/32
f 35/35/35 34/34/34 33/33/33
f 36/36/36 35/35/35 33/33/33
f 39/39/39 38/38/38 37/37/37
f 40/40/40 39/39/39 37/37/37
f 43/43/43 42/42/42 41/41/41
f 44/44/44 43/43/43 41/41/41
f 47/47/47 46/46/46 45/45/45
f 48/48/48 47/47/47 45/45/45
