g bank_light_glass_01
v -7.236348 -8.662703 3.748127
v -6.986348 -8.662703 3.748127
v -6.986348 -8.662703 3.310627
v -7.236348 -8.662703 3.310627
v -7.236348 -8.412703 3.310627
v -6.986348 -8.412703 3.310627
v -6.986348 -8.412703 3.748127
v -7.236348 -8.412703 3.748127
v -6.986348 -8.412703 3.310627
v -6.986348 -8.662703 3.310627
v -6.986348 -8.662703 3.748127
v -6.986348 -8.412703 3.748127
v -7.236348 -8.662703 3.310627
v -7.236348 -8.412703 3.310627
v -7.236348 -8.412703 3.748127
v -7.236348 -8.662703 3.748127
v -6.986348 -8.412703 3.748127
v -6.986348 -8.662703 3.748127
v -7.236348 -8.662703 3.748127
v -7.236348 -8.412703 3.748127
v -6.986348 -8.662703 3.310627
v -6.986348 -8.412703 3.310627
v -7.236348 -8.412703 3.310627
v -7.236348 -8.662703 3.310627
vt 0.7724609 0.3144531
vt 0.7724609 0.3105469
vt 0.765625 0.3105469
vt 0.765625 0.3144531
vt 0.765625 0.3105469
vt 0.765625 0.3144531
vt 0.7724609 0.3144531
vt 0.7724609 0.3105469
vt 0.765625 0.3105469
vt 0.765625 0.3144531
vt 0.7724609 0.3144531
vt 0.7724609 0.3105469
vt 0.765625 0.3105469
vt 0.765625 0.3144531
vt 0.7724609 0.3144531
vt 0.7724609 0.3105469
vt 0.765625 0.3105469
vt 0.765625 0.3144531
vt 0.7695313 0.3144531
vt 0.7695313 0.3105469
vt 0.7695313 0.3105469
vt 0.765625 0.3105469
vt 0.765625 0.3144531
vt 0.7695313 0.3144531
vn 0 -1 0
vn 0 -1 0
vn 0 -1 0
vn 0 -1 0
vn 0 1 0
vn 0 1 0
vn 0 1 0
vn 0 1 0
vn 1 0 0
vn 1 0 0
vn 1 0 0
vn 1 0 0
vn -1 0 0
vn -1 0 0
vn -1 0 0
vn -1 0 0
vn 0 0 1
vn 0 0 1
vn 0 0 1
vn 0 0 1
vn 0 0 -1
vn 0 0 -1
vn 0 0 -1
vn 0 0 -1
g bank_light_glass_01_0
f 3/3/3 2/2/2 1/1/1
f 4/4/4 3/3/3 1/1/1
f 7/7/7 6/6/6 5/5/5
f 8/8/8 7/7/7 5/5/5
f 11/11/11 10/10/10 9/9/9
f 12/12/12 11/11/11 9/9/9
f 15/15/15 14/14/14 13/13/13
f 16/16/16 15/15/15 13/13/13
f 19/19/19 18/18/18 17/17/17
f 20/20/20 19/19/19 17/17/17
f 23/23/23 22/22/22 21/21/21
f 24/24/24 23/23/23 21/21/21
