g bank_Reshotka_01
v -2.278256 -3.942935 0.4999989
v -2.278256 -4.067934 0.4999989
v -2.278256 -4.067934 3.124999
v -2.278256 -3.942935 3.249999
v -2.278257 -5.255434 3.124999
v -2.278256 -5.380434 3.249999
v -2.278257 -5.380434 0.4999989
v -2.278257 -5.255434 0.4999989
v -2.403257 -5.255434 3.124999
v -2.403256 -4.067934 3.124999
v -2.403256 -3.942934 3.249999
v -2.403256 -5.380434 3.249999
v -2.403257 -5.380434 0.4999989
v -2.403257 -5.255434 0.4999989
v -2.403256 -3.942934 0.4999989
v -2.403256 -4.067934 0.4999989
v -2.403256 -3.942934 0.4999989
v -2.278256 -3.942935 0.4999989
v -2.278256 -3.942935 3.249999
v -2.403256 -3.942934 3.249999
v -2.278257 -5.255434 3.124999
v -2.278256 -4.067934 3.124999
v -2.403256 -4.067934 3.124999
v -2.403257 -5.255434 3.124999
v -2.278256 -3.942935 3.249999
v -2.278256 -5.380434 3.249999
v -2.403256 -3.942934 3.249999
v -2.403256 -5.380434 3.249999
v -2.403257 -5.380434 0.4999989
v -2.403256 -5.380434 3.249999
v -2.278256 -5.380434 3.249999
v -2.278257 -5.380434 0.4999989
v -2.403256 -4.067934 0.4999989
v -2.403256 -4.067934 3.124999
v -2.278256 -4.067934 3.124999
v -2.278256 -4.067934 0.4999989
v -2.403257 -5.255434 3.124999
v -2.403257 -5.255434 0.4999989
v -2.278257 -5.255434 0.4999989
v -2.278257 -5.255434 3.124999
v -2.403256 -4.067934 0.4999989
v -2.278256 -4.067934 0.4999989
v -2.278256 -3.942935 0.4999989
v -2.403256 -3.942934 0.4999989
v -2.403257 -5.380434 0.4999989
v -2.278257 -5.380434 0.4999989
v -2.278257 -5.255434 0.4999989
v -2.403257 -5.255434 0.4999989
vt 0.8339844 0.1650391
vt 0.8339844 0.1630859
vt 0.7929688 0.1630859
vt 0.7910156 0.1650391
vt 0.7929688 0.1445313
vt 0.7910156 0.1425781
vt 0.8339844 0.1425781
vt 0.8339844 0.1445313
vt 0.7929688 0.1630859
vt 0.7929688 0.1445313
vt 0.7910156 0.1425781
vt 0.7910156 0.1650391
vt 0.8339844 0.1650391
vt 0.8339844 0.1630859
vt 0.8339844 0.1425781
vt 0.8339844 0.1445313
vt 0.8339844 0.1425781
vt 0.8339844 0.140625
vt 0.7910156 0.140625
vt 0.7910156 0.1425781
vt 0.8300781 0.1533203
vt 0.8115234 0.1533203
vt 0.8115234 0.1552734
vt 0.8300781 0.1552734
vt 0.8300781 0.1533203
vt 0.8076172 0.1533203
vt 0.8300781 0.1552734
vt 0.8076172 0.1552734
vt 0.8339844 0.1386719
vt 0.7910156 0.1386719
vt 0.7910156 0.140625
vt 0.8339844 0.140625
vt 0.8339844 0.1367188
vt 0.7910156 0.1367188
vt 0.7910156 0.1386719
vt 0.8339844 0.1386719
vt 0.7910156 0.1367188
vt 0.8339844 0.1367188
vt 0.8339844 0.1347656
vt 0.7910156 0.1347656
vt 0.828125 0.1523438
vt 0.8300781 0.1523438
vt 0.8300781 0.1503906
vt 0.828125 0.1503906
vt 0.828125 0.1523438
vt 0.8300781 0.1523438
vt 0.8300781 0.1503906
vt 0.828125 0.1503906
vn 1 0 0
vn 1 0 0
vn 1 0 0
vn 1 0 0
vn 1 0 0
vn 1 0 0
vn 1 0 0
vn 1 0 0
vn -1 0 0
vn -1 0 0
vn -1 0 0
vn -1 0 0
vn -1 0 0
vn -1 0 0
vn -1 0 0
vn -1 0 0
vn 0 1 0
vn 0 1 0
vn 0 1 0
vn 0 1 0
vn 0 0 -1
vn 0 0 -1
vn 0 0 -1
vn 0 0 -1
vn 0 0 1
vn 0 0 1
vn 0 0 1
vn 0 0 1
vn 0 -1 0
vn 0 -1 0
vn 0 -1 0
vn 0 -1 0
vn 0 -1 0
vn 0 -1 0
vn 0 -1 0
vn 0 -1 0
vn 0 1 0
vn 0 1 0
vn 0 1 0
vn 0 1 0
vn 0 0 -1
vn 0 0 -1
vn 0 0 -1
vn 0 0 -1
vn 0 0 -1
vn 0 0 -1
vn 0 0 -1
vn 0 0 -1
g bank_Reshotka_01_0
f 3/3/3 2/2/2 1/1/1
f 4/4/4 3/3/3 1/1/1
f 5/5/5 3/3/3 4/4/4
f 6/6/6 5/5/5 4/4/4
f 6/6/6 7/7/7 5/5/5
f 7/7/7 8/8/8 5/5/5
f 11/11/11 10/10/10 9/9/9
f 12/12/12 11/11/11 9/9/9
f 12/12/12 9/9/9 13/13/13
f 9/9/9 14/14/14 13/13/13
f 10/10/10 11/11/11 15/15/15
f 16/16/16 10/10/10 15/15/15
f 19/19/19 18/18/18 17/17/17
f 20/20/20 19/19/19 17/17/17
f 23/23/23 22/22/22 21/21/21
f 24/24/24 23/23/23 21/21/21
f 27/27/27 26/26/26 25/25/25
f 27/27/27 28/28/28 26/26/26
f 31/31/31 30/30/30 29/29/29
f 32/32/32 31/31/31 29/29/29
f 35/35/35 34/34/34 33/33/33
f 36/36/36 35/35/35 33/33/33
f 39/39/39 38/38/38 37/37/37
f 40/40/40 39/39/39 37/37/37
f 43/43/43 42/42/42 41/41/41
f 44/44/44 43/43/43 41/41/41
f 47/47/47 46/46/46 45/45/45
f 48/48/48 47/47/47 45/45/45
