g barge_konteyner04
v -10.32763 -4.282279 16.31257
v -7.798467 1.230347 16.31257
v -10.78705 0.9688799 16.31257
v -7.339051 -4.020813 16.31257
v -10.32763 -4.282279 19.31257
v -7.798467 1.230347 19.31257
v -7.339051 -4.020813 19.31257
v -10.78705 0.9688799 19.31257
v -7.339051 -4.020813 16.31257
v -7.798467 1.230347 19.31257
v -7.798467 1.230347 16.31257
v -7.339051 -4.020813 19.31257
v -10.78705 0.9688799 16.31257
v -10.32763 -4.282279 19.31257
v -10.32763 -4.282279 16.31257
v -10.78705 0.9688799 19.31257
v -7.833688 1.227265 16.34793
v -10.29241 -4.279198 16.34793
v -10.75183 0.971961 16.34793
v -7.374272 -4.023894 16.34793
v -7.833688 1.227265 19.27721
v -10.29241 -4.279198 19.27721
v -7.374272 -4.023894 19.27721
v -10.75183 0.971961 19.27721
v -7.833688 1.227265 19.27721
v -7.374272 -4.023894 16.34793
v -7.833688 1.227265 16.34793
v -7.374272 -4.023894 19.27721
v -10.29241 -4.279198 19.27721
v -10.75183 0.971961 16.34793
v -10.29241 -4.279198 16.34793
v -10.75183 0.971961 19.27721
v -7.798467 1.230347 16.31257
v -10.75183 0.971961 16.34793
v -10.78705 0.9688799 16.31257
v -7.833688 1.227265 16.34793
v -10.32763 -4.282279 16.31257
v -7.374272 -4.023894 16.34793
v -7.339051 -4.020813 16.31257
v -10.29241 -4.279198 16.34793
v -7.339051 -4.020813 19.31257
v -10.29241 -4.279198 19.27721
v -10.32763 -4.282279 19.31257
v -7.374272 -4.023894 19.27721
v -10.78705 0.9688799 19.31257
v -7.833688 1.227265 19.27721
v -7.798467 1.230347 19.31257
v -10.75183 0.971961 19.27721
v -7.798467 1.230347 19.31257
v -7.833688 1.227265 16.34793
v -7.798467 1.230347 16.31257
v -7.833688 1.227265 19.27721
v -7.339051 -4.020813 16.31257
v -7.374272 -4.023894 19.27721
v -7.339051 -4.020813 19.31257
v -7.374272 -4.023894 16.34793
v -10.32763 -4.282279 19.31257
v -10.29241 -4.279198 16.34793
v -10.32763 -4.282279 16.31257
v -10.29241 -4.279198 19.27721
v -10.78705 0.9688799 16.31257
v -10.75183 0.971961 19.27721
v -10.78705 0.9688799 19.31257
v -10.75183 0.971961 16.34793
v -10.77658 0.9684526 16.31257
v -11.25684 -0.4525836 19.31257
v -10.77658 0.9684526 19.31257
v -11.25684 -0.4525836 16.31257
v -11.30421 -0.4365753 19.31257
v -10.82395 0.9844622 16.31257
v -10.82395 0.9844622 19.31257
v -11.30421 -0.4365753 16.31257
v -10.77658 0.9684526 19.31257
v -10.82395 0.9844622 16.31257
v -10.77658 0.9684526 16.31257
v -10.82395 0.9844622 19.31257
v -11.25684 -0.4525836 19.31257
v -10.82395 0.9844622 19.31257
v -10.77658 0.9684526 19.31257
v -11.30421 -0.4365753 19.31257
v -11.25684 -0.4525836 16.31257
v -11.30421 -0.4365753 19.31257
v -11.25684 -0.4525836 19.31257
v -11.30421 -0.4365753 16.31257
v -10.77658 0.9684526 16.31257
v -11.30421 -0.4365753 16.31257
v -11.25684 -0.4525836 16.31257
v -10.82395 0.9844622 16.31257
v -7.33587 -4.012134 16.31257
v -6.447292 -5.220616 19.31257
v -7.33587 -4.012134 19.31257
v -6.447292 -5.220616 16.31257
v -6.487574 -5.250236 19.31257
v -7.376152 -4.041754 16.31257
v -7.376152 -4.041754 19.31257
v -6.487574 -5.250236 16.31257
v -7.33587 -4.012134 19.31257
v -7.376152 -4.041754 16.31257
v -7.33587 -4.012134 16.31257
v -7.376152 -4.041754 19.31257
v -6.447292 -5.220616 19.31257
v -7.376152 -4.041754 19.31257
v -7.33587 -4.012134 19.31257
v -6.487574 -5.250236 19.31257
v -6.447292 -5.220616 16.31257
v -6.487574 -5.250236 19.31257
v -6.447292 -5.220616 19.31257
v -6.487574 -5.250236 16.31257
v -7.33587 -4.012134 16.31257
v -6.487574 -5.250236 16.31257
v -6.447292 -5.220616 16.31257
v -7.376152 -4.041754 16.31257
v -8.885471 -4.671665 16.31257
v -10.33196 -4.274594 19.31257
v -8.885471 -4.671665 19.31257
v -10.33196 -4.274594 16.31257
v -10.31873 -4.226377 19.31257
v -8.872235 -4.623448 16.31257
v -8.872235 -4.623448 19.31257
v -10.31873 -4.226377 16.31257
v -8.885471 -4.671665 19.31257
v -8.872235 -4.623448 16.31257
v -8.885471 -4.671665 16.31257
v -8.872235 -4.623448 19.31257
v -10.33196 -4.274594 19.31257
v -8.872235 -4.623448 19.31257
v -8.885471 -4.671665 19.31257
v -10.31873 -4.226377 19.31257
v -10.33196 -4.274594 16.31257
v -10.31873 -4.226377 19.31257
v -10.33196 -4.274594 19.31257
v -10.31873 -4.226377 16.31257
v -8.885471 -4.671665 16.31257
v -10.31873 -4.226377 16.31257
v -10.33196 -4.274594 16.31257
v -8.872235 -4.623448 16.31257
vt 0.125 0.2802734
vt 0.04392414 0.234375
vt 0.04392414 0.2802734
vt 0.125 0.234375
vt 0.001953125 0.2802734
vt 0.08302899 0.234375
vt 0.001953125 0.234375
vt 0.08302899 0.2802734
vt 0.1240234 0.1876031
vt 0.04294758 0.2335015
vt 0.04294758 0.1876031
vt 0.1240234 0.2335015
vt 0.08205242 0.1876031
vt 0.0009765625 0.2335015
vt 0.0009765625 0.1876031
vt 0.08205242 0.2335015
vt 0.04392414 0.234375
vt 0.125 0.2802734
vt 0.04392414 0.2802734
vt 0.125 0.234375
vt 0.08302899 0.234375
vt 0.001953125 0.2802734
vt 0.001953125 0.234375
vt 0.08302899 0.2802734
vt 0.04294758 0.2335015
vt 0.1240234 0.1876031
vt 0.04294758 0.1876031
vt 0.1240234 0.2335015
vt 0.0009765625 0.2335015
vt 0.08205242 0.1876031
vt 0.0009765625 0.1876031
vt 0.08205242 0.2335015
vt 0.001571064 0.1877203
vt 0.001043965 0.2319189
vt 0.001571067 0.232446
vt 0.001043961 0.1882474
vt 0.001577934 0.1876791
vt 0.001064697 0.2328737
vt 0.001577938 0.2334127
vt 0.001064694 0.188218
vt 0.0010647 0.2334127
vt 0.001577938 0.188218
vt 0.001064697 0.1876791
vt 0.001577938 0.2328737
vt 0.001043965 0.232446
vt 0.001571064 0.1882474
vt 0.001043961 0.1877203
vt 0.001571067 0.2319189
vt 0.001571064 0.1877203
vt 0.001043971 0.2319189
vt 0.001571067 0.232446
vt 0.001043961 0.1882474
vt 0.0010647 0.2334127
vt 0.001577934 0.188218
vt 0.001064694 0.1876791
vt 0.001577938 0.2328737
vt 0.001577931 0.1876791
vt 0.001064697 0.2328737
vt 0.001577938 0.2334127
vt 0.00106469 0.188218
vt 0.001043977 0.232446
vt 0.001571064 0.1882474
vt 0.001043961 0.1877203
vt 0.001571067 0.2319189
vt 0.1708984 0.1876031
vt 0.1479492 0.2335015
vt 0.1708984 0.2335015
vt 0.1479492 0.1876031
vt 0.1479492 0.2335015
vt 0.1708984 0.1876031
vt 0.1708984 0.2335015
vt 0.1479492 0.1876031
vt 0.04748774 0.189119
vt 0.003542427 0.1881424
vt 0.003542427 0.189119
vt 0.04748774 0.1881424
vt 0.003542427 0.1881424
vt 0.0250268 0.189119
vt 0.0250268 0.1881424
vt 0.003542427 0.189119
vt 0.003542427 0.1881424
vt 0.04748774 0.189119
vt 0.04748774 0.1881424
vt 0.003542427 0.189119
vt 0.0250268 0.189119
vt 0.003542427 0.1881424
vt 0.003542427 0.189119
vt 0.0250268 0.1881424
vt 0.1708984 0.1876031
vt 0.1479492 0.2335015
vt 0.1708984 0.2335015
vt 0.1479492 0.1876031
vt 0.1479492 0.2335015
vt 0.1708984 0.1876031
vt 0.1708984 0.2335015
vt 0.1479492 0.1876031
vt 0.04748774 0.189119
vt 0.003542427 0.1881424
vt 0.003542427 0.189119
vt 0.04748774 0.1881424
vt 0.003542427 0.1881424
vt 0.0250268 0.189119
vt 0.0250268 0.1881424
vt 0.003542427 0.189119
vt 0.003542427 0.1881424
vt 0.04748774 0.189119
vt 0.04748774 0.1881424
vt 0.003542427 0.189119
vt 0.0250268 0.189119
vt 0.003542427 0.1881424
vt 0.003542427 0.189119
vt 0.0250268 0.1881424
vt 0.1479492 0.1876031
vt 0.125 0.2335015
vt 0.1479492 0.2335015
vt 0.125 0.1876031
vt 0.125 0.2335015
vt 0.1479492 0.1876031
vt 0.1479492 0.2335015
vt 0.125 0.1876031
vt 0.1259766 0.1876031
vt 0.125 0.2335015
vt 0.1259766 0.2335015
vt 0.125 0.1876031
vt 0.125 0.2335015
vt 0.1259766 0.2110406
vt 0.125 0.2110406
vt 0.1259766 0.2335015
vt 0.125 0.2335015
vt 0.1259766 0.1876031
vt 0.125 0.1876031
vt 0.1259766 0.2335015
vt 0.1259766 0.2110406
vt 0.125 0.2335015
vt 0.1259766 0.2335015
vt 0.125 0.2110406
vn 0 0 -1
vn 0 0 -1
vn 0 0 -1
vn 0 0 -1
vn 0 0 1
vn 0 0 1
vn 0 0 1
vn 0 0 1
vn 0.9961947 0.08715553 0
vn 0.9961947 0.08715553 0
vn 0.9961947 0.08715553 0
vn 0.9961947 0.08715553 0
vn -0.9961947 -0.08715566 0
vn -0.9961947 -0.08715566 0
vn -0.9961947 -0.08715566 0
vn -0.9961947 -0.08715566 0
vn 0 0 1
vn 0 0 1
vn 0 0 1
vn 0 0 1
vn 0 0 -1
vn 0 0 -1
vn 0 0 -1
vn 0 0 -1
vn -0.9961947 -0.08715556 0
vn -0.9961947 -0.08715556 0
vn -0.9961947 -0.08715556 0
vn -0.9961947 -0.08715556 0
vn 0.9961947 0.08715545 0
vn 0.9961947 0.08715545 0
vn 0.9961947 0.08715545 0
vn 0.9961947 0.08715545 0
vn -0.08716349 0.996194 1.230753E-05
vn -0.08715107 0.9961951 1.230753E-05
vn -0.08714663 0.9961956 4.449968E-06
vn -0.0871714 0.9961933 7.857567E-06
vn 0.08715777 -0.9961945 8.491453E-06
vn 0.0871492 -0.9961953 8.491454E-06
vn 0.08714285 -0.9961959 6.291335E-06
vn 0.08716002 -0.9961944 0
vn 0.0871492 -0.9961953 -8.745516E-06
vn 0.08715777 -0.9961945 -8.745515E-06
vn 0.08715998 -0.9961944 0
vn 0.0871429 -0.9961958 -6.443649E-06
vn -0.08715107 0.9961951 -1.253751E-05
vn -0.08716349 0.996194 -1.253751E-05
vn -0.08717144 0.9961933 -7.979804E-06
vn -0.08714658 0.9961956 -4.557704E-06
vn -0.08717144 0.9961933 -7.979804E-06
vn -0.0871714 0.9961933 7.857567E-06
vn -0.08716349 0.996194 1.230753E-05
vn -0.08716349 0.996194 -1.253751E-05
vn 0.08714285 -0.9961959 6.291335E-06
vn 0.0871429 -0.9961958 -6.443649E-06
vn 0.0871492 -0.9961953 -8.745516E-06
vn 0.0871492 -0.9961953 8.491454E-06
vn 0.08715998 -0.9961944 0
vn 0.08716002 -0.9961944 0
vn 0.08715777 -0.9961945 8.491453E-06
vn 0.08715777 -0.9961945 -8.745515E-06
vn -0.08714663 0.9961956 4.449968E-06
vn -0.08714658 0.9961956 -4.557704E-06
vn -0.08715107 0.9961951 -1.253751E-05
vn -0.08715107 0.9961951 1.230753E-05
vn 0.9473584 -0.3201752 0
vn 0.9473584 -0.3201752 0
vn 0.9473584 -0.3201752 0
vn 0.9473584 -0.3201752 0
vn -0.9473584 0.320175 0
vn -0.9473584 0.320175 0
vn -0.9473584 0.320175 0
vn -0.9473584 0.320175 0
vn 0.3201874 0.9473543 0
vn 0.3201874 0.9473543 0
vn 0.3201874 0.9473543 0
vn 0.3201874 0.9473543 0
vn 0 0 1
vn 0 0 1
vn 0 0 1
vn 0 0 1
vn -0.3201654 -0.9473616 0
vn -0.3201654 -0.9473616 0
vn -0.3201654 -0.9473616 0
vn -0.3201654 -0.9473616 0
vn 0 0 -1
vn 0 0 -1
vn 0 0 -1
vn 0 0 -1
vn 0.805655 0.592385 0
vn 0.805655 0.592385 0
vn 0.805655 0.592385 0
vn 0.805655 0.592385 0
vn -0.8056547 -0.5923855 0
vn -0.8056547 -0.5923855 0
vn -0.8056547 -0.5923855 0
vn -0.8056547 -0.5923855 0
vn -0.5924048 0.8056404 0
vn -0.5924048 0.8056404 0
vn -0.5924048 0.8056404 0
vn -0.5924048 0.8056404 0
vn 0 0 1
vn 0 0 1
vn 0 0 1
vn 0 0 1
vn 0.5923851 -0.805655 0
vn 0.5923851 -0.805655 0
vn 0.5923851 -0.805655 0
vn 0.5923851 -0.805655 0
vn 0 0 -1
vn 0 0 -1
vn 0 0 -1
vn 0 0 -1
vn -0.2647136 -0.9643271 0
vn -0.2647136 -0.9643271 0
vn -0.2647136 -0.9643271 0
vn -0.2647136 -0.9643271 0
vn 0.2647138 0.9643271 0
vn 0.2647138 0.9643271 0
vn 0.2647138 0.9643271 0
vn 0.2647138 0.9643271 0
vn 0.9643249 -0.2647217 0
vn 0.9643249 -0.2647217 0
vn 0.9643249 -0.2647217 0
vn 0.9643249 -0.2647217 0
vn 0 0 1
vn 0 0 1
vn 0 0 1
vn 0 0 1
vn -0.964332 0.2646958 0
vn -0.964332 0.2646958 0
vn -0.964332 0.2646958 0
vn -0.964332 0.2646958 0
vn 0 0 -1
vn 0 0 -1
vn 0 0 -1
vn 0 0 -1
g barge_konteyner04_0
f 3/3/3 2/2/2 1/1/1
f 4/4/4 1/1/1 2/2/2
f 7/7/7 6/6/6 5/5/5
f 8/8/8 5/5/5 6/6/6
f 11/11/11 10/10/10 9/9/9
f 12/12/12 9/9/9 10/10/10
f 15/15/15 14/14/14 13/13/13
f 16/16/16 13/13/13 14/14/14
f 19/19/19 18/18/18 17/17/17
f 20/20/20 17/17/17 18/18/18
f 23/23/23 22/22/22 21/21/21
f 24/24/24 21/21/21 22/22/22
f 27/27/27 26/26/26 25/25/25
f 28/28/28 25/25/25 26/26/26
f 31/31/31 30/30/30 29/29/29
f 32/32/32 29/29/29 30/30/30
f 35/35/35 34/34/34 33/33/33
f 36/36/36 33/33/33 34/34/34
f 39/39/39 38/38/38 37/37/37
f 40/40/40 37/37/37 38/38/38
f 43/43/43 42/42/42 41/41/41
f 44/44/44 41/41/41 42/42/42
f 47/47/47 46/46/46 45/45/45
f 48/48/48 45/45/45 46/46/46
f 51/51/51 50/50/50 49/49/49
f 52/52/52 49/49/49 50/50/50
f 55/55/55 54/54/54 53/53/53
f 56/56/56 53/53/53 54/54/54
f 59/59/59 58/58/58 57/57/57
f 60/60/60 57/57/57 58/58/58
f 63/63/63 62/62/62 61/61/61
f 64/64/64 61/61/61 62/62/62
f 67/67/67 66/66/66 65/65/65
f 68/68/68 65/65/65 66/66/66
f 71/71/71 70/70/70 69/69/69
f 72/72/72 69/69/69 70/70/70
f 75/75/75 74/74/74 73/73/73
f 76/76/76 73/73/73 74/74/74
f 79/79/79 78/78/78 77/77/77
f 80/80/80 77/77/77 78/78/78
f 83/83/83 82/82/82 81/81/81
f 84/84/84 81/81/81 82/82/82
f 87/87/87 86/86/86 85/85/85
f 88/88/88 85/85/85 86/86/86
f 91/91/91 90/90/90 89/89/89
f 92/92/92 89/89/89 90/90/90
f 95/95/95 94/94/94 93/93/93
f 96/96/96 93/93/93 94/94/94
f 99/99/99 98/98/98 97/97/97
f 100/100/100 97/97/97 98/98/98
f 103/103/103 102/102/102 101/101/101
f 104/104/104 101/101/101 102/102/102
f 107/107/107 106/106/106 105/105/105
f 108/108/108 105/105/105 106/106/106
f 111/111/111 110/110/110 109/109/109
f 112/112/112 109/109/109 110/110/110
f 115/115/115 114/114/114 113/113/113
f 116/116/116 113/113/113 114/114/114
f 119/119/119 118/118/118 117/117/117
f 120/120/120 117/117/117 118/118/118
f 123/123/123 122/122/122 121/121/121
f 124/124/124 121/121/121 122/122/122
f 127/127/127 126/126/126 125/125/125
f 128/128/128 125/125/125 126/126/126
f 131/131/131 130/130/130 129/129/129
f 132/132/132 129/129/129 130/130/130
f 135/135/135 134/134/134 133/133/133
f 136/136/136 133/133/133 134/134/134
