g Barge_Doski_1
v -0.5393481 -2.639585 2.568877
v -0.7810181 0.6905444 -0.7612537
v -0.839331 -2.637412 2.566704
v -0.4810327 0.6883692 -0.7590796
v -0.5393481 -2.568874 2.639587
v -0.7810181 0.7612548 -0.6905456
v -0.4810327 0.7590796 -0.6883692
v -0.839331 -2.566699 2.637414
v -0.5393481 -2.639585 2.568877
v -0.4810327 0.7590796 -0.6883692
v -0.4810327 0.6883692 -0.7590796
v -0.5393481 -2.568874 2.639587
v -0.4810327 0.6883692 -0.7590796
v -0.7810181 0.7612548 -0.6905456
v -0.7810181 0.6905444 -0.7612537
v -0.4810327 0.7590796 -0.6883692
v -0.7810181 0.6905444 -0.7612537
v -0.839331 -2.566699 2.637414
v -0.839331 -2.637412 2.566704
v -0.7810181 0.7612548 -0.6905456
v -0.839331 -2.637412 2.566704
v -0.5393481 -2.568874 2.639587
v -0.5393481 -2.639585 2.568877
v -0.839331 -2.566699 2.637414
v 0.03806152 -2.652309 2.581604
v -0.3731543 0.669126 -0.739834
v -0.2618384 -2.657783 2.587076
v -0.07325439 0.6745971 -0.7453076
v 0.03806152 -2.581602 2.652314
v -0.3731543 0.739834 -0.6691235
v -0.07325439 0.7453076 -0.6745971
v -0.2618384 -2.587073 2.657787
v 0.03806152 -2.652309 2.581604
v -0.07325439 0.7453076 -0.6745971
v -0.07325439 0.6745971 -0.7453076
v 0.03806152 -2.581602 2.652314
v -0.07325439 0.6745971 -0.7453076
v -0.3731543 0.739834 -0.6691235
v -0.3731543 0.669126 -0.739834
v -0.07325439 0.7453076 -0.6745971
v -0.3731543 0.669126 -0.739834
v -0.2618384 -2.587073 2.657787
v -0.2618384 -2.657783 2.587076
v -0.3731543 0.739834 -0.6691235
v -0.2618384 -2.657783 2.587076
v 0.03806152 -2.581602 2.652314
v 0.03806152 -2.652309 2.581604
v -0.2618384 -2.587073 2.657787
v 0.33948 -2.685686 2.621311
v -0.03872314 0.6391748 -0.7035486
v 0.03950684 -2.688432 2.624065
v 0.2612549 0.6419238 -0.7063025
v 0.3394824 -2.614975 2.692024
v -0.03871826 0.7098828 -0.6328381
v 0.2612549 0.7126343 -0.6355896
v 0.03951172 -2.617727 2.694775
v 0.33948 -2.685686 2.621311
v 0.2612549 0.7126343 -0.6355896
v 0.2612549 0.6419238 -0.7063025
v 0.3394824 -2.614975 2.692024
v 0.2612549 0.6419238 -0.7063025
v -0.03871826 0.7098828 -0.6328381
v -0.03872314 0.6391748 -0.7035486
v 0.2612549 0.7126343 -0.6355896
v -0.03872314 0.6391748 -0.7035486
v 0.03951172 -2.617727 2.694775
v 0.03950684 -2.688432 2.624065
v -0.03871826 0.7098828 -0.6328381
v 0.03950684 -2.688432 2.624065
v 0.3394824 -2.614975 2.692024
v 0.33948 -2.685686 2.621311
v 0.03951172 -2.617727 2.694775
v 0.726377 -2.627495 2.556785
v 0.3151587 0.6939404 -0.7646521
v 0.4264746 -2.632964 2.562258
v 0.6150635 0.6994141 -0.7701245
v 0.726377 -2.556782 2.627495
v 0.3151587 0.7646533 -0.6939417
v 0.615061 0.7701245 -0.6994141
v 0.4264746 -2.562253 2.632969
v 0.726377 -2.627495 2.556785
v 0.615061 0.7701245 -0.6994141
v 0.6150635 0.6994141 -0.7701245
v 0.726377 -2.556782 2.627495
v 0.6150635 0.6994141 -0.7701245
v 0.3151587 0.7646533 -0.6939417
v 0.3151587 0.6939404 -0.7646521
v 0.615061 0.7701245 -0.6994141
v 0.3151587 0.6939404 -0.7646521
v 0.4264746 -2.562253 2.632969
v 0.4264746 -2.632964 2.562258
v 0.3151587 0.7646533 -0.6939417
v 0.4264746 -2.632964 2.562258
v 0.726377 -2.556782 2.627495
v 0.726377 -2.627495 2.556785
v 0.4264746 -2.562253 2.632969
v 1.008362 -2.639585 2.568877
v 0.7666943 0.690542 -0.7612537
v 0.7083789 -2.637412 2.566704
v 1.066675 0.6883667 -0.7590796
v 1.008362 -2.568877 2.639589
v 0.7666919 0.7612548 -0.6905444
v 1.066675 0.7590771 -0.6883679
v 0.7083789 -2.566704 2.637416
v 1.008362 -2.639585 2.568877
v 1.066675 0.7590771 -0.6883679
v 1.066675 0.6883667 -0.7590796
v 1.008362 -2.568877 2.639589
v 1.066675 0.6883667 -0.7590796
v 0.7666919 0.7612548 -0.6905444
v 0.7666943 0.690542 -0.7612537
v 1.066675 0.7590771 -0.6883679
v 0.7666943 0.690542 -0.7612537
v 0.7083789 -2.566704 2.637416
v 0.7083789 -2.637412 2.566704
v 0.7666919 0.7612548 -0.6905444
v 0.7083789 -2.637412 2.566704
v 1.008362 -2.568877 2.639589
v 1.008362 -2.639585 2.568877
v 0.7083789 -2.566704 2.637416
v 1.585769 -2.652314 2.581603
v 1.174558 0.6691211 -0.7398352
v 1.285869 -2.657786 2.587076
v 1.474455 0.6745947 -0.7453076
v 1.585769 -2.581602 2.652314
v 1.174558 0.739834 -0.6691235
v 1.474455 0.7453052 -0.6745971
v 1.285869 -2.587075 2.657788
v 1.585769 -2.652314 2.581603
v 1.474455 0.7453052 -0.6745971
v 1.474455 0.6745947 -0.7453076
v 1.585769 -2.581602 2.652314
v 1.474455 0.6745947 -0.7453076
v 1.174558 0.739834 -0.6691235
v 1.174558 0.6691211 -0.7398352
v 1.474455 0.7453052 -0.6745971
v 1.174558 0.6691211 -0.7398352
v 1.285869 -2.587075 2.657788
v 1.285869 -2.657786 2.587076
v 1.174558 0.739834 -0.6691235
v 1.285869 -2.657786 2.587076
v 1.585769 -2.581602 2.652314
v 1.585769 -2.652314 2.581603
v 1.285869 -2.587075 2.657788
v 1.88719 -2.685688 2.621313
v 1.508987 0.6391699 -0.7035486
v 1.587217 -2.688437 2.624064
v 1.808965 0.6419238 -0.7063025
v 1.887192 -2.614978 2.692024
v 1.508992 0.7098804 -0.6328381
v 1.808967 0.7126318 -0.6355896
v 1.587219 -2.617729 2.694775
v 1.88719 -2.685688 2.621313
v 1.808967 0.7126318 -0.6355896
v 1.808965 0.6419238 -0.7063025
v 1.887192 -2.614978 2.692024
v 1.808965 0.6419238 -0.7063025
v 1.508992 0.7098804 -0.6328381
v 1.508987 0.6391699 -0.7035486
v 1.808967 0.7126318 -0.6355896
v 1.508987 0.6391699 -0.7035486
v 1.587219 -2.617729 2.694775
v 1.587217 -2.688437 2.624064
v 1.508992 0.7098804 -0.6328381
v 1.587217 -2.688437 2.624064
v 1.887192 -2.614978 2.692024
v 1.88719 -2.685688 2.621313
v 1.587219 -2.617729 2.694775
v 2.274087 -2.627495 2.556786
v 1.862871 0.6939404 -0.7646521
v 1.974185 -2.632969 2.562257
v 2.162771 0.6994116 -0.7701245
v 2.274087 -2.556787 2.627497
v 1.862871 0.7646484 -0.6939404
v 2.162771 0.7701221 -0.6994116
v 1.974185 -2.562256 2.632969
v 2.274087 -2.627495 2.556786
v 2.162771 0.7701221 -0.6994116
v 2.162771 0.6994116 -0.7701245
v 2.274087 -2.556787 2.627497
v 2.162771 0.6994116 -0.7701245
v 1.862871 0.7646484 -0.6939404
v 1.862871 0.6939404 -0.7646521
v 2.162771 0.7701221 -0.6994116
v 1.862871 0.6939404 -0.7646521
v 1.974185 -2.562256 2.632969
v 1.974185 -2.632969 2.562257
v 1.862871 0.7646484 -0.6939404
v 1.974185 -2.632969 2.562257
v 2.274087 -2.556787 2.627497
v 2.274087 -2.627495 2.556786
v 1.974185 -2.562256 2.632969
vt 0.8059122 0.006482865
vt 0.8768364 0.002114213
vt 0.8059122 0.001962378
vt 0.8768364 0.006634742
vt 0.8059122 0.0024174
vt 0.8768365 0.006786363
vt 0.8768364 0.002265553
vt 0.8059122 0.006938251
vt 0.8059122 0.007101174
vt 0.8768364 0.008608267
vt 0.8768364 0.007101174
vt 0.8059122 0.008608267
vt 0.8615607 0.00904486
vt 0.8660812 0.01055183
vt 0.8660812 0.00904486
vt 0.8615607 0.01055183
vt 0.8448956 0.007066557
vt 0.9158199 0.008573468
vt 0.9158199 0.007066557
vt 0.8448956 0.008573468
vt 0.861236 0.00904401
vt 0.8657566 0.01055061
vt 0.8657566 0.00904401
vt 0.861236 0.01055061
vt 0.8059122 0.006482866
vt 0.8768286 0.00211396
vt 0.8059122 0.001962378
vt 0.8768286 0.006634725
vt 0.8059122 0.0024174
vt 0.8768286 0.006786379
vt 0.8768286 0.002265809
vt 0.8059122 0.006938251
vt 0.8059122 0.007101174
vt 0.8768286 0.008608267
vt 0.8768286 0.007101174
vt 0.8059122 0.008608267
vt 0.861561 0.00904486
vt 0.8660815 0.01055183
vt 0.8660815 0.00904486
vt 0.861561 0.01055183
vt 0.8449035 0.007066557
vt 0.9158199 0.008573468
vt 0.9158199 0.007066557
vt 0.8449035 0.008573468
vt 0.861236 0.00904401
vt 0.8657566 0.01055061
vt 0.8657566 0.00904401
vt 0.861236 0.01055061
vt 0.8059133 0.007120498
vt 0.8768342 0.002340664
vt 0.8059133 0.00260001
vt 0.8768343 0.006861142
vt 0.8059133 0.001779716
vt 0.8768342 0.006559944
vt 0.8768342 0.002039316
vt 0.8059133 0.006300568
vt 0.8059133 0.007101174
vt 0.8768342 0.008608267
vt 0.8768343 0.00710074
vt 0.8059133 0.008608267
vt 0.8613344 0.009044744
vt 0.8658549 0.01055171
vt 0.8658549 0.009044754
vt 0.8613344 0.01055171
vt 0.8448979 0.007066557
vt 0.9158188 0.008573468
vt 0.9158188 0.007066557
vt 0.8448979 0.008573671
vt 0.8618737 0.00904401
vt 0.8663942 0.01055061
vt 0.8663942 0.00904401
vt 0.8618737 0.01055061
vt 0.8059122 0.006482867
vt 0.8768285 0.002114102
vt 0.8059122 0.001962378
vt 0.8768286 0.006634726
vt 0.8059122 0.002417399
vt 0.8768285 0.006786379
vt 0.8768285 0.002265667
vt 0.8059122 0.006938251
vt 0.8059122 0.007101174
vt 0.8768285 0.008608267
vt 0.8768286 0.007101174
vt 0.8059122 0.008608267
vt 0.8615608 0.00904486
vt 0.8660814 0.01055183
vt 0.8660814 0.00904486
vt 0.8615608 0.01055183
vt 0.8449036 0.007066557
vt 0.9158199 0.008573468
vt 0.9158199 0.007066557
vt 0.8449036 0.008573468
vt 0.861236 0.00904401
vt 0.8657566 0.01055061
vt 0.8657566 0.00904401
vt 0.861236 0.01055061
vt 0.8059122 0.006482865
vt 0.8768364 0.002114213
vt 0.8059122 0.001962378
vt 0.8768364 0.006634742
vt 0.8059122 0.0024174
vt 0.8768365 0.006786363
vt 0.8768364 0.002265553
vt 0.8059122 0.006938251
vt 0.8059122 0.007101174
vt 0.8768364 0.008608267
vt 0.8768364 0.007101174
vt 0.8059122 0.008608267
vt 0.8615607 0.00904486
vt 0.8660812 0.01055183
vt 0.8660812 0.00904486
vt 0.8615607 0.01055183
vt 0.8448956 0.007066557
vt 0.9158199 0.008573468
vt 0.9158199 0.007066557
vt 0.8448956 0.008573468
vt 0.861236 0.00904401
vt 0.8657566 0.01055061
vt 0.8657566 0.00904401
vt 0.861236 0.01055061
vt 0.8059122 0.006482866
vt 0.8768286 0.00211396
vt 0.8059122 0.001962378
vt 0.8768286 0.006634725
vt 0.8059122 0.0024174
vt 0.8768286 0.006786379
vt 0.8768286 0.002265809
vt 0.8059122 0.006938251
vt 0.8059122 0.007101174
vt 0.8768286 0.008608267
vt 0.8768286 0.007101174
vt 0.8059122 0.008608267
vt 0.861561 0.00904486
vt 0.8660815 0.01055183
vt 0.8660815 0.00904486
vt 0.861561 0.01055183
vt 0.8449035 0.007066557
vt 0.9158199 0.008573468
vt 0.9158199 0.007066557
vt 0.8449035 0.008573468
vt 0.861236 0.00904401
vt 0.8657566 0.01055061
vt 0.8657566 0.00904401
vt 0.861236 0.01055061
vt 0.8059133 0.007120498
vt 0.8768342 0.002340664
vt 0.8059133 0.00260001
vt 0.8768343 0.006861142
vt 0.8059133 0.001779716
vt 0.8768342 0.006559944
vt 0.8768342 0.002039316
vt 0.8059133 0.006300568
vt 0.8059133 0.007101174
vt 0.8768342 0.008608267
vt 0.8768343 0.00710074
vt 0.8059133 0.008608267
vt 0.8613344 0.009044744
vt 0.8658549 0.01055171
vt 0.8658549 0.009044754
vt 0.8613344 0.01055171
vt 0.8448979 0.007066557
vt 0.9158188 0.008573468
vt 0.9158188 0.007066557
vt 0.8448979 0.008573671
vt 0.8618737 0.00904401
vt 0.8663942 0.01055061
vt 0.8663942 0.00904401
vt 0.8618737 0.01055061
vt 0.8059122 0.006482867
vt 0.8768285 0.002114102
vt 0.8059122 0.001962378
vt 0.8768286 0.006634726
vt 0.8059122 0.002417399
vt 0.8768285 0.006786379
vt 0.8768285 0.002265667
vt 0.8059122 0.006938251
vt 0.8059122 0.007101174
vt 0.8768285 0.008608267
vt 0.8768286 0.007101174
vt 0.8059122 0.008608267
vt 0.8615608 0.00904486
vt 0.8660814 0.01055183
vt 0.8660814 0.00904486
vt 0.8615608 0.01055183
vt 0.8449036 0.007066557
vt 0.9158199 0.008573468
vt 0.9158199 0.007066557
vt 0.8449036 0.008573468
vt 0.861236 0.00904401
vt 0.8657566 0.01055061
vt 0.8657566 0.00904401
vt 0.861236 0.01055061
vn 0 -0.7071069 -0.7071066
vn 0 -0.7071069 -0.7071066
vn 0 -0.7071069 -0.7071066
vn 0 -0.707107 -0.7071065
vn 0 0.7071072 0.7071064
vn 0 0.7071072 0.7071064
vn 0 0.7071071 0.7071065
vn 0 0.7071074 0.7071061
vn 0.9999232 -0.008760784 0.008760784
vn 0.9999232 -0.008760784 0.008760784
vn 0.9999232 -0.008760784 0.008760784
vn 0.9999232 -0.008760784 0.008760784
vn 0.01025439 0.7070635 -0.7070757
vn 0.01025439 0.7070635 -0.7070757
vn 0.01025152 0.7070575 -0.7070818
vn 0.01025727 0.7070696 -0.7070696
vn -0.9999232 0.008760258 -0.008760556
vn -0.9999232 0.008760258 -0.008760556
vn -0.9999232 0.00876026 -0.008760545
vn -0.9999232 0.008760255 -0.008760566
vn -0.01024584 -0.7070636 0.7070758
vn -0.01024584 -0.7070636 0.7070758
vn -0.01024297 -0.7070697 0.7070697
vn -0.01024872 -0.7070575 0.7070819
vn 0 -0.7071071 -0.7071065
vn 0 -0.7071071 -0.7071065
vn 0 -0.7071069 -0.7071067
vn 0 -0.7071074 -0.7071061
vn 0 0.7071071 0.7071065
vn 0 0.7071071 0.7071065
vn 0 0.707107 0.7071065
vn 0 0.7071072 0.7071063
vn 0.9997202 0.01672509 -0.0167248
vn 0.9997202 0.01672509 -0.0167248
vn 0.9997202 0.01672493 -0.01672493
vn 0.9997202 0.01672524 -0.01672467
vn -0.0258001 0.7068775 -0.7068653
vn -0.0258001 0.7068775 -0.7068653
vn -0.02579722 0.7068837 -0.7068593
vn -0.02580297 0.7068713 -0.7068713
vn -0.9997202 -0.01672507 0.01672479
vn -0.9997202 -0.01672507 0.01672479
vn -0.9997202 -0.01672493 0.01672493
vn -0.9997202 -0.01672521 0.01672464
vn 0.02579722 -0.7068776 0.7068654
vn 0.02579722 -0.7068776 0.7068654
vn 0.0258001 -0.7068836 0.7068592
vn 0.02579435 -0.7068715 0.7068715
vn -1.437482E-05 -0.7071074 -0.7071061
vn -1.437482E-05 -0.7071074 -0.7071061
vn -1.724925E-05 -0.7071076 -0.7071059
vn -1.150039E-05 -0.7071073 -0.7071062
vn 0 0.7071072 0.7071064
vn 0 0.7071072 0.7071064
vn 0 0.7071072 0.7071064
vn 0 0.7071072 0.7071064
vn 0.9998618 0.01174405 -0.0117609
vn 0.9998618 0.01174405 -0.0117609
vn 0.9998618 0.0117525 -0.01175208
vn 0.9998618 0.01173559 -0.01176972
vn -0.01297049 0.7070597 -0.7070349
vn -0.01297049 0.7070597 -0.7070349
vn -0.01297039 0.7070599 -0.7070346
vn -0.0129706 0.7070594 -0.7070351
vn -0.9998618 -0.01171884 0.01178726
vn -0.9998618 -0.01171884 0.01178726
vn -0.9998618 -0.01171894 0.01178715
vn -0.9998618 -0.01171875 0.01178737
vn 0.01296778 -0.707066 0.7070287
vn 0.01296778 -0.707066 0.7070287
vn 0.01296485 -0.7070598 0.7070349
vn 0.01297071 -0.7070721 0.7070224
vn 0 -0.7071072 -0.7071064
vn 0 -0.7071072 -0.7071064
vn -1.148282E-05 -0.7071076 -0.7071059
vn 0 -0.7071067 -0.7071069
vn 0 0.7071072 0.7071064
vn 0 0.7071072 0.7071064
vn 0 0.7071071 0.7071065
vn 0 0.7071072 0.7071063
vn 0.9997202 0.01673325 -0.01671631
vn 0.9997202 0.01673325 -0.01671631
vn 0.9997203 0.01674184 -0.01670735
vn 0.9997202 0.01672465 -0.01672528
vn -0.0257969 0.7068651 -0.7068778
vn -0.0257969 0.7068651 -0.7068778
vn -0.02579968 0.7068592 -0.7068836
vn -0.02579414 0.706871 -0.706872
vn -0.9997202 -0.01672478 0.01672507
vn -0.9997202 -0.01672478 0.01672507
vn -0.9997202 -0.01672493 0.01672493
vn -0.9997202 -0.01672463 0.0167252
vn 0.02579413 -0.7068654 0.7068776
vn 0.02579413 -0.7068654 0.7068776
vn 0.02579126 -0.7068594 0.7068838
vn 0.02579701 -0.7068714 0.7068714
vn 0 -0.7071072 -0.7071064
vn 0 -0.7071072 -0.7071064
vn 0 -0.7071072 -0.7071064
vn 0 -0.7071072 -0.7071063
vn 0 0.7071069 0.7071066
vn 0 0.7071069 0.7071066
vn 0 0.707107 0.7071065
vn 0 0.7071069 0.7071066
vn 0.9999232 -0.008760543 0.008760258
vn 0.9999232 -0.008760543 0.008760258
vn 0.9999232 -0.008760463 0.008760333
vn 0.9999232 -0.008760623 0.008760182
vn 0.01025739 0.7070636 -0.7070756
vn 0.01025739 0.7070636 -0.7070756
vn 0.01025168 0.7070515 -0.7070878
vn 0.0102631 0.7070757 -0.7070634
vn -0.9999232 0.008751964 -0.00876921
vn -0.9999232 0.008751964 -0.00876921
vn -0.9999232 0.008761012 -0.008760544
vn -0.9999232 0.008742916 -0.008777875
vn -0.01024297 -0.707088 0.7070514
vn -0.01024297 -0.707088 0.7070514
vn -0.01024297 -0.707088 0.7070514
vn -0.01024297 -0.707088 0.7070514
vn 0 -0.7071071 -0.7071065
vn 0 -0.7071071 -0.7071065
vn 0 -0.7071074 -0.7071061
vn 0 -0.7071069 -0.7071067
vn 0 0.7071072 0.7071063
vn 0 0.7071072 0.7071063
vn 0 0.7071074 0.7071061
vn 0 0.7071071 0.7071065
vn 0.9997203 0.0167245 -0.01672463
vn 0.9997203 0.0167245 -0.01672463
vn 0.9997203 0.01672457 -0.01672457
vn 0.9997203 0.01672444 -0.0167247
vn -0.02579887 0.7068684 -0.7068745
vn -0.02579887 0.7068684 -0.7068745
vn -0.02580031 0.7068653 -0.7068775
vn -0.02579744 0.7068714 -0.7068714
vn -0.9997203 -0.01672417 0.01672417
vn -0.9997203 -0.01672417 0.01672417
vn -0.9997203 -0.01672433 0.01672402
vn -0.9997203 -0.01672402 0.01672433
vn 0.0258001 -0.7068714 0.7068714
vn 0.0258001 -0.7068714 0.7068714
vn 0.02579722 -0.7068654 0.7068776
vn 0.02580298 -0.7068775 0.7068653
vn 0 -0.7071072 -0.7071063
vn 0 -0.7071072 -0.7071063
vn 0 -0.7071073 -0.7071062
vn 0 -0.7071072 -0.7071064
vn 0 0.7071072 0.7071064
vn 0 0.7071072 0.7071064
vn 0 0.7071072 0.7071064
vn 0 0.7071072 0.7071064
vn 0.9998618 0.01173529 -0.01176937
vn 0.9998618 0.01173529 -0.01176937
vn 0.9998618 0.01173549 -0.01176916
vn 0.9998618 0.01173508 -0.01176957
vn -0.01297619 0.7070597 -0.7070347
vn -0.01297619 0.7070597 -0.7070347
vn -0.0129819 0.7070477 -0.7070467
vn -0.01297049 0.7070719 -0.7070227
vn -0.9998618 -0.01172714 0.0117786
vn -0.9998618 -0.01172714 0.0117786
vn -0.9998618 -0.01173611 0.01176998
vn -0.9998618 -0.01171817 0.01178721
vn 0.01296629 -0.7070567 0.7070379
vn 0.01296629 -0.7070567 0.7070379
vn 0.01296197 -0.7070476 0.7070472
vn 0.0129706 -0.7070658 0.7070287
vn 0 -0.7071069 -0.7071066
vn 0 -0.7071069 -0.7071066
vn 0 -0.7071066 -0.7071069
vn 0 -0.7071072 -0.7071063
vn 0 0.7071071 0.7071065
vn 0 0.7071071 0.7071065
vn 0 0.7071066 0.7071069
vn 0 0.7071074 0.7071061
vn 0.9997202 0.01672528 -0.01672463
vn 0.9997202 0.01672528 -0.01672463
vn 0.9997202 0.01672523 -0.01672471
vn 0.9997202 0.01672533 -0.01672455
vn -0.02579578 0.7068867 -0.7068562
vn -0.02579578 0.7068867 -0.7068562
vn -0.02579435 0.7068898 -0.7068532
vn -0.02579722 0.7068837 -0.7068593
vn -0.9997203 -0.01672476 0.01672447
vn -0.9997203 -0.01672476 0.01672447
vn -0.9997203 -0.01672447 0.01672478
vn -0.9997203 -0.01672505 0.01672417
vn 0.02579144 -0.7068774 0.7068658
vn 0.02579144 -0.7068774 0.7068658
vn 0.02579701 -0.7068891 0.7068539
vn 0.02578587 -0.7068655 0.7068777
g Barge_Doski_1_0
f 3/3/3 2/2/2 1/1/1
f 4/4/4 1/1/1 2/2/2
f 7/7/7 6/6/6 5/5/5
f 8/8/8 5/5/5 6/6/6
f 11/11/11 10/10/10 9/9/9
f 12/12/12 9/9/9 10/10/10
f 15/15/15 14/14/14 13/13/13
f 16/16/16 13/13/13 14/14/14
f 19/19/19 18/18/18 17/17/17
f 20/20/20 17/17/17 18/18/18
f 23/23/23 22/22/22 21/21/21
f 24/24/24 21/21/21 22/22/22
f 27/27/27 26/26/26 25/25/25
f 28/28/28 25/25/25 26/26/26
f 31/31/31 30/30/30 29/29/29
f 32/32/32 29/29/29 30/30/30
f 35/35/35 34/34/34 33/33/33
f 36/36/36 33/33/33 34/34/34
f 39/39/39 38/38/38 37/37/37
f 40/40/40 37/37/37 38/38/38
f 43/43/43 42/42/42 41/41/41
f 44/44/44 41/41/41 42/42/42
f 47/47/47 46/46/46 45/45/45
f 48/48/48 45/45/45 46/46/46
f 51/51/51 50/50/50 49/49/49
f 52/52/52 49/49/49 50/50/50
f 55/55/55 54/54/54 53/53/53
f 56/56/56 53/53/53 54/54/54
f 59/59/59 58/58/58 57/57/57
f 60/60/60 57/57/57 58/58/58
f 63/63/63 62/62/62 61/61/61
f 64/64/64 61/61/61 62/62/62
f 67/67/67 66/66/66 65/65/65
f 68/68/68 65/65/65 66/66/66
f 71/71/71 70/70/70 69/69/69
f 72/72/72 69/69/69 70/70/70
f 75/75/75 74/74/74 73/73/73
f 76/76/76 73/73/73 74/74/74
f 79/79/79 78/78/78 77/77/77
f 80/80/80 77/77/77 78/78/78
f 83/83/83 82/82/82 81/81/81
f 84/84/84 81/81/81 82/82/82
f 87/87/87 86/86/86 85/85/85
f 88/88/88 85/85/85 86/86/86
f 91/91/91 90/90/90 89/89/89
f 92/92/92 89/89/89 90/90/90
f 95/95/95 94/94/94 93/93/93
f 96/96/96 93/93/93 94/94/94
f 99/99/99 98/98/98 97/97/97
f 100/100/100 97/97/97 98/98/98
f 103/103/103 102/102/102 101/101/101
f 104/104/104 101/101/101 102/102/102
f 107/107/107 106/106/106 105/105/105
f 108/108/108 105/105/105 106/106/106
f 111/111/111 110/110/110 109/109/109
f 112/112/112 109/109/109 110/110/110
f 115/115/115 114/114/114 113/113/113
f 116/116/116 113/113/113 114/114/114
f 119/119/119 118/118/118 117/117/117
f 120/120/120 117/117/117 118/118/118
f 123/123/123 122/122/122 121/121/121
f 124/124/124 121/121/121 122/122/122
f 127/127/127 126/126/126 125/125/125
f 128/128/128 125/125/125 126/126/126
f 131/131/131 130/130/130 129/129/129
f 132/132/132 129/129/129 130/130/130
f 135/135/135 134/134/134 133/133/133
f 136/136/136 133/133/133 134/134/134
f 139/139/139 138/138/138 137/137/137
f 140/140/140 137/137/137 138/138/138
f 143/143/143 142/142/142 141/141/141
f 144/144/144 141/141/141 142/142/142
f 147/147/147 146/146/146 145/145/145
f 148/148/148 145/145/145 146/146/146
f 151/151/151 150/150/150 149/149/149
f 152/152/152 149/149/149 150/150/150
f 155/155/155 154/154/154 153/153/153
f 156/156/156 153/153/153 154/154/154
f 159/159/159 158/158/158 157/157/157
f 160/160/160 157/157/157 158/158/158
f 163/163/163 162/162/162 161/161/161
f 164/164/164 161/161/161 162/162/162
f 167/167/167 166/166/166 165/165/165
f 168/168/168 165/165/165 166/166/166
f 171/171/171 170/170/170 169/169/169
f 172/172/172 169/169/169 170/170/170
f 175/175/175 174/174/174 173/173/173
f 176/176/176 173/173/173 174/174/174
f 179/179/179 178/178/178 177/177/177
f 180/180/180 177/177/177 178/178/178
f 183/183/183 182/182/182 181/181/181
f 184/184/184 181/181/181 182/182/182
f 187/187/187 186/186/186 185/185/185
f 188/188/188 185/185/185 186/186/186
f 191/191/191 190/190/190 189/189/189
f 192/192/192 189/189/189 190/190/190
