g barge_konteyner11
v -1.5 -4 -1.5
v 1.5 -4 -1.5
v 1.5 4 -1.5
v -1.5 3.999997 -1.5
v -1.5 -4 1.5
v -1.5 3.999997 1.5
v 1.5 4 1.5
v 1.5 -4 1.5
v -1.5 -4 -1.5
v -1.5 -4 1.5
v 1.5 -4 1.5
v 1.5 -4 -1.5
v 1.5 -4 -1.5
v 1.5 -4 1.5
v 1.5 4 1.5
v 1.5 4 -1.5
v 1.5 4 -1.5
v 1.5 4 1.5
v -1.5 3.999997 1.5
v -1.5 3.999997 -1.5
v -1.5 3.999997 -1.5
v -1.5 3.999997 1.5
v -1.5 -4 1.5
v -1.5 -4 -1.5
vt 0.1240234 0.2802734
vt 0.1240234 0.234375
vt 0.0009765625 0.234375
vt 0.0009765625 0.2802734
vt 0.0009765625 0.2802734
vt 0.1240234 0.2802734
vt 0.1240234 0.234375
vt 0.0009765625 0.234375
vt 0.125 0.1884766
vt 0.125 0.234375
vt 0.1708984 0.234375
vt 0.1708984 0.1884766
vt 0.1240234 0.1884766
vt 0.1240234 0.234375
vt 0.0009765625 0.234375
vt 0.0009765625 0.1884766
vt 0.125 0.1884766
vt 0.125 0.234375
vt 0.1708984 0.234375
vt 0.1708984 0.1884766
vt 0.1240234 0.1884766
vt 0.1240234 0.234375
vt 0.0009765625 0.234375
vt 0.0009765625 0.1884766
vn 0 0 -1
vn 0 0 -1
vn 0 0 -1
vn 0 0 -1
vn 0 0 1
vn 0 0 1
vn 0 0 1
vn 0 0 1
vn 0 -1 0
vn 0 -1 0
vn 0 -1 0
vn 0 -1 0
vn 1 0 0
vn 1 0 0
vn 1 0 0
vn 1 0 0
vn 0 1 0
vn 0 1 0
vn 0 1 0
vn 0 1 0
vn -1 0 0
vn -1 0 0
vn -1 0 0
vn -1 0 0
g barge_konteyner11_0
f 3/3/3 2/2/2 1/1/1
f 4/4/4 3/3/3 1/1/1
f 7/7/7 6/6/6 5/5/5
f 8/8/8 7/7/7 5/5/5
f 11/11/11 10/10/10 9/9/9
f 12/12/12 11/11/11 9/9/9
f 15/15/15 14/14/14 13/13/13
f 16/16/16 15/15/15 13/13/13
f 19/19/19 18/18/18 17/17/17
f 20/20/20 19/19/19 17/17/17
f 23/23/23 22/22/22 21/21/21
f 24/24/24 23/23/23 21/21/21
