g Barrel1
v 13.8014 0.999999 6.97224
v 13.3014 0.9999992 7.472239
v 13.3014 0.999999 6.972239
v 13.8014 0.9999992 7.47224
v 13.8014 0.9999965 -8.572021
v 13.3014 0.9999967 -8.072022
v 13.3014 0.9999965 -8.572023
v 13.8014 0.9999967 -8.072021
v 13.8014 0.9999955 -14.72854
v 13.3014 0.9999957 -14.22854
v 13.3014 0.9999955 -14.72854
v 13.8014 0.9999957 -14.22854
v 11.49127 0.9999954 -15.61754
v 11.99127 0.9999955 -15.11754
v 11.49127 0.9999954 -15.11754
v 11.99127 0.9999954 -15.61754
v -10.77876 0.9999968 -7.068087
v -10.27876 0.9999968 -7.568086
v -10.27876 0.9999967 -7.068086
v -10.77876 0.9999967 -7.568088
v -10.4662 1.000001 18.45586
v -10.40457 1.000001 17.75144
v -10.08317 1.000001 18.13446
v -10.78759 1.000001 18.07284
v 13.8014 -1.068115E-06 6.97224
v 13.3014 0.999999 6.972239
v 13.3014 -1.068115E-06 6.972239
v 13.8014 0.999999 6.97224
v 13.3014 -1.068115E-06 6.972239
v 13.3014 0.9999992 7.472239
v 13.3014 -8.010864E-07 7.47224
v 13.3014 0.999999 6.972239
v 13.3014 -8.010864E-07 7.47224
v 13.8014 0.9999992 7.47224
v 13.8014 -8.010864E-07 7.47224
v 13.3014 0.9999992 7.472239
v 13.8014 -3.623962E-06 -8.572021
v 13.3014 0.9999965 -8.572023
v 13.3014 -3.623962E-06 -8.572023
v 13.8014 0.9999965 -8.572021
v 13.3014 -3.623962E-06 -8.572023
v 13.3014 0.9999967 -8.072022
v 13.3014 -3.318787E-06 -8.072021
v 13.3014 0.9999965 -8.572023
v 13.3014 -3.318787E-06 -8.072021
v 13.8014 0.9999967 -8.072021
v 13.8014 -3.318787E-06 -8.072021
v 13.3014 0.9999967 -8.072022
v 13.8014 -4.615783E-06 -14.72854
v 13.3014 0.9999955 -14.72854
v 13.3014 -4.615783E-06 -14.72854
v 13.8014 0.9999955 -14.72854
v 13.3014 -4.615783E-06 -14.72854
v 13.3014 0.9999957 -14.22854
v 13.3014 -4.348755E-06 -14.22854
v 13.3014 0.9999955 -14.72854
v 13.3014 -4.348755E-06 -14.22854
v 13.8014 0.9999957 -14.22854
v 13.8014 -4.348755E-06 -14.22854
v 13.3014 0.9999957 -14.22854
v 11.49127 -4.768372E-06 -15.61754
v 11.49127 0.9999954 -15.11754
v 11.49127 -4.692078E-06 -15.11754
v 11.49127 0.9999954 -15.61754
v 11.49127 -4.692078E-06 -15.11754
v 11.99127 0.9999955 -15.11754
v 11.99127 -4.501343E-06 -15.11754
v 11.49127 0.9999954 -15.11754
v 11.99127 -4.501343E-06 -15.11754
v 11.99127 0.9999954 -15.61754
v 11.99127 -4.577636E-06 -15.61754
v 11.99127 0.9999955 -15.11754
v -10.77876 -3.318787E-06 -7.068087
v -10.27876 0.9999967 -7.068086
v -10.27876 -3.318787E-06 -7.068086
v -10.77876 0.9999968 -7.068087
v -10.27876 -3.318787E-06 -7.068086
v -10.27876 0.9999968 -7.568086
v -10.27876 -3.204346E-06 -7.568087
v -10.27876 0.9999967 -7.068086
v -10.27876 -3.204346E-06 -7.568087
v -10.77876 0.9999967 -7.568088
v -10.77876 -3.204346E-06 -7.568087
v -10.27876 0.9999968 -7.568086
v -10.4662 8.392334E-07 18.45586
v -10.08317 1.000001 18.13446
v -10.08317 7.629394E-07 18.13446
v -10.4662 1.000001 18.45586
v -10.08317 7.629394E-07 18.13446
v -10.40457 1.000001 17.75144
v -10.40457 9.155273E-07 17.75144
v -10.08317 1.000001 18.13446
v -10.40457 9.155273E-07 17.75144
v -10.78759 1.000001 18.07284
v -10.78759 9.536743E-07 18.07284
v -10.40457 1.000001 17.75144
vt 0 1.907349E-06
vt 1 0.999999
vt 1 -9.536743E-07
vt 0 1.000002
vt 0 1.907349E-06
vt 1 0.999999
vt 1 -9.536743E-07
vt 0 1.000002
vt 0 1.907349E-06
vt 1 0.999999
vt 1 -9.536743E-07
vt 0 1.000002
vt 0 1.907349E-06
vt 1 0.999999
vt 1 -9.536743E-07
vt 0 1.000002
vt 0 1.907349E-06
vt 1 0.999999
vt 1 -9.536743E-07
vt 0 1.000002
vt 0 1.907349E-06
vt 1 0.999999
vt 1 -9.536743E-07
vt 0 1.000002
vt -0.0625 2
vt 1 0.125
vt 1 2
vt -0.0625 0.125
vt 1 2
vt -0.0625 0.125
vt -0.0625 2
vt 1 0.125
vt 1 2
vt -0.0625 0.125
vt -0.0625 2
vt 1 0.125
vt -0.0625 2
vt 1 0.125
vt 1 2
vt -0.0625 0.125
vt 1 2
vt -0.0625 0.125
vt -0.0625 2
vt 1 0.125
vt 1 2
vt -0.0625 0.125
vt -0.0625 2
vt 1 0.125
vt -0.0625 2
vt 1 0.125
vt 1 2
vt -0.0625 0.125
vt 1 2
vt -0.0625 0.125
vt -0.0625 2
vt 1 0.125
vt 1 2
vt -0.0625 0.125
vt -0.0625 2
vt 1 0.125
vt -0.0625 2
vt 1 0.125
vt 1 2
vt -0.0625 0.125
vt 1 2
vt -0.0625 0.125
vt -0.0625 2
vt 1 0.125
vt 1 2
vt -0.0625 0.125
vt -0.0625 2
vt 1 0.125
vt -0.0625 2
vt 1 0.125
vt 1 2
vt -0.0625 0.125
vt 1 2
vt -0.0625 0.125
vt -0.0625 2
vt 1 0.125
vt 1 2
vt -0.0625 0.125
vt -0.0625 2
vt 1 0.125
vt -0.0625 2
vt 1 0.125
vt 1 2
vt -0.0625 0.125
vt 1 2
vt -0.0625 0.125
vt -0.0625 2
vt 1 0.125
vt 1 2
vt -0.0625 0.125
vt -0.0625 2
vt 1 0.125
vn 0 1 0
vn 0 1 0
vn 0 1 0
vn 0 1 0
vn 0 1 0
vn 0 1 0
vn 0 1 0
vn 0 1 0
vn 0 1 0
vn 0 1 0
vn 0 1 0
vn 0 1 0
vn 0 1 0
vn 0 1 0
vn 0 1 0
vn 0 1 0
vn 0 1 0
vn 0 1 0
vn 0 1 0
vn 0 1 0
vn 0 1 0
vn 0 1 0
vn 0 1 0
vn 0 1 0
vn 0 0 -1
vn 0 0 -1
vn 0 0 -1
vn 0 0 -1
vn -1 0 0
vn -1 0 0
vn -1 0 0
vn -1 0 0
vn 0 0 1
vn 0 0 1
vn 0 0 1
vn 0 0 1
vn 0 0 -1
vn 0 0 -1
vn 0 0 -1
vn 0 0 -1
vn -1 0 0
vn -1 0 0
vn -1 0 0
vn -1 0 0
vn 0 0 1
vn 0 0 1
vn 0 0 1
vn 0 0 1
vn 0 0 -1
vn 0 0 -1
vn 0 0 -1
vn 0 0 -1
vn -1 0 0
vn -1 0 0
vn -1 0 0
vn -1 0 0
vn 0 0 1
vn 0 0 1
vn 0 0 1
vn 0 0 1
vn -1 0 0
vn -1 0 0
vn -1 0 0
vn -1 0 0
vn 0 0 1
vn 0 0 1
vn 0 0 1
vn 0 0 1
vn 1 0 0
vn 1 0 0
vn 1 0 0
vn 1 0 0
vn 0 0 1
vn 0 0 1
vn 0 0 1
vn 0 0 1
vn 1 0 0
vn 1 0 0
vn 1 0 0
vn 1 0 0
vn 0 0 -1
vn 0 0 -1
vn 0 0 -1
vn 0 0 -1
vn 0.6427864 0 0.7660455
vn 0.6427864 0 0.7660455
vn 0.6427864 0 0.7660455
vn 0.6427864 0 0.7660455
vn 0.7660438 0 -0.6427883
vn 0.7660438 0 -0.6427883
vn 0.7660432 0 -0.642789
vn 0.7660444 0 -0.6427876
vn -0.6427864 0 -0.7660455
vn -0.6427864 0 -0.7660455
vn -0.6427876 0 -0.7660444
vn -0.6427853 0 -0.7660464
g Barrel1_0
f 3/3/3 2/2/2 1/1/1
f 4/4/4 1/1/1 2/2/2
f 7/7/7 6/6/6 5/5/5
f 8/8/8 5/5/5 6/6/6
f 11/11/11 10/10/10 9/9/9
f 12/12/12 9/9/9 10/10/10
f 15/15/15 14/14/14 13/13/13
f 16/16/16 13/13/13 14/14/14
f 19/19/19 18/18/18 17/17/17
f 20/20/20 17/17/17 18/18/18
f 23/23/23 22/22/22 21/21/21
f 24/24/24 21/21/21 22/22/22
g Barrel1_1
f 27/27/27 26/26/26 25/25/25
f 28/28/28 25/25/25 26/26/26
f 31/31/31 30/30/30 29/29/29
f 32/32/32 29/29/29 30/30/30
f 35/35/35 34/34/34 33/33/33
f 36/36/36 33/33/33 34/34/34
f 39/39/39 38/38/38 37/37/37
f 40/40/40 37/37/37 38/38/38
f 43/43/43 42/42/42 41/41/41
f 44/44/44 41/41/41 42/42/42
f 47/47/47 46/46/46 45/45/45
f 48/48/48 45/45/45 46/46/46
f 51/51/51 50/50/50 49/49/49
f 52/52/52 49/49/49 50/50/50
f 55/55/55 54/54/54 53/53/53
f 56/56/56 53/53/53 54/54/54
f 59/59/59 58/58/58 57/57/57
f 60/60/60 57/57/57 58/58/58
f 63/63/63 62/62/62 61/61/61
f 64/64/64 61/61/61 62/62/62
f 67/67/67 66/66/66 65/65/65
f 68/68/68 65/65/65 66/66/66
f 71/71/71 70/70/70 69/69/69
f 72/72/72 69/69/69 70/70/70
f 75/75/75 74/74/74 73/73/73
f 76/76/76 73/73/73 74/74/74
f 79/79/79 78/78/78 77/77/77
f 80/80/80 77/77/77 78/78/78
f 83/83/83 82/82/82 81/81/81
f 84/84/84 81/81/81 82/82/82
f 87/87/87 86/86/86 85/85/85
f 88/88/88 85/85/85 86/86/86
f 91/91/91 90/90/90 89/89/89
f 92/92/92 89/89/89 90/90/90
f 95/95/95 94/94/94 93/93/93
f 96/96/96 93/93/93 94/94/94
