g base_castle_3_SI
v 3.459994 2.488901 4.606647
v 3.459994 2.447859 4.719402
v 3.339999 2.447859 4.719402
v 3.339999 2.488901 4.606647
v 3.259958 2.234359 4.428856
v 3.539996 2.23436 4.428856
v 3.459994 2.488901 4.606647
v 3.339999 2.488901 4.606647
v 3.259958 2.234359 4.428856
v 3.339999 2.488901 4.606647
v 3.339999 2.447859 4.719402
v 3.259958 2.138594 4.691978
v 3.539996 2.23436 4.428856
v 3.539996 2.138595 4.691978
v 3.459994 2.447859 4.719402
v 3.459994 2.488901 4.606647
v 3.259958 2.138594 4.691978
v 3.339999 2.447859 4.719402
v 3.459994 2.447859 4.719402
v 3.539996 2.138595 4.691978
v -3.459994 2.488901 4.606647
v -3.339999 2.488901 4.606647
v -3.339999 2.447859 4.719402
v -3.459994 2.447859 4.719402
v -3.259958 2.234359 4.428856
v -3.339999 2.488901 4.606647
v -3.459994 2.488901 4.606647
v -3.539996 2.23436 4.428856
v -3.259958 2.234359 4.428856
v -3.259958 2.138594 4.691978
v -3.339999 2.447859 4.719402
v -3.339999 2.488901 4.606647
v -3.539996 2.23436 4.428856
v -3.459994 2.488901 4.606647
v -3.459994 2.447859 4.719402
v -3.539996 2.138595 4.691978
v -3.259958 2.138594 4.691978
v -3.539996 2.138595 4.691978
v -3.459994 2.447859 4.719402
v -3.339999 2.447859 4.719402
vt 9.579441 2.213292
vt 9.579441 2.438801
vt 9.819431 2.438801
vt 9.819431 2.213292
vt 9.979513 0.9687191
vt 9.419437 0.9687195
vt 9.579441 1.477802
vt 9.819431 1.477802
vt 1.857708 0.9687191
vt 2.213292 1.477802
vt 2.438801 1.395719
vt 2.383954 0.7771888
vt -0.8577084 0.9687195
vt -1.383953 0.7771893
vt -1.438801 1.395719
vt -1.213292 1.477802
vt -8.979511 0.7771888
vt -8.819431 1.395719
vt -8.579441 1.395719
vt -8.419437 0.7771893
vt 9.579441 2.213292
vt 9.819431 2.213292
vt 9.819431 2.438801
vt 9.579441 2.438801
vt 9.979513 0.9687191
vt 9.819431 1.477802
vt 9.579441 1.477802
vt 9.419437 0.9687195
vt 1.857708 0.9687191
vt 2.383954 0.7771888
vt 2.438801 1.395719
vt 2.213292 1.477802
vt -0.8577084 0.9687195
vt -1.213292 1.477802
vt -1.438801 1.395719
vt -1.383953 0.7771893
vt -8.979511 0.7771888
vt -8.419437 0.7771893
vt -8.579441 1.395719
vt -8.819431 1.395719
vn 0 0.9396874 0.3420347
vn 0 0.9396874 0.3420347
vn 0 0.9396874 0.3420347
vn 0 0.9396874 0.3420347
vn -9.750423E-07 0.5726249 -0.8198175
vn -9.750423E-07 0.5726249 -0.8198175
vn -9.750423E-07 0.5726249 -0.8198175
vn -9.750423E-07 0.5726249 -0.8198175
vn -0.9662017 0.2422419 0.08816548
vn -0.9662017 0.2422419 0.08816548
vn -0.9662017 0.2422419 0.08816548
vn -0.9662017 0.2422419 0.08816548
vn 0.966233 0.2421318 0.08812539
vn 0.966233 0.2421318 0.08812539
vn 0.966233 0.2421318 0.08812539
vn 0.966233 0.2421318 0.08812539
vn 1.504009E-07 -0.08832771 0.9960914
vn 1.504009E-07 -0.08832771 0.9960914
vn 1.504009E-07 -0.08832771 0.9960914
vn 1.504009E-07 -0.08832771 0.9960914
vn 0 0.9396874 0.3420347
vn 0 0.9396874 0.3420347
vn 0 0.9396874 0.3420347
vn 0 0.9396874 0.3420347
vn 9.750423E-07 0.5726249 -0.8198175
vn 9.750423E-07 0.5726249 -0.8198175
vn 9.750423E-07 0.5726249 -0.8198175
vn 9.750423E-07 0.5726249 -0.8198175
vn 0.9662017 0.2422419 0.08816548
vn 0.9662017 0.2422419 0.08816548
vn 0.9662017 0.2422419 0.08816548
vn 0.9662017 0.2422419 0.08816548
vn -0.966233 0.2421318 0.08812539
vn -0.966233 0.2421318 0.08812539
vn -0.966233 0.2421318 0.08812539
vn -0.966233 0.2421318 0.08812539
vn -1.504009E-07 -0.08832771 0.9960914
vn -1.504009E-07 -0.08832771 0.9960914
vn -1.504009E-07 -0.08832771 0.9960914
vn -1.504009E-07 -0.08832771 0.9960914
g base_castle_3_SI_0
f 3/3/3 2/2/2 1/1/1
f 4/4/4 3/3/3 1/1/1
f 7/7/7 6/6/6 5/5/5
f 8/8/8 7/7/7 5/5/5
f 11/11/11 10/10/10 9/9/9
f 12/12/12 11/11/11 9/9/9
f 15/15/15 14/14/14 13/13/13
f 16/16/16 15/15/15 13/13/13
f 19/19/19 18/18/18 17/17/17
f 20/20/20 19/19/19 17/17/17
f 23/23/23 22/22/22 21/21/21
f 24/24/24 23/23/23 21/21/21
f 27/27/27 26/26/26 25/25/25
f 28/28/28 27/27/27 25/25/25
f 31/31/31 30/30/30 29/29/29
f 32/32/32 31/31/31 29/29/29
f 35/35/35 34/34/34 33/33/33
f 36/36/36 35/35/35 33/33/33
f 39/39/39 38/38/38 37/37/37
f 40/40/40 39/39/39 37/37/37
