g black_bullet_car_wheel_mesh
v 0.05907394 0.5080729 9.425363E-08
v -0.3800804 0.4391545 0.2634927
v -0.3800804 0.5080728 7.218686E-08
v 0.05907394 0.4391545 0.2634927
v 0.05907394 0.4391545 -0.2634926
v -0.3800804 0.2634926 -0.4391544
v 0.05907394 0.2634926 -0.4391544
v -0.3800804 0.4391545 -0.2634926
v 0.05907394 0.2634926 0.4391545
v -0.3800804 0.4391545 0.2634927
v 0.05907394 0.4391545 0.2634927
v -0.3800804 0.2634926 0.4391545
v -0.3800804 -0.5080729 -8.228051E-08
v 0.05907394 -0.4391545 0.2634926
v 0.05907394 -0.5080729 -1.043473E-07
v -0.3800804 -0.4391545 0.2634926
v -0.3800804 -0.4391545 -0.2634927
v 0.05907394 -0.2634926 -0.4391545
v -0.3800804 -0.2634926 -0.4391545
v 0.05907394 -0.4391545 -0.2634927
v -0.3800804 -0.2634926 0.4391543
v 0.05907394 -0.4391545 0.2634926
v -0.3800804 -0.4391545 0.2634926
v 0.05907394 -0.2634926 0.4391543
v -0.3800804 -2.60728E-09 0.5080727
v 0.05907394 0.2634926 0.4391545
v 0.05907394 4.052327E-10 0.5080727
v -0.3800804 0.2634926 0.4391545
v -0.3800804 -2.607275E-09 -0.5080728
v 0.05907394 -0.2634926 -0.4391545
v 0.05907394 4.05235E-10 -0.5080728
v -0.3800804 -0.2634926 -0.4391545
v 0.05907394 0.4391545 -0.2634926
v 0.05907394 -4.577637E-07 -3.814697E-08
v 0.05907394 0.5080729 9.425363E-08
v 0.05907394 0.2634926 -0.4391544
v 0.05907394 0.4391545 0.2634927
v 0.05907394 0.2634926 0.4391545
v 0.05907394 4.052327E-10 0.5080727
v 0.05907394 4.05235E-10 -0.5080728
v 0.05907394 -0.2634926 -0.4391545
v 0.05907394 -0.4391545 -0.2634927
v 0.05907394 -0.5080729 -1.043473E-07
v 0.05907394 -0.4391545 0.2634926
v 0.05907394 -0.2634926 0.4391543
v -0.3800804 0.4391545 0.2634927
v -0.3800804 -4.577637E-07 -3.814697E-08
v -0.3800804 0.5080728 7.218686E-08
v -0.3800804 0.2634926 0.4391545
v -0.3800804 0.4391545 -0.2634926
v -0.3800804 0.2634926 -0.4391544
v -0.3800804 -2.607275E-09 -0.5080728
v -0.3800804 -0.2634926 -0.4391545
v -0.3800804 -0.4391545 -0.2634927
v -0.3800804 -0.5080729 -8.228051E-08
v -0.3800804 -0.4391545 0.2634926
v -0.3800804 -0.2634926 0.4391543
v -0.3800804 -2.60728E-09 0.5080727
v -0.4679114 0.2634926 -0.08783085
v -0.3800804 0.2634926 0.08783092
v -0.4679114 0.2634926 0.08783092
v -0.3800804 0.2634926 -0.08783085
v -0.4679114 0.1756618 -0.1756617
v -0.3800804 0.1756618 -0.08783085
v -0.4679114 0.1756618 -0.08783085
v -0.3800804 0.1756618 -0.1756617
v -0.4679114 0.1756618 0.08783092
v -0.3800804 0.1756618 0.1756618
v -0.4679114 0.1756618 0.1756618
v -0.3800804 0.1756618 0.08783092
v -0.4679114 0.08783096 -0.2634926
v -0.3800804 0.08783096 -0.1756617
v -0.4679114 0.08783096 -0.1756617
v -0.3800804 0.08783096 -0.2634926
v -0.4679114 0.08783096 0.1756618
v -0.3800804 0.08783096 0.2634927
v -0.4679114 0.08783096 0.2634927
v -0.3800804 0.08783096 0.1756618
v -0.3800804 -0.2634926 -0.08783092
v -0.4679114 -0.2634926 0.08783085
v -0.3800804 -0.2634926 0.08783085
v -0.4679114 -0.2634926 -0.08783092
v -0.3800804 -0.08783096 -0.2634927
v -0.4679114 -0.08783096 -0.1756618
v -0.3800804 -0.08783096 -0.1756618
v -0.4679114 -0.08783096 -0.2634927
v -0.3800804 -0.08783096 0.1756618
v -0.4679114 -0.08783096 0.2634926
v -0.3800804 -0.08783096 0.2634926
v -0.4679114 -0.08783096 0.1756618
v -0.3800804 -0.1756618 -0.1756618
v -0.4679114 -0.1756618 -0.08783089
v -0.3800804 -0.1756618 -0.08783089
v -0.4679114 -0.1756618 -0.1756618
v -0.3800804 -0.1756618 0.08783089
v -0.4679114 -0.1756618 0.1756618
v -0.3800804 -0.1756618 0.1756618
v -0.4679114 -0.1756618 0.08783089
v -0.3800804 -0.08783096 0.2634926
v -0.4679114 0.08783096 0.2634927
v -0.3800804 0.08783096 0.2634927
v -0.4679114 -0.08783096 0.2634926
v -0.3800804 0.1756618 0.08783092
v -0.4679114 0.2634926 0.08783092
v -0.3800804 0.2634926 0.08783092
v -0.4679114 0.1756618 0.08783092
v -0.3800804 0.08783096 0.1756618
v -0.4679114 0.1756618 0.1756618
v -0.3800804 0.1756618 0.1756618
v -0.4679114 0.08783096 0.1756618
v -0.3800804 -0.1756618 0.1756618
v -0.4679114 -0.08783096 0.1756618
v -0.3800804 -0.08783096 0.1756618
v -0.4679114 -0.1756618 0.1756618
v -0.3800804 -0.2634926 0.08783085
v -0.4679114 -0.1756618 0.08783089
v -0.3800804 -0.1756618 0.08783089
v -0.4679114 -0.2634926 0.08783085
v -0.3800804 0.08783096 -0.2634926
v -0.4679114 -0.08783096 -0.2634927
v -0.3800804 -0.08783096 -0.2634927
v -0.4679114 0.08783096 -0.2634926
v -0.3800804 0.2634926 -0.08783085
v -0.4679114 0.1756618 -0.08783085
v -0.3800804 0.1756618 -0.08783085
v -0.4679114 0.2634926 -0.08783085
v -0.3800804 0.1756618 -0.1756617
v -0.4679114 0.08783096 -0.1756617
v -0.3800804 0.08783096 -0.1756617
v -0.4679114 0.1756618 -0.1756617
v -0.3800804 -0.08783096 -0.1756618
v -0.4679114 -0.1756618 -0.1756618
v -0.3800804 -0.1756618 -0.1756618
v -0.4679114 -0.08783096 -0.1756618
v -0.3800804 -0.1756618 -0.08783089
v -0.4679114 -0.2634926 -0.08783092
v -0.3800804 -0.2634926 -0.08783092
v -0.4679114 -0.1756618 -0.08783089
v -0.4679114 0.1756618 -0.08783085
v -0.4679114 -1.525879E-07 3.814697E-08
v -0.4679114 0.08783096 -0.1756617
v -0.4679114 -0.08783096 -0.1756618
v -0.4679114 0.1756618 0.08783092
v -0.4679114 0.08783096 0.1756618
v -0.4679114 -0.08783096 0.1756618
v -0.4679114 -0.1756618 0.08783089
v -0.4679114 -0.1756618 -0.08783089
v -0.4679114 -0.08783096 0.2634926
v -0.4679114 0.08783096 0.2634927
v -0.4679114 -0.2634926 -0.08783092
v -0.4679114 -0.2634926 0.08783085
v -0.4679114 0.2634926 0.08783092
v -0.4679114 0.2634926 -0.08783085
v -0.4679114 0.08783096 -0.2634926
v -0.4679114 -0.08783096 -0.2634927
v -0.4679114 -0.1756618 0.1756618
v -0.4679114 0.1756618 0.1756618
v -0.4679114 -0.1756618 -0.1756618
v -0.4679114 0.1756618 -0.1756617
v 0.05907394 0.4391545 -0.2634926
v -0.3800804 0.5080728 7.218686E-08
v -0.3800804 0.4391545 -0.2634926
v 0.05907394 0.5080729 9.425363E-08
v -0.3800804 -0.4391545 -0.2634927
v 0.05907394 -0.5080729 -1.043473E-07
v 0.05907394 -0.4391545 -0.2634927
v -0.3800804 -0.5080729 -8.228051E-08
v -0.3800804 -0.2634926 0.4391543
v 0.05907394 4.052327E-10 0.5080727
v 0.05907394 -0.2634926 0.4391543
v -0.3800804 -2.60728E-09 0.5080727
v -0.3800804 0.2634926 -0.4391544
v 0.05907394 4.05235E-10 -0.5080728
v 0.05907394 0.2634926 -0.4391544
v -0.3800804 -2.607275E-09 -0.5080728
vt 0.8515625 0.046875
vt 0.8125 0.0234375
vt 0.8125 0.046875
vt 0.8515625 0.0234375
vt 0.8515625 0.0703125
vt 0.8125 0.1015625
vt 0.8515625 0.1015625
vt 0.8125 0.0703125
vt 0.8125 0.0703125
vt 0.8515625 0.1015625
vt 0.8125 0.1015625
vt 0.8515625 0.0703125
vt 0.8125 0.046875
vt 0.8515625 0.0703125
vt 0.8515625 0.046875
vt 0.8125 0.0703125
vt 0.8515625 0.1015625
vt 0.8125 0.0703125
vt 0.8515625 0.0703125
vt 0.8125 0.1015625
vt 0.8125 0.1015625
vt 0.8515625 0.0703125
vt 0.8125 0.0703125
vt 0.8515625 0.1015625
vt 0.8515625 0.046875
vt 0.8125 0.0703125
vt 0.8125 0.046875
vt 0.8515625 0.0703125
vt 0.8515625 0.046875
vt 0.8125 0.0703125
vt 0.8125 0.046875
vt 0.8515625 0.0703125
vt 0.9296875 0.0234375
vt 0.890625 0.046875
vt 0.9358177 0.046875
vt 0.9140625 0.0078125
vt 0.9296875 0.0703125
vt 0.9140625 0.0859375
vt 0.890625 0.09206773
vt 0.890625 0.001682258
vt 0.8671875 0.0078125
vt 0.8515625 0.0234375
vt 0.8454323 0.046875
vt 0.8515625 0.0703125
vt 0.8671875 0.0859375
vt 0.9296875 0.0703125
vt 0.890625 0.046875
vt 0.9358177 0.046875
vt 0.9140625 0.0859375
vt 0.9296875 0.0234375
vt 0.9140625 0.0078125
vt 0.890625 0.001682258
vt 0.8671875 0.0078125
vt 0.8515625 0.0234375
vt 0.8454323 0.046875
vt 0.8515625 0.0703125
vt 0.8671875 0.0859375
vt 0.890625 0.09206773
vt 0.5151151 0.1077319
vt 0.5307401 0.09991944
vt 0.5307401 0.1077319
vt 0.5151151 0.09991944
vt 0.5073026 0.1077319
vt 0.5151151 0.09991944
vt 0.5151151 0.1077319
vt 0.5073026 0.09991944
vt 0.5307401 0.1077319
vt 0.5385526 0.09991944
vt 0.5385526 0.1077319
vt 0.5307401 0.09991944
vt 0.4994901 0.1077319
vt 0.5073026 0.09991944
vt 0.5073026 0.1077319
vt 0.4994901 0.09991944
vt 0.5385526 0.1077319
vt 0.5463651 0.09991944
vt 0.5463651 0.1077319
vt 0.5385526 0.09991944
vt 0.5307401 0.09991944
vt 0.5151151 0.1077319
vt 0.5151151 0.09991944
vt 0.5307401 0.1077319
vt 0.5463651 0.09991944
vt 0.5385526 0.1077319
vt 0.5385526 0.09991944
vt 0.5463651 0.1077319
vt 0.5073026 0.09991944
vt 0.4994901 0.1077319
vt 0.4994901 0.09991944
vt 0.5073026 0.1077319
vt 0.5385526 0.09991944
vt 0.5307401 0.1077319
vt 0.5307401 0.09991944
vt 0.5385526 0.1077319
vt 0.5151151 0.09991944
vt 0.5073026 0.1077319
vt 0.5073026 0.09991944
vt 0.5151151 0.1077319
vt 0.5307401 0.1077319
vt 0.5151151 0.09991944
vt 0.5151151 0.1077319
vt 0.5307401 0.09991944
vt 0.5073026 0.1077319
vt 0.4994901 0.09991944
vt 0.4994901 0.1077319
vt 0.5073026 0.09991944
vt 0.5151151 0.1077319
vt 0.5073026 0.09991944
vt 0.5073026 0.1077319
vt 0.5151151 0.09991944
vt 0.5385526 0.1077319
vt 0.5307401 0.09991944
vt 0.5307401 0.1077319
vt 0.5385526 0.09991944
vt 0.5463651 0.1077319
vt 0.5385526 0.09991944
vt 0.5385526 0.1077319
vt 0.5463651 0.09991944
vt 0.5151151 0.09991944
vt 0.5307401 0.1077319
vt 0.5307401 0.09991944
vt 0.5151151 0.1077319
vt 0.4994901 0.09991944
vt 0.5073026 0.1077319
vt 0.5073026 0.09991944
vt 0.4994901 0.1077319
vt 0.5073026 0.09991944
vt 0.5151151 0.1077319
vt 0.5151151 0.09991944
vt 0.5073026 0.1077319
vt 0.5307401 0.09991944
vt 0.5385526 0.1077319
vt 0.5385526 0.09991944
vt 0.5307401 0.1077319
vt 0.5385526 0.09991944
vt 0.5463651 0.1077319
vt 0.5463651 0.09991944
vt 0.5385526 0.1077319
vt 0.875 0.0390625
vt 0.8906075 0.04712701
vt 0.8828125 0.03125
vt 0.8984375 0.03125
vt 0.875 0.0546875
vt 0.8828125 0.0625
vt 0.8984375 0.0625
vt 0.90625 0.0546875
vt 0.90625 0.0390625
vt 0.8984375 0.0703125
vt 0.8828125 0.0703125
vt 0.9140625 0.0390625
vt 0.9140625 0.0546875
vt 0.8671875 0.0546875
vt 0.8671875 0.0390625
vt 0.8828125 0.0234375
vt 0.8984375 0.0234375
vt 0.90625 0.0625
vt 0.875 0.0625
vt 0.90625 0.03125
vt 0.875 0.03125
vt 0.8515625 0.0703125
vt 0.8125 0.046875
vt 0.8125 0.0703125
vt 0.8515625 0.046875
vt 0.8125 0.0234375
vt 0.8515625 0.046875
vt 0.8515625 0.0234375
vt 0.8125 0.046875
vt 0.8515625 0.0234375
vt 0.8125 0.046875
vt 0.8125 0.0234375
vt 0.8515625 0.046875
vt 0.8515625 0.0234375
vt 0.8125 0.046875
vt 0.8125 0.0234375
vt 0.8515625 0.046875
vn 0 0.9674546 0.2530444
vn 0 0.9674546 0.2530445
vn 0 0.9674546 0.2530444
vn 0 0.9674546 0.2530445
vn 0 0.7071066 -0.7071069
vn 0 0.7071066 -0.7071069
vn 0 0.7071066 -0.7071069
vn 0 0.7071066 -0.7071069
vn 0 0.7071065 0.7071071
vn 0 0.7071065 0.7071071
vn 0 0.7071065 0.7071071
vn 0 0.7071065 0.7071071
vn 0 -0.9674546 0.2530445
vn 0 -0.9674546 0.2530445
vn 0 -0.9674546 0.2530445
vn 0 -0.9674546 0.2530447
vn 0 -0.7071065 -0.7071071
vn 0 -0.7071065 -0.7071071
vn 0 -0.7071065 -0.7071071
vn 0 -0.7071065 -0.7071071
vn 0 -0.7071065 0.7071071
vn 0 -0.7071065 0.7071071
vn 0 -0.7071065 0.7071071
vn 0 -0.7071065 0.7071071
vn 0 0.2530443 0.9674547
vn 0 0.2530443 0.9674547
vn 0 0.2530443 0.9674547
vn 0 0.2530443 0.9674547
vn 0 -0.2530444 -0.9674546
vn 0 -0.2530444 -0.9674546
vn 0 -0.2530445 -0.9674546
vn 0 -0.2530445 -0.9674546
vn 1 0 0
vn 1 0 0
vn 1 0 0
vn 1 0 0
vn 1 0 0
vn 1 0 0
vn 1 0 0
vn 1 0 0
vn 1 0 0
vn 1 0 0
vn 1 0 0
vn 1 0 0
vn 1 0 0
vn -1 0 0
vn -1 0 0
vn -1 0 0
vn -1 0 0
vn -1 0 0
vn -1 0 0
vn -1 0 0
vn -1 0 0
vn -1 0 0
vn -1 0 0
vn -1 0 0
vn -1 0 0
vn -1 0 0
vn 0 1 0
vn 0 1 0
vn 0 1 0
vn 0 1 0
vn 0 1 0
vn 0 1 0
vn 0 1 0
vn 0 1 0
vn 0 1 0
vn 0 1 0
vn 0 1 0
vn 0 1 0
vn 0 1 0
vn 0 1 0
vn 0 1 0
vn 0 1 0
vn 0 1 0
vn 0 1 0
vn 0 1 0
vn 0 1 0
vn 0 -1 0
vn 0 -1 0
vn 0 -1 0
vn 0 -1 0
vn 0 -1 0
vn 0 -1 0
vn 0 -1 0
vn 0 -1 0
vn 0 -1 0
vn 0 -1 0
vn 0 -1 0
vn 0 -1 0
vn 0 -1 0
vn 0 -1 0
vn 0 -1 0
vn 0 -1 0
vn 0 -1 0
vn 0 -1 0
vn 0 -1 0
vn 0 -1 0
vn 0 -4.343226E-07 1
vn 0 -4.343227E-07 1
vn 0 -4.343226E-07 1
vn 0 -4.343226E-07 1
vn 0 0 1
vn 0 0 1
vn 0 0 1
vn 0 0 1
vn 0 0 1
vn 0 0 1
vn 0 0 1
vn 0 0 1
vn 0 0 1
vn 0 0 1
vn 0 0 1
vn 0 0 1
vn 0 -4.343234E-07 1
vn 0 -4.343233E-07 1
vn 0 -4.343234E-07 1
vn 0 -4.343234E-07 1
vn 0 2.171613E-07 -1
vn 0 2.171613E-07 -1
vn 0 2.171613E-07 -1
vn 0 2.171613E-07 -1
vn 0 0 -1
vn 0 0 -1
vn 0 0 -1
vn 0 0 -1
vn 0 0 -1
vn 0 0 -1
vn 0 0 -1
vn 0 0 -1
vn 0 0 -1
vn 0 0 -1
vn 0 0 -1
vn 0 0 -1
vn 0 4.343234E-07 -1
vn 0 4.343233E-07 -1
vn 0 4.343234E-07 -1
vn 0 4.343234E-07 -1
vn -1 0 0
vn -1 0 0
vn -1 0 0
vn -1 0 0
vn -1 0 0
vn -1 0 0
vn -1 0 0
vn -1 0 0
vn -1 0 0
vn -1 0 0
vn -1 0 0
vn -1 0 0
vn -1 0 0
vn -1 0 0
vn -1 0 0
vn -1 0 0
vn -1 0 0
vn -1 0 0
vn -1 0 0
vn -1 0 0
vn -1 0 0
vn 0 0.9674547 -0.2530444
vn 0 0.9674547 -0.2530444
vn 0 0.9674547 -0.2530444
vn 0 0.9674546 -0.2530445
vn 0 -0.9674546 -0.2530445
vn 0 -0.9674546 -0.2530446
vn 0 -0.9674546 -0.2530445
vn 0 -0.9674546 -0.2530446
vn 0 -0.2530449 0.9674546
vn 0 -0.2530448 0.9674546
vn 0 -0.2530448 0.9674546
vn 0 -0.2530448 0.9674546
vn 0 0.2530447 -0.9674546
vn 0 0.2530447 -0.9674546
vn 0 0.2530447 -0.9674546
vn 0 0.2530447 -0.9674546
g black_bullet_car_wheel_mesh_0
f 3/3/3 2/2/2 1/1/1
f 4/4/4 1/1/1 2/2/2
f 7/7/7 6/6/6 5/5/5
f 8/8/8 5/5/5 6/6/6
f 11/11/11 10/10/10 9/9/9
f 12/12/12 9/9/9 10/10/10
f 15/15/15 14/14/14 13/13/13
f 16/16/16 13/13/13 14/14/14
f 19/19/19 18/18/18 17/17/17
f 20/20/20 17/17/17 18/18/18
f 23/23/23 22/22/22 21/21/21
f 24/24/24 21/21/21 22/22/22
f 27/27/27 26/26/26 25/25/25
f 28/28/28 25/25/25 26/26/26
f 31/31/31 30/30/30 29/29/29
f 32/32/32 29/29/29 30/30/30
f 35/35/35 34/34/34 33/33/33
f 33/33/33 34/34/34 36/36/36
f 37/37/37 34/34/34 35/35/35
f 38/38/38 34/34/34 37/37/37
f 39/39/39 34/34/34 38/38/38
f 36/36/36 34/34/34 40/40/40
f 40/40/40 34/34/34 41/41/41
f 41/41/41 34/34/34 42/42/42
f 42/42/42 34/34/34 43/43/43
f 43/43/43 34/34/34 44/44/44
f 44/44/44 34/34/34 45/45/45
f 45/45/45 34/34/34 39/39/39
f 48/48/48 47/47/47 46/46/46
f 46/46/46 47/47/47 49/49/49
f 50/50/50 47/47/47 48/48/48
f 51/51/51 47/47/47 50/50/50
f 52/52/52 47/47/47 51/51/51
f 53/53/53 47/47/47 52/52/52
f 54/54/54 47/47/47 53/53/53
f 55/55/55 47/47/47 54/54/54
f 56/56/56 47/47/47 55/55/55
f 57/57/57 47/47/47 56/56/56
f 58/58/58 47/47/47 57/57/57
f 49/49/49 47/47/47 58/58/58
f 61/61/61 60/60/60 59/59/59
f 62/62/62 59/59/59 60/60/60
f 65/65/65 64/64/64 63/63/63
f 66/66/66 63/63/63 64/64/64
f 69/69/69 68/68/68 67/67/67
f 70/70/70 67/67/67 68/68/68
f 73/73/73 72/72/72 71/71/71
f 74/74/74 71/71/71 72/72/72
f 77/77/77 76/76/76 75/75/75
f 78/78/78 75/75/75 76/76/76
f 81/81/81 80/80/80 79/79/79
f 82/82/82 79/79/79 80/80/80
f 85/85/85 84/84/84 83/83/83
f 86/86/86 83/83/83 84/84/84
f 89/89/89 88/88/88 87/87/87
f 90/90/90 87/87/87 88/88/88
f 93/93/93 92/92/92 91/91/91
f 94/94/94 91/91/91 92/92/92
f 97/97/97 96/96/96 95/95/95
f 98/98/98 95/95/95 96/96/96
f 101/101/101 100/100/100 99/99/99
f 102/102/102 99/99/99 100/100/100
f 105/105/105 104/104/104 103/103/103
f 106/106/106 103/103/103 104/104/104
f 109/109/109 108/108/108 107/107/107
f 110/110/110 107/107/107 108/108/108
f 113/113/113 112/112/112 111/111/111
f 114/114/114 111/111/111 112/112/112
f 117/117/117 116/116/116 115/115/115
f 118/118/118 115/115/115 116/116/116
f 121/121/121 120/120/120 119/119/119
f 122/122/122 119/119/119 120/120/120
f 125/125/125 124/124/124 123/123/123
f 126/126/126 123/123/123 124/124/124
f 129/129/129 128/128/128 127/127/127
f 130/130/130 127/127/127 128/128/128
f 133/133/133 132/132/132 131/131/131
f 134/134/134 131/131/131 132/132/132
f 137/137/137 136/136/136 135/135/135
f 138/138/138 135/135/135 136/136/136
f 141/141/141 140/140/140 139/139/139
f 142/142/142 140/140/140 141/141/141
f 139/139/139 140/140/140 143/143/143
f 143/143/143 140/140/140 144/144/144
f 144/144/144 140/140/140 145/145/145
f 145/145/145 140/140/140 146/146/146
f 147/147/147 140/140/140 142/142/142
f 146/146/146 140/140/140 147/147/147
f 145/145/145 148/148/148 144/144/144
f 149/149/149 144/144/144 148/148/148
f 147/147/147 150/150/150 146/146/146
f 151/151/151 146/146/146 150/150/150
f 143/143/143 152/152/152 139/139/139
f 153/153/153 139/139/139 152/152/152
f 141/141/141 154/154/154 142/142/142
f 155/155/155 142/142/142 154/154/154
f 156/156/156 145/145/145 146/146/146
f 157/157/157 143/143/143 144/144/144
f 158/158/158 147/147/147 142/142/142
f 159/159/159 141/141/141 139/139/139
f 162/162/162 161/161/161 160/160/160
f 163/163/163 160/160/160 161/161/161
f 166/166/166 165/165/165 164/164/164
f 167/167/167 164/164/164 165/165/165
f 170/170/170 169/169/169 168/168/168
f 171/171/171 168/168/168 169/169/169
f 174/174/174 173/173/173 172/172/172
f 175/175/175 172/172/172 173/173/173
