# Mesh "Body" exported with Unity Assets Bundle Extractor; 24 vertices, 36 indices, 384 bits per vertex
g Body
# SubMesh 0
# Vertices
v -0.125000 0.000000 -0.250000
vt 0.690536 0.326187
vn -0.000000 -1.000000 0.000000
v -0.125000 -0.000000 -0.000000
vt 0.690536 0.628812
vn -0.000000 -1.000000 0.000000
v 0.125000 -0.000000 -0.000000
vt 0.993161 0.628812
vn -0.000000 -1.000000 0.000000
v 0.125000 0.000000 -0.250000
vt 0.993161 0.326187
vn -0.000000 -1.000000 0.000000
v -0.125000 0.865000 -0.250000
vt 0.992850 0.985068
vn -0.000000 0.000000 -1.000000
v -0.125000 0.000000 -0.250000
vt 0.992850 0.144951
vn -0.000000 0.000000 -1.000000
v 0.125000 0.000000 -0.250000
vt 0.690847 0.144951
vn -0.000000 0.000000 -1.000000
v 0.125000 0.865000 -0.250000
vt 0.690847 0.985068
vn -0.000000 0.000000 -1.000000
v 0.125000 0.865000 -0.250000
vt 0.992850 0.985068
vn 1.000000 0.000000 0.000000
v 0.125000 0.000000 -0.250000
vt 0.992850 0.144951
vn 1.000000 0.000000 0.000000
v 0.125000 -0.000000 -0.000000
vt 0.690847 0.144951
vn 1.000000 0.000000 0.000000
v 0.125000 0.865000 -0.000000
vt 0.690847 0.985068
vn 1.000000 0.000000 0.000000
v 0.125000 0.865000 -0.000000
vt 0.992850 0.985068
vn -0.000000 0.000000 1.000000
v 0.125000 -0.000000 -0.000000
vt 0.992850 0.144951
vn -0.000000 0.000000 1.000000
v -0.125000 -0.000000 -0.000000
vt 0.690847 0.144951
vn -0.000000 0.000000 1.000000
v -0.125000 0.865000 -0.000000
vt 0.690847 0.985068
vn -0.000000 0.000000 1.000000
v -0.125000 0.865000 -0.000000
vt 0.992850 0.985068
vn -1.000000 0.000000 0.000000
v -0.125000 -0.000000 -0.000000
vt 0.992850 0.144951
vn -1.000000 0.000000 0.000000
v -0.125000 0.000000 -0.250000
vt 0.690847 0.144951
vn -1.000000 0.000000 0.000000
v -0.125000 0.865000 -0.250000
vt 0.690847 0.985068
vn -1.000000 0.000000 0.000000
v -0.125000 0.865000 -0.250000
vt 0.993862 0.325486
vn -0.000000 1.000000 0.000000
v 0.125000 0.865000 -0.250000
vt 0.689836 0.325486
vn -0.000000 1.000000 0.000000
v 0.125000 0.865000 -0.000000
vt 0.689836 0.629513
vn -0.000000 1.000000 0.000000
v -0.125000 0.865000 -0.000000
vt 0.993862 0.629513
vn -0.000000 1.000000 0.000000
# Faces (1 to 24)
g Body_0
f -22/-22/-22 -23/-23/-23 -24/-24/-24
f -21/-21/-21 -22/-22/-22 -24/-24/-24
f -18/-18/-18 -19/-19/-19 -20/-20/-20
f -17/-17/-17 -18/-18/-18 -20/-20/-20
f -14/-14/-14 -15/-15/-15 -16/-16/-16
f -13/-13/-13 -14/-14/-14 -16/-16/-16
f -10/-10/-10 -11/-11/-11 -12/-12/-12
f -9/-9/-9 -10/-10/-10 -12/-12/-12
f -6/-6/-6 -7/-7/-7 -8/-8/-8
f -5/-5/-5 -6/-6/-6 -8/-8/-8
f -2/-2/-2 -3/-3/-3 -4/-4/-4
f -1/-1/-1 -2/-2/-2 -4/-4/-4

