# Mesh "Body01" exported with Unity Assets Bundle Extractor; 24 vertices, 36 indices, 56 bytes per vertex
g Body01
# SubMesh 0
# Vertices
v 0.078740 0.157480 0.467131
vt 0.314019 0.497402
vn -0.000000 0.000000 1.000000
v -0.078740 -0.157480 0.467131
vt 0.436506 0.377340
vn -0.000000 0.000000 1.000000
v -0.078740 0.157480 0.467131
vt 0.314019 0.377340
vn -0.000000 0.000000 1.000000
v 0.078740 -0.157480 0.467131
vt 0.436506 0.497402
vn -0.000000 0.000000 1.000000
v -0.078740 -0.157480 -0.005309
vt 0.559432 0.497408
vn -0.000000 0.000000 -1.000000
v 0.078740 0.157480 -0.005309
vt 0.438580 0.379182
vn -0.000000 0.000000 -1.000000
v -0.078740 0.157480 -0.005309
vt 0.438580 0.497408
vn -0.000000 0.000000 -1.000000
v 0.078740 -0.157480 -0.005309
vt 0.559432 0.379182
vn -0.000000 0.000000 -1.000000
v -0.078740 -0.157480 0.467131
vt 0.439073 0.369815
vn -0.000000 -1.000000 0.000000
v 0.078740 -0.157480 -0.005309
vt 0.498337 0.004515
vn -0.000000 -1.000000 0.000000
v -0.078740 -0.157480 -0.005309
vt 0.439073 0.004516
vn -0.000000 -1.000000 0.000000
v 0.078740 -0.157480 0.467131
vt 0.498337 0.369815
vn -0.000000 -1.000000 0.000000
v 0.078740 -0.157480 0.467131
vt 0.623105 0.370550
vn 1.000000 0.000000 0.000000
v 0.078740 0.157480 -0.005309
vt 0.502083 0.000200
vn 1.000000 0.000000 0.000000
v 0.078740 -0.157480 -0.005309
vt 0.623105 0.000200
vn 1.000000 0.000000 0.000000
v 0.078740 0.157480 0.467131
vt 0.502083 0.370550
vn 1.000000 0.000000 0.000000
v 0.078740 0.157480 0.467131
vt 0.251894 0.372378
vn -0.000000 1.000000 0.000000
v -0.078740 0.157480 -0.005309
vt 0.311308 0.003270
vn -0.000000 1.000000 0.000000
v 0.078740 0.157480 -0.005309
vt 0.251894 0.003270
vn -0.000000 1.000000 0.000000
v -0.078740 0.157480 0.467131
vt 0.311308 0.372378
vn -0.000000 1.000000 0.000000
v -0.078740 -0.157480 -0.005309
vt 0.436695 0.003545
vn -1.000000 0.000000 0.000000
v -0.078740 0.157480 0.467131
vt 0.314145 0.372261
vn -1.000000 0.000000 0.000000
v -0.078740 -0.157480 0.467131
vt 0.436695 0.372261
vn -1.000000 0.000000 0.000000
v -0.078740 0.157480 -0.005309
vt 0.314145 0.003545
vn -1.000000 0.000000 0.000000
# Faces (1 to 24)
f -22/-22/-22 -23/-23/-23 -24/-24/-24
f -21/-21/-21 -24/-24/-24 -23/-23/-23
f -18/-18/-18 -19/-19/-19 -20/-20/-20
f -17/-17/-17 -20/-20/-20 -19/-19/-19
f -14/-14/-14 -15/-15/-15 -16/-16/-16
f -13/-13/-13 -16/-16/-16 -15/-15/-15
f -10/-10/-10 -11/-11/-11 -12/-12/-12
f -9/-9/-9 -12/-12/-12 -11/-11/-11
f -6/-6/-6 -7/-7/-7 -8/-8/-8
f -8/-8/-8 -7/-7/-7 -5/-5/-5
f -2/-2/-2 -3/-3/-3 -4/-4/-4
f -1/-1/-1 -4/-4/-4 -3/-3/-3

