# Mesh "Bone_Root" exported with Unity Assets Bundle Extractor; 4 vertices, 6 indices, 48 bytes per vertex
g Bone_Root
# SubMesh 0
# Vertices
v -0.128948 -0.043667 0.248577
vt 0.154405 0.580076
vn -0.000000 1.000000 0.000000
v 0.130180 -0.043667 0.054231
vt 0.017887 0.763838
vn -0.000000 1.000000 0.000000
v 0.130180 -0.043667 0.248577
vt 0.154405 0.763838
vn -0.000000 1.000000 0.000000
v -0.128948 -0.043667 0.054231
vt 0.017887 0.580076
vn -0.000000 1.000000 0.000000
# Faces (1 to 4)
f -2/-2/-2 -3/-3/-3 -4/-4/-4
f -1/-1/-1 -4/-4/-4 -3/-3/-3

