# Mesh "Bone_Root" exported with Unity Assets Bundle Extractor; 4 vertices, 6 indices, 48 bytes per vertex
g Bone_Root
# SubMesh 0
# Vertices
v -0.102856 0.358627 0.043068
vt 0.296875 0.218750
vn -0.000000 -0.000007 -1.000000
v -0.102856 -0.049997 0.043071
vt 0.234375 0.218750
vn -0.000000 -0.000007 -1.000000
v 0.099578 -0.049997 0.043071
vt 0.234375 0.296875
vn -0.000000 -0.000007 -1.000000
v 0.099578 0.358627 0.043068
vt 0.296875 0.296875
vn -0.000000 -0.000007 -1.000000
# Faces (1 to 4)
f -2/-2/-2 -3/-3/-3 -4/-4/-4
f -1/-1/-1 -2/-2/-2 -4/-4/-4

