g Bone_tail1
v 0 0.08159267 -0.1736524
v 0 0.04946072 -0.3419718
v 0.1160208 0.04946068 -0.3419718
v 0.1160207 0.1188762 0.02165324
v 0 0.1188763 0.02165326
v 0.1160207 -0.1204335 -0.341972
v 0.1160208 -0.1212458 0.08757062
v 0.1160207 0.1188762 0.02165324
v 0.1160208 0.04946068 -0.3419718
v 0.1160208 -0.1212458 0.08757062
v 0.1160207 -0.1204335 -0.341972
v 0 -0.1204335 -0.341972
v 0 -0.1208095 -0.1431399
v 0 -0.1212458 0.08757062
v 0.1160207 0.1188762 0.02165324
v 0.1160208 -0.1212458 0.08757062
v 0 -0.1212458 0.08757062
v 0 0.1188763 0.02165326
v 0 -0.0100951 0.05705795
v 0.1160207 -0.1204335 -0.341972
v 0.1160208 0.04946068 -0.3419718
v 0 0.04946072 -0.3419718
v 0 -0.1204335 -0.341972
v 0 -0.02918209 -0.3419719
v -0.1160207 -0.1204335 -0.341972
v -0.1160207 0.1188762 0.02165323
v -0.1160208 0.04946068 -0.3419718
v 0 0.04946072 -0.3419718
v 0 0.08159267 -0.1736524
v 0 0.1188763 0.02165326
v -0.1160207 0.1188762 0.02165323
v -0.1160208 -0.1212458 0.08757062
v -0.1160207 -0.1204335 -0.341972
v -0.1160208 0.04946068 -0.3419718
v 0 -0.1208095 -0.1431399
v 0 -0.1204335 -0.341972
v -0.1160207 -0.1204335 -0.341972
v -0.1160208 -0.1212458 0.08757062
v 0 -0.1212458 0.08757062
v -0.1160207 0.1188762 0.02165323
v 0 0.1188763 0.02165326
v 0 -0.0100951 0.05705795
v 0 -0.1212458 0.08757062
v -0.1160208 -0.1212458 0.08757062
v 0 -0.02918209 -0.3419719
v 0 0.04946072 -0.3419718
v -0.1160207 -0.1204335 -0.341972
v -0.1160208 0.04946068 -0.3419718
vt -1.477266 424.8482
vt -1.477266 509.1657
vt -59.59647 509.1657
vt -59.59644 327.0122
vt -1.477266 327.0122
vt -59.59644 509.1658
vt -59.59646 293.9917
vt -59.59644 327.0122
vt -59.59647 509.1657
vt -59.59646 293.9917
vt -59.59644 509.1658
vt -1.477264 509.1658
vt -1.477264 409.5633
vt -1.477264 293.9917
vt -59.59644 327.0122
vt -59.59646 293.9917
vt -1.477264 293.9917
vt -1.477266 327.0122
vt -1.477264 309.2766
vt -59.59644 509.1658
vt -59.59647 509.1657
vt -1.477266 509.1657
vt -1.477264 509.1658
vt -1.477264 509.1658
vt -59.59644 509.1658
vt -59.59644 327.0122
vt -59.59647 509.1657
vt -1.477266 509.1657
vt -1.477266 424.8482
vt -1.477266 327.0122
vt -59.59644 327.0122
vt -59.59646 293.9917
vt -59.59644 509.1658
vt -59.59647 509.1657
vt -1.477264 409.5633
vt -1.477264 509.1658
vt -59.59644 509.1658
vt -59.59646 293.9917
vt -1.477264 293.9917
vt -59.59644 327.0122
vt -1.477266 327.0122
vt -1.477264 309.2766
vt -1.477264 293.9917
vt -59.59646 293.9917
vt -1.477264 509.1658
vt -1.477266 509.1657
vt -59.59644 509.1658
vt -59.59647 509.1657
vn 0 0.9822623 -0.1875126
vn 0 0.9822623 -0.1875126
vn 3.191874E-07 0.9822623 -0.1875125
vn 3.191874E-07 0.9822623 -0.1875126
vn 0 0.9822623 -0.1875126
vn 1 0 0
vn 1 0 0
vn 1 0 0
vn 1 0 0
vn 0 -0.9999982 -0.001891082
vn 0 -0.9999982 -0.001891082
vn 0 -0.9999982 -0.001891082
vn 0 -0.9999982 -0.001891082
vn 0 -0.9999982 -0.001891082
vn 0 0.2647226 0.9643247
vn 0 0.2647226 0.9643247
vn 0 0.2647226 0.9643247
vn 0 0.2647226 0.9643247
vn 0 0.2647226 0.9643247
vn 1.004997E-07 6.736012E-07 -1
vn 1.004997E-07 6.736012E-07 -1
vn 0 6.736012E-07 -1
vn 0 6.736011E-07 -1
vn 0 6.736011E-07 -1
vn -1.004997E-07 6.736012E-07 -1
vn -3.033668E-07 0.9822623 -0.1875126
vn -3.033668E-07 0.9822623 -0.1875126
vn 0 0.9822623 -0.1875126
vn 0 0.9822623 -0.1875126
vn 0 0.9822623 -0.1875126
vn -1 0 0
vn -1 0 0
vn -1 0 0
vn -1 0 0
vn 0 -0.9999982 -0.001891082
vn 0 -0.9999982 -0.001891082
vn 0 -0.9999982 -0.001891082
vn 0 -0.9999982 -0.001891082
vn 0 -0.9999982 -0.001891082
vn 0 0.2647226 0.9643247
vn 0 0.2647226 0.9643247
vn 0 0.2647226 0.9643247
vn 0 0.2647226 0.9643247
vn 0 0.2647227 0.9643247
vn 0 6.736011E-07 -1
vn 0 6.736012E-07 -1
vn -1.004997E-07 6.736012E-07 -1
vn -1.004997E-07 6.736011E-07 -1
g Bone_tail1_0
f 3/3/3 2/2/2 1/1/1
f 1/1/1 4/4/4 3/3/3
f 1/1/1 5/5/5 4/4/4
f 8/8/8 7/7/7 6/6/6
f 9/9/9 8/8/8 6/6/6
f 12/12/12 11/11/11 10/10/10
f 10/10/10 13/13/13 12/12/12
f 10/10/10 14/14/14 13/13/13
f 17/17/17 16/16/16 15/15/15
f 15/15/15 18/18/18 17/17/17
f 18/18/18 19/19/19 17/17/17
f 22/22/22 21/21/21 20/20/20
f 20/20/20 23/23/23 22/22/22
f 23/23/23 24/24/24 22/22/22
f 24/24/24 23/23/23 25/25/25
f 28/28/28 27/27/27 26/26/26
f 26/26/26 29/29/29 28/28/28
f 26/26/26 30/30/30 29/29/29
f 33/33/33 32/32/32 31/31/31
f 34/34/34 33/33/33 31/31/31
f 37/37/37 36/36/36 35/35/35
f 35/35/35 38/38/38 37/37/37
f 35/35/35 39/39/39 38/38/38
f 42/42/42 41/41/41 40/40/40
f 40/40/40 43/43/43 42/42/42
f 40/40/40 44/44/44 43/43/43
f 47/47/47 46/46/46 45/45/45
f 47/47/47 48/48/48 46/46/46
