# Mesh "Bone_Clips" exported with Unity Assets Bundle Extractor; 4 vertices, 6 indices, 48 bytes per vertex
g Bone_Clips
# SubMesh 0
# Vertices
v 0.053279 0.000000 -0.090634
vt 0.739837 0.393617
vn -0.000000 1.000000 0.000000
v 0.053279 0.000000 0.141071
vt 0.658537 0.393617
vn -0.000000 1.000000 0.000000
v -0.084938 0.000000 0.141071
vt 0.658537 0.446809
vn -0.000000 1.000000 0.000000
v -0.084938 0.000000 -0.090634
vt 0.739837 0.446809
vn -0.000000 1.000000 0.000000
# Faces (1 to 4)
f -2/-2/-2 -3/-3/-3 -4/-4/-4
f -4/-4/-4 -1/-1/-1 -2/-2/-2

