g Bone_jaws
v 0.1451353 -0.1319231 0.07285797
v 0.1429531 -0.08676025 -0.01318649
v 0 -0.08676025 -0.01318649
v 0 -0.108699 0.0286113
v 0 -0.1319231 0.07285797
v 0.1074167 -0.1949521 0.2039474
v 0 -0.1671598 0.1461444
v 0 -0.1949521 0.2039474
v 0.1429531 -0.08676025 -0.01318649
v 0.1451353 -0.1319231 0.07285797
v 0.1451353 -0.0539267 0.1285723
v 0.14042 0.02073219 -0.004936027
v 0.1451353 -0.1319231 0.07285797
v 0.1074167 -0.1949521 0.2039474
v 0.1074167 -0.1379848 0.2553566
v 0.1451353 -0.0539267 0.1285723
v 0 -0.1030885 0.2027228
v 0 -0.0539267 0.1285723
v 0.1451353 -0.0539267 0.1285723
v 0.1074167 -0.1379848 0.2553566
v 0 -0.1379848 0.2553567
v 0 0.02073219 -0.004935951
v 0.14042 0.02073219 -0.004936027
v 0.1451353 -0.0539267 0.1285723
v 0 -0.01520149 0.05932216
v 0 -0.0539267 0.1285723
v 0.1074167 -0.1379848 0.2553566
v 0.1074167 -0.1949521 0.2039474
v 0 -0.1949521 0.2039474
v 0 -0.1379848 0.2553567
v 0 -0.1949521 0.2039474
v 0 -0.1655627 0.2304694
v 0 -0.1379848 0.2553567
v -0.1074167 -0.1379848 0.2553566
v -0.1074167 -0.1949521 0.2039474
v 0 -0.08676025 -0.01318649
v 0.1429531 -0.08676025 -0.01318649
v 0.14042 0.02073219 -0.004936027
v 0 0.02073219 -0.004935951
v 0 -0.03369331 -0.00911335
v 0 -0.108699 0.0286113
v 0 -0.08676025 -0.01318649
v -0.1429531 -0.08676025 -0.01318649
v -0.1451353 -0.1319231 0.07285797
v 0 -0.1319231 0.07285797
v 0 -0.1671598 0.1461444
v -0.1074167 -0.1949521 0.2039474
v 0 -0.1949521 0.2039474
v -0.1451353 -0.0539267 0.1285723
v -0.1451353 -0.1319231 0.07285797
v -0.1429531 -0.08676025 -0.01318649
v -0.14042 0.02073219 -0.004936027
v -0.1074167 -0.1379848 0.2553566
v -0.1074167 -0.1949521 0.2039474
v -0.1451353 -0.1319231 0.07285797
v -0.1451353 -0.0539267 0.1285723
v -0.1451353 -0.0539267 0.1285723
v 0 -0.0539267 0.1285723
v 0 -0.1030885 0.2027228
v -0.1074167 -0.1379848 0.2553566
v 0 -0.1379848 0.2553567
v -0.1451353 -0.0539267 0.1285723
v -0.14042 0.02073219 -0.004936027
v 0 0.02073219 -0.004935951
v 0 -0.01520149 0.05932216
v 0 -0.0539267 0.1285723
v -0.1429531 -0.08676025 -0.01318649
v 0 -0.08676025 -0.01318649
v 0 -0.03369331 -0.00911335
v 0 0.02073219 -0.004935951
v -0.14042 0.02073219 -0.004936027
vt -76.1887 90.34261
vt -75.09554 133.4456
vt -3.484936 133.4456
vt -3.484928 112.5074
vt -3.484932 90.34261
vt -57.29404 24.67496
vt -3.484936 53.63067
vt -3.484928 24.67496
vt -75.09554 133.4456
vt -76.1887 90.34261
vt -76.18869 62.43322
vt -73.8266 129.3126
vt -76.1887 90.34261
vt -57.29404 24.67496
vt -57.29403 -1.077841
vt -76.18869 62.43322
vt -3.484934 25.28845
vt -3.484932 62.43322
vt -76.18869 62.43322
vt -57.29403 -1.077841
vt -3.484936 -1.077855
vt -3.484928 129.3126
vt -73.8266 129.3126
vt -76.18869 62.43322
vt -3.484928 97.1232
vt -3.484932 62.43322
vt -57.29403 -1.077841
vt -57.29404 24.67496
vt -3.484928 24.67496
vt -3.484936 -1.077855
vt -3.484928 24.67496
vt -3.484934 11.38913
vt -3.484936 -1.077855
vt -57.29403 -1.077841
vt -57.29404 24.67496
vt -3.484936 133.4456
vt -75.09554 133.4456
vt -73.8266 129.3126
vt -3.484928 129.3126
vt -3.484928 131.4052
vt -3.484928 112.5074
vt -3.484936 133.4456
vt -75.09554 133.4456
vt -76.1887 90.34261
vt -3.484932 90.34261
vt -3.484936 53.63067
vt -57.29404 24.67496
vt -3.484928 24.67496
vt -76.18869 62.43322
vt -76.1887 90.34261
vt -75.09554 133.4456
vt -73.8266 129.3126
vt -57.29403 -1.077841
vt -57.29404 24.67496
vt -76.1887 90.34261
vt -76.18869 62.43322
vt -76.18869 62.43322
vt -3.484932 62.43322
vt -3.484934 25.28845
vt -57.29403 -1.077841
vt -3.484936 -1.077855
vt -76.18869 62.43322
vt -73.8266 129.3126
vt -3.484928 129.3126
vt -3.484928 97.1232
vt -3.484932 62.43322
vt -75.09554 133.4456
vt -3.484936 133.4456
vt -3.484928 131.4052
vt -3.484928 129.3126
vt -73.8266 129.3126
vn 0 -0.8854422 -0.4647496
vn 0 -0.8854422 -0.4647496
vn 0 -0.8854422 -0.4647496
vn 0 -0.8854422 -0.4647496
vn 0 -0.8854422 -0.4647496
vn -2.304037E-07 -0.9012386 -0.4333232
vn 0 -0.9012386 -0.4333232
vn 0 -0.9012386 -0.4333232
vn 0.9995844 0.0206028 -0.02015927
vn 0.9995844 0.0206028 -0.02015927
vn 0.9995844 0.0206028 -0.02015927
vn 0.9995844 0.0206028 -0.02015927
vn 0.968505 -0.1547973 0.1950279
vn 0.968505 -0.1547973 0.1950279
vn 0.968505 -0.1547973 0.1950279
vn 0.968505 -0.1547973 0.1950279
vn 0 0.8334579 0.5525829
vn 0 0.8334579 0.5525829
vn 1.532866E-07 0.8334579 0.5525829
vn 1.532866E-07 0.833458 0.5525829
vn 0 0.8334579 0.552583
vn 0 0.8728006 0.488077
vn 0 0.8728006 0.488077
vn 0 0.8728006 0.488077
vn 0 0.8728005 0.488077
vn 0 0.8728005 0.488077
vn 0 -0.6699624 0.7423951
vn 0 -0.6699623 0.7423951
vn 0 -0.6699623 0.7423951
vn 0 -0.6699624 0.7423951
vn 0 -0.6699623 0.7423951
vn 0 -0.6699623 0.7423951
vn 0 -0.6699624 0.7423951
vn 0 -0.6699624 0.7423951
vn 0 -0.6699623 0.7423951
vn 0 0.07652916 -0.9970673
vn -3.041745E-07 0.07652915 -0.9970673
vn -3.041745E-07 0.07652915 -0.9970673
vn 0 0.07652916 -0.9970673
vn 0 0.07652916 -0.9970673
vn 0 -0.8854422 -0.4647496
vn 0 -0.8854422 -0.4647496
vn 0 -0.8854422 -0.4647496
vn 0 -0.8854422 -0.4647496
vn 0 -0.8854422 -0.4647496
vn 0 -0.9012386 -0.4333232
vn 2.274831E-07 -0.9012386 -0.4333232
vn 0 -0.9012386 -0.4333232
vn -0.9995844 0.0206028 -0.02015927
vn -0.9995844 0.0206028 -0.02015927
vn -0.9995844 0.0206028 -0.02015927
vn -0.9995844 0.0206028 -0.02015927
vn -0.968505 -0.1547974 0.1950279
vn -0.968505 -0.1547974 0.1950279
vn -0.968505 -0.1547974 0.1950279
vn -0.968505 -0.1547973 0.1950279
vn 0 0.8334579 0.552583
vn 0 0.8334579 0.5525829
vn 0 0.8334579 0.5525829
vn 0 0.8334579 0.5525829
vn 0 0.8334579 0.552583
vn 0 0.8728006 0.488077
vn 0 0.8728006 0.488077
vn 0 0.8728006 0.488077
vn 0 0.8728005 0.488077
vn 0 0.8728005 0.488077
vn 3.041745E-07 0.07652915 -0.9970673
vn 0 0.07652916 -0.9970673
vn 0 0.07652916 -0.9970673
vn 0 0.07652916 -0.9970673
vn 3.041745E-07 0.07652915 -0.9970673
g Bone_jaws_0
f 3/3/3 2/2/2 1/1/1
f 1/1/1 4/4/4 3/3/3
f 1/1/1 5/5/5 4/4/4
f 5/5/5 1/1/1 6/6/6
f 6/6/6 7/7/7 5/5/5
f 6/6/6 8/8/8 7/7/7
f 11/11/11 10/10/10 9/9/9
f 12/12/12 11/11/11 9/9/9
f 15/15/15 14/14/14 13/13/13
f 16/16/16 15/15/15 13/13/13
f 19/19/19 18/18/18 17/17/17
f 17/17/17 20/20/20 19/19/19
f 17/17/17 21/21/21 20/20/20
f 24/24/24 23/23/23 22/22/22
f 22/22/22 25/25/25 24/24/24
f 25/25/25 26/26/26 24/24/24
f 29/29/29 28/28/28 27/27/27
f 27/27/27 30/30/30 29/29/29
f 33/33/33 32/32/32 31/31/31
f 32/32/32 33/33/33 34/34/34
f 34/34/34 31/31/31 32/32/32
f 34/34/34 35/35/35 31/31/31
f 38/38/38 37/37/37 36/36/36
f 36/36/36 39/39/39 38/38/38
f 36/36/36 40/40/40 39/39/39
f 43/43/43 42/42/42 41/41/41
f 41/41/41 44/44/44 43/43/43
f 41/41/41 45/45/45 44/44/44
f 44/44/44 45/45/45 46/46/46
f 46/46/46 47/47/47 44/44/44
f 46/46/46 48/48/48 47/47/47
f 51/51/51 50/50/50 49/49/49
f 52/52/52 51/51/51 49/49/49
f 55/55/55 54/54/54 53/53/53
f 56/56/56 55/55/55 53/53/53
f 59/59/59 58/58/58 57/57/57
f 57/57/57 60/60/60 59/59/59
f 60/60/60 61/61/61 59/59/59
f 64/64/64 63/63/63 62/62/62
f 62/62/62 65/65/65 64/64/64
f 62/62/62 66/66/66 65/65/65
f 69/69/69 68/68/68 67/67/67
f 67/67/67 70/70/70 69/69/69
f 67/67/67 71/71/71 70/70/70
