g Bone_step_R
v -0.06857172 -1.430511E-08 -0.08200066
v 0.06857174 -1.430511E-08 -0.08200064
v 0.06857174 -5.245209E-08 0.1043615
v -0.06857172 -5.245209E-08 0.1043615
v 0.06857174 -0.04485986 -0.08200066
v 0.06857174 -0.04485986 0.1043615
v 0.06857174 -5.245209E-08 0.1043615
v 0.06857174 -1.430511E-08 -0.08200064
v 0.01972995 -5.245209E-08 0.2115281
v 0.01935083 -0.04485986 0.2115281
v -0.01542568 -0.04485986 0.2115281
v -0.01504662 -5.245209E-08 0.2115281
vt -124.0065 314.1544
vt -55.30614 314.1544
vt -55.30614 242.8137
vt -124.0065 242.8137
vt -55.30614 314.1544
vt -55.30614 242.8137
vt -55.30614 242.8137
vt -55.30614 314.1544
vt -79.77283 189.1299
vt -79.96275 189.1299
vt -97.38362 189.1299
vt -97.19373 189.1299
vn 0 1 2.046927E-07
vn 0 1 2.046927E-07
vn 0 1 2.046927E-07
vn 0 1 2.046927E-07
vn 1 0 0
vn 1 0 0
vn 1 0 0
vn 1 0 0
vn 0 0 1
vn 0 0 1
vn 0 0 1
vn 0 0 1
g Bone_step_R_0
f 3/3/3 2/2/2 1/1/1
f 4/4/4 3/3/3 1/1/1
f 7/7/7 6/6/6 5/5/5
f 8/8/8 7/7/7 5/5/5
f 11/11/11 10/10/10 9/9/9
f 12/12/12 11/11/11 9/9/9
