# Mesh "Bone_Bullet" exported with Unity Assets Bundle Extractor; 4 vertices, 6 indices, 384 bits per vertex
g Bone_Bullet
# SubMesh 0
# Vertices
v -0.031023 0.042532 -0.904876
vt 0.885012 0.242697
vn -0.000000 1.000000 -0.000000
v 0.031520 0.042532 -0.904897
vt 0.896316 0.242697
vn -0.000000 1.000000 -0.000000
v 0.030996 0.042532 0.049564
vt 0.896316 0.566465
vn -0.000000 1.000000 -0.000000
v -0.031546 0.042532 0.049585
vt 0.885012 0.566465
vn -0.000000 1.000000 -0.000000
# Faces (1 to 4)
g Bone_Bullet_0
f -2/-2/-2 -3/-3/-3 -4/-4/-4
f -1/-1/-1 -2/-2/-2 -4/-4/-4

