g Bone_Wing_R
v -0.4451044 0.3141347 0.276885
v -0.8476846 0.7154488 0.1021477
v -0.8538798 0.7238519 0.152892
v -0.4367854 0.3031017 0.2077723
v -0.8538798 0.7238519 0.152892
v -0.8088081 0.7551823 0.1007605
v -0.8152205 0.7629945 0.1515713
v -0.8476846 0.7154488 0.1021477
v -0.8476846 0.7154488 0.1021477
v -0.3858356 0.3548345 0.2056447
v -0.8088081 0.7551823 0.1007605
v -0.4367854 0.3031017 0.2077723
v -0.4367854 0.3031017 0.2077723
v -0.3941519 0.3658712 0.2747563
v -0.3858356 0.3548345 0.2056447
v -0.4451044 0.3141347 0.276885
v -0.4451044 0.3141347 0.276885
v -0.8152205 0.7629945 0.1515713
v -0.3941519 0.3658712 0.2747563
v -0.8538798 0.7238519 0.152892
v -0.8088081 0.7551823 0.1007605
v -0.3941519 0.3658712 0.2747563
v -0.8152205 0.7629945 0.1515713
v -0.3858356 0.3548345 0.2056447
v -0.0406563 0.01463647 -0.02840503
v -0.4046288 0.3780839 0.2719419
v -0.4252239 0.3970725 0.2076144
v -0.02005748 -0.004356234 0.0359175
v -0.4252239 0.3970725 0.2076144
v -0.4553359 0.3264762 0.2729423
v -0.4759305 0.3454613 0.2086115
v -0.4046288 0.3780839 0.2719419
v -0.4046288 0.3780839 0.2719419
v -0.07076677 -0.05596466 0.03692313
v -0.4553359 0.3264762 0.2729423
v -0.02005748 -0.004356234 0.0359175
v -0.02005748 -0.004356234 0.0359175
v -0.09136196 -0.03697589 -0.02740413
v -0.07076677 -0.05596466 0.03692313
v -0.0406563 0.01463647 -0.02840503
v -0.0406563 0.01463647 -0.02840503
v -0.4759305 0.3454613 0.2086115
v -0.09136196 -0.03697589 -0.02740413
v -0.4252239 0.3970725 0.2076144
v -0.4553359 0.3264762 0.2729423
v -0.09136196 -0.03697589 -0.02740413
v -0.4759305 0.3454613 0.2086115
v -0.07076677 -0.05596466 0.03692313
vt 0 0
vt 0 0
vt 0 0
vt 0 0
vt 0 0
vt 0 0
vt 0 0
vt 0 0
vt 0 0
vt 0 0
vt 0 0
vt 0 0
vt 0 0
vt 0 0
vt 0 0
vt 0 0
vt 0 0
vt 0 0
vt 0 0
vt 0 0
vt 0 0
vt 0 0
vt 0 0
vt 0 0
vt 0 0
vt 0 0
vt 0 0
vt 0 0
vt 0 0
vt 0 0
vt 0 0
vt 0 0
vt 0 0
vt 0 0
vt 0 0
vt 0 0
vt 0 0
vt 0 0
vt 0 0
vt 0 0
vt 0 0
vt 0 0
vt 0 0
vt 0 0
vt 0 0
vt 0 0
vt 0 0
vt 0 0
vn -0.712028 -0.701542 0.02924155
vn -0.712028 -0.701542 0.02924155
vn -0.712028 -0.701542 0.02924155
vn -0.711482 -0.702206 0.02645854
vn -0.701237 0.686032 -0.1939766
vn -0.7012369 0.686032 -0.1939766
vn -0.7012369 0.6860319 -0.1939766
vn -0.70396 0.681834 -0.1988538
vn 0.1097775 -0.1417561 -0.9837958
vn 0.1097775 -0.1417561 -0.9837958
vn 0.1097775 -0.1417561 -0.9837958
vn 0.1067433 -0.1455777 -0.9835715
vn 0.7029346 -0.6843234 0.1938668
vn 0.7029346 -0.6843234 0.1938668
vn 0.7029346 -0.6843234 0.1938668
vn 0.7029442 -0.6843171 0.1938547
vn -0.1286021 0.1668747 0.9775553
vn -0.1286021 0.1668747 0.9775553
vn -0.1286021 0.1668747 0.9775553
vn -0.1323997 0.1637493 0.9775769
vn 0.6896609 0.7237267 -0.0242379
vn 0.689661 0.7237267 -0.0242379
vn 0.6896609 0.7237267 -0.0242379
vn 0.6912492 0.7219029 -0.03210377
vn 0.7007917 0.7132319 -0.01382902
vn 0.7007917 0.7132319 -0.01382902
vn 0.7007917 0.7132319 -0.01382902
vn 0.700793 0.7132307 -0.01382606
vn -0.6502334 0.6465446 0.3989694
vn -0.6502334 0.6465446 0.3989694
vn -0.6502334 0.6465446 0.3989694
vn -0.6501789 0.6465682 0.39902
vn 0.2935379 -0.2706437 0.9168356
vn 0.2935379 -0.2706437 0.9168355
vn 0.2935379 -0.2706437 0.9168356
vn 0.2935853 -0.2706051 0.9168318
vn 0.6501488 -0.646597 -0.3990224
vn 0.6501488 -0.6465969 -0.3990223
vn 0.6501488 -0.6465969 -0.3990224
vn 0.6501862 -0.6465037 -0.3991125
vn -0.2935567 0.2706198 -0.9168366
vn -0.2935568 0.2706198 -0.9168366
vn -0.2935567 0.2706198 -0.9168366
vn -0.2935216 0.2706646 -0.9168347
vn -0.700783 -0.71324 0.01385707
vn -0.700783 -0.71324 0.01385707
vn -0.7007829 -0.71324 0.01385707
vn -0.7007944 -0.7132292 0.01383005
g Bone_Wing_R_0
f 3/3/3 2/2/2 1/1/1
f 4/4/4 1/1/1 2/2/2
f 7/7/7 6/6/6 5/5/5
f 8/8/8 5/5/5 6/6/6
f 11/11/11 10/10/10 9/9/9
f 12/12/12 9/9/9 10/10/10
f 15/15/15 14/14/14 13/13/13
f 16/16/16 13/13/13 14/14/14
f 19/19/19 18/18/18 17/17/17
f 20/20/20 17/17/17 18/18/18
f 23/23/23 22/22/22 21/21/21
f 24/24/24 21/21/21 22/22/22
f 27/27/27 26/26/26 25/25/25
f 28/28/28 25/25/25 26/26/26
f 31/31/31 30/30/30 29/29/29
f 32/32/32 29/29/29 30/30/30
f 35/35/35 34/34/34 33/33/33
f 36/36/36 33/33/33 34/34/34
f 39/39/39 38/38/38 37/37/37
f 40/40/40 37/37/37 38/38/38
f 43/43/43 42/42/42 41/41/41
f 44/44/44 41/41/41 42/42/42
f 47/47/47 46/46/46 45/45/45
f 48/48/48 45/45/45 46/46/46
