g bonus_health3_mesh
v 0.4416415 0.2251109 0.9769256
v -0.4592172 0.2251108 0.232738
v 0.4416415 0.2251108 0.232738
v -0.4592172 0.2251109 0.9769256
v 0.1674671 0.05013688 1.054189
v -0.1654589 0.05013683 0.9954372
v 0.1674671 0.05013682 0.9954372
v -0.165459 0.05013687 1.054189
v -0.1654589 0.05013686 0.9758533
v -0.08712339 0.05013683 0.9954372
v -0.08712339 0.05013685 0.9758533
v 0.08913156 0.05013686 0.9758533
v 0.1674671 0.05013686 0.9758533
v 0.08913156 0.05013683 0.9954372
v -0.4592172 -0.2253184 0.9769256
v 0.4416414 -0.2253185 0.2327381
v -0.4592173 -0.2253185 0.2327381
v 0.4416415 -0.2253184 0.9769256
v -0.165459 -0.04778263 1.054189
v 0.1674671 -0.04778257 0.9954373
v -0.1654589 -0.04778257 0.9954373
v 0.1674671 -0.04778263 1.054189
v -0.0871234 -0.04778257 0.9758534
v -0.1654589 -0.04778257 0.9758534
v -0.08712339 -0.04778258 0.9954373
v 0.1674671 -0.04778257 0.9758534
v 0.08913156 -0.04778257 0.9954373
v 0.08913156 -0.04778257 0.9758534
v -0.4592172 0.2251109 0.9769256
v -0.4592173 -0.2253185 0.2327381
v -0.4592172 0.2251108 0.232738
v -0.4592172 -0.2253184 0.9769256
v -0.165459 0.05013687 1.054189
v -0.1654589 -0.04778257 0.9758534
v -0.1654589 0.05013686 0.9758533
v -0.165459 -0.04778263 1.054189
v 0.08913156 0.05013683 0.9954372
v 0.08913156 -0.04778257 0.9758534
v 0.08913156 0.05013686 0.9758533
v 0.08913156 -0.04778257 0.9954373
v 0.4416415 -0.2253184 0.9769256
v 0.4416415 0.2251108 0.232738
v 0.4416414 -0.2253185 0.2327381
v 0.4416415 0.2251109 0.9769256
v 0.1674671 -0.04778263 1.054189
v 0.1674671 0.05013686 0.9758533
v 0.1674671 -0.04778257 0.9758534
v 0.1674671 0.05013688 1.054189
v -0.08712339 -0.04778258 0.9954373
v -0.08712339 0.05013685 0.9758533
v -0.0871234 -0.04778257 0.9758534
v -0.08712339 0.05013683 0.9954372
v -0.4592172 0.2251109 0.9769256
v 0.4416415 -0.2253184 0.9769256
v -0.4592172 -0.2253184 0.9769256
v 0.4416415 0.2251109 0.9769256
v -0.165459 0.05013687 1.054189
v 0.1674671 -0.04778263 1.054189
v -0.165459 -0.04778263 1.054189
v 0.1674671 0.05013688 1.054189
v -0.4592173 -0.2253185 0.2327381
v 0.4416415 0.2251108 0.232738
v -0.4592172 0.2251108 0.232738
v 0.4416414 -0.2253185 0.2327381
v -0.08712339 -0.04778258 0.9954373
v 0.08913156 0.05013683 0.9954372
v -0.08712339 0.05013683 0.9954372
v 0.08913156 -0.04778257 0.9954373
v -0.1654589 -0.04778257 0.9758534
v -0.08712339 0.05013685 0.9758533
v -0.1654589 0.05013686 0.9758533
v -0.0871234 -0.04778257 0.9758534
v 0.08913156 -0.04778257 0.9758534
v 0.1674671 0.05013686 0.9758533
v 0.08913156 0.05013686 0.9758533
v 0.1674671 -0.04778257 0.9758534
vt 0.1875 0.703125
vt 0.546875 0.40625
vt 0.1875 0.40625
vt 0.546875 0.703125
vt 0.3046875 0.9375
vt 0.4375 0.9140625
vt 0.3046875 0.9140625
vt 0.4375 0.9375
vt 0.4375 0.90625
vt 0.40625 0.9140625
vt 0.40625 0.90625
vt 0.3359375 0.90625
vt 0.3046875 0.90625
vt 0.3359375 0.9140625
vt 0.1875 0.703125
vt 0.546875 0.40625
vt 0.1875 0.40625
vt 0.546875 0.703125
vt 0.3046875 0.9375
vt 0.4375 0.9140625
vt 0.3046875 0.9140625
vt 0.4375 0.9375
vt 0.3359375 0.90625
vt 0.3046875 0.90625
vt 0.3359375 0.9140625
vt 0.4375 0.90625
vt 0.40625 0.9140625
vt 0.40625 0.90625
vt 0.0078125 0.703125
vt 0.1875 0.40625
vt 0.0078125 0.40625
vt 0.1875 0.703125
vt 0.265625 0.9375
vt 0.3046875 0.90625
vt 0.265625 0.90625
vt 0.3046875 0.9375
vt 0.265625 0.9140625
vt 0.3046875 0.90625
vt 0.265625 0.90625
vt 0.3046875 0.9140625
vt 0.0078125 0.703125
vt 0.1875 0.40625
vt 0.0078125 0.40625
vt 0.1875 0.703125
vt 0.265625 0.9375
vt 0.3046875 0.90625
vt 0.265625 0.90625
vt 0.3046875 0.9375
vt 0.265625 0.9140625
vt 0.3046875 0.90625
vt 0.265625 0.90625
vt 0.3046875 0.9140625
vt 0.1875 0.8828125
vt 0.546875 0.703125
vt 0.1875 0.703125
vt 0.546875 0.8828125
vt 0.3046875 0.9765625
vt 0.4375 0.9375
vt 0.3046875 0.9375
vt 0.4375 0.9765625
vt 0.1875 0.40625
vt 0.546875 0.2265625
vt 0.1875 0.2265625
vt 0.546875 0.40625
vt 0.3359375 0.9765625
vt 0.40625 0.9375
vt 0.3359375 0.9375
vt 0.40625 0.9765625
vt 0.3046875 0.9765625
vt 0.3359375 0.9375
vt 0.3046875 0.9375
vt 0.3359375 0.9765625
vt 0.40625 0.9765625
vt 0.4375 0.9375
vt 0.40625 0.9375
vt 0.4375 0.9765625
vn 0 1 -1.937739E-07
vn 0 1 -1.906753E-07
vn 0 1 -2.050395E-07
vn 0 1 -1.794096E-07
vn 0 1 -8.747257E-07
vn 0 1 -7.485034E-07
vn 0 1 -8.927759E-07
vn 0 1 -7.304531E-07
vn 0 1 1.422933E-06
vn 0 1 1.255395E-06
vn 0 1 1.217422E-06
vn 1.027555E-07 1 1.293369E-06
vn 0 1 1.70439E-06
vn 1.217422E-07 1 1.217422E-06
vn 0 -1 1.681439E-07
vn 0 -1 1.650454E-07
vn 0 -1 1.794096E-07
vn 0 -1 1.537797E-07
vn 0 -1 -8.92776E-07
vn 0 -1 -8.92776E-07
vn 0 -1 -8.92776E-07
vn 0 -1 -8.92776E-07
vn 0 -1 -4.489953E-07
vn 0 -1 -2.434844E-07
vn 0 -1 -4.869687E-07
vn 0 -1 -2.434844E-07
vn 0 -1 -2.434844E-07
vn 0 -1 -2.434844E-07
vn -1 0 0
vn -1 0 0
vn -1 0 0
vn -1 0 1.025198E-07
vn -1 -1.947879E-07 -4.869688E-07
vn -1 -1.947879E-07 -4.869688E-07
vn -1 -1.947879E-07 -4.869687E-07
vn -1 -1.947878E-07 -4.869689E-07
vn -1 0 4.257734E-07
vn -1 0 0
vn -1 0 4.869688E-07
vn -1 0 0
vn 1 0 0
vn 1 0 0
vn 1 0 -1.025198E-07
vn 1 0 0
vn 1 2.22232E-07 2.777898E-07
vn 1 1.673435E-07 2.091792E-07
vn 1 3.895755E-07 4.869691E-07
vn 1 0 0
vn 1 0 -4.257734E-07
vn 1 0 0
vn 1 0 -4.869688E-07
vn 1 0 0
vn 0 0 1
vn 0 0 1
vn 0 0 1
vn 0 0 1
vn 0 7.791497E-07 1
vn 0 7.791496E-07 1
vn 0 7.791497E-07 1
vn 0 7.791497E-07 1
vn 0 -1.693805E-07 -1
vn 0 -1.693805E-07 -1
vn 0 -1.693805E-07 -1
vn 0 -1.693805E-07 -1
vn 0 -7.791504E-07 -1
vn 0 -7.791504E-07 -1
vn 0 -7.791504E-07 -1
vn 0 -7.791504E-07 -1
vn 0 -7.791503E-07 -1
vn 0 -7.791502E-07 -1
vn 0 -7.791502E-07 -1
vn 0 -7.791502E-07 -1
vn 0 -7.791503E-07 -1
vn 0 -7.791503E-07 -1
vn 0 -7.791502E-07 -1
vn 0 -7.791503E-07 -1
g bonus_health3_mesh_0
f 3/3/3 2/2/2 1/1/1
f 4/4/4 1/1/1 2/2/2
f 7/7/7 6/6/6 5/5/5
f 8/8/8 5/5/5 6/6/6
f 6/6/6 10/10/10 9/9/9
f 11/11/11 9/9/9 10/10/10
f 13/13/13 12/12/12 7/7/7
f 14/14/14 7/7/7 12/12/12
f 17/17/17 16/16/16 15/15/15
f 18/18/18 15/15/15 16/16/16
f 21/21/21 20/20/20 19/19/19
f 22/22/22 19/19/19 20/20/20
f 24/24/24 23/23/23 21/21/21
f 25/25/25 21/21/21 23/23/23
f 20/20/20 27/27/27 26/26/26
f 28/28/28 26/26/26 27/27/27
f 31/31/31 30/30/30 29/29/29
f 32/32/32 29/29/29 30/30/30
f 35/35/35 34/34/34 33/33/33
f 36/36/36 33/33/33 34/34/34
f 39/39/39 38/38/38 37/37/37
f 40/40/40 37/37/37 38/38/38
f 43/43/43 42/42/42 41/41/41
f 44/44/44 41/41/41 42/42/42
f 47/47/47 46/46/46 45/45/45
f 48/48/48 45/45/45 46/46/46
f 51/51/51 50/50/50 49/49/49
f 52/52/52 49/49/49 50/50/50
f 55/55/55 54/54/54 53/53/53
f 56/56/56 53/53/53 54/54/54
f 59/59/59 58/58/58 57/57/57
f 60/60/60 57/57/57 58/58/58
f 63/63/63 62/62/62 61/61/61
f 64/64/64 61/61/61 62/62/62
f 67/67/67 66/66/66 65/65/65
f 68/68/68 65/65/65 66/66/66
f 71/71/71 70/70/70 69/69/69
f 72/72/72 69/69/69 70/70/70
f 75/75/75 74/74/74 73/73/73
f 76/76/76 73/73/73 74/74/74
