# Mesh "bonus_health2_mesh" exported with Unity Assets Bundle Extractor; 76 vertices, 120 indices, 256 bits per vertex
g bonus_health2_mesh
# SubMesh 0
# Vertices
v 0.310962 0.118011 0.681684
vt 0.718750 0.734375
vn -0.000000 1.000000 -0.000000
v -0.324466 0.118011 0.227807
vt 0.992188 0.539063
vn -0.000000 1.000000 -0.000000
v 0.310962 0.118011 0.227807
vt 0.718750 0.539063
vn -0.000000 1.000000 -0.000000
v -0.324466 0.118011 0.681684
vt 0.992188 0.734375
vn -0.000000 1.000000 -0.000000
v 0.111256 0.027167 0.753576
vt 0.750000 0.960938
vn -0.000000 1.000000 0.000000
v -0.124760 0.027167 0.699110
vt 0.851563 0.937500
vn -0.000000 1.000000 0.000000
v 0.111256 0.027167 0.699110
vt 0.750000 0.937500
vn -0.000000 1.000000 0.000000
v -0.124760 0.027167 0.753576
vt 0.851563 0.960938
vn -0.000000 1.000000 0.000000
v -0.124760 0.027167 0.680955
vt 0.851563 0.929688
vn -0.000000 1.000000 -0.000002
v -0.070294 0.027167 0.699110
vt 0.828125 0.937500
vn -0.000000 1.000000 -0.000002
v -0.070294 0.027167 0.680955
vt 0.828125 0.929688
vn -0.000000 1.000000 -0.000002
v 0.056791 0.027167 0.680955
vt 0.773438 0.929688
vn -0.000000 1.000000 -0.000002
v 0.111256 0.027167 0.680955
vt 0.750000 0.929688
vn -0.000000 1.000000 -0.000002
v 0.056791 0.027167 0.699110
vt 0.773438 0.937500
vn -0.000000 1.000000 -0.000002
v -0.324466 -0.118005 0.681684
vt 0.718750 0.734375
vn -0.000000 -1.000000 0.000000
v 0.310962 -0.118005 0.227807
vt 0.992188 0.539063
vn -0.000000 -1.000000 0.000000
v -0.324466 -0.118005 0.227807
vt 0.718750 0.539063
vn -0.000000 -1.000000 0.000000
v 0.310962 -0.118005 0.681684
vt 0.992188 0.734375
vn -0.000000 -1.000000 0.000000
v -0.124760 -0.027298 0.753576
vt 0.750000 0.960938
vn -0.000000 -1.000000 0.000000
v 0.111256 -0.027298 0.699110
vt 0.851563 0.937500
vn -0.000000 -1.000000 0.000000
v -0.124760 -0.027298 0.699110
vt 0.750000 0.937500
vn -0.000000 -1.000000 0.000000
v 0.111256 -0.027298 0.753576
vt 0.851563 0.960938
vn -0.000000 -1.000000 0.000000
v -0.070294 -0.027298 0.680955
vt 0.773438 0.929688
vn -0.000000 -1.000000 0.000000
v -0.124760 -0.027298 0.680955
vt 0.750000 0.929688
vn -0.000000 -1.000000 0.000000
v -0.070294 -0.027298 0.699110
vt 0.773438 0.937500
vn -0.000000 -1.000000 0.000000
v 0.111256 -0.027298 0.680955
vt 0.851563 0.929688
vn -0.000000 -1.000000 0.000000
v 0.056791 -0.027298 0.699110
vt 0.828125 0.937500
vn -0.000000 -1.000000 0.000000
v 0.056791 -0.027298 0.680955
vt 0.828125 0.929688
vn -0.000000 -1.000000 0.000000
v -0.324466 0.118011 0.681684
vt 0.617188 0.734375
vn -1.000000 0.000000 0.000000
v -0.324466 -0.118005 0.227807
vt 0.718750 0.539063
vn -1.000000 0.000000 0.000000
v -0.324466 0.118011 0.227807
vt 0.617188 0.539063
vn -1.000000 0.000000 0.000000
v -0.324466 -0.118005 0.681684
vt 0.718750 0.734375
vn -1.000000 0.000000 0.000000
v -0.124760 0.027167 0.753576
vt 0.726563 0.960938
vn -1.000000 0.000000 0.000000
v -0.124760 -0.027298 0.680955
vt 0.750000 0.929688
vn -1.000000 0.000000 0.000000
v -0.124760 0.027167 0.680955
vt 0.726563 0.929688
vn -1.000000 0.000000 0.000000
v -0.124760 -0.027298 0.753576
vt 0.750000 0.960938
vn -1.000000 0.000000 0.000000
v 0.056791 0.027167 0.699110
vt 0.726563 0.937500
vn -1.000000 0.000000 0.000000
v 0.056791 -0.027298 0.680955
vt 0.750000 0.929688
vn -1.000000 0.000000 0.000000
v 0.056791 0.027167 0.680955
vt 0.726563 0.929688
vn -1.000000 0.000000 0.000000
v 0.056791 -0.027298 0.699110
vt 0.750000 0.937500
vn -1.000000 0.000000 0.000000
v 0.310962 -0.118005 0.681684
vt 0.617188 0.734375
vn 1.000000 0.000000 0.000000
v 0.310962 0.118011 0.227807
vt 0.718750 0.539063
vn 1.000000 0.000000 0.000000
v 0.310962 -0.118005 0.227807
vt 0.617188 0.539063
vn 1.000000 0.000000 0.000000
v 0.310962 0.118011 0.681684
vt 0.718750 0.734375
vn 1.000000 0.000000 0.000000
v 0.111256 -0.027298 0.753576
vt 0.726563 0.960938
vn 1.000000 0.000000 0.000000
v 0.111256 0.027167 0.680955
vt 0.750000 0.929688
vn 1.000000 0.000000 0.000000
v 0.111256 -0.027298 0.680955
vt 0.726563 0.929688
vn 1.000000 0.000000 0.000000
v 0.111256 0.027167 0.753576
vt 0.750000 0.960938
vn 1.000000 0.000000 0.000000
v -0.070294 -0.027298 0.699110
vt 0.726563 0.937500
vn 1.000000 0.000000 0.000000
v -0.070294 0.027167 0.680955
vt 0.750000 0.929688
vn 1.000000 0.000000 0.000000
v -0.070294 -0.027298 0.680955
vt 0.726563 0.929688
vn 1.000000 0.000000 0.000000
v -0.070294 0.027167 0.699110
vt 0.750000 0.937500
vn 1.000000 0.000000 0.000000
v -0.324466 0.118011 0.681684
vt 0.718750 0.835938
vn -0.000000 0.000000 1.000000
v 0.310962 -0.118005 0.681684
vt 0.992188 0.734375
vn -0.000000 0.000000 1.000000
v -0.324466 -0.118005 0.681684
vt 0.718750 0.734375
vn -0.000000 0.000000 1.000000
v 0.310962 0.118011 0.681684
vt 0.992188 0.835938
vn -0.000000 0.000000 1.000000
v -0.124760 0.027167 0.753576
vt 0.750000 0.984375
vn -0.000000 0.000000 1.000000
v 0.111256 -0.027298 0.753576
vt 0.851563 0.960938
vn -0.000000 0.000000 1.000000
v -0.124760 -0.027298 0.753576
vt 0.750000 0.960938
vn -0.000000 0.000000 1.000000
v 0.111256 0.027167 0.753576
vt 0.851563 0.984375
vn -0.000000 0.000000 1.000000
v -0.324466 -0.118005 0.227807
vt 0.718750 0.539063
vn -0.000000 -0.000000 -1.000000
v 0.310962 0.118011 0.227807
vt 0.992188 0.437500
vn -0.000000 -0.000000 -1.000000
v -0.324466 0.118011 0.227807
vt 0.718750 0.437500
vn -0.000000 -0.000000 -1.000000
v 0.310962 -0.118005 0.227807
vt 0.992188 0.539063
vn -0.000000 -0.000000 -1.000000
v -0.070294 -0.027298 0.699110
vt 0.773438 0.984375
vn -0.000000 0.000000 -1.000000
v 0.056791 0.027167 0.699110
vt 0.828125 0.960938
vn -0.000000 0.000000 -1.000000
v -0.070294 0.027167 0.699110
vt 0.773438 0.960938
vn -0.000000 0.000000 -1.000000
v 0.056791 -0.027298 0.699110
vt 0.828125 0.984375
vn -0.000000 0.000000 -1.000000
v -0.124760 -0.027298 0.680955
vt 0.750000 0.984375
vn -0.000000 0.000000 -1.000000
v -0.070294 0.027167 0.680955
vt 0.773438 0.960938
vn -0.000000 0.000000 -1.000000
v -0.124760 0.027167 0.680955
vt 0.750000 0.960938
vn -0.000000 0.000000 -1.000000
v -0.070294 -0.027298 0.680955
vt 0.773438 0.984375
vn -0.000000 0.000000 -1.000000
v 0.056791 -0.027298 0.680955
vt 0.828125 0.984375
vn -0.000000 0.000000 -1.000000
v 0.111256 0.027167 0.680955
vt 0.851563 0.960938
vn -0.000000 0.000000 -1.000000
v 0.056791 0.027167 0.680955
vt 0.828125 0.960938
vn -0.000000 0.000000 -1.000000
v 0.111256 -0.027298 0.680955
vt 0.851563 0.984375
vn -0.000000 0.000000 -1.000000
# Faces (1 to 76)
g bonus_health2_mesh_0
f -74/-74/-74 -75/-75/-75 -76/-76/-76
f -73/-73/-73 -76/-76/-76 -75/-75/-75
f -70/-70/-70 -71/-71/-71 -72/-72/-72
f -69/-69/-69 -72/-72/-72 -71/-71/-71
f -71/-71/-71 -67/-67/-67 -68/-68/-68
f -66/-66/-66 -68/-68/-68 -67/-67/-67
f -64/-64/-64 -65/-65/-65 -70/-70/-70
f -63/-63/-63 -70/-70/-70 -65/-65/-65
f -60/-60/-60 -61/-61/-61 -62/-62/-62
f -59/-59/-59 -62/-62/-62 -61/-61/-61
f -56/-56/-56 -57/-57/-57 -58/-58/-58
f -55/-55/-55 -58/-58/-58 -57/-57/-57
f -53/-53/-53 -54/-54/-54 -56/-56/-56
f -52/-52/-52 -56/-56/-56 -54/-54/-54
f -57/-57/-57 -50/-50/-50 -51/-51/-51
f -49/-49/-49 -51/-51/-51 -50/-50/-50
f -46/-46/-46 -47/-47/-47 -48/-48/-48
f -45/-45/-45 -48/-48/-48 -47/-47/-47
f -42/-42/-42 -43/-43/-43 -44/-44/-44
f -41/-41/-41 -44/-44/-44 -43/-43/-43
f -38/-38/-38 -39/-39/-39 -40/-40/-40
f -37/-37/-37 -40/-40/-40 -39/-39/-39
f -34/-34/-34 -35/-35/-35 -36/-36/-36
f -33/-33/-33 -36/-36/-36 -35/-35/-35
f -30/-30/-30 -31/-31/-31 -32/-32/-32
f -29/-29/-29 -32/-32/-32 -31/-31/-31
f -26/-26/-26 -27/-27/-27 -28/-28/-28
f -25/-25/-25 -28/-28/-28 -27/-27/-27
f -22/-22/-22 -23/-23/-23 -24/-24/-24
f -21/-21/-21 -24/-24/-24 -23/-23/-23
f -18/-18/-18 -19/-19/-19 -20/-20/-20
f -17/-17/-17 -20/-20/-20 -19/-19/-19
f -14/-14/-14 -15/-15/-15 -16/-16/-16
f -13/-13/-13 -16/-16/-16 -15/-15/-15
f -10/-10/-10 -11/-11/-11 -12/-12/-12
f -9/-9/-9 -12/-12/-12 -11/-11/-11
f -6/-6/-6 -7/-7/-7 -8/-8/-8
f -5/-5/-5 -8/-8/-8 -7/-7/-7
f -2/-2/-2 -3/-3/-3 -4/-4/-4
f -1/-1/-1 -4/-4/-4 -3/-3/-3

