g boots_tabi
v 0.45 -0.65 0
v -0.45 0.45 0
v -0.45 -0.65 0
v 0.45 0.45 0
v 0.4500006 0.4499989 1.17945
v -0.4499993 -0.4500012 1.179451
v -0.4499991 0.4499988 1.179451
v 0.4500004 -0.4500011 1.17945
v 0.45 -0.65 0
v -0.45 -0.65 0.4
v 0.45 -0.65 0.4
v -0.45 -0.65 0
v 0.4500004 -0.4500011 1.17945
v -0.45 -0.45 0.4
v -0.4499993 -0.4500012 1.179451
v 0.45 -0.45 0.4
v 0.45 -0.65 0.4
v 0.45 0.45 0
v 0.45 -0.65 0
v 0.45 -0.45 0.4
v 0.4500004 -0.4500011 1.17945
v 0.4500006 0.4499989 1.17945
v -0.4499991 0.4499988 1.179451
v 0.45 0.45 0
v 0.4500006 0.4499989 1.17945
v -0.45 0.45 0
v -0.4499993 -0.4500012 1.179451
v -0.45 0.45 0
v -0.4499991 0.4499988 1.179451
v -0.45 -0.45 0.4
v -0.45 -0.65 0
v -0.45 -0.65 0.4
v -0.45 -0.45 0.4
v 0.45 -0.65 0.4
v -0.45 -0.65 0.4
v 0.45 -0.45 0.4
v 1.326362 -0.6499994 -1.532301E-06
v 0.4263616 0.45 -4.380257E-08
v 0.4263616 -0.6499994 -1.087148E-06
v 1.326362 0.45 -4.889554E-07
v 1.326362 0.4499989 1.17945
v 0.4263622 -0.4500006 1.179449
v 0.4263622 0.4499989 1.17945
v 1.326362 -0.4500006 1.179449
v 1.326362 -0.6499994 -1.532301E-06
v 0.4263618 -0.6499999 0.3999988
v 1.326362 -0.6499999 0.3999983
v 0.4263616 -0.6499994 -1.087148E-06
v 1.326362 -0.4500006 1.179449
v 0.4263618 -0.4499999 0.399999
v 0.4263622 -0.4500006 1.179449
v 1.326362 -0.4499999 0.3999985
v 1.326362 -0.6499999 0.3999983
v 1.326362 0.45 -4.889554E-07
v 1.326362 -0.6499994 -1.532301E-06
v 1.326362 -0.4499999 0.3999985
v 1.326362 -0.4500006 1.179449
v 1.326362 0.4499989 1.17945
v 0.4263622 0.4499989 1.17945
v 1.326362 0.45 -4.889554E-07
v 1.326362 0.4499989 1.17945
v 0.4263616 0.45 -4.380257E-08
v 0.4263622 -0.4500006 1.179449
v 0.4263616 0.45 -4.380257E-08
v 0.4263622 0.4499989 1.17945
v 0.4263618 -0.4499999 0.399999
v 0.4263616 -0.6499994 -1.087148E-06
v 0.4263618 -0.6499999 0.3999988
v 0.4263618 -0.4499999 0.399999
v 1.326362 -0.6499999 0.3999983
v 0.4263618 -0.6499999 0.3999988
v 1.326362 -0.4499999 0.3999985
vt 0.3759607 0.999141
vt 0.7178992 0.7193732
vt 0.3759607 0.7193732
vt 0.7178992 0.999141
vt 0.06268986 0.6248767
vt 0.3435766 0.34399
vt 0.06268989 0.34399
vt 0.3435766 0.6248767
vt 0.3765658 0.4067106
vt 0.4994944 0.6870995
vt 0.4994943 0.4067105
vt 0.3765659 0.6870995
vt 0.7440155 0.6870998
vt 0.5011832 0.4067106
vt 0.7440158 0.406711
vt 0.5011832 0.6870996
vt 0.6905935 0.0320934
vt 0.8150467 0.3743398
vt 0.8150467 0.0320934
vt 0.6905935 0.09432004
vt 0.4482176 0.09428924
vt 0.4482178 0.3743091
vt -0.0288799 0.003831407
vt 0.3739216 0.3111958
vt -0.02887975 0.311196
vt 0.3739216 0.003831148
vt 0.06270428 0.992784
vt 0.3434516 0.6250423
vt 0.3434207 0.9927839
vt 0.06273519 0.7498051
vt 0.0003537719 0.6250423
vt 0.0003537719 0.7498051
vt 0.0002702624 0.6248765
vt 0.06268953 0.3439898
vt 0.06268953 0.6248765
vt 0.0002702624 0.3439898
vt 0.3759607 0.7193732
vt 0.7178992 0.999141
vt 0.3759607 0.999141
vt 0.7178992 0.7193732
vt 0.06268953 0.6248764
vt 0.3435762 0.3439898
vt 0.06268953 0.3439898
vt 0.3435762 0.6248764
vt 0.3765658 0.6870995
vt 0.4994944 0.4067106
vt 0.4994943 0.6870996
vt 0.3765659 0.4067106
vt 0.7440156 0.4067105
vt 0.5011832 0.6870995
vt 0.7440158 0.6870993
vt 0.5011832 0.4067105
vt 0.0003537719 0.7498051
vt 0.3434516 0.6250423
vt 0.0003537719 0.6250423
vt 0.06273519 0.7498051
vt 0.06273519 0.9929213
vt 0.3434516 0.9929213
vt -0.0288799 0.3111958
vt 0.3739216 0.003831118
vt -0.02887993 0.003831143
vt 0.3739216 0.3111958
vt 0.4490648 0.09510201
vt 0.815151 0.3744503
vt 0.4490649 0.3744503
vt 0.6909962 0.09510201
vt 0.815151 0.0330246
vt 0.6909962 0.0330246
vt 0.0002702624 0.3439898
vt 0.06268953 0.6248764
vt 0.06268953 0.3439898
vt 0.0002702624 0.6248764
vn 0 0 -1
vn 0 0 -1
vn 0 0 -1
vn 0 0 -1
vn 5.933975E-07 0 1
vn 5.933975E-07 0 1
vn 5.933975E-07 0 1
vn 5.933975E-07 0 1
vn 0 -1 0
vn 0 -1 0
vn 0 -1 0
vn 0 -1 0
vn 0 -1 -1.512702E-06
vn 0 -1 -1.521632E-06
vn 0 -1 -1.566107E-06
vn 0 -1 -1.468227E-06
vn 1 0 0
vn 1 -1.711517E-07 -4.153808E-07
vn 1 0 0
vn 1 -1.101715E-07 -2.478859E-07
vn 1 -2.322981E-07 -5.653756E-07
vn 1 -2.119276E-07 -5.498316E-07
vn 0 1 9.458673E-07
vn 0 1 9.623706E-07
vn -1.271561E-07 1 9.056046E-07
vn 0 1 1.002633E-06
vn -1 2.864535E-07 8.007576E-07
vn -1 2.12757E-07 5.895182E-07
vn -1 2.119276E-07 7.438892E-07
vn -1 1.652571E-07 3.718285E-07
vn -1 0 0
vn -1 0 0
vn 0 0 1
vn 0 0 1
vn 0 0 1
vn 0 0 1
vn -4.946141E-07 9.48496E-07 -1
vn -4.946142E-07 9.48496E-07 -1
vn -4.946141E-07 9.48496E-07 -1
vn -4.946143E-07 9.48496E-07 -1
vn 5.086264E-07 -1.017253E-06 1
vn 5.086264E-07 -1.017253E-06 1
vn 5.086265E-07 -1.017253E-06 1
vn 5.086264E-07 -1.017253E-06 1
vn 0 -1 -9.536748E-07
vn 0 -1 -9.536748E-07
vn 0 -1 -9.536748E-07
vn 0 -1 -9.536748E-07
vn 0 -1 -9.298766E-07
vn 0 -1 -9.298767E-07
vn 0 -1 -9.298766E-07
vn 0 -1 -9.298766E-07
vn 1 0 -3.814699E-07
vn 1 0 -3.87434E-07
vn 1 0 -3.814699E-07
vn 1 0 -3.857148E-07
vn 1 0 -3.895315E-07
vn 1 0 -3.881162E-07
vn 0 1 9.379476E-07
vn 0 1 9.379475E-07
vn 0 1 9.379476E-07
vn 0 1 9.379474E-07
vn -1 0 5.247586E-07
vn -1 0 5.111343E-07
vn -1 0 5.498313E-07
vn -1 0 4.821435E-07
vn -1 0 4.768373E-07
vn -1 0 4.768373E-07
vn 5.086264E-07 -9.536744E-07 1
vn 5.086264E-07 -9.536745E-07 1
vn 5.086264E-07 -9.536745E-07 1
vn 5.086264E-07 -9.536745E-07 1
g boots_tabi_0
f 3/3/3 2/2/2 1/1/1
f 4/4/4 1/1/1 2/2/2
f 7/7/7 6/6/6 5/5/5
f 8/8/8 5/5/5 6/6/6
f 11/11/11 10/10/10 9/9/9
f 12/12/12 9/9/9 10/10/10
f 15/15/15 14/14/14 13/13/13
f 16/16/16 13/13/13 14/14/14
f 19/19/19 18/18/18 17/17/17
f 17/17/17 18/18/18 20/20/20
f 18/18/18 21/21/21 20/20/20
f 22/22/22 21/21/21 18/18/18
f 25/25/25 24/24/24 23/23/23
f 26/26/26 23/23/23 24/24/24
f 29/29/29 28/28/28 27/27/27
f 28/28/28 30/30/30 27/27/27
f 31/31/31 30/30/30 28/28/28
f 32/32/32 30/30/30 31/31/31
f 35/35/35 34/34/34 33/33/33
f 36/36/36 33/33/33 34/34/34
f 39/39/39 38/38/38 37/37/37
f 40/40/40 37/37/37 38/38/38
f 43/43/43 42/42/42 41/41/41
f 44/44/44 41/41/41 42/42/42
f 47/47/47 46/46/46 45/45/45
f 48/48/48 45/45/45 46/46/46
f 51/51/51 50/50/50 49/49/49
f 52/52/52 49/49/49 50/50/50
f 55/55/55 54/54/54 53/53/53
f 53/53/53 54/54/54 56/56/56
f 54/54/54 57/57/57 56/56/56
f 58/58/58 57/57/57 54/54/54
f 61/61/61 60/60/60 59/59/59
f 62/62/62 59/59/59 60/60/60
f 65/65/65 64/64/64 63/63/63
f 64/64/64 66/66/66 63/63/63
f 67/67/67 66/66/66 64/64/64
f 68/68/68 66/66/66 67/67/67
f 71/71/71 70/70/70 69/69/69
f 72/72/72 69/69/69 70/70/70
