g Bota_campaign4_bush_9
v -24.38029 -62.77152 7.224947
v -26.38027 -61.77152 7.22495
v -24.38029 -61.77152 7.224947
v -26.38028 -62.77152 7.22495
v -26.38028 -62.77152 5.224954
v -24.38029 -62.77152 7.224947
v -24.38029 -62.77152 5.224952
v -26.38028 -62.77152 7.22495
v -26.38028 -62.77152 5.224954
v -26.38027 -61.77152 7.22495
v -26.38028 -62.77152 7.22495
v -26.38027 -61.77152 5.224954
v -24.38029 -62.77152 6.22495
v -24.38029 -61.77152 7.224947
v -24.38028 -61.77152 6.22495
v -24.38029 -62.77152 7.224947
v -26.38027 -61.77152 5.224954
v -24.38029 -61.77152 7.224947
v -26.38027 -61.77152 7.22495
v -24.38029 -61.77152 5.224952
v -23.38027 -62.77152 6.224947
v -24.38028 -61.77152 6.22495
v -23.38027 -61.77152 6.224947
v -24.38029 -62.77152 6.22495
v -24.38029 -62.77152 5.224952
v -23.38027 -62.77152 6.224947
v -23.38027 -62.77152 5.224951
v -24.38029 -62.77152 6.22495
v -23.38027 -62.77152 5.224951
v -23.38027 -61.77152 6.224947
v -23.38027 -61.77152 5.224951
v -23.38027 -62.77152 6.224947
v -24.38029 -61.77152 5.224952
v -23.38027 -61.77152 6.224947
v -24.38028 -61.77152 6.22495
v -23.38027 -61.77152 5.224951
vt -22.48885 -10.375
vt -23.48884 -9.875002
vt -22.48885 -9.875002
vt -23.48884 -10.375
vt -23.48884 0.9999931
vt -22.48885 1.99999
vt -22.48885 0.9999924
vt -23.48884 1.999991
vt 11.375 0.9999931
vt 10.875 1.999991
vt 11.375 1.999991
vt 10.875 0.9999931
vt -10.375 1.499991
vt -9.875002 1.99999
vt -9.875002 1.499991
vt -10.375 1.99999
vt 24.48884 0.9999931
vt 23.48885 1.99999
vt 24.48884 1.999991
vt 23.48885 0.9999924
vt -21.98883 -10.375
vt -22.48884 -9.875002
vt -21.98883 -9.875004
vt -22.48885 -10.375
vt -22.48885 0.9999924
vt -21.98883 1.49999
vt -21.98883 0.9999919
vt -22.48885 1.499991
vt -10.375 0.9999919
vt -9.875004 1.49999
vt -9.875004 0.9999919
vt -10.375 1.49999
vt 23.48885 0.9999924
vt 22.98883 1.49999
vt 23.48884 1.499991
vt 22.98883 0.9999919
vn 1.220712E-06 0 1
vn 1.220712E-06 0 1
vn 1.220712E-06 0 1
vn 1.220711E-06 0 1
vn 0 -1 0
vn 0 -1 0
vn 0 -1 0
vn 0 -1 0
vn -1 2.441418E-06 0
vn -1 2.441418E-06 0
vn -1 2.441418E-06 0
vn -1 4.882836E-06 -1.220705E-06
vn 1 -4.882836E-06 4.882824E-06
vn 1 -4.882836E-06 4.882824E-06
vn 1 -4.882836E-06 4.882824E-06
vn 1 0 0
vn 0 1 0
vn 0 1 0
vn 0 1 0
vn 0 1 0
vn 2.44137E-06 0 1
vn 2.44137E-06 0 1
vn 2.44137E-06 0 1
vn 2.441359E-06 0 1
vn 0 -1 0
vn 0 -1 0
vn 0 -1 0
vn 0 -1 0
vn 1 -2.441418E-06 2.441415E-06
vn 1 -2.441418E-06 2.441415E-06
vn 1 -2.441418E-06 2.441415E-06
vn 1 0 0
vn 0 1 0
vn 0 1 0
vn 0 1 0
vn 0 1 0
g Bota_campaign4_bush_9_0
f 3/3/3 2/2/2 1/1/1
f 4/4/4 1/1/1 2/2/2
f 7/7/7 6/6/6 5/5/5
f 8/8/8 5/5/5 6/6/6
f 11/11/11 10/10/10 9/9/9
f 12/12/12 9/9/9 10/10/10
f 15/15/15 14/14/14 13/13/13
f 16/16/16 13/13/13 14/14/14
f 19/19/19 18/18/18 17/17/17
f 20/20/20 17/17/17 18/18/18
f 23/23/23 22/22/22 21/21/21
f 24/24/24 21/21/21 22/22/22
f 27/27/27 26/26/26 25/25/25
f 28/28/28 25/25/25 26/26/26
f 31/31/31 30/30/30 29/29/29
f 32/32/32 29/29/29 30/30/30
f 35/35/35 34/34/34 33/33/33
f 36/36/36 33/33/33 34/34/34
