g Bota_campaign4_bush_5
v 83.6306 -46.77152 3.224982
v 82.6306 -48.7715 3.224984
v 82.6306 -46.77152 3.224982
v 83.6306 -48.7715 3.224984
v 83.6306 -48.7715 1.224986
v 83.6306 -46.77152 3.224982
v 83.6306 -46.77152 1.224986
v 83.6306 -48.7715 3.224984
v 83.6306 -48.7715 2.224982
v 82.6306 -48.7715 3.224984
v 83.6306 -48.7715 3.224984
v 82.6306 -48.7715 2.224982
v 83.6306 -46.77152 2.224984
v 82.6306 -46.77152 3.224982
v 82.6306 -46.77152 2.224984
v 83.6306 -46.77152 3.224982
v 82.63062 -48.7715 1.224986
v 82.6306 -46.77152 3.224982
v 82.6306 -48.7715 3.224984
v 82.63062 -46.77152 1.224986
v 83.6306 -45.7715 2.224982
v 82.6306 -46.77152 2.224984
v 82.6306 -45.7715 2.224982
v 83.6306 -46.77152 2.224984
v 83.6306 -46.77152 1.224986
v 83.6306 -45.7715 2.224982
v 83.6306 -45.7715 1.224985
v 83.6306 -46.77152 2.224984
v 83.6306 -45.7715 1.224985
v 82.6306 -45.7715 2.224982
v 82.6306 -45.7715 1.224985
v 83.6306 -45.7715 2.224982
v 82.63062 -46.77152 1.224986
v 82.6306 -45.7715 2.224982
v 82.6306 -46.77152 2.224984
v 82.6306 -45.7715 1.224985
v 83.6306 -48.7715 2.224982
v 82.6306 -49.77152 2.224983
v 82.6306 -48.7715 2.224982
v 83.6306 -49.77152 2.224983
v 83.6306 -49.77152 1.224986
v 83.6306 -48.7715 2.224982
v 83.6306 -48.7715 1.224986
v 83.6306 -49.77152 2.224983
v 83.6306 -49.77152 1.224986
v 82.6306 -49.77152 2.224983
v 83.6306 -49.77152 2.224983
v 82.6306 -49.77152 1.224986
v 82.6306 -49.77152 1.224986
v 82.6306 -48.7715 2.224982
v 82.6306 -49.77152 2.224983
v 82.63062 -48.7715 1.224986
vt 31.5166 -2.375013
vt 31.0166 -3.375006
vt 31.0166 -2.375013
vt 31.5166 -3.375006
vt -3.375006 -0.9999905
vt -2.375013 7.033348E-06
vt -2.375013 -0.9999905
vt -3.375006 8.34465E-06
vt 31.5166 -0.4999928
vt 31.0166 8.34465E-06
vt 31.5166 8.34465E-06
vt 31.0166 -0.499993
vt -30.5166 -0.4999917
vt -30.0166 7.033348E-06
vt -30.0166 -0.4999917
vt -30.5166 7.033348E-06
vt 4.375006 -0.9999905
vt 3.375013 7.033348E-06
vt 4.375006 8.34465E-06
vt 3.375013 -0.9999905
vt 31.5166 -1.875006
vt 31.0166 -2.375013
vt 31.0166 -1.875006
vt 31.5166 -2.375013
vt -2.375013 -0.9999905
vt -1.875006 -0.499993
vt -1.875006 -0.9999912
vt -2.375013 -0.4999917
vt -30.5166 -0.9999912
vt -30.0166 -0.499993
vt -30.0166 -0.9999912
vt -30.5166 -0.499993
vt 3.375013 -0.9999905
vt 2.875006 -0.499993
vt 3.375013 -0.4999917
vt 2.875004 -0.9999912
vt 31.5166 -3.375006
vt 31.0166 -3.875015
vt 31.0166 -3.375006
vt 31.5166 -3.875015
vt -3.875015 -0.9999905
vt -3.375006 -0.4999928
vt -3.375006 -0.9999905
vt -3.875015 -0.4999924
vt 31.5166 -0.9999905
vt 31.0166 -0.4999921
vt 31.5166 -0.4999924
vt 31.0166 -0.9999905
vt 4.875015 -0.9999905
vt 4.375006 -0.499993
vt 4.875015 -0.4999921
vt 4.375006 -0.9999905
vn 0 1.220712E-06 1
vn 0 1.220712E-06 1
vn 0 1.220712E-06 1
vn 0 1.220712E-06 1
vn 1 0 0
vn 1 0 0
vn 1 0 0
vn 1 0 0
vn 0 -1 0
vn 0 -1 0
vn 0 -1 0
vn 0 -1 0
vn 0 1 0
vn 0 1 0
vn 0 1 0
vn 0 1 0
vn -1 0 -4.882818E-06
vn -1 0 -4.882818E-06
vn -1 0 -4.882818E-06
vn -1 0 -4.882824E-06
vn 0 2.593956E-06 1
vn 0 2.593956E-06 1
vn 0 2.593956E-06 1
vn 0 2.593956E-06 1
vn 1 0 0
vn 1 0 0
vn 1 0 0
vn 1 0 0
vn 4.882812E-06 1 4.88283E-06
vn 4.882812E-06 1 4.882831E-06
vn 4.882812E-06 1 4.882831E-06
vn 0 1 0
vn -1 0 -9.765648E-06
vn -1 0 -9.765646E-06
vn -1 0 -9.765648E-06
vn -1 -9.765434E-06 0
vn -1.525879E-07 1.525849E-06 1
vn -1.525879E-07 1.525849E-06 1
vn -1.525879E-07 1.525849E-06 1
vn 4.577637E-07 9.155094E-07 1
vn 1 0 0
vn 1 0 0
vn 1 0 0
vn 1 0 0
vn 0 -1 0
vn 0 -1 0
vn 0 -1 0
vn 0 -1 0
vn -1 0 0
vn -1 0 0
vn -1 0 0
vn -1 9.765434E-06 -9.76567E-06
g Bota_campaign4_bush_5_0
f 3/3/3 2/2/2 1/1/1
f 4/4/4 1/1/1 2/2/2
f 7/7/7 6/6/6 5/5/5
f 8/8/8 5/5/5 6/6/6
f 11/11/11 10/10/10 9/9/9
f 12/12/12 9/9/9 10/10/10
f 15/15/15 14/14/14 13/13/13
f 16/16/16 13/13/13 14/14/14
f 19/19/19 18/18/18 17/17/17
f 20/20/20 17/17/17 18/18/18
f 23/23/23 22/22/22 21/21/21
f 24/24/24 21/21/21 22/22/22
f 27/27/27 26/26/26 25/25/25
f 28/28/28 25/25/25 26/26/26
f 31/31/31 30/30/30 29/29/29
f 32/32/32 29/29/29 30/30/30
f 35/35/35 34/34/34 33/33/33
f 36/36/36 33/33/33 34/34/34
f 39/39/39 38/38/38 37/37/37
f 40/40/40 37/37/37 38/38/38
f 43/43/43 42/42/42 41/41/41
f 44/44/44 41/41/41 42/42/42
f 47/47/47 46/46/46 45/45/45
f 48/48/48 45/45/45 46/46/46
f 51/51/51 50/50/50 49/49/49
f 52/52/52 49/49/49 50/50/50
