# Mesh "Box005" exported with Unity Assets Bundle Extractor; 24 vertices, 36 indices, 384 bits per vertex
g Box005
# SubMesh 0
# Vertices
v -0.016225 -0.038373 -0.016215
vt 0.967913 0.093993
vn -0.000000 0.000000 -1.000000
v 0.016225 0.038373 -0.016215
vt 0.942989 0.199053
vn -0.000000 0.000000 -1.000000
v -0.016204 0.038373 -0.016215
vt 0.967913 0.199053
vn -0.000000 0.000000 -1.000000
v 0.016204 -0.038373 -0.016215
vt 0.942989 0.093993
vn -0.000000 0.000000 -1.000000
v -0.016225 -0.038373 0.016215
vt 0.942985 0.094008
vn -0.000000 0.000000 1.000000
v 0.016225 0.038373 0.016215
vt 0.967910 0.199068
vn -0.000000 0.000000 1.000000
v 0.016204 -0.038373 0.016215
vt 0.967910 0.094008
vn -0.000000 0.000000 1.000000
v -0.016204 0.038373 0.016215
vt 0.942985 0.199068
vn -0.000000 0.000000 1.000000
v -0.016225 -0.038373 -0.016215
vt 0.944089 0.053614
vn 0.000000 -1.000000 0.000000
v 0.016204 -0.038373 0.016215
vt 0.967662 0.092968
vn 0.000000 -1.000000 0.000000
v 0.016204 -0.038373 -0.016215
vt 0.967662 0.053614
vn 0.000000 -1.000000 0.000000
v -0.016225 -0.038373 0.016215
vt 0.944089 0.092968
vn 0.000000 -1.000000 0.000000
v 0.016204 -0.038373 -0.016215
vt 0.967917 0.093988
vn 1.000000 -0.000270 0.000000
v 0.016225 0.038373 0.016215
vt 0.942993 0.199048
vn 1.000000 -0.000270 0.000000
v 0.016225 0.038373 -0.016215
vt 0.967917 0.199048
vn 1.000000 -0.000270 0.000000
v 0.016204 -0.038373 0.016215
vt 0.942993 0.093988
vn 1.000000 -0.000270 0.000000
v 0.016225 0.038373 -0.016215
vt 0.943755 0.214412
vn -0.000000 1.000000 0.000000
v -0.016204 0.038373 0.016215
vt 0.967638 0.255362
vn -0.000000 1.000000 0.000000
v -0.016204 0.038373 -0.016215
vt 0.967638 0.214412
vn -0.000000 1.000000 0.000000
v 0.016225 0.038373 0.016215
vt 0.943755 0.255362
vn -0.000000 1.000000 0.000000
v -0.016204 0.038373 -0.016215
vt 0.942986 0.199069
vn -1.000000 0.000270 0.000000
v -0.016225 -0.038373 0.016215
vt 0.967910 0.094010
vn -1.000000 0.000270 0.000000
v -0.016225 -0.038373 -0.016215
vt 0.942986 0.094010
vn -1.000000 0.000270 0.000000
v -0.016204 0.038373 0.016215
vt 0.967910 0.199069
vn -1.000000 0.000270 0.000000
# Faces (1 to 24)
g Box005_0
f -22/-22/-22 -23/-23/-23 -24/-24/-24
f -21/-21/-21 -24/-24/-24 -23/-23/-23
f -18/-18/-18 -19/-19/-19 -20/-20/-20
f -17/-17/-17 -20/-20/-20 -19/-19/-19
f -14/-14/-14 -15/-15/-15 -16/-16/-16
f -13/-13/-13 -16/-16/-16 -15/-15/-15
f -10/-10/-10 -11/-11/-11 -12/-12/-12
f -9/-9/-9 -12/-12/-12 -11/-11/-11
f -6/-6/-6 -7/-7/-7 -8/-8/-8
f -5/-5/-5 -8/-8/-8 -7/-7/-7
f -2/-2/-2 -3/-3/-3 -4/-4/-4
f -1/-1/-1 -4/-4/-4 -3/-3/-3

