g Box1585
v 0.1480801 4.159226 -3.555125
v 0.1480796 1.495633 -2.320898
v -0.1480641 1.495632 -2.320894
v -0.1480637 4.159225 -3.555122
v 0.1480801 4.159226 -3.555125
v -0.1480637 4.159225 -3.555122
v -0.1480637 4.03117 -7.793711
v 0.1480801 4.031173 -7.793711
v -0.1480637 4.159225 -3.555122
v -0.1480641 1.495632 -2.320894
v -0.1480641 1.367577 -6.559477
v -0.1480637 4.03117 -7.793711
v -0.1480647 -5.268401 7.793745
v 0.148079 -5.268401 7.793745
v 0.148079 -5.396457 3.555176
v -0.1480647 -5.396457 3.555176
v 0.1480796 1.495633 -2.320898
v 0.1480801 4.159226 -3.555125
v 0.1480801 4.031173 -7.793711
v 0.1480796 1.367577 -6.559477
v 0.1480796 1.495633 -2.320898
v 0.1480792 -1.218023 0.4717309
v -0.1480645 -1.218024 0.4717309
v -0.1480641 1.495632 -2.320894
v -0.1480641 1.495632 -2.320894
v -0.1480645 -1.218024 0.4717309
v -0.1480645 -1.346079 -3.766846
v -0.1480641 1.367577 -6.559477
v 0.1480796 1.367577 -6.559477
v 0.1480792 -1.346079 -3.766848
v 0.1480792 -1.218023 0.4717309
v 0.1480796 1.495633 -2.320898
v 0.1480792 -1.218023 0.4717309
v 0.148079 -5.268401 7.793745
v -0.1480647 -5.268401 7.793745
v -0.1480645 -1.218024 0.4717309
v -0.1480645 -1.218024 0.4717309
v -0.1480647 -5.268401 7.793745
v -0.1480647 -5.396457 3.555176
v -0.1480645 -1.346079 -3.766846
v 0.1480792 -1.346079 -3.766848
v 0.148079 -5.396457 3.555176
v 0.148079 -5.268401 7.793745
v 0.1480792 -1.218023 0.4717309
vt 0.5808023 0.654466
vt 0.5808005 0.6873732
vt 0.6429809 0.6873732
vt 0.6429816 0.654466
vt 0.5808023 0.654466
vt 0.6429816 0.654466
vt 0.6429834 0.5728953
vt 0.5808026 0.5728953
vt 0.1470189 0.8033872
vt 0.4383705 0.6855188
vt 0.3876612 0.6021767
vt 0.2073722 0.5783965
vt 0.2570192 0.9
vt 0.3191999 0.9
vt 0.3191999 0.8129396
vt 0.2570192 0.8129396
vt 0.5230942 0.7293046
vt 0.7031966 0.6823854
vt 0.7232937 0.5170182
vt 0.4834634 0.6297541
vt 0.5808005 0.6873732
vt 0.5807999 0.7564247
vt 0.6429806 0.7564247
vt 0.6429809 0.6873732
vt 0.3890626 0.7200508
vt 0.5962057 0.7384146
vt 0.6036878 0.6594039
vt 0.3876612 0.6021767
vt 0.4834634 0.6297541
vt 0.2898725 0.6670259
vt 0.2907121 0.7600648
vt 0.521874 0.6904703
vt 0.5807999 0.7564247
vt 0.5808001 0.9
vt 0.6429808 0.9
vt 0.6429806 0.7564247
vt 0.608788 0.7579792
vt 0.9362782 0.9
vt 0.9465725 0.8129396
vt 0.6036878 0.6594039
vt 0.2898725 0.6670259
vt -0.04657248 0.8129396
vt -0.03627833 0.9
vt 0.3211649 0.7371187
vn 9.098676E-06 0.4204273 0.9073263
vn 9.098675E-06 0.4204272 0.9073263
vn 9.098674E-06 0.4204272 0.9073263
vn 9.098676E-06 0.4204272 0.9073263
vn -6.308598E-06 0.9995439 -0.0301976
vn -6.308598E-06 0.9995439 -0.0301976
vn -6.308599E-06 0.9995439 -0.0301976
vn -6.308599E-06 0.9995439 -0.03019761
vn -1 1.487473E-07 0
vn -1 1.487473E-07 0
vn -1 1.487473E-07 0
vn -1 1.487473E-07 0
vn 0 -0.9995439 0.03019816
vn 0 -0.9995439 0.03019816
vn 0 -0.9995439 0.03019816
vn 0 -0.9995439 0.03019816
vn 1 -1.717663E-07 0
vn 1 -1.717663E-07 0
vn 1 -1.717663E-07 0
vn 1 -1.717663E-07 0
vn 2.879308E-06 0.7171744 0.6968938
vn 2.879309E-06 0.7171744 0.6968938
vn 2.879309E-06 0.7171744 0.6968938
vn 2.879309E-06 0.7171744 0.6968938
vn -1 1.522943E-07 0
vn -1 1.522943E-07 0
vn -1 1.522943E-07 0
vn -1 1.522943E-07 0
vn 1 -1.482247E-07 0
vn 1 -1.482247E-07 0
vn 1 -1.482247E-07 0
vn 1 -1.482247E-07 0
vn -9.458136E-07 0.875039 0.4840524
vn -9.458136E-07 0.875039 0.4840525
vn -9.458136E-07 0.875039 0.4840524
vn -9.458136E-07 0.875039 0.4840525
vn -1 0 0
vn -1 0 0
vn -1 0 0
vn -1 0 0
vn 1 0 0
vn 1 0 0
vn 1 0 0
vn 1 0 0
g Box1585_0
f 3/3/3 2/2/2 1/1/1
f 4/4/4 3/3/3 1/1/1
f 7/7/7 6/6/6 5/5/5
f 8/8/8 7/7/7 5/5/5
f 11/11/11 10/10/10 9/9/9
f 12/12/12 11/11/11 9/9/9
f 15/15/15 14/14/14 13/13/13
f 16/16/16 15/15/15 13/13/13
f 19/19/19 18/18/18 17/17/17
f 20/20/20 19/19/19 17/17/17
f 23/23/23 22/22/22 21/21/21
f 24/24/24 23/23/23 21/21/21
f 27/27/27 26/26/26 25/25/25
f 28/28/28 27/27/27 25/25/25
f 31/31/31 30/30/30 29/29/29
f 32/32/32 31/31/31 29/29/29
f 35/35/35 34/34/34 33/33/33
f 36/36/36 35/35/35 33/33/33
f 39/39/39 38/38/38 37/37/37
f 40/40/40 39/39/39 37/37/37
f 43/43/43 42/42/42 41/41/41
f 44/44/44 43/43/43 41/41/41
