g Box1069
v -0.2464416 0.5342068 0.1856399
v -0.2464416 0.6677539 0.1856399
v 0.2464392 0.6677542 0.1856399
v 0.2464392 0.5342068 0.1856399
v -0.2464416 0.5342068 0.1856399
v 0.2464392 0.5342068 0.1856399
v 0.2464392 0.5342068 -0.8428125
v -0.2464416 0.5342068 -0.8428125
v 0.2464392 0.5342068 0.1856399
v 0.2464392 0.6677542 0.1856399
v 0.2464392 0.6677542 -0.8428125
v 0.2464392 0.5342068 -0.8428125
v -0.2464416 0.4006485 0.5142282
v -0.2464416 0.5342013 0.5142282
v 0.2464392 0.5342013 0.5142282
v 0.2464392 0.4006485 0.5142282
v -0.2464416 0.4006485 0.5142282
v 0.2464392 0.4006485 0.5142282
v 0.2464392 0.4006485 0.02134582
v -0.2464416 0.4006485 0.02134582
v 0.2464392 0.4006485 0.5142282
v 0.2464392 0.5342013 0.5142282
v 0.2464392 0.5342013 0.02134582
v 0.2464392 0.4006485 0.02134582
v 0.2464392 0.5342013 0.5142282
v -0.2464416 0.5342013 0.5142282
v -0.2464416 0.5342013 0.02134582
v 0.2464392 0.5342013 0.02134582
v -0.2464416 0.267096 0.6785205
v -0.2464416 0.4006488 0.6785205
v 0.2464392 0.4006488 0.6785205
v 0.2464392 0.267096 0.6785205
v -0.2464416 0.267096 0.6785205
v 0.2464392 0.267096 0.6785205
v 0.2464392 0.267096 0.3499323
v -0.2464416 0.267096 0.3499323
v 0.2464392 0.267096 0.6785205
v 0.2464392 0.4006488 0.6785205
v 0.2464392 0.4006488 0.3499323
v 0.2464392 0.267096 0.3499323
v 0.2464392 0.4006488 0.6785205
v -0.2464416 0.4006488 0.6785205
v -0.2464416 0.4006488 0.3499323
v 0.2464392 0.4006488 0.3499323
v -0.2464416 -0.2671036 0.8428128
v -0.2464416 0.2671017 0.8428128
v 0.2464392 0.2671017 0.8428128
v 0.2464392 -0.2671036 0.8428128
v -0.2464416 -0.2671036 0.8428128
v 0.2464392 -0.2671036 0.8428128
v 0.2464392 -0.2671036 0.6785205
v -0.2464416 -0.2671036 0.6785205
v 0.2464392 -0.2671036 0.8428128
v 0.2464392 0.2671017 0.8428128
v 0.2464392 0.2671017 0.6785205
v 0.2464392 -0.2671036 0.6785205
v 0.2464392 0.2671017 0.8428128
v -0.2464416 0.2671017 0.8428128
v -0.2464416 0.2671017 0.6785205
v 0.2464392 0.2671017 0.6785205
v -0.2464416 0.1335489 0.5142245
v -0.2464416 0.1335489 0.6785205
v 0.2464392 0.1335489 0.6785205
v 0.2464392 0.1335489 0.5142245
v 0.2464392 0.1335489 0.5142245
v 0.2464392 0.1335489 0.6785205
v 0.2464392 0.2671017 0.6785205
v 0.2464392 0.2671017 0.5142245
v -0.2464416 0.2671017 0.5142245
v -0.2464416 0.2671017 0.6785205
v -0.2464416 0.1335489 0.6785205
v -0.2464416 0.1335489 0.5142245
v -0.2464416 -0.1335495 0.5142245
v 0.2464392 -0.1335495 0.5142245
v 0.2464392 -0.1335498 0.6785205
v -0.2464416 -0.1335495 0.6785205
v 0.2464392 -0.1335495 0.5142245
v 0.2464392 -0.2671024 0.5142245
v 0.2464392 -0.2671024 0.6785202
v 0.2464392 -0.1335498 0.6785205
v -0.2464416 -0.2670965 0.6785205
v 0.2464392 -0.2670965 0.6785205
v 0.2464392 -0.4006491 0.6785205
v -0.2464416 -0.4006491 0.6785205
v -0.2464416 -0.2670965 0.6785205
v -0.2464416 -0.2670963 0.3499323
v 0.2464392 -0.2670965 0.3499323
v 0.2464392 -0.2670965 0.6785205
v 0.2464392 -0.2670965 0.6785205
v 0.2464392 -0.2670965 0.3499323
v 0.2464392 -0.4006491 0.3499323
v 0.2464392 -0.4006491 0.6785205
v 0.2464392 -0.4006491 0.6785205
v 0.2464392 -0.4006491 0.3499323
v -0.2464416 -0.4006491 0.3499323
v -0.2464416 -0.4006491 0.6785205
v -0.2464416 -0.4006491 0.5142282
v 0.2464392 -0.4006494 0.5142282
v 0.2464392 -0.5342023 0.5142282
v -0.2464416 -0.5342021 0.5142282
v -0.2464416 -0.4006491 0.5142282
v -0.2464416 -0.4006491 0.02134582
v 0.2464392 -0.4006491 0.02134582
v 0.2464392 -0.4006494 0.5142282
v 0.2464392 -0.4006494 0.5142282
v 0.2464392 -0.4006491 0.02134582
v 0.2464392 -0.534202 0.02134582
v 0.2464392 -0.5342023 0.5142282
v 0.2464392 -0.5342023 0.5142282
v 0.2464392 -0.534202 0.02134582
v -0.2464416 -0.534202 0.02134582
v -0.2464416 -0.5342021 0.5142282
v -0.2464416 -0.5342079 0.1856399
v 0.2464392 -0.5342078 0.1856399
v 0.2464392 -0.6677548 0.1856399
v -0.2464416 -0.6677549 0.1856399
v -0.2464416 -0.5342079 0.1856399
v -0.2464416 -0.5342068 -0.8428125
v 0.2464392 -0.5342072 -0.8428125
v 0.2464392 -0.5342078 0.1856399
v 0.2464392 -0.5342078 0.1856399
v 0.2464392 -0.5342072 -0.8428125
v 0.2464392 -0.6677544 -0.8428125
v 0.2464392 -0.6677548 0.1856399
v -0.2464416 0.6677539 0.1856399
v -0.2464416 0.6677536 -0.8428125
v 0.2464392 0.6677542 -0.8428125
v 0.2464392 0.6677542 0.1856399
v -0.2464416 -0.6677549 0.1856399
v 0.2464392 -0.6677548 0.1856399
v 0.2464392 -0.6677544 -0.8428125
v -0.2464416 -0.6677545 -0.8428125
vt 0.4507119 0.6068414
vt 0.450712 0.6335509
vt 0.5492881 0.6335509
vt 0.5492881 0.6068414
vt 0.4507119 0.537128
vt 0.5492881 0.537128
vt 0.5492881 0.3314375
vt 0.4507119 0.3314375
vt 0.6068414 0.537128
vt 0.6335509 0.537128
vt 0.6335509 0.3314375
vt 0.6068414 0.3314375
vt 0.4507119 0.5801298
vt 0.4507119 0.6068404
vt 0.5492881 0.6068403
vt 0.5492881 0.5801297
vt 0.4507119 0.6028456
vt 0.5492881 0.6028456
vt 0.5492881 0.5042691
vt 0.4507119 0.5042691
vt 0.5801297 0.6028456
vt 0.6068403 0.6028456
vt 0.6068403 0.5042691
vt 0.5801297 0.5042691
vt 0.4507119 0.6028456
vt 0.549288 0.6028456
vt 0.549288 0.5042691
vt 0.4507119 0.5042691
vt 0.4507119 0.5534193
vt 0.4507119 0.5801299
vt 0.5492881 0.5801298
vt 0.5492881 0.5534192
vt 0.4507119 0.635704
vt 0.5492881 0.635704
vt 0.5492881 0.5699864
vt 0.4507119 0.5699864
vt 0.5534192 0.635704
vt 0.5801298 0.635704
vt 0.5801298 0.5699864
vt 0.5534192 0.5699864
vt 0.4507119 0.635704
vt 0.549288 0.635704
vt 0.549288 0.5699864
vt 0.4507119 0.5699864
vt 0.4507119 0.4465794
vt 0.4507119 0.5534204
vt 0.5492881 0.5534204
vt 0.5492881 0.4465793
vt 0.4507119 0.6685625
vt 0.5492881 0.6685625
vt 0.5492881 0.635704
vt 0.4507119 0.635704
vt 0.4465793 0.6685625
vt 0.5534204 0.6685625
vt 0.5534204 0.635704
vt 0.4465793 0.635704
vt 0.4507119 0.6685625
vt 0.5492881 0.6685625
vt 0.5492881 0.635704
vt 0.4507119 0.635704
vt 0.4507119 0.6028449
vt 0.4507119 0.635704
vt 0.5492881 0.635704
vt 0.5492881 0.6028449
vt 0.5267099 0.6028449
vt 0.5267099 0.635704
vt 0.5534204 0.635704
vt 0.5534204 0.6028449
vt 0.4465796 0.6028449
vt 0.4465796 0.635704
vt 0.4732901 0.635704
vt 0.4732901 0.6028449
vt 0.5492881 0.6028449
vt 0.4507119 0.6028449
vt 0.4507119 0.635704
vt 0.5492881 0.635704
vt 0.4732902 0.6028449
vt 0.4465796 0.6028449
vt 0.4465796 0.635704
vt 0.4732901 0.635704
vt 0.4507119 0.4465808
vt 0.5492881 0.4465808
vt 0.549288 0.4198703
vt 0.4507119 0.4198703
vt 0.5492881 0.635704
vt 0.5492881 0.5699864
vt 0.4507119 0.5699864
vt 0.4507119 0.635704
vt 0.4465808 0.635704
vt 0.4465808 0.5699864
vt 0.4198703 0.5699864
vt 0.4198703 0.635704
vt 0.549288 0.635704
vt 0.549288 0.5699864
vt 0.4507119 0.5699864
vt 0.4507119 0.635704
vt 0.4507119 0.4198703
vt 0.549288 0.4198702
vt 0.549288 0.3931596
vt 0.4507119 0.3931597
vt 0.5492881 0.6028456
vt 0.5492881 0.5042691
vt 0.4507119 0.5042691
vt 0.4507119 0.6028456
vt 0.4198702 0.6028456
vt 0.4198703 0.5042691
vt 0.3931597 0.5042691
vt 0.3931596 0.6028456
vt 0.549288 0.6028456
vt 0.549288 0.5042691
vt 0.4507119 0.5042691
vt 0.4507119 0.6028456
vt 0.4507119 0.3931585
vt 0.549288 0.3931585
vt 0.549288 0.3664491
vt 0.4507119 0.3664491
vt 0.5492881 0.537128
vt 0.5492881 0.3314375
vt 0.4507119 0.3314375
vt 0.4507119 0.537128
vt 0.3931585 0.537128
vt 0.3931586 0.3314375
vt 0.3664492 0.3314375
vt 0.3664491 0.537128
vt 0.549288 0.537128
vt 0.549288 0.3314375
vt 0.4507119 0.3314375
vt 0.4507119 0.537128
vt 0.4507119 0.537128
vt 0.549288 0.537128
vt 0.549288 0.3314375
vt 0.4507119 0.3314375
vn 0 0 1
vn 0 0 1
vn 0 0 1
vn 0 0 1
vn 0 -1 0
vn 0 -1 0
vn 0 -1 0
vn 0 -1 0
vn 1 0 0
vn 1 0 0
vn 1 0 0
vn 1 0 0
vn 0 0 1
vn 0 0 1
vn 0 0 1
vn 0 0 1
vn 0 -1 0
vn 0 -1 0
vn 0 -1 0
vn 0 -1 0
vn 1 0 0
vn 1 0 0
vn 1 0 0
vn 1 0 0
vn 0 1 0
vn 0 1 0
vn 0 1 0
vn 0 1 0
vn 0 0 1
vn 0 0 1
vn 0 0 1
vn 0 0 1
vn 0 -1 0
vn 0 -1 0
vn 0 -1 0
vn 0 -1 0
vn 1 0 0
vn 1 0 0
vn 1 0 0
vn 1 0 0
vn 0 1 0
vn 0 1 0
vn 0 1 0
vn 0 1 0
vn 0 0 1
vn 0 0 1
vn 0 0 1
vn 0 0 1
vn 0 -1 0
vn 0 -1 0
vn 0 -1 0
vn 0 -1 0
vn 1 0 0
vn 1 0 0
vn 1 0 0
vn 1 0 0
vn 0 1 0
vn 0 1 0
vn 0 1 0
vn 0 1 0
vn 0 -1 0
vn 0 -1 0
vn 0 -1 0
vn 0 -1 0
vn 1 0 0
vn 1 0 0
vn 1 0 0
vn 1 0 0
vn -1 0 0
vn -1 0 0
vn -1 0 0
vn -1 0 0
vn 3.095837E-07 1 9.28738E-07
vn 3.095837E-07 1 9.28738E-07
vn 3.095837E-07 1 9.28738E-07
vn 3.095837E-07 1 9.28738E-07
vn 1 0 0
vn 1 0 0
vn 1 0 0
vn 1 0 0
vn 0 0 1
vn 0 0 1
vn 0 0 1
vn 0 0 1
vn 3.095837E-07 1 4.643742E-07
vn 3.095837E-07 1 4.643742E-07
vn 3.095837E-07 1 4.643742E-07
vn 3.095837E-07 1 4.643742E-07
vn 1 0 0
vn 1 0 0
vn 1 0 0
vn 1 0 0
vn 0 -1 0
vn 0 -1 0
vn 0 -1 0
vn 0 -1 0
vn 0 0 1
vn 0 0 1
vn 0 0 1
vn 0 0 1
vn 3.095837E-07 1 3.095827E-07
vn 3.095837E-07 1 3.095827E-07
vn 3.095837E-07 1 3.095827E-07
vn 3.095837E-07 1 3.095827E-07
vn 1 0 0
vn 1 0 0
vn 1 0 0
vn 1 0 0
vn -1.547919E-07 -1 -4.643742E-07
vn -1.547919E-07 -1 -4.643742E-07
vn -1.547919E-07 -1 -4.643742E-07
vn -1.547919E-07 -1 -4.643742E-07
vn 0 0 1
vn 0 0 1
vn 0 0 1
vn 0 0 1
vn 1.547919E-07 1 8.160157E-07
vn 1.547919E-07 1 8.160157E-07
vn 1.547919E-07 1 8.160157E-07
vn 1.547919E-07 1 8.160157E-07
vn 1 0 0
vn 1 0 0
vn 1 0 0
vn 1 0 0
vn -9.28751E-07 1 -1.483665E-07
vn -9.28751E-07 1 -1.483665E-07
vn -9.28751E-07 1 -1.483665E-07
vn -9.28751E-07 1 -1.483665E-07
vn 3.095837E-07 -1 -4.450995E-07
vn 3.095837E-07 -1 -4.450995E-07
vn 3.095837E-07 -1 -4.450995E-07
vn 3.095837E-07 -1 -4.450995E-07
g Box1069_0
f 3/3/3 2/2/2 1/1/1
f 4/4/4 3/3/3 1/1/1
f 7/7/7 6/6/6 5/5/5
f 8/8/8 7/7/7 5/5/5
f 11/11/11 10/10/10 9/9/9
f 12/12/12 11/11/11 9/9/9
f 15/15/15 14/14/14 13/13/13
f 16/16/16 15/15/15 13/13/13
f 19/19/19 18/18/18 17/17/17
f 20/20/20 19/19/19 17/17/17
f 23/23/23 22/22/22 21/21/21
f 24/24/24 23/23/23 21/21/21
f 27/27/27 26/26/26 25/25/25
f 28/28/28 27/27/27 25/25/25
f 31/31/31 30/30/30 29/29/29
f 32/32/32 31/31/31 29/29/29
f 35/35/35 34/34/34 33/33/33
f 36/36/36 35/35/35 33/33/33
f 39/39/39 38/38/38 37/37/37
f 40/40/40 39/39/39 37/37/37
f 43/43/43 42/42/42 41/41/41
f 44/44/44 43/43/43 41/41/41
f 47/47/47 46/46/46 45/45/45
f 48/48/48 47/47/47 45/45/45
f 51/51/51 50/50/50 49/49/49
f 52/52/52 51/51/51 49/49/49
f 55/55/55 54/54/54 53/53/53
f 56/56/56 55/55/55 53/53/53
f 59/59/59 58/58/58 57/57/57
f 60/60/60 59/59/59 57/57/57
f 63/63/63 62/62/62 61/61/61
f 64/64/64 63/63/63 61/61/61
f 67/67/67 66/66/66 65/65/65
f 68/68/68 67/67/67 65/65/65
f 71/71/71 70/70/70 69/69/69
f 72/72/72 71/71/71 69/69/69
f 75/75/75 74/74/74 73/73/73
f 76/76/76 75/75/75 73/73/73
f 79/79/79 78/78/78 77/77/77
f 80/80/80 79/79/79 77/77/77
f 83/83/83 82/82/82 81/81/81
f 84/84/84 83/83/83 81/81/81
f 87/87/87 86/86/86 85/85/85
f 88/88/88 87/87/87 85/85/85
f 91/91/91 90/90/90 89/89/89
f 92/92/92 91/91/91 89/89/89
f 95/95/95 94/94/94 93/93/93
f 96/96/96 95/95/95 93/93/93
f 99/99/99 98/98/98 97/97/97
f 100/100/100 99/99/99 97/97/97
f 103/103/103 102/102/102 101/101/101
f 104/104/104 103/103/103 101/101/101
f 107/107/107 106/106/106 105/105/105
f 108/108/108 107/107/107 105/105/105
f 111/111/111 110/110/110 109/109/109
f 112/112/112 111/111/111 109/109/109
f 115/115/115 114/114/114 113/113/113
f 116/116/116 115/115/115 113/113/113
f 119/119/119 118/118/118 117/117/117
f 120/120/120 119/119/119 117/117/117
f 123/123/123 122/122/122 121/121/121
f 124/124/124 123/123/123 121/121/121
f 127/127/127 126/126/126 125/125/125
f 128/128/128 127/127/127 125/125/125
f 131/131/131 130/130/130 129/129/129
f 132/132/132 131/131/131 129/129/129
