g Box1590
v -1.384741 -1.843766 -0.02482864
v -1.384741 -1.843766 1.637335
v 1.384741 -1.843766 1.637335
v 1.384741 -1.843766 -0.02482864
v 1.384741 -1.843766 -0.02482864
v 1.384741 -1.843766 1.637335
v 1.384741 -0.6570737 2.104774
v 1.384741 -0.6570737 -0.02482864
v -1.384741 -0.6570737 -0.02482864
v -1.384741 -0.6570737 2.104774
v -1.384741 -1.843766 1.637335
v -1.384741 -1.843766 -0.02482864
v -1.615391 -0.6570947 -0.02699688
v -1.614974 -0.6570938 2.978595
v 1.614935 -0.6570938 2.978595
v 1.615352 -0.6570947 -0.02699688
v -0.9111496 -0.6570929 4.367903
v 0.9111105 -0.6570929 4.367903
v 0.4510785 -0.6570929 6.263546
v -0.4511174 -0.6570929 6.263546
v 1.615352 -0.6570947 -0.02699688
v 1.614935 -0.6570938 2.978595
v 1.614935 5.309945 2.978595
v 1.615352 5.309944 -0.02699688
v 1.615352 5.309944 -0.02699688
v 1.614935 5.309945 2.978595
v -1.614974 5.309946 2.978595
v -1.615391 5.309945 -0.02699688
v 0.9111108 5.309946 4.367903
v -0.9111494 5.309946 4.367903
v -0.4511175 5.309946 6.263546
v 0.4510784 5.309946 6.263546
v -1.615391 5.309945 -0.02699688
v -1.614974 5.309946 2.978595
v -1.614974 -0.6570938 2.978595
v -1.615391 -0.6570947 -0.02699688
v 2.692002 1.448787 -0.02483314
v 2.69201 1.448762 1.904377
v 2.69201 3.2765 1.904377
v 2.692001 3.276526 -0.02483314
v 2.692018 1.778671 2.960102
v 2.692018 2.931786 2.960102
v 2.692018 2.706358 3.95968
v 2.692018 2.018855 3.95968
v 2.692001 3.276526 -0.02483314
v 2.69201 3.2765 1.904377
v 1.61495 3.276526 1.904377
v 1.61495 3.276526 -0.02483318
v 1.61495 1.448786 -0.02483318
v 1.61495 1.448786 1.904377
v 2.69201 1.448762 1.904377
v 2.692002 1.448787 -0.02483314
vt 0.05654572 0.000364028
vt 0.05654579 0.2793932
vt 0.7355093 0.2793932
vt 0.7355093 0.000364028
vt -0.3236129 0.000364028
vt -0.3236129 0.2793932
vt -0.04107358 0.3578627
vt -0.04107351 0.000364028
vt 1.097073 0.000364028
vt 1.097073 0.3578627
vt 1.379613 0.2793932
vt 1.379613 0.000364028
vt 0 6.294251E-08
vt 0.0001020927 0.504552
vt 0.7919434 0.504552
vt 0.7920455 6.294251E-08
vt 0.1726511 0.7377765
vt 0.6193945 0.7377765
vt 0.5066135 1.056
vt 0.2854321 1.056
vt -0.04107855 6.294251E-08
vt -0.04107836 0.504552
vt 1.379613 0.504552
vt 1.379612 6.294251E-08
vt 0.2639542 6.294251E-08
vt 0.2640563 0.504552
vt 1.055898 0.504552
vt 1.056 6.294251E-08
vt 0.4366052 0.7377765
vt 0.8833486 0.7377765
vt 0.7705677 1.056
vt 0.5493863 1.056
vt -0.3236128 6.294251E-08
vt -0.3236129 0.504552
vt 1.097078 0.504552
vt 1.097079 6.294251E-08
vt 0.4603102 0.0003632727
vt 0.4603043 0.3242219
vt 0.8954703 0.3242219
vt 0.8954764 0.0003632727
vt 0.5388523 0.5014475
vt 0.8133972 0.5014475
vt 0.759725 0.6692478
vt 0.5960377 0.6692478
vt 4.028321E-06 0.0003632727
vt 1.951218E-06 0.3242219
vt 0.2640528 0.3242218
vt 0.2640529 0.0003632727
vt 0.7919472 0.0003632727
vt 0.7919472 0.3242218
vt 1.055998 0.3242219
vt 1.055996 0.0003632727
vn 0 -1 0
vn 0 -1 0
vn 0 -1 0
vn 0 -1 0
vn 1 0 0
vn 1 0 0
vn 1 0 0
vn 1 0 0
vn -1 0 0
vn -1 0 0
vn -1 0 0
vn -1 0 0
vn 0 -1 3.046079E-07
vn 0 -1 4.506999E-07
vn 0 -1 4.506999E-07
vn 0 -1 3.046079E-07
vn 0 -1 3.985643E-07
vn 0 -1 3.985643E-07
vn 0 -1 0
vn 0 -1 0
vn 1 0 0.0001385966
vn 1 0 0.0001385966
vn 1 0 0.0001385966
vn 1 0 0.0001385966
vn 1.889443E-07 1 -2.030719E-07
vn 1.608555E-07 1 -3.910227E-07
vn 1.608555E-07 1 -3.910227E-07
vn 1.889443E-07 1 -2.030719E-07
vn 0 1 -3.985644E-07
vn 0 1 -3.985644E-07
vn 0 1 0
vn 0 1 0
vn -1 0 0.0001385966
vn -1 0 0.0001385966
vn -1 0 0.0001385966
vn -1 0 0.0001385966
vn 1 0 -4.350138E-06
vn 1 0 -4.350138E-06
vn 1 0 -4.350139E-06
vn 1 0 -4.350138E-06
vn 1 0 -4.557579E-06
vn 1 0 -4.550627E-06
vn 1 0 0
vn 1 0 0
vn 1.147537E-05 1 6.722918E-06
vn 1.147538E-05 1 6.722918E-06
vn 1.147537E-05 1 6.722918E-06
vn 1.147537E-05 1 6.722918E-06
vn -1.105036E-05 -1 -6.327452E-06
vn -1.105036E-05 -1 -6.327452E-06
vn -1.105036E-05 -1 -6.327452E-06
vn -1.105036E-05 -1 -6.327451E-06
g Box1590_0
f 3/3/3 2/2/2 1/1/1
f 4/4/4 3/3/3 1/1/1
f 7/7/7 6/6/6 5/5/5
f 8/8/8 7/7/7 5/5/5
f 11/11/11 10/10/10 9/9/9
f 12/12/12 11/11/11 9/9/9
f 15/15/15 14/14/14 13/13/13
f 16/16/16 15/15/15 13/13/13
f 17/17/17 14/14/14 15/15/15
f 18/18/18 17/17/17 15/15/15
f 17/17/17 18/18/18 19/19/19
f 20/20/20 17/17/17 19/19/19
f 23/23/23 22/22/22 21/21/21
f 24/24/24 23/23/23 21/21/21
f 27/27/27 26/26/26 25/25/25
f 28/28/28 27/27/27 25/25/25
f 29/29/29 26/26/26 27/27/27
f 30/30/30 29/29/29 27/27/27
f 29/29/29 30/30/30 31/31/31
f 32/32/32 29/29/29 31/31/31
f 35/35/35 34/34/34 33/33/33
f 36/36/36 35/35/35 33/33/33
f 39/39/39 38/38/38 37/37/37
f 40/40/40 39/39/39 37/37/37
f 41/41/41 38/38/38 39/39/39
f 42/42/42 41/41/41 39/39/39
f 41/41/41 42/42/42 43/43/43
f 44/44/44 41/41/41 43/43/43
f 47/47/47 46/46/46 45/45/45
f 48/48/48 47/47/47 45/45/45
f 51/51/51 50/50/50 49/49/49
f 52/52/52 51/51/51 49/49/49
