g Box1544
v -1.40039 1.855524 1.576932
v -0.2427209 3.13017 1.735454
v -0.6053156 3.492764 0.5923587
v -1.762984 2.218119 0.5923587
v -1.150576 4.038026 -0.4190194
v -2.308245 2.76338 -0.4190191
v -0.7042483 3.591698 0.6731367
v -0.3416537 3.229102 1.900157
v -1.499322 1.954456 1.741634
v -1.861917 2.317051 0.6731369
v -2.774133 0.6796474 1.741634
v -3.138515 1.040456 0.6731367
v -1.249509 4.136959 -0.3382413
v -2.407177 2.862313 -0.338241
v -3.686461 1.583031 -0.3382405
v -5.054049 0.3324255 -0.3382398
v -4.508789 -0.2128354 0.6731367
v -4.146194 -0.5754312 1.900158
v -4.146194 -0.5754312 1.900158
v -4.047261 -0.6743639 1.735455
v -4.409856 -0.3117683 0.5923588
v -4.508789 -0.2128354 0.6731367
v -4.955116 0.2334927 -0.4190181
v -5.054049 0.3324255 -0.3382398
v -3.402259 -1.31937 1.900163
v -3.501191 -1.220437 1.735461
v -3.138597 -1.583032 0.5923631
v -3.039664 -1.681965 0.6731408
v -2.593336 -2.128292 -0.4190142
v -2.494404 -2.227225 -0.3382362
v -1.150576 4.038026 -0.4190194
v -0.6053156 3.492764 0.5923587
v -0.7042483 3.591698 0.6731367
v -1.249509 4.136959 -0.3382413
v -0.3416537 3.229102 1.900157
v -0.2427209 3.13017 1.735454
v 0.303349 2.584098 1.73546
v 0.4022813 2.485165 1.900161
v 0.665943 2.221503 0.592363
v 0.7648757 2.12257 0.6731412
v 1.211203 1.676241 -0.4190152
v 1.310135 1.577309 -0.338237
v -2.674714 0.5812019 1.576932
v -3.039095 0.9420112 0.5923585
v -4.409856 -0.3117683 0.5923588
v -4.047261 -0.6743639 1.735455
v -4.955116 0.2334927 -0.4190181
v -3.587041 1.484586 -0.4190186
v 0.665943 2.221503 0.592363
v 0.303349 2.584098 1.73546
v -0.9712994 1.426431 1.576936
v -0.6087053 1.063836 0.5923632
v 1.211203 1.676241 -0.4190152
v -0.06344493 0.5185748 -0.419015
v -0.8723671 1.327498 1.741639
v 0.4022813 2.485165 1.900161
v 0.7648757 2.12257 0.6731412
v -0.5097726 0.9649033 0.6731412
v -2.147178 0.05268896 1.741639
v -1.78637 -0.3116927 0.673141
v 1.310135 1.577309 -0.338237
v 0.03548751 0.4196421 -0.3382369
v -1.243796 -0.85964 -0.3382365
v -2.494404 -2.227225 -0.3382362
v -3.039664 -1.681965 0.6731408
v -3.402259 -1.31937 1.900163
v -3.138597 -1.583032 0.5923631
v -1.884815 -0.2122726 0.5923628
v -2.245623 0.1521091 1.576937
v -3.501191 -1.220437 1.735461
v -2.593336 -2.128292 -0.4190142
v -1.342241 -0.7602195 -0.4190143
v -4.146194 -0.5754312 1.900158
v -2.774133 0.6796474 1.741634
v -2.147178 0.05268896 1.741639
v -3.402259 -1.31937 1.900163
v -2.774133 0.6796474 1.741634
v -1.499322 1.954456 1.741634
v -0.8723671 1.327498 1.741639
v -2.147178 0.05268896 1.741639
v -1.499322 1.954456 1.741634
v -0.3416537 3.229102 1.900157
v 0.4022813 2.485165 1.900161
v -0.8723671 1.327498 1.741639
vt 0.3319639 0.9053323
vt -0.1725419 0.9518324
vt -0.172542 0.6165242
vt 0.3319637 0.6165242
vt -0.1725424 0.3198533
vt 0.3319635 0.3198535
vt 1.492542 0.6402191
vt 1.492542 1.000145
vt 0.9880363 0.9536449
vt 0.9880364 0.6402192
vt 0.4591991 0.953645
vt 0.4584582 0.6402191
vt 1.492543 0.3435482
vt 0.9880366 0.3435484
vt 0.4573441 0.3435484
vt -0.08571628 0.3435487
vt -0.08571652 0.6402191
vt -0.08571676 1.000145
vt 0.8513348 1.000145
vt 0.8102939 0.9518327
vt 0.9607115 0.6165243
vt 1.001752 0.6402191
vt 1.186905 0.3198537
vt 1.227946 0.3435487
vt 0.5427231 1.000147
vt 0.5837638 0.9518341
vt 0.4333465 0.6165255
vt 0.3923056 0.6402203
vt 0.2071529 0.3198549
vt 0.1661121 0.3435497
vt 0.1330968 0.3198533
vt 0.3592908 0.6165242
vt 0.3182498 0.6402191
vt 0.09205594 0.3435482
vt 0.4686672 1.000145
vt 0.509708 0.9518324
vt 0.7362381 0.951834
vt 0.7772788 1.000146
vt 0.8866552 0.6165255
vt 0.9276961 0.6402204
vt 1.112849 0.3198545
vt 1.15389 0.3435495
vt 0.8605989 0.9053324
vt 0.8613397 0.6165242
vt 1.405717 0.6165243
vt 1.405717 0.9518327
vt 1.405717 0.3198537
vt 0.8624538 0.3198535
vt 1.492541 0.6165255
vt 1.492541 0.951834
vt 0.9880356 0.9053338
vt 0.9880354 0.6165256
vt 1.492541 0.3198545
vt 0.9880351 0.3198546
vt 0.3319646 0.9536464
vt -0.1725413 1.000146
vt -0.1725411 0.6402204
vt 0.3319647 0.6402204
vt 0.8608016 0.9536464
vt 0.861543 0.6402204
vt -0.1725408 0.3435495
vt 0.331965 0.3435495
vt 0.8626575 0.3435496
vt 1.405718 0.3435497
vt 1.405718 0.6402203
vt 1.405718 1.000147
vt -0.08571786 0.6165255
vt 0.4586594 0.6165255
vt 0.4594006 0.9053338
vt -0.08571754 0.9518341
vt -0.08571778 0.3198549
vt 0.4575449 0.3198548
vt 0.8513348 -0.08571676
vt 0.8270705 0.4591991
vt 0.5669861 0.4591985
vt 0.5427231 -0.08571754
vt 0.8270705 0.4591991
vt 0.8270698 0.9880363
vt 0.5669857 0.9880356
vt 0.5669861 0.4591985
vt 0.8270698 0.9880363
vt 0.8513328 1.492542
vt 0.5427212 1.492541
vt 0.5669857 0.9880356
vn 0.6803911 -0.5910036 -0.433339
vn 0.6803911 -0.5910036 -0.433339
vn 0.6372448 -0.5654299 -0.5236488
vn 0.6387092 -0.5663285 -0.5208863
vn 0.5889225 -0.5348757 -0.6058698
vn 0.5889225 -0.5348756 -0.6058699
vn -0.6423286 0.5708295 0.5114369
vn -0.6885925 0.6000829 0.4071129
vn -0.6639246 0.6187878 0.4198879
vn -0.6236386 0.5876833 0.5154641
vn -0.6205441 0.6622604 0.4199243
vn -0.5890105 0.6223489 0.515508
vn -0.5889226 0.5348756 0.6058698
vn -0.5758434 0.5485672 0.6061999
vn -0.549556 0.5749059 0.6061941
vn -0.5368947 0.5870624 0.6058891
vn -0.5735978 0.6399169 0.5113627
vn -0.6035209 0.6855459 0.4071726
vn -0.7071065 -0.7071071 -6.003622E-07
vn -0.7071065 -0.7071071 -6.003622E-07
vn -0.7071069 -0.7071066 -2.434857E-07
vn -0.7071069 -0.7071066 -2.402739E-07
vn -0.7071074 -0.7071061 1.197984E-07
vn -0.7071074 -0.7071061 1.197984E-07
vn -0.7071058 -0.7071078 1.093995E-06
vn -0.7071057 -0.7071078 1.093995E-06
vn -0.7071061 -0.7071074 6.334931E-07
vn -0.7071061 -0.7071074 6.293487E-07
vn -0.7071065 -0.707107 1.64723E-07
vn -0.7071065 -0.707107 1.647229E-07
vn 0.7071065 0.7071071 9.583846E-07
vn 0.7071066 0.7071069 5.422295E-07
vn 0.7071066 0.7071069 5.459083E-07
vn 0.7071065 0.7071071 9.583846E-07
vn 0.7071069 0.7071066 1.33414E-07
vn 0.7071069 0.7071066 1.33414E-07
vn 0.7071082 0.7071054 5.469981E-07
vn 0.7071082 0.7071054 5.469981E-07
vn 0.7071078 0.7071057 2.165657E-07
vn 0.7071079 0.7071057 2.135931E-07
vn 0.7071075 0.7071061 -1.197983E-07
vn 0.7071075 0.7071061 -1.197983E-07
vn 0.594493 -0.6773013 -0.4334062
vn 0.5691226 -0.636223 -0.5208838
vn 0.5682195 -0.6348075 -0.5235896
vn 0.594493 -0.6773014 -0.4334061
vn 0.5369044 -0.5870534 -0.6058894
vn 0.5369044 -0.5870534 -0.6058894
vn -0.5654289 0.637246 -0.5236484
vn -0.5910025 0.6803924 -0.4333386
vn -0.5910025 0.6803923 -0.4333386
vn -0.5663275 0.6387105 -0.520886
vn -0.5348749 0.5889236 -0.6058696
vn -0.5348749 0.5889236 -0.6058695
vn 0.6187869 -0.6639256 0.4198875
vn 0.600082 -0.6885936 0.4071124
vn 0.5708286 -0.6423296 0.5114365
vn 0.5876824 -0.6236396 0.5154638
vn 0.6622595 -0.6205453 0.4199238
vn 0.622348 -0.5890117 0.5155077
vn 0.5348749 -0.5889236 0.6058694
vn 0.5485665 -0.5758444 0.6061997
vn 0.5749051 -0.5495571 0.606194
vn 0.5870615 -0.536896 0.6058889
vn 0.639916 -0.5735992 0.5113623
vn 0.685545 -0.6035221 0.407172
vn -0.6348068 0.5682207 -0.5235891
vn -0.6362222 0.5691238 -0.5208834
vn -0.6773008 0.5944942 -0.4334056
vn -0.6773008 0.5944942 -0.4334056
vn -0.5870526 0.5369056 -0.6058892
vn -0.5870526 0.5369055 -0.6058891
vn 0.06011892 0.06012578 0.9963788
vn 0.06011893 0.06012579 0.9963788
vn 0.06011893 0.06012579 0.9963788
vn 0.06011893 0.06012579 0.9963788
vn -3.805281E-06 4.104524E-06 1
vn -3.805281E-06 4.104524E-06 1
vn -3.805281E-06 4.104524E-06 1
vn -3.805281E-06 4.104524E-06 1
vn -0.06490219 -0.06489505 0.9957793
vn -0.06490219 -0.06489504 0.9957793
vn -0.06490217 -0.06489504 0.9957793
vn -0.06490219 -0.06489505 0.9957793
g Box1544_0
f 3/3/3 2/2/2 1/1/1
f 4/4/4 3/3/3 1/1/1
f 5/5/5 3/3/3 4/4/4
f 6/6/6 5/5/5 4/4/4
f 9/9/9 8/8/8 7/7/7
f 10/10/10 9/9/9 7/7/7
f 11/11/11 9/9/9 10/10/10
f 12/12/12 11/11/11 10/10/10
f 7/7/7 13/13/13 10/10/10
f 13/13/13 14/14/14 10/10/10
f 10/10/10 14/14/14 12/12/12
f 14/14/14 15/15/15 12/12/12
f 15/15/15 16/16/16 12/12/12
f 16/16/16 17/17/17 12/12/12
f 18/18/18 11/11/11 12/12/12
f 17/17/17 18/18/18 12/12/12
f 21/21/21 20/20/20 19/19/19
f 22/22/22 21/21/21 19/19/19
f 23/23/23 21/21/21 22/22/22
f 24/24/24 23/23/23 22/22/22
f 25/25/25 19/19/19 20/20/20
f 26/26/26 25/25/25 20/20/20
f 25/25/25 26/26/26 27/27/27
f 28/28/28 25/25/25 27/27/27
f 28/28/28 27/27/27 29/29/29
f 30/30/30 28/28/28 29/29/29
f 33/33/33 32/32/32 31/31/31
f 34/34/34 33/33/33 31/31/31
f 33/33/33 35/35/35 32/32/32
f 35/35/35 36/36/36 32/32/32
f 37/37/37 36/36/36 35/35/35
f 38/38/38 37/37/37 35/35/35
f 37/37/37 38/38/38 39/39/39
f 38/38/38 40/40/40 39/39/39
f 39/39/39 40/40/40 41/41/41
f 40/40/40 42/42/42 41/41/41
f 45/45/45 44/44/44 43/43/43
f 46/46/46 45/45/45 43/43/43
f 45/45/45 47/47/47 44/44/44
f 47/47/47 48/48/48 44/44/44
f 51/51/51 50/50/50 49/49/49
f 52/52/52 51/51/51 49/49/49
f 52/52/52 49/49/49 53/53/53
f 54/54/54 52/52/52 53/53/53
f 57/57/57 56/56/56 55/55/55
f 58/58/58 57/57/57 55/55/55
f 58/58/58 55/55/55 59/59/59
f 60/60/60 58/58/58 59/59/59
f 57/57/57 58/58/58 61/61/61
f 58/58/58 62/62/62 61/61/61
f 58/58/58 60/60/60 62/62/62
f 60/60/60 63/63/63 62/62/62
f 63/63/63 60/60/60 64/64/64
f 60/60/60 65/65/65 64/64/64
f 60/60/60 59/59/59 66/66/66
f 65/65/65 60/60/60 66/66/66
f 69/69/69 68/68/68 67/67/67
f 70/70/70 69/69/69 67/67/67
f 67/67/67 68/68/68 71/71/71
f 68/68/68 72/72/72 71/71/71
f 75/75/75 74/74/74 73/73/73
f 76/76/76 75/75/75 73/73/73
f 79/79/79 78/78/78 77/77/77
f 80/80/80 79/79/79 77/77/77
f 83/83/83 82/82/82 81/81/81
f 84/84/84 83/83/83 81/81/81
