g Box1618
v -0.1641119 -1.055114 -0.1668912
v 0.1641065 -1.055114 -0.1668912
v 0.1641063 1.658901 -0.1668912
v -0.164112 1.658901 -0.1668912
v -0.1641119 -1.055114 0.1668913
v -0.164112 1.658901 0.1668913
v 0.1641063 1.6589 0.1668911
v 0.1641065 -1.055113 0.1668911
v -0.1641119 -1.055114 -0.1668912
v -0.1641119 -1.055114 0.1668913
v 0.1641065 -1.055113 0.1668911
v 0.1641065 -1.055114 -0.1668912
v 0.1641065 -1.055114 -0.1668912
v 0.1641065 -1.055113 0.1668911
v 0.1641063 1.6589 0.1668911
v 0.1641063 1.658901 -0.1668912
v 0.1641063 1.658901 -0.1668912
v 0.1641063 1.6589 0.1668911
v -0.164112 1.658901 0.1668913
v -0.164112 1.658901 -0.1668912
vt 0.5328219 0.2889784
vt 0.4671782 0.2889785
vt 0.4671781 0.8317814
vt 0.5328218 0.8317815
vt 0.4671782 0.2889785
vt 0.4671782 0.8317814
vt 0.5328219 0.8317813
vt 0.5328218 0.2889786
vt 0.4671783 0.4977269
vt 0.4671783 0.5644833
vt 0.532822 0.5644833
vt 0.532822 0.4977269
vt 0.2889785 0.4977266
vt 0.2889786 0.5644831
vt 0.8317813 0.5644831
vt 0.8317814 0.4977266
vt 0.4671781 0.4977266
vt 0.4671781 0.5644831
vt 0.5328218 0.5644831
vt 0.5328218 0.4977266
vn 0 0 -1
vn 0 0 -1
vn 0 0 -1
vn 0 0 -1
vn 4.648975E-07 0 1
vn 4.648975E-07 0 1
vn 4.648975E-07 0 1
vn 4.648975E-07 0 1
vn 1.867984E-06 -1 1.739279E-06
vn 1.878335E-06 -1 1.739279E-06
vn 1.888685E-06 -1 1.739279E-06
vn 1.867984E-06 -1 1.739279E-06
vn 1 0 0
vn 1 0 0
vn 1 0 0
vn 1 0 0
vn 1.566692E-06 1 1.394557E-06
vn 1.560667E-06 1 1.394557E-06
vn 1.571017E-06 1 1.394557E-06
vn 1.566692E-06 1 1.394557E-06
g Box1618_0
f 3/3/3 2/2/2 1/1/1
f 4/4/4 3/3/3 1/1/1
f 7/7/7 6/6/6 5/5/5
f 8/8/8 7/7/7 5/5/5
f 11/11/11 10/10/10 9/9/9
f 12/12/12 11/11/11 9/9/9
f 15/15/15 14/14/14 13/13/13
f 16/16/16 15/15/15 13/13/13
f 19/19/19 18/18/18 17/17/17
f 20/20/20 19/19/19 17/17/17
