g Box1430
v -1.00635 -1.787436 0.1229159
v -0.5213392 -1.787435 0.1229159
v -0.5213392 -1.787436 -0.3203961
v -1.00635 -1.787436 -0.3203961
v -1.00635 -0.03221756 0.1230598
v -1.00635 -1.787436 0.1229159
v -1.00635 -1.787436 -0.3203961
v -1.00635 -0.03221748 -0.3038938
v -1.00635 -0.03221748 -0.3038938
v -1.00635 -1.787436 -0.3203961
v -0.5213392 -1.787436 -0.3203961
v -0.5213392 -0.03221756 -0.3038938
v -0.5213392 -0.03221756 -0.3038938
v -0.5213392 -1.787436 -0.3203961
v -0.5213392 -1.787435 0.1229159
v -0.5213391 -0.03221741 0.1230598
v -0.5213391 -0.03221741 0.1230598
v -0.5213392 -1.787435 0.1229159
v -1.00635 -1.787436 0.1229159
v -1.00635 -0.03221756 0.1230598
v -1.006389 -1.787559 0.1229543
v -0.8048241 -1.787559 0.1229542
v -0.8048241 -1.543199 0.1229543
v -1.006389 -1.543199 0.1229543
v -1.031977 -1.787559 0.9873721
v -1.031977 -1.543199 0.9873718
v -0.804836 -1.543199 0.9873718
v -0.804836 -1.78756 0.9873723
v -1.006389 -1.787559 0.1229543
v -1.031977 -1.787559 0.9873721
v -0.804836 -1.78756 0.9873723
v -0.8048241 -1.787559 0.1229542
v -0.8048241 -1.787559 0.1229542
v -0.804836 -1.78756 0.9873723
v -0.804836 -1.543199 0.9873718
v -0.8048241 -1.543199 0.1229543
v -0.8048241 -1.543199 0.1229543
v -0.804836 -1.543199 0.9873718
v -1.031977 -1.543199 0.9873718
v -1.006389 -1.543199 0.1229543
v -1.006389 -1.543199 0.1229543
v -1.031977 -1.543199 0.9873718
v -1.031977 -1.787559 0.9873721
v -1.006389 -1.787559 0.1229543
v 1.232289 0.4745515 1.482773
v 1.60264 0.4745515 1.482773
v 1.60264 0.148488 1.482772
v 1.232289 0.1484879 1.482773
v 1.23229 0.4745287 0.1911954
v 1.232289 0.4745515 1.482773
v 1.232289 0.1484879 1.482773
v 1.23229 0.1485104 0.1911955
v 1.23229 0.1485104 0.1911955
v 1.232289 0.1484879 1.482773
v 1.60264 0.148488 1.482772
v 1.60264 0.1485105 0.1911956
v 1.60264 0.1485105 0.1911956
v 1.60264 0.148488 1.482772
v 1.60264 0.4745515 1.482773
v 1.60264 0.4745286 0.1911956
v 1.60264 0.4745286 0.1911956
v 1.60264 0.4745515 1.482773
v 1.232289 0.4745515 1.482773
v 1.23229 0.4745287 0.1911954
v -4.724612 -0.03231623 0.1911767
v -4.724612 -0.03231626 -0.3720107
v -4.724612 0.6074532 -0.3720106
v -4.724612 0.6074532 0.1911767
v -4.724612 -0.03231623 0.1911767
v 3.134597 -0.03231587 0.1911764
v 3.134597 -0.03231582 -0.3720109
v -4.724612 -0.03231626 -0.3720107
v -4.724612 -0.03231626 -0.3720107
v 3.134597 -0.03231582 -0.3720109
v 3.134596 0.6074535 -0.3720109
v -4.724612 0.6074532 -0.3720106
v -4.724612 0.6074532 -0.3720106
v 3.134596 0.6074535 -0.3720109
v 3.134597 0.6074535 0.1911764
v -4.724612 0.6074532 0.1911767
v -4.724612 0.6074532 0.1911767
v 3.134597 0.6074535 0.1911764
v 3.134597 -0.03231587 0.1911764
v -4.724612 -0.03231623 0.1911767
v 0.5915751 1.786658 0.121902
v 0.1065644 1.786657 0.121902
v 0.1065643 1.786657 -0.3074593
v 0.5915751 1.786658 -0.3074592
v 0.591575 0.4799433 0.1230599
v 0.5915751 1.786658 0.121902
v 0.5915751 1.786658 -0.3074592
v 0.5915748 0.4799432 -0.3038937
v 0.5915748 0.4799432 -0.3038937
v 0.5915751 1.786658 -0.3074592
v 0.1065643 1.786657 -0.3074593
v 0.1065643 0.4799434 -0.3038937
v 0.1065643 0.4799434 -0.3038937
v 0.1065643 1.786657 -0.3074593
v 0.1065644 1.786657 0.121902
v 0.1065643 0.4799433 0.1230599
v 0.1065643 0.4799433 0.1230599
v 0.1065644 1.786657 0.121902
v 0.5915751 1.786658 0.121902
v 0.591575 0.4799433 0.1230599
v 1.01483 1.786556 -0.08165746
v 1.01483 1.542196 -0.08165752
v 1.01483 1.542196 0.1237747
v 1.01483 1.786556 0.1237748
v 0.5916469 1.786556 -0.07972378
v 1.01483 1.786556 -0.08165746
v 1.01483 1.786556 0.1237748
v 0.5916469 1.786556 0.1218411
v 0.5916469 1.786556 0.1218411
v 1.01483 1.786556 0.1237748
v 1.01483 1.542196 0.1237747
v 0.5916464 1.542196 0.1218413
v 0.5916464 1.542196 0.1218413
v 1.01483 1.542196 0.1237747
v 1.01483 1.542196 -0.08165752
v 0.5916463 1.542196 -0.07972381
v 0.5916463 1.542196 -0.07972381
v 1.01483 1.542196 -0.08165752
v 1.01483 1.786556 -0.08165746
v 0.5916469 1.786556 -0.07972378
v 1.888877 -1.341969 0.1911538
v 2.089965 -1.341969 0.1911539
v 2.089965 -1.341968 0.01413698
v 1.888877 -1.341968 0.01413713
v 1.888877 -0.03232689 0.191157
v 1.888877 -1.341969 0.1911538
v 1.888877 -1.341968 0.01413713
v 1.888877 -0.03232681 0.01413906
v 1.888877 -0.03232681 0.01413906
v 1.888877 -1.341968 0.01413713
v 2.089965 -1.341968 0.01413698
v 2.089966 -0.03232689 0.0141391
v 2.089966 -0.03232689 0.0141391
v 2.089965 -1.341968 0.01413698
v 2.089965 -1.341969 0.1911539
v 2.089966 -0.03232689 0.191157
v 2.089966 -0.03232689 0.191157
v 2.089965 -1.341969 0.1911539
v 1.888877 -1.341969 0.1911538
v 1.888877 -0.03232689 0.191157
v 0.2852966 0.4745901 -1.086161
v 0.6556471 0.4745898 -1.086161
v 0.6556468 0.1485266 -1.086161
v 0.2852969 0.1485267 -1.086161
v 0.2853097 0.4745284 -1.086143
v 0.2853091 0.4745509 -0.2915699
v 0.2853094 0.1484875 -0.2915699
v 0.2853102 0.1485101 -1.086143
v 0.2853102 0.1485101 -1.086143
v 0.2853094 0.1484875 -0.2915699
v 0.6556593 0.1484875 -0.29157
v 0.6556602 0.1485101 -1.086143
v 0.6556602 0.1485101 -1.086143
v 0.6556593 0.1484875 -0.29157
v 0.6556596 0.4745507 -0.29157
v 0.6556602 0.4745283 -1.086143
v 0.6556602 0.4745283 -1.086143
v 0.6556596 0.4745507 -0.29157
v 0.2853091 0.4745509 -0.2915699
v 0.2853097 0.4745284 -1.086143
v 3.134597 -0.03231587 0.1911764
v 3.134597 0.6074535 0.1911764
v 3.134596 0.6074535 -0.3720109
v 3.134597 -0.03231582 -0.3720109
vt 0.3019201 0.4584748
vt 0.3989221 0.4584748
vt 0.3989221 0.3698124
vt 0.30192 0.3698124
vt 0.5096954 0.4585036
vt 0.860739 0.4584748
vt 0.860739 0.3698124
vt 0.5096953 0.3731129
vt 0.6980798 0.4903047
vt 0.69808 0.139261
vt 0.6010779 0.139261
vt 0.6010778 0.4903046
vt 0.4903046 0.3731129
vt 0.139261 0.3698124
vt 0.1392611 0.4584748
vt 0.4903047 0.4585036
vt 0.3989223 0.4903047
vt 0.3989221 0.1392611
vt 0.3019201 0.139261
vt 0.3019201 0.4903047
vt 0.6980878 0.1392364
vt 0.6577748 0.1392363
vt 0.6577748 0.1881083
vt 0.6980878 0.1881084
vt 0.2967946 0.1392363
vt 0.2967946 0.1881084
vt 0.3422228 0.1881084
vt 0.3422228 0.1392363
vt 0.3019122 0.4584825
vt 0.2967946 0.6313661
vt 0.3422228 0.6313661
vt 0.3422252 0.4584825
vt 0.1392363 0.4584825
vt 0.1392363 0.6313661
vt 0.1881084 0.631366
vt 0.1881083 0.4584825
vt 0.6577748 0.4584825
vt 0.6577772 0.631366
vt 0.7032054 0.631366
vt 0.6980878 0.4584825
vt 0.8118917 0.4584825
vt 0.8118916 0.631366
vt 0.8607637 0.6313661
vt 0.8607637 0.4584825
vt 0.7496479 0.5916584
vt 0.8237181 0.5916584
vt 0.8237181 0.5264456
vt 0.749648 0.5264456
vt 0.4083462 0.4721307
vt 0.4083416 0.7304462
vt 0.4735543 0.7304462
vt 0.4735498 0.4721308
vt 0.7496481 0.4721308
vt 0.749648 0.7304462
vt 0.8237181 0.7304461
vt 0.8237181 0.4721308
vt 0.5264502 0.4721308
vt 0.5264456 0.7304461
vt 0.5916584 0.7304462
vt 0.5916538 0.4721308
vt 0.1762819 0.4721308
vt 0.176282 0.7304462
vt 0.2503521 0.7304462
vt 0.2503519 0.4721307
vt 0.5097149 0.472127
vt 0.5097149 0.3594895
vt 0.381761 0.3594895
vt 0.381761 0.472127
vt -0.4417323 0.472127
vt 1.130109 0.4721269
vt 1.130109 0.3594895
vt -0.4417323 0.3594895
vt 1.441732 0.4902851
vt -0.1301094 0.4902848
vt -0.1301093 0.6182387
vt 1.441732 0.618239
vt 1.441732 0.3594895
vt -0.1301093 0.3594895
vt -0.1301094 0.4721269
vt 1.441732 0.472127
vt -0.4417323 0.618239
vt 1.130109 0.6182387
vt 1.130109 0.4902848
vt -0.4417323 0.4902851
vt 0.3784948 0.4582721
vt 0.4754969 0.4582721
vt 0.475497 0.3723998
vt 0.3784948 0.3723998
vt 0.5927368 0.4585036
vt 0.8540796 0.4582721
vt 0.8540796 0.3723998
vt 0.5927367 0.3731129
vt 0.3784949 0.5927367
vt 0.3784948 0.8540796
vt 0.475497 0.8540795
vt 0.475497 0.5927368
vt 0.4072632 0.3731129
vt 0.1459205 0.3723998
vt 0.1459205 0.4582721
vt 0.4072632 0.4585036
vt 0.524503 0.5927368
vt 0.5245031 0.8540795
vt 0.6215051 0.8540796
vt 0.6215051 0.5927368
vt 0.8540593 0.4175602
vt 0.8051873 0.4175602
vt 0.8051873 0.4586466
vt 0.8540593 0.4586466
vt 0.3784805 0.4179469
vt 0.2938438 0.4175602
vt 0.2938438 0.4586466
vt 0.3784805 0.4582599
vt 0.6215195 0.8540592
vt 0.7061563 0.8540593
vt 0.7061562 0.8051873
vt 0.6215194 0.8051873
vt 0.6215194 0.4582599
vt 0.7061562 0.4586466
vt 0.7061561 0.4175602
vt 0.6215194 0.4179469
vt 0.3784806 0.8051872
vt 0.2938439 0.8051873
vt 0.2938438 0.8540593
vt 0.3784805 0.8540592
vt 0.8809654 0.4721224
vt 0.921183 0.4721224
vt 0.921183 0.4367191
vt 0.8809654 0.4367191
vt 0.5097173 0.4721231
vt 0.7716457 0.4721224
vt 0.7716457 0.4367191
vt 0.5097173 0.4367195
vt 0.1190346 0.4902827
vt 0.1190347 0.2283544
vt 0.07881704 0.2283544
vt 0.07881686 0.4902827
vt 0.4902827 0.4367195
vt 0.2283544 0.4367191
vt 0.2283543 0.4721224
vt 0.4902827 0.4721231
vt 0.9211831 0.4902827
vt 0.921183 0.2283543
vt 0.8809654 0.2283543
vt 0.8809655 0.4902827
vt 0.5602494 0.5916661
vt 0.6343195 0.591666
vt 0.6343194 0.5264534
vt 0.5602494 0.5264534
vt 0.4083462 0.2166631
vt 0.4083417 0.3755777
vt 0.4735544 0.3755777
vt 0.4735498 0.216663
vt 0.5602521 0.216663
vt 0.560252 0.3755777
vt 0.6343219 0.3755777
vt 0.6343221 0.216663
vt 0.5264502 0.216663
vt 0.5264456 0.3755777
vt 0.5916582 0.3755777
vt 0.5916538 0.2166632
vt 0.3656778 0.2166632
vt 0.365678 0.3755777
vt 0.4397481 0.3755777
vt 0.439748 0.2166631
vt 0.4902848 0.4721269
vt 0.6182387 0.4721269
vt 0.6182387 0.3594895
vt 0.4902848 0.3594895
vn 4.71911E-07 -1 5.162994E-07
vn 4.71911E-07 -1 5.162994E-07
vn 4.71911E-07 -1 5.162994E-07
vn 4.71911E-07 -1 5.162995E-07
vn -1 0 5.260046E-07
vn -1 0 5.260046E-07
vn -1 0 5.260046E-07
vn -1 0 5.260046E-07
vn 0 0.009401438 -0.9999558
vn 0 0.009401439 -0.9999558
vn 0 0.009401438 -0.9999558
vn 0 0.009401439 -0.9999558
vn 1 0 -1.753348E-07
vn 1 0 -1.753348E-07
vn 1 0 -1.753348E-07
vn 1 0 -1.753348E-07
vn 0 -8.201125E-05 1
vn 0 -8.201124E-05 1
vn 0 -8.201124E-05 1
vn 0 -8.201125E-05 1
vn -1.892538E-07 1.561096E-07 -1
vn -1.892538E-07 1.561096E-07 -1
vn -1.892538E-07 1.561096E-07 -1
vn -1.892538E-07 1.561096E-07 -1
vn -3.358872E-07 1.561093E-06 1
vn -3.358872E-07 1.561093E-06 1
vn -3.358872E-07 1.561093E-06 1
vn -3.358872E-07 1.561093E-06 1
vn -3.559263E-07 -1 -2.700519E-07
vn -3.559263E-07 -1 -2.700519E-07
vn -3.559263E-07 -1 -2.700519E-07
vn -3.559263E-07 -1 -2.700519E-07
vn 1 0 1.376864E-05
vn 1 0 1.376864E-05
vn 1 0 1.376864E-05
vn 1 0 1.376864E-05
vn 0 1 -3.530421E-07
vn 0 1 -3.530421E-07
vn 0 1 -3.530421E-07
vn 0 1 -3.530421E-07
vn -0.9995622 0 -0.02958839
vn -0.9995622 0 -0.02958838
vn -0.9995622 0 -0.02958838
vn -0.9995622 0 -0.02958838
vn 2.060046E-07 -2.339846E-07 1
vn 2.060045E-07 -2.339846E-07 1
vn 2.060045E-07 -2.339846E-07 1
vn 2.060045E-07 -2.339846E-07 1
vn -1 -7.020034E-07 -6.497739E-07
vn -1 -7.020034E-07 -6.497739E-07
vn -1 -7.020034E-07 -6.497739E-07
vn -1 -7.020034E-07 -6.497739E-07
vn 1.802536E-07 -1 -1.741838E-05
vn 1.802536E-07 -1 -1.741838E-05
vn 1.802536E-07 -1 -1.741838E-05
vn 1.802536E-07 -1 -1.741838E-05
vn 1 1.170006E-06 1.77211E-07
vn 1 1.170006E-06 1.77211E-07
vn 1 1.170006E-06 1.77211E-07
vn 1 1.170006E-06 1.77211E-07
vn 0 1 -1.766204E-05
vn 0 1 -1.766204E-05
vn 0 1 -1.766204E-05
vn 0 1 -1.766204E-05
vn -1 0 0
vn -1 0 0
vn -1 0 0
vn -1 0 0
vn 0 -1 0
vn 0 -1 0
vn 0 -1 0
vn 0 -1 0
vn 0 0 -1
vn 0 0 -1
vn 0 0 -1
vn 0 0 -1
vn 0 1 0
vn 0 1 0
vn 0 1 0
vn 0 1 0
vn 0 0 1
vn 0 0 1
vn 0 0 1
vn 0 0 1
vn -6.292146E-07 1 0
vn -6.292146E-07 1 0
vn -6.292146E-07 1 0
vn -6.292146E-07 1 0
vn 1 -1.464483E-07 -2.67287E-07
vn 1 -1.464483E-07 -2.67287E-07
vn 1 -1.464483E-07 -2.67287E-07
vn 1 -1.464483E-07 -2.67287E-07
vn 0 -0.002728606 -0.9999963
vn 0 -0.002728606 -0.9999963
vn 0 -0.002728607 -0.9999963
vn 0 -0.002728606 -0.9999963
vn -1 0 1.781913E-07
vn -1 0 1.781913E-07
vn -1 0 1.781913E-07
vn -1 0 1.781913E-07
vn 0 0.0008860965 0.9999996
vn 0 0.0008860965 0.9999996
vn 0 0.0008860965 0.9999996
vn 0 0.0008860965 0.9999996
vn 1 -1.248877E-06 -7.427648E-07
vn 1 -1.248877E-06 -7.427647E-07
vn 1 -1.248877E-06 -7.427647E-07
vn 1 -1.248877E-06 -7.427648E-07
vn -1.442286E-06 1 0
vn -1.442286E-06 1 0
vn -1.442286E-06 1 0
vn -1.442286E-06 1 0
vn -0.004568866 2.788577E-07 0.9999896
vn -0.004568865 2.788578E-07 0.9999896
vn -0.004568865 2.788578E-07 0.9999896
vn -0.004568866 2.788578E-07 0.9999896
vn 7.21143E-07 -1 7.498217E-07
vn 7.21143E-07 -1 7.498218E-07
vn 7.21143E-07 -1 7.498217E-07
vn 7.21143E-07 -1 7.498217E-07
vn -0.004569361 1.660004E-07 -0.9999896
vn -0.004569361 1.660004E-07 -0.9999896
vn -0.004569361 1.660004E-07 -0.9999896
vn -0.004569361 1.660004E-07 -0.9999896
vn 7.588101E-07 -1 -1.723993E-06
vn 7.588101E-07 -1 -1.723993E-06
vn 7.588101E-07 -1 -1.723993E-06
vn 7.588101E-07 -1 -1.723993E-06
vn -1 2.330224E-07 0
vn -1 2.330224E-07 0
vn -1 2.330224E-07 0
vn -1 2.330224E-07 0
vn -2.84554E-07 1.543773E-06 -1
vn -2.84554E-07 1.543773E-06 -1
vn -2.84554E-07 1.543773E-06 -1
vn -2.84554E-07 1.543773E-06 -1
vn 1 -4.660448E-07 0
vn 1 -4.660448E-07 0
vn 1 -4.660448E-07 0
vn 1 -4.660448E-07 0
vn 0 -2.366633E-06 1
vn 0 -2.366633E-06 1
vn 0 -2.366633E-06 1
vn 0 -2.366633E-06 1
vn 2.060049E-07 2.339851E-07 1
vn 2.06005E-07 2.339851E-07 1
vn 2.060049E-07 2.339851E-07 1
vn 2.060049E-07 2.339851E-07 1
vn -1 -1.170006E-06 -8.64169E-07
vn -1 -1.170006E-06 -8.64169E-07
vn -1 -1.170006E-06 -8.641691E-07
vn -1 -1.170006E-06 -8.64169E-07
vn 0 -1 -2.845756E-05
vn 0 -1 -2.845756E-05
vn 0 -1 -2.845756E-05
vn 0 -1 -2.845756E-05
vn 1 -4.680038E-07 9.60188E-07
vn 1 -4.680037E-07 9.60188E-07
vn 1 -4.680037E-07 9.60188E-07
vn 1 -4.680037E-07 9.60188E-07
vn 4.635293E-07 1 -2.830155E-05
vn 4.635294E-07 1 -2.830155E-05
vn 4.635293E-07 1 -2.830155E-05
vn 4.635293E-07 1 -2.830155E-05
vn 1 4.770091E-07 -5.418726E-07
vn 1 4.770091E-07 -5.418726E-07
vn 1 4.770091E-07 -5.418726E-07
vn 1 4.770091E-07 -5.418726E-07
g Box1430_0
f 3/3/3 2/2/2 1/1/1
f 4/4/4 3/3/3 1/1/1
f 7/7/7 6/6/6 5/5/5
f 8/8/8 7/7/7 5/5/5
f 11/11/11 10/10/10 9/9/9
f 12/12/12 11/11/11 9/9/9
f 15/15/15 14/14/14 13/13/13
f 16/16/16 15/15/15 13/13/13
f 19/19/19 18/18/18 17/17/17
f 20/20/20 19/19/19 17/17/17
f 23/23/23 22/22/22 21/21/21
f 24/24/24 23/23/23 21/21/21
f 27/27/27 26/26/26 25/25/25
f 28/28/28 27/27/27 25/25/25
f 31/31/31 30/30/30 29/29/29
f 32/32/32 31/31/31 29/29/29
f 35/35/35 34/34/34 33/33/33
f 36/36/36 35/35/35 33/33/33
f 39/39/39 38/38/38 37/37/37
f 40/40/40 39/39/39 37/37/37
f 43/43/43 42/42/42 41/41/41
f 44/44/44 43/43/43 41/41/41
f 47/47/47 46/46/46 45/45/45
f 48/48/48 47/47/47 45/45/45
f 51/51/51 50/50/50 49/49/49
f 52/52/52 51/51/51 49/49/49
f 55/55/55 54/54/54 53/53/53
f 56/56/56 55/55/55 53/53/53
f 59/59/59 58/58/58 57/57/57
f 60/60/60 59/59/59 57/57/57
f 63/63/63 62/62/62 61/61/61
f 64/64/64 63/63/63 61/61/61
f 67/67/67 66/66/66 65/65/65
f 68/68/68 67/67/67 65/65/65
f 71/71/71 70/70/70 69/69/69
f 72/72/72 71/71/71 69/69/69
f 75/75/75 74/74/74 73/73/73
f 76/76/76 75/75/75 73/73/73
f 79/79/79 78/78/78 77/77/77
f 80/80/80 79/79/79 77/77/77
f 83/83/83 82/82/82 81/81/81
f 84/84/84 83/83/83 81/81/81
f 87/87/87 86/86/86 85/85/85
f 88/88/88 87/87/87 85/85/85
f 91/91/91 90/90/90 89/89/89
f 92/92/92 91/91/91 89/89/89
f 95/95/95 94/94/94 93/93/93
f 96/96/96 95/95/95 93/93/93
f 99/99/99 98/98/98 97/97/97
f 100/100/100 99/99/99 97/97/97
f 103/103/103 102/102/102 101/101/101
f 104/104/104 103/103/103 101/101/101
f 107/107/107 106/106/106 105/105/105
f 108/108/108 107/107/107 105/105/105
f 111/111/111 110/110/110 109/109/109
f 112/112/112 111/111/111 109/109/109
f 115/115/115 114/114/114 113/113/113
f 116/116/116 115/115/115 113/113/113
f 119/119/119 118/118/118 117/117/117
f 120/120/120 119/119/119 117/117/117
f 123/123/123 122/122/122 121/121/121
f 124/124/124 123/123/123 121/121/121
f 127/127/127 126/126/126 125/125/125
f 128/128/128 127/127/127 125/125/125
f 131/131/131 130/130/130 129/129/129
f 132/132/132 131/131/131 129/129/129
f 135/135/135 134/134/134 133/133/133
f 136/136/136 135/135/135 133/133/133
f 139/139/139 138/138/138 137/137/137
f 140/140/140 139/139/139 137/137/137
f 143/143/143 142/142/142 141/141/141
f 144/144/144 143/143/143 141/141/141
f 147/147/147 146/146/146 145/145/145
f 148/148/148 147/147/147 145/145/145
f 151/151/151 150/150/150 149/149/149
f 152/152/152 151/151/151 149/149/149
f 155/155/155 154/154/154 153/153/153
f 156/156/156 155/155/155 153/153/153
f 159/159/159 158/158/158 157/157/157
f 160/160/160 159/159/159 157/157/157
f 163/163/163 162/162/162 161/161/161
f 164/164/164 163/163/163 161/161/161
g Box1430_1
f 167/167/167 166/166/166 165/165/165
f 168/168/168 167/167/167 165/165/165
