g Building_Zone11
v 32.25 25.55 -4
v 32.25 18.55 -0.4999999
v 32.25 18.55 -4
v 32.25 25.55 -0.4999999
v 30 18.55 -4
v 30 18.4 -1.3
v 30 18.4 -4
v 30 18.55 -1.3
v 30 18.4 -1.3
v 27.5 18.55 -1.3
v 27.5 18.4 -1.3
v 30 18.55 -1.3
v 27.5 18.55 -1.3
v 27.5 18.4 -4
v 27.5 18.4 -1.3
v 27.5 18.55 -4
v 27.75 25.55 -1.3
v 25.25 25.55 -4
v 25.25 25.55 -0.4999999
v 27.75 25.55 -4
v 32.25 25.55 -0.4999999
v 29.75 25.55 -1.3
v 29.75 25.55 -4
v 32.25 25.55 -4
v 30 18.55 -1.3
v 32.25 18.55 -4
v 32.25 18.55 -0.4999999
v 30 18.55 -4
v 25.25 18.55 -0.4999999
v 27.5 18.55 -1.3
v 27.5 18.55 -4
v 25.25 18.55 -4
v 25.25 20.8 -1.3
v 25.25 18.55 -4
v 25.25 18.55 -0.4999999
v 25.25 20.8 -4
v 25.25 25.55 -0.4999999
v 25.25 23.3 -1.3
v 25.25 23.3 -4
v 25.25 25.55 -4
v 32.25 8.4 -4
v 25.25 8.4 -0.4999999
v 25.25 8.4 -4
v 32.25 8.4 -0.4999999
v 32.25 8.4 -0.4999999
v 32.25 18.4 -4
v 32.25 18.4 -0.4999999
v 32.25 8.4 -4
v 25.25 18.4 -4
v 25.25 8.4 -0.4999999
v 25.25 18.4 -0.4999999
v 25.25 8.4 -4
v 27.5 18.4 -1.3
v 25.25 18.4 -4
v 25.25 18.4 -0.4999999
v 27.5 18.4 -4
v 32.25 18.4 -0.4999999
v 30 18.4 -1.3
v 32.25 18.4 -4
v 30 18.4 -4
v 25.25 18.55 -0.4999999
v 32.25 25.55 -0.4999999
v 25.25 25.55 -0.4999999
v 32.25 18.55 -0.4999999
v 27.5 18.55 -4
v 29.75 25.55 -4
v 30 18.55 -4
v 27.75 25.55 -4
v 30 18.4 -4
v 27.5 18.4 -4
v 32.25 25.55 -4
v 32.25 18.55 -4
v 25.25 20.8 -4
v 25.25 23.3 -4
v 25.25 18.55 -4
v 25.25 25.55 -4
v 25.25 8.4 -0.4999999
v 32.25 18.4 -0.4999999
v 25.25 18.4 -0.4999999
v 32.25 8.4 -0.4999999
v 25.25 8.4 -4
v 25.25 18.4 -4
v 27.5 18.4 -4
v 30 18.4 -4
v 32.25 8.4 -4
v 32.25 18.4 -4
vt -6.649994 -3
vt 7.350006 4
vt 7.350006 -3
vt -6.649994 4
vt 7.350006 -3
vt 7.650005 2.4
vt 7.650005 -3
vt 7.350006 2.4
vt -1.999996 -6.650005
vt 3.000004 -6.350002
vt 3.000004 -6.650002
vt -1.999996 -6.350006
vt -6.350002 2.4
vt -6.650002 -3
vt -6.650002 2.4
vt -6.350002 -3
vt -1.5 2.4
vt -6.5 -3
vt -6.5 4
vt -1.5 -3
vt 7.500004 4
vt 2.5 2.4
vt 2.5 -3
vt 7.500004 -3
vt -1.999996 2.4
vt -6.499996 -3
vt -6.499996 4
vt -1.999996 -3
vt 7.500004 4
vt 3.000004 2.4
vt 3.000004 -3
vt 7.500004 -3
vt -1.850002 2.4
vt -6.350002 -3
vt -6.350002 4
vt -1.850002 -3
vt 7.649998 4
vt 3.149998 2.4
vt 3.149998 -3
vt 7.649998 -3
vt -8.700001 -9
vt 5.300003 -2
vt 5.300003 -9
vt -8.700001 -2
vt 4.1 -2
vt -15.9 -9
vt -15.9 -2
vt 4.1 -9
vt 16.9 -9
vt -3.099997 -2
vt 16.9 -2
vt -3.099997 -9
vt 0.2000008 -3.6
vt -4.299999 -9
vt -4.299999 -2
vt 0.2000008 -9
vt 9.700001 -2
vt 5.200001 -3.6
vt 9.700001 -9
vt 5.200001 -9
vt 7.500004 -6.350002
vt -6.500004 7.649994
vt 7.5 7.649998
vt -6.499996 -6.350006
vt -2.000004 -6.350002
vt 2.5 7.649994
vt 2.999996 -6.350006
vt -1.5 7.649998
vt 2.999996 -6.650005
vt -2.000004 -6.650002
vt 7.500004 7.649994
vt 7.499996 -6.350006
vt -6.5 -1.850002
vt -6.5 3.149998
vt -6.500004 -6.350002
vt -6.5 7.649998
vt 5.300003 -3.099997
vt -8.700001 16.9
vt 5.299999 16.9
vt -8.700001 -3.1
vt -4.300003 -3.099997
vt -4.299999 16.9
vt 0.2000008 16.9
vt 5.200001 16.9
vt 9.700001 -3.1
vt 9.700001 16.9
vn -1 0 0
vn -1 0 0
vn -1 0 0
vn -1 0 0
vn -1 0 0
vn -1 0 0
vn -1 0 0
vn -1 0 0
vn 0 0 -1
vn 0 0 -1
vn 0 0 -1
vn 0 0 -1
vn 1 0 0
vn 1 0 0
vn 1 0 0
vn 1 0 0
vn 0 -1 0
vn 0 -1 0
vn 0 -1 0
vn 0 -1 0
vn 0 -1 0
vn 0 -1 0
vn 0 -1 0
vn 0 -1 0
vn 0 1 0
vn 0 1 0
vn 0 1 0
vn 0 1 0
vn 0 1 0
vn 0 1 0
vn 0 1 0
vn 0 1 0
vn 1 0 0
vn 1 0 0
vn 1 0 0
vn 1 0 0
vn 1 0 0
vn 1 0 0
vn 1 0 0
vn 1 0 0
vn 0 1 0
vn 0 1 0
vn 0 1 0
vn 0 1 0
vn -1 0 0
vn -1 0 0
vn -1 0 0
vn -1 0 0
vn 1 0 0
vn 1 0 0
vn 1 0 0
vn 1 0 0
vn 0 -1 0
vn 0 -1 0
vn 0 -1 0
vn 0 -1 0
vn 0 -1 0
vn 0 -1 0
vn 0 -1 0
vn 0 -1 0
vn 0 0 -1
vn 0 0 -1
vn 0 0 -1
vn 0 0 -1
vn 0 0 1
vn 0 0 1
vn 0 0 1
vn 0 0 1
vn 0 0 1
vn 0 0 1
vn 0 0 1
vn 0 0 1
vn 0 0 1
vn 0 0 1
vn 0 0 1
vn 0 0 1
vn 0 0 -1
vn 0 0 -1
vn 0 0 -1
vn 0 0 -1
vn 0 0 1
vn 0 0 1
vn 0 0 1
vn 0 0 1
vn 0 0 1
vn 0 0 1
g Building_Zone11_0
f 3/3/3 2/2/2 1/1/1
f 4/4/4 1/1/1 2/2/2
f 7/7/7 6/6/6 5/5/5
f 8/8/8 5/5/5 6/6/6
f 11/11/11 10/10/10 9/9/9
f 12/12/12 9/9/9 10/10/10
f 15/15/15 14/14/14 13/13/13
f 16/16/16 13/13/13 14/14/14
f 19/19/19 18/18/18 17/17/17
f 20/20/20 17/17/17 18/18/18
f 19/19/19 17/17/17 21/21/21
f 22/22/22 21/21/21 17/17/17
f 22/22/22 23/23/23 21/21/21
f 24/24/24 21/21/21 23/23/23
f 27/27/27 26/26/26 25/25/25
f 28/28/28 25/25/25 26/26/26
f 27/27/27 25/25/25 29/29/29
f 30/30/30 29/29/29 25/25/25
f 30/30/30 31/31/31 29/29/29
f 32/32/32 29/29/29 31/31/31
f 35/35/35 34/34/34 33/33/33
f 36/36/36 33/33/33 34/34/34
f 35/35/35 33/33/33 37/37/37
f 38/38/38 37/37/37 33/33/33
f 38/38/38 39/39/39 37/37/37
f 40/40/40 37/37/37 39/39/39
f 43/43/43 42/42/42 41/41/41
f 44/44/44 41/41/41 42/42/42
f 47/47/47 46/46/46 45/45/45
f 48/48/48 45/45/45 46/46/46
f 51/51/51 50/50/50 49/49/49
f 52/52/52 49/49/49 50/50/50
f 55/55/55 54/54/54 53/53/53
f 56/56/56 53/53/53 54/54/54
f 55/55/55 53/53/53 57/57/57
f 58/58/58 57/57/57 53/53/53
f 57/57/57 58/58/58 59/59/59
f 60/60/60 59/59/59 58/58/58
g Building_Zone11_1
f 63/63/63 62/62/62 61/61/61
f 64/64/64 61/61/61 62/62/62
f 67/67/67 66/66/66 65/65/65
f 68/68/68 65/65/65 66/66/66
f 67/67/67 65/65/65 69/69/69
f 70/70/70 69/69/69 65/65/65
f 66/66/66 67/67/67 71/71/71
f 72/72/72 71/71/71 67/67/67
f 65/65/65 68/68/68 73/73/73
f 74/74/74 73/73/73 68/68/68
f 75/75/75 65/65/65 73/73/73
f 76/76/76 74/74/74 68/68/68
f 79/79/79 78/78/78 77/77/77
f 80/80/80 77/77/77 78/78/78
f 83/83/83 82/82/82 81/81/81
f 83/83/83 81/81/81 84/84/84
f 85/85/85 84/84/84 81/81/81
f 86/86/86 84/84/84 85/85/85
