g Building_Zone10
v 30 25.7 -0.9999998
v 30 32.7 -4
v 30 32.7 -0.9999998
v 30 25.7 -4
v 27.5 25.7 -4
v 27.5 30.2 -0.9999998
v 27.5 30.2 -4
v 27.5 25.7 -0.9999998
v 29.75 25.7 -4
v 29.75 25.55 -1.3
v 29.75 25.55 -4
v 29.75 25.7 -1.3
v 29.75 25.7 -1.3
v 27.75 25.55 -1.3
v 29.75 25.55 -1.3
v 27.75 25.7 -1.3
v 27.75 25.55 -4
v 27.75 25.7 -1.3
v 27.75 25.7 -4
v 27.75 25.55 -1.3
v 23 39.7 -2
v 43 39.7 0
v 43 39.45 0
v 43 37.45 0
v 23 37.2 -2
v 20.5 39.7 -2
v 20.5 37.2 -2
v 23 32.7 -3
v 20.5 32.7 -3
v 20.5 30.2 -3
v 23 30.2 -3
v 27.5 30.2 -4
v 27.5 32.7 -4
v 30 32.7 -4
v 29.75 25.7 -4
v 27.75 25.7 -4
v 29.75 25.55 -4
v 27.75 25.55 -4
v 30 25.7 -4
v 27.5 25.7 -4
v 43 37.2 0
v 23 37.2 -2
v 43 37.2 3
v 23 37.2 1
v 43 37.2 0
v 20.5 39.7 -2
v 20.5 37.2 1
v 20.5 39.7 1
v 20.5 37.2 -2
v 20.5 32.7 1.525879E-07
v 20.5 32.7 -3
v 20.5 30.2 1.525879E-07
v 20.5 30.2 -3
v 43 39.7 0
v 23 39.7 1
v 43 39.7 3
v 23 39.7 -2
v 20.5 39.7 1
v 20.5 39.7 -2
v 23 32.7 -3
v 23 37.2 1
v 23 32.7 1.525879E-07
v 23 37.2 -2
v 20.5 30.2 -3
v 23 30.2 1.525879E-07
v 20.5 30.2 1.525879E-07
v 23 30.2 -3
v 27.5 30.2 -4
v 27.5 30.2 -0.9999998
v 27.5 32.7 -4
v 23 32.7 1.525879E-07
v 27.5 32.7 -0.9999998
v 23 32.7 -3
v 30 32.7 -4
v 30 32.7 -0.9999998
v 43 39.7 3
v 23 37.2 1
v 43 37.2 3
v 23 39.7 1
v 20.5 37.2 1
v 20.5 39.7 1
v 23 32.7 1.525879E-07
v 20.5 32.7 1.525879E-07
v 23 30.2 1.525879E-07
v 20.5 30.2 1.525879E-07
v 27.5 30.2 -0.9999998
v 27.5 32.7 -0.9999998
v 30 32.7 -0.9999998
v 30 25.7 -0.9999998
v 27.5 25.7 -0.9999998
v 43 39.7 0
v 43 39.45 2.7
v 43 39.45 0
v 43 39.7 3
v 43 37.2 3
v 43 37.45 2.7
v 43 37.45 0
v 43 37.2 0
v 29.75 25.7 -4
v 30 25.7 -0.9999998
v 29.75 25.7 -1.3
v 30 25.7 -4
v 27.5 25.7 -0.9999998
v 27.75 25.7 -1.3
v 27.5 25.7 -4
v 27.75 25.7 -4
vt 14.35 -0.4999996
vt 0.3499985 -6.5
vt 0.3499985 -0.4999996
vt 14.35 -6.5
vt -13.35 -6.5
vt -4.349998 -0.4999996
vt -4.349998 -6.5
vt -13.35 -0.4999996
vt 14.35 -6.5
vt 14.65 -1.1
vt 14.65 -6.5
vt 14.35 -1.1
vt 4.500008 -13.35
vt 8.500008 -13.65
vt 4.500008 -13.65
vt 8.500008 -13.35
vt -13.65 -6.5
vt -13.35 -1.1
vt -13.35 -6.5
vt -13.65 -1.1
vt -17 14.65001
vt 23 14.64999
vt 23 14.14999
vt 23 10.14999
vt -17 9.650009
vt -22 14.65001
vt -22 9.650009
vt -17 0.6500092
vt -22 0.6500092
vt -22 -4.349998
vt -17 -4.349998
vt -8.000004 -4.349998
vt -8.000004 0.6500015
vt -3.000004 0.6500015
vt -3.500008 -13.35
vt -7.500008 -13.35
vt -3.500008 -13.65
vt -7.500008 -13.65
vt -3.000008 -13.35
vt -8.000008 -13.35
vt 23 9.649994
vt 18 -2.5
vt -22 7.5
vt 18 3.5
vt -22 1.5
vt 14.65001 -2.5
vt 9.650009 3.5
vt 14.65001 3.5
vt 9.650009 -2.5
vt 0.6500092 1.5
vt 0.6500092 -4.5
vt -4.349998 1.5
vt -4.349998 -4.5
vt 23 1.5
vt -17 3.5
vt 23 7.5
vt -17 -2.5
vt -22 3.5
vt -22 -2.5
vt 0.3499908 -4.5
vt -8.650009 3.5
vt 0.3499908 1.5
vt -8.650009 -2.5
vt 23 -4.5
vt 18 1.5
vt 23 1.5
vt 18 -4.5
vt 9.000004 -6.5
vt 9.000004 -0.4999996
vt -8.000004 -6.5
vt -17 1.5
vt -8.000004 -0.4999996
vt -17 -4.5
vt -3.000004 -6.5
vt -3.000004 -0.4999996
vt -22 14.64999
vt 18 9.650009
vt -22 9.649994
vt 18 14.65001
vt 23 9.650009
vt 23 14.65001
vt 18 0.6500092
vt 23 0.6500092
vt 18 -4.349998
vt 23 -4.349998
vt 9.000004 -4.349998
vt 9.000004 0.6500015
vt 4.000004 0.6500015
vt 4.000008 -13.35
vt 9.000008 -13.35
vt -13.64999 1.5
vt -13.14999 6.9
vt -13.14999 1.5
vt -13.64999 7.5
vt -8.649994 7.5
vt -9.149994 6.9
vt -9.149994 1.5
vt -8.649994 1.5
vt 4.500008 -6.5
vt 4.000008 -0.4999996
vt 4.500008 -1.1
vt 4.000008 -6.5
vt 9.000008 -0.4999996
vt 8.500008 -1.1
vt 9.000008 -6.5
vt 8.500008 -6.5
vn -1 0 0
vn -1 0 0
vn -1 0 0
vn -1 0 0
vn 1 0 0
vn 1 0 0
vn 1 0 0
vn 1 0 0
vn -1 0 0
vn -1 0 0
vn -1 0 0
vn -1 0 0
vn 0 0 -1
vn 0 0 -1
vn 0 0 -1
vn 0 0 -1
vn 1 0 0
vn 1 0 0
vn 1 0 0
vn 1 0 0
vn -0.07469732 0 0.9972063
vn -0.09950371 0 0.9950371
vn -0.09950371 0 0.9950371
vn -0.09950371 0 0.9950371
vn -0.04000166 -0.04360431 0.9982477
vn 0 0 1
vn 0 -0.1453918 0.9893742
vn 0.07308311 -0.07308313 0.9946445
vn 0 -0.1091168 0.9940289
vn 0 0 1
vn 0.1091168 0 0.9940289
vn 0.07269587 0 0.9973541
vn 0.1091168 0 0.9940289
vn 0 0 1
vn 0 0 1
vn 0 0 1
vn 0 0 1
vn 0 0 1
vn 0 0 1
vn 0 0 1
vn -0.09950371 0 0.9950371
vn 0 1 0
vn 0 1 0
vn 0 1 0
vn 0 1 0
vn 1 0 0
vn 1 0 0
vn 1 0 0
vn 1 0 0
vn 1 0 0
vn 1 0 0
vn 1 0 0
vn 1 0 0
vn 0 -1 0
vn 0 -1 0
vn 0 -1 0
vn 0 -1 0
vn 0 -1 0
vn 0 -1 0
vn -1 0 0
vn -1 0 0
vn -1 0 0
vn -1 0 0
vn 0 1 0
vn 0 1 0
vn 0 1 0
vn 0 1 0
vn 0 1 0
vn 0 1 0
vn 0 -1 0
vn 0 -1 0
vn 0 -1 0
vn 0 -1 0
vn 0 -1 0
vn 0 -1 0
vn 0.09950371 0 -0.9950371
vn 0.05003743 0.0545439 -0.9972568
vn 0.09950371 0 -0.9950371
vn 0.03320454 0 -0.9994486
vn 0 0.1091168 -0.9940289
vn 0 0 -1
vn -0.08777318 0.08777318 -0.9922659
vn 0 0.07269587 -0.9973541
vn -0.07269587 0 -0.9973541
vn 0 0 -1
vn -0.08727238 0 -0.9961845
vn -0.1091168 0 -0.9940289
vn 0 0 -1
vn 0 0 -1
vn 0 0 -1
vn -1 0 0
vn -1 0 0
vn -1 0 0
vn -1 0 0
vn -1 0 0
vn -1 0 0
vn -1 0 0
vn -1 0 0
vn 0 1 0
vn 0 1 0
vn 0 1 0
vn 0 1 0
vn 0 1 0
vn 0 1 0
vn 0 1 0
vn 0 1 0
g Building_Zone10_0
f 3/3/3 2/2/2 1/1/1
f 4/4/4 1/1/1 2/2/2
f 7/7/7 6/6/6 5/5/5
f 8/8/8 5/5/5 6/6/6
f 11/11/11 10/10/10 9/9/9
f 12/12/12 9/9/9 10/10/10
f 15/15/15 14/14/14 13/13/13
f 16/16/16 13/13/13 14/14/14
f 19/19/19 18/18/18 17/17/17
f 20/20/20 17/17/17 18/18/18
f 23/23/23 22/22/22 21/21/21
f 23/23/23 21/21/21 24/24/24
f 25/25/25 24/24/24 21/21/21
f 21/21/21 26/26/26 25/25/25
f 27/27/27 25/25/25 26/26/26
f 25/25/25 27/27/27 28/28/28
f 29/29/29 28/28/28 27/27/27
f 29/29/29 30/30/30 28/28/28
f 31/31/31 28/28/28 30/30/30
f 31/31/31 32/32/32 28/28/28
f 33/33/33 28/28/28 32/32/32
f 33/33/33 32/32/32 34/34/34
f 34/34/34 32/32/32 35/35/35
f 36/36/36 35/35/35 32/32/32
f 35/35/35 36/36/36 37/37/37
f 38/38/38 37/37/37 36/36/36
f 35/35/35 39/39/39 34/34/34
f 36/36/36 32/32/32 40/40/40
f 24/24/24 25/25/25 41/41/41
f 44/44/44 43/43/43 42/42/42
f 45/45/45 42/42/42 43/43/43
f 48/48/48 47/47/47 46/46/46
f 49/49/49 46/46/46 47/47/47
f 47/47/47 50/50/50 49/49/49
f 51/51/51 49/49/49 50/50/50
f 50/50/50 52/52/52 51/51/51
f 53/53/53 51/51/51 52/52/52
f 56/56/56 55/55/55 54/54/54
f 57/57/57 54/54/54 55/55/55
f 55/55/55 58/58/58 57/57/57
f 59/59/59 57/57/57 58/58/58
f 62/62/62 61/61/61 60/60/60
f 63/63/63 60/60/60 61/61/61
f 66/66/66 65/65/65 64/64/64
f 67/67/67 64/64/64 65/65/65
f 67/67/67 65/65/65 68/68/68
f 69/69/69 68/68/68 65/65/65
f 72/72/72 71/71/71 70/70/70
f 73/73/73 70/70/70 71/71/71
f 70/70/70 74/74/74 72/72/72
f 75/75/75 72/72/72 74/74/74
f 78/78/78 77/77/77 76/76/76
f 79/79/79 76/76/76 77/77/77
f 77/77/77 80/80/80 79/79/79
f 81/81/81 79/79/79 80/80/80
f 77/77/77 82/82/82 80/80/80
f 83/83/83 80/80/80 82/82/82
f 82/82/82 84/84/84 83/83/83
f 85/85/85 83/83/83 84/84/84
f 84/84/84 82/82/82 86/86/86
f 87/87/87 86/86/86 82/82/82
f 87/87/87 88/88/88 86/86/86
f 88/88/88 89/89/89 86/86/86
f 90/90/90 86/86/86 89/89/89
f 93/93/93 92/92/92 91/91/91
f 94/94/94 91/91/91 92/92/92
f 94/94/94 92/92/92 95/95/95
f 96/96/96 95/95/95 92/92/92
f 96/96/96 97/97/97 95/95/95
f 98/98/98 95/95/95 97/97/97
f 101/101/101 100/100/100 99/99/99
f 102/102/102 99/99/99 100/100/100
f 100/100/100 101/101/101 103/103/103
f 104/104/104 103/103/103 101/101/101
f 103/103/103 104/104/104 105/105/105
f 106/106/106 105/105/105 104/104/104
