g Bullet_L
v 0.01862196 -0.05443275 0.02258171
v 0.01862201 0.05443275 -0.02258169
v 0.01862196 -0.05443275 -0.02258169
v 0.018622 0.05443275 0.02258171
v -0.01862198 -0.05443272 0.02258171
v -0.01862191 0.05443276 -0.02258169
v -0.01862192 0.05443276 0.02258171
v -0.01862196 -0.05443272 -0.02258169
v -0.01862196 -0.05443272 -0.02258169
v 0.01862201 0.05443275 -0.02258169
v -0.01862191 0.05443276 -0.02258169
v 0.01862196 -0.05443275 -0.02258169
v -0.01862198 -0.05443272 0.02258171
v 0.01862196 -0.05443275 -0.02258169
v -0.01862196 -0.05443272 -0.02258169
v 0.01862196 -0.05443275 0.02258171
v -0.01862192 0.05443276 0.02258171
v 0.01862196 -0.05443275 0.02258171
v -0.01862198 -0.05443272 0.02258171
v 0.018622 0.05443275 0.02258171
v -0.01862191 0.05443276 -0.02258169
v 0.018622 0.05443275 0.02258171
v -0.01862192 0.05443276 0.02258171
v 0.01862201 0.05443275 -0.02258169
vt 0 1
vt 1 0
vt 0 0
vt 1 1
vt 1 1
vt 0 0
vt 0 1
vt 1 0
vt 1 1
vt 0 0
vt 0 1
vt 1 0
vt 1 1
vt 0 0
vt 0 1
vt 1 0
vt 1 1
vt 0 0
vt 0 1
vt 1 0
vt 1 1
vt 0 0
vt 0 1
vt 1 0
vn 1 -4.325383E-07 0
vn 1 -4.434732E-07 0
vn 1 -4.270556E-07 0
vn 1 -4.489558E-07 0
vn -1 4.271015E-07 -4.486066E-07
vn -1 4.927107E-07 -2.904567E-07
vn -1 5.256069E-07 -2.111609E-07
vn -1 3.942052E-07 -5.279023E-07
vn 1.145974E-07 0 -1
vn 0 0 -1
vn 0 0 -1
vn 1.280309E-07 0 -1
vn -7.681852E-07 -1 0
vn -7.681851E-07 -1 0
vn -7.681854E-07 -1 0
vn -7.68185E-07 -1 0
vn 0 0 1
vn 0 0 1
vn 0 0 1
vn 0 0 1
vn 3.840926E-07 1 0
vn 3.840927E-07 1 0
vn 3.840926E-07 1 0
vn 3.840927E-07 1 0
g Bullet_L_0
f 3/3/3 2/2/2 1/1/1
f 4/4/4 1/1/1 2/2/2
f 7/7/7 6/6/6 5/5/5
f 8/8/8 5/5/5 6/6/6
f 11/11/11 10/10/10 9/9/9
f 12/12/12 9/9/9 10/10/10
f 15/15/15 14/14/14 13/13/13
f 16/16/16 13/13/13 14/14/14
f 19/19/19 18/18/18 17/17/17
f 20/20/20 17/17/17 18/18/18
f 23/23/23 22/22/22 21/21/21
f 24/24/24 21/21/21 22/22/22
