g Candyland_jail001
v 0.25 -3 -0.3926496
v -1.25 -2.5 -0.3926496
v -0.25 -2.5 -0.3926496
v -1.75 -3 -0.3926496
v 0.25 -2 -0.3926496
v -1.75 -2 -0.3926496
v -1.25 -1 -0.3926496
v -0.25 -1.5 -0.3926496
v 0.25 -1.5 -0.3926496
v 1.25 -1.5 -0.3926496
v 1.25 -2 -0.3926496
v -1.75 -1 -0.3926496
v -2.75 -2 -0.3926496
v -2.75 0 -0.3926496
v -2.25 0 -0.3926496
v -1.75 0 -0.3926496
v -2.25 1 -0.3926496
v -1.75 1 -0.3926496
v -1.25 0.5 -0.3926496
v -1.25 0 -0.3926496
v -1.25 1 -0.3926496
v -0.25 1 -0.3926496
v -0.25 0.5 -0.3926496
v -1.25 1.5 -0.3926496
v -1.75 1.5 -0.3926496
v -0.2500012 2.5 -0.3926496
v -1.250001 2.5 -0.3926496
v 0.7499987 2 -0.3926496
v 0.7499987 3 -0.3926496
v -0.2500012 3 -0.3926496
v 1.25 1 -0.3926496
v 2.249999 2 -0.3926496
v 2.249999 0.5 -0.3926496
v 1.25 -0.5 -0.3926496
v 1.75 -1 -0.3926496
v 1.75 -1.5 -0.3926496
v 2.75 -1 -0.3926496
v 2.749999 0.5 -0.3926496
v 0.25 -0.5 -0.3926496
v -1.25 -2.5 1.177949
v -1.25 -1 1.177949
v -0.25 -1.5 1.177949
v -0.7499976 -0.5 1.177949
v -1.25 0 1.177949
v -1.75 -1 1.177949
v -1.75 0 1.177949
v -0.75 0.5 1.177949
v -1.25 0.5 1.177949
v -0.25 -2.5 1.177949
v 0.2500012 -0.5 1.177949
v 0.25 -1.5 1.177949
v -0.2499976 0.5 1.963248
v 1.250001 -0.5 1.963248
v -0.7499976 -0.5 1.963248
v 1.250001 1 1.963248
v -0.2499976 1 1.963248
v -0.7499976 0.5 1.963248
v 0.25 -3 -0.3926496
v -1.75 -3 -1.963248
v -1.75 -3 -0.3926496
v 0.25 -3 -1.963248
v -0.2500012 3 -1.963248
v 0.7499987 3 -0.3926496
v -0.2500012 3 -0.3926496
v 0.7499987 3 -1.963248
v -2.75 -2 -1.963248
v -2.75 0 -0.3926496
v -2.75 -2 -0.3926496
v -2.75 0 -1.963248
v -1.75 -2 -0.3926496
v -2.75 -2 -1.963248
v -2.75 -2 -0.3926496
v -1.75 -2 -1.963248
v -1.75 -3 -1.963248
v -1.75 -2 -0.3926496
v -1.75 -3 -0.3926496
v -1.75 -2 -1.963248
v 0.25 -2 -0.3926496
v 0.25 -3 -1.963248
v 0.25 -3 -0.3926496
v 0.25 -2 -1.963248
v 1.25 -2 -0.3926496
v 0.25 -2 -1.963248
v 0.25 -2 -0.3926496
v 1.25 -2 -1.963248
v 1.25 -1.5 -0.3926496
v 1.25 -2 -1.963248
v 1.25 -2 -0.3926496
v 1.25 -1.5 -1.963248
v 1.75 -1.5 -0.3926496
v 1.25 -1.5 -1.963248
v 1.25 -1.5 -0.3926496
v 1.75 -1.5 -1.963248
v 1.75 -1 -0.3926496
v 1.75 -1.5 -1.963248
v 1.75 -1.5 -0.3926496
v 1.75 -1 -1.963248
v 2.75 -1 -0.3926496
v 1.75 -1 -1.963248
v 1.75 -1 -0.3926496
v 2.75 -1 -1.963248
v 2.749999 0.5 -0.3926496
v 2.75 -1 -1.963248
v 2.75 -1 -0.3926496
v 2.749999 0.5 -1.963248
v 2.249999 0.5 -0.3926496
v 2.749999 0.5 -1.963248
v 2.749999 0.5 -0.3926496
v 2.249999 0.5 -1.963248
v 2.249999 2 -0.3926496
v 2.249999 0.5 -1.963248
v 2.249999 0.5 -0.3926496
v 2.249999 2 -1.963248
v 0.7499987 2 -1.963248
v 2.249999 2 -0.3926496
v 0.7499987 2 -0.3926496
v 2.249999 2 -1.963248
v 0.7499987 3 -0.3926496
v 0.7499987 2 -1.963248
v 0.7499987 2 -0.3926496
v 0.7499987 3 -1.963248
v -2.75 0 -0.3926496
v -2.25 0 -1.963248
v -2.25 0 -0.3926496
v -2.75 0 -1.963248
v -0.2500012 2.5 -0.3926496
v -0.2500012 3 -1.963248
v -0.2500012 3 -0.3926496
v -0.2500012 2.5 -1.963248
v -1.250001 2.5 -1.963248
v -0.2500012 2.5 -0.3926496
v -1.250001 2.5 -0.3926496
v -0.2500012 2.5 -1.963248
v -1.25 1.5 -1.963248
v -1.250001 2.5 -0.3926496
v -1.25 1.5 -0.3926496
v -1.250001 2.5 -1.963248
v -1.75 1.5 -0.3926496
v -1.25 1.5 -1.963248
v -1.25 1.5 -0.3926496
v -1.75 1.5 -1.963248
v -1.75 1 -0.3926496
v -1.75 1.5 -1.963248
v -1.75 1.5 -0.3926496
v -1.75 1 -1.963248
v -2.25 1 -0.3926496
v -1.75 1 -1.963248
v -1.75 1 -0.3926496
v -2.25 1 -1.963248
v -2.25 0 -1.963248
v -2.25 1 -0.3926496
v -2.25 0 -0.3926496
v -2.25 1 -1.963248
v -0.25 -2.5 1.177949
v -1.25 -2.5 -0.3926496
v -1.25 -2.5 1.177949
v -0.25 -2.5 -0.3926496
v -0.25 -1.5 1.177949
v -0.25 -2.5 -0.3926496
v -0.25 -2.5 1.177949
v -0.25 -1.5 -0.3926496
v 0.25 -1.5 1.177949
v -0.25 -1.5 -0.3926496
v -0.25 -1.5 1.177949
v 0.25 -1.5 -0.3926496
v 0.2500012 -0.5 1.177949
v 0.25 -1.5 -0.3926496
v 0.25 -1.5 1.177949
v 0.25 -0.5 -0.3926496
v 1.25 -0.5 1.177949
v 0.25 -0.5 -0.3926496
v 0.2500012 -0.5 1.177949
v 1.25 -0.5 -0.3926496
v 1.250001 -0.5 1.963248
v -0.7499976 -0.5 1.177949
v -0.7499976 -0.5 1.963248
v 1.25 1 1.177949
v 1.25 -0.5 -0.3926496
v 1.25 -0.5 1.177949
v 1.25 1 -0.3926496
v 1.250001 1 1.963248
v 1.250001 -0.5 1.963248
v -0.25 1 1.177949
v 1.25 1 -0.3926496
v 1.25 1 1.177949
v -0.25 1 -0.3926496
v 1.250001 1 1.963248
v -0.2499976 1 1.963248
v -0.25 0.5 1.177949
v -0.25 1 -0.3926496
v -0.25 1 1.177949
v -0.25 0.5 -0.3926496
v -0.2499976 0.5 1.963248
v -0.2499976 1 1.963248
v -0.25 0.5 -0.3926496
v -0.75 0.5 1.177949
v -1.25 0.5 -0.3926496
v -0.25 0.5 1.177949
v -1.25 0.5 1.177949
v -0.7499976 0.5 1.963248
v -0.2499976 0.5 1.963248
v -1.25 0 1.177949
v -1.25 0.5 -0.3926496
v -1.25 0.5 1.177949
v -1.25 0 -0.3926496
v -1.75 0 1.177949
v -1.25 0 -0.3926496
v -1.25 0 1.177949
v -1.75 0 -0.3926496
v -1.75 -1 1.177949
v -1.75 0 -0.3926496
v -1.75 0 1.177949
v -1.75 -1 -0.3926496
v -1.25 -1 1.177949
v -1.75 -1 -0.3926496
v -1.75 -1 1.177949
v -1.25 -1 -0.3926496
v -1.25 -2.5 1.177949
v -1.25 -1 -0.3926496
v -1.25 -1 1.177949
v -1.25 -2.5 -0.3926496
v -0.7499976 -0.5 1.963248
v -0.75 0.5 1.177949
v -0.7499976 0.5 1.963248
v -0.7499976 -0.5 1.177949
vt 0.7499998 -2.5
vt -0.7500001 -2
vt 0.2499999 -2
vt -1.25 -2.5
vt 0.75 -1.5
vt -1.25 -1.5
vt -0.7499998 -0.4999997
vt 0.2500001 -1
vt 0.7500001 -1
vt 1.75 -1
vt 1.75 -1.5
vt -1.25 -0.4999996
vt -2.25 -1.499999
vt -2.25 0.5000007
vt -1.75 0.5000005
vt -1.25 0.5000004
vt -1.749999 1.5
vt -1.249999 1.5
vt -0.7499994 1
vt -0.7499995 0.5000003
vt -0.7499993 1.5
vt 0.2500007 1.5
vt 0.2500006 1
vt -0.7499992 2
vt -1.249999 2
vt 0.2499998 3
vt -0.7500001 3
vt 1.25 2.5
vt 1.25 3.5
vt 0.2499999 3.5
vt 1.750001 1.5
vt 2.75 2.5
vt 2.75 0.9999995
vt 1.75 -2.980232E-07
vt 2.25 -0.5000005
vt 2.25 -1
vt 3.25 -0.5000007
vt 3.25 0.9999993
vt 0.7500004 -5.960464E-08
vt -0.7500001 -2
vt -0.7499998 -0.4999997
vt 0.2500001 -1
vt -0.2499972 1.788139E-07
vt -0.7499995 0.5000003
vt -1.25 -0.4999996
vt -1.25 0.5000004
vt -0.2499994 1
vt -0.7499994 1
vt 0.2499999 -2
vt 0.7500015 -5.960464E-08
vt 0.7500001 -1
vt 0.250003 1
vt 1.750002 -2.980232E-07
vt -0.2499972 1.788139E-07
vt 1.750002 1.5
vt 0.2500032 1.5
vt -0.249997 1
vt 0.7499998 0.1073504
vt -1.25 -1.463248
vt -1.25 0.1073504
vt 0.7499998 -1.463248
vt 0.7500001 -1.463248
vt -0.25 0.1073504
vt 0.7500001 0.1073504
vt -0.25 -1.463248
vt 2.499999 -1.463248
vt 0.4999993 0.1073504
vt 2.499999 0.1073504
vt 0.4999993 -1.463248
vt -1.25 0.1073504
vt -2.25 -1.463248
vt -2.25 0.1073504
vt -1.25 -1.463248
vt 3.5 -1.463248
vt 2.5 0.1073504
vt 3.5 0.1073504
vt 2.5 -1.463248
vt -1.5 0.1073504
vt -2.5 -1.463248
vt -2.5 0.1073504
vt -1.5 -1.463248
vt 1.75 0.1073504
vt 0.75 -1.463248
vt 0.75 0.1073504
vt 1.75 -1.463248
vt -1 0.1073504
vt -1.5 -1.463248
vt -1.5 0.1073504
vt -1 -1.463248
vt 2.25 0.1073504
vt 1.75 -1.463248
vt 1.75 0.1073504
vt 2.25 -1.463248
vt -0.5000005 0.1073504
vt -1 -1.463248
vt -1 0.1073504
vt -0.5000005 -1.463248
vt 3.25 0.1073504
vt 2.25 -1.463248
vt 2.25 0.1073504
vt 3.25 -1.463248
vt 0.9999993 0.1073504
vt -0.5000007 -1.463248
vt -0.5000007 0.1073504
vt 0.9999993 -1.463248
vt -1.75 0.1073504
vt -2.25 -1.463248
vt -2.25 0.1073504
vt -1.75 -1.463248
vt 2.5 0.1073504
vt 0.9999995 -1.463248
vt 0.9999995 0.1073504
vt 2.5 -1.463248
vt -0.2499998 -1.463248
vt -1.75 0.1073504
vt -0.2499998 0.1073504
vt -1.75 -1.463248
vt 3.5 0.1073504
vt 2.5 -1.463248
vt 2.5 0.1073504
vt 3.5 -1.463248
vt 3.25 0.1073504
vt 2.75 -1.463248
vt 2.75 0.1073504
vt 3.25 -1.463248
vt -2 0.1073504
vt -2.5 -1.463248
vt -2.5 0.1073504
vt -2 -1.463248
vt 1.75 -1.463248
vt 0.7500002 0.1073504
vt 1.75 0.1073504
vt 0.7500002 -1.463248
vt -1 -1.463248
vt -2 0.1073504
vt -1 0.1073504
vt -2 -1.463248
vt 2.249999 0.1073504
vt 1.749999 -1.463248
vt 1.749999 0.1073504
vt 2.249999 -1.463248
vt -0.5000005 0.1073504
vt -1 -1.463248
vt -1 0.1073504
vt -0.5000005 -1.463248
vt 2.749999 0.1073504
vt 2.249999 -1.463248
vt 2.249999 0.1073504
vt 2.749999 -1.463248
vt 0.4999995 -1.463248
vt -0.5000005 0.1073504
vt 0.4999995 0.1073504
vt -0.5000005 -1.463248
vt 0.2499999 1.677949
vt -0.7500001 0.1073504
vt -0.7500001 1.677949
vt 0.2499999 0.1073504
vt -1 1.677949
vt -2 0.1073504
vt -2 1.677949
vt -1 0.1073504
vt 0.7500001 1.677949
vt 0.2500001 0.1073504
vt 0.2500001 1.677949
vt 0.7500001 0.1073504
vt -5.960464E-08 1.677949
vt -1 0.1073504
vt -1 1.677949
vt -5.960464E-08 0.1073504
vt 1.75 1.677949
vt 0.7500004 0.1073504
vt 0.7500015 1.677949
vt 1.75 0.1073504
vt 1.750002 2.463248
vt -0.2499972 1.677949
vt -0.2499972 2.463248
vt 1.5 1.677949
vt -2.980232E-07 0.1073504
vt -2.980232E-07 1.677949
vt 1.5 0.1073504
vt 1.5 2.463248
vt -2.980232E-07 2.463248
vt 0.7499993 1.677949
vt -0.7500007 0.1073504
vt -0.7500007 1.677949
vt 0.7499993 0.1073504
vt -0.7500019 2.463248
vt 0.7499968 2.463248
vt 0 1.677949
vt -0.5 0.1073504
vt -0.5 1.677949
vt 0 0.1073504
vt 0 2.463248
vt -0.5 2.463248
vt 0.7499994 0.1073504
vt 1.249999 1.677949
vt 1.749999 0.1073504
vt 0.7499994 1.677949
vt 1.749999 1.677949
vt 1.249997 2.463248
vt 0.749997 2.463248
vt 0.4999997 1.677949
vt -2.384186E-07 0.1073504
vt -2.384186E-07 1.677949
vt 0.4999997 0.1073504
vt 2.25 1.677949
vt 1.75 0.1073504
vt 1.75 1.677949
vt 2.25 0.1073504
vt 1.5 1.677949
vt 0.4999996 0.1073504
vt 0.4999996 1.677949
vt 1.5 0.1073504
vt -0.7499998 1.677949
vt -1.25 0.1073504
vt -1.25 1.677949
vt -0.7499998 0.1073504
vt 3 1.677949
vt 1.5 0.1073504
vt 1.5 1.677949
vt 3 0.1073504
vt 0.9999998 2.463248
vt -2.384186E-07 1.677949
vt -2.384186E-07 2.463248
vt 0.9999998 1.677949
vn 0 0 1
vn 0 0 1
vn 0 0 1
vn 0 0 1
vn 0 0 1
vn 0 0 1
vn 0 0 1
vn 0 0 1
vn 0 0 1
vn 0 0 1
vn 0 0 1
vn 0 0 1
vn 0 0 1
vn 0 0 1
vn 0 0 1
vn 0 0 1
vn 0 0 1
vn 0 0 1
vn 0 0 1
vn 0 0 1
vn 0 0 1
vn 0 0 1
vn 0 0 1
vn 0 0 1
vn 0 0 1
vn 0 0 1
vn 0 0 1
vn 0 0 1
vn 0 0 1
vn 0 0 1
vn 0 0 1
vn 0 0 1
vn 0 0 1
vn 0 0 1
vn 0 0 1
vn 0 0 1
vn 0 0 1
vn 0 0 1
vn 0 0 1
vn 0 0 1
vn 0 0 1
vn 0 0 1
vn 0 0 1
vn 0 0 1
vn 0 0 1
vn 0 0 1
vn 0 0 1
vn 0 0 1
vn 0 0 1
vn 0 0 1
vn 0 0 1
vn 0 0 1
vn 0 0 1
vn 0 0 1
vn 0 0 1
vn 0 0 1
vn 0 0 1
vn 0 -1 0
vn 0 -1 0
vn 0 -1 0
vn 0 -1 0
vn 0 1 0
vn 0 1 0
vn 0 1 0
vn 0 1 0
vn -1 0 0
vn -1 0 0
vn -1 0 0
vn -1 0 0
vn 0 -1 0
vn 0 -1 0
vn 0 -1 0
vn 0 -1 0
vn -1 0 0
vn -1 0 0
vn -1 0 0
vn -1 0 0
vn 1 0 0
vn 1 0 0
vn 1 0 0
vn 1 0 0
vn 0 -1 0
vn 0 -1 0
vn 0 -1 0
vn 0 -1 0
vn 1 0 0
vn 1 0 0
vn 1 0 0
vn 1 0 0
vn 0 -1 0
vn 0 -1 0
vn 0 -1 0
vn 0 -1 0
vn 1 0 0
vn 1 0 0
vn 1 0 0
vn 1 0 0
vn 0 -1 0
vn 0 -1 0
vn 0 -1 0
vn 0 -1 0
vn 1 4.069011E-07 0
vn 1 4.069011E-07 0
vn 1 4.069011E-07 0
vn 1 4.069011E-07 0
vn 0 1 0
vn 0 1 0
vn 0 1 0
vn 0 1 0
vn 0.7071068 0.7071068 0
vn 1 0 0
vn 1 0 0
vn 0.7071068 0.7071068 0
vn 0.7071068 0.7071068 0
vn 0.7071068 0.7071068 0
vn 0.7071068 0.7071068 0
vn 0.7071068 0.7071068 0
vn 1 0 0
vn 0.7071068 0.7071068 0
vn 0.7071068 0.7071068 0
vn 1 0 0
vn 0 1 0
vn 0 1 0
vn 0 1 0
vn 0 1 0
vn -1 0 0
vn -1 0 0
vn -1 0 0
vn -1 0 0
vn 0 1 0
vn 0 1 0
vn 0 1 0
vn 0 1 0
vn -1 -1.220703E-06 0
vn -1 -1.220703E-06 0
vn -1 -1.220703E-06 0
vn -1 -1.220703E-06 0
vn 0 1 0
vn 0 1 0
vn 0 1 0
vn 0 1 0
vn -1 0 0
vn -1 0 0
vn -1 0 0
vn -1 0 0
vn 0 1 0
vn 0 1 0
vn 0 1 0
vn 0 1 0
vn -1 0 0
vn -1 0 0
vn -1 0 0
vn -1 0 0
vn 0 -1 0
vn 0 -1 0
vn 0 -1 0
vn 0 -1 0
vn 1 0 0
vn 1 0 0
vn 1 0 0
vn 1 0 0
vn 0 -1 0
vn 0 -1 0
vn 0 -1 0
vn 0 -1 0
vn 1 -1.220703E-06 0
vn 1 -1.220703E-06 0
vn 1 -1.220703E-06 0
vn 1 0 -7.772216E-07
vn 0 -1 0
vn 0 -1 0
vn 0 -1 0
vn 0 -1 0
vn 0 -1 0
vn 0 -1 0
vn 0 -1 0
vn 1 0 0
vn 1 0 0
vn 1 0 0
vn 1 0 0
vn 1 0 -1.554443E-06
vn 1 0 -1.554443E-06
vn 0 1 0
vn 0 1 0
vn 0 1 0
vn 0 1 0
vn 0 1 0
vn 0 1 0
vn -1 0 0
vn -1 0 0
vn -1 0 0
vn -1 0 0
vn -1 0 3.108886E-06
vn -1 0 3.108886E-06
vn 0 1 0
vn 0 1 0
vn 0 1 0
vn 0 1 0
vn 0 1 0
vn 0 1 0
vn 0 1 0
vn -1 0 0
vn -1 0 0
vn -1 0 0
vn -1 0 0
vn 0 1 0
vn 0 1 0
vn 0 1 0
vn 0 1 0
vn -1 0 0
vn -1 0 0
vn -1 0 0
vn -1 0 0
vn 0 -1 0
vn 0 -1 0
vn 0 -1 0
vn 0 -1 0
vn -1 0 0
vn -1 0 0
vn -1 0 0
vn -1 0 0
vn -1 0 3.108886E-06
vn -1 0 3.108886E-06
vn -1 0 3.108886E-06
vn -1 -2.441407E-06 0
g Candyland_jail001_0
f 3/3/3 2/2/2 1/1/1
f 4/4/4 1/1/1 2/2/2
f 3/3/3 1/1/1 5/5/5
f 6/6/6 4/4/4 2/2/2
f 6/6/6 2/2/2 7/7/7
f 8/8/8 3/3/3 5/5/5
f 8/8/8 5/5/5 9/9/9
f 9/9/9 5/5/5 10/10/10
f 11/11/11 10/10/10 5/5/5
f 12/12/12 6/6/6 7/7/7
f 6/6/6 12/12/12 13/13/13
f 13/13/13 12/12/12 14/14/14
f 15/15/15 14/14/14 12/12/12
f 15/15/15 12/12/12 16/16/16
f 15/15/15 16/16/16 17/17/17
f 17/17/17 16/16/16 18/18/18
f 18/18/18 16/16/16 19/19/19
f 20/20/20 19/19/19 16/16/16
f 21/21/21 18/18/18 19/19/19
f 21/21/21 19/19/19 22/22/22
f 23/23/23 22/22/22 19/19/19
f 21/21/21 24/24/24 18/18/18
f 21/21/21 22/22/22 24/24/24
f 25/25/25 18/18/18 24/24/24
f 22/22/22 26/26/26 24/24/24
f 24/24/24 26/26/26 27/27/27
f 28/28/28 26/26/26 22/22/22
f 28/28/28 29/29/29 26/26/26
f 29/29/29 30/30/30 26/26/26
f 31/31/31 28/28/28 22/22/22
f 32/32/32 28/28/28 31/31/31
f 33/33/33 32/32/32 31/31/31
f 33/33/33 31/31/31 34/34/34
f 35/35/35 33/33/33 34/34/34
f 34/34/34 10/10/10 35/35/35
f 36/36/36 35/35/35 10/10/10
f 37/37/37 33/33/33 35/35/35
f 38/38/38 33/33/33 37/37/37
f 10/10/10 34/34/34 9/9/9
f 34/34/34 39/39/39 9/9/9
f 42/42/42 41/41/41 40/40/40
f 43/43/43 41/41/41 42/42/42
f 44/44/44 41/41/41 43/43/43
f 41/41/41 44/44/44 45/45/45
f 46/46/46 45/45/45 44/44/44
f 47/47/47 44/44/44 43/43/43
f 48/48/48 44/44/44 47/47/47
f 49/49/49 42/42/42 40/40/40
f 50/50/50 43/43/43 42/42/42
f 42/42/42 51/51/51 50/50/50
f 54/54/54 53/53/53 52/52/52
f 55/55/55 52/52/52 53/53/53
f 56/56/56 52/52/52 55/55/55
f 57/57/57 54/54/54 52/52/52
f 60/60/60 59/59/59 58/58/58
f 61/61/61 58/58/58 59/59/59
f 64/64/64 63/63/63 62/62/62
f 65/65/65 62/62/62 63/63/63
f 68/68/68 67/67/67 66/66/66
f 69/69/69 66/66/66 67/67/67
f 72/72/72 71/71/71 70/70/70
f 73/73/73 70/70/70 71/71/71
f 76/76/76 75/75/75 74/74/74
f 77/77/77 74/74/74 75/75/75
f 80/80/80 79/79/79 78/78/78
f 81/81/81 78/78/78 79/79/79
f 84/84/84 83/83/83 82/82/82
f 85/85/85 82/82/82 83/83/83
f 88/88/88 87/87/87 86/86/86
f 89/89/89 86/86/86 87/87/87
f 92/92/92 91/91/91 90/90/90
f 93/93/93 90/90/90 91/91/91
f 96/96/96 95/95/95 94/94/94
f 97/97/97 94/94/94 95/95/95
f 100/100/100 99/99/99 98/98/98
f 101/101/101 98/98/98 99/99/99
f 104/104/104 103/103/103 102/102/102
f 105/105/105 102/102/102 103/103/103
f 108/108/108 107/107/107 106/106/106
f 109/109/109 106/106/106 107/107/107
f 112/112/112 111/111/111 110/110/110
f 113/113/113 110/110/110 111/111/111
f 116/116/116 115/115/115 114/114/114
f 117/117/117 114/114/114 115/115/115
f 120/120/120 119/119/119 118/118/118
f 121/121/121 118/118/118 119/119/119
f 124/124/124 123/123/123 122/122/122
f 125/125/125 122/122/122 123/123/123
f 128/128/128 127/127/127 126/126/126
f 129/129/129 126/126/126 127/127/127
f 132/132/132 131/131/131 130/130/130
f 133/133/133 130/130/130 131/131/131
f 136/136/136 135/135/135 134/134/134
f 137/137/137 134/134/134 135/135/135
f 140/140/140 139/139/139 138/138/138
f 141/141/141 138/138/138 139/139/139
f 144/144/144 143/143/143 142/142/142
f 145/145/145 142/142/142 143/143/143
f 148/148/148 147/147/147 146/146/146
f 149/149/149 146/146/146 147/147/147
f 152/152/152 151/151/151 150/150/150
f 153/153/153 150/150/150 151/151/151
f 156/156/156 155/155/155 154/154/154
f 157/157/157 154/154/154 155/155/155
f 160/160/160 159/159/159 158/158/158
f 161/161/161 158/158/158 159/159/159
f 164/164/164 163/163/163 162/162/162
f 165/165/165 162/162/162 163/163/163
f 168/168/168 167/167/167 166/166/166
f 169/169/169 166/166/166 167/167/167
f 172/172/172 171/171/171 170/170/170
f 173/173/173 170/170/170 171/171/171
f 170/170/170 174/174/174 172/172/172
f 172/172/172 174/174/174 175/175/175
f 176/176/176 175/175/175 174/174/174
f 179/179/179 178/178/178 177/177/177
f 180/180/180 177/177/177 178/178/178
f 177/177/177 181/181/181 179/179/179
f 182/182/182 179/179/179 181/181/181
f 185/185/185 184/184/184 183/183/183
f 186/186/186 183/183/183 184/184/184
f 185/185/185 183/183/183 187/187/187
f 188/188/188 187/187/187 183/183/183
f 191/191/191 190/190/190 189/189/189
f 192/192/192 189/189/189 190/190/190
f 189/189/189 193/193/193 191/191/191
f 194/194/194 191/191/191 193/193/193
f 197/197/197 196/196/196 195/195/195
f 198/198/198 195/195/195 196/196/196
f 196/196/196 197/197/197 199/199/199
f 196/196/196 200/200/200 198/198/198
f 201/201/201 198/198/198 200/200/200
f 204/204/204 203/203/203 202/202/202
f 205/205/205 202/202/202 203/203/203
f 208/208/208 207/207/207 206/206/206
f 209/209/209 206/206/206 207/207/207
f 212/212/212 211/211/211 210/210/210
f 213/213/213 210/210/210 211/211/211
f 216/216/216 215/215/215 214/214/214
f 217/217/217 214/214/214 215/215/215
f 220/220/220 219/219/219 218/218/218
f 221/221/221 218/218/218 219/219/219
f 224/224/224 223/223/223 222/222/222
f 225/225/225 222/222/222 223/223/223
