g Candyland_sweet_wall_1
v 0.5389999 -0.02000001 -0.2515
v 0.5979999 -0.09971892 -0.2515
v 0.5979999 -0.02000001 -0.2515
v 0.5389999 -0.09971891 -0.2515
v 0.5979999 -0.02000001 -0.2515
v 0.5979999 -0.09971896 0.2125001
v 0.5979999 -0.02000005 0.2125001
v 0.5979999 -0.09971892 -0.2515
v 0.5979999 -0.02000005 0.2125001
v 0.5389999 -0.09971896 0.2125001
v 0.5389999 -0.02000005 0.2125001
v 0.5979999 -0.09971896 0.2125001
v 0.5389999 -0.02000005 0.2125001
v 0.5389999 -0.09971891 -0.2515
v 0.5389999 -0.02000001 -0.2515
v 0.5389999 -0.09971896 0.2125001
v 0.5389999 0.03 -0.2515
v 0.5979999 -9.536743E-09 -0.2515
v 0.5979999 0.02999999 -0.2515
v 0.5389999 0 -0.2515
v 0.5979999 0.02999999 -0.2515
v 0.5979999 -4.768371E-08 0.2125001
v 0.5979999 0.02999995 0.2125001
v 0.5979999 -9.536743E-09 -0.2515
v 0.5979999 0.02999995 0.2125001
v 0.5389999 -3.814697E-08 0.2125001
v 0.5389999 0.02999996 0.2125001
v 0.5979999 -4.768371E-08 0.2125001
v 0.5389999 0.02999996 0.2125001
v 0.5389999 0 -0.2515
v 0.5389999 0.03 -0.2515
v 0.5389999 -3.814697E-08 0.2125001
v 0.5389999 0.05999996 0.2125001
v 0.5979999 0.05999999 -0.2515
v 0.5979999 0.05999995 0.2125001
v 0.5389999 0.06 -0.2515
v 0.5389999 0.06 -0.2515
v 0.5979999 0.04999999 -0.2515
v 0.5979999 0.05999999 -0.2515
v 0.5389999 0.05 -0.2515
v 0.5979999 0.05999999 -0.2515
v 0.5979999 0.04999995 0.2125001
v 0.5979999 0.05999995 0.2125001
v 0.5979999 0.04999999 -0.2515
v 0.5979999 0.05999995 0.2125001
v 0.5389999 0.04999996 0.2125001
v 0.5389999 0.05999996 0.2125001
v 0.5979999 0.04999995 0.2125001
v 0.5389999 0.05999996 0.2125001
v 0.5389999 0.05 -0.2515
v 0.5389999 0.06 -0.2515
v 0.5389999 0.04999996 0.2125001
v 0.5389999 -0.09971896 0.2125001
v 0.5979999 -0.09971896 0.2125001
v 0.5389999 -0.09971891 -0.2515
v 0.5979999 -0.09971892 -0.2515
vt -4 5.315628
vt -9.899998 0
vt -9.899998 5.315629
vt -4 0
vt 33.4 5.315629
vt -13 0
vt -13 5.315628
vt 33.4 0
vt 9.899998 5.315628
vt 4 0
vt 4 5.315628
vt 9.899998 0
vt 13 5.315628
vt -33.4 0
vt -33.4 5.315628
vt 13 0
vt -4 8.649611
vt -9.899998 6.649221
vt -9.899998 8.649611
vt -4 6.649221
vt 33.4 8.649611
vt -13 6.649221
vt -13 8.649611
vt 33.4 6.649221
vt 9.899998 8.649611
vt 4 6.649221
vt 4 8.649611
vt 9.899998 6.649221
vt 13 8.649611
vt -33.4 6.649221
vt -33.4 8.649611
vt 13 6.649221
vt 4 -13
vt 9.899998 33.4
vt 9.899998 -13
vt 4 33.4
vt -4 10.65
vt -9.899998 9.983204
vt -9.899998 10.65
vt -4 9.983204
vt 33.4 10.65
vt -13 9.983204
vt -13 10.65
vt 33.4 9.983204
vt 9.899998 10.65
vt 4 9.983204
vt 4 10.65
vt 9.899998 9.983204
vt 13 10.65
vt -33.4 9.983204
vt -33.4 10.65
vt 13 9.983204
vt -4 -13
vt -9.899998 -13
vt -4 33.4
vt -9.899998 33.4
vn 0 0 -1
vn 0 0 -1
vn 0 0 -1
vn 0 0 -1
vn 1 0 0
vn 1 -1.196296E-07 0
vn 1 0 0
vn 1 -1.196296E-07 0
vn 0 0 1
vn 0 -1.196296E-07 1
vn 0 0 1
vn 0 -1.196296E-07 1
vn -1 1.491166E-07 0
vn -1 0 0
vn -1 1.491167E-07 0
vn -1 0 0
vn 0 0 -1
vn 0 0 -1
vn 0 0 -1
vn 0 0 -1
vn 1 0 0
vn 1 0 0
vn 1 0 0
vn 1 0 0
vn 0 0 1
vn 0 0 1
vn 0 0 1
vn 0 0 1
vn -1 1.192093E-07 0
vn -1 1.192092E-07 0
vn -1 1.192093E-07 0
vn -1 1.192093E-07 0
vn 1.616398E-07 1 0
vn 1.616398E-07 1 0
vn 1.616398E-07 1 0
vn 1.616398E-07 1 0
vn 0 0 -1
vn 0 0 -1
vn 0 0 -1
vn 0 0 -1
vn 1 0 0
vn 1 0 0
vn 1 0 0
vn 1 0 0
vn 0 0 1
vn 0 0 1
vn 0 0 1
vn 0 0 1
vn -1 0 0
vn -1 1.192092E-07 0
vn -1 0 0
vn -1 1.192093E-07 0
vn 0 -1 0
vn 0 -1 0
vn 0 -1 0
vn 0 -1 0
g Candyland_sweet_wall_1_0
f 3/3/3 2/2/2 1/1/1
f 4/4/4 1/1/1 2/2/2
f 7/7/7 6/6/6 5/5/5
f 8/8/8 5/5/5 6/6/6
f 11/11/11 10/10/10 9/9/9
f 12/12/12 9/9/9 10/10/10
f 15/15/15 14/14/14 13/13/13
f 16/16/16 13/13/13 14/14/14
f 19/19/19 18/18/18 17/17/17
f 20/20/20 17/17/17 18/18/18
f 23/23/23 22/22/22 21/21/21
f 24/24/24 21/21/21 22/22/22
f 27/27/27 26/26/26 25/25/25
f 28/28/28 25/25/25 26/26/26
f 31/31/31 30/30/30 29/29/29
f 32/32/32 29/29/29 30/30/30
g Candyland_sweet_wall_1_1
f 35/35/35 34/34/34 33/33/33
f 36/36/36 33/33/33 34/34/34
f 39/39/39 38/38/38 37/37/37
f 40/40/40 37/37/37 38/38/38
f 43/43/43 42/42/42 41/41/41
f 44/44/44 41/41/41 42/42/42
f 47/47/47 46/46/46 45/45/45
f 48/48/48 45/45/45 46/46/46
f 51/51/51 50/50/50 49/49/49
f 52/52/52 49/49/49 50/50/50
g Candyland_sweet_wall_1_2
f 55/55/55 54/54/54 53/53/53
f 55/55/55 56/56/56 54/54/54
g Candyland_sweet_wall_1_3
f 38/38/38 19/19/19 40/40/40
f 17/17/17 40/40/40 19/19/19
f 42/42/42 23/23/23 44/44/44
f 21/21/21 44/44/44 23/23/23
f 46/46/46 27/27/27 48/48/48
f 25/25/25 48/48/48 27/27/27
f 50/50/50 31/31/31 52/52/52
f 29/29/29 52/52/52 31/31/31
f 18/18/18 3/3/3 20/20/20
f 1/1/1 20/20/20 3/3/3
f 22/22/22 7/7/7 24/24/24
f 5/5/5 24/24/24 7/7/7
f 26/26/26 11/11/11 28/28/28
f 9/9/9 28/28/28 11/11/11
f 30/30/30 15/15/15 32/32/32
f 13/13/13 32/32/32 15/15/15
