g car_halloween lobby.000
v 0.07874802 0.5258691 0.5078161
v 0.07874802 0.5258691 0.3711214
v 0.07874802 0.3891744 0.3711213
v 0.07874802 0.3891743 0.5078161
v 0.07874802 0.3891743 0.5078161
v 0.07874802 0.3891744 0.3711213
v -0.05794674 0.3891744 0.3711213
v -0.05794674 0.3891743 0.5078161
v 0.08185207 -0.005629793 0.04661871
v -0.08128206 -0.005629793 0.04661871
v -0.08128206 -0.005629767 -0.01283518
v 0.08185207 -0.005629767 -0.01283518
v 0.08185207 -0.01974997 0.04661871
v 0.08185207 -0.01974995 -0.01283518
v -0.08128206 -0.01974995 -0.01283518
v -0.08128206 -0.01974997 0.04661871
v 0.08185207 -0.005629793 0.04661871
v 0.08185207 -0.01974997 0.04661871
v -0.08128206 -0.01974997 0.04661871
v -0.08128206 -0.005629793 0.04661871
v -0.08128206 -0.005629793 0.04661871
v -0.08128206 -0.01974997 0.04661871
v -0.08128206 -0.01974995 -0.01283518
v -0.08128206 -0.005629767 -0.01283518
v -0.08128206 -0.005629767 -0.01283518
v -0.08128206 -0.01974995 -0.01283518
v 0.08185207 -0.01974995 -0.01283518
v 0.08185207 -0.005629767 -0.01283518
v 0.08185207 -0.005629767 -0.01283518
v 0.08185207 -0.01974995 -0.01283518
v 0.08185207 -0.01974997 0.04661871
v 0.08185207 -0.005629793 0.04661871
v 0.07874802 0.5258691 0.5078161
v -0.05788661 0.5258691 0.507605
v -0.05794674 0.3891743 0.5078161
v 0.07874802 0.3891743 0.5078161
vt 0.859375 0.8671875
vt 0.7265625 0.8671875
vt 0.7265625 1
vt 0.859375 1
vt 0.859375 1
vt 1 1
vt 1 0.8671875
vt 0.859375 0.8671875
vt 0.5859375 0.9921875
vt 0.4375 0.9921875
vt 0.4375 0.9375
vt 0.5859375 0.9375
vt 0.5859375 0.9921875
vt 0.5859375 0.9375
vt 0.4375 0.9375
vt 0.4375 0.9921875
vt 0.578125 0.984375
vt 0.5859375 0.984375
vt 0.4375 0.984375
vt 0.4296875 0.984375
vt 0.4375 0.9921875
vt 0.4375 0.9921875
vt 0.4375 0.9375
vt 0.4375 0.9375
vt 0.4375 0.9375
vt 0.4375 0.9375
vt 0.5859375 0.9375
vt 0.5859375 0.9375
vt 0.578125 0.9375
vt 0.5859375 0.9375
vt 0.5859375 0.984375
vt 0.578125 0.984375
vt 0.859375 0.8671875
vt 0.7265625 0.8671875
vt 0.7265625 1
vt 0.859375 1
vn 1 0 0
vn 1 0 0
vn 1 0 0
vn 1 0 0
vn 0 -1 -3.266453E-07
vn 0 -1 -3.266453E-07
vn 0 -1 -3.266453E-07
vn 0 -1 -3.266453E-07
vn 0 1 4.228082E-07
vn 0 1 4.228082E-07
vn 0 1 4.228082E-07
vn 0 1 4.228082E-07
vn 0 -1 -3.9331E-07
vn 0 -1 -3.9331E-07
vn 0 -1 -3.9331E-07
vn 0 -1 -3.9331E-07
vn 0 -3.376991E-07 1
vn 0 -3.376991E-07 1
vn 0 -3.376991E-07 1
vn 0 -3.376991E-07 1
vn -1 -4.544013E-07 0
vn -1 -4.544013E-07 0
vn -1 -4.544013E-07 0
vn -1 -4.544013E-07 0
vn 0 1.688495E-07 -1
vn 0 1.688495E-07 -1
vn 0 1.688495E-07 -1
vn 0 1.688495E-07 -1
vn 1 -4.544013E-07 0
vn 1 -4.544013E-07 0
vn 1 -4.544013E-07 0
vn 1 -4.544013E-07 0
vn 0.0007726849 -0.0007720677 -0.9999994
vn 0.0007726849 -0.0007720677 -0.9999994
vn 0.0007726849 -0.0007720677 -0.9999994
vn 0.0007726849 -0.0007720677 -0.9999994
g car_halloween lobby.000_0
f 3/3/3 2/2/2 1/1/1
f 4/4/4 3/3/3 1/1/1
f 7/7/7 6/6/6 5/5/5
f 8/8/8 7/7/7 5/5/5
f 11/11/11 10/10/10 9/9/9
f 12/12/12 11/11/11 9/9/9
f 15/15/15 14/14/14 13/13/13
f 16/16/16 15/15/15 13/13/13
f 19/19/19 18/18/18 17/17/17
f 20/20/20 19/19/19 17/17/17
f 23/23/23 22/22/22 21/21/21
f 24/24/24 23/23/23 21/21/21
f 27/27/27 26/26/26 25/25/25
f 28/28/28 27/27/27 25/25/25
f 31/31/31 30/30/30 29/29/29
f 32/32/32 31/31/31 29/29/29
f 35/35/35 34/34/34 33/33/33
f 36/36/36 35/35/35 33/33/33
