g Castle1_12
v 44.08814 -18.3065 -21.31349
v 39.08815 -18.30649 -12.31351
v 39.08815 -18.30651 -21.31349
v 44.08814 -18.30649 -12.31351
v 44.08814 -23.30649 -21.31349
v 44.08814 -18.30649 -12.31351
v 44.08814 -18.3065 -21.31349
v 44.08814 -23.30648 -12.3135
v 44.08814 -23.30648 -12.3135
v 39.08815 -23.3065 -21.31349
v 39.08815 -23.30648 -12.31351
v 44.08814 -23.30649 -21.31349
v 39.08815 -18.30651 -21.31349
v 39.08815 -23.30648 -12.31351
v 39.08815 -23.3065 -21.31349
v 39.08815 -18.30649 -12.31351
v 39.08815 -18.30649 -12.31351
v 44.08814 -18.30649 -12.31351
v 44.08814 -23.30648 -12.3135
v 39.08815 -23.30648 -12.31351
v 60.08367 -18.3065 -21.31349
v 55.08367 -18.30649 -12.31351
v 55.08368 -18.30651 -21.31349
v 60.08366 -18.30649 -12.31351
v 60.08367 -23.30649 -21.31348
v 60.08366 -18.30649 -12.31351
v 60.08367 -18.3065 -21.31349
v 60.08366 -23.30648 -12.3135
v 60.08366 -23.30648 -12.3135
v 55.08368 -23.3065 -21.31349
v 55.08367 -23.30648 -12.3135
v 60.08367 -23.30649 -21.31348
v 55.08368 -18.30651 -21.31349
v 55.08367 -23.30648 -12.3135
v 55.08368 -23.3065 -21.31349
v 55.08367 -18.30649 -12.31351
v 55.08367 -18.30649 -12.31351
v 60.08366 -18.30649 -12.31351
v 60.08366 -23.30648 -12.3135
v 55.08367 -23.30648 -12.3135
v 44.08814 28.85214 -21.31351
v 39.08815 28.85214 -12.31354
v 44.08814 28.85214 -12.31353
v 39.08815 28.85214 -21.31352
v 44.08814 33.85213 -21.31352
v 44.08814 28.85214 -12.31353
v 44.08814 33.85213 -12.31354
v 44.08814 28.85214 -21.31351
v 44.08814 33.85213 -12.31354
v 39.08815 33.85213 -21.31352
v 44.08814 33.85213 -21.31352
v 39.08815 33.85213 -12.31354
v 39.08815 28.85214 -21.31352
v 39.08815 33.85213 -12.31354
v 39.08815 28.85214 -12.31354
v 39.08815 33.85213 -21.31352
v 39.08815 28.85214 -12.31354
v 44.08814 33.85213 -12.31354
v 44.08814 28.85214 -12.31353
v 39.08815 33.85213 -12.31354
v 60.08367 28.85214 -21.31351
v 55.08367 28.85214 -12.31353
v 60.08366 28.85214 -12.31353
v 55.08368 28.85214 -21.31351
v 60.08367 33.85213 -21.31351
v 60.08366 28.85214 -12.31353
v 60.08366 33.85213 -12.31353
v 60.08367 28.85214 -21.31351
v 60.08366 33.85213 -12.31353
v 55.08368 33.85213 -21.31352
v 60.08367 33.85213 -21.31351
v 55.08367 33.85213 -12.31354
v 55.08368 28.85214 -21.31351
v 55.08367 33.85213 -12.31354
v 55.08367 28.85214 -12.31353
v 55.08368 33.85213 -21.31352
v 55.08367 28.85214 -12.31353
v 60.08366 33.85213 -12.31353
v 60.08366 28.85214 -12.31353
v 55.08367 33.85213 -12.31354
vt 3.000015 -4.249999
vt -1.999977 4.750003
vt -1.999983 -4.249996
vt 3.000024 4.75
vt 29.07936 -4.25
vt 24.07936 4.750001
vt 24.07936 -4.249999
vt 29.07936 4.75
vt -2.000024 4.750001
vt 2.999983 -4.249997
vt 2.999977 4.750003
vt -2.000015 -4.25
vt -23.07937 -4.249996
vt -28.07937 4.750003
vt -28.07937 -4.249997
vt -23.07937 4.750004
vt -1.999976 24.07936
vt 3.000026 24.07936
vt 3.000025 29.07936
vt -1.999977 29.07936
vt 3.000015 -4.249999
vt -1.999977 4.750003
vt -1.999983 -4.249996
vt 3.000024 4.75
vt 29.07936 -4.25
vt 24.07936 4.750001
vt 24.07936 -4.249999
vt 29.07936 4.75
vt -2.000024 4.750001
vt 2.999983 -4.249997
vt 2.999977 4.750003
vt -2.000015 -4.25
vt -23.07937 -4.249996
vt -28.07937 4.750003
vt -28.07937 -4.249997
vt -23.07937 4.750004
vt -1.999976 24.07936
vt 3.000026 24.07936
vt 3.000025 29.07936
vt -1.999977 29.07936
vt 3.000015 -4.249999
vt -1.999977 4.750003
vt 3.000024 4.75
vt -1.999983 -4.249996
vt 29.07936 -4.25
vt 24.07936 4.750001
vt 29.07936 4.75
vt 24.07936 -4.249999
vt -2.000024 4.750001
vt 2.999983 -4.249997
vt -2.000015 -4.25
vt 2.999977 4.750003
vt -23.07937 -4.249996
vt -28.07937 4.750003
vt -23.07937 4.750004
vt -28.07937 -4.249997
vt -1.999976 24.07936
vt 3.000025 29.07936
vt 3.000026 24.07936
vt -1.999977 29.07936
vt 3.000015 -4.249999
vt -1.999977 4.750003
vt 3.000024 4.75
vt -1.999983 -4.249996
vt 29.07936 -4.25
vt 24.07936 4.750001
vt 29.07936 4.75
vt 24.07936 -4.249999
vt -2.000024 4.750001
vt 2.999983 -4.249997
vt -2.000015 -4.25
vt 2.999977 4.750003
vt -23.07937 -4.249996
vt -28.07937 4.750003
vt -23.07937 4.750004
vt -28.07937 -4.249997
vt -1.999976 24.07936
vt 3.000025 29.07936
vt 3.000026 24.07936
vt -1.999977 29.07936
vn -1.322603E-06 1 -1.732228E-06
vn -6.305264E-07 1 -1.407219E-06
vn -1.953131E-06 1 -2.028332E-06
vn 0 1 -1.111115E-06
vn 1 0 0
vn 1 0 0
vn 1 0 0
vn 1 0 0
vn 6.305247E-07 -1 1.526487E-06
vn 1.322602E-06 -1 1.309136E-06
vn 0 -1 1.724507E-06
vn 1.953129E-06 -1 1.111116E-06
vn -1 0 -5.425357E-07
vn -1 0 -5.425362E-07
vn -1 0 -5.425352E-07
vn -1 0 -5.425366E-07
vn -1.000004E-06 1.220707E-06 1
vn -1.000004E-06 1.220706E-06 1
vn -1.000004E-06 1.220707E-06 1
vn -1.000005E-06 1.220707E-06 1
vn -1.322601E-06 1 -1.761947E-06
vn -6.305257E-07 1 -1.377497E-06
vn -1.953128E-06 1 -2.112207E-06
vn 0 1 -1.027238E-06
vn 1 7.874305E-07 5.425359E-07
vn 1 -7.874311E-07 5.425357E-07
vn 1 2.222232E-06 5.42536E-07
vn 1 -2.222232E-06 5.425356E-07
vn 6.305237E-07 -1 1.546979E-06
vn 1.322598E-06 -1 1.288643E-06
vn 0 -1 1.782339E-06
vn 1.953125E-06 -1 1.053282E-06
vn -1 0 -1.085071E-06
vn -1 0 -1.085072E-06
vn -1 0 -1.085071E-06
vn -1 0 -1.085073E-06
vn -7.500028E-07 1.342776E-06 1
vn -5.000015E-07 1.464844E-06 1
vn -7.500023E-07 1.342776E-06 1
vn -1.000004E-06 1.220708E-06 1
vn 0 -1 0
vn 0 -1 0
vn 0 -1 0
vn -4.882826E-07 -1 0
vn 1 -3.394262E-07 0
vn 1 -3.394262E-07 0
vn 1 -3.394262E-07 0
vn 1 6.788525E-07 0
vn 4.882825E-07 1 0
vn 4.882825E-07 1 0
vn 4.882825E-07 1 0
vn 0 1 0
vn -1 -2.031096E-07 -5.425359E-07
vn -1 -2.031096E-07 -5.425359E-07
vn -1 -2.031096E-07 -5.425359E-07
vn -1 4.062181E-07 -5.425358E-07
vn -7.50003E-07 4.882822E-07 1
vn -7.50003E-07 4.882822E-07 1
vn -5.00002E-07 4.882822E-07 1
vn -1.000004E-06 4.882822E-07 1
vn 0 -1 0
vn 0 -1 0
vn 0 -1 0
vn -4.882817E-07 -1 -5.555573E-07
vn 1 1.471721E-07 5.425358E-07
vn 1 1.471721E-07 5.425358E-07
vn 1 1.471721E-07 5.425358E-07
vn 1 -2.943433E-07 5.425359E-07
vn 4.882809E-07 1 0
vn 4.882809E-07 1 0
vn 4.882809E-07 1 0
vn 0 1 0
vn -1 7.662615E-07 -1.085072E-06
vn -1 7.662615E-07 -1.085072E-06
vn -1 7.662615E-07 -1.085072E-06
vn -1 -8.428157E-07 -1.085071E-06
vn -5.000012E-07 3.662115E-07 1
vn -5.000018E-07 3.662117E-07 1
vn -1.000003E-06 4.882818E-07 1
vn 0 2.441413E-07 1
g Castle1_12_0
f 3/3/3 2/2/2 1/1/1
f 4/4/4 1/1/1 2/2/2
f 7/7/7 6/6/6 5/5/5
f 8/8/8 5/5/5 6/6/6
f 11/11/11 10/10/10 9/9/9
f 12/12/12 9/9/9 10/10/10
f 15/15/15 14/14/14 13/13/13
f 16/16/16 13/13/13 14/14/14
f 19/19/19 18/18/18 17/17/17
f 20/20/20 19/19/19 17/17/17
f 23/23/23 22/22/22 21/21/21
f 24/24/24 21/21/21 22/22/22
f 27/27/27 26/26/26 25/25/25
f 28/28/28 25/25/25 26/26/26
f 31/31/31 30/30/30 29/29/29
f 32/32/32 29/29/29 30/30/30
f 35/35/35 34/34/34 33/33/33
f 36/36/36 33/33/33 34/34/34
f 39/39/39 38/38/38 37/37/37
f 40/40/40 39/39/39 37/37/37
f 43/43/43 42/42/42 41/41/41
f 44/44/44 41/41/41 42/42/42
f 47/47/47 46/46/46 45/45/45
f 48/48/48 45/45/45 46/46/46
f 51/51/51 50/50/50 49/49/49
f 52/52/52 49/49/49 50/50/50
f 55/55/55 54/54/54 53/53/53
f 56/56/56 53/53/53 54/54/54
f 59/59/59 58/58/58 57/57/57
f 58/58/58 60/60/60 57/57/57
f 63/63/63 62/62/62 61/61/61
f 64/64/64 61/61/61 62/62/62
f 67/67/67 66/66/66 65/65/65
f 68/68/68 65/65/65 66/66/66
f 71/71/71 70/70/70 69/69/69
f 72/72/72 69/69/69 70/70/70
f 75/75/75 74/74/74 73/73/73
f 76/76/76 73/73/73 74/74/74
f 79/79/79 78/78/78 77/77/77
f 78/78/78 80/80/80 77/77/77
