g Castle2_07
v -67.01591 -0.549176 -12.87978
v -67.01595 1.450822 -5.639721
v -67.01597 -0.5491785 -5.639721
v -67.01588 1.460505 -12.81303
v -69.01594 -1.549176 -5.639736
v -69.01587 -5.549169 -11.63972
v -69.01591 -1.549176 -11.63972
v -69.01591 -5.549163 -5.639737
v -69.01591 -4.54917 -5.639737
v -69.01594 -2.54917 -0.1619495
v -69.01591 -4.549165 -0.1619519
v -69.01591 -2.549172 -5.639737
v -64.01591 -0.5491711 -12.87979
v -64.01598 -0.5491711 -5.639726
v -65.01591 -0.5491711 -12.87978
v -65.01598 -0.549176 -5.639717
v -69.01591 -4.54917 -5.639737
v -69.01591 -4.549165 -0.1619519
v -68.01591 -4.549165 -5.639727
v -68.01591 -4.549165 -0.1619324
v -66.01592 -6.54917 -5.639738
v -66.01595 -6.549173 -0.161947
v -66.01592 -5.549173 -5.639737
v -66.01595 -5.549175 -0.1619495
v -64.01591 -4.549165 -5.639731
v -64.01594 -4.54917 -0.1619226
v -64.01592 -2.549167 -5.639729
v -64.01595 -2.549172 -0.1619275
v -66.01595 -1.549176 -5.639737
v -66.01593 -1.549181 -0.161947
v -66.01598 -0.5491785 -5.639732
v -66.01593 -0.5491809 -0.1619446
v -68.01594 -1.549172 -5.639725
v -68.01593 -1.549176 -0.1619324
v -68.01592 -2.54917 -5.639726
v -68.01594 -2.54917 -0.1619324
v -68.01587 -5.549163 -11.63971
v -68.01591 -5.549163 -5.639727
v -68.01587 -6.549162 -11.63971
v -68.01591 -6.549167 -5.639726
v -67.01591 -0.549176 -12.87978
v -67.01597 -0.5491785 -5.639721
v -68.01591 -0.5463391 -12.87978
v -68.01598 -0.549176 -5.639725
v -63.01595 -1.549167 -5.639721
v -63.01593 -1.549164 -11.6397
v -63.01593 -5.549168 -5.639725
v -63.01588 -5.549163 -11.63971
v -65.01595 1.450822 -5.639714
v -65.01591 -0.5575647 -12.87978
v -65.01598 -0.549176 -5.639717
v -65.0159 1.466915 -12.86707
v -65.01591 -0.5491711 -12.87978
v -65.01598 -0.549176 -5.639717
v -65.01591 -0.5575647 -12.87978
v -68.01591 -4.549165 -5.639727
v -68.01591 -4.549165 -0.1619324
v -68.01591 -5.549168 -5.639727
v -68.01594 -5.549169 -0.1619324
v -66.01592 -5.549173 -5.639737
v -66.01595 -5.549175 -0.1619495
v -65.01592 -5.549167 -5.639723
v -65.01595 -5.549169 -0.1619373
v -64.01592 -2.549167 -5.639729
v -64.01595 -2.549172 -0.1619275
v -65.01592 -2.549167 -5.639721
v -65.01595 -2.549172 -0.1619397
v -66.01598 -0.5491785 -5.639732
v -66.01593 -0.5491809 -0.1619446
v -67.01597 -0.5491785 -5.639723
v -67.01592 -0.5491809 -0.1619275
v -68.01591 -6.549167 -5.639726
v -64.01588 -6.549162 -11.63972
v -68.01587 -6.549162 -11.63971
v -64.01592 -6.549164 -5.639731
v -66.01592 -6.54917 -5.639738
v -67.01594 -6.549173 -0.1619275
v -66.01595 -6.549173 -0.161947
v -67.01592 -6.54917 -5.639727
v -68.01591 -0.5463391 -12.87978
v -68.01598 -0.549176 -5.639725
v -68.0159 -1.549172 -11.63971
v -68.01595 -1.549172 -5.639725
v -68.0159 -1.549172 -11.63971
v -68.01598 -0.549176 -5.639725
v -63.01593 -1.549164 -11.6397
v -63.01595 -1.549167 -5.639721
v -64.01591 -1.549167 -11.63971
v -64.01595 -1.549169 -5.639729
v -68.01591 -5.549168 -5.639727
v -68.01594 -5.549169 -0.1619324
v -67.01592 -5.54917 -5.639726
v -67.01594 -5.549175 -0.1619275
v -65.01592 -5.549167 -5.639723
v -65.01595 -5.549169 -0.1619373
v -65.01591 -4.549165 -5.639723
v -65.01593 -4.54917 -0.1619397
v -65.01592 -2.549167 -5.639721
v -65.01595 -2.549172 -0.1619397
v -65.01595 -1.549172 -5.639721
v -65.01593 -1.549176 -0.1619397
v -67.01597 -0.5491785 -5.639723
v -67.01592 -0.5491809 -0.1619275
v -67.01592 -1.549176 -5.639725
v -67.01592 -1.549181 -0.1619275
v -64.01592 -5.549167 -5.639731
v -64.01588 -5.553924 -11.63972
v -64.01592 -6.549164 -5.639731
v -64.01588 -6.549162 -11.63972
v -68.0159 -1.549172 -11.63971
v -68.01595 -1.549172 -5.639725
v -69.01591 -1.549176 -11.63972
v -69.01594 -1.549176 -5.639736
v -64.01591 -1.549167 -11.63971
v -64.01595 -1.549169 -5.639729
v -64.01591 -0.5491711 -12.87979
v -64.01598 -0.5491711 -5.639726
v -68.01592 -2.54917 -5.639726
v -68.01594 -2.54917 -0.1619324
v -69.01591 -2.549172 -5.639737
v -69.01594 -2.54917 -0.1619495
v -67.01592 -5.54917 -5.639726
v -67.01594 -5.549175 -0.1619275
v -67.01592 -6.54917 -5.639727
v -67.01594 -6.549173 -0.1619275
v -65.01591 -4.549165 -5.639723
v -65.01593 -4.54917 -0.1619397
v -64.01591 -4.549165 -5.639731
v -64.01594 -4.54917 -0.1619226
v -65.01595 -1.549172 -5.639721
v -65.01593 -1.549176 -0.1619397
v -66.01595 -1.549176 -5.639737
v -66.01593 -1.549181 -0.161947
v -67.01592 -1.549176 -5.639725
v -67.01592 -1.549181 -0.1619275
v -68.01594 -1.549172 -5.639725
v -68.01593 -1.549176 -0.1619324
v -68.01591 -5.549163 -5.639727
v -68.01587 -5.549163 -11.63971
v -69.01591 -5.549163 -5.639737
v -69.01587 -5.549169 -11.63972
v -64.01588 -5.553924 -11.63972
v -64.01592 -5.549167 -5.639731
v -63.01588 -5.549163 -11.63971
v -63.01593 -5.549168 -5.639725
v -68.01587 -6.549162 -11.63971
v -68.01587 -5.54916 -21.30668
v -68.01587 -5.549163 -11.63971
v -68.01587 -6.549158 -21.30668
v -64.01588 -6.549162 -11.63972
v -68.01587 -6.549158 -21.30668
v -68.01587 -6.549162 -11.63971
v -64.01588 -6.549162 -21.30667
v -64.01591 -1.549167 -11.63971
v -63.01593 -1.549164 -14.77009
v -63.01593 -1.549164 -11.6397
v -64.01591 -1.549167 -14.96705
v -64.01588 -5.553924 -11.63972
v -64.01588 -6.549162 -21.30667
v -64.01588 -6.549162 -11.63972
v -64.01588 -5.553924 -21.30667
v -68.01587 -5.549163 -11.63971
v -69.01587 -5.549163 -21.30668
v -69.01587 -5.549169 -11.63972
v -68.01587 -5.54916 -21.30668
v -63.01588 -5.549163 -11.63971
v -64.01588 -5.553924 -21.30667
v -64.01588 -5.553924 -11.63972
v -63.01589 -5.549158 -21.30667
v -63.01589 -5.549158 -21.30667
v -63.01591 -2.851339 -16.80516
v -63.01591 -3.002816 -21.30667
v -63.01588 -5.549163 -11.63971
v -63.01593 -1.549164 -11.6397
v -63.01593 -1.549164 -14.77009
v -63.01593 -1.549164 -16.8107
v -64.01591 -0.5491711 -14.90345
v -64.01591 -1.549167 -11.63971
v -64.01591 -0.5491711 -12.87979
v -64.01591 -1.549167 -14.96705
v -69.01591 -1.549167 -14.78031
v -69.01589 -2.658598 -16.86838
v -69.01591 -1.549159 -16.85576
v -69.01587 -5.549169 -11.63972
v -69.01587 -5.549163 -21.30668
v -69.01589 -2.605475 -21.30668
v -69.01591 -1.549176 -11.63972
v -69.01591 -1.549167 -14.78031
v -68.0159 -1.549172 -11.63971
v -69.01591 -1.549176 -11.63972
v -68.01591 -1.549167 -14.80656
v -68.0159 -1.549172 -11.63971
v -68.01591 -0.5548279 -14.7532
v -68.01591 -0.5463391 -12.87978
v -68.01591 -1.549167 -14.80656
v -65.01595 1.450822 -5.639714
v -67.01597 -0.5491785 -5.639721
v -67.01595 1.450822 -5.639721
v -65.01598 -0.549176 -5.639717
v -64.01595 -1.549169 -5.639729
v -64.01598 -0.5491711 -5.639726
v -68.01595 -1.549172 -5.639725
v -68.01598 -0.549176 -5.639725
v -68.01591 -5.549163 -5.639727
v -69.01594 -1.549176 -5.639736
v -69.01591 -5.549163 -5.639737
v -63.01595 -1.549167 -5.639721
v -64.01592 -5.549167 -5.639731
v -63.01593 -5.549168 -5.639725
v -68.01591 -6.549167 -5.639726
v -64.01592 -6.549164 -5.639731
v -68.01591 -5.549163 -5.639727
v -64.01595 -1.549169 -5.639729
v -64.01592 -5.549167 -5.639731
vt 0.3107765 0.01131808
vt 0.2813766 0.117748
vt 0.3107765 0.117748
vt 0.2812343 0.01229937
vt 0.325477 0.09895196
vt 0.3842767 0.01075129
vt 0.3254769 0.01075127
vt 0.3842763 0.09895181
vt 0.3695767 0.09895188
vt 0.3401768 0.1794757
vt 0.3695768 0.1794758
vt 0.3401769 0.09895194
vt 0.2978775 0.01131841
vt 0.297878 0.117748
vt 0.3125781 0.0113181
vt 0.312578 0.1177484
vt 0.3713778 0.09895173
vt 0.3713778 0.1794757
vt 0.3566778 0.09895193
vt 0.3566778 0.1794753
vt 0.3989764 0.09895192
vt 0.3989765 0.1794758
vt 0.3842765 0.09895192
vt 0.3842764 0.1794757
vt 0.3695768 0.09895194
vt 0.3695768 0.1794758
vt 0.3401768 0.09895194
vt 0.3401768 0.1794757
vt 0.3254776 0.09895194
vt 0.3254772 0.1794758
vt 0.3107772 0.09895203
vt 0.3107767 0.1794759
vt 0.3254769 0.098952
vt 0.3254768 0.1794758
vt 0.3401767 0.09895196
vt 0.3401765 0.1794757
vt 0.3842911 0.01075116
vt 0.3842765 0.09895183
vt 0.3989765 0.0107512
vt 0.3989764 0.09895183
vt 0.3419776 0.0113182
vt 0.3419778 0.1177481
vt 0.3566779 0.01131804
vt 0.3566778 0.1177481
vt 0.3254767 0.09895188
vt 0.3254768 0.01075122
vt 0.3842767 0.09895185
vt 0.3842768 0.01075118
vt 0.2813765 0.117748
vt 0.3108999 0.01131809
vt 0.3107765 0.117748
vt 0.2811399 0.01150487
vt 0.3107769 0.01131809
vt 0.3107765 0.117748
vt 0.3108999 0.01131805
vt 0.3746212 0.09945643
vt 0.3746211 0.1799802
vt 0.3875163 0.09942078
vt 0.3879628 0.1799802
vt 0.3272778 0.09895163
vt 0.3272778 0.1794757
vt 0.3125779 0.09895191
vt 0.3125778 0.1794756
vt 0.2978779 0.09895219
vt 0.2978779 0.1794758
vt 0.3217776 0.09895194
vt 0.3125779 0.1794755
vt 0.3272779 0.09895214
vt 0.3272779 0.1794759
vt 0.3419778 0.09895199
vt 0.3419778 0.1794762
vt 0.3566778 0.09895179
vt 0.2978777 0.01075114
vt 0.3566777 0.01075133
vt 0.2978779 0.09895192
vt 0.3272778 0.09895195
vt 0.3419778 0.1794757
vt 0.3272778 0.1794763
vt 0.3419778 0.098952
vt 0.3106937 0.01131806
vt 0.3107771 0.117748
vt 0.3254771 0.02954736
vt 0.3254774 0.09895188
vt 0.3254771 0.0107512
vt 0.3107771 0.09895183
vt 0.2831779 0.01075121
vt 0.2831779 0.09895191
vt 0.3070775 0.01075127
vt 0.2978779 0.09895179
vt 0.3570888 0.09953398
vt 0.3566779 0.1794757
vt 0.3419779 0.09953402
vt 0.3419779 0.1794756
vt 0.3842763 0.09895194
vt 0.3842763 0.1794758
vt 0.3695763 0.09895194
vt 0.3695763 0.1794757
vt 0.3399018 0.09891635
vt 0.3398782 0.1794758
vt 0.3254767 0.09895197
vt 0.3254765 0.1794758
vt 0.3107776 0.09895214
vt 0.3107772 0.1794758
vt 0.3254772 0.09895205
vt 0.3254767 0.1794757
vt 0.3842764 0.09895183
vt 0.3843465 0.01075119
vt 0.3989764 0.09895184
vt 0.3989763 0.01075121
vt 0.3566779 0.01075117
vt 0.3566779 0.09895196
vt 0.3713779 0.0107513
vt 0.3713779 0.09895173
vt 0.3255106 0.02954743
vt 0.3254771 0.117748
vt 0.3107838 0.01131697
vt 0.3107774 0.117748
vt 0.3566777 0.09895173
vt 0.3566778 0.1794757
vt 0.3713778 0.09895188
vt 0.3713779 0.1794753
vt 0.3842764 0.09895194
vt 0.3842765 0.1794757
vt 0.3989765 0.09895194
vt 0.3989764 0.1794757
vt 0.3125779 0.09895219
vt 0.3125779 0.1794757
vt 0.2978779 0.09895193
vt 0.2978779 0.1794755
vt 0.3125776 0.09895165
vt 0.3125777 0.1794758
vt 0.3272777 0.09895192
vt 0.3272778 0.1794757
vt 0.341978 0.09895195
vt 0.3419778 0.1794757
vt 0.3566779 0.09895196
vt 0.3566778 0.1794757
vt 0.3586796 0.09900414
vt 0.3586787 0.01075116
vt 0.3713778 0.09895178
vt 0.3713777 0.01075119
vt 0.2978783 0.0107511
vt 0.297878 0.09895182
vt 0.2831779 0.01075112
vt 0.2831776 0.09895176
vt 0.02966889 0.1350835
vt 0.04280104 0.2620317
vt 0.04280104 0.1350835
vt 0.02966889 0.2620317
vt 0.2618476 0.1583521
vt 0.209319 0.03140382
vt 0.209319 0.1583521
vt 0.2618476 0.03140382
vt 0.1524924 0.01045747
vt 0.1656245 0.05156586
vt 0.1656245 0.01045734
vt 0.1524924 0.05415259
vt 0.04798515 0.1685713
vt 0.03491554 0.04162307
vt 0.03491557 0.1685713
vt 0.04798511 0.04162308
vt 0.209319 0.1583519
vt 0.1961868 0.03140386
vt 0.1961869 0.1583521
vt 0.209319 0.03140384
vt 0.2749793 0.1583519
vt 0.261847 0.03140401
vt 0.2618471 0.1583521
vt 0.2749791 0.03140387
vt 0.04804745 0.04162314
vt 0.08347565 0.1007378
vt 0.08148647 0.04162314
vt 0.04804742 0.1685713
vt 0.1005761 0.1685713
vt 0.1005052 0.1274626
vt 0.1005761 0.100665
vt 0.1137082 0.1257114
vt 0.1005761 0.1685713
vt 0.1137082 0.1522864
vt 0.1005761 0.1248762
vt 0.09540641 0.176594
vt 0.08076021 0.2037472
vt 0.09532955 0.2035814
vt 0.04280079 0.1350835
vt 0.04280075 0.2620317
vt 0.08145786 0.2620317
vt 0.0953294 0.1350835
vt 0.08683137 0.05143208
vt 0.09996373 0.01045737
vt 0.08683158 0.01045745
vt 0.09996361 0.05204491
vt 0.09532943 0.1350835
vt 0.1083873 0.1759703
vt 0.1085212 0.1513684
vt 0.09532943 0.1766711
vt 0.1158158 0.09297496
vt 0.1486442 0.06014613
vt 0.1158158 0.06014669
vt 0.1486441 0.09297439
vt 0.1650582 0.109389
vt 0.1486441 0.1093885
vt 0.1650582 0.04373254
vt 0.1486441 0.04373198
vt 0.2307148 0.04373287
vt 0.1650582 0.02731845
vt 0.2307148 0.02731879
vt 0.1650582 0.1258032
vt 0.2307148 0.1093894
vt 0.2307148 0.1258035
vt 0.247129 0.04373281
vt 0.2471289 0.1093893
vt 0.2307148 0.04373287
vt 0.1650582 0.109389
vt 0.2307148 0.1093894
vn -1 1.381203E-05 -8.092986E-06
vn -1 1.381203E-05 -8.092986E-06
vn -1 1.381203E-05 -8.092986E-06
vn -1 1.533593E-05 -9.506299E-06
vn -1 -7.327587E-06 -7.224135E-06
vn -1 -8.698347E-06 -3.114406E-06
vn -1 -9.188504E-06 -1.293582E-06
vn -1 -5.47937E-06 -8.138039E-06
vn -1 -5.751257E-06 -8.913755E-07
vn -1 -5.751257E-06 -8.913755E-07
vn -1 -5.751257E-06 -8.913755E-07
vn -1 0 -3.565535E-06
vn 0 1 0
vn 0 1 0
vn 0 1 0
vn -4.882849E-06 1 6.744216E-07
vn 4.882791E-06 -1 9.983479E-07
vn 4.882791E-06 -1 9.983479E-07
vn 4.882791E-06 -1 9.983479E-07
vn 0 -1 0
vn 1 -9.127795E-06 3.565532E-06
vn 1 -9.127795E-06 3.565532E-06
vn 1 -9.127795E-06 3.565532E-06
vn 1 0 3.565538E-06
vn 1 4.563874E-06 4.456911E-06
vn 1 4.563874E-06 4.456911E-06
vn 1 4.563874E-06 4.456911E-06
vn 1 9.127756E-06 3.565531E-06
vn 1 4.563896E-05 -2.674123E-06
vn 1 4.563896E-05 -2.674123E-06
vn 1 4.563896E-05 -2.674123E-06
vn 1 0 -8.022455E-06
vn -1 -1.825557E-05 1.782751E-06
vn -1 -1.825557E-05 1.782751E-06
vn -1 -1.825557E-05 1.782751E-06
vn -1 1.825564E-05 -3.565532E-06
vn -1 -9.338934E-06 -3.662108E-06
vn -0.7070941 -0.0004354326 0.7071193
vn -1 -8.123374E-06 -3.662117E-06
vn -1 8.333316E-06 -7.324244E-06
vn 0.002836927 0.9999959 3.641862E-07
vn 0.002836927 0.9999959 3.641862E-07
vn 0.002836927 0.9999959 3.641862E-07
vn 2.440529E-06 0.9999999 0.0003918335
vn 1 4.166678E-06 4.069025E-06
vn 1 1.004587E-05 3.479115E-06
vn 1 6.506277E-06 5.287568E-06
vn 1 9.446385E-06 3.858151E-06
vn 1 -1.381205E-05 9.458794E-06
vn 1 -1.381205E-05 9.458794E-06
vn 1 -1.381205E-05 9.458794E-06
vn 1 -6.834405E-06 7.415397E-06
vn -1 0 -9.441823E-06
vn -1 0 -9.441823E-06
vn -1 0 -9.441823E-06
vn -1 0 -8.913832E-07
vn -1 0 -8.913832E-07
vn -1 0 -8.913832E-07
vn -1 1.825545E-05 -4.45691E-06
vn 6.103508E-06 -1 -5.704845E-07
vn 6.103508E-06 -1 -5.704845E-07
vn 6.103508E-06 -1 -5.704845E-07
vn 6.103506E-06 -1 -2.852423E-07
vn 0 1 8.557268E-07
vn 0 1 8.557268E-07
vn 0 1 8.557268E-07
vn 0 1 7.844163E-07
vn 0 1 4.456992E-07
vn 0 1 4.456992E-07
vn 0 1 4.456992E-07
vn 0 1 4.45687E-07
vn 5.728168E-07 -1 -4.226582E-07
vn 0 -1 -4.913996E-07
vn 0 -1 -6.981801E-07
vn 9.155324E-07 -1 -1.302094E-07
vn 0 -1 -7.131119E-07
vn 0 -1 -7.131119E-07
vn 0 -1 -7.131119E-07
vn 0 -1 -6.477072E-07
vn -1 -2.98566E-06 -2.013216E-06
vn -1 -3.127335E-05 -7.548226E-06
vn -1 -1.338733E-05 -6.984294E-06
vn -1 -3.333354E-05 -7.324233E-06
vn -1 -1.338733E-05 -6.984294E-06
vn -1 -3.127335E-05 -7.548226E-06
vn -2.441439E-06 1 1.953149E-07
vn -2.441405E-06 1 3.906254E-07
vn -2.441435E-06 1 1.979613E-07
vn 2.659314E-05 0.7070895 0.707124
vn -2.441426E-06 -1 -1.426224E-07
vn -2.441426E-06 -1 -1.426224E-07
vn -2.441426E-06 -1 -1.426224E-07
vn -6.10351E-06 -1 -8.557268E-07
vn 1 -1.825552E-05 3.565527E-06
vn 1 -1.825552E-05 3.565527E-06
vn 1 -1.825552E-05 3.565527E-06
vn 1 -9.127788E-06 3.565529E-06
vn 1 1.825565E-05 3.565557E-06
vn 1 1.825565E-05 3.565557E-06
vn 1 1.825565E-05 3.565557E-06
vn 1 -1.825564E-05 -2.674167E-06
vn -1 -3.651112E-05 7.131043E-06
vn -1 -3.651112E-05 7.131043E-06
vn -1 -3.651112E-05 7.131043E-06
vn -1 0 0
vn 0.7069151 -5.047431E-05 0.7072984
vn 1 0 3.663044E-06
vn 1 0 7.324244E-06
vn 1 0 3.66212E-06
vn -4.272469E-06 1 1.302452E-06
vn -4.272481E-06 1 0
vn -4.272472E-06 1 1.461465E-06
vn -4.272485E-06 1 0
vn 1 0 6.510437E-06
vn 1 2.521043E-05 9.18569E-06
vn 1 5.58691E-06 7.103303E-06
vn 1 2.762413E-05 9.441824E-06
vn -2.136267E-06 1 0
vn -2.136267E-06 1 0
vn -2.136267E-06 1 0
vn 0 1 -3.565528E-07
vn -1 0 -3.565527E-06
vn -1 0 -3.565527E-06
vn -1 0 -3.565527E-06
vn -1 0 -3.565531E-06
vn 0 -1 -9.983479E-07
vn 0 -1 -9.983479E-07
vn 0 -1 -9.983479E-07
vn 0 -1 -8.557346E-07
vn -4.272498E-06 1 7.844233E-07
vn -4.272498E-06 1 7.844233E-07
vn -4.272498E-06 1 7.844233E-07
vn -5.493212E-06 1 9.98357E-07
vn 4.27238E-06 1 9.983296E-07
vn 4.27238E-06 1 9.983296E-07
vn 4.27238E-06 1 9.983296E-07
vn 5.493203E-06 1 7.844233E-07
vn 0 -1 0
vn 5.702563E-06 -1 1.534205E-07
vn 6.417057E-07 -1 1.095182E-07
vn 6.10352E-06 -1 1.975725E-07
vn 0.004760688 -0.9999886 0.0003964817
vn 0.003524988 -0.9999936 0.0005867961
vn 0.002288068 -0.9999974 -1.634222E-05
vn -1.220686E-06 -1 -7.812436E-07
vn -1 -8.123374E-06 -3.662117E-06
vn -1 -6.788212E-07 0
vn -1 -9.338934E-06 -3.662108E-06
vn -1 0 0
vn 0 -1 -4.913996E-07
vn -9.158173E-07 -1 -1.211107E-07
vn 0 -1 -6.981801E-07
vn -1.220707E-06 -1 0
vn -2.441435E-06 1 1.979613E-07
vn -2.441434E-06 1 0
vn -2.441439E-06 1 1.953149E-07
vn -2.44143E-06 1 0
vn 1 0 3.663044E-06
vn 1 0 0
vn 1 0 3.66212E-06
vn 1 0 0
vn 5.702563E-06 -1 1.534205E-07
vn 3.822376E-06 -1 -3.444839E-07
vn 6.10352E-06 -1 1.975725E-07
vn 3.662173E-06 -1 -3.232714E-07
vn 0.002288068 -0.9999974 -1.634222E-05
vn 0.004765327 -0.9999887 -4.73544E-07
vn 0.004760688 -0.9999886 0.0003964817
vn 0.004765654 -0.9999886 -5.068014E-07
vn 1 7.702432E-06 -4.742695E-07
vn 1 8.584752E-06 -4.088265E-07
vn 1 8.724167E-06 -1.935797E-07
vn 1 9.446385E-06 3.858151E-06
vn 1 1.004587E-05 3.479115E-06
vn 1 1.881662E-05 0
vn 1 1.881662E-05 0
vn 1 6.146687E-06 -1.639469E-06
vn 1 3.291758E-06 -1.998685E-06
vn 1 0 -2.412864E-06
vn 1 7.513557E-06 -1.467485E-06
vn -1 -1.53215E-05 -1.513979E-06
vn -1 -1.191595E-05 -1.496066E-06
vn -1 -2.332637E-05 -2.35272E-06
vn -1 -8.698347E-06 -3.114406E-06
vn -1 -1.148109E-05 0
vn -1 -1.148109E-05 0
vn -1 -9.188504E-06 -1.293582E-06
vn -4.272487E-06 1 2.922922E-06
vn -4.272469E-06 1 1.302452E-06
vn -4.272472E-06 1 1.461465E-06
vn 0 1 1.541834E-06
vn -1 -1.338733E-05 -6.984294E-06
vn -1 -1.282099E-05 2.498372E-06
vn -1 -2.98566E-06 -2.013216E-06
vn -1 -1.587845E-05 3.083703E-06
vn -2.539074E-06 -9.154939E-07 1
vn -1.131447E-06 -3.371695E-06 1
vn -3.515633E-06 0 1
vn 0 -8.239772E-06 1
vn -9.375005E-06 -3.052475E-07 1
vn 8.98711E-06 -3.661925E-06 1
vn -1.048534E-05 -6.104512E-07 1
vn -3.906229E-06 0 1
vn -1.02076E-05 -3.528272E-07 1
vn -1.043402E-05 -5.628484E-07 1
vn -1.015628E-05 -3.052244E-07 1
vn -8.765793E-06 -4.004292E-07 1
vn -6.077959E-06 -8.203693E-07 1
vn -5.468748E-06 -9.155509E-07 1
vn 8.726316E-07 1.030322E-06 1
vn 1.367196E-06 0 1
vn -0.7071228 -0.0003764163 0.7070907
vn -3.4862E-05 0.7070895 0.707124
vn 0.7069211 3.634393E-05 0.7072924
g Castle2_07_0
f 3/3/3 2/2/2 1/1/1
f 4/4/4 1/1/1 2/2/2
f 7/7/7 6/6/6 5/5/5
f 8/8/8 5/5/5 6/6/6
f 11/11/11 10/10/10 9/9/9
f 10/10/10 12/12/12 9/9/9
f 15/15/15 14/14/14 13/13/13
f 14/14/14 15/15/15 16/16/16
f 19/19/19 18/18/18 17/17/17
f 18/18/18 19/19/19 20/20/20
f 23/23/23 22/22/22 21/21/21
f 22/22/22 23/23/23 24/24/24
f 27/27/27 26/26/26 25/25/25
f 26/26/26 27/27/27 28/28/28
f 31/31/31 30/30/30 29/29/29
f 30/30/30 31/31/31 32/32/32
f 35/35/35 34/34/34 33/33/33
f 34/34/34 35/35/35 36/36/36
f 39/39/39 38/38/38 37/37/37
f 38/38/38 39/39/39 40/40/40
f 43/43/43 42/42/42 41/41/41
f 42/42/42 43/43/43 44/44/44
f 47/47/47 46/46/46 45/45/45
f 46/46/46 47/47/47 48/48/48
f 51/51/51 50/50/50 49/49/49
f 52/52/52 49/49/49 50/50/50
f 55/55/55 54/54/54 53/53/53
f 58/58/58 57/57/57 56/56/56
f 57/57/57 58/58/58 59/59/59
f 62/62/62 61/61/61 60/60/60
f 61/61/61 62/62/62 63/63/63
f 66/66/66 65/65/65 64/64/64
f 65/65/65 66/66/66 67/67/67
f 70/70/70 69/69/69 68/68/68
f 69/69/69 70/70/70 71/71/71
f 74/74/74 73/73/73 72/72/72
f 75/75/75 72/72/72 73/73/73
f 78/78/78 77/77/77 76/76/76
f 77/77/77 79/79/79 76/76/76
f 82/82/82 81/81/81 80/80/80
f 85/85/85 84/84/84 83/83/83
f 88/88/88 87/87/87 86/86/86
f 87/87/87 88/88/88 89/89/89
f 92/92/92 91/91/91 90/90/90
f 91/91/91 92/92/92 93/93/93
f 96/96/96 95/95/95 94/94/94
f 95/95/95 96/96/96 97/97/97
f 100/100/100 99/99/99 98/98/98
f 99/99/99 100/100/100 101/101/101
f 104/104/104 103/103/103 102/102/102
f 103/103/103 104/104/104 105/105/105
f 108/108/108 107/107/107 106/106/106
f 107/107/107 108/108/108 109/109/109
f 112/112/112 111/111/111 110/110/110
f 111/111/111 112/112/112 113/113/113
f 116/116/116 115/115/115 114/114/114
f 115/115/115 116/116/116 117/117/117
f 120/120/120 119/119/119 118/118/118
f 119/119/119 120/120/120 121/121/121
f 124/124/124 123/123/123 122/122/122
f 123/123/123 124/124/124 125/125/125
f 128/128/128 127/127/127 126/126/126
f 127/127/127 128/128/128 129/129/129
f 132/132/132 131/131/131 130/130/130
f 131/131/131 132/132/132 133/133/133
f 136/136/136 135/135/135 134/134/134
f 135/135/135 136/136/136 137/137/137
f 140/140/140 139/139/139 138/138/138
f 139/139/139 140/140/140 141/141/141
f 144/144/144 143/143/143 142/142/142
f 143/143/143 144/144/144 145/145/145
f 148/148/148 147/147/147 146/146/146
f 149/149/149 146/146/146 147/147/147
f 152/152/152 151/151/151 150/150/150
f 153/153/153 150/150/150 151/151/151
f 156/156/156 155/155/155 154/154/154
f 157/157/157 154/154/154 155/155/155
f 160/160/160 159/159/159 158/158/158
f 161/161/161 158/158/158 159/159/159
f 164/164/164 163/163/163 162/162/162
f 165/165/165 162/162/162 163/163/163
f 168/168/168 167/167/167 166/166/166
f 169/169/169 166/166/166 167/167/167
f 172/172/172 171/171/171 170/170/170
f 170/170/170 171/171/171 173/173/173
f 173/173/173 171/171/171 174/174/174
f 174/174/174 171/171/171 175/175/175
f 175/175/175 171/171/171 176/176/176
f 179/179/179 178/178/178 177/177/177
f 180/180/180 177/177/177 178/178/178
f 183/183/183 182/182/182 181/181/181
f 184/184/184 181/181/181 182/182/182
f 185/185/185 184/184/184 182/182/182
f 186/186/186 185/185/185 182/182/182
f 187/187/187 181/181/181 184/184/184
f 190/190/190 189/189/189 188/188/188
f 191/191/191 188/188/188 189/189/189
f 194/194/194 193/193/193 192/192/192
f 195/195/195 192/192/192 193/193/193
f 198/198/198 197/197/197 196/196/196
f 199/199/199 196/196/196 197/197/197
f 199/199/199 197/197/197 200/200/200
f 201/201/201 199/199/199 200/200/200
f 197/197/197 202/202/202 200/200/200
f 203/203/203 202/202/202 197/197/197
f 202/202/202 205/205/205 204/204/204
f 206/206/206 204/204/204 205/205/205
f 200/200/200 208/208/208 207/207/207
f 209/209/209 207/207/207 208/208/208
f 204/204/204 210/210/210 208/208/208
f 211/211/211 208/208/208 210/210/210
f 213/213/213 202/202/202 212/212/212
f 214/214/214 213/213/213 212/212/212
