g chair
v -0.2942627 0.1925273 0.4420401
v 0.3200147 -0.3194408 0.4420395
v -0.2942639 -0.3194392 0.4420398
v 0.3200147 0.1925262 0.4420398
v 0.3200147 -0.3194408 0.4420395
v -0.2942639 -0.3194392 0.3566122
v -0.2942639 -0.3194392 0.4420398
v 0.3200147 -0.3194408 0.3566119
v 0.3200147 -0.3194408 0.3566119
v 0.3200147 0.1925262 0.4420398
v 0.3200147 0.1925262 0.3566125
v 0.3200147 -0.3194408 0.4420395
v -0.2942627 0.1925273 0.4420401
v 0.3200147 0.1925262 0.3566125
v 0.3200147 0.1925262 0.4420398
v -0.2942627 0.1925273 0.3566125
v -0.2942639 -0.3194392 0.4420398
v -0.2942627 0.1925273 0.3566125
v -0.2942627 0.1925273 0.4420401
v -0.2942639 -0.3194392 0.3566122
v 0.1916528 -0.28242 0.3680896
v 0.2851745 -0.28242 -4.577637E-07
v 0.1916528 -0.28242 -4.577637E-07
v 0.2851745 -0.28242 0.3680896
v 0.2851745 -0.28242 0.3680896
v 0.2851745 -0.1724951 -4.577637E-07
v 0.2851745 -0.28242 -4.577637E-07
v 0.2851745 -0.1724951 0.3680896
v 0.1916528 -0.1724951 -4.577637E-07
v 0.2851745 -0.1724951 0.3680896
v 0.1916528 -0.1724951 0.3680896
v 0.2851745 -0.1724951 -4.577637E-07
v 0.1916528 -0.28242 -4.577637E-07
v 0.1916528 -0.1724951 0.3680896
v 0.1916528 -0.28242 0.3680896
v 0.1916528 -0.1724951 -4.577637E-07
v 0.2851745 0.06784271 0.3680899
v 0.191654 0.06784271 -3.051758E-07
v 0.191654 0.06784271 0.3680899
v 0.2851745 0.06784271 -1.525879E-07
v 0.2851745 0.06784271 0.3680899
v 0.2851733 0.1705972 -3.051758E-07
v 0.2851745 0.06784271 -1.525879E-07
v 0.2851733 0.1705972 0.3680899
v 0.191654 0.1705971 0.3680899
v 0.2851733 0.1705972 -3.051758E-07
v 0.2851733 0.1705972 0.3680899
v 0.191654 0.1705971 -3.051758E-07
v 0.191654 0.1705971 -3.051758E-07
v 0.191654 0.06784271 0.3680899
v 0.191654 0.06784271 -3.051758E-07
v 0.191654 0.1705971 0.3680899
v -0.1697449 0.06784271 0.3680899
v -0.2632739 0.06784271 0
v -0.2632739 0.06784271 0.3680899
v -0.1697461 0.06784378 0
v -0.1697461 0.06784378 0
v -0.1697461 0.1705971 0.3680899
v -0.1697473 0.1705986 0
v -0.1697449 0.06784271 0.3680899
v -0.2632727 0.1705972 0.3680899
v -0.1697473 0.1705986 0
v -0.1697461 0.1705971 0.3680899
v -0.2632727 0.1705986 0
v -0.2632739 0.06784271 0.3680899
v -0.2632727 0.1705986 0
v -0.2632727 0.1705972 0.3680899
v -0.2632739 0.06784271 0
v -0.2632739 -0.28242 0.3680896
v -0.1697485 -0.28242 -3.051758E-07
v -0.2632739 -0.28242 -3.051758E-07
v -0.1697473 -0.28242 0.3680899
v -0.1697473 -0.1724951 0.3680896
v -0.1697485 -0.28242 -3.051758E-07
v -0.1697473 -0.28242 0.3680899
v -0.1697473 -0.172494 -3.051758E-07
v -0.1697473 -0.1724951 0.3680896
v -0.2632739 -0.1724939 -3.051758E-07
v -0.1697473 -0.172494 -3.051758E-07
v -0.2632739 -0.1724939 0.3680899
v -0.2632739 -0.28242 0.3680896
v -0.2632739 -0.1724939 -3.051758E-07
v -0.2632739 -0.1724939 0.3680899
v -0.2632739 -0.28242 -3.051758E-07
vt 0.7260671 0.7070544
vt 0.758919 0.7563321
vt 0.7589188 0.7070546
vt 0.7260672 0.7563322
vt 0.726378 0.7561188
vt 0.7280205 0.7068413
vt 0.726378 0.7068413
vt 0.7280206 0.7561188
vt 0.7280279 0.7737076
vt 0.7263854 0.8065593
vt 0.728028 0.8065594
vt 0.7263853 0.7737077
vt 0.726378 0.8069597
vt 0.7280205 0.757682
vt 0.7263779 0.757682
vt 0.7280205 0.8069597
vt 0.7264388 0.8070768
vt 0.7280812 0.7742251
vt 0.7264387 0.7742251
vt 0.7280813 0.8070768
vt 0.7274329 0.7510494
vt 0.749015 0.7543343
vt 0.7490152 0.7510493
vt 0.7274329 0.7543346
vt 0.7274402 0.7756035
vt 0.7490224 0.7788884
vt 0.7490225 0.7756036
vt 0.7274403 0.7788886
vt 0.749015 0.7627515
vt 0.7274328 0.7594664
vt 0.7274329 0.7627515
vt 0.749015 0.7594662
vt 0.7490759 0.8051812
vt 0.7274936 0.8018957
vt 0.7274936 0.805181
vt 0.7490757 0.8018958
vt 0.7274329 0.7543346
vt 0.7490152 0.7510493
vt 0.7274329 0.7510494
vt 0.749015 0.7543343
vt 0.7274402 0.8021512
vt 0.7490224 0.8054363
vt 0.7490225 0.8021511
vt 0.7274402 0.8054363
vt 0.7274329 0.7627515
vt 0.749015 0.7594662
vt 0.7274328 0.7594664
vt 0.749015 0.7627515
vt 0.7490759 0.7753479
vt 0.7274936 0.7786332
vt 0.7490759 0.7786332
vt 0.7274936 0.7753479
vt 0.7274328 0.7117133
vt 0.749015 0.7084279
vt 0.7274329 0.7084282
vt 0.7490151 0.7117133
vt 0.7490225 0.8021511
vt 0.7274402 0.8054363
vt 0.7490224 0.8054363
vt 0.7274402 0.8021512
vt 0.7274329 0.8053727
vt 0.749015 0.8020877
vt 0.7274329 0.8020876
vt 0.749015 0.8053727
vt 0.7274936 0.7786332
vt 0.7490759 0.7753479
vt 0.7274936 0.7753479
vt 0.7490759 0.7786332
vt 0.7274329 0.7084282
vt 0.7490151 0.7117133
vt 0.749015 0.7084279
vt 0.7274328 0.7117133
vt 0.7274403 0.7788886
vt 0.7490225 0.7756036
vt 0.7274402 0.7756035
vt 0.7490224 0.7788884
vt 0.7274329 0.8020876
vt 0.749015 0.8053727
vt 0.749015 0.8020877
vt 0.7274329 0.8053727
vt 0.7274936 0.805181
vt 0.7490757 0.8018958
vt 0.7274936 0.8018957
vt 0.7490759 0.8051812
vn 4.968027E-07 -5.960857E-07 1
vn 4.968028E-07 -5.960856E-07 1
vn 4.968021E-07 -5.960866E-07 1
vn 4.968035E-07 -5.960849E-07 1
vn -2.484018E-06 -1 0
vn -2.484018E-06 -1 0
vn -2.484018E-06 -1 0
vn -2.484018E-06 -1 0
vn 1 0 0
vn 1 0 0
vn 1 0 0
vn 1 0 0
vn 1.738816E-06 1 0
vn 1.738816E-06 1 0
vn 1.738816E-06 1 0
vn 1.738816E-06 1 0
vn -1 2.384341E-06 0
vn -1 2.384341E-06 0
vn -1 2.384341E-06 0
vn -1 2.384341E-06 0
vn 0 -1 0
vn 0 -1 0
vn 0 -1 0
vn 0 -1 0
vn 1 0 0
vn 1 0 0
vn 1 0 0
vn 1 0 0
vn 0 1 0
vn 0 1 0
vn 0 1 0
vn 0 1 0
vn -1 0 0
vn -1 0 0
vn -1 0 0
vn -1 0 0
vn 0 -1 0
vn 0 -1 0
vn 0 -1 0
vn 0 -1 0
vn 1 1.18798E-05 0
vn 1 1.18798E-05 0
vn 1 1.18798E-05 0
vn 1 1.18798E-05 0
vn -1.631619E-06 1 0
vn -1.631619E-06 1 0
vn -1.631619E-06 1 0
vn -1.631619E-06 1 0
vn -1 0 0
vn -1 0 0
vn -1 0 0
vn -1 0 0
vn 0 -1 0
vn 0 -1 0
vn 0 -1 0
vn 1.142029E-05 -1 -2.901816E-06
vn 1 1.187977E-05 -3.316271E-06
vn 1 1.187981E-05 -3.316281E-06
vn 1 1.187977E-05 -3.316268E-06
vn 1 1.187982E-05 -3.316283E-06
vn 1.631492E-06 1 4.145392E-06
vn 1.631492E-06 1 4.145392E-06
vn 1.631492E-06 1 4.145392E-06
vn 0 1 3.730858E-06
vn -1 1.187977E-05 0
vn -1 1.187967E-05 0
vn -1 1.18798E-05 0
vn -1 1.187964E-05 0
vn 0 -1 0
vn 0 -1 0
vn 0 -1 0
vn 0 -1 0
vn 1 0 -3.316315E-06
vn 1 0 -3.316315E-06
vn 1 0 -3.316315E-06
vn 1 -1.110477E-05 0
vn 1.631492E-06 1 2.901778E-06
vn 1.631492E-06 1 2.901778E-06
vn 1.631492E-06 1 2.901778E-06
vn 1.305193E-05 1 0
vn -1 0 0
vn -1 0 0
vn -1 0 0
vn -1 0 0
g chair_0
f 3/3/3 2/2/2 1/1/1
f 4/4/4 1/1/1 2/2/2
f 7/7/7 6/6/6 5/5/5
f 8/8/8 5/5/5 6/6/6
f 11/11/11 10/10/10 9/9/9
f 12/12/12 9/9/9 10/10/10
f 15/15/15 14/14/14 13/13/13
f 16/16/16 13/13/13 14/14/14
f 19/19/19 18/18/18 17/17/17
f 20/20/20 17/17/17 18/18/18
f 23/23/23 22/22/22 21/21/21
f 24/24/24 21/21/21 22/22/22
f 27/27/27 26/26/26 25/25/25
f 28/28/28 25/25/25 26/26/26
f 31/31/31 30/30/30 29/29/29
f 32/32/32 29/29/29 30/30/30
f 35/35/35 34/34/34 33/33/33
f 36/36/36 33/33/33 34/34/34
f 39/39/39 38/38/38 37/37/37
f 40/40/40 37/37/37 38/38/38
f 43/43/43 42/42/42 41/41/41
f 44/44/44 41/41/41 42/42/42
f 47/47/47 46/46/46 45/45/45
f 48/48/48 45/45/45 46/46/46
f 51/51/51 50/50/50 49/49/49
f 52/52/52 49/49/49 50/50/50
f 55/55/55 54/54/54 53/53/53
f 56/56/56 53/53/53 54/54/54
f 59/59/59 58/58/58 57/57/57
f 60/60/60 57/57/57 58/58/58
f 63/63/63 62/62/62 61/61/61
f 64/64/64 61/61/61 62/62/62
f 67/67/67 66/66/66 65/65/65
f 68/68/68 65/65/65 66/66/66
f 71/71/71 70/70/70 69/69/69
f 72/72/72 69/69/69 70/70/70
f 75/75/75 74/74/74 73/73/73
f 76/76/76 73/73/73 74/74/74
f 79/79/79 78/78/78 77/77/77
f 80/80/80 77/77/77 78/78/78
f 83/83/83 82/82/82 81/81/81
f 84/84/84 81/81/81 82/82/82
