g Christmas_Dinner_TV
v -25.79809 76.56066 20.97414
v -26.46457 76.6031 20.48904
v 29.53543 76.6031 20.48904
v 28.86894 76.56066 20.97414
v 28.86894 73.15931 59.85172
v 29.53543 73.11687 60.33683
v -26.46457 73.11687 60.33683
v -25.79809 73.15931 59.85172
v 28.86894 76.56066 20.97414
v 29.53543 76.6031 20.48904
v 29.53543 73.11687 60.33683
v 28.86894 73.15931 59.85172
v 28.86894 77.55685 21.06129
v 28.86894 74.1555 59.93888
v -25.79809 74.1555 59.93888
v -25.79809 77.55685 21.06129
v -26.46457 76.6031 20.48904
v -25.79809 76.56066 20.97414
v -25.79809 73.15931 59.85172
v -26.46457 73.11687 60.33683
v -26.46457 75.6069 20.40188
v -24.46457 75.25829 24.38666
v 27.53543 75.25829 24.38666
v 29.53543 75.6069 20.40188
v 27.53543 72.29498 58.25728
v 29.53543 72.12067 60.24967
v -24.46457 72.29498 58.25728
v -26.46457 72.12067 60.24967
v -24.46457 75.25829 24.38666
v -24.46457 75.75638 24.43024
v 27.53543 75.75638 24.43024
v 27.53543 75.25829 24.38666
v 27.53543 75.25829 24.38666
v 27.53543 75.75638 24.43024
v 27.53543 72.79308 58.30086
v 27.53543 72.29498 58.25728
v 27.53543 72.29498 58.25728
v 27.53543 72.79308 58.30086
v -24.46457 72.79308 58.30086
v -24.46457 72.29498 58.25728
v -24.46457 72.29498 58.25728
v -24.46457 72.79308 58.30086
v -24.46457 75.75638 24.43024
v -24.46457 75.25829 24.38666
v -24.46457 75.75638 24.43024
v -23.46457 75.66922 25.42643
v 26.53543 75.66922 25.42643
v 27.53543 75.75638 24.43024
v 26.53543 72.88024 57.30466
v 27.53543 72.79308 58.30086
v -23.46457 72.88024 57.30466
v -24.46457 72.79308 58.30086
v -23.46457 75.66922 25.42643
v -23.46457 76.16732 25.47001
v 26.53543 76.16732 25.47001
v 26.53543 75.66922 25.42643
v 26.53543 75.66922 25.42643
v 26.53543 76.16732 25.47001
v 26.53543 73.37833 57.34824
v 26.53543 72.88024 57.30466
v 26.53543 72.88024 57.30466
v 26.53543 73.37833 57.34824
v -23.46457 73.37833 57.34824
v -23.46457 72.88024 57.30466
v -23.46457 72.88024 57.30466
v -23.46457 73.37833 57.34824
v -23.46457 76.16732 25.47001
v -23.46457 75.66922 25.42643
v -25.79809 77.55685 21.06129
v -25.79809 76.56066 20.97414
v 28.86894 76.56066 20.97414
v 28.86894 77.55685 21.06129
v 29.53543 75.6069 20.40188
v 29.53543 76.6031 20.48904
v -26.46457 76.6031 20.48904
v -26.46457 75.6069 20.40188
v 28.86894 74.1555 59.93888
v 28.86894 73.15931 59.85172
v -25.79809 73.15931 59.85172
v -25.79809 74.1555 59.93888
v -26.46457 72.12067 60.24967
v -26.46457 73.11687 60.33683
v 29.53543 73.11687 60.33683
v 29.53543 72.12067 60.24967
v 28.86894 77.55685 21.06129
v 28.86894 76.56066 20.97414
v 28.86894 73.15931 59.85172
v 28.86894 74.1555 59.93888
v 29.53543 72.12067 60.24967
v 29.53543 73.11687 60.33683
v 29.53543 76.6031 20.48904
v 29.53543 75.6069 20.40188
v -26.46457 75.6069 20.40188
v -26.46457 76.6031 20.48904
v -26.46457 73.11687 60.33683
v -26.46457 72.12067 60.24967
v -25.79809 74.1555 59.93888
v -25.79809 73.15931 59.85172
v -25.79809 76.56066 20.97414
v -25.79809 77.55685 21.06129
v -8.464575 76.29415 32.39145
v 11.53543 76.29415 32.39145
v 11.53543 80.27893 32.74007
v -8.464575 80.27893 32.74007
v -8.464575 75.07397 46.33817
v -8.464575 79.05875 46.6868
v 11.53543 79.05875 46.6868
v 11.53543 75.07397 46.33817
v 11.53543 76.29415 32.39145
v 11.53543 75.07397 46.33817
v 11.53543 79.05875 46.6868
v 11.53543 80.27893 32.74007
v 11.53543 80.27893 32.74007
v 11.53543 79.05875 46.6868
v -8.464575 79.05875 46.6868
v -8.464575 80.27893 32.74007
v -8.464575 80.27893 32.74007
v -8.464575 79.05875 46.6868
v -8.464575 75.07397 46.33817
v -8.464575 76.29415 32.39145
vt 0.96875 0.859375
vt 0.96875 0.859375
vt 0.921875 0.859375
vt 0.921875 0.859375
vt 0.921875 0.890625
vt 0.921875 0.890625
vt 0.96875 0.890625
vt 0.96875 0.890625
vt 0.921875 0.859375
vt 0.921875 0.859375
vt 0.921875 0.890625
vt 0.921875 0.890625
vt 0.921875 0.859375
vt 0.921875 0.890625
vt 0.96875 0.890625
vt 0.96875 0.859375
vt 0.96875 0.859375
vt 0.96875 0.859375
vt 0.96875 0.890625
vt 0.96875 0.890625
vt 0.03125 0.296875
vt 0.0625 0.359375
vt 0.875 0.359375
vt 0.90625 0.296875
vt 0.875 0.890625
vt 0.90625 0.921875
vt 0.0625 0.890625
vt 0.03125 0.921875
vt 0.0625 0.9375
vt 0.0625 0.953125
vt 0.875 0.953125
vt 0.875 0.9375
vt 0.921875 0.359375
vt 0.9375 0.359375
vt 0.9375 0.890625
vt 0.921875 0.890625
vt 0.875 0.9375
vt 0.875 0.953125
vt 0.0625 0.953125
vt 0.0625 0.9375
vt 0.921875 0.890625
vt 0.9375 0.890625
vt 0.9375 0.359375
vt 0.921875 0.359375
vt 0.0625 0.359375
vt 0.078125 0.375
vt 0.859375 0.375
vt 0.875 0.359375
vt 0.859375 0.875
vt 0.875 0.890625
vt 0.078125 0.875
vt 0.0625 0.890625
vt 0.078125 0.953125
vt 0.078125 0.953125
vt 0.859375 0.953125
vt 0.859375 0.953125
vt 0.9375 0.375
vt 0.9375 0.375
vt 0.9375 0.875
vt 0.9375 0.875
vt 0.859375 0.953125
vt 0.859375 0.953125
vt 0.078125 0.953125
vt 0.078125 0.953125
vt 0.9375 0.875
vt 0.9375 0.875
vt 0.9375 0.375
vt 0.9375 0.375
vt 0.046875 0.953125
vt 0.046875 0.9375
vt 0.90625 0.9375
vt 0.90625 0.953125
vt 0.90625 0.9375
vt 0.90625 0.953125
vt 0.03125 0.953125
vt 0.03125 0.9375
vt 0.90625 0.953125
vt 0.90625 0.9375
vt 0.046875 0.9375
vt 0.046875 0.953125
vt 0.03125 0.9375
vt 0.03125 0.953125
vt 0.90625 0.953125
vt 0.90625 0.9375
vt 0.9375 0.296875
vt 0.921875 0.296875
vt 0.921875 0.90625
vt 0.9375 0.90625
vt 0.921875 0.921875
vt 0.9375 0.921875
vt 0.9375 0.296875
vt 0.921875 0.296875
vt 0.921875 0.296875
vt 0.9375 0.296875
vt 0.9375 0.921875
vt 0.921875 0.921875
vt 0.9375 0.90625
vt 0.921875 0.90625
vt 0.921875 0.296875
vt 0.9375 0.296875
vt 0.265625 0.15625
vt 0.578125 0.15625
vt 0.578125 0.21875
vt 0.265625 0.21875
vt 0.265625 0.15625
vt 0.265625 0.21875
vt 0.578125 0.21875
vt 0.578125 0.15625
vt 0.484375 0.15625
vt 0.265625 0.15625
vt 0.265625 0.21875
vt 0.484375 0.21875
vt 0.9375 0.859375
vt 0.9375 0.875
vt 0.953125 0.875
vt 0.953125 0.859375
vt 0.484375 0.21875
vt 0.265625 0.21875
vt 0.265625 0.15625
vt 0.484375 0.15625
vn 0 0.8779976 -0.4786651
vn 0 0.447061 -0.8945035
vn 0 0.447061 -0.8945035
vn 0 0.8779976 -0.4786651
vn 0 0.8087031 0.5882171
vn 0 0.3044158 0.9525392
vn 0 0.3044158 0.9525392
vn 0 0.8087031 0.5882171
vn 0.5986789 0.7987472 0.05988697
vn 0.8431039 0.536382 0.03834024
vn 0.8431101 0.5363859 0.03814978
vn 0.5617009 0.8239551 0.0747663
vn 0 0.9970567 0.07666733
vn 0 0.9970567 0.07666733
vn 0 0.9970567 0.07666733
vn 0 0.9970567 0.07666733
vn -0.8431039 0.536382 0.03834024
vn -0.5986789 0.7987472 0.05988697
vn -0.5617009 0.8239551 0.0747663
vn -0.8431101 0.5363859 0.03814978
vn 0 -0.9970567 -0.07666733
vn 0 -0.9974509 -0.07135551
vn 0 -0.9974509 -0.07135551
vn 0 -0.9970567 -0.07666733
vn 0 -0.993429 -0.1144503
vn 0 -0.9970567 -0.07666733
vn 0 -0.993429 -0.1144503
vn 0 -0.9970567 -0.07666733
vn 0 -0.1518278 0.988407
vn 0 -0.07706115 0.9970264
vn 0 -0.07706115 0.9970264
vn 0 -0.1518278 0.988407
vn -1 0 0
vn -1 0 0
vn -1 0 0
vn -1 0 0
vn 0 0.1464934 -0.9892117
vn 0 0.0770465 -0.9970275
vn 0 0.0770465 -0.9970275
vn 0 0.1464934 -0.9892117
vn 1 0 0
vn 1 0 0
vn 1 0 0
vn 1 0 0
vn 0 -0.9954076 -0.09572694
vn 0 -0.9954076 -0.09572694
vn 0 -0.9954076 -0.09572694
vn 0 -0.9954076 -0.09572694
vn 0 -0.9970567 -0.07666733
vn 0 -0.9970567 -0.07666733
vn 0 -0.9970567 -0.07666733
vn 0 -0.9970567 -0.07666733
vn 0 -0.07706115 0.9970264
vn 0 -0.07706115 0.9970264
vn 0 -0.07706115 0.9970264
vn 0 -0.07706115 0.9970264
vn -1 0 0
vn -1 0 0
vn -1 0 0
vn -1 0 0
vn 0 0.0770465 -0.9970275
vn 0 0.07401222 -0.9972574
vn 0 0.07401222 -0.9972574
vn 0 0.0770465 -0.9970275
vn 1 0 0
vn 1 0 0
vn 1 0 0
vn 1 0 0
vn 0 0.07706115 -0.9970264
vn 0 0.8779976 -0.4786651
vn 0 0.8779976 -0.4786651
vn 0 0.07706115 -0.9970264
vn 0 0.07706115 -0.9970264
vn 0 0.447061 -0.8945035
vn 0 0.447061 -0.8945035
vn 0 0.07706115 -0.9970264
vn 0 -0.0770465 0.9970275
vn 0 0.8087031 0.5882171
vn 0 0.8087031 0.5882171
vn 0 -0.0770465 0.9970275
vn 0 -0.0770465 0.9970275
vn 0 0.3044158 0.9525392
vn 0 0.3044158 0.9525392
vn 0 -0.0770465 0.9970275
vn 1 0 0
vn 0.5986789 0.7987472 0.05988697
vn 0.5617009 0.8239551 0.0747663
vn 1 0 0
vn 1 0 0
vn 0.8431101 0.5363859 0.03814978
vn 0.8431039 0.536382 0.03834024
vn 1 0 0
vn -1 0 0
vn -0.8431039 0.536382 0.03834024
vn -0.8431101 0.5363859 0.03814978
vn -1 0 0
vn -1 0 0
vn -0.5617009 0.8239551 0.0747663
vn -0.5986789 0.7987472 0.05988697
vn -1 0 0
vn 0 0.1464934 -0.9892117
vn 0 0.1464934 -0.9892117
vn 0 0.1518278 -0.988407
vn 0 0.1518278 -0.988407
vn 0 -0.0770465 0.9970275
vn 0 -0.0770465 0.9970275
vn 0 -0.0770465 0.9970275
vn 0 -0.0770465 0.9970275
vn 1 0 0
vn 1 0 0
vn 1 0 0
vn 1 0 0
vn 0 0.9970567 0.07666733
vn 0 0.9970567 0.07666733
vn 0 0.9970567 0.07666733
vn 0 0.9970567 0.07666733
vn -1 0 0
vn -1 0 0
vn -1 0 0
vn -1 0 0
g Christmas_Dinner_TV_0
f 3/3/3 2/2/2 1/1/1
f 4/4/4 3/3/3 1/1/1
f 7/7/7 6/6/6 5/5/5
f 8/8/8 7/7/7 5/5/5
f 11/11/11 10/10/10 9/9/9
f 12/12/12 11/11/11 9/9/9
f 15/15/15 14/14/14 13/13/13
f 16/16/16 15/15/15 13/13/13
f 19/19/19 18/18/18 17/17/17
f 20/20/20 19/19/19 17/17/17
f 23/23/23 22/22/22 21/21/21
f 24/24/24 23/23/23 21/21/21
f 25/25/25 23/23/23 24/24/24
f 26/26/26 25/25/25 24/24/24
f 27/27/27 25/25/25 26/26/26
f 28/28/28 27/27/27 26/26/26
f 22/22/22 27/27/27 28/28/28
f 21/21/21 22/22/22 28/28/28
f 31/31/31 30/30/30 29/29/29
f 32/32/32 31/31/31 29/29/29
f 35/35/35 34/34/34 33/33/33
f 36/36/36 35/35/35 33/33/33
f 39/39/39 38/38/38 37/37/37
f 40/40/40 39/39/39 37/37/37
f 43/43/43 42/42/42 41/41/41
f 44/44/44 43/43/43 41/41/41
f 47/47/47 46/46/46 45/45/45
f 48/48/48 47/47/47 45/45/45
f 49/49/49 47/47/47 48/48/48
f 50/50/50 49/49/49 48/48/48
f 51/51/51 49/49/49 50/50/50
f 52/52/52 51/51/51 50/50/50
f 46/46/46 51/51/51 52/52/52
f 45/45/45 46/46/46 52/52/52
f 55/55/55 54/54/54 53/53/53
f 56/56/56 55/55/55 53/53/53
f 59/59/59 58/58/58 57/57/57
f 60/60/60 59/59/59 57/57/57
f 63/63/63 62/62/62 61/61/61
f 64/64/64 63/63/63 61/61/61
f 67/67/67 66/66/66 65/65/65
f 68/68/68 67/67/67 65/65/65
f 71/71/71 70/70/70 69/69/69
f 72/72/72 71/71/71 69/69/69
f 75/75/75 74/74/74 73/73/73
f 76/76/76 75/75/75 73/73/73
f 79/79/79 78/78/78 77/77/77
f 80/80/80 79/79/79 77/77/77
f 83/83/83 82/82/82 81/81/81
f 84/84/84 83/83/83 81/81/81
f 87/87/87 86/86/86 85/85/85
f 88/88/88 87/87/87 85/85/85
f 91/91/91 90/90/90 89/89/89
f 92/92/92 91/91/91 89/89/89
f 95/95/95 94/94/94 93/93/93
f 96/96/96 95/95/95 93/93/93
f 99/99/99 98/98/98 97/97/97
f 100/100/100 99/99/99 97/97/97
f 103/103/103 102/102/102 101/101/101
f 104/104/104 103/103/103 101/101/101
f 107/107/107 106/106/106 105/105/105
f 108/108/108 107/107/107 105/105/105
f 111/111/111 110/110/110 109/109/109
f 112/112/112 111/111/111 109/109/109
f 115/115/115 114/114/114 113/113/113
f 116/116/116 115/115/115 113/113/113
f 119/119/119 118/118/118 117/117/117
f 120/120/120 119/119/119 117/117/117
