g Christmas_Dinner2_pic_Pr1
v -8.950742 -68.99134 -12.55788
v 5.720235 -68.99133 -12.55787
v -7.046783 -69.44816 -10.85302
v -7.046783 -72.4006 0.1653171
v -8.950745 -72.90942 2.064223
v 3.774257 -72.40059 0.165319
v 5.720235 -72.90941 2.064232
v 3.774257 -69.44819 -10.85302
v 3.774254 -70.19327 -11.05267
v -7.046785 -73.14563 -0.03431559
v -7.046786 -70.19325 -11.05267
v 3.774254 -73.14565 -0.03431749
v 5.720235 -68.99133 -12.55787
v -8.950768 -69.8317 -12.78306
v 5.720232 -69.83173 -12.78307
v -8.950742 -68.99134 -12.55788
v -8.950742 -68.99134 -12.55788
v -8.950746 -73.74978 1.839036
v -8.950768 -69.8317 -12.78306
v -8.950745 -72.90942 2.064223
v 5.720235 -72.90941 2.064232
v -8.950746 -73.74978 1.839036
v -8.950745 -72.90942 2.064223
v 5.72023 -73.7498 1.839035
v 5.720235 -68.99133 -12.55787
v 5.72023 -73.7498 1.839035
v 5.720235 -72.90941 2.064232
v 5.720232 -69.83173 -12.78307
v 3.774257 -72.40059 0.165319
v 3.774254 -70.19327 -11.05267
v 3.774257 -69.44819 -10.85302
v 3.774254 -73.14565 -0.03431749
v 3.774257 -72.40059 0.165319
v -7.046785 -73.14563 -0.03431559
v 3.774254 -73.14565 -0.03431749
v -7.046783 -72.4006 0.1653171
v -7.046783 -69.44816 -10.85302
v -7.046785 -73.14563 -0.03431559
v -7.046783 -72.4006 0.1653171
v -7.046786 -70.19325 -11.05267
v -7.046786 -70.19325 -11.05267
v 3.774257 -69.44819 -10.85302
v 3.774254 -70.19327 -11.05267
v -7.046783 -69.44816 -10.85302
v -0.05808925 -74.15976 -13.19666
v -0.05808924 -71.59825 -5.96603
v -0.05808925 -71.01082 -8.373903
v -0.05808924 -76.52519 -13.8327
v -0.4684164 -74.15974 -13.19666
v -0.4684164 -71.0108 -8.373903
v -0.4684164 -71.59824 -5.96603
v -0.4684164 -76.52516 -13.83269
vt 0.5458984 0.6269531
vt 0.5087891 0.6269531
vt 0.5410156 0.6318359
vt 0.5410156 0.6591797
vt 0.5458984 0.6640625
vt 0.5136719 0.6591797
vt 0.5087891 0.6640625
vt 0.5136719 0.6318359
vt 0.5136719 0.6318359
vt 0.5410156 0.6591797
vt 0.5410156 0.6318359
vt 0.5136719 0.6591797
vt 0.5097656 0.6630859
vt 0.5458984 0.6611328
vt 0.5097656 0.6611328
vt 0.5458984 0.6630859
vt 0.5410156 0.6259766
vt 0.5429688 0.6640625
vt 0.5429688 0.6259766
vt 0.5410156 0.6640625
vt 0.5458984 0.6630859
vt 0.5097656 0.6611328
vt 0.5097656 0.6630859
vt 0.5458984 0.6611328
vt 0.5429688 0.6259766
vt 0.5410156 0.6640625
vt 0.5429688 0.6640625
vt 0.5410156 0.6259766
vt 0.5136719 0.6308594
vt 0.5117188 0.6591797
vt 0.5136719 0.6591797
vt 0.5117188 0.6308594
vt 0.5136719 0.6318359
vt 0.5400391 0.6298828
vt 0.5136719 0.6298828
vt 0.5400391 0.6318359
vt 0.5136719 0.6308594
vt 0.5117188 0.6591797
vt 0.5136719 0.6591797
vt 0.5117188 0.6308594
vt 0.5136719 0.6298828
vt 0.5400391 0.6318359
vt 0.5400391 0.6298828
vt 0.5136719 0.6318359
vt 0.5136719 0.6425781
vt 0.5087891 0.6611328
vt 0.5136719 0.6572266
vt 0.5087891 0.6386719
vt 0.5126953 0.6425781
vt 0.5136719 0.6572266
vt 0.5087891 0.6611328
vt 0.5087891 0.6386719
vn -2.517058E-06 0.9659246 0.2588235
vn -7.309462E-06 0.9659224 0.2588319
vn -3.458955E-06 0.9659245 0.2588242
vn 2.413051E-06 0.9659254 0.2588208
vn 2.794613E-06 0.9659253 0.2588212
vn -7.573138E-07 0.9659249 0.2588225
vn -2.065399E-06 0.9659249 0.2588229
vn -5.814019E-06 0.9659216 0.2588347
vn 1.329617E-06 0.9659254 0.2588206
vn 1.331149E-06 0.9659254 0.2588206
vn 1.307573E-06 0.9659254 0.2588206
vn 1.353193E-06 0.9659254 0.2588207
vn 2.681718E-07 0.258828 -0.9659234
vn 2.310439E-07 0.2588286 -0.9659232
vn 2.69686E-07 0.258828 -0.9659234
vn 2.295297E-07 0.2588286 -0.9659232
vn -1 2.776309E-05 8.879432E-06
vn -1 2.407235E-06 4.988717E-07
vn -1 2.876288E-05 9.209879E-06
vn -1 1.407453E-06 1.68426E-07
vn -2.62549E-07 -0.2588349 0.9659216
vn -4.680625E-07 -0.2588315 0.9659225
vn -4.764445E-07 -0.2588313 0.9659225
vn -2.54167E-07 -0.258835 0.9659215
vn 1 -4.145758E-06 -9.887046E-07
vn 1 -5.382594E-06 -1.397504E-06
vn 1 -5.431364E-06 -1.413623E-06
vn 1 -4.096989E-06 -9.72585E-07
vn -1 4.193999E-06 1.09728E-06
vn -1 3.83824E-06 1.027278E-06
vn -1 3.821511E-06 1.023987E-06
vn -1 4.210729E-06 1.100572E-06
vn 1.635897E-07 0.2588191 -0.9659257
vn -1.635958E-07 0.2588236 -0.9659246
vn 1.798881E-07 0.2588189 -0.9659258
vn -1.798949E-07 0.2588238 -0.9659245
vn 1 -3.729243E-06 -1.105281E-06
vn 1 -2.357572E-06 -6.3649E-07
vn 1 -2.293068E-06 -6.144446E-07
vn 1 -3.793744E-06 -1.127325E-06
vn -5.808225E-07 -0.2588179 0.9659261
vn -3.613023E-07 -0.258821 0.9659254
vn -3.50366E-07 -0.2588211 0.9659253
vn -5.917586E-07 -0.2588178 0.9659262
vn 1 0 0
vn 1 0 0
vn 1 0 0
vn 1 0 0
vn -1 0 0
vn -1 0 0
vn -1 0 0
vn -1 0 0
g Christmas_Dinner2_pic_Pr1_0
f 3/3/3 2/2/2 1/1/1
f 4/4/4 3/3/3 1/1/1
f 5/5/5 4/4/4 1/1/1
f 4/4/4 5/5/5 6/6/6
f 5/5/5 7/7/7 6/6/6
f 6/6/6 7/7/7 8/8/8
f 7/7/7 2/2/2 8/8/8
f 8/8/8 2/2/2 3/3/3
f 11/11/11 10/10/10 9/9/9
f 12/12/12 9/9/9 10/10/10
f 15/15/15 14/14/14 13/13/13
f 16/16/16 13/13/13 14/14/14
f 19/19/19 18/18/18 17/17/17
f 20/20/20 17/17/17 18/18/18
f 23/23/23 22/22/22 21/21/21
f 24/24/24 21/21/21 22/22/22
f 27/27/27 26/26/26 25/25/25
f 28/28/28 25/25/25 26/26/26
f 31/31/31 30/30/30 29/29/29
f 32/32/32 29/29/29 30/30/30
f 35/35/35 34/34/34 33/33/33
f 36/36/36 33/33/33 34/34/34
f 39/39/39 38/38/38 37/37/37
f 40/40/40 37/37/37 38/38/38
f 43/43/43 42/42/42 41/41/41
f 44/44/44 41/41/41 42/42/42
f 47/47/47 46/46/46 45/45/45
f 46/46/46 48/48/48 45/45/45
f 51/51/51 50/50/50 49/49/49
f 52/52/52 51/51/51 49/49/49
