g Christmas_Dinner2_present_1
v -20.17082 -16.94803 3.677596
v -20.17082 -22.15067 2.352432
v -20.17082 -22.15067 3.677596
v -20.17082 -16.94803 2.352431
v -25.37346 -16.94803 3.677596
v -20.17082 -16.94803 2.352431
v -20.17082 -16.94803 3.677596
v -25.37346 -16.94803 2.352431
v -20.17082 -22.15067 2.352432
v -25.37346 -22.15067 3.677596
v -20.17082 -22.15067 3.677596
v -25.37346 -22.15067 2.352432
v -25.37346 -22.15067 2.352432
v -25.37346 -16.94803 3.677596
v -25.37346 -22.15067 3.677596
v -25.37346 -16.94803 2.352431
v -20.17082 -22.15067 3.677596
v -25.37346 -16.94803 3.677596
v -20.17082 -16.94803 3.677596
v -25.37346 -22.15067 3.677596
v -20.17082 -22.15067 2.352432
v -25.37346 -16.94803 2.352431
v -25.37346 -22.15067 2.352432
v -20.17082 -16.94803 2.352431
v -25.12346 -17.20979 8.468628E-06
v -20.42082 -17.20979 3.352431
v -25.12346 -17.20979 3.352432
v -20.42082 -17.20979 8.31604E-06
v -20.42082 -21.91243 8.087158E-06
v -25.12346 -21.91243 3.352432
v -20.42083 -21.91243 3.352431
v -25.12346 -21.91243 8.392334E-06
v -25.12346 -21.91243 8.392334E-06
v -25.12346 -17.20979 3.352432
v -25.12346 -21.91243 3.352432
v -25.12346 -17.20979 8.468628E-06
v -20.42082 -21.91243 8.087158E-06
v -25.12346 -17.20979 8.468628E-06
v -25.12346 -21.91243 8.392334E-06
v -20.42082 -17.20979 8.31604E-06
v -20.42082 -17.20979 8.31604E-06
v -20.42083 -21.91243 3.352431
v -20.42082 -17.20979 3.352431
v -20.42082 -21.91243 8.087158E-06
v -18.27179 -17.5 8.69751E-06
v -20.24339 -20.5 8.69751E-06
v -18.27179 -20.5 8.69751E-06
v -20.24339 -17.5 8.69751E-06
v -18.27179 -17.5 1.500008
v -20.24339 -20.5 1.500008
v -20.24339 -17.5 1.500008
v -18.27179 -20.5 1.500008
v -18.27179 -20.5 1.500008
v -20.24339 -20.5 8.69751E-06
v -20.24339 -20.5 1.500008
v -18.27179 -20.5 8.69751E-06
v -18.27179 -17.5 1.500008
v -18.27179 -20.5 8.69751E-06
v -18.27179 -20.5 1.500008
v -18.27179 -17.5 8.69751E-06
v -20.24339 -17.5 1.500008
v -18.27179 -17.5 8.69751E-06
v -18.27179 -17.5 1.500008
v -20.24339 -17.5 8.69751E-06
v -20.24339 -20.5 1.500008
v -20.24339 -17.5 8.69751E-06
v -20.24339 -17.5 1.500008
v -20.24339 -20.5 8.69751E-06
v -18.60406 -18.68852 1.500008
v -20.08276 -20.18852 1.500009
v -18.60406 -20.18851 1.500009
v -20.08276 -18.68852 1.500008
v -20.08276 -18.68852 2.500008
v -18.60406 -20.18851 2.500009
v -20.08276 -20.18852 2.500009
v -18.60406 -18.68852 2.500009
v -20.08276 -20.18852 2.500009
v -18.60406 -20.18851 1.500009
v -20.08276 -20.18852 1.500009
v -18.60406 -20.18851 2.500009
v -18.60406 -18.68852 1.500008
v -20.08276 -18.68852 2.500008
v -20.08276 -18.68852 1.500008
v -18.60406 -18.68852 2.500009
v -20.08276 -18.68852 1.500008
v -20.08276 -20.18852 2.500009
v -20.08276 -20.18852 1.500009
v -20.08276 -18.68852 2.500008
v -18.60406 -20.18851 2.500009
v -18.60406 -18.68852 1.500008
v -18.60406 -20.18851 1.500009
v -18.60406 -18.68852 2.500009
vt 0.8945313 0.8818359
vt 0.8828125 0.8789063
vt 0.8828125 0.8818359
vt 0.8945313 0.8789063
vt 0.8945313 0.8818359
vt 0.8828125 0.8789063
vt 0.8828125 0.8818359
vt 0.8945313 0.8789063
vt 0.8828125 0.8789063
vt 0.8945313 0.8818359
vt 0.8828125 0.8818359
vt 0.8945313 0.8789063
vt 0.8828125 0.8789063
vt 0.8945313 0.8818359
vt 0.8828125 0.8818359
vt 0.8945313 0.8789063
vt 0.8955078 0.8798828
vt 0.9072266 0.8916016
vt 0.8955078 0.8916016
vt 0.9072266 0.8798828
vt 0.8955078 0.8798828
vt 0.9072266 0.8681641
vt 0.8955078 0.8681641
vt 0.9072266 0.8798828
vt 0.8945313 0.8828125
vt 0.8828125 0.890625
vt 0.8945313 0.890625
vt 0.8828125 0.8828125
vt 0.8828125 0.8828125
vt 0.8945313 0.890625
vt 0.8828125 0.890625
vt 0.8945313 0.8828125
vt 0.8828125 0.8828125
vt 0.8945313 0.890625
vt 0.8828125 0.890625
vt 0.8945313 0.8828125
vt 0.8955078 0.8798828
vt 0.90625 0.890625
vt 0.90625 0.8798828
vt 0.8955078 0.890625
vt 0.8945313 0.8828125
vt 0.8828125 0.890625
vt 0.8945313 0.890625
vt 0.8828125 0.8828125
vt 0.8925781 0.8720148
vt 0.8867188 0.8681641
vt 0.8867188 0.8720148
vt 0.8925781 0.8681641
vt 0.8867188 0.8720148
vt 0.8925781 0.8681641
vt 0.8867188 0.8681641
vt 0.8925781 0.8720148
vt 0.8876398 0.8710938
vt 0.8837891 0.8681641
vt 0.8837891 0.8710938
vt 0.8876398 0.8681641
vt 0.8867188 0.8681641
vt 0.8925781 0.8710938
vt 0.8925781 0.8681641
vt 0.8867188 0.8710938
vt 0.8867188 0.8710938
vt 0.882868 0.8681641
vt 0.882868 0.8710938
vt 0.8867188 0.8681641
vt 0.8867188 0.8681641
vt 0.8925781 0.8710938
vt 0.8925781 0.8681641
vt 0.8867188 0.8710938
vt 0.9189453 0.8896484
vt 0.9160156 0.8867188
vt 0.9160156 0.8896484
vt 0.9189453 0.8867188
vt 0.9160156 0.8867188
vt 0.9189453 0.8896484
vt 0.9189453 0.8867188
vt 0.9160156 0.8896484
vt 0.9160156 0.8876953
vt 0.9189453 0.8857422
vt 0.9160156 0.8857422
vt 0.9189453 0.8876953
vt 0.9160156 0.8857422
vt 0.9189453 0.8876953
vt 0.9189453 0.8857422
vt 0.9160156 0.8876953
vt 0.9189453 0.8876953
vt 0.9160156 0.8857422
vt 0.9160156 0.8876953
vt 0.9189453 0.8857422
vt 0.9189453 0.8857422
vt 0.9160156 0.8876953
vt 0.9189453 0.8876953
vt 0.9160156 0.8857422
vn 1 -2.346317E-07 0
vn 1 -2.346317E-07 0
vn 1 -2.346318E-07 0
vn 1 -2.346317E-07 0
vn 4.692635E-07 1 0
vn 4.692635E-07 1 0
vn 4.692635E-07 1 0
vn 4.692635E-07 1 0
vn 0 -1 0
vn 0 -1 0
vn 0 -1 0
vn 0 -1 0
vn -1 4.692632E-07 0
vn -1 4.692632E-07 0
vn -1 4.692633E-07 0
vn -1 4.692633E-07 0
vn 0 1.173158E-07 1
vn 0 1.173158E-07 1
vn 0 1.173159E-07 1
vn 0 1.173158E-07 1
vn 0 0 -1
vn 0 0 -1
vn 0 0 -1
vn 0 0 -1
vn 0 1 0
vn 0 1 0
vn 0 1 0
vn 0 1 0
vn 0 -1 0
vn 0 -1 0
vn 0 -1 0
vn 0 -1 0
vn -1 8.336249E-07 -4.41123E-07
vn -1 7.238448E-07 -2.87128E-07
vn -1 1.038313E-06 -7.282511E-07
vn -1 5.191566E-07 0
vn 0 0 -1
vn 0 0 -1
vn 0 0 -1
vn 0 0 -1
vn 1 -5.740468E-07 2.87128E-07
vn 1 -4.642666E-07 4.411231E-07
vn 1 -7.78735E-07 0
vn 1 -2.595784E-07 7.282513E-07
vn 0 0 -1
vn 0 0 -1
vn 0 0 -1
vn 0 0 -1
vn 0 0 1
vn 0 0 1
vn 0 0 1
vn 0 0 1
vn 0 -1 0
vn 0 -1 0
vn 0 -1 0
vn 0 -1 0
vn 1 0 0
vn 1 0 0
vn 1 0 0
vn 1 0 0
vn 0 1 0
vn 0 1 0
vn 0 1 0
vn 0 1 0
vn -1 0 0
vn -1 0 0
vn -1 0 0
vn -1 0 0
vn 0 -3.565017E-07 -1
vn 0 -3.555756E-07 -1
vn 0 -3.051763E-07 -1
vn 1.031905E-07 -4.069011E-07 -1
vn -3.105111E-07 3.042499E-07 1
vn -3.086323E-07 3.061021E-07 1
vn -2.063816E-07 4.069011E-07 1
vn -4.127619E-07 2.034508E-07 1
vn 1.651048E-06 -1 0
vn 1.651048E-06 -1 0
vn 1.651048E-06 -1 0
vn 1.651048E-06 -1 0
vn 0 1 0
vn 0 1 0
vn 0 1 0
vn 0 1 0
vn -1 0 0
vn -1 0 0
vn -1 0 0
vn -1 0 0
vn 1 0 0
vn 1 0 0
vn 1 0 0
vn 1 0 0
g Christmas_Dinner2_present_1_0
f 3/3/3 2/2/2 1/1/1
f 4/4/4 1/1/1 2/2/2
f 7/7/7 6/6/6 5/5/5
f 8/8/8 5/5/5 6/6/6
f 11/11/11 10/10/10 9/9/9
f 12/12/12 9/9/9 10/10/10
f 15/15/15 14/14/14 13/13/13
f 16/16/16 13/13/13 14/14/14
f 19/19/19 18/18/18 17/17/17
f 20/20/20 17/17/17 18/18/18
f 23/23/23 22/22/22 21/21/21
f 24/24/24 21/21/21 22/22/22
f 27/27/27 26/26/26 25/25/25
f 28/28/28 25/25/25 26/26/26
f 31/31/31 30/30/30 29/29/29
f 32/32/32 29/29/29 30/30/30
f 35/35/35 34/34/34 33/33/33
f 36/36/36 33/33/33 34/34/34
f 39/39/39 38/38/38 37/37/37
f 40/40/40 37/37/37 38/38/38
f 43/43/43 42/42/42 41/41/41
f 44/44/44 41/41/41 42/42/42
f 47/47/47 46/46/46 45/45/45
f 48/48/48 45/45/45 46/46/46
f 51/51/51 50/50/50 49/49/49
f 52/52/52 49/49/49 50/50/50
f 55/55/55 54/54/54 53/53/53
f 56/56/56 53/53/53 54/54/54
f 59/59/59 58/58/58 57/57/57
f 60/60/60 57/57/57 58/58/58
f 63/63/63 62/62/62 61/61/61
f 64/64/64 61/61/61 62/62/62
f 67/67/67 66/66/66 65/65/65
f 68/68/68 65/65/65 66/66/66
f 71/71/71 70/70/70 69/69/69
f 72/72/72 69/69/69 70/70/70
f 75/75/75 74/74/74 73/73/73
f 76/76/76 73/73/73 74/74/74
f 79/79/79 78/78/78 77/77/77
f 80/80/80 77/77/77 78/78/78
f 83/83/83 82/82/82 81/81/81
f 84/84/84 81/81/81 82/82/82
f 87/87/87 86/86/86 85/85/85
f 88/88/88 85/85/85 86/86/86
f 91/91/91 90/90/90 89/89/89
f 92/92/92 89/89/89 90/90/90
