g Christmas_Dinner_Wheel
v 147.3092 -350.7324 -47.1821
v 151.8056 -346.795 -50.17049
v 151.8057 -346.795 -47.1821
v 147.3092 -350.7324 -50.17049
v 130.7266 -331.7948 -47.18211
v 135.2231 -327.8574 -50.1705
v 135.2232 -327.8574 -47.18211
v 130.7266 -331.7948 -50.17049
v 113.5849 -380.2625 -47.18209
v 118.0816 -376.3251 -50.17048
v 118.0816 -376.3251 -47.18209
v 113.585 -380.2625 -50.17048
v 97.00249 -361.325 -47.1821
v 101.499 -357.3876 -50.17049
v 101.499 -357.3876 -47.1821
v 97.00249 -361.325 -50.17049
v 130.517 -349.7002 -37.97613
v 122.2286 -362.916 -37.97613
v 133.47 -353.0726 -37.97613
v 119.2756 -359.5437 -37.97612
v 130.517 -349.7002 -23.03421
v 122.2286 -362.916 -23.03419
v 119.2755 -359.5438 -23.0342
v 133.47 -353.0727 -23.0342
v 119.2756 -359.5437 -37.97612
v 122.2286 -362.916 -23.03419
v 122.2286 -362.916 -37.97613
v 119.2755 -359.5438 -23.0342
v 133.47 -353.0726 -37.97613
v 130.517 -349.7002 -23.03421
v 130.517 -349.7002 -37.97613
v 133.47 -353.0727 -23.0342
v 127.7067 -352.1611 -34.24065
v 119.2756 -359.5437 -37.97612
v 130.517 -349.7002 -37.97613
v 122.0859 -357.0828 -34.24065
v 119.2755 -359.5438 -23.0342
v 130.517 -349.7002 -23.03421
v 127.7067 -352.1611 -26.76969
v 122.0859 -357.0828 -26.76968
v 130.517 -349.7002 -37.97613
v 127.7067 -352.1611 -26.76969
v 127.7067 -352.1611 -34.24065
v 119.2755 -359.5438 -23.0342
v 122.0859 -357.0828 -34.24065
v 122.0859 -357.0828 -26.76968
v 122.0859 -357.0828 -26.76968
v 125.0389 -360.4552 -34.24064
v 125.039 -360.4552 -26.76967
v 122.0859 -357.0828 -34.24065
v 125.0389 -360.4552 -34.24064
v 127.7067 -352.1611 -34.24065
v 130.6597 -355.5334 -34.24064
v 122.0859 -357.0828 -34.24065
v 127.7067 -352.1611 -34.24065
v 130.6597 -355.5335 -26.76968
v 130.6597 -355.5334 -34.24064
v 127.7067 -352.1611 -26.76969
v 130.6597 -355.5335 -26.76968
v 122.0859 -357.0828 -26.76968
v 125.039 -360.4552 -26.76967
v 127.7067 -352.1611 -26.76969
v 127.7095 -360.1029 -27.7035
v 125.0361 -352.5135 -27.70352
v 122.7879 -354.4822 -27.70351
v 129.9577 -358.1342 -27.7035
v 122.7879 -354.4822 -21.72673
v 125.0361 -352.5135 -27.70352
v 125.0361 -352.5135 -21.72673
v 122.7879 -354.4822 -27.70351
v 127.7095 -360.1029 -21.72672
v 122.7879 -354.4822 -27.70351
v 122.7879 -354.4822 -21.72673
v 127.7095 -360.1029 -27.7035
v 125.0361 -352.5135 -21.72673
v 129.9577 -358.1342 -27.7035
v 129.9578 -358.1342 -21.72671
v 125.0361 -352.5135 -27.70352
v 124.2644 -356.1683 7.092957
v 126.5126 -354.1997 -21.72673
v 126.5126 -354.1996 7.092957
v 124.2644 -356.1683 -21.72673
v 126.233 -358.4166 7.092957
v 124.2644 -356.1683 -21.72673
v 124.2644 -356.1683 7.092957
v 126.2329 -358.4167 -21.72672
v 126.5126 -354.1996 7.092957
v 128.4813 -356.4479 -21.72672
v 128.4812 -356.4479 7.092957
v 126.5126 -354.1997 -21.72673
v 127.7094 -360.1029 7.092945
v 125.036 -352.5135 7.092945
v 122.7878 -354.4822 7.092945
v 129.9577 -358.1342 7.092953
v 122.7877 -354.4822 14.56392
v 125.036 -352.5135 7.092945
v 125.036 -352.5135 14.56392
v 122.7878 -354.4822 7.092945
v 127.7094 -360.1029 14.56391
v 122.7878 -354.4822 7.092945
v 122.7877 -354.4822 14.56392
v 127.7094 -360.1029 7.092945
v 125.036 -352.5135 14.56392
v 129.9577 -358.1342 7.092953
v 129.9577 -358.1342 14.56392
v 125.036 -352.5135 7.092945
v 141.5486 -343.0196 8.30003
v 151.7582 -347.8748 -50.55968
v 144.921 -340.0667 8.300025
v 148.3858 -350.8278 -50.55968
v 109.301 -374.236 13.17677
v 143.4445 -338.3803 13.17677
v 146.3975 -341.7528 13.17675
v 106.3479 -370.8635 13.17678
v 106.3479 -370.8635 13.17678
v 143.4445 -338.3803 8.694198
v 143.4445 -338.3803 13.17677
v 106.3479 -370.8635 8.694206
v 138.6404 -339.6984 9.078411
v 135.1758 -328.9371 -49.7813
v 142.0129 -336.7454 9.078406
v 131.8033 -331.8903 -49.7813
v 104.9163 -369.2285 9.078406
v 101.4516 -358.4674 -49.7813
v 108.2887 -366.2756 9.078411
v 98.07921 -361.4204 -49.78128
v 107.8245 -372.5498 8.300025
v 118.0341 -377.4049 -50.55967
v 111.1969 -369.5967 8.300018
v 114.6617 -380.358 -50.55967
v 151.2465 -355.2289 -47.1821
v 151.8057 -346.795 -47.1821
v 155.743 -351.2915 -47.1821
v 147.3092 -350.7324 -47.1821
v 134.664 -336.2913 -47.1821
v 135.2232 -327.8574 -47.18211
v 139.1605 -332.3539 -47.1821
v 130.7266 -331.7948 -47.18211
v 117.5223 -384.759 -47.18208
v 118.0816 -376.3251 -47.18209
v 122.019 -380.8216 -47.18209
v 113.5849 -380.2625 -47.18209
v 100.9398 -365.8215 -47.1821
v 101.499 -357.3876 -47.1821
v 105.4363 -361.8842 -47.1821
v 97.00249 -361.325 -47.1821
v 144.4568 -346.3408 9.078414
v 144.921 -340.0667 8.300025
v 147.8292 -343.3877 9.078411
v 141.5486 -343.0196 8.30003
v 142.0129 -336.7454 9.078406
v 141.5486 -343.0196 8.30003
v 138.6404 -339.6984 9.078411
v 144.921 -340.0666 8.300025
v 110.7327 -375.871 9.078414
v 111.1969 -369.5967 8.300018
v 114.105 -372.918 9.078414
v 107.8245 -372.5498 8.300025
v 108.2887 -366.2756 9.078411
v 107.8245 -372.5498 8.300025
v 104.9163 -369.2285 9.078406
v 111.1969 -369.5967 8.300018
v 155.743 -351.2915 -47.1821
v 151.2465 -355.2289 -50.17049
v 151.2465 -355.2289 -47.1821
v 155.743 -351.2915 -50.17049
v 139.1605 -332.3539 -47.1821
v 134.664 -336.2913 -50.17049
v 134.664 -336.2913 -47.1821
v 139.1605 -332.3539 -50.17049
v 122.019 -380.8216 -47.18209
v 117.5223 -384.759 -50.17047
v 117.5223 -384.759 -47.18208
v 122.019 -380.8217 -50.17047
v 105.4363 -361.8842 -47.1821
v 100.9398 -365.8215 -50.17048
v 100.9398 -365.8215 -47.1821
v 105.4363 -361.8842 -50.17049
v 151.2465 -355.2289 -47.1821
v 147.3092 -350.7324 -50.17049
v 147.3092 -350.7324 -47.1821
v 151.2465 -355.2289 -50.17049
v 134.664 -336.2913 -50.17049
v 130.7266 -331.7948 -47.18211
v 134.664 -336.2913 -47.1821
v 130.7266 -331.7948 -50.17049
v 117.5699 -383.6792 -49.78128
v 107.8245 -372.5498 8.300025
v 110.7327 -375.871 9.078414
v 114.6617 -380.358 -50.55967
v 117.5223 -384.759 -47.18208
v 113.585 -380.2625 -50.17048
v 113.5849 -380.2625 -47.18209
v 117.5223 -384.759 -50.17047
v 97.00249 -361.325 -47.1821
v 100.9398 -365.8215 -50.17048
v 97.00249 -361.325 -50.17049
v 100.9398 -365.8215 -47.1821
v 106.3479 -370.8635 13.17678
v 109.301 -374.2359 8.694198
v 106.3479 -370.8635 8.694206
v 109.301 -374.236 13.17677
v 107.8245 -372.5498 8.300025
v 98.07921 -361.4204 -49.78128
v 104.9163 -369.2285 9.078406
v 100.9873 -364.7417 -50.55968
v 141.5486 -343.0196 8.30003
v 131.8033 -331.8903 -49.7813
v 138.6404 -339.6984 9.078411
v 134.7115 -335.2114 -50.55968
v 151.2941 -354.149 -49.7813
v 141.5486 -343.0196 8.30003
v 144.4568 -346.3408 9.078414
v 148.3858 -350.8278 -50.55968
v 155.743 -351.2915 -47.1821
v 151.8056 -346.795 -50.17049
v 155.743 -351.2915 -50.17049
v 151.8057 -346.795 -47.1821
v 139.1605 -332.3539 -47.1821
v 135.2231 -327.8574 -50.1705
v 139.1605 -332.3539 -50.17049
v 135.2232 -327.8574 -47.18211
v 144.921 -340.0666 8.300025
v 135.1758 -328.9371 -49.7813
v 138.0839 -332.2584 -50.55969
v 142.0129 -336.7454 9.078406
v 122.019 -380.8216 -47.18209
v 118.0816 -376.3251 -50.17048
v 122.019 -380.8217 -50.17047
v 118.0816 -376.3251 -47.18209
v 101.499 -357.3876 -47.1821
v 105.4363 -361.8842 -50.17049
v 105.4363 -361.8842 -47.1821
v 101.499 -357.3876 -50.17049
v 111.1969 -369.5967 8.300018
v 101.4516 -358.4674 -49.7813
v 104.3598 -361.7886 -50.55968
v 108.2887 -366.2756 9.078411
v 143.4445 -338.3803 13.17677
v 146.3975 -341.7528 8.694187
v 146.3975 -341.7528 13.17675
v 146.3975 -341.7528 8.694187
v 143.4445 -338.3803 13.17677
v 143.4445 -338.3803 8.694198
v 154.6663 -351.1959 -49.78129
v 144.921 -340.0667 8.300025
v 151.7582 -347.8748 -50.55968
v 147.8292 -343.3877 9.078411
v 120.9423 -380.7262 -49.78127
v 111.1969 -369.5967 8.300018
v 118.0341 -377.4049 -50.55967
v 114.105 -372.918 9.078414
v 109.301 -374.2359 8.694198
v 143.4445 -338.3803 8.694198
v 106.3479 -370.8635 8.694206
v 146.3975 -341.7528 8.694187
v 127.7095 -360.1029 -21.72672
v 122.7879 -354.4822 -21.72673
v 125.0361 -352.5135 -21.72673
v 129.9578 -358.1342 -21.72671
vt 0.3681641 0.9638672
vt 0.3603516 0.9599609
vt 0.3603516 0.9638672
vt 0.3681641 0.9599609
vt 0.3681641 0.9638672
vt 0.3603516 0.9599609
vt 0.3603516 0.9638672
vt 0.3681641 0.9599609
vt 0.3681641 0.9638672
vt 0.3603516 0.9599609
vt 0.3603516 0.9638672
vt 0.3681641 0.9599609
vt 0.3681641 0.9638672
vt 0.3603516 0.9599609
vt 0.3603516 0.9638672
vt 0.3681641 0.9599609
vt 0.3623047 0.9941406
vt 0.3857422 0.984375
vt 0.3623047 0.984375
vt 0.3857422 0.9941406
vt 0.3833218 0.9941406
vt 0.3598843 0.984375
vt 0.3598843 0.9941406
vt 0.3833218 0.984375
vt 0.3623047 0.9697266
vt 0.3710938 0.9941406
vt 0.3710938 0.9697266
vt 0.3623047 0.9941406
vt 0.3623047 0.9697266
vt 0.3710938 0.9941406
vt 0.3710938 0.9697266
vt 0.3623047 0.9941406
vt 0.3681641 0.9755859
vt 0.3857422 0.9697266
vt 0.3623047 0.9697266
vt 0.3798828 0.9755859
vt 0.3857422 0.9941406
vt 0.3623047 0.9941406
vt 0.3681641 0.9882813
vt 0.3798828 0.9882813
vt 0.3623047 0.9697266
vt 0.3681641 0.9882813
vt 0.3681641 0.9755859
vt 0.3857422 0.9941406
vt 0.3798828 0.9755859
vt 0.3798828 0.9882813
vt 0.3710938 0.9941406
vt 0.3623047 0.9853516
vt 0.3623047 0.9941406
vt 0.3710938 0.9853516
vt 0.6132813 0.9462891
vt 0.6210938 0.9550781
vt 0.6210938 0.9462891
vt 0.6132813 0.9550781
vt 0.3623047 0.9853516
vt 0.3710938 0.9941406
vt 0.3710938 0.9853516
vt 0.3623047 0.9941406
vt 0.3623047 0.9853516
vt 0.3710938 0.9941406
vt 0.3710938 0.9853516
vt 0.3623047 0.9941406
vt 0.3735712 0.6795303
vt 0.3675148 0.6947448
vt 0.3735712 0.6947448
vt 0.3675148 0.6795303
vt 0.3675148 0.746733
vt 0.3747823 0.7568359
vt 0.3747823 0.746733
vt 0.3675148 0.7568359
vt 0.3763808 0.6824874
vt 0.3675148 0.6961495
vt 0.3763809 0.6961495
vt 0.3675148 0.6824874
vt 0.3675148 0.6961495
vt 0.3763809 0.6824874
vt 0.3675148 0.6824874
vt 0.3763809 0.6961495
vt 0.3675148 0.6980163
vt 0.3747823 0.746733
vt 0.3747823 0.6980163
vt 0.3675148 0.746733
vt 0.3729797 0.7252387
vt 0.3675148 0.6824874
vt 0.3675149 0.7252387
vt 0.3729797 0.6824874
vt 0.3675149 0.6824874
vt 0.3729797 0.7252387
vt 0.3729797 0.6824874
vt 0.3675148 0.7252387
vt 0.3735712 0.6795303
vt 0.3675148 0.6947448
vt 0.3735712 0.6947448
vt 0.3675148 0.6795303
vt 0.3675148 0.6853874
vt 0.3747823 0.6980163
vt 0.3747823 0.6853874
vt 0.3675148 0.6980163
vt 0.3785973 0.6824874
vt 0.3675148 0.6961495
vt 0.3785973 0.6961495
vt 0.3675148 0.6824874
vt 0.3675148 0.6961495
vt 0.3785973 0.6824874
vt 0.3675148 0.6824874
vt 0.3785973 0.6961495
vt 0.3662109 0.9638672
vt 0.3603516 0.8955078
vt 0.3603516 0.9638672
vt 0.3662109 0.8955078
vt 0.6289063 0.9560547
vt 0.6318359 0.9335938
vt 0.6289063 0.9335938
vt 0.6318359 0.9560547
vt 0.3652344 0.9003906
vt 0.3603516 0.9638672
vt 0.3652344 0.9638672
vt 0.3603516 0.9003906
vt 0.3662109 0.9638672
vt 0.3603516 0.8955078
vt 0.3603516 0.9638672
vt 0.3662109 0.8955078
vt 0.3662109 0.9638672
vt 0.3603516 0.8955078
vt 0.3603516 0.9638672
vt 0.3662109 0.8955078
vt 0.3662109 0.9638672
vt 0.3603516 0.8955078
vt 0.3603516 0.9638672
vt 0.3662109 0.8955078
vt 0.3603516 0.9638672
vt 0.3632813 0.9609375
vt 0.3603516 0.9609375
vt 0.3632813 0.9638672
vt 0.3603516 0.9638672
vt 0.3632813 0.9609375
vt 0.3603516 0.9609375
vt 0.3632813 0.9638672
vt 0.3603516 0.9638672
vt 0.3632813 0.9609375
vt 0.3603516 0.9609375
vt 0.3632813 0.9638672
vt 0.3603516 0.9638672
vt 0.3632813 0.9609375
vt 0.3603516 0.9609375
vt 0.3632813 0.9638672
vt 0.6435547 0.9335938
vt 0.6445313 0.9316406
vt 0.6435547 0.9316406
vt 0.6445313 0.9335938
vt 0.6474609 0.9316406
vt 0.6445313 0.9335938
vt 0.6474609 0.9335938
vt 0.6445313 0.9316406
vt 0.6435547 0.9541016
vt 0.6445313 0.9521484
vt 0.6435547 0.9521484
vt 0.6445313 0.9541016
vt 0.6474609 0.9521484
vt 0.6445313 0.9541016
vt 0.6474609 0.9541016
vt 0.6445313 0.9521484
vt 0.3681641 0.9638672
vt 0.3603516 0.9599609
vt 0.3603516 0.9638672
vt 0.3681641 0.9599609
vt 0.3681641 0.9638672
vt 0.3603516 0.9599609
vt 0.3603516 0.9638672
vt 0.3681641 0.9599609
vt 0.3681641 0.9638672
vt 0.3603516 0.9599609
vt 0.3603516 0.9638672
vt 0.3681641 0.9599609
vt 0.3681641 0.9638672
vt 0.3603516 0.9599609
vt 0.3603516 0.9638672
vt 0.3681641 0.9599609
vt 0.3603516 0.9609375
vt 0.3632813 0.9638672
vt 0.3632813 0.9609375
vt 0.3603516 0.9638672
vt 0.3603516 0.9638672
vt 0.3632813 0.9609375
vt 0.3603516 0.9609375
vt 0.3632813 0.9638672
vt 0.3632813 0.9003906
vt 0.3603516 0.9638672
vt 0.3632813 0.9638672
vt 0.3603516 0.9003906
vt 0.3603516 0.9609375
vt 0.3632813 0.9638672
vt 0.3632813 0.9609375
vt 0.3603516 0.9638672
vt 0.3632813 0.9609375
vt 0.3603516 0.9638672
vt 0.3632813 0.9638672
vt 0.3603516 0.9609375
vt 0.3623047 0.9589844
vt 0.3603516 0.9638672
vt 0.3623047 0.9638672
vt 0.3603516 0.9589844
vt 0.3603516 0.8935547
vt 0.3623047 0.9638672
vt 0.3623047 0.8935547
vt 0.3603516 0.9638672
vt 0.3603516 0.8935547
vt 0.3623047 0.9638672
vt 0.3623047 0.8935547
vt 0.3603516 0.9638672
vt 0.3603516 0.9003906
vt 0.3603516 0.9628906
vt 0.3603516 0.9638672
vt 0.3603516 0.9003906
vt 0.3603516 0.9638672
vt 0.3632813 0.9609375
vt 0.3603516 0.9609375
vt 0.3632813 0.9638672
vt 0.3603516 0.9638672
vt 0.3632813 0.9609375
vt 0.3603516 0.9609375
vt 0.3632813 0.9638672
vt 0.3603516 0.9638672
vt 0.3623047 0.8935547
vt 0.3603516 0.8935547
vt 0.3623047 0.9638672
vt 0.3603516 0.9638672
vt 0.3632813 0.9609375
vt 0.3603516 0.9609375
vt 0.3632813 0.9638672
vt 0.3632813 0.9638672
vt 0.3603516 0.9609375
vt 0.3603516 0.9638672
vt 0.3632813 0.9609375
vt 0.3603516 0.9638672
vt 0.3632813 0.9003906
vt 0.3603516 0.9003906
vt 0.3632813 0.9638672
vt 0.3623047 0.9638672
vt 0.3603516 0.9589844
vt 0.3603516 0.9628906
vt 0.3603516 0.9589844
vt 0.3623047 0.9638672
vt 0.3623047 0.9589844
vt 0.3603516 0.9003906
vt 0.3632813 0.9638672
vt 0.3632813 0.9003906
vt 0.3603516 0.9638672
vt 0.3603516 0.8935547
vt 0.3623047 0.9638672
vt 0.3623047 0.8935547
vt 0.3603516 0.9638672
vt 0.3603516 0.9404297
vt 0.3623047 0.9638672
vt 0.3623047 0.9404297
vt 0.3603516 0.9638672
vt 0.3735712 0.6795303
vt 0.3735712 0.6947448
vt 0.3675148 0.6947448
vt 0.3675148 0.6795303
vn -0.6587782 0.7523372 0
vn -0.6587782 0.7523372 0
vn -0.6587782 0.7523372 0
vn -0.6587807 0.752335 0
vn -0.6587821 0.7523338 0
vn -0.6587821 0.7523337 0
vn -0.6587821 0.7523337 0
vn -0.6587847 0.7523316 0
vn -0.6587681 0.752346 0
vn -0.6587681 0.752346 0
vn -0.6587681 0.752346 0
vn -0.6587706 0.7523438 0
vn -0.6587789 0.7523366 0
vn -0.6587789 0.7523366 0
vn -0.6587789 0.7523366 0
vn -0.658779 0.7523366 0
vn 0 0 -1
vn 0 0 -1
vn 0 0 -1
vn 0 0 -1
vn 0 0 1
vn 0 0 1
vn 0 0 1
vn 0 0 1
vn -0.7523337 -0.6587822 0
vn -0.7523337 -0.6587822 0
vn -0.7523337 -0.6587822 0
vn -0.7523211 -0.6587966 0
vn 0.7523392 0.6587759 0
vn 0.7523392 0.658776 0
vn 0.7523392 0.6587759 0
vn 0.7523435 0.6587711 0
vn -0.6587806 0.7523351 1.712039E-05
vn -0.6587806 0.7523351 1.712039E-05
vn -0.6587806 0.7523351 1.712039E-05
vn -0.6587882 0.7523285 0
vn -0.6587809 0.7523348 2.091342E-05
vn -0.6587919 0.7523251 0
vn -0.6587919 0.7523251 0
vn -0.6587678 0.7523464 -3.150681E-05
vn -0.6587934 0.7523239 0
vn -0.6587935 0.7523239 0
vn -0.6587935 0.7523239 0
vn -0.6587997 0.7523184 0
vn -0.6587997 0.7523184 0
vn -0.6587997 0.7523184 0
vn 0.7523291 0.6587875 0
vn 0.7523291 0.6587875 0
vn 0.7523291 0.6587875 0
vn 0.7523443 0.6587702 0
vn 0 0 1
vn 0 0 1
vn 0 0 1
vn 0 0 1
vn -0.7523291 -0.6587875 0
vn -0.7523291 -0.6587875 0
vn -0.7523291 -0.6587875 0
vn -0.7523346 -0.6587812 0
vn 0 0 -1
vn 0 0 -1
vn 0 0 -1
vn 0 0 -1
vn 0 0 -1
vn 0 0 -1
vn 0 0 -1
vn 0 0 -1
vn -0.6587724 0.7523423 0
vn -0.6587724 0.7523423 0
vn -0.6587724 0.7523423 0
vn -0.6587724 0.7523423 0
vn -0.7523429 -0.6587718 0
vn -0.7523429 -0.6587718 0
vn -0.7523428 -0.6587718 0
vn -0.7523408 -0.6587741 0
vn 0.7523393 0.6587757 0
vn 0.7523393 0.6587757 0
vn 0.7523393 0.6587757 0
vn 0.7523404 0.6587747 0
vn -0.6587917 0.7523255 0
vn -0.6587916 0.7523255 0
vn -0.6587917 0.7523255 0
vn -0.6587833 0.7523328 0
vn -0.7523471 -0.658767 0
vn -0.752347 -0.658767 0
vn -0.7523471 -0.658767 0
vn -0.752373 -0.6587374 0
vn 0.7523439 0.6587706 0
vn 0.7523439 0.6587706 0
vn 0.7523439 0.6587706 0
vn 0.7523369 0.6587786 0
vn 0 0 -1
vn 0 0 -1
vn 0 0 -1
vn 0 0 -1
vn -0.6587771 0.7523382 0
vn -0.6587771 0.7523382 0
vn -0.6587771 0.7523382 0
vn -0.6587847 0.7523315 0
vn -0.7523428 -0.6587718 0
vn -0.7523428 -0.6587718 0
vn -0.7523428 -0.6587718 0
vn -0.7523459 -0.6587684 0
vn 0.7523476 0.6587662 0
vn 0.7523476 0.6587662 0
vn 0.7523476 0.6587662 0
vn 0.7523476 0.6587663 0
vn -0.6487564 0.7409194 -0.1736481
vn -0.6487564 0.7409194 -0.1736481
vn -0.6487564 0.7409193 -0.1736481
vn -0.6487692 0.7409079 -0.1736494
vn 0 0 1
vn 0 0 1
vn 0 0 1
vn 0 0 1
vn -0.6587769 0.7523383 0
vn -0.6587769 0.7523383 0
vn -0.6587769 0.7523383 0
vn -0.6587766 0.7523386 0
vn -0.6487651 0.7409117 0.1736481
vn -0.6487651 0.7409117 0.1736481
vn -0.6487651 0.7409117 0.1736481
vn -0.6487729 0.740905 0.1736474
vn -0.648761 0.7409154 0.1736477
vn -0.648761 0.7409154 0.1736477
vn -0.648761 0.7409154 0.1736477
vn -0.6487678 0.7409096 0.173647
vn -0.6487792 0.7408993 -0.1736486
vn -0.6487791 0.7408993 -0.1736486
vn -0.6487792 0.7408993 -0.1736486
vn -0.6487813 0.7408974 -0.1736489
vn 0 0 1
vn 0 0 1
vn 0 0 1
vn 0 0 1
vn 0 0 1
vn 0 0 1
vn 0 0 1
vn 0 0 1
vn 0 0 1
vn 0 0 1
vn 0 0 1
vn 0 0 1
vn 0 0 1
vn 0 0 1
vn 0 0 1
vn 0 0 1
vn -0.1143983 0.1306423 0.9848074
vn -0.1143983 0.1306423 0.9848074
vn -0.1143982 0.1306423 0.9848074
vn -0.1143898 0.1306418 0.9848084
vn 0.1143947 -0.130641 0.984808
vn 0.1143947 -0.130641 0.984808
vn 0.1143947 -0.130641 0.984808
vn 0.1143937 -0.130641 0.9848081
vn -0.1143969 0.1306407 0.9848078
vn -0.1143969 0.1306406 0.9848078
vn -0.1143969 0.1306407 0.9848078
vn -0.1143952 0.1306405 0.984808
vn 0.1143895 -0.1306398 0.9848087
vn 0.1143895 -0.1306398 0.9848087
vn 0.1143895 -0.1306398 0.9848087
vn 0.114399 -0.1306403 0.9848076
vn 0.6587818 -0.7523341 0
vn 0.6587818 -0.7523341 0
vn 0.6587818 -0.7523341 0
vn 0.6587819 -0.7523341 0
vn 0.6587802 -0.7523354 0
vn 0.6587802 -0.7523354 0
vn 0.6587802 -0.7523354 0
vn 0.6587827 -0.7523333 0
vn 0.6587663 -0.7523476 0
vn 0.6587663 -0.7523476 0
vn 0.6587663 -0.7523476 0
vn 0.6587605 -0.7523527 1.537745E-05
vn 0.6587815 -0.7523344 0
vn 0.6587815 -0.7523344 0
vn 0.6587814 -0.7523344 0
vn 0.6587814 -0.7523344 0
vn -0.7523419 -0.6587728 0
vn -0.7523419 -0.6587728 0
vn -0.7523419 -0.6587728 0
vn -0.7523419 -0.6587728 0
vn -0.7523331 -0.658783 0
vn -0.7523331 -0.6587829 0
vn -0.7523331 -0.658783 0
vn -0.7523331 -0.658783 0
vn -0.7523319 -0.6587843 0
vn -0.7523319 -0.6587843 0
vn -0.7523319 -0.6587843 0
vn -0.752338 -0.6587773 0
vn -0.7523394 -0.6587756 0
vn -0.7523394 -0.6587757 0
vn -0.7523394 -0.6587757 0
vn -0.7523419 -0.6587728 0
vn -0.7523439 -0.6587706 0
vn -0.7523439 -0.6587706 0
vn -0.7523439 -0.6587706 0
vn -0.7523439 -0.6587706 0
vn -0.7523278 -0.6587889 0
vn -0.7523278 -0.6587889 0
vn -0.7523278 -0.6587889 0
vn -0.752343 -0.6587716 -1.793981E-05
vn -0.7523469 -0.6587673 0
vn -0.7523468 -0.6587673 0
vn -0.7523468 -0.6587673 0
vn -0.7523537 -0.6587593 0
vn -0.7523323 -0.6587837 0
vn -0.7523323 -0.6587837 0
vn -0.7523323 -0.6587837 0
vn -0.7523261 -0.6587908 0
vn -0.7523314 -0.6587848 0
vn -0.7523314 -0.6587848 0
vn -0.7523314 -0.6587848 0
vn -0.7523314 -0.6587848 0
vn 0.7523277 0.6587891 0
vn 0.7523277 0.658789 0
vn 0.7523277 0.658789 0
vn 0.7523302 0.6587862 0
vn 0.7523414 0.6587735 0
vn 0.7523414 0.6587735 0
vn 0.7523414 0.6587735 0
vn 0.7523413 0.6587735 0
vn 0.7523571 0.6587554 0
vn 0.7523571 0.6587554 0
vn 0.7523571 0.6587554 0
vn 0.7523495 0.6587641 0
vn 0.7523318 0.6587843 -1.345513E-05
vn 0.7523318 0.6587844 -1.345513E-05
vn 0.7523318 0.6587844 -1.345513E-05
vn 0.7523274 0.6587894 0
vn 0.7523464 0.6587678 0
vn 0.7523463 0.6587678 0
vn 0.7523463 0.6587678 0
vn 0.7523463 0.6587678 0
vn 0.7523488 0.658765 0
vn 0.7523488 0.658765 0
vn 0.7523487 0.658765 0
vn 0.7523185 0.6587995 0
vn 0.7523367 0.6587788 0
vn 0.7523367 0.6587788 0
vn 0.7523367 0.6587788 0
vn 0.7523367 0.6587788 0
vn 0.7523367 0.6587788 0
vn 0.7523367 0.6587788 0
vn 0.7523343 0.6587816 0
vn 0.7523342 0.6587815 0
vn 0.7523342 0.6587816 0
vn 0.7523219 0.6587957 0
vn 0.7523373 0.6587781 0
vn 0.7523373 0.658778 0
vn 0.7523373 0.6587781 0
vn 0.7523504 0.6587631 0
vn 0 0 -1
vn 0 0 -1
vn 0 0 -1
vn 0 0 -1
vn 0 0 1
vn 0 0 1
vn 0 0 1
vn 0 0 1
g Christmas_Dinner_Wheel_0
f 3/3/3 2/2/2 1/1/1
f 4/4/4 1/1/1 2/2/2
f 7/7/7 6/6/6 5/5/5
f 8/8/8 5/5/5 6/6/6
f 11/11/11 10/10/10 9/9/9
f 12/12/12 9/9/9 10/10/10
f 15/15/15 14/14/14 13/13/13
f 16/16/16 13/13/13 14/14/14
f 19/19/19 18/18/18 17/17/17
f 20/20/20 17/17/17 18/18/18
f 23/23/23 22/22/22 21/21/21
f 24/24/24 21/21/21 22/22/22
f 27/27/27 26/26/26 25/25/25
f 28/28/28 25/25/25 26/26/26
f 31/31/31 30/30/30 29/29/29
f 32/32/32 29/29/29 30/30/30
f 35/35/35 34/34/34 33/33/33
f 34/34/34 36/36/36 33/33/33
f 37/37/37 36/36/36 34/34/34
f 35/35/35 39/39/39 38/38/38
f 39/39/39 40/40/40 38/38/38
f 38/38/38 40/40/40 37/37/37
f 43/43/43 42/42/42 41/41/41
f 46/46/46 45/45/45 44/44/44
f 49/49/49 48/48/48 47/47/47
f 50/50/50 47/47/47 48/48/48
f 53/53/53 52/52/52 51/51/51
f 54/54/54 51/51/51 52/52/52
f 57/57/57 56/56/56 55/55/55
f 58/58/58 55/55/55 56/56/56
f 61/61/61 60/60/60 59/59/59
f 62/62/62 59/59/59 60/60/60
f 65/65/65 64/64/64 63/63/63
f 66/66/66 63/63/63 64/64/64
f 69/69/69 68/68/68 67/67/67
f 70/70/70 67/67/67 68/68/68
f 73/73/73 72/72/72 71/71/71
f 74/74/74 71/71/71 72/72/72
f 77/77/77 76/76/76 75/75/75
f 78/78/78 75/75/75 76/76/76
f 81/81/81 80/80/80 79/79/79
f 82/82/82 79/79/79 80/80/80
f 85/85/85 84/84/84 83/83/83
f 86/86/86 83/83/83 84/84/84
f 89/89/89 88/88/88 87/87/87
f 90/90/90 87/87/87 88/88/88
f 93/93/93 92/92/92 91/91/91
f 94/94/94 91/91/91 92/92/92
f 97/97/97 96/96/96 95/95/95
f 98/98/98 95/95/95 96/96/96
f 101/101/101 100/100/100 99/99/99
f 102/102/102 99/99/99 100/100/100
f 105/105/105 104/104/104 103/103/103
f 106/106/106 103/103/103 104/104/104
f 109/109/109 108/108/108 107/107/107
f 110/110/110 107/107/107 108/108/108
f 113/113/113 112/112/112 111/111/111
f 114/114/114 111/111/111 112/112/112
f 117/117/117 116/116/116 115/115/115
f 118/118/118 115/115/115 116/116/116
f 121/121/121 120/120/120 119/119/119
f 122/122/122 119/119/119 120/120/120
f 125/125/125 124/124/124 123/123/123
f 126/126/126 123/123/123 124/124/124
f 129/129/129 128/128/128 127/127/127
f 130/130/130 127/127/127 128/128/128
f 133/133/133 132/132/132 131/131/131
f 134/134/134 131/131/131 132/132/132
f 137/137/137 136/136/136 135/135/135
f 138/138/138 135/135/135 136/136/136
f 141/141/141 140/140/140 139/139/139
f 142/142/142 139/139/139 140/140/140
f 145/145/145 144/144/144 143/143/143
f 146/146/146 143/143/143 144/144/144
f 149/149/149 148/148/148 147/147/147
f 150/150/150 147/147/147 148/148/148
f 153/153/153 152/152/152 151/151/151
f 154/154/154 151/151/151 152/152/152
f 157/157/157 156/156/156 155/155/155
f 158/158/158 155/155/155 156/156/156
f 161/161/161 160/160/160 159/159/159
f 162/162/162 159/159/159 160/160/160
f 165/165/165 164/164/164 163/163/163
f 166/166/166 163/163/163 164/164/164
f 169/169/169 168/168/168 167/167/167
f 170/170/170 167/167/167 168/168/168
f 173/173/173 172/172/172 171/171/171
f 174/174/174 171/171/171 172/172/172
f 177/177/177 176/176/176 175/175/175
f 178/178/178 175/175/175 176/176/176
f 181/181/181 180/180/180 179/179/179
f 182/182/182 179/179/179 180/180/180
f 185/185/185 184/184/184 183/183/183
f 186/186/186 183/183/183 184/184/184
f 189/189/189 188/188/188 187/187/187
f 190/190/190 187/187/187 188/188/188
f 193/193/193 192/192/192 191/191/191
f 194/194/194 191/191/191 192/192/192
f 197/197/197 196/196/196 195/195/195
f 198/198/198 195/195/195 196/196/196
f 201/201/201 200/200/200 199/199/199
f 202/202/202 199/199/199 200/200/200
f 205/205/205 204/204/204 203/203/203
f 206/206/206 203/203/203 204/204/204
f 209/209/209 208/208/208 207/207/207
f 210/210/210 207/207/207 208/208/208
f 213/213/213 212/212/212 211/211/211
f 214/214/214 211/211/211 212/212/212
f 217/217/217 216/216/216 215/215/215
f 218/218/218 215/215/215 216/216/216
f 221/221/221 220/220/220 219/219/219
f 222/222/222 219/219/219 220/220/220
f 225/225/225 224/224/224 223/223/223
f 226/226/226 223/223/223 224/224/224
f 229/229/229 228/228/228 227/227/227
f 230/230/230 227/227/227 228/228/228
f 233/233/233 232/232/232 231/231/231
f 234/234/234 231/231/231 232/232/232
f 237/237/237 236/236/236 235/235/235
f 238/238/238 235/235/235 236/236/236
f 241/241/241 240/240/240 239/239/239
f 244/244/244 243/243/243 242/242/242
f 247/247/247 246/246/246 245/245/245
f 248/248/248 245/245/245 246/246/246
f 251/251/251 250/250/250 249/249/249
f 252/252/252 249/249/249 250/250/250
f 255/255/255 254/254/254 253/253/253
f 256/256/256 253/253/253 254/254/254
f 259/259/259 258/258/258 257/257/257
f 257/257/257 260/260/260 259/259/259
