g christmas_town_night2_selfIllumination_03
v -46.6653 11.32754 0.2896564
v -46.7253 11.32754 0.2896564
v -46.7253 11.38392 0.3101776
v -46.6653 11.38392 0.3101776
v -46.7253 11.32754 0.2896564
v -46.7653 11.34125 0.1350218
v -46.7653 11.47281 0.1829045
v -46.7253 11.38392 0.3101776
v -46.6653 11.32754 0.2896564
v -46.6253 11.34125 0.1350218
v -46.7653 11.34125 0.1350218
v -46.7253 11.32754 0.2896564
v -46.6653 11.38392 0.3101776
v -46.6253 11.47281 0.1829045
v -46.6253 11.34125 0.1350218
v -46.6653 11.32754 0.2896564
v -46.7253 11.38392 0.3101776
v -46.7653 11.47281 0.1829045
v -46.6253 11.47281 0.1829045
v -46.6653 11.38392 0.3101776
v -63.46201 11.32753 0.2896564
v -63.52201 11.32753 0.2896564
v -63.52201 11.38391 0.3101776
v -63.46201 11.38391 0.3101776
v -63.52201 11.32753 0.2896564
v -63.56201 11.34125 0.1350218
v -63.56201 11.47281 0.1829045
v -63.52201 11.38391 0.3101776
v -63.46201 11.32753 0.2896564
v -63.42201 11.34125 0.1350218
v -63.56201 11.34125 0.1350218
v -63.52201 11.32753 0.2896564
v -63.46201 11.38391 0.3101776
v -63.42201 11.47281 0.1829045
v -63.42201 11.34125 0.1350218
v -63.46201 11.32753 0.2896564
v -63.52201 11.38391 0.3101776
v -63.56201 11.47281 0.1829045
v -63.42201 11.47281 0.1829045
v -63.46201 11.38391 0.3101776
v -63.52549 -2.73512 0.2896564
v -63.4655 -2.73512 0.2896564
v -63.4655 -2.791502 0.3101776
v -63.52549 -2.791502 0.3101776
v -63.4655 -2.73512 0.2896564
v -63.4255 -2.748836 0.1350218
v -63.4255 -2.880394 0.1829045
v -63.4655 -2.791502 0.3101776
v -63.52549 -2.73512 0.2896564
v -63.5655 -2.748836 0.1350218
v -63.4255 -2.748836 0.1350218
v -63.4655 -2.73512 0.2896564
v -63.52549 -2.791502 0.3101776
v -63.5655 -2.880394 0.1829045
v -63.5655 -2.748836 0.1350218
v -63.52549 -2.73512 0.2896564
v -63.4655 -2.791502 0.3101776
v -63.4255 -2.880394 0.1829045
v -63.5655 -2.880394 0.1829045
v -63.52549 -2.791502 0.3101776
v -46.7253 -2.735115 0.2896564
v -46.6653 -2.735115 0.2896564
v -46.6653 -2.791497 0.3101776
v -46.7253 -2.791497 0.3101776
v -46.6653 -2.735115 0.2896564
v -46.6253 -2.748831 0.1350218
v -46.6253 -2.880389 0.1829045
v -46.6653 -2.791497 0.3101776
v -46.7253 -2.735115 0.2896564
v -46.7653 -2.748831 0.1350218
v -46.6253 -2.748831 0.1350218
v -46.6653 -2.735115 0.2896564
v -46.7253 -2.791497 0.3101776
v -46.7653 -2.880389 0.1829045
v -46.7653 -2.748831 0.1350218
v -46.7253 -2.735115 0.2896564
v -46.6653 -2.791497 0.3101776
v -46.6253 -2.880389 0.1829045
v -46.7653 -2.880389 0.1829045
v -46.7253 -2.791497 0.3101776
vt 0.5070654 0.5070654
vt 0.5070654 0.4929346
vt 0.4929346 0.4929346
vt 0.4929346 0.5070654
vt 0.6498501 2.5
vt 0.8496502 1.75
vt 0.1503496 1.75
vt 0.3501498 2.5
vt 0.6498501 2.5
vt 0.8496502 1.75
vt 0.1503496 1.75
vt 0.3501498 2.5
vt 0.6498501 2.5
vt 0.8496502 1.75
vt 0.1503496 1.75
vt 0.3501499 2.5
vt 0.6498501 2.5
vt 0.8496502 1.75
vt 0.1503496 1.75
vt 0.3501499 2.5
vt 0.5070654 0.5070654
vt 0.5070654 0.4929346
vt 0.4929346 0.4929346
vt 0.4929346 0.5070654
vt 0.6498501 2.5
vt 0.8496502 1.75
vt 0.1503496 1.75
vt 0.3501498 2.5
vt 0.6498501 2.5
vt 0.8496502 1.75
vt 0.1503496 1.75
vt 0.3501498 2.5
vt 0.6498501 2.5
vt 0.8496502 1.75
vt 0.1503496 1.75
vt 0.3501499 2.5
vt 0.6498501 2.5
vt 0.8496502 1.75
vt 0.1503496 1.75
vt 0.3501499 2.5
vt 0.5070654 0.5070654
vt 0.5070654 0.4929346
vt 0.4929346 0.4929346
vt 0.4929346 0.5070654
vt 0.6498501 2.5
vt 0.8496502 1.75
vt 0.1503496 1.75
vt 0.3501498 2.5
vt 0.6498501 2.5
vt 0.8496502 1.75
vt 0.1503496 1.75
vt 0.3501498 2.5
vt 0.6498501 2.5
vt 0.8496502 1.75
vt 0.1503496 1.75
vt 0.3501499 2.5
vt 0.6498501 2.5
vt 0.8496502 1.75
vt 0.1503496 1.75
vt 0.3501499 2.5
vt 0.5070654 0.5070654
vt 0.5070654 0.4929346
vt 0.4929346 0.4929346
vt 0.4929346 0.5070654
vt 0.6498501 2.5
vt 0.8496502 1.75
vt 0.1503496 1.75
vt 0.3501498 2.5
vt 0.6498501 2.5
vt 0.8496502 1.75
vt 0.1503496 1.75
vt 0.3501498 2.5
vt 0.6498501 2.5
vt 0.8496502 1.75
vt 0.1503496 1.75
vt 0.3501499 2.5
vt 0.6498501 2.5
vt 0.8496502 1.75
vt 0.1503496 1.75
vt 0.3501499 2.5
vn 0 -0.3420191 0.939693
vn 0 -0.3420191 0.939693
vn 0 -0.3420191 0.939693
vn 0 -0.3420191 0.939693
vn -0.9662351 -0.08812461 0.2421235
vn -0.9662351 -0.0881246 0.2421235
vn -0.9662351 -0.0881246 0.2421235
vn -0.9662351 -0.0881246 0.2421235
vn 0 -0.9960894 -0.08835144
vn 0 -0.9960894 -0.08835143
vn 0 -0.9960894 -0.08835142
vn 0 -0.9960894 -0.08835144
vn 0.9662331 -0.08812711 0.2421304
vn 0.9662331 -0.08812712 0.2421304
vn 0.9662331 -0.08812711 0.2421304
vn 0.9662331 -0.08812711 0.2421304
vn 0 0.8198317 0.5726045
vn 0 0.8198317 0.5726045
vn 0 0.8198317 0.5726047
vn 0 0.8198317 0.5726045
vn 0 -0.3420191 0.939693
vn 0 -0.3420191 0.939693
vn 0 -0.3420191 0.939693
vn 0 -0.3420191 0.939693
vn -0.9662351 -0.08812461 0.2421235
vn -0.9662351 -0.0881246 0.2421235
vn -0.9662351 -0.0881246 0.2421235
vn -0.9662351 -0.0881246 0.2421235
vn 0 -0.9960894 -0.08835144
vn 0 -0.9960894 -0.08835144
vn 0 -0.9960894 -0.08835144
vn 0 -0.9960894 -0.08835144
vn 0.9662351 -0.0881246 0.2421235
vn 0.9662351 -0.0881246 0.2421235
vn 0.9662351 -0.0881246 0.2421235
vn 0.9662351 -0.08812461 0.2421235
vn 0 0.8198318 0.5726045
vn 0 0.8198317 0.5726045
vn 0 0.8198317 0.5726045
vn 0 0.8198318 0.5726045
vn 0 0.3420191 0.939693
vn 0 0.3420191 0.939693
vn 0 0.3420191 0.939693
vn 0 0.3420191 0.939693
vn 0.966235 0.08812524 0.2421236
vn 0.966235 0.08812521 0.2421236
vn 0.966235 0.08812523 0.2421236
vn 0.966235 0.08812523 0.2421236
vn 0 0.9960894 -0.08835143
vn 0 0.9960894 -0.08835144
vn 0 0.9960894 -0.08835144
vn 0 0.9960894 -0.08835144
vn -0.9662311 0.08813025 0.2421374
vn -0.9662311 0.08813025 0.2421374
vn -0.9662311 0.08813026 0.2421374
vn -0.9662311 0.08813025 0.2421374
vn 0 -0.8198354 0.5725992
vn 0 -0.8198354 0.5725992
vn 0 -0.8198354 0.5725992
vn 0 -0.8198354 0.5725992
vn 0 0.3420191 0.939693
vn 0 0.3420191 0.939693
vn 0 0.3420191 0.939693
vn 0 0.3420191 0.939693
vn 0.9662331 0.08813883 0.2421265
vn 0.9662331 0.08813883 0.2421265
vn 0.9662331 0.08813883 0.2421265
vn 0.9662331 0.08813883 0.2421265
vn 0 0.9960894 -0.08835144
vn 0 0.9960894 -0.08835142
vn 0 0.9960894 -0.08835143
vn 0 0.9960894 -0.08835144
vn -0.966235 0.08811415 0.2421277
vn -0.966235 0.08811416 0.2421276
vn -0.966235 0.08811416 0.2421277
vn -0.966235 0.08811416 0.2421277
vn 0 -0.8198354 0.5725992
vn 0 -0.8198354 0.5725992
vn 0 -0.8198354 0.5725992
vn 0 -0.8198354 0.5725992
g christmas_town_night2_selfIllumination_03_0
f 3/3/3 2/2/2 1/1/1
f 4/4/4 3/3/3 1/1/1
f 7/7/7 6/6/6 5/5/5
f 8/8/8 7/7/7 5/5/5
f 11/11/11 10/10/10 9/9/9
f 12/12/12 11/11/11 9/9/9
f 15/15/15 14/14/14 13/13/13
f 16/16/16 15/15/15 13/13/13
f 19/19/19 18/18/18 17/17/17
f 20/20/20 19/19/19 17/17/17
f 23/23/23 22/22/22 21/21/21
f 24/24/24 23/23/23 21/21/21
f 27/27/27 26/26/26 25/25/25
f 28/28/28 27/27/27 25/25/25
f 31/31/31 30/30/30 29/29/29
f 32/32/32 31/31/31 29/29/29
f 35/35/35 34/34/34 33/33/33
f 36/36/36 35/35/35 33/33/33
f 39/39/39 38/38/38 37/37/37
f 40/40/40 39/39/39 37/37/37
f 43/43/43 42/42/42 41/41/41
f 44/44/44 43/43/43 41/41/41
f 47/47/47 46/46/46 45/45/45
f 48/48/48 47/47/47 45/45/45
f 51/51/51 50/50/50 49/49/49
f 52/52/52 51/51/51 49/49/49
f 55/55/55 54/54/54 53/53/53
f 56/56/56 55/55/55 53/53/53
f 59/59/59 58/58/58 57/57/57
f 60/60/60 59/59/59 57/57/57
f 63/63/63 62/62/62 61/61/61
f 64/64/64 63/63/63 61/61/61
f 67/67/67 66/66/66 65/65/65
f 68/68/68 67/67/67 65/65/65
f 71/71/71 70/70/70 69/69/69
f 72/72/72 71/71/71 69/69/69
f 75/75/75 74/74/74 73/73/73
f 76/76/76 75/75/75 73/73/73
f 79/79/79 78/78/78 77/77/77
f 80/80/80 79/79/79 77/77/77
