g Christmas_Town_snow_11
v 19.81076 -14.83264 -7.821538
v 21.81076 -16.83264 -7.821538
v 19.81075 -16.83264 -7.821538
v 21.81076 -14.83264 -7.821538
v 21.81076 -14.83264 -6.821538
v 23.81076 -16.83264 -6.821538
v 21.81076 -16.83264 -6.821538
v 23.81076 -14.83264 -6.821538
v 25.81076 -16.83264 -6.821538
v 25.81076 -14.83264 -6.821538
v 21.81076 -16.83264 -7.821538
v 23.81076 -18.83264 -7.821538
v 21.81076 -18.83264 -7.821538
v 23.81076 -16.83264 -7.821538
v 25.81076 -18.83264 -7.821538
v 25.81076 -16.83264 -7.821538
v 25.81076 -14.83264 -7.821538
v 27.81076 -16.83264 -7.821538
v 25.81076 -16.83264 -7.821538
v 27.81076 -14.83264 -7.821538
v 29.81076 -16.83264 -7.821538
v 29.81076 -14.83264 -7.821538
v 19.81076 -14.83264 -8.321538
v 19.81075 -16.83264 -7.821538
v 19.81075 -16.83264 -8.321538
v 19.81076 -14.83264 -7.821538
v 19.81075 -16.83264 -8.321538
v 21.81076 -16.83264 -7.821538
v 21.81076 -16.83264 -8.321538
v 19.81075 -16.83264 -7.821538
v 21.81076 -16.83264 -8.321538
v 21.81076 -18.83264 -7.821538
v 21.81076 -18.83264 -8.321538
v 21.81076 -16.83264 -7.821538
v 21.81076 -18.83264 -8.321538
v 23.81076 -18.83264 -7.821538
v 23.81076 -18.83264 -8.321538
v 21.81076 -18.83264 -7.821538
v 25.81076 -18.83264 -7.821538
v 25.81076 -18.83264 -8.321538
v 25.81076 -18.83264 -8.321538
v 25.81076 -16.83264 -7.821538
v 25.81076 -16.83264 -8.321538
v 25.81076 -18.83264 -7.821538
v 25.81076 -16.83264 -8.321538
v 27.81076 -16.83264 -7.821538
v 27.81076 -16.83264 -8.321538
v 25.81076 -16.83264 -7.821538
v 29.81076 -16.83264 -7.821538
v 29.81076 -16.83264 -8.321538
v 29.81076 -16.83264 -8.321538
v 29.81076 -14.83264 -7.821538
v 29.81076 -14.83264 -8.321538
v 29.81076 -16.83264 -7.821538
v 21.81076 -14.83264 -7.821538
v 21.81076 -16.83264 -7.321538
v 21.81076 -16.83264 -7.821538
v 21.81076 -14.83264 -7.321538
v 21.81076 -16.83264 -6.821538
v 21.81076 -14.83264 -6.821538
v 21.81076 -16.83264 -7.821538
v 23.81076 -16.83264 -7.321538
v 23.81076 -16.83264 -7.821538
v 21.81076 -16.83264 -7.321538
v 25.81076 -16.83264 -7.321538
v 25.81076 -16.83264 -7.821538
v 23.81076 -16.83264 -6.821538
v 21.81076 -16.83264 -6.821538
v 25.81076 -16.83264 -6.821538
v 25.81076 -16.83264 -7.821538
v 25.81076 -14.83264 -7.321538
v 25.81076 -14.83264 -7.821538
v 25.81076 -16.83264 -7.321538
v 25.81076 -14.83264 -6.821538
v 25.81076 -16.83264 -6.821538
v 23.81076 -14.83264 -7.321538
v 21.81076 -14.83264 -6.821538
v 21.81076 -14.83264 -7.321538
v 23.81076 -14.83264 -6.821538
v 25.81076 -14.83264 -7.321538
v 25.81076 -14.83264 -6.821538
vt 1.5 -0.500001
vt 3.5 1.499999
vt 3.5 -0.5000014
vt 1.5 1.499999
vt 1.5 1.499999
vt 3.5 3.499999
vt 3.5 1.499999
vt 1.5 3.499999
vt 3.500004 5.499998
vt 1.500004 5.499999
vt 3.5 1.499999
vt 5.5 3.499998
vt 5.5 1.499998
vt 3.5 3.499999
vt 5.500004 5.499998
vt 3.500004 5.499998
vt 1.500004 5.499999
vt 3.500004 7.499998
vt 3.500004 5.499998
vt 1.500004 7.499999
vt 3.500004 9.499998
vt 1.500004 9.499999
vt 1.5 -0.25
vt 3.5 0.25
vt 3.5 -0.25
vt 1.5 0.25
vt -0.5000014 -0.25
vt 1.499999 0.25
vt 1.499999 -0.25
vt -0.5000014 0.25
vt 3.5 -0.25
vt 5.5 0.25
vt 5.5 -0.25
vt 3.5 0.25
vt 1.499998 -0.25
vt 3.499998 0.25
vt 3.499998 -0.25
vt 1.499998 0.25
vt 5.499998 0.25
vt 5.499998 -0.25
vt -4.500004 -0.25
vt -2.500004 0.25
vt -2.500004 -0.25
vt -4.500004 0.25
vt 5.499998 -0.25
vt 7.499998 0.25
vt 7.499998 -0.25
vt 5.499998 0.25
vt 9.499998 0.25
vt 9.499998 -0.25
vt -2.500004 -0.25
vt -0.5000038 0.25
vt -0.5000038 -0.25
vt -2.500004 0.25
vt 1.5 0.25
vt 3.5 0.75
vt 3.5 0.25
vt 1.5 0.75
vt 3.5 1.25
vt 1.5 1.25
vt 1.499999 0.25
vt 3.499999 0.75
vt 3.499999 0.25
vt 1.499999 0.75
vt 5.499998 0.75
vt 5.499998 0.25
vt 3.499999 1.25
vt 1.499999 1.25
vt 5.499998 1.25
vt -2.500004 0.25
vt -0.5000038 0.75
vt -0.5000038 0.25
vt -2.500004 0.75
vt -0.5000038 1.25
vt -2.500004 1.25
vt -2.499999 0.75
vt -0.499999 1.25
vt -0.499999 0.75
vt -2.499999 1.25
vt -4.499999 0.75
vt -4.499999 1.25
vn 0 0 1
vn 0 0 1
vn 0 0 1
vn 0 0 1
vn 0 0 1
vn 0 0 1
vn 0 0 1
vn 0 0 1
vn 0 0 1
vn 0 0 1
vn 0 0 1
vn 0 0 1
vn 0 0 1
vn 0 0 1
vn 0 0 1
vn 0 0 1
vn 0 0 1
vn 0 0 1
vn 0 0 1
vn 0 0 1
vn 0 0 1
vn 0 0 1
vn -1 3.051758E-07 0
vn -1 3.051758E-07 0
vn -1 3.051758E-07 0
vn -1 3.051758E-07 0
vn 0 -1 0
vn 0 -1 0
vn 0 -1 0
vn 0 -1 0
vn -1 3.051758E-07 0
vn -1 3.051758E-07 0
vn -1 3.051758E-07 0
vn -1 1.525879E-07 0
vn 0 -1 0
vn 0 -1 0
vn 0 -1 0
vn 0 -1 0
vn 0 -1 0
vn 0 -1 0
vn 1 -3.051758E-07 0
vn 1 -1.525879E-07 0
vn 1 -3.051758E-07 0
vn 1 -3.051758E-07 0
vn 0 -1 0
vn 0 -1 0
vn 0 -1 0
vn 0 -1 0
vn 0 -1 0
vn 0 -1 0
vn 1 0 0
vn 1 0 0
vn 1 0 0
vn 1 0 0
vn -1 0 0
vn -1 0 0
vn -1 1.525879E-07 0
vn -1 0 0
vn -1 0 0
vn -1 0 0
vn 0 -1 0
vn 0 -1 0
vn 0 -1 0
vn 0 -1 0
vn 0 -1 0
vn 0 -1 0
vn 0 -1 0
vn 0 -1 0
vn 0 -1 0
vn 1 -1.525879E-07 0
vn 1 0 0
vn 1 0 0
vn 1 0 0
vn 1 0 0
vn 1 0 0
vn 0 1 0
vn 0 1 0
vn 0 1 0
vn 0 1 0
vn 0 1 0
vn 0 1 0
g Christmas_Town_snow_11_0
f 3/3/3 2/2/2 1/1/1
f 4/4/4 1/1/1 2/2/2
f 7/7/7 6/6/6 5/5/5
f 8/8/8 5/5/5 6/6/6
f 6/6/6 9/9/9 8/8/8
f 10/10/10 8/8/8 9/9/9
f 13/13/13 12/12/12 11/11/11
f 14/14/14 11/11/11 12/12/12
f 12/12/12 15/15/15 14/14/14
f 16/16/16 14/14/14 15/15/15
f 19/19/19 18/18/18 17/17/17
f 20/20/20 17/17/17 18/18/18
f 18/18/18 21/21/21 20/20/20
f 22/22/22 20/20/20 21/21/21
f 25/25/25 24/24/24 23/23/23
f 26/26/26 23/23/23 24/24/24
f 29/29/29 28/28/28 27/27/27
f 30/30/30 27/27/27 28/28/28
f 33/33/33 32/32/32 31/31/31
f 34/34/34 31/31/31 32/32/32
f 37/37/37 36/36/36 35/35/35
f 38/38/38 35/35/35 36/36/36
f 36/36/36 37/37/37 39/39/39
f 40/40/40 39/39/39 37/37/37
f 43/43/43 42/42/42 41/41/41
f 44/44/44 41/41/41 42/42/42
f 47/47/47 46/46/46 45/45/45
f 48/48/48 45/45/45 46/46/46
f 46/46/46 47/47/47 49/49/49
f 50/50/50 49/49/49 47/47/47
f 53/53/53 52/52/52 51/51/51
f 54/54/54 51/51/51 52/52/52
f 57/57/57 56/56/56 55/55/55
f 58/58/58 55/55/55 56/56/56
f 56/56/56 59/59/59 58/58/58
f 60/60/60 58/58/58 59/59/59
f 63/63/63 62/62/62 61/61/61
f 64/64/64 61/61/61 62/62/62
f 62/62/62 63/63/63 65/65/65
f 66/66/66 65/65/65 63/63/63
f 62/62/62 67/67/67 64/64/64
f 68/68/68 64/64/64 67/67/67
f 65/65/65 69/69/69 62/62/62
f 67/67/67 62/62/62 69/69/69
f 72/72/72 71/71/71 70/70/70
f 73/73/73 70/70/70 71/71/71
f 71/71/71 74/74/74 73/73/73
f 75/75/75 73/73/73 74/74/74
f 78/78/78 77/77/77 76/76/76
f 79/79/79 76/76/76 77/77/77
f 76/76/76 79/79/79 80/80/80
f 81/81/81 80/80/80 79/79/79
