g Christmas_Dinner_Swing
v -250.2623 -340.6952 -10.85584
v -249.8493 -340.4444 -18.88778
v -247.5384 -339.9121 -11.80319
v -252.5733 -341.2275 -17.94043
v -206.908 -343.6359 -35.27333
v -211.0907 -329.2914 -36.4687
v -206.908 -343.6359 -36.46869
v -211.0907 -329.2914 -35.27335
v -212.2383 -329.626 -35.27335
v -211.0907 -329.2914 -36.4687
v -211.0907 -329.2914 -35.27335
v -212.2383 -329.626 -36.4687
v -249.4474 -355.8209 -21.01505
v -171.7797 -317.949 -49.19491
v -253.4977 -341.4403 -20.77432
v -167.7295 -332.3294 -49.43568
v -170.8553 -317.736 -46.36108
v -164.4942 -331.5843 -39.51722
v -168.5444 -317.2037 -39.27645
v -166.8051 -332.1166 -46.60185
v -168.5444 -317.2037 -39.27645
v -173.5792 -318.519 -45.41373
v -170.8553 -317.736 -46.36108
v -171.2684 -317.9869 -38.3291
v -167.7295 -332.3294 -49.43568
v -170.8553 -317.736 -46.36108
v -171.7797 -317.949 -49.19491
v -166.8051 -332.1166 -46.60185
v -253.4977 -341.4403 -20.77432
v -170.8553 -317.736 -46.36108
v -252.5733 -341.2275 -17.94043
v -171.7797 -317.949 -49.19491
v -166.8051 -332.1166 -46.60185
v -252.5733 -341.2275 -17.94043
v -170.8553 -317.736 -46.36108
v -248.5231 -355.608 -18.18123
v -246.2121 -355.0757 -11.09662
v -247.5384 -339.9121 -11.80319
v -243.4882 -354.2926 -12.04395
v -250.2623 -340.6952 -10.85584
v -171.2684 -317.9869 -38.3291
v -164.4942 -331.5843 -39.51722
v -167.2181 -332.3673 -38.56986
v -168.5444 -317.2037 -39.27645
v -167.2181 -332.3673 -38.56986
v -173.5792 -318.519 -45.41373
v -171.2684 -317.9869 -38.3291
v -169.529 -332.8996 -45.65448
v -246.2121 -355.0757 -11.09662
v -252.5733 -341.2275 -17.94043
v -250.2623 -340.6952 -10.85584
v -252.5733 -341.2275 -17.94043
v -248.5231 -355.608 -18.18123
v -249.4474 -355.8209 -21.01505
v -252.5733 -341.2275 -17.94043
v -248.5231 -355.608 -18.18123
v -253.4977 -341.4403 -20.77432
v -203.8957 -342.7576 -36.46869
v -208.0783 -328.413 -49.62527
v -203.8956 -342.7576 -49.62526
v -208.0784 -328.413 -36.4687
v -208.0784 -328.413 -36.4687
v -215.2506 -330.5043 -49.62527
v -208.0783 -328.413 -49.62527
v -215.2506 -330.5043 -36.4687
v -203.8957 -342.7576 -36.46869
v -215.2506 -330.5043 -36.4687
v -208.0784 -328.413 -36.4687
v -211.0679 -344.8489 -36.46868
v -249.8493 -340.4444 -18.88778
v -248.5231 -355.608 -18.18123
v -245.7991 -354.8249 -19.12858
v -248.5231 -355.608 -20.677
v -249.8493 -340.4444 -21.38355
v -252.5733 -341.2275 -20.4362
v -173.5792 -318.519 -47.90949
v -166.8051 -332.1166 -49.09761
v -170.8553 -317.736 -48.85685
v -166.8051 -332.1166 -46.60185
v -173.5792 -318.519 -45.41373
v -169.529 -332.8996 -45.65448
v -243.4882 -354.2926 -12.04395
v -249.8493 -340.4444 -18.88778
v -245.7991 -354.8249 -19.12858
v -247.5384 -339.9121 -11.80319
v -206.908 -343.6359 -36.46869
v -212.2383 -329.626 -36.4687
v -208.0556 -343.9705 -36.46868
v -211.0907 -329.2914 -36.4687
v -206.908 -343.6359 -35.27333
v -212.2383 -329.626 -35.27335
v -211.0907 -329.2914 -35.27335
v -208.0556 -343.9705 -35.27333
vt 0.2245611 0.8168142
vt 0.2272438 0.8240664
vt 0.2274318 0.8168893
vt 0.224373 0.8239914
vt 0.3087406 0.8168142
vt 0.310683 0.824859
vt 0.310683 0.8168142
vt 0.3087406 0.824859
vt 0.3087406 0.8255029
vt 0.310683 0.824859
vt 0.3087406 0.824859
vt 0.310683 0.8255029
vt 0.2245611 0.8321134
vt 0.3105278 0.8168142
vt 0.2244059 0.8177549
vt 0.310683 0.8311726
vt 0.3035058 0.8168257
vt 0.3106219 0.8312126
vt 0.310683 0.8168542
vt 0.3034447 0.8311841
vt 0.310683 0.8190676
vt 0.3076242 0.8261696
vt 0.310495 0.8262448
vt 0.3078123 0.8189924
vt 0.3005738 0.8311727
vt 0.3035058 0.8168257
vt 0.3006349 0.8168142
vt 0.3034447 0.8311841
vt 0.2242978 0.8268623
vt 0.310495 0.8262448
vt 0.224373 0.8239914
vt 0.3104197 0.8291155
vt 0.6757813 0.9472656
vt 0.5888672 0.9609375
vt 0.6757813 0.9619141
vt 0.5898438 0.9462891
vt 0.5898438 0.9462891
vt 0.5927734 0.9609375
vt 0.5927734 0.9462891
vt 0.5898438 0.9609375
vt 0.6728516 0.9619141
vt 0.6757813 0.9472656
vt 0.6728516 0.9472656
vt 0.6757813 0.9619141
vt 0.3035059 0.8312013
vt 0.3106219 0.8168142
vt 0.3034447 0.8168429
vt 0.310683 0.8311728
vt 0.300635 0.8312125
vt 0.307751 0.8168256
vt 0.3005738 0.8168541
vt 0.307751 0.8168256
vt 0.3078121 0.8311841
vt 0.310683 0.8311727
vt 0.307751 0.8168256
vt 0.3078121 0.8311841
vt 0.3106218 0.8168142
vt 0.310683 0.8168142
vt 0.3023953 0.8255022
vt 0.310683 0.8255022
vt 0.3023953 0.8168142
vt 0.3023953 0.8168142
vt 0.2982508 0.8255022
vt 0.3023953 0.8255022
vt 0.2982508 0.8168142
vt 0.310683 0.8226391
vt 0.298962 0.8168142
vt 0.298962 0.8226391
vt 0.310683 0.8168142
vt 0.3105278 0.8168142
vt 0.3078124 0.8312041
vt 0.310683 0.8311727
vt 0.3078124 0.8312041
vt 0.3105278 0.8168142
vt 0.307657 0.8168457
vt 0.3076571 0.8168455
vt 0.310683 0.8311727
vt 0.3105278 0.8168142
vt 0.310683 0.8311727
vt 0.3076571 0.8168455
vt 0.3078123 0.8312041
vt 0.3106219 0.8312011
vt 0.3035059 0.8168142
vt 0.3034447 0.8311727
vt 0.310683 0.8168427
vt 0.310683 0.8168142
vt 0.2992369 0.8177243
vt 0.310683 0.8177243
vt 0.2992369 0.8168142
vt 0.310683 0.8177243
vt 0.2992369 0.8168142
vt 0.2992369 0.8177243
vt 0.310683 0.8168142
vn -0.2710736 0.9624236 0.01612071
vn -0.2710737 0.9624236 0.01612071
vn -0.2710737 0.9624236 0.01612071
vn -0.2711013 0.9624158 0.01611904
vn 0.9600209 0.2799283 0
vn 0.9600209 0.2799283 0
vn 0.9600209 0.2799283 0
vn 0.9600209 0.2799283 0
vn -0.2799166 0.9600243 0
vn -0.2799167 0.9600243 0
vn -0.2799167 0.9600243 0
vn -0.2799167 0.9600243 0
vn -0.309322 -0.07124548 -0.9482847
vn -0.309322 -0.07124548 -0.9482847
vn -0.309322 -0.07124549 -0.9482847
vn -0.3093231 -0.07124316 -0.9482846
vn 0.9115067 0.2620283 -0.3170123
vn 0.9115066 0.2620282 -0.3170124
vn 0.9115066 0.2620282 -0.3170123
vn 0.9115066 0.2620282 -0.3170125
vn -0.2710607 0.9624274 0.01610781
vn -0.2710607 0.9624274 0.01610781
vn -0.2710607 0.9624274 0.01610781
vn -0.2710862 0.9624199 0.01613038
vn 0.911501 0.2620306 -0.3170266
vn 0.911501 0.2620306 -0.3170266
vn 0.911501 0.2620306 -0.3170266
vn 0.9115076 0.2620285 -0.3170096
vn -0.2710519 0.9624292 0.0161543
vn -0.2710519 0.9624292 0.0161543
vn -0.2710519 0.9624292 0.0161543
vn -0.2710674 0.9624256 0.01610073
vn 0.3093234 0.07124216 0.9482846
vn 0.3093234 0.07124215 0.9482846
vn 0.3093234 0.07124215 0.9482846
vn 0.3093234 0.07124182 0.9482846
vn 0.3093168 0.07124221 0.9482867
vn 0.3093168 0.07124221 0.9482867
vn 0.3093168 0.07124221 0.9482867
vn 0.3093227 0.07124262 0.9482847
vn 0.3093277 0.07124637 0.9482829
vn 0.3093277 0.07124637 0.9482829
vn 0.3093277 0.07124638 0.9482829
vn 0.3093163 0.07124036 0.948287
vn -0.911509 -0.2620356 0.3169995
vn -0.911509 -0.2620356 0.3169995
vn -0.911509 -0.2620356 0.3169995
vn -0.9115062 -0.2620268 0.3170148
vn -0.9115036 -0.2620312 0.3170184
vn -0.9115036 -0.2620313 0.3170184
vn -0.9115037 -0.2620313 0.3170184
vn -0.9115042 -0.262033 0.3170156
vn -0.9115042 -0.262033 0.3170156
vn -0.9115059 -0.2620333 0.3170104
vn -0.9115058 -0.2620333 0.3170104
vn -0.9115059 -0.2620333 0.3170104
vn -0.9115114 -0.2620314 0.3169959
vn 0.9600207 0.2799291 0
vn 0.9600207 0.2799291 0
vn 0.9600207 0.2799291 0
vn 0.9600207 0.2799291 0
vn -0.2799325 0.9600197 0
vn -0.2799325 0.9600197 0
vn -0.2799325 0.9600197 0
vn -0.2799335 0.9600194 0
vn 0 0 1
vn 0 0 1
vn 0 0 1
vn 0 0 1
vn -0.3093204 -0.07124028 -0.9482856
vn -0.3093204 -0.07124028 -0.9482856
vn -0.3093204 -0.07124028 -0.9482856
vn -0.3093179 -0.0712401 -0.9482865
vn -0.3093179 -0.0712401 -0.9482865
vn -0.3093179 -0.07124009 -0.9482865
vn -0.3093282 -0.07124431 -0.9482828
vn -0.3093282 -0.07124431 -0.9482828
vn -0.3093282 -0.0712443 -0.9482828
vn -0.3093322 -0.07124583 -0.9482815
vn -0.3093321 -0.07124582 -0.9482815
vn -0.3093321 -0.07124583 -0.9482815
vn 0.911506 0.2620308 -0.3170122
vn 0.911506 0.2620308 -0.3170122
vn 0.911506 0.2620308 -0.3170122
vn 0.911506 0.2620309 -0.3170121
vn 0 0 -1
vn 0 0 -1
vn 0 0 -1
vn 0 0 -1
vn 0 0 1
vn 0 0 1
vn 0 0 1
vn 0 0 1
g Christmas_Dinner_Swing_0
f 3/3/3 2/2/2 1/1/1
f 4/4/4 1/1/1 2/2/2
f 7/7/7 6/6/6 5/5/5
f 8/8/8 5/5/5 6/6/6
f 11/11/11 10/10/10 9/9/9
f 12/12/12 9/9/9 10/10/10
f 15/15/15 14/14/14 13/13/13
f 16/16/16 13/13/13 14/14/14
f 19/19/19 18/18/18 17/17/17
f 20/20/20 17/17/17 18/18/18
f 23/23/23 22/22/22 21/21/21
f 24/24/24 21/21/21 22/22/22
f 27/27/27 26/26/26 25/25/25
f 28/28/28 25/25/25 26/26/26
f 31/31/31 30/30/30 29/29/29
f 32/32/32 29/29/29 30/30/30
f 35/35/35 34/34/34 33/33/33
f 36/36/36 33/33/33 34/34/34
f 39/39/39 38/38/38 37/37/37
f 40/40/40 37/37/37 38/38/38
f 43/43/43 42/42/42 41/41/41
f 44/44/44 41/41/41 42/42/42
f 47/47/47 46/46/46 45/45/45
f 48/48/48 45/45/45 46/46/46
f 51/51/51 50/50/50 49/49/49
f 53/53/53 49/49/49 52/52/52
f 56/56/56 55/55/55 54/54/54
f 57/57/57 54/54/54 55/55/55
f 60/60/60 59/59/59 58/58/58
f 61/61/61 58/58/58 59/59/59
f 64/64/64 63/63/63 62/62/62
f 65/65/65 62/62/62 63/63/63
f 68/68/68 67/67/67 66/66/66
f 69/69/69 66/66/66 67/67/67
f 72/72/72 71/71/71 70/70/70
f 75/75/75 74/74/74 73/73/73
f 78/78/78 77/77/77 76/76/76
f 81/81/81 80/80/80 79/79/79
f 84/84/84 83/83/83 82/82/82
f 85/85/85 82/82/82 83/83/83
f 88/88/88 87/87/87 86/86/86
f 89/89/89 86/86/86 87/87/87
f 92/92/92 91/91/91 90/90/90
f 93/93/93 90/90/90 91/91/91
