g Christmas_Dinner_Chair01
v 25.83995 -29.33884 -19.42187
v 41.83903 -48.4058 -19.42179
v 43.37298 -30.87278 -19.42186
v 24.30601 -46.87185 -19.4218
v 25.83995 -29.33884 -17.66187
v 41.83903 -48.4058 -17.66179
v 24.30601 -46.87185 -17.6618
v 43.37298 -30.87278 -17.66186
v 41.83903 -48.4058 -17.66179
v 24.30601 -46.87185 -19.4218
v 24.30601 -46.87185 -17.6618
v 41.83903 -48.4058 -19.42179
v 43.37298 -30.87278 -17.66186
v 41.83903 -48.4058 -19.42179
v 41.83903 -48.4058 -17.66179
v 43.37298 -30.87278 -19.42186
v 25.83995 -29.33884 -17.66187
v 43.37298 -30.87278 -19.42186
v 43.37298 -30.87278 -17.66186
v 25.83995 -29.33884 -19.42187
v 25.83995 -29.33884 -17.66187
v 24.30601 -46.87185 -19.4218
v 25.83995 -29.33884 -19.42187
v 24.30601 -46.87185 -17.6618
v 26.28941 -44.39534 -22.94181
v 27.36316 -32.12218 -19.42185
v 26.28941 -44.39532 -19.42181
v 27.36316 -32.1222 -22.94185
v 39.36247 -46.42244 -22.9418
v 27.08936 -45.34866 -19.42181
v 39.36247 -46.42241 -19.4218
v 27.08936 -45.34867 -22.9418
v 40.31582 -45.62247 -19.42181
v 41.38958 -33.34937 -22.94185
v 40.31582 -45.62249 -22.9418
v 41.38958 -33.34934 -19.42185
v 28.31651 -31.32226 -22.94186
v 40.58963 -32.39601 -19.42185
v 28.31651 -31.32224 -19.42186
v 40.58963 -32.39603 -22.94185
v 27.16605 -44.47196 -1.821815
v 25.25935 -46.07185 -1.821805
v 25.41274 -44.31857 -1.821815
v 27.01266 -46.22525 -1.821805
v 25.25935 -46.07199 -37.02181
v 27.01266 -46.22525 -1.821805
v 27.01266 -46.22538 -37.02181
v 25.25935 -46.07185 -1.821805
v 27.16605 -44.47196 -1.821815
v 27.01266 -46.22538 -37.02181
v 27.01266 -46.22525 -1.821805
v 27.16605 -44.4721 -37.02181
v 25.41274 -44.3187 -37.02181
v 27.16605 -44.47196 -1.821815
v 25.41274 -44.31857 -1.821815
v 27.16605 -44.4721 -37.02181
v 25.41274 -44.31857 -1.821815
v 25.25935 -46.07199 -37.02181
v 25.41274 -44.3187 -37.02181
v 25.25935 -46.07185 -1.821805
v 26.6399 -30.29224 -37.02186
v 28.3932 -30.44558 -19.42186
v 26.6399 -30.29219 -19.42186
v 28.39321 -30.44564 -37.02186
v 26.6399 -30.29219 -19.42186
v 26.4865 -32.04556 -37.02186
v 26.6399 -30.29224 -37.02186
v 26.4865 -32.04548 -19.42185
v 41.19247 -45.69908 -1.82181
v 39.28577 -47.29899 -1.821804
v 39.43917 -45.54568 -1.82181
v 41.03908 -47.45238 -1.8218
v 39.28577 -47.29913 -37.0218
v 41.03908 -47.45238 -1.8218
v 41.03908 -47.45251 -37.0218
v 39.28577 -47.29899 -1.821804
v 41.19247 -45.69908 -1.82181
v 41.03908 -47.45251 -37.0218
v 41.03908 -47.45238 -1.8218
v 41.19247 -45.69922 -37.02181
v 39.43917 -45.54582 -37.02181
v 41.19247 -45.69908 -1.82181
v 39.43917 -45.54568 -1.82181
v 41.19247 -45.69922 -37.02181
v 39.43917 -45.54568 -1.82181
v 39.28577 -47.29913 -37.0218
v 39.43917 -45.54582 -37.02181
v 39.28577 -47.29899 -1.821804
v 42.41962 -31.67276 -19.42186
v 42.26622 -33.42613 -37.02185
v 42.26622 -33.42605 -19.42185
v 42.41962 -31.67284 -37.02186
v 40.66633 -31.51944 -37.02186
v 42.41962 -31.67276 -19.42186
v 40.66633 -31.51936 -19.42186
v 42.41962 -31.67284 -37.02186
v 42.14581 -44.89914 -7.101811
v 24.5361 -44.24183 -7.101813
v 42.06911 -45.77579 -7.101806
v 24.6128 -43.3652 -7.101817
v 42.14581 -44.89912 -0.9418092
v 24.5361 -44.24181 -0.9418138
v 24.6128 -43.36517 -0.9418145
v 42.06911 -45.77576 -0.9418085
v 42.06911 -45.77576 -0.9418085
v 24.5361 -44.24183 -7.101813
v 24.5361 -44.24181 -0.9418138
v 42.06911 -45.77579 -7.101806
v 42.06911 -45.77579 -7.101806
v 42.14581 -44.89912 -0.9418092
v 42.14581 -44.89914 -7.101811
v 42.06911 -45.77576 -0.9418085
v 24.6128 -43.36517 -0.9418145
v 42.14581 -44.89914 -7.101811
v 42.14581 -44.89912 -0.9418092
v 24.6128 -43.3652 -7.101817
v 24.5361 -44.24181 -0.9418138
v 24.6128 -43.3652 -7.101817
v 24.6128 -43.36517 -0.9418145
v 24.5361 -44.24183 -7.101813
v 27.16606 -44.47202 -19.42181
v 27.36316 -32.12218 -19.42185
v 28.23981 -32.19888 -19.42185
v 26.28941 -44.39532 -19.42181
v 27.16606 -44.47204 -22.94181
v 27.36316 -32.1222 -22.94185
v 26.28941 -44.39534 -22.94181
v 28.23981 -32.19891 -22.94185
v 27.16606 -44.47204 -22.94181
v 26.28941 -44.39532 -19.42181
v 27.16606 -44.47202 -19.42181
v 26.28941 -44.39534 -22.94181
v 27.16606 -44.47202 -19.42181
v 28.23981 -32.19891 -22.94185
v 27.16606 -44.47204 -22.94181
v 28.23981 -32.19888 -19.42185
v 27.36316 -32.1222 -22.94185
v 28.23981 -32.19888 -19.42185
v 27.36316 -32.12218 -19.42185
v 28.23981 -32.19891 -22.94185
v 39.43916 -45.54579 -19.42181
v 27.08936 -45.34866 -19.42181
v 27.16606 -44.472 -19.42181
v 39.36247 -46.42241 -19.4218
v 39.43916 -45.54581 -22.9418
v 27.08936 -45.34867 -22.9418
v 39.36247 -46.42244 -22.9418
v 27.16606 -44.47202 -22.94181
v 39.43916 -45.54581 -22.9418
v 39.36247 -46.42241 -19.4218
v 39.43916 -45.54579 -19.42181
v 39.36247 -46.42244 -22.9418
v 27.16606 -44.47202 -22.94181
v 39.43916 -45.54579 -19.42181
v 27.16606 -44.472 -19.42181
v 39.43916 -45.54581 -22.9418
v 27.08936 -45.34867 -22.9418
v 27.16606 -44.472 -19.42181
v 27.08936 -45.34866 -19.42181
v 27.16606 -44.47202 -22.94181
v 41.38958 -33.34934 -19.42185
v 39.43917 -45.54577 -19.42181
v 40.51293 -33.27264 -19.42185
v 40.31582 -45.62247 -19.42181
v 41.38958 -33.34937 -22.94185
v 39.43917 -45.5458 -22.9418
v 40.31582 -45.62249 -22.9418
v 40.51293 -33.27266 -22.94185
v 39.43917 -45.5458 -22.9418
v 40.51293 -33.27264 -19.42185
v 39.43917 -45.54577 -19.42181
v 40.51293 -33.27266 -22.94185
v 40.31582 -45.62249 -22.9418
v 39.43917 -45.54577 -19.42181
v 40.31582 -45.62247 -19.42181
v 39.43917 -45.5458 -22.9418
v 40.51293 -33.27266 -22.94185
v 41.38958 -33.34934 -19.42185
v 40.51293 -33.27264 -19.42185
v 41.38958 -33.34937 -22.94185
v 40.51293 -33.27264 -19.42185
v 28.31651 -31.32224 -19.42186
v 40.58963 -32.39601 -19.42185
v 28.23981 -32.19888 -19.42185
v 40.51293 -33.27266 -22.94185
v 28.31651 -31.32226 -22.94186
v 28.23981 -32.19891 -22.94185
v 40.58963 -32.39603 -22.94185
v 40.51293 -33.27266 -22.94185
v 28.23981 -32.19888 -19.42185
v 40.51293 -33.27264 -19.42185
v 28.23981 -32.19891 -22.94185
v 40.58963 -32.39603 -22.94185
v 40.51293 -33.27264 -19.42185
v 40.58963 -32.39601 -19.42185
v 40.51293 -33.27266 -22.94185
v 28.23981 -32.19891 -22.94185
v 28.31651 -31.32224 -19.42186
v 28.23981 -32.19888 -19.42185
v 28.31651 -31.32226 -22.94186
v 26.6399 -30.29219 -19.42186
v 28.23981 -32.19888 -19.42185
v 26.4865 -32.04548 -19.42185
v 28.3932 -30.44558 -19.42186
v 26.4865 -32.04556 -37.02186
v 28.23981 -32.19888 -19.42185
v 28.23981 -32.19896 -37.02186
v 26.4865 -32.04548 -19.42185
v 28.3932 -30.44558 -19.42186
v 28.23981 -32.19896 -37.02186
v 28.23981 -32.19888 -19.42185
v 28.39321 -30.44564 -37.02186
v 40.51293 -33.27266 -19.42185
v 42.41962 -31.67276 -19.42186
v 42.26622 -33.42605 -19.42185
v 40.66633 -31.51936 -19.42186
v 40.51293 -33.27266 -19.42185
v 42.26622 -33.42613 -37.02185
v 40.51293 -33.27274 -37.02185
v 42.26622 -33.42605 -19.42185
v 40.66633 -31.51936 -19.42186
v 40.51293 -33.27274 -37.02185
v 40.66633 -31.51944 -37.02186
v 40.51293 -33.27266 -19.42185
vt 0.02246094 0.8308008
vt 0.004882813 0.848379
vt 0.02246094 0.848379
vt 0.004882813 0.8308008
vt 0.02246094 0.8308008
vt 0.004882813 0.848379
vt 0.004882813 0.8308008
vt 0.02246094 0.848379
vt 0.006835938 0.848379
vt 0.004882813 0.8308008
vt 0.006835938 0.8308008
vt 0.004882813 0.848379
vt 0.006835938 0.848379
vt 0.004882813 0.8308008
vt 0.006835938 0.8308008
vt 0.004882813 0.848379
vt 0.006835938 0.8308008
vt 0.004882813 0.848379
vt 0.006835938 0.848379
vt 0.004882813 0.8308008
vt 0.006835938 0.848379
vt 0.004882813 0.8308008
vt 0.004882813 0.848379
vt 0.006835938 0.8308008
vt 0.07519531 0.1813868
vt 0.07910156 0.1931055
vt 0.07910156 0.1813868
vt 0.07519531 0.1931055
vt 0.07519531 0.1931055
vt 0.07910156 0.1813868
vt 0.07910156 0.1931055
vt 0.07519531 0.1813868
vt 0.07910156 0.1813868
vt 0.07519531 0.1931055
vt 0.07519531 0.1813868
vt 0.07910156 0.1931055
vt 0.07519531 0.1813868
vt 0.07910156 0.1931055
vt 0.07910156 0.1813868
vt 0.07519531 0.1931055
vt 0.07714844 0.1931055
vt 0.07519531 0.1911524
vt 0.07714844 0.1911524
vt 0.07519531 0.1931055
vt 0.07519531 0.1911524
vt 0.1103516 0.1931055
vt 0.07519531 0.1931055
vt 0.1103516 0.1911524
vt 0.1103516 0.1931055
vt 0.07519531 0.1911524
vt 0.1103516 0.1911524
vt 0.07519531 0.1931055
vt 0.07519531 0.1911524
vt 0.1103516 0.1931055
vt 0.1103516 0.1911524
vt 0.07519531 0.1931055
vt 0.1103516 0.1931055
vt 0.07519531 0.1911524
vt 0.07519531 0.1931055
vt 0.1103516 0.1911524
vt 0.07519531 0.1911524
vt 0.09277344 0.1931055
vt 0.09277344 0.1911524
vt 0.07519531 0.1931055
vt 0.09277344 0.1931055
vt 0.07519531 0.1911524
vt 0.07519531 0.1931055
vt 0.09277344 0.1911524
vt 0.07714844 0.1931055
vt 0.07519531 0.1911524
vt 0.07714844 0.1911524
vt 0.07519531 0.1931055
vt 0.07519531 0.1911524
vt 0.1103516 0.1931055
vt 0.07519531 0.1931055
vt 0.1103516 0.1911524
vt 0.1103516 0.1931055
vt 0.07519531 0.1911524
vt 0.1103516 0.1911524
vt 0.07519531 0.1931055
vt 0.07519531 0.1911524
vt 0.1103516 0.1931055
vt 0.1103516 0.1911524
vt 0.07519531 0.1931055
vt 0.1103516 0.1931055
vt 0.07519531 0.1911524
vt 0.07519531 0.1931055
vt 0.1103516 0.1911524
vt 0.09277344 0.1931055
vt 0.07519531 0.1911524
vt 0.09277344 0.1911524
vt 0.07519531 0.1931055
vt 0.07519531 0.1911524
vt 0.09277344 0.1931055
vt 0.09277344 0.1911524
vt 0.07519531 0.1931055
vt 0.005859375 0.848379
vt 0.004882813 0.8308008
vt 0.004882813 0.848379
vt 0.005859375 0.8308008
vt 0.005859375 0.848379
vt 0.004882813 0.8308008
vt 0.005859375 0.8308008
vt 0.004882813 0.848379
vt 0.01074219 0.848379
vt 0.004882813 0.8308008
vt 0.01074219 0.8308008
vt 0.004882813 0.848379
vt 0.004882813 0.8474024
vt 0.01074219 0.848379
vt 0.004882813 0.848379
vt 0.01074219 0.8474024
vt 0.01074219 0.8308008
vt 0.004882813 0.848379
vt 0.01074219 0.848379
vt 0.004882813 0.8308008
vt 0.01074219 0.8474024
vt 0.004882813 0.848379
vt 0.01074219 0.848379
vt 0.004882813 0.8474024
vt 0.07519531 0.1931055
vt 0.08789063 0.192129
vt 0.08789063 0.1931055
vt 0.07519531 0.192129
vt 0.07519531 0.1931055
vt 0.08789063 0.192129
vt 0.07519531 0.192129
vt 0.08789063 0.1931055
vt 0.07519531 0.1931055
vt 0.07910156 0.192129
vt 0.07910156 0.1931055
vt 0.07519531 0.192129
vt 0.07910156 0.1813868
vt 0.07519531 0.1931055
vt 0.07519531 0.1813868
vt 0.07910156 0.1931055
vt 0.07519531 0.192129
vt 0.07910156 0.1931055
vt 0.07910156 0.192129
vt 0.07519531 0.1931055
vt 0.07617188 0.1931055
vt 0.07519531 0.1813868
vt 0.07617188 0.1813868
vt 0.07519531 0.1931055
vt 0.07617188 0.1931055
vt 0.07519531 0.1813868
vt 0.07519531 0.1931055
vt 0.07617188 0.1813868
vt 0.07519531 0.1931055
vt 0.07910156 0.192129
vt 0.07910156 0.1931055
vt 0.07519531 0.192129
vt 0.07519531 0.1813868
vt 0.07910156 0.1931055
vt 0.07910156 0.1813868
vt 0.07519531 0.1931055
vt 0.07519531 0.192129
vt 0.07910156 0.1931055
vt 0.07910156 0.192129
vt 0.07519531 0.1931055
vt 0.08789063 0.1931055
vt 0.07519531 0.192129
vt 0.08789063 0.192129
vt 0.07519531 0.1931055
vt 0.08789063 0.1931055
vt 0.07519531 0.192129
vt 0.07519531 0.1931055
vt 0.08789063 0.192129
vt 0.07519531 0.1813868
vt 0.07910156 0.1931055
vt 0.07910156 0.1813868
vt 0.07519531 0.1931055
vt 0.07519531 0.1931055
vt 0.07910156 0.192129
vt 0.07910156 0.1931055
vt 0.07519531 0.192129
vt 0.07519531 0.192129
vt 0.07910156 0.1931055
vt 0.07910156 0.192129
vt 0.07519531 0.1931055
vt 0.07519531 0.1931055
vt 0.07617188 0.1813868
vt 0.07617188 0.1931055
vt 0.07519531 0.1813868
vt 0.07519531 0.1931055
vt 0.07617188 0.1813868
vt 0.07519531 0.1813868
vt 0.07617188 0.1931055
vt 0.07519531 0.1931055
vt 0.07910156 0.1813868
vt 0.07910156 0.1931055
vt 0.07519531 0.1813868
vt 0.07519531 0.1931055
vt 0.07910156 0.192129
vt 0.07910156 0.1931055
vt 0.07519531 0.192129
vt 0.07519531 0.192129
vt 0.07910156 0.1931055
vt 0.07910156 0.192129
vt 0.07519531 0.1931055
vt 0.07714844 0.1911524
vt 0.07519531 0.1931055
vt 0.07519531 0.1911524
vt 0.07714844 0.1931055
vt 0.07519531 0.1911524
vt 0.09277344 0.1931055
vt 0.07519531 0.1931055
vt 0.09277344 0.1911524
vt 0.09277344 0.1931055
vt 0.07519531 0.1911524
vt 0.09277344 0.1911524
vt 0.07519531 0.1931055
vt 0.07519531 0.1911524
vt 0.07714844 0.1931055
vt 0.07519531 0.1931055
vt 0.07714844 0.1911524
vt 0.09277344 0.1911524
vt 0.07519531 0.1931055
vt 0.07519531 0.1911524
vt 0.09277344 0.1931055
vt 0.09277344 0.1931055
vt 0.07519531 0.1911524
vt 0.07519531 0.1931055
vt 0.09277344 0.1911524
vn 0 0 -1
vn 0 0 -1
vn 0 0 -1
vn 0 0 -1
vn 0 0 1
vn 0 0 1
vn 0 0 1
vn 0 0 1
vn -0.08715654 -0.9961946 0
vn -0.08715654 -0.9961946 0
vn -0.08715655 -0.9961946 0
vn -0.08715653 -0.9961946 0
vn 0.9961947 -0.08715631 0
vn 0.9961947 -0.0871563 0
vn 0.9961947 -0.0871563 0
vn 0.9961947 -0.08715632 0
vn 0.08715586 0.9961947 0
vn 0.08715586 0.9961947 0
vn 0.08715586 0.9961947 0
vn 0.08715586 0.9961947 0
vn -0.9961947 0.08715592 0
vn -0.9961947 0.08715593 0
vn -0.9961947 0.08715594 0
vn -0.9961947 0.08715592 0
vn -0.9961947 0.08715567 0
vn -0.9961947 0.08715567 0
vn -0.9961947 0.08715566 0
vn -0.9961947 0.08715566 0
vn -0.08715566 -0.9961947 0
vn -0.08715566 -0.9961947 0
vn -0.08715566 -0.9961947 0
vn -0.08715627 -0.9961947 0
vn 0.9961947 -0.08715585 0
vn 0.9961947 -0.08715585 0
vn 0.9961947 -0.08715585 0
vn 0.9961947 -0.08715583 0
vn 0.08715665 0.9961946 0
vn 0.08715665 0.9961946 0
vn 0.08715665 0.9961946 0
vn 0.08715711 0.9961945 0
vn 0 0 1
vn 0 0 1
vn 0 0 1
vn 0 0 1
vn -0.08715495 -0.9961948 0
vn -0.08715495 -0.9961948 0
vn -0.08715495 -0.9961948 0
vn -0.08715712 -0.9961945 0
vn 0.9961948 -0.08715464 0
vn 0.9961948 -0.08715463 0
vn 0.9961948 -0.08715463 0
vn 0.9961948 -0.08715484 0
vn 0.08715701 0.9961945 0
vn 0.087157 0.9961945 0
vn 0.08715701 0.9961945 0
vn 0.08715916 0.9961944 0
vn -0.9961949 0.08715338 0
vn -0.9961949 0.08715338 0
vn -0.9961949 0.08715338 0
vn -0.9961949 0.08715355 0
vn 0.08715495 0.9961948 0
vn 0.08715495 0.9961948 0
vn 0.08715495 0.9961948 0
vn 0.08715682 0.9961946 0
vn -0.9961946 0.08715636 0
vn -0.9961946 0.08715636 0
vn -0.9961946 0.08715636 0
vn -0.9961945 0.08715767 0
vn 0 0 1
vn 0 0 1
vn 0 0 1
vn 0 0 1
vn -0.08715281 -0.996195 0
vn -0.08715281 -0.996195 0
vn -0.08715281 -0.996195 0
vn -0.0871528 -0.996195 0
vn 0.9961945 -0.08715749 0
vn 0.9961945 -0.08715749 0
vn 0.9961945 -0.0871575 0
vn 0.9961945 -0.08715747 0
vn 0.08715693 0.9961946 0
vn 0.08715692 0.9961946 0
vn 0.08715693 0.9961946 0
vn 0.08715906 0.9961944 0
vn -0.9961948 0.08715478 0
vn -0.9961948 0.08715478 0
vn -0.9961948 0.08715478 0
vn -0.9961948 0.08715497 0
vn 0.9961943 -0.08715973 0
vn 0.9961943 -0.08715973 0
vn 0.9961943 -0.08715973 0
vn 0.9961944 -0.08715963 0
vn 0.08715748 0.9961945 0
vn 0.08715747 0.9961945 0
vn 0.08715747 0.9961945 0
vn 0.08715855 0.9961944 0
vn 0 0 -1
vn 0 0 -1
vn 0 0 -1
vn 0 0 -1
vn 0 0 1
vn 0 0 1
vn 0 0 1
vn 0 0 1
vn -0.08715679 -0.9961946 0
vn -0.08715678 -0.9961946 0
vn -0.08715679 -0.9961946 0
vn -0.08715703 -0.9961945 0
vn 0.9961945 -0.0871571 0
vn 0.9961945 -0.0871571 0
vn 0.9961945 -0.0871571 0
vn 0.9961945 -0.08715749 0
vn 0.08715614 0.9961947 0
vn 0.08715613 0.9961947 0
vn 0.08715613 0.9961947 0
vn 0.08715571 0.9961947 0
vn -0.9961946 0.08715647 0
vn -0.9961946 0.08715647 0
vn -0.9961946 0.08715647 0
vn -0.9961945 0.08715722 0
vn 0 0 1
vn 0 0 1
vn 0 0 1
vn 0 0 1
vn 0 0 -1
vn 0 0 -1
vn 0 0 -1
vn 0 0 -1
vn -0.0871573 -0.9961945 0
vn -0.0871573 -0.9961945 0
vn -0.0871573 -0.9961945 0
vn -0.0871573 -0.9961945 0
vn 0.9961947 -0.08715568 0
vn 0.9961947 -0.08715567 0
vn 0.9961947 -0.08715567 0
vn 0.9961947 -0.08715564 0
vn 0.087153 0.9961949 0
vn 0.087153 0.9961949 0
vn 0.08715299 0.9961949 0
vn 0.08716159 0.9961942 0
vn 0 0 1
vn 0 0 1
vn 0 0 1
vn 0 0 1
vn 0 0 -1
vn 0 0 -1
vn 0 0 -1
vn 0 0 -1
vn 0.9961951 -0.08715114 0
vn 0.9961951 -0.08715113 0
vn 0.9961951 -0.08715113 0
vn 0.9961951 -0.08715038 0
vn 0.08715787 0.9961945 0
vn 0.08715787 0.9961945 0
vn 0.08715788 0.9961945 0
vn 0.08715819 0.9961945 0
vn -0.9961944 0.08715926 0
vn -0.9961944 0.08715927 0
vn -0.9961944 0.08715925 0
vn -0.9961944 0.08715888 0
vn 0 0 1
vn 0 0 1
vn 0 0 1
vn 0 0 1
vn 0 0 -1
vn 0 0 -1
vn 0 0 -1
vn 0 0 -1
vn -0.9961947 0.08715586 0
vn -0.9961947 0.08715586 0
vn -0.9961947 0.08715586 0
vn -0.9961947 0.0871558 0
vn -0.08716141 -0.9961942 0
vn -0.0871614 -0.9961942 0
vn -0.08716141 -0.9961942 0
vn -0.0871528 -0.996195 0
vn 0.08715711 0.9961945 0
vn 0.08715712 0.9961945 0
vn 0.08715712 0.9961945 0
vn 0.0871614 0.9961942 0
vn 0 0 1
vn 0 0 1
vn 0 0 1
vn 0 0 1
vn 0 0 -1
vn 0 0 -1
vn 0 0 -1
vn 0 0 -1
vn -0.08715625 -0.9961947 0
vn -0.08715626 -0.9961947 0
vn -0.08715626 -0.9961947 0
vn -0.08715566 -0.9961947 0
vn 0.9961941 -0.08716292 0
vn 0.9961941 -0.08716292 0
vn 0.9961941 -0.08716291 0
vn 0.996194 -0.08716366 0
vn -0.9961953 0.08714944 0
vn -0.9961953 0.08714943 0
vn -0.9961953 0.08714944 0
vn -0.9961953 0.08714889 0
vn 0 0 1
vn 0 0 1
vn 0 0 1
vn 0 0 1
vn -0.08715665 -0.9961946 0
vn -0.08715664 -0.9961946 0
vn -0.08715664 -0.9961946 0
vn -0.08715664 -0.9961946 0
vn 0.996195 -0.0871521 0
vn 0.996195 -0.08715212 0
vn 0.996195 -0.08715212 0
vn 0.9961948 -0.0871542 0
vn 0 0 1
vn 0 0 1
vn 0 0 1
vn 0 0 1
vn -0.08715319 -0.9961949 0
vn -0.08715317 -0.9961949 0
vn -0.08715317 -0.9961949 0
vn -0.08715317 -0.9961949 0
vn -0.9961944 0.08715916 0
vn -0.9961944 0.08715916 0
vn -0.9961944 0.08715916 0
vn -0.9961944 0.08715935 0
g Christmas_Dinner_Chair01_0
f 3/3/3 2/2/2 1/1/1
f 4/4/4 1/1/1 2/2/2
f 7/7/7 6/6/6 5/5/5
f 8/8/8 5/5/5 6/6/6
f 11/11/11 10/10/10 9/9/9
f 12/12/12 9/9/9 10/10/10
f 15/15/15 14/14/14 13/13/13
f 16/16/16 13/13/13 14/14/14
f 19/19/19 18/18/18 17/17/17
f 20/20/20 17/17/17 18/18/18
f 23/23/23 22/22/22 21/21/21
f 24/24/24 21/21/21 22/22/22
f 27/27/27 26/26/26 25/25/25
f 28/28/28 25/25/25 26/26/26
f 31/31/31 30/30/30 29/29/29
f 32/32/32 29/29/29 30/30/30
f 35/35/35 34/34/34 33/33/33
f 36/36/36 33/33/33 34/34/34
f 39/39/39 38/38/38 37/37/37
f 40/40/40 37/37/37 38/38/38
f 43/43/43 42/42/42 41/41/41
f 44/44/44 41/41/41 42/42/42
f 47/47/47 46/46/46 45/45/45
f 48/48/48 45/45/45 46/46/46
f 51/51/51 50/50/50 49/49/49
f 52/52/52 49/49/49 50/50/50
f 55/55/55 54/54/54 53/53/53
f 56/56/56 53/53/53 54/54/54
f 59/59/59 58/58/58 57/57/57
f 60/60/60 57/57/57 58/58/58
f 63/63/63 62/62/62 61/61/61
f 64/64/64 61/61/61 62/62/62
f 67/67/67 66/66/66 65/65/65
f 68/68/68 65/65/65 66/66/66
f 71/71/71 70/70/70 69/69/69
f 72/72/72 69/69/69 70/70/70
f 75/75/75 74/74/74 73/73/73
f 76/76/76 73/73/73 74/74/74
f 79/79/79 78/78/78 77/77/77
f 80/80/80 77/77/77 78/78/78
f 83/83/83 82/82/82 81/81/81
f 84/84/84 81/81/81 82/82/82
f 87/87/87 86/86/86 85/85/85
f 88/88/88 85/85/85 86/86/86
f 91/91/91 90/90/90 89/89/89
f 92/92/92 89/89/89 90/90/90
f 95/95/95 94/94/94 93/93/93
f 96/96/96 93/93/93 94/94/94
f 99/99/99 98/98/98 97/97/97
f 100/100/100 97/97/97 98/98/98
f 103/103/103 102/102/102 101/101/101
f 104/104/104 101/101/101 102/102/102
f 107/107/107 106/106/106 105/105/105
f 108/108/108 105/105/105 106/106/106
f 111/111/111 110/110/110 109/109/109
f 112/112/112 109/109/109 110/110/110
f 115/115/115 114/114/114 113/113/113
f 116/116/116 113/113/113 114/114/114
f 119/119/119 118/118/118 117/117/117
f 120/120/120 117/117/117 118/118/118
f 123/123/123 122/122/122 121/121/121
f 124/124/124 121/121/121 122/122/122
f 127/127/127 126/126/126 125/125/125
f 128/128/128 125/125/125 126/126/126
f 131/131/131 130/130/130 129/129/129
f 132/132/132 129/129/129 130/130/130
f 135/135/135 134/134/134 133/133/133
f 136/136/136 133/133/133 134/134/134
f 139/139/139 138/138/138 137/137/137
f 140/140/140 137/137/137 138/138/138
f 143/143/143 142/142/142 141/141/141
f 144/144/144 141/141/141 142/142/142
f 147/147/147 146/146/146 145/145/145
f 148/148/148 145/145/145 146/146/146
f 151/151/151 150/150/150 149/149/149
f 152/152/152 149/149/149 150/150/150
f 155/155/155 154/154/154 153/153/153
f 156/156/156 153/153/153 154/154/154
f 159/159/159 158/158/158 157/157/157
f 160/160/160 157/157/157 158/158/158
f 163/163/163 162/162/162 161/161/161
f 164/164/164 161/161/161 162/162/162
f 167/167/167 166/166/166 165/165/165
f 168/168/168 165/165/165 166/166/166
f 171/171/171 170/170/170 169/169/169
f 172/172/172 169/169/169 170/170/170
f 175/175/175 174/174/174 173/173/173
f 176/176/176 173/173/173 174/174/174
f 179/179/179 178/178/178 177/177/177
f 180/180/180 177/177/177 178/178/178
f 183/183/183 182/182/182 181/181/181
f 184/184/184 181/181/181 182/182/182
f 187/187/187 186/186/186 185/185/185
f 188/188/188 185/185/185 186/186/186
f 191/191/191 190/190/190 189/189/189
f 192/192/192 189/189/189 190/190/190
f 195/195/195 194/194/194 193/193/193
f 196/196/196 193/193/193 194/194/194
f 199/199/199 198/198/198 197/197/197
f 200/200/200 197/197/197 198/198/198
f 203/203/203 202/202/202 201/201/201
f 204/204/204 201/201/201 202/202/202
f 207/207/207 206/206/206 205/205/205
f 208/208/208 205/205/205 206/206/206
f 211/211/211 210/210/210 209/209/209
f 212/212/212 209/209/209 210/210/210
f 215/215/215 214/214/214 213/213/213
f 216/216/216 213/213/213 214/214/214
f 219/219/219 218/218/218 217/217/217
f 220/220/220 217/217/217 218/218/218
f 223/223/223 222/222/222 221/221/221
f 224/224/224 221/221/221 222/222/222
