g Clown_box2__13_
v 0.6249999 -1.763312E-07 0.625
v -0.625 2.731961E-08 0.6249999
v -0.6249998 1.25 0.6250001
v 0.6250001 1.25 0.6250002
v -0.625 2.731961E-08 0.6249999
v -0.6249999 1.763312E-07 -0.625
v -0.6249997 1.25 -0.6249999
v -0.6249998 1.25 0.6250001
v -0.6249999 1.763312E-07 -0.625
v 0.625 -2.731961E-08 -0.6249999
v 0.6250002 1.25 -0.6249998
v -0.6249997 1.25 -0.6249999
v 0.625 -2.731961E-08 -0.6249999
v 0.6249999 -1.763312E-07 0.625
v 0.6250001 1.25 0.6250002
v 0.6250002 1.25 -0.6249998
v -0.625 2.731961E-08 0.6249999
v 0.6249999 -1.763312E-07 0.625
v 0.625 -2.731961E-08 -0.6249999
v -0.6249999 1.763312E-07 -0.625
v -0.6249997 1.25 -0.6249999
v 0.6250002 1.25 -0.6249998
v 0.6250001 1.25 0.6250002
v -0.6249998 1.25 0.6250001
vt 0.6181641 0.5527344
vt 0.6181641 0.5761719
vt 0.6416016 0.5761719
vt 0.6416016 0.5527344
vt 0.6181641 0.5527344
vt 0.6181641 0.5761719
vt 0.6416016 0.5761719
vt 0.6416016 0.5527344
vt 0.6181641 0.5527344
vt 0.6181641 0.5761719
vt 0.6416016 0.5761719
vt 0.6416016 0.5527344
vt 0.6181641 0.5527344
vt 0.6181641 0.5761719
vt 0.6416016 0.5761719
vt 0.6416016 0.5527344
vt 0.6181641 0.5527344
vt 0.6181641 0.5761719
vt 0.6416016 0.5761719
vt 0.6416016 0.5527344
vt 0.6181641 0.5527344
vt 0.6181641 0.5761719
vt 0.6416016 0.5761719
vt 0.6416016 0.5527344
vn 0 0 1
vn 0 0 1
vn 0 0 1
vn 0 0 1
vn -1 1.66893E-07 0
vn -1 1.907349E-07 0
vn -1 1.66893E-07 0
vn -1 1.430512E-07 0
vn 0 0 -1
vn 0 1.907349E-07 -1
vn 0 0 -1
vn 0 0 -1
vn 1 -1.66893E-07 0
vn 1 -1.430512E-07 1.525879E-07
vn 1 -1.66893E-07 0
vn 1 -1.907349E-07 0
vn -1.629207E-07 -1 -1.192093E-07
vn -1.629207E-07 -1 -1.192093E-07
vn -1.629207E-07 -1 -1.192093E-07
vn -1.629207E-07 -1 -1.192093E-07
vn 0 1 1.430511E-07
vn 0 1 1.907349E-07
vn 0 1 1.430511E-07
vn 0 1 0
g Clown_box2__13__0
f 3/3/3 2/2/2 1/1/1
f 4/4/4 3/3/3 1/1/1
f 7/7/7 6/6/6 5/5/5
f 8/8/8 7/7/7 5/5/5
f 11/11/11 10/10/10 9/9/9
f 12/12/12 11/11/11 9/9/9
f 15/15/15 14/14/14 13/13/13
f 16/16/16 15/15/15 13/13/13
f 19/19/19 18/18/18 17/17/17
f 20/20/20 19/19/19 17/17/17
f 23/23/23 22/22/22 21/21/21
f 24/24/24 23/23/23 21/21/21
