g Clown_box1__1_
v -0.75 -1.221905E-07 0.75
v -0.75 1.221905E-07 -0.75
v -0.75 4 -0.7499993
v -0.75 4 0.7500007
v -0.75 1.221905E-07 -0.75
v 0.75 1.221905E-07 -0.75
v 0.75 4 -0.7499993
v -0.75 4 -0.7499993
v 0.75 1.221905E-07 -0.75
v 0.75 -1.221905E-07 0.75
v 0.75 4 0.7500007
v 0.75 4 -0.7499993
v 0.75 -1.221905E-07 0.75
v -0.75 -1.221905E-07 0.75
v -0.75 4 0.7500007
v 0.75 4 0.7500007
v -0.75 1.221905E-07 -0.75
v -0.75 -1.221905E-07 0.75
v 0.75 -1.221905E-07 0.75
v 0.75 1.221905E-07 -0.75
v 0.75 4 -0.7499993
v 0.75 4 0.7500007
v -0.75 4 0.7500007
v -0.75 4 -0.7499993
vt 0.6523438 0.6015625
vt 0.6523438 0.578125
vt 0.5898438 0.578125
vt 0.5898438 0.6015625
vt 0.6523438 0.6015625
vt 0.6523438 0.578125
vt 0.5898438 0.578125
vt 0.5898438 0.6015625
vt 0.6523438 0.6015625
vt 0.6523438 0.578125
vt 0.5898438 0.578125
vt 0.5898438 0.6015625
vt 0.6523438 0.6015625
vt 0.6523438 0.578125
vt 0.5898438 0.578125
vt 0.5898438 0.6015625
vt 0.5908203 0.6025391
vt 0.5908203 0.6259766
vt 0.6142578 0.6259766
vt 0.6142578 0.6025391
vt 0.5908203 0.6259766
vt 0.6142578 0.6259766
vt 0.6142578 0.6025391
vt 0.5908203 0.6025391
vn -1 0 0
vn -1 0 0
vn -1 0 0
vn -1 0 0
vn 0 1.680216E-07 -1
vn 0 1.589457E-07 -1
vn 0 1.896063E-07 -1
vn 0 1.986822E-07 -1
vn 1 0 0
vn 1 0 0
vn 1 0 0
vn 1 0 0
vn 0 -1.589457E-07 1
vn 0 -1.589457E-07 1
vn 0 -1.589457E-07 1
vn 0 -1.589457E-07 1
vn 0 -1 -1.629207E-07
vn 0 -1 -1.629207E-07
vn 0 -1 -1.629207E-07
vn 0 -1 -1.629207E-07
vn 0 1 0
vn 0 1 0
vn 0 1 0
vn 0 1 0
g Clown_box1__1__0
f 3/3/3 2/2/2 1/1/1
f 4/4/4 3/3/3 1/1/1
f 7/7/7 6/6/6 5/5/5
f 8/8/8 7/7/7 5/5/5
f 11/11/11 10/10/10 9/9/9
f 12/12/12 11/11/11 9/9/9
f 15/15/15 14/14/14 13/13/13
f 16/16/16 15/15/15 13/13/13
f 19/19/19 18/18/18 17/17/17
f 20/20/20 19/19/19 17/17/17
f 23/23/23 22/22/22 21/21/21
f 24/24/24 23/23/23 21/21/21
