g coin_01
v -0.2497662 0.09980607 0.03606302
v -0.1944099 0.09980609 0.036063
v -0.19441 -0.09980646 0.036063
v -0.2497662 -0.0998065 0.03606302
v -0.19441 -0.1945336 0.036063
v -0.1239562 -0.1945336 0.03606298
v -0.1944099 0.1945332 0.036063
v -0.1239561 0.1945332 0.03606298
v 0.1239561 -0.2492979 0.03606288
v -0.1239561 0.2492976 0.03606298
v 0.1239561 -0.1945335 0.03606287
v 0.1239562 0.1945333 0.03606288
v 0.1239562 0.2492976 0.03606287
v -0.1239562 -0.2492979 0.03606297
v 0.1944099 -0.1945335 0.03606285
v 0.19441 -0.09980641 0.03606285
v 0.19441 0.09980617 0.03606285
v 0.19441 0.1945333 0.03606285
v 0.2497662 -0.09980639 0.03606283
v 0.2497662 0.09980617 0.03606283
v 0.2497662 -0.09980638 -0.03606227
v 0.2497662 0.09980619 -0.03606226
v 0.19441 0.09980617 -0.03606224
v 0.19441 -0.09980639 -0.03606225
v 0.19441 0.1945333 -0.03606225
v 0.1239562 0.1945333 -0.03606221
v 0.1944099 -0.1945335 -0.03606224
v 0.1239561 -0.1945335 -0.03606222
v -0.1239561 0.2492976 -0.03606213
v -0.1239561 0.1945332 -0.03606213
v -0.1239562 -0.2492979 -0.03606211
v 0.1239561 -0.2492979 -0.03606221
v -0.1239562 -0.1945336 -0.03606211
v -0.1944099 0.1945332 -0.0360621
v -0.1944099 0.0998061 -0.03606209
v -0.19441 -0.1945336 -0.03606209
v -0.19441 -0.09980647 -0.0360621
v -0.2497662 0.0998061 -0.03606207
v -0.2497662 -0.09980647 -0.03606206
v 0.1239562 0.2492976 -0.03606224
v 0.2497662 -0.09980639 0.03606283
v 0.2497662 -0.09980638 -0.03606227
v 0.19441 -0.09980639 -0.03606225
v 0.19441 -0.09980641 0.03606285
v 0.19441 -0.09980641 0.03606285
v 0.19441 -0.09980639 -0.03606225
v 0.1944099 -0.1945335 -0.03606224
v 0.1944099 -0.1945335 0.03606285
v 0.1944099 -0.1945335 0.03606285
v 0.1944099 -0.1945335 -0.03606224
v 0.1239561 -0.1945335 -0.03606222
v 0.1239561 -0.1945335 0.03606287
v 0.1239561 -0.1945335 0.03606287
v 0.1239561 -0.1945335 -0.03606222
v 0.1239561 -0.2492979 -0.03606221
v 0.1239561 -0.2492979 0.03606288
v 0.1239561 -0.2492979 0.03606288
v 0.1239561 -0.2492979 -0.03606221
v -0.1239562 -0.2492979 -0.03606211
v -0.1239562 -0.2492979 0.03606297
v -0.1239562 -0.2492979 0.03606297
v -0.1239562 -0.2492979 -0.03606211
v -0.1239562 -0.1945336 -0.03606211
v -0.1239562 -0.1945336 0.03606298
v -0.1239562 -0.1945336 0.03606298
v -0.1239562 -0.1945336 -0.03606211
v -0.19441 -0.1945336 -0.03606209
v -0.19441 -0.1945336 0.036063
v -0.19441 -0.1945336 0.036063
v -0.19441 -0.1945336 -0.03606209
v -0.19441 -0.09980647 -0.0360621
v -0.19441 -0.09980646 0.036063
v -0.19441 -0.09980646 0.036063
v -0.19441 -0.09980647 -0.0360621
v -0.2497662 -0.09980647 -0.03606206
v -0.2497662 -0.0998065 0.03606302
v -0.2497662 -0.0998065 0.03606302
v -0.2497662 -0.09980647 -0.03606206
v -0.2497662 0.0998061 -0.03606207
v -0.2497662 0.09980607 0.03606302
v -0.2497662 0.09980607 0.03606302
v -0.2497662 0.0998061 -0.03606207
v -0.1944099 0.0998061 -0.03606209
v -0.1944099 0.09980609 0.036063
v -0.1944099 0.09980609 0.036063
v -0.1944099 0.0998061 -0.03606209
v -0.1944099 0.1945332 -0.0360621
v -0.1944099 0.1945332 0.036063
v -0.1944099 0.1945332 0.036063
v -0.1944099 0.1945332 -0.0360621
v -0.1239561 0.1945332 -0.03606213
v -0.1239561 0.1945332 0.03606298
v -0.1239561 0.1945332 0.03606298
v -0.1239561 0.1945332 -0.03606213
v -0.1239561 0.2492976 -0.03606213
v -0.1239561 0.2492976 0.03606298
v -0.1239561 0.2492976 0.03606298
v -0.1239561 0.2492976 -0.03606213
v 0.1239562 0.2492976 -0.03606224
v 0.1239562 0.2492976 0.03606287
v 0.1239562 0.2492976 0.03606287
v 0.1239562 0.2492976 -0.03606224
v 0.1239562 0.1945333 -0.03606221
v 0.1239562 0.1945333 0.03606288
v 0.1239562 0.1945333 0.03606288
v 0.1239562 0.1945333 -0.03606221
v 0.19441 0.1945333 -0.03606225
v 0.19441 0.1945333 0.03606285
v 0.19441 0.1945333 0.03606285
v 0.19441 0.1945333 -0.03606225
v 0.19441 0.09980617 -0.03606224
v 0.19441 0.09980617 0.03606285
v 0.19441 0.09980617 0.03606285
v 0.19441 0.09980617 -0.03606224
v 0.2497662 0.09980619 -0.03606226
v 0.2497662 0.09980617 0.03606283
v 0.2497662 0.09980617 0.03606283
v 0.2497662 0.09980619 -0.03606226
v 0.2497662 -0.09980638 -0.03606227
v 0.2497662 -0.09980639 0.03606283
vt 0.8647599 0.5848056
vt 0.8778812 0.5848056
vt 0.8778812 0.5374063
vt 0.8647599 0.5374063
vt 0.8778812 0.5149127
vt 0.8945813 0.5149127
vt 0.8778812 0.6072992
vt 0.8945813 0.6072992
vt 0.9533451 0.5019085
vt 0.8945813 0.6203033
vt 0.9533451 0.5149127
vt 0.9533451 0.6072992
vt 0.9533451 0.6203033
vt 0.8945813 0.5019085
vt 0.9700451 0.5149127
vt 0.9700451 0.5374063
vt 0.9700451 0.5848056
vt 0.9700451 0.6072992
vt 0.9831665 0.5374063
vt 0.9831665 0.5848056
vt 0.9831665 0.5374063
vt 0.9831665 0.5848056
vt 0.9700451 0.5848056
vt 0.9700451 0.5374063
vt 0.9700451 0.6072992
vt 0.9533451 0.6072992
vt 0.9700451 0.5149127
vt 0.9533451 0.5149127
vt 0.8945813 0.6203033
vt 0.8945813 0.6072992
vt 0.8945813 0.5019085
vt 0.9533451 0.5019085
vt 0.8945813 0.5149127
vt 0.8778812 0.6072992
vt 0.8778812 0.5848056
vt 0.8778812 0.5149127
vt 0.8778812 0.5374063
vt 0.8647599 0.5848056
vt 0.8647599 0.5374063
vt 0.9533451 0.6203033
vt 0.9831665 0.5374063
vt 0.9831665 0.5374063
vt 0.9700451 0.5374063
vt 0.9700451 0.5374063
vt 0.9700451 0.5374063
vt 0.9700451 0.5374063
vt 0.9700451 0.5149127
vt 0.9700451 0.5149127
vt 0.9700451 0.5149127
vt 0.9700451 0.5149127
vt 0.9533451 0.5149127
vt 0.9533451 0.5149127
vt 0.9533451 0.5149127
vt 0.9533451 0.5149127
vt 0.9533451 0.5019085
vt 0.9533451 0.5019085
vt 0.9533451 0.5019085
vt 0.9533451 0.5019085
vt 0.8945813 0.5019085
vt 0.8945813 0.5019085
vt 0.8945813 0.5019085
vt 0.8945813 0.5019085
vt 0.8945813 0.5149127
vt 0.8945813 0.5149127
vt 0.8945813 0.5149127
vt 0.8945813 0.5149127
vt 0.8778812 0.5149127
vt 0.8778812 0.5149127
vt 0.8778812 0.5149127
vt 0.8778812 0.5149127
vt 0.8778812 0.5374063
vt 0.8778812 0.5374063
vt 0.8778812 0.5374063
vt 0.8778812 0.5374063
vt 0.8647599 0.5374063
vt 0.8647599 0.5374063
vt 0.8647599 0.5374063
vt 0.8647599 0.5374063
vt 0.8647599 0.5848056
vt 0.8647599 0.5848056
vt 0.8647599 0.5848056
vt 0.8647599 0.5848056
vt 0.8778812 0.5848056
vt 0.8778812 0.5848056
vt 0.8778812 0.5848056
vt 0.8778812 0.5848056
vt 0.8778812 0.6072992
vt 0.8778812 0.6072992
vt 0.8778812 0.6072992
vt 0.8778812 0.6072992
vt 0.8945813 0.6072992
vt 0.8945813 0.6072992
vt 0.8945813 0.6072992
vt 0.8945813 0.6072992
vt 0.8945813 0.6203033
vt 0.8945813 0.6203033
vt 0.8945813 0.6203033
vt 0.8945813 0.6203033
vt 0.9533451 0.6203033
vt 0.9533451 0.6203033
vt 0.9533451 0.6203033
vt 0.9533451 0.6203033
vt 0.9533451 0.6072992
vt 0.9533451 0.6072992
vt 0.9533451 0.6072992
vt 0.9533451 0.6072992
vt 0.9700451 0.6072992
vt 0.9700451 0.6072992
vt 0.9700451 0.6072992
vt 0.9700451 0.6072992
vt 0.9700451 0.5848056
vt 0.9700451 0.5848056
vt 0.9700451 0.5848056
vt 0.9700451 0.5848056
vt 0.9831665 0.5848056
vt 0.9831665 0.5848056
vt 0.9831665 0.5848056
vt 0.9831665 0.5848056
vt 0.9831665 0.5374063
vt 0.9831665 0.5374063
vn 3.967564E-07 0 1
vn 3.967565E-07 0 1
vn 3.967564E-07 0 1
vn 3.967564E-07 0 1
vn 3.967564E-07 0 1
vn 3.967564E-07 0 1
vn 3.967564E-07 0 1
vn 3.967564E-07 0 1
vn 3.967564E-07 0 1
vn 3.967564E-07 0 1
vn 3.967564E-07 0 1
vn 3.967564E-07 0 1
vn 3.967564E-07 0 1
vn 3.967564E-07 0 1
vn 3.967564E-07 0 1
vn 3.967564E-07 0 1
vn 3.967564E-07 0 1
vn 3.967564E-07 0 1
vn 3.967564E-07 0 1
vn 3.967564E-07 0 1
vn -3.989022E-07 0 -1
vn -3.989022E-07 0 -1
vn -3.989022E-07 0 -1
vn -3.989022E-07 0 -1
vn -3.989022E-07 0 -1
vn -3.989022E-07 0 -1
vn -3.989022E-07 0 -1
vn -3.989022E-07 0 -1
vn -3.989022E-07 0 -1
vn -3.989022E-07 0 -1
vn -3.989022E-07 0 -1
vn -3.989022E-07 0 -1
vn -3.989022E-07 0 -1
vn -3.989022E-07 0 -1
vn -3.989022E-07 0 -1
vn -3.989022E-07 0 -1
vn -3.989022E-07 0 -1
vn -3.989022E-07 0 -1
vn -3.989022E-07 0 -1
vn -3.989022E-07 0 -1
vn 3.451587E-07 -1 -1.993856E-07
vn 3.451587E-07 -1 -1.993856E-07
vn 3.451587E-07 -1 -1.993856E-07
vn 3.451587E-07 -1 -1.993856E-07
vn 1 -5.016237E-07 0
vn 1 -5.016237E-07 0
vn 1 -5.016237E-07 0
vn 1 -5.016237E-07 0
vn 2.711944E-07 -1 -2.656132E-07
vn 2.711944E-07 -1 -2.656133E-07
vn 2.711944E-07 -1 -2.656132E-07
vn 2.711944E-07 -1 -2.656133E-07
vn 1 0 0
vn 1 0 0
vn 1 0 0
vn 1 0 0
vn 0 -1 0
vn 0 -1 0
vn 0 -1 0
vn 0 -1 0
vn -1 2.169174E-07 0
vn -1 2.169174E-07 0
vn -1 2.169174E-07 0
vn -1 2.169174E-07 0
vn 0 -1 0
vn 0 -1 0
vn 0 -1 0
vn 0 -1 0
vn -1 0 0
vn -1 0 0
vn -1 0 0
vn -1 0 0
vn 2.588691E-07 -1 -1.331581E-07
vn 2.588691E-07 -1 -1.331581E-07
vn 2.588691E-07 -1 -1.331581E-07
vn 2.588691E-07 -1 -1.331581E-07
vn -1 3.57072E-07 0
vn -1 3.570719E-07 0
vn -1 3.570719E-07 0
vn -1 3.570719E-07 0
vn -1.725793E-07 1 2.656132E-07
vn -1.725793E-07 1 2.656132E-07
vn -1.725793E-07 1 2.656132E-07
vn -1.725793E-07 1 2.656132E-07
vn -1 0 0
vn -1 0 0
vn -1 0 0
vn -1 0 0
vn 0 1 1.331581E-07
vn 0 1 1.331581E-07
vn 0 1 1.331581E-07
vn 0 1 1.331581E-07
vn -1 1.084587E-07 0
vn -1 1.084587E-07 0
vn -1 1.084587E-07 0
vn -1 1.084587E-07 0
vn 0 1 0
vn 0 1 0
vn 0 1 0
vn 0 1 0
vn 1 -2.169174E-07 1.324552E-07
vn 1 -2.169174E-07 1.324552E-07
vn 1 -2.169174E-07 1.324552E-07
vn 1 -2.169174E-07 1.324552E-07
vn 0 1 1.331581E-07
vn 0 1 1.331581E-07
vn 0 1 1.331581E-07
vn 0 1 1.331581E-07
vn 1 0 0
vn 1 0 0
vn 1 0 0
vn 1 0 0
vn -1.725793E-07 1 2.656132E-07
vn -1.725793E-07 1 2.656132E-07
vn -1.725793E-07 1 2.656132E-07
vn -1.725793E-07 1 2.656132E-07
vn 1 -2.38048E-07 0
vn 1 -2.38048E-07 0
vn 1 -2.38048E-07 0
vn 1 -2.38048E-07 0
g coin_01_0
f 3/3/3 2/2/2 1/1/1
f 1/1/1 4/4/4 3/3/3
f 2/2/2 3/3/3 5/5/5
f 2/2/2 5/5/5 6/6/6
f 7/7/7 2/2/2 6/6/6
f 6/6/6 8/8/8 7/7/7
f 8/8/8 6/6/6 9/9/9
f 10/10/10 8/8/8 9/9/9
f 10/10/10 9/9/9 11/11/11
f 10/10/10 11/11/11 12/12/12
f 12/12/12 13/13/13 10/10/10
f 6/6/6 14/14/14 9/9/9
f 12/12/12 11/11/11 15/15/15
f 12/12/12 15/15/15 16/16/16
f 12/12/12 16/16/16 17/17/17
f 17/17/17 18/18/18 12/12/12
f 17/17/17 16/16/16 19/19/19
f 19/19/19 20/20/20 17/17/17
f 23/23/23 22/22/22 21/21/21
f 21/21/21 24/24/24 23/23/23
f 24/24/24 25/25/25 23/23/23
f 24/24/24 26/26/26 25/25/25
f 24/24/24 27/27/27 26/26/26
f 27/27/27 28/28/28 26/26/26
f 26/26/26 28/28/28 29/29/29
f 30/30/30 29/29/29 28/28/28
f 31/31/31 30/30/30 28/28/28
f 28/28/28 32/32/32 31/31/31
f 31/31/31 33/33/33 30/30/30
f 33/33/33 34/34/34 30/30/30
f 33/33/33 35/35/35 34/34/34
f 35/35/35 33/33/33 36/36/36
f 36/36/36 37/37/37 35/35/35
f 37/37/37 38/38/38 35/35/35
f 37/37/37 39/39/39 38/38/38
f 29/29/29 40/40/40 26/26/26
f 43/43/43 42/42/42 41/41/41
f 44/44/44 43/43/43 41/41/41
f 47/47/47 46/46/46 45/45/45
f 48/48/48 47/47/47 45/45/45
f 51/51/51 50/50/50 49/49/49
f 52/52/52 51/51/51 49/49/49
f 55/55/55 54/54/54 53/53/53
f 56/56/56 55/55/55 53/53/53
f 59/59/59 58/58/58 57/57/57
f 60/60/60 59/59/59 57/57/57
f 63/63/63 62/62/62 61/61/61
f 64/64/64 63/63/63 61/61/61
f 67/67/67 66/66/66 65/65/65
f 68/68/68 67/67/67 65/65/65
f 71/71/71 70/70/70 69/69/69
f 72/72/72 71/71/71 69/69/69
f 75/75/75 74/74/74 73/73/73
f 76/76/76 75/75/75 73/73/73
f 79/79/79 78/78/78 77/77/77
f 80/80/80 79/79/79 77/77/77
f 83/83/83 82/82/82 81/81/81
f 84/84/84 83/83/83 81/81/81
f 87/87/87 86/86/86 85/85/85
f 88/88/88 87/87/87 85/85/85
f 91/91/91 90/90/90 89/89/89
f 92/92/92 91/91/91 89/89/89
f 95/95/95 94/94/94 93/93/93
f 96/96/96 95/95/95 93/93/93
f 99/99/99 98/98/98 97/97/97
f 100/100/100 99/99/99 97/97/97
f 103/103/103 102/102/102 101/101/101
f 104/104/104 103/103/103 101/101/101
f 107/107/107 106/106/106 105/105/105
f 108/108/108 107/107/107 105/105/105
f 111/111/111 110/110/110 109/109/109
f 112/112/112 111/111/111 109/109/109
f 115/115/115 114/114/114 113/113/113
f 116/116/116 115/115/115 113/113/113
f 119/119/119 118/118/118 117/117/117
f 120/120/120 119/119/119 117/117/117
