g colapsed_city_vhod4
v 33.97693 10.4386 -7.220652
v 33.97693 14.3886 -7.220651
v 33.97693 14.3886 -6.720651
v 33.97693 10.4386 -6.720652
v 35.47693 14.3886 -6.720652
v 35.47693 10.4386 -6.720652
v 33.97693 10.4386 -6.720652
v 33.97693 14.3886 -6.720651
v 35.47693 14.3886 -6.720652
v 33.97693 14.3886 -6.720651
v 33.97693 14.3886 -7.220651
v 35.47693 14.3886 -7.220652
v 35.47693 14.3886 -7.720652
v 33.97693 14.3886 -7.720651
v 32.97693 14.3886 -7.720652
v 32.97693 14.3886 -7.220652
v 35.47693 14.3886 -7.720652
v 33.97693 14.3886 -7.720651
v 33.97693 10.4386 -7.720652
v 35.47693 10.4386 -7.720652
v 32.97693 14.3886 -7.720652
v 32.97693 10.4386 -7.720652
v 35.47693 10.4386 -7.220652
v 33.97693 10.4386 -7.220652
v 33.97693 10.4386 -6.720652
v 35.47693 10.4386 -6.720652
v 33.97693 10.4386 -7.720652
v 35.47693 10.4386 -7.720652
v 32.97693 10.4386 -7.220652
v 32.97693 10.4386 -7.720652
v 32.97693 10.4386 -7.220652
v 32.97693 10.4386 -7.720652
v 32.97693 14.3886 -7.720652
v 32.97693 14.3886 -7.220652
v 35.47693 14.3886 -7.220652
v 35.47693 14.3886 -7.720652
v 35.47693 10.4386 -7.720652
v 35.47693 10.4386 -7.220652
v 33.97693 10.4386 -7.220652
v 32.97693 10.4386 -7.220652
v 32.97693 14.3886 -7.220652
v 33.97693 14.3886 -7.220651
v 34.97693 10.93861 -3.220652
v 34.97693 10.44694 -3.220652
v 34.97693 10.44694 -6.720652
v 34.97693 10.9386 -6.720652
v 34.97693 14.38027 -3.220651
v 34.97693 13.88861 -3.220651
v 34.97693 13.88861 -6.720651
v 34.97693 14.38027 -6.720651
v 35.47693 10.44694 -3.220652
v 35.47693 10.44694 -6.720652
v 34.97693 10.44694 -6.720652
v 34.97693 10.44694 -3.220652
v 35.47693 14.38027 -6.720651
v 35.47693 14.38027 -3.220651
v 34.97693 14.38027 -3.220651
v 34.97693 14.38027 -6.720651
v 35.47693 13.88861 -3.220651
v 35.47693 13.88861 -6.720651
v 34.97693 13.88861 -6.720651
v 34.97693 13.88861 -3.220651
v 35.47693 10.93861 -3.220652
v 34.97693 10.93861 -3.220652
v 34.97693 10.9386 -6.720652
v 35.47693 10.93861 -6.720652
v 35.73684 13.88861 -3.220652
v 35.23684 13.88861 -3.220652
v 35.23684 13.88861 -6.720651
v 35.73684 13.88861 -6.720651
v 35.73684 10.93861 -3.220652
v 35.73684 13.88861 -3.220652
v 35.73684 13.88861 -6.720651
v 35.73684 10.93861 -6.720652
v 35.23684 10.93861 -6.720652
v 35.23684 10.93861 -3.220652
v 35.73684 10.93861 -3.220652
v 35.73684 10.93861 -6.720652
v 34.47693 10.44694 -3.220651
v 34.47693 10.93861 -3.220651
v 34.47693 10.93861 -2.720651
v 34.47693 10.44694 -2.720651
v 33.97693 10.93861 -3.220652
v 33.97693 11.43027 -3.220651
v 33.97693 11.43027 -2.720651
v 33.97693 10.93861 -2.720652
v 33.47693 13.39694 -2.720651
v 33.47693 11.43027 -2.720651
v 33.47693 11.43027 -3.220651
v 33.47693 13.39694 -3.220651
v 33.97693 13.39694 -3.220651
v 33.97693 13.88861 -3.220651
v 33.97693 13.88861 -2.720651
v 33.97693 13.39694 -2.720651
v 34.47693 13.88861 -3.220651
v 34.47693 14.38027 -3.220651
v 34.47693 14.38027 -2.720651
v 34.47693 13.88861 -2.720651
v 34.97693 10.44694 -6.720652
v 35.47693 10.44694 -6.720652
v 35.47693 10.93861 -6.720652
v 34.97693 10.9386 -6.720652
v 34.97693 10.44694 -2.720652
v 35.47693 10.44694 -2.720652
v 34.47693 10.44694 -2.720651
v 34.47693 10.44694 -3.220651
v 34.97693 10.93861 -2.720652
v 35.47693 10.93861 -2.720652
v 35.47693 10.44694 -2.720652
v 34.97693 10.44694 -2.720652
v 34.97693 11.43027 -2.720651
v 35.47693 11.43027 -2.720651
v 34.97693 13.39694 -2.720651
v 35.47693 13.39694 -2.720651
v 34.97693 13.88861 -2.720651
v 35.47693 13.88861 -2.720651
v 34.97693 14.38027 -2.720651
v 35.47693 14.38027 -2.720651
v 34.47693 10.93861 -2.720651
v 34.47693 10.44694 -2.720651
v 34.47693 11.43027 -2.720651
v 34.47693 13.39694 -2.720651
v 34.47693 13.88861 -2.720651
v 34.47693 14.38027 -2.720651
v 33.97693 11.43027 -2.720651
v 33.97693 10.93861 -2.720652
v 33.97693 13.39694 -2.720651
v 33.97693 13.88861 -2.720651
v 33.47693 13.39694 -2.720651
v 33.47693 11.43027 -2.720651
v 35.47693 14.38027 -2.720651
v 34.97693 14.38027 -2.720651
v 34.47693 14.38027 -3.220651
v 34.47693 14.38027 -2.720651
v 34.97693 13.88861 -6.720651
v 35.47693 13.88861 -6.720651
v 35.47693 14.38027 -6.720651
v 34.97693 14.38027 -6.720651
v 34.97693 13.39694 -3.220651
v 35.47693 13.39694 -3.220651
v 35.47693 13.88861 -3.220651
v 34.97693 13.88861 -3.220651
v 34.97693 11.43027 -3.220651
v 35.47693 11.43027 -3.220651
v 34.97693 10.93861 -3.220652
v 35.47693 10.93861 -3.220652
v 34.47693 13.39694 -3.220651
v 34.47693 13.88861 -3.220651
v 34.97693 14.38027 -3.220651
v 34.47693 14.38027 -3.220651
v 34.47693 11.43027 -3.220651
v 34.47693 10.93861 -3.220651
v 34.47693 10.44694 -3.220651
v 34.97693 10.44694 -3.220652
v 33.97693 13.39694 -3.220651
v 33.97693 13.88861 -3.220651
v 33.97693 11.43027 -3.220651
v 33.97693 10.93861 -3.220652
v 33.47693 13.39694 -3.220651
v 33.47693 11.43027 -3.220651
v 33.97693 10.93861 -2.720652
v 34.47693 10.93861 -2.720651
v 34.47693 10.93861 -3.220651
v 33.97693 10.93861 -3.220652
v 33.97693 13.88861 -3.220651
v 34.47693 13.88861 -3.220651
v 34.47693 13.88861 -2.720651
v 33.97693 13.88861 -2.720651
v 33.47693 11.43027 -2.720651
v 33.97693 11.43027 -2.720651
v 33.97693 11.43027 -3.220651
v 33.47693 11.43027 -3.220651
v 33.47693 13.39694 -3.220651
v 33.97693 13.39694 -3.220651
v 33.97693 13.39694 -2.720651
v 33.47693 13.39694 -2.720651
v 35.73684 10.93861 -6.720652
v 35.73684 13.88861 -6.720651
v 35.23684 13.88861 -6.720651
v 35.23684 10.93861 -6.720652
v 35.23684 10.93861 -6.720652
v 35.23684 13.88861 -6.720651
v 35.23684 13.88861 -3.220652
v 35.23684 10.93861 -3.220652
v 35.23684 10.93861 -3.220652
v 35.23684 13.88861 -3.220652
v 35.73684 13.88861 -3.220652
v 35.73684 10.93861 -3.220652
vt 2.475001 -1.5
vt -1.474998 -1.5
vt -1.474998 -0.9999995
vt 2.475001 -1
vt 2.474999 -0.750001
vt -1.475 -0.750001
vt -1.475 0.75
vt 2.474999 0.75
vt -0.750001 -0.9999999
vt 0.75 -0.9999995
vt 0.75 -1.5
vt -0.75 -1.5
vt -0.75 -2
vt 0.75 -2
vt 1.75 -2
vt 1.75 -1.5
vt 1.75 -1.474998
vt 0.25 -1.474998
vt 0.249999 2.475001
vt 1.749999 2.475001
vt -0.75 -1.474998
vt -0.750001 2.475001
vt 1.749999 -1.5
vt 0.249999 -1.5
vt 0.249999 -1
vt 1.75 -1
vt 0.249999 -2
vt 1.749999 -2
vt -0.750001 -1.5
vt -0.750001 -2
vt 2.475001 -1.5
vt 2.475001 -2
vt -1.474998 -2
vt -1.474998 -1.5
vt 2.474998 -1.5
vt 2.474998 -2
vt -1.475001 -2
vt -1.475001 -1.5
vt -1.475 0.75
vt -1.475 1.75
vt 2.474999 1.75
vt 2.474999 0.75
vt 1.974999 2.5
vt 2.466665 2.5
vt 2.466666 -0.9999998
vt 1.975 -0.9999998
vt -1.466668 2.5
vt -0.9750013 2.5
vt -0.9749994 -0.9999995
vt -1.466667 -0.9999995
vt 1.749999 2.5
vt 1.749999 -0.9999998
vt 1.249999 -0.9999998
vt 1.249998 2.5
vt -0.750001 -0.9999995
vt -0.75 2.5
vt -0.25 2.5
vt -0.25 -0.9999995
vt 1.75 2.5
vt 1.750001 -0.9999995
vt 1.25 -0.9999995
vt 1.25 2.5
vt -0.749999 2.5
vt -0.2499981 2.5
vt -0.249999 -0.9999998
vt -0.749999 -0.9999998
vt 0.4414063 0.5117188
vt 0.4492188 0.5117188
vt 0.4492188 0.4570313
vt 0.4414063 0.4570313
vt 0.4970703 0.4560547
vt 0.5439453 0.4560547
vt 0.5439453 0.4013672
vt 0.4970703 0.4013672
vt 0.4892578 0.4013672
vt 0.4892578 0.4550781
vt 0.4970703 0.4550781
vt 0.4970703 0.4013672
vt 2.466665 2.5
vt 1.974999 2.5
vt 1.974999 3
vt 2.466665 3
vt 1.974999 2.5
vt 1.483333 2.5
vt 1.483333 3
vt 1.974999 3
vt -0.4833345 3
vt 1.483333 3
vt 1.483333 2.5
vt -0.4833345 2.5
vt -0.4833345 2.5
vt -0.9750013 2.5
vt -0.9750013 3
vt -0.4833345 3
vt -0.9750013 2.5
vt -1.466668 2.5
vt -1.466668 3
vt -0.9750013 3
vt 1.249999 2.466666
vt 1.749999 2.466666
vt 1.749999 1.975
vt 1.249999 1.975
vt 1.249998 3
vt 1.749999 3
vt 0.7499981 3
vt 0.7499981 2.5
vt -0.249999 1.974999
vt -0.749999 1.974999
vt -0.749999 2.466665
vt -0.2499981 2.466665
vt -0.25 1.483333
vt -0.75 1.483333
vt -0.25 -0.4833345
vt -0.75 -0.4833345
vt -0.25 -0.9750013
vt -0.75 -0.9750013
vt -0.2500019 -1.466668
vt -0.750001 -1.466668
vt 0.250001 1.974999
vt 0.2500019 2.466665
vt 0.25 1.483333
vt 0.25 -0.4833345
vt 0.25 -0.9750013
vt 0.2499981 -1.466668
vt 0.75 1.483333
vt 0.750001 1.974999
vt 0.75 -0.4833345
vt 0.75 -0.9750013
vt 1.25 -0.4833345
vt 1.25 1.483333
vt -0.750001 3
vt -0.2500019 3
vt 0.25 2.5
vt 0.2499981 3
vt 1.25 -0.9749994
vt 1.750001 -0.9749994
vt 1.750001 -1.466667
vt 1.25 -1.466667
vt 1.25 -0.4833345
vt 1.75 -0.4833345
vt 1.75 -0.9750013
vt 1.25 -0.9750013
vt 1.25 1.483333
vt 1.75 1.483333
vt 1.249998 1.974999
vt 1.749999 1.974999
vt 0.75 -0.4833345
vt 0.75 -0.9750013
vt 1.25 -1.466668
vt 0.75 -1.466668
vt 0.75 1.483333
vt 0.7499981 1.974999
vt 0.7499981 2.466665
vt 1.249998 2.466665
vt 0.25 -0.4833345
vt 0.25 -0.9750013
vt 0.25 1.483333
vt 0.2499981 1.974999
vt -0.25 -0.4833345
vt -0.25 1.483333
vt 0.249999 3
vt 0.749999 3
vt 0.7499981 2.5
vt 0.2499981 2.5
vt 0.75 2.5
vt 0.25 2.5
vt 0.25 3
vt 0.75 3
vt -0.25 3
vt 0.25 3
vt 0.25 2.5
vt -0.25 2.5
vt 1.25 2.5
vt 0.75 2.5
vt 0.75 3
vt 1.25 3
vt 0.4511719 0.4570313
vt 0.4511719 0.5029297
vt 0.4589844 0.5029297
vt 0.4589844 0.4570313
vt 0.5439453 0.4013672
vt 0.4970703 0.4013672
vt 0.4970703 0.4560547
vt 0.5439453 0.4560547
vt 0.4677734 0.5029297
vt 0.4677734 0.4570313
vt 0.4599609 0.4570313
vt 0.4599609 0.5029297
vn -1 0 0
vn -1 0 0
vn -1 0 0
vn -1 0 0
vn 0 0 1
vn 0 0 1
vn 0 0 1
vn 0 0 1
vn 0 1 0
vn 0 1 0
vn 0 1 0
vn 0 1 0
vn 0 1 0
vn 0 1 0
vn 0 1 0
vn 0 1 0
vn 0 0 -1
vn 0 0 -1
vn 0 0 -1
vn 0 0 -1
vn 0 0 -1
vn 0 0 -1
vn 0 -1 0
vn 0 -1 0
vn 0 -1 0
vn 0 -1 0
vn 0 -1 0
vn 0 -1 0
vn 0 -1 0
vn 0 -1 0
vn -1 0 0
vn -1 0 0
vn -1 0 0
vn -1 0 0
vn 1 0 0
vn 1 0 0
vn 1 0 0
vn 1 0 0
vn 0 0 1
vn 0 0 1
vn 0 0 1
vn 0 0 1
vn -1 0 0
vn -1 0 0
vn -1 0 0
vn -1 0 0
vn -1 0 0
vn -1 0 0
vn -1 0 0
vn -1 0 0
vn 0 -1 0
vn 0 -1 0
vn 0 -1 0
vn 0 -1 0
vn 0 1 0
vn 0 1 0
vn 0 1 0
vn 0 1 0
vn 0 -1 0
vn 0 -1 0
vn 0 -1 0
vn 0 -1 0
vn 0 1 0
vn 0 1 0
vn 0 1 0
vn 0 1 0
vn 0 1 0
vn 0 1 0
vn 0 1 0
vn 0 1 0
vn 1 0 0
vn 1 0 0
vn 1 0 0
vn 1 0 0
vn 0 -1 0
vn 0 -1 0
vn 0 -1 0
vn 0 -1 0
vn -1 0 0
vn -1 0 0
vn -1 0 0
vn -1 0 0
vn -1 0 0
vn -1 0 0
vn -1 0 0
vn -1 0 0
vn -1 0 0
vn -1 0 0
vn -1 0 0
vn -1 0 0
vn -1 0 0
vn -1 0 0
vn -1 0 0
vn -1 0 0
vn -1 0 0
vn -1 0 0
vn -1 0 0
vn -1 0 0
vn 0 0 -1
vn 0 0 -1
vn 0 0 -1
vn 0 0 -1
vn 0 -1 0
vn 0 -1 0
vn 0 -1 0
vn 0 -1 0
vn 0 0 1
vn 0 0 1
vn 0 0 1
vn 0 0 1
vn 0 0 1
vn 0 0 1
vn 0 0 1
vn 0 0 1
vn 0 0 1
vn 0 0 1
vn 0 0 1
vn 0 0 1
vn 0 0 1
vn 0 0 1
vn 0 0 1
vn 0 0 1
vn 0 0 1
vn 0 0 1
vn 0 0 1
vn 0 0 1
vn 0 0 1
vn 0 0 1
vn 0 0 1
vn 0 0 1
vn 0 1 0
vn 0 1 0
vn 0 1 0
vn 0 1 0
vn 0 0 -1
vn 0 0 -1
vn 0 0 -1
vn 0 0 -1
vn 0 0 -1
vn 0 0 -1
vn 0 0 -1
vn 0 0 -1
vn 0 0 -1
vn 0 0 -1
vn 0 0 -1
vn 0 0 -1
vn 0 0 -1
vn 0 0 -1
vn 0 0 -1
vn 0 0 -1
vn 0 0 -1
vn 0 0 -1
vn 0 0 -1
vn 0 0 -1
vn 0 0 -1
vn 0 0 -1
vn 0 0 -1
vn 0 0 -1
vn 0 0 -1
vn 0 0 -1
vn 0 -1 0
vn 0 -1 0
vn 0 -1 0
vn 0 -1 0
vn 0 1 0
vn 0 1 0
vn 0 1 0
vn 0 1 0
vn 0 -1 0
vn 0 -1 0
vn 0 -1 0
vn 0 -1 0
vn 0 1 0
vn 0 1 0
vn 0 1 0
vn 0 1 0
vn 0 0 -1
vn 0 0 -1
vn 0 0 -1
vn 0 0 -1
vn -1 0 0
vn -1 0 0
vn -1 0 0
vn -1 0 0
vn 0 0 1
vn 0 0 1
vn 0 0 1
vn 0 0 1
g colapsed_city_vhod4_0
f 3/3/3 2/2/2 1/1/1
f 4/4/4 3/3/3 1/1/1
f 7/7/7 6/6/6 5/5/5
f 8/8/8 7/7/7 5/5/5
f 11/11/11 10/10/10 9/9/9
f 12/12/12 11/11/11 9/9/9
f 12/12/12 13/13/13 11/11/11
f 13/13/13 14/14/14 11/11/11
f 14/14/14 15/15/15 11/11/11
f 15/15/15 16/16/16 11/11/11
f 19/19/19 18/18/18 17/17/17
f 20/20/20 19/19/19 17/17/17
f 21/21/21 18/18/18 19/19/19
f 22/22/22 21/21/21 19/19/19
f 25/25/25 24/24/24 23/23/23
f 26/26/26 25/25/25 23/23/23
f 24/24/24 27/27/27 23/23/23
f 27/27/27 28/28/28 23/23/23
f 24/24/24 29/29/29 27/27/27
f 29/29/29 30/30/30 27/27/27
f 33/33/33 32/32/32 31/31/31
f 34/34/34 33/33/33 31/31/31
f 37/37/37 36/36/36 35/35/35
f 38/38/38 37/37/37 35/35/35
f 41/41/41 40/40/40 39/39/39
f 42/42/42 41/41/41 39/39/39
f 45/45/45 44/44/44 43/43/43
f 46/46/46 45/45/45 43/43/43
f 49/49/49 48/48/48 47/47/47
f 50/50/50 49/49/49 47/47/47
f 53/53/53 52/52/52 51/51/51
f 54/54/54 53/53/53 51/51/51
f 57/57/57 56/56/56 55/55/55
f 58/58/58 57/57/57 55/55/55
f 61/61/61 60/60/60 59/59/59
f 62/62/62 61/61/61 59/59/59
f 65/65/65 64/64/64 63/63/63
f 66/66/66 65/65/65 63/63/63
f 69/69/69 68/68/68 67/67/67
f 70/70/70 69/69/69 67/67/67
f 73/73/73 72/72/72 71/71/71
f 74/74/74 73/73/73 71/71/71
f 77/77/77 76/76/76 75/75/75
f 78/78/78 77/77/77 75/75/75
g colapsed_city_vhod4_1
f 81/81/81 80/80/80 79/79/79
f 82/82/82 81/81/81 79/79/79
f 85/85/85 84/84/84 83/83/83
f 86/86/86 85/85/85 83/83/83
f 89/89/89 88/88/88 87/87/87
f 90/90/90 89/89/89 87/87/87
f 93/93/93 92/92/92 91/91/91
f 94/94/94 93/93/93 91/91/91
f 97/97/97 96/96/96 95/95/95
f 98/98/98 97/97/97 95/95/95
f 101/101/101 100/100/100 99/99/99
f 102/102/102 101/101/101 99/99/99
f 51/51/51 104/104/104 103/103/103
f 54/54/54 51/51/51 103/103/103
f 54/54/54 103/103/103 105/105/105
f 106/106/106 54/54/54 105/105/105
f 109/109/109 108/108/108 107/107/107
f 110/110/110 109/109/109 107/107/107
f 107/107/107 108/108/108 111/111/111
f 108/108/108 112/112/112 111/111/111
f 113/113/113 111/111/111 112/112/112
f 114/114/114 113/113/113 112/112/112
f 113/113/113 114/114/114 115/115/115
f 114/114/114 116/116/116 115/115/115
f 115/115/115 116/116/116 117/117/117
f 116/116/116 118/118/118 117/117/117
f 110/110/110 107/107/107 119/119/119
f 120/120/120 110/110/110 119/119/119
f 107/107/107 111/111/111 121/121/121
f 119/119/119 107/107/107 121/121/121
f 122/122/122 121/121/121 111/111/111
f 113/113/113 122/122/122 111/111/111
f 113/113/113 115/115/115 123/123/123
f 122/122/122 113/113/113 123/123/123
f 115/115/115 117/117/117 124/124/124
f 123/123/123 115/115/115 124/124/124
f 119/119/119 121/121/121 125/125/125
f 126/126/126 119/119/119 125/125/125
f 127/127/127 125/125/125 121/121/121
f 122/122/122 127/127/127 121/121/121
f 122/122/122 123/123/123 128/128/128
f 127/127/127 122/122/122 128/128/128
f 127/127/127 129/129/129 125/125/125
f 129/129/129 130/130/130 125/125/125
f 131/131/131 56/56/56 57/57/57
f 132/132/132 131/131/131 57/57/57
f 132/132/132 57/57/57 133/133/133
f 134/134/134 132/132/132 133/133/133
f 137/137/137 136/136/136 135/135/135
f 138/138/138 137/137/137 135/135/135
f 141/141/141 140/140/140 139/139/139
f 142/142/142 141/141/141 139/139/139
f 143/143/143 139/139/139 140/140/140
f 144/144/144 143/143/143 140/140/140
f 143/143/143 144/144/144 145/145/145
f 144/144/144 146/146/146 145/145/145
f 142/142/142 139/139/139 147/147/147
f 148/148/148 142/142/142 147/147/147
f 149/149/149 142/142/142 148/148/148
f 150/150/150 149/149/149 148/148/148
f 151/151/151 147/147/147 139/139/139
f 143/143/143 151/151/151 139/139/139
f 143/143/143 145/145/145 152/152/152
f 151/151/151 143/143/143 152/152/152
f 152/152/152 145/145/145 153/153/153
f 145/145/145 154/154/154 153/153/153
f 148/148/148 147/147/147 155/155/155
f 156/156/156 148/148/148 155/155/155
f 157/157/157 155/155/155 147/147/147
f 151/151/151 157/157/157 147/147/147
f 151/151/151 152/152/152 158/158/158
f 157/157/157 151/151/151 158/158/158
f 159/159/159 155/155/155 157/157/157
f 160/160/160 159/159/159 157/157/157
f 163/163/163 162/162/162 161/161/161
f 164/164/164 163/163/163 161/161/161
f 167/167/167 166/166/166 165/165/165
f 168/168/168 167/167/167 165/165/165
f 171/171/171 170/170/170 169/169/169
f 172/172/172 171/171/171 169/169/169
f 175/175/175 174/174/174 173/173/173
f 176/176/176 175/175/175 173/173/173
g colapsed_city_vhod4_2
f 179/179/179 178/178/178 177/177/177
f 180/180/180 179/179/179 177/177/177
f 183/183/183 182/182/182 181/181/181
f 184/184/184 183/183/183 181/181/181
f 187/187/187 186/186/186 185/185/185
f 188/188/188 187/187/187 185/185/185
