g colapsed_city_Most4
v -28.39805 -12.73421 -3.595664
v -28.39805 -14.73421 -3.595664
v -13.21122 -14.73421 -3.595664
v -13.21122 -12.73421 -3.595664
v -13.21122 -10.73421 -3.595664
v -12.71122 -10.73421 -3.595664
v -12.71122 -12.73421 -3.595664
v -13.21122 -15.23421 -3.595664
v -28.39805 -15.23421 -3.595664
v -13.21122 -9.734214 -3.595664
v -28.39805 -8.734214 -3.595664
v -13.21122 -8.734214 -3.595664
v -12.71122 -8.734214 -3.595664
v -12.71122 -9.734214 -3.595664
v -13.71122 -8.234214 -3.595664
v -28.39805 -6.734214 -3.595664
v -13.71122 -6.734214 -3.595664
v -28.39805 -6.234214 -3.595664
v -13.71122 -6.234214 -3.595664
v -13.21122 -8.234214 -3.595664
v -28.39805 -12.73421 -2.095664
v -13.21122 -12.73421 -2.095664
v -13.21122 -14.73421 -2.095664
v -28.39805 -14.73421 -2.095664
v -13.21122 -15.23421 -2.095664
v -28.39805 -15.23421 -2.095664
v -28.39805 -8.734214 -2.095664
v -28.39805 -6.734214 -2.095664
v -13.71122 -8.234214 -2.095664
v -13.71122 -6.734214 -2.095664
v -28.39805 -6.234214 -2.095664
v -13.71122 -6.234214 -2.095664
v -13.21122 -15.23421 -2.095664
v -13.21122 -15.23421 -3.595664
v -28.39805 -15.23421 -3.595664
v -28.39805 -15.23421 -2.095664
v -12.71122 -10.73421 -2.595664
v -12.71122 -10.73421 -3.595664
v -12.71122 -12.73421 -3.595664
v -12.71122 -12.73421 -2.595664
v -12.71122 -8.734214 -2.595664
v -12.71122 -8.734214 -3.595664
v -12.71122 -9.734214 -3.595664
v -12.71122 -9.734214 -2.595664
v -28.39805 -6.234214 -2.095664
v -28.39805 -6.234214 -3.595664
v -13.71122 -6.234214 -3.595664
v -13.71122 -6.234214 -2.095664
v -28.39805 -8.734214 -2.095664
v -28.39805 -8.734214 -3.595664
v -28.39805 -6.734214 -3.595664
v -28.39805 -6.734214 -2.095664
v -28.39805 -12.73421 -2.095664
v -28.39805 -12.73421 -3.595664
v -28.39805 -14.73421 -2.095664
v -28.39805 -14.73421 -3.595664
v -28.39805 -15.23421 -3.595664
v -28.39805 -15.23421 -2.095664
v -28.39805 -6.234214 -2.095664
v -28.39805 -6.234214 -3.595664
v -13.21122 -12.73421 -3.595664
v -13.21122 -12.73421 -2.595664
v -12.71122 -12.73421 -2.595664
v -12.71122 -12.73421 -3.595664
v -13.21122 -14.73421 -3.595664
v -13.21122 -14.73421 -2.095664
v -13.21122 -12.73421 -2.595664
v -13.21122 -15.23421 -2.095664
v -13.21122 -15.23421 -3.595664
v -13.21122 -12.73421 -2.095664
v -13.21122 -12.73421 -3.595664
v -12.71122 -10.73421 -3.595664
v -12.71122 -10.73421 -2.595664
v -13.21122 -10.73421 -2.595664
v -13.21122 -10.73421 -3.595664
v -13.21122 -9.734214 -2.595664
v -13.21122 -9.734214 -3.595664
v -13.21122 -10.73421 -3.595664
v -13.21122 -10.73421 -2.595664
v -12.71122 -9.734214 -3.595664
v -13.21122 -9.734214 -3.595664
v -13.21122 -9.734214 -2.595664
v -12.71122 -9.734214 -2.595664
v -12.71122 -8.734214 -3.595664
v -12.71122 -8.734214 -2.595664
v -13.21122 -8.734214 -2.595664
v -13.21122 -8.734214 -3.595664
v -13.21122 -8.734214 -3.595664
v -13.21122 -8.734214 -2.595664
v -13.21122 -8.234214 -2.595664
v -13.21122 -8.234214 -3.595664
v -13.21122 -8.234214 -3.595664
v -13.21122 -8.234214 -2.595664
v -13.71122 -8.234214 -2.595664
v -13.71122 -8.234214 -3.595664
v -13.71122 -8.234214 -2.595664
v -13.71122 -6.734214 -2.095664
v -13.71122 -6.734214 -3.595664
v -13.71122 -6.234214 -3.595664
v -13.71122 -6.234214 -2.095664
v -13.71122 -8.234214 -2.095664
v -13.71122 -8.234214 -3.595664
v -13.21122 -10.73421 -2.095664
v -12.71122 -12.73421 -2.095664
v -12.71122 -10.73421 -2.095664
v -13.21122 -9.734214 -2.095664
v -13.21122 -8.734214 -2.095664
v -12.71122 -9.734214 -2.095664
v -12.71122 -8.734214 -2.095664
v -13.21122 -8.234214 -2.095664
v -12.71122 -12.73421 -2.095664
v -12.71122 -10.73421 -2.095664
v -12.71122 -9.734214 -2.095664
v -12.71122 -8.734214 -2.095664
v -13.21122 -12.73421 -2.095664
v -12.71122 -12.73421 -2.095664
v -12.71122 -10.73421 -2.095664
v -13.21122 -10.73421 -2.095664
v -13.21122 -10.73421 -2.095664
v -13.21122 -9.734214 -2.095664
v -13.21122 -9.734214 -2.095664
v -12.71122 -9.734214 -2.095664
v -12.71122 -8.734214 -2.095664
v -13.21122 -8.734214 -2.095664
v -13.21122 -8.734214 -2.095664
v -13.21122 -8.234214 -2.095664
v -13.21122 -8.234214 -2.095664
v -13.71122 -8.234214 -2.095664
vt 11.18683 -1.499997
vt 11.18683 -3.499997
vt -4 -3.500001
vt -4 -1.500001
vt -4 0.4999989
vt -4.5 0.4999988
vt -4.5 -1.500001
vt -4 -4.000001
vt 11.18683 -3.999999
vt -4 1.499999
vt 11.18683 2.500002
vt -4.000001 2.499999
vt -4.500001 2.499999
vt -4.5 1.499999
vt -3.500001 2.999999
vt 11.18683 4.500002
vt -3.500001 4.499999
vt 11.18683 5.000002
vt -3.500001 4.999999
vt -4.000001 2.999999
vt -10.18683 -1.499997
vt 5 -1.500001
vt 5 -3.500001
vt -10.18683 -3.499998
vt 5 -4.000001
vt -10.18683 -3.999998
vt -10.18683 2.500002
vt -10.18683 4.500002
vt 4.500001 2.999999
vt 4.500001 4.499999
vt -10.18683 5.000001
vt 4.500001 4.999999
vt 5 1.25
vt 5 -0.25
vt -10.18683 -0.25
vt -10.18683 1.25
vt 0.4999988 0.75
vt 0.4999988 -0.25
vt -1.500001 -0.25
vt -1.500001 0.75
vt 2.499999 0.75
vt 2.499999 -0.25
vt 1.499999 -0.25
vt 1.499999 0.75
vt 11.18683 1.25
vt 11.18683 -0.25
vt -3.500001 -0.25
vt -3.500001 1.25
vt -1.500001 1.25
vt -1.500001 -0.25
vt -3.500001 -0.25
vt -3.500001 1.25
vt 2.499999 1.25
vt 2.499999 -0.25
vt 4.499999 1.25
vt 4.499999 -0.25
vt 4.999999 -0.25
vt 4.999999 1.25
vt -4.000001 1.25
vt -4.000001 -0.25
vt 5 -0.25
vt 5 0.75
vt 5.5 0.75
vt 5.5 -0.25
vt -3.500001 -0.25
vt -3.500001 1.25
vt -1.500001 0.75
vt -4.000001 1.25
vt -4.000001 -0.25
vt -1.500001 1.25
vt -1.500001 -0.25
vt -4.5 -0.25
vt -4.5 0.75
vt -4 0.75
vt -4 -0.25
vt 1.499999 0.75
vt 1.499999 -0.25
vt 0.4999989 -0.25
vt 0.4999989 0.75
vt 5.5 -0.25
vt 5 -0.25
vt 5 0.75
vt 5.5 0.75
vt -4.500001 -0.25
vt -4.500001 0.75
vt -4.000001 0.75
vt -4.000001 -0.25
vt 2.499999 -0.25
vt 2.499999 0.75
vt 2.999999 0.75
vt 2.999999 -0.25
vt -4.000001 -0.25
vt -4.000001 0.75
vt -3.500001 0.75
vt -3.500001 -0.25
vt 2.999999 0.75
vt 4.499999 1.25
vt 4.499999 -0.25
vt 4.999999 -0.25
vt 4.999999 1.25
vt 2.999999 1.25
vt 2.999999 -0.25
vt 5 0.4999989
vt 5.5 -1.500001
vt 5.5 0.4999988
vt 5 1.499999
vt 5.000001 2.499999
vt 5.5 1.499999
vt 5.500001 2.499999
vt 5.000001 2.999999
vt -1.500001 1.25
vt 0.4999988 1.25
vt 1.499999 1.25
vt 2.499999 1.25
vt 5 1.25
vt 5.5 1.25
vt -4.5 1.25
vt -4 1.25
vt 0.4999989 1.25
vt 1.499999 1.25
vt 5 1.25
vt 5.5 1.25
vt -4.500001 1.25
vt -4.000001 1.25
vt 2.499999 1.25
vt 2.999999 1.25
vt -4.000001 1.25
vt -3.500001 1.25
vn 0 0 -1
vn 0 0 -1
vn 0 0 -1
vn 0 0 -1
vn 0 0 -1
vn 0 0 -1
vn 0 0 -1
vn 0 0 -1
vn 0 0 -1
vn 0 0 -1
vn 0 0 -1
vn 0 0 -1
vn 0 0 -1
vn 0 0 -1
vn 0 0 -1
vn 0 0 -1
vn 0 0 -1
vn 0 0 -1
vn 0 0 -1
vn 0 0 -1
vn 0 0 1
vn 0 0 1
vn 0 0 1
vn 0 0 1
vn 0 0 1
vn 0 0 1
vn 0 0 1
vn 0 0 1
vn 0 0 1
vn 0 0 1
vn 0 0 1
vn 0 0 1
vn 0 -1 0
vn 0 -1 0
vn 0 -1 0
vn 0 -1 0
vn 1 0 0
vn 1 0 0
vn 1 0 0
vn 1 0 0
vn 1 0 0
vn 1 0 0
vn 1 0 0
vn 1 0 0
vn 0 1 0
vn 0 1 0
vn 0 1 0
vn 0 1 0
vn -1 0 0
vn -1 0 0
vn -1 0 0
vn -1 0 0
vn -1 0 0
vn -1 0 0
vn -1 0 0
vn -1 0 0
vn -1 0 0
vn -1 0 0
vn -1 0 0
vn -1 0 0
vn 0 -1 0
vn 0 -1 0
vn 0 -1 0
vn 0 -1 0
vn 1 0 0
vn 1 0 0
vn 1 0 0
vn 1 0 0
vn 1 0 0
vn 1 0 0
vn 1 0 0
vn 0 1 0
vn 0 1 0
vn 0 1 0
vn 0 1 0
vn 1 0 0
vn 1 0 0
vn 1 0 0
vn 1 0 0
vn 0 -1 0
vn 0 -1 0
vn 0 -1 0
vn 0 -1 0
vn 0 1 0
vn 0 1 0
vn 0 1 0
vn 0 1 0
vn 1 0 0
vn 1 0 0
vn 1 0 0
vn 1 0 0
vn 0 1 0
vn 0 1 0
vn 0 1 0
vn 0 1 0
vn 1 0 0
vn 1 0 0
vn 1 0 0
vn 1 0 0
vn 1 0 0
vn 1 0 0
vn 1 0 0
vn 0 0 1
vn 0 0 1
vn 0 0 1
vn 0 0 1
vn 0 0 1
vn 0 0 1
vn 0 0 1
vn 0 0 1
vn 1 0 0
vn 1 0 0
vn 1 0 0
vn 1 0 0
vn 0 -1 0
vn 0 -1 0
vn 0 1 0
vn 0 1 0
vn 1 0 0
vn 1 0 0
vn 0 -1 0
vn 0 -1 0
vn 0 1 0
vn 0 1 0
vn 1 0 0
vn 1 0 0
vn 0 1 0
vn 0 1 0
g colapsed_city_Most4_0
f 3/3/3 2/2/2 1/1/1
f 4/4/4 3/3/3 1/1/1
f 1/1/1 5/5/5 4/4/4
f 4/4/4 5/5/5 6/6/6
f 7/7/7 4/4/4 6/6/6
f 2/2/2 3/3/3 8/8/8
f 9/9/9 2/2/2 8/8/8
f 10/10/10 5/5/5 1/1/1
f 11/11/11 10/10/10 1/1/1
f 12/12/12 10/10/10 11/11/11
f 10/10/10 12/12/12 13/13/13
f 14/14/14 10/10/10 13/13/13
f 12/12/12 11/11/11 15/15/15
f 11/11/11 16/16/16 15/15/15
f 16/16/16 17/17/17 15/15/15
f 17/17/17 16/16/16 18/18/18
f 19/19/19 17/17/17 18/18/18
f 20/20/20 12/12/12 15/15/15
f 23/23/23 22/22/22 21/21/21
f 24/24/24 23/23/23 21/21/21
f 23/23/23 24/24/24 25/25/25
f 24/24/24 26/26/26 25/25/25
f 29/29/29 28/28/28 27/27/27
f 30/30/30 28/28/28 29/29/29
f 28/28/28 30/30/30 31/31/31
f 30/30/30 32/32/32 31/31/31
f 35/35/35 34/34/34 33/33/33
f 36/36/36 35/35/35 33/33/33
f 39/39/39 38/38/38 37/37/37
f 40/40/40 39/39/39 37/37/37
f 43/43/43 42/42/42 41/41/41
f 44/44/44 43/43/43 41/41/41
f 47/47/47 46/46/46 45/45/45
f 48/48/48 47/47/47 45/45/45
f 51/51/51 50/50/50 49/49/49
f 52/52/52 51/51/51 49/49/49
f 49/49/49 50/50/50 53/53/53
f 50/50/50 54/54/54 53/53/53
f 53/53/53 54/54/54 55/55/55
f 54/54/54 56/56/56 55/55/55
f 56/56/56 57/57/57 55/55/55
f 57/57/57 58/58/58 55/55/55
f 52/52/52 59/59/59 51/51/51
f 59/59/59 60/60/60 51/51/51
f 63/63/63 62/62/62 61/61/61
f 64/64/64 63/63/63 61/61/61
f 67/67/67 66/66/66 65/65/65
f 66/66/66 68/68/68 65/65/65
f 68/68/68 69/69/69 65/65/65
f 70/70/70 66/66/66 67/67/67
f 71/71/71 67/67/67 65/65/65
f 74/74/74 73/73/73 72/72/72
f 75/75/75 74/74/74 72/72/72
f 78/78/78 77/77/77 76/76/76
f 79/79/79 78/78/78 76/76/76
f 82/82/82 81/81/81 80/80/80
f 83/83/83 82/82/82 80/80/80
f 86/86/86 85/85/85 84/84/84
f 87/87/87 86/86/86 84/84/84
f 90/90/90 89/89/89 88/88/88
f 91/91/91 90/90/90 88/88/88
f 94/94/94 93/93/93 92/92/92
f 95/95/95 94/94/94 92/92/92
f 98/98/98 97/97/97 96/96/96
f 98/98/98 99/99/99 97/97/97
f 99/99/99 100/100/100 97/97/97
f 101/101/101 96/96/96 97/97/97
f 102/102/102 98/98/98 96/96/96
g colapsed_city_Most4_1
f 103/103/103 27/27/27 21/21/21
f 22/22/22 103/103/103 21/21/21
f 103/103/103 22/22/22 104/104/104
f 105/105/105 103/103/103 104/104/104
f 106/106/106 27/27/27 103/103/103
f 107/107/107 27/27/27 106/106/106
f 107/107/107 106/106/106 108/108/108
f 109/109/109 107/107/107 108/108/108
f 107/107/107 29/29/29 27/27/27
f 110/110/110 29/29/29 107/107/107
f 37/37/37 112/112/112 111/111/111
f 40/40/40 37/37/37 111/111/111
f 41/41/41 114/114/114 113/113/113
f 44/44/44 41/41/41 113/113/113
f 116/116/116 115/115/115 62/62/62
f 63/63/63 116/116/116 62/62/62
f 118/118/118 117/117/117 73/73/73
f 74/74/74 118/118/118 73/73/73
f 76/76/76 120/120/120 119/119/119
f 79/79/79 76/76/76 119/119/119
f 122/122/122 121/121/121 82/82/82
f 83/83/83 122/122/122 82/82/82
f 124/124/124 123/123/123 85/85/85
f 86/86/86 124/124/124 85/85/85
f 126/126/126 125/125/125 89/89/89
f 90/90/90 126/126/126 89/89/89
f 128/128/128 127/127/127 93/93/93
f 94/94/94 128/128/128 93/93/93
