g colapsed_city_ground_01
v 29.37298 86.75562 -7.97066
v 29.37296 280.8936 -7.97066
v 29.37296 280.8936 -7.72066
v 29.37298 86.75562 -7.72066
v 29.37296 280.8936 -7.72066
v 313.114 280.8936 -7.72066
v 313.114 86.75562 -7.970664
v 29.37298 86.75562 -7.72066
vt 97.56894 0.3750005
vt -96.569 0.3750005
vt -96.569 0.6250005
vt 97.56894 0.6250005
vt -141.3705 97.569
vt 142.3705 97.56894
vt 142.3705 -96.56901
vt -141.3705 -96.56894
vn -1 0 0
vn -1 0 0
vn -1 0 0
vn -1 0 0
vn 0.0004405502 -0.0006438827 0.9999998
vn 0 -0.001287765 0.9999992
vn 0.0004405502 -0.0006438827 0.9999998
vn 0.0008811001 0 0.9999996
g colapsed_city_ground_01_0
f 3/3/3 2/2/2 1/1/1
f 4/4/4 3/3/3 1/1/1
f 7/7/7 6/6/6 5/5/5
f 5/5/5 8/8/8 7/7/7
