g colapsed_city_setka001
v -17.11735 -16.23315 -5.717922
v -17.11736 -6.233152 -5.717914
v -17.11736 -6.23315 -8.199016
v -17.11735 -16.23315 -8.199023
v -17.11735 -16.23315 -2.735964
v -17.11736 -6.233153 -2.735957
v -17.11736 -6.233152 -5.735957
v -17.11735 -16.23315 -5.735964
vt 0.01014889 0.1057536
vt 0.5041364 0.1057536
vt 0.5041365 0.2944881
vt 0.01014889 0.2944881
vt 0.0119482 0.01172091
vt 0.5059358 0.01172091
vt 0.5059358 0.2399275
vt 0.0119482 0.2399275
vn 1 0 0
vn 1 0 0
vn 1 0 0
vn 1 0 0
vn 1 0 0
vn 1 0 0
vn 1 0 0
vn 1 0 0
g colapsed_city_setka001_0
f 3/3/3 2/2/2 1/1/1
f 4/4/4 3/3/3 1/1/1
f 7/7/7 6/6/6 5/5/5
f 8/8/8 7/7/7 5/5/5
