g colapsed_city_door
v 2.380047 21.82433 5.716097
v 2.380048 23.30566 5.716097
v 2.380047 23.30566 2.216097
v 2.380048 21.82433 2.216097
v 2.449013 21.75136 5.802663
v 2.449013 21.82433 5.716097
v 2.449014 21.82433 2.216098
v 2.449014 21.75136 2.129532
v 2.380048 21.75136 2.129532
v 2.380048 21.82433 2.216097
v 2.380047 23.30566 2.216097
v 2.380047 23.37863 2.129532
v 2.449013 23.37863 2.129532
v 2.449013 23.30566 2.216098
v 2.449014 23.30566 5.716097
v 2.449013 23.37862 5.802663
v 2.449013 23.37862 5.802663
v 2.449014 23.30566 5.716097
v 2.449013 21.82433 5.716097
v 2.449013 21.75136 5.802663
v 2.080199 21.75136 5.802663
v 2.380047 21.75136 5.802663
v 2.380048 21.75136 2.129532
v 2.0802 21.75136 2.129532
v 2.449014 21.75136 2.129532
v 2.449013 21.75136 5.802663
v 2.0802 21.75136 2.129532
v 2.380048 21.75136 2.129532
v 2.380047 23.37863 2.129532
v 2.080199 23.37863 2.129532
v 2.080199 23.37863 2.129532
v 2.380047 23.37863 2.129532
v 2.380047 23.37862 5.802663
v 2.080199 23.37862 5.802663
v 2.449013 23.37862 5.802663
v 2.449013 23.37863 2.129532
v 2.080199 23.37862 5.802663
v 2.380047 23.37862 5.802663
v 2.380047 21.75136 5.802663
v 2.080199 21.75136 5.802663
v 2.449013 21.75136 5.802663
v 2.449013 23.37862 5.802663
v 2.449013 21.82433 5.716097
v 2.380047 21.82433 5.716097
v 2.380048 21.82433 2.216097
v 2.449014 21.82433 2.216098
v 2.449014 23.30566 5.716097
v 2.380048 23.30566 5.716097
v 2.380047 21.82433 5.716097
v 2.449013 21.82433 5.716097
v 2.449013 23.30566 2.216098
v 2.380047 23.30566 2.216097
v 2.380048 23.30566 5.716097
v 2.449014 23.30566 5.716097
v 2.449013 23.37863 2.129532
v 2.380047 23.37863 2.129532
v 2.449014 21.82433 2.216098
v 2.380048 21.82433 2.216097
v 2.380048 21.75136 2.129532
v 2.449014 21.75136 2.129532
vt 0.4462891 0.5732422
vt 0.4697266 0.5732422
vt 0.4697266 0.5185547
vt 0.4462891 0.5185547
vt 0.4658203 0.5654297
vt 0.4667969 0.5644531
vt 0.4667969 0.5234375
vt 0.4658203 0.5224609
vt 0.4677734 0.5410156
vt 0.4667969 0.5400391
vt 0.4667969 0.5224609
vt 0.4677734 0.5214844
vt 0.4677734 0.5214844
vt 0.4667969 0.5224609
vt 0.4667969 0.5644531
vt 0.4677734 0.5654297
vt 0.4677734 0.5214844
vt 0.4667969 0.5224609
vt 0.4667969 0.5400391
vt 0.4677734 0.5410156
vt 0.4677734 0.5654297
vt 0.4638672 0.5654297
vt 0.4638672 0.5214844
vt 0.4677734 0.5214844
vt 0.4638672 0.5214844
vt 0.4638672 0.5654297
vt 0.4667969 0.5478516
vt 0.4638672 0.5478516
vt 0.4638672 0.5283203
vt 0.4667969 0.5283203
vt 0.4638672 0.5214844
vt 0.4667969 0.5214844
vt 0.4667969 0.5654297
vt 0.4638672 0.5654297
vt 0.4677734 0.5654297
vt 0.4677734 0.5214844
vt 0.4679587 0.5662261
vt 0.4640524 0.5662261
vt 0.4640524 0.5467209
vt 0.4679587 0.5467209
vt 0.4640524 0.5467209
vt 0.4640524 0.5662261
vt 0.4677734 0.5644531
vt 0.4667969 0.5644531
vt 0.4667969 0.5273438
vt 0.4677734 0.5273438
vt 0.4669821 0.5300933
vt 0.4679587 0.5300933
vt 0.4679587 0.5477468
vt 0.4669821 0.5477468
vt 0.4667969 0.5224609
vt 0.4677734 0.5224609
vt 0.4677734 0.5644531
vt 0.4667969 0.5644531
vt 0.4667969 0.5214844
vt 0.4677734 0.5214844
vt 0.4677734 0.5273438
vt 0.4667969 0.5273438
vt 0.4667969 0.5302734
vt 0.4677734 0.5302734
vn 1 0 0
vn 1 0 0
vn 1 0 0
vn 1 0 0
vn 1 0 0
vn 1 0 0
vn 1 0 0
vn 1 0 0
vn 1 0 0
vn 1 0 0
vn 1 0 0
vn 1 0 0
vn 1 0 0
vn 1 0 0
vn 1 0 0
vn 1 0 0
vn 1 0 0
vn 1 0 0
vn 1 0 0
vn 1 0 0
vn 0 -1 0
vn 0 -1 0
vn 0 -1 0
vn 0 -1 0
vn 0 -1 0
vn 0 -1 0
vn 0 0 -1
vn 0 0.4216169 -0.906774
vn 0 -0.4216169 -0.906774
vn 0 0 -1
vn 0 1 0
vn 0 1 0
vn 0 1 0
vn 0 1 0
vn 0 1 0
vn 0 1 0
vn 0 0 1
vn 0 0 1
vn 0 0 1
vn 0 0 1
vn 0 0 1
vn 0 0 1
vn 0 1 0
vn 0 1 0
vn 0 0.9393142 -0.3430578
vn 0 0.9393142 -0.3430578
vn 0 0 -1
vn 0 0 -1
vn 0 0 -1
vn 0 0 -1
vn 0 -0.9393142 -0.3430578
vn 0 -0.9393142 -0.3430578
vn 0 -1 0
vn 0 -1 0
vn 0 -0.7646226 -0.6444783
vn 0 -0.4216169 -0.906774
vn 0 0.9393142 -0.3430578
vn 0 0.9393142 -0.3430578
vn 0 0.4216169 -0.906774
vn 0 0.7646226 -0.6444783
g colapsed_city_door_0
f 3/3/3 2/2/2 1/1/1
f 4/4/4 3/3/3 1/1/1
f 7/7/7 6/6/6 5/5/5
f 8/8/8 7/7/7 5/5/5
f 11/11/11 10/10/10 9/9/9
f 12/12/12 11/11/11 9/9/9
f 15/15/15 14/14/14 13/13/13
f 16/16/16 15/15/15 13/13/13
f 19/19/19 18/18/18 17/17/17
f 20/20/20 19/19/19 17/17/17
f 23/23/23 22/22/22 21/21/21
f 24/24/24 23/23/23 21/21/21
f 22/22/22 23/23/23 25/25/25
f 26/26/26 22/22/22 25/25/25
f 29/29/29 28/28/28 27/27/27
f 30/30/30 29/29/29 27/27/27
f 33/33/33 32/32/32 31/31/31
f 34/34/34 33/33/33 31/31/31
f 32/32/32 33/33/33 35/35/35
f 36/36/36 32/32/32 35/35/35
f 39/39/39 38/38/38 37/37/37
f 40/40/40 39/39/39 37/37/37
f 38/38/38 39/39/39 41/41/41
f 42/42/42 38/38/38 41/41/41
f 45/45/45 44/44/44 43/43/43
f 46/46/46 45/45/45 43/43/43
f 49/49/49 48/48/48 47/47/47
f 50/50/50 49/49/49 47/47/47
f 53/53/53 52/52/52 51/51/51
f 54/54/54 53/53/53 51/51/51
f 51/51/51 52/52/52 55/55/55
f 52/52/52 56/56/56 55/55/55
f 59/59/59 58/58/58 57/57/57
f 60/60/60 59/59/59 57/57/57
