g colapsed_city_vhod005
v 33.97693 -37.47119 -7.220652
v 33.97693 -33.52119 -7.220651
v 33.97693 -33.52119 -6.720651
v 33.97693 -37.47119 -6.720652
v 35.47693 -33.52119 -6.720652
v 35.47693 -37.47119 -6.720652
v 33.97693 -37.47119 -6.720652
v 33.97693 -33.52119 -6.720651
v 35.47693 -33.52119 -6.720652
v 33.97693 -33.52119 -6.720651
v 33.97693 -33.52119 -7.220651
v 35.47693 -33.52119 -7.220652
v 35.47693 -33.52119 -7.720652
v 33.97693 -33.52119 -7.720651
v 32.97693 -33.52119 -7.720652
v 32.97693 -33.52119 -7.220652
v 35.47693 -33.52119 -7.720652
v 33.97693 -33.52119 -7.720651
v 33.97693 -37.47119 -7.720652
v 35.47693 -37.47119 -7.720652
v 32.97693 -33.52119 -7.720652
v 32.97693 -37.47119 -7.720652
v 35.47693 -37.47119 -7.220652
v 33.97693 -37.47119 -7.220652
v 33.97693 -37.47119 -6.720652
v 35.47693 -37.47119 -6.720652
v 33.97693 -37.47119 -7.720652
v 35.47693 -37.47119 -7.720652
v 32.97693 -37.47119 -7.220652
v 32.97693 -37.47119 -7.720652
v 32.97693 -37.47119 -7.220652
v 32.97693 -37.47119 -7.720652
v 32.97693 -33.52119 -7.720652
v 32.97693 -33.52119 -7.220652
v 35.47693 -33.52119 -7.220652
v 35.47693 -33.52119 -7.720652
v 35.47693 -37.47119 -7.720652
v 35.47693 -37.47119 -7.220652
v 33.97693 -37.47119 -7.220652
v 32.97693 -37.47119 -7.220652
v 32.97693 -33.52119 -7.220652
v 33.97693 -33.52119 -7.220651
v 34.47693 -37.46286 -3.220651
v 34.47693 -36.97119 -3.220651
v 34.47693 -36.97119 -2.720651
v 34.47693 -37.46286 -2.720651
v 34.97693 -36.97119 -3.220652
v 34.97693 -37.46286 -3.220652
v 34.97693 -37.46286 -6.720652
v 34.97693 -36.97119 -6.720652
v 33.97693 -36.97119 -3.220652
v 33.97693 -36.47952 -3.220651
v 33.97693 -36.47952 -2.720651
v 33.97693 -36.97119 -2.720652
v 33.47693 -34.51286 -2.720651
v 33.47693 -36.47952 -2.720651
v 33.47693 -36.47952 -3.220651
v 33.47693 -34.51286 -3.220651
v 33.97693 -34.51286 -3.220651
v 33.97693 -34.02119 -3.220651
v 33.97693 -34.02119 -2.720651
v 33.97693 -34.51286 -2.720651
v 34.47693 -34.02119 -3.220651
v 34.47693 -33.52952 -3.220651
v 34.47693 -33.52952 -2.720651
v 34.47693 -34.02119 -2.720651
v 34.97693 -33.52952 -3.220651
v 34.97693 -34.02119 -3.220651
v 34.97693 -34.02119 -6.720651
v 34.97693 -33.52952 -6.720651
v 34.97693 -37.46286 -6.720652
v 35.47693 -37.46286 -6.720652
v 35.47693 -36.97119 -6.720652
v 34.97693 -36.97119 -6.720652
v 35.47693 -37.46286 -3.220652
v 35.47693 -37.46286 -6.720652
v 34.97693 -37.46286 -6.720652
v 34.97693 -37.46286 -3.220652
v 34.97693 -37.46286 -2.720652
v 35.47693 -37.46286 -2.720652
v 34.47693 -37.46286 -2.720651
v 34.47693 -37.46286 -3.220651
v 34.97693 -36.97119 -2.720652
v 35.47693 -36.97119 -2.720652
v 35.47693 -37.46286 -2.720652
v 34.97693 -37.46286 -2.720652
v 34.97693 -36.47952 -2.720651
v 35.47693 -36.47952 -2.720651
v 34.97693 -34.51286 -2.720651
v 35.47693 -34.51286 -2.720651
v 34.97693 -34.02119 -2.720651
v 35.47693 -34.02119 -2.720651
v 34.97693 -33.52952 -2.720651
v 35.47693 -33.52952 -2.720651
v 34.47693 -36.97119 -2.720651
v 34.47693 -37.46286 -2.720651
v 34.47693 -36.47952 -2.720651
v 34.47693 -34.51286 -2.720651
v 34.47693 -34.02119 -2.720651
v 34.47693 -33.52952 -2.720651
v 33.97693 -36.47952 -2.720651
v 33.97693 -36.97119 -2.720652
v 33.97693 -34.51286 -2.720651
v 33.97693 -34.02119 -2.720651
v 33.47693 -34.51286 -2.720651
v 33.47693 -36.47952 -2.720651
v 34.97693 -33.52952 -3.220651
v 35.47693 -33.52952 -3.220651
v 35.47693 -33.52952 -2.720651
v 34.97693 -33.52952 -2.720651
v 35.47693 -33.52952 -6.720651
v 34.97693 -33.52952 -6.720651
v 34.47693 -33.52952 -3.220651
v 34.47693 -33.52952 -2.720651
v 34.97693 -34.02119 -6.720651
v 35.47693 -34.02119 -6.720651
v 35.47693 -33.52952 -6.720651
v 34.97693 -33.52952 -6.720651
v 35.47693 -34.02119 -3.220651
v 35.47693 -34.02119 -6.720651
v 34.97693 -34.02119 -6.720651
v 34.97693 -34.02119 -3.220651
v 34.97693 -34.51286 -3.220651
v 35.47693 -34.51286 -3.220651
v 35.47693 -34.02119 -3.220651
v 34.97693 -34.02119 -3.220651
v 34.97693 -36.47952 -3.220651
v 35.47693 -36.47952 -3.220651
v 34.97693 -36.97119 -3.220652
v 35.47693 -36.97119 -3.220652
v 34.47693 -34.51286 -3.220651
v 34.47693 -34.02119 -3.220651
v 34.97693 -33.52952 -3.220651
v 34.47693 -33.52952 -3.220651
v 34.47693 -36.47952 -3.220651
v 34.47693 -36.97119 -3.220651
v 34.47693 -37.46286 -3.220651
v 34.97693 -37.46286 -3.220652
v 33.97693 -34.51286 -3.220651
v 33.97693 -34.02119 -3.220651
v 33.97693 -36.47952 -3.220651
v 33.97693 -36.97119 -3.220652
v 33.47693 -34.51286 -3.220651
v 33.47693 -36.47952 -3.220651
v 35.47693 -36.97119 -3.220652
v 34.97693 -36.97119 -3.220652
v 34.97693 -36.97119 -6.720652
v 35.47693 -36.97119 -6.720652
v 33.97693 -36.97119 -2.720652
v 34.47693 -36.97119 -2.720651
v 34.47693 -36.97119 -3.220651
v 33.97693 -36.97119 -3.220652
v 33.97693 -34.02119 -3.220651
v 34.47693 -34.02119 -3.220651
v 34.47693 -34.02119 -2.720651
v 33.97693 -34.02119 -2.720651
v 33.47693 -36.47952 -2.720651
v 33.97693 -36.47952 -2.720651
v 33.97693 -36.47952 -3.220651
v 33.47693 -36.47952 -3.220651
v 33.47693 -34.51286 -3.220651
v 33.97693 -34.51286 -3.220651
v 33.97693 -34.51286 -2.720651
v 33.47693 -34.51286 -2.720651
v 35.23684 -34.02119 -6.720651
v 35.73684 -34.02119 -6.720651
v 35.73684 -34.02119 -3.220652
v 35.23684 -34.02119 -3.220652
v 35.73684 -34.02119 -6.720651
v 35.73684 -36.97119 -6.720652
v 35.73684 -36.97119 -3.220652
v 35.73684 -34.02119 -3.220652
v 35.23684 -34.02119 -6.720651
v 35.23684 -36.97119 -6.720652
v 35.73684 -36.97119 -6.720652
v 35.73684 -34.02119 -6.720651
v 35.23684 -34.02119 -3.220652
v 35.23684 -36.97119 -3.220652
v 35.23684 -36.97119 -6.720652
v 35.23684 -34.02119 -6.720651
v 35.73684 -34.02119 -3.220652
v 35.73684 -36.97119 -3.220652
v 35.23684 -36.97119 -3.220652
v 35.23684 -34.02119 -3.220652
v 35.73684 -36.97119 -3.220652
v 35.73684 -36.97119 -6.720652
v 35.23684 -36.97119 -6.720652
v 35.23684 -36.97119 -3.220652
vt 2.475001 -1.5
vt -1.474998 -1.5
vt -1.474998 -0.9999995
vt 2.475001 -1
vt 2.474999 -0.750001
vt -1.475 -0.750001
vt -1.475 0.75
vt 2.474999 0.75
vt -0.750001 -0.9999999
vt 0.75 -0.9999995
vt 0.75 -1.5
vt -0.75 -1.5
vt -0.75 -2
vt 0.75 -2
vt 1.75 -2
vt 1.75 -1.5
vt 1.75 -1.474998
vt 0.25 -1.474998
vt 0.249999 2.475001
vt 1.749999 2.475001
vt -0.75 -1.474998
vt -0.750001 2.475001
vt 1.749999 -1.5
vt 0.249999 -1.5
vt 0.249999 -1
vt 1.75 -1
vt 0.249999 -2
vt 1.749999 -2
vt -0.750001 -1.5
vt -0.750001 -2
vt 2.475001 -1.5
vt 2.475001 -2
vt -1.474998 -2
vt -1.474998 -1.5
vt 2.474998 -1.5
vt 2.474998 -2
vt -1.475001 -2
vt -1.475001 -1.5
vt -1.475 0.75
vt -1.475 1.75
vt 2.474999 1.75
vt 2.474999 0.75
vt 2.466665 2.5
vt 1.974999 2.5
vt 1.974999 3
vt 2.466665 3
vt 1.974999 2.5
vt 2.466665 2.5
vt 2.466666 -0.9999998
vt 1.975 -0.9999998
vt 1.974999 2.5
vt 1.483333 2.5
vt 1.483333 3
vt 1.974999 3
vt -0.4833345 3
vt 1.483333 3
vt 1.483333 2.5
vt -0.4833345 2.5
vt -0.4833345 2.5
vt -0.9750013 2.5
vt -0.9750013 3
vt -0.4833345 3
vt -0.9750013 2.5
vt -1.466668 2.5
vt -1.466668 3
vt -0.9750013 3
vt -1.466668 2.5
vt -0.9750013 2.5
vt -0.9749994 -0.9999995
vt -1.466667 -0.9999995
vt 1.249999 2.466666
vt 1.749999 2.466666
vt 1.749999 1.975
vt 1.249999 1.975
vt 1.749999 2.5
vt 1.749999 -0.9999998
vt 1.249999 -0.9999998
vt 1.249998 2.5
vt 1.249998 3
vt 1.749999 3
vt 0.7499981 3
vt 0.7499981 2.5
vt -0.249999 1.974999
vt -0.749999 1.974999
vt -0.749999 2.466665
vt -0.2499981 2.466665
vt -0.25 1.483333
vt -0.75 1.483333
vt -0.25 -0.4833345
vt -0.75 -0.4833345
vt -0.25 -0.9750013
vt -0.75 -0.9750013
vt -0.2500019 -1.466668
vt -0.750001 -1.466668
vt 0.250001 1.974999
vt 0.2500019 2.466665
vt 0.25 1.483333
vt 0.25 -0.4833345
vt 0.25 -0.9750013
vt 0.2499981 -1.466668
vt 0.75 1.483333
vt 0.750001 1.974999
vt 0.75 -0.4833345
vt 0.75 -0.9750013
vt 1.25 -0.4833345
vt 1.25 1.483333
vt -0.25 2.5
vt -0.75 2.5
vt -0.750001 3
vt -0.2500019 3
vt -0.750001 -0.9999995
vt -0.25 -0.9999995
vt 0.25 2.5
vt 0.2499981 3
vt 1.25 -0.9749994
vt 1.750001 -0.9749994
vt 1.750001 -1.466667
vt 1.25 -1.466667
vt 1.75 2.5
vt 1.750001 -0.9999995
vt 1.25 -0.9999995
vt 1.25 2.5
vt 1.25 -0.4833345
vt 1.75 -0.4833345
vt 1.75 -0.9750013
vt 1.25 -0.9750013
vt 1.25 1.483333
vt 1.75 1.483333
vt 1.249998 1.974999
vt 1.749999 1.974999
vt 0.75 -0.4833345
vt 0.75 -0.9750013
vt 1.25 -1.466668
vt 0.75 -1.466668
vt 0.75 1.483333
vt 0.7499981 1.974999
vt 0.7499981 2.466665
vt 1.249998 2.466665
vt 0.25 -0.4833345
vt 0.25 -0.9750013
vt 0.25 1.483333
vt 0.2499981 1.974999
vt -0.25 -0.4833345
vt -0.25 1.483333
vt -0.749999 2.5
vt -0.2499981 2.5
vt -0.249999 -0.9999998
vt -0.749999 -0.9999998
vt 0.249999 3
vt 0.749999 3
vt 0.7499981 2.5
vt 0.2499981 2.5
vt 0.75 2.5
vt 0.25 2.5
vt 0.25 3
vt 0.75 3
vt -0.25 3
vt 0.25 3
vt 0.25 2.5
vt -0.25 2.5
vt 1.25 2.5
vt 0.75 2.5
vt 0.75 3
vt 1.25 3
vt 0.3935547 0.4570313
vt 0.3857422 0.4570313
vt 0.3857422 0.5117188
vt 0.3935547 0.5117188
vt 0.4316406 0.4013672
vt 0.3857422 0.4013672
vt 0.3857422 0.4560547
vt 0.4316406 0.4560547
vt 0.4033203 0.5029297
vt 0.4033203 0.4570313
vt 0.3955078 0.4570313
vt 0.3955078 0.5029297
vt 0.4423828 0.4560547
vt 0.4892578 0.4560547
vt 0.4892578 0.4013672
vt 0.4423828 0.4013672
vt 0.4042969 0.4570313
vt 0.4042969 0.5029297
vt 0.4121094 0.5029297
vt 0.4121094 0.4570313
vt 0.4404297 0.4560547
vt 0.4404297 0.4013672
vt 0.4335938 0.4013672
vt 0.4335938 0.4560547
vn -1 0 0
vn -1 0 0
vn -1 0 0
vn -1 0 0
vn 0 0 1
vn 0 0 1
vn 0 0 1
vn 0 0 1
vn 0 1 0
vn 0 1 0
vn 0 1 0
vn 0 1 0
vn 0 1 0
vn 0 1 0
vn 0 1 0
vn 0 1 0
vn 0 0 -1
vn 0 0 -1
vn 0 0 -1
vn 0 0 -1
vn 0 0 -1
vn 0 0 -1
vn 0 -1 0
vn 0 -1 0
vn 0 -1 0
vn 0 -1 0
vn 0 -1 0
vn 0 -1 0
vn 0 -1 0
vn 0 -1 0
vn -1 0 0
vn -1 0 0
vn -1 0 0
vn -1 0 0
vn 1 0 0
vn 1 0 0
vn 1 0 0
vn 1 0 0
vn 0 0 1
vn 0 0 1
vn 0 0 1
vn 0 0 1
vn -1 0 0
vn -1 0 0
vn -1 0 0
vn -1 0 0
vn -1 0 0
vn -1 0 0
vn -1 0 0
vn -1 0 0
vn -1 0 0
vn -1 0 0
vn -1 0 0
vn -1 0 0
vn -1 0 0
vn -1 0 0
vn -1 0 0
vn -1 0 0
vn -1 0 0
vn -1 0 0
vn -1 0 0
vn -1 0 0
vn -1 0 0
vn -1 0 0
vn -1 0 0
vn -1 0 0
vn -1 0 0
vn -1 0 0
vn -1 0 0
vn -1 0 0
vn 0 0 -1
vn 0 0 -1
vn 0 0 -1
vn 0 0 -1
vn 0 -1 0
vn 0 -1 0
vn 0 -1 0
vn 0 -1 0
vn 0 -1 0
vn 0 -1 0
vn 0 -1 0
vn 0 -1 0
vn 0 0 1
vn 0 0 1
vn 0 0 1
vn 0 0 1
vn 0 0 1
vn 0 0 1
vn 0 0 1
vn 0 0 1
vn 0 0 1
vn 0 0 1
vn 0 0 1
vn 0 0 1
vn 0 0 1
vn 0 0 1
vn 0 0 1
vn 0 0 1
vn 0 0 1
vn 0 0 1
vn 0 0 1
vn 0 0 1
vn 0 0 1
vn 0 0 1
vn 0 0 1
vn 0 0 1
vn 0 1 0
vn 0 1 0
vn 0 1 0
vn 0 1 0
vn 0 1 0
vn 0 1 0
vn 0 1 0
vn 0 1 0
vn 0 0 -1
vn 0 0 -1
vn 0 0 -1
vn 0 0 -1
vn 0 -1 0
vn 0 -1 0
vn 0 -1 0
vn 0 -1 0
vn 0 0 -1
vn 0 0 -1
vn 0 0 -1
vn 0 0 -1
vn 0 0 -1
vn 0 0 -1
vn 0 0 -1
vn 0 0 -1
vn 0 0 -1
vn 0 0 -1
vn 0 0 -1
vn 0 0 -1
vn 0 0 -1
vn 0 0 -1
vn 0 0 -1
vn 0 0 -1
vn 0 0 -1
vn 0 0 -1
vn 0 0 -1
vn 0 0 -1
vn 0 0 -1
vn 0 0 -1
vn 0 1 0
vn 0 1 0
vn 0 1 0
vn 0 1 0
vn 0 -1 0
vn 0 -1 0
vn 0 -1 0
vn 0 -1 0
vn 0 1 0
vn 0 1 0
vn 0 1 0
vn 0 1 0
vn 0 -1 0
vn 0 -1 0
vn 0 -1 0
vn 0 -1 0
vn 0 1 0
vn 0 1 0
vn 0 1 0
vn 0 1 0
vn 0 1 0
vn 0 1 0
vn 0 1 0
vn 0 1 0
vn 1 0 0
vn 1 0 0
vn 1 0 0
vn 1 0 0
vn 0 0 -1
vn 0 0 -1
vn 0 0 -1
vn 0 0 -1
vn -1 0 0
vn -1 0 0
vn -1 0 0
vn -1 0 0
vn 0 0 1
vn 0 0 1
vn 0 0 1
vn 0 0 1
vn 0 -1 0
vn 0 -1 0
vn 0 -1 0
vn 0 -1 0
g colapsed_city_vhod005_0
f 3/3/3 2/2/2 1/1/1
f 4/4/4 3/3/3 1/1/1
f 7/7/7 6/6/6 5/5/5
f 8/8/8 7/7/7 5/5/5
f 11/11/11 10/10/10 9/9/9
f 12/12/12 11/11/11 9/9/9
f 12/12/12 13/13/13 11/11/11
f 13/13/13 14/14/14 11/11/11
f 14/14/14 15/15/15 11/11/11
f 15/15/15 16/16/16 11/11/11
f 19/19/19 18/18/18 17/17/17
f 20/20/20 19/19/19 17/17/17
f 21/21/21 18/18/18 19/19/19
f 22/22/22 21/21/21 19/19/19
f 25/25/25 24/24/24 23/23/23
f 26/26/26 25/25/25 23/23/23
f 24/24/24 27/27/27 23/23/23
f 27/27/27 28/28/28 23/23/23
f 24/24/24 29/29/29 27/27/27
f 29/29/29 30/30/30 27/27/27
f 33/33/33 32/32/32 31/31/31
f 34/34/34 33/33/33 31/31/31
f 37/37/37 36/36/36 35/35/35
f 38/38/38 37/37/37 35/35/35
f 41/41/41 40/40/40 39/39/39
f 42/42/42 41/41/41 39/39/39
g colapsed_city_vhod005_1
f 45/45/45 44/44/44 43/43/43
f 46/46/46 45/45/45 43/43/43
f 49/49/49 48/48/48 47/47/47
f 50/50/50 49/49/49 47/47/47
f 53/53/53 52/52/52 51/51/51
f 54/54/54 53/53/53 51/51/51
f 57/57/57 56/56/56 55/55/55
f 58/58/58 57/57/57 55/55/55
f 61/61/61 60/60/60 59/59/59
f 62/62/62 61/61/61 59/59/59
f 65/65/65 64/64/64 63/63/63
f 66/66/66 65/65/65 63/63/63
f 69/69/69 68/68/68 67/67/67
f 70/70/70 69/69/69 67/67/67
f 73/73/73 72/72/72 71/71/71
f 74/74/74 73/73/73 71/71/71
f 77/77/77 76/76/76 75/75/75
f 78/78/78 77/77/77 75/75/75
f 78/78/78 75/75/75 79/79/79
f 75/75/75 80/80/80 79/79/79
f 78/78/78 79/79/79 81/81/81
f 82/82/82 78/78/78 81/81/81
f 85/85/85 84/84/84 83/83/83
f 86/86/86 85/85/85 83/83/83
f 83/83/83 84/84/84 87/87/87
f 84/84/84 88/88/88 87/87/87
f 89/89/89 87/87/87 88/88/88
f 90/90/90 89/89/89 88/88/88
f 89/89/89 90/90/90 91/91/91
f 90/90/90 92/92/92 91/91/91
f 91/91/91 92/92/92 93/93/93
f 92/92/92 94/94/94 93/93/93
f 86/86/86 83/83/83 95/95/95
f 96/96/96 86/86/86 95/95/95
f 83/83/83 87/87/87 97/97/97
f 95/95/95 83/83/83 97/97/97
f 98/98/98 97/97/97 87/87/87
f 89/89/89 98/98/98 87/87/87
f 89/89/89 91/91/91 99/99/99
f 98/98/98 89/89/89 99/99/99
f 91/91/91 93/93/93 100/100/100
f 99/99/99 91/91/91 100/100/100
f 95/95/95 97/97/97 101/101/101
f 102/102/102 95/95/95 101/101/101
f 103/103/103 101/101/101 97/97/97
f 98/98/98 103/103/103 97/97/97
f 98/98/98 99/99/99 104/104/104
f 103/103/103 98/98/98 104/104/104
f 103/103/103 105/105/105 101/101/101
f 105/105/105 106/106/106 101/101/101
f 109/109/109 108/108/108 107/107/107
f 110/110/110 109/109/109 107/107/107
f 107/107/107 108/108/108 111/111/111
f 112/112/112 107/107/107 111/111/111
f 110/110/110 107/107/107 113/113/113
f 114/114/114 110/110/110 113/113/113
f 117/117/117 116/116/116 115/115/115
f 118/118/118 117/117/117 115/115/115
f 121/121/121 120/120/120 119/119/119
f 122/122/122 121/121/121 119/119/119
f 125/125/125 124/124/124 123/123/123
f 126/126/126 125/125/125 123/123/123
f 127/127/127 123/123/123 124/124/124
f 128/128/128 127/127/127 124/124/124
f 127/127/127 128/128/128 129/129/129
f 128/128/128 130/130/130 129/129/129
f 126/126/126 123/123/123 131/131/131
f 132/132/132 126/126/126 131/131/131
f 133/133/133 126/126/126 132/132/132
f 134/134/134 133/133/133 132/132/132
f 135/135/135 131/131/131 123/123/123
f 127/127/127 135/135/135 123/123/123
f 127/127/127 129/129/129 136/136/136
f 135/135/135 127/127/127 136/136/136
f 136/136/136 129/129/129 137/137/137
f 129/129/129 138/138/138 137/137/137
f 132/132/132 131/131/131 139/139/139
f 140/140/140 132/132/132 139/139/139
f 141/141/141 139/139/139 131/131/131
f 135/135/135 141/141/141 131/131/131
f 135/135/135 136/136/136 142/142/142
f 141/141/141 135/135/135 142/142/142
f 143/143/143 139/139/139 141/141/141
f 144/144/144 143/143/143 141/141/141
f 147/147/147 146/146/146 145/145/145
f 148/148/148 147/147/147 145/145/145
f 151/151/151 150/150/150 149/149/149
f 152/152/152 151/151/151 149/149/149
f 155/155/155 154/154/154 153/153/153
f 156/156/156 155/155/155 153/153/153
f 159/159/159 158/158/158 157/157/157
f 160/160/160 159/159/159 157/157/157
f 163/163/163 162/162/162 161/161/161
f 164/164/164 163/163/163 161/161/161
g colapsed_city_vhod005_2
f 167/167/167 166/166/166 165/165/165
f 168/168/168 167/167/167 165/165/165
f 171/171/171 170/170/170 169/169/169
f 172/172/172 171/171/171 169/169/169
f 175/175/175 174/174/174 173/173/173
f 176/176/176 175/175/175 173/173/173
f 179/179/179 178/178/178 177/177/177
f 180/180/180 179/179/179 177/177/177
f 183/183/183 182/182/182 181/181/181
f 184/184/184 183/183/183 181/181/181
f 187/187/187 186/186/186 185/185/185
f 188/188/188 187/187/187 185/185/185
