g colapsed_city_ground_01
v 29.37298 86.75562 -7.970661
v 29.37296 280.8936 -7.97066
v 29.37296 280.8936 -7.72066
v 29.37298 86.75562 -7.72066
v 313.114 86.75562 -7.720656
v 29.37298 86.75562 -7.72066
v 29.37296 280.8936 -7.72066
v 313.114 280.8936 -7.72066
v 313.114 86.75562 -7.97066
v 29.37298 86.75562 -7.970661
v 29.37298 86.75562 -7.72066
v 313.114 86.75562 -7.97066
v 29.37298 86.75562 -7.72066
v 313.114 86.75562 -7.72066
vt 97.56894 0.3749981
vt -96.569 0.374999
vt -96.569 0.624999
vt 97.56894 0.6249986
vt 142.3705 -96.56901
vt -141.3705 -96.56894
vt -141.3705 97.569
vt 142.3705 97.56894
vt 142.3705 0.374999
vt -141.3705 0.3749981
vt -141.3705 0.6249986
vt 142.3705 0.374999
vt -141.3705 0.6249986
vt 142.3705 0.624999
vn -1 0 0
vn -1 0 0
vn -1 0 0
vn -1 0 0
vn 0 0 1
vn 0 0 1
vn 0 0 1
vn 0 0 1
vn 0 -1 0
vn 0 -1 0
vn 0 -1 0
vn 0 -1 0
vn 0 -1 0
vn 0 -1 0
g colapsed_city_ground_01_0
f 3/3/3 2/2/2 1/1/1
f 4/4/4 3/3/3 1/1/1
f 7/7/7 6/6/6 5/5/5
f 8/8/8 7/7/7 5/5/5
f 11/11/11 10/10/10 9/9/9
f 14/14/14 13/13/13 12/12/12
