g colapsed_city_perila
v 36.68432 -14.73421 -2.095663
v 36.68432 -14.73421 -1.595663
v 37.18432 -14.73421 -1.595663
v 37.18432 -14.73421 -2.095663
v 36.18432 -14.73421 -1.095663
v 40.18432 -14.73421 -1.595663
v 40.68432 -14.73421 -1.595663
v 40.18432 -14.73421 -2.095663
v 40.68432 -14.73421 -2.095663
v 43.68432 -14.73421 -1.595663
v 43.68432 -14.73421 -1.095663
v 44.18432 -14.73421 -1.595663
v 43.68432 -14.73421 -2.095663
v 44.18432 -14.73421 -2.095663
v 36.18432 -14.73421 -1.595663
v 37.18432 -14.73421 -2.095663
v 37.18432 -14.73421 -1.595663
v 37.18432 -14.23421 -1.595663
v 37.18432 -14.23421 -2.095663
v 37.18432 -14.23421 -2.095663
v 37.18432 -14.23421 -1.595663
v 36.68432 -14.23421 -1.595663
v 36.68432 -14.23421 -2.095663
v 36.18432 -14.23421 -1.095663
v 40.18432 -14.23421 -1.595663
v 36.18432 -14.23421 -1.595663
v 36.68432 -14.23421 -2.095663
v 36.68432 -14.23421 -1.595663
v 36.68432 -14.73421 -1.595663
v 36.68432 -14.73421 -2.095663
v 40.68432 -14.73421 -2.095663
v 40.68432 -14.73421 -1.595663
v 40.68432 -14.23421 -1.595663
v 40.68432 -14.23421 -2.095663
v 40.68432 -14.23421 -2.095663
v 40.68432 -14.23421 -1.595663
v 40.18432 -14.23421 -1.595663
v 40.18432 -14.23421 -2.095663
v 36.18432 -14.23421 -1.095663
v 43.68432 -14.23421 -1.095663
v 43.68432 -14.23421 -1.595663
v 44.18432 -14.23421 -1.595663
v 44.18432 -14.23421 -2.095663
v 43.68432 -14.23421 -2.095663
v 50.18432 -14.23421 -1.095663
v 47.18432 -14.23421 -1.595663
v 47.68432 -14.23421 -1.595663
v 47.68432 -14.23421 -2.095663
v 47.18432 -14.23421 -2.095663
v 50.18432 -14.23421 -1.595663
v 40.18432 -14.23421 -2.095663
v 40.18432 -14.23421 -1.595663
v 40.18432 -14.73421 -1.595663
v 40.18432 -14.73421 -2.095663
v 44.18432 -14.73421 -2.095663
v 44.18432 -14.73421 -1.595663
v 44.18432 -14.23421 -1.595663
v 44.18432 -14.23421 -2.095663
v 43.68432 -14.23421 -2.095663
v 43.68432 -14.23421 -1.595663
v 43.68432 -14.73421 -1.595663
v 43.68432 -14.73421 -2.095663
v 47.18432 -14.73421 -2.095663
v 47.18432 -14.73421 -1.595663
v 47.68432 -14.73421 -1.595663
v 47.68432 -14.73421 -2.095663
v 50.18432 -14.73421 -1.095663
v 43.68432 -14.73421 -1.095663
v 44.18432 -14.73421 -1.595663
v 50.18432 -14.73421 -1.595663
v 47.68432 -14.73421 -2.095663
v 47.68432 -14.73421 -1.595663
v 47.68432 -14.23421 -1.595663
v 47.68432 -14.23421 -2.095663
v 47.18432 -14.23421 -2.095663
v 47.18432 -14.23421 -1.595663
v 47.18432 -14.73421 -1.595663
v 47.18432 -14.73421 -2.095663
v 36.18432 -14.23421 -1.595663
v 36.18432 -14.23421 -1.095663
v 36.18432 -14.73421 -1.095663
v 36.18432 -14.73421 -1.595663
v 50.18432 -14.73421 -1.595663
v 50.18432 -14.73421 -1.095663
v 50.18432 -14.23421 -1.095663
v 50.18432 -14.23421 -1.595663
v 37.18432 -14.73421 -1.595663
v 40.18432 -14.73421 -1.595663
v 40.18432 -14.23421 -1.595663
v 37.18432 -14.23421 -1.595663
v 40.68432 -14.73421 -1.595663
v 43.68432 -14.73421 -1.595663
v 43.68432 -14.23421 -1.595663
v 40.68432 -14.23421 -1.595663
v 36.18432 -14.23421 -1.095663
v 43.68432 -14.23421 -1.095663
v 43.68432 -14.73421 -1.095663
v 36.18432 -14.73421 -1.095663
v 44.18432 -14.73421 -1.595663
v 47.18432 -14.73421 -1.595663
v 47.18432 -14.23421 -1.595663
v 44.18432 -14.23421 -1.595663
v 43.68432 -14.23421 -1.095663
v 50.18432 -14.23421 -1.095663
v 50.18432 -14.73421 -1.095663
v 43.68432 -14.73421 -1.095663
v 47.68432 -14.73421 -1.595663
v 50.18432 -14.73421 -1.595663
v 50.18432 -14.23421 -1.595663
v 47.68432 -14.23421 -1.595663
v 36.68432 -14.23421 -1.595663
v 36.18432 -14.23421 -1.595663
v 36.18432 -14.73421 -1.595663
v 36.68432 -14.73421 -1.595663
vt 0.8622038 0.4722649
vt 0.8622038 0.4800774
vt 0.8700163 0.4800774
vt 0.8700163 0.4722649
vt 0.8541228 0.4878899
vt 0.9139616 0.4800774
vt 0.9217741 0.4800774
vt 0.9139616 0.4722649
vt 0.9217741 0.4722649
vt 0.966696 0.4800774
vt 0.966696 0.4878899
vt 0.9745085 0.4800774
vt 0.966696 0.4722649
vt 0.9745085 0.4722649
vt 0.8543913 0.4800774
vt 0.9139616 0.4722649
vt 0.9139616 0.4800774
vt 0.9217741 0.4800774
vt 0.9217741 0.4722649
vt 0.9295866 0.4722649
vt 0.9295866 0.4800774
vt 0.9373991 0.4800774
vt 0.9373991 0.4722649
vt 0.9450489 0.4878899
vt 0.8846648 0.4800774
vt 0.9452116 0.4800774
vt 0.9139616 0.4722649
vt 0.9139616 0.4800774
vt 0.9217741 0.4800774
vt 0.9217741 0.4722649
vt 0.9139616 0.4722649
vt 0.9139616 0.4800774
vt 0.9217741 0.4800774
vt 0.9217741 0.4722649
vt 0.966696 0.4722649
vt 0.966696 0.4800774
vt 0.9745085 0.4800774
vt 0.9745085 0.4722649
vt 1.035937 0.4878899
vt 0.9226795 0.4878899
vt 0.9227507 0.4800774
vt 0.9149382 0.4800774
vt 0.9149382 0.4722649
vt 0.9227507 0.4722649
vt 0.8246063 0.4878899
vt 0.8700163 0.4800774
vt 0.8622038 0.4800774
vt 0.8622038 0.4722649
vt 0.8700163 0.4722649
vt 0.8250945 0.4800774
vt 0.9139616 0.4722649
vt 0.9139616 0.4800774
vt 0.9217741 0.4800774
vt 0.9217741 0.4722649
vt 0.9139616 0.4722649
vt 0.9139616 0.4800774
vt 0.9217741 0.4800774
vt 0.9217741 0.4722649
vt 0.9139616 0.4722649
vt 0.9139616 0.4800774
vt 0.9217741 0.4800774
vt 0.9217741 0.4722649
vt 0.9286101 0.4722649
vt 0.9286101 0.4800774
vt 0.9364226 0.4800774
vt 0.9364226 0.4722649
vt 0.9744271 0.4878899
vt 0.8772388 0.4878899
vt 0.8846648 0.4800774
vt 0.9745085 0.4800774
vt 0.9139616 0.4722649
vt 0.9139616 0.4800774
vt 0.9217741 0.4800774
vt 0.9217741 0.4722649
vt 0.9139616 0.4722649
vt 0.9139616 0.4800774
vt 0.9217741 0.4800774
vt 0.9217741 0.4722649
vt 0.9139616 0.4800774
vt 0.9139616 0.4878899
vt 0.9217741 0.4878899
vt 0.9217741 0.4800774
vt 0.9139616 0.4800774
vt 0.9139616 0.4878899
vt 0.9217741 0.4878899
vt 0.9217741 0.4800774
vt 0.9286101 0.4878899
vt 0.9745085 0.4878899
vt 0.9745085 0.4800774
vt 0.9286101 0.4800774
vt 0.9286101 0.4878899
vt 0.9745085 0.4878899
vt 0.9745085 0.4800774
vt 0.9286101 0.4800774
vt 0.8541228 0.4878899
vt 0.966696 0.4878899
vt 0.966696 0.4800774
vt 0.8541228 0.4800774
vt 0.9286101 0.4878899
vt 0.9745085 0.4878899
vt 0.9745085 0.4800774
vt 0.9286101 0.4800774
vt 0.8772388 0.4878899
vt 0.9744271 0.4878899
vt 0.9744271 0.4800774
vt 0.8772388 0.4800774
vt 0.9364226 0.4878899
vt 0.9745085 0.4878899
vt 0.9745085 0.4800774
vt 0.9364226 0.4800774
vt 0.9745085 0.4800774
vt 0.966696 0.4800774
vt 0.966696 0.4878899
vt 0.9745085 0.4878899
vn 0 -1 0
vn 0 -1 0
vn 0 -1 0
vn 0 -1 0
vn 0 -1 0
vn 0 -1 0
vn 0 -1 0
vn 0 -1 0
vn 0 -1 0
vn 0 -1 0
vn 0 -1 0
vn 0 -1 0
vn 0 -1 0
vn 0 -1 0
vn 0 -1 0
vn 1 0 0
vn 1 0 0
vn 1 0 0
vn 1 0 0
vn 0 1 0
vn 0 1 0
vn 0 1 0
vn 0 1 0
vn 0 1 0
vn 0 1 0
vn 0 1 0
vn -1 0 0
vn -1 0 0
vn -1 0 0
vn -1 0 0
vn 1 0 0
vn 1 0 0
vn 1 0 0
vn 1 0 0
vn 0 1 0
vn 0 1 0
vn 0 1 0
vn 0 1 0
vn 0 1 0
vn 0 1 0
vn 0 1 0
vn 0 1 0
vn 0 1 0
vn 0 1 0
vn 0 1 0
vn 0 1 0
vn 0 1 0
vn 0 1 0
vn 0 1 0
vn 0 1 0
vn -1 0 0
vn -1 0 0
vn -1 0 0
vn -1 0 0
vn 1 0 0
vn 1 0 0
vn 1 0 0
vn 1 0 0
vn -1 0 0
vn -1 0 0
vn -1 0 0
vn -1 0 0
vn 0 -1 0
vn 0 -1 0
vn 0 -1 0
vn 0 -1 0
vn 0 -1 0
vn 0 -1 0
vn 0 -1 0
vn 0 -1 0
vn 1 0 0
vn 1 0 0
vn 1 0 0
vn 1 0 0
vn -1 0 0
vn -1 0 0
vn -1 0 0
vn -1 0 0
vn -1 0 0
vn -1 0 0
vn -1 0 0
vn -1 0 0
vn 1 0 0
vn 1 0 0
vn 1 0 0
vn 1 0 0
vn 0 0 -1
vn 0 0 -1
vn 0 0 -1
vn 0 0 -1
vn 0 0 -1
vn 0 0 -1
vn 0 0 -1
vn 0 0 -1
vn 0 0 1
vn 0 0 1
vn 0 0 1
vn 0 0 1
vn 0 0 -1
vn 0 0 -1
vn 0 0 -1
vn 0 0 -1
vn 0 0 1
vn 0 0 1
vn 0 0 1
vn 0 0 1
vn 0 0 -1
vn 0 0 -1
vn 0 0 -1
vn 0 0 -1
vn 0 0 -1
vn 0 0 -1
vn 0 0 -1
vn 0 0 -1
g colapsed_city_perila_0
f 3/3/3 2/2/2 1/1/1
f 4/4/4 3/3/3 1/1/1
f 3/3/3 5/5/5 2/2/2
f 3/3/3 6/6/6 5/5/5
f 7/7/7 5/5/5 6/6/6
f 7/7/7 6/6/6 8/8/8
f 9/9/9 7/7/7 8/8/8
f 7/7/7 10/10/10 5/5/5
f 10/10/10 11/11/11 5/5/5
f 12/12/12 11/11/11 10/10/10
f 12/12/12 10/10/10 13/13/13
f 14/14/14 12/12/12 13/13/13
f 5/5/5 15/15/15 2/2/2
f 18/18/18 17/17/17 16/16/16
f 19/19/19 18/18/18 16/16/16
f 22/22/22 21/21/21 20/20/20
f 23/23/23 22/22/22 20/20/20
f 22/22/22 24/24/24 21/21/21
f 24/24/24 25/25/25 21/21/21
f 22/22/22 26/26/26 24/24/24
f 29/29/29 28/28/28 27/27/27
f 30/30/30 29/29/29 27/27/27
f 33/33/33 32/32/32 31/31/31
f 34/34/34 33/33/33 31/31/31
f 37/37/37 36/36/36 35/35/35
f 38/38/38 37/37/37 35/35/35
f 37/37/37 39/39/39 36/36/36
f 39/39/39 40/40/40 36/36/36
f 40/40/40 41/41/41 36/36/36
f 41/41/41 40/40/40 42/42/42
f 41/41/41 42/42/42 43/43/43
f 44/44/44 41/41/41 43/43/43
f 40/40/40 45/45/45 42/42/42
f 45/45/45 46/46/46 42/42/42
f 46/46/46 45/45/45 47/47/47
f 46/46/46 47/47/47 48/48/48
f 49/49/49 46/46/46 48/48/48
f 45/45/45 50/50/50 47/47/47
f 53/53/53 52/52/52 51/51/51
f 54/54/54 53/53/53 51/51/51
f 57/57/57 56/56/56 55/55/55
f 58/58/58 57/57/57 55/55/55
f 61/61/61 60/60/60 59/59/59
f 62/62/62 61/61/61 59/59/59
f 65/65/65 64/64/64 63/63/63
f 66/66/66 65/65/65 63/63/63
f 65/65/65 67/67/67 64/64/64
f 64/64/64 67/67/67 68/68/68
f 69/69/69 64/64/64 68/68/68
f 65/65/65 70/70/70 67/67/67
f 73/73/73 72/72/72 71/71/71
f 74/74/74 73/73/73 71/71/71
f 77/77/77 76/76/76 75/75/75
f 78/78/78 77/77/77 75/75/75
f 81/81/81 80/80/80 79/79/79
f 82/82/82 81/81/81 79/79/79
f 85/85/85 84/84/84 83/83/83
f 86/86/86 85/85/85 83/83/83
f 89/89/89 88/88/88 87/87/87
f 90/90/90 89/89/89 87/87/87
f 93/93/93 92/92/92 91/91/91
f 94/94/94 93/93/93 91/91/91
f 97/97/97 96/96/96 95/95/95
f 98/98/98 97/97/97 95/95/95
f 101/101/101 100/100/100 99/99/99
f 102/102/102 101/101/101 99/99/99
f 105/105/105 104/104/104 103/103/103
f 106/106/106 105/105/105 103/103/103
f 109/109/109 108/108/108 107/107/107
f 110/110/110 109/109/109 107/107/107
f 113/113/113 112/112/112 111/111/111
f 114/114/114 113/113/113 111/111/111
