g Collider
v -46.23414 45.91042 123.0009
v 31.75138 29.79396 123.0009
v 31.49805 45.89273 123.0069
v -27.49483 30.52582 123.0092
v 22.59878 29.83401 123.0099
v -27.50271 -13.02517 123.0009
v 22.57096 -13.0144 123.0099
v -46.24591 30.49433 123.0009
v 22.57989 29.83074 23.00994
v 31.75138 29.79396 123.0009
v 22.59878 29.83401 123.0099
v 31.65228 29.83011 23.00094
v 31.65228 29.83011 23.00094
v 31.49805 45.89273 123.0069
v 31.75138 29.79396 123.0009
v 31.47086 45.88907 23.00693
v 31.47086 45.88907 23.00693
v -46.23414 45.91042 123.0009
v 31.49805 45.89273 123.0069
v -46.2079 45.89156 23.00094
v -27.48454 30.50148 23.00924
v -27.50271 -13.02517 123.0009
v -27.49483 30.52582 123.0092
v -27.48475 -13.00609 23.00094
v 22.57989 -13.0057 23.00993
v -27.50271 -13.02517 123.0009
v -27.48475 -13.00609 23.00094
v 22.57096 -13.0144 123.0099
v 22.57989 -13.0057 23.00993
v 22.59878 29.83401 123.0099
v 22.57096 -13.0144 123.0099
v 22.57989 29.83074 23.00994
v -27.48454 30.50148 23.00924
v -46.24591 30.49433 123.0009
v -46.20156 30.49435 23.00094
v -27.49483 30.52582 123.0092
v -46.20156 30.49435 23.00094
v -46.23414 45.91042 123.0009
v -46.2079 45.89156 23.00094
v -46.24591 30.49433 123.0009
vt 0 0
vt 0 0
vt 0 0
vt 0 0
vt 0 0
vt 0 0
vt 0 0
vt 0 0
vt 0 0
vt 0 0
vt 0 0
vt 0 0
vt 0 0
vt 0 0
vt 0 0
vt 0 0
vt 0 0
vt 0 0
vt 0 0
vt 0 0
vt 0 0
vt 0 0
vt 0 0
vt 0 0
vt 0 0
vt 0 0
vt 0 0
vt 0 0
vt 0 0
vt 0 0
vt 0 0
vt 0 0
vt 0 0
vt 0 0
vt 0 0
vt 0 0
vt 0 0
vt 0 0
vt 0 0
vt 0 0
vn 0.0001232706 -0.0001150147 -1
vn -0.000506433 -0.03535721 -0.9993747
vn 7.697212E-05 0.0003760942 -1
vn -0.0002841059 -0.02655917 -0.9996473
vn -0.0004167364 -0.03517868 -0.9993809
vn 9.794679E-05 9.51277E-05 -1
vn 0.0001794232 0 -1
vn 0.0004426822 0 -0.9999999
vn 0.002222565 0.9999975 0.0001639695
vn 0.002222565 0.9999975 0.0001639695
vn 0.004375602 0.9999905 -3.351653E-05
vn 6.951804E-05 1 0.0003614548
vn -0.9999084 -0.01351567 0.0006287398
vn -0.9999084 -0.01351567 0.0006287398
vn -0.9998758 -0.01573425 0.0009851317
vn -0.9999362 -0.01129701 0.0002723447
vn -0.0001297344 -1 0.0001126244
vn -0.0001297344 -1 0.0001126244
vn -0.0002274589 -1 3.668296E-05
vn -3.200979E-05 -1 0.0001885659
vn 1 -9.300255E-05 0.0001412447
vn 1 -9.300255E-05 0.0001412447
vn 1 -0.0001809766 0.0001029493
vn 1 0 0.00017954
vn -0.0001114094 1 0.0001388813
vn -0.0001114094 1 0.0001388813
vn 0 1 0.0001908312
vn -0.0002151283 1 8.693149E-05
vn -1 0.0003245737 4.982074E-05
vn -1 0.0003245737 4.982074E-05
vn -0.9999998 0.0006491473 -8.922577E-05
vn -1 0 0.0001888672
vn -0.001030375 0.9999995 -0.000121765
vn -0.001030375 0.9999995 -0.000121765
vn -0.000381139 1 0
vn -0.00167961 0.9999986 -0.0002435807
vn 1 -0.000176011 0.0003529153
vn 1 -0.000176011 0.0003529153
vn 0.9999999 0.0004116259 0.0002623248
vn 0.9999996 -0.0007636478 0.0004435057
g Collider_0
f 3/3/3 2/2/2 1/1/1
f 2/2/2 4/4/4 1/1/1
f 5/5/5 4/4/4 2/2/2
f 6/6/6 4/4/4 5/5/5
f 7/7/7 6/6/6 5/5/5
f 4/4/4 8/8/8 1/1/1
f 11/11/11 10/10/10 9/9/9
f 12/12/12 9/9/9 10/10/10
f 15/15/15 14/14/14 13/13/13
f 16/16/16 13/13/13 14/14/14
f 19/19/19 18/18/18 17/17/17
f 20/20/20 17/17/17 18/18/18
f 23/23/23 22/22/22 21/21/21
f 24/24/24 21/21/21 22/22/22
f 27/27/27 26/26/26 25/25/25
f 28/28/28 25/25/25 26/26/26
f 31/31/31 30/30/30 29/29/29
f 32/32/32 29/29/29 30/30/30
f 35/35/35 34/34/34 33/33/33
f 36/36/36 33/33/33 34/34/34
f 39/39/39 38/38/38 37/37/37
f 40/40/40 37/37/37 38/38/38
