g Colliders
v -4.019283 -0.7389618 -0.007174329
v 3.0591 0.7389621 0
v -4.019282 0.7389624 -0.007174454
v 3.0591 -0.7389621 0
v -4.019283 -0.7389618 0.1928254
v 3.0591 0.7389621 0.2
v 3.0591 -0.7389621 0.2
v -4.019282 0.7389624 0.1928253
v -4.019283 -0.7389618 -0.007174329
v 3.0591 -0.7389621 0.2
v 3.0591 -0.7389621 0
v -4.019283 -0.7389618 0.1928254
v 3.0591 -0.7389621 0
v 3.0591 0.7389621 0.2
v 3.0591 0.7389621 0
v 3.0591 -0.7389621 0.2
v 3.0591 0.7389621 0
v -4.019282 0.7389624 0.1928253
v -4.019282 0.7389624 -0.007174454
v 3.0591 0.7389621 0.2
v -4.019282 0.7389624 -0.007174454
v -4.019283 -0.7389618 0.1928254
v -4.019283 -0.7389618 -0.007174329
v -4.019282 0.7389624 0.1928253
v -4.019273 13.261 -0.007182369
v 3.059109 14.73892 -7.93457E-06
v -4.019273 14.73892 -0.007182302
v 3.059109 13.261 -7.93457E-06
v -4.019273 13.261 0.1928174
v 3.059109 14.73892 0.1999921
v 3.059109 13.261 0.1999921
v -4.019273 14.73892 0.1928175
v -4.019273 13.261 -0.007182369
v 3.059109 13.261 0.1999921
v 3.059109 13.261 -7.93457E-06
v -4.019273 13.261 0.1928174
v 3.059109 13.261 -7.93457E-06
v 3.059109 14.73892 0.1999921
v 3.059109 14.73892 -7.93457E-06
v 3.059109 13.261 0.1999921
v 3.059109 14.73892 -7.93457E-06
v -4.019273 14.73892 0.1928175
v -4.019273 14.73892 -0.007182302
v 3.059109 14.73892 0.1999921
v -4.019273 14.73892 -0.007182302
v -4.019273 13.261 0.1928174
v -4.019273 13.261 -0.007182369
v -4.019273 14.73892 0.1928175
v 16.2583 0.7389508 -17.65888
v 15.27044 -0.7389733 -10.61514
v 16.2583 -0.7389734 -17.65888
v 15.27044 0.7389508 -10.61514
v 16.45635 0.7389508 -17.63105
v 15.4685 -0.7389733 -10.58731
v 15.4685 0.7389508 -10.58731
v 16.45635 -0.7389734 -17.63105
v 16.2583 0.7389508 -17.65888
v 15.4685 0.7389508 -10.58731
v 15.27044 0.7389508 -10.61514
v 16.45635 0.7389508 -17.63105
v 15.27044 0.7389508 -10.61514
v 15.4685 -0.7389733 -10.58731
v 15.27044 -0.7389733 -10.61514
v 15.4685 0.7389508 -10.58731
v 15.27044 -0.7389733 -10.61514
v 16.45635 -0.7389734 -17.63105
v 16.2583 -0.7389734 -17.65888
v 15.4685 -0.7389733 -10.58731
v 16.2583 -0.7389734 -17.65888
v 16.45635 0.7389508 -17.63105
v 16.2583 0.7389508 -17.65888
v 16.45635 -0.7389734 -17.63105
v 16.25831 14.73892 -17.65889
v 15.27045 13.26099 -10.61515
v 16.25831 13.26099 -17.65889
v 15.27045 14.73892 -10.61515
v 16.45636 14.73892 -17.63105
v 15.4685 13.26099 -10.58731
v 15.4685 14.73892 -10.58731
v 16.45636 13.26099 -17.63105
v 16.25831 14.73892 -17.65889
v 15.4685 14.73892 -10.58731
v 15.27045 14.73892 -10.61515
v 16.45636 14.73892 -17.63105
v 15.27045 14.73892 -10.61515
v 15.4685 13.26099 -10.58731
v 15.27045 13.26099 -10.61515
v 15.4685 14.73892 -10.58731
v 15.27045 13.26099 -10.61515
v 16.45636 13.26099 -17.63105
v 16.25831 13.26099 -17.65889
v 15.4685 13.26099 -10.58731
v 16.25831 13.26099 -17.65889
v 16.45636 14.73892 -17.63105
v 16.25831 14.73892 -17.65889
v 16.45636 13.26099 -17.63105
v -10.8261 21.92995 6.14528
v 23.21176 22.16633 -23.44337
v -10.8261 22.16636 6.14528
v 23.21176 21.92992 -23.44337
v 2.295074 21.92995 21.23948
v 36.33293 22.16633 -8.349173
v 36.33293 21.92992 -8.349173
v 2.295074 22.16636 21.23948
v -10.8261 21.92995 6.14528
v 36.33293 21.92992 -8.349173
v 23.21176 21.92992 -23.44337
v 2.295074 21.92995 21.23948
v 23.21176 21.92992 -23.44337
v 36.33293 22.16633 -8.349173
v 23.21176 22.16633 -23.44337
v 36.33293 21.92992 -8.349173
v 23.21176 22.16633 -23.44337
v 2.295074 22.16636 21.23948
v -10.8261 22.16636 6.14528
v 36.33293 22.16633 -8.349173
v -10.8261 22.16636 6.14528
v 2.295074 21.92995 21.23948
v -10.8261 21.92995 6.14528
v 2.295074 22.16636 21.23948
v 23.22265 22.16968 -23.45284
v 23.40106 -8.266266 -23.60792
v 23.40107 22.16968 -23.60793
v 23.22264 -8.266266 -23.45282
v 36.34383 22.16968 -8.358643
v 36.52223 -8.266266 -8.513725
v 36.34381 -8.266266 -8.358629
v 36.52224 22.16968 -8.513739
v 23.22265 22.16968 -23.45284
v 36.34381 -8.266266 -8.358629
v 23.22264 -8.266266 -23.45282
v 36.34383 22.16968 -8.358643
v 23.22264 -8.266266 -23.45282
v 36.52223 -8.266266 -8.513725
v 23.40106 -8.266266 -23.60792
v 36.34381 -8.266266 -8.358629
v 23.40106 -8.266266 -23.60792
v 36.52224 22.16968 -8.513739
v 23.40107 22.16968 -23.60793
v 36.52223 -8.266266 -8.513725
v 23.40107 22.16968 -23.60793
v 36.34383 22.16968 -8.358643
v 23.22265 22.16968 -23.45284
v 36.52224 22.16968 -8.513739
v -10.82612 -8.264751 6.145292
v 23.21174 -8.028372 -23.44335
v -10.82612 -8.028345 6.145292
v 23.21174 -8.264777 -23.44335
v 2.29506 -8.264751 21.23949
v 36.33291 -8.028372 -8.349161
v 36.33291 -8.264777 -8.349161
v 2.29506 -8.028345 21.23949
v -10.82612 -8.264751 6.145292
v 36.33291 -8.264777 -8.349161
v 23.21174 -8.264777 -23.44335
v 2.29506 -8.264751 21.23949
v 23.21174 -8.264777 -23.44335
v 36.33291 -8.028372 -8.349161
v 23.21174 -8.028372 -23.44335
v 36.33291 -8.264777 -8.349161
v 23.21174 -8.028372 -23.44335
v 2.29506 -8.028345 21.23949
v -10.82612 -8.028345 6.145292
v 36.33291 -8.028372 -8.349161
v -10.82612 -8.028345 6.145292
v 2.29506 -8.264751 21.23949
v -10.82612 -8.264751 6.145292
v 2.29506 -8.028345 21.23949
v -10.95833 22.16971 6.26022
v -10.77992 -8.266239 6.105137
v -10.77991 22.16971 6.105124
v -10.95834 -8.266239 6.260233
v 2.16285 22.16971 21.35441
v 2.341252 -8.266239 21.19933
v 2.162834 -8.266239 21.35443
v 2.341268 22.16971 21.19932
v -10.95833 22.16971 6.26022
v 2.162834 -8.266239 21.35443
v -10.95834 -8.266239 6.260233
v 2.16285 22.16971 21.35441
v -10.95834 -8.266239 6.260233
v 2.341252 -8.266239 21.19933
v -10.77992 -8.266239 6.105137
v 2.162834 -8.266239 21.35443
v -10.77992 -8.266239 6.105137
v 2.341268 22.16971 21.19932
v -10.77991 22.16971 6.105124
v 2.341252 -8.266239 21.19933
v -10.77991 22.16971 6.105124
v 2.16285 22.16971 21.35441
v -10.95833 22.16971 6.26022
v 2.341268 22.16971 21.19932
vt 1 0
vt 0 1
vt 1 1
vt 0 0
vt 0 0
vt 1 1
vt 1 0
vt 0 1
vt 0 0
vt 1 1
vt 1 0
vt 0 1
vt 0 0
vt 1 1
vt 1 0
vt 0 1
vt 0 0
vt 1 1
vt 1 0
vt 0 1
vt 0 0
vt 1 1
vt 1 0
vt 0 1
vt 1 0
vt 0 1
vt 1 1
vt 0 0
vt 0 0
vt 1 1
vt 1 0
vt 0 1
vt 0 0
vt 1 1
vt 1 0
vt 0 1
vt 0 0
vt 1 1
vt 1 0
vt 0 1
vt 0 0
vt 1 1
vt 1 0
vt 0 1
vt 0 0
vt 1 1
vt 1 0
vt 0 1
vt 1 0
vt 0 1
vt 1 1
vt 0 0
vt 0 0
vt 1 1
vt 1 0
vt 0 1
vt 0 0
vt 1 1
vt 1 0
vt 0 1
vt 0 0
vt 1 1
vt 1 0
vt 0 1
vt 0 0
vt 1 1
vt 1 0
vt 0 1
vt 0 0
vt 1 1
vt 1 0
vt 0 1
vt 1 0
vt 0 1
vt 1 1
vt 0 0
vt 0 0
vt 1 1
vt 1 0
vt 0 1
vt 0 0
vt 1 1
vt 1 0
vt 0 1
vt 0 0
vt 1 1
vt 1 0
vt 0 1
vt 0 0
vt 1 1
vt 1 0
vt 0 1
vt 0 0
vt 1 1
vt 1 0
vt 0 1
vt 1 0
vt 0 1
vt 1 1
vt 0 0
vt 0 0
vt 1 1
vt 1 0
vt 0 1
vt 0 0
vt 1 1
vt 1 0
vt 0 1
vt 0 0
vt 1 1
vt 1 0
vt 0 1
vt 0 0
vt 1 1
vt 1 0
vt 0 1
vt 0 0
vt 1 1
vt 1 0
vt 0 1
vt 1 0
vt 0 1
vt 1 1
vt 0 0
vt 0 0
vt 1 1
vt 1 0
vt 0 1
vt 0 0
vt 1 1
vt 1 0
vt 0 1
vt 0 0
vt 1 1
vt 1 0
vt 0 1
vt 0 0
vt 1 1
vt 1 0
vt 0 1
vt 0 0
vt 1 1
vt 1 0
vt 0 1
vt 1 0
vt 0 1
vt 1 1
vt 0 0
vt 0 0
vt 1 1
vt 1 0
vt 0 1
vt 0 0
vt 1 1
vt 1 0
vt 0 1
vt 0 0
vt 1 1
vt 1 0
vt 0 1
vt 0 0
vt 1 1
vt 1 0
vt 0 1
vt 0 0
vt 1 1
vt 1 0
vt 0 1
vt 1 0
vt 0 1
vt 1 1
vt 0 0
vt 0 0
vt 1 1
vt 1 0
vt 0 1
vt 0 0
vt 1 1
vt 1 0
vt 0 1
vt 0 0
vt 1 1
vt 1 0
vt 0 1
vt 0 0
vt 1 1
vt 1 0
vt 0 1
vt 0 0
vt 1 1
vt 1 0
vt 0 1
vn 0.001013563 0 -0.9999995
vn 0.001013563 0 -0.9999995
vn 0.001013572 0 -0.9999995
vn 0.001013554 0 -0.9999995
vn -0.001013601 0 0.9999995
vn -0.001013601 0 0.9999995
vn -0.001013593 0 0.9999995
vn -0.00101361 0 0.9999995
vn 0 -1 0
vn 0 -1 0
vn 0 -1 0
vn 0 -1 0
vn 1 0 0
vn 1 0 0
vn 1 0 0
vn 1 0 0
vn 0 1 0
vn 0 1 0
vn 0 1 0
vn 0 1 0
vn -1 0 0
vn -1 0 0
vn -1 0 0
vn -1 0 0
vn 0.001013565 0 -0.9999995
vn 0.001013565 0 -0.9999995
vn 0.00101356 0 -0.9999995
vn 0.001013569 0 -0.9999995
vn -0.001013588 0 0.9999995
vn -0.001013588 0 0.9999995
vn -0.001013593 0 0.9999995
vn -0.001013583 0 0.9999995
vn 0 -1 0
vn 0 -1 0
vn 0 -1 0
vn 0 -1 0
vn 1 0 0
vn 1 0 0
vn 1 0 0
vn 1 0 0
vn 0 1 0
vn 0 1 0
vn 0 1 0
vn 0 1 0
vn -1 0 0
vn -1 0 0
vn -1 0 0
vn -1 0 0
vn -0.9903083 0 -0.1388865
vn -0.9903083 0 -0.1388865
vn -0.9903083 0 -0.1388865
vn -0.9903083 0 -0.1388865
vn 0.9903083 0 0.1388865
vn 0.9903083 0 0.1388865
vn 0.9903083 0 0.1388865
vn 0.9903083 0 0.1388865
vn 0 1 0
vn 0 1 0
vn 0 1 0
vn 0 1 0
vn -0.139172 0 0.9902682
vn -0.139172 0 0.9902682
vn -0.139172 0 0.9902682
vn -0.139172 0 0.9902682
vn 0 -1 0
vn 0 -1 0
vn 0 -1 0
vn 0 -1 0
vn 0.139175 0 -0.9902678
vn 0.139175 0 -0.9902678
vn 0.139172 0 -0.9902682
vn 0.1391779 0 -0.9902674
vn -0.9903082 0 -0.138887
vn -0.9903082 0 -0.138887
vn -0.9903082 0 -0.138887
vn -0.9903082 0 -0.138887
vn 0.9903083 0 0.1388865
vn 0.9903083 0 0.1388865
vn 0.9903083 0 0.1388865
vn 0.9903083 0 0.1388865
vn 0 1 0
vn 0 1 0
vn 0 1 0
vn 0 1 0
vn -0.139172 0 0.9902682
vn -0.139172 0 0.9902682
vn -0.139172 0 0.9902682
vn -0.139172 0 0.9902682
vn 0 -1 0
vn 0 -1 0
vn 0 -1 0
vn 0 -1 0
vn 0.1391745 0 -0.9902679
vn 0.1391745 0 -0.9902679
vn 0.1391685 0 -0.9902687
vn 0.1391805 0 -0.990267
vn -0.6560589 0 -0.7547097
vn -0.6560589 0 -0.7547097
vn -0.6560589 0 -0.7547097
vn -0.6560589 0 -0.7547097
vn 0.656059 0 0.7547097
vn 0.656059 0 0.7547097
vn 0.656059 0 0.7547097
vn 0.656059 0 0.7547097
vn 0 -1 0
vn 0 -1 0
vn 0 -1 0
vn 0 -1 0
vn 0.7547098 0 -0.6560588
vn 0.7547098 0 -0.6560588
vn 0.7547098 0 -0.6560588
vn 0.7547098 0 -0.6560588
vn 0 1 0
vn 0 1 0
vn 0 1 0
vn 0 1 0
vn -0.7547097 0 0.6560589
vn -0.7547097 0 0.6560589
vn -0.7547097 0 0.6560589
vn -0.7547097 0 0.6560589
vn -0.6560562 0 -0.754712
vn -0.6560562 0 -0.754712
vn -0.6560562 0 -0.754712
vn -0.6560562 0 -0.754712
vn 0.6560636 0 0.7547056
vn 0.6560636 0 0.7547056
vn 0.6560643 0 0.754705
vn 0.6560628 0 0.7547062
vn -0.7547097 0 0.6560589
vn -0.7547097 0 0.6560589
vn -0.7547098 0 0.6560588
vn -0.7547097 0 0.6560589
vn 0 -1 0
vn 0 -1 0
vn 0 -1 0
vn 0 -1 0
vn 0.7547098 0 -0.6560587
vn 0.7547098 0 -0.6560587
vn 0.7547098 0 -0.6560588
vn 0.7547098 0 -0.6560587
vn 0 1 0
vn 0 1 0
vn 0 1 0
vn 0 1 0
vn -0.6560589 0 -0.7547097
vn -0.6560589 0 -0.7547097
vn -0.6560589 0 -0.7547097
vn -0.6560589 0 -0.7547097
vn 0.656059 0 0.7547097
vn 0.656059 0 0.7547097
vn 0.656059 0 0.7547097
vn 0.656059 0 0.7547097
vn 0 -1 0
vn 0 -1 0
vn 0 -1 0
vn 0 -1 0
vn 0.7547099 0 -0.6560587
vn 0.7547099 0 -0.6560587
vn 0.7547099 0 -0.6560587
vn 0.7547099 0 -0.6560587
vn 0 1 0
vn 0 1 0
vn 0 1 0
vn 0 1 0
vn -0.7547097 0 0.6560589
vn -0.7547097 0 0.6560589
vn -0.7547097 0 0.6560589
vn -0.7547097 0 0.6560589
vn -0.6560591 0 -0.7547094
vn -0.6560591 0 -0.7547094
vn -0.6560591 0 -0.7547094
vn -0.6560591 0 -0.7547094
vn 0.6560594 0 0.7547093
vn 0.6560594 0 0.7547093
vn 0.6560624 0 0.7547066
vn 0.6560562 0 0.754712
vn -0.7547098 0 0.6560588
vn -0.7547098 0 0.6560588
vn -0.7547098 0 0.6560588
vn -0.7547098 0 0.6560588
vn 0 -1 0
vn 0 -1 0
vn 0 -1 0
vn 0 -1 0
vn 0.7547098 0 -0.6560588
vn 0.7547098 0 -0.6560588
vn 0.7547098 0 -0.6560588
vn 0.7547098 0 -0.6560588
vn 0 1 0
vn 0 1 0
vn 0 1 0
vn 0 1 0
g Colliders_0
f 3/3/3 2/2/2 1/1/1
f 4/4/4 1/1/1 2/2/2
f 7/7/7 6/6/6 5/5/5
f 8/8/8 5/5/5 6/6/6
f 11/11/11 10/10/10 9/9/9
f 12/12/12 9/9/9 10/10/10
f 15/15/15 14/14/14 13/13/13
f 16/16/16 13/13/13 14/14/14
f 19/19/19 18/18/18 17/17/17
f 20/20/20 17/17/17 18/18/18
f 23/23/23 22/22/22 21/21/21
f 24/24/24 21/21/21 22/22/22
f 27/27/27 26/26/26 25/25/25
f 28/28/28 25/25/25 26/26/26
f 31/31/31 30/30/30 29/29/29
f 32/32/32 29/29/29 30/30/30
f 35/35/35 34/34/34 33/33/33
f 36/36/36 33/33/33 34/34/34
f 39/39/39 38/38/38 37/37/37
f 40/40/40 37/37/37 38/38/38
f 43/43/43 42/42/42 41/41/41
f 44/44/44 41/41/41 42/42/42
f 47/47/47 46/46/46 45/45/45
f 48/48/48 45/45/45 46/46/46
f 51/51/51 50/50/50 49/49/49
f 52/52/52 49/49/49 50/50/50
f 55/55/55 54/54/54 53/53/53
f 56/56/56 53/53/53 54/54/54
f 59/59/59 58/58/58 57/57/57
f 60/60/60 57/57/57 58/58/58
f 63/63/63 62/62/62 61/61/61
f 64/64/64 61/61/61 62/62/62
f 67/67/67 66/66/66 65/65/65
f 68/68/68 65/65/65 66/66/66
f 71/71/71 70/70/70 69/69/69
f 72/72/72 69/69/69 70/70/70
f 75/75/75 74/74/74 73/73/73
f 76/76/76 73/73/73 74/74/74
f 79/79/79 78/78/78 77/77/77
f 80/80/80 77/77/77 78/78/78
f 83/83/83 82/82/82 81/81/81
f 84/84/84 81/81/81 82/82/82
f 87/87/87 86/86/86 85/85/85
f 88/88/88 85/85/85 86/86/86
f 91/91/91 90/90/90 89/89/89
f 92/92/92 89/89/89 90/90/90
f 95/95/95 94/94/94 93/93/93
f 96/96/96 93/93/93 94/94/94
f 99/99/99 98/98/98 97/97/97
f 100/100/100 97/97/97 98/98/98
f 103/103/103 102/102/102 101/101/101
f 104/104/104 101/101/101 102/102/102
f 107/107/107 106/106/106 105/105/105
f 108/108/108 105/105/105 106/106/106
f 111/111/111 110/110/110 109/109/109
f 112/112/112 109/109/109 110/110/110
f 115/115/115 114/114/114 113/113/113
f 116/116/116 113/113/113 114/114/114
f 119/119/119 118/118/118 117/117/117
f 120/120/120 117/117/117 118/118/118
f 123/123/123 122/122/122 121/121/121
f 124/124/124 121/121/121 122/122/122
f 127/127/127 126/126/126 125/125/125
f 128/128/128 125/125/125 126/126/126
f 131/131/131 130/130/130 129/129/129
f 132/132/132 129/129/129 130/130/130
f 135/135/135 134/134/134 133/133/133
f 136/136/136 133/133/133 134/134/134
f 139/139/139 138/138/138 137/137/137
f 140/140/140 137/137/137 138/138/138
f 143/143/143 142/142/142 141/141/141
f 144/144/144 141/141/141 142/142/142
f 147/147/147 146/146/146 145/145/145
f 148/148/148 145/145/145 146/146/146
f 151/151/151 150/150/150 149/149/149
f 152/152/152 149/149/149 150/150/150
f 155/155/155 154/154/154 153/153/153
f 156/156/156 153/153/153 154/154/154
f 159/159/159 158/158/158 157/157/157
f 160/160/160 157/157/157 158/158/158
f 163/163/163 162/162/162 161/161/161
f 164/164/164 161/161/161 162/162/162
f 167/167/167 166/166/166 165/165/165
f 168/168/168 165/165/165 166/166/166
f 171/171/171 170/170/170 169/169/169
f 172/172/172 169/169/169 170/170/170
f 175/175/175 174/174/174 173/173/173
f 176/176/176 173/173/173 174/174/174
f 179/179/179 178/178/178 177/177/177
f 180/180/180 177/177/177 178/178/178
f 183/183/183 182/182/182 181/181/181
f 184/184/184 181/181/181 182/182/182
f 187/187/187 186/186/186 185/185/185
f 188/188/188 185/185/185 186/186/186
f 191/191/191 190/190/190 189/189/189
f 192/192/192 189/189/189 190/190/190
