g combat_darts_rocket_mesh
v 0.01605129 -0.002260666 -0.2180346
v 0.01605106 0.01563225 -0.2180347
v -0.001841736 0.01563225 -0.2180346
v -0.001841774 -0.00226059 -0.2180346
v 0.0697298 -0.002260742 -0.2180347
v 0.06972984 0.01563225 -0.2180347
v -0.001841774 -0.05593941 -0.2180347
v 0.01605122 -0.05593933 -0.2180346
v -0.0555204 0.01563225 -0.2180346
v -0.05552055 -0.002260666 -0.2180347
v 0.01605114 0.06931099 -0.2180346
v -0.001841774 0.06931099 -0.2180347
v -0.001841621 -0.05593933 -0.1106773
v 0.01605122 -0.05593941 -0.1106773
v 0.01605122 -0.05593933 -0.2180346
v -0.001841774 -0.05593941 -0.2180347
v -0.03762729 -0.03804649 -0.03910564
v -0.03762729 -0.03804634 0.1219304
v 0.05183719 -0.03804649 0.1219304
v 0.05183697 -0.03804649 -0.03910572
v -0.00184166 0.06931099 -0.1106774
v -0.001841774 0.06931099 -0.2180347
v 0.01605114 0.06931099 -0.2180346
v 0.01605122 0.06931099 -0.1106773
v 0.01605152 -0.002260513 0.2292879
v 0.01605137 -0.002260437 0.1935019
v -0.001841392 -0.002260513 0.193502
v -0.001841431 -0.002260513 0.2292877
v -0.001841469 0.01563232 0.2292877
v -0.001841431 -0.002260513 0.2292877
v -0.001841392 -0.002260513 0.193502
v -0.001841469 0.01563232 0.1935021
v 0.01605152 -0.002260513 0.2292879
v 0.01605145 0.0156324 0.2292879
v 0.01605141 0.0156324 0.193502
v 0.01605137 -0.002260437 0.1935019
v -0.001841469 0.01563232 0.2292877
v -0.001841469 0.01563232 0.1935021
v 0.01605141 0.0156324 0.193502
v 0.01605145 0.0156324 0.2292879
v -0.001841621 -0.05593933 -0.1106773
v -0.00184166 0.06931099 -0.1106774
v 0.01605122 0.06931099 -0.1106773
v 0.01605122 -0.05593941 -0.1106773
v -0.03762741 0.05141815 -0.03910568
v -0.03762733 0.05141823 0.1219303
v -0.03762729 -0.03804634 0.1219304
v -0.03762729 -0.03804649 -0.03910564
v -0.05552028 0.01563225 -0.1106773
v -0.05552036 -0.002260666 -0.1106773
v -0.05552055 -0.002260666 -0.2180347
v -0.0555204 0.01563225 -0.2180346
v -0.05552028 0.01563225 -0.1106773
v 0.06972995 0.01563225 -0.1106773
v 0.06972984 -0.00226059 -0.1106773
v -0.05552036 -0.002260666 -0.1106773
v 0.01605145 0.0156324 0.2292879
v 0.01605152 -0.002260513 0.2292879
v -0.001841431 -0.002260513 0.2292877
v -0.001841469 0.01563232 0.2292877
v 0.06972995 0.01563225 -0.1106773
v 0.06972984 0.01563225 -0.2180347
v 0.0697298 -0.002260742 -0.2180347
v 0.06972984 -0.00226059 -0.1106773
v 0.06972984 -0.00226059 -0.1106773
v 0.0697298 -0.002260742 -0.2180347
v -0.05552055 -0.002260666 -0.2180347
v -0.05552036 -0.002260666 -0.1106773
v -0.00184166 0.06931099 -0.1106774
v -0.001841621 -0.05593933 -0.1106773
v -0.001841774 -0.05593941 -0.2180347
v -0.001841774 0.06931099 -0.2180347
v 0.05183697 -0.03804649 -0.03910572
v 0.05183716 0.05141815 -0.0391058
v -0.03762741 0.05141815 -0.03910568
v -0.03762729 -0.03804649 -0.03910564
v 0.05183719 -0.03804649 0.1219304
v 0.05183712 0.05141823 0.1219304
v 0.05183716 0.05141815 -0.0391058
v 0.05183697 -0.03804649 -0.03910572
v 0.03394428 0.03352531 0.193502
v 0.03394428 -0.02015343 0.193502
v -0.01973438 -0.02015343 0.193502
v -0.01973438 0.03352531 0.193502
v -0.03762729 -0.03804634 0.1219304
v -0.03762733 0.05141823 0.1219303
v 0.05183712 0.05141823 0.1219304
v 0.05183719 -0.03804649 0.1219304
v 0.01605122 -0.05593941 -0.1106773
v 0.01605122 0.06931099 -0.1106773
v 0.01605114 0.06931099 -0.2180346
v 0.01605122 -0.05593933 -0.2180346
v 0.06972995 0.01563225 -0.1106773
v -0.05552028 0.01563225 -0.1106773
v -0.0555204 0.01563225 -0.2180346
v 0.06972984 0.01563225 -0.2180347
v 0.03394413 -0.02015358 -0.2001418
v 0.03394405 0.03352516 -0.2001418
v -0.01973469 0.03352531 -0.2001417
v -0.01973461 -0.02015358 -0.2001417
v 0.05183716 0.05141815 -0.0391058
v 0.05183712 0.05141823 0.1219304
v -0.03762733 0.05141823 0.1219303
v -0.03762741 0.05141815 -0.03910568
v 0.03394428 0.03352531 0.193502
v -0.01973438 0.03352531 0.193502
v -0.01973469 0.03352531 -0.2001417
v 0.03394405 0.03352516 -0.2001418
v 0.03394428 -0.02015343 0.193502
v 0.03394428 0.03352531 0.193502
v 0.03394405 0.03352516 -0.2001418
v 0.03394413 -0.02015358 -0.2001418
v 0.03394413 -0.02015358 -0.2001418
v -0.01973461 -0.02015358 -0.2001417
v -0.01973438 -0.02015343 0.193502
v 0.03394428 -0.02015343 0.193502
v -0.01973438 -0.02015343 0.193502
v -0.01973461 -0.02015358 -0.2001417
v -0.01973469 0.03352531 -0.2001417
v -0.01973438 0.03352531 0.193502
vt 0.609375 0.234375
vt 0.609375 0.21875
vt 0.59375 0.21875
vt 0.59375 0.234375
vt 0.65625 0.234375
vt 0.65625 0.21875
vt 0.59375 0.28125
vt 0.609375 0.28125
vt 0.546875 0.21875
vt 0.546875 0.234375
vt 0.609375 0.171875
vt 0.59375 0.171875
vt 0.640625 0.09375
vt 0.640625 0.078125
vt 0.546875 0.078125
vt 0.546875 0.09375
vt 0.703125 0.125
vt 0.84375 0.125
vt 0.84375 0.046875
vt 0.703125 0.046875
vt 0.640625 0.09375
vt 0.546875 0.09375
vt 0.546875 0.078125
vt 0.640625 0.078125
vt 0.9375 0.078125
vt 0.90625 0.078125
vt 0.90625 0.09375
vt 0.9375 0.09375
vt 0.9375 0.078125
vt 0.9375 0.09375
vt 0.90625 0.09375
vt 0.90625 0.078125
vt 0.9375 0.09375
vt 0.9375 0.078125
vt 0.90625 0.078125
vt 0.90625 0.09375
vt 0.9375 0.09375
vt 0.90625 0.09375
vt 0.90625 0.078125
vt 0.9375 0.078125
vt 0.09375 0.453125
vt 0.09375 0.34375
vt 0.078125 0.34375
vt 0.078125 0.453125
vt 0.703125 0.046875
vt 0.84375 0.046875
vt 0.84375 0.125
vt 0.703125 0.125
vt 0.640625 0.078125
vt 0.640625 0.09375
vt 0.546875 0.09375
vt 0.546875 0.078125
vt 0.140625 0.390625
vt 0.03125 0.390625
vt 0.03125 0.40625
vt 0.140625 0.40625
vt 0.078125 0.390625
vt 0.078125 0.40625
vt 0.09375 0.40625
vt 0.09375 0.390625
vt 0.640625 0.078125
vt 0.546875 0.078125
vt 0.546875 0.09375
vt 0.640625 0.09375
vt 0.640625 0.03125
vt 0.546875 0.03125
vt 0.546875 0.140625
vt 0.640625 0.140625
vt 0.640625 0.03125
vt 0.640625 0.140625
vt 0.546875 0.140625
vt 0.546875 0.03125
vt 0.640625 0.265625
vt 0.640625 0.1875
vt 0.5625 0.1875
vt 0.5625 0.265625
vt 0.84375 0.125
vt 0.84375 0.046875
vt 0.703125 0.046875
vt 0.703125 0.125
vt 0.0625 0.375
vt 0.0625 0.421875
vt 0.109375 0.421875
vt 0.109375 0.375
vt 0.125 0.4375
vt 0.125 0.359375
vt 0.046875 0.359375
vt 0.046875 0.4375
vt 0.640625 0.140625
vt 0.640625 0.03125
vt 0.546875 0.03125
vt 0.546875 0.140625
vt 0.640625 0.03125
vt 0.640625 0.140625
vt 0.546875 0.140625
vt 0.546875 0.03125
vt 0.625 0.25
vt 0.625 0.203125
vt 0.578125 0.203125
vt 0.578125 0.25
vt 0.703125 0.046875
vt 0.84375 0.046875
vt 0.84375 0.125
vt 0.703125 0.125
vt 0.90625 0.0625
vt 0.90625 0.109375
vt 0.5625 0.109375
vt 0.5625 0.0625
vt 0.90625 0.109375
vt 0.90625 0.0625
vt 0.5625 0.0625
vt 0.5625 0.109375
vt 0.5625 0.0625
vt 0.5625 0.109375
vt 0.90625 0.109375
vt 0.90625 0.0625
vt 0.90625 0.109375
vt 0.5625 0.109375
vt 0.5625 0.0625
vt 0.90625 0.0625
vn -1.065981E-06 -1.065988E-06 -1
vn -1.065981E-06 -1.065988E-06 -1
vn -1.065981E-06 -1.065988E-06 -1
vn -1.065981E-06 -1.065988E-06 -1
vn -1.776638E-06 -3.197942E-06 -1
vn -1.776639E-06 -3.197942E-06 -1
vn 3.197919E-06 3.553244E-07 -1
vn 3.19792E-06 3.553244E-07 -1
vn 7.10652E-07 2.13196E-06 -1
vn 7.106519E-07 2.13196E-06 -1
vn 0 -7.106534E-07 -1
vn 0 -7.106532E-07 -1
vn 0 -1 0
vn 0 -1 0
vn 0 -1 0
vn 0 -1 0
vn -8.527856E-07 -1 4.737699E-07
vn -8.527855E-07 -1 4.737699E-07
vn -8.527855E-07 -1 4.737699E-07
vn -8.527855E-07 -1 4.737699E-07
vn 0 1 0
vn 0 1 0
vn 0 1 0
vn 0 1 0
vn 2.131971E-06 -1 -1.065981E-06
vn 2.131971E-06 -1 -1.065981E-06
vn 2.131971E-06 -1 -1.065981E-06
vn 2.131971E-06 -1 -1.065981E-06
vn -1 -3.197951E-06 -5.329923E-07
vn -1 -3.197951E-06 -5.329923E-07
vn -1 -3.197952E-06 -5.329923E-07
vn -1 -3.197952E-06 -5.329923E-07
vn 1 1.065982E-06 -2.664937E-06
vn 1 1.065982E-06 -2.664937E-06
vn 1 1.065982E-06 -2.664937E-06
vn 1 1.065982E-06 -2.664937E-06
vn -4.263924E-06 1 0
vn -4.263924E-06 1 0
vn -4.263924E-06 1 0
vn -4.263924E-06 1 0
vn 0 6.091316E-07 1
vn 0 6.091316E-07 1
vn 0 6.091316E-07 1
vn 0 6.091316E-07 1
vn -1 -8.527832E-07 2.368853E-07
vn -1 -8.527833E-07 2.368853E-07
vn -1 -8.527832E-07 2.368853E-07
vn -1 -8.527833E-07 2.368853E-07
vn -1 6.395878E-06 1.421308E-06
vn -1 6.395878E-06 1.421308E-06
vn -1 6.395878E-06 1.421308E-06
vn -1 6.395878E-06 1.421308E-06
vn 6.091323E-07 0 1
vn 6.091323E-07 0 1
vn 6.091323E-07 0 1
vn 6.091323E-07 0 1
vn -1.065979E-05 2.13193E-06 1
vn -1.065979E-05 2.13193E-06 1
vn -1.065979E-05 2.131931E-06 1
vn -1.065979E-05 2.131931E-06 1
vn 1 -4.26392E-06 -7.106509E-07
vn 1 -4.26392E-06 -7.106509E-07
vn 1 -4.26392E-06 -7.106509E-07
vn 1 -4.263921E-06 -7.10651E-07
vn 0 -1 7.10654E-07
vn 0 -1 7.106539E-07
vn 0 -1 7.10654E-07
vn 0 -1 7.106539E-07
vn -1 -1.522821E-07 1.243645E-06
vn -1 -1.522821E-07 1.243645E-06
vn -1 -1.522821E-07 1.243645E-06
vn -1 -1.522822E-07 1.243645E-06
vn -1.065982E-06 -6.395871E-07 -1
vn -1.065982E-06 -6.39587E-07 -1
vn -1.065982E-06 -6.39587E-07 -1
vn -1.065982E-06 -6.39587E-07 -1
vn 1 -6.395874E-07 -5.922112E-07
vn 1 -6.395874E-07 -5.922112E-07
vn 1 -6.395874E-07 -5.922112E-07
vn 1 -6.395875E-07 -5.922112E-07
vn 0 0 1
vn 0 0 1
vn 0 0 1
vn 0 0 1
vn -4.263921E-07 4.263913E-07 1
vn -4.263921E-07 4.263913E-07 1
vn -4.263921E-07 4.263913E-07 1
vn -4.26392E-07 4.263913E-07 1
vn 1 3.045657E-07 -3.553272E-07
vn 1 3.045657E-07 -3.553272E-07
vn 1 3.045657E-07 -3.553272E-07
vn 1 3.045657E-07 -3.553272E-07
vn 0 1 0
vn 0 1 0
vn 0 1 0
vn 0 1 0
vn -7.106532E-07 0 -1
vn -7.106532E-07 0 -1
vn -7.106532E-07 0 -1
vn -7.106532E-07 0 -1
vn 0 1 -4.737693E-07
vn 0 1 -4.737693E-07
vn 0 1 -4.737693E-07
vn 0 1 -4.737693E-07
vn 1.421308E-06 1 -1.938157E-07
vn 1.421308E-06 1 -1.938157E-07
vn 1.421308E-06 1 -1.938157E-07
vn 1.421308E-06 1 -1.938157E-07
vn 1 7.106536E-07 -4.84537E-07
vn 1 7.106536E-07 -4.84537E-07
vn 1 7.106536E-07 -4.84537E-07
vn 1 7.106536E-07 -4.84537E-07
vn 0 -1 3.876294E-07
vn 0 -1 3.876294E-07
vn 0 -1 3.876294E-07
vn 0 -1 3.876294E-07
vn -1 -7.106518E-07 6.783516E-07
vn -1 -7.106518E-07 6.783516E-07
vn -1 -7.106517E-07 6.783516E-07
vn -1 -7.106518E-07 6.783516E-07
g combat_darts_rocket_mesh_0
f 3/3/3 2/2/2 1/1/1
f 4/4/4 3/3/3 1/1/1
f 5/5/5 1/1/1 2/2/2
f 6/6/6 5/5/5 2/2/2
f 7/7/7 4/4/4 1/1/1
f 8/8/8 7/7/7 1/1/1
f 3/3/3 4/4/4 9/9/9
f 4/4/4 10/10/10 9/9/9
f 2/2/2 3/3/3 11/11/11
f 3/3/3 12/12/12 11/11/11
f 15/15/15 14/14/14 13/13/13
f 16/16/16 15/15/15 13/13/13
f 19/19/19 18/18/18 17/17/17
f 20/20/20 19/19/19 17/17/17
f 23/23/23 22/22/22 21/21/21
f 24/24/24 23/23/23 21/21/21
f 27/27/27 26/26/26 25/25/25
f 28/28/28 27/27/27 25/25/25
f 31/31/31 30/30/30 29/29/29
f 32/32/32 31/31/31 29/29/29
f 35/35/35 34/34/34 33/33/33
f 36/36/36 35/35/35 33/33/33
f 39/39/39 38/38/38 37/37/37
f 40/40/40 39/39/39 37/37/37
f 43/43/43 42/42/42 41/41/41
f 44/44/44 43/43/43 41/41/41
f 47/47/47 46/46/46 45/45/45
f 48/48/48 47/47/47 45/45/45
f 51/51/51 50/50/50 49/49/49
f 52/52/52 51/51/51 49/49/49
f 55/55/55 54/54/54 53/53/53
f 56/56/56 55/55/55 53/53/53
f 59/59/59 58/58/58 57/57/57
f 60/60/60 59/59/59 57/57/57
f 63/63/63 62/62/62 61/61/61
f 64/64/64 63/63/63 61/61/61
f 67/67/67 66/66/66 65/65/65
f 68/68/68 67/67/67 65/65/65
f 71/71/71 70/70/70 69/69/69
f 72/72/72 71/71/71 69/69/69
f 75/75/75 74/74/74 73/73/73
f 76/76/76 75/75/75 73/73/73
f 79/79/79 78/78/78 77/77/77
f 80/80/80 79/79/79 77/77/77
f 83/83/83 82/82/82 81/81/81
f 84/84/84 83/83/83 81/81/81
f 87/87/87 86/86/86 85/85/85
f 88/88/88 87/87/87 85/85/85
f 91/91/91 90/90/90 89/89/89
f 92/92/92 91/91/91 89/89/89
f 95/95/95 94/94/94 93/93/93
f 96/96/96 95/95/95 93/93/93
f 99/99/99 98/98/98 97/97/97
f 100/100/100 99/99/99 97/97/97
f 103/103/103 102/102/102 101/101/101
f 104/104/104 103/103/103 101/101/101
f 107/107/107 106/106/106 105/105/105
f 108/108/108 107/107/107 105/105/105
f 111/111/111 110/110/110 109/109/109
f 112/112/112 111/111/111 109/109/109
f 115/115/115 114/114/114 113/113/113
f 116/116/116 115/115/115 113/113/113
f 119/119/119 118/118/118 117/117/117
f 120/120/120 119/119/119 117/117/117
