g Cube (5)
v 54.8 -29.29999 -7.500012
v -45.2 -29.29999 -7.500012
v 54.8 -29.29999 -3.500011
v -45.2 -29.29999 -3.500011
v -45.2 -29.29999 -7.500012
v -45.2 25.84999 -7.5
v -45.2 -29.29999 -3.500011
v -45.2 25.84999 -3.5
v -45.2 25.84999 -7.5
v 54.8 25.84999 -7.5
v -45.2 25.84999 -3.5
v 54.8 25.84999 -3.5
v 54.8 25.84999 -7.5
v 54.8 -29.29999 -7.500012
v 54.8 25.84999 -3.5
v 54.8 -29.29999 -3.500011
v 54.8 -29.29999 -3.500011
v -45.2 -29.29999 -3.500011
v 54.8 25.84999 -3.5
v -45.2 25.84999 -3.5
v 54.8 25.84999 -7.5
v -45.2 25.84999 -7.5
v 54.8 -29.29999 -7.500012
v -45.2 -29.29999 -7.500012
vt 50.49999 -2.250012
vt -49.50001 -2.250012
vt 50.49999 1.749988
vt -49.50001 1.749988
vt 3.399983 -2.250012
vt -51.75001 -2.250001
vt 3.399983 1.749988
vt -51.75001 1.75
vt 50.49999 -2.250001
vt -49.50002 -2.250001
vt 50.49999 1.75
vt -49.50002 1.75
vt 52.74999 -2.250001
vt -2.400008 -2.250012
vt 52.74998 1.75
vt -2.400009 1.749988
vt 50.5 -2.400009
vt -49.5 -2.399982
vt 50.50003 52.74999
vt -49.49998 52.75001
vt -49.50003 52.74998
vt 50.49998 52.75001
vt -49.5 -2.400007
vt 50.5 -2.399983
vn 0.7071069 -0.7071067 0
vn -0.7071066 -0.7071069 0
vn 0.5773502 -0.5773505 0.5773501
vn -0.5773504 -0.5773503 0.5773501
vn -0.7071066 -0.7071069 0
vn -0.7071071 0.7071065 0
vn -0.5773504 -0.5773503 0.5773501
vn -0.5773503 0.5773503 0.5773503
vn -0.7071071 0.7071065 0
vn 0.7071068 0.7071068 0
vn -0.5773503 0.5773503 0.5773503
vn 0.5773504 0.5773501 0.5773503
vn 0.7071068 0.7071068 0
vn 0.7071069 -0.7071067 0
vn 0.5773504 0.5773501 0.5773503
vn 0.5773502 -0.5773505 0.5773501
vn 0.5773502 -0.5773505 0.5773501
vn -0.5773504 -0.5773503 0.5773501
vn 0.5773504 0.5773501 0.5773503
vn -0.5773503 0.5773503 0.5773503
vn 0 2.075085E-07 -1
vn 0 2.075085E-07 -1
vn 0 2.075085E-07 -1
vn 0 2.075085E-07 -1
g Cube (5)_0
f 3/3/3 2/2/2 1/1/1
f 3/3/3 4/4/4 2/2/2
f 7/7/7 6/6/6 5/5/5
f 7/7/7 8/8/8 6/6/6
f 11/11/11 10/10/10 9/9/9
f 11/11/11 12/12/12 10/10/10
f 15/15/15 14/14/14 13/13/13
f 15/15/15 16/16/16 14/14/14
f 19/19/19 18/18/18 17/17/17
f 19/19/19 20/20/20 18/18/18
f 23/23/23 22/22/22 21/21/21
f 23/23/23 24/24/24 22/22/22
