g Cube.001
v -0.01 0.05679744 -0.01
v 0.02919328 0.05679744 -0.01
v 0.02919328 0.3338818 -0.01
v -0.01 0.3338818 -0.01
v 0.02919328 0.3487048 0.004823028
v 0.02919328 0.3316329 0.0153645
v 0.02919328 0.3323044 0.2041955
v 0.02919328 0.3338818 0.2327844
v 0.02919328 0.3487048 0.2179614
v 0.02919322 0.3214294 0.2163733
v 0.02919328 0.02038253 0.2167075
v 0.02919328 0.004823028 0.2327844
v 0.02919328 0.007518069 0.205525
v 0.02919326 0.006259674 -0.02629209
v 0.02919328 -0.01 0.2179614
v 0.02919328 -0.01 -0.05711667
v 0.02919328 0.004823028 0.2327844
v -0.01 0.004823028 0.2327844
v -0.01 0.3338818 0.2327844
v 0.02919328 0.3338818 0.2327844
v 0.02919328 -0.01 0.2179614
v 0.02919328 -0.01 -0.05711667
v -0.01 -0.01 -0.05711667
v -0.01 -0.01 0.2179614
v -0.01 0.3487048 0.2179614
v -0.01 0.3487048 0.004823029
v 0.02919328 0.3487048 0.004823028
v 0.02919328 0.3487048 0.2179614
v -0.01 0.3338818 0.2327844
v -0.01 0.3487048 0.2179614
v 0.02919328 0.3487048 0.2179614
v 0.02919328 0.3338818 0.2327844
v 0.02919328 0.3338818 -0.01
v 0.02919328 0.3487048 0.004823028
v -0.01 0.3487048 0.004823029
v -0.01 0.3338818 -0.01
v 0.02919328 0.004823028 0.2327844
v 0.02919328 -0.01 0.2179614
v -0.01 -0.01 0.2179614
v -0.01 0.004823028 0.2327844
v -0.01 0.05679744 -0.01
v -0.01 -0.01 -0.05711667
v 0.02919328 -0.01 -0.05711667
v 0.02919328 0.05679744 -0.01
v -0.01 0.004823028 0.2327844
v -0.01 -0.01 0.2179614
v -0.01 -0.01 -0.05711667
v -0.01 0.05679744 -0.01
v -0.01 0.3338818 0.2327844
v -0.01 0.3338818 -0.01
v -0.01 0.3487048 0.2179614
v -0.01 0.3487048 0.004823029
v 0.009999999 0.3323044 0.2041955
v 0.02919328 0.3323044 0.2041955
v 0.02919328 0.3316329 0.0153645
v 0.01 0.3316329 0.0153645
v 0.01 0.05218552 0.006631142
v 0.009999981 0.006259674 -0.02629209
v 0.009999999 0.007518069 0.205525
v 0.009999999 0.02038253 0.2167075
v 0.009999943 0.3214294 0.2163733
v 0.01000004 0.3203104 0.006751372
v 0.01 0.3316329 0.0153645
v 0.009999999 0.3323044 0.2041955
v 0.02919328 0.05679744 -0.01
v 0.02919328 -0.01 -0.05711667
v 0.02919326 0.006259674 -0.02629209
v 0.02919328 0.05218552 0.006631142
v 0.02919332 0.3203104 0.006751372
v 0.02919328 0.3338818 -0.01
v 0.02919328 0.3316329 0.0153645
v 0.02919328 0.3487048 0.004823028
v 0.009999943 0.3214294 0.2163733
v 0.02919322 0.3214294 0.2163733
v 0.02919328 0.3323044 0.2041955
v 0.009999999 0.3323044 0.2041955
v 0.01 0.05218552 0.006631142
v 0.02919328 0.05218552 0.006631142
v 0.02919326 0.006259674 -0.02629209
v 0.009999981 0.006259674 -0.02629209
v 0.009999981 0.006259674 -0.02629209
v 0.02919326 0.006259674 -0.02629209
v 0.02919328 0.007518069 0.205525
v 0.009999999 0.007518069 0.205525
v 0.01 0.3316329 0.0153645
v 0.02919328 0.3316329 0.0153645
v 0.02919332 0.3203104 0.006751372
v 0.01000004 0.3203104 0.006751372
v 0.009999999 0.007518069 0.205525
v 0.02919328 0.007518069 0.205525
v 0.02919328 0.02038253 0.2167075
v 0.009999999 0.02038253 0.2167075
v 0.01000004 0.3203104 0.006751372
v 0.02919332 0.3203104 0.006751372
v 0.02919328 0.05218552 0.006631142
v 0.01 0.05218552 0.006631142
v 0.009999999 0.02038253 0.2167075
v 0.02919328 0.02038253 0.2167075
v 0.02919322 0.3214294 0.2163733
v 0.009999943 0.3214294 0.2163733
vt 0.5 0.1875
vt 0.5 0.25
vt 0.75 0.25
vt 0.75 0.1875
vt 0.4375 0.34375
vt 0.40625 0.3125
vt 0.40625 0.125
vt 0.40625 0.0625
vt 0.4375 0.09375
vt 0.375 0.09375
vt 0.09375 0.09375
vt 0.0625 0.0625
vt 0.0625 0.125
vt 0.0625 0.34375
vt 0.03125 0.09375
vt 0.03125 0.40625
vt 0.375 0.0625
vt 0.375 0
vt 0 0
vt 0 0.0625
vt 0.5 0.3125
vt 0.78125 0.3125
vt 0.78125 0.25
vt 0.5 0.25
vt 0.8125 0.3125
vt 0.5 0.3125
vt 0.5 0.375
vt 0.8125 0.375
vt 0.84375 0.3125
vt 0.8125 0.3125
vt 0.8125 0.375
vt 0.84375 0.375
vt 0.5 0.375
vt 0.5 0.375
vt 0.5 0.3125
vt 0.5 0.3125
vt 0.375 0.0625
vt 0.40625 0.0625
vt 0.40625 0
vt 0.375 0
vt 0.5625 0.09375
vt 0.5 0.09375
vt 0.5 0.15625
vt 0.5625 0.15625
vt 0.34375 0.125
vt 0.34375 0.125
vt 0.34375 0.3125
vt 0.3125 0.28125
vt 0.125 0.125
vt 0.125 0.28125
vt 0.125 0.125
vt 0.125 0.28125
vt 0.71875 0.03125
vt 0.71875 0.0625
vt 0.9375 0.0625
vt 0.9375 0.03125
vt 0.90625 0.40625
vt 1 0.3125
vt 1 0.96875
vt 0.96875 1
vt 0.1875 1
vt 0.1875 0.40625
vt 0.15625 0.4375
vt 0.15625 0.96875
vt 0.125 0.34375
vt 0.03125 0.40625
vt 0.0625 0.34375
vt 0.125 0.34375
vt 0.375 0.34375
vt 0.40625 0.34375
vt 0.40625 0.3125
vt 0.4375 0.34375
vt 0.6875 0.03125
vt 0.6875 0.0625
vt 0.71875 0.0625
vt 0.71875 0.03125
vt 0.71875 0
vt 0.71875 0.03125
vt 0.8125 0.03125
vt 0.8125 0
vt 0.5 0.15625
vt 0.5 0.1875
vt 0.84375 0.1875
vt 0.84375 0.15625
vt 0.40625 0
vt 0.40625 0.03125
vt 0.4375 0.03125
vt 0.4375 0
vt 0.84375 0.15625
vt 0.84375 0.1875
vt 0.84375 0.1875
vt 0.84375 0.15625
vt 0.4375 0
vt 0.4375 0.03125
vt 0.71875 0.03125
vt 0.71875 0
vt 0.40625 0.03125
vt 0.40625 0.0625
vt 0.6875 0.0625
vt 0.6875 0.03125
vn 0 0 -1
vn 0 0 -1
vn 0 0 -1
vn 0 0 -1
vn 1 1.002472E-07 -6.706248E-07
vn 1 1.002472E-07 -6.706248E-07
vn 1 1.002472E-07 -6.706248E-07
vn 1 1.002472E-07 -6.706248E-07
vn 1 1.002472E-07 -6.706248E-07
vn 1 1.002472E-07 -6.706248E-07
vn 1 1.002472E-07 -6.706248E-07
vn 1 1.002472E-07 -6.706248E-07
vn 1 1.002472E-07 -6.706248E-07
vn 1 1.002472E-07 -6.706248E-07
vn 1 1.002472E-07 -6.706248E-07
vn 1 1.002472E-07 -6.706248E-07
vn 0 0 1
vn 0 0 1
vn 0 0 1
vn 0 0 1
vn 0 -1 0
vn 0 -1 0
vn 0 -1 0
vn 0 -1 0
vn 0 1 0
vn 0 1 0
vn 0 1 0
vn 0 1 0
vn 0 0.7071069 0.7071066
vn 0 0.7071069 0.7071066
vn 0 0.7071069 0.7071066
vn 0 0.7071069 0.7071066
vn 0 0.7071066 -0.7071068
vn 0 0.7071066 -0.7071068
vn 0 0.7071066 -0.7071068
vn 0 0.7071066 -0.7071068
vn 0 -0.7071069 0.7071066
vn 0 -0.7071069 0.7071066
vn 0 -0.7071069 0.7071066
vn 0 -0.7071069 0.7071066
vn 0 0.5764019 -0.8171664
vn 0 0.5764019 -0.8171664
vn 0 0.5764019 -0.8171664
vn 0 0.5764019 -0.8171664
vn -1 0 0
vn -1 0 0
vn -1 0 0
vn -1 0 0
vn -1 0 0
vn -1 0 0
vn -1 0 0
vn -1 0 0
vn 0 -0.9999937 0.003555765
vn 0 -0.9999937 0.003555765
vn 0 -0.9999937 0.003555765
vn 0 -0.9999937 0.003555765
vn 1 0 2.025662E-07
vn 1 0 2.025662E-07
vn 1 0 2.025662E-07
vn 1 0 2.025662E-07
vn 1 0 2.025662E-07
vn 1 0 2.025662E-07
vn 1 0 2.025662E-07
vn 1 0 2.025662E-07
vn 1 0 -7.878088E-07
vn 1 0 -7.878088E-07
vn 1 0 -7.878088E-07
vn 1 0 -7.878088E-07
vn 1 0 -7.878088E-07
vn 1 0 -7.878088E-07
vn 1 0 -7.878088E-07
vn 1 0 -7.878088E-07
vn 0 -0.7458772 -0.6660834
vn 0 -0.7458772 -0.6660834
vn 0 -0.7458772 -0.6660834
vn 0 -0.7458772 -0.6660834
vn 0 -0.5826325 0.8127357
vn 0 -0.5826325 0.8127357
vn 0 -0.5826325 0.8127357
vn 0 -0.5826325 0.8127357
vn 0 0.9999853 -0.00542832
vn 0 0.9999853 -0.00542832
vn 0 0.9999853 -0.00542832
vn 0 0.9999853 -0.00542832
vn 0 -0.6054397 0.7958912
vn 0 -0.6054397 0.7958912
vn 0 -0.6054397 0.7958912
vn 0 -0.6054397 0.7958912
vn 0 0.6560447 -0.754722
vn 0 0.6560447 -0.754722
vn 0 0.6560447 -0.754722
vn 0 0.6560447 -0.754722
vn 0 -0.0004484139 0.9999999
vn 0 -0.0004484139 0.9999999
vn 0 -0.0004484139 0.9999999
vn 0 -0.0004484139 0.9999999
vn 0 -0.001110081 -0.9999994
vn 0 -0.001110081 -0.9999994
vn 0 -0.001110081 -0.9999994
vn 0 -0.001110081 -0.9999994
g Cube.001_0
f 3/3/3 2/2/2 1/1/1
f 4/4/4 3/3/3 1/1/1
f 7/7/7 6/6/6 5/5/5
f 5/5/5 8/8/8 7/7/7
f 5/5/5 9/9/9 8/8/8
f 10/10/10 7/7/7 8/8/8
f 11/11/11 10/10/10 8/8/8
f 11/11/11 8/8/8 12/12/12
f 13/13/13 11/11/11 12/12/12
f 14/14/14 13/13/13 12/12/12
f 14/14/14 12/12/12 15/15/15
f 15/15/15 16/16/16 14/14/14
f 19/19/19 18/18/18 17/17/17
f 20/20/20 19/19/19 17/17/17
f 23/23/23 22/22/22 21/21/21
f 24/24/24 23/23/23 21/21/21
f 27/27/27 26/26/26 25/25/25
f 28/28/28 27/27/27 25/25/25
f 31/31/31 30/30/30 29/29/29
f 32/32/32 31/31/31 29/29/29
f 35/35/35 34/34/34 33/33/33
f 36/36/36 35/35/35 33/33/33
f 39/39/39 38/38/38 37/37/37
f 40/40/40 39/39/39 37/37/37
f 43/43/43 42/42/42 41/41/41
f 44/44/44 43/43/43 41/41/41
f 47/47/47 46/46/46 45/45/45
f 45/45/45 48/48/48 47/47/47
f 45/45/45 49/49/49 48/48/48
f 49/49/49 50/50/50 48/48/48
f 49/49/49 51/51/51 50/50/50
f 51/51/51 52/52/52 50/50/50
f 55/55/55 54/54/54 53/53/53
f 56/56/56 55/55/55 53/53/53
f 59/59/59 58/58/58 57/57/57
f 57/57/57 60/60/60 59/59/59
f 57/57/57 61/61/61 60/60/60
f 57/57/57 62/62/62 61/61/61
f 62/62/62 63/63/63 61/61/61
f 63/63/63 64/64/64 61/61/61
f 67/67/67 66/66/66 65/65/65
f 65/65/65 68/68/68 67/67/67
f 65/65/65 69/69/69 68/68/68
f 65/65/65 70/70/70 69/69/69
f 70/70/70 71/71/71 69/69/69
f 70/70/70 72/72/72 71/71/71
f 75/75/75 74/74/74 73/73/73
f 76/76/76 75/75/75 73/73/73
f 79/79/79 78/78/78 77/77/77
f 80/80/80 79/79/79 77/77/77
f 83/83/83 82/82/82 81/81/81
f 84/84/84 83/83/83 81/81/81
f 87/87/87 86/86/86 85/85/85
f 88/88/88 87/87/87 85/85/85
f 91/91/91 90/90/90 89/89/89
f 92/92/92 91/91/91 89/89/89
f 95/95/95 94/94/94 93/93/93
f 96/96/96 95/95/95 93/93/93
f 99/99/99 98/98/98 97/97/97
f 100/100/100 99/99/99 97/97/97
