g Cube
v -0.5420824 -1.187096 -0.4530859
v -0.5420824 -0.1870963 -0.4530858
v -0.5420824 -0.1870964 0.5469141
v -0.5420824 -1.187096 0.546914
v 0.4579176 -0.1870963 -0.4530858
v 0.4579176 -1.187096 -0.4530859
v 0.4579176 -1.187096 0.546914
v 0.4579176 -0.1870964 0.5469141
v 0.4579176 -1.187096 -0.4530859
v -0.5420824 -1.187096 -0.4530859
v -0.5420824 -1.187096 0.546914
v 0.4579176 -1.187096 0.546914
v -0.5420824 -0.1870963 -0.4530858
v -0.5420824 -1.187096 -0.4530859
v 0.4579176 -1.187096 -0.4530859
v 0.4579176 -0.1870963 -0.4530858
v 0.4579176 -0.1870964 0.5469141
v 0.4579176 -1.187096 0.546914
v -0.5420824 -1.187096 0.546914
v -0.5420824 -0.1870964 0.5469141
v -1.3 -0.2 -1.2
v -1.3 0.3 -1.2
v -1.3 0.3 1.3
v -1.3 -0.2 1.3
v -1.3 0.3 -1.2
v 1.2 0.3 -1.2
v 1.2 0.3 1.3
v -1.3 0.3 1.3
v 1.2 0.3 -1.2
v 1.2 -0.2 -1.2
v 1.2 -0.2 1.3
v 1.2 0.3 1.3
v 1.2 -0.2 -1.2
v -1.3 -0.2 -1.2
v -1.3 -0.2 1.3
v 1.2 -0.2 1.3
v -1.3 0.3 -1.2
v -1.3 -0.2 -1.2
v 1.2 -0.2 -1.2
v 1.2 0.3 -1.2
v 1.2 0.3 1.3
v 1.2 -0.2 1.3
v -1.3 -0.2 1.3
v -1.3 0.3 1.3
vt 0.6913336 0.09952424
vt 0.6913336 0.06845473
vt 0.660264 0.06845473
vt 0.660264 0.09952424
vt 0.660264 0.06845473
vt 0.660264 0.09952429
vt 0.6913336 0.09952429
vt 0.6913336 0.06845473
vt 0.691552 0.02922458
vt 0.6602632 0.02922458
vt 0.6602632 0.06051355
vt 0.691552 0.06051355
vt 0.660264 0.06845473
vt 0.660264 0.09952424
vt 0.6913337 0.09952424
vt 0.6913337 0.06845473
vt 0.660264 0.06845473
vt 0.660264 0.09952424
vt 0.6913335 0.09952424
vt 0.6913336 0.06845473
vt 0.5859905 0.009827729
vt 0.5859905 0.02541069
vt 0.6486471 0.02541069
vt 0.6486471 0.009827729
vt 0.5860185 0.09958279
vt 0.6484392 0.09958279
vt 0.6484392 0.03716218
vt 0.5860185 0.03716218
vt 0.5859905 0.009827692
vt 0.5859905 0.02541069
vt 0.6486471 0.02541069
vt 0.6486471 0.009827729
vt 0.6484392 0.03716218
vt 0.5860185 0.03716218
vt 0.5860185 0.09958279
vt 0.6484392 0.09958279
vt 0.5859905 0.009827729
vt 0.5859905 0.02541069
vt 0.6486471 0.02541069
vt 0.6486471 0.009827729
vt 0.6486471 0.02541069
vt 0.6486471 0.009827729
vt 0.5859905 0.009827729
vt 0.5859905 0.02541069
vn -1 0 0
vn -1 0 0
vn -1 0 0
vn -1 0 0
vn 1 0 0
vn 1 0 0
vn 1 0 0
vn 1 0 0
vn 0 -1 0
vn 0 -1 0
vn 0 -1 0
vn 0 -1 0
vn 0 0 -1
vn 0 0 -1
vn 0 0 -1
vn 0 0 -1
vn 0 0 1
vn 0 0 1
vn 0 0 1
vn 0 0 1
vn -1 0 0
vn -1 0 0
vn -1 0 0
vn -1 0 0
vn 0 1 0
vn 0 1 0
vn 0 1 0
vn 0 1 0
vn 1 0 0
vn 1 0 0
vn 1 0 0
vn 1 0 0
vn 0 -1 0
vn 0 -1 0
vn 0 -1 0
vn 0 -1 0
vn 0 0 -1
vn 0 0 -1
vn 0 0 -1
vn 0 0 -1
vn 0 0 1
vn 0 0 1
vn 0 0 1
vn 0 0 1
g Cube_0
f 3/3/3 2/2/2 1/1/1
f 4/4/4 3/3/3 1/1/1
f 7/7/7 6/6/6 5/5/5
f 8/8/8 7/7/7 5/5/5
f 11/11/11 10/10/10 9/9/9
f 12/12/12 11/11/11 9/9/9
f 15/15/15 14/14/14 13/13/13
f 16/16/16 15/15/15 13/13/13
f 19/19/19 18/18/18 17/17/17
f 20/20/20 19/19/19 17/17/17
f 23/23/23 22/22/22 21/21/21
f 24/24/24 23/23/23 21/21/21
f 27/27/27 26/26/26 25/25/25
f 28/28/28 27/27/27 25/25/25
f 31/31/31 30/30/30 29/29/29
f 32/32/32 31/31/31 29/29/29
f 35/35/35 34/34/34 33/33/33
f 36/36/36 35/35/35 33/33/33
f 39/39/39 38/38/38 37/37/37
f 40/40/40 39/39/39 37/37/37
f 43/43/43 42/42/42 41/41/41
f 44/44/44 43/43/43 41/41/41
