g Cylinder2009
v 4.014973 0.5449141 0.2129101
v -3.338424 4.790401 0.2129101
v 1.563841 4.7904 0.2129101
v -3.338423 -3.700572 0.2129077
v -5.789556 0.5449141 0.2129101
v 1.56384 -3.700572 0.2129077
v 2.37378 5.168545 -0.2391626
v 1.486356 5.680901 -0.2391614
v 4.747427 1.057269 -0.2391626
v 4.747427 0.03255875 -0.2391626
v -3.260939 5.680902 -0.2391614
v -4.148363 5.168547 -0.2391626
v -6.52201 1.057269 -0.2391614
v -6.522009 0.03255859 -0.2391626
v -4.148362 -4.078718 -0.2391638
v -3.260937 -4.591073 -0.2391638
v 1.486354 -4.591073 -0.2391638
v 2.373779 -4.078718 -0.239165
v 5.832705 1.029887 -1.506042
v 2.37378 5.168545 -0.2391626
v 2.892708 6.122115 -1.506038
v 4.747427 1.057269 -0.2391626
v 5.832705 0.05993896 -1.506042
v 4.747427 0.03255875 -0.2391626
v 2.892707 -5.03229 -1.506045
v 2.373779 -4.078718 -0.239165
v 2.052708 6.607089 -1.506038
v -3.260939 5.680902 -0.2391614
v -3.827291 6.607089 -1.506038
v 1.486356 5.680901 -0.2391614
v 2.892708 6.122115 -1.506038
v 2.37378 5.168545 -0.2391626
v -4.148363 5.168547 -0.2391626
v -4.667292 6.122114 -1.506038
v -4.667292 6.122114 -1.506038
v -6.52201 1.057269 -0.2391614
v -7.60729 1.029886 -1.506042
v -4.148363 5.168547 -0.2391626
v -6.522009 0.03255859 -0.2391626
v -7.60729 0.05993778 -1.506042
v -4.148362 -4.078718 -0.2391638
v -4.66729 -5.03229 -1.506045
v -3.82729 -5.517265 -1.506045
v 1.486354 -4.591073 -0.2391638
v 2.052707 -5.517264 -1.506045
v -3.260937 -4.591073 -0.2391638
v -4.66729 -5.03229 -1.506045
v -4.148362 -4.078718 -0.2391638
v 2.373779 -4.078718 -0.239165
v 2.892707 -5.03229 -1.506045
vt 0.6197043 0.2898758
vt -0.07975072 0.6940464
vt 0.3865528 0.6940461
vt -0.07975083 -0.1142943
vt -0.3129025 0.289876
vt 0.3865524 -0.1142944
vt 0.4635942 0.7300456
vt 0.3791823 0.7788218
vt 0.6893753 0.338652
vt 0.6893753 0.2410996
vt -0.07238027 0.7788221
vt -0.1567921 0.7300459
vt -0.3825735 0.3386522
vt -0.3825734 0.2410998
vt -0.1567923 -0.1502937
vt -0.07238039 -0.19907
vt 0.379182 -0.1990701
vt 0.4635938 -0.1502939
vt 0.3357629 0.119819
vt 0.7294321 0.240426
vt 0.8201356 0.1198195
vt 0.3383674 0.240426
vt 0.2435014 0.119819
vt 0.240897 0.240426
vt -0.2408713 0.1198188
vt -0.1501676 0.2404258
vt 0.04254624 0.1198195
vt 0.5479803 0.2404261
vt 0.6018518 0.1198195
vt 0.09641765 0.2404261
vt -0.03735454 0.1198195
vt 0.01200585 0.240426
vt 0.6323922 0.240426
vt 0.6817526 0.1198195
vt -0.3445357 0.1198195
vt 0.1372324 0.2404261
vt 0.139837 0.119819
vt -0.2538324 0.240426
vt 0.2347028 0.240426
vt 0.2320985 0.119819
vt 0.6257675 0.2404259
vt 0.7164713 0.1198188
vt -0.1262519 0.1198188
vt 0.379182 0.2404259
vt 0.4330534 0.1198188
vt -0.07238039 0.2404259
vt -0.2061527 0.1198188
vt -0.1567923 0.2404259
vt 0.4635938 0.2404258
vt 0.5129542 0.1198188
vn 0.2925185 -2.160748E-07 0.9562598
vn -0.1462593 0.2533281 0.9562599
vn 0.1462595 0.253328 0.95626
vn -0.1462589 -0.2533282 0.95626
vn -0.292518 -4.692089E-07 0.95626
vn 0.1462594 -0.2533284 0.9562598
vn 0.4796629 0.4445083 0.7565289
vn 0.145125 0.6376538 0.7565292
vn 0.6247877 0.1931456 0.7565283
vn 0.6247876 -0.1931458 0.7565284
vn -0.145125 0.6376542 0.7565288
vn -0.4796627 0.4445086 0.7565288
vn -0.6247874 0.1931448 0.7565287
vn -0.6247871 -0.193146 0.7565287
vn -0.4796622 -0.4445088 0.7565289
vn -0.1451246 -0.6376539 0.7565291
vn 0.1451251 -0.6376539 0.756529
vn 0.4796626 -0.4445088 0.7565287
vn 0.7490084 0.1795772 0.6377605
vn 0.4796629 0.4445083 0.7565289
vn 0.5300223 0.5588705 0.6377618
vn 0.6247877 0.1931456 0.7565283
vn 0.7490084 -0.1795775 0.6377605
vn 0.6247876 -0.1931458 0.7565284
vn 0.530022 -0.5588711 0.6377616
vn 0.4796626 -0.4445088 0.7565287
vn 0.2189855 0.7384481 0.6377615
vn -0.145125 0.6376542 0.7565288
vn -0.2189859 0.7384482 0.6377612
vn 0.145125 0.6376538 0.7565292
vn 0.5300223 0.5588705 0.6377618
vn 0.4796629 0.4445083 0.7565289
vn -0.4796627 0.4445086 0.7565288
vn -0.5300223 0.5588708 0.6377616
vn -0.5300223 0.5588708 0.6377616
vn -0.6247874 0.1931448 0.7565287
vn -0.7490081 0.1795767 0.637761
vn -0.4796627 0.4445086 0.7565288
vn -0.6247871 -0.193146 0.7565287
vn -0.7490075 -0.1795774 0.6377615
vn -0.4796622 -0.4445088 0.7565289
vn -0.5300221 -0.5588713 0.6377613
vn -0.2189855 -0.7384482 0.6377614
vn 0.1451251 -0.6376539 0.756529
vn 0.2189856 -0.7384481 0.6377614
vn -0.1451246 -0.6376539 0.7565291
vn -0.5300221 -0.5588713 0.6377613
vn -0.4796622 -0.4445088 0.7565289
vn 0.4796626 -0.4445088 0.7565287
vn 0.530022 -0.5588711 0.6377616
g Cylinder2009_0
f 3/3/3 2/2/2 1/1/1
f 2/2/2 4/4/4 1/1/1
f 5/5/5 4/4/4 2/2/2
f 1/1/1 4/4/4 6/6/6
f 3/3/3 1/1/1 7/7/7
f 3/3/3 7/7/7 8/8/8
f 9/9/9 7/7/7 1/1/1
f 1/1/1 10/10/10 9/9/9
f 1/1/1 6/6/6 10/10/10
f 8/8/8 11/11/11 3/3/3
f 2/2/2 3/3/3 11/11/11
f 2/2/2 11/11/11 12/12/12
f 12/12/12 13/13/13 2/2/2
f 5/5/5 2/2/2 13/13/13
f 5/5/5 13/13/13 14/14/14
f 14/14/14 15/15/15 5/5/5
f 4/4/4 5/5/5 15/15/15
f 4/4/4 15/15/15 16/16/16
f 16/16/16 17/17/17 4/4/4
f 6/6/6 4/4/4 17/17/17
f 6/6/6 17/17/17 18/18/18
f 18/18/18 10/10/10 6/6/6
f 21/21/21 20/20/20 19/19/19
f 22/22/22 19/19/19 20/20/20
f 19/19/19 22/22/22 23/23/23
f 24/24/24 23/23/23 22/22/22
f 23/23/23 24/24/24 25/25/25
f 26/26/26 25/25/25 24/24/24
f 29/29/29 28/28/28 27/27/27
f 30/30/30 27/27/27 28/28/28
f 27/27/27 30/30/30 31/31/31
f 32/32/32 31/31/31 30/30/30
f 28/28/28 29/29/29 33/33/33
f 34/34/34 33/33/33 29/29/29
f 37/37/37 36/36/36 35/35/35
f 38/38/38 35/35/35 36/36/36
f 36/36/36 37/37/37 39/39/39
f 40/40/40 39/39/39 37/37/37
f 39/39/39 40/40/40 41/41/41
f 42/42/42 41/41/41 40/40/40
f 45/45/45 44/44/44 43/43/43
f 46/46/46 43/43/43 44/44/44
f 43/43/43 46/46/46 47/47/47
f 48/48/48 47/47/47 46/46/46
f 44/44/44 45/45/45 49/49/49
f 50/50/50 49/49/49 45/45/45
