g Cylinder1453
v 4.943874 6.681861E-09 1.777507
v -2.471937 4.28152 1.777507
v 2.471937 4.281521 1.777507
v -2.471937 -4.281521 1.777507
v -4.943874 -4.205443E-07 1.777507
v 2.471937 -4.281521 1.77751
v 3.214296 4.57102 1.265867
v 5.565768 0.4981533 1.265867
v 7.408929 0.4849747 -2.306799
v 3.214296 4.57102 1.265867
v 4.124465 6.173834 -2.306799
v 5.565768 0.4981533 1.265867
v 7.408929 -0.484974 -2.306799
v 3.284466 6.658808 -2.306799
v -2.351471 5.069172 1.265867
v -3.284465 6.658808 -2.306799
v 2.35147 5.069172 1.265867
v -3.214296 4.571019 1.265869
v -4.124465 6.173834 -2.306797
v -4.124465 6.173834 -2.306797
v -5.565766 0.4981527 1.265867
v -7.40893 0.4849756 -2.306802
v -3.214296 4.571019 1.265869
v -5.565768 -0.4981531 1.265867
v -7.40893 -0.4849731 -2.306802
v -7.40893 -0.4849731 -2.306802
v -3.214296 -4.57102 1.265869
v -4.124464 -6.173834 -2.306802
v -5.565768 -0.4981531 1.265867
v -3.284464 -6.658808 -2.306799
v 2.35147 -5.069171 1.265869
v 3.284464 -6.65881 -2.306802
v -2.35147 -5.069172 1.265867
v 3.214296 -4.57102 1.265867
v 4.124464 -6.173836 -2.306802
v 4.124464 -6.173836 -2.306802
v 5.565766 -0.4981528 1.265867
v 7.408929 -0.484974 -2.306799
v 3.214296 -4.57102 1.265867
v 5.565768 0.4981533 1.265867
v 5.565768 0.4981533 1.265867
v 5.565766 -0.4981528 1.265867
v 4.943874 6.681861E-09 1.777507
v 2.471937 -4.281521 1.77751
v 3.214296 -4.57102 1.265867
v 2.35147 -5.069171 1.265869
v -2.471937 -4.281521 1.777507
v -2.35147 -5.069172 1.265867
v 2.35147 5.069172 1.265867
v 3.214296 4.57102 1.265867
v 2.471937 4.281521 1.777507
v -3.214296 4.571019 1.265869
v -2.351471 5.069172 1.265867
v -2.471937 4.28152 1.777507
v 2.471937 4.281521 1.777507
v 2.35147 5.069172 1.265867
v -5.565766 0.4981527 1.265867
v -4.943874 -4.205443E-07 1.777507
v -5.565768 -0.4981531 1.265867
v -2.35147 -5.069172 1.265867
v -3.214296 -4.57102 1.265869
v -2.471937 -4.281521 1.777507
v -4.943874 -4.205443E-07 1.777507
v -5.565768 -0.4981531 1.265867
v 4.124465 6.173834 -2.306799
v 2.35147 5.069172 1.265867
v 3.284466 6.658808 -2.306799
v 3.214296 4.57102 1.265867
v -4.124464 -6.173834 -2.306802
v -2.35147 -5.069172 1.265867
v -3.284464 -6.658808 -2.306799
v -3.214296 -4.57102 1.265869
vt 0.9364395 0.3145
vt 0.003530539 0.8531155
vt 0.6254699 0.8531154
vt 0.003530295 -0.2241152
vt -0.3074393 0.3145002
vt 0.6254696 -0.2241153
vt 0.7188586 0.8895342
vt 1.014674 0.3771676
vt 0.3755097 0.05759702
vt 0.8895342 0.5070384
vt 1.091168 0.05759702
vt 0.3771676 0.5070384
vt 0.2534902 0.05759702
vt -0.09868601 0.05759702
vt 0.6103148 0.5070384
vt 0.7276854 0.05759702
vt 0.01868481 0.5070384
vt 0.7188582 0.5070387
vt 0.8333574 0.05759747
vt -0.4621686 0.05759747
vt 0.2518321 0.5070384
vt 0.2534897 0.05759672
vt -0.2605344 0.5070387
vt 0.3771674 0.5070384
vt 0.3755093 0.05759672
vt 0.3755093 0.05759672
vt 0.8895341 0.5070387
vt 1.091168 0.05759672
vt 0.3771674 0.5070384
vt -0.09868563 0.05759702
vt 0.6103148 0.5070387
vt 0.7276854 0.05759672
vt 0.018685 0.5070384
vt 0.7188583 0.5070384
vt 0.8333574 0.05759672
vt -0.4621685 0.05759672
vt 0.2518323 0.5070384
vt 0.2534902 0.05759702
vt -0.2605343 0.5070384
vt 0.3771676 0.5070384
vt 1.014674 0.3771676
vt 1.014673 0.2518323
vt 0.9364395 0.3145
vt 0.6254696 -0.2241153
vt 0.7188583 -0.2605343
vt 0.6103148 -0.3232017
vt 0.003530295 -0.2241152
vt 0.018685 -0.3232016
vt 0.6103152 0.952202
vt 0.7188586 0.8895342
vt 0.6254699 0.8531154
vt -0.08985823 0.8895344
vt 0.01868521 0.952202
vt 0.003530539 0.8531155
vt 0.6254699 0.8531154
vt 0.6103152 0.952202
vt -0.3856733 0.3771679
vt -0.3074393 0.3145002
vt -0.3856735 0.2518326
vt 0.018685 -0.3232016
vt -0.08985849 -0.260534
vt 0.003530295 -0.2241152
vt -0.3074393 0.3145002
vt -0.3856735 0.2518326
vt -0.204358 0.05759702
vt 0.01868481 0.5070384
vt -0.09868601 0.05759702
vt -0.08985864 0.5070384
vt -0.2043577 0.05759672
vt 0.018685 0.5070384
vt -0.09868563 0.05759702
vt -0.08985849 0.5070387
vn 0.358981 0 0.9333449
vn -0.1794898 0.3108861 0.9333452
vn 0.1794905 0.3108866 0.9333449
vn -0.1794899 -0.3108864 0.9333451
vn -0.3589808 2.291833E-07 0.933345
vn 0.179491 -0.3108866 0.9333448
vn 0.5631295 0.5291737 0.6347129
vn 0.7398427 0.2230972 0.634713
vn 0.8680903 0.2157749 0.4470576
vn 0.5631295 0.5291737 0.6347129
vn 0.6209117 0.6439006 0.4470578
vn 0.7398427 0.2230972 0.634713
vn 0.8680903 -0.215775 0.4470576
vn 0.2471787 0.8596756 0.4470577
vn -0.1767129 0.7522713 0.6347129
vn -0.247178 0.8596758 0.4470577
vn 0.1767134 0.7522712 0.6347129
vn -0.5631287 0.5291734 0.6347137
vn -0.6209111 0.6439011 0.4470578
vn -0.6209111 0.6439011 0.4470578
vn -0.7398424 0.2230978 0.6347129
vn -0.8680903 0.2157748 0.4470577
vn -0.5631287 0.5291734 0.6347137
vn -0.7398427 -0.223097 0.6347128
vn -0.8680903 -0.2157749 0.4470574
vn -0.8680903 -0.2157749 0.4470574
vn -0.5631287 -0.529174 0.6347133
vn -0.6209121 -0.6439005 0.4470573
vn -0.7398427 -0.223097 0.6347128
vn -0.2471794 -0.8596754 0.4470577
vn 0.1767137 -0.7522712 0.6347128
vn 0.2471786 -0.8596756 0.4470576
vn -0.1767129 -0.7522715 0.6347126
vn 0.5631303 -0.529174 0.634712
vn 0.6209115 -0.6439008 0.4470577
vn 0.6209115 -0.6439008 0.4470577
vn 0.7398427 -0.2230978 0.6347127
vn 0.8680903 -0.215775 0.4470576
vn 0.5631303 -0.529174 0.634712
vn 0.7398427 0.2230972 0.634713
vn 0.7398427 0.2230972 0.634713
vn 0.7398427 -0.2230978 0.6347127
vn 0.358981 0 0.9333449
vn 0.179491 -0.3108866 0.9333448
vn 0.5631303 -0.529174 0.634712
vn 0.1767137 -0.7522712 0.6347128
vn -0.1794899 -0.3108864 0.9333451
vn -0.1767129 -0.7522715 0.6347126
vn 0.1767134 0.7522712 0.6347129
vn 0.5631295 0.5291737 0.6347129
vn 0.1794905 0.3108866 0.9333449
vn -0.5631287 0.5291734 0.6347137
vn -0.1767129 0.7522713 0.6347129
vn -0.1794898 0.3108861 0.9333452
vn 0.1794905 0.3108866 0.9333449
vn 0.1767134 0.7522712 0.6347129
vn -0.7398424 0.2230978 0.6347129
vn -0.3589808 2.291833E-07 0.933345
vn -0.7398427 -0.223097 0.6347128
vn -0.1767129 -0.7522715 0.6347126
vn -0.5631287 -0.529174 0.6347133
vn -0.1794899 -0.3108864 0.9333451
vn -0.3589808 2.291833E-07 0.933345
vn -0.7398427 -0.223097 0.6347128
vn 0.6209117 0.6439006 0.4470578
vn 0.1767134 0.7522712 0.6347129
vn 0.2471787 0.8596756 0.4470577
vn 0.5631295 0.5291737 0.6347129
vn -0.6209121 -0.6439005 0.4470573
vn -0.1767129 -0.7522715 0.6347126
vn -0.2471794 -0.8596754 0.4470577
vn -0.5631287 -0.529174 0.6347133
g Cylinder1453_0
f 3/3/3 2/2/2 1/1/1
f 2/2/2 4/4/4 1/1/1
f 5/5/5 4/4/4 2/2/2
f 1/1/1 4/4/4 6/6/6
f 3/3/3 1/1/1 7/7/7
f 8/8/8 7/7/7 1/1/1
f 11/11/11 10/10/10 9/9/9
f 12/12/12 9/9/9 10/10/10
f 9/9/9 12/12/12 13/13/13
f 16/16/16 15/15/15 14/14/14
f 17/17/17 14/14/14 15/15/15
f 15/15/15 16/16/16 18/18/18
f 19/19/19 18/18/18 16/16/16
f 22/22/22 21/21/21 20/20/20
f 23/23/23 20/20/20 21/21/21
f 21/21/21 22/22/22 24/24/24
f 25/25/25 24/24/24 22/22/22
f 28/28/28 27/27/27 26/26/26
f 29/29/29 26/26/26 27/27/27
f 32/32/32 31/31/31 30/30/30
f 33/33/33 30/30/30 31/31/31
f 31/31/31 32/32/32 34/34/34
f 35/35/35 34/34/34 32/32/32
f 38/38/38 37/37/37 36/36/36
f 39/39/39 36/36/36 37/37/37
f 37/37/37 38/38/38 40/40/40
f 43/43/43 42/42/42 41/41/41
f 43/43/43 44/44/44 42/42/42
f 45/45/45 42/42/42 44/44/44
f 44/44/44 46/46/46 45/45/45
f 44/44/44 47/47/47 46/46/46
f 48/48/48 46/46/46 47/47/47
f 51/51/51 50/50/50 49/49/49
f 54/54/54 53/53/53 52/52/52
f 54/54/54 55/55/55 53/53/53
f 56/56/56 53/53/53 55/55/55
f 52/52/52 57/57/57 54/54/54
f 58/58/58 54/54/54 57/57/57
f 58/58/58 57/57/57 59/59/59
f 62/62/62 61/61/61 60/60/60
f 62/62/62 63/63/63 61/61/61
f 64/64/64 61/61/61 63/63/63
f 67/67/67 66/66/66 65/65/65
f 68/68/68 65/65/65 66/66/66
f 71/71/71 70/70/70 69/69/69
f 72/72/72 69/69/69 70/70/70
