g Cylinder_light
v 0.6547631 0 -0.8134455
v 0.2198501 -0.0005903756 0.7000629
v 0.1793581 0.1240313 0.7000629
v 0.5297145 0.3848601 -0.8134455
v 0.0733485 0.2010517 0.7000629
v 0.2023329 0.6227167 -0.8134455
v -0.05768649 0.2010517 0.7000628
v -0.2023329 0.6227167 -0.8134455
v 0.5297146 -0.3848599 -0.8134455
v 0.1793581 -0.125212 0.7000629
v 0.202333 -0.6227167 -0.8134455
v 0.07334852 -0.2022325 0.7000629
v -0.202333 -0.6227167 -0.8134455
v -0.05768646 -0.2022325 0.7000629
v -0.5297144 -0.3848602 -0.8134455
v -0.163696 -0.1252121 0.7000628
v -0.6547631 -5.724121E-08 -0.8134455
v -0.2041881 -0.0005903918 0.7000629
v -0.5297145 0.38486 -0.8134455
v -0.163696 0.1240313 0.7000629
v -0.2023329 0.6227167 -0.8134455
v -0.05768649 0.2010517 0.7000628
v -0.02908811 0.09554663 0.7814304
v -0.07965938 0.05880407 0.7814304
v -1.418114E-06 1.907349E-08 0.8134452
v -0.09897586 -0.0006461191 0.7814304
v -0.07965939 -0.06009632 0.7814304
v -0.02908821 -0.09683885 0.7814305
v 0.03342184 -0.09683926 0.7814304
v 0.08399386 -0.0600969 0.7814304
v 0.1033107 -0.0006461098 0.7814304
v 0.08399379 0.0588047 0.7814304
v 0.0334218 0.09554699 0.7814304
v -0.02908811 0.09554663 0.7814304
v 2.461448 0.005059966 -0.7462824
v 2.010622 0.003972313 0.7443555
v 1.97013 0.128594 0.7443555
v 2.336399 0.38992 -0.7462824
v 1.86412 0.2056144 0.7443555
v 2.009017 0.6277767 -0.7462824
v 1.733085 0.2056144 0.7443555
v 1.604352 0.6277767 -0.7462824
v 2.336399 -0.3797999 -0.7462824
v 1.97013 -0.1206493 0.7443555
v 2.009018 -0.6176567 -0.7462824
v 1.86412 -0.1976698 0.7443555
v 1.604352 -0.6176567 -0.7462824
v 1.733085 -0.1976698 0.7443555
v 1.27697 -0.3798002 -0.7462824
v 1.627076 -0.1206494 0.7443555
v 1.151921 0.00505991 -0.7462824
v 1.586584 0.003972292 0.7443554
v 1.27697 0.38992 -0.7462824
v 1.627076 0.128594 0.7443555
v 1.604352 0.6277767 -0.7462824
v 1.733085 0.2056144 0.7443555
v 1.775655 0.1003973 0.838486
v 1.725083 0.06365474 0.8384858
v 1.806683 0.005059954 0.8806083
v 1.705767 0.004204473 0.8384858
v 1.725083 -0.0552458 0.8384858
v 1.775655 -0.0919883 0.838486
v 1.838165 -0.0919886 0.8384858
v 1.888737 -0.05524624 0.838486
v 1.908053 0.004204482 0.838486
v 1.888737 0.06365522 0.8384858
v 1.838165 0.1003976 0.8384858
v 1.775655 0.1003973 0.838486
vt 0.6979041 0.9914831
vt 0.6979041 0.05899214
vt 0.7962008 0.05899214
vt 0.7962008 0.9914831
vt 0.8944973 0.05899214
vt 0.8944973 0.9914831
vt 0.992794 0.05899214
vt 0.992794 0.9914831
vt 0.5996076 0.9914831
vt 0.5996076 0.05899214
vt 0.5013109 0.9914831
vt 0.5013109 0.05899214
vt 0.4030142 0.9914831
vt 0.4030142 0.05899214
vt 0.3047176 0.9914831
vt 0.3047176 0.05899214
vt 0.206421 0.9914831
vt 0.206421 0.05899214
vt 0.1081244 0.9914831
vt 0.1081244 0.05899214
vt 0.009827769 0.9914831
vt 0.009827769 0.05899214
vt 0.2369708 0.008516885
vt 0.2898395 0.008516885
vt 0.5013109 0.008516885
vt 0.3427075 0.008516885
vt 0.3955752 0.008516885
vt 0.4484428 0.008516885
vt 0.5013109 0.008516885
vt 0.5541793 0.008516885
vt 0.6070478 0.008516885
vt 0.6599161 0.008516885
vt 0.7127838 0.008516885
vt 0.765651 0.008516885
vt 0.6979041 0.9914831
vt 0.6979041 0.05899214
vt 0.7962008 0.05899214
vt 0.7962008 0.9914831
vt 0.8944973 0.05899214
vt 0.8944973 0.9914831
vt 0.992794 0.05899214
vt 0.992794 0.9914831
vt 0.5996076 0.9914831
vt 0.5996076 0.05899214
vt 0.5013109 0.9914831
vt 0.5013109 0.05899214
vt 0.4030142 0.9914831
vt 0.4030142 0.05899214
vt 0.3047176 0.9914831
vt 0.3047176 0.05899214
vt 0.206421 0.9914831
vt 0.206421 0.05899214
vt 0.1081244 0.9914831
vt 0.1081244 0.05899214
vt 0.009827769 0.9914831
vt 0.009827769 0.05899214
vt 0.2369707 0.008516885
vt 0.2898393 0.008516885
vt 0.5013109 0.008516885
vt 0.3427073 0.008516885
vt 0.395575 0.008516885
vt 0.4484428 0.008516885
vt 0.5013109 0.008516885
vt 0.5541793 0.008516885
vt 0.6070477 0.008516885
vt 0.6599159 0.008516885
vt 0.7127837 0.008516885
vt 0.7656511 0.008516885
vn 0.9611065 6.580239E-05 0.276178
vn 0.8337309 -2.774925E-05 0.5521711
vn 0.6758674 0.4893124 0.5511592
vn 0.7769675 0.5651978 0.27726
vn 0.2606426 0.7947527 0.5481181
vn 0.2958803 0.9133641 0.2796797
vn -0.2570584 0.798737 0.5440039
vn -0.2971936 0.9120671 0.2825057
vn 0.777125 -0.5651808 0.2768527
vn 0.6759905 -0.4894557 0.5508812
vn 0.2959777 -0.9135336 0.2790226
vn 0.2607222 -0.795042 0.5476606
vn -0.297292 -0.9122376 0.281851
vn -0.2571341 -0.7990305 0.543537
vn -0.7759733 -0.5630841 0.2842563
vn -0.6799918 -0.4959138 0.5400748
vn -0.9584302 6.501724E-05 0.285327
vn -0.8424256 -2.510034E-05 0.5388127
vn -0.7758145 0.5630993 0.2846597
vn -0.6798633 0.4957689 0.5403693
vn -0.2971936 0.9120671 0.2825057
vn -0.2570584 0.798737 0.5440039
vn -0.1523233 0.458252 0.8756728
vn -0.3977908 0.2863154 0.871657
vn -0.006560383 0.00195481 0.9999766
vn -0.4926466 -0.0001636425 0.8702294
vn -0.3971135 -0.2861393 0.8720236
vn -0.1519242 -0.4572931 0.8762432
vn 0.143133 -0.4507085 0.8811213
vn 0.375793 -0.2754744 0.8848127
vn 0.4635569 -0.0001485582 0.8860672
vn 0.3764345 0.2756347 0.8844901
vn 0.1435474 0.4516364 0.8805786
vn -0.1523233 0.458252 0.8756728
vn 0.9571816 0.000121694 0.2894882
vn 0.8603083 -0.0001668349 0.5097739
vn 0.6936731 0.5064543 0.5121734
vn 0.7747599 0.5623618 0.2889572
vn 0.2611487 0.8143449 0.5183084
vn 0.2968162 0.9108453 0.2868117
vn -0.2660099 0.8082223 0.5253717
vn -0.2954496 0.9122126 0.2838624
vn 0.7750591 -0.5623354 0.2882054
vn 0.693451 -0.5066184 0.5123118
vn 0.2970013 -0.9111684 0.2855914
vn 0.2610303 -0.8142682 0.5184885
vn -0.2956322 -0.9125336 0.2826374
vn -0.2658813 -0.8081794 0.5255028
vn -0.7762883 -0.5645447 0.2804741
vn -0.6867102 -0.4967327 0.5307409
vn -0.9600185 0.0001223663 0.2799366
vn -0.8463459 -0.0001549972 0.5326336
vn -0.7759924 0.5645738 0.2812335
vn -0.6868901 0.4965466 0.530682
vn -0.2954496 0.9122126 0.2838624
vn -0.2660099 0.8082223 0.5253717
vn -0.1619724 0.5151622 0.8416489
vn -0.4277366 0.3145074 0.8474234
vn -0.0008425475 0.003178382 0.9999946
vn -0.5268 -5.497606E-05 0.8499893
vn -0.4262351 -0.3135137 0.8485476
vn -0.1610625 -0.5123932 0.8435116
vn 0.1744283 -0.5194073 0.836535
vn 0.4529493 -0.3248287 0.8302549
vn 0.561728 -3.092672E-05 0.8273219
vn 0.4544458 0.3258373 0.8290411
vn 0.1753737 0.5221671 0.834617
vn -0.1619724 0.5151622 0.8416489
g Cylinder_light_0
f 3/3/3 2/2/2 1/1/1
f 4/4/4 3/3/3 1/1/1
f 5/5/5 3/3/3 4/4/4
f 6/6/6 5/5/5 4/4/4
f 7/7/7 5/5/5 6/6/6
f 8/8/8 7/7/7 6/6/6
f 1/1/1 2/2/2 9/9/9
f 2/2/2 10/10/10 9/9/9
f 9/9/9 10/10/10 11/11/11
f 10/10/10 12/12/12 11/11/11
f 11/11/11 12/12/12 13/13/13
f 12/12/12 14/14/14 13/13/13
f 13/13/13 14/14/14 15/15/15
f 14/14/14 16/16/16 15/15/15
f 15/15/15 16/16/16 17/17/17
f 16/16/16 18/18/18 17/17/17
f 17/17/17 18/18/18 19/19/19
f 18/18/18 20/20/20 19/19/19
f 19/19/19 20/20/20 21/21/21
f 20/20/20 22/22/22 21/21/21
f 23/23/23 22/22/22 20/20/20
f 24/24/24 23/23/23 20/20/20
f 24/24/24 20/20/20 18/18/18
f 24/24/24 25/25/25 23/23/23
f 26/26/26 25/25/25 24/24/24
f 26/26/26 24/24/24 18/18/18
f 26/26/26 18/18/18 16/16/16
f 27/27/27 25/25/25 26/26/26
f 27/27/27 26/26/26 16/16/16
f 27/27/27 16/16/16 14/14/14
f 28/28/28 25/25/25 27/27/27
f 28/28/28 27/27/27 14/14/14
f 29/29/29 25/25/25 28/28/28
f 30/30/30 25/25/25 29/29/29
f 31/31/31 25/25/25 30/30/30
f 32/32/32 25/25/25 31/31/31
f 33/33/33 25/25/25 32/32/32
f 34/34/34 25/25/25 33/33/33
f 32/32/32 31/31/31 3/3/3
f 31/31/31 2/2/2 3/3/3
f 31/31/31 30/30/30 2/2/2
f 32/32/32 3/3/3 5/5/5
f 33/33/33 32/32/32 5/5/5
f 33/33/33 5/5/5 7/7/7
f 34/34/34 33/33/33 7/7/7
f 29/29/29 28/28/28 12/12/12
f 28/28/28 14/14/14 12/12/12
f 29/29/29 12/12/12 10/10/10
f 30/30/30 29/29/29 10/10/10
f 30/30/30 10/10/10 2/2/2
f 37/37/37 36/36/36 35/35/35
f 38/38/38 37/37/37 35/35/35
f 39/39/39 37/37/37 38/38/38
f 40/40/40 39/39/39 38/38/38
f 41/41/41 39/39/39 40/40/40
f 42/42/42 41/41/41 40/40/40
f 35/35/35 36/36/36 43/43/43
f 36/36/36 44/44/44 43/43/43
f 43/43/43 44/44/44 45/45/45
f 44/44/44 46/46/46 45/45/45
f 45/45/45 46/46/46 47/47/47
f 46/46/46 48/48/48 47/47/47
f 47/47/47 48/48/48 49/49/49
f 48/48/48 50/50/50 49/49/49
f 49/49/49 50/50/50 51/51/51
f 50/50/50 52/52/52 51/51/51
f 51/51/51 52/52/52 53/53/53
f 52/52/52 54/54/54 53/53/53
f 53/53/53 54/54/54 55/55/55
f 54/54/54 56/56/56 55/55/55
f 57/57/57 56/56/56 54/54/54
f 58/58/58 57/57/57 54/54/54
f 58/58/58 54/54/54 52/52/52
f 58/58/58 59/59/59 57/57/57
f 60/60/60 59/59/59 58/58/58
f 60/60/60 58/58/58 52/52/52
f 60/60/60 52/52/52 50/50/50
f 61/61/61 59/59/59 60/60/60
f 61/61/61 60/60/60 50/50/50
f 61/61/61 50/50/50 48/48/48
f 62/62/62 59/59/59 61/61/61
f 62/62/62 61/61/61 48/48/48
f 63/63/63 59/59/59 62/62/62
f 64/64/64 59/59/59 63/63/63
f 65/65/65 59/59/59 64/64/64
f 66/66/66 59/59/59 65/65/65
f 67/67/67 59/59/59 66/66/66
f 68/68/68 59/59/59 67/67/67
f 66/66/66 65/65/65 37/37/37
f 65/65/65 36/36/36 37/37/37
f 65/65/65 64/64/64 36/36/36
f 66/66/66 37/37/37 39/39/39
f 67/67/67 66/66/66 39/39/39
f 67/67/67 39/39/39 41/41/41
f 68/68/68 67/67/67 41/41/41
f 63/63/63 62/62/62 46/46/46
f 62/62/62 48/48/48 46/46/46
f 63/63/63 46/46/46 44/44/44
f 64/64/64 63/63/63 44/44/44
f 64/64/64 44/44/44 36/36/36
