g DeathEscape_laser_box_1_1
v -0.06249997 0.9374995 0.8749995
v -0.06249997 0.9374995 0.7499996
v -0.06249997 1.1875 0.7499996
v -0.06249997 1.3125 0.8749995
v -0.06249997 1.3125 0.06249992
v -0.06249997 1.1875 -5.190725E-08
v -0.06249997 1.3125 -0.06250002
v -0.06249997 1.3125 -0.8749995
v -0.06249997 1.1875 -0.7499996
v -0.06249997 0.9374995 -0.8749995
v -0.06249997 0.9374995 -0.7499996
v -0.06249997 1.562499 0.06249991
v -0.06249997 1.562499 -0.06250003
v -0.06249997 0.9374995 0.7499996
v 0.06249997 0.9374995 0.7499996
v 0.06249997 1.1875 0.7499996
v -0.06249997 1.1875 0.7499996
v 0.06249997 1.562499 -0.06250003
v 0.06249997 1.3125 -0.06250002
v 0.06249997 1.3125 0.06249992
v 0.06249997 1.562499 0.06249991
v 0.06249997 1.1875 -5.190725E-08
v 0.06249997 1.3125 0.8749995
v 0.06249997 1.1875 0.7499996
v 0.06249997 0.9374995 0.7499996
v 0.06249997 0.9374995 0.8749995
v 0.06249997 1.1875 -0.7499996
v 0.06249997 1.3125 -0.8749995
v 0.06249997 0.9374995 -0.7499996
v 0.06249997 0.9374995 -0.8749995
v 0.06249997 0.9374995 0.8749995
v -0.06249997 0.9374995 0.8749995
v -0.06249997 1.3125 0.8749995
v 0.06249997 1.3125 0.8749995
v 0.06249997 1.1875 0.7499996
v 0.06249997 1.1875 -5.190725E-08
v -0.06249997 1.1875 -5.190725E-08
v -0.06249997 1.1875 0.7499996
v -0.06249997 1.1875 -0.7499996
v 0.06249997 1.1875 -0.7499996
v -0.06249997 1.3125 0.8749995
v -0.06249997 1.3125 0.06249992
v 0.06249997 1.3125 0.06249992
v 0.06249997 1.3125 0.8749995
v 0.06249997 1.3125 -0.06250002
v 0.06249997 1.562499 -0.06250003
v -0.06249997 1.562499 -0.06250003
v -0.06249997 1.3125 -0.06250002
v -0.06249997 1.3125 -0.06250002
v -0.06249997 1.3125 -0.8749995
v 0.06249997 1.3125 -0.8749995
v 0.06249997 1.3125 -0.06250002
v 0.06249997 1.1875 -0.7499996
v 0.06249997 0.9374995 -0.7499996
v -0.06249997 0.9374995 -0.7499996
v -0.06249997 1.1875 -0.7499996
v -0.06249997 1.3125 -0.8749995
v -0.06249997 0.9374995 -0.8749995
v 0.06249997 0.9374995 -0.8749995
v 0.06249997 1.3125 -0.8749995
v -0.06249997 1.562499 0.06249991
v -0.06249997 1.562499 -0.06250003
v 0.06249997 1.562499 -0.06250003
v 0.06249997 1.562499 0.06249991
v -0.06249997 1.3125 0.06249992
v -0.06249997 1.562499 0.06249991
v 0.06249997 1.562499 0.06249991
v 0.06249997 1.3125 0.06249992
v -0.125 0.9374995 0.9374998
v 0.125 0.9374995 0.9374998
v 0.125 -0.9374998 0.9374995
v -0.125 -0.9374998 0.9374995
v 0.125 0.9374995 0.9374998
v 0.125 0.9374995 0.6874999
v 0.125 -0.9374995 0.6874996
v 0.125 -0.9374998 0.9374995
v 0.125 -0.9374998 0.9374995
v 0.125 -0.9374995 0.6874996
v -0.125 -0.9374995 0.6874996
v -0.125 -0.9374998 0.9374995
v -0.125 0.9374995 0.6874999
v -0.125 0.9374995 0.9374998
v -0.125 -0.9374998 0.9374995
v -0.125 -0.9374995 0.6874996
v -0.125 0.9374995 -0.6874996
v -0.125 0.9374998 -0.9374995
v 0.125 0.9374998 -0.9374995
v 0.125 0.9374995 -0.6874996
v 0.125 -0.9374995 -0.6874999
v 0.125 -0.9374995 -0.9374998
v -0.125 -0.9374995 -0.9374998
v -0.125 -0.9374995 -0.6874999
v -0.125 0.9374995 0.9374998
v -0.125 0.9374995 0.6874999
v 0.125 0.9374995 0.6874999
v 0.125 0.9374995 0.9374998
v -0.125 0.9374998 -0.9374995
v -0.125 0.9374995 -0.6874996
v -0.125 -0.9374995 -0.6874999
v -0.125 -0.9374995 -0.9374998
v -0.125 0.9374995 -0.6874996
v 0.125 0.9374995 -0.6874996
v 0.125 -0.9374995 -0.6874999
v -0.125 -0.9374995 -0.6874999
v 0.125 0.9374995 0.6874999
v -0.125 0.9374995 0.6874999
v -0.125 -0.9374995 0.6874996
v 0.125 -0.9374995 0.6874996
v 0.125 0.9374998 -0.9374995
v -0.125 0.9374998 -0.9374995
v -0.125 -0.9374995 -0.9374998
v 0.125 -0.9374995 -0.9374998
v 0.125 0.9374995 -0.6874996
v 0.125 0.9374998 -0.9374995
v 0.125 -0.9374995 -0.9374998
v 0.125 -0.9374995 -0.6874999
v 0.1874999 0.9999996 0.9999995
v 0.1874999 0.9999995 -0.9999996
v 0.1874992 -0.9999996 -0.9999996
v 0.1875003 -0.9999995 0.999999
v -0.1875 0.9999995 -0.9999995
v -0.1874995 0.9999996 0.9999996
v -0.1874998 -0.9999995 0.9999996
v -0.1875002 -0.9999996 -0.999999
v 0.1875003 -0.9999995 0.999999
v -0.1874998 -0.9999995 0.9999996
v -0.1874995 0.9999996 0.9999996
v 0.1874999 0.9999996 0.9999995
v 0.1875003 -0.9999995 0.999999
v 0.1874992 -0.9999996 -0.9999996
v -0.1875002 -0.9999996 -0.999999
v -0.1874998 -0.9999995 0.9999996
v 0.1874999 0.9999996 0.9999995
v -0.1874995 0.9999996 0.9999996
v -0.1875 0.9999995 -0.9999995
v 0.1874999 0.9999995 -0.9999996
v 0.1874999 0.9999995 -0.9999996
v -0.1875 0.9999995 -0.9999995
v -0.1875002 -0.9999996 -0.999999
v 0.1874992 -0.9999996 -0.9999996
vt 0.5781392 0.1699729
vt 0.5781392 0.1660633
vt 0.5703201 0.1660633
vt 0.5664104 0.1699729
vt 0.5664104 0.1445602
vt 0.5703201 0.1426054
vt 0.5664104 0.1406506
vt 0.5664104 0.115238
vt 0.5703201 0.1191476
vt 0.5781392 0.115238
vt 0.5781392 0.1191476
vt 0.5585912 0.1445602
vt 0.5585912 0.1406506
vt 0.5585573 0.1698889
vt 0.5585573 0.1660333
vt 0.5508462 0.1660333
vt 0.5508462 0.1698889
vt 0.5585912 0.1445602
vt 0.5664104 0.1445602
vt 0.5664104 0.1406506
vt 0.5585912 0.1406506
vt 0.5703201 0.1426054
vt 0.5664104 0.115238
vt 0.5703201 0.1191476
vt 0.5781392 0.1191476
vt 0.5781392 0.115238
vt 0.5703201 0.1660633
vt 0.5664104 0.1699729
vt 0.5781393 0.1660633
vt 0.5781393 0.1699729
vt 0.5527726 0.1406292
vt 0.5566202 0.1406292
vt 0.5566202 0.1290862
vt 0.5527726 0.1290862
vt 0.5488195 0.1699056
vt 0.5488195 0.1425584
vt 0.5449343 0.1425584
vt 0.5449343 0.1699056
vt 0.5449343 0.1152111
vt 0.5488195 0.1152111
vt 0.556629 0.1406136
vt 0.556629 0.111326
vt 0.5527627 0.111326
vt 0.5527627 0.1406136
vt 0.5644606 0.1464884
vt 0.5566317 0.1464884
vt 0.5566317 0.1504028
vt 0.5644606 0.1504028
vt 0.5527627 0.111326
vt 0.5527627 0.1406136
vt 0.556629 0.1406136
vt 0.556629 0.111326
vt 0.5508462 0.1698889
vt 0.5585573 0.1698889
vt 0.5585573 0.1660333
vt 0.5508462 0.1660333
vt 0.5527726 0.1290862
vt 0.5527726 0.1406292
vt 0.5566202 0.1406292
vt 0.5566202 0.1290862
vt 0.5527962 0.1405685
vt 0.5565987 0.1405685
vt 0.5565987 0.1367662
vt 0.5527962 0.1367662
vt 0.5644606 0.1464884
vt 0.5566317 0.1464884
vt 0.5566317 0.1504028
vt 0.5644606 0.1504028
vt 0.5176056 0.1718665
vt 0.5253926 0.1718665
vt 0.5253926 0.1133009
vt 0.5176056 0.1133009
vt 0.5253926 0.1133009
vt 0.5176056 0.1133009
vt 0.5176056 0.1718665
vt 0.5253926 0.1718665
vt 0.5351504 0.1210748
vt 0.5351504 0.113317
vt 0.5273927 0.113317
vt 0.5273927 0.1210748
vt 0.5253926 0.1133009
vt 0.5176057 0.1133009
vt 0.5176057 0.1718665
vt 0.5253926 0.1718665
vt 0.5273927 0.113317
vt 0.5273927 0.1210748
vt 0.5351504 0.1210748
vt 0.5351504 0.113317
vt 0.5351504 0.1210748
vt 0.5351504 0.113317
vt 0.5273927 0.113317
vt 0.5273927 0.1210748
vt 0.5273927 0.113317
vt 0.5273927 0.1210748
vt 0.5351504 0.1210748
vt 0.5351504 0.113317
vt 0.5253926 0.1133009
vt 0.5176056 0.1133009
vt 0.5176057 0.1718665
vt 0.5253926 0.1718665
vt 0.5176056 0.1718665
vt 0.5253926 0.1718665
vt 0.5253926 0.1133009
vt 0.5176056 0.1133009
vt 0.5176056 0.1718665
vt 0.5253926 0.1718665
vt 0.5253926 0.1133009
vt 0.5176056 0.1133009
vt 0.5176056 0.1718665
vt 0.5253926 0.1718665
vt 0.5253925 0.1133009
vt 0.5176056 0.1133009
vt 0.5176056 0.1718665
vt 0.5253926 0.1718665
vt 0.5253926 0.1133009
vt 0.5176056 0.1133009
vt 7.450581E-08 1
vt 0.5 1
vt 0.5 0.5
vt 1.341105E-07 0.5000001
vt 0.4999999 0.5000001
vt 4.470348E-08 0.5000001
vt 1.043081E-07 1
vt 0.4999999 1
vt 0.9383435 0.7502722
vt 0.9991597 0.7502722
vt 0.9991596 0.2502194
vt 0.9383435 0.2502194
vt 0.9991597 0.7502722
vt 0.9991596 0.2502194
vt 0.9383435 0.2502195
vt 0.9383434 0.7502722
vt 0.9383435 0.7502721
vt 0.9991596 0.7502722
vt 0.9991598 0.2502194
vt 0.9383435 0.2502194
vt 0.9991598 0.2502193
vt 0.9383436 0.2502194
vt 0.9383436 0.7502721
vt 0.9991598 0.7502721
vn -1 0 0
vn -1 0 0
vn -1 0 0
vn -1 0 0
vn -1 0 0
vn -1 0 0
vn -1 0 0
vn -1 0 0
vn -1 0 0
vn -1 0 0
vn -1 0 0
vn -1 0 0
vn -1 0 0
vn 0 0 -1
vn 0 0 -1
vn 0 0 -1
vn 0 0 -1
vn 1 0 0
vn 1 0 0
vn 1 0 0
vn 1 0 0
vn 1 0 0
vn 1 0 0
vn 1 0 0
vn 1 0 0
vn 1 0 0
vn 1 0 0
vn 1 0 0
vn 1 0 0
vn 1 0 0
vn 0 0 1
vn 0 0 1
vn 0 0 1
vn 0 0 1
vn 0 -1 0
vn 0 -1 0
vn 0 -1 0
vn 0 -1 0
vn 0 -1 0
vn 0 -1 0
vn 0 1 0
vn 0 1 0
vn 0 1 0
vn 0 1 0
vn 0 0 -1
vn 0 0 -1
vn 0 0 -1
vn 0 0 -1
vn 0 1 0
vn 0 1 0
vn 0 1 0
vn 0 1 0
vn 0 0 1
vn 0 0 1
vn 0 0 1
vn 0 0 1
vn 0 0 -1
vn 0 0 -1
vn 0 0 -1
vn 0 0 -1
vn 0 1 0
vn 0 1 0
vn 0 1 0
vn 0 1 0
vn 0 0 1
vn 0 0 1
vn 0 0 1
vn 0 0 1
vn 0 0 1
vn 0 0 1
vn 0 0 1
vn 0 0 1
vn 1 0 0
vn 1 0 0
vn 1 0 0
vn 1 0 0
vn 0 -1 0
vn 0 -1 0
vn 0 -1 0
vn 0 -1 0
vn -1 0 0
vn -1 0 0
vn -1 0 0
vn -1 0 0
vn 0 1 0
vn 0 1 0
vn 0 1 0
vn 0 1 0
vn 0 -1 0
vn 0 -1 0
vn 0 -1 0
vn 0 -1 0
vn 0 1 0
vn 0 1 0
vn 0 1 0
vn 0 1 0
vn -1 0 0
vn -1 0 0
vn -1 0 0
vn -1 0 0
vn 0 0 1
vn 0 0 1
vn 0 0 1
vn 0 0 1
vn 0 0 -1
vn 0 0 -1
vn 0 0 -1
vn 0 0 -1
vn 0 0 -1
vn 0 0 -1
vn 0 0 -1
vn 0 0 -1
vn 1 0 0
vn 1 0 0
vn 1 0 0
vn 1 0 0
vn 1 0 0
vn 1 0 0
vn 1 0 0
vn 1 0 0
vn -1 0 0
vn -1 0 0
vn -1 0 0
vn -1 0 0
vn 0 0 1
vn 0 0 1
vn 0 0 1
vn 0 0 1
vn 0 -1 0
vn 0 -1 0
vn 0 -1 0
vn 0 -1 0
vn 0 1 0
vn 0 1 0
vn 0 1 0
vn 0 1 0
vn 0 0 -1
vn 0 0 -1
vn 0 0 -1
vn 0 0 -1
g DeathEscape_laser_box_1_1_0
f 3/3/3 2/2/2 1/1/1
f 4/4/4 3/3/3 1/1/1
f 4/4/4 5/5/5 3/3/3
f 5/5/5 6/6/6 3/3/3
f 5/5/5 7/7/7 6/6/6
f 7/7/7 8/8/8 6/6/6
f 8/8/8 9/9/9 6/6/6
f 8/8/8 10/10/10 9/9/9
f 10/10/10 11/11/11 9/9/9
f 7/7/7 5/5/5 12/12/12
f 13/13/13 7/7/7 12/12/12
f 16/16/16 15/15/15 14/14/14
f 17/17/17 16/16/16 14/14/14
f 20/20/20 19/19/19 18/18/18
f 21/21/21 20/20/20 18/18/18
f 22/22/22 19/19/19 20/20/20
f 22/22/22 20/20/20 23/23/23
f 24/24/24 22/22/22 23/23/23
f 24/24/24 23/23/23 25/25/25
f 23/23/23 26/26/26 25/25/25
f 22/22/22 27/27/27 19/19/19
f 27/27/27 28/28/28 19/19/19
f 27/27/27 29/29/29 28/28/28
f 29/29/29 30/30/30 28/28/28
f 33/33/33 32/32/32 31/31/31
f 34/34/34 33/33/33 31/31/31
f 37/37/37 36/36/36 35/35/35
f 38/38/38 37/37/37 35/35/35
f 36/36/36 37/37/37 39/39/39
f 40/40/40 36/36/36 39/39/39
f 43/43/43 42/42/42 41/41/41
f 44/44/44 43/43/43 41/41/41
f 47/47/47 46/46/46 45/45/45
f 48/48/48 47/47/47 45/45/45
f 51/51/51 50/50/50 49/49/49
f 52/52/52 51/51/51 49/49/49
f 55/55/55 54/54/54 53/53/53
f 56/56/56 55/55/55 53/53/53
f 59/59/59 58/58/58 57/57/57
f 60/60/60 59/59/59 57/57/57
f 63/63/63 62/62/62 61/61/61
f 64/64/64 63/63/63 61/61/61
f 67/67/67 66/66/66 65/65/65
f 68/68/68 67/67/67 65/65/65
f 71/71/71 70/70/70 69/69/69
f 72/72/72 71/71/71 69/69/69
f 75/75/75 74/74/74 73/73/73
f 76/76/76 75/75/75 73/73/73
f 79/79/79 78/78/78 77/77/77
f 80/80/80 79/79/79 77/77/77
f 83/83/83 82/82/82 81/81/81
f 84/84/84 83/83/83 81/81/81
f 87/87/87 86/86/86 85/85/85
f 88/88/88 87/87/87 85/85/85
f 91/91/91 90/90/90 89/89/89
f 92/92/92 91/91/91 89/89/89
f 95/95/95 94/94/94 93/93/93
f 96/96/96 95/95/95 93/93/93
f 99/99/99 98/98/98 97/97/97
f 100/100/100 99/99/99 97/97/97
f 103/103/103 102/102/102 101/101/101
f 104/104/104 103/103/103 101/101/101
f 107/107/107 106/106/106 105/105/105
f 108/108/108 107/107/107 105/105/105
f 111/111/111 110/110/110 109/109/109
f 112/112/112 111/111/111 109/109/109
f 115/115/115 114/114/114 113/113/113
f 116/116/116 115/115/115 113/113/113
g DeathEscape_laser_box_1_1_1
f 119/119/119 118/118/118 117/117/117
f 120/120/120 119/119/119 117/117/117
f 123/123/123 122/122/122 121/121/121
f 124/124/124 123/123/123 121/121/121
f 127/127/127 126/126/126 125/125/125
f 128/128/128 127/127/127 125/125/125
f 131/131/131 130/130/130 129/129/129
f 132/132/132 131/131/131 129/129/129
f 135/135/135 134/134/134 133/133/133
f 136/136/136 135/135/135 133/133/133
f 139/139/139 138/138/138 137/137/137
f 140/140/140 139/139/139 137/137/137
