g decor_small_custom_2_flag
v -0.75 0.06249991 3.125
v 0.75 0.06249991 2.875
v -0.75 0.06249991 2.875
v 0.75 0.06249991 3.125
v -0.75 0.06249991 2.625
v 0.75 0.06249992 2.625
v -0.75 0.06249992 2.375
v 0.75 0.06249992 2.375
v -0.75 0.06249993 2.0625
v 0.75 0.06249993 2.0625
v 0.75 0.06249994 1.75
v -0.625 0.06249993 1.8125
v -0.75 0.06249993 1.8125
v 0.625 0.0624999 1.75
v -0.2499999 0.06249993 1.75
v -0.5625 0.06249993 1.75
v -0.625 0.06249994 1.75
v -0.25 0.0624999 1.6875
v 0.5625 0.06249988 1.6875
v 0.4999999 0.06249989 1.625
v -0.0625 0.0624999 1.5625
v 0.4999999 0.0624999 1.5
v -0.0625 0.0624999 1.5
v -0.25 0.0624999 1.5625
v 0.5625 0.06249989 1.625
v 0.625 0.06249988 1.6875
v -0.375 0.06249991 1.6875
v -0.5 0.06249992 1.6875
v -0.375 0.06249991 1.625
v -0.5 0.06249992 1.625
v -0.5625 0.06249993 1.6875
v -0.625 0.1249999 1.8125
v -0.75 0.1249999 2.0625
v -0.75 0.1249999 1.8125
v 0.625 0.1249999 1.75
v 0.75 0.1249999 2.0625
v 0.75 0.1249999 1.75
v -0.75 0.1249999 2.375
v 0.75 0.1249999 2.375
v -0.75 0.1249999 2.625
v 0.75 0.1249999 2.625
v -0.75 0.1249999 2.875
v 0.75 0.1249999 2.875
v -0.75 0.1249999 3.125
v 0.75 0.1249999 3.125
v -0.2499999 0.1249999 1.75
v -0.5625 0.1249999 1.75
v -0.625 0.1249999 1.75
v -0.25 0.1249999 1.6875
v 0.5625 0.1249999 1.6875
v 0.4999999 0.1249999 1.625
v -0.0625 0.1249999 1.5625
v 0.4999999 0.1249999 1.5
v -0.0625 0.1249999 1.5
v -0.25 0.1249999 1.5625
v 0.5625 0.1249999 1.625
v -0.375 0.1249999 1.6875
v -0.5 0.1249999 1.6875
v -0.5 0.1249999 1.625
v -0.375 0.1249999 1.625
v -0.5625 0.1249999 1.6875
v 0.625 0.1249999 1.6875
v -0.75 0.06249993 2.0625
v -0.75 0.1249999 1.8125
v -0.75 0.1249999 2.0625
v -0.75 0.06249993 1.8125
v -0.75 0.06249992 2.375
v -0.75 0.1249999 2.375
v -0.75 0.06249991 2.625
v -0.75 0.1249999 2.625
v -0.75 0.06249991 2.875
v -0.75 0.1249999 2.875
v -0.75 0.06249991 3.125
v -0.75 0.1249999 3.125
v -0.75 0.06249991 3.125
v 0.75 0.1249999 3.125
v 0.75 0.06249991 3.125
v -0.75 0.1249999 3.125
v 0.75 0.06249991 2.875
v 0.75 0.1249999 3.125
v 0.75 0.1249999 2.875
v 0.75 0.06249991 3.125
v 0.75 0.06249992 2.625
v 0.75 0.1249999 2.625
v 0.75 0.06249992 2.375
v 0.75 0.1249999 2.375
v 0.75 0.06249993 2.0625
v 0.75 0.1249999 2.0625
v 0.75 0.06249994 1.75
v 0.75 0.1249999 1.75
v -0.625 0.06249993 1.8125
v -0.75 0.1249999 1.8125
v -0.75 0.06249993 1.8125
v -0.625 0.1249999 1.8125
v 0.625 0.1249999 1.75
v 0.75 0.06249994 1.75
v 0.75 0.1249999 1.75
v 0.625 0.0624999 1.75
v -0.625 0.1249999 1.8125
v -0.625 0.06249994 1.75
v -0.625 0.1249999 1.75
v -0.625 0.06249993 1.8125
v -0.625 0.1249999 1.75
v -0.5625 0.06249993 1.75
v -0.5625 0.1249999 1.75
v -0.625 0.06249994 1.75
v -0.5625 0.1249999 1.75
v -0.5625 0.06249993 1.6875
v -0.5625 0.1249999 1.6875
v -0.5625 0.06249993 1.75
v -0.5625 0.1249999 1.6875
v -0.5 0.06249992 1.6875
v -0.5 0.1249999 1.6875
v -0.5625 0.06249993 1.6875
v -0.5 0.1249999 1.6875
v -0.5 0.06249992 1.625
v -0.5 0.1249999 1.625
v -0.5 0.06249992 1.6875
v -0.5 0.1249999 1.625
v -0.375 0.06249991 1.625
v -0.375 0.1249999 1.625
v -0.5 0.06249992 1.625
v -0.375 0.1249999 1.625
v -0.375 0.06249991 1.6875
v -0.375 0.1249999 1.6875
v -0.375 0.06249991 1.625
v -0.375 0.1249999 1.6875
v -0.25 0.0624999 1.6875
v -0.25 0.1249999 1.6875
v -0.375 0.06249991 1.6875
v -0.25 0.1249999 1.6875
v -0.25 0.0624999 1.5625
v -0.25 0.1249999 1.5625
v -0.25 0.0624999 1.6875
v -0.25 0.1249999 1.5625
v -0.0625 0.0624999 1.5625
v -0.0625 0.1249999 1.5625
v -0.25 0.0624999 1.5625
v -0.0625 0.1249999 1.5625
v -0.0625 0.0624999 1.5
v -0.0625 0.1249999 1.5
v -0.0625 0.0624999 1.5625
v -0.0625 0.1249999 1.5
v 0.4999999 0.0624999 1.5
v 0.4999999 0.1249999 1.5
v -0.0625 0.0624999 1.5
v 0.4999999 0.1249999 1.5
v 0.4999999 0.06249989 1.625
v 0.4999999 0.1249999 1.625
v 0.4999999 0.0624999 1.5
v 0.4999999 0.1249999 1.625
v 0.5625 0.06249989 1.625
v 0.5625 0.1249999 1.625
v 0.4999999 0.06249989 1.625
v 0.5625 0.1249999 1.625
v 0.5625 0.06249988 1.6875
v 0.5625 0.1249999 1.6875
v 0.5625 0.06249989 1.625
v 0.5625 0.1249999 1.6875
v 0.625 0.06249988 1.6875
v 0.625 0.1249999 1.6875
v 0.5625 0.06249988 1.6875
v 0.625 0.1249999 1.6875
v 0.625 0.0624999 1.75
v 0.625 0.1249999 1.75
v 0.625 0.06249988 1.6875
vt 0.0234375 0.02343756
vt 0.05468747 0.2109376
vt 0.05468749 0.02343756
vt 0.0234375 0.2109376
vt 0.08593751 0.02343756
vt 0.08593747 0.2109376
vt 0.1171875 0.02343756
vt 0.1171875 0.2109376
vt 0.1562501 0.02343756
vt 0.15625 0.2109376
vt 0.1953125 0.2109376
vt 0.1875001 0.0390625
vt 0.1875001 0.02343756
vt 0.1953126 0.1953126
vt 0.1953125 0.08593759
vt 0.1953125 0.04687505
vt 0.1953125 0.0390625
vt 0.2031251 0.08593754
vt 0.2031251 0.1875001
vt 0.2109376 0.1796876
vt 0.2187501 0.1093751
vt 0.2265625 0.1796876
vt 0.2265625 0.1093751
vt 0.2187501 0.08593754
vt 0.2109376 0.1875001
vt 0.2031251 0.1953126
vt 0.2031251 0.07031254
vt 0.2031251 0.05468755
vt 0.2109376 0.07031254
vt 0.2109376 0.05468755
vt 0.2031251 0.04687505
vt 0.1875001 0.0390625
vt 0.1562501 0.0234375
vt 0.1875001 0.0234375
vt 0.1953126 0.1953125
vt 0.1562501 0.2109376
vt 0.1953126 0.2109376
vt 0.1171875 0.0234375
vt 0.1171875 0.2109376
vt 0.08593751 0.0234375
vt 0.08593751 0.2109376
vt 0.05468749 0.0234375
vt 0.05468749 0.2109376
vt 0.02343751 0.0234375
vt 0.02343751 0.2109376
vt 0.1953126 0.08593751
vt 0.1953126 0.04687499
vt 0.1953126 0.0390625
vt 0.2031251 0.08593753
vt 0.2031251 0.1875001
vt 0.2109375 0.1796876
vt 0.21875 0.109375
vt 0.2265626 0.1796876
vt 0.2265626 0.109375
vt 0.21875 0.08593753
vt 0.2109375 0.1875001
vt 0.2031251 0.07031254
vt 0.2031251 0.05468749
vt 0.2109375 0.05468749
vt 0.2109375 0.07031254
vt 0.2031251 0.04687499
vt 0.2031251 0.1953125
vt 0.1562496 0.0078125
vt 0.1874995 0.01562503
vt 0.1562496 0.01562503
vt 0.1874995 0.0078125
vt 0.1171872 0.0078125
vt 0.1171872 0.01562503
vt 0.08593727 0.0078125
vt 0.08593728 0.01562503
vt 0.05468737 0.0078125
vt 0.05468737 0.01562503
vt 0.0234375 0.0078125
vt 0.0234375 0.01562503
vt 0.015625 0.2109377
vt 0.0078125 0.02343762
vt 0.015625 0.02343762
vt 0.0078125 0.2109377
vt 0.1640626 0.21875
vt 0.1953126 0.2265625
vt 0.1640626 0.2265625
vt 0.1953126 0.21875
vt 0.1328126 0.21875
vt 0.1328126 0.2265625
vt 0.1015626 0.21875
vt 0.1015626 0.2265625
vt 0.06250002 0.21875
vt 0.06250002 0.2265625
vt 0.0234375 0.21875
vt 0.0234375 0.2265625
vt 0.2109374 0.0078125
vt 0.1953125 0.01562512
vt 0.1953125 0.0078125
vt 0.2109374 0.01562512
vt 0.0859375 0.2421875
vt 0.1015625 0.234375
vt 0.1015625 0.2421875
vt 0.0859375 0.234375
vt 0.046875 0.25
vt 0.0546875 0.2578125
vt 0.046875 0.2578125
vt 0.0546875 0.25
vt 0.203125 0.2109375
vt 0.2109375 0.203125
vt 0.2109375 0.2109375
vt 0.203125 0.203125
vt 0.1953125 0.03125013
vt 0.203125 0.02343762
vt 0.203125 0.03125013
vt 0.1953125 0.02343762
vt 0.0078125 0.25
vt 0.01562507 0.2578125
vt 0.0078125 0.2578125
vt 0.01562507 0.25
vt 0.2109375 0.02343762
vt 0.21875 0.03125012
vt 0.2109375 0.03125012
vt 0.21875 0.02343762
vt 0.125 0.2421875
vt 0.140625 0.234375
vt 0.140625 0.2421875
vt 0.125 0.234375
vt 0.0078125 0.234375
vt 0.015625 0.2421875
vt 0.0078125 0.2421875
vt 0.015625 0.234375
vt 0.140625 0.2578124
vt 0.1562501 0.25
vt 0.1562501 0.2578124
vt 0.140625 0.25
vt 0.0234375 0.2578125
vt 0.0390625 0.25
vt 0.0390625 0.2578125
vt 0.0234375 0.25
vt 0.0546875 0.2421875
vt 0.07812505 0.234375
vt 0.07812505 0.2421875
vt 0.0546875 0.234375
vt 0.109375 0.234375
vt 0.1171875 0.2421875
vt 0.109375 0.2421875
vt 0.1171875 0.234375
vt 0.06249998 0.2578125
vt 0.1328126 0.25
vt 0.1328126 0.2578125
vt 0.06249998 0.25
vt 0.1484375 0.2421875
vt 0.1640625 0.234375
vt 0.1640625 0.2421875
vt 0.1484375 0.234375
vt 0.0234375 0.234375
vt 0.03125 0.2421875
vt 0.0234375 0.2421875
vt 0.03125 0.234375
vt 0.171875 0.234375
vt 0.1796875 0.2421875
vt 0.171875 0.2421875
vt 0.1796875 0.234375
vt 0.0390625 0.234375
vt 0.04687501 0.2421875
vt 0.0390625 0.2421875
vt 0.04687501 0.234375
vt 0.0078125 0.21875
vt 0.015625 0.2265625
vt 0.0078125 0.2265625
vt 0.015625 0.21875
vn 0 -1 0
vn 0 -1 0
vn 0 -1 0
vn 0 -1 0
vn 0 -1 0
vn 0 -1 0
vn 0 -1 0
vn 0 -1 0
vn 0 -1 0
vn 0 -1 0
vn 2.670218E-07 -1 5.798201E-06
vn 0 -1 0
vn 0 -1 0
vn 0 -1 3.814698E-07
vn 0 -1 0
vn 0 -1 0
vn 0 -1 0
vn 0 -1 0
vn 0 -1 0
vn 0 -1 0
vn 0 -1 0
vn 0 -1 0
vn 0 -1 0
vn 0 -1 0
vn 0 -1 0
vn 0 -1 3.814698E-07
vn -1.14441E-07 -1 0
vn 0 -1 0
vn 0 -1 0
vn 0 -1 0
vn 0 -1 0
vn 0 1 0
vn 0 1 0
vn 0 1 0
vn 0 1 0
vn 0 1 0
vn 0 1 0
vn 0 1 0
vn 0 1 0
vn 0 1 0
vn 0 1 0
vn 0 1 0
vn 0 1 0
vn 0 1 0
vn 0 1 0
vn 0 1 1.525883E-07
vn 0 1 1.525883E-07
vn 0 1 1.525883E-07
vn 0 1 0
vn 0 1 0
vn 0 1 0
vn 0 1 0
vn 0 1 0
vn 0 1 0
vn 0 1 0
vn 0 1 0
vn 0 1 0
vn 0 1 0
vn 0 1 0
vn 0 1 0
vn 0 1 0
vn 0 1 0
vn -1 0 0
vn -1 0 0
vn -1 0 0
vn -1 0 0
vn -1 0 0
vn -1 0 0
vn -1 0 0
vn -1 0 0
vn -1 0 0
vn -1 0 0
vn -1 0 0
vn -1 0 0
vn 0 0 1
vn 0 0 1
vn 0 0 1
vn 0 0 1
vn 1 0 0
vn 1 0 0
vn 1 0 0
vn 1 0 0
vn 1 0 0
vn 1 0 0
vn 1 0 0
vn 1 0 0
vn 1 0 0
vn 1 0 0
vn 1 0 0
vn 1 0 0
vn 0 0 -1
vn 0 0 -1
vn 0 0 -1
vn 0 0 -1
vn 1.220704E-06 0 -1
vn 1.220704E-06 0 -1
vn 1.220704E-06 0 -1
vn 1.220703E-06 0 -1
vn -1 0 0
vn -1 0 0
vn -1 0 0
vn -1 0 0
vn 0 0 -1
vn 0 0 -1
vn 0 0 -1
vn 0 0 -1
vn -1 0 0
vn -1 0 0
vn -1 0 0
vn -1 0 0
vn 0 0 -1
vn 0 0 -1
vn 0 0 -1
vn 0 0 -1
vn -1 0 0
vn -1 0 0
vn -1 0 0
vn -1 0 0
vn 0 0 -1
vn 0 0 -1
vn 0 0 -1
vn 0 0 -1
vn 1 0 0
vn 1 0 0
vn 1 0 0
vn 1 0 0
vn 0 0 -1
vn 0 0 -1
vn 0 0 -1
vn 0 0 -1
vn -1 0 0
vn -1 0 0
vn -1 0 0
vn -1 0 0
vn 0 0 -1
vn 0 0 -1
vn 0 0 -1
vn 0 0 -1
vn -1 0 0
vn -1 0 0
vn -1 0 0
vn -1 0 0
vn 0 0 -1
vn 0 0 -1
vn 0 0 -1
vn 0 0 -1
vn 1 0 0
vn 1 0 0
vn 1 0 0
vn 1 0 0
vn 0 0 -1
vn 0 0 -1
vn 0 0 -1
vn 0 0 -1
vn 1 0 0
vn 1 0 0
vn 1 0 0
vn 1 0 0
vn 0 0 -1
vn 0 0 -1
vn 0 0 -1
vn 0 0 -1
vn 1 0 -6.103515E-07
vn 1 0 -6.103515E-07
vn 1 0 -6.103515E-07
vn 1 0 -6.103516E-07
g decor_small_custom_2_flag_0
f 3/3/3 2/2/2 1/1/1
f 4/4/4 1/1/1 2/2/2
f 3/3/3 5/5/5 2/2/2
f 6/6/6 2/2/2 5/5/5
f 5/5/5 7/7/7 6/6/6
f 8/8/8 6/6/6 7/7/7
f 7/7/7 9/9/9 8/8/8
f 10/10/10 8/8/8 9/9/9
f 11/11/11 10/10/10 9/9/9
f 12/12/12 11/11/11 9/9/9
f 13/13/13 12/12/12 9/9/9
f 14/14/14 11/11/11 12/12/12
f 14/14/14 12/12/12 15/15/15
f 15/15/15 12/12/12 16/16/16
f 12/12/12 17/17/17 16/16/16
f 18/18/18 15/15/15 16/16/16
f 14/14/14 15/15/15 18/18/18
f 18/18/18 19/19/19 14/14/14
f 18/18/18 20/20/20 19/19/19
f 20/20/20 18/18/18 21/21/21
f 20/20/20 21/21/21 22/22/22
f 23/23/23 22/22/22 21/21/21
f 24/24/24 21/21/21 18/18/18
f 25/25/25 19/19/19 20/20/20
f 26/26/26 14/14/14 19/19/19
f 18/18/18 16/16/16 27/27/27
f 16/16/16 28/28/28 27/27/27
f 27/27/27 28/28/28 29/29/29
f 30/30/30 29/29/29 28/28/28
f 31/31/31 28/28/28 16/16/16
f 34/34/34 33/33/33 32/32/32
f 32/32/32 33/33/33 35/35/35
f 33/33/33 36/36/36 35/35/35
f 36/36/36 37/37/37 35/35/35
f 33/33/33 38/38/38 36/36/36
f 39/39/39 36/36/36 38/38/38
f 38/38/38 40/40/40 39/39/39
f 41/41/41 39/39/39 40/40/40
f 40/40/40 42/42/42 41/41/41
f 43/43/43 41/41/41 42/42/42
f 42/42/42 44/44/44 43/43/43
f 45/45/45 43/43/43 44/44/44
f 35/35/35 46/46/46 32/32/32
f 32/32/32 46/46/46 47/47/47
f 32/32/32 47/47/47 48/48/48
f 49/49/49 46/46/46 35/35/35
f 47/47/47 46/46/46 49/49/49
f 50/50/50 49/49/49 35/35/35
f 49/49/49 50/50/50 51/51/51
f 51/51/51 52/52/52 49/49/49
f 51/51/51 53/53/53 52/52/52
f 54/54/54 52/52/52 53/53/53
f 55/55/55 49/49/49 52/52/52
f 56/56/56 51/51/51 50/50/50
f 57/57/57 47/47/47 49/49/49
f 57/57/57 58/58/58 47/47/47
f 58/58/58 57/57/57 59/59/59
f 60/60/60 59/59/59 57/57/57
f 58/58/58 61/61/61 47/47/47
f 50/50/50 35/35/35 62/62/62
f 65/65/65 64/64/64 63/63/63
f 66/66/66 63/63/63 64/64/64
f 63/63/63 67/67/67 65/65/65
f 68/68/68 65/65/65 67/67/67
f 67/67/67 69/69/69 68/68/68
f 70/70/70 68/68/68 69/69/69
f 69/69/69 71/71/71 70/70/70
f 72/72/72 70/70/70 71/71/71
f 71/71/71 73/73/73 72/72/72
f 74/74/74 72/72/72 73/73/73
f 77/77/77 76/76/76 75/75/75
f 78/78/78 75/75/75 76/76/76
f 81/81/81 80/80/80 79/79/79
f 82/82/82 79/79/79 80/80/80
f 79/79/79 83/83/83 81/81/81
f 84/84/84 81/81/81 83/83/83
f 83/83/83 85/85/85 84/84/84
f 86/86/86 84/84/84 85/85/85
f 85/85/85 87/87/87 86/86/86
f 88/88/88 86/86/86 87/87/87
f 87/87/87 89/89/89 88/88/88
f 90/90/90 88/88/88 89/89/89
f 93/93/93 92/92/92 91/91/91
f 94/94/94 91/91/91 92/92/92
f 97/97/97 96/96/96 95/95/95
f 98/98/98 95/95/95 96/96/96
f 101/101/101 100/100/100 99/99/99
f 102/102/102 99/99/99 100/100/100
f 105/105/105 104/104/104 103/103/103
f 106/106/106 103/103/103 104/104/104
f 109/109/109 108/108/108 107/107/107
f 110/110/110 107/107/107 108/108/108
f 113/113/113 112/112/112 111/111/111
f 114/114/114 111/111/111 112/112/112
f 117/117/117 116/116/116 115/115/115
f 118/118/118 115/115/115 116/116/116
f 121/121/121 120/120/120 119/119/119
f 122/122/122 119/119/119 120/120/120
f 125/125/125 124/124/124 123/123/123
f 126/126/126 123/123/123 124/124/124
f 129/129/129 128/128/128 127/127/127
f 130/130/130 127/127/127 128/128/128
f 133/133/133 132/132/132 131/131/131
f 134/134/134 131/131/131 132/132/132
f 137/137/137 136/136/136 135/135/135
f 138/138/138 135/135/135 136/136/136
f 141/141/141 140/140/140 139/139/139
f 142/142/142 139/139/139 140/140/140
f 145/145/145 144/144/144 143/143/143
f 146/146/146 143/143/143 144/144/144
f 149/149/149 148/148/148 147/147/147
f 150/150/150 147/147/147 148/148/148
f 153/153/153 152/152/152 151/151/151
f 154/154/154 151/151/151 152/152/152
f 157/157/157 156/156/156 155/155/155
f 158/158/158 155/155/155 156/156/156
f 161/161/161 160/160/160 159/159/159
f 162/162/162 159/159/159 160/160/160
f 165/165/165 164/164/164 163/163/163
f 166/166/166 163/163/163 164/164/164
