# Mesh "decor_big_castle_3_book" exported with Unity Assets Bundle Extractor; 170 vertices, 312 indices, 320 bits per vertex
g decor_big_castle_3_book
# SubMesh 0
# Vertices
v -0.092867 -0.733933 1.479486
vt 0.164063 0.468750
vn -0.196318 0.562857 -0.802902
v -0.721541 -0.832420 1.620696
vt 0.039063 0.468750
vn -0.264202 0.553636 -0.789737
v -0.722090 -1.531719 1.130710
vt 0.039063 0.289063
vn -0.264202 0.553636 -0.789737
v -0.093326 -1.433156 0.989390
vt 0.164063 0.289063
vn -0.196318 0.562857 -0.802902
v -0.000514 -1.426355 0.979590
vt 0.183594 0.289063
vn -0.000000 0.573965 -0.818880
v -0.000055 -0.727132 1.469685
vt 0.183594 0.468750
vn -0.000000 0.573965 -0.818880
v 0.092757 -0.734016 1.479429
vt 0.203125 0.468750
vn 0.196878 0.562676 -0.802891
v 0.092298 -1.433238 0.989334
vt 0.203125 0.289063
vn 0.196878 0.562676 -0.802891
v 0.722090 -0.833640 1.621150
vt 0.328125 0.468750
vn 0.265296 0.553345 -0.789574
v 0.721751 -1.532802 1.130969
vt 0.328125 0.289063
vn 0.265296 0.553345 -0.789574
v -0.018657 -0.922625 1.619247
vt 0.242188 0.296875
vn 0.244875 -0.556545 0.793910
v -0.019037 -1.500239 1.214391
vt 0.242188 0.000000
vn 0.244875 -0.556545 0.793910
v -0.556811 -1.577924 1.325860
vt 0.007813 0.000000
vn 0.244875 -0.556545 0.793910
v -0.556359 -1.000248 1.730626
vt 0.007813 0.296875
vn 0.244875 -0.556545 0.793910
v -0.018617 -0.797891 1.570662
vt 0.328125 0.468750
vn 0.121594 -0.573399 0.810203
v -0.000055 -0.797899 1.570656
vt 0.332031 0.468750
vn -0.000000 -0.573926 0.818907
v -0.000095 -0.858705 1.528041
vt 0.332031 0.453125
vn -0.000000 -0.573926 0.818907
v -0.018657 -0.858697 1.528046
vt 0.328125 0.453125
vn 0.121594 -0.573399 0.810203
v 0.018468 -0.858713 1.528035
vt 0.335938 0.453125
vn -0.122258 -0.573033 0.810362
v 0.018508 -0.797908 1.570650
vt 0.335938 0.468750
vn -0.122258 -0.573033 0.810362
v 0.693264 -0.895387 1.709242
vt 0.476563 0.468750
vn -0.250745 -0.559001 0.790345
v 0.621514 -0.945133 1.650899
vt 0.460938 0.453125
vn -0.250745 -0.559001 0.790345
v 0.621234 -1.522700 1.245969
vt 0.460938 0.304688
vn -0.250653 -0.552172 0.795160
v 0.692924 -1.594551 1.219064
vt 0.476563 0.289063
vn -0.250653 -0.552172 0.795160
v 0.018049 -1.497131 1.080561
vt 0.335938 0.289063
vn -0.122167 -0.566166 0.815188
v 0.018089 -1.436330 1.123177
vt 0.335938 0.304688
vn -0.122167 -0.566166 0.815188
v -0.000474 -1.436322 1.123183
vt 0.332031 0.304688
vn -0.000000 -0.573970 0.818876
v -0.000514 -1.497122 1.080566
vt 0.332031 0.289063
vn -0.000000 -0.573970 0.818876
v -0.019037 -1.436314 1.123189
vt 0.328125 0.304688
vn 0.121675 -0.566046 0.815345
v -0.019077 -1.497115 1.080572
vt 0.328125 0.289063
vn 0.121675 -0.566046 0.815345
v 0.556828 -1.001356 1.731132
vt 0.492188 0.296875
vn -0.246199 -0.556251 0.793707
v 0.556548 -1.578920 1.326204
vt 0.492188 0.000000
vn -0.246199 -0.556251 0.793707
v 0.018089 -1.500255 1.214380
vt 0.257813 0.000000
vn -0.246199 -0.556251 0.793707
v 0.018468 -0.922641 1.619236
vt 0.257813 0.296875
vn -0.246199 -0.556251 0.793707
v -0.692717 -0.894170 1.708786
vt 0.507813 0.468750
vn -0.965928 -0.148007 0.212314
v -0.693265 -1.593468 1.218806
vt 0.507813 0.289063
vn -0.965928 -0.148007 0.212314
v -0.722090 -1.531719 1.130710
vt 0.484375 0.289063
vn -0.965928 -0.148007 0.212314
v -0.721541 -0.832420 1.620696
vt 0.484375 0.468750
vn -0.965928 -0.148007 0.212314
v -0.621045 -0.943991 1.650417
vt 0.484375 0.445313
vn -0.965927 -0.148010 0.212317
v -0.601828 -0.985161 1.709145
vt 0.500000 0.445313
vn -0.965927 -0.148010 0.212317
v -0.602281 -1.562837 1.304379
vt 0.500000 0.296875
vn -0.965927 -0.148010 0.212317
v -0.621499 -1.521670 1.245648
vt 0.484375 0.296875
vn -0.965927 -0.148010 0.212317
v -0.018657 -0.901318 1.588847
vt 0.156250 0.289063
vn 0.000565 0.818891 0.573948
v -0.018657 -0.922625 1.619247
vt 0.156250 0.281250
vn 0.000649 0.818932 0.573890
v -0.556359 -1.000248 1.730626
vt 0.039063 0.281250
vn 0.000649 0.818932 0.573890
v -0.565967 -0.979666 1.701263
vt 0.039063 0.289063
vn 0.000654 0.818917 0.573912
v 0.566436 -0.980775 1.701769
vt 0.007813 0.328125
vn 0.000393 0.818821 0.574049
v 0.556828 -1.001356 1.731132
vt 0.000000 0.328125
vn 0.000420 0.818856 0.573998
v 0.018468 -0.922641 1.619236
vt 0.000000 0.445312
vn 0.000420 0.818856 0.573998
v 0.018468 -0.901335 1.588836
vt 0.007813 0.445313
vn 0.000465 0.818851 0.574005
v 0.018468 -0.858713 1.528035
vt 0.023438 0.445313
vn 0.000449 0.818829 0.574037
v 0.621514 -0.945133 1.650899
vt 0.023438 0.320313
vn 0.000371 0.818790 0.574093
v 0.602296 -0.986302 1.709628
vt 0.007813 0.320313
vn 0.000369 0.818791 0.574092
v 0.018508 -0.797908 1.570650
vt 0.023438 0.445313
vn 0.000460 0.818904 0.573931
v 0.092757 -0.734016 1.479429
vt 0.046875 0.429687
vn 0.000422 0.818874 0.573973
v 0.693264 -0.895387 1.709242
vt 0.023438 0.304688
vn 0.000385 0.818864 0.573987
v 0.722090 -0.833640 1.621150
vt 0.046875 0.304688
vn 0.000345 0.818814 0.574058
v -0.000055 -0.727132 1.469685
vt 0.046875 0.449219
vn 0.000545 0.818894 0.573945
v -0.000055 -0.797899 1.570656
vt 0.023438 0.449219
vn 0.000545 0.818894 0.573945
v -0.692717 -0.894170 1.708786
vt 0.023438 0.449219
vn 0.000622 0.818926 0.573899
v -0.721541 -0.832420 1.620696
vt 0.046875 0.449219
vn 0.000606 0.818946 0.573871
v -0.092867 -0.733933 1.479486
vt 0.046875 0.324219
vn 0.000613 0.818915 0.573914
v -0.018617 -0.797891 1.570662
vt 0.023438 0.308594
vn 0.000617 0.818900 0.573936
v -0.000055 -0.727132 1.469685
vt 0.046875 0.304688
vn 0.000545 0.818894 0.573945
v -0.000055 -0.797899 1.570656
vt 0.023438 0.304688
vn 0.000545 0.818894 0.573945
v 0.693264 -0.895387 1.709242
vt 0.507813 0.468750
vn 0.965925 -0.148894 0.211705
v 0.722090 -0.833640 1.621150
vt 0.484375 0.468750
vn 0.965925 -0.148894 0.211705
v 0.721751 -1.532802 1.130969
vt 0.484375 0.289063
vn 0.965925 -0.148894 0.211705
v 0.692924 -1.594551 1.219064
vt 0.507813 0.289063
vn 0.965925 -0.148894 0.211705
v 0.621514 -0.945133 1.650899
vt 0.484375 0.445313
vn 0.965926 -0.148893 0.211704
v 0.621234 -1.522700 1.245969
vt 0.484375 0.296875
vn 0.965926 -0.148893 0.211704
v 0.602016 -1.563866 1.304700
vt 0.500000 0.296875
vn 0.965926 -0.148893 0.211704
v 0.602296 -0.986302 1.709628
vt 0.500000 0.445313
vn 0.965926 -0.148893 0.211704
v 0.018468 -0.922641 1.619236
vt 0.335938 0.453125
vn -1.000000 0.000441 0.000308
v 0.018089 -1.500255 1.214380
vt 0.335938 0.304688
vn -1.000000 0.000441 0.000308
v 0.018089 -1.478947 1.183981
vt 0.328125 0.304688
vn -1.000000 0.000441 0.000308
v 0.018468 -0.901335 1.588836
vt 0.328125 0.453125
vn -1.000000 0.000441 0.000308
v -0.018657 -0.922625 1.619247
vt 0.335938 0.453125
vn 1.000000 -0.000442 -0.000307
v -0.018657 -0.901318 1.588847
vt 0.328125 0.453125
vn 1.000000 -0.000442 -0.000307
v -0.019037 -1.478931 1.183991
vt 0.328125 0.304688
vn 1.000000 -0.000442 -0.000307
v -0.019037 -1.500239 1.214391
vt 0.335938 0.304688
vn 1.000000 -0.000442 -0.000307
v -0.019037 -1.478931 1.183991
vt 0.156250 0.289063
vn -0.000611 -0.818898 -0.573939
v -0.566420 -1.557342 1.296496
vt 0.039063 0.289063
vn -0.000647 -0.818933 -0.573889
v -0.556811 -1.577924 1.325860
vt 0.039063 0.281250
vn -0.000651 -0.818926 -0.573898
v -0.019037 -1.500239 1.214391
vt 0.156250 0.281250
vn -0.000651 -0.818926 -0.573898
v 0.566156 -1.558339 1.296840
vt 0.007813 0.328125
vn -0.000407 -0.818841 -0.574021
v 0.018089 -1.478947 1.183981
vt 0.007813 0.445313
vn -0.000445 -0.818864 -0.573988
v 0.018089 -1.500255 1.214380
vt 0.000000 0.445312
vn -0.000415 -0.818843 -0.574018
v 0.566156 -1.558339 1.296840
vt 0.007813 0.328125
vn -0.000407 -0.818841 -0.574021
v 0.018089 -1.500255 1.214380
vt 0.000000 0.445312
vn -0.000415 -0.818843 -0.574018
v 0.556548 -1.578920 1.326204
vt 0.000000 0.328125
vn -0.000415 -0.818843 -0.574018
v 0.566436 -0.980775 1.701769
vt 0.500000 0.445313
vn 0.965925 -0.148894 0.211705
v 0.566156 -1.558339 1.296840
vt 0.500000 0.296875
vn 0.965925 -0.148894 0.211705
v 0.556548 -1.578920 1.326204
vt 0.507813 0.296875
vn 0.965925 -0.148894 0.211705
v 0.556828 -1.001356 1.731132
vt 0.507813 0.445313
vn 0.965925 -0.148894 0.211705
v -0.565967 -0.979666 1.701263
vt 0.500000 0.445313
vn -0.965925 -0.148014 0.212324
v -0.556359 -1.000248 1.730626
vt 0.507813 0.445313
vn -0.965925 -0.148014 0.212324
v -0.556811 -1.577924 1.325860
vt 0.507813 0.296875
vn -0.965925 -0.148014 0.212324
v -0.566420 -1.557342 1.296496
vt 0.500000 0.296875
vn -0.965925 -0.148014 0.212324
v -0.018657 -0.901318 1.588847
vt 0.328125 0.453125
vn -0.000000 -0.573963 0.818881
v -0.000095 -0.901325 1.588841
vt 0.332031 0.453125
vn -0.000016 -0.573963 0.818881
v -0.000474 -1.478939 1.183986
vt 0.332031 0.304688
vn -0.000016 -0.573963 0.818881
v -0.019037 -1.478931 1.183991
vt 0.328125 0.304688
vn -0.000000 -0.573963 0.818881
v 0.018089 -1.478947 1.183981
vt 0.335938 0.304688
vn -0.000028 -0.573963 0.818881
v 0.018468 -0.901335 1.588836
vt 0.335938 0.453125
vn -0.000028 -0.573963 0.818881
v 0.602296 -0.986302 1.709628
vt 0.460938 0.453125
vn -0.258816 -0.554420 0.790969
v 0.602016 -1.563866 1.304700
vt 0.460938 0.304688
vn -0.258816 -0.554420 0.790969
v 0.566156 -1.558339 1.296840
vt 0.453125 0.304688
vn -0.258816 -0.554420 0.790969
v 0.566436 -0.980775 1.701769
vt 0.453125 0.453125
vn -0.258816 -0.554420 0.790969
v -0.000095 -0.858705 1.528041
vt 0.160156 0.304688
vn 0.000523 0.818850 0.574007
v -0.000095 -0.901325 1.588841
vt 0.160156 0.289063
vn 0.000523 0.818850 0.574007
v -0.018657 -0.901318 1.588847
vt 0.156250 0.289063
vn 0.000565 0.818891 0.573948
v -0.018657 -0.858697 1.528046
vt 0.156250 0.304688
vn 0.000597 0.818875 0.573971
v 0.018468 -0.901335 1.588836
vt 0.164062 0.289063
vn 0.000465 0.818851 0.574005
v 0.018468 -0.858713 1.528035
vt 0.164063 0.304688
vn 0.000449 0.818829 0.574037
v -0.565967 -0.979666 1.701263
vt 0.046875 0.460938
vn 0.258821 -0.554419 0.790968
v -0.566420 -1.557342 1.296496
vt 0.046875 0.312500
vn 0.258821 -0.554419 0.790968
v -0.602281 -1.562837 1.304379
vt 0.039063 0.312500
vn 0.258821 -0.554419 0.790968
v -0.601828 -0.985161 1.709145
vt 0.039063 0.460938
vn 0.258821 -0.554419 0.790968
v 0.566156 -1.558339 1.296840
vt 0.007813 0.328125
vn -0.000407 -0.818841 -0.574021
v 0.018089 -1.478947 1.183981
vt 0.007813 0.445313
vn -0.000445 -0.818864 -0.573988
v 0.018089 -1.500255 1.214380
vt 0.000000 0.445312
vn -0.000415 -0.818843 -0.574018
v 0.566156 -1.558339 1.296840
vt 0.007813 0.328125
vn -0.000407 -0.818841 -0.574021
v 0.018089 -1.500255 1.214380
vt 0.000000 0.445312
vn -0.000415 -0.818843 -0.574018
v 0.556548 -1.578921 1.326204
vt 0.000000 0.328125
vn -0.000415 -0.818842 -0.574018
v 0.018089 -1.436330 1.123177
vt 0.023438 0.445313
vn -0.000446 -0.818863 -0.573989
v 0.566156 -1.558339 1.296840
vt 0.007813 0.328125
vn -0.000407 -0.818841 -0.574021
v 0.621234 -1.522700 1.245969
vt 0.023437 0.320313
vn -0.000389 -0.818817 -0.574054
v 0.018089 -1.478947 1.183981
vt 0.007813 0.445312
vn -0.000445 -0.818864 -0.573988
v 0.602016 -1.563866 1.304700
vt 0.007813 0.320313
vn -0.000392 -0.818816 -0.574057
v -0.019037 -1.478931 1.183991
vt 0.156250 0.289063
vn -0.000611 -0.818898 -0.573939
v -0.000474 -1.478939 1.183986
vt 0.160156 0.289063
vn -0.000520 -0.818886 -0.573956
v -0.000474 -1.436322 1.123183
vt 0.160156 0.304687
vn -0.000520 -0.818886 -0.573956
v -0.019037 -1.436314 1.123189
vt 0.156250 0.304688
vn -0.000600 -0.818907 -0.573927
v 0.018089 -1.436330 1.123177
vt 0.164063 0.304687
vn -0.000446 -0.818863 -0.573989
v 0.018089 -1.478947 1.183981
vt 0.164062 0.289063
vn -0.000445 -0.818864 -0.573988
v 0.018049 -1.497131 1.080561
vt 0.023438 0.328125
vn -0.000461 -0.818913 -0.573918
v 0.692924 -1.594551 1.219064
vt 0.023438 0.468750
vn -0.000390 -0.818870 -0.573978
v 0.092298 -1.433238 0.989334
vt 0.046875 0.343750
vn -0.000423 -0.818882 -0.573962
v 0.721751 -1.532802 1.130969
vt 0.046875 0.468750
vn -0.000348 -0.818819 -0.574051
v -0.000514 -1.426355 0.979590
vt 0.046875 0.324219
vn -0.000533 -0.818904 -0.573930
v -0.000514 -1.497122 1.080566
vt 0.023438 0.324219
vn -0.000533 -0.818904 -0.573930
v -0.693265 -1.593468 1.218806
vt 0.046875 0.468750
vn -0.000616 -0.818942 -0.573876
v -0.093326 -1.433156 0.989390
vt 0.023438 0.343750
vn -0.000603 -0.818929 -0.573895
v -0.722090 -1.531719 1.130710
vt 0.023438 0.468750
vn -0.000598 -0.818965 -0.573844
v -0.019077 -1.497115 1.080572
vt 0.046875 0.328125
vn -0.000606 -0.818911 -0.573920
v -0.000514 -1.426355 0.979590
vt 0.023438 0.324219
vn -0.000533 -0.818904 -0.573930
v -0.000514 -1.497122 1.080566
vt 0.046875 0.324219
vn -0.000533 -0.818904 -0.573930
v -0.565967 -0.979666 1.701263
vt 0.007813 0.328125
vn 0.000654 0.818917 0.573912
v -0.018658 -0.901318 1.588847
vt 0.007813 0.445313
vn 0.000665 0.818890 0.573950
v -0.018658 -0.922625 1.619247
vt 0.000000 0.445312
vn 0.000649 0.818932 0.573890
v -0.556359 -1.000248 1.730626
vt 0.000000 0.328125
vn 0.000649 0.818932 0.573890
v -0.692717 -0.894170 1.708786
vt 0.476563 0.468750
vn 0.250100 -0.559414 0.790257
v -0.018617 -0.797891 1.570662
vt 0.335938 0.468750
vn 0.121594 -0.573399 0.810203
v -0.018657 -0.858697 1.528046
vt 0.335938 0.453125
vn 0.121594 -0.573399 0.810203
v -0.621045 -0.943991 1.650417
vt 0.460938 0.453125
vn 0.250100 -0.559414 0.790257
v -0.621499 -1.521670 1.245648
vt 0.460938 0.304688
vn 0.250177 -0.552088 0.795368
v -0.693265 -1.593468 1.218806
vt 0.476563 0.289063
vn 0.250177 -0.552088 0.795368
v -0.019077 -1.497115 1.080572
vt 0.335938 0.289063
vn 0.121675 -0.566046 0.815345
v -0.019037 -1.436314 1.123189
vt 0.335938 0.304688
vn 0.121675 -0.566046 0.815345
v -0.018657 -0.858697 1.528046
vt 0.023438 0.445313
vn 0.000597 0.818875 0.573971
v -0.565967 -0.979666 1.701263
vt 0.007813 0.328125
vn 0.000654 0.818917 0.573912
v -0.621045 -0.943991 1.650417
vt 0.023438 0.320313
vn 0.000645 0.818936 0.573885
v -0.018658 -0.901318 1.588847
vt 0.007813 0.445312
vn 0.000665 0.818890 0.573950
v -0.601828 -0.985161 1.709145
vt 0.007813 0.320313
vn 0.000662 0.818944 0.573873
v -0.019037 -1.436314 1.123189
vt 0.023438 0.445313
vn -0.000600 -0.818907 -0.573927
v -0.621499 -1.521670 1.245648
vt 0.023437 0.320313
vn -0.000637 -0.818962 -0.573847
v -0.566420 -1.557342 1.296496
vt 0.007813 0.328125
vn -0.000647 -0.818933 -0.573889
v -0.019037 -1.478931 1.183991
vt 0.007813 0.445312
vn -0.000611 -0.818898 -0.573939
v -0.602281 -1.562837 1.304379
vt 0.007813 0.320313
vn -0.000656 -0.818972 -0.573833
# Faces (1 to 170)
g decor_big_castle_3_book_0
f -168/-168/-168 -169/-169/-169 -170/-170/-170
f -167/-167/-167 -168/-168/-168 -170/-170/-170
f -167/-167/-167 -170/-170/-170 -166/-166/-166
f -170/-170/-170 -165/-165/-165 -166/-166/-166
f -165/-165/-165 -164/-164/-164 -166/-166/-166
f -164/-164/-164 -163/-163/-163 -166/-166/-166
f -163/-163/-163 -164/-164/-164 -162/-162/-162
f -161/-161/-161 -163/-163/-163 -162/-162/-162
f -158/-158/-158 -159/-159/-159 -160/-160/-160
f -157/-157/-157 -158/-158/-158 -160/-160/-160
f -154/-154/-154 -155/-155/-155 -156/-156/-156
f -153/-153/-153 -154/-154/-154 -156/-156/-156
f -154/-154/-154 -152/-152/-152 -155/-155/-155
f -152/-152/-152 -151/-151/-151 -155/-155/-155
f -151/-151/-151 -152/-152/-152 -150/-150/-150
f -152/-152/-152 -149/-149/-149 -150/-150/-150
f -150/-150/-150 -149/-149/-149 -148/-148/-148
f -147/-147/-147 -150/-150/-150 -148/-148/-148
f -146/-146/-146 -147/-147/-147 -148/-148/-148
f -145/-145/-145 -146/-146/-146 -148/-148/-148
f -146/-146/-146 -145/-145/-145 -144/-144/-144
f -143/-143/-143 -146/-146/-146 -144/-144/-144
f -143/-143/-143 -144/-144/-144 -142/-142/-142
f -141/-141/-141 -143/-143/-143 -142/-142/-142
f -138/-138/-138 -139/-139/-139 -140/-140/-140
f -137/-137/-137 -138/-138/-138 -140/-140/-140
f -134/-134/-134 -135/-135/-135 -136/-136/-136
f -133/-133/-133 -134/-134/-134 -136/-136/-136
f -130/-130/-130 -131/-131/-131 -132/-132/-132
f -129/-129/-129 -130/-130/-130 -132/-132/-132
f -126/-126/-126 -127/-127/-127 -128/-128/-128
f -125/-125/-125 -126/-126/-126 -128/-128/-128
f -122/-122/-122 -123/-123/-123 -124/-124/-124
f -121/-121/-121 -122/-122/-122 -124/-124/-124
f -121/-121/-121 -124/-124/-124 -120/-120/-120
f -124/-124/-124 -119/-119/-119 -120/-120/-120
f -118/-118/-118 -119/-119/-119 -124/-124/-124
f -115/-115/-115 -116/-116/-116 -117/-117/-117
f -114/-114/-114 -116/-116/-116 -115/-115/-115
f -117/-117/-117 -116/-116/-116 -113/-113/-113
f -112/-112/-112 -117/-117/-117 -113/-113/-113
f -109/-109/-109 -110/-110/-110 -111/-111/-111
f -109/-109/-109 -111/-111/-111 -108/-108/-108
f -109/-109/-109 -108/-108/-108 -107/-107/-107
f -108/-108/-108 -106/-106/-106 -107/-107/-107
f -103/-103/-103 -104/-104/-104 -105/-105/-105
f -102/-102/-102 -103/-103/-103 -105/-105/-105
f -99/-99/-99 -100/-100/-100 -101/-101/-101
f -98/-98/-98 -99/-99/-99 -101/-101/-101
f -95/-95/-95 -96/-96/-96 -97/-97/-97
f -94/-94/-94 -95/-95/-95 -97/-97/-97
f -91/-91/-91 -92/-92/-92 -93/-93/-93
f -90/-90/-90 -91/-91/-91 -93/-93/-93
f -87/-87/-87 -88/-88/-88 -89/-89/-89
f -86/-86/-86 -87/-87/-87 -89/-89/-89
f -83/-83/-83 -84/-84/-84 -85/-85/-85
f -80/-80/-80 -81/-81/-81 -82/-82/-82
f -77/-77/-77 -78/-78/-78 -79/-79/-79
f -76/-76/-76 -77/-77/-77 -79/-79/-79
f -73/-73/-73 -74/-74/-74 -75/-75/-75
f -72/-72/-72 -73/-73/-73 -75/-75/-75
f -69/-69/-69 -70/-70/-70 -71/-71/-71
f -68/-68/-68 -69/-69/-69 -71/-71/-71
f -69/-69/-69 -67/-67/-67 -70/-70/-70
f -67/-67/-67 -66/-66/-66 -70/-70/-70
f -63/-63/-63 -64/-64/-64 -65/-65/-65
f -62/-62/-62 -63/-63/-63 -65/-65/-65
f -59/-59/-59 -60/-60/-60 -61/-61/-61
f -58/-58/-58 -59/-59/-59 -61/-61/-61
f -60/-60/-60 -57/-57/-57 -61/-61/-61
f -57/-57/-57 -56/-56/-56 -61/-61/-61
f -53/-53/-53 -54/-54/-54 -55/-55/-55
f -52/-52/-52 -53/-53/-53 -55/-55/-55
f -49/-49/-49 -50/-50/-50 -51/-51/-51
f -46/-46/-46 -47/-47/-47 -48/-48/-48
f -43/-43/-43 -44/-44/-44 -45/-45/-45
f -44/-44/-44 -42/-42/-42 -45/-45/-45
f -41/-41/-41 -44/-44/-44 -43/-43/-43
f -38/-38/-38 -39/-39/-39 -40/-40/-40
f -37/-37/-37 -38/-38/-38 -40/-40/-40
f -38/-38/-38 -36/-36/-36 -39/-39/-39
f -36/-36/-36 -35/-35/-35 -39/-39/-39
f -32/-32/-32 -33/-33/-33 -34/-34/-34
f -32/-32/-32 -31/-31/-31 -33/-33/-33
f -30/-30/-30 -32/-32/-32 -34/-34/-34
f -29/-29/-29 -30/-30/-30 -34/-34/-34
f -26/-26/-26 -27/-27/-27 -28/-28/-28
f -28/-28/-28 -27/-27/-27 -25/-25/-25
f -25/-25/-25 -27/-27/-27 -24/-24/-24
f -23/-23/-23 -25/-25/-25 -24/-24/-24
f -20/-20/-20 -21/-21/-21 -22/-22/-22
f -19/-19/-19 -20/-20/-20 -22/-22/-22
f -16/-16/-16 -17/-17/-17 -18/-18/-18
f -15/-15/-15 -16/-16/-16 -18/-18/-18
f -15/-15/-15 -18/-18/-18 -14/-14/-14
f -18/-18/-18 -13/-13/-13 -14/-14/-14
f -13/-13/-13 -12/-12/-12 -14/-14/-14
f -12/-12/-12 -11/-11/-11 -14/-14/-14
f -8/-8/-8 -9/-9/-9 -10/-10/-10
f -9/-9/-9 -7/-7/-7 -10/-10/-10
f -6/-6/-6 -9/-9/-9 -8/-8/-8
f -3/-3/-3 -4/-4/-4 -5/-5/-5
f -2/-2/-2 -3/-3/-3 -5/-5/-5
f -1/-1/-1 -4/-4/-4 -3/-3/-3

