# Mesh "decor_big_christmas_1_present01" exported with Unity Assets Bundle Extractor; 24 vertices, 36 indices, 40 bytes per vertex
g decor_big_christmas_1_present01
# SubMesh 0
# Vertices
v 0.913248 -1.239255 0.000001
vt 0.804688 0.796875
vn -0.000000 0.000000 -1.000000
v 0.238379 -1.165477 0.000001
vt 0.804688 0.671875
vn -0.000000 0.000000 -1.000000
v 0.164600 -1.840346 0.000001
vt 0.929688 0.671875
vn -0.000000 0.000000 -1.000000
v 0.839470 -1.914125 0.000001
vt 0.929688 0.796875
vn -0.000000 0.000000 -1.000000
v 0.913248 -1.239255 0.678890
vt 0.804688 0.671875
vn -0.000000 0.000000 1.000000
v 0.839470 -1.914125 0.678890
vt 0.929688 0.671875
vn -0.000000 0.000000 1.000000
v 0.164601 -1.840346 0.678890
vt 0.929688 0.796875
vn -0.000000 0.000000 1.000000
v 0.238379 -1.165477 0.678890
vt 0.804688 0.796875
vn -0.000000 0.000000 1.000000
v 0.839470 -1.914125 0.678890
vt 0.804688 0.671875
vn -0.108675 -0.994077 0.000000
v 0.839470 -1.914125 0.000001
vt 0.804688 0.546875
vn -0.108675 -0.994077 0.000000
v 0.164600 -1.840346 0.000001
vt 0.929688 0.546875
vn -0.108675 -0.994077 0.000000
v 0.164601 -1.840346 0.678890
vt 0.929688 0.671875
vn -0.108675 -0.994077 0.000000
v 0.913248 -1.239255 0.678890
vt 0.804688 0.671875
vn 0.994077 -0.108674 0.000000
v 0.913248 -1.239255 0.000001
vt 0.804688 0.546875
vn 0.994077 -0.108674 0.000000
v 0.839470 -1.914125 0.000001
vt 0.929688 0.546875
vn 0.994077 -0.108674 0.000000
v 0.839470 -1.914125 0.678890
vt 0.929688 0.671875
vn 0.994077 -0.108674 0.000000
v 0.238379 -1.165477 0.678890
vt 0.804688 0.671875
vn 0.108674 0.994077 0.000000
v 0.238379 -1.165477 0.000001
vt 0.804688 0.546875
vn 0.108674 0.994077 0.000000
v 0.913248 -1.239255 0.000001
vt 0.929688 0.546875
vn 0.108674 0.994077 0.000000
v 0.913248 -1.239255 0.678890
vt 0.929688 0.671875
vn 0.108674 0.994077 0.000000
v 0.164601 -1.840346 0.678890
vt 0.804688 0.671875
vn -0.994077 0.108675 0.000001
v 0.164600 -1.840346 0.000001
vt 0.804688 0.546875
vn -0.994077 0.108675 0.000001
v 0.238379 -1.165477 0.000001
vt 0.929688 0.546875
vn -0.994077 0.108675 0.000001
v 0.238379 -1.165477 0.678890
vt 0.929688 0.671875
vn -0.994077 0.108675 0.000001
# Faces (1 to 24)
f -22/-22/-22 -23/-23/-23 -24/-24/-24
f -21/-21/-21 -22/-22/-22 -24/-24/-24
f -18/-18/-18 -19/-19/-19 -20/-20/-20
f -17/-17/-17 -18/-18/-18 -20/-20/-20
f -14/-14/-14 -15/-15/-15 -16/-16/-16
f -13/-13/-13 -14/-14/-14 -16/-16/-16
f -10/-10/-10 -11/-11/-11 -12/-12/-12
f -9/-9/-9 -10/-10/-10 -12/-12/-12
f -6/-6/-6 -7/-7/-7 -8/-8/-8
f -5/-5/-5 -6/-6/-6 -8/-8/-8
f -2/-2/-2 -3/-3/-3 -4/-4/-4
f -1/-1/-1 -2/-2/-2 -4/-4/-4

