# Mesh "decor_big_castle_3_stand" exported with Unity Assets Bundle Extractor; 122 vertices, 186 indices, 40 bytes per vertex
g decor_big_castle_3_stand
# SubMesh 0
# Vertices
v -1.008000 -0.811671 0.432000
vt 0.023438 0.695313
vn -1.000000 0.000000 0.000000
v -1.008000 -0.811671 -0.000000
vt 0.070313 0.695313
vn -1.000000 0.000000 0.000000
v -1.008000 -0.379671 -0.000000
vt 0.070313 0.648438
vn -1.000000 0.000000 0.000000
v -1.008000 -0.379671 0.432000
vt 0.023438 0.648438
vn -1.000000 0.000000 0.000000
v -0.576000 -0.811671 0.432000
vt 0.023438 0.523438
vn -0.000000 0.000000 1.000000
v -1.008000 -0.811671 0.432000
vt 0.070313 0.523438
vn -0.000000 0.000000 1.000000
v -1.008000 -0.379671 0.432000
vt 0.070313 0.476562
vn -0.000000 0.000000 1.000000
v -0.576000 -0.379671 0.432000
vt 0.023438 0.476562
vn -0.000000 0.000000 1.000000
v -0.576000 -0.811671 0.432000
vt 0.695313 0.679688
vn 1.000000 0.000000 0.000000
v -0.576000 -0.379671 0.432000
vt 0.742188 0.679688
vn 1.000000 0.000000 0.000000
v -0.576000 -0.379671 -0.000000
vt 0.742188 0.632813
vn 1.000000 0.000000 0.000000
v -0.576000 -0.811671 -0.000000
vt 0.695313 0.632813
vn 1.000000 0.000000 0.000000
v -1.008000 -0.811671 0.432000
vt 0.695313 0.679688
vn -0.000000 -1.000000 0.000000
v -0.576000 -0.811671 0.432000
vt 0.742188 0.679688
vn -0.000000 -1.000000 0.000000
v -0.576000 -0.811671 -0.000000
vt 0.742188 0.632813
vn -0.000000 -1.000000 0.000000
v -1.008000 -0.811671 -0.000000
vt 0.695313 0.632813
vn -0.000000 -1.000000 0.000000
v 1.008000 -0.811671 0.432000
vt 0.023438 0.695313
vn 1.000000 0.000000 0.000000
v 1.008000 -0.379671 0.432000
vt 0.070313 0.695313
vn 1.000000 0.000000 0.000000
v 1.008000 -0.379671 -0.000000
vt 0.070313 0.648438
vn 1.000000 0.000000 0.000000
v 1.008000 -0.811671 -0.000000
vt 0.023438 0.648438
vn 1.000000 0.000000 0.000000
v 0.576000 -0.811671 0.432000
vt 0.023438 0.523438
vn -0.000000 0.000000 1.000000
v 0.576000 -0.379671 0.432000
vt 0.070313 0.523438
vn -0.000000 0.000000 1.000000
v 1.008000 -0.379671 0.432000
vt 0.070313 0.476562
vn -0.000000 0.000000 1.000000
v 1.008000 -0.811671 0.432000
vt 0.023438 0.476562
vn -0.000000 0.000000 1.000000
v 0.576000 -0.811671 0.432000
vt 0.742188 0.679688
vn -1.000000 0.000000 0.000000
v 0.576000 -0.811671 -0.000000
vt 0.742188 0.632813
vn -1.000000 0.000000 0.000000
v 0.576000 -0.379671 -0.000000
vt 0.695313 0.632813
vn -1.000000 0.000000 0.000000
v 0.576000 -0.379671 0.432000
vt 0.695313 0.679688
vn -1.000000 0.000000 0.000000
v 1.008000 -0.811671 0.432000
vt 0.742188 0.679688
vn -0.000000 -1.000000 0.000000
v 1.008000 -0.811671 -0.000000
vt 0.742188 0.632813
vn -0.000000 -1.000000 0.000000
v 0.576000 -0.811671 -0.000000
vt 0.695313 0.632813
vn -0.000000 -1.000000 0.000000
v 0.576000 -0.811671 0.432000
vt 0.695313 0.679688
vn -0.000000 -1.000000 0.000000
v -1.008000 -1.963671 0.432000
vt 0.023438 0.695313
vn -1.000000 0.000000 0.000000
v -1.008000 -2.395670 0.432000
vt 0.070313 0.695313
vn -1.000000 0.000000 0.000000
v -1.008000 -2.395670 -0.000000
vt 0.070313 0.648438
vn -1.000000 0.000000 0.000000
v -1.008000 -1.963671 -0.000000
vt 0.023438 0.648438
vn -1.000000 0.000000 0.000000
v -1.008000 -2.395670 0.432000
vt 0.023438 0.648438
vn -0.000000 -1.000000 0.000000
v -0.576000 -2.395670 0.432000
vt 0.023438 0.695313
vn -0.000000 -1.000000 0.000000
v -0.576000 -2.395670 -0.000000
vt 0.070313 0.695313
vn -0.000000 -1.000000 0.000000
v -1.008000 -2.395670 -0.000000
vt 0.070313 0.648438
vn -0.000000 -1.000000 0.000000
v -0.576000 -1.963670 0.432000
vt 0.023438 0.523438
vn -0.000000 0.000000 1.000000
v -0.576000 -2.395670 0.432000
vt 0.070313 0.523438
vn -0.000000 0.000000 1.000000
v -1.008000 -2.395670 0.432000
vt 0.070313 0.476562
vn -0.000000 0.000000 1.000000
v -1.008000 -1.963671 0.432000
vt 0.023438 0.476562
vn -0.000000 0.000000 1.000000
v -0.576000 -1.963670 0.432000
vt 0.742188 0.679688
vn 1.000000 0.000000 0.000000
v -0.576000 -1.963671 -0.000000
vt 0.742188 0.632813
vn 1.000000 0.000000 0.000000
v -0.576000 -2.395670 -0.000000
vt 0.695313 0.632813
vn 1.000000 0.000000 0.000000
v -0.576000 -2.395670 0.432000
vt 0.695313 0.679688
vn 1.000000 0.000000 0.000000
v -1.008000 -1.963671 0.432000
vt 0.742188 0.679688
vn -0.000000 1.000000 0.000000
v -1.008000 -1.963671 -0.000000
vt 0.742188 0.632813
vn -0.000000 1.000000 0.000000
v -0.576000 -1.963671 -0.000000
vt 0.695313 0.632813
vn -0.000000 1.000000 0.000000
v -0.576000 -1.963670 0.432000
vt 0.695313 0.679688
vn -0.000000 1.000000 0.000000
v 1.008000 -1.963671 0.432000
vt 0.023438 0.695313
vn 1.000000 0.000000 0.000000
v 1.008000 -1.963671 -0.000000
vt 0.070313 0.695313
vn 1.000000 0.000000 0.000000
v 1.008000 -2.395670 -0.000000
vt 0.070313 0.648438
vn 1.000000 0.000000 0.000000
v 1.008000 -2.395670 0.432000
vt 0.023438 0.648438
vn 1.000000 0.000000 0.000000
v 1.008000 -2.395670 0.432000
vt 0.070313 0.695313
vn -0.000000 -1.000000 0.000000
v 1.008000 -2.395670 -0.000000
vt 0.070313 0.648438
vn -0.000000 -1.000000 0.000000
v 0.576000 -2.395670 -0.000000
vt 0.023438 0.648438
vn -0.000000 -1.000000 0.000000
v 0.576000 -2.395670 0.432000
vt 0.023438 0.695313
vn -0.000000 -1.000000 0.000000
v 0.576000 -1.963670 0.432000
vt 0.023438 0.523438
vn -0.000000 0.000000 1.000000
v 1.008000 -1.963671 0.432000
vt 0.070313 0.523438
vn -0.000000 0.000000 1.000000
v 1.008000 -2.395670 0.432000
vt 0.070313 0.476563
vn -0.000000 0.000000 1.000000
v 0.576000 -2.395670 0.432000
vt 0.023438 0.476563
vn -0.000000 0.000000 1.000000
v 0.576000 -1.963670 0.432000
vt 0.695313 0.679688
vn -1.000000 0.000000 0.000000
v 0.576000 -2.395670 0.432000
vt 0.742188 0.679688
vn -1.000000 0.000000 0.000000
v 0.576000 -2.395670 -0.000000
vt 0.742188 0.632813
vn -1.000000 0.000000 0.000000
v 0.576000 -1.963671 -0.000000
vt 0.695313 0.632813
vn -1.000000 0.000000 0.000000
v 1.008000 -1.963671 0.432000
vt 0.695313 0.679688
vn -0.000000 1.000000 0.000000
v 0.576000 -1.963670 0.432000
vt 0.742188 0.679688
vn -0.000000 1.000000 0.000000
v 0.576000 -1.963671 -0.000000
vt 0.742188 0.632813
vn -0.000000 1.000000 0.000000
v 1.008000 -1.963671 -0.000000
vt 0.695313 0.632813
vn -0.000000 1.000000 0.000000
v -0.720000 -1.387671 0.819611
vt 0.238281 0.554688
vn -1.000000 0.000000 0.000000
v -0.720000 -2.107671 0.819611
vt 0.398438 0.554688
vn -1.000000 0.000000 0.000000
v -0.720000 -2.107671 0.315611
vt 0.398438 0.460938
vn -1.000000 0.000000 0.000000
v -0.720000 -0.667671 0.315611
vt 0.078125 0.460938
vn -1.000000 0.000000 0.000000
v -0.720000 -0.667671 0.819611
vt 0.078125 0.554688
vn -1.000000 0.000000 0.000000
v 0.720000 -0.667671 0.315611
vt 0.398438 0.460938
vn 1.000000 0.000000 0.000000
v 0.720000 -2.107671 0.315611
vt 0.078125 0.460938
vn 1.000000 0.000000 0.000000
v 0.720000 -2.107671 0.819611
vt 0.078125 0.554688
vn 1.000000 0.000000 0.000000
v 0.720000 -1.387671 0.819611
vt 0.238281 0.554688
vn 1.000000 0.000000 0.000000
v 0.720000 -0.667671 0.819611
vt 0.398438 0.554688
vn 1.000000 0.000000 0.000000
v 0.720000 -2.107671 0.819611
vt 0.398438 0.554688
vn -0.000000 0.000000 1.000000
v -0.720000 -2.107671 0.819611
vt 0.078125 0.554688
vn -0.000000 0.000000 1.000000
v -0.720000 -1.387671 0.819611
vt 0.078125 0.703125
vn -0.000000 0.000000 1.000000
v 0.720000 -1.387671 0.819611
vt 0.398438 0.703125
vn -0.000000 0.000000 1.000000
v 0.936000 -0.451671 -0.000000
vt 0.062500 0.687500
vn 1.000000 0.000000 0.000000
v 0.936000 -2.323671 -0.000000
vt 0.062500 0.484375
vn 1.000000 0.000000 0.000000
v 0.936000 -2.323671 0.360000
vt 0.023438 0.484375
vn 1.000000 0.000000 0.000000
v 0.936000 -0.451671 0.360000
vt 0.023438 0.687500
vn 1.000000 0.000000 0.000000
v 0.936000 -2.323671 -0.000000
vt 0.062500 0.687500
vn -0.000000 -1.000000 0.000000
v -0.936000 -2.323671 -0.000000
vt 0.062500 0.484375
vn -0.000000 -1.000000 0.000000
v -0.936000 -2.323671 0.360000
vt 0.023438 0.484375
vn -0.000000 -1.000000 0.000000
v 0.936000 -2.323671 0.360000
vt 0.023438 0.687500
vn -0.000000 -1.000000 0.000000
v -0.936000 -0.451671 -0.000000
vt 0.062500 0.484375
vn -1.000000 0.000000 0.000000
v -0.936000 -0.451671 0.360000
vt 0.023438 0.484375
vn -1.000000 0.000000 0.000000
v -0.936000 -2.323671 0.360000
vt 0.023438 0.687500
vn -1.000000 0.000000 0.000000
v -0.936000 -2.323671 -0.000000
vt 0.062500 0.687500
vn -1.000000 0.000000 0.000000
v -0.936000 -2.323671 0.360000
vt 0.023438 0.687500
vn -0.000000 0.000000 1.000000
v -0.686000 -2.073671 0.360000
vt 0.050564 0.660373
vn -0.000000 0.000000 1.000000
v 0.686000 -2.073671 0.360000
vt 0.050564 0.511502
vn -0.000000 0.000000 1.000000
v 0.936000 -2.323671 0.360000
vt 0.023438 0.484375
vn -0.000000 0.000000 1.000000
v 0.936000 -2.323671 0.360000
vt 0.023438 0.687500
vn -0.000000 0.000000 1.000000
v 0.686000 -2.073671 0.360000
vt 0.050564 0.660373
vn -0.000000 0.000000 1.000000
v 0.686000 -0.701671 0.360000
vt 0.050564 0.511502
vn -0.000000 0.000000 1.000000
v 0.936000 -0.451671 0.360000
vt 0.023438 0.484375
vn -0.000000 0.000000 1.000000
v 0.936000 -0.451671 0.360000
vt 0.023438 0.687500
vn -0.000000 0.000000 1.000000
v 0.686000 -0.701671 0.360000
vt 0.050564 0.660373
vn -0.000000 0.000000 1.000000
v -0.686000 -0.701671 0.360000
vt 0.050564 0.511502
vn -0.000000 0.000000 1.000000
v -0.936000 -0.451671 0.360000
vt 0.023438 0.484375
vn -0.000000 0.000000 1.000000
v -0.936000 -0.451671 0.360000
vt 0.023438 0.687500
vn -0.000000 0.000000 1.000000
v -0.686000 -0.701671 0.360000
vt 0.050564 0.660373
vn -0.000000 0.000000 1.000000
v -0.686000 -2.073671 0.360000
vt 0.050564 0.511502
vn -0.000000 0.000000 1.000000
v -0.936000 -2.323671 0.360000
vt 0.023438 0.484375
vn -0.000000 0.000000 1.000000
v 0.720000 -2.107671 0.819611
vt 0.398438 0.554688
vn -0.000000 -1.000000 0.000000
v 0.720000 -2.107671 0.315611
vt 0.398438 0.460938
vn -0.000000 -1.000000 0.000000
v -0.720000 -2.107671 0.315611
vt 0.078125 0.460938
vn -0.000000 -1.000000 0.000000
v -0.720000 -2.107671 0.819611
vt 0.078125 0.554688
vn -0.000000 -1.000000 0.000000
v 0.720000 -0.667671 0.819611
vt 0.078125 0.554688
vn -0.000000 0.000000 1.000000
v 0.720000 -1.387671 0.819611
vt 0.078125 0.703125
vn -0.000000 0.000000 1.000000
v -0.720000 -1.387671 0.819611
vt 0.398438 0.703125
vn -0.000000 0.000000 1.000000
v -0.720000 -0.667671 0.819611
vt 0.398438 0.554688
vn -0.000000 0.000000 1.000000
# Faces (1 to 122)
f -120/-120/-120 -121/-121/-121 -122/-122/-122
f -119/-119/-119 -120/-120/-120 -122/-122/-122
f -116/-116/-116 -117/-117/-117 -118/-118/-118
f -115/-115/-115 -116/-116/-116 -118/-118/-118
f -112/-112/-112 -113/-113/-113 -114/-114/-114
f -111/-111/-111 -112/-112/-112 -114/-114/-114
f -108/-108/-108 -109/-109/-109 -110/-110/-110
f -107/-107/-107 -108/-108/-108 -110/-110/-110
f -104/-104/-104 -105/-105/-105 -106/-106/-106
f -103/-103/-103 -104/-104/-104 -106/-106/-106
f -100/-100/-100 -101/-101/-101 -102/-102/-102
f -99/-99/-99 -100/-100/-100 -102/-102/-102
f -96/-96/-96 -97/-97/-97 -98/-98/-98
f -95/-95/-95 -96/-96/-96 -98/-98/-98
f -92/-92/-92 -93/-93/-93 -94/-94/-94
f -91/-91/-91 -92/-92/-92 -94/-94/-94
f -88/-88/-88 -89/-89/-89 -90/-90/-90
f -87/-87/-87 -88/-88/-88 -90/-90/-90
f -84/-84/-84 -85/-85/-85 -86/-86/-86
f -83/-83/-83 -84/-84/-84 -86/-86/-86
f -80/-80/-80 -81/-81/-81 -82/-82/-82
f -79/-79/-79 -80/-80/-80 -82/-82/-82
f -76/-76/-76 -77/-77/-77 -78/-78/-78
f -75/-75/-75 -76/-76/-76 -78/-78/-78
f -72/-72/-72 -73/-73/-73 -74/-74/-74
f -71/-71/-71 -72/-72/-72 -74/-74/-74
f -68/-68/-68 -69/-69/-69 -70/-70/-70
f -67/-67/-67 -68/-68/-68 -70/-70/-70
f -64/-64/-64 -65/-65/-65 -66/-66/-66
f -63/-63/-63 -64/-64/-64 -66/-66/-66
f -60/-60/-60 -61/-61/-61 -62/-62/-62
f -59/-59/-59 -60/-60/-60 -62/-62/-62
f -56/-56/-56 -57/-57/-57 -58/-58/-58
f -55/-55/-55 -56/-56/-56 -58/-58/-58
f -52/-52/-52 -53/-53/-53 -54/-54/-54
f -51/-51/-51 -52/-52/-52 -54/-54/-54
f -48/-48/-48 -49/-49/-49 -50/-50/-50
f -47/-47/-47 -48/-48/-48 -50/-50/-50
f -47/-47/-47 -50/-50/-50 -46/-46/-46
f -43/-43/-43 -44/-44/-44 -45/-45/-45
f -42/-42/-42 -43/-43/-43 -45/-45/-45
f -42/-42/-42 -45/-45/-45 -41/-41/-41
f -38/-38/-38 -39/-39/-39 -40/-40/-40
f -37/-37/-37 -38/-38/-38 -40/-40/-40
f -34/-34/-34 -35/-35/-35 -36/-36/-36
f -33/-33/-33 -34/-34/-34 -36/-36/-36
f -30/-30/-30 -31/-31/-31 -32/-32/-32
f -29/-29/-29 -30/-30/-30 -32/-32/-32
f -26/-26/-26 -27/-27/-27 -28/-28/-28
f -25/-25/-25 -26/-26/-26 -28/-28/-28
f -22/-22/-22 -23/-23/-23 -24/-24/-24
f -21/-21/-21 -22/-22/-22 -24/-24/-24
f -18/-18/-18 -19/-19/-19 -20/-20/-20
f -17/-17/-17 -18/-18/-18 -20/-20/-20
f -14/-14/-14 -15/-15/-15 -16/-16/-16
f -13/-13/-13 -14/-14/-14 -16/-16/-16
f -10/-10/-10 -11/-11/-11 -12/-12/-12
f -9/-9/-9 -10/-10/-10 -12/-12/-12
f -6/-6/-6 -7/-7/-7 -8/-8/-8
f -5/-5/-5 -6/-6/-6 -8/-8/-8
f -2/-2/-2 -3/-3/-3 -4/-4/-4
f -1/-1/-1 -2/-2/-2 -4/-4/-4

