g decor_small_western_1_1_box
v -0.3341987 -0.3439883 0.1015736
v -0.334204 0.3672122 0.1015737
v 0.3769987 0.3672158 0.1015737
v 0.3769987 -0.3439839 0.1015736
v -0.4785952 -0.4883928 6.794929E-08
v -0.4785976 -0.488394 1
v 0.5214024 -0.4883879 1
v 0.5214048 -0.4883867 6.794929E-08
v 0.5214048 -0.4883867 6.794929E-08
v 0.5214024 -0.4883879 1
v 0.5214024 0.5116158 1
v 0.5214048 0.5116158 6.794929E-08
v 0.5214048 0.5116158 6.794929E-08
v 0.5214024 0.5116158 1
v -0.4786049 0.5116109 1
v -0.4786025 0.5116133 6.794929E-08
v -0.4786025 0.5116133 6.794929E-08
v -0.4786049 0.5116109 1
v -0.4785976 -0.488394 1
v -0.4785952 -0.4883928 6.794929E-08
v -0.4785976 -0.488394 1
v -0.3341987 -0.3439883 1
v 0.3769987 -0.3439838 1
v 0.5214024 -0.4883879 1
v 0.3769987 0.3672159 1
v 0.5214024 0.5116158 1
v -0.334204 0.3672123 1
v -0.4786049 0.5116109 1
v -0.4786049 0.5116109 1
v -0.334204 0.3672123 1
v -0.3341987 -0.3439883 1
v -0.4785976 -0.488394 1
v -0.3341987 -0.3439883 1
v -0.3341987 -0.3439883 0.1015736
v 0.3769987 -0.3439839 0.1015736
v 0.3769987 -0.3439838 1
v 0.3769987 -0.3439838 1
v 0.3769987 -0.3439839 0.1015736
v 0.3769987 0.3672158 0.1015737
v 0.3769987 0.3672159 1
v 0.3769987 0.3672159 1
v 0.3769987 0.3672158 0.1015737
v -0.334204 0.3672122 0.1015737
v -0.334204 0.3672123 1
v -0.334204 0.3672123 1
v -0.334204 0.3672122 0.1015737
v -0.3341987 -0.3439883 0.1015736
v -0.3341987 -0.3439883 1
vt 0.4062451 0.9531297
vt 0.6562548 0.95313
vt 0.6562549 0.7031201
vt 0.4062449 0.7031202
vt 0 0.6562499
vt 0 1
vt 0.34375 1
vt 0.34375 0.6562499
vt 0.34375 0.9999999
vt 0.34375 0.65625
vt 0 0.65625
vt 0 1
vt 0 0.6562499
vt 0 1
vt 0.34375 1
vt 0.34375 0.6562499
vt 0.34375 0.9999999
vt 0.34375 0.65625
vt 0 0.65625
vt 0 1
vt 0.3593751 1
vt 0.4062451 0.9531297
vt 0.4062449 0.7031202
vt 0.359375 0.6562499
vt 0.6562549 0.7031201
vt 0.703125 0.6562499
vt 0.6562548 0.95313
vt 0.703125 1
vt 0.703125 1
vt 0.6562548 0.95313
vt 0.4062451 0.9531297
vt 0.3593751 1
vt 0.6994588 0.6599173
vt 0.390625 0.6599176
vt 0.3906252 0.909927
vt 0.6994591 0.9099268
vt 0.699459 0.7031149
vt 0.3906258 0.703115
vt 0.3906258 0.953125
vt 0.6994591 0.9531249
vt 0.6994592 0.7031151
vt 0.3906271 0.7031148
vt 0.3906268 0.9531246
vt 0.6994589 0.953125
vt 0.4494493 0.6599172
vt 0.449449 0.9687498
vt 0.6994588 0.96875
vt 0.6994591 0.6599177
vn 0 -1.072749E-07 1
vn 0 -1.072749E-07 1
vn 0 -1.072749E-07 1
vn 0 -1.072749E-07 1
vn 6.103515E-06 -1 -1.220688E-06
vn 6.103515E-06 -1 -1.220688E-06
vn 6.103515E-06 -1 -1.220688E-06
vn 6.103515E-06 -1 -1.220688E-06
vn 1 0 2.441406E-06
vn 1 0 2.441406E-06
vn 1 0 2.441406E-06
vn 1 0 2.441406E-06
vn -3.662083E-06 1 1.220694E-06
vn -3.662083E-06 1 1.220694E-06
vn -3.662083E-06 1 1.220694E-06
vn -3.662083E-06 1 1.220694E-06
vn -1 -7.324179E-06 -2.44142E-06
vn -1 -7.324179E-06 -2.44142E-06
vn -1 -7.324179E-06 -2.44142E-06
vn -1 -7.324178E-06 -2.44142E-06
vn 0 0 1
vn 0 0 1
vn 0 0 1
vn 0 0 1
vn 0 0 1
vn 0 0 1
vn 0 0 1
vn 0 0 1
vn 0 0 1
vn 0 0 1
vn 0 0 1
vn 0 0 1
vn -6.24879E-06 1 0
vn -6.24879E-06 1 0
vn -6.24879E-06 1 0
vn -6.24879E-06 1 0
vn -1 0 0
vn -1 0 0
vn -1 0 0
vn -1 0 0
vn 5.015085E-06 -1 0
vn 5.015085E-06 -1 0
vn 5.015085E-06 -1 0
vn 5.015085E-06 -1 0
vn 1 7.509241E-06 0
vn 1 7.509241E-06 0
vn 1 7.509241E-06 0
vn 1 7.509241E-06 0
g decor_small_western_1_1_box_0
f 3/3/3 2/2/2 1/1/1
f 4/4/4 3/3/3 1/1/1
f 7/7/7 6/6/6 5/5/5
f 8/8/8 7/7/7 5/5/5
f 11/11/11 10/10/10 9/9/9
f 12/12/12 11/11/11 9/9/9
f 15/15/15 14/14/14 13/13/13
f 16/16/16 15/15/15 13/13/13
f 19/19/19 18/18/18 17/17/17
f 20/20/20 19/19/19 17/17/17
f 23/23/23 22/22/22 21/21/21
f 24/24/24 23/23/23 21/21/21
f 25/25/25 23/23/23 24/24/24
f 26/26/26 25/25/25 24/24/24
f 27/27/27 25/25/25 26/26/26
f 28/28/28 27/27/27 26/26/26
f 31/31/31 30/30/30 29/29/29
f 32/32/32 31/31/31 29/29/29
f 35/35/35 34/34/34 33/33/33
f 36/36/36 35/35/35 33/33/33
f 39/39/39 38/38/38 37/37/37
f 40/40/40 39/39/39 37/37/37
f 43/43/43 42/42/42 41/41/41
f 44/44/44 43/43/43 41/41/41
f 47/47/47 46/46/46 45/45/45
f 48/48/48 47/47/47 45/45/45
