g DesertArea01
v 11 -53.99999 -1.068115E-06
v 11 -51.99999 -1.068115E-06
v 13 -51.99999 -1.068115E-06
v 21 -53.99999 -1.068115E-06
v 10 -54.99999 -1.068115E-06
v -1 -55.99999 -1.068115E-06
v 7 -53.99999 -1.068115E-06
v 1 -51.99999 -1.068115E-06
v -1 -44.99999 -1.068115E-06
v 1 -47.99999 -1.068115E-06
v 3 -47.99999 -1.068115E-06
v 3 -45.99999 -1.068115E-06
v 4 -44.99999 -1.068115E-06
v 5 -45.99999 -1.068115E-06
v 7 -51.99999 -1.068115E-06
v 7 -43.99999 -1.068115E-06
v 5 -43.99999 -1.068115E-06
v 4 -34 -1.068115E-06
v 5 -34 -1.068115E-06
v 5 -31.99999 -1.068115E-06
v 7 -34 -1.068115E-06
v 3 -31.99999 -1.068115E-06
v -4.000013 -34 -1.068115E-06
v 1 -29.99999 -1.068115E-06
v 3 -29.99999 -1.068115E-06
v -4.000013 -21.99999 -1.068115E-06
v 1 -23.99999 -1.068115E-06
v 7 -23.99999 -1.068115E-06
v 6 -21.99999 -1.068115E-06
v 7 -21.99999 -1.068115E-06
v 7 -5.999995 -1.068115E-06
v 9 -5.999995 -1.068115E-06
v 9 -21.99999 -1.068115E-06
v 6 -9.999995 -1.068115E-06
v 5 -3.999995 -1.068115E-06
v 7 -3.99999 -1.068115E-06
v 3 -1.999995 -1.068115E-06
v 5 -1.999995 -1.068115E-06
v -43.00001 -9.999995 -1.068115E-06
v -52.00001 4.882812E-06 -1.068115E-06
v 3 4.882812E-06 -1.068115E-06
v -52.00001 -11.99999 -1.068115E-06
v -43.00001 -11.99999 -1.068115E-06
v 27 -53.99999 -1.068115E-06
v 27 -51.99999 -1.068115E-06
v 29 -51.99999 -1.068115E-06
v 31 -51.99999 -1.068115E-06
v 33 -53.99999 -1.068115E-06
v 33 -51.99999 -1.068115E-06
v 31 -49.99999 -1.068115E-06
v 29 -49.99999 -1.068115E-06
v 41 -55.99999 -1.068115E-06
v 27.00001 -60.49999 -1.678467E-06
v 41 -53.99999 -1.068115E-06
v 7.499989 -55.99999 -1.068115E-06
v 42.99999 -64.99999 -2.288818E-06
v 37 -66.99999 -2.288818E-06
v 30.99999 -66.99999 -2.288818E-06
v 25 -66.99999 -2.288818E-06
v 19 -68.99999 -2.288818E-06
v 17 -66.99999 -2.288818E-06
v 17 -68.99999 -2.288818E-06
v 23 -70.99999 -2.288818E-06
v 25 -70.99999 -2.288818E-06
v 19 -72.99999 -2.288818E-06
v 23 -72.99999 -2.288818E-06
v 30.99999 -68.99999 -2.288818E-06
v 37 -68.99999 -2.288818E-06
v 42.99999 -66.99999 -2.288818E-06
v 13 -66.99999 -2.288818E-06
v 7.999994 -65.99999 -2.288818E-06
v -1.00001 -64.99999 -2.288818E-06
v 7.49999 -64.99999 -2.288818E-06
v 6.999999 -68.99999 -2.288818E-06
v 6.999996 -74.99999 -2.288818E-06
v -1.000006 -84.125 -2.288818E-06
v 8.999999 -78.99998 -2.288818E-06
v 8.999999 -74.99999 -2.288818E-06
v 12.99999 -84.125 -2.288818E-06
v 13 -80.99998 -2.288818E-06
v 13 -78.99998 -2.288818E-06
v 15 -86.99998 -2.288818E-06
v 15 -80.99998 -2.288818E-06
v 13 -113 -2.288818E-06
v 15 -107 -2.288818E-06
v 15 -113 -2.288818E-06
v 17 -90.99998 -2.288818E-06
v 17 -94.99998 -2.288818E-06
v 17 -107 -2.288818E-06
v 17 -86.99998 -2.288818E-06
v 19 -94.99998 -2.288818E-06
v 19 -90.99998 -2.288818E-06
v 17 -47.99999 -1.068115E-06
v 15 -49.99999 -1.068115E-06
v 15 -47.99999 -1.068115E-06
v 17 -49.99999 -1.068115E-06
v 19 -51.99999 -1.068115E-06
v 21 -51.99999 -1.068115E-06
v 13 -49.99999 -1.068115E-06
v 19 -49.99999 -1.068115E-06
v 13 -68.99999 -2.288818E-06
v 45 22 -7.629394E-07
v 45 -55.99999 -1.068115E-06
v 45 -64.99999 -2.288818E-06
v 45 -136 -1.373291E-06
v 12.99999 -136 -1.373291E-06
v -104 22 -7.629394E-07
v -52.00001 -149.75 8.392334E-07
v 1159.939 -63.193 -4.577637E-07
v 45 22 -7.629394E-07
v 1087.187 345.683 -4.577637E-07
v 877.7079 708.5123 -4.577637E-07
v 556.7666 977.8138 -4.577637E-07
v 163.0739 1121.106 -4.577637E-07
v -104 22 -7.629394E-07
v 45 -136 -1.373291E-06
v -255.8852 1121.106 -4.577637E-07
v -649.5778 977.8138 -4.577637E-07
v -970.5188 708.5123 -4.577637E-07
v -1179.999 345.6831 -4.577637E-07
v -1252.75 -66.9109 -4.577637E-07
v -52.00001 -149.75 8.392334E-07
v -1179.999 -479.5049 -4.577637E-07
v -970.5192 -842.334 -4.577637E-07
v -649.5781 -1111.636 -4.577637E-07
v -255.8855 -1254.928 -4.577637E-07
v 12.99999 -136 -1.373291E-06
v 163.0734 -1254.928 -4.577637E-07
v 45 -136 -1.373291E-06
v 556.7661 -1111.636 -4.577637E-07
v 877.7075 -842.3348 -4.577637E-07
v 1087.187 -479.506 -4.577637E-07
vt 3.99999 -40
vt 3.999991 -38
vt 5.999991 -38
vt 13.99999 -40
vt 2.99999 -41
vt -8.00001 -42
vt -1.001358E-05 -40
vt -6.00001 -38
vt -8.000008 -31
vt -6.000009 -34
vt -4.000009 -34
vt -4.000008 -32
vt -3.000008 -31
vt -2.000008 -32
vt -9.059906E-06 -38
vt -7.152557E-06 -30
vt -2.000007 -30
vt -3.000005 -20
vt -2.000005 -20
vt -2.000004 -18
vt -5.245209E-06 -20
vt -4.000005 -18
vt -11.00002 -20
vt -6.000004 -16
vt -4.000004 -16
vt -11.00002 -8
vt -6.000003 -10
vt -2.384186E-06 -10
vt -1.000002 -8
vt -2.384186E-06 -8
vt 1.430511E-06 8
vt 2.000001 7.999996
vt 1.999998 -8.000004
vt -0.9999995 4
vt -1.999998 10
vt 2.384186E-06 10
vt -3.999997 12
vt -1.999998 12
vt -50.00001 4.000011
vt -59.00001 14.00001
vt -3.999997 14
vt -59.00001 2.000015
vt -50.00001 2.000015
vt 19.99999 -40.00001
vt 19.99999 -38.00001
vt 21.99999 -38.00001
vt 23.99999 -38.00001
vt 25.99999 -40.00001
vt 25.99999 -38.00001
vt 23.99999 -36.00001
vt 21.99999 -36.00001
vt 33.99998 -42.00001
vt 19.99999 -46.50001
vt 33.99999 -40.00001
vt 0.4999712 -42.00001
vt 35.99998 -51.00001
vt 29.99998 -53
vt 23.99998 -53
vt 17.99999 -53
vt 11.99998 -55
vt 9.999987 -53
vt 9.999985 -55
vt 15.99999 -57
vt 17.99999 -57
vt 11.99998 -59
vt 15.99999 -59
vt 23.99998 -55
vt 29.99998 -55
vt 35.99998 -53.00001
vt 5.999985 -53
vt 0.9999828 -52
vt -8.000021 -50.99999
vt 0.4999709 -51
vt -1.402944E-05 -55
vt -1.903251E-05 -60.99999
vt -8.000023 -70.125
vt 1.999983 -65
vt 1.999984 -61
vt 5.999971 -70.125
vt 5.999982 -67
vt 5.999982 -65
vt 7.999979 -73
vt 7.99998 -67
vt 5.999975 -99
vt 7.999974 -93
vt 7.999973 -99
vt 9.999981 -77
vt 9.999979 -81
vt 9.999977 -93
vt 9.999981 -73
vt 11.99998 -81
vt 11.99998 -77
vt 9.999992 -34
vt 7.999991 -36
vt 7.999992 -34
vt 9.999992 -36
vt 11.99999 -38
vt 13.99999 -38
vt 5.999991 -36
vt 11.99999 -36
vt 5.999985 -55
vt 38.00001 35.99999
vt 37.99999 -42.00001
vt 37.99998 -51.00001
vt 37.99997 -122
vt 5.99996 -122
vt -111 36.00002
vt -110.4861 -135.75
vt 1206.844 4.253621
vt 91.90565 89.44695
vt 1134.093 413.1297
vt 924.6137 775.959
vt 603.6725 1045.261
vt 209.9798 1188.553
vt -57.09435 89.44698
vt 91.90561 -68.54527
vt -208.9793 1188.553
vt -602.6719 1045.261
vt -923.6129 775.9594
vt -1133.093 413.1303
vt -1205.844 0.5363527
vt -5.094394 -82.30303
vt -1133.093 -412.0578
vt -923.6138 -774.8868
vt -602.6727 -1044.189
vt -208.9802 -1187.481
vt 59.90561 -68.55304
vt 209.9787 -1187.481
vt 91.90562 -68.55305
vt 603.6714 -1044.189
vt 924.6129 -774.8881
vt 1134.093 -412.0593
vn 0 0 1
vn 0 0 1
vn 0 0 1
vn 0 0 1
vn 0 0 1
vn 0 0 1
vn 0 0 1
vn 0 0 1
vn 0 0 1
vn 0 0 1
vn 0 0 1
vn 0 0 1
vn 0 0 1
vn 0 0 1
vn 0 0 1
vn 0 0 1
vn 0 0 1
vn 0 0 1
vn 0 0 1
vn 0 0 1
vn 0 0 1
vn 0 0 1
vn 0 0 1
vn 0 0 1
vn 0 0 1
vn 0 0 1
vn 0 0 1
vn 0 0 1
vn 0 0 1
vn 0 0 1
vn 0 0 1
vn 0 0 1
vn 0 0 1
vn 0 0 1
vn 0 0 1
vn 0 0 1
vn 0 0 1
vn 0 0 1
vn 0 0 1
vn 0 0 1
vn 0 0 1
vn 0 0 1
vn 0 0 1
vn 0 0 1
vn 0 0 1
vn 0 0 1
vn 0 0 1
vn 0 0 1
vn 0 0 1
vn 0 0 1
vn 0 0 1
vn 0 0 1
vn 0 0 1
vn 0 0 1
vn 0 0 1
vn 0 0 1
vn 0 0 1
vn 0 0 1
vn 0 0 1
vn 0 0 1
vn 0 0 1
vn 0 0 1
vn 0 0 1
vn 0 0 1
vn 0 0 1
vn 0 0 1
vn 0 0 1
vn 0 0 1
vn 0 0 1
vn 0 0 1
vn 0 0 1
vn 0 0 1
vn 0 0 1
vn 0 0 1
vn 0 0 1
vn 0 0 1
vn 0 0 1
vn 0 0 1
vn 0 0 1
vn 0 0 1
vn 0 0 1
vn 0 0 1
vn 0 0 1
vn 0 0 1
vn 0 0 1
vn 0 0 1
vn 0 0 1
vn 0 0 1
vn 0 0 1
vn 0 0 1
vn 0 0 1
vn 0 0 1
vn 0 0 1
vn 0 0 1
vn 0 0 1
vn 0 0 1
vn 0 0 1
vn 0 0 1
vn 0 0 1
vn 0 0 1
vn 0 0 1
vn 0 0 1
vn 0 0 1
vn 0 0 1
vn 0 0 1
vn 0 0 1
vn 0 0 1
vn 0 0 1
vn 0 0 1
vn 0 0 1
vn 0 0 1
vn 0 0 1
vn 0 0 1
vn 0 0 1
vn 0 0 1
vn 0 0 1
vn 0 0 1
vn 0 0 1
vn 0 0 1
vn 0 0 1
vn 0 0 1
vn 0 0 1
vn 0 0 1
vn 0 0 1
vn 0 0 1
vn 0 0 1
vn 0 0 1
vn 0 0 1
vn 0 0 1
vn 0 0 1
vn 0 0 1
vn 0 0 1
g DesertArea01_0
f 3/3/3 2/2/2 1/1/1
f 1/1/1 4/4/4 3/3/3
f 4/4/4 1/1/1 5/5/5
f 6/6/6 5/5/5 1/1/1
f 7/7/7 6/6/6 1/1/1
f 6/6/6 7/7/7 8/8/8
f 6/6/6 8/8/8 9/9/9
f 10/10/10 9/9/9 8/8/8
f 11/11/11 9/9/9 10/10/10
f 10/10/10 8/8/8 11/11/11
f 12/12/12 9/9/9 11/11/11
f 13/13/13 9/9/9 12/12/12
f 14/14/14 13/13/13 12/12/12
f 12/12/12 11/11/11 14/14/14
f 15/15/15 8/8/8 7/7/7
f 11/11/11 15/15/15 14/14/14
f 8/8/8 15/15/15 11/11/11
f 16/16/16 14/14/14 15/15/15
f 14/14/14 17/17/17 13/13/13
f 17/17/17 14/14/14 16/16/16
f 13/13/13 17/17/17 18/18/18
f 19/19/19 18/18/18 17/17/17
f 17/17/17 16/16/16 19/19/19
f 19/19/19 20/20/20 18/18/18
f 21/21/21 19/19/19 16/16/16
f 20/20/20 22/22/22 18/18/18
f 18/18/18 22/22/22 23/23/23
f 22/22/22 24/24/24 23/23/23
f 25/25/25 24/24/24 22/22/22
f 23/23/23 24/24/24 26/26/26
f 27/27/27 26/26/26 24/24/24
f 27/27/27 28/28/28 26/26/26
f 29/29/29 26/26/26 28/28/28
f 30/30/30 29/29/29 28/28/28
f 30/30/30 31/31/31 29/29/29
f 31/31/31 30/30/30 32/32/32
f 33/33/33 32/32/32 30/30/30
f 34/34/34 29/29/29 31/31/31
f 34/34/34 31/31/31 35/35/35
f 35/35/35 31/31/31 36/36/36
f 35/35/35 37/37/37 34/34/34
f 38/38/38 37/37/37 35/35/35
f 39/39/39 34/34/34 37/37/37
f 39/39/39 37/37/37 40/40/40
f 41/41/41 40/40/40 37/37/37
f 40/40/40 42/42/42 39/39/39
f 43/43/43 39/39/39 42/42/42
f 46/46/46 45/45/45 44/44/44
f 46/46/46 44/44/44 47/47/47
f 48/48/48 47/47/47 44/44/44
f 49/49/49 47/47/47 48/48/48
f 47/47/47 50/50/50 46/46/46
f 51/51/51 46/46/46 50/50/50
f 48/48/48 44/44/44 52/52/52
f 52/52/52 44/44/44 53/53/53
f 54/54/54 48/48/48 52/52/52
f 4/4/4 53/53/53 44/44/44
f 53/53/53 4/4/4 55/55/55
f 5/5/5 55/55/55 4/4/4
f 6/6/6 55/55/55 5/5/5
f 53/53/53 56/56/56 52/52/52
f 56/56/56 53/53/53 57/57/57
f 58/58/58 57/57/57 53/53/53
f 58/58/58 53/53/53 59/59/59
f 53/53/53 60/60/60 59/59/59
f 60/60/60 53/53/53 61/61/61
f 62/62/62 60/60/60 61/61/61
f 63/63/63 59/59/59 60/60/60
f 64/64/64 59/59/59 63/63/63
f 65/65/65 63/63/63 60/60/60
f 65/65/65 66/66/66 63/63/63
f 58/58/58 67/67/67 57/57/57
f 68/68/68 57/57/57 67/67/67
f 69/69/69 56/56/56 57/57/57
f 61/61/61 71/71/71 70/70/70
f 72/72/72 70/70/70 71/71/71
f 71/71/71 73/73/73 72/72/72
f 72/72/72 74/74/74 70/70/70
f 74/74/74 72/72/72 75/75/75
f 72/72/72 76/76/76 75/75/75
f 75/75/75 76/76/76 77/77/77
f 78/78/78 75/75/75 77/77/77
f 77/77/77 76/76/76 79/79/79
f 77/77/77 79/79/79 80/80/80
f 81/81/81 77/77/77 80/80/80
f 80/80/80 79/79/79 82/82/82
f 83/83/83 80/80/80 82/82/82
f 82/82/82 79/79/79 84/84/84
f 82/82/82 84/84/84 85/85/85
f 86/86/86 85/85/85 84/84/84
f 82/82/82 85/85/85 87/87/87
f 88/88/88 87/87/87 85/85/85
f 88/88/88 85/85/85 89/89/89
f 90/90/90 82/82/82 87/87/87
f 88/88/88 91/91/91 87/87/87
f 92/92/92 87/87/87 91/91/91
f 95/95/95 94/94/94 93/93/93
f 96/96/96 93/93/93 94/94/94
f 96/96/96 94/94/94 97/97/97
f 3/3/3 97/97/97 94/94/94
f 97/97/97 3/3/3 4/4/4
f 98/98/98 97/97/97 4/4/4
f 99/99/99 3/3/3 94/94/94
f 100/100/100 96/96/96 97/97/97
f 101/101/101 70/70/70 74/74/74
f 61/61/61 53/53/53 71/71/71
f 73/73/73 71/71/71 53/53/53
f 55/55/55 73/73/73 53/53/53
g DesertArea01_1
f 98/98/98 100/100/100 97/97/97
f 98/98/98 45/45/45 100/100/100
f 45/45/45 98/98/98 44/44/44
f 4/4/4 44/44/44 98/98/98
f 45/45/45 46/46/46 100/100/100
f 46/46/46 51/51/51 100/100/100
f 51/51/51 33/33/33 100/100/100
f 93/93/93 100/100/100 33/33/33
f 96/96/96 100/100/100 93/93/93
f 93/93/93 33/33/33 21/21/21
f 95/95/95 93/93/93 21/21/21
f 16/16/16 95/95/95 21/21/21
f 99/99/99 95/95/95 16/16/16
f 94/94/94 95/95/95 99/99/99
f 16/16/16 2/2/2 99/99/99
f 3/3/3 99/99/99 2/2/2
f 33/33/33 28/28/28 21/21/21
f 21/21/21 28/28/28 20/20/20
f 19/19/19 21/21/21 20/20/20
f 28/28/28 25/25/25 20/20/20
f 28/28/28 27/27/27 25/25/25
f 24/24/24 25/25/25 27/27/27
f 25/25/25 22/22/22 20/20/20
f 2/2/2 16/16/16 15/15/15
f 15/15/15 7/7/7 2/2/2
f 1/1/1 2/2/2 7/7/7
f 30/30/30 28/28/28 33/33/33
f 33/33/33 51/51/51 102/102/102
f 50/50/50 102/102/102 51/51/51
f 102/102/102 50/50/50 54/54/54
f 54/54/54 103/103/103 102/102/102
f 52/52/52 103/103/103 54/54/54
f 49/49/49 54/54/54 50/50/50
f 47/47/47 49/49/49 50/50/50
f 48/48/48 54/54/54 49/49/49
f 33/33/33 102/102/102 32/32/32
f 36/36/36 32/32/32 102/102/102
f 32/32/32 36/36/36 31/31/31
f 52/52/52 56/56/56 103/103/103
f 104/104/104 103/103/103 56/56/56
f 69/69/69 104/104/104 56/56/56
f 69/69/69 105/105/105 104/104/104
f 69/69/69 68/68/68 105/105/105
f 57/57/57 68/68/68 69/69/69
f 68/68/68 67/67/67 105/105/105
f 105/105/105 67/67/67 91/91/91
f 91/91/91 89/89/89 105/105/105
f 89/89/89 86/86/86 105/105/105
f 105/105/105 86/86/86 106/106/106
f 86/86/86 84/84/84 106/106/106
f 85/85/85 86/86/86 89/89/89
f 88/88/88 89/89/89 91/91/91
f 92/92/92 91/91/91 67/67/67
f 92/92/92 67/67/67 64/64/64
f 64/64/64 67/67/67 59/59/59
f 58/58/58 59/59/59 67/67/67
f 90/90/90 92/92/92 64/64/64
f 87/87/87 92/92/92 90/90/90
f 66/66/66 90/90/90 64/64/64
f 63/63/63 66/66/66 64/64/64
f 66/66/66 65/65/65 90/90/90
f 83/83/83 90/90/90 65/65/65
f 83/83/83 65/65/65 81/81/81
f 62/62/62 81/81/81 65/65/65
f 80/80/80 83/83/83 81/81/81
f 60/60/60 62/62/62 65/65/65
f 62/62/62 101/101/101 81/81/81
f 62/62/62 61/61/61 101/101/101
f 70/70/70 101/101/101 61/61/61
f 78/78/78 81/81/81 101/101/101
f 77/77/77 81/81/81 78/78/78
f 82/82/82 90/90/90 83/83/83
f 78/78/78 101/101/101 75/75/75
f 101/101/101 74/74/74 75/75/75
f 41/41/41 38/38/38 102/102/102
f 37/37/37 38/38/38 41/41/41
f 41/41/41 102/102/102 40/40/40
f 107/107/107 40/40/40 102/102/102
f 40/40/40 107/107/107 42/42/42
f 107/107/107 108/108/108 42/42/42
f 38/38/38 36/36/36 102/102/102
f 36/36/36 38/38/38 35/35/35
f 111/111/111 110/110/110 109/109/109
f 112/112/112 110/110/110 111/111/111
f 113/113/113 110/110/110 112/112/112
f 114/114/114 110/110/110 113/113/113
f 115/115/115 110/110/110 114/114/114
f 109/109/109 110/110/110 116/116/116
f 117/117/117 115/115/115 114/114/114
f 118/118/118 115/115/115 117/117/117
f 119/119/119 115/115/115 118/118/118
f 120/120/120 115/115/115 119/119/119
f 121/121/121 115/115/115 120/120/120
f 122/122/122 115/115/115 121/121/121
f 123/123/123 122/122/122 121/121/121
f 124/124/124 122/122/122 123/123/123
f 125/125/125 122/122/122 124/124/124
f 125/125/125 126/126/126 122/122/122
f 127/127/127 122/122/122 126/126/126
f 128/128/128 127/127/127 126/126/126
f 129/129/129 127/127/127 128/128/128
f 130/130/130 129/129/129 128/128/128
f 131/131/131 129/129/129 130/130/130
f 132/132/132 129/129/129 131/131/131
f 132/132/132 109/109/109 129/129/129
