# Mesh "Devostator_rocket_mesh" exported with Unity Assets Bundle Extractor; 134 vertices, 198 indices, 256 bits per vertex
g Devostator_rocket_mesh
# SubMesh 0
# Vertices
v 0.057308 -0.057473 0.057296
vt 0.453125 0.218750
vn -0.000000 0.000000 1.000000
v 0.057300 0.057162 0.057296
vt 0.468750 0.218750
vn -0.000000 0.000000 1.000000
v 0.076402 0.057162 0.057296
vt 0.468750 0.125000
vn -0.000000 0.000000 1.000000
v 0.076402 -0.057455 0.057296
vt 0.453125 0.125000
vn -0.000000 0.000000 1.000000
v -0.057368 0.057455 0.075876
vt 0.468750 0.015625
vn -0.000000 0.000000 1.000000
v 0.057307 0.057455 0.075876
vt 0.562500 0.015625
vn -0.000000 0.000000 1.000000
v 0.057314 -0.057400 0.075876
vt 0.562500 0.109375
vn -0.000000 0.000000 1.000000
v -0.057376 -0.057418 0.075876
vt 0.468750 0.109375
vn -0.000000 0.000000 1.000000
v 0.076402 -0.057455 -0.094456
vt 0.640669 -0.000000
vn -0.000001 0.000000 -1.000000
v 0.076402 0.057162 -0.094456
vt 0.640669 0.015623
vn -0.000001 0.000000 -1.000000
v 0.057293 0.057162 -0.094456
vt 0.734377 0.015623
vn -0.000001 0.000000 -1.000000
v 0.057309 -0.057309 -0.094456
vt 0.734377 -0.000000
vn -0.000001 0.000000 -1.000000
v 0.057293 0.057162 -0.094456
vt 0.578125 0.218750
vn 0.000001 1.000000 0.000000
v 0.076402 0.057162 -0.094456
vt 0.453125 0.218750
vn 0.000001 1.000000 0.000000
v 0.076402 0.057162 0.057296
vt 0.453125 0.234375
vn 0.000001 1.000000 0.000000
v 0.057300 0.057162 0.057296
vt 0.578125 0.234375
vn 0.000001 1.000000 0.000000
v 0.076402 -0.057455 -0.094456
vt 0.453125 0.125000
vn 1.000000 -0.000000 0.000000
v 0.076402 -0.057455 0.057296
vt 0.453125 0.218750
vn 1.000000 -0.000000 0.000000
v 0.076402 0.057162 0.057296
vt 0.578125 0.218750
vn 1.000000 -0.000000 0.000000
v 0.076402 0.057162 -0.094456
vt 0.578125 0.125000
vn 1.000000 -0.000000 0.000000
v 0.057300 0.057162 0.057296
vt 0.453125 0.218750
vn -0.000000 0.000000 1.000000
v -0.057346 0.057235 0.057296
vt 0.468750 0.218750
vn -0.000000 0.000000 1.000000
v -0.057325 0.076327 0.057296
vt 0.468750 0.125000
vn -0.000000 0.000000 1.000000
v 0.057293 0.076327 0.057296
vt 0.453125 0.125000
vn -0.000000 0.000000 1.000000
v 0.057293 0.076327 -0.094456
vt 0.453125 0.125000
vn 0.000000 1.000000 0.000000
v 0.057293 0.076327 0.057296
vt 0.453125 0.218750
vn 0.000000 1.000000 0.000000
v -0.057325 0.076327 0.057296
vt 0.578125 0.218750
vn 0.000000 1.000000 0.000000
v -0.057325 0.076327 -0.094456
vt 0.578125 0.125000
vn 0.000000 1.000000 0.000000
v 0.057293 0.057162 -0.094456
vt 0.453125 0.109375
vn 1.000000 0.000180 -0.000023
v 0.057300 0.057162 0.057296
vt 0.453125 0.125000
vn 1.000000 0.000180 -0.000023
v 0.057293 0.076327 0.057296
vt 0.578125 0.125000
vn 1.000000 0.000180 -0.000023
v 0.057293 0.076327 -0.094456
vt 0.578125 0.109375
vn 1.000000 0.000180 -0.000023
v 0.057293 0.076327 -0.094456
vt 0.625000 0.109331
vn -0.000000 -0.000001 -1.000000
v -0.057325 0.076327 -0.094456
vt 0.640669 0.109331
vn -0.000000 -0.000001 -1.000000
v -0.057309 0.057308 -0.094456
vt 0.640669 0.015623
vn -0.000000 -0.000001 -1.000000
v 0.057293 0.057162 -0.094456
vt 0.625000 0.015623
vn -0.000000 -0.000001 -1.000000
v 0.057308 -0.057473 0.057296
vt 0.437500 0.218750
vn 1.000000 0.000065 -0.000354
v 0.057314 -0.057400 0.075876
vt 0.437500 0.125000
vn 1.000000 0.000065 -0.000354
v 0.057307 0.057455 0.075876
vt 0.453125 0.125000
vn 1.000000 0.000065 -0.000354
v 0.057300 0.057162 0.057296
vt 0.453125 0.218750
vn 1.000000 0.000065 -0.000354
v -0.057309 -0.057309 -0.094456
vt 0.453125 0.015625
vn -0.000000 0.000000 -1.000000
v 0.057309 -0.057309 -0.094456
vt 0.359375 0.015625
vn -0.000000 0.000000 -1.000000
v 0.057293 0.057162 -0.094456
vt 0.359375 0.109375
vn -0.000000 0.000000 -1.000000
v -0.057309 0.057308 -0.094456
vt 0.453125 0.109375
vn -0.000000 0.000000 -1.000000
v 0.057293 0.057162 -0.094456
vt 0.625000 0.015623
vn -0.263531 -0.262759 0.928175
v 0.057293 0.076327 -0.094456
vt 0.640669 0.015623
vn -0.263531 -0.262759 0.928175
v 0.057293 0.057162 -0.094456
vt 0.640669 -0.000000
vn -0.263531 -0.262759 0.928175
v 0.057293 0.057162 -0.094456
vt 0.625000 0.015623
vn -0.263531 -0.262759 0.928175
v 0.057293 0.057162 -0.094456
vt 0.640669 -0.000000
vn -0.263531 -0.262759 0.928175
v 0.076402 0.057162 -0.094456
vt 0.625000 -0.000000
vn -0.263531 -0.262758 0.928175
v 0.057307 0.057455 0.075876
vt 0.437500 0.218750
vn 0.000319 0.999905 -0.013771
v -0.057368 0.057455 0.075876
vt 0.453125 0.218750
vn 0.000319 0.999905 -0.013771
v -0.057346 0.057235 0.057296
vt 0.453125 0.125000
vn 0.000319 0.999905 -0.013771
v 0.057300 0.057162 0.057296
vt 0.437500 0.125000
vn 0.000319 0.999905 -0.013771
v -0.057325 0.076327 0.057296
vt 0.453125 0.109375
vn -1.000000 0.000158 -0.000123
v -0.057346 0.057235 0.057296
vt 0.578125 0.109375
vn -1.000000 0.000158 -0.000123
v -0.057309 0.057308 -0.094456
vt 0.578125 0.125000
vn -1.000000 0.000158 -0.000123
v -0.057325 0.076327 -0.094456
vt 0.453125 0.125000
vn -1.000000 0.000158 -0.000123
v 0.076402 -0.057455 0.057296
vt 0.578125 0.218750
vn -0.003349 -0.999994 -0.000542
v 0.076402 -0.057455 -0.094456
vt 0.578125 0.234375
vn -0.003349 -0.999994 -0.000542
v 0.057309 -0.057309 -0.094456
vt 0.453125 0.234375
vn -0.003349 -0.999994 -0.000542
v 0.057308 -0.057473 0.057296
vt 0.453125 0.218750
vn -0.003349 -0.999994 -0.000542
v -0.057326 -0.057321 0.057296
vt 0.437500 0.218750
vn -0.000585 -1.000000 -0.000656
v 0.057314 -0.057400 0.075876
vt 0.453125 0.125000
vn -0.000585 -1.000000 -0.000656
v -0.057376 -0.057418 0.075876
vt 0.437500 0.125000
vn -0.000585 -1.000000 -0.000656
v -0.057346 0.057235 0.057296
vt 0.453125 0.218750
vn -0.000000 0.000000 1.000000
v -0.057326 -0.057321 0.057296
vt 0.468750 0.218750
vn -0.000000 0.000000 1.000000
v -0.076402 -0.057162 0.057296
vt 0.468750 0.125000
vn -0.000000 0.000000 1.000000
v -0.076402 0.057455 0.057296
vt 0.453125 0.125000
vn -0.000000 0.000000 1.000000
v -0.076402 0.057455 -0.094456
vt 0.640669 -0.000000
vn -0.000000 0.000000 -1.000000
v -0.076402 -0.057162 -0.094456
vt 0.640669 0.015623
vn -0.000000 0.000000 -1.000000
v -0.057309 -0.057309 -0.094456
vt 0.734377 0.015623
vn -0.000000 0.000000 -1.000000
v -0.057309 0.057308 -0.094456
vt 0.734377 -0.000000
vn -0.000000 0.000000 -1.000000
v -0.057293 -0.057162 -0.094456
vt 0.578125 0.218750
vn -0.004150 -0.999991 -0.000522
v -0.076402 -0.057162 -0.094456
vt 0.453125 0.218750
vn -0.004150 -0.999991 -0.000522
v -0.076402 -0.057162 0.057296
vt 0.453125 0.234375
vn -0.004150 -0.999991 -0.000522
v -0.057326 -0.057321 0.057296
vt 0.578125 0.234375
vn -0.004150 -0.999991 -0.000522
v -0.076402 0.057455 -0.094456
vt 0.453125 0.125000
vn -1.000000 0.000000 0.000000
v -0.076402 0.057455 0.057296
vt 0.453125 0.218750
vn -1.000000 0.000000 0.000000
v -0.076402 -0.057162 0.057296
vt 0.578125 0.218750
vn -1.000000 0.000000 0.000000
v -0.076402 -0.057162 -0.094456
vt 0.578125 0.125000
vn -1.000000 0.000000 0.000000
v -0.057326 -0.057321 0.057296
vt 0.453125 0.218750
vn -0.000000 0.000000 1.000000
v 0.057308 -0.057473 0.057296
vt 0.468750 0.218750
vn -0.000000 0.000000 1.000000
v 0.057325 -0.076327 0.057296
vt 0.468750 0.125000
vn -0.000000 0.000000 1.000000
v -0.057293 -0.076327 0.057296
vt 0.453125 0.125000
vn -0.000000 0.000000 1.000000
v -0.057293 -0.076327 -0.094456
vt 0.453125 0.125000
vn -0.000001 -1.000000 0.000000
v -0.057293 -0.076327 0.057296
vt 0.453125 0.218750
vn -0.000001 -1.000000 0.000000
v 0.057325 -0.076327 0.057296
vt 0.578125 0.218750
vn -0.000001 -1.000000 0.000000
v 0.057325 -0.076327 -0.094456
vt 0.578125 0.125000
vn -0.000001 -1.000000 0.000000
v -0.057293 -0.057162 -0.094456
vt 0.453125 0.109375
vn -1.000000 -0.000849 -0.000107
v -0.057326 -0.057321 0.057296
vt 0.453125 0.125000
vn -1.000000 -0.000849 -0.000107
v -0.057293 -0.076327 0.057296
vt 0.578125 0.125000
vn -1.000000 -0.000849 -0.000107
v -0.057293 -0.076327 -0.094456
vt 0.578125 0.109375
vn -1.000000 -0.000849 -0.000107
v -0.057368 0.057455 0.075876
vt 0.437500 0.218750
vn -0.999998 -0.000052 -0.001943
v -0.057376 -0.057418 0.075876
vt 0.453125 0.218750
vn -0.999998 -0.000052 -0.001943
v -0.057346 0.057235 0.057296
vt 0.437500 0.125000
vn -0.999998 -0.000052 -0.001943
v -0.057293 -0.076327 -0.094456
vt 0.625000 0.109331
vn -0.000000 0.000001 -1.000000
v 0.057325 -0.076327 -0.094456
vt 0.640669 0.109331
vn -0.000000 0.000001 -1.000000
v 0.057309 -0.057309 -0.094456
vt 0.640669 0.015623
vn -0.000000 0.000001 -1.000000
v -0.057309 -0.057309 -0.094456
vt 0.625000 0.015623
vn -0.000000 0.000001 -1.000000
v -0.057293 -0.057162 -0.094456
vt 0.625000 0.015623
vn 0.000118 0.000118 1.000000
v -0.057293 -0.076327 -0.094456
vt 0.640669 0.015623
vn 0.000118 0.000118 1.000000
v -0.057309 -0.057309 -0.094456
vt 0.640669 -0.000000
vn 0.000118 0.000118 1.000000
v -0.057293 -0.057162 -0.094456
vt 0.625000 0.015623
vn 0.000118 0.000118 1.000000
v -0.057309 -0.057309 -0.094456
vt 0.640669 -0.000000
vn 0.000118 0.000118 1.000000
v -0.076402 -0.057162 -0.094456
vt 0.625000 -0.000000
vn 0.000118 0.000118 1.000000
v 0.057325 -0.076327 0.057296
vt 0.453125 0.109375
vn 1.000000 0.000851 0.000003
v 0.057308 -0.057473 0.057296
vt 0.578125 0.109375
vn 1.000000 0.000851 0.000003
v 0.057309 -0.057309 -0.094456
vt 0.578125 0.125000
vn 1.000000 0.000851 0.000003
v 0.057325 -0.076327 -0.094456
vt 0.453125 0.125000
vn 1.000000 0.000851 0.000003
v -0.076402 0.057455 0.057296
vt 0.578125 0.218750
vn 0.009583 0.999954 0.000243
v -0.076402 0.057455 -0.094456
vt 0.578125 0.234375
vn 0.009583 0.999954 0.000243
v -0.057309 0.057308 -0.094456
vt 0.453125 0.234375
vn 0.009583 0.999954 0.000243
v -0.057346 0.057235 0.057296
vt 0.453125 0.218750
vn 0.009583 0.999954 0.000243
# Faces (1 to 114)
g Devostator_rocket_mesh_0
f -112/-112/-112 -113/-113/-113 -114/-114/-114
f -111/-111/-111 -112/-112/-112 -114/-114/-114
f -108/-108/-108 -109/-109/-109 -110/-110/-110
f -107/-107/-107 -108/-108/-108 -110/-110/-110
f -104/-104/-104 -105/-105/-105 -106/-106/-106
f -103/-103/-103 -104/-104/-104 -106/-106/-106
f -100/-100/-100 -101/-101/-101 -102/-102/-102
f -99/-99/-99 -100/-100/-100 -102/-102/-102
f -96/-96/-96 -97/-97/-97 -98/-98/-98
f -95/-95/-95 -96/-96/-96 -98/-98/-98
f -92/-92/-92 -93/-93/-93 -94/-94/-94
f -91/-91/-91 -92/-92/-92 -94/-94/-94
f -88/-88/-88 -89/-89/-89 -90/-90/-90
f -87/-87/-87 -88/-88/-88 -90/-90/-90
f -84/-84/-84 -85/-85/-85 -86/-86/-86
f -83/-83/-83 -84/-84/-84 -86/-86/-86
f -80/-80/-80 -81/-81/-81 -82/-82/-82
f -79/-79/-79 -80/-80/-80 -82/-82/-82
f -76/-76/-76 -77/-77/-77 -78/-78/-78
f -75/-75/-75 -76/-76/-76 -78/-78/-78
f -72/-72/-72 -73/-73/-73 -74/-74/-74
f -71/-71/-71 -72/-72/-72 -74/-74/-74
f -68/-68/-68 -69/-69/-69 -70/-70/-70
f -65/-65/-65 -66/-66/-66 -67/-67/-67
f -62/-62/-62 -63/-63/-63 -64/-64/-64
f -61/-61/-61 -62/-62/-62 -64/-64/-64
f -58/-58/-58 -59/-59/-59 -60/-60/-60
f -57/-57/-57 -58/-58/-58 -60/-60/-60
f -54/-54/-54 -55/-55/-55 -56/-56/-56
f -53/-53/-53 -54/-54/-54 -56/-56/-56
f -53/-53/-53 -51/-51/-51 -52/-52/-52
f -51/-51/-51 -50/-50/-50 -52/-52/-52
f -47/-47/-47 -48/-48/-48 -49/-49/-49
f -46/-46/-46 -47/-47/-47 -49/-49/-49
f -43/-43/-43 -44/-44/-44 -45/-45/-45
f -42/-42/-42 -43/-43/-43 -45/-45/-45
f -39/-39/-39 -40/-40/-40 -41/-41/-41
f -38/-38/-38 -39/-39/-39 -41/-41/-41
f -35/-35/-35 -36/-36/-36 -37/-37/-37
f -34/-34/-34 -35/-35/-35 -37/-37/-37
f -31/-31/-31 -32/-32/-32 -33/-33/-33
f -30/-30/-30 -31/-31/-31 -33/-33/-33
f -27/-27/-27 -28/-28/-28 -29/-29/-29
f -26/-26/-26 -27/-27/-27 -29/-29/-29
f -23/-23/-23 -24/-24/-24 -25/-25/-25
f -22/-22/-22 -23/-23/-23 -25/-25/-25
f -24/-24/-24 -20/-20/-20 -21/-21/-21
f -19/-19/-19 -24/-24/-24 -21/-21/-21
f -16/-16/-16 -17/-17/-17 -18/-18/-18
f -15/-15/-15 -16/-16/-16 -18/-18/-18
f -12/-12/-12 -13/-13/-13 -14/-14/-14
f -9/-9/-9 -10/-10/-10 -11/-11/-11
f -6/-6/-6 -7/-7/-7 -8/-8/-8
f -5/-5/-5 -6/-6/-6 -8/-8/-8
f -2/-2/-2 -3/-3/-3 -4/-4/-4
f -1/-1/-1 -2/-2/-2 -4/-4/-4

# SubMesh 1
# Vertices
v -0.019626 0.019588 0.094456
vt 0.500000 0.046875
vn 0.000001 0.000000 1.000000
v 0.018762 0.019588 0.094456
vt 0.531250 0.046875
vn 0.000001 0.000000 1.000000
v 0.018769 -0.019813 0.094456
vt 0.531250 0.078125
vn 0.000001 0.000000 1.000000
v -0.019635 -0.019838 0.094456
vt 0.500000 0.078125
vn 0.000001 0.000000 1.000000
v 0.018766 -0.019959 0.075876
vt 0.437500 0.187500
vn 1.000000 0.000222 -0.000285
v 0.018769 -0.019813 0.094456
vt 0.437500 0.156250
vn 1.000000 0.000222 -0.000285
v 0.018762 0.019588 0.094456
vt 0.453125 0.156250
vn 1.000000 0.000222 -0.000285
v 0.018755 0.019295 0.075876
vt 0.453125 0.187500
vn 1.000000 0.000222 -0.000285
v 0.018762 0.019588 0.094456
vt 0.437500 0.187500
vn 0.000000 0.999876 -0.015735
v -0.019626 0.019588 0.094456
vt 0.453125 0.187500
vn 0.000000 0.999876 -0.015735
v -0.019609 0.019295 0.075876
vt 0.453125 0.156250
vn 0.000000 0.999876 -0.015735
v 0.018755 0.019295 0.075876
vt 0.437500 0.156250
vn 0.000000 0.999876 -0.015735
v -0.019626 0.019588 0.094456
vt 0.437500 0.187500
vn -0.999999 -0.000025 -0.001454
v -0.019635 -0.019838 0.094456
vt 0.453125 0.187500
vn -0.999999 -0.000025 -0.001454
v -0.019598 -0.019959 0.075876
vt 0.453125 0.156250
vn -0.999999 -0.000025 -0.001454
v -0.019609 0.019295 0.075876
vt 0.437500 0.156250
vn -0.999999 -0.000025 -0.001454
v -0.019598 -0.019959 0.075876
vt 0.437500 0.187500
vn 0.000317 -0.999974 0.007213
v -0.019635 -0.019838 0.094456
vt 0.437500 0.156250
vn 0.000317 -0.999974 0.007213
v 0.018769 -0.019813 0.094456
vt 0.453125 0.156250
vn 0.000317 -0.999974 0.007213
v 0.018766 -0.019959 0.075876
vt 0.453125 0.187500
vn 0.000317 -0.999974 0.007213
# Faces (115 to 134)
g Devostator_rocket_mesh_1
f -18/-18/-18 -19/-19/-19 -20/-20/-20
f -17/-17/-17 -18/-18/-18 -20/-20/-20
f -14/-14/-14 -15/-15/-15 -16/-16/-16
f -13/-13/-13 -14/-14/-14 -16/-16/-16
f -10/-10/-10 -11/-11/-11 -12/-12/-12
f -9/-9/-9 -10/-10/-10 -12/-12/-12
f -6/-6/-6 -7/-7/-7 -8/-8/-8
f -5/-5/-5 -6/-6/-6 -8/-8/-8
f -2/-2/-2 -3/-3/-3 -4/-4/-4
f -1/-1/-1 -2/-2/-2 -4/-4/-4

