g Door
v 12.25 -5.776584 -1.528344
v 12.24999 -5.776586 1.793668
v 12.24999 -6.04478 1.525472
v 12.24999 -6.04478 -1.528344
v 12.24999 -8.312971 1.793668
v 12.24999 -8.044774 1.525472
v 12.25 -8.044775 -1.528344
v 12.24999 -8.312971 -1.528344
v 12.24999 -6.04478 -1.528344
v 12.24999 -6.04478 1.525472
v 12.54514 -6.04478 1.525473
v 12.54515 -6.04478 -1.528343
v 12.25 -5.776584 -1.528344
v 12.54515 -5.776594 -1.528343
v 12.54515 -5.776586 1.793664
v 12.24999 -5.776586 1.793668
v 12.24999 -8.312971 -1.528344
v 12.24999 -8.312971 1.793668
v 12.54514 -8.312972 1.793669
v 12.54515 -8.312971 -1.528343
v 12.25 -8.044775 -1.528344
v 12.54515 -8.044785 -1.528343
v 12.54514 -8.044775 1.525473
v 12.24999 -8.044774 1.525472
v 12.54514 -8.044775 1.525473
v 12.54514 -6.04478 1.525473
v 12.24999 -6.04478 1.525472
v 12.24999 -8.044774 1.525472
v 12.54514 -8.312972 1.793669
v 12.24999 -8.312971 1.793668
v 12.24999 -5.776586 1.793668
v 12.54515 -5.776586 1.793664
v 10.24489 -14.25692 -1.528355
v 10.24489 -14.25692 -0.5260007
v 10.15689 -14.25692 -0.5260007
v 10.15689 -14.25692 -1.528355
v 10.15689 -14.25692 -1.528355
v 10.15689 -14.25692 -0.5260007
v 10.15689 -14.45925 -0.5260007
v 10.15689 -14.45925 -1.528355
v 10.15689 -14.45925 -1.528355
v 10.15689 -14.45925 -0.5260007
v 10.24489 -14.45925 -0.5260007
v 10.24489 -14.45925 -1.528355
v 10.24489 -14.45925 -1.528355
v 10.24489 -14.45925 -0.5260007
v 10.24489 -14.25692 -0.5260007
v 10.24489 -14.25692 -1.528355
v 8.64387 -14.25692 -1.528355
v 8.64387 -14.25692 -0.5260007
v 8.55587 -14.25692 -0.5260007
v 8.55587 -14.25692 -1.528355
v 8.55587 -14.25692 -1.528355
v 8.55587 -14.25692 -0.5260007
v 8.55587 -14.45925 -0.5260007
v 8.55587 -14.45925 -1.528355
v 8.55587 -14.45925 -1.528355
v 8.55587 -14.45925 -0.5260007
v 8.64387 -14.45925 -0.5260007
v 8.64387 -14.45925 -1.528355
v 8.64387 -14.45925 -1.528355
v 8.64387 -14.45925 -0.5260007
v 8.64387 -14.25692 -0.5260007
v 8.64387 -14.25692 -1.528355
v 10.15689 -14.45925 -0.5260007
v 10.15689 -14.25692 -0.5260007
v 10.24489 -14.25692 -0.5260007
v 10.24489 -14.45925 -0.5260007
v 8.55587 -14.45925 -0.5260007
v 8.55587 -14.25692 -0.5260007
v 8.64387 -14.25692 -0.5260007
v 8.64387 -14.45925 -0.5260007
v 9.484276 -14.54625 -0.5628482
v 10.22786 -14.4253 -0.5628482
v 10.22786 -14.4253 -1.312848
v 9.484276 -14.54625 -1.312848
v 8.612531 -14.35024 -0.5628482
v 9.323044 -14.62039 -0.5628482
v 8.612531 -14.35025 -1.312848
v 9.323045 -14.62039 -1.312848
v 9.470838 -14.46363 -0.5628482
v 9.470838 -14.46363 -1.312848
v 10.21442 -14.34268 -0.5628482
v 10.21442 -14.34268 -1.312848
v 8.64228 -14.272 -0.5628482
v 8.64228 -14.272 -1.312848
v 9.352794 -14.54215 -0.5628482
v 9.352794 -14.54215 -1.312848
v 8.612531 -14.35024 -0.5628482
v 9.352794 -14.54215 -0.5628482
v 9.323044 -14.62039 -0.5628482
v 8.64228 -14.272 -0.5628482
v 9.323044 -14.62039 -0.5628482
v 9.352794 -14.54215 -0.5628482
v 9.352794 -14.54215 -1.312848
v 9.323045 -14.62039 -1.312848
v 9.484276 -14.54625 -0.5628482
v 10.21442 -14.34268 -0.5628482
v 10.22786 -14.4253 -0.5628482
v 9.470838 -14.46363 -0.5628482
v 10.22786 -14.4253 -0.5628482
v 10.21442 -14.34268 -0.5628482
v 10.22786 -14.4253 -1.312848
v 10.21442 -14.34268 -1.312848
v 8.612531 -14.35025 -1.312848
v 8.64228 -14.272 -1.312848
v 8.612531 -14.35024 -0.5628482
v 8.64228 -14.272 -0.5628482
v 9.484276 -14.54625 -1.312848
v 9.470838 -14.46363 -1.312848
v 9.484276 -14.54625 -0.5628482
v 8.612531 -14.35025 -1.312848
v 9.352794 -14.54215 -1.312848
v 8.64228 -14.272 -1.312848
v 9.323045 -14.62039 -1.312848
v 9.484276 -14.54625 -1.312848
v 10.21442 -14.34268 -1.312848
v 9.470838 -14.46363 -1.312848
v 10.22786 -14.4253 -1.312848
v 9.484276 -14.54625 -0.5628482
v 9.470838 -14.46363 -1.312848
v 9.470838 -14.46363 -0.5628482
v 12.32712 -6.044784 -1.474528
v 12.32712 -6.044784 1.525472
v 12.32712 -8.044784 1.525472
v 12.32712 -8.044784 -1.474528
vt -1.463464 1.768202
vt 1.858548 1.768202
vt 1.590352 1.500007
vt -1.463464 1.500007
vt 1.858548 -0.7681845
vt 1.590352 -0.4999884
vt -1.463464 -0.4999884
vt -1.463464 -0.7681845
vt -1.463464 0.6475735
vt 1.590352 0.6475801
vt 1.590353 0.3524266
vt -1.463463 0.3524189
vt 2.463463 0.647576
vt 2.463463 0.3524223
vt -0.8585495 0.35243
vt -0.8585485 0.6475834
vt -1.463464 0.6475735
vt 1.858548 0.6475801
vt 1.858549 0.3524264
vt -1.463463 0.3524189
vt 2.463464 0.6475672
vt 2.463463 0.3524136
vt -0.5903528 0.3524212
vt -0.5903519 0.6475748
vt 1.499988 0.3524263
vt -0.5000064 0.3524188
vt -0.5000069 0.6475736
vt 1.499987 0.64758
vt -0.7681869 0.3524292
vt -0.768186 0.6475822
vt 1.7682 0.647575
vt 1.768199 0.3524217
vt -0.338178 -5.960464E-08
vt -0.338178 1
vt -0.2501776 1
vt -0.2501776 -5.960464E-08
vt 0.4560001 -5.960464E-08
vt 0.4559994 1
vt 0.5439997 1
vt 0.5440004 -5.960464E-08
vt 1.250178 -5.960464E-08
vt 1.250178 1
vt 1.338178 1
vt 1.338178 -5.960464E-08
vt 0.4559996 -5.960464E-08
vt 0.4560003 1
vt 0.5440006 1
vt 0.5439999 -5.960464E-08
vt 1.250178 -5.960464E-08
vt 1.250178 1
vt 1.338178 1
vt 1.338178 -5.960464E-08
vt 0.4559999 -5.960464E-08
vt 0.4559991 1
vt 0.5439994 1
vt 0.5440001 -5.960464E-08
vt -0.3381782 -5.960464E-08
vt -0.3381782 1
vt -0.2501777 1
vt -0.2501777 -5.960464E-08
vt 0.4559999 -5.960464E-08
vt 0.4560006 1
vt 0.5440009 1
vt 0.5440001 -5.960464E-08
vt 1.250178 0.4560003
vt 1.250178 0.5440006
vt 1.338178 0.5440006
vt 1.338178 0.4560003
vt -0.3381782 0.4560006
vt -0.3381782 0.5440009
vt -0.2501777 0.5440009
vt -0.2501777 0.4560006
vt -8.948583 -1.000004
vt -9.731929 -1.000004
vt -9.736644 -1.750004
vt -8.930509 -1.750004
vt -8.09526 -1.000003
vt -8.860192 -1.000004
vt -8.083492 -1.750003
vt -8.851266 -1.750004
vt -8.948583 -1.000003
vt -8.93051 -1.750004
vt -9.731929 -1.000003
vt -9.736644 -1.750004
vt -8.099401 -1.000003
vt -8.111172 -1.750003
vt -8.868121 -1.000004
vt -8.877048 -1.750004
vt -8.09526 -1.000003
vt -8.868121 -1.000004
vt -8.860192 -1.000004
vt -8.099401 -1.000003
vt -8.860192 -1.000004
vt -8.868121 -1.000004
vt -8.877048 -1.750004
vt -8.851266 -1.750004
vt -8.948583 -1.000004
vt -9.731929 -1.000003
vt -9.731929 -1.000004
vt -8.948583 -1.000003
vt -9.731929 -1.000004
vt -9.731929 -1.000003
vt -9.736644 -1.750004
vt -9.736644 -1.750004
vt -8.083492 -1.750003
vt -8.111172 -1.750003
vt -8.09526 -1.000003
vt -8.099401 -1.000003
vt -8.930509 -1.750004
vt -8.93051 -1.750004
vt -8.948583 -1.000004
vt -8.09526 -1.000003
vt -8.868121 -1.000004
vt -8.099401 -1.000003
vt -8.860192 -1.000004
vt -8.948583 -1.000004
vt -9.731929 -1.000003
vt -8.948583 -1.000003
vt -9.731929 -1.000004
vt -8.948583 -1.000004
vt -8.93051 -1.750004
vt -8.948583 -1.000003
vt 0 0
vt 0 1
vt 1 1
vt 1 0
vn -1 5.125923E-06 -1.148747E-06
vn -1 3.235686E-06 5.635186E-07
vn -1 3.235692E-06 5.635122E-07
vn -1 5.125922E-06 -1.148747E-06
vn -1 1.284103E-06 0
vn -1 1.284103E-06 0
vn -1 1.222747E-06 -2.106038E-06
vn -1 1.222747E-06 -2.106038E-06
vn 0 -1 0
vn 0 -1 0
vn 0 -1 0
vn 0 -1 0
vn 1.654327E-05 1 -1.10236E-06
vn 1.654327E-05 1 -1.102359E-06
vn 1.654328E-05 1 -1.102359E-06
vn 1.654328E-05 1 -1.102359E-06
vn -2.06791E-06 -1 -1.837333E-07
vn -2.06791E-06 -1 -1.837333E-07
vn -2.06791E-06 -1 -1.837333E-07
vn -2.06791E-06 -1 -1.837333E-07
vn 1.861119E-05 1 -1.798742E-06
vn 1.861119E-05 1 -1.798742E-06
vn 1.861119E-05 1 -1.798742E-06
vn 1.861119E-05 1 -1.798742E-06
vn 2.06791E-06 0 -1
vn 2.06791E-06 0 -1
vn 2.06791E-06 0 -1
vn 2.06791E-06 0 -1
vn 6.203732E-06 9.625442E-07 1
vn 6.203732E-06 9.625442E-07 1
vn 6.203732E-06 9.625442E-07 1
vn 6.203732E-06 9.625442E-07 1
vn 0 1 -1.217836E-06
vn 0 1 -1.217836E-06
vn 0 1 -1.217836E-06
vn 0 1 -1.217836E-06
vn -1 0 0
vn -1 0 0
vn -1 0 0
vn -1 0 0
vn 0 -1 1.217836E-06
vn 0 -1 1.217836E-06
vn 0 -1 1.217836E-06
vn 0 -1 1.217836E-06
vn 1 0 0
vn 1 0 0
vn 1 0 0
vn 1 0 0
vn 0 1 -1.217836E-06
vn 0 1 -1.217836E-06
vn 0 1 -1.217836E-06
vn 0 1 -1.217836E-06
vn -1 0 0
vn -1 0 0
vn -1 0 0
vn -1 0 0
vn 0 -1 1.217836E-06
vn 0 -1 1.217836E-06
vn 0 -1 1.217836E-06
vn 0 -1 1.217836E-06
vn 1 0 0
vn 1 0 0
vn 1 0 0
vn 1 0 0
vn 0 0 1
vn 0 0 1
vn 0 0 1
vn 0 0 1
vn 0 0 1
vn 0 0 1
vn 0 0 1
vn 0 0 1
vn 0.1605422 -0.987029 8.055296E-07
vn 0.1605414 -0.9870291 0
vn 0.1605423 -0.987029 8.009634E-07
vn 0.1605431 -0.9870288 1.606493E-06
vn -0.3553888 -0.9347186 1.521353E-06
vn -0.3553886 -0.9347186 1.369632E-06
vn -0.3553886 -0.9347186 1.372204E-06
vn -0.3553885 -0.9347187 1.220483E-06
vn -0.160543 0.9870288 -1.306503E-07
vn -0.1605423 0.987029 -8.664742E-07
vn -0.1605423 0.987029 -8.706689E-07
vn -0.1605416 0.9870291 -1.606493E-06
vn 0.3553902 0.9347181 -1.521352E-06
vn 0.3553903 0.934718 -1.664724E-06
vn 0.3553903 0.934718 -1.667196E-06
vn 0.3553904 0.934718 -1.810569E-06
vn 0 0 1
vn 0 0 1
vn 0 0 1
vn 0 0 1
vn 0.9347136 -0.3554019 0
vn 0.9347132 -0.3554028 -1.822878E-07
vn 0.9347178 -0.3553909 1.231456E-06
vn 0.9347181 -0.35539 1.33911E-06
vn 0 0 1
vn 0 0 1
vn 0 0 1
vn 0 0 1
vn 0.9870285 0.1605454 0
vn 0.9870284 0.1605456 0
vn 0.9870281 0.1605476 -2.427961E-07
vn 0.9870281 0.1605478 -2.612846E-07
vn -0.9347151 0.3553979 -5.784475E-07
vn -0.9347151 0.3553979 -5.785768E-07
vn -0.9347151 0.3553979 -5.801457E-07
vn -0.9347151 0.3553979 -5.80275E-07
vn -0.9870296 -0.1605383 2.612929E-07
vn -0.9870295 -0.160539 1.859422E-07
vn -0.9870282 -0.1605471 -7.282501E-07
vn 0 0 -1
vn 0 0 -1
vn 0 0 -1
vn 0 0 -1
vn 0 0 -1
vn 0 0 -1
vn 0 0 -1
vn 0 0 -1
vn -0.9870282 -0.1605471 -7.282501E-07
vn -0.9870295 -0.160539 1.859422E-07
vn -0.9870281 -0.1605478 -8.036018E-07
vn -1 0 0
vn -1 0 0
vn -1 0 0
vn -1 0 0
g Door_0
f 3/3/3 2/2/2 1/1/1
f 4/4/4 3/3/3 1/1/1
f 2/2/2 3/3/3 5/5/5
f 3/3/3 6/6/6 5/5/5
f 5/5/5 6/6/6 7/7/7
f 8/8/8 5/5/5 7/7/7
f 11/11/11 10/10/10 9/9/9
f 12/12/12 11/11/11 9/9/9
f 15/15/15 14/14/14 13/13/13
f 16/16/16 15/15/15 13/13/13
f 19/19/19 18/18/18 17/17/17
f 20/20/20 19/19/19 17/17/17
f 23/23/23 22/22/22 21/21/21
f 24/24/24 23/23/23 21/21/21
f 27/27/27 26/26/26 25/25/25
f 28/28/28 27/27/27 25/25/25
f 31/31/31 30/30/30 29/29/29
f 32/32/32 31/31/31 29/29/29
g Door_1
f 35/35/35 34/34/34 33/33/33
f 36/36/36 35/35/35 33/33/33
f 39/39/39 38/38/38 37/37/37
f 40/40/40 39/39/39 37/37/37
f 43/43/43 42/42/42 41/41/41
f 44/44/44 43/43/43 41/41/41
f 47/47/47 46/46/46 45/45/45
f 48/48/48 47/47/47 45/45/45
f 51/51/51 50/50/50 49/49/49
f 52/52/52 51/51/51 49/49/49
f 55/55/55 54/54/54 53/53/53
f 56/56/56 55/55/55 53/53/53
f 59/59/59 58/58/58 57/57/57
f 60/60/60 59/59/59 57/57/57
f 63/63/63 62/62/62 61/61/61
f 64/64/64 63/63/63 61/61/61
f 67/67/67 66/66/66 65/65/65
f 68/68/68 67/67/67 65/65/65
f 71/71/71 70/70/70 69/69/69
f 72/72/72 71/71/71 69/69/69
g Door_2
f 75/75/75 74/74/74 73/73/73
f 76/76/76 75/75/75 73/73/73
f 79/79/79 78/78/78 77/77/77
f 80/80/80 78/78/78 79/79/79
f 83/83/83 82/82/82 81/81/81
f 84/84/84 82/82/82 83/83/83
f 87/87/87 86/86/86 85/85/85
f 88/88/88 86/86/86 87/87/87
f 91/91/91 90/90/90 89/89/89
f 92/92/92 89/89/89 90/90/90
f 95/95/95 94/94/94 93/93/93
f 96/96/96 95/95/95 93/93/93
f 99/99/99 98/98/98 97/97/97
f 100/100/100 97/97/97 98/98/98
f 103/103/103 102/102/102 101/101/101
f 104/104/104 102/102/102 103/103/103
f 107/107/107 106/106/106 105/105/105
f 108/108/108 106/106/106 107/107/107
f 111/111/111 110/110/110 109/109/109
f 114/114/114 113/113/113 112/112/112
f 115/115/115 112/112/112 113/113/113
f 118/118/118 117/117/117 116/116/116
f 119/119/119 116/116/116 117/117/117
f 122/122/122 121/121/121 120/120/120
g Door_3
f 125/125/125 124/124/124 123/123/123
f 126/126/126 125/125/125 123/123/123
