g Drowned
v -0.1241639 0.7500004 0.2500001
v 0.1425284 0.75 -0.2500003
v -0.1241639 0.7500004 -0.25
v 0.1425284 0.7500004 0.2499999
v -0.1241639 1.122998 -0.2500001
v 0.1425284 1.500159 -0.2500002
v -0.1241639 1.500159 -0.25
v 0.1425284 0.75 -0.2500003
v -0.1241639 0.7500004 -0.25
v -0.1678792 1.122998 -0.2500001
v -0.1678791 1.500159 -0.2500001
v -0.1678791 1.500159 0.2500001
v -0.1678792 1.122998 -0.2500001
v -0.1678791 1.500159 -0.2500001
v -0.1678792 1.122998 0.2500001
v -0.1241639 1.500159 0.2500002
v 0.1425284 1.500159 -0.2500002
v 0.1425284 1.500159 0.25
v -0.1241639 1.500159 -0.25
v -0.1678791 1.500159 -0.2500001
v -0.1678791 1.500159 0.2500001
v -0.1241639 1.122998 -0.2500001
v -0.1678792 1.122998 0.2500001
v -0.124164 1.122998 0.2500001
v -0.1678792 1.122998 0.2500001
v -0.1241639 1.122998 -0.2500001
v -0.1678792 1.122998 -0.2500001
v -0.124164 1.122998 0.2500001
v -0.1678791 1.500159 0.2500001
v -0.1241639 1.500159 0.2500002
v -0.1678792 1.122998 0.2500001
v 0.1425284 1.500159 0.25
v -0.1241639 0.7500004 0.2500001
v 0.1425284 0.7500004 0.2499999
v -0.1250427 0.7499993 6.847573E-06
v 0.1249574 0.7500005 -0.249829
v 0.1249573 0.7499993 6.905505E-06
v -0.1250426 0.7500012 -0.2498288
v -0.1239962 -7.514779E-07 -0.002693407
v 0.1206089 4.489965E-07 -0.2471376
v -0.123996 4.596885E-07 -0.2471376
v 0.1206087 -1.246637E-06 -0.002693327
v -0.1250427 0.7499993 6.847573E-06
v 0.1249571 0.3750001 5.013264E-06
v -0.1250429 0.3750001 4.985611E-06
v 0.1249573 0.7499993 6.905505E-06
v 0.1249573 0.7499993 6.905505E-06
v 0.1249572 0.3750001 -0.2498308
v 0.1249571 0.3750001 5.013264E-06
v 0.1249574 0.7500005 -0.249829
v 0.1249574 0.7500005 -0.249829
v -0.1250428 0.3750001 -0.2498307
v 0.1249572 0.3750001 -0.2498308
v -0.1250426 0.7500012 -0.2498288
v -0.1250427 0.7499993 6.847573E-06
v -0.1250428 0.3750001 -0.2498307
v -0.1250426 0.7500012 -0.2498288
v -0.1250429 0.3750001 4.985611E-06
v -0.1866179 4.624258E-07 -0.2471376
v -0.186618 0.1249996 -0.002692754
v -0.1866181 -7.487406E-07 -0.002693427
v -0.1866178 0.1249996 -0.247137
v -0.123996 4.596885E-07 -0.2471376
v -0.1866181 -7.487406E-07 -0.002693427
v -0.1239962 -7.514779E-07 -0.002693407
v -0.1866179 4.624258E-07 -0.2471376
v -0.1239962 -7.514779E-07 -0.002693407
v -0.186618 0.1249996 -0.002692754
v -0.1239961 0.1249996 -0.002692741
v -0.1866181 -7.487406E-07 -0.002693427
v -0.1239961 0.1249996 -0.002692741
v -0.1866178 0.1249996 -0.247137
v -0.123996 0.1249996 -0.2471368
v -0.1866178 0.1249996 -0.247137
v -0.1239961 0.1249996 -0.002692741
v -0.186618 0.1249996 -0.002692754
v -0.123996 0.1249996 -0.2471368
v -0.1866179 4.624258E-07 -0.2471376
v -0.123996 4.596885E-07 -0.2471376
v -0.1866178 0.1249996 -0.247137
v 0.1206087 -1.246637E-06 -0.002693327
v -0.1239959 0.3749999 -0.002690925
v 0.120609 0.3750001 -0.002690791
v -0.1239961 0.1249996 -0.002692741
v -0.1239962 -7.514779E-07 -0.002693407
v 0.1206087 -1.246637E-06 -0.002693327
v 0.1206092 0.3750001 -0.2471351
v 0.1206089 4.489965E-07 -0.2471376
v 0.120609 0.3750001 -0.002690791
v 0.1206089 4.489965E-07 -0.2471376
v -0.123996 0.1249996 -0.2471368
v -0.123996 4.596885E-07 -0.2471376
v -0.1239957 0.3750001 -0.247135
v 0.1206092 0.3750001 -0.2471351
v -0.123996 0.1249996 -0.2471368
v -0.1239959 0.3749999 -0.002690925
v -0.1239961 0.1249996 -0.002692741
v -0.1239957 0.3750001 -0.247135
v -0.1250427 0.7500001 0.2493527
v 0.1249573 0.7500001 7.962227E-05
v 0.1249573 0.7499999 0.2493525
v -0.1250428 0.7499998 7.967877E-05
v -0.1239957 -2.670114E-07 0.2466634
v 0.1206092 -1.565868E-07 0.002769541
v -0.1239958 -2.670114E-07 0.002769566
v 0.1206092 -1.565868E-07 0.2466631
v -0.1250427 0.7500001 0.2493527
v 0.1249573 0.3749999 0.2493527
v -0.1250428 0.3750001 0.2493529
v 0.1249573 0.7499999 0.2493525
v 0.1249573 0.7499999 0.2493525
v 0.1249573 0.3750001 7.97134E-05
v 0.1249573 0.3749999 0.2493527
v 0.1249573 0.7500001 7.962227E-05
v 0.1249573 0.7500001 7.962227E-05
v -0.1250428 0.3749999 7.97926E-05
v 0.1249573 0.3750001 7.97134E-05
v -0.1250428 0.7499998 7.967877E-05
v -0.1250427 0.7500001 0.2493527
v -0.1250428 0.3749999 7.97926E-05
v -0.1250428 0.7499998 7.967877E-05
v -0.1250428 0.3750001 0.2493529
v -0.1866177 -2.642741E-07 0.00276963
v -0.1866177 0.1249997 0.2466633
v -0.1866177 -2.642741E-07 0.2466634
v -0.1866177 0.1249996 0.002769607
v -0.1239958 -2.670114E-07 0.002769566
v -0.1866177 -2.642741E-07 0.2466634
v -0.1239957 -2.670114E-07 0.2466634
v -0.1866177 -2.642741E-07 0.00276963
v -0.1239957 -2.670114E-07 0.2466634
v -0.1866177 0.1249997 0.2466633
v -0.1239957 0.1249997 0.2466633
v -0.1866177 -2.642741E-07 0.2466634
v -0.1239957 0.1249997 0.2466633
v -0.1866177 0.1249996 0.002769607
v -0.1239958 0.1249996 0.002769551
v -0.1866177 0.1249996 0.002769607
v -0.1239957 0.1249997 0.2466633
v -0.1866177 0.1249997 0.2466633
v -0.1239958 0.1249996 0.002769551
v -0.1866177 -2.642741E-07 0.00276963
v -0.1239958 -2.670114E-07 0.002769566
v -0.1866177 0.1249996 0.002769607
v 0.1206092 -1.565868E-07 0.2466631
v -0.1239957 0.3749998 0.2466632
v 0.1206093 0.3749997 0.246663
v -0.1239957 0.1249997 0.2466633
v -0.1239957 -2.670114E-07 0.2466634
v 0.1206092 -1.565868E-07 0.2466631
v 0.1206092 0.3749997 0.002769412
v 0.1206092 -1.565868E-07 0.002769541
v 0.1206093 0.3749997 0.246663
v 0.1206092 -1.565868E-07 0.002769541
v -0.1239958 0.1249996 0.002769551
v -0.1239958 -2.670114E-07 0.002769566
v -0.1239957 0.3749998 0.002769468
v 0.1206092 0.3749997 0.002769412
v -0.1239958 0.1249996 0.002769551
v -0.1239957 0.3749998 0.2466632
v -0.1239957 0.1249997 0.2466633
v -0.1239957 0.3749998 0.002769468
v 0.2501321 1.519835 0.2491582
v 0.2501321 1.519835 -0.2491601
v -0.2501971 1.519835 0.2491584
v -0.2501973 1.519835 -0.24916
v 0.2501322 2.019835 -0.2491602
v -0.2501973 2.019835 0.2491582
v -0.2501975 2.019835 -0.2491601
v 0.2501322 2.019835 0.249158
v 0.2501322 2.019835 0.249158
v -0.2501971 1.519835 0.2491584
v -0.2501973 2.019835 0.2491582
v 0.2501321 1.519835 0.2491582
v 0.2501322 2.019835 -0.2491602
v 0.2501321 1.519835 0.2491582
v 0.2501322 2.019835 0.249158
v 0.2501321 1.519835 -0.2491601
v -0.2501975 2.019835 -0.2491601
v 0.2501321 1.519835 -0.2491601
v 0.2501322 2.019835 -0.2491602
v -0.2501973 1.519835 -0.24916
v -0.2501971 1.519835 0.2491584
v -0.2501975 2.019835 -0.2491601
v -0.2501973 2.019835 0.2491582
v -0.2501973 1.519835 -0.24916
v -0.1241639 1.122998 -0.2500001
v -0.1241639 0.7500004 0.2500001
v -0.1241639 0.7500004 -0.25
v -0.124164 1.122998 0.2500001
v 0.1425284 0.75 -0.2500003
v 0.1425284 1.500159 0.25
v 0.1425284 1.500159 -0.2500002
v 0.1425284 0.7500004 0.2499999
v 0.1249572 1.490348 0.125
v -0.1250428 1.490348 -0.1250001
v -0.1250428 1.490348 0.125
v 0.1249572 1.490348 -0.1250001
v 0.1249572 1.638541 0.1249999
v -0.1250428 1.638541 -0.1250001
v 0.1249572 1.638541 -0.1250001
v -0.1250428 1.638541 0.125
v -0.1250428 1.638541 0.125
v -0.1250428 1.490348 -0.1250001
v -0.1250428 1.638541 -0.1250001
v -0.1250428 1.490348 0.125
v 0.1249572 1.638541 0.1249999
v -0.1250428 1.490348 0.125
v -0.1250428 1.638541 0.125
v 0.1249572 1.490348 0.125
v 0.1249572 1.638541 -0.1250001
v 0.1249572 1.490348 0.125
v 0.1249572 1.638541 0.1249999
v 0.1249572 1.490348 -0.1250001
v -0.1250428 1.638541 -0.1250001
v 0.1249572 1.490348 -0.1250001
v 0.1249572 1.638541 -0.1250001
v -0.1250428 1.490348 -0.1250001
v 0.1206092 0.3749997 0.002769412
v -0.1239957 0.3749998 0.2466632
v -0.1239957 0.3749998 0.002769468
v 0.1206093 0.3749997 0.246663
v 0.1206092 0.3750001 -0.2471351
v -0.1239959 0.3749999 -0.002690925
v -0.1239957 0.3750001 -0.247135
v 0.120609 0.3750001 -0.002690791
v -0.1250428 0.3750001 -0.2498307
v 0.1249571 0.3750001 5.013264E-06
v 0.1249572 0.3750001 -0.2498308
v -0.1250429 0.3750001 4.985611E-06
v -0.1250428 0.3749999 7.97926E-05
v 0.1249573 0.3749999 0.2493527
v 0.1249573 0.3750001 7.97134E-05
v -0.1250428 0.3750001 0.2493529
vt 0.5600924 0.495384
vt 0.4397316 0.3789147
vt 0.4397316 0.495384
vt 0.5600924 0.3789147
vt 0.3101867 0.1899849
vt 0.2520431 0.3717858
vt 0.3101867 0.3717857
vt 0.2519699 0.001875041
vt 0.3101695 0.001500143
vt 0.3123496 0.1899854
vt 0.3123496 0.3718053
vt 0.4362094 0.3718051
vt 0.3137867 0.1906258
vt 0.3137867 0.3718053
vt 0.4362094 0.1906257
vt 0.4359302 0.3840292
vt 0.3144145 0.4959199
vt 0.4359302 0.4959199
vt 0.3144145 0.3840292
vt 0.3144145 0.3770155
vt 0.4359302 0.3770154
vt 0.3137867 0.1906258
vt 0.4362094 0.1906257
vt 0.4362094 0.1906257
vt 0.4362094 0.1906257
vt 0.3137867 0.1906258
vt 0.3137867 0.1906258
vt 0.4388956 0.1906092
vt 0.4376639 0.3717358
vt 0.4388956 0.3716256
vt 0.4376639 0.1905565
vt 0.4986522 0.3716254
vt 0.4390461 0.003427919
vt 0.4986522 0.003235038
vt 0.06439807 0.3773884
vt 0.1230149 0.4968598
vt 0.06439807 0.4968598
vt 0.1230149 0.3773884
vt 0.1271713 0.4959988
vt 0.1853301 0.3789685
vt 0.1853301 0.4959988
vt 0.1271713 0.3789685
vt 0.1264331 0.3712741
vt 0.1857427 0.215639
vt 0.1264331 0.2156393
vt 0.1857427 0.3712738
vt 0.1893258 0.3713499
vt 0.2481632 0.2156525
vt 0.1893258 0.2156528
vt 0.2481632 0.3713503
vt 0.001610681 0.3709106
vt 0.05988977 0.2156028
vt 0.001610713 0.2156029
vt 0.05988975 0.3709106
vt 0.06422246 0.3714561
vt 0.1232585 0.2157107
vt 0.1232585 0.3714561
vt 0.06422246 0.2157115
vt 0.1232585 0.003712624
vt 0.06428508 0.06015506
vt 0.06422246 0.003712624
vt 0.1233211 0.05607329
vt 0.1865855 0.4984805
vt 0.125 0.4794516
vt 0.125 0.4984805
vt 0.1865855 0.4794516
vt 0.1273482 0.003786383
vt 0.1331942 0.06103529
vt 0.1273482 0.06106929
vt 0.1331942 0.003711942
vt 0.06428508 0.06015506
vt 0.1233211 0.05607329
vt 0.1233211 0.05594388
vt 0.1233211 0.05607329
vt 0.06428508 0.06015506
vt 0.06428508 0.06015506
vt 0.04874855 0.0582869
vt 0.05228131 0.003712624
vt 0.04874855 0.004191397
vt 0.05228131 0.05810185
vt 0.1857427 0.003789461
vt 0.1264331 0.2156393
vt 0.1857427 0.215639
vt 0.1264331 0.06332137
vt 0.1264331 0.003789987
vt 0.1893258 0.003718575
vt 0.2481632 0.2156525
vt 0.2481632 0.00371897
vt 0.1893258 0.2156528
vt 0.001610756 0.004200424
vt 0.0598898 0.05939525
vt 0.05988981 0.004200424
vt 0.05988977 0.2156028
vt 0.001610713 0.2156029
vt 0.1233211 0.05594388
vt 0.06422246 0.2157115
vt 0.06428508 0.06015506
vt 0.1232585 0.2157107
vt 0.1228348 0.3780397
vt 0.06457817 0.4968459
vt 0.1228348 0.4968459
vt 0.06457817 0.3780397
vt 0.1849897 0.4965819
vt 0.1275117 0.3783854
vt 0.1275117 0.4965819
vt 0.1849897 0.3783854
vt 0.06007005 0.3705697
vt 0.002460881 0.2155309
vt 0.06007005 0.2155313
vt 0.00246088 0.3705694
vt 0.2480062 0.3707232
vt 0.1894827 0.215557
vt 0.2480062 0.2155566
vt 0.1894827 0.3707236
vt 0.1850525 0.3714915
vt 0.1260928 0.2156921
vt 0.1850524 0.2156921
vt 0.1260929 0.3714915
vt 0.1236397 0.3714885
vt 0.06384131 0.2157161
vt 0.06384131 0.3714885
vt 0.1236397 0.2157161
vt 0.0638413 0.003680222
vt 0.1238383 0.05768424
vt 0.1236397 0.003680222
vt 0.06390392 0.06013286
vt 0.125 0.4984805
vt 0.1865855 0.4794516
vt 0.1865855 0.4984805
vt 0.125 0.4794516
vt 0.0481153 0.004464365
vt 0.051985 0.05861819
vt 0.04814414 0.05823698
vt 0.05196915 0.003680221
vt 0.12395 0.05678927
vt 0.06390392 0.06013286
vt 0.06390392 0.06013286
vt 0.06390392 0.06013286
vt 0.12395 0.05678927
vt 0.1238383 0.05768424
vt 0.1272569 0.06063386
vt 0.1329991 0.003677592
vt 0.1272569 0.003619465
vt 0.1329991 0.0606821
vt 0.00246088 0.004493862
vt 0.06007005 0.2155313
vt 0.002460881 0.2155309
vt 0.06031772 0.06045368
vt 0.06007005 0.004494386
vt 0.2480062 0.004345284
vt 0.1894827 0.215557
vt 0.1894827 0.004345678
vt 0.2480062 0.2155566
vt 0.1850524 0.003619465
vt 0.1260928 0.06321342
vt 0.1260928 0.003619465
vt 0.1260928 0.2156921
vt 0.1850524 0.2156921
vt 0.06390392 0.06013286
vt 0.1236397 0.2157161
vt 0.12395 0.05678927
vt 0.06384131 0.2157161
vt 0.2517152 0.9957948
vt 0.3735232 0.9957948
vt 0.2517152 0.7535524
vt 0.3735232 0.7535524
vt 0.1263149 0.9967196
vt 0.2486057 0.7530095
vt 0.1263149 0.7530095
vt 0.2486057 0.9967196
vt 0.3739942 0.7469546
vt 0.2513039 0.5035843
vt 0.2513039 0.7469546
vt 0.3739942 0.5035843
vt 0.4969862 0.745851
vt 0.377808 0.5040857
vt 0.3778077 0.745851
vt 0.4969862 0.5040857
vt 0.1239769 0.7465922
vt 0.001252105 0.503513
vt 0.001252105 0.7465922
vt 0.1239769 0.503513
vt 0.2483029 0.5049343
vt 0.1266034 0.7452473
vt 0.2483029 0.7452473
vt 0.1266034 0.5049343
vt 0.3127593 0.1873249
vt 0.4376588 0.0004968483
vt 0.3127593 0.0004968483
vt 0.4376588 0.1873249
vt 0.6232423 0.001195179
vt 0.5019852 0.373569
vt 0.6232423 0.373569
vt 0.5019852 0.001195142
vt 0.2534833 0.9008456
vt 0.3735024 0.8151176
vt 0.2534833 0.8151176
vt 0.3735024 0.9008456
vt 0.3735024 0.9008456
vt 0.2534833 0.8151176
vt 0.2534833 0.9008456
vt 0.3735024 0.8151176
vt 0.3735024 0.8288341
vt 0.2534833 0.8151176
vt 0.2534833 0.8288341
vt 0.3735024 0.8151176
vt 0.3392112 0.8288341
vt 0.2534833 0.8151176
vt 0.2534833 0.8288341
vt 0.3392112 0.8151176
vt 0.3735024 0.8288341
vt 0.2534833 0.8151176
vt 0.2534833 0.8288341
vt 0.3735024 0.8151176
vt 0.3392112 0.8288341
vt 0.2534833 0.8151176
vt 0.2534833 0.8288341
vt 0.3392112 0.8151176
vt 0.1261245 0.4992332
vt 0.186335 0.3768692
vt 0.1261245 0.3768692
vt 0.186335 0.4992333
vt 0.1256236 0.4991384
vt 0.1859699 0.3767743
vt 0.1256236 0.3767744
vt 0.1859699 0.4991384
vt 0.1856916 0.3775407
vt 0.1262207 0.4988653
vt 0.1856916 0.4988653
vt 0.1262207 0.3775407
vt 0.1848457 0.3780654
vt 0.1255088 0.4993901
vt 0.1848458 0.49939
vt 0.1255088 0.3780654
vn -1.406143E-06 -1 0
vn -1.406143E-06 -1 0
vn -1.406143E-06 -1 0
vn 0 -1 7.266996E-07
vn -8.952308E-07 1.605634E-07 -1
vn -8.952309E-07 1.605634E-07 -1
vn -8.952309E-07 1.605634E-07 -1
vn -7.537836E-07 0 -1
vn -1.008767E-06 -1.217668E-07 -1
vn 1.341581E-06 1.605632E-07 -1
vn 2.380551E-06 0 -1
vn -1 1.239931E-07 0
vn -1 1.239931E-07 0
vn -1 1.239931E-07 0
vn -1 2.444157E-07 -1.379635E-07
vn 0 1 0
vn 0 1 0
vn 0 1 0
vn 4.978554E-07 1 2.422332E-07
vn -3.073198E-06 1 2.422333E-07
vn 0 1 0
vn 1.34158E-06 -1 2.422333E-07
vn 1.34158E-06 -1 2.422333E-07
vn 1.34158E-06 -1 2.422333E-07
vn 0 -1 1.211166E-07
vn 0 -1 1.211166E-07
vn 0 -1 1.211166E-07
vn -3.073195E-06 -2.007036E-07 1
vn -3.073195E-06 -2.007036E-07 1
vn -3.073195E-06 -2.007036E-07 1
vn -1.34158E-06 0 1
vn 7.816949E-07 -2.007044E-07 1
vn 3.830516E-07 0 1
vn 7.24927E-07 0 1
vn 0 1 4.847848E-06
vn 0 1 4.847848E-06
vn 0 1 4.847849E-06
vn 2.950517E-06 1 7.756566E-06
vn 0 -1 -4.954779E-06
vn 0 -1 -4.954778E-06
vn 0 -1 -4.954778E-06
vn -2.024318E-06 -1 -6.936687E-06
vn -1.10612E-07 -4.965242E-06 1
vn -1.10612E-07 -4.965242E-06 1
vn -1.10612E-07 -4.965242E-06 1
vn -2.317287E-07 -5.045986E-06 1
vn 1 -5.281814E-07 4.107744E-07
vn 1 -5.281814E-07 4.107744E-07
vn 1 -5.281814E-07 4.107744E-07
vn 1 -6.694834E-07 6.228645E-07
vn -5.281778E-07 4.885034E-06 -1
vn -5.281778E-07 4.885033E-06 -1
vn -5.281778E-07 4.885033E-06 -1
vn -7.703964E-07 5.046513E-06 -1
vn -1 5.88737E-07 -3.804715E-07
vn -1 5.887369E-07 -3.804715E-07
vn -1 5.887369E-07 -3.804715E-07
vn -1 6.492985E-07 -4.713729E-07
vn -1 8.915296E-07 -6.995008E-07
vn -1 8.915294E-07 -6.995008E-07
vn -1 8.915295E-07 -6.995009E-07
vn -1 1.012656E-06 -7.614397E-07
vn 0 -1 -4.954779E-06
vn 0 -1 -4.954778E-06
vn 0 -1 -4.954778E-06
vn 0 -1 -4.954777E-06
vn -1.980507E-07 -5.329117E-06 1
vn -1.980507E-07 -5.329117E-06 1
vn -1.980507E-07 -5.329117E-06 1
vn -3.189311E-07 -5.389675E-06 1
vn 0 1 0
vn 0 1 0
vn 0 1 0
vn 0 1 0
vn 0 1 0
vn 0 1 0
vn 1.165097E-06 6.17699E-06 -1
vn 1.165097E-06 6.17699E-06 -1
vn 1.165097E-06 6.17699E-06 -1
vn 2.615672E-06 5.450283E-06 -1
vn -5.442753E-07 -6.762321E-06 1
vn -5.442753E-07 -6.76232E-06 1
vn -5.442753E-07 -6.76232E-06 1
vn -1.317978E-06 -7.266991E-06 1
vn -3.276635E-07 -5.329116E-06 1
vn 1 -8.511615E-07 6.994992E-07
vn 1 -8.511615E-07 6.994992E-07
vn 1 -8.511615E-07 6.994992E-07
vn 1 -7.704145E-07 8.233742E-07
vn -3.531813E-07 6.176991E-06 -1
vn -3.531812E-07 6.17699E-06 -1
vn -3.531813E-07 6.17699E-06 -1
vn 2.038325E-07 7.266985E-06 -1
vn -5.388632E-07 6.782538E-06 -1
vn -1 1.042927E-06 -6.066034E-07
vn -1 1.042927E-06 -6.066034E-07
vn -1 1.042927E-06 -6.066034E-07
vn -1 1.073206E-06 -6.375698E-07
vn 1.012645E-06 1 9.717594E-07
vn 1.012645E-06 1 9.717594E-07
vn 1.012645E-06 1 9.717594E-07
vn -1.409688E-06 1 -1.457638E-06
vn 4.514407E-07 -1 0
vn 4.514408E-07 -1 0
vn 4.514408E-07 -1 0
vn 4.514407E-07 -1 0
vn 7.704115E-07 4.440943E-07 1
vn 7.704114E-07 4.440942E-07 1
vn 7.704115E-07 4.440943E-07 1
vn 7.704117E-07 4.440944E-07 1
vn 1 0 -1.955488E-07
vn 1 0 -1.955488E-07
vn 1 0 -1.955487E-07
vn 1 0 -1.044464E-07
vn -3.16815E-07 -2.430021E-07 -1
vn -3.16815E-07 -2.430021E-07 -1
vn -3.16815E-07 -2.430021E-07 -1
vn -2.260069E-07 -3.035408E-07 -1
vn -1 1.042698E-07 1.955487E-07
vn -1 1.042698E-07 1.955487E-07
vn -1 1.042698E-07 1.955487E-07
vn -1 1.244559E-07 1.651812E-07
vn -1 2.859448E-07 1.678604E-07
vn -1 2.859448E-07 1.678604E-07
vn -1 2.859448E-07 1.678604E-07
vn -1 2.859449E-07 1.678603E-07
vn 0 -1 0
vn 0 -1 0
vn 0 -1 0
vn 0 -1 0
vn 0 6.055832E-07 1
vn 0 6.055832E-07 1
vn 0 6.055832E-07 1
vn 0 6.055832E-07 1
vn 0 1 -4.96596E-07
vn 0 1 -4.965959E-07
vn 0 1 -4.965959E-07
vn 0 1 -4.96596E-07
vn 0 1 -4.96596E-07
vn 0 1 -4.965961E-07
vn -1.010757E-06 -1.21117E-07 -1
vn -1.010757E-06 -1.21117E-07 -1
vn -1.010757E-06 -1.21117E-07 -1
vn -8.898777E-07 -1.816749E-07 -1
vn 7.864396E-07 3.229777E-07 1
vn 7.864395E-07 3.229777E-07 1
vn 7.864395E-07 3.229777E-07 1
vn 9.411745E-07 4.239082E-07 1
vn 1.034015E-06 6.055831E-07 1
vn 1 0 -1.05786E-07
vn 1 0 -1.05786E-07
vn 1 0 -1.05786E-07
vn 1 -1.244559E-07 -1.678605E-07
vn -1.056054E-07 -1.211168E-07 -1
vn -1.056054E-07 -1.211168E-07 -1
vn -1.056054E-07 -1.211168E-07 -1
vn -2.139196E-07 -3.330706E-07 -1
vn -2.293935E-07 -3.431639E-07 -1
vn -1 0 2.609722E-07
vn -1 0 2.609722E-07
vn -1 0 2.609722E-07
vn -1 2.253863E-07 0
vn 0 -1 0
vn 0 -1 0
vn 0 -1 0
vn 0 -1 0
vn -1.378439E-07 1 -1.82288E-07
vn -1.378439E-07 1 -1.82288E-07
vn -1.378439E-07 1 -1.82288E-07
vn 1.042299E-07 1 0
vn 3.76563E-07 4.844665E-07 1
vn 3.76563E-07 4.844665E-07 1
vn 3.765629E-07 4.844665E-07 1
vn 4.068224E-07 4.541871E-07 1
vn 1 -2.556654E-07 0
vn 1 -2.556654E-07 0
vn 1 -2.556654E-07 0
vn 1 0 1.385766E-07
vn -1.950075E-07 -3.027914E-07 -1
vn -1.950074E-07 -3.027914E-07 -1
vn -1.950075E-07 -3.027914E-07 -1
vn -2.252668E-07 -3.330707E-07 -1
vn -1 -4.71034E-07 2.867623E-07
vn -1 -4.71034E-07 2.867623E-07
vn -1 -4.71034E-07 2.867623E-07
vn -1 -4.104757E-07 3.475249E-07
vn -1 0 0
vn -1 0 0
vn -1 0 0
vn -1 -1.795279E-07 -1.076843E-07
vn 1 0 0
vn 1 0 0
vn 1 0 0
vn 1 0 -1.042698E-07
vn 0 -1 2.119541E-07
vn 0 -1 2.119541E-07
vn 0 -1 2.119541E-07
vn 0 -1 2.11954E-07
vn 1.951072E-07 1 -2.422332E-07
vn 1.951072E-07 1 -2.422332E-07
vn 1.951072E-07 1 -2.422332E-07
vn 0 1 0
vn -1 0 1.951072E-07
vn -1 0 1.951072E-07
vn -1 0 1.951072E-07
vn -1 1.969531E-07 0
vn 1.345489E-07 1.021611E-07 1
vn 1.345489E-07 1.021611E-07 1
vn 1.345489E-07 1.021611E-07 1
vn 0 2.043223E-07 1
vn 1 -2.480338E-07 -1.64828E-07
vn 1 -2.480338E-07 -1.64828E-07
vn 1 -2.480338E-07 -1.64828E-07
vn 1 1.095303E-07 0
vn -1.648281E-07 0 -1
vn -1.648281E-07 0 -1
vn -1.648281E-07 0 -1
vn -1.648281E-07 0 -1
vn 0 1 0
vn 0 1 0
vn 0 1 0
vn 0 1 0
vn 0 1 9.90956E-07
vn 0 1 9.90956E-07
vn 0 1 9.90956E-07
vn -9.465932E-07 1 0
vn 0 -1 0
vn 0 -1 0
vn 0 -1 0
vn 0 -1 0
vn 9.252211E-07 -1 -9.717592E-07
vn 9.252211E-07 -1 -9.717592E-07
vn 9.252211E-07 -1 -9.717592E-07
vn -1.012643E-06 -1 9.717587E-07
g Drowned_0
f 3/3/3 2/2/2 1/1/1
f 4/4/4 1/1/1 2/2/2
f 7/7/7 6/6/6 5/5/5
f 6/6/6 8/8/8 5/5/5
f 8/8/8 9/9/9 5/5/5
f 5/5/5 10/10/10 7/7/7
f 11/11/11 7/7/7 10/10/10
f 14/14/14 13/13/13 12/12/12
f 15/15/15 12/12/12 13/13/13
f 18/18/18 17/17/17 16/16/16
f 17/17/17 19/19/19 16/16/16
f 19/19/19 20/20/20 16/16/16
f 20/20/20 21/21/21 16/16/16
f 24/24/24 23/23/23 22/22/22
f 27/27/27 26/26/26 25/25/25
f 30/30/30 29/29/29 28/28/28
f 31/31/31 28/28/28 29/29/29
f 30/30/30 28/28/28 32/32/32
f 28/28/28 33/33/33 32/32/32
f 33/33/33 34/34/34 32/32/32
f 37/37/37 36/36/36 35/35/35
f 38/38/38 35/35/35 36/36/36
f 41/41/41 40/40/40 39/39/39
f 42/42/42 39/39/39 40/40/40
f 45/45/45 44/44/44 43/43/43
f 46/46/46 43/43/43 44/44/44
f 49/49/49 48/48/48 47/47/47
f 50/50/50 47/47/47 48/48/48
f 53/53/53 52/52/52 51/51/51
f 54/54/54 51/51/51 52/52/52
f 57/57/57 56/56/56 55/55/55
f 58/58/58 55/55/55 56/56/56
f 61/61/61 60/60/60 59/59/59
f 62/62/62 59/59/59 60/60/60
f 65/65/65 64/64/64 63/63/63
f 66/66/66 63/63/63 64/64/64
f 69/69/69 68/68/68 67/67/67
f 70/70/70 67/67/67 68/68/68
f 73/73/73 72/72/72 71/71/71
f 76/76/76 75/75/75 74/74/74
f 79/79/79 78/78/78 77/77/77
f 80/80/80 77/77/77 78/78/78
f 83/83/83 82/82/82 81/81/81
f 82/82/82 84/84/84 81/81/81
f 84/84/84 85/85/85 81/81/81
f 88/88/88 87/87/87 86/86/86
f 89/89/89 86/86/86 87/87/87
f 92/92/92 91/91/91 90/90/90
f 91/91/91 93/93/93 90/90/90
f 93/93/93 94/94/94 90/90/90
f 97/97/97 96/96/96 95/95/95
f 98/98/98 95/95/95 96/96/96
f 101/101/101 100/100/100 99/99/99
f 102/102/102 99/99/99 100/100/100
f 105/105/105 104/104/104 103/103/103
f 106/106/106 103/103/103 104/104/104
f 109/109/109 108/108/108 107/107/107
f 110/110/110 107/107/107 108/108/108
f 113/113/113 112/112/112 111/111/111
f 114/114/114 111/111/111 112/112/112
f 117/117/117 116/116/116 115/115/115
f 118/118/118 115/115/115 116/116/116
f 121/121/121 120/120/120 119/119/119
f 122/122/122 119/119/119 120/120/120
f 125/125/125 124/124/124 123/123/123
f 126/126/126 123/123/123 124/124/124
f 129/129/129 128/128/128 127/127/127
f 130/130/130 127/127/127 128/128/128
f 133/133/133 132/132/132 131/131/131
f 134/134/134 131/131/131 132/132/132
f 137/137/137 136/136/136 135/135/135
f 140/140/140 139/139/139 138/138/138
f 143/143/143 142/142/142 141/141/141
f 144/144/144 141/141/141 142/142/142
f 147/147/147 146/146/146 145/145/145
f 146/146/146 148/148/148 145/145/145
f 148/148/148 149/149/149 145/145/145
f 152/152/152 151/151/151 150/150/150
f 153/153/153 150/150/150 151/151/151
f 156/156/156 155/155/155 154/154/154
f 155/155/155 157/157/157 154/154/154
f 157/157/157 158/158/158 154/154/154
f 161/161/161 160/160/160 159/159/159
f 162/162/162 159/159/159 160/160/160
f 165/165/165 164/164/164 163/163/163
f 165/165/165 166/166/166 164/164/164
f 169/169/169 168/168/168 167/167/167
f 170/170/170 167/167/167 168/168/168
f 173/173/173 172/172/172 171/171/171
f 174/174/174 171/171/171 172/172/172
f 177/177/177 176/176/176 175/175/175
f 178/178/178 175/175/175 176/176/176
f 181/181/181 180/180/180 179/179/179
f 182/182/182 179/179/179 180/180/180
f 185/185/185 184/184/184 183/183/183
f 186/186/186 183/183/183 184/184/184
f 189/189/189 188/188/188 187/187/187
f 190/190/190 187/187/187 188/188/188
f 193/193/193 192/192/192 191/191/191
f 194/194/194 191/191/191 192/192/192
f 197/197/197 196/196/196 195/195/195
f 198/198/198 195/195/195 196/196/196
f 201/201/201 200/200/200 199/199/199
f 202/202/202 199/199/199 200/200/200
f 205/205/205 204/204/204 203/203/203
f 206/206/206 203/203/203 204/204/204
f 209/209/209 208/208/208 207/207/207
f 210/210/210 207/207/207 208/208/208
f 213/213/213 212/212/212 211/211/211
f 214/214/214 211/211/211 212/212/212
f 217/217/217 216/216/216 215/215/215
f 218/218/218 215/215/215 216/216/216
f 221/221/221 220/220/220 219/219/219
f 222/222/222 219/219/219 220/220/220
f 225/225/225 224/224/224 223/223/223
f 226/226/226 223/223/223 224/224/224
f 229/229/229 228/228/228 227/227/227
f 230/230/230 227/227/227 228/228/228
f 233/233/233 232/232/232 231/231/231
f 234/234/234 231/231/231 232/232/232
