g DuelArenaSpace_Flor_1
v -4.5 -4.500001 -2.441406E-06
v 4.5 -4.500001 -2.441406E-06
v -3.5 -15.5 0
v -4.5 7.499999 0
v -18.5 -4.500003 -2.441406E-06
v -18.5 7.499999 0
v 4.5 7.499999 0
v 18.5 7.499999 0
v 18.5 -4.500003 -2.441406E-06
v 3.499999 -15.5 0
v 4.5 -15.5 0
v -4.500001 -15.5 0
v 4.5 12.5 0
v 5.5 20.5 2.441406E-06
v 5.5 12.5 0
v 3.499999 -20.5 -2.441406E-06
v -3.5 -20.5 -2.441406E-06
v -4.5 12.5 0
v -5.5 20.5 2.441406E-06
v -5.5 12.5 0
v 4.5 -4.500001 -1.000002
v -4.5 -4.500001 -1.000002
v -3.5 -15.5 -1
v -4.5 7.499999 -1
v -18.5 -4.500003 -1.000002
v -18.5 7.499999 -1
v 4.5 7.499999 -1
v 18.5 7.499999 -1
v 18.5 -4.500003 -1.000002
v 3.499999 -15.5 -1
v 4.5 -15.5 -1
v -4.500001 -15.5 -1
v 4.5 12.5 -1
v 5.500001 20.5 -0.9999976
v 5.5 12.5 -1
v 3.499999 -20.5 -1.000002
v -3.500001 -20.5 -1.000002
v -4.5 12.5 -1
v -5.500002 20.5 -0.9999976
v -5.5 12.5 -1
v -19.5 8.499999 0
v -5.5 8.499999 0
v -19.5 -5.500003 -2.441406E-06
v -5.5 -5.500002 0
v -5.5 -16.5 0
v -4.500001 -16.5 0
v -5.5 11.5 0
v -4.5 -21.5 -2.441406E-06
v 4.499999 -21.5 -2.441406E-06
v 4.5 -16.5 0
v 5.5 -16.5 0
v 5.5 -5.500002 0
v 19.5 -5.500003 -2.441406E-06
v 19.5 8.499999 0
v 5.499999 8.499999 0
v 5.499999 11.5 0
v 6.5 11.5 0
v 6.5 21.5 7.324219E-06
v -6.5 21.5 9.765625E-06
v -6.5 11.5 0
v -19.5 8.499999 -1
v -5.5 8.499999 -1
v -19.5 -5.500003 -1.000002
v -5.500001 -5.500003 -1
v -5.5 -16.5 -1
v -4.500001 -16.5 -1
v -5.5 11.5 -1
v -4.500001 -21.5 -1.000002
v 4.499999 -21.5 -1.000002
v 4.5 -16.5 -1
v 5.5 -16.5 -1
v 5.5 -5.500003 -1
v 19.5 -5.500003 -1.000002
v 19.5 8.499999 -1
v 5.499999 8.499999 -1
v 5.499999 11.5 -1
v 6.5 11.5 -1
v 6.500002 21.5 -0.9999927
v -6.500003 21.5 -0.9999902
v -6.5 11.5 -1
v -19.5 8.499999 0
v -5.5 8.499999 -1
v -5.5 8.499999 0
v -19.5 8.499999 -1
v 5.5 -5.500002 0
v 5.5 -16.5 -1
v 5.5 -16.5 0
v 5.5 -5.500003 -1
v 5.5 -16.5 0
v 4.5 -16.5 -1
v 4.5 -16.5 0
v 5.5 -16.5 -1
v -5.5 -16.5 0
v -5.500001 -5.500003 -1
v -5.5 -5.500002 0
v -5.5 -16.5 -1
v -4.500001 -16.5 0
v -5.5 -16.5 -1
v -5.5 -16.5 0
v -4.500001 -16.5 -1
v -5.5 -5.500002 0
v -19.5 -5.500003 -1.000002
v -19.5 -5.500003 -2.441406E-06
v -5.500001 -5.500003 -1
v 19.5 8.499999 0
v 19.5 -5.500003 -1.000002
v 19.5 -5.500003 -2.441406E-06
v 19.5 8.499999 -1
v 19.5 -5.500003 -2.441406E-06
v 5.5 -5.500003 -1
v 5.5 -5.500002 0
v 19.5 -5.500003 -1.000002
v -19.5 -5.500003 -2.441406E-06
v -19.5 8.499999 -1
v -19.5 8.499999 0
v -19.5 -5.500003 -1.000002
v 6.5 11.5 0
v 5.499999 11.5 -1
v 5.499999 11.5 0
v 6.5 11.5 -1
v 6.5 21.5 7.324219E-06
v 6.5 11.5 -1
v 6.5 11.5 0
v 6.500002 21.5 -0.9999927
v -6.5 11.5 0
v -6.500003 21.5 -0.9999902
v -6.5 21.5 9.765625E-06
v -6.5 11.5 -1
v 5.499999 11.5 0
v 5.499999 8.499999 -1
v 5.499999 8.499999 0
v 5.499999 11.5 -1
v -5.5 8.499999 0
v -5.5 11.5 -1
v -5.5 11.5 0
v -5.5 8.499999 -1
v 4.499999 -21.5 -2.441406E-06
v -4.500001 -21.5 -1.000002
v -4.5 -21.5 -2.441406E-06
v 4.499999 -21.5 -1.000002
v 4.5 -16.5 0
v 4.499999 -21.5 -1.000002
v 4.499999 -21.5 -2.441406E-06
v 4.5 -16.5 -1
v -4.5 -21.5 -2.441406E-06
v -4.500001 -16.5 -1
v -4.500001 -16.5 0
v -4.500001 -21.5 -1.000002
v -6.5 21.5 9.765625E-06
v 6.500002 21.5 -0.9999927
v 6.5 21.5 7.324219E-06
v -6.500003 21.5 -0.9999902
v 5.499999 8.499999 0
v 19.5 8.499999 -1
v 19.5 8.499999 0
v 5.499999 8.499999 -1
v -5.5 11.5 0
v -6.5 11.5 -1
v -6.5 11.5 0
v -5.5 11.5 -1
vt -4.000001 -4.000005
vt 4.999998 -4.000007
vt -3.000005 -15
vt -3.999999 7.999996
vt -18 -4.000004
vt -18 7.999998
vt 5.000001 7.999994
vt 19 7.99999
vt 19 -4.000013
vt 3.999995 -15
vt 4.999995 -15
vt -4.000005 -15
vt 5.000002 12.99999
vt 6.000004 20.99999
vt 6.000002 12.99999
vt 3.999993 -20
vt -3.000006 -20
vt -3.999998 13
vt -4.999996 20.99999
vt -4.999998 13
vt -3.999999 -4.000007
vt 5.000001 -4.000005
vt 4.000005 -15
vt 4.999999 7.999996
vt 19 -4.000004
vt 19 7.999998
vt -4.000001 7.999994
vt -18 7.99999
vt -18 -4.000013
vt -2.999995 -15
vt -3.999995 -15
vt 5.000005 -15
vt -4.000002 12.99999
vt -5.000006 21
vt -5.000002 12.99999
vt -2.999994 -20
vt 4.000007 -20
vt 4.999998 13
vt 5.999998 21
vt 5.999998 13
vt -19 8.999998
vt -4.999999 8.999996
vt -19 -5.000004
vt -5.000002 -5.000006
vt -5.000004 -16
vt -4.000005 -16
vt -4.999998 12
vt -4.000006 -21
vt 4.999992 -21
vt 4.999995 -16
vt 5.999996 -16
vt 5.999998 -5.000008
vt 20 -5.000013
vt 20 8.99999
vt 6 8.999992
vt 6.000001 11.99999
vt 7.000002 11.99999
vt 7.000005 21.99999
vt -5.999995 21.99999
vt -5.999998 12
vt 20 8.999998
vt 5.999999 8.999996
vt 20 -5.000004
vt 6.000003 -5.000007
vt 6.000004 -16
vt 5.000005 -16
vt 5.999998 12
vt 5.000007 -21
vt -3.999993 -21
vt -3.999995 -16
vt -4.999996 -16
vt -4.999999 -5.00001
vt -19 -5.000013
vt -19 8.99999
vt -5 8.999992
vt -5.000001 11.99999
vt -6.000003 11.99999
vt -6.000007 22
vt 6.999998 22
vt 6.999998 12
vt 20 0.9999962
vt 5.999999 -3.814697E-06
vt 5.999999 0.9999962
vt 20 -3.814697E-06
vt -5.000008 0.9999962
vt -16 -3.814697E-06
vt -16 0.9999962
vt -5.00001 -3.814697E-06
vt 5.999996 0.9999962
vt 4.999995 -3.814697E-06
vt 4.999995 0.9999962
vt 5.999996 -3.814697E-06
vt 17 0.9999962
vt 6.000007 -3.814697E-06
vt 6.000006 0.9999962
vt 17 -3.814697E-06
vt -4.000005 0.9999962
vt -5.000004 -3.814697E-06
vt -5.000004 0.9999962
vt -4.000005 -3.814697E-06
vt -5.000002 0.9999962
vt -19 -5.722046E-06
vt -19 0.9999943
vt -5.000003 -3.814697E-06
vt 8.99999 0.9999962
vt -5.000013 -5.722046E-06
vt -5.000013 0.9999943
vt 8.99999 -3.814697E-06
vt 20 0.9999943
vt 5.999999 -3.814697E-06
vt 5.999998 0.9999962
vt 20 -5.722046E-06
vt 6.000004 0.9999943
vt -7.999998 -3.814697E-06
vt -7.999998 0.9999962
vt 6.000004 -5.722046E-06
vt 7.000002 0.9999962
vt 6.000001 -3.814697E-06
vt 6.000001 0.9999962
vt 7.000003 -3.814697E-06
vt 21.99999 1.000004
vt 11.99999 -3.814697E-06
vt 11.99999 0.9999962
vt 22 3.814697E-06
vt -11 0.9999962
vt -21 5.722046E-06
vt -20.99999 1.000006
vt -11 -3.814697E-06
vt 11.99999 0.9999962
vt 8.999992 -3.814697E-06
vt 8.999992 0.9999962
vt 11.99999 -3.814697E-06
vt -7.999996 0.9999962
vt -11 -3.814697E-06
vt -11 0.9999962
vt -7.999996 -3.814697E-06
vt 4.999992 0.9999943
vt -4.000007 -5.722046E-06
vt -4.000006 0.9999943
vt 4.999993 -5.722046E-06
vt -16 0.9999962
vt -21 -5.722046E-06
vt -21 0.9999943
vt -16 -3.814697E-06
vt 22 0.9999943
vt 17 -3.814697E-06
vt 17 0.9999962
vt 22 -5.722046E-06
vt 6.999995 1.000006
vt -6.000007 3.814697E-06
vt -6.000005 1.000004
vt 6.999998 5.722046E-06
vt -5 0.9999962
vt -19 -3.814697E-06
vt -19 0.9999962
vt -5 -3.814697E-06
vt -4.999998 0.9999962
vt -5.999998 -3.814697E-06
vt -5.999998 0.9999962
vt -4.999998 -3.814697E-06
vn 0 0 1
vn 0 0 1
vn 0 0 1
vn 0 0 1
vn 0 0 1
vn 0 0 1
vn 0 0 1
vn 0 0 1
vn 0 0 1
vn 0 0 1
vn 0 0 1
vn 0 0 1
vn 0 0 1
vn 0 -1.94833E-06 1
vn 0 0 1
vn 0 0 1
vn 0 0 1
vn 0 0 1
vn 0 0 1
vn 0 0 1
vn 0 0 -1
vn 0 0 -1
vn 0 0 -1
vn 0 0 -1
vn 0 0 -1
vn 0 0 -1
vn 0 0 -1
vn 0 0 -1
vn 0 0 -1
vn 0 0 -1
vn 0 0 -1
vn 0 0 -1
vn 0 0 -1
vn 0 1.948327E-06 -1
vn 0 0 -1
vn 0 0 -1
vn 0 0 -1
vn 0 0 -1
vn 0 0 -1
vn 0 0 -1
vn 0 0 1
vn 0 0 1
vn 0 0 1
vn 0 0 1
vn 0 0 1
vn 0 0 1
vn 0 0 1
vn 0 0 1
vn 0 0 1
vn 0 0 1
vn 0 0 1
vn 0 0 1
vn 0 0 1
vn 0 0 1
vn 0 0 1
vn 0 0 1
vn 0 0 1
vn 0 0 1
vn 0 -3.419143E-06 1
vn 0 0 1
vn 0 0 -1
vn 0 0 -1
vn 0 0 -1
vn 0 0 -1
vn 0 0 -1
vn 0 0 -1
vn 0 0 -1
vn 0 0 -1
vn 0 0 -1
vn 0 0 -1
vn 0 0 -1
vn 0 0 -1
vn 0 0 -1
vn 0 0 -1
vn 0 0 -1
vn 0 0 -1
vn 0 0 -1
vn 0 0 -1
vn 0 3.419137E-06 -1
vn 0 0 -1
vn 0 1 0
vn 0 1 0
vn 0 1 0
vn 0 1 0
vn 1 0 0
vn 1 0 0
vn 1 0 0
vn 1 0 0
vn 0 -1 0
vn 0 -1 0
vn 0 -1 0
vn 0 -1 0
vn -1 0 0
vn -1 0 0
vn -1 0 0
vn -1 0 0
vn 0 -1 0
vn 0 -1 0
vn 0 -1 0
vn 0 -1 0
vn 0 -1 0
vn 0 -1 0
vn 0 -1 0
vn 0 -1 0
vn 1 0 0
vn 1 0 0
vn 1 0 0
vn 1 0 0
vn 0 -1 0
vn 0 -1 0
vn 0 -1 0
vn 0 -1 0
vn -1 0 0
vn -1 0 0
vn -1 0 0
vn -1 0 0
vn 0 -1 0
vn 0 -1 0
vn 0 -1 0
vn 0 -1 0
vn 1 0 0
vn 1 0 0
vn 1 0 0
vn 1 0 0
vn -1 0 0
vn -1 0 0
vn -1 0 0
vn -1 0 0
vn 1 0 0
vn 1 0 0
vn 1 0 0
vn 1 0 0
vn -1 0 0
vn -1 0 0
vn -1 0 0
vn -1 0 0
vn 0 -1 0
vn 0 -1 0
vn 0 -1 0
vn 0 -1 0
vn 1 0 0
vn 1 0 0
vn 1 0 0
vn 1 0 0
vn -1 0 0
vn -1 0 0
vn -1 0 0
vn -1 0 0
vn 0 1 0
vn 0 1 0
vn 0 1 0
vn 0 1 0
vn 0 1 0
vn 0 1 0
vn 0 1 0
vn 0 1 0
vn 0 -1 0
vn 0 -1 0
vn 0 -1 0
vn 0 -1 0
g DuelArenaSpace_Flor_1_0
f 3/3/3 2/2/2 1/1/1
f 4/4/4 1/1/1 2/2/2
f 1/1/1 4/4/4 5/5/5
f 6/6/6 5/5/5 4/4/4
f 4/4/4 2/2/2 7/7/7
f 7/7/7 2/2/2 8/8/8
f 9/9/9 8/8/8 2/2/2
f 10/10/10 2/2/2 3/3/3
f 11/11/11 2/2/2 10/10/10
f 3/3/3 1/1/1 12/12/12
f 7/7/7 13/13/13 4/4/4
f 4/4/4 13/13/13 14/14/14
f 15/15/15 14/14/14 13/13/13
f 3/3/3 16/16/16 10/10/10
f 16/16/16 3/3/3 17/17/17
f 4/4/4 14/14/14 18/18/18
f 14/14/14 19/19/19 18/18/18
f 19/19/19 20/20/20 18/18/18
f 23/23/23 22/22/22 21/21/21
f 24/24/24 21/21/21 22/22/22
f 22/22/22 25/25/25 24/24/24
f 26/26/26 24/24/24 25/25/25
f 24/24/24 27/27/27 21/21/21
f 27/27/27 28/28/28 21/21/21
f 29/29/29 21/21/21 28/28/28
f 30/30/30 23/23/23 21/21/21
f 31/31/31 30/30/30 21/21/21
f 23/23/23 32/32/32 22/22/22
f 27/27/27 24/24/24 33/33/33
f 24/24/24 34/34/34 33/33/33
f 35/35/35 33/33/33 34/34/34
f 23/23/23 30/30/30 36/36/36
f 36/36/36 37/37/37 23/23/23
f 24/24/24 38/38/38 34/34/34
f 34/34/34 38/38/38 39/39/39
f 39/39/39 38/38/38 40/40/40
g DuelArenaSpace_Flor_1_1
f 4/4/4 41/41/41 6/6/6
f 41/41/41 4/4/4 42/42/42
f 6/6/6 41/41/41 43/43/43
f 5/5/5 6/6/6 43/43/43
f 44/44/44 5/5/5 43/43/43
f 5/5/5 44/44/44 1/1/1
f 12/12/12 1/1/1 44/44/44
f 44/44/44 45/45/45 12/12/12
f 46/46/46 12/12/12 45/45/45
f 12/12/12 46/46/46 3/3/3
f 17/17/17 3/3/3 46/46/46
f 4/4/4 18/18/18 42/42/42
f 47/47/47 42/42/42 18/18/18
f 20/20/20 47/47/47 18/18/18
f 46/46/46 48/48/48 17/17/17
f 17/17/17 48/48/48 16/16/16
f 16/16/16 48/48/48 49/49/49
f 49/49/49 50/50/50 16/16/16
f 10/10/10 16/16/16 50/50/50
f 50/50/50 11/11/11 10/10/10
f 11/11/11 50/50/50 51/51/51
f 51/51/51 52/52/52 11/11/11
f 2/2/2 11/11/11 52/52/52
f 2/2/2 52/52/52 9/9/9
f 53/53/53 9/9/9 52/52/52
f 8/8/8 9/9/9 53/53/53
f 8/8/8 53/53/53 54/54/54
f 55/55/55 8/8/8 54/54/54
f 8/8/8 55/55/55 7/7/7
f 55/55/55 56/56/56 7/7/7
f 13/13/13 7/7/7 56/56/56
f 56/56/56 15/15/15 13/13/13
f 15/15/15 56/56/56 57/57/57
f 57/57/57 58/58/58 15/15/15
f 14/14/14 15/15/15 58/58/58
f 58/58/58 59/59/59 14/14/14
f 14/14/14 59/59/59 19/19/19
f 20/20/20 19/19/19 59/59/59
f 20/20/20 59/59/59 60/60/60
f 47/47/47 20/20/20 60/60/60
f 24/24/24 26/26/26 61/61/61
f 61/61/61 62/62/62 24/24/24
f 26/26/26 63/63/63 61/61/61
f 25/25/25 63/63/63 26/26/26
f 64/64/64 63/63/63 25/25/25
f 25/25/25 22/22/22 64/64/64
f 32/32/32 64/64/64 22/22/22
f 64/64/64 32/32/32 65/65/65
f 66/66/66 65/65/65 32/32/32
f 32/32/32 23/23/23 66/66/66
f 37/37/37 66/66/66 23/23/23
f 24/24/24 62/62/62 38/38/38
f 67/67/67 38/38/38 62/62/62
f 40/40/40 38/38/38 67/67/67
f 66/66/66 37/37/37 68/68/68
f 37/37/37 36/36/36 68/68/68
f 36/36/36 69/69/69 68/68/68
f 69/69/69 36/36/36 70/70/70
f 30/30/30 70/70/70 36/36/36
f 70/70/70 30/30/30 31/31/31
f 31/31/31 71/71/71 70/70/70
f 71/71/71 31/31/31 72/72/72
f 21/21/21 72/72/72 31/31/31
f 21/21/21 29/29/29 72/72/72
f 73/73/73 72/72/72 29/29/29
f 28/28/28 73/73/73 29/29/29
f 28/28/28 74/74/74 73/73/73
f 75/75/75 74/74/74 28/28/28
f 28/28/28 27/27/27 75/75/75
f 75/75/75 27/27/27 76/76/76
f 33/33/33 76/76/76 27/27/27
f 76/76/76 33/33/33 35/35/35
f 35/35/35 77/77/77 76/76/76
f 77/77/77 35/35/35 78/78/78
f 34/34/34 78/78/78 35/35/35
f 78/78/78 34/34/34 79/79/79
f 34/34/34 39/39/39 79/79/79
f 40/40/40 79/79/79 39/39/39
f 40/40/40 80/80/80 79/79/79
f 67/67/67 80/80/80 40/40/40
f 83/83/83 82/82/82 81/81/81
f 84/84/84 81/81/81 82/82/82
f 87/87/87 86/86/86 85/85/85
f 88/88/88 85/85/85 86/86/86
f 91/91/91 90/90/90 89/89/89
f 92/92/92 89/89/89 90/90/90
f 95/95/95 94/94/94 93/93/93
f 96/96/96 93/93/93 94/94/94
f 99/99/99 98/98/98 97/97/97
f 100/100/100 97/97/97 98/98/98
f 103/103/103 102/102/102 101/101/101
f 104/104/104 101/101/101 102/102/102
f 107/107/107 106/106/106 105/105/105
f 108/108/108 105/105/105 106/106/106
f 111/111/111 110/110/110 109/109/109
f 112/112/112 109/109/109 110/110/110
f 115/115/115 114/114/114 113/113/113
f 116/116/116 113/113/113 114/114/114
f 119/119/119 118/118/118 117/117/117
f 120/120/120 117/117/117 118/118/118
f 123/123/123 122/122/122 121/121/121
f 124/124/124 121/121/121 122/122/122
f 127/127/127 126/126/126 125/125/125
f 128/128/128 125/125/125 126/126/126
f 131/131/131 130/130/130 129/129/129
f 132/132/132 129/129/129 130/130/130
f 135/135/135 134/134/134 133/133/133
f 136/136/136 133/133/133 134/134/134
f 139/139/139 138/138/138 137/137/137
f 140/140/140 137/137/137 138/138/138
f 143/143/143 142/142/142 141/141/141
f 144/144/144 141/141/141 142/142/142
f 147/147/147 146/146/146 145/145/145
f 148/148/148 145/145/145 146/146/146
f 151/151/151 150/150/150 149/149/149
f 152/152/152 149/149/149 150/150/150
f 155/155/155 154/154/154 153/153/153
f 156/156/156 153/153/153 154/154/154
f 159/159/159 158/158/158 157/157/157
f 160/160/160 157/157/157 158/158/158
