g dungeon_mv_bush_lod02
v -2.442789E-05 2.679634 -0.7500291
v -2.442789E-05 2.679634 0.7499713
v -2.442789E-05 1.332458 0.749971
v -2.442789E-05 1.332458 -0.7500293
v -0.7499993 2.679632 -0.000622519
v 0.7500006 2.679632 -0.000622519
v 0.7500006 1.332457 -0.0006226289
v -0.7499993 1.332457 -0.0006226289
v -2.442789E-05 1.332458 -1.750029
v -2.442789E-05 1.332458 1.749971
v -2.442789E-05 -0.01471832 1.749971
v -2.442789E-05 -0.01471802 -1.750029
v -1.749999 1.332457 -0.0006226288
v 1.750001 1.332457 -0.0006226288
v 1.750001 -0.01471771 -0.0006227387
v -1.749999 -0.01471771 -0.0006227387
v -2.442789E-05 1.332458 0.749971
v -2.442789E-05 2.679634 0.7499713
v -2.442789E-05 2.679634 -0.7500291
v -2.442789E-05 1.332458 -0.7500293
v 0.7500006 1.332457 -0.0006226289
v 0.7500006 2.679632 -0.000622519
v -0.7499993 2.679632 -0.000622519
v -0.7499993 1.332457 -0.0006226289
v -2.442789E-05 -0.01471832 1.749971
v -2.442789E-05 1.332458 1.749971
v -2.442789E-05 1.332458 -1.750029
v -2.442789E-05 -0.01471802 -1.750029
v 1.750001 -0.01471771 -0.0006227387
v 1.750001 1.332457 -0.0006226288
v -1.749999 1.332457 -0.0006226288
v -1.749999 -0.01471771 -0.0006227387
vt 1.847176 -0.2500002
vt 1.847176 1.25
vt 0.4999999 1.25
vt 0.5000002 -0.2500003
vt 1.25 1.847175
vt -0.2500005 1.847174
vt -0.25 0.4999994
vt 1.25 0.4999998
vt 0.5000002 -1.25
vt 0.5 2.25
vt -0.847176 2.25
vt -0.8471757 -1.25
vt 2.25 0.5
vt -1.25 0.4999992
vt -1.25 -0.8471758
vt 2.25 -0.847175
vt 0.4999999 1.25
vt 1.847176 1.25
vt 1.847176 -0.2500002
vt 0.5000002 -0.2500003
vt -0.25 0.4999994
vt -0.2500005 1.847174
vt 1.25 1.847175
vt 1.25 0.4999998
vt -0.847176 2.25
vt 0.5 2.25
vt 0.5000002 -1.25
vt -0.8471757 -1.25
vt -1.25 -0.8471758
vt -1.25 0.4999992
vt 2.25 0.5
vt 2.25 -0.847175
vn -1 0 0
vn -1 0 0
vn -1 0 0
vn -1 0 0
vn 0 0 1
vn 0 0 1
vn 0 0 1
vn 0 0 1
vn -1 0 0
vn -1 0 0
vn -1 0 0
vn -1 0 0
vn 0 0 1
vn 0 0 1
vn 0 0 1
vn 0 0 1
vn 1 0 0
vn 1 0 0
vn 1 0 0
vn 1 0 0
vn 0 0 -1
vn 0 0 -1
vn 0 0 -1
vn 0 0 -1
vn 1 0 0
vn 1 0 0
vn 1 0 0
vn 1 0 0
vn 0 0 -1
vn 0 0 -1
vn 0 0 -1
vn 0 0 -1
g dungeon_mv_bush_lod02_0
f 3/3/3 2/2/2 1/1/1
f 4/4/4 3/3/3 1/1/1
f 7/7/7 6/6/6 5/5/5
f 8/8/8 7/7/7 5/5/5
f 11/11/11 10/10/10 9/9/9
f 12/12/12 11/11/11 9/9/9
f 15/15/15 14/14/14 13/13/13
f 16/16/16 15/15/15 13/13/13
f 19/19/19 18/18/18 17/17/17
f 20/20/20 19/19/19 17/17/17
f 23/23/23 22/22/22 21/21/21
f 24/24/24 23/23/23 21/21/21
f 27/27/27 26/26/26 25/25/25
f 28/28/28 27/27/27 25/25/25
f 31/31/31 30/30/30 29/29/29
f 32/32/32 31/31/31 29/29/29
