g Dungeon_kosiyaki
v 55.0916 6.592997 -22.08501
v 55.0916 0.3980197 -21.45051
v 55.0916 4.477252 -21.4505
v 55.0916 0.3980205 -22.08502
v 55.0916 4.477252 -19.73621
v 55.0916 6.592997 -19.73621
v 65.49097 3.275618 11.28345
v 65.49097 3.275618 9.26185
v 65.49097 3.400618 9.26185
v 65.49097 3.400618 11.28344
v 6.551531 0.4071068 15.8942
v 6.55153 3.282107 15.8942
v 6.676531 3.282107 15.8942
v 6.676531 0.4071068 15.8942
v 54.8416 4.477252 -19.73621
v 54.8416 6.592997 -19.73621
v 54.8416 6.592997 -17.3874
v 54.8416 4.477253 -18.02192
v 54.8416 0.3980197 -18.02192
v 54.8416 0.3980192 -17.3874
v 55.0916 6.592997 -17.3874
v 55.0916 0.3980197 -18.02192
v 55.0916 0.3980189 -17.3874
v 55.0916 4.477252 -18.02192
v 55.0916 4.477252 -19.73621
v 55.0916 6.592997 -19.73621
v 55.0916 4.477252 -21.4505
v 54.8416 4.477253 -21.45049
v 54.8416 4.477252 -19.73621
v 55.0916 4.477252 -19.73621
v 55.0916 4.477252 -18.02192
v 54.8416 4.477253 -18.02192
v 53.44434 0.4071068 15.8942
v 53.44434 3.282107 15.8942
v 53.56934 3.282107 15.8942
v 53.56934 0.4071068 15.8942
v 54.8416 6.592997 -22.08501
v 54.8416 0.39802 -21.45051
v 54.8416 0.3980214 -22.08502
v 54.8416 4.477253 -21.45049
v 54.8416 4.477252 -19.73621
v 54.8416 6.592997 -19.73621
v 65.49097 0.4006179 9.386851
v 65.49097 3.275618 9.386851
v 65.99097 3.275618 9.386851
v 65.99097 0.4006182 9.38685
v 8.42653 0.4071067 15.3942
v 8.42653 3.282107 15.3942
v 8.42653 3.282107 15.8942
v 8.42653 0.4071068 15.8942
v 53.56934 0.4071067 15.3942
v 53.56934 3.282107 15.3942
v 53.44434 3.282107 15.3942
v 53.44434 0.4071067 15.3942
v -6.29462 3.407105 -24.98876
v -6.29462 3.407105 -21.99076
v -6.29462 3.282105 -21.99076
v -6.29462 3.282105 -24.98876
v 51.56934 3.282107 15.3942
v 53.56934 3.282107 15.3942
v 53.56934 3.407107 15.3942
v 51.56934 3.407107 15.3942
v 6.676531 0.4071068 15.8942
v 6.676531 3.282107 15.8942
v 6.676531 3.282107 15.3942
v 6.676531 0.4071067 15.3942
v 51.56934 3.407107 15.8942
v 53.56934 3.407107 15.8942
v 53.56934 3.282107 15.8942
v 51.56934 3.282107 15.8942
v 51.69434 0.4071067 15.3942
v 51.69434 3.282107 15.3942
v 51.56934 3.282107 15.3942
v 51.56934 0.4071067 15.3942
v 8.42653 0.4071068 15.8942
v 8.42653 3.282107 15.8942
v 8.55153 3.282107 15.8942
v 8.55153 0.4071068 15.8942
v -5.794621 0.4071066 11.43221
v -5.794621 3.282106 11.43221
v -5.794621 3.282106 11.20269
v -5.794621 0.4071066 11.20269
v 55.0916 0.3980197 -18.02192
v 55.0916 4.477252 -18.02192
v 54.8416 4.477253 -18.02192
v 54.8416 0.3980197 -18.02192
v -6.294623 0.4071065 9.093183
v -6.294623 3.282107 9.093183
v -5.794623 3.282107 9.093183
v -5.794623 0.4071065 9.093183
v 51.56934 3.282107 15.8942
v 53.56934 3.282107 15.8942
v 53.56934 3.282107 15.3942
v 51.56934 3.282107 15.3942
v 6.55153 3.282107 15.3942
v 8.55153 3.282107 15.3942
v 8.55153 3.407107 15.3942
v 6.55153 3.407107 15.3942
v 53.44434 0.4071067 15.3942
v 53.44434 3.282107 15.3942
v 53.44434 3.282107 15.8942
v 53.44434 0.4071068 15.8942
v 55.0916 0.3980197 -21.45051
v 54.8416 0.39802 -21.45051
v 54.8416 4.477253 -21.45049
v 55.0916 4.477252 -21.4505
v 6.676531 0.4071067 15.3942
v 6.676531 3.282107 15.3942
v 6.55153 3.282107 15.3942
v 6.551531 0.4071067 15.3942
v -5.79462 0.4071051 -21.99428
v -5.79462 3.282105 -21.99428
v -5.79462 3.282105 -22.22379
v -5.79462 0.4071051 -22.22379
v 6.55153 3.407107 15.8942
v 8.55153 3.407107 15.8942
v 8.55153 3.282107 15.8942
v 6.55153 3.282107 15.8942
v 65.49097 0.4006182 11.15845
v 65.49097 3.275618 11.15845
v 65.49097 3.275618 11.28345
v 65.49097 0.4006181 11.28345
v -5.79462 3.282105 -24.98876
v -5.79462 3.282105 -21.99076
v -5.79462 3.407105 -21.99076
v -5.79462 3.407105 -24.98876
v -6.294621 3.282106 8.851091
v -6.294621 3.282106 11.44158
v -5.794621 3.282106 11.44158
v -5.794621 3.282106 8.851091
v -5.794621 3.282106 8.851091
v -5.794621 3.282106 11.44158
v -5.794621 3.407106 11.44158
v -5.794621 3.407106 8.851091
v -6.29462 3.282105 -24.98876
v -6.29462 3.282105 -21.99076
v -5.79462 3.282105 -21.99076
v -5.79462 3.282105 -24.98876
v -6.294622 0.407105 -25.02287
v -6.294622 3.282105 -25.02287
v -6.294622 3.282105 -24.74275
v -6.294622 0.4071049 -24.74275
v -5.794623 0.4071065 9.093183
v -5.794623 3.282107 9.093183
v -5.794623 3.282106 8.831021
v -5.794623 0.4071065 8.831021
v -6.29462 0.4071051 -22.22379
v -6.29462 3.282105 -22.22379
v -6.29462 3.282105 -21.99428
v -6.29462 0.4071051 -21.99428
v -6.294621 0.4071066 11.20269
v -6.294621 3.282106 11.20269
v -6.294621 3.282106 11.43221
v -6.294621 0.4071066 11.43221
v -6.294623 0.4071065 8.831021
v -6.294623 3.282106 8.831021
v -6.294623 3.282107 9.093183
v -6.294623 0.4071065 9.093183
v -6.294621 3.407106 8.851091
v -6.294621 3.407106 11.44158
v -6.294621 3.282106 11.44158
v -6.294621 3.282106 8.851091
v -5.794621 0.4071066 11.20269
v -5.794621 3.282106 11.20269
v -6.294621 3.282106 11.20269
v -6.294621 0.4071066 11.20269
v -5.79462 0.4071051 -22.22379
v -5.79462 3.282105 -22.22379
v -6.29462 3.282105 -22.22379
v -6.29462 0.4071051 -22.22379
v 6.55153 3.282107 15.8942
v 8.55153 3.282107 15.8942
v 8.55153 3.282107 15.3942
v 6.55153 3.282107 15.3942
v -5.794622 0.4071049 -24.74275
v -5.794622 3.282105 -24.74275
v -5.794622 3.282105 -25.02287
v -5.794622 0.407105 -25.02287
v 65.99097 0.4006183 11.15844
v 65.99097 3.275619 11.15845
v 65.49097 3.275618 11.15845
v 65.49097 0.4006182 11.15845
v 65.99097 3.275618 11.28345
v 65.99097 3.275618 9.261852
v 65.49097 3.275618 9.26185
v 65.49097 3.275618 11.28345
v 51.69434 0.4071068 15.8942
v 51.69434 3.282107 15.8942
v 51.69434 3.282107 15.3942
v 51.69434 0.4071067 15.3942
v 65.99097 0.4006183 11.28344
v 65.99097 3.275618 11.28345
v 65.99097 3.275619 11.15845
v 65.99097 0.4006183 11.15844
v 65.99097 3.400618 11.28344
v 65.99097 3.400618 9.261851
v 65.99097 3.275618 9.261852
v 65.99097 3.275618 11.28345
v 51.56934 0.4071068 15.8942
v 51.56934 3.282107 15.8942
v 51.69434 3.282107 15.8942
v 51.69434 0.4071068 15.8942
v 8.55153 0.4071067 15.3942
v 8.55153 3.282107 15.3942
v 8.42653 3.282107 15.3942
v 8.42653 0.4071067 15.3942
v 65.99097 0.4006182 9.38685
v 65.99097 3.275618 9.386851
v 65.99097 3.275618 9.261852
v 65.99097 0.4006182 9.261851
v 65.49097 0.400618 9.261851
v 65.49097 3.275618 9.26185
v 65.49097 3.275618 9.386851
v 65.49097 0.4006179 9.386851
v -6.294622 0.4071049 -24.74275
v -6.294622 3.282105 -24.74275
v -5.794622 3.282105 -24.74275
v -5.794622 0.4071049 -24.74275
vt 0.2664276 0.2469512
vt 0.3578361 0.2388108
vt 0.2975182 0.2388108
vt 0.3578361 0.2469512
vt 0.2975182 0.2156951
vt 0.2664276 0.2168157
vt 0.3124871 0.2082388
vt 0.3423661 0.2082388
vt 0.3423661 0.2064812
vt 0.3124871 0.2064812
vt 0.3423661 0.2064812
vt 0.2984264 0.2064812
vt 0.2984264 0.2082388
vt 0.3423661 0.2082388
vt 0.2975182 0.2168157
vt 0.2664276 0.2168157
vt 0.2664276 0.2469512
vt 0.2975182 0.2388108
vt 0.3578361 0.2388108
vt 0.3578361 0.2469512
vt 0.2664276 0.2469512
vt 0.3578361 0.2388108
vt 0.3578361 0.2469512
vt 0.2975182 0.2388108
vt 0.2975182 0.2168157
vt 0.2664276 0.2168157
vt 0.2692184 0.2231984
vt 0.2731247 0.2231984
vt 0.2731247 0.1987843
vt 0.2692184 0.1987843
vt 0.2692184 0.1753468
vt 0.2731247 0.1753468
vt 0.3423661 0.2064812
vt 0.2984264 0.2064812
vt 0.2984264 0.2082388
vt 0.3423661 0.2082388
vt 0.2664276 0.2469512
vt 0.3578361 0.2388108
vt 0.3578361 0.2469512
vt 0.2975182 0.2388108
vt 0.2975182 0.2156951
vt 0.2664276 0.2168157
vt 0.3423661 0.2012084
vt 0.3028203 0.2012084
vt 0.3028203 0.2082388
vt 0.3423661 0.2082388
vt 0.3423661 0.2012084
vt 0.3028203 0.2012084
vt 0.3028203 0.2082388
vt 0.3423661 0.2082388
vt 0.3423661 0.2064812
vt 0.2984264 0.2064812
vt 0.2984264 0.2082388
vt 0.3423661 0.2082388
vt 0.3423661 0.2064812
vt 0.2975774 0.2064812
vt 0.2975774 0.2082388
vt 0.3423661 0.2082388
vt 0.3124871 0.2082388
vt 0.3423661 0.2082388
vt 0.3423661 0.2064812
vt 0.3124871 0.2064812
vt 0.3423661 0.2012084
vt 0.3028203 0.2012084
vt 0.3028203 0.2082388
vt 0.3423661 0.2082388
vt 0.3423661 0.2064812
vt 0.3124871 0.2064812
vt 0.3124871 0.2082388
vt 0.3423661 0.2082388
vt 0.3423661 0.2064812
vt 0.2984264 0.2064812
vt 0.2984264 0.2082388
vt 0.3423661 0.2082388
vt 0.3423661 0.2064812
vt 0.2984264 0.2064812
vt 0.2984264 0.2082388
vt 0.3423661 0.2082388
vt 0.3423661 0.2047236
vt 0.2984264 0.2047236
vt 0.2984264 0.2082388
vt 0.3423661 0.2082388
vt 0.3578361 0.2459296
vt 0.2975182 0.2459296
vt 0.2975182 0.2398545
vt 0.3578361 0.2398545
vt 0.3423661 0.2012084
vt 0.3028203 0.2012084
vt 0.3028203 0.2082388
vt 0.3423661 0.2082388
vt 0.3423661 0.2012084
vt 0.3160022 0.2012084
vt 0.3160022 0.2082388
vt 0.3423661 0.2082388
vt 0.3124871 0.2082388
vt 0.3423661 0.2082388
vt 0.3423661 0.2064812
vt 0.3124871 0.2064812
vt 0.3423661 0.2012084
vt 0.3028203 0.2012084
vt 0.3028203 0.2082388
vt 0.3423661 0.2082388
vt 0.3578361 0.2458529
vt 0.3578361 0.2398427
vt 0.2975182 0.2398427
vt 0.2975182 0.2458529
vt 0.3423661 0.2064812
vt 0.2984264 0.2064812
vt 0.2984264 0.2082388
vt 0.3423661 0.2082388
vt 0.3423661 0.2047236
vt 0.2984264 0.2047236
vt 0.2984264 0.2082388
vt 0.3423661 0.2082388
vt 0.3423661 0.2064812
vt 0.3124871 0.2064812
vt 0.3124871 0.2082388
vt 0.3423661 0.2082388
vt 0.3423661 0.2064812
vt 0.2984264 0.2064812
vt 0.2984264 0.2082388
vt 0.3423661 0.2082388
vt 0.2975774 0.2082388
vt 0.3423661 0.2082388
vt 0.3423661 0.2064812
vt 0.2975774 0.2064812
vt 0.3423661 0.2012084
vt 0.3080931 0.2012084
vt 0.3080931 0.2082388
vt 0.3423661 0.2082388
vt 0.3036655 0.2082388
vt 0.3423661 0.2082388
vt 0.3423661 0.2064812
vt 0.3036655 0.2064812
vt 0.3423661 0.2012084
vt 0.3027015 0.2012084
vt 0.3027015 0.2082388
vt 0.3423661 0.2082388
vt 0.3423661 0.2040615
vt 0.2984264 0.2040615
vt 0.2984264 0.2082388
vt 0.3423661 0.2082388
vt 0.3423661 0.2047236
vt 0.2984264 0.2047236
vt 0.2984264 0.2082388
vt 0.3423661 0.2082388
vt 0.3423661 0.2047236
vt 0.2984264 0.2047236
vt 0.2984264 0.2082388
vt 0.3423661 0.2082388
vt 0.3423661 0.2047236
vt 0.2984264 0.2047236
vt 0.2984264 0.2082388
vt 0.3423661 0.2082388
vt 0.3423661 0.2047236
vt 0.2984264 0.2047236
vt 0.2984264 0.2082388
vt 0.3423661 0.2082388
vt 0.3423661 0.2064812
vt 0.3036655 0.2064812
vt 0.3036655 0.2082388
vt 0.3423661 0.2082388
vt 0.3423661 0.2012084
vt 0.3028203 0.2012084
vt 0.3028203 0.2082388
vt 0.3423661 0.2082388
vt 0.3423661 0.2012084
vt 0.3028203 0.2012084
vt 0.3028203 0.2082388
vt 0.3423661 0.2082388
vt 0.3423661 0.2012084
vt 0.3160022 0.2012084
vt 0.3160022 0.2082388
vt 0.3423661 0.2082388
vt 0.3423661 0.2040615
vt 0.2984264 0.2040615
vt 0.2984264 0.2082388
vt 0.3423661 0.2082388
vt 0.3423661 0.2012084
vt 0.3028203 0.2012084
vt 0.3028203 0.2082388
vt 0.3423661 0.2082388
vt 0.3423661 0.2012084
vt 0.3160022 0.2012084
vt 0.3160022 0.2082388
vt 0.3423661 0.2082388
vt 0.3423661 0.2012084
vt 0.3028203 0.2012084
vt 0.3028203 0.2082388
vt 0.3423661 0.2082388
vt 0.3423661 0.2064812
vt 0.2984264 0.2064812
vt 0.2984264 0.2082388
vt 0.3423661 0.2082388
vt 0.3423661 0.2064812
vt 0.3124871 0.2064812
vt 0.3124871 0.2082388
vt 0.3423661 0.2082388
vt 0.3423661 0.2064812
vt 0.2984264 0.2064812
vt 0.2984264 0.2082388
vt 0.3423661 0.2082388
vt 0.3423661 0.2064812
vt 0.2984264 0.2064812
vt 0.2984264 0.2082388
vt 0.3423661 0.2082388
vt 0.3423661 0.2064812
vt 0.2984264 0.2064812
vt 0.2984264 0.2082388
vt 0.3423661 0.2082388
vt 0.3423661 0.2064812
vt 0.2984264 0.2064812
vt 0.2984264 0.2082388
vt 0.3423661 0.2082388
vt 0.3423661 0.2012084
vt 0.3028203 0.2012084
vt 0.3028203 0.2082388
vt 0.3423661 0.2082388
vn 1 0 1.179036E-05
vn 1 0 1.179036E-05
vn 1 0 1.179036E-05
vn 1 0 0
vn 1 0 9.882805E-07
vn 1 0 9.882805E-07
vn -1 0 0
vn -1 0 0
vn -1 0 0
vn -1 0 0
vn -3.814701E-06 0 1
vn -3.814701E-06 0 1
vn -3.814701E-06 0 1
vn -3.814701E-06 0 1
vn -1 0 -7.589912E-07
vn -1 0 -7.589912E-07
vn -1 0 -7.589912E-07
vn -1 0 -7.589912E-07
vn -1 0 -1.179045E-05
vn -1 0 0
vn 1 0 -1.017031E-05
vn 1 0 -1.017031E-05
vn 1 0 -1.017031E-05
vn 1 0 -5.895182E-06
vn 1 0 0
vn 1 0 0
vn -2.225241E-06 -1 -4.172369E-07
vn -2.225241E-06 -1 -4.172369E-07
vn -2.225241E-06 -1 -4.172369E-07
vn -2.225241E-06 -1 -4.172369E-07
vn -1.112614E-06 -1 4.172389E-07
vn -1.112614E-06 -1 4.172389E-07
vn 0 0 1
vn 0 0 1
vn 0 0 1
vn 0 0 1
vn -1 0 -8.029937E-06
vn -1 0 -8.029937E-06
vn -1 0 -8.029937E-06
vn -1 0 1.768545E-05
vn -1 0 0
vn -1 0 0
vn 9.536851E-07 -3.317165E-07 1
vn 9.536851E-07 -3.317165E-07 1
vn 9.536851E-07 -3.317165E-07 1
vn 9.536851E-07 -3.317165E-07 1
vn -1 0 0
vn -1 0 0
vn -1 0 0
vn -1 0 0
vn 0 0 -1
vn 0 0 -1
vn 0 0 -1
vn 0 0 -1
vn -1 0 0
vn -1 0 0
vn -1 0 0
vn -1 0 0
vn 0 -1.614407E-06 -1
vn 0 -1.614407E-06 -1
vn 0 -1.614407E-06 -1
vn 0 -1.614407E-06 -1
vn 1 0 2.195058E-07
vn 1 0 2.195058E-07
vn 1 0 2.195058E-07
vn 1 0 2.195058E-07
vn 0 1.614407E-06 1
vn 0 1.614407E-06 1
vn 0 1.614407E-06 1
vn 0 1.614407E-06 1
vn 1.144467E-05 -3.317296E-07 -1
vn 1.144467E-05 -3.317296E-07 -1
vn 1.144467E-05 -3.317296E-07 -1
vn 1.144467E-05 -3.317296E-07 -1
vn -3.814699E-06 -3.317129E-07 1
vn -3.814699E-06 -3.317129E-07 1
vn -3.814699E-06 -3.317129E-07 1
vn -3.814699E-06 -3.317129E-07 1
vn 1 0 0
vn 1 0 0
vn 1 0 0
vn 1 0 0
vn 3.814722E-06 -4.675784E-07 -1
vn 3.814722E-06 -4.675784E-07 -1
vn 3.814722E-06 -4.675784E-07 -1
vn 3.814722E-06 -4.675784E-07 -1
vn 0 0 1
vn 0 0 1
vn 0 0 1
vn 0 0 1
vn 0 -1 -4.768372E-07
vn 0 -1 -4.768372E-07
vn 0 -1 -4.768372E-07
vn 0 -1 -4.768372E-07
vn 0 -7.629411E-06 -1
vn 0 -7.629411E-06 -1
vn 0 -7.629411E-06 -1
vn 0 -7.629411E-06 -1
vn -1 0 -1.750725E-06
vn -1 0 -1.750725E-06
vn -1 0 -1.750725E-06
vn -1 0 -1.750725E-06
vn 3.814761E-06 -2.8055E-06 1
vn 3.814761E-06 -2.8055E-06 1
vn 3.814761E-06 -2.8055E-06 1
vn 3.814761E-06 -2.8055E-06 1
vn 3.814721E-06 0 -1
vn 3.814721E-06 0 -1
vn 3.814721E-06 0 -1
vn 3.814721E-06 0 -1
vn 1 0 -2.890518E-06
vn 1 0 -2.890518E-06
vn 1 0 -2.890518E-06
vn 1 0 -2.890518E-06
vn 0 7.629411E-06 1
vn 0 7.629411E-06 1
vn 0 7.629411E-06 1
vn 0 7.629411E-06 1
vn -1 0 0
vn -1 0 0
vn -1 0 0
vn -1 0 0
vn 1 0 0
vn 1 0 0
vn 1 0 0
vn 1 0 0
vn 0 -1 0
vn 0 -1 0
vn 0 -1 0
vn 0 -1 0
vn 1 0 0
vn 1 0 0
vn 1 0 0
vn 1 0 0
vn 0 -1 0
vn 0 -1 0
vn 0 -1 0
vn 0 -1 0
vn -1 0 -2.368339E-06
vn -1 0 -2.368339E-06
vn -1 0 -2.368339E-06
vn -1 0 -2.368339E-06
vn 1 0 6.976163E-07
vn 1 0 6.976163E-07
vn 1 0 6.976163E-07
vn 1 0 6.976163E-07
vn -1 0 2.890518E-06
vn -1 0 2.890518E-06
vn -1 0 2.890518E-06
vn -1 0 2.890518E-06
vn -1 0 0
vn -1 0 0
vn -1 0 0
vn -1 0 0
vn -1 0 -5.394537E-07
vn -1 0 -5.394537E-07
vn -1 0 -5.394537E-07
vn -1 0 -5.394537E-07
vn -1 0 0
vn -1 0 0
vn -1 0 0
vn -1 0 0
vn 0 -3.317128E-07 -1
vn 0 -3.317128E-07 -1
vn 0 -3.317128E-07 -1
vn 0 -3.317128E-07 -1
vn 0 -6.634256E-07 -1
vn 0 -6.634256E-07 -1
vn 0 -6.634256E-07 -1
vn 0 -6.634256E-07 -1
vn 0 -1 -4.76837E-07
vn 0 -1 -4.76837E-07
vn 0 -1 -4.76837E-07
vn 0 -1 -4.76837E-07
vn 1 0 2.368339E-06
vn 1 0 2.368339E-06
vn 1 0 2.368339E-06
vn 1 0 2.368339E-06
vn -2.861026E-06 6.634261E-07 -1
vn -2.861026E-06 6.634261E-07 -1
vn -2.861026E-06 6.634261E-07 -1
vn -2.861026E-06 6.634261E-07 -1
vn 0 -1 -1.179359E-07
vn 0 -1 -1.179359E-07
vn 0 -1 -1.179359E-07
vn 0 -1 -1.179359E-07
vn 1 0 2.040973E-06
vn 1 0 2.040973E-06
vn 1 0 2.040973E-06
vn 1 0 2.040973E-06
vn 1 0 -3.96259E-06
vn 1 0 -3.96259E-06
vn 1 0 -3.96259E-06
vn 1 0 -3.96259E-06
vn 1 0 0
vn 1 0 0
vn 1 0 0
vn 1 0 0
vn -1.144419E-05 3.317155E-07 1
vn -1.144419E-05 3.317155E-07 1
vn -1.144419E-05 3.317155E-07 1
vn -1.144419E-05 3.317155E-07 1
vn 3.814658E-06 3.317094E-07 -1
vn 3.814658E-06 3.317094E-07 -1
vn 3.814658E-06 3.317094E-07 -1
vn 3.814658E-06 3.317094E-07 -1
vn 1 0 0
vn 1 0 0
vn 1 0 0
vn 1 0 0
vn -1 0 1.978283E-06
vn -1 0 1.978283E-06
vn -1 0 -0.0003335905
vn -1 0 1.978283E-06
vn 0 6.634256E-07 1
vn 0 6.634256E-07 1
vn 0 6.634256E-07 1
vn 0 6.634256E-07 1
g Dungeon_kosiyaki_0
f 3/3/3 2/2/2 1/1/1
f 4/4/4 1/1/1 2/2/2
f 3/3/3 1/1/1 5/5/5
f 1/1/1 6/6/6 5/5/5
f 9/9/9 8/8/8 7/7/7
f 10/10/10 9/9/9 7/7/7
f 13/13/13 12/12/12 11/11/11
f 14/14/14 13/13/13 11/11/11
f 17/17/17 16/16/16 15/15/15
f 18/18/18 17/17/17 15/15/15
f 18/18/18 19/19/19 17/17/17
f 20/20/20 17/17/17 19/19/19
f 23/23/23 22/22/22 21/21/21
f 24/24/24 21/21/21 22/22/22
f 21/21/21 24/24/24 25/25/25
f 26/26/26 21/21/21 25/25/25
f 29/29/29 28/28/28 27/27/27
f 30/30/30 29/29/29 27/27/27
f 29/29/29 30/30/30 31/31/31
f 32/32/32 29/29/29 31/31/31
f 35/35/35 34/34/34 33/33/33
f 36/36/36 35/35/35 33/33/33
f 39/39/39 38/38/38 37/37/37
f 40/40/40 37/37/37 38/38/38
f 37/37/37 40/40/40 41/41/41
f 42/42/42 37/37/37 41/41/41
f 45/45/45 44/44/44 43/43/43
f 46/46/46 45/45/45 43/43/43
f 49/49/49 48/48/48 47/47/47
f 50/50/50 49/49/49 47/47/47
f 53/53/53 52/52/52 51/51/51
f 54/54/54 53/53/53 51/51/51
f 57/57/57 56/56/56 55/55/55
f 58/58/58 57/57/57 55/55/55
f 61/61/61 60/60/60 59/59/59
f 62/62/62 61/61/61 59/59/59
f 65/65/65 64/64/64 63/63/63
f 66/66/66 65/65/65 63/63/63
f 69/69/69 68/68/68 67/67/67
f 70/70/70 69/69/69 67/67/67
f 73/73/73 72/72/72 71/71/71
f 74/74/74 73/73/73 71/71/71
f 77/77/77 76/76/76 75/75/75
f 78/78/78 77/77/77 75/75/75
f 81/81/81 80/80/80 79/79/79
f 82/82/82 81/81/81 79/79/79
f 85/85/85 84/84/84 83/83/83
f 86/86/86 85/85/85 83/83/83
f 89/89/89 88/88/88 87/87/87
f 90/90/90 89/89/89 87/87/87
f 93/93/93 92/92/92 91/91/91
f 94/94/94 93/93/93 91/91/91
f 97/97/97 96/96/96 95/95/95
f 98/98/98 97/97/97 95/95/95
f 101/101/101 100/100/100 99/99/99
f 102/102/102 101/101/101 99/99/99
f 105/105/105 104/104/104 103/103/103
f 106/106/106 105/105/105 103/103/103
f 109/109/109 108/108/108 107/107/107
f 110/110/110 109/109/109 107/107/107
f 113/113/113 112/112/112 111/111/111
f 114/114/114 113/113/113 111/111/111
f 117/117/117 116/116/116 115/115/115
f 118/118/118 117/117/117 115/115/115
f 121/121/121 120/120/120 119/119/119
f 122/122/122 121/121/121 119/119/119
f 125/125/125 124/124/124 123/123/123
f 126/126/126 125/125/125 123/123/123
f 129/129/129 128/128/128 127/127/127
f 130/130/130 129/129/129 127/127/127
f 133/133/133 132/132/132 131/131/131
f 134/134/134 133/133/133 131/131/131
f 137/137/137 136/136/136 135/135/135
f 138/138/138 137/137/137 135/135/135
f 141/141/141 140/140/140 139/139/139
f 142/142/142 141/141/141 139/139/139
f 145/145/145 144/144/144 143/143/143
f 146/146/146 145/145/145 143/143/143
f 149/149/149 148/148/148 147/147/147
f 150/150/150 149/149/149 147/147/147
f 153/153/153 152/152/152 151/151/151
f 154/154/154 153/153/153 151/151/151
f 157/157/157 156/156/156 155/155/155
f 158/158/158 157/157/157 155/155/155
f 161/161/161 160/160/160 159/159/159
f 162/162/162 161/161/161 159/159/159
f 165/165/165 164/164/164 163/163/163
f 166/166/166 165/165/165 163/163/163
f 169/169/169 168/168/168 167/167/167
f 170/170/170 169/169/169 167/167/167
f 173/173/173 172/172/172 171/171/171
f 174/174/174 173/173/173 171/171/171
f 177/177/177 176/176/176 175/175/175
f 178/178/178 177/177/177 175/175/175
f 181/181/181 180/180/180 179/179/179
f 182/182/182 181/181/181 179/179/179
f 185/185/185 184/184/184 183/183/183
f 186/186/186 185/185/185 183/183/183
f 189/189/189 188/188/188 187/187/187
f 190/190/190 189/189/189 187/187/187
f 193/193/193 192/192/192 191/191/191
f 194/194/194 193/193/193 191/191/191
f 197/197/197 196/196/196 195/195/195
f 198/198/198 197/197/197 195/195/195
f 201/201/201 200/200/200 199/199/199
f 202/202/202 201/201/201 199/199/199
f 205/205/205 204/204/204 203/203/203
f 206/206/206 205/205/205 203/203/203
f 209/209/209 208/208/208 207/207/207
f 210/210/210 209/209/209 207/207/207
f 213/213/213 212/212/212 211/211/211
f 214/214/214 213/213/213 211/211/211
f 217/217/217 216/216/216 215/215/215
f 218/218/218 217/217/217 215/215/215
