g dungeon_mv_mine_column_lod0
v 0.1559552 -0.1517712 0
v 0.1556445 -0.1516418 6.329225
v 0.1554535 0.1518933 6.331091
v 0.1557654 0.1516516 0.0001379395
v 0.1557654 0.1516516 0.0001379395
v 0.1554535 0.1518933 6.331091
v -0.1559552 0.1516943 6.330678
v -0.1556036 0.1514502 -0.0001611328
v 0.1559552 -0.1517712 0
v -0.1553894 -0.1518933 -0.0002215576
v -0.1557391 -0.1517603 6.328814
v 0.1556445 -0.1516418 6.329225
v 0.1556445 -0.1516418 6.329225
v -0.1557391 -0.1517603 6.328814
v -0.1559552 0.1516943 6.330678
v 0.1554535 0.1518933 6.331091
v -0.1553894 -0.1518933 -0.0002215576
v -0.1556036 0.1514502 -0.0001611328
v -0.1559552 0.1516943 6.330678
v -0.1557391 -0.1517603 6.328814
vt 0.2683347 0.4564858
vt 0.2683347 0.2962074
vt 0.2614794 0.2962074
vt 0.2608884 0.4564858
vt 0.2683347 0.4564858
vt 0.2683347 0.2962074
vt 0.2608884 0.2962074
vt 0.2606443 0.4564858
vt 0.2606443 0.4564858
vt 0.2683347 0.4564858
vt 0.2683347 0.2962074
vt 0.2605222 0.2962074
vt 0.270257 0.3075032
vt 0.2780686 0.3074934
vt 0.2780693 0.2996911
vt 0.2702568 0.2996917
vt 0.2683347 0.4564858
vt 0.2608884 0.4564858
vt 0.2613767 0.2962074
vt 0.2683347 0.2962074
vn 0.9999999 0.0006273265 4.915615E-05
vn 0.9999999 0.0006273265 4.915615E-05
vn 0.9999999 0.0006273264 4.915616E-05
vn 0.9999999 0.0006273265 4.915615E-05
vn -0.000642867 0.9999999 -3.840422E-05
vn -0.000642867 0.9999999 -3.840422E-05
vn -0.0006428669 0.9999999 -3.840422E-05
vn -0.0006428669 0.9999999 -3.840421E-05
vn 0.0003861482 -1 2.075374E-05
vn 0.0003861482 -1 2.075374E-05
vn 0.0003861482 -1 2.075374E-05
vn 0.0003861482 -1 2.075374E-05
vn -0.001321834 -0.006146616 0.9999802
vn -0.001321834 -0.006146616 0.9999802
vn -0.001321834 -0.006146616 0.9999802
vn -0.001321834 -0.006146616 0.9999802
vn -0.9999998 -0.0007089528 -5.537389E-05
vn -0.9999998 -0.0007089528 -5.537389E-05
vn -0.9999998 -0.0007089528 -5.537388E-05
vn -0.9999998 -0.0007089528 -5.537389E-05
g dungeon_mv_mine_column_lod0_0
f 3/3/3 2/2/2 1/1/1
f 4/4/4 3/3/3 1/1/1
f 7/7/7 6/6/6 5/5/5
f 8/8/8 7/7/7 5/5/5
f 11/11/11 10/10/10 9/9/9
f 12/12/12 11/11/11 9/9/9
f 15/15/15 14/14/14 13/13/13
f 16/16/16 15/15/15 13/13/13
f 19/19/19 18/18/18 17/17/17
f 20/20/20 19/19/19 17/17/17
