g Dungeon_building_06
v 7.491283 19.15039 -5.013057
v 7.491285 19.15039 5.013095
v -7.491258 19.15039 5.013094
v -7.491253 19.15039 -5.013054
v 1.342773E-05 19.15039 5.013095
v 7.491285 19.15039 5.013095
v 7.491285 18.71426 5.013095
v 1.342773E-05 18.71426 5.013095
v 7.491285 19.15039 1.953125E-05
v 7.491283 19.15039 -5.013057
v 7.491283 18.71426 -5.013059
v 7.491285 18.71426 1.953125E-05
v 1.586914E-05 19.15039 -5.013057
v -7.491253 19.15039 -5.013054
v -7.491253 18.71426 -5.013057
v 1.586914E-05 18.71426 -5.013057
v -7.491256 19.15039 2.197266E-05
v -7.491258 19.15039 5.013094
v -7.491258 18.71426 5.013095
v -7.491256 18.71426 1.953125E-05
v -7.491261 8.150394 5.013048
v -7.491258 15.89628 5.013076
v 1.342773E-05 15.89628 5.013077
v 1.098633E-05 8.150394 5.013048
v 7.491283 8.150394 5.013048
v 7.491285 15.89628 5.013079
v 7.491285 15.89629 0
v 7.491283 8.150397 -2.929687E-05
v 7.491283 8.150401 -5.013105
v 7.491283 15.89629 -5.013079
v 1.586914E-05 15.89629 -5.013079
v 1.342773E-05 8.150401 -5.013103
v -7.491256 8.150401 -5.013103
v -7.491253 15.89629 -5.013079
v -7.491256 15.89629 -2.441406E-06
v -7.491258 8.150397 -2.685547E-05
v -7.491258 15.89628 5.013076
v -7.491258 18.71426 5.013095
v 1.342773E-05 18.71426 5.013095
v 1.342773E-05 15.89628 5.013077
v 7.491285 15.89628 5.013079
v 7.491285 18.71426 5.013095
v 7.491285 18.71426 1.953125E-05
v 7.491285 15.89629 0
v 7.491283 15.89629 -5.013079
v 7.491283 18.71426 -5.013059
v 1.586914E-05 18.71426 -5.013057
v 1.586914E-05 15.89629 -5.013079
v -7.491253 15.89629 -5.013079
v -7.491253 18.71426 -5.013057
v -7.491256 18.71426 1.953125E-05
v -7.491256 15.89629 -2.441406E-06
v -7.491258 19.15039 5.013094
v 1.342773E-05 19.15039 5.013095
v 1.342773E-05 18.71426 5.013095
v -7.491258 18.71426 5.013095
v 7.491283 19.15039 -5.013057
v 1.586914E-05 19.15039 -5.013057
v 1.586914E-05 18.71426 -5.013057
v 7.491283 18.71426 -5.013059
v 7.491283 8.150394 5.013048
v 1.098633E-05 8.150394 5.013048
v 1.342773E-05 15.89628 5.013077
v 7.491285 15.89628 5.013079
v -7.491256 8.150401 -5.013103
v 1.342773E-05 8.150401 -5.013103
v 1.586914E-05 15.89629 -5.013079
v -7.491253 15.89629 -5.013079
v 7.491285 15.89628 5.013079
v 1.342773E-05 15.89628 5.013077
v 1.342773E-05 18.71426 5.013095
v 7.491285 18.71426 5.013095
v -7.491253 15.89629 -5.013079
v 1.586914E-05 15.89629 -5.013079
v 1.586914E-05 18.71426 -5.013057
v -7.491253 18.71426 -5.013057
v 7.491285 19.15039 5.013095
v 7.491285 19.15039 1.953125E-05
v 7.491285 18.71426 1.953125E-05
v 7.491285 18.71426 5.013095
v -7.491253 19.15039 -5.013054
v -7.491256 19.15039 2.197266E-05
v -7.491256 18.71426 1.953125E-05
v -7.491253 18.71426 -5.013057
v 7.491283 8.150401 -5.013105
v 7.491283 8.150397 -2.929687E-05
v 7.491285 15.89629 0
v 7.491283 15.89629 -5.013079
v -7.491261 8.150394 5.013048
v -7.491258 8.150397 -2.685547E-05
v -7.491256 15.89629 -2.441406E-06
v -7.491258 15.89628 5.013076
v 7.491283 15.89629 -5.013079
v 7.491285 15.89629 0
v 7.491285 18.71426 1.953125E-05
v 7.491283 18.71426 -5.013059
v -7.491258 15.89628 5.013076
v -7.491256 15.89629 -2.441406E-06
v -7.491256 18.71426 1.953125E-05
v -7.491258 18.71426 5.013095
vt -37.13395 -29.01696
vt -37.13396 -18.99081
vt -22.15141 -18.99081
vt -22.15142 -29.01695
vt 0.4628906 0.6015625
vt 0.4628906 0.9960938
vt 0.484375 0.9960938
vt 0.484375 0.6015625
vt 0.4628906 0.6015625
vt 0.4628906 0.8671875
vt 0.484375 0.8671875
vt 0.484375 0.6015625
vt 0.4628906 0.6015625
vt 0.4628906 0.9960938
vt 0.484375 0.9960938
vt 0.484375 0.6015625
vt 0.4628906 0.6015625
vt 0.4628906 0.8671875
vt 0.484375 0.8671875
vt 0.484375 0.6015625
vt 1 0.6015625
vt 0.5917969 0.6015625
vt 0.5917969 0.9970703
vt 1 0.9970703
vt 1 0.8671875
vt 0.5917969 0.8671875
vt 0.5917969 0.6015625
vt 1 0.6015625
vt 1 0.6015625
vt 0.5917969 0.6015625
vt 0.5917969 0.9970703
vt 1 0.9970703
vt 1 0.8671875
vt 0.5917969 0.8671875
vt 0.5917969 0.6015625
vt 1 0.6015625
vt 0.8398438 0.6015625
vt 0.6921157 0.6015625
vt 0.6921156 0.9970703
vt 0.8398438 0.9970703
vt 0.8398438 0.8671875
vt 0.6921156 0.867188
vt 0.6921157 0.6015624
vt 0.8398438 0.6015625
vt 0.8398438 0.6015625
vt 0.6921158 0.6015625
vt 0.6921158 0.9970703
vt 0.8398438 0.9970703
vt 0.8398438 0.8671875
vt 0.6921158 0.8671868
vt 0.6921157 0.6015625
vt 0.8398438 0.6015625
vt 0.4628906 0.6015625
vt 0.4628906 0.9960938
vt 0.484375 0.9960938
vt 0.484375 0.6015625
vt 0.4628906 0.6015625
vt 0.4628906 0.9960938
vt 0.484375 0.9960938
vt 0.484375 0.6015625
vt 1 0.9960938
vt 1 0.6015625
vt 0.5917969 0.6015625
vt 0.5917969 0.9960938
vt 1 0.9960938
vt 1 0.6015625
vt 0.5917969 0.6015625
vt 0.5917969 0.9960938
vt 0.8398438 0.9960938
vt 0.8398438 0.6015625
vt 0.6921156 0.6015625
vt 0.6921156 0.9960938
vt 0.8398438 0.9960938
vt 0.8398438 0.6015625
vt 0.6921158 0.6015625
vt 0.6921158 0.9960938
vt 0.4628906 0.6015625
vt 0.4628906 0.8671875
vt 0.484375 0.8671875
vt 0.484375 0.6015625
vt 0.4628906 0.6015625
vt 0.4628906 0.8671875
vt 0.484375 0.8671875
vt 0.484375 0.6015625
vt 1 0.8671875
vt 1 0.6015625
vt 0.5917969 0.6015625
vt 0.5917969 0.8671875
vt 1 0.8671875
vt 1 0.6015625
vt 0.5917969 0.6015625
vt 0.5917969 0.8671875
vt 0.8398438 0.8671875
vt 0.8398438 0.6015625
vt 0.6921157 0.6015619
vt 0.6921158 0.8671876
vt 0.8398438 0.8671875
vt 0.8398438 0.6015625
vt 0.6921157 0.6015632
vt 0.6921157 0.8671874
vn 0 1 3.652558E-07
vn 0 1 3.652558E-07
vn 0 1 3.652558E-07
vn 0 1 3.652558E-07
vn 0 6.997441E-07 1
vn 0 0 1
vn 0 -3.140583E-06 1
vn 0 -2.899007E-06 1
vn 1 0 -2.435038E-07
vn 1 0 -4.870075E-07
vn 1 0 -4.870075E-07
vn 1 0 -2.435032E-07
vn -1.629501E-07 2.798972E-06 -1
vn -1.629501E-07 2.798972E-06 -1
vn 0 5.298146E-06 -1
vn -1.222126E-07 5.189851E-06 -1
vn -1 0 -4.870078E-07
vn -1 0 -4.870078E-07
vn -1 0 -4.870077E-07
vn -1 0 -4.870076E-07
vn 0 -3.703452E-06 1
vn 0 -5.208901E-06 1
vn 0 -5.140002E-06 1
vn 0 -3.782249E-06 1
vn 1 -3.151874E-07 0
vn 1 -1.575933E-07 0
vn 1 -1.181943E-07 -1.826282E-07
vn 1 -2.3639E-07 -1.217523E-07
vn -1.629501E-07 3.309468E-06 -1
vn -1.629501E-07 5.336803E-06 -1
vn 0 5.405699E-06 -1
vn 0 3.230671E-06 -1
vn -1 3.151889E-07 -4.870074E-07
vn -1 1.575969E-07 -4.870075E-07
vn -1 1.575963E-07 -4.870075E-07
vn -1 3.151889E-07 -4.870074E-07
vn 0 -5.208901E-06 1
vn 0 -2.657432E-06 1
vn 0 -2.899007E-06 1
vn 0 -5.140002E-06 1
vn 1 -1.575933E-07 0
vn 1 0 0
vn 1 0 -2.435032E-07
vn 1 -1.181943E-07 -1.826282E-07
vn -1.629501E-07 5.336803E-06 -1
vn -1.629502E-07 5.081554E-06 -1
vn -1.222126E-07 5.189851E-06 -1
vn 0 5.405699E-06 -1
vn -1 1.575969E-07 -4.870075E-07
vn -1 0 -4.870076E-07
vn -1 0 -4.870076E-07
vn -1 1.575963E-07 -4.870075E-07
vn 0 1.399488E-06 1
vn 0 6.997441E-07 1
vn 0 -2.899007E-06 1
vn 0 -2.657432E-06 1
vn -1.629502E-07 2.798972E-06 -1
vn -1.629501E-07 2.798972E-06 -1
vn -1.222126E-07 5.189851E-06 -1
vn -1.629502E-07 5.081554E-06 -1
vn 0 -3.861046E-06 1
vn 0 -3.782249E-06 1
vn 0 -5.140002E-06 1
vn 0 -5.071104E-06 1
vn 0 3.151874E-06 -1
vn 0 3.230671E-06 -1
vn 0 5.405699E-06 -1
vn 0 5.474597E-06 -1
vn 0 -5.071104E-06 1
vn 0 -5.140002E-06 1
vn 0 -2.899007E-06 1
vn 0 -3.140583E-06 1
vn 0 5.474597E-06 -1
vn 0 5.405699E-06 -1
vn -1.222126E-07 5.189851E-06 -1
vn 0 5.298146E-06 -1
vn 1 0 0
vn 1 0 -2.435038E-07
vn 1 0 -2.435032E-07
vn 1 0 0
vn -1 0 -4.870076E-07
vn -1 0 -4.870078E-07
vn -1 0 -4.870076E-07
vn -1 0 -4.870076E-07
vn 1 -1.575928E-07 -2.435039E-07
vn 1 -2.3639E-07 -1.217523E-07
vn 1 -1.181943E-07 -1.826282E-07
vn 1 0 -3.652553E-07
vn -1 3.15189E-07 -4.870074E-07
vn -1 3.151889E-07 -4.870074E-07
vn -1 1.575963E-07 -4.870075E-07
vn -1 1.575958E-07 -4.870075E-07
vn 1 0 -3.652553E-07
vn 1 -1.181943E-07 -1.826282E-07
vn 1 0 -2.435032E-07
vn 1 0 -4.870075E-07
vn -1 1.575958E-07 -4.870075E-07
vn -1 1.575963E-07 -4.870075E-07
vn -1 0 -4.870076E-07
vn -1 0 -4.870077E-07
g Dungeon_building_06_0
f 3/3/3 2/2/2 1/1/1
f 4/4/4 3/3/3 1/1/1
g Dungeon_building_06_1
f 7/7/7 6/6/6 5/5/5
f 8/8/8 7/7/7 5/5/5
f 11/11/11 10/10/10 9/9/9
f 12/12/12 11/11/11 9/9/9
f 15/15/15 14/14/14 13/13/13
f 16/16/16 15/15/15 13/13/13
f 19/19/19 18/18/18 17/17/17
f 20/20/20 19/19/19 17/17/17
f 23/23/23 22/22/22 21/21/21
f 24/24/24 23/23/23 21/21/21
f 27/27/27 26/26/26 25/25/25
f 28/28/28 27/27/27 25/25/25
f 31/31/31 30/30/30 29/29/29
f 32/32/32 31/31/31 29/29/29
f 35/35/35 34/34/34 33/33/33
f 36/36/36 35/35/35 33/33/33
f 39/39/39 38/38/38 37/37/37
f 40/40/40 39/39/39 37/37/37
f 43/43/43 42/42/42 41/41/41
f 44/44/44 43/43/43 41/41/41
f 47/47/47 46/46/46 45/45/45
f 48/48/48 47/47/47 45/45/45
f 51/51/51 50/50/50 49/49/49
f 52/52/52 51/51/51 49/49/49
f 55/55/55 54/54/54 53/53/53
f 56/56/56 55/55/55 53/53/53
f 59/59/59 58/58/58 57/57/57
f 60/60/60 59/59/59 57/57/57
f 63/63/63 62/62/62 61/61/61
f 64/64/64 63/63/63 61/61/61
f 67/67/67 66/66/66 65/65/65
f 68/68/68 67/67/67 65/65/65
f 71/71/71 70/70/70 69/69/69
f 72/72/72 71/71/71 69/69/69
f 75/75/75 74/74/74 73/73/73
f 76/76/76 75/75/75 73/73/73
f 79/79/79 78/78/78 77/77/77
f 80/80/80 79/79/79 77/77/77
f 83/83/83 82/82/82 81/81/81
f 84/84/84 83/83/83 81/81/81
f 87/87/87 86/86/86 85/85/85
f 88/88/88 87/87/87 85/85/85
f 91/91/91 90/90/90 89/89/89
f 92/92/92 91/91/91 89/89/89
f 95/95/95 94/94/94 93/93/93
f 96/96/96 95/95/95 93/93/93
f 99/99/99 98/98/98 97/97/97
f 100/100/100 99/99/99 97/97/97
