g Dungeon_Object103
v -57.59322 2.81767 -10.526
v -56.59322 2.817669 -9.526004
v -56.59322 2.817669 -10.526
v -57.59322 2.81767 -9.526004
v -57.59321 2.86767 -10.526
v -56.59322 2.817669 -10.526
v -56.59321 2.867669 -10.526
v -57.59322 2.81767 -10.526
v -56.59321 2.867669 -10.526
v -56.59322 2.817669 -9.526004
v -56.59321 2.867669 -9.526004
v -56.59322 2.817669 -10.526
v -56.59321 2.867669 -9.526004
v -57.59322 2.81767 -9.526004
v -57.59321 2.86767 -9.526004
v -56.59322 2.817669 -9.526004
v -57.59321 2.86767 -9.526004
v -57.59322 2.81767 -10.526
v -57.59321 2.86767 -10.526
v -57.59322 2.81767 -9.526004
v -57.5796 2.817672 -15.54575
v -56.5796 2.81767 -14.54575
v -56.5796 2.81767 -15.54575
v -57.5796 2.817671 -14.54575
v -57.5796 2.867671 -15.54575
v -56.5796 2.81767 -15.54575
v -56.5796 2.86767 -15.54575
v -57.5796 2.817672 -15.54575
v -56.5796 2.86767 -15.54575
v -56.5796 2.81767 -14.54575
v -56.5796 2.86767 -14.54575
v -56.5796 2.81767 -15.54575
v -56.5796 2.86767 -14.54575
v -57.5796 2.817671 -14.54575
v -57.5796 2.867671 -14.54575
v -56.5796 2.81767 -14.54575
v -57.5796 2.867671 -14.54575
v -57.5796 2.817672 -15.54575
v -57.5796 2.867671 -15.54575
v -57.5796 2.817671 -14.54575
v -57.57018 2.817669 -6.481468
v -56.57018 2.817669 -5.481468
v -56.57018 2.817669 -6.481468
v -57.57018 2.81767 -5.481468
v -57.57018 2.867669 -6.481468
v -56.57018 2.817669 -6.481468
v -56.57018 2.867669 -6.481468
v -57.57018 2.817669 -6.481468
v -56.57018 2.867669 -6.481468
v -56.57018 2.817669 -5.481468
v -56.57018 2.867669 -5.481468
v -56.57018 2.817669 -6.481468
v -56.57018 2.867669 -5.481468
v -57.57018 2.81767 -5.481468
v -57.57018 2.86767 -5.481468
v -56.57018 2.817669 -5.481468
v -57.57018 2.86767 -5.481468
v -57.57018 2.817669 -6.481468
v -57.57018 2.867669 -6.481468
v -57.57018 2.81767 -5.481468
v -57.59322 2.817668 2.4105
v -56.59322 2.817668 3.4105
v -56.59322 2.817668 2.4105
v -57.59322 2.817668 3.4105
v -57.59321 2.867669 2.4105
v -56.59322 2.817668 2.4105
v -56.59321 2.867668 2.4105
v -57.59322 2.817668 2.4105
v -56.59321 2.867668 2.4105
v -56.59322 2.817668 3.4105
v -56.59321 2.867668 3.4105
v -56.59322 2.817668 2.4105
v -56.59321 2.867668 3.4105
v -57.59322 2.817668 3.4105
v -57.59321 2.867669 3.4105
v -56.59322 2.817668 3.4105
v -57.59321 2.867669 3.4105
v -57.59322 2.817668 2.4105
v -57.59321 2.867669 2.4105
v -57.59322 2.817668 3.4105
v -57.5796 2.81767 -2.609248
v -56.5796 2.817669 -1.609248
v -56.5796 2.817668 -2.609248
v -57.5796 2.81767 -1.609248
v -57.5796 2.86767 -2.609248
v -56.5796 2.817668 -2.609248
v -56.5796 2.867669 -2.609248
v -57.5796 2.81767 -2.609248
v -56.5796 2.867669 -2.609248
v -56.5796 2.817669 -1.609248
v -56.5796 2.867669 -1.609248
v -56.5796 2.817668 -2.609248
v -56.5796 2.867669 -1.609248
v -57.5796 2.81767 -1.609248
v -57.5796 2.86767 -1.609248
v -56.5796 2.817669 -1.609248
v -57.5796 2.86767 -1.609248
v -57.5796 2.81767 -2.609248
v -57.5796 2.86767 -2.609248
v -57.5796 2.81767 -1.609248
vt 0.1074219 0.6542969
vt 0.1376953 0.6855469
vt 0.1376953 0.6542969
vt 0.1074219 0.6855469
vt 0.1083984 0.6845703
vt 0.1357422 0.6855469
vt 0.1357422 0.6845703
vt 0.1083984 0.6855469
vt 0.1083984 0.6845703
vt 0.1357422 0.6855469
vt 0.1357422 0.6845703
vt 0.1083984 0.6855469
vt 0.1083984 0.6845703
vt 0.1357422 0.6855469
vt 0.1357422 0.6845703
vt 0.1083984 0.6855469
vt 0.1083984 0.6845703
vt 0.1357422 0.6855469
vt 0.1357422 0.6845703
vt 0.1083984 0.6855469
vt 0.1074219 0.6542969
vt 0.1376953 0.6855469
vt 0.1376953 0.6542969
vt 0.1074219 0.6855469
vt 0.1083984 0.6845703
vt 0.1357422 0.6855469
vt 0.1357422 0.6845703
vt 0.1083984 0.6855469
vt 0.1083984 0.6845703
vt 0.1357422 0.6855469
vt 0.1357422 0.6845703
vt 0.1083984 0.6855469
vt 0.1083984 0.6845703
vt 0.1357422 0.6855469
vt 0.1357422 0.6845703
vt 0.1083984 0.6855469
vt 0.1083984 0.6845703
vt 0.1357422 0.6855469
vt 0.1357422 0.6845703
vt 0.1083984 0.6855469
vt 0.1074219 0.6542969
vt 0.1376953 0.6855469
vt 0.1376953 0.6542969
vt 0.1074219 0.6855469
vt 0.1083984 0.6845703
vt 0.1357422 0.6855469
vt 0.1357422 0.6845703
vt 0.1083984 0.6855469
vt 0.1083984 0.6845703
vt 0.1357422 0.6855469
vt 0.1357422 0.6845703
vt 0.1083984 0.6855469
vt 0.1083984 0.6845703
vt 0.1357422 0.6855469
vt 0.1357422 0.6845703
vt 0.1083984 0.6855469
vt 0.1083984 0.6845703
vt 0.1357422 0.6855469
vt 0.1357422 0.6845703
vt 0.1083984 0.6855469
vt 0.1074219 0.6542969
vt 0.1376953 0.6855469
vt 0.1376953 0.6542969
vt 0.1074219 0.6855469
vt 0.1083984 0.6845703
vt 0.1357422 0.6855469
vt 0.1357422 0.6845703
vt 0.1083984 0.6855469
vt 0.1083984 0.6845703
vt 0.1357422 0.6855469
vt 0.1357422 0.6845703
vt 0.1083984 0.6855469
vt 0.1083984 0.6845703
vt 0.1357422 0.6855469
vt 0.1357422 0.6845703
vt 0.1083984 0.6855469
vt 0.1083984 0.6845703
vt 0.1357422 0.6855469
vt 0.1357422 0.6845703
vt 0.1083984 0.6855469
vt 0.1074219 0.6542969
vt 0.1376953 0.6855469
vt 0.1376953 0.6542969
vt 0.1074219 0.6855469
vt 0.1083984 0.6845703
vt 0.1357422 0.6855469
vt 0.1357422 0.6845703
vt 0.1083984 0.6855469
vt 0.1083984 0.6845703
vt 0.1357422 0.6855469
vt 0.1357422 0.6845703
vt 0.1083984 0.6855469
vt 0.1083984 0.6845703
vt 0.1357422 0.6855469
vt 0.1357422 0.6845703
vt 0.1083984 0.6855469
vt 0.1083984 0.6845703
vt 0.1357422 0.6855469
vt 0.1357422 0.6845703
vt 0.1083984 0.6855469
vn -9.536743E-07 -1 2.384113E-07
vn -9.536743E-07 -1 2.384113E-07
vn -9.536743E-07 -1 2.384113E-07
vn -6.874713E-05 -1 -6.779671E-05
vn 0 3.96771E-06 -1
vn 0 3.96771E-06 -1
vn 0 3.96771E-06 -1
vn 0 -3.967748E-06 -1
vn 1 -7.629424E-05 -9.536798E-06
vn 1 -7.629424E-05 -9.536798E-06
vn 1 -7.629424E-05 -9.536798E-06
vn 1 -7.629438E-05 9.536798E-06
vn 0 3.967856E-06 1
vn 7.055856E-05 -6.094604E-05 1
vn 0.000166058 -9.191864E-05 1
vn 0 -3.967893E-06 1
vn -1 6.990934E-05 -0.0001916471
vn -1 7.629438E-05 0
vn -1 7.629438E-05 0
vn -1 0.0001440902 6.779346E-05
vn -1.907349E-06 -1 2.384149E-07
vn -1.907349E-06 -1 2.384149E-07
vn -1.907349E-06 -1 2.384149E-07
vn -9.536743E-07 -1 -2.384077E-07
vn 0 0 -1
vn 0 0 -1
vn 0 0 -1
vn 0 0 -1
vn 1 0 0
vn 1 0 0
vn 1 0 0
vn 1 0 0
vn 0 0 1
vn 0 0 1
vn 0 0 1
vn 0 0 1
vn -1 0 0
vn -1 0 0
vn -1 0 0
vn -1 0 0
vn -4.768372E-07 -1 0
vn -4.768372E-07 -1 0
vn -4.768372E-07 -1 0
vn -9.536743E-07 -1 2.384204E-07
vn -9.536743E-07 0 -1
vn -9.536743E-07 0 -1
vn -9.536743E-07 0 -1
vn -9.536834E-07 0 -1
vn 1 0 0
vn 1 0 0
vn 1 0 0
vn 1 0 0
vn 9.536743E-07 0 1
vn 9.536743E-07 0 1
vn 9.536743E-07 0 1
vn 9.536743E-07 0 1
vn -1 0 0
vn -1 0 0
vn -1 0 0
vn -1 0 0
vn -9.536743E-07 -1 4.768372E-07
vn -9.536743E-07 -1 4.768372E-07
vn -9.536743E-07 -1 4.84152E-05
vn -3.39016E-05 -1 -3.389348E-05
vn 0 4.119813E-06 -1
vn -4.787849E-05 6.513801E-06 -1
vn 0.0003321831 -0.0001875369 -0.9999999
vn 0 -4.119813E-06 -1
vn 0.9999999 0.0003006595 6.107239E-05
vn 1 -7.629365E-05 -9.536707E-06
vn 1 -7.629365E-05 -9.536707E-06
vn 1 -2.835529E-05 0
vn 0 4.119813E-06 1
vn 3.527458E-05 -2.834223E-05 1
vn 0.000249087 -0.0001397099 0.9999999
vn 0 -4.119813E-06 1
vn -0.9999999 6.671534E-05 -0.0002874707
vn -1 7.629293E-05 0
vn -1 7.629293E-05 0
vn -1 0.0001101871 3.39016E-05
vn -1.907349E-06 -1 4.768444E-07
vn -1.907349E-06 -1 4.768444E-07
vn -1.907349E-06 -1 4.768444E-07
vn -4.768372E-07 -1 -2.384222E-07
vn 0 0 -1
vn 0 0 -1
vn 0 0 -1
vn 0 0 -1
vn 1 0 0
vn 1 0 0
vn 1 0 0
vn 1 0 0
vn 2.384186E-07 0 1
vn 2.384186E-07 0 1
vn 2.384186E-07 0 1
vn 2.384186E-07 0 1
vn -1 0 -9.536798E-06
vn -1 0 -9.536798E-06
vn -1 0 -9.536798E-06
vn -1 0 9.536798E-06
g Dungeon_Object103_0
f 3/3/3 2/2/2 1/1/1
f 4/4/4 1/1/1 2/2/2
f 7/7/7 6/6/6 5/5/5
f 8/8/8 5/5/5 6/6/6
f 11/11/11 10/10/10 9/9/9
f 12/12/12 9/9/9 10/10/10
f 15/15/15 14/14/14 13/13/13
f 16/16/16 13/13/13 14/14/14
f 19/19/19 18/18/18 17/17/17
f 20/20/20 17/17/17 18/18/18
f 23/23/23 22/22/22 21/21/21
f 24/24/24 21/21/21 22/22/22
f 27/27/27 26/26/26 25/25/25
f 28/28/28 25/25/25 26/26/26
f 31/31/31 30/30/30 29/29/29
f 32/32/32 29/29/29 30/30/30
f 35/35/35 34/34/34 33/33/33
f 36/36/36 33/33/33 34/34/34
f 39/39/39 38/38/38 37/37/37
f 40/40/40 37/37/37 38/38/38
f 43/43/43 42/42/42 41/41/41
f 44/44/44 41/41/41 42/42/42
f 47/47/47 46/46/46 45/45/45
f 48/48/48 45/45/45 46/46/46
f 51/51/51 50/50/50 49/49/49
f 52/52/52 49/49/49 50/50/50
f 55/55/55 54/54/54 53/53/53
f 56/56/56 53/53/53 54/54/54
f 59/59/59 58/58/58 57/57/57
f 60/60/60 57/57/57 58/58/58
f 63/63/63 62/62/62 61/61/61
f 64/64/64 61/61/61 62/62/62
f 67/67/67 66/66/66 65/65/65
f 68/68/68 65/65/65 66/66/66
f 71/71/71 70/70/70 69/69/69
f 72/72/72 69/69/69 70/70/70
f 75/75/75 74/74/74 73/73/73
f 76/76/76 73/73/73 74/74/74
f 79/79/79 78/78/78 77/77/77
f 80/80/80 77/77/77 78/78/78
f 83/83/83 82/82/82 81/81/81
f 84/84/84 81/81/81 82/82/82
f 87/87/87 86/86/86 85/85/85
f 88/88/88 85/85/85 86/86/86
f 91/91/91 90/90/90 89/89/89
f 92/92/92 89/89/89 90/90/90
f 95/95/95 94/94/94 93/93/93
f 96/96/96 93/93/93 94/94/94
f 99/99/99 98/98/98 97/97/97
f 100/100/100 97/97/97 98/98/98
