g Dungeon_fonariki
v -11.70983 10.28888 -35.92745
v -11.70982 10.28888 -38.1294
v -12.3997 10.28888 -38.1294
v -12.3997 10.28888 -35.92745
v 3.910721 9.167263 2.850043
v 0.06457175 9.167264 2.85004
v 0.06457199 9.167264 3.390645
v 3.910722 9.167263 3.390648
v 61.51696 12.00186 -15.53997
v 60.82708 12.00186 -15.53997
v 60.82708 12.62908 -15.53997
v 61.51696 12.62908 -15.53997
v -12.3997 10.82863 -35.92745
v -12.3997 10.82864 -38.1294
v -11.70982 10.82863 -38.1294
v -11.70982 10.82863 -35.92745
v 3.910722 10.62216 3.390648
v 0.06457241 10.62216 3.390645
v 0.06457216 10.62217 2.85004
v 3.910722 10.62216 2.850042
v -12.3997 10.28888 -35.92745
v -12.3997 10.82863 -35.92745
v -11.70982 10.82863 -35.92745
v -11.70983 10.28888 -35.92745
v 3.910722 9.167263 3.390648
v 3.910722 10.62216 3.390648
v 3.910722 10.62216 2.850042
v 3.910721 9.167263 2.850043
v 61.51697 12.00186 -27.30113
v 60.82709 12.00186 -27.30113
v 60.82709 12.62908 -27.30113
v 61.51697 12.62908 -27.30113
v -12.39971 10.82863 -2.118523
v -12.39971 10.82864 -4.208652
v -11.70983 10.82863 -4.208652
v -11.70983 10.82863 -2.118522
v 61.51697 12.00186 -29.39127
v 61.51697 12.00186 -27.30113
v 61.51697 12.62908 -27.30113
v 61.51697 12.62908 -29.39127
v 3.910722 9.167263 3.390648
v 0.06457199 9.167264 3.390645
v 0.06457241 10.62216 3.390645
v 3.910722 10.62216 3.390648
v 61.51697 12.62908 -29.39127
v 61.51697 12.62908 -27.30113
v 60.82709 12.62908 -27.30113
v 60.82709 12.62908 -29.39127
v 0.06457199 9.167264 3.390645
v 0.06457175 9.167264 2.85004
v 0.06457216 10.62217 2.85004
v 0.06457241 10.62216 3.390645
v 45.18839 9.167253 3.390658
v 45.18839 9.167254 2.850053
v 45.18839 10.62216 2.850053
v 45.18839 10.62215 3.390659
v 61.51696 12.00186 -17.63011
v 61.51696 12.00186 -15.53997
v 61.51696 12.62908 -15.53997
v 61.51696 12.62908 -17.63011
v -12.39971 10.20142 -2.118523
v -12.39971 10.20142 -4.208652
v -12.39971 10.82864 -4.208652
v -12.39971 10.82863 -2.118523
v -11.70984 10.20141 -2.118523
v -11.70983 10.20142 -4.208652
v -12.39971 10.20142 -4.208652
v -12.39971 10.20142 -2.118523
v 49.03453 10.62215 3.390661
v 45.18839 10.62215 3.390659
v 45.18839 10.62216 2.850053
v 49.03453 10.62215 2.850055
v -12.39971 10.20142 -4.208652
v -11.70983 10.20142 -4.208652
v -11.70983 10.82863 -4.208652
v -12.39971 10.82864 -4.208652
v 49.03453 9.167252 2.850056
v 45.18839 9.167254 2.850053
v 45.18839 9.167253 3.390658
v 49.03453 9.167252 3.390661
v -12.3997 10.28888 -35.92745
v -12.3997 10.28888 -38.1294
v -12.3997 10.82864 -38.1294
v -12.3997 10.82863 -35.92745
v 49.03453 9.167252 3.390661
v 45.18839 9.167253 3.390658
v 45.18839 10.62215 3.390659
v 49.03453 10.62215 3.390661
v -12.39971 10.20142 -2.118523
v -12.39971 10.82863 -2.118523
v -11.70983 10.82863 -2.118522
v -11.70984 10.20141 -2.118523
v 49.03453 9.167252 3.390661
v 49.03453 10.62215 3.390661
v 49.03453 10.62215 2.850055
v 49.03453 9.167252 2.850056
v 61.51696 12.00186 -17.63011
v 61.51696 12.62908 -17.63011
v 60.82708 12.62908 -17.63011
v 60.82708 12.00186 -17.63011
v 61.51696 10.64037 -4.267656
v 61.51696 11.2676 -4.267656
v 60.82708 11.2676 -4.267656
v 60.82708 10.64037 -4.267657
v 61.51696 11.2676 -4.267656
v 61.51696 11.26759 -2.177526
v 60.82708 11.26759 -2.177526
v 60.82708 11.2676 -4.267656
v 61.51696 10.64037 -4.267656
v 61.51696 10.64038 -2.177525
v 61.51696 11.26759 -2.177526
v 61.51696 11.2676 -4.267656
v 61.51697 12.62908 -41.57691
v 61.51697 12.62908 -39.48677
v 60.82709 12.62907 -39.48677
v 60.82709 12.62908 -41.57691
v 61.51697 12.00186 -29.39127
v 61.51697 12.62908 -29.39127
v 60.82709 12.62908 -29.39127
v 60.82709 12.00186 -29.39127
v 61.51697 12.00186 -39.48677
v 60.82709 12.00186 -39.48677
v 60.82709 12.62907 -39.48677
v 61.51697 12.62908 -39.48677
v 60.82709 12.00186 -29.39127
v 60.82709 12.00186 -27.30113
v 61.51697 12.00186 -27.30113
v 61.51697 12.00186 -29.39127
v 61.51697 12.00186 -41.57691
v 61.51697 12.00186 -39.48677
v 61.51697 12.62908 -39.48677
v 61.51697 12.62908 -41.57691
v 60.82708 12.00186 -17.63011
v 60.82708 12.00186 -15.53997
v 61.51696 12.00186 -15.53997
v 61.51696 12.00186 -17.63011
v 61.51696 12.62908 -17.63011
v 61.51696 12.62908 -15.53997
v 60.82708 12.62908 -15.53997
v 60.82708 12.62908 -17.63011
v 61.51697 12.00186 -41.57691
v 61.51697 12.62908 -41.57691
v 60.82709 12.62908 -41.57691
v 60.82709 12.00186 -41.57691
v 60.82708 10.64037 -4.267657
v 60.82708 10.64038 -2.177526
v 61.51696 10.64038 -2.177525
v 61.51696 10.64037 -4.267656
v -12.3997 10.28888 -38.1294
v -11.70982 10.28888 -38.1294
v -11.70982 10.82863 -38.1294
v -12.3997 10.82864 -38.1294
v 60.82709 12.00186 -41.57691
v 60.82709 12.00186 -39.48677
v 61.51697 12.00186 -39.48677
v 61.51697 12.00186 -41.57691
v 61.51696 10.64038 -2.177525
v 60.82708 10.64038 -2.177526
v 60.82708 11.26759 -2.177526
v 61.51696 11.26759 -2.177526
vt 0.1433018 0.0811163
vt 0.1091221 0.0811163
vt 0.1091221 0.09185848
vt 0.1433018 0.09185848
vt 0.6494141 0.1982422
vt 0.6494141 0.2587891
vt 0.6591797 0.2587891
vt 0.6591797 0.1982422
vt 0.1552734 0.08691406
vt 0.1660156 0.08691406
vt 0.1660156 0.07714844
vt 0.1552734 0.07714844
vt 0.1328447 0.08613566
vt 0.1181962 0.08613566
vt 0.1181962 0.08125285
vt 0.1328447 0.08125285
vt 0.6591797 0.1982422
vt 0.6591797 0.2587891
vt 0.6494141 0.2587891
vt 0.6494141 0.1982422
vt 0.1552734 0.08496094
vt 0.1552734 0.07714844
vt 0.1660156 0.07714844
vt 0.1660156 0.08496094
vt 0.6816406 0.1982422
vt 0.6591797 0.1982422
vt 0.6591797 0.1933594
vt 0.6816406 0.1933594
vt 0.1552734 0.08691406
vt 0.1660156 0.08691406
vt 0.1660156 0.07714844
vt 0.1552734 0.07714844
vt 0.1328447 0.08613566
vt 0.1181962 0.08613566
vt 0.1181962 0.08125285
vt 0.1328447 0.08125285
vt 0.1425781 0.08691406
vt 0.109375 0.08691406
vt 0.109375 0.09667969
vt 0.1425781 0.09667969
vt 0.6591797 0.1982422
vt 0.6591797 0.2587891
vt 0.6816406 0.2587891
vt 0.6816406 0.1982422
vt 0.1328447 0.08613566
vt 0.1181962 0.08613566
vt 0.1181962 0.08125285
vt 0.1328447 0.08125285
vt 0.6591797 0.1982422
vt 0.6591797 0.1933594
vt 0.6816406 0.1933594
vt 0.6816406 0.1982422
vt 0.6816406 0.1982422
vt 0.6816406 0.1933594
vt 0.6591797 0.1933594
vt 0.6591797 0.1982422
vt 0.1425781 0.08691406
vt 0.109375 0.08691406
vt 0.109375 0.09667969
vt 0.1425781 0.09667969
vt 0.1425781 0.08691406
vt 0.109375 0.08691406
vt 0.109375 0.09667969
vt 0.1425781 0.09667969
vt 0.1423253 0.0811163
vt 0.1091221 0.0811163
vt 0.1091221 0.09185848
vt 0.1423253 0.09185848
vt 0.6591797 0.1982422
vt 0.6591797 0.2587891
vt 0.6494141 0.2587891
vt 0.6494141 0.1982422
vt 0.1552734 0.08691406
vt 0.1660156 0.08691406
vt 0.1660156 0.07714844
vt 0.1552734 0.07714844
vt 0.6494141 0.1982422
vt 0.6494141 0.2587891
vt 0.6591797 0.2587891
vt 0.6591797 0.1982422
vt 0.1435547 0.08886719
vt 0.109375 0.08886719
vt 0.109375 0.09667969
vt 0.1435547 0.09667969
vt 0.6591797 0.1982422
vt 0.6591797 0.2587891
vt 0.6816406 0.2587891
vt 0.6816406 0.1982422
vt 0.1552734 0.08691406
vt 0.1552734 0.07714844
vt 0.1660156 0.07714844
vt 0.1660156 0.08691406
vt 0.6816406 0.1982422
vt 0.6591797 0.1982422
vt 0.6591797 0.1933594
vt 0.6816406 0.1933594
vt 0.1552734 0.08691406
vt 0.1552734 0.07714844
vt 0.1660156 0.07714844
vt 0.1660156 0.08691406
vt 0.1552734 0.08691406
vt 0.1552734 0.07714844
vt 0.1660156 0.07714844
vt 0.1660156 0.08691406
vt 0.1328447 0.08613566
vt 0.1181962 0.08613566
vt 0.1181962 0.08125285
vt 0.1328447 0.08125285
vt 0.1425781 0.08691406
vt 0.109375 0.08691406
vt 0.109375 0.09667969
vt 0.1425781 0.09667969
vt 0.1328447 0.08613566
vt 0.1181962 0.08613566
vt 0.1181962 0.08125285
vt 0.1328447 0.08125285
vt 0.1552734 0.08691406
vt 0.1552734 0.07714844
vt 0.1660156 0.07714844
vt 0.1660156 0.08691406
vt 0.1552734 0.08691406
vt 0.1660156 0.08691406
vt 0.1660156 0.07714844
vt 0.1552734 0.07714844
vt 0.1423253 0.0811163
vt 0.1091221 0.0811163
vt 0.1091221 0.09185848
vt 0.1423253 0.09185848
vt 0.1425781 0.08691406
vt 0.109375 0.08691406
vt 0.109375 0.09667969
vt 0.1425781 0.09667969
vt 0.1423253 0.0811163
vt 0.1091221 0.0811163
vt 0.1091221 0.09185848
vt 0.1423253 0.09185848
vt 0.1328447 0.08613566
vt 0.1181962 0.08613566
vt 0.1181962 0.08125285
vt 0.1328447 0.08125285
vt 0.1552734 0.08691406
vt 0.1552734 0.07714844
vt 0.1660156 0.07714844
vt 0.1660156 0.08691406
vt 0.1423253 0.0811163
vt 0.1091221 0.0811163
vt 0.1091221 0.09185848
vt 0.1423253 0.09185848
vt 0.1552734 0.08496094
vt 0.1660156 0.08496094
vt 0.1660156 0.07714844
vt 0.1552734 0.07714844
vt 0.1423253 0.0811163
vt 0.1091221 0.0811163
vt 0.1091221 0.09185848
vt 0.1423253 0.09185848
vt 0.1552734 0.08691406
vt 0.1660156 0.08691406
vt 0.1660156 0.07714844
vt 0.1552734 0.07714844
vn -1.255597E-06 -1 0
vn -1.255597E-06 -1 0
vn -1.255597E-06 -1 0
vn -1.255597E-06 -1 0
vn -4.586635E-07 -1 0
vn -4.586635E-07 -1 0
vn -4.586635E-07 -1 0
vn -4.586635E-07 -1 0
vn 0 0 1
vn 0 0 1
vn 0 0 1
vn 0 0 1
vn 1.255595E-06 1 3.464834E-06
vn 1.255595E-06 1 3.464834E-06
vn 1.255595E-06 1 3.464834E-06
vn 1.255595E-06 1 3.464834E-06
vn 4.586624E-07 1 1.764084E-06
vn 4.586624E-07 1 1.764084E-06
vn 4.586624E-07 1 1.764084E-06
vn 4.586624E-07 1 1.764084E-06
vn 0 0 1
vn 0 0 1
vn 0 0 1
vn 0 0 1
vn 1 -3.277455E-07 -4.980058E-07
vn 1 -3.277455E-07 -4.980058E-07
vn 1 -3.277455E-07 -4.980058E-07
vn 1 -3.277455E-07 -4.980058E-07
vn 0 0 1
vn 0 0 1
vn 0 0 1
vn 0 0 1
vn 1.32277E-06 1 3.650203E-06
vn 1.32277E-06 1 3.650203E-06
vn 1.32277E-06 1 3.650203E-06
vn 1.32277E-06 1 3.650203E-06
vn 1 0 0
vn 1 0 0
vn 1 0 0
vn 1 0 0
vn -7.438667E-07 -2.528139E-07 1
vn -7.438667E-07 -2.528139E-07 1
vn -7.438667E-07 -2.528139E-07 1
vn -7.438667E-07 -2.528139E-07 1
vn 0 1 2.965776E-06
vn 0 1 2.965776E-06
vn 0 1 2.965776E-06
vn 0 1 2.965776E-06
vn -1 2.842167E-07 4.452196E-07
vn -1 2.842167E-07 4.452196E-07
vn -1 2.842167E-07 4.452196E-07
vn -1 2.842167E-07 4.452196E-07
vn -1 0 0
vn -1 0 0
vn -1 0 0
vn -1 0 0
vn 1 0 0
vn 1 0 0
vn 1 0 0
vn 1 0 0
vn -1 -7.602447E-07 -1.818654E-06
vn -1 -7.602447E-07 -1.818654E-06
vn -1 -7.602447E-07 -1.818654E-06
vn -1 -7.602447E-07 -1.818654E-06
vn 0 -1 -2.281393E-07
vn 0 -1 -2.281393E-07
vn 0 -1 -2.281393E-07
vn 0 -1 -2.281393E-07
vn 4.586624E-07 1 1.764084E-06
vn 4.586624E-07 1 1.764084E-06
vn 4.586624E-07 1 1.764084E-06
vn 4.586624E-07 1 1.764084E-06
vn 0 -3.68734E-07 -1
vn 0 -3.68734E-07 -1
vn 0 -3.68734E-07 -1
vn 0 -3.68734E-07 -1
vn -4.58663E-07 -1 -8.820441E-07
vn -4.58663E-07 -1 -8.820441E-07
vn -4.58663E-07 -1 -8.820441E-07
vn -4.58663E-07 -1 -8.820441E-07
vn -1 8.834431E-07 -1.203628E-06
vn -1 8.834431E-07 -1.203628E-06
vn -1 8.834431E-07 -1.203628E-06
vn -1 8.834431E-07 -1.203628E-06
vn -7.438668E-07 -1.704279E-07 1
vn -7.438668E-07 -1.704279E-07 1
vn -7.438668E-07 -1.704279E-07 1
vn -7.438668E-07 -1.704279E-07 1
vn -6.911893E-07 -8.265038E-07 1
vn -6.911893E-07 -8.265038E-07 1
vn -6.911893E-07 -8.265038E-07 1
vn -6.911893E-07 -8.265038E-07 1
vn 1 0 -1.254389E-06
vn 1 0 -1.254389E-06
vn 1 0 -1.254389E-06
vn 1 0 -1.254389E-06
vn 0 0 -1
vn 0 0 -1
vn 0 0 -1
vn 0 0 -1
vn 6.911934E-07 0 -1
vn 6.911934E-07 0 -1
vn 6.911934E-07 0 -1
vn 6.911934E-07 0 -1
vn -1.024691E-06 1 3.193923E-06
vn -1.024691E-06 1 3.193923E-06
vn -1.024691E-06 1 3.193923E-06
vn -1.024691E-06 1 3.193923E-06
vn 1 0 0
vn 1 0 0
vn 1 0 0
vn 1 0 0
vn -1.322764E-06 1 3.42206E-06
vn -1.322764E-06 1 3.42206E-06
vn -1.322764E-06 1 3.42206E-06
vn -1.322764E-06 1 3.42206E-06
vn 0 0 -1
vn 0 0 -1
vn 0 0 -1
vn 0 0 -1
vn 0 0 1
vn 0 0 1
vn 0 0 1
vn 0 0 1
vn 1.32276E-06 -1 1.140683E-06
vn 1.32276E-06 -1 1.140683E-06
vn 1.32276E-06 -1 1.140683E-06
vn 1.32276E-06 -1 1.140683E-06
vn 1 0 0
vn 1 0 0
vn 1 0 0
vn 1 0 0
vn 1.32276E-06 -1 6.844097E-07
vn 1.32276E-06 -1 6.844097E-07
vn 1.32276E-06 -1 6.844097E-07
vn 1.32276E-06 -1 6.844097E-07
vn -1.32276E-06 1 3.193907E-06
vn -1.32276E-06 1 3.193907E-06
vn -1.32276E-06 1 3.193907E-06
vn -1.32276E-06 1 3.193907E-06
vn 0 0 -1
vn 0 0 -1
vn 0 0 -1
vn 0 0 -1
vn 0 -1 6.844113E-07
vn 0 -1 6.844113E-07
vn 0 -1 6.844113E-07
vn 0 -1 6.844113E-07
vn 0 6.628148E-07 -1
vn 0 6.628148E-07 -1
vn 0 6.628148E-07 -1
vn 0 6.628148E-07 -1
vn 0 -1 6.844115E-07
vn 0 -1 6.844115E-07
vn 0 -1 6.844115E-07
vn 0 -1 6.844115E-07
vn -1.036788E-06 5.510007E-07 1
vn -1.036788E-06 5.510007E-07 1
vn -1.036788E-06 5.510007E-07 1
vn -1.036788E-06 5.510007E-07 1
g Dungeon_fonariki_0
f 3/3/3 2/2/2 1/1/1
f 4/4/4 3/3/3 1/1/1
f 7/7/7 6/6/6 5/5/5
f 8/8/8 7/7/7 5/5/5
f 11/11/11 10/10/10 9/9/9
f 12/12/12 11/11/11 9/9/9
f 15/15/15 14/14/14 13/13/13
f 16/16/16 15/15/15 13/13/13
f 19/19/19 18/18/18 17/17/17
f 20/20/20 19/19/19 17/17/17
f 23/23/23 22/22/22 21/21/21
f 24/24/24 23/23/23 21/21/21
f 27/27/27 26/26/26 25/25/25
f 28/28/28 27/27/27 25/25/25
f 31/31/31 30/30/30 29/29/29
f 32/32/32 31/31/31 29/29/29
f 35/35/35 34/34/34 33/33/33
f 36/36/36 35/35/35 33/33/33
f 39/39/39 38/38/38 37/37/37
f 40/40/40 39/39/39 37/37/37
f 43/43/43 42/42/42 41/41/41
f 44/44/44 43/43/43 41/41/41
f 47/47/47 46/46/46 45/45/45
f 48/48/48 47/47/47 45/45/45
f 51/51/51 50/50/50 49/49/49
f 52/52/52 51/51/51 49/49/49
f 55/55/55 54/54/54 53/53/53
f 56/56/56 55/55/55 53/53/53
f 59/59/59 58/58/58 57/57/57
f 60/60/60 59/59/59 57/57/57
f 63/63/63 62/62/62 61/61/61
f 64/64/64 63/63/63 61/61/61
f 67/67/67 66/66/66 65/65/65
f 68/68/68 67/67/67 65/65/65
f 71/71/71 70/70/70 69/69/69
f 72/72/72 71/71/71 69/69/69
f 75/75/75 74/74/74 73/73/73
f 76/76/76 75/75/75 73/73/73
f 79/79/79 78/78/78 77/77/77
f 80/80/80 79/79/79 77/77/77
f 83/83/83 82/82/82 81/81/81
f 84/84/84 83/83/83 81/81/81
f 87/87/87 86/86/86 85/85/85
f 88/88/88 87/87/87 85/85/85
f 91/91/91 90/90/90 89/89/89
f 92/92/92 91/91/91 89/89/89
f 95/95/95 94/94/94 93/93/93
f 96/96/96 95/95/95 93/93/93
f 99/99/99 98/98/98 97/97/97
f 100/100/100 99/99/99 97/97/97
f 103/103/103 102/102/102 101/101/101
f 104/104/104 103/103/103 101/101/101
f 107/107/107 106/106/106 105/105/105
f 108/108/108 107/107/107 105/105/105
f 111/111/111 110/110/110 109/109/109
f 112/112/112 111/111/111 109/109/109
f 115/115/115 114/114/114 113/113/113
f 116/116/116 115/115/115 113/113/113
f 119/119/119 118/118/118 117/117/117
f 120/120/120 119/119/119 117/117/117
f 123/123/123 122/122/122 121/121/121
f 124/124/124 123/123/123 121/121/121
f 127/127/127 126/126/126 125/125/125
f 128/128/128 127/127/127 125/125/125
f 131/131/131 130/130/130 129/129/129
f 132/132/132 131/131/131 129/129/129
f 135/135/135 134/134/134 133/133/133
f 136/136/136 135/135/135 133/133/133
f 139/139/139 138/138/138 137/137/137
f 140/140/140 139/139/139 137/137/137
f 143/143/143 142/142/142 141/141/141
f 144/144/144 143/143/143 141/141/141
f 147/147/147 146/146/146 145/145/145
f 148/148/148 147/147/147 145/145/145
f 151/151/151 150/150/150 149/149/149
f 152/152/152 151/151/151 149/149/149
f 155/155/155 154/154/154 153/153/153
f 156/156/156 155/155/155 153/153/153
f 159/159/159 158/158/158 157/157/157
f 160/160/160 159/159/159 157/157/157
