g Dungeon_school_chair
v 0.4184822 0.4308107 0.3039746
v 0.4949811 0.00168961 0.3040088
v 0.4202907 0.07650055 0.303973
v 0.4949799 0.5073102 0.3040087
v 0.4187878 0.4308097 -0.3035238
v 0.4202907 0.07650055 0.303973
v 0.4205989 0.07650001 -0.303521
v 0.4184822 0.4308107 0.3039746
v 0.4952873 0.001689669 -0.3034823
v 0.4949799 0.5073102 0.3040087
v 0.4945982 0.5064998 -0.30349
v 0.4949799 0.5073102 0.3040087
v 0.4952873 0.001689669 -0.3034823
v 0.4949811 0.00168961 0.3040088
v 0.4187878 0.4308097 -0.3035238
v 0.4952873 0.001689669 -0.3034823
v 0.4945982 0.5064998 -0.30349
v 0.4205989 0.07650001 -0.303521
v -0.08082626 7.833146E-07 0.303722
v 0.4202907 0.07650055 0.303973
v 0.4949811 0.00168961 0.3040088
v -0.08082746 0.07650072 0.3037221
v 0.4205989 0.07650001 -0.303521
v -0.08082746 0.07650072 0.3037221
v -0.08052088 0.07649972 -0.3037741
v 0.4202907 0.07650055 0.303973
v -0.08052088 0.07649972 -0.3037741
v -0.08082626 7.833146E-07 0.303722
v -0.0805209 -2.260991E-07 -0.303774
v -0.08082746 0.07650072 0.3037221
v -0.0805209 -2.260991E-07 -0.303774
v 0.4205989 0.07650001 -0.303521
v -0.08052088 0.07649972 -0.3037741
v 0.4952873 0.001689669 -0.3034823
v -0.07652018 1.08081 0.3037199
v -1.826441E-05 0.5056913 0.3037612
v -0.07619996 0.4300008 0.3033185
v -1.826441E-05 0.5056913 0.3037612
v -0.07652018 1.08081 0.3037199
v -1.804448E-05 1.08081 0.3037583
v -0.076212 1.080809 -0.3037814
v -0.07619996 0.4300008 0.3033185
v -0.08052128 0.4299998 -0.3037767
v -0.07652018 1.08081 0.3037199
v -1.786857E-05 0.5060948 -0.3072428
v -1.804448E-05 1.08081 0.3037583
v 0.0002881332 1.080809 -0.3037403
v -1.826441E-05 0.5056913 0.3037612
v 0.0002881332 1.080809 -0.3037403
v -0.07652018 1.08081 0.3037199
v -0.076212 1.080809 -0.3037814
v -1.804448E-05 1.08081 0.3037583
v -0.076212 1.080809 -0.3037814
v -1.786857E-05 0.5060948 -0.3072428
v 0.0002881332 1.080809 -0.3037403
v -1.786857E-05 0.5060948 -0.3072428
v -0.076212 1.080809 -0.3037814
v -0.08052128 0.4299998 -0.3037767
v -0.07619996 0.4300008 0.3033185
v 0.4942892 0.5065007 0.3040065
v 0.4184822 0.4308107 0.3039746
v -1.826441E-05 0.5056913 0.3037612
v 0.4945982 0.5064998 -0.30349
v -1.826441E-05 0.5056913 0.3037612
v -1.786857E-05 0.5060948 -0.3072428
v 0.4942892 0.5065007 0.3040065
v -0.08052128 0.4299998 -0.3037767
v 0.4945982 0.5064998 -0.30349
v -1.786857E-05 0.5060948 -0.3072428
v 0.4945982 0.5064998 -0.30349
v -0.08052128 0.4299998 -0.3037767
v 0.4187878 0.4308097 -0.3035238
vt 0.9072266 0.3710938
vt 0.8974609 0.3691406
vt 0.8984375 0.3710938
vt 0.9091797 0.3691406
vt 0.9072266 0.3857422
vt 0.8984375 0.3710938
vt 0.8984375 0.3857422
vt 0.9072266 0.3710938
vt 0.9199219 0.3857422
vt 0.9072266 0.3710938
vt 0.9082031 0.3857422
vt 0.9072266 0.3710938
vt 0.9199219 0.3857422
vt 0.9199219 0.3701172
vt 0.9072266 0.3857422
vt 0.8974609 0.3876953
vt 0.9091797 0.3876953
vt 0.8984375 0.3857422
vt 0.9111328 0.3710938
vt 0.8994141 0.3691406
vt 0.8974609 0.3710938
vt 0.9111328 0.3691406
vt 0.8984375 0.3847656
vt 0.9130859 0.3720703
vt 0.8984375 0.3720703
vt 0.9130859 0.3847656
vt 0.8984375 0.3720703
vt 0.9130859 0.3701172
vt 0.8984375 0.3701172
vt 0.9130859 0.3720703
vt 0.9111328 0.3857422
vt 0.8994141 0.3876953
vt 0.9111328 0.3876953
vt 0.8974609 0.3857422
vt 0.9111328 0.4003906
vt 0.9130859 0.3857422
vt 0.9111328 0.3847656
vt 0.9130859 0.3857422
vt 0.9111328 0.4003906
vt 0.9130859 0.4003906
vt 0.8964844 0.3710938
vt 0.9121094 0.3857422
vt 0.9121094 0.3710938
vt 0.8964844 0.3857422
vt 0.9121094 0.3710938
vt 0.9257813 0.3857422
vt 0.9257813 0.3710938
vt 0.9121094 0.3857422
vt 0.8935547 0.3710938
vt 0.8964844 0.3857422
vt 0.8964844 0.3710938
vt 0.8935547 0.3857422
vt 0.9101563 0.3564453
vt 0.9121094 0.3701172
vt 0.9121094 0.3564453
vt 0.9121094 0.3701172
vt 0.9101563 0.3564453
vt 0.9101563 0.3730469
vt 0.9257813 0.3710938
vt 0.9121094 0.3691406
vt 0.9140625 0.3710938
vt 0.9238281 0.3691406
vt 0.9101563 0.3857422
vt 0.8984375 0.3710938
vt 0.8984375 0.3857422
vt 0.9101563 0.3710938
vt 0.9257813 0.3857422
vt 0.9121094 0.3876953
vt 0.9238281 0.3876953
vt 0.9121094 0.3876953
vt 0.9257813 0.3857422
vt 0.9140625 0.3857422
vn -0.0004876727 -7.194774E-06 0.9999999
vn -0.0004876483 -7.194774E-06 0.9999999
vn -0.0004876483 -7.194774E-06 0.9999999
vn -0.0004458214 2.622424E-07 0.9999999
vn -0.9999868 -0.005111698 -0.0005072981
vn -0.9999868 -0.005111699 -0.0005072981
vn -0.9999868 -0.005111698 -0.0005073079
vn -0.9999868 -0.005104341 -0.0005029914
vn 0.9999989 0.001365096 -0.0006302236
vn 0.9999989 0.001365096 -0.0006302236
vn 0.9999989 0.001365096 -0.0006302236
vn 0.9999999 2.354713E-06 0.0005039978
vn 0.9999999 2.354713E-06 0.0005039879
vn 0.9999999 2.354713E-06 0.0005039929
vn 0.0004608775 -1.464742E-05 -0.9999999
vn 0.000460897 -1.464742E-05 -0.9999999
vn 0.0004608726 -1.464742E-05 -0.9999999
vn 0.0005125965 -5.428414E-06 -0.9999999
vn -0.0004981869 -1.770896E-05 0.9999999
vn -0.0004982016 -1.770896E-05 0.9999999
vn -0.0004981772 -1.770896E-05 0.9999999
vn -0.0005005878 -1.952394E-06 0.9999999
vn -5.810931E-07 1 -1.661891E-06
vn -5.81093E-07 1 -1.66189E-06
vn -5.81093E-07 1 -1.66189E-06
vn 3.320075E-07 1 -9.079046E-07
vn -0.9999999 0 -0.00050267
vn -0.9999999 0 -0.000502675
vn -0.9999999 0 -0.0005026847
vn -0.9999999 -1.571507E-05 -0.0005046592
vn 0.0005049973 -6.568968E-07 -0.9999999
vn 0.0005049973 -6.568968E-07 -0.9999999
vn 0.0005050071 -6.568969E-07 -0.9999999
vn 0.0005066434 -1.137625E-05 -0.9999999
vn -0.00519488 -0.0006193108 0.9999863
vn -0.005194869 -0.0006193108 0.9999863
vn -0.005194869 -0.0006193107 0.9999863
vn -0.0005013717 5.018342E-06 0.9999999
vn -0.0005013717 5.018342E-06 0.9999999
vn -0.0005013717 5.018342E-06 0.9999999
vn -0.9999527 0.006621154 0.007117694
vn -0.9999527 0.006621153 0.007117703
vn -0.9999527 0.006621154 0.007117694
vn -0.9999998 -0.000491733 -0.0005073044
vn 0.9999997 -0.0005355127 0.0005040223
vn 0.9999997 -0.0005355127 0.0005040126
vn 0.9999997 -0.0005355126 0.0005039979
vn 1 -3.823897E-07 6.501627E-07
vn 0 1 -1.661575E-06
vn 0 1 -1.661575E-06
vn 0 1 -1.661575E-06
vn 0 1 -1.661579E-06
vn 0.000538043 0.006093858 -0.9999813
vn 0.000538043 0.006093859 -0.9999813
vn 0.000538043 0.006093858 -0.9999813
vn -0.04327853 0.0002792426 -0.999063
vn -0.04327854 0.0002792426 -0.999063
vn -0.04327853 0.0002792426 -0.999063
vn -0.001327828 0.0009081556 0.9999987
vn -0.001327818 0.0009081556 0.9999987
vn -0.001327828 0.0009081557 0.9999987
vn -0.0004876676 -0.005357051 0.9999855
vn -0.0008240468 0.9999995 0.000660136
vn -0.0008240469 0.9999995 0.000660136
vn -0.0008240469 0.9999995 0.000660136
vn -0.001637263 0.9999987 -2.24318E-06
vn 0.00761995 -0.05354398 -0.9985364
vn 0.007619964 -0.05354398 -0.9985364
vn 0.007619964 -0.05354398 -0.9985364
vn 0.0005065014 -6.033708E-05 -0.9999999
vn 0.0005065161 -6.033708E-05 -0.9999999
vn 0.0005065014 -6.033708E-05 -0.9999999
g Dungeon_school_chair_0
f 3/3/3 2/2/2 1/1/1
f 4/4/4 1/1/1 2/2/2
f 7/7/7 6/6/6 5/5/5
f 8/8/8 5/5/5 6/6/6
f 11/11/11 10/10/10 9/9/9
f 14/14/14 13/13/13 12/12/12
f 17/17/17 16/16/16 15/15/15
f 18/18/18 15/15/15 16/16/16
f 21/21/21 20/20/20 19/19/19
f 22/22/22 19/19/19 20/20/20
f 25/25/25 24/24/24 23/23/23
f 26/26/26 23/23/23 24/24/24
f 29/29/29 28/28/28 27/27/27
f 30/30/30 27/27/27 28/28/28
f 33/33/33 32/32/32 31/31/31
f 34/34/34 31/31/31 32/32/32
f 37/37/37 36/36/36 35/35/35
f 40/40/40 39/39/39 38/38/38
f 43/43/43 42/42/42 41/41/41
f 44/44/44 41/41/41 42/42/42
f 47/47/47 46/46/46 45/45/45
f 48/48/48 45/45/45 46/46/46
f 51/51/51 50/50/50 49/49/49
f 52/52/52 49/49/49 50/50/50
f 55/55/55 54/54/54 53/53/53
f 58/58/58 57/57/57 56/56/56
f 61/61/61 60/60/60 59/59/59
f 62/62/62 59/59/59 60/60/60
f 65/65/65 64/64/64 63/63/63
f 66/66/66 63/63/63 64/64/64
f 69/69/69 68/68/68 67/67/67
f 72/72/72 71/71/71 70/70/70
