g Dungeon_building_16
v -5.000005 17.58162 -10.87173
v 4.99999 17.58162 -10.87173
v 5.00001 17.58161 10.27254
v -4.99999 17.58161 10.27254
v 5 17.58162 -4.40113
v 4.99999 17.58162 -10.87173
v 4.999985 14.15667 -10.87171
v 4.99999 14.15666 -4.401111
v 4.999985 8.666101 -10.8717
v 4.999995 8.666099 -4.401099
v 2.438223 17.58162 -10.87173
v -5.000005 17.58162 -10.87173
v -5.000005 14.15667 -10.87171
v 2.438223 14.15667 -10.8717
v -5 8.666101 -10.87169
v 2.438227 8.666102 -10.87169
v -4.999995 17.58161 2.932348
v -4.99999 17.58161 10.27254
v -4.99999 14.15666 10.27256
v -5 14.15666 2.932368
v -4.99999 8.666096 10.27257
v -4.999995 8.666097 2.932383
v 2.438247 17.58161 10.27254
v 5.00001 17.58161 10.27254
v 5.000014 14.15666 10.27256
v 2.438247 14.15666 10.27256
v 5.000014 8.666096 10.27257
v 2.438247 8.666096 10.27257
v 5.000014 8.666096 10.27257
v 5.000014 14.15666 10.27256
v 5 14.15666 2.932368
v 5 8.666097 2.93238
v 5.00001 17.58161 10.27254
v 5 17.58161 2.932348
v 4.999985 8.666101 -10.8717
v 4.999985 14.15667 -10.87171
v 2.438223 14.15667 -10.8717
v 2.438227 8.666102 -10.87169
v 4.99999 17.58162 -10.87173
v 2.438223 17.58162 -10.87173
v -4.99999 8.666096 10.27257
v -4.99999 14.15666 10.27256
v 2.438247 14.15666 10.27256
v 2.438247 8.666096 10.27257
v -4.99999 17.58161 10.27254
v 2.438247 17.58161 10.27254
v -4.999995 17.58162 -4.40113
v -4.999995 17.58161 2.932348
v -5 14.15666 2.932368
v -4.999995 14.15666 -4.401111
v -4.999995 8.666097 2.932383
v -4.999995 8.666099 -4.401096
v 4.999995 8.666099 -4.401099
v 5 8.666097 2.93238
v 5 14.15666 2.932368
v 4.99999 14.15666 -4.401111
v 5 17.58161 2.932348
v 5 17.58162 -4.40113
v -5.000005 14.15667 -10.87171
v -5.000005 17.58162 -10.87173
v -4.999995 17.58162 -4.40113
v -5.000005 14.15666 -4.401111
v -5.000005 8.666101 -10.8717
v -4.999995 8.666099 -4.401099
vt 29.47333 -4.407132
vt 39.47332 -4.407126
vt 39.47335 -25.55139
vt 29.47335 -25.5514
vt 0.02424522 0.9316406
vt 0.3764524 0.9316407
vt 0.3764524 0.7558607
vt 0.02424522 0.7558594
vt 0.3764524 0.4746099
vt 0.02424522 0.4746094
vt 2.615544E-07 0.9316419
vt 0.3984377 0.9316419
vt 0.3984377 0.7558607
vt 2.615536E-07 0.7558607
vt 0.3984378 0.47461
vt 3.448637E-08 0.47461
vt 0 0.9316406
vt 0.3984375 0.9316406
vt 0.3984375 0.7558594
vt 0 0.7558594
vt 0.3984375 0.4746094
vt 0 0.4746094
vt 0 0.9316406
vt 0.1386719 0.9316406
vt 0.1386719 0.7558594
vt 0 0.7558594
vt 0.1386719 0.4746094
vt 0 0.4746094
vt 0 0.4746094
vt 0 0.7558594
vt 0.3984375 0.7558594
vt 0.3984375 0.4746094
vt 0 0.9316406
vt 0.3984375 0.9316406
vt 0.2636715 0.4746099
vt 0.2636718 0.7558599
vt 0.3984374 0.75586
vt 0.3984371 0.47461
vt 0.2636718 0.931642
vt 0.3984375 0.931642
vt 0 0.4746094
vt 0 0.7558594
vt 0.3984375 0.7558594
vt 0.3984375 0.4746094
vt 0 0.9316406
vt 0.3984375 0.9316406
vt 0 0.9316406
vt 0.3984375 0.9316406
vt 0.3984375 0.7558594
vt 0 0.7558594
vt 0.3984375 0.4746094
vt 0 0.4746094
vt 0.3984375 0.4746094
vt 0 0.4746094
vt 0 0.7558594
vt 0.3984375 0.7558594
vt 0 0.9316406
vt 0.3984375 0.9316406
vt 0.3764531 0.7558596
vt 0.3764531 0.9316396
vt 0.02424591 0.9316396
vt 0.02424591 0.7558583
vt 0.3764531 0.4746101
vt 0.02424591 0.4746095
vn 0 1 6.350532E-07
vn 0 1 6.350531E-07
vn 0 1 6.350532E-07
vn 0 1 6.350532E-07
vn 1 -1.78208E-06 -8.988758E-07
vn 1 -2.138494E-06 -1.131924E-06
vn 1 -8.469243E-07 -1.131923E-06
vn 1 -6.687124E-07 -9.821019E-07
vn 1 4.446521E-07 -1.131923E-06
vn 1 4.446524E-07 -1.06533E-06
vn -5.506517E-07 -5.880841E-06 -1
vn 3.282252E-07 -5.702634E-06 -1
vn 4.10281E-07 -4.074117E-06 -1
vn -6.28751E-07 -4.10764E-06 -1
vn 4.923367E-07 -2.4456E-06 -1
vn -7.068519E-07 -2.334437E-06 -1
vn -1 7.128318E-07 3.324535E-07
vn -1 7.128358E-07 9.978244E-07
vn -1 1.340899E-07 9.978241E-07
vn -1 1.340888E-07 3.324566E-07
vn -1 -4.446524E-07 9.978239E-07
vn -1 -4.44654E-07 3.324569E-07
vn 5.877222E-07 4.722498E-06 1
vn 1.66778E-06 4.455188E-06 1
vn 1.191271E-06 3.728305E-06 1
vn 4.315235E-07 3.778587E-06 1
vn 7.147617E-07 3.001422E-06 1
vn 2.753249E-07 2.834676E-06 1
vn 1 0 -1.995648E-06
vn 1 3.564068E-07 -1.829345E-06
vn 1 0 -1.330813E-06
vn 1 2.223233E-07 -1.497193E-06
vn 1 7.12821E-07 -1.66304E-06
vn 1 -3.564254E-07 -1.164431E-06
vn -1.906039E-06 -2.223274E-06 -1
vn -1.667784E-06 -4.141161E-06 -1
vn -6.28751E-07 -4.10764E-06 -1
vn -7.068519E-07 -2.334437E-06 -1
vn -1.429529E-06 -6.059047E-06 -1
vn -5.506517E-07 -5.880841E-06 -1
vn -1.641118E-07 2.66793E-06 1
vn -3.282238E-07 3.82887E-06 1
vn 4.315235E-07 3.778587E-06 1
vn 2.753249E-07 2.834676E-06 1
vn -4.923359E-07 4.989809E-06 1
vn 5.877222E-07 4.722498E-06 1
vn -1 7.128277E-07 -3.329118E-07
vn -1 7.128318E-07 3.324535E-07
vn -1 1.340888E-07 3.324566E-07
vn -1 1.340877E-07 -3.329122E-07
vn -1 -4.44654E-07 3.324569E-07
vn -1 -4.446557E-07 -3.329127E-07
vn 1 4.446524E-07 -1.06533E-06
vn 1 2.223233E-07 -1.497193E-06
vn 1 0 -1.330813E-06
vn 1 -6.687124E-07 -9.821019E-07
vn 1 -3.564254E-07 -1.164431E-06
vn 1 -1.78208E-06 -8.988758E-07
vn -1 2.681805E-07 7.546154E-07
vn -1 1.425663E-06 7.546159E-07
vn -1 1.425663E-06 7.546159E-07
vn -1 2.681742E-07 7.546154E-07
vn -1 -8.893079E-07 7.54615E-07
vn -1 -8.893079E-07 7.54615E-07
g Dungeon_building_16_0
f 3/3/3 2/2/2 1/1/1
f 4/4/4 3/3/3 1/1/1
g Dungeon_building_16_1
f 7/7/7 6/6/6 5/5/5
f 8/8/8 7/7/7 5/5/5
f 7/7/7 8/8/8 9/9/9
f 8/8/8 10/10/10 9/9/9
f 13/13/13 12/12/12 11/11/11
f 14/14/14 13/13/13 11/11/11
f 13/13/13 14/14/14 15/15/15
f 14/14/14 16/16/16 15/15/15
f 19/19/19 18/18/18 17/17/17
f 20/20/20 19/19/19 17/17/17
f 19/19/19 20/20/20 21/21/21
f 20/20/20 22/22/22 21/21/21
f 25/25/25 24/24/24 23/23/23
f 26/26/26 25/25/25 23/23/23
f 25/25/25 26/26/26 27/27/27
f 26/26/26 28/28/28 27/27/27
f 31/31/31 30/30/30 29/29/29
f 32/32/32 31/31/31 29/29/29
f 30/30/30 31/31/31 33/33/33
f 31/31/31 34/34/34 33/33/33
f 37/37/37 36/36/36 35/35/35
f 38/38/38 37/37/37 35/35/35
f 36/36/36 37/37/37 39/39/39
f 37/37/37 40/40/40 39/39/39
f 43/43/43 42/42/42 41/41/41
f 44/44/44 43/43/43 41/41/41
f 42/42/42 43/43/43 45/45/45
f 43/43/43 46/46/46 45/45/45
f 49/49/49 48/48/48 47/47/47
f 50/50/50 49/49/49 47/47/47
f 49/49/49 50/50/50 51/51/51
f 50/50/50 52/52/52 51/51/51
f 55/55/55 54/54/54 53/53/53
f 56/56/56 55/55/55 53/53/53
f 55/55/55 56/56/56 57/57/57
f 56/56/56 58/58/58 57/57/57
f 61/61/61 60/60/60 59/59/59
f 62/62/62 61/61/61 59/59/59
f 59/59/59 63/63/63 62/62/62
f 63/63/63 64/64/64 62/62/62
