g Dungeon_school_Door_R
v -7.324219E-06 3.350014 -6.103515E-06
v -2.299999 3.350009 -0.1000037
v -7.324219E-06 3.350014 -0.1000061
v -2.3 3.350009 -4.272461E-06
v -2.3 3.350009 -4.272461E-06
v -2.299995 -1.525879E-06 -0.1000049
v -2.299999 3.350009 -0.1000037
v -2.299995 -1.525879E-06 -4.882812E-06
v -7.324219E-06 3.350014 -6.103515E-06
v -2.299995 -1.525879E-06 -4.882812E-06
v -2.3 3.350009 -4.272461E-06
v -1.220703E-06 2.746582E-06 -7.324219E-06
v -7.324219E-06 3.350014 -0.1000061
v -1.220703E-06 2.746582E-06 -7.324219E-06
v -7.324219E-06 3.350014 -6.103515E-06
v -1.220703E-06 2.746582E-06 -0.1000073
v -2.299999 3.350009 -0.1000037
v -1.220703E-06 2.746582E-06 -0.1000073
v -7.324219E-06 3.350014 -0.1000061
v -2.299995 -1.525879E-06 -0.1000049
vt 0.5293244 0.4200305
vt 0.5653262 0.4179965
vt 0.5293244 0.4179965
vt 0.5653262 0.4200305
vt 0.5667445 0.4186909
vt 0.5682946 0.462713
vt 0.5682946 0.4186909
vt 0.5667445 0.462713
vt 0.5293244 0.4628494
vt 0.5663899 0.4179965
vt 0.5663899 0.4628494
vt 0.5293244 0.4179965
vt 0.5313271 0.4628494
vt 0.5293244 0.4179965
vt 0.5293244 0.4628494
vt 0.5313271 0.4179965
vt 0.5663899 0.4628494
vt 0.5293244 0.4179965
vt 0.5293244 0.4628494
vt 0.5663899 0.4179965
vn -2.12297E-06 1 0
vn -2.12297E-06 1 0
vn -2.12297E-06 1 0
vn -2.122969E-06 1 0
vn -1 -1.093159E-06 -1.22071E-05
vn -1 -1.093159E-06 -1.22071E-05
vn -1 -1.093159E-06 -1.22071E-05
vn -1 -1.457551E-06 0
vn 7.961137E-07 -1.821928E-07 1
vn 7.961137E-07 -1.821928E-07 1
vn 7.961137E-07 -1.821928E-07 1
vn 1.061484E-06 -3.643858E-07 1
vn 1 1.821939E-06 0
vn 1 1.821939E-06 0
vn 1 1.821939E-06 0
vn 1 1.821939E-06 0
vn -1.061486E-06 3.643858E-07 -1
vn -1.061486E-06 3.643858E-07 -1
vn -1.061486E-06 3.643858E-07 -1
vn -1.061484E-06 3.643867E-07 -1
g Dungeon_school_Door_R_0
f 3/3/3 2/2/2 1/1/1
f 4/4/4 1/1/1 2/2/2
f 7/7/7 6/6/6 5/5/5
f 8/8/8 5/5/5 6/6/6
f 11/11/11 10/10/10 9/9/9
f 12/12/12 9/9/9 10/10/10
f 15/15/15 14/14/14 13/13/13
f 16/16/16 13/13/13 14/14/14
f 19/19/19 18/18/18 17/17/17
f 20/20/20 17/17/17 18/18/18
