g dungeon_mv_mushroom_little_lod01
v -0.3433208 0.9995788 0.1203326
v 0.6566792 0.9995789 -0.3796672
v 0.6566792 0.9995786 0.6203324
v -0.3433208 -0.0004208013 0.1203277
v -0.3433208 0.9995788 0.1203326
v 0.6566792 0.9995786 0.6203324
v 0.6566792 -0.0004218313 0.6203275
v 0.6566792 -0.0004206106 -0.3796721
v 0.6566792 0.9995789 -0.3796672
v -0.3433208 0.9995788 0.1203326
v -0.3433208 -0.0004208013 0.1203277
v 0.6566792 -0.0004218313 0.6203275
v 0.6566792 0.9995786 0.6203324
v 0.6566792 0.9995789 -0.3796672
v 0.6566792 -0.0004206106 -0.3796721
vt 8.942672E-05 0.7999462
vt 0.9999106 0.7999461
vt 0.5999823 8.942672E-05
vt 0.008791544 0.001455426
vt 0.008791544 0.9670654
vt 0.9740506 0.9670654
vt 0.9740506 0.001455426
vt 0.008791544 0.9670545
vt 0.9740428 0.9670545
vt 0.9740428 0.001455426
vt 0.008791544 0.001455426
vt 0.9740428 0.9670545
vt 0.9740428 0.001443475
vt 0.008791544 0.001455426
vt 0.008791544 0.9670545
vn 0 1 3.906251E-07
vn 0 1 3.906251E-07
vn 0 1 3.906251E-07
vn -0.4472135 -4.367321E-06 0.8944273
vn -0.4472135 -4.367321E-06 0.8944273
vn -0.4472135 -4.367321E-06 0.8944273
vn -0.4472135 -4.367321E-06 0.8944273
vn -0.4472135 4.367322E-06 -0.8944273
vn -0.4472135 4.367322E-06 -0.8944273
vn -0.4472135 4.367322E-06 -0.8944273
vn -0.4472135 4.367322E-06 -0.8944273
vn 1 0 0
vn 1 0 0
vn 1 0 0
vn 1 0 0
g dungeon_mv_mushroom_little_lod01_0
f 3/3/3 2/2/2 1/1/1
f 6/6/6 5/5/5 4/4/4
f 7/7/7 6/6/6 4/4/4
f 10/10/10 9/9/9 8/8/8
f 11/11/11 10/10/10 8/8/8
f 14/14/14 13/13/13 12/12/12
f 15/15/15 14/14/14 12/12/12
