g Dungeon_wooden_box
v 0.999021 -2.441406E-06 0.9999927
v -1.000979 0.0009790038 -1.000005
v -1.000975 0.0009765625 0.9999976
v 0.9990173 6.123264E-17 -1.000005
v 1.000002 2.000002 0.9999976
v -1.000002 2.000979 -1
v 0.9999976 2.000002 -1.000007
v -0.9999951 2.000977 0.9999951
v -0.9999951 2.000977 0.9999951
v -1.000979 0.0009790038 -1.000005
v -1.000002 2.000979 -1
v -1.000975 0.0009765625 0.9999976
v 1.000002 2.000002 0.9999976
v -1.000975 0.0009765625 0.9999976
v -0.9999951 2.000977 0.9999951
v 0.999021 -2.441406E-06 0.9999927
v 0.9999976 2.000002 -1.000007
v 0.999021 -2.441406E-06 0.9999927
v 1.000002 2.000002 0.9999976
v 0.9990173 6.123264E-17 -1.000005
v -1.000002 2.000979 -1
v 0.9990173 6.123264E-17 -1.000005
v 0.9999976 2.000002 -1.000007
v -1.000979 0.0009790038 -1.000005
vt 0.408203 0.894451
vt 0.439373 0.863281
vt 0.408203 0.863282
vt 0.439374 0.894451
vt 0.439374 0.894451
vt 0.408203 0.863282
vt 0.408203 0.894451
vt 0.439373 0.863281
vt 0.407146 0.894451
vt 0.375977 0.86328
vt 0.375977 0.894451
vt 0.407146 0.863281
vt 0.407146 0.894451
vt 0.375977 0.86328
vt 0.375977 0.894451
vt 0.407146 0.863281
vt 0.407146 0.894451
vt 0.375977 0.86328
vt 0.375977 0.894451
vt 0.407146 0.863281
vt 0.407146 0.894451
vt 0.375977 0.86328
vt 0.375977 0.894451
vt 0.407146 0.863281
vn -0.0004895028 -0.9999999 -1.219798E-06
vn -0.0004895027 -0.9999999 -1.219798E-06
vn -0.0004895028 -0.9999999 -1.219798E-06
vn -0.0004895028 -0.9999999 -1.219801E-06
vn 0.0004882812 0.9999999 0
vn 0.0004882812 0.9999999 0
vn 0.0004882812 0.9999999 0
vn 0.000487061 0.9999999 1.218922E-06
vn -0.9999999 0.0004882812 3.662714E-06
vn -0.9999999 0.0004882812 3.662714E-06
vn -0.9999999 0.0004882812 3.662714E-06
vn -0.9999999 0.0004901123 1.831651E-06
vn -1.22011E-06 1.221301E-06 1
vn -1.22011E-06 1.221301E-06 1
vn -1.22011E-06 1.221301E-06 1
vn 2.440215E-06 -2.442598E-06 1
vn 0.9999999 -0.0004907215 -2.4414E-06
vn 0.9999999 -0.0004907214 -2.441401E-06
vn 0.9999999 -0.0004907215 -2.4414E-06
vn 0.9999999 -0.0004901118 -1.831655E-06
vn -3.662705E-06 -1.218907E-06 -1
vn -3.662705E-06 -1.218907E-06 -1
vn -3.662705E-06 -1.218907E-06 -1
vn 0 2.441406E-06 -1
g Dungeon_wooden_box_0
f 3/3/3 2/2/2 1/1/1
f 4/4/4 1/1/1 2/2/2
f 7/7/7 6/6/6 5/5/5
f 8/8/8 5/5/5 6/6/6
f 11/11/11 10/10/10 9/9/9
f 12/12/12 9/9/9 10/10/10
f 15/15/15 14/14/14 13/13/13
f 16/16/16 13/13/13 14/14/14
f 19/19/19 18/18/18 17/17/17
f 20/20/20 17/17/17 18/18/18
f 23/23/23 22/22/22 21/21/21
f 24/24/24 21/21/21 22/22/22
