g dungeon_mv_box_wooden
v 0.979624 1.029836 2.000071
v 0.9796216 -0.9701619 2.001047
v -1.020371 -0.9701692 1.998081
v -1.020376 1.029831 1.997104
v 0.9796216 -0.9701619 2.001047
v 0.9825903 -0.9711433 0.00104737
v -1.01741 -0.9711457 -0.001918938
v -1.020371 -0.9701692 1.998081
v 0.979624 1.029836 2.000071
v 0.9825879 1.028854 7.080775E-05
v 0.9825903 -0.9711433 0.00104737
v 0.9796216 -0.9701619 2.001047
v -1.020376 1.029831 1.997104
v -1.017407 1.028849 -0.002895501
v 0.9825879 1.028854 7.080775E-05
v 0.979624 1.029836 2.000071
v -1.020371 -0.9701692 1.998081
v -1.01741 -0.9711457 -0.001918938
v -1.017407 1.028849 -0.002895501
v -1.020376 1.029831 1.997104
v 0.979624 1.029836 -0.00190094
v -1.020376 1.029831 -0.004867248
v -1.020371 -0.9701692 -0.003890686
v 0.9796216 -0.9701619 -0.0009243774
vt 0.2559039 0.3939465
vt 0.2559039 0.4251965
vt 0.2256305 0.4251965
vt 0.2256304 0.3939465
vt 0.1920023 0.4484378
vt 0.1920023 0.4201175
vt 0.1627054 0.4201175
vt 0.1627054 0.4484378
vt 0.1920023 0.4484378
vt 0.1920023 0.4201175
vt 0.1627054 0.4201175
vt 0.1627054 0.4484378
vt 0.1920023 0.4484378
vt 0.1920023 0.4201175
vt 0.1627054 0.4201175
vt 0.1627054 0.4484378
vt 0.1920023 0.4484378
vt 0.1920023 0.4201175
vt 0.1627054 0.4201175
vt 0.1627054 0.4484378
vt 0.2559039 0.3939465
vt 0.2256304 0.3939465
vt 0.2256305 0.4251965
vt 0.2559039 0.4251965
vn -0.001483157 0.0004882801 0.9999988
vn -0.001483157 0.0004882801 0.9999988
vn -0.001483157 0.0004882801 0.9999988
vn -0.001483157 0.0004882801 0.9999988
vn 1.715397E-06 -0.9999999 0.0004895044
vn 1.715397E-06 -0.9999999 0.0004895044
vn 1.715397E-06 -0.9999999 0.0004895044
vn 1.715397E-06 -0.9999999 0.0004895044
vn 0.9999989 7.242202E-07 0.001483152
vn 0.9999989 7.242203E-07 0.001483152
vn 0.9999989 7.242202E-07 0.001483152
vn 0.9999989 7.242203E-07 0.001483152
vn -1.713584E-06 0.9999999 -0.0004907252
vn -1.713584E-06 0.9999999 -0.0004907252
vn -1.713584E-06 0.9999999 -0.0004907252
vn -1.713584E-06 0.9999999 -0.0004907252
vn -0.9999989 -1.334238E-06 -0.001482542
vn -0.9999989 -1.334238E-06 -0.001482542
vn -0.9999989 -1.334238E-06 -0.001482542
vn -0.9999989 -1.334238E-06 -0.001482542
vn 0.001483157 -0.0004882801 -0.9999988
vn 0.001483157 -0.0004882801 -0.9999988
vn 0.001483157 -0.0004882801 -0.9999988
vn 0.001483157 -0.0004882801 -0.9999988
g dungeon_mv_box_wooden_0
f 3/3/3 2/2/2 1/1/1
f 4/4/4 3/3/3 1/1/1
f 7/7/7 6/6/6 5/5/5
f 8/8/8 7/7/7 5/5/5
f 11/11/11 10/10/10 9/9/9
f 12/12/12 11/11/11 9/9/9
f 15/15/15 14/14/14 13/13/13
f 16/16/16 15/15/15 13/13/13
f 19/19/19 18/18/18 17/17/17
f 20/20/20 19/19/19 17/17/17
f 23/23/23 22/22/22 21/21/21
f 24/24/24 23/23/23 21/21/21
