g Dungeon_building_26
v 7.248542 18.01855 -4.99999
v 7.24854 10.39595 -5.00001
v 7.24854 10.39594 4.99998
v 7.248542 18.01855 5
v -1.933401 18.01855 -5
v -7.248547 18.01854 -5
v -7.248547 10.39594 -5.000017
v -1.933401 10.39594 -5.000014
v -7.248547 18.01854 4.999995
v -7.248552 10.39593 4.999976
v -7.248547 10.39594 -5.000017
v -7.248547 18.01854 -5
v -1.933401 18.01854 4.999995
v 7.248542 18.01855 5
v 7.24854 10.39594 4.99998
v -1.933406 10.39594 4.99998
v 7.24854 -1.275253E-05 4.999961
v 7.24854 10.39594 4.99998
v 7.24854 10.39595 -5.00001
v 7.24854 -5.599982E-06 -5.000027
v -1.933401 -9.765629E-06 -5.000034
v 7.24854 -5.599982E-06 -5.000027
v 7.24854 10.39595 -5.00001
v -1.933401 10.39594 -5.000014
v -7.248547 -1.342774E-05 -5.000034
v -7.248547 10.39594 -5.000017
v -7.248552 10.39593 4.999976
v -7.248552 -1.953126E-05 4.999956
v -1.933406 -1.586915E-05 4.999961
v -7.248552 -1.953126E-05 4.999956
v -7.248552 10.39593 4.999976
v -1.933406 10.39594 4.99998
v 7.248542 26.67136 -4.999973
v 7.248542 18.01855 -4.99999
v 7.248542 18.01855 5
v 7.248542 26.67136 5.000014
v -1.933401 26.67136 -4.99998
v -7.248547 26.67135 -4.99998
v -7.248547 18.01854 -5
v -1.933401 18.01855 -5
v -7.248547 26.67135 5.00001
v -7.248547 18.01854 4.999995
v -7.248547 18.01854 -5
v -7.248547 26.67135 -4.99998
v -1.933401 26.67135 5.000014
v 7.248542 26.67136 5.000014
v 7.248542 18.01855 5
v -1.933401 18.01854 4.999995
v 7.248542 27.30082 -4.99997
v 7.248542 26.67136 -4.999973
v 7.248542 26.67136 5.000014
v 7.248542 27.30082 5.00002
v -1.933401 27.30082 -4.999978
v -7.248547 27.30081 -4.99998
v -7.248547 26.67135 -4.99998
v -1.933401 26.67136 -4.99998
v -7.248547 27.30081 5.00001
v -7.248547 26.67135 5.00001
v -7.248547 26.67135 -4.99998
v -7.248547 27.30081 -4.99998
v -1.933401 27.30082 5.00001
v 7.248542 27.30082 5.00002
v 7.248542 26.67136 5.000014
v -1.933401 26.67135 5.000014
v 7.248542 18.01855 -4.99999
v -1.933401 18.01855 -5
v -1.933401 10.39594 -5.000014
v 7.24854 10.39595 -5.00001
v -7.248547 18.01854 4.999995
v -1.933401 18.01854 4.999995
v -1.933406 10.39594 4.99998
v -7.248552 10.39593 4.999976
v -7.248547 -1.342774E-05 -5.000034
v -1.933401 -9.765629E-06 -5.000034
v -1.933401 10.39594 -5.000014
v -7.248547 10.39594 -5.000017
v 7.24854 -1.275253E-05 4.999961
v -1.933406 -1.586915E-05 4.999961
v -1.933406 10.39594 4.99998
v 7.24854 10.39594 4.99998
v 7.248542 26.67136 -4.999973
v -1.933401 26.67136 -4.99998
v -1.933401 18.01855 -5
v 7.248542 18.01855 -4.99999
v -7.248547 26.67135 5.00001
v -1.933401 26.67135 5.000014
v -1.933401 18.01854 4.999995
v -7.248547 18.01854 4.999995
v 7.248542 27.30082 -4.99997
v -1.933401 27.30082 -4.999978
v -1.933401 26.67136 -4.99998
v 7.248542 26.67136 -4.999973
v -7.248547 27.30081 5.00001
v -1.933401 27.30082 5.00001
v -1.933401 26.67135 5.000014
v -7.248547 26.67135 5.00001
v -7.248547 27.30081 -4.99998
v 7.248542 27.30082 -4.99997
v 7.248542 27.30082 5.00002
v -7.248547 27.30081 5.00001
vt 1 0.5117188
vt 1 0.1347656
vt 0.4375 0.1347656
vt 0.4375 0.5117188
vt 0.6660156 0.5117188
vt 0.9648438 0.5117188
vt 0.9648438 0.1347656
vt 0.6660156 0.1347656
vt 1 0.5117187
vt 1 0.1347655
vt 0.4375 0.1347656
vt 0.4375 0.5117187
vt 0.4628906 0.5117188
vt 0.9804688 0.5117188
vt 0.9804688 0.1347656
vt 0.4628906 0.1347656
vt 0.4375 0
vt 0.4375 0.5136719
vt 1 0.5136719
vt 1 0
vt 0.9804688 0
vt 0.4648438 0
vt 0.4648438 0.5136719
vt 0.9804688 0.5136719
vt 0.4375 -9.801658E-09
vt 0.4375001 0.5136719
vt 1 0.5136718
vt 1 4.203212E-08
vt 0.7636719 0.001953125
vt 0.4648438 0.001953125
vt 0.4648438 0.5136719
vt 0.7636719 0.5136719
vt 1 0.5625
vt 1 0.1347656
vt 0.4375 0.1347656
vt 0.4375 0.5625
vt 0.6660156 0.5625
vt 0.9648438 0.5625
vt 0.9648438 0.1347656
vt 0.6660156 0.1347656
vt 1 0.5624999
vt 1 0.1347656
vt 0.4375 0.1347656
vt 0.4375 0.5624999
vt 0.4628906 0.5625
vt 0.9804688 0.5625
vt 0.9804688 0.1347656
vt 0.4628906 0.1347656
vt 1 0.6015625
vt 1 0.5703125
vt 0.4394531 0.5703125
vt 0.4394531 0.6015625
vt 0.6388425 0.6015627
vt 0.9367812 0.6015628
vt 0.9367812 0.5703125
vt 0.6388425 0.5703126
vt 1 0.6015625
vt 1 0.5703124
vt 0.4394532 0.5703125
vt 0.4394532 0.6015625
vt 0.4648438 0.6015625
vt 0.9804688 0.6015625
vt 0.9804688 0.5703125
vt 0.4648438 0.5703125
vt 0.4648438 0.5117188
vt 0.9804688 0.5117188
vt 0.9804688 0.1347656
vt 0.4648438 0.1347656
vt 0.4648438 0.5117188
vt 0.7636719 0.5117188
vt 0.7636719 0.1367188
vt 0.4648438 0.1367188
vt 0.9648438 0
vt 0.6660156 0
vt 0.6660156 0.5136719
vt 0.9648438 0.5136719
vt 0.9804688 0.001953125
vt 0.4628906 0.001953125
vt 0.4628906 0.5136719
vt 0.9804688 0.5136719
vt 0.4648438 0.5625
vt 0.9804688 0.5625
vt 0.9804688 0.1347656
vt 0.4648438 0.1347656
vt 0.4648438 0.5625
vt 0.7636719 0.5625
vt 0.7636719 0.1367188
vt 0.4648438 0.1367188
vt 0.4667969 0.6015625
vt 0.9804688 0.6015625
vt 0.9804688 0.5703125
vt 0.4667969 0.5703125
vt 0.4667969 0.6015625
vt 0.765625 0.6015625
vt 0.765625 0.5703125
vt 0.4667969 0.5703125
vt -15.59527 1.372771
vt -30.09237 1.372779
vt -30.09237 11.37277
vt -15.59527 11.37276
vn 1 -1.601428E-07 0
vn 1 -1.601424E-07 0
vn 1 -1.601427E-07 0
vn 1 -1.601424E-07 0
vn 4.894894E-07 2.174301E-06 -1
vn 1.148306E-07 2.169534E-06 -1
vn 2.296633E-07 1.921584E-06 -1
vn 4.80433E-07 1.96162E-06 -1
vn -1 1.601426E-07 -1.220702E-07
vn -1 1.601434E-07 -3.66211E-07
vn -1 1.601431E-07 -3.662113E-07
vn -1 1.60143E-07 -1.220705E-07
vn -3.626099E-07 -2.108529E-06 1
vn -2.658912E-07 -2.108529E-06 1
vn -1.329453E-07 -2.060366E-06 1
vn -4.109692E-07 -2.060366E-06 1
vn 1 0 0
vn 1 -1.601427E-07 0
vn 1 -1.601424E-07 0
vn 1 0 0
vn 4.471966E-07 1.761315E-06 -1
vn 6.647297E-07 1.761315E-06 -1
vn 7.312027E-07 2.001655E-06 -1
vn 4.80433E-07 1.96162E-06 -1
vn -1 0 -4.882817E-07
vn -1 1.601431E-07 -3.662113E-07
vn -1 1.601434E-07 -3.66211E-07
vn -1 0 -4.882817E-07
vn -4.593291E-07 -1.878736E-06 1
vn -9.186585E-07 -1.878736E-06 1
vn -6.889935E-07 -2.060365E-06 1
vn -4.109692E-07 -2.060366E-06 1
vn 1 0 0
vn 1 -1.601428E-07 0
vn 1 -1.601424E-07 0
vn 1 0 0
vn 4.894893E-07 2.547802E-06 -1
vn 1.148305E-07 2.09825E-06 -1
vn 1.148306E-07 2.169534E-06 -1
vn 4.894894E-07 2.174301E-06 -1
vn -1 0 0
vn -1 1.601426E-07 -1.220702E-07
vn -1 1.60143E-07 -1.220705E-07
vn -1 0 0
vn -4.290842E-07 0 1
vn -3.988378E-07 -9.875309E-07 1
vn -2.658912E-07 -2.108529E-06 1
vn -3.626099E-07 -2.108529E-06 1
vn 1 0 0
vn 1 0 0
vn 1 0 0
vn 1 0 0
vn 5.136689E-07 2.908928E-06 -1
vn 2.296633E-07 1.939285E-06 -1
vn 1.148305E-07 2.09825E-06 -1
vn 4.894893E-07 2.547802E-06 -1
vn -1 0 0
vn -1 0 0
vn -1 0 0
vn -1 0 0
vn -4.955585E-07 1.939281E-06 1
vn -5.317843E-07 0 1
vn -3.988378E-07 -9.875309E-07 1
vn -4.290842E-07 0 1
vn 8.641484E-07 2.179067E-06 -1
vn 4.894894E-07 2.174301E-06 -1
vn 4.80433E-07 1.96162E-06 -1
vn 7.312027E-07 2.001655E-06 -1
vn -4.593285E-07 -2.108529E-06 1
vn -3.626099E-07 -2.108529E-06 1
vn -4.109692E-07 -2.060366E-06 1
vn -6.889935E-07 -2.060365E-06 1
vn 2.296636E-07 1.761315E-06 -1
vn 4.471966E-07 1.761315E-06 -1
vn 4.80433E-07 1.96162E-06 -1
vn 2.296633E-07 1.921584E-06 -1
vn 0 -1.878736E-06 1
vn -4.593291E-07 -1.878736E-06 1
vn -4.109692E-07 -2.060366E-06 1
vn -1.329453E-07 -2.060366E-06 1
vn 8.641478E-07 2.997354E-06 -1
vn 4.894893E-07 2.547802E-06 -1
vn 4.894894E-07 2.174301E-06 -1
vn 8.641484E-07 2.179067E-06 -1
vn -4.593308E-07 9.517491E-07 1
vn -4.290842E-07 0 1
vn -3.626099E-07 -2.108529E-06 1
vn -4.593285E-07 -2.108529E-06 1
vn 7.976743E-07 3.87857E-06 -1
vn 5.136689E-07 2.908928E-06 -1
vn 4.894893E-07 2.547802E-06 -1
vn 8.641478E-07 2.997354E-06 -1
vn -4.593327E-07 3.878562E-06 1
vn -4.955585E-07 1.939281E-06 1
vn -4.290842E-07 0 1
vn -4.593308E-07 9.517491E-07 1
vn -5.894235E-07 1 3.662113E-07
vn -5.894235E-07 1 3.662113E-07
vn -5.894235E-07 1 3.662113E-07
vn -5.894235E-07 1 3.662113E-07
g Dungeon_building_26_0
f 3/3/3 2/2/2 1/1/1
f 4/4/4 3/3/3 1/1/1
f 7/7/7 6/6/6 5/5/5
f 8/8/8 7/7/7 5/5/5
f 11/11/11 10/10/10 9/9/9
f 12/12/12 11/11/11 9/9/9
f 15/15/15 14/14/14 13/13/13
f 16/16/16 15/15/15 13/13/13
f 19/19/19 18/18/18 17/17/17
f 20/20/20 19/19/19 17/17/17
f 23/23/23 22/22/22 21/21/21
f 24/24/24 23/23/23 21/21/21
f 27/27/27 26/26/26 25/25/25
f 28/28/28 27/27/27 25/25/25
f 31/31/31 30/30/30 29/29/29
f 32/32/32 31/31/31 29/29/29
f 35/35/35 34/34/34 33/33/33
f 36/36/36 35/35/35 33/33/33
f 39/39/39 38/38/38 37/37/37
f 40/40/40 39/39/39 37/37/37
f 43/43/43 42/42/42 41/41/41
f 44/44/44 43/43/43 41/41/41
f 47/47/47 46/46/46 45/45/45
f 48/48/48 47/47/47 45/45/45
f 51/51/51 50/50/50 49/49/49
f 52/52/52 51/51/51 49/49/49
f 55/55/55 54/54/54 53/53/53
f 56/56/56 55/55/55 53/53/53
f 59/59/59 58/58/58 57/57/57
f 60/60/60 59/59/59 57/57/57
f 63/63/63 62/62/62 61/61/61
f 64/64/64 63/63/63 61/61/61
f 67/67/67 66/66/66 65/65/65
f 68/68/68 67/67/67 65/65/65
f 71/71/71 70/70/70 69/69/69
f 72/72/72 71/71/71 69/69/69
f 75/75/75 74/74/74 73/73/73
f 76/76/76 75/75/75 73/73/73
f 79/79/79 78/78/78 77/77/77
f 80/80/80 79/79/79 77/77/77
f 83/83/83 82/82/82 81/81/81
f 84/84/84 83/83/83 81/81/81
f 87/87/87 86/86/86 85/85/85
f 88/88/88 87/87/87 85/85/85
f 91/91/91 90/90/90 89/89/89
f 92/92/92 91/91/91 89/89/89
f 95/95/95 94/94/94 93/93/93
f 96/96/96 95/95/95 93/93/93
g Dungeon_building_26_1
f 99/99/99 98/98/98 97/97/97
f 100/100/100 99/99/99 97/97/97
