g Dungeon_Boxes
v -8.42179 3.06859 5.282005
v -8.298688 3.148367 5.079566
v -6.566638 2.974719 6.064375
v -6.689741 2.894942 6.266814
v -8.42179 3.06859 5.282005
v -8.161316 0.2373934 4.324678
v -8.038217 0.3171706 4.122239
v -8.298688 3.148367 5.079566
v -0.1970638 0.8581381 -2.410719
v -0.1970639 0.164493 -1.690402
v 0.8029361 0.1644927 -1.690403
v 0.8029361 0.8581378 -2.410719
v -8.696644 1.184628 0.3798703
v -7.696643 1.184627 0.3798699
v -7.696643 1.184628 2.37987
v -8.696643 1.184628 2.379869
v -8.161316 0.2373934 4.324678
v -6.429267 0.06374504 5.309487
v -6.306166 0.1435222 5.107049
v -8.038217 0.3171706 4.122239
v 0.8158388 1.000001 -0.3832895
v 0.8158388 5.952234E-07 -0.3832894
v 0.0400213 8.418916E-07 0.9004967
v 0.04002139 1.000001 0.9004967
v -0.04001865 1.000001 -0.9005011
v -0.04001877 6.076932E-07 -0.900501
v 0.8158388 5.952234E-07 -0.3832894
v 0.8158388 1.000001 -0.3832895
v 2.373211 -0.04503916 -1.054519
v 3.139255 -0.0450393 -0.4117324
v 3.139256 1.454961 -0.4117327
v 2.373211 1.454961 -1.05452
v -0.3066764 0.9508688 4.576441
v -0.3066764 -0.04913116 4.576441
v 0.6813772 -0.04913121 4.422331
v 0.6813772 0.9508687 4.422331
v 0.7527363 1.956654 6.021565
v 0.752736 0.956654 6.021565
v -0.2451169 0.9566541 5.956066
v -0.2451169 1.956654 5.956066
v 2.434839 -0.04503173 4.937538
v 2.434839 1.454968 4.937538
v 1.792051 1.454968 4.171494
v 1.792051 -0.04503177 4.171494
v -6.503064 1.194029 0.6906551
v -6.503064 0.1940292 0.6906554
v -4.690448 0.1940287 -0.1545818
v -4.690448 1.194029 -0.154582
v -1.979586 0.9508597 -0.6583992
v -1.979586 -0.04914032 -0.6583991
v -2.835443 -0.0491403 -1.175611
v -2.835443 0.9508597 -1.175611
v -0.04001865 1.000001 -0.9005011
v 0.8158388 1.000001 -0.3832895
v 0.04002139 1.000001 0.9004967
v -0.8158361 1.000001 0.383285
v 1.026007 1.454968 4.814282
v 1.792051 1.454968 4.171494
v 2.434839 1.454968 4.937538
v 1.668795 1.454968 5.580326
v 1.668795 1.454968 5.580326
v 2.434839 1.454968 4.937538
v 2.434839 -0.04503173 4.937538
v 1.668795 -0.04503172 5.580327
v 0.04002139 1.000001 0.9004967
v 0.0400213 8.418916E-07 0.9004967
v -0.8158362 8.543614E-07 0.3832852
v -0.8158361 1.000001 0.383285
v -0.8158361 1.000001 0.383285
v -0.8158362 8.543614E-07 0.3832852
v -0.04001877 6.076932E-07 -0.900501
v -0.04001865 1.000001 -0.9005011
v 0.9125433 0.9508689 5.904411
v 0.9125433 -0.04913111 5.904411
v -0.0755105 -0.04913106 6.058522
v -0.0755105 0.9508689 6.058522
v -1.203768 0.9508594 -1.942185
v -1.203768 -0.04914056 -1.942185
v -1.979586 -0.04914032 -0.6583991
v -1.979586 0.9508597 -0.6583992
v 0.8029361 0.8581378 -2.410719
v 0.8029361 0.1644927 -1.690403
v 0.8029367 1.244968 -0.649935
v 0.8029367 1.938613 -1.370252
v -7.696643 1.184627 0.3798699
v -7.696643 0.1846275 0.3798704
v -7.696643 0.1846279 2.37987
v -7.696643 1.184628 2.37987
v -8.298688 3.148367 5.079566
v -8.038217 0.3171706 4.122239
v -6.306166 0.1435222 5.107049
v -6.566638 2.974719 6.064375
v -0.1468691 0.956654 4.459288
v -0.2451169 0.9566541 5.956066
v 0.752736 0.956654 6.021565
v 0.8509836 0.9566539 4.524786
v -6.689741 2.894942 6.266814
v -6.429267 0.06374504 5.309487
v -8.161316 0.2373934 4.324678
v -8.42179 3.06859 5.282005
v -0.3066764 0.9508688 4.576441
v 0.6813772 0.9508687 4.422331
v 0.9125433 0.9508689 5.904411
v -0.0755105 0.9508689 6.058522
v -0.0755105 0.9508689 6.058522
v -0.0755105 -0.04913106 6.058522
v -0.3066764 -0.04913116 4.576441
v -0.3066764 0.9508688 4.576441
v -0.1468691 1.956654 4.459287
v 0.8509836 1.956654 4.524786
v 0.7527363 1.956654 6.021565
v -0.2451169 1.956654 5.956066
v -0.1970632 1.938613 -1.370251
v -0.1970633 1.244968 -0.6499348
v -0.1970639 0.164493 -1.690402
v -0.1970638 0.8581381 -2.410719
v 1.730424 -0.04503877 -0.2884748
v 1.730424 1.454962 -0.2884751
v 2.496469 1.454961 0.3543119
v 2.496468 -0.04503891 0.3543122
v -8.696644 1.184628 0.3798703
v -8.696644 0.1846277 0.3798709
v -7.696643 0.1846275 0.3798704
v -7.696643 1.184627 0.3798699
v 2.373211 1.454961 -1.05452
v 1.730424 1.454962 -0.2884751
v 1.730424 -0.04503877 -0.2884748
v 2.373211 -0.04503916 -1.054519
v -0.2451169 1.956654 5.956066
v -0.2451169 0.9566541 5.956066
v -0.1468691 0.956654 4.459288
v -0.1468691 1.956654 4.459287
v -2.059625 0.9508594 -2.459397
v -1.203768 0.9508594 -1.942185
v -1.979586 0.9508597 -0.6583992
v -2.835443 0.9508597 -1.175611
v 0.8029367 1.938613 -1.370252
v -0.1970632 1.938613 -1.370251
v -0.1970638 0.8581381 -2.410719
v 0.8029361 0.8581378 -2.410719
v -4.690448 1.194029 -0.154582
v -4.26783 1.194029 0.751726
v -6.080445 1.194029 1.596963
v -6.503064 1.194029 0.6906551
v 1.026007 -0.04503169 4.814282
v 1.792051 -0.04503177 4.171494
v 1.792051 1.454968 4.171494
v 1.026007 1.454968 4.814282
v -8.696643 1.184628 2.379869
v -8.696644 0.1846281 2.379871
v -8.696644 0.1846277 0.3798709
v -8.696644 1.184628 0.3798703
v -2.835443 0.9508597 -1.175611
v -2.835443 -0.0491403 -1.175611
v -2.059625 -0.04914055 -2.459397
v -2.059625 0.9508594 -2.459397
v 0.6813772 0.9508687 4.422331
v 0.6813772 -0.04913121 4.422331
v 0.9125433 -0.04913111 5.904411
v 0.9125433 0.9508689 5.904411
v -7.696643 1.184628 2.37987
v -7.696643 0.1846279 2.37987
v -8.696644 0.1846281 2.379871
v -8.696643 1.184628 2.379869
v -6.566638 2.974719 6.064375
v -6.306166 0.1435222 5.107049
v -6.429267 0.06374504 5.309487
v -6.689741 2.894942 6.266814
v -0.1468691 1.956654 4.459287
v -0.1468691 0.956654 4.459288
v 0.8509836 0.9566539 4.524786
v 0.8509836 1.956654 4.524786
v 0.8029367 1.244968 -0.649935
v 0.8029361 0.1644927 -1.690403
v -0.1970639 0.164493 -1.690402
v -0.1970633 1.244968 -0.6499348
v 0.8029367 1.938613 -1.370252
v 0.8029367 1.244968 -0.649935
v -0.1970633 1.244968 -0.6499348
v -0.1970632 1.938613 -1.370251
v -6.080445 1.194029 1.596963
v -6.080445 0.1940293 1.596963
v -6.503064 0.1940292 0.6906554
v -6.503064 1.194029 0.6906551
v 0.8509836 1.956654 4.524786
v 0.8509836 0.9566539 4.524786
v 0.752736 0.956654 6.021565
v 0.7527363 1.956654 6.021565
v 3.139256 1.454961 -0.4117327
v 2.496469 1.454961 0.3543119
v 1.730424 1.454962 -0.2884751
v 2.373211 1.454961 -1.05452
v -4.690448 1.194029 -0.154582
v -4.690448 0.1940287 -0.1545818
v -4.26783 0.1940288 0.7517262
v -4.26783 1.194029 0.751726
v 1.668795 -0.04503172 5.580327
v 1.026007 -0.04503169 4.814282
v 1.026007 1.454968 4.814282
v 1.668795 1.454968 5.580326
v -4.26783 1.194029 0.751726
v -4.26783 0.1940288 0.7517262
v -6.080445 0.1940293 1.596963
v -6.080445 1.194029 1.596963
v -2.059625 0.9508594 -2.459397
v -2.059625 -0.04914055 -2.459397
v -1.203768 -0.04914056 -1.942185
v -1.203768 0.9508594 -1.942185
v 3.139255 -0.0450393 -0.4117324
v 2.496468 -0.04503891 0.3543122
v 2.496469 1.454961 0.3543119
v 3.139256 1.454961 -0.4117327
vt 0.7363572 0.4179561
vt 0.7363572 0.4140498
vt 0.7041306 0.4140498
vt 0.7041306 0.4179561
vt 0.7353806 0.4140498
vt 0.7041306 0.4140498
vt 0.7041306 0.4169795
vt 0.7353806 0.4169795
vt 0.4492188 0.1503906
vt 0.4492188 0.1347656
vt 0.4335938 0.1347656
vt 0.4335938 0.1503906
vt 0.4208984 0.09863281
vt 0.4208984 0.1142578
vt 0.4511719 0.1142578
vt 0.4511719 0.09863281
vt 0.7041306 0.4384639
vt 0.7363572 0.4384639
vt 0.7363572 0.4345576
vt 0.7041306 0.4345576
vt 0.4511719 0.1308594
vt 0.4511719 0.1162109
vt 0.4248047 0.1162109
vt 0.4248047 0.1308594
vt 0.4492188 0.1503906
vt 0.4492188 0.1347656
vt 0.4335938 0.1347656
vt 0.4335938 0.1503906
vt 0.4511719 0.1308594
vt 0.4511719 0.1162109
vt 0.4248047 0.1162109
vt 0.4248047 0.1308594
vt 0.4492188 0.1503906
vt 0.4492188 0.1347656
vt 0.4335938 0.1347656
vt 0.4335938 0.1503906
vt 0.4492188 0.1503906
vt 0.4492188 0.1347656
vt 0.4335938 0.1347656
vt 0.4335938 0.1503906
vt 0.4511719 0.1162109
vt 0.4248047 0.1162109
vt 0.4248047 0.1308594
vt 0.4511719 0.1308594
vt 0.4511719 0.1142578
vt 0.4511719 0.09863281
vt 0.4208984 0.09863281
vt 0.4208984 0.1142578
vt 0.4492188 0.1503906
vt 0.4492188 0.1347656
vt 0.4335938 0.1347656
vt 0.4335938 0.1503906
vt 0.4511719 0.1308594
vt 0.4511719 0.1162109
vt 0.4248047 0.1162109
vt 0.4248047 0.1308594
vt 0.4492188 0.1503906
vt 0.4492188 0.1347656
vt 0.4335938 0.1347656
vt 0.4335938 0.1503906
vt 0.4511719 0.1308594
vt 0.4511719 0.1162109
vt 0.4248047 0.1162109
vt 0.4248047 0.1308594
vt 0.4492188 0.1503906
vt 0.4492188 0.1347656
vt 0.4335938 0.1347656
vt 0.4335938 0.1503906
vt 0.4511719 0.1308594
vt 0.4511719 0.1162109
vt 0.4248047 0.1162109
vt 0.4248047 0.1308594
vt 0.4492188 0.1503906
vt 0.4492188 0.1347656
vt 0.4335938 0.1347656
vt 0.4335938 0.1503906
vt 0.4511719 0.1308594
vt 0.4511719 0.1162109
vt 0.4248047 0.1162109
vt 0.4248047 0.1308594
vt 0.4511719 0.1308594
vt 0.4511719 0.1162109
vt 0.4248047 0.1162109
vt 0.4248047 0.1308594
vt 0.4208984 0.09863281
vt 0.4208984 0.1142578
vt 0.4511719 0.1142578
vt 0.4511719 0.09863281
vt 0.7363572 0.462878
vt 0.7363572 0.4101436
vt 0.7041306 0.4101436
vt 0.7041306 0.462878
vt 0.4511719 0.1162109
vt 0.4248047 0.1162109
vt 0.4248047 0.1308594
vt 0.4511719 0.1308594
vt 0.7363572 0.462878
vt 0.7363572 0.4101436
vt 0.7041306 0.4101436
vt 0.7041306 0.462878
vt 0.4511719 0.1308594
vt 0.4511719 0.1162109
vt 0.4248047 0.1162109
vt 0.4248047 0.1308594
vt 0.4511719 0.1308594
vt 0.4511719 0.1162109
vt 0.4248047 0.1162109
vt 0.4248047 0.1308594
vt 0.4511719 0.1308594
vt 0.4511719 0.1162109
vt 0.4248047 0.1162109
vt 0.4248047 0.1308594
vt 0.4511719 0.1308594
vt 0.4511719 0.1162109
vt 0.4248047 0.1162109
vt 0.4248047 0.1308594
vt 0.4511719 0.1162109
vt 0.4248047 0.1162109
vt 0.4248047 0.1308594
vt 0.4511719 0.1308594
vt 0.4677734 0.1142578
vt 0.4677734 0.09863281
vt 0.4521484 0.09863281
vt 0.4521484 0.1142578
vt 0.4511719 0.1308594
vt 0.4511719 0.1162109
vt 0.4248047 0.1162109
vt 0.4248047 0.1308594
vt 0.4511719 0.1308594
vt 0.4511719 0.1162109
vt 0.4248047 0.1162109
vt 0.4248047 0.1308594
vt 0.4511719 0.1308594
vt 0.4511719 0.1162109
vt 0.4248047 0.1162109
vt 0.4248047 0.1308594
vt 0.4511719 0.1308594
vt 0.4511719 0.1162109
vt 0.4248047 0.1162109
vt 0.4248047 0.1308594
vt 0.4208984 0.09863281
vt 0.4208984 0.1142578
vt 0.4511719 0.1142578
vt 0.4511719 0.09863281
vt 0.4511719 0.1308594
vt 0.4511719 0.1162109
vt 0.4248047 0.1162109
vt 0.4248047 0.1308594
vt 0.4511719 0.1142578
vt 0.4511719 0.09863281
vt 0.4208984 0.09863281
vt 0.4208984 0.1142578
vt 0.4511719 0.1308594
vt 0.4511719 0.1162109
vt 0.4248047 0.1162109
vt 0.4248047 0.1308594
vt 0.4511719 0.1308594
vt 0.4511719 0.1162109
vt 0.4248047 0.1162109
vt 0.4248047 0.1308594
vt 0.4677734 0.1142578
vt 0.4677734 0.09863281
vt 0.4521484 0.09863281
vt 0.4521484 0.1142578
vt 0.7353806 0.4140498
vt 0.7041306 0.4140498
vt 0.7041306 0.4169795
vt 0.7353806 0.4169795
vt 0.4492188 0.1503906
vt 0.4492188 0.1347656
vt 0.4335938 0.1347656
vt 0.4335938 0.1503906
vt 0.4511719 0.1162109
vt 0.4248047 0.1162109
vt 0.4248047 0.1308594
vt 0.4511719 0.1308594
vt 0.4492188 0.1503906
vt 0.4492188 0.1347656
vt 0.4335938 0.1347656
vt 0.4335938 0.1503906
vt 0.4677734 0.1142578
vt 0.4677734 0.09863281
vt 0.4521484 0.09863281
vt 0.4521484 0.1142578
vt 0.4511719 0.1308594
vt 0.4511719 0.1162109
vt 0.4248047 0.1162109
vt 0.4248047 0.1308594
vt 0.4492188 0.1503906
vt 0.4492188 0.1347656
vt 0.4335938 0.1347656
vt 0.4335938 0.1503906
vt 0.4677734 0.1142578
vt 0.4677734 0.09863281
vt 0.4521484 0.09863281
vt 0.4521484 0.1142578
vt 0.4511719 0.1308594
vt 0.4511719 0.1162109
vt 0.4248047 0.1162109
vt 0.4248047 0.1308594
vt 0.4208984 0.09863281
vt 0.4208984 0.1142578
vt 0.4511719 0.1142578
vt 0.4511719 0.09863281
vt 0.4492188 0.1503906
vt 0.4492188 0.1347656
vt 0.4335938 0.1347656
vt 0.4335938 0.1503906
vt 0.4511719 0.1308594
vt 0.4511719 0.1162109
vt 0.4248047 0.1162109
vt 0.4248047 0.1308594
vn -0.08682341 0.9437326 0.3191088
vn -0.08682341 0.9437326 0.3191088
vn -0.08682341 0.9437326 0.3191088
vn -0.08682341 0.9437326 0.3191088
vn -0.8660253 0.08682425 -0.492404
vn -0.8660253 0.08682425 -0.492404
vn -0.8660253 0.08682425 -0.492404
vn -0.8660253 0.08682425 -0.492404
vn -3.984009E-07 -0.7203169 -0.6936451
vn -3.984009E-07 -0.7203169 -0.6936451
vn -3.984009E-07 -0.7203169 -0.6936451
vn -3.984009E-07 -0.7203169 -0.6936451
vn 3.576281E-07 1 -3.278257E-07
vn 3.576281E-07 1 -3.278257E-07
vn 3.576281E-07 1 -3.278257E-07
vn 3.576281E-07 1 -3.278257E-07
vn 0.08682442 -0.9437324 -0.319109
vn 0.08682442 -0.9437324 -0.319109
vn 0.08682442 -0.9437324 -0.319109
vn 0.08682442 -0.9437324 -0.319109
vn 0.8558576 0 0.5172117
vn 0.8558576 0 0.5172117
vn 0.8558576 0 0.5172117
vn 0.8558576 0 0.5172117
vn 0.5172116 -2.980233E-07 -0.8558576
vn 0.5172116 -2.980233E-07 -0.8558576
vn 0.5172116 -2.980233E-07 -0.8558576
vn 0.5172116 -2.980233E-07 -0.8558576
vn 0.6427873 -3.45951E-07 -0.7660447
vn 0.6427873 -3.45951E-07 -0.7660447
vn 0.6427873 -3.45951E-07 -0.7660447
vn 0.6427873 -3.45951E-07 -0.7660447
vn -0.1541104 0 -0.9880537
vn -0.1541104 0 -0.9880537
vn -0.1541104 0 -0.9880537
vn -0.1541104 0 -0.9880537
vn -0.0654988 0 0.9978526
vn -0.0654988 0 0.9978526
vn -0.0654988 0 0.9978526
vn -0.0654988 0 0.9978526
vn 0.766044 -4.768372E-07 -0.6427881
vn 0.766044 -4.768372E-07 -0.6427881
vn 0.766044 -4.768372E-07 -0.6427881
vn 0.766044 -4.768372E-07 -0.6427881
vn -0.4226186 -2.235174E-07 -0.9063076
vn -0.4226186 -2.235174E-07 -0.9063076
vn -0.4226186 -2.235174E-07 -0.9063076
vn -0.4226186 -2.235174E-07 -0.9063076
vn -0.5172117 1.788139E-07 0.8558575
vn -0.5172117 1.788139E-07 0.8558575
vn -0.5172117 1.788139E-07 0.8558575
vn -0.5172117 1.788139E-07 0.8558575
vn 0 1 0
vn 0 1 0
vn 0 1 0
vn 0 1 0
vn 2.384186E-07 1 0
vn 2.384186E-07 1 0
vn 2.384186E-07 1 0
vn 2.384186E-07 1 0
vn 0.642788 -1.688737E-07 0.7660442
vn 0.642788 -1.688737E-07 0.7660442
vn 0.642788 -1.688737E-07 0.7660442
vn 0.642788 -1.688737E-07 0.7660442
vn -0.5172117 1.192093E-07 0.8558576
vn -0.5172117 1.192093E-07 0.8558576
vn -0.5172117 1.192093E-07 0.8558576
vn -0.5172117 1.192093E-07 0.8558576
vn -0.8558576 0 -0.5172117
vn -0.8558576 0 -0.5172117
vn -0.8558576 0 -0.5172117
vn -0.8558576 0 -0.5172117
vn 0.1541109 0 0.9880536
vn 0.1541109 0 0.9880536
vn 0.1541109 0 0.9880536
vn 0.1541109 0 0.9880536
vn 0.8558574 0 0.5172119
vn 0.8558574 0 0.5172119
vn 0.8558574 0 0.5172119
vn 0.8558574 0 0.5172119
vn 1 -2.989498E-07 -2.384186E-07
vn 1 -2.989498E-07 -2.384186E-07
vn 1 -2.989498E-07 -2.384186E-07
vn 1 -2.989498E-07 -2.384186E-07
vn 1 0 0
vn 1 0 0
vn 1 0 0
vn 1 0 0
vn 0.4924049 0.3191091 -0.8097572
vn 0.4924049 0.3191091 -0.8097572
vn 0.4924049 0.3191091 -0.8097572
vn 0.4924049 0.3191091 -0.8097572
vn 0 -1 0
vn 0 -1 0
vn 0 -1 0
vn 0 -1 0
vn -0.4924047 -0.3191094 0.8097572
vn -0.4924047 -0.3191094 0.8097572
vn -0.4924047 -0.3191094 0.8097572
vn -0.4924047 -0.3191094 0.8097572
vn 0 1 -1.119329E-07
vn 0 1 -1.119329E-07
vn 0 1 -1.119329E-07
vn 0 1 -1.119329E-07
vn -0.9880536 0 0.1541106
vn -0.9880536 0 0.1541106
vn -0.9880536 0 0.1541106
vn -0.9880536 0 0.1541106
vn 0 1 0
vn 0 1 0
vn 0 1 0
vn 0 1 0
vn -1 3.641466E-07 2.284845E-07
vn -1 3.641466E-07 2.284845E-07
vn -1 3.641466E-07 2.284845E-07
vn -1 3.641466E-07 2.284845E-07
vn -0.6427873 3.15408E-07 0.7660447
vn -0.6427873 3.15408E-07 0.7660447
vn -0.6427873 3.15408E-07 0.7660447
vn -0.6427873 3.15408E-07 0.7660447
vn -4.768371E-07 -5.364417E-07 -1
vn -4.768371E-07 -5.364417E-07 -1
vn -4.768371E-07 -5.364417E-07 -1
vn -4.768371E-07 -5.364417E-07 -1
vn -0.7660448 0 -0.6427872
vn -0.7660448 0 -0.6427872
vn -0.7660448 0 -0.6427872
vn -0.7660448 0 -0.6427872
vn -0.9978526 0 -0.06549861
vn -0.9978526 0 -0.06549861
vn -0.9978526 0 -0.06549861
vn -0.9978526 0 -0.06549861
vn 0 1 -1.360349E-07
vn 0 1 -1.360349E-07
vn 0 1 -1.360349E-07
vn 0 1 -1.360349E-07
vn 0 0.6936452 -0.7203169
vn 0 0.6936452 -0.7203169
vn 0 0.6936452 -0.7203169
vn 0 0.6936452 -0.7203169
vn 2.384186E-07 1 -2.339902E-07
vn 2.384186E-07 1 -2.339902E-07
vn 2.384186E-07 1 -2.339902E-07
vn 2.384186E-07 1 -2.339902E-07
vn -0.6427881 -3.451498E-07 -0.766044
vn -0.6427881 -3.451498E-07 -0.766044
vn -0.6427881 -3.451498E-07 -0.766044
vn -0.6427881 -3.451498E-07 -0.766044
vn -1 4.768374E-07 5.051297E-07
vn -1 4.768374E-07 5.051297E-07
vn -1 4.768374E-07 5.051297E-07
vn -1 4.768374E-07 5.051297E-07
vn -0.8558573 1.589457E-07 -0.517212
vn -0.8558573 1.589457E-07 -0.517212
vn -0.8558573 1.589457E-07 -0.517212
vn -0.8558573 1.589457E-07 -0.517212
vn 0.9880536 0 -0.1541107
vn 0.9880536 0 -0.1541107
vn 0.9880536 0 -0.1541107
vn 0.9880536 0 -0.1541107
vn -4.76837E-07 4.768373E-07 1
vn -4.76837E-07 4.768373E-07 1
vn -4.76837E-07 4.768373E-07 1
vn -4.76837E-07 4.768373E-07 1
vn 0.8660222 -0.08682492 0.4924094
vn 0.8660222 -0.08682492 0.4924094
vn 0.8660222 -0.08682492 0.4924094
vn 0.8660222 -0.08682492 0.4924094
vn 0.06549859 0 -0.9978526
vn 0.06549859 0 -0.9978526
vn 0.06549859 0 -0.9978526
vn 0.06549859 0 -0.9978526
vn 0 -0.6936452 0.7203169
vn 0 -0.6936452 0.7203169
vn 0 -0.6936452 0.7203169
vn 0 -0.6936452 0.7203169
vn 2.542195E-07 0.7203169 0.6936452
vn 2.542195E-07 0.7203169 0.6936452
vn 2.542195E-07 0.7203169 0.6936452
vn 2.542195E-07 0.7203169 0.6936452
vn -0.9063078 0 0.4226184
vn -0.9063078 0 0.4226184
vn -0.9063078 0 0.4226184
vn -0.9063078 0 0.4226184
vn 0.9978527 -1.192093E-07 0.06549827
vn 0.9978527 -1.192093E-07 0.06549827
vn 0.9978527 -1.192093E-07 0.06549827
vn 0.9978527 -1.192093E-07 0.06549827
vn 4.768373E-07 1 -1.207065E-07
vn 4.768373E-07 1 -1.207065E-07
vn 4.768373E-07 1 -1.207065E-07
vn 4.768373E-07 1 -1.207065E-07
vn 0.9063079 0 -0.4226179
vn 0.9063079 0 -0.4226179
vn 0.9063079 0 -0.4226179
vn 0.9063079 0 -0.4226179
vn -0.7660444 4.121239E-07 0.6427877
vn -0.7660444 4.121239E-07 0.6427877
vn -0.7660444 4.121239E-07 0.6427877
vn -0.7660444 4.121239E-07 0.6427877
vn 0.4226184 0 0.9063077
vn 0.4226184 0 0.9063077
vn 0.4226184 0 0.9063077
vn 0.4226184 0 0.9063077
vn 0.5172117 -1.192093E-07 -0.8558574
vn 0.5172117 -1.192093E-07 -0.8558574
vn 0.5172117 -1.192093E-07 -0.8558574
vn 0.5172117 -1.192093E-07 -0.8558574
vn 0.7660447 -1.287757E-07 0.6427872
vn 0.7660447 -1.287757E-07 0.6427872
vn 0.7660447 -1.287757E-07 0.6427872
vn 0.7660447 -1.287757E-07 0.6427872
g Dungeon_Boxes_0
f 3/3/3 2/2/2 1/1/1
f 4/4/4 3/3/3 1/1/1
f 7/7/7 6/6/6 5/5/5
f 8/8/8 7/7/7 5/5/5
f 11/11/11 10/10/10 9/9/9
f 12/12/12 11/11/11 9/9/9
f 15/15/15 14/14/14 13/13/13
f 16/16/16 15/15/15 13/13/13
f 19/19/19 18/18/18 17/17/17
f 20/20/20 19/19/19 17/17/17
f 23/23/23 22/22/22 21/21/21
f 24/24/24 23/23/23 21/21/21
f 27/27/27 26/26/26 25/25/25
f 28/28/28 27/27/27 25/25/25
f 31/31/31 30/30/30 29/29/29
f 32/32/32 31/31/31 29/29/29
f 35/35/35 34/34/34 33/33/33
f 36/36/36 35/35/35 33/33/33
f 39/39/39 38/38/38 37/37/37
f 40/40/40 39/39/39 37/37/37
f 43/43/43 42/42/42 41/41/41
f 44/44/44 43/43/43 41/41/41
f 47/47/47 46/46/46 45/45/45
f 48/48/48 47/47/47 45/45/45
f 51/51/51 50/50/50 49/49/49
f 52/52/52 51/51/51 49/49/49
f 55/55/55 54/54/54 53/53/53
f 56/56/56 55/55/55 53/53/53
f 59/59/59 58/58/58 57/57/57
f 60/60/60 59/59/59 57/57/57
f 63/63/63 62/62/62 61/61/61
f 64/64/64 63/63/63 61/61/61
f 67/67/67 66/66/66 65/65/65
f 68/68/68 67/67/67 65/65/65
f 71/71/71 70/70/70 69/69/69
f 72/72/72 71/71/71 69/69/69
f 75/75/75 74/74/74 73/73/73
f 76/76/76 75/75/75 73/73/73
f 79/79/79 78/78/78 77/77/77
f 80/80/80 79/79/79 77/77/77
f 83/83/83 82/82/82 81/81/81
f 84/84/84 83/83/83 81/81/81
f 87/87/87 86/86/86 85/85/85
f 88/88/88 87/87/87 85/85/85
f 91/91/91 90/90/90 89/89/89
f 92/92/92 91/91/91 89/89/89
f 95/95/95 94/94/94 93/93/93
f 96/96/96 95/95/95 93/93/93
f 99/99/99 98/98/98 97/97/97
f 100/100/100 99/99/99 97/97/97
f 103/103/103 102/102/102 101/101/101
f 104/104/104 103/103/103 101/101/101
f 107/107/107 106/106/106 105/105/105
f 108/108/108 107/107/107 105/105/105
f 111/111/111 110/110/110 109/109/109
f 112/112/112 111/111/111 109/109/109
f 115/115/115 114/114/114 113/113/113
f 116/116/116 115/115/115 113/113/113
f 119/119/119 118/118/118 117/117/117
f 120/120/120 119/119/119 117/117/117
f 123/123/123 122/122/122 121/121/121
f 124/124/124 123/123/123 121/121/121
f 127/127/127 126/126/126 125/125/125
f 128/128/128 127/127/127 125/125/125
f 131/131/131 130/130/130 129/129/129
f 132/132/132 131/131/131 129/129/129
f 135/135/135 134/134/134 133/133/133
f 136/136/136 135/135/135 133/133/133
f 139/139/139 138/138/138 137/137/137
f 140/140/140 139/139/139 137/137/137
f 143/143/143 142/142/142 141/141/141
f 144/144/144 143/143/143 141/141/141
f 147/147/147 146/146/146 145/145/145
f 148/148/148 147/147/147 145/145/145
f 151/151/151 150/150/150 149/149/149
f 152/152/152 151/151/151 149/149/149
f 155/155/155 154/154/154 153/153/153
f 156/156/156 155/155/155 153/153/153
f 159/159/159 158/158/158 157/157/157
f 160/160/160 159/159/159 157/157/157
f 163/163/163 162/162/162 161/161/161
f 164/164/164 163/163/163 161/161/161
f 167/167/167 166/166/166 165/165/165
f 168/168/168 167/167/167 165/165/165
f 171/171/171 170/170/170 169/169/169
f 172/172/172 171/171/171 169/169/169
f 175/175/175 174/174/174 173/173/173
f 176/176/176 175/175/175 173/173/173
f 179/179/179 178/178/178 177/177/177
f 180/180/180 179/179/179 177/177/177
f 183/183/183 182/182/182 181/181/181
f 184/184/184 183/183/183 181/181/181
f 187/187/187 186/186/186 185/185/185
f 188/188/188 187/187/187 185/185/185
f 191/191/191 190/190/190 189/189/189
f 192/192/192 191/191/191 189/189/189
f 195/195/195 194/194/194 193/193/193
f 196/196/196 195/195/195 193/193/193
f 199/199/199 198/198/198 197/197/197
f 200/200/200 199/199/199 197/197/197
f 203/203/203 202/202/202 201/201/201
f 204/204/204 203/203/203 201/201/201
f 207/207/207 206/206/206 205/205/205
f 208/208/208 207/207/207 205/205/205
f 211/211/211 210/210/210 209/209/209
f 212/212/212 211/211/211 209/209/209
