g Dungeon_Atlas02
v -0.0999707 139.9 -2.466223E-05
v 0.1000293 140.1 -2.462964E-05
v -0.0999707 140.1 -2.462964E-05
v 0.1000293 139.9 -2.466223E-05
v -0.0999707 139.9 0.9999753
v 0.1000293 140.1 0.9999753
v 0.1000293 139.9 0.9999753
v -0.0999707 140.1 0.9999753
v -0.0999707 139.9 -2.466223E-05
v 0.1000293 139.9 0.9999753
v 0.1000293 139.9 -2.466223E-05
v -0.0999707 139.9 0.9999753
v 0.1000293 139.9 -2.466223E-05
v 0.1000293 140.1 0.9999753
v 0.1000293 140.1 -2.462964E-05
v 0.1000293 139.9 0.9999753
v 0.1000293 140.1 -2.462964E-05
v -0.0999707 140.1 0.9999753
v -0.0999707 140.1 -2.462964E-05
v 0.1000293 140.1 0.9999753
v -0.0999707 140.1 -2.462964E-05
v -0.0999707 139.9 0.9999753
v -0.0999707 139.9 -2.466223E-05
v -0.0999707 140.1 0.9999753
v -0.0999707 119.9 -2.792064E-05
v 0.1000293 120.1 -2.788806E-05
v -0.0999707 120.1 -2.788806E-05
v 0.1000293 119.9 -2.792064E-05
v -0.0999707 119.9 0.999972
v 0.1000293 120.1 0.999972
v 0.1000293 119.9 0.999972
v -0.0999707 120.1 0.999972
v -0.0999707 119.9 -2.792064E-05
v 0.1000293 119.9 0.999972
v 0.1000293 119.9 -2.792064E-05
v -0.0999707 119.9 0.999972
v 0.1000293 119.9 -2.792064E-05
v 0.1000293 120.1 0.999972
v 0.1000293 120.1 -2.788806E-05
v 0.1000293 119.9 0.999972
v 0.1000293 120.1 -2.788806E-05
v -0.0999707 120.1 0.999972
v -0.0999707 120.1 -2.788806E-05
v 0.1000293 120.1 0.999972
v -0.0999707 120.1 -2.788806E-05
v -0.0999707 119.9 0.999972
v -0.0999707 119.9 -2.792064E-05
v -0.0999707 120.1 0.999972
v -0.0999707 129.9 -2.629144E-05
v 0.1000293 130.1 -2.625885E-05
v -0.0999707 130.1 -2.625885E-05
v 0.1000293 129.9 -2.629144E-05
v -0.0999707 129.9 0.9999737
v 0.1000293 130.1 0.9999737
v 0.1000293 129.9 0.9999737
v -0.0999707 130.1 0.9999737
v -0.0999707 129.9 -2.629144E-05
v 0.1000293 129.9 0.9999737
v 0.1000293 129.9 -2.629144E-05
v -0.0999707 129.9 0.9999737
v 0.1000293 129.9 -2.629144E-05
v 0.1000293 130.1 0.9999737
v 0.1000293 130.1 -2.625885E-05
v 0.1000293 129.9 0.9999737
v 0.1000293 130.1 -2.625885E-05
v -0.0999707 130.1 0.9999737
v -0.0999707 130.1 -2.625885E-05
v 0.1000293 130.1 0.9999737
v -0.0999707 130.1 -2.625885E-05
v -0.0999707 129.9 0.9999737
v -0.0999707 129.9 -2.629144E-05
v -0.0999707 130.1 0.9999737
vt 0.04492188 0.3994141
vt 0.03613281 0.4082031
vt 0.04492188 0.4082031
vt 0.03613281 0.3994141
vt 0.03613281 0.3994141
vt 0.04492188 0.4082031
vt 0.04492188 0.3994141
vt 0.03613281 0.4082031
vt 0.03613281 0.3955078
vt 0.04492188 0.4316406
vt 0.04492188 0.3955078
vt 0.03613281 0.4316406
vt 0.03613281 0.3955078
vt 0.04492188 0.4316406
vt 0.04492188 0.3955078
vt 0.03613281 0.4316406
vt 0.03613281 0.3955078
vt 0.04492188 0.4316406
vt 0.04492188 0.3955078
vt 0.03613281 0.4316406
vt 0.03613281 0.3955078
vt 0.04492188 0.4316406
vt 0.04492188 0.3955078
vt 0.03613281 0.4316406
vt 0.04492188 0.3994141
vt 0.03613281 0.4082031
vt 0.04492188 0.4082031
vt 0.03613281 0.3994141
vt 0.03613281 0.3994141
vt 0.04492188 0.4082031
vt 0.04492188 0.3994141
vt 0.03613281 0.4082031
vt 0.03613281 0.3955078
vt 0.04492188 0.4316406
vt 0.04492188 0.3955078
vt 0.03613281 0.4316406
vt 0.03613281 0.3955078
vt 0.04492188 0.4316406
vt 0.04492188 0.3955078
vt 0.03613281 0.4316406
vt 0.03613281 0.3955078
vt 0.04492188 0.4316406
vt 0.04492188 0.3955078
vt 0.03613281 0.4316406
vt 0.03613281 0.3955078
vt 0.04492188 0.4316406
vt 0.04492188 0.3955078
vt 0.03613281 0.4316406
vt 0.04492188 0.3994141
vt 0.03613281 0.4082031
vt 0.04492188 0.4082031
vt 0.03613281 0.3994141
vt 0.03613281 0.3994141
vt 0.04492188 0.4082031
vt 0.04492188 0.3994141
vt 0.03613281 0.4082031
vt 0.03613281 0.3955078
vt 0.04492188 0.4316406
vt 0.04492188 0.3955078
vt 0.03613281 0.4316406
vt 0.03613281 0.3955078
vt 0.04492188 0.4316406
vt 0.04492188 0.3955078
vt 0.03613281 0.4316406
vt 0.03613281 0.3955078
vt 0.04492188 0.4316406
vt 0.04492188 0.3955078
vt 0.03613281 0.4316406
vt 0.03613281 0.3955078
vt 0.04492188 0.4316406
vt 0.04492188 0.3955078
vt 0.03613281 0.4316406
vn 0 1.629232E-07 -1
vn 0 1.629232E-07 -1
vn 0 1.629232E-07 -1
vn 0 1.629232E-07 -1
vn 0 0 1
vn 0 0 1
vn 0 0 1
vn 0 0 1
vn 0 -1 0
vn 0 -1 0
vn 0 -1 0
vn 0 -1 0
vn 1 0 0
vn 1 0 0
vn 1 0 0
vn 1 0 0
vn 0 1 0
vn 0 1 0
vn 0 1 0
vn 0 1 0
vn -1 0 0
vn -1 0 0
vn -1 0 0
vn -1 0 0
vn 0 1.629232E-07 -1
vn 0 1.629232E-07 -1
vn 0 1.629232E-07 -1
vn 0 1.629232E-07 -1
vn 0 0 1
vn 0 0 1
vn 0 0 1
vn 0 0 1
vn 0 -1 0
vn 0 -1 0
vn 0 -1 0
vn 0 -1 0
vn 1 0 0
vn 1 0 0
vn 1 0 0
vn 1 0 0
vn 0 1 0
vn 0 1 0
vn 0 1 0
vn 0 1 0
vn -1 0 0
vn -1 0 0
vn -1 0 0
vn -1 0 0
vn 0 1.629232E-07 -1
vn 0 1.629232E-07 -1
vn 0 1.629232E-07 -1
vn 0 1.629232E-07 -1
vn 0 -3.814697E-07 1
vn 0 -3.814697E-07 1
vn 0 -3.814697E-07 1
vn 0 -3.814697E-07 1
vn 0 -1 0
vn 0 -1 0
vn 0 -1 0
vn 0 -1 0
vn 1 0 0
vn 1 0 0
vn 1 0 0
vn 1 0 0
vn 0 1 0
vn 0 1 0
vn 0 1 0
vn 0 1 0
vn -1 0 0
vn -1 0 0
vn -1 0 0
vn -1 0 0
g Dungeon_Atlas02_0
f 3/3/3 2/2/2 1/1/1
f 4/4/4 1/1/1 2/2/2
f 7/7/7 6/6/6 5/5/5
f 8/8/8 5/5/5 6/6/6
f 11/11/11 10/10/10 9/9/9
f 12/12/12 9/9/9 10/10/10
f 15/15/15 14/14/14 13/13/13
f 16/16/16 13/13/13 14/14/14
f 19/19/19 18/18/18 17/17/17
f 20/20/20 17/17/17 18/18/18
f 23/23/23 22/22/22 21/21/21
f 24/24/24 21/21/21 22/22/22
f 27/27/27 26/26/26 25/25/25
f 28/28/28 25/25/25 26/26/26
f 31/31/31 30/30/30 29/29/29
f 32/32/32 29/29/29 30/30/30
f 35/35/35 34/34/34 33/33/33
f 36/36/36 33/33/33 34/34/34
f 39/39/39 38/38/38 37/37/37
f 40/40/40 37/37/37 38/38/38
f 43/43/43 42/42/42 41/41/41
f 44/44/44 41/41/41 42/42/42
f 47/47/47 46/46/46 45/45/45
f 48/48/48 45/45/45 46/46/46
f 51/51/51 50/50/50 49/49/49
f 52/52/52 49/49/49 50/50/50
f 55/55/55 54/54/54 53/53/53
f 56/56/56 53/53/53 54/54/54
f 59/59/59 58/58/58 57/57/57
f 60/60/60 57/57/57 58/58/58
f 63/63/63 62/62/62 61/61/61
f 64/64/64 61/61/61 62/62/62
f 67/67/67 66/66/66 65/65/65
f 68/68/68 65/65/65 66/66/66
f 71/71/71 70/70/70 69/69/69
f 72/72/72 69/69/69 70/70/70
