g Embiant
v 52.5 11 -400
v 52.5 -9 -250
v 52.5 -9 -400
v 52.5 11 -250
v 114 11 -500
v 114 -9 -400
v 114 -9 -500
v 114 11 -400
v 175.5 11 -600
v 175.5 -9 -500
v 175.5 -9 -600
v 175.5 11 -500
v 216.5 -9 -600
v 216.5 11 -900
v 216.5 11 -600
v 216.5 -9 -900
v 257.5 11 -998
v 257.5 -9 -900
v 257.5 -9 -998
v 257.5 11 -900
v 114 11 750
v 114 -9 996.2
v 114 -9 750
v 114 11 996.2
v 11.5 11 600
v 11.5 -9 750
v 11.5 -9 600
v 11.5 11 750
v 52.5 -9 600
v 52.5 -9.000003 250
v 52.50001 11 600
v 52.5 10.99999 250
v 11.5 -9 100
v 11.5 11 250
v 11.5 -9 250
v 11.5 11 100
v 52.50001 11 600
v 11.5 -9 600
v 52.5 -9 600
v 11.5 11 600
v 12 11 -250
v 12 -9 -150
v 12 -9 -250
v 12 11 -150
v 257.5 11 -900
v 216.5 11 -600
v 216.5 11 -900
v 1050 11 -998
v 175.5 11 -500
v 175.5 11 -600
v 257.5 11 -998
v 1050 11 996.2
v 114 11 -400
v 114 11 -500
v 70 11 -80
v 70 11 100
v 52.5 10.99999 250
v 11.5 11 250
v 11.5 11 100
v 52.50001 11 600
v 114 11 750
v 11.5 11 750
v 11.5 11 600
v 114 11 996.2
v 52.5 11 -250
v 52.5 11 -400
v 70 11 -150
v 12 11 -250
v 12 11 -150
v 114 11 -400
v 70 11 -150
v 52.5 11 -250
v 70 11 -80
vt 44.6225 -388.65
vt 64.62249 -238.65
vt 64.6225 -388.65
vt 44.62249 -238.65
vt 44.62251 -488.65
vt 64.6225 -388.65
vt 64.62251 -488.65
vt 44.6225 -388.65
vt 44.62251 -588.65
vt 64.62251 -488.65
vt 64.62251 -588.65
vt 44.62251 -488.65
vt 64.62251 -588.65
vt 44.62252 -888.65
vt 44.62251 -588.65
vt 64.62252 -888.65
vt 44.62252 -986.65
vt 64.62252 -888.65
vt 64.62253 -986.65
vt 44.62252 -888.65
vt 44.62245 761.35
vt 64.62244 1007.55
vt 64.62245 761.35
vt 44.62244 1007.55
vt 44.62246 611.35
vt 64.62245 761.35
vt 64.62246 611.35
vt 44.62245 761.35
vt 64.62246 611.35
vt 64.62196 268.3335
vt 44.62225 611.3523
vt 47.7051 270.4713
vt 64.62247 111.35
vt 44.62247 261.35
vt 64.62247 261.35
vt 44.62248 111.35
vt 59.21355 44.62246
vt 18.21355 64.62246
vt 59.21355 64.62246
vt 18.21355 44.62246
vt 44.62249 -238.65
vt 64.62249 -138.65
vt 64.62249 -238.65
vt 44.62249 -138.65
vt -263.2136 -888.65
vt -222.2136 -588.65
vt -222.2136 -888.65
vt -1055.714 -986.65
vt -181.2136 -488.65
vt -181.2136 -588.65
vt -263.2136 -986.65
vt -1055.714 1007.55
vt -119.7136 -388.65
vt -119.7136 -488.65
vt -75.71355 -68.65
vt -75.71355 111.35
vt -57.81029 261.033
vt -17.21355 261.35
vt -17.21355 111.35
vt -58.21355 611.35
vt -119.7136 761.35
vt -17.21355 761.35
vt -17.21355 611.35
vt -119.7136 1007.55
vt -58.21355 -238.65
vt -58.21355 -388.65
vt -75.71355 -138.65
vt -17.71355 -238.65
vt -17.71355 -138.65
vt -119.7136 -388.65
vt -54641.74 -5755.747
vt -58.21355 -238.65
vt -75.71355 -68.65
vn -1 0 0
vn -1 0 0
vn -1 0 0
vn -1 0 0
vn -1 0 0
vn -1 0 0
vn -1 0 0
vn -1 0 0
vn -1 0 0
vn -1 0 0
vn -1 0 0
vn -1 0 0
vn -1 0 0
vn -1 0 0
vn -1 0 0
vn -1 0 0
vn -1 0 0
vn -1 0 0
vn -1 0 0
vn -1 0 0
vn -1 0 0
vn -1 0 0
vn -1 0 0
vn -1 0 0
vn -1 0 0
vn -1 0 0
vn -1 0 0
vn -1 0 0
vn -1 0 0
vn -1 0 0
vn -1 0 0
vn -1 0 0
vn -1 0 0
vn -1 0 0
vn -1 0 0
vn -1 0 0
vn 0 0 -1
vn 0 0 -1
vn 0 0 -1
vn 0 0 -1
vn -1 0 0
vn -1 0 0
vn -1 0 0
vn -1 0 0
vn 0 1 0
vn 0 1 0
vn 0 1 0
vn 0 1 0
vn 0 1 0
vn 0 1 0
vn 0 1 0
vn 0 1 0
vn 0 1 0
vn 0 1 0
vn 0 1 0
vn 0 1 0
vn 0 1 0
vn 0 1 0
vn 0 1 0
vn 0 1 0
vn 0 1 0
vn 0 1 0
vn 0 1 0
vn 0 1 0
vn 0 1 0
vn 0 1 0
vn 0 1 0
vn 0 1 0
vn 0 1 0
vn 0 1 0
vn 0 1 0
vn 0 1 0
vn 0 1 0
g Embiant_0
f 3/3/3 2/2/2 1/1/1
f 4/4/4 1/1/1 2/2/2
f 7/7/7 6/6/6 5/5/5
f 8/8/8 5/5/5 6/6/6
f 11/11/11 10/10/10 9/9/9
f 12/12/12 9/9/9 10/10/10
f 15/15/15 14/14/14 13/13/13
f 16/16/16 13/13/13 14/14/14
f 19/19/19 18/18/18 17/17/17
f 20/20/20 17/17/17 18/18/18
f 23/23/23 22/22/22 21/21/21
f 24/24/24 21/21/21 22/22/22
f 27/27/27 26/26/26 25/25/25
f 28/28/28 25/25/25 26/26/26
f 31/31/31 30/30/30 29/29/29
f 32/32/32 30/30/30 31/31/31
f 35/35/35 34/34/34 33/33/33
f 36/36/36 33/33/33 34/34/34
f 39/39/39 38/38/38 37/37/37
f 40/40/40 37/37/37 38/38/38
f 43/43/43 42/42/42 41/41/41
f 44/44/44 41/41/41 42/42/42
g Embiant_1
f 47/47/47 46/46/46 45/45/45
f 45/45/45 46/46/46 48/48/48
f 48/48/48 46/46/46 49/49/49
f 50/50/50 49/49/49 46/46/46
f 51/51/51 45/45/45 48/48/48
f 52/52/52 48/48/48 49/49/49
f 53/53/53 52/52/52 49/49/49
f 54/54/54 53/53/53 49/49/49
f 55/55/55 52/52/52 53/53/53
f 56/56/56 52/52/52 55/55/55
f 52/52/52 56/56/56 57/57/57
f 56/56/56 58/58/58 57/57/57
f 59/59/59 58/58/58 56/56/56
f 60/60/60 52/52/52 57/57/57
f 61/61/61 52/52/52 60/60/60
f 62/62/62 61/61/61 60/60/60
f 63/63/63 62/62/62 60/60/60
f 61/61/61 64/64/64 52/52/52
f 66/66/66 65/65/65 53/53/53
f 65/65/65 68/68/68 67/67/67
f 69/69/69 67/67/67 68/68/68
f 72/72/72 71/71/71 70/70/70
f 71/71/71 73/73/73 70/70/70
