g emperors_palace2_palace_roof006
v 62.62127 -20.25001 10.5
v 54.75 -20.25001 11
v 62.62127 -20.25001 11
v 54.75 -20.25001 10.5
v 54.75 25.125 11
v 54.75 -20.25001 10.5
v 54.75 25.125 10.5
v 54.75 -20.25001 11
v 62.62127 25.125 10.5
v 54.75 25.125 11
v 54.75 25.125 10.5
v 62.62127 25.125 11
v 62.62127 -20.25001 10.5
v 54.75 25.125 10.5
v 54.75 -20.25001 10.5
v 62.62127 25.125 10.5
v 53.06063 -20 11.5
v 61.37313 -20 12
v 61.93563 -20 11.5
v 53.62313 -19.99999 12
v 60.81063 -19.99999 12.5
v 54.18563 -19.99999 12.5
v 53.06063 -20 12
v 61.93563 -20 12
v 53.62313 -19.99999 12.5
v 61.37313 -20 12.5
v 54.74813 -19.99999 13
v 54.18563 -19.99999 13
v 60.24813 -19.99999 13
v 60.81063 -19.99999 13
v 55.31063 -19.99999 13.5
v 54.74813 -19.99999 13.5
v 59.68563 -19.99999 13.5
v 60.24813 -19.99999 13.5
v 55.875 -19.99999 14
v 55.31063 -19.99999 14
v 58.56436 -19.99999 14
v 59.125 -20 14
v 59.68564 -19.99999 14
v 61.37313 25.125 12
v 53.06063 25.125 11.5
v 61.93563 25.125 11.5
v 53.62313 25.125 12
v 60.81063 25.125 12.5
v 54.18563 25.125 12.5
v 52.5 25.125 11
v 62.62127 25.125 11
v 62.62126 25.125 11.5
v 52.5 25.125 11.5
v 53.06064 25.125 12
v 61.93563 25.125 12
v 53.62313 25.125 12.5
v 61.37313 25.125 12.5
v 54.74813 25.125 13
v 54.18563 25.125 13
v 60.24813 25.125 13
v 60.81063 25.125 13
v 55.31095 25.125 13.5
v 54.74813 25.125 13.5
v 59.68563 25.125 13.50001
v 60.24813 25.125 13.5
v 55.875 25.125 14
v 55.31063 25.125 14
v 59.125 25.125 14
v 59.68564 25.125 14
v 54.75 25.125 11
v 52.5 -20.5 11
v 54.75 -20.5 11
v 52.5 25.125 11
v 55.875 -19.99999 14
v 55.875 -20 14.5
v 56.43937 -20 14.5
v 59.125 -20 14
v 58.56435 -20 14.5
v 58.56435 25.125 14.5
v 55.875 25.125 14
v 59.125 25.125 14
v 56.43937 25.125 14.5
v 59.125 25.125 14.5
v 56.43937 25.125 14.5
v 55.875 25.125 14.5
v 58.56436 -20 15
v 56.43937 -20 14.5
v 56.43937 -20 15
v 58.56435 -20 14.5
v 56.43937 25.125 14.5
v 58.56436 25.125 15
v 56.43937 25.125 15
v 58.56435 25.125 14.5
v 58.56436 -19.99999 14
v 55.875 -19.99999 14
v 56.43937 -19.99999 14
v 53.06063 -20 12
v 53.06063 25.125 11.5
v 53.06064 25.125 12
v 53.06063 -20 11.5
v 61.37313 -20 12
v 61.93563 25.125 12
v 61.93563 -20 12
v 61.37313 25.125 12
v 54.18563 -19.99999 13
v 54.18563 25.125 12.5
v 54.18563 25.125 13
v 54.18563 -19.99999 12.5
v 53.62313 -19.99999 12.5
v 53.62313 25.125 12
v 53.62313 25.125 12.5
v 53.62313 -19.99999 12
v 54.74813 -19.99999 13.5
v 54.74813 25.125 13
v 54.74813 25.125 13.5
v 54.74813 -19.99999 13
v 60.81063 25.125 12.5
v 61.37313 -20 12.5
v 60.81063 -19.99999 12.5
v 61.37313 25.125 12.5
v 60.24813 25.125 13
v 60.81063 -19.99999 13
v 60.24813 -19.99999 13
v 60.81063 25.125 13
v 55.31063 -19.99999 13.5
v 55.31063 25.125 14
v 55.31063 -19.99999 14
v 55.31095 25.125 13.5
v 61.93563 -20 11.5
v 62.62126 25.125 11.5
v 62.62127 -20.5 11.5
v 61.93563 25.125 11.5
v 60.24813 25.125 13.5
v 59.68563 -19.99999 13.5
v 59.68563 25.125 13.50001
v 60.24813 -19.99999 13.5
v 53.06063 -20 12
v 53.62313 25.125 12
v 53.62313 -19.99999 12
v 53.06064 25.125 12
v 53.62313 25.125 12.5
v 54.18563 -19.99999 12.5
v 53.62313 -19.99999 12.5
v 54.18563 25.125 12.5
v 54.18563 25.125 13
v 54.74813 -19.99999 13
v 54.18563 -19.99999 13
v 54.74813 25.125 13
v 55.875 25.125 14
v 55.31063 -19.99999 14
v 55.31063 25.125 14
v 55.875 -19.99999 14
v 52.5 -20.5 11.5
v 53.06063 25.125 11.5
v 53.06063 -20 11.5
v 52.5 25.125 11.5
v 55.31095 25.125 13.5
v 54.74813 -19.99999 13.5
v 54.74813 25.125 13.5
v 55.31063 -19.99999 13.5
v 52.5 -20.5 11.5
v 61.93563 -20 11.5
v 62.62127 -20.5 11.5
v 53.06063 -20 11.5
v 55.875 -19.99999 14
v 55.875 25.125 14.5
v 55.875 -20 14.5
v 55.875 25.125 14
v 56.43937 25.125 14.5
v 55.875 -20 14.5
v 55.875 25.125 14.5
v 56.43937 -20 14.5
v 56.43937 -20 14.5
v 56.43937 25.125 15
v 56.43937 -20 15
v 56.43937 25.125 14.5
v 58.56436 25.125 15
v 56.43937 -20 15
v 56.43937 25.125 15
v 58.56436 -20 15
v 58.56435 25.125 14.5
v 59.125 -20 14.5
v 58.56435 -20 14.5
v 59.125 25.125 14.5
v 59.68564 25.125 14
v 59.125 -20 14
v 59.125 25.125 14
v 59.68564 -19.99999 14
v 52.5 -20.5 11
v 52.5 25.125 11.5
v 52.5 -20.5 11.5
v 52.5 25.125 11
v 52.5 -20.5 11
v 62.62127 -20.5 11.5
v 62.62127 -20.5 11
v 52.5 -20.5 11.5
vt 1.121276 -1.437501
vt -6.750002 -0.937501
vt 1.121275 -0.937501
vt -6.750002 -1.4375
vt -12.87505 -0.937499
vt 32.49996 -1.4375
vt -12.87505 -1.437497
vt 32.49996 -0.9375004
vt -0.1212789 -1.437497
vt 7.749998 -0.937499
vt 7.749998 -1.437497
vt -0.1212796 -0.9374981
vt -31.49996 1.121271
vt 13.87505 -6.749997
vt -31.49996 -6.750006
vt 13.87505 1.121279
vt -3.937504 -0.5000001
vt 4.374996 1.935495E-06
vt 4.937494 -0.4999999
vt -3.375007 1.676381E-08
vt 3.812495 0.4999997
vt -2.812504 0.4999997
vt -3.937504 1.754761E-06
vt 4.937496 -1.872678E-07
vt -3.375005 0.5
vt 4.374997 0.5
vt -2.250004 1.000001
vt -2.812504 1.000001
vt 3.249995 1
vt 3.812496 0.9999986
vt -1.687505 1.5
vt -2.250006 1.500002
vt 2.687496 1.500002
vt 3.249994 1.499998
vt -1.123141 1.999999
vt -1.687505 1.999999
vt 1.566217 2
vt 2.126856 2
vt 2.687497 2
vt -3.375006 2.130866E-06
vt 4.937494 -0.5
vt -3.937505 -0.5
vt 4.374996 1.907349E-06
vt -2.812506 0.5000002
vt 3.812493 0.5000001
vt 5.498128 -1.000008
vt -4.623138 -0.9999998
vt -4.623139 -0.5000014
vt 5.498128 -0.5000153
vt 4.937493 1.929287E-06
vt -3.937507 -7.152557E-07
vt 4.374994 0.4999994
vt -3.375007 0.5
vt 3.249993 0.9999988
vt 3.812494 0.9999986
vt -2.250006 0.9999998
vt -2.812506 0.9999995
vt 2.687176 1.500007
vt 3.249995 1.500001
vt -1.687506 1.5
vt -2.250005 1.499999
vt 2.12312 2.000008
vt 2.687481 2
vt -1.126869 2.000008
vt -1.687494 2
vt 24.61692 4.374559
vt -20.99998 6.598193
vt -20.88883 4.353814
vt 24.62503 6.623215
vt -1.687492 1.5
vt -1.687505 1.999999
vt -0.927772 2
vt 2.68749 1.500002
vt 1.93278 2
vt -0.9327969 2
vt 2.687496 1.5
vt -1.687507 1.500004
vt 1.927769 2
vt -1.687508 2
vt 1.927772 2
vt 2.687495 2
vt 2.687497 2
vt -1.687507 1.5
vt -1.687505 1.999999
vt 2.687496 1.500002
vt 2.687496 1.499984
vt -1.687502 1.999984
vt 2.687495 1.999985
vt -1.687507 1.499987
vt 1.566217 2
vt -1.123141 1.999999
vt -0.5587782 2
vt 21.49998 2
vt -23.62503 1.499998
vt -23.62503 2
vt 21.49998 1.499998
vt 21.49998 4.374996
vt -23.62502 4.937507
vt 21.49998 4.937496
vt -23.62502 4.375008
vt 21.49998 2.000001
vt -23.62503 1.499999
vt -23.62503 1.999999
vt 21.49998 1.499999
vt 21.49998 1.999999
vt -23.62503 1.5
vt -23.62503 1.999999
vt 21.49998 1.499999
vt 21.49998 2.000003
vt -23.62503 1.500001
vt -23.62503 2.000003
vt 21.49998 1.500001
vt -23.62502 3.812507
vt 21.49998 4.374997
vt 21.49998 3.812496
vt -23.62502 4.375007
vt -23.62502 3.250006
vt 21.49998 3.812496
vt 21.49998 3.249995
vt -23.62502 3.812506
vt 21.49998 1.499997
vt -23.62503 1.999997
vt 21.49998 1.999997
vt -23.62503 1.499997
vt 21.49998 4.937494
vt -23.62502 5.623139
vt 21.99998 5.623128
vt -23.62502 4.937506
vt -23.62502 3.250005
vt 21.49998 2.687495
vt -23.62502 2.687507
vt 21.49998 3.249994
vt 21.49998 4.935631
vt -23.62502 5.498139
vt 21.49998 5.498128
vt -23.62502 4.935643
vt -23.62502 4.935639
vt 21.49998 5.498129
vt 21.49998 4.935628
vt -23.62502 5.498139
vt -23.62502 4.93564
vt 21.49998 5.498128
vt 21.49998 4.935629
vt -23.62502 5.498139
vt -23.62502 0.001899362
vt 21.49998 -0.5625
vt -23.62503 -0.5624889
vt 21.49998 0.001861726
vt 21.99998 4.937494
vt -23.62502 5.498139
vt 21.49998 5.498129
vt -23.62502 4.937505
vt -23.62502 5.498139
vt 21.49998 4.935629
vt -23.62502 4.93564
vt 21.49998 5.498128
vt -10.5037 5.49814
vt -19.93934 4.998144
vt -20.62498 5.498144
vt -11.06434 4.99814
vt 21.49998 1.499997
vt -23.62503 1.999997
vt 21.49998 1.999997
vt -23.62503 1.499998
vt -3.125047 -1.998136
vt 41.99996 -2.562521
vt -3.125047 -2.5625
vt 41.99996 -1.998157
vt 21.49998 1.499997
vt -23.62503 1.999982
vt 21.49998 1.999997
vt -23.62503 1.499997
vt -3.125039 1.062511
vt 41.99996 -1.062517
vt -3.125047 -1.062497
vt 41.99996 1.062481
vt -3.125047 0.1268618
vt 41.99996 0.6874828
vt 41.99997 0.1268375
vt -3.125047 0.6875
vt -23.62502 3.812499
vt 21.49998 3.251862
vt -23.62502 3.251877
vt 21.49998 3.812502
vt 21.99998 -1
vt -23.62503 -0.5000153
vt 21.99998 -0.5
vt -23.62503 -0.9999999
vt -4.498135 0.5
vt 5.623134 0.999998
vt 5.623129 0.4999972
vt -4.498136 0.9999989
vn 0 -1 0
vn 0 -1 0
vn 0 -1 0
vn 0 -1 0
vn -1 0 0
vn -1 0 0
vn -1 0 0
vn -1 0 0
vn 0 1 0
vn 0 1 0
vn 0 1 0
vn 0 1 0
vn 0 0 -1
vn 0 0 -1
vn 0 0 -1
vn 0 0 -1
vn 0 -1 3.491474E-06
vn 0 -1 3.90625E-06
vn 0 -1 0
vn 0 -1 3.90625E-06
vn 0 -1 0
vn 0 -1 0
vn 0 -1 0
vn 0 -1 0
vn 0 -1 0
vn 0 -1 0
vn 0 -1 0
vn 0 -1 0
vn 0 -1 0
vn 0 -1 0
vn 0 -1 0
vn 0 -1 0
vn 0 -1 0
vn 0 -1 0
vn 0 -1 -3.113905E-06
vn 0 -1 0
vn 0 -1 0
vn 0 -1 -5.891549E-06
vn 0 -1 0
vn 0 1 0
vn 0 1 0
vn 0 1 0
vn 0 1 0
vn 0 1 0
vn 0 1 0
vn 0 1 0
vn 0 1 0
vn 0 1 0
vn 0 1 0
vn 0 1 0
vn 0 1 0
vn 0 1 0
vn 0 1 0
vn 0 1 0
vn 0 1 0
vn 0 1 0
vn 0 1 0
vn 0 1 0
vn 0 1 0
vn 0 1 0
vn 0 1 0
vn 0 1 0
vn 0 1 0
vn 0 1 0
vn 0 1 0
vn 0 0 -1
vn 0 0 -1
vn 0 0 -1
vn 0 0 -1
vn 0 -1 -3.113905E-06
vn 0 -1 0
vn 0 -1 -4.713253E-06
vn 0 -1 -5.891549E-06
vn 0 -1 0
vn 0 1 0
vn 0 1 0
vn 0 1 0
vn 0 1 0
vn 0 1 0
vn 0 1 0
vn 0 1 0
vn 0 -1 0
vn 0 -1 -4.713253E-06
vn 0 -1 0
vn 0 -1 0
vn 0 1 0
vn 0 1 0
vn 0 1 0
vn 0 1 0
vn 0 -1 0
vn 0 -1 -3.113905E-06
vn 0 -1 0
vn -1 0 0
vn -1 0 0
vn -1 0 0
vn -1 0 0
vn 0 0 1
vn 0 0 1
vn 0 0 1
vn 0 0 1
vn -1 0 0
vn -1 0 0
vn -1 0 0
vn -1 0 0
vn -1 0 0
vn -1 0 0
vn -1 0 0
vn -1 0 0
vn -1 0 0
vn -1 0 0
vn -1 0 0
vn -1 0 0
vn 0 0 1
vn 0 0 1
vn 0 0 1
vn 0 0 1
vn 0 0 1
vn 0 0 1
vn 0 0 1
vn 0 0 1
vn -0.9999999 0 -0.0003124984
vn -0.9999999 0 -0.0003124984
vn -1 0 0
vn -0.9999998 0 -0.0006249968
vn 0 0 1
vn 0 0 1
vn 0 0 1
vn 0 0 1
vn 5.425347E-06 0 1
vn 5.425347E-06 0 1
vn 1.085069E-05 0 1
vn 0 0 1
vn 0 0 1
vn 0 0 1
vn 0 0 1
vn 0 0 1
vn 0 0 1
vn 0 0 1
vn 0 0 1
vn 0 0 1
vn 0 0 1
vn 0 0 1
vn 0 0 1
vn 0 0 1
vn 0 0 1
vn 0 0 1
vn 0 0 1
vn 0 0 1
vn 0 0 1
vn 0 0 1
vn 0 0 1
vn 0 0 1
vn 0 0 1
vn 0 0 1
vn 0 0 1
vn 0 0 1
vn 0 0 1
vn 0 0 1
vn 0 0 1
vn 0 0 1
vn -1 0 0
vn -1 0 0
vn -1 0 0
vn -1 0 0
vn 0 0 1
vn 0 0 1
vn 0 0 1
vn 0 0 1
vn -1 0 -9.765673E-06
vn -1 0 -9.765673E-06
vn -1 0 -1.953135E-05
vn -1 0 0
vn 0 0 1
vn 0 0 1
vn 0 0 1
vn 0 0 1
vn 0 0 1
vn 0 0 1
vn 0 0 1
vn 0 0 1
vn 0 0 1
vn 0 0 1
vn 0 0 1
vn 0 0 1
vn -1 0 -9.765661E-06
vn -1 0 -9.765661E-06
vn -1 0 0
vn -1 0 0
vn 0 -1 0
vn 0 -1 0
vn 0 -1 0
vn 0 -1 0
g emperors_palace2_palace_roof006_0
f 3/3/3 2/2/2 1/1/1
f 4/4/4 1/1/1 2/2/2
f 7/7/7 6/6/6 5/5/5
f 8/8/8 5/5/5 6/6/6
f 11/11/11 10/10/10 9/9/9
f 12/12/12 9/9/9 10/10/10
f 15/15/15 14/14/14 13/13/13
f 16/16/16 13/13/13 14/14/14
f 19/19/19 18/18/18 17/17/17
f 20/20/20 17/17/17 18/18/18
f 18/18/18 21/21/21 20/20/20
f 22/22/22 20/20/20 21/21/21
f 23/23/23 17/17/17 20/20/20
f 24/24/24 18/18/18 19/19/19
f 25/25/25 20/20/20 22/22/22
f 26/26/26 21/21/21 18/18/18
f 22/22/22 21/21/21 27/27/27
f 28/28/28 22/22/22 27/27/27
f 29/29/29 27/27/27 21/21/21
f 29/29/29 21/21/21 30/30/30
f 27/27/27 29/29/29 31/31/31
f 32/32/32 27/27/27 31/31/31
f 33/33/33 31/31/31 29/29/29
f 33/33/33 29/29/29 34/34/34
f 31/31/31 33/33/33 35/35/35
f 35/35/35 36/36/36 31/31/31
f 35/35/35 33/33/33 37/37/37
f 33/33/33 38/38/38 37/37/37
f 39/39/39 38/38/38 33/33/33
f 42/42/42 41/41/41 40/40/40
f 43/43/43 40/40/40 41/41/41
f 40/40/40 43/43/43 44/44/44
f 45/45/45 44/44/44 43/43/43
f 41/41/41 42/42/42 46/46/46
f 47/47/47 46/46/46 42/42/42
f 47/47/47 42/42/42 48/48/48
f 46/46/46 49/49/49 41/41/41
f 41/41/41 50/50/50 43/43/43
f 40/40/40 51/51/51 42/42/42
f 43/43/43 52/52/52 45/45/45
f 44/44/44 53/53/53 40/40/40
f 45/45/45 54/54/54 44/44/44
f 45/45/45 55/55/55 54/54/54
f 56/56/56 44/44/44 54/54/54
f 44/44/44 56/56/56 57/57/57
f 54/54/54 58/58/58 56/56/56
f 54/54/54 59/59/59 58/58/58
f 60/60/60 56/56/56 58/58/58
f 56/56/56 60/60/60 61/61/61
f 58/58/58 62/62/62 60/60/60
f 63/63/63 62/62/62 58/58/58
f 64/64/64 60/60/60 62/62/62
f 65/65/65 60/60/60 64/64/64
f 68/68/68 67/67/67 66/66/66
f 69/69/69 66/66/66 67/67/67
f 72/72/72 71/71/71 70/70/70
f 70/70/70 73/73/73 72/72/72
f 74/74/74 72/72/72 73/73/73
f 77/77/77 76/76/76 75/75/75
f 78/78/78 75/75/75 76/76/76
f 79/79/79 77/77/77 75/75/75
f 78/78/78 76/76/76 80/80/80
f 81/81/81 80/80/80 76/76/76
f 84/84/84 83/83/83 82/82/82
f 85/85/85 82/82/82 83/83/83
f 88/88/88 87/87/87 86/86/86
f 87/87/87 89/89/89 86/86/86
f 92/92/92 91/91/91 90/90/90
g emperors_palace2_palace_roof006_1
f 95/95/95 94/94/94 93/93/93
f 96/96/96 93/93/93 94/94/94
f 99/99/99 98/98/98 97/97/97
f 100/100/100 97/97/97 98/98/98
f 103/103/103 102/102/102 101/101/101
f 104/104/104 101/101/101 102/102/102
f 107/107/107 106/106/106 105/105/105
f 108/108/108 105/105/105 106/106/106
f 111/111/111 110/110/110 109/109/109
f 112/112/112 109/109/109 110/110/110
f 115/115/115 114/114/114 113/113/113
f 116/116/116 113/113/113 114/114/114
f 119/119/119 118/118/118 117/117/117
f 120/120/120 117/117/117 118/118/118
f 123/123/123 122/122/122 121/121/121
f 124/124/124 121/121/121 122/122/122
f 127/127/127 126/126/126 125/125/125
f 128/128/128 125/125/125 126/126/126
f 131/131/131 130/130/130 129/129/129
f 132/132/132 129/129/129 130/130/130
f 135/135/135 134/134/134 133/133/133
f 136/136/136 133/133/133 134/134/134
f 139/139/139 138/138/138 137/137/137
f 140/140/140 137/137/137 138/138/138
f 143/143/143 142/142/142 141/141/141
f 144/144/144 141/141/141 142/142/142
f 147/147/147 146/146/146 145/145/145
f 148/148/148 145/145/145 146/146/146
f 151/151/151 150/150/150 149/149/149
f 152/152/152 149/149/149 150/150/150
f 155/155/155 154/154/154 153/153/153
f 156/156/156 153/153/153 154/154/154
f 159/159/159 158/158/158 157/157/157
f 160/160/160 157/157/157 158/158/158
f 163/163/163 162/162/162 161/161/161
f 164/164/164 161/161/161 162/162/162
f 167/167/167 166/166/166 165/165/165
f 168/168/168 165/165/165 166/166/166
f 171/171/171 170/170/170 169/169/169
f 172/172/172 169/169/169 170/170/170
f 175/175/175 174/174/174 173/173/173
f 176/176/176 173/173/173 174/174/174
f 179/179/179 178/178/178 177/177/177
f 180/180/180 177/177/177 178/178/178
f 183/183/183 182/182/182 181/181/181
f 184/184/184 181/181/181 182/182/182
g emperors_palace2_palace_roof006_2
f 187/187/187 186/186/186 185/185/185
f 188/188/188 185/185/185 186/186/186
f 191/191/191 190/190/190 189/189/189
f 192/192/192 189/189/189 190/190/190
