g emperors_palace_fence_stairs_collider_002
v 21.6875 10.75 4.272461E-06
v 35 10.75 4.272461E-06
v 35 17 0
v 21.6875 17 0
v 21.6875 10.75 4.272461E-06
v 21.6875 17 5
v 35 17 5
v 35 10.75 4.272461E-06
v 35 10.75 4.272461E-06
v 35 17 5
v 35 17 0
v 35 17 0
v 35 17 5
v 21.6875 17 5
v 21.6875 17 0
v 21.6875 17 0
v 21.6875 17 5
v 21.6875 10.75 4.272461E-06
vt 23.60714 14.50001
vt 27.5 14.50001
vt 27.5 24.50001
vt 23.60714 24.50001
vt -22.60714 14.50001
vt -22.60714 24.50001
vt -26.5 24.50001
vt -26.5 14.50001
vt -13.50001 -4.5
vt -23.50001 0.5
vt -23.50001 -4.5
vt 27.5 -4.5
vt 27.5 0.5
vt 23.60714 0.5
vt 23.60714 -4.5
vt 24.50001 -4.5
vt 24.50001 0.5
vt 14.50001 -4.5
vn 0 0 -1
vn 0 0 -1
vn 0 0 -1
vn 0 0 -1
vn 0 -0.6246947 0.7808691
vn 0 -0.6246947 0.7808691
vn 0 -0.6246947 0.7808691
vn 0 -0.6246947 0.7808691
vn 1 0 0
vn 1 0 0
vn 1 0 0
vn 0 1 0
vn 0 1 0
vn 0 1 0
vn 0 1 0
vn -1 0 0
vn -1 0 0
vn -1 0 0
g emperors_palace_fence_stairs_collider_002_0
f 3/3/3 2/2/2 1/1/1
f 4/4/4 3/3/3 1/1/1
f 7/7/7 6/6/6 5/5/5
f 8/8/8 7/7/7 5/5/5
f 11/11/11 10/10/10 9/9/9
f 14/14/14 13/13/13 12/12/12
f 15/15/15 14/14/14 12/12/12
f 18/18/18 17/17/17 16/16/16
