g emperors_palace_lake_water
v -6.000008 -40 -3.89537
v -10.00001 -40 -3.89537
v -10.00001 -36 -3.89537
v -6.000008 -36 -3.89537
v -2.000008 -40 -3.89537
v -2.000008 -36 -3.89537
v 1.999992 -40 -3.89537
v 1.999992 -36 -3.89537
v -10.00001 -32 -3.89537
v -6.000008 -32 -3.89537
v -2.000008 -32 -3.89537
v 1.999992 -32 -3.89537
v 5.999992 -36 -3.89537
v 5.999992 -32 -3.89537
v 1.999992 -28 -3.89537
v 5.999992 -28 -3.89537
v 9.999991 -36 -3.89537
v 9.999991 -32 -3.89537
v 9.999991 -28 -3.89537
v 5.999992 -24 -3.89537
v 9.999991 -24 -3.89537
v 5.999992 -20 -3.89537
v 9.999991 -20 -3.89537
v 1.999992 -20 -3.89537
v 1.999992 -24 -3.89537
v -2.000008 -20 -3.89537
v -2.000008 -24 -3.89537
v -6.000008 -20 -3.89537
v -6.000008 -24 -3.89537
v -10.00001 -20 -3.89537
v -10.00001 -24 -3.89537
v -6.000008 -28 -3.89537
v -10.00001 -28 -3.89537
v -2.000008 -28 -3.89537
v 9.999991 -40 -3.89537
v 5.999992 -40 -3.89537
vt -5.500002 -9.5
vt -9.500002 -9.499996
vt -9.500001 -5.499996
vt -5.500001 -5.5
vt -1.500002 -9.5
vt -1.500001 -5.5
vt 2.499998 -9.5
vt 2.499999 -5.5
vt -9.5 -1.499998
vt -5.5 -1.499998
vt -1.5 -1.5
vt 2.5 -1.5
vt 6.499999 -5.5
vt 6.5 -1.5
vt 2.5 2.5
vt 6.5 2.499998
vt 10.5 -5.500004
vt 10.5 -1.500004
vt 10.5 2.499998
vt 6.500001 6.499998
vt 10.5 6.499998
vt 6.500002 10.5
vt 10.5 10.5
vt 2.500002 10.5
vt 2.500001 6.5
vt -1.499997 10.5
vt -1.499998 6.5
vt -5.499997 10.5
vt -5.499998 6.500002
vt -9.499997 10.5
vt -9.499998 6.500002
vt -5.499999 2.500002
vt -9.499999 2.500002
vt -1.499999 2.5
vt 10.5 -9.500004
vt 6.499998 -9.5
vn 0 0 1
vn 0 0 1
vn 0 0 1
vn 0 0 1
vn 0 0 1
vn 0 0 1
vn 0 0 1
vn 0 0 1
vn 0 0 1
vn 0 0 1
vn 0 0 1
vn 0 0 1
vn 0 0 1
vn 0 0 1
vn 0 0 1
vn 0 0 1
vn 0 0 1
vn 0 0 1
vn 0 0 1
vn 0 0 1
vn 0 0 1
vn 0 0 1
vn 0 0 1
vn 0 0 1
vn 0 0 1
vn 0 0 1
vn 0 0 1
vn 0 0 1
vn 0 0 1
vn 0 0 1
vn 0 0 1
vn 0 0 1
vn 0 0 1
vn 0 0 1
vn 0 0 1
vn 0 0 1
g emperors_palace_lake_water_0
f 3/3/3 2/2/2 1/1/1
f 4/4/4 3/3/3 1/1/1
f 4/4/4 1/1/1 5/5/5
f 6/6/6 4/4/4 5/5/5
f 6/6/6 5/5/5 7/7/7
f 8/8/8 6/6/6 7/7/7
f 9/9/9 3/3/3 4/4/4
f 10/10/10 9/9/9 4/4/4
f 10/10/10 4/4/4 6/6/6
f 11/11/11 6/6/6 8/8/8
f 11/11/11 10/10/10 6/6/6
f 12/12/12 11/11/11 8/8/8
f 12/12/12 8/8/8 13/13/13
f 14/14/14 12/12/12 13/13/13
f 15/15/15 12/12/12 14/14/14
f 16/16/16 15/15/15 14/14/14
f 14/14/14 13/13/13 17/17/17
f 18/18/18 14/14/14 17/17/17
f 16/16/16 14/14/14 18/18/18
f 19/19/19 16/16/16 18/18/18
f 20/20/20 16/16/16 19/19/19
f 21/21/21 20/20/20 19/19/19
f 22/22/22 20/20/20 21/21/21
f 23/23/23 22/22/22 21/21/21
f 22/22/22 24/24/24 20/20/20
f 24/24/24 25/25/25 20/20/20
f 25/25/25 15/15/15 16/16/16
f 20/20/20 25/25/25 16/16/16
f 24/24/24 26/26/26 25/25/25
f 26/26/26 27/27/27 25/25/25
f 25/25/25 27/27/27 15/15/15
f 26/26/26 28/28/28 27/27/27
f 28/28/28 29/29/29 27/27/27
f 28/28/28 30/30/30 29/29/29
f 30/30/30 31/31/31 29/29/29
f 29/29/29 31/31/31 32/32/32
f 31/31/31 33/33/33 32/32/32
f 32/32/32 33/33/33 10/10/10
f 33/33/33 9/9/9 10/10/10
f 32/32/32 10/10/10 11/11/11
f 34/34/34 32/32/32 11/11/11
f 29/29/29 32/32/32 34/34/34
f 27/27/27 29/29/29 34/34/34
f 27/27/27 34/34/34 15/15/15
f 34/34/34 11/11/11 12/12/12
f 15/15/15 34/34/34 12/12/12
f 13/13/13 36/36/36 35/35/35
f 17/17/17 13/13/13 35/35/35
f 13/13/13 8/8/8 36/36/36
f 8/8/8 7/7/7 36/36/36
