g emperors_palace2_fence_001_widnows_002_collider
v -27.93749 10.24999 1
v -27.93749 9.624989 1.625
v -27.93749 9.624989 2.375
v -27.93749 10.24999 3
v -27.93749 8.874989 2.375
v -27.93749 8.249989 3
v -27.93749 8.874989 1.625
v -27.93749 8.249989 1
v -28.0625 10.24999 3
v -28.0625 9.624989 2.375
v -28.0625 9.624989 1.625
v -28.0625 10.24999 1
v -28.0625 8.874989 1.625
v -28.0625 8.249989 1
v -28.0625 8.874989 2.375
v -28.0625 8.249989 3
v -27.93749 9.624989 1.625
v -28.0625 9.624989 1.625
v -28.0625 9.624989 2.375
v -27.93749 9.624989 2.375
v -27.93749 9.624989 2.375
v -28.0625 9.624989 2.375
v -28.0625 8.874989 2.375
v -27.93749 8.874989 2.375
v -27.93749 8.874989 2.375
v -28.0625 8.874989 2.375
v -28.0625 8.874989 1.625
v -27.93749 8.874989 1.625
v -27.93749 8.874989 1.625
v -28.0625 8.874989 1.625
v -28.0625 9.624989 1.625
v -27.93749 9.624989 1.625
v -27.93749 -7.75001 1
v -27.93749 -8.37501 1.625
v -27.93749 -8.37501 2.375
v -27.93749 -7.75001 3
v -27.93749 -9.12501 2.375
v -27.93749 -9.75001 3
v -27.93749 -9.12501 1.625
v -27.93749 -9.75001 1
v -28.0625 -7.75001 3
v -28.0625 -8.37501 2.375
v -28.0625 -8.37501 1.625
v -28.0625 -7.75001 1
v -28.0625 -9.12501 1.625
v -28.0625 -9.75001 1
v -28.0625 -9.12501 2.375
v -28.0625 -9.75001 3
v -27.93749 -8.37501 1.625
v -28.0625 -8.37501 1.625
v -28.0625 -8.37501 2.375
v -27.93749 -8.37501 2.375
v -27.93749 -8.37501 2.375
v -28.0625 -8.37501 2.375
v -28.0625 -9.12501 2.375
v -27.93749 -9.12501 2.375
v -27.93749 -9.12501 2.375
v -28.0625 -9.12501 2.375
v -28.0625 -9.12501 1.625
v -27.93749 -9.12501 1.625
v -27.93749 -9.12501 1.625
v -28.0625 -9.12501 1.625
v -28.0625 -8.37501 1.625
v -27.93749 -8.37501 1.625
vt 0.2265625 0.7421875
vt 0.3046875 0.8203125
vt 0.3046875 0.9140625
vt 0.2265625 0.9921875
vt 0.3984375 0.9140625
vt 0.4765625 0.9921875
vt 0.3984375 0.8203125
vt 0.4765625 0.7421875
vt 0.2265625 0.9921875
vt 0.3046875 0.9140625
vt 0.3046875 0.8203125
vt 0.2265625 0.7421875
vt 0.3984375 0.8203125
vt 0.4765625 0.7421875
vt 0.3984375 0.9140625
vt 0.4765625 0.9921875
vt 0.3046875 0.8203125
vt 0.3046875 0.8203125
vt 0.3046875 0.9140625
vt 0.3046875 0.9140625
vt 0.3046875 0.9140625
vt 0.3046875 0.9140625
vt 0.3984375 0.9140625
vt 0.3984375 0.9140625
vt 0.3984375 0.9140625
vt 0.3984375 0.9140625
vt 0.3984375 0.8203125
vt 0.3984375 0.8203125
vt 0.3984375 0.8203125
vt 0.3984375 0.8203125
vt 0.3046875 0.8203125
vt 0.3046875 0.8203125
vt 0.2265625 0.7421875
vt 0.3046875 0.8203125
vt 0.3046875 0.9140625
vt 0.2265625 0.9921875
vt 0.3984375 0.9140625
vt 0.4765625 0.9921875
vt 0.3984375 0.8203125
vt 0.4765625 0.7421875
vt 0.2265625 0.9921875
vt 0.3046875 0.9140625
vt 0.3046875 0.8203125
vt 0.2265625 0.7421875
vt 0.3984375 0.8203125
vt 0.4765625 0.7421875
vt 0.3984375 0.9140625
vt 0.4765625 0.9921875
vt 0.3046875 0.8203125
vt 0.3046875 0.8203125
vt 0.3046875 0.9140625
vt 0.3046875 0.9140625
vt 0.3046875 0.9140625
vt 0.3046875 0.9140625
vt 0.3984375 0.9140625
vt 0.3984375 0.9140625
vt 0.3984375 0.9140625
vt 0.3984375 0.9140625
vt 0.3984375 0.8203125
vt 0.3984375 0.8203125
vt 0.3984375 0.8203125
vt 0.3984375 0.8203125
vt 0.3046875 0.8203125
vt 0.3046875 0.8203125
vn 1 0 0
vn 1 0 0
vn 1 0 0
vn 1 0 0
vn 1 0 0
vn 1 0 0
vn 1 0 0
vn 1 0 0
vn -1 0 0
vn -1 0 0
vn -1 0 0
vn -1 0 0
vn -1 0 0
vn -1 0 0
vn -1 0 0
vn -1 0 0
vn 0 -1 0
vn 0 -1 0
vn 0 -1 0
vn 0 -1 0
vn 0 0 -1
vn 0 0 -1
vn 0 0 -1
vn 0 0 -1
vn 0 1 0
vn 0 1 0
vn 0 1 0
vn 0 1 0
vn 0 0 1
vn 0 0 1
vn 0 0 1
vn 0 0 1
vn 1 0 0
vn 1 0 0
vn 1 0 0
vn 1 0 0
vn 1 0 0
vn 1 0 0
vn 1 0 0
vn 1 0 0
vn -1 0 0
vn -1 0 0
vn -1 0 0
vn -1 0 0
vn -1 0 0
vn -1 0 0
vn -1 0 0
vn -1 0 0
vn 0 -1 0
vn 0 -1 0
vn 0 -1 0
vn 0 -1 0
vn 0 0 -1
vn 0 0 -1
vn 0 0 -1
vn 0 0 -1
vn 0 1 0
vn 0 1 0
vn 0 1 0
vn 0 1 0
vn 0 0 1
vn 0 0 1
vn 0 0 1
vn 0 0 1
g emperors_palace2_fence_001_widnows_002_collider_0
f 3/3/3 2/2/2 1/1/1
f 4/4/4 3/3/3 1/1/1
f 5/5/5 3/3/3 4/4/4
f 6/6/6 5/5/5 4/4/4
f 7/7/7 5/5/5 6/6/6
f 8/8/8 7/7/7 6/6/6
f 2/2/2 7/7/7 8/8/8
f 1/1/1 2/2/2 8/8/8
f 11/11/11 10/10/10 9/9/9
f 12/12/12 11/11/11 9/9/9
f 13/13/13 11/11/11 12/12/12
f 14/14/14 13/13/13 12/12/12
f 15/15/15 13/13/13 14/14/14
f 16/16/16 15/15/15 14/14/14
f 10/10/10 15/15/15 16/16/16
f 9/9/9 10/10/10 16/16/16
f 19/19/19 18/18/18 17/17/17
f 20/20/20 19/19/19 17/17/17
f 23/23/23 22/22/22 21/21/21
f 24/24/24 23/23/23 21/21/21
f 27/27/27 26/26/26 25/25/25
f 28/28/28 27/27/27 25/25/25
f 31/31/31 30/30/30 29/29/29
f 32/32/32 31/31/31 29/29/29
f 35/35/35 34/34/34 33/33/33
f 36/36/36 35/35/35 33/33/33
f 37/37/37 35/35/35 36/36/36
f 38/38/38 37/37/37 36/36/36
f 39/39/39 37/37/37 38/38/38
f 40/40/40 39/39/39 38/38/38
f 34/34/34 39/39/39 40/40/40
f 33/33/33 34/34/34 40/40/40
f 43/43/43 42/42/42 41/41/41
f 44/44/44 43/43/43 41/41/41
f 45/45/45 43/43/43 44/44/44
f 46/46/46 45/45/45 44/44/44
f 47/47/47 45/45/45 46/46/46
f 48/48/48 47/47/47 46/46/46
f 42/42/42 47/47/47 48/48/48
f 41/41/41 42/42/42 48/48/48
f 51/51/51 50/50/50 49/49/49
f 52/52/52 51/51/51 49/49/49
f 55/55/55 54/54/54 53/53/53
f 56/56/56 55/55/55 53/53/53
f 59/59/59 58/58/58 57/57/57
f 60/60/60 59/59/59 57/57/57
f 63/63/63 62/62/62 61/61/61
f 64/64/64 63/63/63 61/61/61
