g Enemy1_Foot_right001
v -0.07874016 -0.07874016 0.01338929
v 0.07874016 0.07874016 0.01338929
v 0.07874016 -0.07874016 0.01338929
v -0.07874016 0.07874016 0.01338929
v -0.07874016 -0.07874016 -0.4590517
v 0.07874016 0.07874016 -0.4590517
v -0.07874016 0.07874016 -0.4590517
v 0.07874016 -0.07874016 -0.4590517
v -0.07874016 -0.07874016 0.01338929
v 0.07874016 -0.07874016 -0.4590517
v -0.07874016 -0.07874016 -0.4590517
v 0.07874016 -0.07874016 0.01338929
v 0.07874016 -0.07874016 0.01338929
v 0.07874016 0.07874016 -0.4590517
v 0.07874016 -0.07874016 -0.4590517
v 0.07874016 0.07874016 0.01338929
v -0.07874016 0.07874016 0.01338929
v -0.07874016 0.07874016 -0.4590517
v 0.07874016 0.07874016 0.01338929
v 0.07874016 0.07874016 -0.4590517
v -0.07874016 -0.07874016 0.01338929
v -0.07874016 -0.07874016 -0.4590517
v -0.07874016 0.07874016 0.01338929
v -0.07874016 0.07874016 -0.4590517
vt 0.1248733 0.3750895
vt 0.06253967 0.4997962
vt 0.1248733 0.4997962
vt 0.06253967 0.3750895
vt 0.1874213 0.4998444
vt 0.1250801 0.3751229
vt 0.1250801 0.4998444
vt 0.1874213 0.3751229
vt 0.0624905 0.3749427
vt 4.042712E-05 0.0001208187
vt 0.0624905 0.0001213548
vt 4.042712E-05 0.3749425
vt 0.1875145 0.3748939
vt 0.2499745 0.000174974
vt 0.1875145 0.0001745713
vt 0.2499745 0.3748943
vt 0.06247012 0.3746651
vt 0.06247018 -8.715695E-05
vt 7.036609E-05 0.3746651
vt 7.04555E-05 -8.715695E-05
vt 0.1249658 0.3749477
vt 0.1249658 0.0002210354
vt 0.06251512 0.3749477
vt 0.06251511 0.0002210354
vn 0 0 1
vn 0 0 1
vn 0 0 1
vn 0 0 1
vn 0 0 -1
vn 0 0 -1
vn 0 0 -1
vn 0 0 -1
vn 0 -1 0
vn 0 -1 0
vn 0 -1 0
vn 0 -1 0
vn 1 0 0
vn 1 0 0
vn 1 0 0
vn 1 0 0
vn 0 1 0
vn 0 1 0
vn 0 1 0
vn 0 1 0
vn -1 0 0
vn -1 0 0
vn -1 0 0
vn -1 0 0
g Enemy1_Foot_right001_0
f 3/3/3 2/2/2 1/1/1
f 4/4/4 1/1/1 2/2/2
f 7/7/7 6/6/6 5/5/5
f 8/8/8 5/5/5 6/6/6
f 11/11/11 10/10/10 9/9/9
f 12/12/12 9/9/9 10/10/10
f 15/15/15 14/14/14 13/13/13
f 16/16/16 13/13/13 14/14/14
f 19/19/19 18/18/18 17/17/17
f 20/20/20 18/18/18 19/19/19
f 23/23/23 22/22/22 21/21/21
f 24/24/24 22/22/22 23/23/23
