g Enemy15_mesh
v 0.1425711 0.2473526 0.7458653
v 0.1425711 -0.2526474 0.7458653
v -0.1678364 -0.2526474 0.7458653
v -0.1678364 0.2473526 0.7458653
v -0.1241212 -0.2526474 0.0837971
v 0.1425711 -0.2526473 0.08379691
v 0.142571 0.2473527 0.08379694
v -0.1241213 0.2473526 0.08379731
v -0.1241213 -0.2526474 0.4113646
v -0.1678364 -0.2526474 0.4113646
v -0.1678364 -0.2526474 0.7458653
v 0.1425711 -0.2526474 0.7458653
v 0.1425711 -0.2526473 0.08379691
v -0.1241212 -0.2526474 0.0837971
v 0.1425711 -0.2526474 0.7458653
v 0.1425711 0.2473526 0.7458653
v 0.142571 0.2473527 0.08379694
v 0.1425711 -0.2526473 0.08379691
v 0.1425711 0.2473526 0.7458653
v -0.1241213 0.2473526 0.08379731
v 0.142571 0.2473527 0.08379694
v -0.1241212 0.2473526 0.4113646
v -0.1678364 0.2473526 0.4113646
v -0.1678364 0.2473526 0.7458653
v -0.1241212 -0.2526474 0.0837971
v -0.1241213 0.2473526 0.08379731
v -0.1241212 0.2473526 0.4113646
v -0.1241213 -0.2526474 0.4113646
v -0.1678364 -0.2526474 0.7458653
v -0.1678364 -0.2526474 0.4113646
v -0.1678364 0.2473526 0.4113646
v -0.1678364 0.2473526 0.7458653
v -0.1241212 0.2473526 0.4113646
v -0.1678364 0.2473526 0.4113646
v -0.1678364 -0.2526474 0.4113646
v -0.1241213 -0.2526474 0.4113646
v -0.07436494 -0.02304852 0.143988
v -0.04614858 0.2177754 0.2048785
v 0.1816378 0.2171343 0.1018593
v 0.1534215 -0.02368978 0.04096905
v -0.510333 0.2021686 -0.5447323
v -0.1786729 0.201235 -0.6947293
v -0.1504567 0.442059 -0.6338389
v -0.4821166 0.4429927 -0.483842
v -0.4821166 0.4429927 -0.483842
v -0.4339645 0.4103796 -0.3771688
v -0.4621802 0.1695551 -0.438058
v -0.510333 0.2021686 -0.5447323
v -0.1786729 0.201235 -0.6947293
v -0.510333 0.2021686 -0.5447323
v -0.4621802 0.1695551 -0.438058
v -0.3583066 0.1692626 -0.4850358
v 0.1534215 -0.02368978 0.04096905
v -0.07436494 -0.02304852 0.143988
v -0.3583066 0.1692626 -0.4850358
v -0.4621802 0.1695551 -0.438058
v -0.4339645 0.4103796 -0.3771688
v -0.3300909 0.4100872 -0.424147
v -0.3300909 0.4100872 -0.424147
v -0.4339645 0.4103796 -0.3771688
v -0.4821166 0.4429927 -0.483842
v -0.1504567 0.442059 -0.6338389
v -0.04614858 0.2177754 0.2048785
v 0.1816378 0.2171343 0.1018593
v -0.1786729 0.201235 -0.6947293
v 0.1534215 -0.02368978 0.04096905
v 0.1816378 0.2171343 0.1018593
v -0.1504567 0.442059 -0.6338389
v -0.3300909 0.4100872 -0.424147
v -0.04614858 0.2177754 0.2048785
v -0.07436494 -0.02304852 0.143988
v -0.3583066 0.1692626 -0.4850358
v -0.1557677 -0.2371811 0.06540039
v -0.1268125 0.009687085 0.09219086
v 0.1190192 -0.02261774 0.1241776
v 0.09006406 -0.2694859 0.09738687
v -0.1503994 -0.1465692 -0.7753655
v 0.2075348 -0.1936054 -0.7287925
v 0.2364899 0.0532627 -0.7020018
v -0.1214443 0.1002989 -0.748575
v -0.1214443 0.1002989 -0.748575
v -0.1384771 0.08929654 -0.6287817
v -0.1674323 -0.1575716 -0.6555724
v -0.1503994 -0.1465692 -0.7753655
v 0.2075348 -0.1936054 -0.7287925
v -0.1503994 -0.1465692 -0.7753655
v -0.1674323 -0.1575716 -0.6555724
v -0.05532979 -0.172303 -0.6409859
v 0.09006406 -0.2694859 0.09738687
v -0.1557677 -0.2371811 0.06540039
v -0.05532979 -0.172303 -0.6409859
v -0.1674323 -0.1575716 -0.6555724
v -0.1384771 0.08929654 -0.6287817
v -0.02637469 0.07456512 -0.6141952
v -0.02637469 0.07456512 -0.6141952
v -0.1384771 0.08929654 -0.6287817
v -0.1214443 0.1002989 -0.748575
v 0.2364899 0.0532627 -0.7020018
v -0.1268125 0.009687085 0.09219086
v 0.1190192 -0.02261774 0.1241776
v 0.2075348 -0.1936054 -0.7287925
v 0.09006406 -0.2694859 0.09738687
v 0.1190192 -0.02261774 0.1241776
v 0.2364899 0.0532627 -0.7020018
v -0.02637469 0.07456512 -0.6141952
v -0.1268125 0.009687085 0.09219086
v -0.1557677 -0.2371811 0.06540039
v -0.05532979 -0.172303 -0.6409859
v 0.138531 -0.4713477 0.005483114
v 0.06440221 -0.4376173 0.7162272
v 0.06614226 -0.2507362 0.7075397
v 0.140271 -0.2844667 -0.003204451
v -0.03551973 -0.4705727 -0.0127069
v -0.03377969 -0.2836917 -0.02139441
v -0.1079085 -0.2499612 0.6893497
v -0.1096485 -0.4368423 0.6980373
v 0.140271 -0.2844667 -0.003204451
v 0.06614226 -0.2507362 0.7075397
v -0.1079085 -0.2499612 0.6893497
v -0.03377969 -0.2836917 -0.02139441
v 0.06440221 -0.4376173 0.7162272
v 0.138531 -0.4713477 0.005483114
v -0.03551973 -0.4705727 -0.0127069
v -0.1096485 -0.4368423 0.6980373
v -0.0472523 -0.2736676 -0.03353217
v -0.0492718 -0.4905623 -0.02344947
v 0.1540298 -0.4914675 -0.002202768
v 0.1560493 -0.2745728 -0.01228566
v -0.06809539 -0.2641833 0.1663124
v 0.1352062 -0.2650886 0.1875589
v 0.1331867 -0.4819833 0.1976417
v -0.0701149 -0.4810781 0.176395
v -0.0472523 -0.2736676 -0.03353217
v -0.06809539 -0.2641833 0.1663124
v -0.0701149 -0.4810781 0.176395
v -0.0492718 -0.4905623 -0.02344947
v -0.0492718 -0.4905623 -0.02344947
v -0.0701149 -0.4810781 0.176395
v 0.1331867 -0.4819833 0.1976417
v 0.1540298 -0.4914675 -0.002202768
v 0.1540298 -0.4914675 -0.002202768
v 0.1331867 -0.4819833 0.1976417
v 0.1352062 -0.2650886 0.1875589
v 0.1560493 -0.2745728 -0.01228566
v 0.1560493 -0.2745728 -0.01228566
v 0.1352062 -0.2650886 0.1875589
v -0.06809539 -0.2641833 0.1663124
v -0.0472523 -0.2736676 -0.03353217
v -0.1045841 -0.2595766 0.4729013
v -0.1065285 -0.4684047 0.4826091
v 0.1045461 -0.4693445 0.504668
v 0.1064905 -0.2605164 0.4949602
v -0.1307264 -0.2476811 0.7235545
v 0.0803482 -0.2486209 0.7456135
v 0.07840382 -0.457449 0.7553213
v -0.1326708 -0.4565092 0.7332623
v -0.1045841 -0.2595766 0.4729013
v -0.1307264 -0.2476811 0.7235545
v -0.1326708 -0.4565092 0.7332623
v -0.1065285 -0.4684047 0.4826091
v -0.1065285 -0.4684047 0.4826091
v -0.1326708 -0.4565092 0.7332623
v 0.07840382 -0.457449 0.7553213
v 0.1045461 -0.4693445 0.504668
v 0.1045461 -0.4693445 0.504668
v 0.07840382 -0.457449 0.7553213
v 0.0803482 -0.2486209 0.7456135
v 0.1064905 -0.2605164 0.4949602
v 0.1064905 -0.2605164 0.4949602
v 0.0803482 -0.2486209 0.7456135
v -0.1307264 -0.2476811 0.7235545
v -0.1045841 -0.2595766 0.4729013
v 0.1251673 0.255111 0.6802695
v 0.1014499 0.4343479 0.7226098
v -0.04971066 0.5764483 0.03639015
v -0.02599326 0.3972113 -0.005950238
v -0.04637019 0.2249611 0.7118124
v -0.1975307 0.3670615 0.02559278
v -0.2212481 0.5462984 0.06793311
v -0.0700876 0.4041981 0.7541527
v -0.04637019 0.2249611 0.7118124
v 0.1251673 0.255111 0.6802695
v -0.02599326 0.3972113 -0.005950238
v -0.1975307 0.3670615 0.02559278
v -0.2212481 0.5462984 0.06793311
v -0.04971066 0.5764483 0.03639015
v 0.1014499 0.4343479 0.7226098
v -0.0700876 0.4041981 0.7541527
v -0.1369187 0.4643603 0.5542767
v -0.1103565 0.263625 0.5068579
v 0.09531979 0.2997752 0.4690373
v 0.0687576 0.5005103 0.5164561
v -0.0837214 0.4143516 0.7957745
v 0.1219549 0.4505018 0.7579539
v 0.1485171 0.2497665 0.7105351
v -0.05715923 0.2136163 0.7483557
v -0.1369187 0.4643603 0.5542767
v -0.0837214 0.4143516 0.7957745
v -0.05715923 0.2136163 0.7483557
v -0.1103565 0.263625 0.5068579
v -0.1103565 0.263625 0.5068579
v -0.05715923 0.2136163 0.7483557
v 0.1485171 0.2497665 0.7105351
v 0.09531979 0.2997752 0.4690373
v 0.09531979 0.2997752 0.4690373
v 0.1485171 0.2497665 0.7105351
v 0.1219549 0.4505018 0.7579539
v 0.0687576 0.5005103 0.5164561
v 0.0687576 0.5005103 0.5164561
v 0.1219549 0.4505018 0.7579539
v -0.0837214 0.4143516 0.7957745
v -0.1369187 0.4643603 0.5542767
v -0.240512 0.5652949 0.06546427
v -0.2120738 0.3503823 0.01469652
v -0.01397179 0.3852011 -0.02173156
v -0.04240995 0.6001138 0.02903638
v -0.1980981 0.5254232 0.2580091
v 3.980013E-06 0.5602422 0.2215813
v 0.02844213 0.3453295 0.1708134
v -0.1696599 0.3105106 0.2072413
v -0.240512 0.5652949 0.06546427
v -0.1980981 0.5254232 0.2580091
v -0.1696599 0.3105106 0.2072413
v -0.2120738 0.3503823 0.01469652
v -0.2120738 0.3503823 0.01469652
v -0.1696599 0.3105106 0.2072413
v 0.02844213 0.3453295 0.1708134
v -0.01397179 0.3852011 -0.02173156
v -0.01397179 0.3852011 -0.02173156
v 0.02844213 0.3453295 0.1708134
v 3.980013E-06 0.5602422 0.2215813
v -0.04240995 0.6001138 0.02903638
v -0.04240995 0.6001138 0.02903638
v 3.980013E-06 0.5602422 0.2215813
v -0.1980981 0.5254232 0.2580091
v -0.240512 0.5652949 0.06546427
vt 0.3150387 0.4959199
vt 0.4349442 0.4959199
vt 0.4362094 0.3718051
vt 0.3137867 0.3718053
vt 0.5600924 0.495384
vt 0.5600924 0.3789147
vt 0.4397316 0.3789147
vt 0.4397316 0.495384
vt 0.4388956 0.1906092
vt 0.4376639 0.1905565
vt 0.4376639 0.3717358
vt 0.4986522 0.3716254
vt 0.4986522 0.003235038
vt 0.4388956 0.003235565
vt 0.6228395 0.370897
vt 0.5020829 0.3708966
vt 0.5020829 0.00398062
vt 0.6228395 0.003980971
vt 0.2523876 0.3717858
vt 0.3101867 0.001799304
vt 0.2523876 0.001799304
vt 0.3101867 0.1899849
vt 0.3123496 0.1906258
vt 0.3123496 0.3718053
vt 0.4362094 0.003083343
vt 0.3137867 0.003083343
vt 0.3137867 0.1906258
vt 0.4362094 0.1906257
vt 0.4362094 0.3718051
vt 0.4362094 0.1906257
vt 0.3137867 0.1906258
vt 0.3137867 0.3718053
vt 0.3137867 0.1906258
vt 0.3137867 0.1906258
vt 0.4362094 0.1906257
vt 0.4362094 0.1906257
vt 0.06439807 0.3773884
vt 0.1230149 0.3773884
vt 0.1230149 0.4968598
vt 0.06439807 0.4968598
vt 0.2131204 0.4937854
vt 0.1279216 0.4937854
vt 0.1279216 0.3774678
vt 0.2131204 0.3774678
vt 0.1232585 0.003712624
vt 0.1232585 0.06328531
vt 0.06422246 0.06328604
vt 0.06422246 0.003712624
vt 0.1260927 0.003789461
vt 0.2124482 0.00379019
vt 0.2124482 0.06332155
vt 0.1854023 0.06332137
vt 0.1260927 0.3712738
vt 0.1854023 0.3712741
vt 0.06422246 0.06328604
vt 0.06422246 0.06328604
vt 0.1232585 0.06328531
vt 0.1232585 0.06328531
vt 0.0598898 0.0636057
vt 0.08646582 0.06360574
vt 0.0864658 0.004200361
vt 0.001610756 0.004200424
vt 0.05988975 0.3709106
vt 0.001610681 0.3709106
vt 0.1893258 0.003718575
vt 0.1893258 0.3713499
vt 0.2481632 0.3713503
vt 0.2481632 0.00371897
vt 0.1232585 0.06328531
vt 0.1232585 0.3714561
vt 0.06422246 0.3714561
vt 0.06422246 0.06328604
vt 0.1228348 0.3780397
vt 0.06457817 0.3780397
vt 0.06457817 0.4968459
vt 0.1228348 0.4968459
vt 0.2136779 0.3781485
vt 0.1276301 0.3781485
vt 0.1276301 0.4931045
vt 0.2136779 0.4931045
vt 0.0638413 0.003680222
vt 0.0638413 0.06326384
vt 0.1236397 0.06326385
vt 0.1236397 0.003680222
vt 0.00246088 0.004493862
vt 0.08634058 0.004494573
vt 0.08634059 0.06379747
vt 0.06007005 0.06379728
vt 0.00246088 0.3705694
vt 0.06007005 0.3705697
vt 0.1236397 0.06326385
vt 0.1236397 0.06326385
vt 0.0638413 0.06326384
vt 0.0638413 0.06326384
vt 0.1857426 0.06321342
vt 0.2126289 0.06321339
vt 0.212629 0.003619441
vt 0.126783 0.003619465
vt 0.1857426 0.3714915
vt 0.1267829 0.3714915
vt 0.2480062 0.004345284
vt 0.2480062 0.3707232
vt 0.1894827 0.3707236
vt 0.1894827 0.004345678
vt 0.0638413 0.06326384
vt 0.06384131 0.3714885
vt 0.1236397 0.3714885
vt 0.1236397 0.06326385
vt 0.8749058 0.0002772452
vt 0.8749058 0.3576891
vt 0.8125199 0.3576891
vt 0.8125199 0.0002772452
vt 0.6876549 0.0006676987
vt 0.7498413 0.0006676987
vt 0.7498414 0.3574741
vt 0.6876549 0.3574741
vt 0.8123293 0.0004921891
vt 0.8123293 0.3575931
vt 0.7500771 0.357593
vt 0.7500771 0.0004921574
vt 0.6251478 0.3574711
vt 0.6251479 0.0002380711
vt 0.6873756 0.0002376686
vt 0.6873756 0.3574707
vt 0.8125 0.5
vt 0.75 0.5
vt 0.75 0.375
vt 0.8125 0.375
vt 0.6875 0
vt 0.6875 0.09375
vt 0.625 0.09375
vt 0.625 0
vt 0.75 0
vt 0.75 0.09375
vt 0.6875 0.09375
vt 0.6875 0
vt 0.6875 0
vt 0.6875 0.09375
vt 0.625 0.09375
vt 0.625 0
vt 0.875 0
vt 0.875 0.09375
vt 0.8125 0.09375
vt 0.8125 0
vt 0.8125 0
vt 0.8125 0.09375
vt 0.75 0.09375
vt 0.75 0
vt 0.6875 0.25
vt 0.6875 0.375
vt 0.75 0.375
vt 0.75 0.25
vt 0.75 0.375
vt 0.75 0.5
vt 0.6875 0.5
vt 0.6875 0.375
vt 0.75 0.25
vt 0.75 0.375
vt 0.6875 0.375
vt 0.6875 0.25
vt 0.6875 0.25
vt 0.6875 0.375
vt 0.625 0.375
vt 0.625 0.25
vt 0.8125 0.375
vt 0.875 0.375
vt 0.875 0.25
vt 0.8125 0.25
vt 0.8125 0.25
vt 0.8125 0.375
vt 0.75 0.375
vt 0.75 0.25
vt 0.8125199 0.3584387
vt 0.8749058 0.3584387
vt 0.8749058 0.0002772452
vt 0.8125199 0.0002772452
vt 0.7498414 0.3582225
vt 0.7498413 0.0006676987
vt 0.6876549 0.0006676987
vt 0.6876549 0.3582225
vt 0.7500771 0.3583421
vt 0.8123293 0.3583421
vt 0.8123293 0.0004921891
vt 0.7500771 0.0004921574
vt 0.6873756 0.0002376686
vt 0.6251479 0.0002380711
vt 0.6251479 0.3582203
vt 0.6873755 0.3582199
vt 0.6875 0.25
vt 0.6875 0.375
vt 0.75 0.375
vt 0.75 0.25
vt 0.6875 0.375
vt 0.6875 0.5
vt 0.75 0.5
vt 0.75 0.375
vt 0.6875 0.25
vt 0.6875 0.375
vt 0.75 0.375
vt 0.75 0.25
vt 0.8125 0.25
vt 0.75 0.25
vt 0.75 0.375
vt 0.8125 0.375
vt 0.8125 0.25
vt 0.875 0.25
vt 0.875 0.375
vt 0.8125 0.375
vt 0.625 0.25
vt 0.625 0.375
vt 0.6875 0.375
vt 0.6875 0.25
vt 0.75 0.5
vt 0.8125 0.5
vt 0.8125 0.375
vt 0.75 0.375
vt 0.6875 0
vt 0.6875 0.09375
vt 0.625 0.09375
vt 0.625 0
vt 0.6875 0
vt 0.6875 0.09375
vt 0.75 0.09375
vt 0.75 0
vt 0.75 0
vt 0.75 0.09375
vt 0.8125 0.09375
vt 0.8125 0
vt 0.8125 0
vt 0.8125 0.09375
vt 0.875 0.09375
vt 0.875 0
vt 0.625 0
vt 0.625 0.09375
vt 0.6875 0.09375
vt 0.6875 0
vn 0 0 1
vn 0 0 1
vn 0 0 1
vn 0 0 1
vn -1.065535E-06 2.412795E-07 -1
vn -1.065535E-06 2.412795E-07 -1
vn -1.065535E-06 2.412795E-07 -1
vn -1.065535E-06 2.412795E-07 -1
vn 1.292161E-07 -1 0
vn 1.292161E-07 -1 0
vn 1.292161E-07 -1 0
vn 1.292161E-07 -1 0
vn 1.384572E-07 -1 0
vn 1.384572E-07 -1 0
vn 1 0 0
vn 1 0 0
vn 1 0 0
vn 1 0 0
vn -4.410873E-07 1 0
vn -4.410873E-07 1 0
vn -4.410873E-07 1 0
vn -1.292161E-07 1 0
vn -1.292161E-07 1 0
vn -1.292161E-07 1 0
vn -1 0 0
vn -1 0 0
vn -1 0 0
vn -1 0 0
vn -1 0 0
vn -1 0 0
vn -1 0 0
vn -1 0 0
vn 0 0 -1
vn 0 0 -1
vn 0 0 -1
vn 0 0 -1
vn 0.3963268 -0.268429 0.8779926
vn 0.3963268 -0.268429 0.8779926
vn 0.3963269 -0.268429 0.8779926
vn 0.3963269 -0.268429 0.8779926
vn -0.3963264 0.268429 -0.8779927
vn -0.3963264 0.268429 -0.8779927
vn -0.3963265 0.2684291 -0.8779927
vn -0.3963265 0.2684291 -0.8779927
vn -0.911146 0.002565245 0.4120757
vn -0.911146 0.002565245 0.4120757
vn -0.911146 0.002565245 0.4120757
vn -0.911146 0.002565245 0.4120756
vn -0.1128651 -0.9632961 -0.2435613
vn -0.1128651 -0.9632961 -0.2435613
vn -0.1128651 -0.9632961 -0.2435613
vn -0.1128651 -0.9632961 -0.2435613
vn -0.1128649 -0.9632962 -0.2435609
vn -0.1128649 -0.9632962 -0.2435609
vn 0.3963272 -0.2684231 0.8779942
vn 0.3963272 -0.2684231 0.8779942
vn 0.3963272 -0.2684231 0.8779942
vn 0.3963272 -0.2684231 0.8779942
vn 0.1128652 0.9632961 0.2435613
vn 0.1128652 0.9632961 0.2435613
vn 0.1128652 0.9632961 0.2435613
vn 0.1128652 0.9632961 0.2435613
vn 0.1128648 0.9632962 0.243561
vn 0.1128648 0.9632962 0.243561
vn 0.9111459 -0.00256497 -0.4120758
vn 0.911146 -0.002564969 -0.4120758
vn 0.911146 -0.002564969 -0.4120758
vn 0.9111459 -0.002564969 -0.4120758
vn -0.9111459 0.002565293 0.4120758
vn -0.9111459 0.002565293 0.4120758
vn -0.9111459 0.002565294 0.4120759
vn -0.9111459 0.002565293 0.4120758
vn -0.1401911 -0.09055694 0.9859746
vn -0.1401911 -0.09055693 0.9859746
vn -0.1401911 -0.09055694 0.9859746
vn -0.1401911 -0.09055694 0.9859746
vn 0.1401917 0.09055676 -0.9859746
vn 0.1401916 0.09055674 -0.9859746
vn 0.1401916 0.09055674 -0.9859746
vn 0.1401917 0.09055676 -0.9859746
vn -0.9833271 0.1292192 -0.1279466
vn -0.9833271 0.1292192 -0.1279466
vn -0.9833271 0.1292192 -0.1279466
vn -0.9833271 0.1292192 -0.1279466
vn -0.1158204 -0.9874725 -0.1071623
vn -0.1158204 -0.9874725 -0.1071623
vn -0.1158204 -0.9874725 -0.1071623
vn -0.1158204 -0.9874725 -0.1071623
vn -0.1158205 -0.9874725 -0.1071624
vn -0.1158205 -0.9874725 -0.1071624
vn -0.1401921 -0.09055691 0.9859744
vn -0.1401921 -0.09055693 0.9859744
vn -0.1401921 -0.09055691 0.9859744
vn -0.1401921 -0.09055693 0.9859744
vn 0.1158205 0.9874725 0.1071622
vn 0.1158205 0.9874725 0.1071623
vn 0.1158205 0.9874725 0.1071623
vn 0.1158205 0.9874725 0.1071623
vn 0.1158205 0.9874725 0.1071624
vn 0.1158205 0.9874725 0.1071624
vn 0.983327 -0.1292193 0.1279467
vn 0.983327 -0.1292193 0.1279467
vn 0.983327 -0.1292193 0.1279467
vn 0.983327 -0.1292193 0.1279467
vn -0.983327 0.1292192 -0.1279467
vn -0.983327 0.1292192 -0.1279467
vn -0.983327 0.1292192 -0.1279467
vn -0.983327 0.1292192 -0.1279467
vn 0.9945735 -0.004428521 0.1039416
vn 0.9945735 -0.004428521 0.1039416
vn 0.9945735 -0.004428522 0.1039416
vn 0.9945735 -0.004428522 0.1039416
vn -0.9945735 0.004428518 -0.1039416
vn -0.9945735 0.004428518 -0.1039417
vn -0.9945735 0.004428518 -0.1039417
vn -0.9945735 0.004428518 -0.1039416
vn 0.009300445 0.9988781 -0.04643473
vn 0.009300445 0.9988781 -0.04643473
vn 0.009300445 0.9988781 -0.04643473
vn 0.009300445 0.9988781 -0.04643474
vn -0.009300711 -0.9988781 0.04643471
vn -0.009300712 -0.9988781 0.04643471
vn -0.009300711 -0.9988781 0.0464347
vn -0.009300711 -0.9988781 0.0464347
vn 0.1036185 -0.04714962 -0.9934989
vn 0.1036185 -0.04714962 -0.9934989
vn 0.1036185 -0.04714962 -0.9934989
vn 0.1036185 -0.04714962 -0.9934989
vn -0.1036183 0.04714948 0.993499
vn -0.1036183 0.04714948 0.993499
vn -0.1036183 0.04714948 0.993499
vn -0.1036183 0.04714948 0.993499
vn -0.9945736 0.004428589 -0.1039408
vn -0.9945736 0.004428589 -0.1039408
vn -0.9945736 0.004428589 -0.1039408
vn -0.9945736 0.004428589 -0.1039408
vn -0.009300526 -0.9988781 0.04643452
vn -0.009300526 -0.9988781 0.04643453
vn -0.009300525 -0.9988781 0.04643453
vn -0.009300525 -0.9988781 0.04643453
vn 0.9945736 -0.004428397 0.1039408
vn 0.9945736 -0.004428397 0.1039408
vn 0.9945736 -0.004428396 0.1039408
vn 0.9945736 -0.004428396 0.1039408
vn 0.009300656 0.9988781 -0.04643466
vn 0.009300656 0.9988781 -0.04643466
vn 0.009300656 0.9988781 -0.04643466
vn 0.009300656 0.9988781 -0.04643466
vn 0.1036185 -0.04714952 -0.9934989
vn 0.1036185 -0.04714951 -0.9934989
vn 0.1036185 -0.04714951 -0.9934989
vn 0.1036185 -0.04714952 -0.9934989
vn -0.1036187 0.0471495 0.9934989
vn -0.1036187 0.0471495 0.9934989
vn -0.1036187 0.0471495 0.9934989
vn -0.1036187 0.0471495 0.9934989
vn -0.9945736 0.004428569 -0.1039409
vn -0.9945736 0.004428569 -0.1039409
vn -0.9945736 0.004428569 -0.1039409
vn -0.9945736 0.004428569 -0.1039409
vn -0.00930038 -0.9988781 0.04643469
vn -0.00930038 -0.9988781 0.04643469
vn -0.009300379 -0.9988781 0.04643468
vn -0.009300379 -0.9988781 0.04643468
vn 0.9945736 -0.004428547 0.1039409
vn 0.9945736 -0.004428546 0.1039409
vn 0.9945736 -0.004428547 0.1039409
vn 0.9945736 -0.004428547 0.1039409
vn 0.009300528 0.9988781 -0.04643474
vn 0.009300528 0.9988781 -0.04643474
vn 0.009300529 0.9988781 -0.04643474
vn 0.009300529 0.9988781 -0.04643474
vn 0.9691371 0.1703379 -0.1782085
vn 0.9691371 0.1703379 -0.1782085
vn 0.9691371 0.1703379 -0.1782085
vn 0.9691371 0.1703379 -0.1782085
vn -0.9691371 -0.1703378 0.1782085
vn -0.9691371 -0.1703378 0.1782085
vn -0.9691371 -0.1703378 0.1782085
vn -0.9691371 -0.1703378 0.1782085
vn 0.1277253 -0.9652436 -0.2280152
vn 0.1277253 -0.9652436 -0.2280152
vn 0.1277253 -0.9652436 -0.2280152
vn 0.1277253 -0.9652436 -0.2280152
vn -0.1277252 0.9652436 0.2280152
vn -0.1277252 0.9652436 0.2280152
vn -0.1277252 0.9652436 0.2280152
vn -0.1277252 0.9652436 0.2280152
vn -0.2108548 0.1982161 -0.9572098
vn -0.2108548 0.1982161 -0.9572098
vn -0.2108548 0.1982161 -0.9572098
vn -0.2108548 0.1982161 -0.9572098
vn 0.2108545 -0.1982162 0.9572099
vn 0.2108545 -0.1982162 0.9572099
vn 0.2108545 -0.1982162 0.9572099
vn 0.2108545 -0.1982162 0.9572099
vn -0.969137 -0.1703381 0.1782091
vn -0.969137 -0.170338 0.1782091
vn -0.969137 -0.170338 0.1782091
vn -0.969137 -0.170338 0.1782091
vn 0.1277252 -0.9652436 -0.2280153
vn 0.1277252 -0.9652436 -0.2280153
vn 0.1277252 -0.9652436 -0.2280153
vn 0.1277252 -0.9652436 -0.2280153
vn 0.969137 0.170338 -0.1782091
vn 0.969137 0.170338 -0.1782091
vn 0.969137 0.170338 -0.1782091
vn 0.969137 0.170338 -0.1782091
vn -0.1277252 0.9652437 0.2280151
vn -0.1277252 0.9652437 0.2280151
vn -0.1277251 0.9652437 0.2280151
vn -0.1277251 0.9652437 0.2280151
vn -0.2108554 0.198216 -0.9572097
vn -0.2108554 0.198216 -0.9572097
vn -0.2108554 0.198216 -0.9572097
vn -0.2108554 0.198216 -0.9572097
vn 0.2108548 -0.1982161 0.9572098
vn 0.2108549 -0.1982161 0.9572098
vn 0.2108548 -0.1982161 0.9572098
vn 0.2108549 -0.1982161 0.9572098
vn -0.969137 -0.170338 0.1782091
vn -0.969137 -0.170338 0.1782091
vn -0.969137 -0.170338 0.1782091
vn -0.969137 -0.170338 0.1782091
vn 0.127725 -0.9652437 -0.2280152
vn 0.127725 -0.9652437 -0.2280153
vn 0.127725 -0.9652437 -0.2280152
vn 0.127725 -0.9652437 -0.2280152
vn 0.969137 0.1703378 -0.1782091
vn 0.969137 0.1703379 -0.1782091
vn 0.969137 0.1703378 -0.1782091
vn 0.969137 0.1703379 -0.1782091
vn -0.1277253 0.9652436 0.2280153
vn -0.1277253 0.9652436 0.2280153
vn -0.1277253 0.9652436 0.2280153
vn -0.1277253 0.9652436 0.2280153
g Enemy15_mesh_0
f 3/3/3 2/2/2 1/1/1
f 4/4/4 3/3/3 1/1/1
f 7/7/7 6/6/6 5/5/5
f 8/8/8 7/7/7 5/5/5
f 11/11/11 10/10/10 9/9/9
f 12/12/12 11/11/11 9/9/9
f 13/13/13 12/12/12 9/9/9
f 14/14/14 13/13/13 9/9/9
f 17/17/17 16/16/16 15/15/15
f 18/18/18 17/17/17 15/15/15
f 21/21/21 20/20/20 19/19/19
f 20/20/20 22/22/22 19/19/19
f 22/22/22 23/23/23 19/19/19
f 23/23/23 24/24/24 19/19/19
f 27/27/27 26/26/26 25/25/25
f 28/28/28 27/27/27 25/25/25
f 31/31/31 30/30/30 29/29/29
f 32/32/32 31/31/31 29/29/29
f 35/35/35 34/34/34 33/33/33
f 36/36/36 35/35/35 33/33/33
f 39/39/39 38/38/38 37/37/37
f 40/40/40 39/39/39 37/37/37
f 43/43/43 42/42/42 41/41/41
f 44/44/44 43/43/43 41/41/41
f 47/47/47 46/46/46 45/45/45
f 48/48/48 47/47/47 45/45/45
f 51/51/51 50/50/50 49/49/49
f 52/52/52 51/51/51 49/49/49
f 49/49/49 53/53/53 52/52/52
f 53/53/53 54/54/54 52/52/52
f 57/57/57 56/56/56 55/55/55
f 58/58/58 57/57/57 55/55/55
f 61/61/61 60/60/60 59/59/59
f 62/62/62 61/61/61 59/59/59
f 59/59/59 63/63/63 62/62/62
f 63/63/63 64/64/64 62/62/62
f 67/67/67 66/66/66 65/65/65
f 68/68/68 67/67/67 65/65/65
f 71/71/71 70/70/70 69/69/69
f 72/72/72 71/71/71 69/69/69
f 75/75/75 74/74/74 73/73/73
f 76/76/76 75/75/75 73/73/73
f 79/79/79 78/78/78 77/77/77
f 80/80/80 79/79/79 77/77/77
f 83/83/83 82/82/82 81/81/81
f 84/84/84 83/83/83 81/81/81
f 87/87/87 86/86/86 85/85/85
f 88/88/88 87/87/87 85/85/85
f 85/85/85 89/89/89 88/88/88
f 89/89/89 90/90/90 88/88/88
f 93/93/93 92/92/92 91/91/91
f 94/94/94 93/93/93 91/91/91
f 97/97/97 96/96/96 95/95/95
f 98/98/98 97/97/97 95/95/95
f 95/95/95 99/99/99 98/98/98
f 99/99/99 100/100/100 98/98/98
f 103/103/103 102/102/102 101/101/101
f 104/104/104 103/103/103 101/101/101
f 107/107/107 106/106/106 105/105/105
f 108/108/108 107/107/107 105/105/105
f 111/111/111 110/110/110 109/109/109
f 112/112/112 111/111/111 109/109/109
f 115/115/115 114/114/114 113/113/113
f 116/116/116 115/115/115 113/113/113
f 119/119/119 118/118/118 117/117/117
f 120/120/120 119/119/119 117/117/117
f 123/123/123 122/122/122 121/121/121
f 124/124/124 123/123/123 121/121/121
f 127/127/127 126/126/126 125/125/125
f 128/128/128 127/127/127 125/125/125
f 131/131/131 130/130/130 129/129/129
f 132/132/132 131/131/131 129/129/129
f 135/135/135 134/134/134 133/133/133
f 136/136/136 135/135/135 133/133/133
f 139/139/139 138/138/138 137/137/137
f 140/140/140 139/139/139 137/137/137
f 143/143/143 142/142/142 141/141/141
f 144/144/144 143/143/143 141/141/141
f 147/147/147 146/146/146 145/145/145
f 148/148/148 147/147/147 145/145/145
f 151/151/151 150/150/150 149/149/149
f 152/152/152 151/151/151 149/149/149
f 155/155/155 154/154/154 153/153/153
f 156/156/156 155/155/155 153/153/153
f 159/159/159 158/158/158 157/157/157
f 160/160/160 159/159/159 157/157/157
f 163/163/163 162/162/162 161/161/161
f 164/164/164 163/163/163 161/161/161
f 167/167/167 166/166/166 165/165/165
f 168/168/168 167/167/167 165/165/165
f 171/171/171 170/170/170 169/169/169
f 172/172/172 171/171/171 169/169/169
f 175/175/175 174/174/174 173/173/173
f 176/176/176 175/175/175 173/173/173
f 179/179/179 178/178/178 177/177/177
f 180/180/180 179/179/179 177/177/177
f 183/183/183 182/182/182 181/181/181
f 184/184/184 183/183/183 181/181/181
f 187/187/187 186/186/186 185/185/185
f 188/188/188 187/187/187 185/185/185
f 191/191/191 190/190/190 189/189/189
f 192/192/192 191/191/191 189/189/189
f 195/195/195 194/194/194 193/193/193
f 196/196/196 195/195/195 193/193/193
f 199/199/199 198/198/198 197/197/197
f 200/200/200 199/199/199 197/197/197
f 203/203/203 202/202/202 201/201/201
f 204/204/204 203/203/203 201/201/201
f 207/207/207 206/206/206 205/205/205
f 208/208/208 207/207/207 205/205/205
f 211/211/211 210/210/210 209/209/209
f 212/212/212 211/211/211 209/209/209
f 215/215/215 214/214/214 213/213/213
f 216/216/216 215/215/215 213/213/213
f 219/219/219 218/218/218 217/217/217
f 220/220/220 219/219/219 217/217/217
f 223/223/223 222/222/222 221/221/221
f 224/224/224 223/223/223 221/221/221
f 227/227/227 226/226/226 225/225/225
f 228/228/228 227/227/227 225/225/225
f 231/231/231 230/230/230 229/229/229
f 232/232/232 231/231/231 229/229/229
f 235/235/235 234/234/234 233/233/233
f 236/236/236 235/235/235 233/233/233
