# Mesh "energy_drill_rocket_mesh" exported with Unity Assets Bundle Extractor; 120 vertices, 180 indices, 32 bytes per vertex
g energy_drill_rocket_mesh
# SubMesh 0
# Vertices
v -0.019092 0.018816 0.322632
vt 0.546875 0.515625
vn -0.000213 -0.000298 1.000000
v 0.018861 0.018816 0.322641
vt 0.531250 0.515625
vn -0.000213 -0.000298 1.000000
v 0.018861 -0.019136 0.322629
vt 0.531250 0.500000
vn -0.000213 -0.000298 1.000000
v -0.019091 -0.019137 0.322621
vt 0.546875 0.500000
vn -0.000213 -0.000298 1.000000
v -0.057023 -0.057061 0.227720
vt 0.601563 0.484375
vn -0.000216 -0.000296 1.000000
v -0.057024 0.056797 0.227754
vt 0.601563 0.531250
vn -0.000216 -0.000296 1.000000
v -0.019071 0.018844 0.227751
vt 0.585938 0.515625
vn -0.000216 -0.000296 1.000000
v -0.019071 -0.019108 0.227740
vt 0.585938 0.500000
vn -0.000216 -0.000296 1.000000
v -0.094940 -0.094963 0.056914
vt 0.687500 0.468750
vn -0.000212 -0.000297 1.000000
v -0.094941 0.094799 0.056970
vt 0.687500 0.546875
vn -0.000212 -0.000297 1.000000
v -0.056988 0.056847 0.056967
vt 0.671875 0.531250
vn -0.000212 -0.000297 1.000000
v -0.056987 -0.057010 0.056933
vt 0.671875 0.484375
vn -0.000212 -0.000297 1.000000
v -0.151829 -0.151844 -0.113901
vt 0.781250 0.445313
vn -0.000214 -0.000296 1.000000
v -0.151836 0.151776 -0.113811
vt 0.781250 0.570313
vn -0.000214 -0.000296 1.000000
v -0.094906 0.094848 -0.113816
vt 0.757813 0.546875
vn -0.000214 -0.000296 1.000000
v -0.094902 -0.094914 -0.113872
vt 0.757813 0.468750
vn -0.000214 -0.000296 1.000000
v 0.151836 -0.151776 -0.322576
vt 0.992188 0.445313
vn 0.000214 0.000297 -1.000000
v 0.151829 0.151844 -0.322486
vt 0.992188 0.570313
vn 0.000214 0.000297 -1.000000
v -0.151791 0.151838 -0.322550
vt 0.867188 0.570313
vn 0.000214 0.000297 -1.000000
v -0.151785 -0.151782 -0.322641
vt 0.867188 0.445313
vn 0.000214 0.000297 -1.000000
v -0.151785 -0.151782 -0.322641
vt 0.867188 0.445313
vn -1.000000 -0.000021 -0.000213
v -0.151791 0.151838 -0.322550
vt 0.867188 0.570313
vn -1.000000 -0.000021 -0.000213
v -0.151836 0.151776 -0.113811
vt 0.781250 0.570313
vn -1.000000 -0.000021 -0.000213
v -0.151829 -0.151844 -0.113901
vt 0.781250 0.445313
vn -1.000000 -0.000021 -0.000213
v -0.094902 -0.094914 -0.113872
vt 0.757813 0.468750
vn -1.000000 -0.000013 -0.000214
v -0.094906 0.094848 -0.113816
vt 0.757813 0.546875
vn -1.000000 -0.000013 -0.000214
v -0.094941 0.094799 0.056970
vt 0.687500 0.546875
vn -1.000000 -0.000013 -0.000214
v -0.094940 -0.094963 0.056914
vt 0.687500 0.468750
vn -1.000000 -0.000013 -0.000214
v -0.056987 -0.057010 0.056933
vt 0.671875 0.484375
vn -1.000000 -0.000005 -0.000212
v -0.056988 0.056847 0.056967
vt 0.671875 0.531250
vn -1.000000 -0.000005 -0.000212
v -0.057024 0.056797 0.227754
vt 0.601563 0.531250
vn -1.000000 -0.000005 -0.000212
v -0.057023 -0.057061 0.227720
vt 0.601563 0.484375
vn -1.000000 -0.000005 -0.000212
v -0.019071 -0.019108 0.227740
vt 0.585938 0.500000
vn -1.000000 -0.000003 -0.000213
v -0.019071 0.018844 0.227751
vt 0.585938 0.515625
vn -1.000000 -0.000003 -0.000213
v -0.019092 0.018816 0.322632
vt 0.546875 0.515625
vn -1.000000 -0.000003 -0.000213
v -0.019091 -0.019137 0.322621
vt 0.546875 0.500000
vn -1.000000 -0.000003 -0.000213
v -0.057024 0.056797 0.227754
vt 0.601563 0.484375
vn -0.000216 -0.000292 1.000000
v 0.056833 0.056797 0.227778
vt 0.601563 0.531250
vn -0.000216 -0.000292 1.000000
v 0.018881 0.018844 0.227759
vt 0.585938 0.515625
vn -0.000216 -0.000292 1.000000
v -0.019071 0.018844 0.227751
vt 0.585938 0.500000
vn -0.000216 -0.000292 1.000000
v -0.094941 0.094799 0.056970
vt 0.687500 0.468750
vn -0.000213 -0.000297 1.000000
v 0.094822 0.094800 0.057011
vt 0.687500 0.546875
vn -0.000213 -0.000297 1.000000
v 0.056870 0.056848 0.056992
vt 0.671875 0.531250
vn -0.000213 -0.000297 1.000000
v -0.056988 0.056847 0.056967
vt 0.671875 0.484375
vn -0.000213 -0.000297 1.000000
v -0.151836 0.151776 -0.113811
vt 0.781250 0.445313
vn -0.000213 -0.000294 1.000000
v 0.151785 0.151782 -0.113747
vt 0.781250 0.570313
vn -0.000213 -0.000294 1.000000
v 0.094857 0.094852 -0.113775
vt 0.757813 0.546875
vn -0.000213 -0.000294 1.000000
v -0.094906 0.094848 -0.113816
vt 0.757813 0.468750
vn -0.000213 -0.000294 1.000000
v -0.151791 0.151838 -0.322550
vt 0.867188 0.445313
vn -0.000021 1.000000 0.000297
v 0.151829 0.151844 -0.322486
vt 0.867188 0.570313
vn -0.000021 1.000000 0.000297
v 0.151785 0.151782 -0.113747
vt 0.781250 0.570313
vn -0.000021 1.000000 0.000297
v -0.151836 0.151776 -0.113811
vt 0.781250 0.445313
vn -0.000021 1.000000 0.000297
v -0.094906 0.094848 -0.113816
vt 0.757813 0.468750
vn -0.000013 1.000000 0.000296
v 0.094857 0.094852 -0.113775
vt 0.757813 0.546875
vn -0.000013 1.000000 0.000296
v 0.094822 0.094800 0.057011
vt 0.687500 0.546875
vn -0.000013 1.000000 0.000296
v -0.094941 0.094799 0.056970
vt 0.687500 0.468750
vn -0.000013 1.000000 0.000296
v -0.056988 0.056847 0.056967
vt 0.671875 0.484375
vn -0.000005 1.000000 0.000295
v 0.056870 0.056848 0.056992
vt 0.671875 0.531250
vn -0.000005 1.000000 0.000295
v 0.056833 0.056797 0.227778
vt 0.601563 0.531250
vn -0.000005 1.000000 0.000295
v -0.057024 0.056797 0.227754
vt 0.601563 0.484375
vn -0.000005 1.000000 0.000295
v -0.019071 0.018844 0.227751
vt 0.585938 0.500000
vn -0.000004 1.000000 0.000296
v 0.018881 0.018844 0.227759
vt 0.585938 0.515625
vn -0.000004 1.000000 0.000296
v 0.018861 0.018816 0.322641
vt 0.546875 0.515625
vn -0.000004 1.000000 0.000296
v -0.019092 0.018816 0.322632
vt 0.546875 0.500000
vn -0.000004 1.000000 0.000296
v 0.056833 0.056797 0.227778
vt 0.601563 0.484375
vn -0.000211 -0.000300 1.000000
v 0.056834 -0.057060 0.227744
vt 0.601563 0.531250
vn -0.000211 -0.000300 1.000000
v 0.018881 -0.019108 0.227748
vt 0.585938 0.515625
vn -0.000211 -0.000300 1.000000
v 0.018881 0.018844 0.227759
vt 0.585938 0.500000
vn -0.000211 -0.000300 1.000000
v 0.094822 0.094800 0.057011
vt 0.687500 0.468750
vn -0.000213 -0.000297 1.000000
v 0.094823 -0.094962 0.056955
vt 0.687500 0.546875
vn -0.000213 -0.000297 1.000000
v 0.056870 -0.057010 0.056958
vt 0.671875 0.531250
vn -0.000213 -0.000297 1.000000
v 0.056870 0.056848 0.056992
vt 0.671875 0.484375
vn -0.000213 -0.000297 1.000000
v 0.151785 0.151782 -0.113747
vt 0.781250 0.445313
vn -0.000210 -0.000297 1.000000
v 0.151791 -0.151838 -0.113837
vt 0.781250 0.570313
vn -0.000210 -0.000297 1.000000
v 0.094861 -0.094910 -0.113832
vt 0.757813 0.546875
vn -0.000210 -0.000297 1.000000
v 0.094857 0.094852 -0.113775
vt 0.757813 0.468750
vn -0.000210 -0.000297 1.000000
v 0.151829 0.151844 -0.322486
vt 0.867188 0.445313
vn 1.000000 0.000021 0.000214
v 0.151836 -0.151776 -0.322576
vt 0.867188 0.570313
vn 1.000000 0.000021 0.000214
v 0.151791 -0.151838 -0.113837
vt 0.781250 0.570313
vn 1.000000 0.000021 0.000214
v 0.151785 0.151782 -0.113747
vt 0.781250 0.445313
vn 1.000000 0.000021 0.000214
v 0.094857 0.094852 -0.113775
vt 0.757813 0.468750
vn 1.000000 0.000012 0.000214
v 0.094861 -0.094910 -0.113832
vt 0.757813 0.546875
vn 1.000000 0.000012 0.000214
v 0.094823 -0.094962 0.056955
vt 0.687500 0.546875
vn 1.000000 0.000012 0.000214
v 0.094822 0.094800 0.057011
vt 0.687500 0.468750
vn 1.000000 0.000012 0.000214
v 0.056870 0.056848 0.056992
vt 0.671875 0.484375
vn 1.000000 0.000005 0.000212
v 0.056870 -0.057010 0.056958
vt 0.671875 0.531250
vn 1.000000 0.000005 0.000212
v 0.056834 -0.057060 0.227744
vt 0.601563 0.531250
vn 1.000000 0.000005 0.000212
v 0.056833 0.056797 0.227778
vt 0.601563 0.484375
vn 1.000000 0.000005 0.000212
v 0.018881 0.018844 0.227759
vt 0.585938 0.500000
vn 1.000000 0.000004 0.000214
v 0.018881 -0.019108 0.227748
vt 0.585938 0.515625
vn 1.000000 0.000004 0.000214
v 0.018861 -0.019136 0.322629
vt 0.546875 0.515625
vn 1.000000 0.000004 0.000214
v 0.018861 0.018816 0.322641
vt 0.546875 0.500000
vn 1.000000 0.000004 0.000214
v 0.056834 -0.057060 0.227744
vt 0.601563 0.484375
vn -0.000212 -0.000298 1.000000
v -0.057023 -0.057061 0.227720
vt 0.601563 0.531250
vn -0.000212 -0.000298 1.000000
v -0.019071 -0.019108 0.227740
vt 0.585938 0.515625
vn -0.000212 -0.000298 1.000000
v 0.018881 -0.019108 0.227748
vt 0.585938 0.500000
vn -0.000212 -0.000298 1.000000
v 0.094823 -0.094962 0.056955
vt 0.687500 0.468750
vn -0.000214 -0.000296 1.000000
v -0.094940 -0.094963 0.056914
vt 0.687500 0.546875
vn -0.000214 -0.000296 1.000000
v -0.056987 -0.057010 0.056933
vt 0.671875 0.531250
vn -0.000214 -0.000296 1.000000
v 0.056870 -0.057010 0.056958
vt 0.671875 0.484375
vn -0.000214 -0.000296 1.000000
v 0.151791 -0.151838 -0.113837
vt 0.781250 0.445313
vn -0.000213 -0.000298 1.000000
v -0.151829 -0.151844 -0.113901
vt 0.781250 0.570313
vn -0.000213 -0.000298 1.000000
v -0.094902 -0.094914 -0.113872
vt 0.757813 0.546875
vn -0.000213 -0.000298 1.000000
v 0.094861 -0.094910 -0.113832
vt 0.757813 0.468750
vn -0.000213 -0.000298 1.000000
v 0.151836 -0.151776 -0.322576
vt 0.867188 0.445313
vn 0.000021 -1.000000 -0.000297
v -0.151785 -0.151782 -0.322641
vt 0.867188 0.570313
vn 0.000021 -1.000000 -0.000297
v -0.151829 -0.151844 -0.113901
vt 0.781250 0.570313
vn 0.000021 -1.000000 -0.000297
v 0.151791 -0.151838 -0.113837
vt 0.781250 0.445313
vn 0.000021 -1.000000 -0.000297
v 0.094861 -0.094910 -0.113832
vt 0.757813 0.468750
vn 0.000013 -1.000000 -0.000296
v -0.094902 -0.094914 -0.113872
vt 0.757813 0.546875
vn 0.000013 -1.000000 -0.000296
v -0.094940 -0.094963 0.056914
vt 0.687500 0.546875
vn 0.000013 -1.000000 -0.000296
v 0.094823 -0.094962 0.056955
vt 0.687500 0.468750
vn 0.000013 -1.000000 -0.000296
v 0.056870 -0.057010 0.056958
vt 0.671875 0.484375
vn 0.000005 -1.000000 -0.000295
v -0.056987 -0.057010 0.056933
vt 0.671875 0.531250
vn 0.000005 -1.000000 -0.000295
v -0.057023 -0.057061 0.227720
vt 0.601563 0.531250
vn 0.000005 -1.000000 -0.000295
v 0.056834 -0.057060 0.227744
vt 0.601563 0.484375
vn 0.000005 -1.000000 -0.000295
v 0.018881 -0.019108 0.227748
vt 0.585938 0.500000
vn 0.000006 -1.000000 -0.000297
v -0.019071 -0.019108 0.227740
vt 0.585938 0.515625
vn 0.000006 -1.000000 -0.000297
v -0.019091 -0.019137 0.322621
vt 0.546875 0.515625
vn 0.000006 -1.000000 -0.000297
v 0.018861 -0.019136 0.322629
vt 0.546875 0.500000
vn 0.000006 -1.000000 -0.000297
# Faces (1 to 120)
f -118/-118/-118 -119/-119/-119 -120/-120/-120
f -117/-117/-117 -118/-118/-118 -120/-120/-120
f -114/-114/-114 -115/-115/-115 -116/-116/-116
f -113/-113/-113 -114/-114/-114 -116/-116/-116
f -110/-110/-110 -111/-111/-111 -112/-112/-112
f -109/-109/-109 -110/-110/-110 -112/-112/-112
f -106/-106/-106 -107/-107/-107 -108/-108/-108
f -105/-105/-105 -106/-106/-106 -108/-108/-108
f -102/-102/-102 -103/-103/-103 -104/-104/-104
f -101/-101/-101 -102/-102/-102 -104/-104/-104
f -98/-98/-98 -99/-99/-99 -100/-100/-100
f -97/-97/-97 -98/-98/-98 -100/-100/-100
f -94/-94/-94 -95/-95/-95 -96/-96/-96
f -93/-93/-93 -94/-94/-94 -96/-96/-96
f -90/-90/-90 -91/-91/-91 -92/-92/-92
f -89/-89/-89 -90/-90/-90 -92/-92/-92
f -86/-86/-86 -87/-87/-87 -88/-88/-88
f -85/-85/-85 -86/-86/-86 -88/-88/-88
f -82/-82/-82 -83/-83/-83 -84/-84/-84
f -81/-81/-81 -82/-82/-82 -84/-84/-84
f -78/-78/-78 -79/-79/-79 -80/-80/-80
f -77/-77/-77 -78/-78/-78 -80/-80/-80
f -74/-74/-74 -75/-75/-75 -76/-76/-76
f -73/-73/-73 -74/-74/-74 -76/-76/-76
f -70/-70/-70 -71/-71/-71 -72/-72/-72
f -69/-69/-69 -70/-70/-70 -72/-72/-72
f -66/-66/-66 -67/-67/-67 -68/-68/-68
f -65/-65/-65 -66/-66/-66 -68/-68/-68
f -62/-62/-62 -63/-63/-63 -64/-64/-64
f -61/-61/-61 -62/-62/-62 -64/-64/-64
f -58/-58/-58 -59/-59/-59 -60/-60/-60
f -57/-57/-57 -58/-58/-58 -60/-60/-60
f -54/-54/-54 -55/-55/-55 -56/-56/-56
f -53/-53/-53 -54/-54/-54 -56/-56/-56
f -50/-50/-50 -51/-51/-51 -52/-52/-52
f -49/-49/-49 -50/-50/-50 -52/-52/-52
f -46/-46/-46 -47/-47/-47 -48/-48/-48
f -45/-45/-45 -46/-46/-46 -48/-48/-48
f -42/-42/-42 -43/-43/-43 -44/-44/-44
f -41/-41/-41 -42/-42/-42 -44/-44/-44
f -38/-38/-38 -39/-39/-39 -40/-40/-40
f -37/-37/-37 -38/-38/-38 -40/-40/-40
f -34/-34/-34 -35/-35/-35 -36/-36/-36
f -33/-33/-33 -34/-34/-34 -36/-36/-36
f -30/-30/-30 -31/-31/-31 -32/-32/-32
f -29/-29/-29 -30/-30/-30 -32/-32/-32
f -26/-26/-26 -27/-27/-27 -28/-28/-28
f -25/-25/-25 -26/-26/-26 -28/-28/-28
f -22/-22/-22 -23/-23/-23 -24/-24/-24
f -21/-21/-21 -22/-22/-22 -24/-24/-24
f -18/-18/-18 -19/-19/-19 -20/-20/-20
f -17/-17/-17 -18/-18/-18 -20/-20/-20
f -14/-14/-14 -15/-15/-15 -16/-16/-16
f -13/-13/-13 -14/-14/-14 -16/-16/-16
f -10/-10/-10 -11/-11/-11 -12/-12/-12
f -9/-9/-9 -10/-10/-10 -12/-12/-12
f -6/-6/-6 -7/-7/-7 -8/-8/-8
f -5/-5/-5 -6/-6/-6 -8/-8/-8
f -2/-2/-2 -3/-3/-3 -4/-4/-4
f -1/-1/-1 -2/-2/-2 -4/-4/-4

