g facility_stock_01
v 115.4871 -37.74671 10.77623
v 50.48711 -37.74671 10.77623
v 50.48711 -37.74671 -0.349696
v 115.4871 -37.74671 -0.349696
v 50.48711 -37.74671 10.77623
v 50.48711 -82.74672 10.77623
v 50.48711 -82.74672 -0.349696
v 50.48711 -37.74671 -0.349696
v 115.4871 -37.74671 12.90123
v 50.48711 -37.74671 12.90123
v 50.48711 -37.74671 10.77623
v 115.4871 -37.74671 10.77623
v 50.48711 -37.74671 12.90123
v 50.48711 -82.74672 12.90123
v 50.48711 -82.74672 10.77623
v 50.48711 -37.74671 10.77623
v 112.9871 -40.62649 15.02623
v 52.98712 -40.62649 15.02623
v 52.98712 -40.62649 12.90123
v 112.9871 -40.62649 12.90123
v 52.98712 -40.62649 15.02623
v 52.98712 -82.74672 15.02623
v 52.98712 -82.74672 12.90123
v 52.98712 -40.62649 12.90123
v 100.4406 -37.68423 7.790376
v 111.6013 -37.68422 7.790373
v 111.6013 -37.68421 9.770559
v 100.4406 -37.68423 9.77056
v 85.42641 -37.68423 7.790376
v 96.58707 -37.68422 7.790373
v 96.58707 -37.68421 9.770559
v 85.42641 -37.68423 9.77056
v 69.44263 -37.68422 7.790376
v 80.60329 -37.68422 7.790373
v 80.60329 -37.68421 9.770559
v 69.44263 -37.68422 9.77056
v 54.42844 -37.68422 7.790376
v 65.5891 -37.68422 7.790373
v 65.5891 -37.68421 9.770559
v 54.42844 -37.68422 9.77056
vt -32 4.062963
vt 33 4.062963
vt 33 -7.062965
vt -32 -7.062965
vt -22.00001 4.062963
vt 22.99999 4.062963
vt 22.99999 -7.062965
vt -22.00001 -7.062965
vt -32 5.687964
vt 33 5.687964
vt 33 3.562964
vt -32 3.562964
vt -22.00001 5.687964
vt 22.99999 5.687964
vt 22.99999 3.562964
vt -22.00001 3.562964
vt -29.5 7.812961
vt 30.49999 7.812962
vt 30.49999 5.687961
vt -29.5 5.687962
vt -19.12023 7.812961
vt 22.99999 7.812963
vt 22.99999 5.687964
vt -19.12023 5.687962
vt 0.3456846 0.7610543
vt 0.3456846 0.9355469
vt 0.3769531 0.9355469
vt 0.376953 0.7610544
vt 0.3456846 0.7610543
vt 0.3456846 0.9355469
vt 0.3769531 0.9355469
vt 0.376953 0.7610544
vt 0.3456846 0.7610543
vt 0.3456846 0.9355469
vt 0.3769531 0.9355469
vt 0.376953 0.7610544
vt 0.3456846 0.7610543
vt 0.3456846 0.9355469
vt 0.3769531 0.9355469
vt 0.376953 0.7610544
vn 0 1 0
vn 0 1 0
vn 0 1 0
vn 0 1 0
vn -1 0 0
vn -1 0 0
vn -1 0 0
vn -1 0 0
vn 0 1 0
vn 0 1 0
vn 0 1 0
vn 0 1 0
vn -1 0 0
vn -1 0 0
vn -1 0 0
vn -1 0 0
vn 0 1 0
vn 0 1 0
vn 0 1 0
vn 0 1 0
vn -1 0 0
vn -1 0 0
vn -1 0 0
vn -1 0 0
vn -1.093756E-06 1 -1.232918E-06
vn -1.093756E-06 1 -1.232918E-06
vn -1.093756E-06 1 -1.232918E-06
vn -1.093756E-06 1 -1.232918E-06
vn -1.093755E-06 1 -1.232918E-06
vn -1.093755E-06 1 -1.232918E-06
vn -1.093755E-06 1 -1.232918E-06
vn -1.093755E-06 1 -1.232918E-06
vn -6.562539E-07 1 -1.232918E-06
vn -6.562539E-07 1 -1.232918E-06
vn -6.562539E-07 1 -1.232918E-06
vn -6.562537E-07 1 -1.232918E-06
vn -6.562533E-07 1 -1.232919E-06
vn -6.562533E-07 1 -1.232919E-06
vn -6.562533E-07 1 -1.232919E-06
vn -6.562533E-07 1 -1.232919E-06
g facility_stock_01_0
f 3/3/3 2/2/2 1/1/1
f 4/4/4 3/3/3 1/1/1
f 7/7/7 6/6/6 5/5/5
f 8/8/8 7/7/7 5/5/5
g facility_stock_01_1
f 11/11/11 10/10/10 9/9/9
f 12/12/12 11/11/11 9/9/9
f 15/15/15 14/14/14 13/13/13
f 16/16/16 15/15/15 13/13/13
f 19/19/19 18/18/18 17/17/17
f 20/20/20 19/19/19 17/17/17
f 23/23/23 22/22/22 21/21/21
f 24/24/24 23/23/23 21/21/21
g facility_stock_01_2
f 27/27/27 26/26/26 25/25/25
f 28/28/28 27/27/27 25/25/25
f 31/31/31 30/30/30 29/29/29
f 32/32/32 31/31/31 29/29/29
f 35/35/35 34/34/34 33/33/33
f 36/36/36 35/35/35 33/33/33
f 39/39/39 38/38/38 37/37/37
f 40/40/40 39/39/39 37/37/37
