g facility_glass_002
v 32.6875 13.125 5.812498
v 32.6875 13.125 7.874998
v 32.6875 5.56252 7.874999
v 32.6875 5.562507 5.812498
v 32.5625 0.2499987 7.499999
v 32.5625 -0.2500006 7.499999
v 32.5625 -0.2500027 6
v 32.5625 0.2499979 5.999999
v 32.5625 1.312497 7.874998
v 32.5625 0.9999982 7.499999
v 32.5625 1.312499 4.937492
v 32.5625 0.9999982 5.999999
v 32.5625 -1.312502 7.874999
v 32.5625 -1 7.5
v 32.5625 -1.000003 6
v 32.5625 -1.312514 4.937492
v 32.625 0.9999982 7.499999
v 32.625 0.2499987 7.499999
v 32.625 0.2499979 5.999999
v 32.625 0.9999981 5.999999
v 32.625 -1.000003 6
v 32.625 -0.2500027 6
v 32.625 -0.2500006 7.499999
v 32.625 -1 7.5
v 32.5625 0.9999982 5.999999
v 32.6875 0.9999981 5.999999
v 32.6875 0.2499979 5.999999
v 32.5625 0.2499979 5.999999
v 32.5625 0.2499979 5.999999
v 32.6875 0.2499979 5.999999
v 32.6875 0.2499987 7.499999
v 32.5625 0.2499987 7.499999
v 32.5625 0.2499987 7.499999
v 32.6875 0.2499987 7.499999
v 32.6875 0.9999982 7.499999
v 32.5625 0.9999982 7.499999
v 32.5625 0.9999982 7.499999
v 32.6875 0.9999982 7.499999
v 32.6875 0.9999981 5.999999
v 32.5625 0.9999982 5.999999
v 32.5625 -0.2500027 6
v 32.6875 -0.2500027 6
v 32.6875 -1.000003 6
v 32.5625 -1.000003 6
v 32.5625 -1.000003 6
v 32.6875 -1.000003 6
v 32.6875 -1 7.5
v 32.5625 -1 7.5
v 32.5625 -1 7.5
v 32.6875 -1 7.5
v 32.6875 -0.2500006 7.499999
v 32.5625 -0.2500006 7.499999
v 32.5625 -0.2500006 7.499999
v 32.6875 -0.2500006 7.499999
v 32.6875 -0.2500027 6
v 32.5625 -0.2500027 6
v 32.6875 -5.250037 5.812498
v 32.6875 -5.25004 7.874998
v 32.6875 -12.43754 7.874999
v 32.6875 -12.43755 5.812498
v 32.45926 2.922837 7.874997
v 31.7925 4.742013 4.937492
v 32.45926 2.922839 4.937492
v 31.7925 4.742011 7.874998
v 32.3419 2.879824 7.874999
v 32.3419 2.879824 4.937492
v 31.67514 4.698997 4.937492
v 31.67514 4.698996 7.874998
v 31.7925 4.742011 7.874998
v 31.67514 4.698997 4.937492
v 31.7925 4.742013 4.937492
v 31.67514 4.698996 7.874998
v 32.45926 2.922837 7.874997
v 32.45926 2.922839 4.937492
v 32.3419 2.879824 4.937492
v 32.3419 2.879824 7.874999
v 32.45926 2.922837 7.874997
v 31.67514 4.698996 7.874998
v 31.7925 4.742011 7.874998
v 32.3419 2.879824 7.874999
v 31.75263 -4.577082 7.874997
v 31.94335 -2.648975 4.937492
v 31.75263 -4.577082 4.937492
v 31.94335 -2.648978 7.874998
v 31.62825 -4.564771 7.874999
v 31.62825 -4.564771 4.937492
v 31.81896 -2.636673 4.937492
v 31.81896 -2.636676 7.874998
v 31.94335 -2.648978 7.874998
v 31.81896 -2.636673 4.937492
v 31.94335 -2.648975 4.937492
v 31.81896 -2.636676 7.874998
v 31.75263 -4.577082 7.874997
v 31.75263 -4.577082 4.937492
v 31.62825 -4.564771 4.937492
v 31.62825 -4.564771 7.874999
v 31.75263 -4.577082 7.874997
v 31.81896 -2.636676 7.874998
v 31.94335 -2.648978 7.874998
v 31.62825 -4.564771 7.874999
vt 0.6168215 0.6556308
vt 0.6168211 0.6875
vt 0.4999681 0.6875
vt 0.4999676 0.6556308
vt 0.4716796 0.6816406
vt 0.4794921 0.6816406
vt 0.4794921 0.6582032
vt 0.4716796 0.6582032
vt 0.4550782 0.6875
vt 0.4599609 0.6816406
vt 0.4550781 0.6416016
vt 0.4599609 0.6582032
vt 0.4960935 0.6875
vt 0.4912108 0.6816406
vt 0.4912108 0.6582032
vt 0.4960938 0.6416016
vt 0.4912109 0.6816406
vt 0.4794922 0.6816406
vt 0.4794922 0.6582031
vt 0.4912109 0.6582031
vt 0.4599609 0.6582031
vt 0.4716733 0.6582031
vt 0.4716797 0.6816406
vt 0.4599614 0.6816406
vt 0.4912109 0.6582031
vt 0.4912109 0.65625
vt 0.4794922 0.65625
vt 0.4794922 0.6582031
vt 0.4794922 0.6586719
vt 0.4775781 0.6586719
vt 0.4775781 0.6816406
vt 0.4794922 0.6816406
vt 0.4794922 0.6816406
vt 0.4794922 0.6835938
vt 0.4912109 0.6835938
vt 0.4912109 0.6816406
vt 0.4912109 0.6816406
vt 0.493125 0.6816406
vt 0.493125 0.6586719
vt 0.4912109 0.6586719
vt 0.4716685 0.6582031
vt 0.4716685 0.6562518
vt 0.4599609 0.6562519
vt 0.4599609 0.6582031
vt 0.4599609 0.6586719
vt 0.4580469 0.6586719
vt 0.4580469 0.6816406
vt 0.4599609 0.6816406
vt 0.4599609 0.6816406
vt 0.4599609 0.683593
vt 0.4716749 0.6835929
vt 0.4716749 0.6816406
vt 0.4716749 0.6816406
vt 0.4735889 0.6816401
vt 0.4735825 0.6586714
vt 0.4716685 0.6586719
vt 0.6236321 0.6556308
vt 0.6236316 0.6875001
vt 0.5125728 0.6875
vt 0.5125724 0.6556307
vt 0.6699224 0.6884766
vt 0.6396488 0.642578
vt 0.6699222 0.642578
vt 0.6396484 0.6884766
vt 0.6699224 0.6884766
vt 0.6699222 0.642578
vt 0.6396488 0.642578
vt 0.6396484 0.6884766
vt 0.6699224 0.6884766
vt 0.6679693 0.6425782
vt 0.6699222 0.642578
vt 0.6679692 0.6884766
vt 0.6699224 0.6884766
vt 0.6699222 0.642578
vt 0.6679693 0.6425782
vt 0.6679692 0.6884766
vt 0.6699224 0.6728517
vt 0.6679693 0.6425782
vt 0.6699222 0.642578
vt 0.6679691 0.6728517
vt 0.6699224 0.6884766
vt 0.6396488 0.642578
vt 0.6699222 0.642578
vt 0.6396484 0.6884766
vt 0.6699224 0.6884766
vt 0.6699222 0.642578
vt 0.6396488 0.642578
vt 0.6396484 0.6884766
vt 0.6699224 0.6884766
vt 0.6679693 0.6425782
vt 0.6699222 0.642578
vt 0.6679692 0.6884766
vt 0.6699224 0.6884766
vt 0.6699222 0.642578
vt 0.6679693 0.6425782
vt 0.6679692 0.6884766
vt 0.6699224 0.6728517
vt 0.6679693 0.6425782
vt 0.6699222 0.642578
vt 0.6679691 0.6728517
vn -1 0 0
vn -1 0 0
vn -1 0 0
vn -1 0 0
vn -1 0 0
vn -1 0 0
vn -1 0 0
vn -1 0 0
vn -1 0 0
vn -1 0 0
vn -1 0 0
vn -1 0 0
vn -1 0 0
vn -1 0 0
vn -1 0 0
vn -1 0 0
vn -1 0 0
vn -1 0 0
vn -1 0 0
vn -1 0 0
vn -1 0 0
vn -1 0 0
vn -1 0 0
vn -1 0 0
vn 0 0 1
vn 0 0 1
vn 0 0 1
vn 0 0 1
vn 0 1 -5.849203E-07
vn 0 1 -5.849203E-07
vn 0 1 -5.849203E-07
vn 0 1 -5.849203E-07
vn 0 -8.138027E-07 -1
vn 0 -8.138027E-07 -1
vn 0 -8.138027E-07 -1
vn 0 -8.138027E-07 -1
vn -3.051758E-07 -1 0
vn -3.051758E-07 -1 0
vn -3.051758E-07 -1 0
vn -3.051758E-07 -1 0
vn 0 0 1
vn 0 0 1
vn 0 0 1
vn 0 0 1
vn 3.051758E-07 1 -2.059937E-06
vn 3.051758E-07 1 -2.059937E-06
vn 3.051758E-07 1 -2.059937E-06
vn 3.051758E-07 1 -2.059937E-06
vn 0 -8.138024E-07 -1
vn 0 -8.138024E-07 -1
vn 0 -8.138024E-07 -1
vn 0 -8.138024E-07 -1
vn 0 -1 1.411439E-06
vn 0 -1 1.411439E-06
vn 0 -1 1.411439E-06
vn 0 -1 1.411439E-06
vn -1 0 0
vn -1 0 0
vn -1 0 0
vn -1 0 0
vn 0.9389214 0.3441317 2.860133E-07
vn 0.9389214 0.3441317 2.860133E-07
vn 0.9389214 0.3441317 2.860133E-07
vn 0.9389214 0.3441317 2.916926E-07
vn -0.9389221 -0.3441297 0
vn -0.9389221 -0.3441297 0
vn -0.9389221 -0.3441297 0
vn -0.9389225 -0.3441287 7.206539E-07
vn -0.3441338 0.9389207 7.803517E-07
vn -0.3441338 0.9389207 7.803517E-07
vn -0.3441337 0.9389207 7.803517E-07
vn -0.3441271 0.9389231 4.810268E-07
vn 0.3441125 -0.9389284 -7.803583E-07
vn 0.3441125 -0.9389284 -7.803582E-07
vn 0.3441125 -0.9389284 -7.803583E-07
vn 0.3440953 -0.9389347 0
vn 1.084061E-07 -2.957774E-07 1
vn 1.084061E-07 -2.957775E-07 1
vn 1.084061E-07 -2.957774E-07 1
vn 1.35368E-05 5.632455E-06 1
vn 0.9951435 -0.09843419 8.06627E-07
vn 0.9951435 -0.09843419 8.066271E-07
vn 0.9951435 -0.09843419 8.066271E-07
vn 0.9951434 -0.09843553 0
vn -0.9951439 0.09843084 0
vn -0.9951439 0.09843085 0
vn -0.9951439 0.09843084 0
vn -0.9951437 0.09843221 9.051095E-07
vn 0.09842072 0.9951449 8.270806E-07
vn 0.09842072 0.9951449 8.270806E-07
vn 0.09842072 0.9951449 8.270806E-07
vn 0.09842262 0.9951447 7.451823E-07
vn -0.09848931 -0.9951381 -2.886248E-07
vn -0.09848931 -0.9951381 -2.886248E-07
vn -0.0984893 -0.9951381 -2.886248E-07
vn -0.09849607 -0.9951375 0
vn 0 -3.134884E-07 1
vn 0 -3.134884E-07 1
vn 0 -3.134884E-07 1
vn 1.46408E-05 -8.150457E-07 1
g facility_glass_002_0
f 3/3/3 2/2/2 1/1/1
f 4/4/4 3/3/3 1/1/1
f 7/7/7 6/6/6 5/5/5
f 8/8/8 7/7/7 5/5/5
f 9/9/9 5/5/5 6/6/6
f 5/5/5 9/9/9 10/10/10
f 9/9/9 11/11/11 10/10/10
f 11/11/11 12/12/12 10/10/10
f 12/12/12 11/11/11 8/8/8
f 13/13/13 9/9/9 6/6/6
f 14/14/14 13/13/13 6/6/6
f 13/13/13 14/14/14 15/15/15
f 16/16/16 13/13/13 15/15/15
f 7/7/7 16/16/16 15/15/15
f 16/16/16 7/7/7 8/8/8
f 11/11/11 16/16/16 8/8/8
f 19/19/19 18/18/18 17/17/17
f 20/20/20 19/19/19 17/17/17
f 23/23/23 22/22/22 21/21/21
f 24/24/24 23/23/23 21/21/21
f 27/27/27 26/26/26 25/25/25
f 28/28/28 27/27/27 25/25/25
f 31/31/31 30/30/30 29/29/29
f 32/32/32 31/31/31 29/29/29
f 35/35/35 34/34/34 33/33/33
f 36/36/36 35/35/35 33/33/33
f 39/39/39 38/38/38 37/37/37
f 40/40/40 39/39/39 37/37/37
f 43/43/43 42/42/42 41/41/41
f 44/44/44 43/43/43 41/41/41
f 47/47/47 46/46/46 45/45/45
f 48/48/48 47/47/47 45/45/45
f 51/51/51 50/50/50 49/49/49
f 52/52/52 51/51/51 49/49/49
f 55/55/55 54/54/54 53/53/53
f 56/56/56 55/55/55 53/53/53
f 59/59/59 58/58/58 57/57/57
f 60/60/60 59/59/59 57/57/57
f 63/63/63 62/62/62 61/61/61
f 62/62/62 64/64/64 61/61/61
f 67/67/67 66/66/66 65/65/65
f 68/68/68 67/67/67 65/65/65
f 71/71/71 70/70/70 69/69/69
f 70/70/70 72/72/72 69/69/69
f 75/75/75 74/74/74 73/73/73
f 76/76/76 75/75/75 73/73/73
f 79/79/79 78/78/78 77/77/77
f 78/78/78 80/80/80 77/77/77
f 83/83/83 82/82/82 81/81/81
f 82/82/82 84/84/84 81/81/81
f 87/87/87 86/86/86 85/85/85
f 88/88/88 87/87/87 85/85/85
f 91/91/91 90/90/90 89/89/89
f 90/90/90 92/92/92 89/89/89
f 95/95/95 94/94/94 93/93/93
f 96/96/96 95/95/95 93/93/93
f 99/99/99 98/98/98 97/97/97
f 98/98/98 100/100/100 97/97/97
