g facility_stairs_collider004
v -32.5 22.7 4.874999
v -28.8125 22.7 4.874999
v -28.8125 16.075 4.874999
v -32.5 16.075 4.874999
v -28.8125 7.387505 0
v -32.5 7.387505 0
v -32.5 16.075 0
v -32.5 7.387505 0
v -28.8125 7.387505 0
v -28.8125 16.075 0
v -28.8125 22.7 0
v -32.5 22.7 0
v -32.5 22.7 0
v -32.5 22.7 4.874999
v -32.5 16.075 4.874999
v -32.5 16.075 0
v -32.5 7.387505 0
v -28.8125 22.7 0
v -28.8125 22.7 4.874999
v -32.5 22.7 4.874999
v -32.5 22.7 0
v -28.8125 22.7 0
v -28.8125 16.075 0
v -28.8125 16.075 4.874999
v -28.8125 22.7 4.874999
v -28.8125 7.387505 0
vt -1.343754 -7.15625
vt 2.343746 -7.15625
vt 2.343748 -0.9959655
vt -1.343752 -0.9959655
vt 2.34375 8.156246
vt -1.34375 8.156246
vt 2.343752 -0.5312521
vt 2.34375 8.156246
vt -1.34375 8.156246
vt -1.343748 -0.5312521
vt -1.343746 -7.15625
vt 2.343754 -7.15625
vt 8.15625 -2
vt 8.15625 2.874999
vt 1.531253 2.874999
vt 1.531252 -2
vt -7.156246 -2
vt 2.343746 -2
vt 2.343746 2.874999
vt -1.343754 2.874999
vt -1.343754 -2
vt -7.15625 -2
vt -0.5312521 -2
vt -0.5312523 2.875
vt -7.15625 2.874999
vt 8.156246 -2
vn 0 0 1
vn 0 0 1
vn 0 -0.2529054 0.967491
vn 0 -0.2529054 0.967491
vn 0 -0.4893674 0.8720777
vn 0 -0.4893674 0.8720777
vn 0 0 -1
vn 0 0 -1
vn 0 0 -1
vn 0 0 -1
vn 0 0 -1
vn 0 0 -1
vn -1 0 0
vn -1 0 0
vn -1 0 0
vn -1 0 0
vn -1 0 0
vn 0 1 0
vn 0 1 0
vn 0 1 0
vn 0 1 0
vn 1 0 0
vn 1 0 0
vn 1 0 0
vn 1 0 0
vn 1 0 0
g facility_stairs_collider004_0
f 3/3/3 2/2/2 1/1/1
f 4/4/4 3/3/3 1/1/1
f 5/5/5 3/3/3 4/4/4
f 6/6/6 5/5/5 4/4/4
f 9/9/9 8/8/8 7/7/7
f 10/10/10 9/9/9 7/7/7
f 11/11/11 10/10/10 7/7/7
f 12/12/12 11/11/11 7/7/7
f 15/15/15 14/14/14 13/13/13
f 16/16/16 15/15/15 13/13/13
f 16/16/16 17/17/17 15/15/15
f 20/20/20 19/19/19 18/18/18
f 21/21/21 20/20/20 18/18/18
f 24/24/24 23/23/23 22/22/22
f 25/25/25 24/24/24 22/22/22
f 24/24/24 26/26/26 23/23/23
