g Farm_Ground_00
v -39.52328 38.77441 -7.837257E-07
v -39.52328 -39.94914 1.625097E-06
v -75.07866 -72.21469 4.686267E-07
v -75.07866 69.02335 -7.619179E-08
v -39.52329 69.02335 -6.149377E-08
v -39.52328 -72.21468 4.378095E-07
vt -17.27769 -39.87009
vt -17.27769 38.85347
vt 18.27769 71.11903
vt 18.27769 -70.11902
vt -17.27768 -70.11902
vt -17.27769 71.11902
vn 0 0 1
vn 0 0 1
vn 0 0 1
vn 0 0 1
vn 0 0 1
vn 0 0 1
g Farm_Ground_00_0
f 3/3/3 2/2/2 1/1/1
f 4/4/4 3/3/3 1/1/1
f 4/4/4 1/1/1 5/5/5
f 6/6/6 2/2/2 3/3/3
