g Field
v 21.14945 26.14957 -4.916025E-06
v 11.55082 21.5099 -4.916025E-06
v 9.563485 22.5248 -4.916025E-06
v 9.563485 21.5099 -4.916025E-06
v 13.56575 20.49499 -4.916025E-06
v 11.55082 20.49499 -4.916025E-06
v 14.58701 19.55815 -4.916025E-06
v 13.56575 19.55815 -4.916025E-06
v 15.58068 18.50421 -4.916025E-06
v 14.58701 18.50421 -4.916025E-06
v 16.54674 16.51344 -4.916025E-06
v 15.58068 16.51344 -4.916025E-06
v 17.62321 14.52266 -4.916025E-06
v 16.54674 14.52266 -4.916025E-06
v 17.62321 -14.6022 -4.916025E-06
v 21.14946 -26.14957 -4.916025E-06
v 16.54674 -16.59298 -4.916025E-06
v 16.54674 -14.6022 -4.916025E-06
v 15.58068 -18.56622 -4.916025E-06
v 15.58068 -16.59298 -4.916025E-06
v 14.58701 -19.56161 -4.916025E-06
v 14.58701 -18.56622 -4.916025E-06
v 13.56574 -20.57652 -4.916025E-06
v 13.56574 -19.56161 -4.916025E-06
v 11.55081 -21.5719 -4.916025E-06
v 11.55081 -20.57652 -4.916025E-06
v 9.563482 -22.5868 -4.916025E-06
v 9.563482 -21.5719 -4.916025E-06
v -9.5 -22.5868 -4.916025E-06
v -21.14945 -26.14957 -4.916025E-06
v -11.50659 -21.5719 -4.916025E-06
v -9.5 -21.5719 -4.916025E-06
v -13.5364 -20.57652 -4.916025E-06
v -11.50659 -20.57652 -4.916025E-06
v -14.55131 -19.56161 -4.916025E-06
v -15.52718 -18.56622 -4.916025E-06
v -14.55131 -18.56622 -4.916025E-06
v -13.5364 -19.56161 -4.916025E-06
v -16.46401 -16.59298 -4.916025E-06
v -15.52718 -16.59298 -4.916025E-06
v -17.51796 -14.6022 -4.916025E-06
v -16.46401 -14.6022 -4.916025E-06
v -21.14945 26.14957 -4.916025E-06
v -17.51796 14.52266 -4.916025E-06
v -16.5 16.51344 -4.916025E-06
v -16.5 14.52266 -4.916025E-06
v -15.52718 18.50421 -4.916025E-06
v -15.52718 16.51344 -4.916025E-06
v -14.55131 19.55815 -4.916025E-06
v -14.55131 18.5042 -4.916025E-06
v -13.5364 20.49499 -4.916025E-06
v -13.5364 19.55815 -4.916025E-06
v -11.50659 21.5099 -4.916025E-06
v -11.50659 20.49499 -4.916025E-06
v -9.5 22.5 3.665715E-06
v -9.5 21.5 3.502795E-06
vt 21.36738 26.64837
vt 11.76875 22.00869
vt 9.781421 23.02359
vt 9.78142 22.00869
vt 13.78368 20.99377
vt 11.76875 20.99377
vt 14.80495 20.05693
vt 13.78368 20.05693
vt 15.79861 19.00299
vt 14.80495 19.00299
vt 16.76468 17.01222
vt 15.79861 17.01222
vt 17.84114 15.02144
vt 16.76468 15.02144
vt 17.84114 -14.10341
vt 21.36739 -25.65079
vt 16.76466 -16.09419
vt 16.76466 -14.10341
vt 15.7986 -18.06743
vt 15.7986 -16.09419
vt 14.80494 -19.06282
vt 14.80494 -18.06743
vt 13.78367 -20.07773
vt 13.78367 -19.06282
vt 11.76874 -21.07311
vt 11.76874 -20.07773
vt 9.781406 -22.08801
vt 9.781407 -21.07311
vt -9.282076 -22.08801
vt -20.93153 -25.65078
vt -11.28866 -21.07311
vt -9.282075 -21.07311
vt -13.31848 -20.07772
vt -11.28866 -20.07772
vt -14.33338 -19.06281
vt -15.30925 -18.06743
vt -14.33338 -18.06743
vt -13.31848 -19.06281
vt -16.24609 -16.09418
vt -15.30925 -16.09418
vt -17.30003 -14.1034
vt -16.24609 -14.1034
vt -20.93152 26.64837
vt -17.30002 15.02145
vt -16.28206 17.01223
vt -16.28206 15.02145
vt -15.30924 19.003
vt -15.30925 17.01223
vt -14.33337 20.05694
vt -14.33337 19.003
vt -13.31847 20.99378
vt -13.31847 20.05694
vt -11.28865 22.00869
vt -11.28865 20.99378
vt -9.282064 22.99879
vt -9.282065 21.99879
vn 0 0 1
vn 0 0 1
vn 0 0 1
vn 0 0 1
vn 0 0 1
vn 0 0 1
vn 0 0 1
vn 0 0 1
vn 0 0 1
vn 0 0 1
vn 0 0 1
vn 0 0 1
vn 0 0 1
vn 0 0 1
vn 0 0 1
vn 0 0 1
vn 0 0 1
vn 0 0 1
vn 0 0 1
vn 0 0 1
vn 0 0 1
vn 0 0 1
vn 0 0 1
vn 0 0 1
vn 0 0 1
vn 0 0 1
vn 0 0 1
vn 0 0 1
vn 0 0 1
vn 0 0 1
vn 0 0 1
vn 0 0 1
vn 0 0 1
vn 0 0 1
vn 0 0 1
vn 0 0 1
vn 0 0 1
vn 0 0 1
vn 0 0 1
vn 0 0 1
vn 0 0 1
vn 0 0 1
vn 0 0 1
vn 0 0 1
vn 0 0 1
vn 0 0 1
vn 0 0 1
vn 0 0 1
vn 0 0 1
vn 0 0 1
vn 0 0 1
vn 0 0 1
vn 0 0 1
vn 0 0 1
vn 0 0 1
vn 0 0 1
g Field_0
f 3/3/3 2/2/2 1/1/1
f 3/3/3 4/4/4 2/2/2
f 2/2/2 5/5/5 1/1/1
f 2/2/2 6/6/6 5/5/5
f 5/5/5 7/7/7 1/1/1
f 5/5/5 8/8/8 7/7/7
f 7/7/7 9/9/9 1/1/1
f 7/7/7 10/10/10 9/9/9
f 9/9/9 11/11/11 1/1/1
f 9/9/9 12/12/12 11/11/11
f 11/11/11 13/13/13 1/1/1
f 11/11/11 14/14/14 13/13/13
f 13/13/13 15/15/15 1/1/1
f 15/15/15 16/16/16 1/1/1
f 15/15/15 17/17/17 16/16/16
f 15/15/15 18/18/18 17/17/17
f 17/17/17 19/19/19 16/16/16
f 17/17/17 20/20/20 19/19/19
f 19/19/19 21/21/21 16/16/16
f 19/19/19 22/22/22 21/21/21
f 21/21/21 23/23/23 16/16/16
f 21/21/21 24/24/24 23/23/23
f 23/23/23 25/25/25 16/16/16
f 23/23/23 26/26/26 25/25/25
f 25/25/25 27/27/27 16/16/16
f 25/25/25 28/28/28 27/27/27
f 27/27/27 29/29/29 16/16/16
f 29/29/29 30/30/30 16/16/16
f 29/29/29 31/31/31 30/30/30
f 29/29/29 32/32/32 31/31/31
f 31/31/31 33/33/33 30/30/30
f 31/31/31 34/34/34 33/33/33
f 33/33/33 35/35/35 30/30/30
f 30/30/30 35/35/35 36/36/36
f 35/35/35 37/37/37 36/36/36
f 33/33/33 38/38/38 35/35/35
f 30/30/30 36/36/36 39/39/39
f 36/36/36 40/40/40 39/39/39
f 30/30/30 39/39/39 41/41/41
f 39/39/39 42/42/42 41/41/41
f 43/43/43 30/30/30 41/41/41
f 43/43/43 41/41/41 44/44/44
f 43/43/43 44/44/44 45/45/45
f 44/44/44 46/46/46 45/45/45
f 43/43/43 45/45/45 47/47/47
f 45/45/45 48/48/48 47/47/47
f 43/43/43 47/47/47 49/49/49
f 47/47/47 50/50/50 49/49/49
f 43/43/43 49/49/49 51/51/51
f 49/49/49 52/52/52 51/51/51
f 43/43/43 51/51/51 53/53/53
f 51/51/51 54/54/54 53/53/53
f 43/43/43 53/53/53 55/55/55
f 53/53/53 56/56/56 55/55/55
f 1/1/1 43/43/43 55/55/55
f 1/1/1 55/55/55 3/3/3
