g Flloor1
v 30.04999 -1.051893E-05 -4.952602
v 20.05003 -1.132671E-05 -20.0526
v 30.04999 -1.098633E-05 -20.0526
v 20.05002 -1.051893E-05 -4.952602
v 20.05003 -1.132671E-05 -20.0526
v -0.05000488 -1.192192E-05 -30.0526
v 20.05002 -1.186371E-05 -30.0526
v -0.05000488 -1.154559E-05 -20.0526
v -0.05000488 -1.182854E-05 -14.9526
v 14.85 -1.183152E-05 -14.9526
v 20.04996 -9.384158E-06 30.04739
v 0.04999267 -9.384156E-06 20.0474
v 20.04996 -1.059225E-05 20.04739
v 0.04999267 -9.384155E-06 30.0474
v -7.324219E-06 -1.182556E-05 14.9474
v 20.04996 -1.059225E-05 20.04739
v -4.882812E-06 -9.926011E-06 20.04739
v 14.85 -1.183152E-05 14.9474
v -20.05 -1.198183E-05 -20.0526
v -14.85 -1.061026E-05 14.9474
v -20.05 -9.509325E-06 20.0474
v -14.85 -1.302894E-05 -14.95261
v 30.04999 -1.00708E-05 10.0474
v 20.05002 -1.051893E-05 -4.952602
v 30.04999 -1.051893E-05 -4.952602
v 20.04999 -1.095484E-05 10.0474
vt -14.66525 -9.516424
vt 15.53476 10.48349
vt 15.53475 -9.516432
vt -14.66524 10.48353
vt 45.59999 -20.12153
vt 55.59999 -0.02149573
vt 55.59999 -20.12152
vt 45.59999 -0.02149826
vt 40.5 -0.02149233
vt 40.49999 -14.9215
vt -4.500008 -20.12145
vt 5.499996 -0.1214828
vt 5.499989 -20.12145
vt -4.500004 -0.1214809
vt 10.59999 -0.07148457
vt 5.499992 -20.12145
vt 5.499998 -0.07148454
vt 10.59999 -14.92149
vt 45.6395 19.94449
vt 10.60118 14.96646
vt 5.501956 19.91567
vt 40.49553 15.02156
vt -22.08262 -4.508207
vt -7.082622 5.491765
vt -7.082624 -4.508212
vt -22.08262 5.491769
vn 0 1 0
vn 0 1 0
vn 0 1 0
vn 0 1 0
vn 0 1 0
vn 0 1 0
vn 0 1 0
vn 0 1 0
vn 0 1 0
vn 0 1 0
vn 0 1 0
vn 0 1 0
vn 0 1 0
vn 0 1 0
vn 0 1 0
vn 0 1 0
vn 0 1 0
vn 0 1 0
vn 0 1 0
vn 0 1 0
vn 0 1 0
vn 0 1 0
vn 0 1 0
vn 0 1 0
vn 0 1 0
vn 0 1 0
g Flloor1_0
f 3/3/3 2/2/2 1/1/1
f 4/4/4 1/1/1 2/2/2
g Flloor1_1
f 7/7/7 6/6/6 5/5/5
f 8/8/8 5/5/5 6/6/6
f 8/8/8 9/9/9 5/5/5
f 10/10/10 5/5/5 9/9/9
f 13/13/13 12/12/12 11/11/11
f 14/14/14 11/11/11 12/12/12
f 17/17/17 16/16/16 15/15/15
f 18/18/18 15/15/15 16/16/16
g Flloor1_2
f 21/21/21 20/20/20 19/19/19
f 22/22/22 19/19/19 20/20/20
g Flloor1_3
f 25/25/25 24/24/24 23/23/23
f 26/26/26 23/23/23 24/24/24
