g Floor2
v -9.920079 -8.751311 1.500001
v -13.42008 -8.751309 5.722046E-07
v -13.42008 -8.751309 1.500001
v -9.920079 -8.751311 5.467733E-07
v -9.920079 8.751293 1.5
v -13.42008 2.590746 1.5
v -13.42008 8.751293 1.5
v -9.920079 2.590746 1.5
v -13.42008 -8.751309 1.500001
v -9.920079 -2.590759 1.5
v -9.920079 -8.751311 1.500001
v -13.42008 -2.590759 1.5
v -9.920079 8.751293 -1.398722E-07
v -9.920079 2.590746 1.5
v -9.920079 8.751293 1.5
v -9.920079 2.590746 1.525879E-07
v -9.920079 -8.751311 1.500001
v -9.920079 -2.590759 3.051758E-07
v -9.920079 -8.751311 5.467733E-07
v -9.920079 -2.590759 1.5
v -16.92008 -12.8763 3
v -13.42008 -2.590759 2.999999
v -13.42008 -12.8763 3
v -16.92008 -2.590759 3
v -13.42008 12.87629 2.999998
v -16.92008 2.590746 2.999999
v -16.92008 12.87629 2.999999
v -13.42008 2.590746 2.999999
v -13.42008 -12.8763 3
v -13.42008 -2.590759 4.577637E-07
v -13.42008 -12.87619 3.814697E-07
v -13.42008 -2.590759 2.999999
v -13.42008 12.87618 -1.525879E-07
v -13.42008 2.590746 2.999999
v -13.42008 12.87629 2.999998
v -13.42008 2.590746 0
v -16.92008 10.3763 4.5
v -28.01272 2.590746 4.5
v -28.01272 10.3763 4.5
v -16.92008 2.590746 4.5
v -28.01273 -10.37631 4.500001
v -16.92008 -2.590759 4.5
v -16.92008 -10.3763 4.500001
v -28.01273 -2.590759 4.5
v -16.92008 10.3763 2.999999
v -16.92008 2.590746 4.5
v -16.92008 10.3763 4.5
v -16.92008 2.590746 2.999999
v -16.92008 -10.3763 4.500001
v -16.92008 -2.590759 3
v -16.92008 -10.37631 3.000001
v -16.92008 -2.590759 4.5
v -15.92008 3.91308 2.999999
v -16.42008 3.91308 3.499999
v -16.42008 3.91308 2.999999
v -15.92008 3.91308 3.499999
v -16.42008 3.91308 2.999999
v -16.92008 3.913081 3.999999
v -16.92008 3.91308 2.999999
v -16.42008 3.91308 3.999999
v -15.92008 -4.703831 2.999997
v -16.42008 -4.703831 3.499997
v -15.92008 -4.703831 3.499997
v -16.42008 -4.703831 2.999997
v -16.42008 -4.703831 2.999997
v -16.92008 -4.703831 3.999997
v -16.42008 -4.703831 3.999997
v -16.92008 -4.703831 2.999997
v -12.42008 6.101071 1.5
v -12.92008 6.101071 2
v -12.92008 6.101071 1.5
v -12.42008 6.101071 2
v -12.92008 6.101071 1.5
v -13.42008 6.101071 2.5
v -13.42008 6.101071 1.5
v -12.92008 6.101071 2.5
v -12.42008 -6.101087 1.499998
v -12.92008 -6.101087 1.999998
v -12.42008 -6.101087 1.999998
v -12.92008 -6.101087 1.499998
v -12.92008 -6.101087 1.499998
v -13.42008 -6.101087 2.499998
v -12.92008 -6.101087 2.499998
v -13.42008 -6.101087 1.499998
v -8.920079 7.071981 3.814697E-08
v -9.42008 7.071982 0.5000001
v -9.42008 7.071982 7.629394E-08
v -8.92008 7.071982 0.5
v -9.42008 7.071982 7.629394E-08
v -9.92008 7.071982 1
v -9.920079 7.071981 3.814697E-08
v -9.42008 7.071982 1
v -15.92008 -4.703831 3.499997
v -15.92008 -2.590759 2.999998
v -15.92008 -4.703831 2.999997
v -15.92008 -2.590759 3.499998
v -15.92008 3.91308 2.999999
v -15.92008 2.590746 3.499998
v -15.92008 3.91308 3.499999
v -15.92008 2.590746 2.999998
v -16.42008 -4.703831 3.499997
v -15.92008 -2.590759 3.499998
v -15.92008 -4.703831 3.499997
v -16.42008 -2.590759 3.499998
v -15.92008 3.91308 3.499999
v -16.42008 2.590746 3.499999
v -16.42008 3.91308 3.499999
v -15.92008 2.590746 3.499998
v -16.42008 -4.703831 3.999997
v -16.42008 -2.590759 3.499998
v -16.42008 -4.703831 3.499997
v -16.42008 -2.590759 3.999997
v -16.42008 3.91308 3.499999
v -16.42008 2.590746 3.999998
v -16.42008 3.91308 3.999999
v -16.42008 2.590746 3.499999
v -16.92008 -4.703831 3.999997
v -16.42008 -2.590759 3.999997
v -16.42008 -4.703831 3.999997
v -16.92008 -2.590759 3.999997
v -16.42008 3.91308 3.999999
v -16.92008 2.590746 3.999998
v -16.92008 3.913081 3.999999
v -16.42008 2.590746 3.999998
v -12.42008 -6.101087 1.999998
v -12.42008 -2.590759 1.499999
v -12.42008 -6.101087 1.499998
v -12.42008 -2.590759 1.999999
v -12.42008 6.101071 1.5
v -12.42008 2.590746 2
v -12.42008 6.101071 2
v -12.42008 2.590746 1.5
v -12.92008 -6.101087 1.999998
v -12.42008 -2.590759 1.999999
v -12.42008 -6.101087 1.999998
v -12.92008 -2.590759 1.999999
v -12.42008 6.101071 2
v -12.92008 2.590746 2
v -12.92008 6.101071 2
v -12.42008 2.590746 2
v -12.92008 -6.101087 2.499998
v -12.92008 -2.590759 1.999999
v -12.92008 -6.101087 1.999998
v -12.92008 -2.590759 2.499999
v -12.92008 6.101071 2
v -12.92008 2.590746 2.5
v -12.92008 6.101071 2.5
v -12.92008 2.590746 2
v -13.42008 -6.101087 2.499998
v -12.92008 -2.590759 2.499999
v -12.92008 -6.101087 2.499998
v -13.42008 -2.590759 2.499999
v -12.92008 6.101071 2.5
v -13.42008 2.590746 2.5
v -13.42008 6.101071 2.5
v -12.92008 2.590746 2.5
v -8.92008 -7.071998 0.4999995
v -8.920079 -2.590759 -1.525879E-07
v -8.920079 -7.071999 -3.051758E-07
v -8.92008 -2.590759 0.4999997
v -8.920079 7.071981 3.814697E-08
v -8.92008 2.590746 0.4999999
v -8.92008 7.071982 0.5
v -8.920079 2.590746 -7.629394E-08
v -9.420081 -7.071999 0.4999995
v -8.92008 -2.590759 0.4999997
v -8.92008 -7.071998 0.4999995
v -9.42008 -2.590759 0.4999998
v -8.92008 7.071982 0.5
v -9.42008 2.590746 0.4999999
v -9.42008 7.071982 0.5000001
v -8.92008 2.590746 0.4999999
v -9.420081 -7.071999 0.9999993
v -9.42008 -2.590759 0.4999998
v -9.420081 -7.071999 0.4999995
v -9.42008 -2.590759 0.9999996
v -9.42008 7.071982 0.5000001
v -9.42008 2.590746 0.9999998
v -9.42008 7.071982 1
v -9.42008 2.590746 0.4999999
v -9.92008 -7.071998 0.9999993
v -9.42008 -2.590759 0.9999996
v -9.420081 -7.071999 0.9999993
v -9.92008 -2.590759 0.9999996
v -9.42008 7.071982 1
v -9.92008 2.590746 0.9999998
v -9.92008 7.071982 1
v -9.42008 2.590746 0.9999998
v -8.920079 -7.071999 -3.051758E-07
v -9.420081 -7.071999 0.4999995
v -8.92008 -7.071998 0.4999995
v -9.42008 -7.071998 -4.577637E-07
v -9.42008 -7.071998 -4.577637E-07
v -9.92008 -7.071998 0.9999993
v -9.420081 -7.071999 0.9999993
v -9.920079 -7.071999 -2.288818E-07
vt 0.4755912 0.9662684
vt 0.4521537 0.9115809
vt 0.4755912 0.9115809
vt 0.4521537 0.9662684
vt 0.3818469 0.9037415
vt 0.4365344 1
vt 0.4365344 0.9037415
vt 0.3818469 1
vt 0.4365344 0.9037415
vt 0.3818469 1
vt 0.3818469 0.9037414
vt 0.4365344 1
vt 0.4521536 0.9037416
vt 0.4755911 1
vt 0.4755911 0.9037416
vt 0.4521536 1
vt 0.4755911 0.9037415
vt 0.4521536 1
vt 0.4521536 0.9037415
vt 0.4755911 1
vt 0.4677837 0.8392884
vt 0.4130962 0.9999999
vt 0.4130963 0.8392884
vt 0.4677837 1
vt 0.4130962 0.8392882
vt 0.4677838 0.9999999
vt 0.4677837 0.8392882
vt 0.4130963 0.9999999
vt 0.4755911 0.8392886
vt 0.4287161 1
vt 0.4287161 0.8392886
vt 0.4755911 1
vt 0.4287162 0.8392885
vt 0.4755911 1
vt 0.4755911 0.8392885
vt 0.4287161 1
vt 0.2880907 0.8783507
vt 0.4614133 0.9999999
vt 0.4614133 0.8783506
vt 0.2880908 0.9999999
vt 0.4614133 0.8783509
vt 0.2880907 1
vt 0.2880907 0.8783509
vt 0.4614133 1
vt 0.4521537 0.8783508
vt 0.4755911 1
vt 0.4755911 0.8783508
vt 0.4521537 1
vt 0.4755911 0.8783511
vt 0.4521536 1
vt 0.4521536 0.878351
vt 0.4755911 1
vt -1.66893E-06 -2.205372E-06
vt 0.4999984 0.4999977
vt 0.4999984 -2.205372E-06
vt -1.66893E-06 0.4999977
vt -1.66893E-06 -2.205372E-06
vt 0.4999983 0.9999977
vt 0.4999983 -2.205372E-06
vt -1.66893E-06 0.9999977
vt 0.4999985 -2.205372E-06
vt -1.66893E-06 0.4999977
vt 0.4999985 0.4999977
vt -1.66893E-06 -2.205372E-06
vt 0.4999983 -2.205372E-06
vt -1.66893E-06 0.9999977
vt 0.4999983 0.9999977
vt -1.66893E-06 -2.205372E-06
vt -1.66893E-06 -2.205372E-06
vt 0.4999983 0.4999978
vt 0.4999983 -2.205372E-06
vt -1.66893E-06 0.4999978
vt -1.66893E-06 -2.205372E-06
vt 0.4999983 0.9999977
vt 0.4999983 -2.205372E-06
vt -1.66893E-06 0.9999977
vt 0.4999984 -2.205372E-06
vt -1.66893E-06 0.4999978
vt 0.4999984 0.4999978
vt -1.66893E-06 -2.205372E-06
vt 0.4999983 -2.205372E-06
vt -1.66893E-06 0.9999979
vt 0.4999983 0.9999979
vt -1.66893E-06 -2.205372E-06
vt -1.66893E-06 -2.205372E-06
vt 0.4999983 0.4999977
vt 0.4999983 -2.205372E-06
vt -1.66893E-06 0.4999977
vt -1.66893E-06 -2.205372E-06
vt 0.4999983 0.9999976
vt 0.4999983 -2.205372E-06
vt -1.66893E-06 0.9999976
vt -5.657863 0.4999977
vt -2.954378 -1.101392E-06
vt -5.657863 -2.205372E-06
vt -2.954377 0.4999987
vt -3.082853 -1.089278E-06
vt -5.529386 0.4999973
vt -3.082853 0.4999988
vt -5.529387 -2.205372E-06
vt 0.7567277 -3.524899
vt -1.946758 -3.024899
vt 0.7567277 -3.024899
vt -1.946758 -3.524899
vt -1.689805 -3.024899
vt 0.7567277 -3.524899
vt -1.689805 -3.524899
vt 0.7567277 -3.024899
vt -5.657863 0.4999974
vt -2.954378 -1.132488E-06
vt -5.657863 -2.235174E-06
vt -2.954377 0.4999985
vt -3.082853 -1.132488E-06
vt -5.529386 0.4999971
vt -3.082853 0.4999986
vt -5.529387 -2.235174E-06
vt 0.7567277 -3.524899
vt -1.946757 -3.024899
vt 0.7567277 -3.024899
vt -1.946757 -3.524899
vt -1.689806 -3.024899
vt 0.7567267 -3.524899
vt -1.689807 -3.524899
vt 0.7567277 -3.024899
vt -6.250559 0.4999978
vt -2.361681 -1.231433E-06
vt -6.250559 -2.205372E-06
vt -2.36168 0.4999987
vt -2.44858 -1.114865E-06
vt -6.163659 0.4999977
vt -2.44858 0.4999989
vt -6.16366 -2.205372E-06
vt 0.7567277 -3.524899
vt -3.132152 -3.024899
vt 0.7567277 -3.024899
vt -3.132152 -3.524899
vt -2.958351 -3.024899
vt 0.7567277 -3.524899
vt -2.958351 -3.524899
vt 0.7567277 -3.024899
vt -6.250559 0.4999976
vt -2.361681 -1.221895E-06
vt -6.250559 -2.17557E-06
vt -2.36168 0.4999986
vt -2.44858 -1.132488E-06
vt -6.163659 0.4999975
vt -2.44858 0.4999986
vt -6.16366 -2.205372E-06
vt 0.7567277 -3.524899
vt -3.132151 -3.024899
vt 0.7567277 -3.024899
vt -3.132152 -3.524899
vt -2.958352 -3.024899
vt 0.7567272 -3.524899
vt -2.958352 -3.524899
vt 0.7567277 -3.024899
vt -6.57199 0.4999977
vt -2.04025 -1.887775E-06
vt -6.57199 -2.205372E-06
vt -2.040249 0.4999981
vt -2.130287 -1.631464E-06
vt -6.481952 0.4999978
vt -2.130287 0.4999983
vt -6.481953 -2.205372E-06
vt 0.7567277 -3.524899
vt -3.775013 -3.024898
vt 0.7567277 -3.024899
vt -3.775013 -3.524899
vt -3.594937 -3.024898
vt 0.7567277 -3.524899
vt -3.594937 -3.524899
vt 0.7567277 -3.024899
vt -6.57199 0.4999975
vt -2.04025 -1.907349E-06
vt -6.57199 -2.17557E-06
vt -2.040249 0.4999979
vt -2.130287 -1.609325E-06
vt -6.481952 0.4999976
vt -2.130287 0.4999981
vt -6.481953 -2.205372E-06
vt 0.7567277 -3.524899
vt -3.775012 -3.024899
vt 0.7567277 -3.024899
vt -3.775013 -3.524899
vt -3.594938 -3.024899
vt 0.7567267 -3.524899
vt -3.594938 -3.524899
vt 0.7567277 -3.024899
vt 0.4999983 -2.205372E-06
vt -1.639128E-06 0.4999977
vt 0.4999983 0.4999977
vt -1.639128E-06 -2.205372E-06
vt 0.4999983 -2.205372E-06
vt -1.66893E-06 0.9999976
vt 0.4999983 0.9999976
vt -1.66893E-06 -2.205372E-06
vn 0 -1 0
vn 0 -1 0
vn 0 -1 0
vn 0 -1 0
vn 0 0 1
vn 0 0 1
vn 0 0 1
vn 0 0 1
vn 0 0 1
vn 0 0 1
vn 0 0 1
vn 0 0 1
vn 1 0 0
vn 1 0 0
vn 1 0 0
vn 1 0 0
vn 1 0 0
vn 1 0 0
vn 1 0 0
vn 1 0 0
vn 0 0 1
vn 0 0 1
vn 0 0 1
vn 0 0 1
vn 0 0 1
vn 0 0 1
vn 0 0 1
vn 0 0 1
vn 1 0 0
vn 1 0 0
vn 1 0 0
vn 1 0 0
vn 1 0 0
vn 1 0 0
vn 1 0 0
vn 1 0 0
vn 0 0 1
vn 0 0 1
vn 0 0 1
vn 0 0 1
vn 0 0 1
vn 0 0 1
vn 0 0 1
vn 0 0 1
vn 1 0 0
vn 1 0 0
vn 1 0 0
vn 1 0 0
vn 1 0 0
vn 1 0 0
vn 1 0 0
vn 1 0 0
vn 0 1 0
vn 0 1 0
vn 0 1 0
vn 0 1 0
vn 0 1 0
vn 0 1 0
vn 0 1 0
vn 0 1 0
vn 0 -1 0
vn 0 -1 0
vn 0 -1 0
vn 0 -1 0
vn 0 -1 0
vn 0 -1 0
vn 0 -1 0
vn 0 -1 0
vn 0 1 0
vn 0 1 0
vn 0 1 0
vn 0 1 0
vn 0 1 0
vn 0 1 0
vn 0 1 0
vn 0 1 0
vn 0 -1 0
vn 0 -1 0
vn 0 -1 0
vn 0 -1 0
vn 0 -1 0
vn 0 -1 0
vn 0 -1 0
vn 0 -1 0
vn 0 1 0
vn 0 1 0
vn 0 1 0
vn 0 1 0
vn 0 1 0
vn 0 1 0
vn 0 1 0
vn 0 1 0
vn 1 0 0
vn 1 0 0
vn 1 0 0
vn 1 0 0
vn 1 0 0
vn 1 0 0
vn 1 0 0
vn 1 0 0
vn 0 0 1
vn 0 0 1
vn 0 0 1
vn 0 0 1
vn 0 0 1
vn 0 0 1
vn 0 0 1
vn 0 0 1
vn 1 0 0
vn 1 0 0
vn 1 0 0
vn 1 0 0
vn 1 0 0
vn 1 0 0
vn 1 0 0
vn 1 0 0
vn 0 0 1
vn 0 0 1
vn 0 0 1
vn 0 0 1
vn 0 0 1
vn 0 0 1
vn 0 0 1
vn 0 0 1
vn 1 0 0
vn 1 0 0
vn 1 0 0
vn 1 0 0
vn 1 0 0
vn 1 0 0
vn 1 0 0
vn 1 0 0
vn 0 0 1
vn 0 0 1
vn 0 0 1
vn 0 0 1
vn 0 0 1
vn 0 0 1
vn 0 0 1
vn 0 0 1
vn 1 0 0
vn 1 0 0
vn 1 0 0
vn 1 0 0
vn 1 0 0
vn 1 0 0
vn 1 0 0
vn 1 0 0
vn 0 0 1
vn 0 0 1
vn 0 0 1
vn 0 0 1
vn 0 0 1
vn 0 0 1
vn 0 0 1
vn 0 0 1
vn 1 0 0
vn 1 0 0
vn 1 0 0
vn 1 0 0
vn 1 0 0
vn 1 0 0
vn 1 0 0
vn 1 0 0
vn 0 0 1
vn 0 0 1
vn 0 0 1
vn 0 0 1
vn 0 0 1
vn 0 0 1
vn 0 0 1
vn 0 0 1
vn 1 0 0
vn 1 0 0
vn 1 0 0
vn 1 0 0
vn 1 0 0
vn 1 0 0
vn 1 0 0
vn 1 0 0
vn 0 0 1
vn 0 0 1
vn 0 0 1
vn 0 0 1
vn 0 0 1
vn 0 0 1
vn 0 0 1
vn 0 0 1
vn 0 -1 0
vn 0 -1 0
vn 0 -1 0
vn 0 -1 0
vn 0 -1 0
vn 0 -1 0
vn 0 -1 0
vn 0 -1 0
g Floor2_0
f 3/3/3 2/2/2 1/1/1
f 4/4/4 1/1/1 2/2/2
f 7/7/7 6/6/6 5/5/5
f 8/8/8 5/5/5 6/6/6
f 11/11/11 10/10/10 9/9/9
f 12/12/12 9/9/9 10/10/10
f 15/15/15 14/14/14 13/13/13
f 16/16/16 13/13/13 14/14/14
f 19/19/19 18/18/18 17/17/17
f 20/20/20 17/17/17 18/18/18
f 23/23/23 22/22/22 21/21/21
f 24/24/24 21/21/21 22/22/22
f 27/27/27 26/26/26 25/25/25
f 28/28/28 25/25/25 26/26/26
f 31/31/31 30/30/30 29/29/29
f 32/32/32 29/29/29 30/30/30
f 35/35/35 34/34/34 33/33/33
f 36/36/36 33/33/33 34/34/34
f 39/39/39 38/38/38 37/37/37
f 40/40/40 37/37/37 38/38/38
f 43/43/43 42/42/42 41/41/41
f 44/44/44 41/41/41 42/42/42
f 47/47/47 46/46/46 45/45/45
f 48/48/48 45/45/45 46/46/46
f 51/51/51 50/50/50 49/49/49
f 52/52/52 49/49/49 50/50/50
g Floor2_1
f 55/55/55 54/54/54 53/53/53
f 56/56/56 53/53/53 54/54/54
f 59/59/59 58/58/58 57/57/57
f 60/60/60 57/57/57 58/58/58
f 63/63/63 62/62/62 61/61/61
f 64/64/64 61/61/61 62/62/62
f 67/67/67 66/66/66 65/65/65
f 68/68/68 65/65/65 66/66/66
f 71/71/71 70/70/70 69/69/69
f 72/72/72 69/69/69 70/70/70
f 75/75/75 74/74/74 73/73/73
f 76/76/76 73/73/73 74/74/74
f 79/79/79 78/78/78 77/77/77
f 80/80/80 77/77/77 78/78/78
f 83/83/83 82/82/82 81/81/81
f 84/84/84 81/81/81 82/82/82
f 87/87/87 86/86/86 85/85/85
f 88/88/88 85/85/85 86/86/86
f 91/91/91 90/90/90 89/89/89
f 92/92/92 89/89/89 90/90/90
f 95/95/95 94/94/94 93/93/93
f 96/96/96 93/93/93 94/94/94
f 99/99/99 98/98/98 97/97/97
f 100/100/100 97/97/97 98/98/98
f 103/103/103 102/102/102 101/101/101
f 104/104/104 101/101/101 102/102/102
f 107/107/107 106/106/106 105/105/105
f 108/108/108 105/105/105 106/106/106
f 111/111/111 110/110/110 109/109/109
f 112/112/112 109/109/109 110/110/110
f 115/115/115 114/114/114 113/113/113
f 116/116/116 113/113/113 114/114/114
f 119/119/119 118/118/118 117/117/117
f 120/120/120 117/117/117 118/118/118
f 123/123/123 122/122/122 121/121/121
f 124/124/124 121/121/121 122/122/122
f 127/127/127 126/126/126 125/125/125
f 128/128/128 125/125/125 126/126/126
f 131/131/131 130/130/130 129/129/129
f 132/132/132 129/129/129 130/130/130
f 135/135/135 134/134/134 133/133/133
f 136/136/136 133/133/133 134/134/134
f 139/139/139 138/138/138 137/137/137
f 140/140/140 137/137/137 138/138/138
f 143/143/143 142/142/142 141/141/141
f 144/144/144 141/141/141 142/142/142
f 147/147/147 146/146/146 145/145/145
f 148/148/148 145/145/145 146/146/146
f 151/151/151 150/150/150 149/149/149
f 152/152/152 149/149/149 150/150/150
f 155/155/155 154/154/154 153/153/153
f 156/156/156 153/153/153 154/154/154
f 159/159/159 158/158/158 157/157/157
f 160/160/160 157/157/157 158/158/158
f 163/163/163 162/162/162 161/161/161
f 164/164/164 161/161/161 162/162/162
f 167/167/167 166/166/166 165/165/165
f 168/168/168 165/165/165 166/166/166
f 171/171/171 170/170/170 169/169/169
f 172/172/172 169/169/169 170/170/170
f 175/175/175 174/174/174 173/173/173
f 176/176/176 173/173/173 174/174/174
f 179/179/179 178/178/178 177/177/177
f 180/180/180 177/177/177 178/178/178
f 183/183/183 182/182/182 181/181/181
f 184/184/184 181/181/181 182/182/182
f 187/187/187 186/186/186 185/185/185
f 188/188/188 185/185/185 186/186/186
f 191/191/191 190/190/190 189/189/189
f 192/192/192 189/189/189 190/190/190
f 195/195/195 194/194/194 193/193/193
f 196/196/196 193/193/193 194/194/194
