g Floor
v -2.249983 0.2499828 -2.249983
v 2.249983 0.2499828 -2.249983
v -2.249983 0.2499828 2.249983
v 2.249983 0.2499828 2.249983
v 2.499989 2.479553E-05 -2.499989
v 2.499989 0.4999886 -2.499989
v -2.499989 2.479553E-05 -2.499989
v -2.499989 0.4999886 -2.499989
v 2.499989 0.4999886 -2.499989
v 2.249983 0.4999886 -2.249983
v -2.499989 0.4999886 -2.499989
v -2.249983 0.4999886 -2.249983
v 2.249983 0.4999886 2.249983
v 2.499989 0.4999886 2.499989
v -2.249983 0.4999886 2.249983
v -2.499989 0.4999886 2.499989
v 2.249983 0.4999886 -2.249983
v 2.249983 0.2499828 -2.249983
v -2.249983 0.4999886 -2.249983
v -2.249983 0.2499828 -2.249983
v -2.499989 2.479553E-05 2.499989
v -2.499989 0.4999886 2.499989
v 2.499989 2.479553E-05 2.499989
v 2.499989 0.4999886 2.499989
v -2.249983 0.4999886 2.249983
v -2.249983 0.2499828 2.249983
v 2.249983 0.4999886 2.249983
v 2.249983 0.2499828 2.249983
v 2.499989 2.479553E-05 2.499989
v 2.499989 0.4999886 2.499989
v 2.499989 2.479553E-05 -2.499989
v 2.499989 0.4999886 -2.499989
v 2.249983 0.4999886 2.249983
v 2.249983 0.2499828 2.249983
v 2.249983 0.4999886 -2.249983
v 2.249983 0.2499828 -2.249983
v -2.499989 2.479553E-05 -2.499989
v -2.499989 0.4999886 -2.499989
v -2.499989 2.479553E-05 2.499989
v -2.499989 0.4999886 2.499989
v -2.249983 0.4999886 -2.249983
v -2.249983 0.2499828 -2.249983
v -2.249983 0.4999886 2.249983
v -2.249983 0.2499828 2.249983
v 25 2.479553E-05 25
v 8.333334 2.479553E-05 25
v 8.333334 2.479553E-05 8.333332
v 25 2.479553E-05 8.333332
v 25 2.479553E-05 -8.333334
v 8.333334 2.479553E-05 -8.333334
v 8.333334 2.479553E-05 -25
v 25 2.479553E-05 -25
v -8.333332 2.479553E-05 25
v -25 2.479553E-05 25
v -25 2.479553E-05 8.333332
v -8.333332 2.479553E-05 8.333332
v -8.333332 2.479553E-05 -8.333334
v -25 2.479553E-05 -8.333334
v -25 2.479553E-05 -25
v -8.333332 2.479553E-05 -25
v -8.333332 2.479553E-05 8.333332
v -8.333332 2.479553E-05 25
v -8.333332 2.479553E-05 -8.333334
v -8.333332 2.479553E-05 -25
v -25 2.479553E-05 -8.333334
v -25 2.479553E-05 8.333332
v 8.333334 2.479553E-05 8.333332
v -8.333332 2.479553E-05 8.333332
v -8.333332 2.479553E-05 -8.333334
v 8.333334 2.479553E-05 -8.333334
vt 0.6689835 0.2760239
vt 0.6689835 0.557579
vt 0.9495621 0.2760239
vt 0.9495621 0.557579
vt 0.6534958 0.3697052
vt 0.6534958 0.4008713
vt 0.9652481 0.3697052
vt 0.9652481 0.4008713
vt 0.6533966 0.5731583
vt 0.6689835 0.557579
vt 0.6533966 0.2613983
vt 0.6689835 0.2760239
vt 0.9495621 0.557579
vt 0.9651642 0.5731583
vt 0.9495621 0.2760239
vt 0.9651642 0.2613983
vt 0.9495621 0.387085
vt 0.9495621 0.3714905
vt 0.6689835 0.387085
vt 0.6689835 0.3714905
vt 0.6534958 0.3697052
vt 0.6534958 0.4008713
vt 0.9652481 0.3697052
vt 0.9652481 0.4008713
vt 0.9495621 0.387085
vt 0.9495621 0.3714905
vt 0.6689835 0.387085
vt 0.6689835 0.3714905
vt 0.6533966 0.355896
vt 0.6533966 0.387085
vt 0.9651642 0.355896
vt 0.9651642 0.387085
vt 0.9495621 0.387085
vt 0.9495621 0.3714905
vt 0.6689835 0.387085
vt 0.6689835 0.3714905
vt 0.6534576 0.3539963
vt 0.6534576 0.3851776
vt 0.9652252 0.3539963
vt 0.9652252 0.3851776
vt 0.9495621 0.387085
vt 0.9495621 0.3714905
vt 0.6689835 0.387085
vt 0.6689835 0.3714905
vt -79.24409 25.5
vt -62.57742 25.5
vt -62.57742 8.833351
vt -79.24409 8.833351
vt -79.24409 -7.833344
vt -62.57742 -7.833344
vt -62.57742 -24.5
vt -79.24409 -24.5
vt -79.24409 25.5
vt -62.57742 25.5
vt -62.57742 8.833351
vt -79.24409 8.833351
vt -79.24409 -7.833344
vt -62.57742 -7.833344
vt -62.57742 -24.5
vt -79.24409 -24.5
vt -45.91076 8.833351
vt -45.91076 25.5
vt -45.91076 -7.833344
vt -45.91076 -24.5
vt -29.24409 -7.833344
vt -29.24409 8.833351
vt -79.24409 -42.776
vt -62.57742 -42.776
vt -62.57742 -59.4427
vt -79.24409 -59.4427
vn -0.0009775162 0.9999995 0
vn -0.0009775162 0.9999995 0
vn -0.0009775162 0.9999995 0
vn -0.0009775162 0.9999995 0
vn -0.0009775162 0.0009775162 -0.999999
vn -0.0009775162 0.0009775162 -0.999999
vn -0.0009775162 0.0009775162 -0.999999
vn -0.0009775162 0.0009775162 -0.999999
vn -0.0009775162 0.9999995 0
vn -0.0009775162 0.9999995 0
vn -0.0009775162 0.9999995 0
vn -0.0009775162 0.9999995 0
vn -0.0009775162 0.9999995 0
vn -0.0009775162 0.9999995 0
vn -0.0009775162 0.9999995 0
vn -0.0009775162 0.9999995 0
vn -0.0009775162 0.0009775162 0.999999
vn -0.0009775162 0.0009775162 0.999999
vn -0.0009775162 0.0009775162 0.999999
vn -0.0009775162 0.0009775162 0.999999
vn -0.0009775162 0.0009775162 0.999999
vn -0.0009775162 0.0009775162 0.999999
vn -0.0009775162 0.0009775162 0.999999
vn -0.0009775162 0.0009775162 0.999999
vn -0.0009775162 0.0009775162 -0.999999
vn -0.0009775162 0.0009775162 -0.999999
vn -0.0009775162 0.0009775162 -0.999999
vn -0.0009775162 0.0009775162 -0.999999
vn 0.9999995 0.0009775162 0
vn 0.9999995 0.0009775162 0
vn 0.9999995 0.0009775162 0
vn 0.9999995 0.0009775162 0
vn -0.9999995 0.0009775162 0
vn -0.9999995 0.0009775162 0
vn -0.9999995 0.0009775162 0
vn -0.9999995 0.0009775162 0
vn -0.9999995 0.0009775162 0
vn -0.9999995 0.0009775162 0
vn -0.9999995 0.0009775162 0
vn -0.9999995 0.0009775162 0
vn 0.9999995 0.0009775162 0
vn 0.9999995 0.0009775162 0
vn 0.9999995 0.0009775162 0
vn 0.9999995 0.0009775162 0
vn -0.0009775162 0.9999995 0
vn -0.0009775162 0.9999995 0
vn -0.0009775162 0.9999995 0
vn -0.0009775162 0.9999995 0
vn -0.0009775162 0.9999995 0
vn -0.0009775162 0.9999995 0
vn -0.0009775162 0.9999995 0
vn -0.0009775162 0.9999995 0
vn -0.0009775162 0.9999995 0
vn -0.0009775162 0.9999995 0
vn -0.0009775162 0.9999995 0
vn -0.0009775162 0.9999995 0
vn -0.0009775162 0.9999995 0
vn -0.0009775162 0.9999995 0
vn -0.0009775162 0.9999995 0
vn -0.0009775162 0.9999995 0
vn -0.0009775162 0.9999995 0
vn -0.0009775162 0.9999995 0
vn -0.0009775162 0.9999995 0
vn -0.0009775162 0.9999995 0
vn -0.0009775162 0.9999995 0
vn -0.0009775162 0.9999995 0
vn -0.0009775162 0.9999995 0
vn -0.0009775162 0.9999995 0
vn -0.0009775162 0.9999995 0
vn -0.0009775162 0.9999995 0
g Floor_0
f 3/3/3 2/2/2 1/1/1
f 2/2/2 3/3/3 4/4/4
f 7/7/7 6/6/6 5/5/5
f 6/6/6 7/7/7 8/8/8
f 11/11/11 10/10/10 9/9/9
f 10/10/10 11/11/11 12/12/12
f 13/13/13 9/9/9 10/10/10
f 9/9/9 13/13/13 14/14/14
f 15/15/15 14/14/14 13/13/13
f 14/14/14 15/15/15 16/16/16
f 16/16/16 12/12/12 11/11/11
f 12/12/12 16/16/16 15/15/15
f 19/19/19 18/18/18 17/17/17
f 18/18/18 19/19/19 20/20/20
f 23/23/23 22/22/22 21/21/21
f 22/22/22 23/23/23 24/24/24
f 27/27/27 26/26/26 25/25/25
f 26/26/26 27/27/27 28/28/28
f 31/31/31 30/30/30 29/29/29
f 30/30/30 31/31/31 32/32/32
f 35/35/35 34/34/34 33/33/33
f 34/34/34 35/35/35 36/36/36
f 39/39/39 38/38/38 37/37/37
f 38/38/38 39/39/39 40/40/40
f 43/43/43 42/42/42 41/41/41
f 42/42/42 43/43/43 44/44/44
g Floor_1
f 47/47/47 46/46/46 45/45/45
f 48/48/48 47/47/47 45/45/45
f 51/51/51 50/50/50 49/49/49
f 52/52/52 51/51/51 49/49/49
f 55/55/55 54/54/54 53/53/53
f 56/56/56 55/55/55 53/53/53
f 59/59/59 58/58/58 57/57/57
f 60/60/60 59/59/59 57/57/57
g Floor_2
f 50/50/50 47/47/47 48/48/48
f 49/49/49 50/50/50 48/48/48
f 47/47/47 61/61/61 46/46/46
f 61/61/61 62/62/62 46/46/46
f 64/64/64 63/63/63 50/50/50
f 51/51/51 64/64/64 50/50/50
f 63/63/63 65/65/65 61/61/61
f 65/65/65 66/66/66 61/61/61
f 69/69/69 68/68/68 67/67/67
f 70/70/70 69/69/69 67/67/67
