g Floor
v 28.01274 -2.590757 0
v 25.51144 -6.251091 0
v 20.51143 -8.751092 -3.051758E-07
v 28.01274 -6.251091 0
v -8.920079 -7.072 -1.037812E-07
v -8.920079 -2.590759 -1.525879E-07
v 25.51144 -8.751091 0
v 10.28942 -11.29244 0
v -3.685962 -11.29244 0
v 18.01143 -11.25131 0
v 20.51143 -11.25131 0
v 18.01143 -18.62741 0
v 10.28942 -18.62741 0
v -9.920079 -8.751314 5.467732E-07
v -11.98335 -18.62741 0
v -3.685962 -18.62741 0
v -9.920079 -7.071999 -2.288818E-07
v -11.98335 -12.87609 0
v -13.42008 -8.751309 5.722046E-07
v -13.42008 -12.87619 3.814697E-07
v 28.01274 2.590748 0
v 25.51144 6.249993 0
v 28.01274 6.249994 0
v 20.51143 8.751078 0
v 25.51144 8.751078 0
v -8.920079 2.590746 -7.629394E-08
v -8.920079 7.071981 -8.41381E-09
v 18.01143 11.25129 0
v 20.51143 11.25129 0
v -9.920079 8.751293 -1.398722E-07
v -9.920079 7.071981 3.814697E-08
v 18.01143 18.62741 0
v -11.98335 12.87608 0
v -11.98335 18.62741 0
v -13.42008 8.751293 3.814697E-08
v -13.42008 12.87618 -1.525879E-07
v 10.28942 -11.29244 0
v -3.685962 -18.62741 0
v -3.685962 -11.29244 0
v 10.28942 -18.62741 0
vt 10.85821 -0.7953789
vt 9.607553 -2.625546
vt 7.10755 -3.875545
vt 10.85821 -2.625546
vt -7.608205 -3.035995
vt -7.608205 -0.7953756
vt 9.607553 -3.875546
vt 1.996545 -5.146218
vt -4.991147 -5.146216
vt 5.857551 -5.125653
vt 7.10755 -5.125652
vt 5.85755 -8.813705
vt 1.996544 -8.813704
vt -8.108205 -3.875653
vt -9.13984 -8.813702
vt -4.991148 -8.813703
vt -8.108205 -3.035995
vt -9.139839 -5.938038
vt -9.858207 -3.87565
vt -9.858209 -5.938093
vt 10.85821 1.795374
vt 9.607555 3.624996
vt 10.85821 3.624996
vt 7.107552 4.875539
vt 9.607555 4.875538
vt -7.608204 1.795377
vt -7.608203 4.035995
vt 5.857553 6.125645
vt 7.107552 6.125646
vt -8.108203 4.87565
vt -8.108203 4.035995
vt 5.857554 9.813703
vt -9.139836 6.938042
vt -9.139835 9.813706
vt -9.858204 4.875651
vt -9.858204 6.938096
vt 0.2186631 0.7155501
vt 0.0002976256 0.8301591
vt 0.0002976461 0.7155501
vt 0.218663 0.8301591
vn 0 0 1
vn 0 0 1
vn 0 0 1
vn 0 0 1
vn 0 0 1
vn 0 0 1
vn 0 0 1
vn 0 0 1
vn 0 0 1
vn 0 0 1
vn 0 0 1
vn 0 0 1
vn 0 0 1
vn 0 0 1
vn 0 0 1
vn 0 0 1
vn 0 0 1
vn 0 0 1
vn 0 0 1
vn 0 0 1
vn 0 0 1
vn 0 0 1
vn 0 0 1
vn 0 0 1
vn 0 0 1
vn 0 0 1
vn 0 0 1
vn 0 0 1
vn 0 0 1
vn 0 0 1
vn 0 0 1
vn 0 0 1
vn 0 0 1
vn 0 0 1
vn 0 0 1
vn 0 0 1
vn 0 0 1
vn 0 0 1
vn 0 0 1
vn 0 0 1
g Floor_0
f 3/3/3 2/2/2 1/1/1
f 2/2/2 4/4/4 1/1/1
f 3/3/3 1/1/1 5/5/5
f 6/6/6 5/5/5 1/1/1
f 7/7/7 2/2/2 3/3/3
f 3/3/3 5/5/5 8/8/8
f 9/9/9 8/8/8 5/5/5
f 3/3/3 8/8/8 10/10/10
f 11/11/11 3/3/3 10/10/10
f 10/10/10 8/8/8 12/12/12
f 13/13/13 12/12/12 8/8/8
f 5/5/5 14/14/14 9/9/9
f 14/14/14 15/15/15 9/9/9
f 16/16/16 9/9/9 15/15/15
f 5/5/5 17/17/17 14/14/14
f 15/15/15 14/14/14 18/18/18
f 19/19/19 18/18/18 14/14/14
f 18/18/18 19/19/19 20/20/20
f 23/23/23 22/22/22 21/21/21
f 21/21/21 22/22/22 24/24/24
f 24/24/24 22/22/22 25/25/25
f 21/21/21 24/24/24 26/26/26
f 27/27/27 26/26/26 24/24/24
f 24/24/24 28/28/28 27/27/27
f 29/29/29 28/28/28 24/24/24
f 30/30/30 27/27/27 28/28/28
f 31/31/31 27/27/27 30/30/30
f 28/28/28 32/32/32 30/30/30
f 33/33/33 30/30/30 32/32/32
f 33/33/33 32/32/32 34/34/34
f 35/35/35 30/30/30 33/33/33
f 33/33/33 36/36/36 35/35/35
g Floor_1
f 39/39/39 38/38/38 37/37/37
f 40/40/40 37/37/37 38/38/38
