g Flor_1
v -20.05294 -23.5 0
v -20.05293 -15.00001 0
v 20.05293 -15 -1.068115E-06
v 20.05293 -23.49999 0
v 20.05292 23.5 0
v 20.05293 15 -1.068115E-06
v -20.05293 14.99999 0
v -20.05292 23.5 0
v 32.05292 27 1.525879E-06
v 32.05293 4 6.866455E-06
v 27.05292 14 6.866455E-06
v 27.05293 4 8.659363E-06
v 20.05292 27 1.525879E-06
v 22.05293 14 6.866455E-06
v 20.05293 -27 1.525879E-06
v 22.05293 -14 6.866455E-06
v 27.05293 -14 6.866455E-06
v 32.05293 -27 1.525879E-06
v 32.05293 -4.000003 6.866455E-06
v 27.05293 -4.000001 8.659363E-06
v -32.05292 27 1.525879E-06
v -27.05292 14 6.866455E-06
v -32.05292 3.999996 6.866455E-06
v -27.05292 3.999995 8.659363E-06
v -20.05292 27 1.525879E-06
v -22.05292 14 6.866455E-06
v -20.05293 -27 1.525879E-06
v -22.05292 -14.00001 6.866455E-06
v -27.05292 -14.00001 6.866455E-06
v -32.05293 -27 1.525879E-06
v -32.05293 -4.000008 6.866455E-06
v -27.05292 -4.000007 8.659363E-06
v -48.73694 -18.68679 0
v -32.55295 -4.000003 0
v -32.55295 -18.68679 0
v -48.73694 6.618405 0
v -32.55295 4.000009 0
v -32.05294 2.999991 0
v -32.05294 -3.000014 0
v -32.55295 6.618405 0
v -32.05295 4.000009 0
v -32.05295 -4.000003 0
v 32.05293 -3.000003 1.220703E-05
v 32.05293 -4.000003 6.866455E-06
v 27.05293 -4.000001 8.659363E-06
v 26.05293 -3.000004 1.220703E-05
v 32.05293 4 6.866455E-06
v 32.05293 3.000002 1.220703E-05
v 26.05293 3.000001 1.220703E-05
v 27.05293 4 8.659363E-06
v 23.05293 -14 1.220703E-05
v 22.05293 -14 6.866455E-06
v 22.05293 14 6.866455E-06
v 23.05293 14 1.220703E-05
v 27.05293 4 8.659363E-06
v 26.05293 3.000001 1.220703E-05
v 26.05293 14 1.220703E-05
v 27.05292 14 6.866455E-06
v 27.05293 -14 6.866455E-06
v 26.05293 -14 1.220703E-05
v 26.05293 -3.000004 1.220703E-05
v 27.05293 -4.000001 8.659363E-06
v -32.05292 -3.000013 1.220703E-05
v -26.05292 -3.000013 1.220703E-05
v -27.05292 -4.000007 8.659363E-06
v -32.05293 -4.000008 6.866455E-06
v -32.05292 3.999996 6.866455E-06
v -27.05292 3.999995 8.659363E-06
v -26.05292 2.999993 1.220703E-05
v -32.05292 2.999991 1.220703E-05
v -23.05292 -14.00001 1.220703E-05
v -23.05292 13.99999 1.220703E-05
v -22.05292 14 6.866455E-06
v -22.05292 -14.00001 6.866455E-06
v -27.05292 3.999995 8.659363E-06
v -27.05292 14 6.866455E-06
v -26.05292 13.99999 1.220703E-05
v -26.05292 2.999993 1.220703E-05
v -27.05292 -14.00001 6.866455E-06
v -27.05292 -4.000007 8.659363E-06
v -26.05292 -3.000013 1.220703E-05
v -26.05292 -14.00001 1.220703E-05
v 18.02379 -11 1.220703E-05
v 18.0238 -12 5.0354E-06
v -17.94708 -12 5.0354E-06
v -17.94707 -11.00001 1.220703E-05
v 18.02379 -6.999999 5.0354E-06
v 18.02379 -8 1.220703E-05
v -17.94707 -8.000007 1.220703E-05
v -17.94707 -7.000002 5.0354E-06
v 18.02378 7.999999 1.220703E-05
v 18.02379 6.999997 5.0354E-06
v -17.94708 6.999994 5.0354E-06
v -17.94707 7.999994 1.220703E-05
v 18.0238 12 5.0354E-06
v 18.02378 11 1.220703E-05
v -17.94707 10.99999 1.220703E-05
v -17.94708 11.99999 5.0354E-06
v 32.05293 3.000002 1.220703E-05
v 32.05293 -3.000003 1.220703E-05
v 23.05293 -14 1.220703E-05
v 23.05293 14 1.220703E-05
v -32.05292 2.999991 1.220703E-05
v -32.05292 -3.000013 1.220703E-05
v -23.05292 13.99999 1.220703E-05
v -23.05292 -14.00001 1.220703E-05
v 18.02379 -8 1.220703E-05
v -17.94707 -8.000007 1.220703E-05
v 18.02378 11 1.220703E-05
v -17.94707 10.99999 1.220703E-05
v 7.991649 -5.499993 -2.13623E-06
v 7.99165 5.499993 -2.13623E-06
v 20.05293 5.499993 -2.13623E-06
v 20.05293 -5.499993 -2.13623E-06
v 18.02379 6.999997 5.0354E-06
v 18.0238 12 5.0354E-06
v 20.05293 15 -1.068115E-06
v -20.05293 14.99999 -2.13623E-06
v -17.94708 11.99999 5.0354E-06
v -20.05293 5.499993 -2.13623E-06
v -17.94708 6.999994 5.0354E-06
v -7.99165 5.499993 -2.13623E-06
v -20.05293 -5.499993 -2.13623E-06
v -7.991652 -5.499993 -2.13623E-06
v 18.02379 -6.999999 5.0354E-06
v 18.0238 -12 5.0354E-06
v 20.05293 -15 -1.068115E-06
v -17.94708 -12 5.0354E-06
v -20.05293 -14.99999 -2.13623E-06
v -17.94707 -7.000002 5.0354E-06
vt -39.0507 3.49471
vt -39.05068 11.9947
vt 1.05518 11.99469
vt 1.055176 3.4947
vt 1.055189 50.4947
vt 1.055187 41.99469
vt -39.05067 41.9947
vt -39.05066 50.49471
vt -26.5 6.500002
vt -3.499999 6.5
vt -13.5 1.499997
vt -3.5 1.499996
vt -26.5 -5.499999
vt -13.5 -3.500001
vt 27.5 -5.500002
vt 14.5 -3.500003
vt 14.5 1.499995
vt 27.5 6.499998
vt 4.500004 6.5
vt 4.500001 1.499995
vt -26.5 6.500002
vt -13.5 1.499997
vt -3.499999 6.5
vt -3.5 1.499996
vt -26.5 -5.499999
vt -13.5 -3.500001
vt 27.5 -5.500002
vt 14.5 -3.500003
vt 14.5 1.499995
vt 27.5 6.499998
vt 4.500004 6.5
vt 4.500001 1.499995
vt -7.842 -12.1526
vt 8.341997 2.534186
vt 8.341993 -12.1526
vt -7.841994 13.1526
vt 8.341999 10.5342
vt 8.842005 9.534182
vt 8.842005 3.534175
vt 8.342 13.1526
vt 8.841999 10.5342
vt 8.841997 2.534186
vt 29.5 1.499997
vt 29.5 0.4999971
vt 24.5 0.500001
vt 23.5 1.500001
vt 11.5 0.500001
vt 11.5 1.500001
vt 17.5 1.499999
vt 16.5 0.499999
vt 34.5 5.499992
vt 34.5 4.499993
vt 6.499998 4.500001
vt 6.499998 5.500002
vt 16.5 0.4999971
vt 17.5 1.499999
vt 6.5 1.499993
vt 6.5 0.4999933
vt 34.5 0.5000048
vt 34.5 1.500003
vt 23.5 1.500001
vt 24.5 0.500001
vt 29.5 1.499997
vt 23.5 1.500001
vt 24.5 0.500001
vt 29.5 0.4999971
vt 11.5 0.500001
vt 16.5 0.499999
vt 17.5 1.499999
vt 11.5 1.500001
vt 34.5 5.499992
vt 6.499998 5.500002
vt 6.499998 4.500001
vt 34.5 4.499993
vt 16.5 0.4999971
vt 6.5 0.4999933
vt 6.5 1.499993
vt 17.5 1.499999
vt 34.5 0.5000048
vt 24.5 0.500001
vt 23.5 1.500001
vt 34.5 1.500003
vt 11.47086 -10.5
vt 11.47086 -11.5
vt -24.5 -11.49999
vt -24.5 -10.49999
vt 11.47086 -7.49999
vt 11.47086 -6.49999
vt -24.5 -6.499997
vt -24.5 -7.499997
vt 11.47086 8.500002
vt 11.47086 7.500002
vt -24.5 7.50001
vt -24.5 8.50001
vt 11.47086 11.50001
vt 11.47086 12.50001
vt -24.5 12.5
vt -24.5 11.5
vt 17.5 -4.500003
vt 23.50001 -4.500001
vt 34.5 4.500003
vt 6.499998 4.499993
vt 17.5 -4.500003
vt 23.50001 -4.500001
vt 6.499998 4.499993
vt 34.5 4.500003
vt 11.47086 -7.499997
vt -24.5 -7.49999
vt 11.47086 11.5
vt -24.5 11.50001
vt 20.49999 28.04458
vt 9.500001 28.04458
vt 9.500004 40.10586
vt 20.49999 40.10585
vt 8.000003 38.07672
vt 3.000002 38.07674
vt 9.536743E-06 40.10586
vt 0 0
vt 2.999991 2.10585
vt 9.499994 3.814697E-06
vt 7.999993 2.10585
vt 9.499997 12.06128
vt 20.49998 0
vt 20.49998 12.06128
vt 21.99999 38.07671
vt 26.99999 38.07674
vt 29.99998 40.10586
vt 26.99998 2.105842
vt 29.99998 -7.629395E-06
vt 21.99998 2.10586
vn 0 0 1
vn 0 0 1
vn 0 0 1
vn 0 0 1
vn 0 0 1
vn 0 0 1
vn 0 0 1
vn 0 0 1
vn 0 0 1
vn 0 0 1
vn 0 0 1
vn 0 0 1
vn 0 0 1
vn 0 0 1
vn 0 0 1
vn 0 0 1
vn 0 0 1
vn 0 0 1
vn 0 0 1
vn 0 0 1
vn 0 0 1
vn 0 0 1
vn 0 0 1
vn 0 0 1
vn 0 0 1
vn 0 0 1
vn 0 0 1
vn 0 0 1
vn 0 0 1
vn 0 0 1
vn 0 0 1
vn 0 0 1
vn 0 0 1
vn 0 0 1
vn 0 0 1
vn 0 0 1
vn 0 0 1
vn 0 0 1
vn 0 0 1
vn 0 0 1
vn 0 0 1
vn 0 0 1
vn 0 0 1
vn 0 0 1
vn 0 0 1
vn 0 0 1
vn 0 0 1
vn 0 0 1
vn 0 0 1
vn 0 0 1
vn 0 0 1
vn 0 0 1
vn 0 0 1
vn 0 0 1
vn 0 0 1
vn 0 0 1
vn 0 0 1
vn 0 0 1
vn 0 0 1
vn 0 0 1
vn 0 0 1
vn 0 0 1
vn 0 0 1
vn 0 0 1
vn 0 0 1
vn 0 0 1
vn 0 0 1
vn 0 0 1
vn 0 0 1
vn 0 0 1
vn 0 0 1
vn 0 0 1
vn 0 0 1
vn 0 0 1
vn 0 0 1
vn 0 0 1
vn 0 0 1
vn 0 0 1
vn 0 0 1
vn 0 0 1
vn 0 0 1
vn 0 0 1
vn 0 0 1
vn 0 0 1
vn 0 0 1
vn 0 0 1
vn 0 4.201852E-06 1
vn 0 0 1
vn 0 0 1
vn 0 4.183433E-06 1
vn 0 0 1
vn 0 -4.201861E-06 1
vn 0 -4.183446E-06 1
vn 0 0 1
vn 0 0 1
vn 0 0 1
vn 0 0 1
vn 0 0 1
vn 0 0 1
vn 0 0 1
vn 0 0 1
vn 0 0 1
vn 0 0 1
vn 0 0 1
vn 0 0 1
vn 0 0 1
vn 0 0 1
vn 0 0 1
vn 0 0 1
vn 0 0 1
vn 0 0 1
vn 0 0 1
vn 0 0 1
vn 0 0 1
vn 0 -4.201861E-06 1
vn 0 0 1
vn 0 0 1
vn 0 0 1
vn 0 0 1
vn 0 0 1
vn 0 -4.183446E-06 1
vn 0 0 1
vn 0 0 1
vn 0 0 1
vn 0 4.201852E-06 1
vn 0 0 1
vn 0 0 1
vn 0 0 1
vn 0 0 1
vn 0 4.183433E-06 1
g Flor_1_0
f 3/3/3 2/2/2 1/1/1
f 4/4/4 3/3/3 1/1/1
f 7/7/7 6/6/6 5/5/5
f 8/8/8 7/7/7 5/5/5
g Flor_1_1
f 11/11/11 10/10/10 9/9/9
f 12/12/12 10/10/10 11/11/11
f 9/9/9 13/13/13 11/11/11
f 13/13/13 14/14/14 11/11/11
f 14/14/14 13/13/13 15/15/15
f 16/16/16 14/14/14 15/15/15
f 16/16/16 15/15/15 17/17/17
f 15/15/15 18/18/18 17/17/17
f 19/19/19 17/17/17 18/18/18
f 17/17/17 19/19/19 20/20/20
f 23/23/23 22/22/22 21/21/21
f 23/23/23 24/24/24 22/22/22
f 25/25/25 21/21/21 22/22/22
f 26/26/26 25/25/25 22/22/22
f 25/25/25 26/26/26 27/27/27
f 26/26/26 28/28/28 27/27/27
f 27/27/27 28/28/28 29/29/29
f 30/30/30 27/27/27 29/29/29
f 29/29/29 31/31/31 30/30/30
f 31/31/31 29/29/29 32/32/32
f 35/35/35 34/34/34 33/33/33
f 36/36/36 33/33/33 34/34/34
f 37/37/37 36/36/36 34/34/34
f 38/38/38 37/37/37 34/34/34
f 39/39/39 38/38/38 34/34/34
f 37/37/37 40/40/40 36/36/36
f 41/41/41 37/37/37 38/38/38
f 42/42/42 39/39/39 34/34/34
g Flor_1_2
f 45/45/45 44/44/44 43/43/43
f 46/46/46 45/45/45 43/43/43
f 49/49/49 48/48/48 47/47/47
f 50/50/50 49/49/49 47/47/47
f 53/53/53 52/52/52 51/51/51
f 54/54/54 53/53/53 51/51/51
f 57/57/57 56/56/56 55/55/55
f 58/58/58 57/57/57 55/55/55
f 61/61/61 60/60/60 59/59/59
f 62/62/62 61/61/61 59/59/59
f 65/65/65 64/64/64 63/63/63
f 66/66/66 65/65/65 63/63/63
f 69/69/69 68/68/68 67/67/67
f 70/70/70 69/69/69 67/67/67
f 73/73/73 72/72/72 71/71/71
f 74/74/74 73/73/73 71/71/71
f 77/77/77 76/76/76 75/75/75
f 78/78/78 77/77/77 75/75/75
f 81/81/81 80/80/80 79/79/79
f 82/82/82 81/81/81 79/79/79
f 85/85/85 84/84/84 83/83/83
f 86/86/86 85/85/85 83/83/83
f 89/89/89 88/88/88 87/87/87
f 90/90/90 89/89/89 87/87/87
f 93/93/93 92/92/92 91/91/91
f 94/94/94 93/93/93 91/91/91
f 97/97/97 96/96/96 95/95/95
f 98/98/98 97/97/97 95/95/95
g Flor_1_3
f 61/61/61 100/100/100 99/99/99
f 56/56/56 61/61/61 99/99/99
f 102/102/102 101/101/101 60/60/60
f 57/57/57 102/102/102 60/60/60
f 81/81/81 78/78/78 103/103/103
f 104/104/104 81/81/81 103/103/103
f 105/105/105 77/77/77 82/82/82
f 106/106/106 105/105/105 82/82/82
f 86/86/86 83/83/83 107/107/107
f 108/108/108 86/86/86 107/107/107
f 94/94/94 91/91/91 109/109/109
f 110/110/110 94/94/94 109/109/109
g Flor_1_4
f 113/113/113 112/112/112 111/111/111
f 114/114/114 113/113/113 111/111/111
f 112/112/112 113/113/113 115/115/115
f 116/116/116 115/115/115 113/113/113
f 117/117/117 116/116/116 113/113/113
f 117/117/117 118/118/118 116/116/116
f 118/118/118 119/119/119 116/116/116
f 119/119/119 118/118/118 120/120/120
f 121/121/121 119/119/119 120/120/120
f 115/115/115 121/121/121 112/112/112
f 120/120/120 122/122/122 121/121/121
f 121/121/121 122/122/122 112/112/112
f 120/120/120 123/123/123 122/122/122
f 123/123/123 124/124/124 122/122/122
f 114/114/114 111/111/111 125/125/125
f 125/125/125 111/111/111 124/124/124
f 125/125/125 126/126/126 114/114/114
f 126/126/126 127/127/127 114/114/114
f 127/127/127 126/126/126 128/128/128
f 129/129/129 127/127/127 128/128/128
f 129/129/129 128/128/128 123/123/123
f 124/124/124 123/123/123 130/130/130
f 128/128/128 130/130/130 123/123/123
f 130/130/130 125/125/125 124/124/124
