g fonariki
v -0.1956659 -0.7274493 -1.923076
v 0.3449396 0.7274511 -1.923075
v -0.1956653 0.7274517 -1.923076
v 0.3449396 -0.7274493 -1.923075
v -0.1956653 -0.7274493 1.923074
v 0.3449408 0.7274511 1.923075
v 0.3449408 -0.7274493 1.923075
v -0.1956644 0.7274517 1.923074
v -0.1956659 -0.7274493 -1.923076
v 0.3449408 -0.7274493 1.923075
v 0.3449396 -0.7274493 -1.923075
v -0.1956653 -0.7274493 1.923074
v 0.3449396 -0.7274493 -1.923075
v 0.3449408 0.7274511 1.923075
v 0.3449396 0.7274511 -1.923075
v 0.3449408 -0.7274493 1.923075
v 0.3449396 0.7274511 -1.923075
v -0.1956644 0.7274517 1.923074
v -0.1956653 0.7274517 -1.923076
v 0.3449408 0.7274511 1.923075
v -0.1956711 -0.7274517 43.20074
v 0.3449347 0.7274493 43.20074
v -0.1956702 0.7274493 43.20074
v 0.3449347 -0.7274517 43.20074
v -0.1956702 -0.7274517 47.04689
v 0.3449359 0.7274493 47.04689
v 0.3449359 -0.7274517 47.04689
v -0.1956695 0.72745 47.04689
v -0.1956711 -0.7274517 43.20074
v 0.3449359 -0.7274517 47.04689
v 0.3449347 -0.7274517 43.20074
v -0.1956702 -0.7274517 47.04689
v 0.3449347 -0.7274517 43.20074
v 0.3449359 0.7274493 47.04689
v 0.3449347 0.7274493 43.20074
v 0.3449359 -0.7274517 47.04689
v 0.3449347 0.7274493 43.20074
v -0.1956695 0.72745 47.04689
v -0.1956702 0.7274493 43.20074
v 0.3449359 0.7274493 47.04689
v -5.223257 -1.372892 58.83943
v -5.223256 -0.7456769 59.52931
v -5.223256 -0.7456769 58.83943
v -5.223256 -1.372892 59.52931
v -7.313386 -1.372899 58.83943
v -7.313386 -0.7456756 59.52931
v -7.313386 -1.372899 59.52931
v -7.313386 -0.7456744 58.83943
v -5.223257 -1.372892 58.83943
v -7.313386 -1.372899 59.52931
v -5.223256 -1.372892 59.52931
v -7.313386 -1.372899 58.83943
v -5.223256 -1.372892 59.52931
v -7.313386 -0.7456756 59.52931
v -5.223256 -0.7456769 59.52931
v -7.313386 -1.372899 59.52931
v -5.223256 -0.7456769 59.52931
v -7.313386 -0.7456744 58.83943
v -5.223256 -0.7456769 58.83943
v -7.313386 -0.7456756 59.52931
v -7.254353 -0.9339142 -13.69748
v -7.254352 -0.3066956 -14.38736
v -7.254352 -0.3066961 -13.69748
v -7.254353 -0.9339142 -14.38736
v -5.164224 -0.933908 -13.69748
v -5.164224 -0.3066961 -14.38736
v -5.164224 -0.933908 -14.38736
v -5.164224 -0.3066961 -13.69748
v -7.254353 -0.9339142 -13.69748
v -5.164224 -0.933908 -14.38736
v -7.254353 -0.9339142 -14.38736
v -5.164224 -0.933908 -13.69748
v -7.254353 -0.9339142 -14.38736
v -5.164224 -0.3066961 -14.38736
v -7.254352 -0.3066956 -14.38736
v -5.164224 -0.933908 -14.38736
v -7.254352 -0.3066956 -14.38736
v -5.164224 -0.3066961 -13.69748
v -7.254352 -0.3066961 -13.69748
v -5.164224 -0.3066961 -14.38736
v -41.1751 -0.9339093 -13.69749
v -41.1751 -0.3941571 -14.38737
v -41.1751 -0.3941571 -13.69749
v -41.1751 -0.9339093 -14.38737
v -38.97315 -0.933902 -13.69749
v -38.97315 -0.3941571 -14.38737
v -38.97315 -0.933902 -14.38737
v -38.97315 -0.3941571 -13.69749
v -41.1751 -0.9339093 -13.69749
v -38.97315 -0.933902 -14.38737
v -41.1751 -0.9339093 -14.38737
v -38.97315 -0.933902 -13.69749
v -41.1751 -0.9339093 -14.38737
v -38.97315 -0.3941571 -14.38737
v -41.1751 -0.3941571 -14.38737
v -38.97315 -0.933902 -14.38737
v -41.1751 -0.3941571 -14.38737
v -38.97315 -0.3941571 -13.69749
v -41.1751 -0.3941571 -13.69749
v -38.97315 -0.3941571 -14.38737
v -42.5325 -2.734371 58.83943
v -42.5325 -2.107156 59.5293
v -42.5325 -2.107156 58.83943
v -42.5325 -2.734372 59.5293
v -44.62263 -2.734378 58.83943
v -44.62263 -2.107155 59.5293
v -44.62263 -2.734378 59.5293
v -44.62263 -2.107154 58.83943
v -42.5325 -2.734371 58.83943
v -44.62263 -2.734378 59.5293
v -42.5325 -2.734372 59.5293
v -44.62263 -2.734378 58.83943
v -42.5325 -2.734372 59.5293
v -44.62263 -2.107155 59.5293
v -42.5325 -2.107156 59.5293
v -44.62263 -2.734378 59.5293
v -42.5325 -2.107156 59.5293
v -44.62263 -2.107154 58.83943
v -42.5325 -2.107156 58.83943
v -44.62263 -2.107155 59.5293
v -30.34687 -2.734373 58.83943
v -30.34687 -2.107159 59.5293
v -30.34687 -2.107159 58.83943
v -30.34687 -2.734374 59.5293
v -32.43701 -2.734379 58.83943
v -32.43701 -2.107156 59.5293
v -32.43701 -2.734379 59.5293
v -32.43701 -2.107155 58.83943
v -30.34687 -2.734373 58.83943
v -32.43701 -2.734379 59.5293
v -30.34687 -2.734374 59.5293
v -32.43701 -2.734379 58.83943
v -30.34687 -2.734374 59.5293
v -32.43701 -2.107156 59.5293
v -30.34687 -2.107159 59.5293
v -32.43701 -2.734379 59.5293
v -30.34687 -2.107159 59.5293
v -32.43701 -2.107155 58.83943
v -30.34687 -2.107159 58.83943
v -32.43701 -2.107156 59.5293
v -18.5857 -2.734375 58.83943
v -18.5857 -2.107161 59.5293
v -18.5857 -2.107161 58.83943
v -18.5857 -2.734377 59.5293
v -20.67584 -2.734382 58.83943
v -20.67584 -2.107159 59.5293
v -20.67584 -2.734382 59.5293
v -20.67584 -2.107157 58.83943
v -18.5857 -2.734375 58.83943
v -20.67584 -2.734382 59.5293
v -18.5857 -2.734377 59.5293
v -20.67584 -2.734382 58.83943
v -18.5857 -2.734377 59.5293
v -20.67584 -2.107159 59.5293
v -18.5857 -2.107161 59.5293
v -20.67584 -2.734382 59.5293
v -18.5857 -2.107161 59.5293
v -20.67584 -2.107157 58.83943
v -18.5857 -2.107161 58.83943
v -20.67584 -2.107159 59.5293
vt 0.9956728 0.4218316
vt 0.9732118 0.4288718
vt 0.9732118 0.4218316
vt 0.9956728 0.4288718
vt 0.9732118 0.4218316
vt 0.9956728 0.4288718
vt 0.9732118 0.4288718
vt 0.9956728 0.4218317
vt 0.9647941 0.489332
vt 0.9732119 0.4287851
vt 0.9732119 0.489332
vt 0.9647941 0.4287851
vt 0.9956728 0.489332
vt 0.9732118 0.4287851
vt 0.9732118 0.489332
vt 0.9956728 0.4287851
vt 0.9732118 0.489332
vt 0.964794 0.4287851
vt 0.964794 0.489332
vt 0.9732118 0.4287851
vt 0.9732118 0.4219745
vt 0.9956728 0.4287851
vt 0.9956728 0.4219745
vt 0.9732118 0.4287851
vt 0.9732118 0.4219745
vt 0.9956728 0.4287851
vt 0.9732118 0.4287851
vt 0.9956728 0.4219745
vt 0.9647941 0.489332
vt 0.9732119 0.4287851
vt 0.9732119 0.489332
vt 0.9647941 0.4287851
vt 0.9956728 0.489332
vt 0.9732118 0.4287851
vt 0.9732118 0.489332
vt 0.9956728 0.4287851
vt 0.9732118 0.489332
vt 0.964794 0.4287851
vt 0.964794 0.489332
vt 0.9732118 0.4287851
vt 0.976019 0.5130686
vt 0.985702 0.5238107
vt 0.985702 0.5130686
vt 0.976019 0.5238107
vt 0.976019 0.5130684
vt 0.9857022 0.5238106
vt 0.976019 0.5238106
vt 0.9857022 0.5130684
vt 0.9658203 0.5617638
vt 0.9765625 0.5288606
vt 0.9765625 0.5617638
vt 0.9658203 0.5288606
vt 0.9986209 0.5618004
vt 0.9889378 0.5288972
vt 0.9889379 0.5618004
vt 0.9986209 0.5288972
vt 0.9866172 0.5617638
vt 0.975875 0.5288606
vt 0.975875 0.5617638
vt 0.9866172 0.5288606
vt 0.976019 0.5130686
vt 0.9857021 0.5238107
vt 0.9857021 0.5130684
vt 0.976019 0.5238107
vt 0.976019 0.5130684
vt 0.985702 0.5238106
vt 0.976019 0.5238106
vt 0.985702 0.5130684
vt 0.9658203 0.5617638
vt 0.9765625 0.5288606
vt 0.9765625 0.5617638
vt 0.9658203 0.5288606
vt 0.9986209 0.5618004
vt 0.9889379 0.5288972
vt 0.9889379 0.5618004
vt 0.9986209 0.5288972
vt 0.9866171 0.5617638
vt 0.975875 0.5288606
vt 0.9758749 0.5617638
vt 0.9866172 0.5288606
vt 0.976019 0.5130686
vt 0.9843518 0.5238107
vt 0.9843518 0.5130686
vt 0.976019 0.5238107
vt 0.976019 0.5130684
vt 0.9843517 0.5238106
vt 0.976019 0.5238106
vt 0.9843517 0.5130684
vt 0.9658203 0.5622537
vt 0.9765625 0.5275902
vt 0.9765625 0.5622537
vt 0.9658203 0.5275902
vt 0.9990234 0.5622537
vt 0.9906907 0.5275901
vt 0.9906907 0.5622537
vt 0.9990234 0.5275902
vt 0.9866172 0.5622537
vt 0.975875 0.5275902
vt 0.975875 0.5622537
vt 0.9866172 0.5275901
vt 0.976019 0.5130686
vt 0.985702 0.5238107
vt 0.985702 0.5130686
vt 0.976019 0.5238107
vt 0.976019 0.5130684
vt 0.9857022 0.5238106
vt 0.976019 0.5238106
vt 0.9857022 0.5130684
vt 0.9658203 0.5617638
vt 0.9765625 0.5288606
vt 0.9765625 0.5617638
vt 0.9658203 0.5288606
vt 0.9986209 0.5618004
vt 0.9889378 0.5288972
vt 0.9889379 0.5618004
vt 0.9986209 0.5288972
vt 0.9866172 0.5617638
vt 0.975875 0.5288606
vt 0.975875 0.5617638
vt 0.9866172 0.5288606
vt 0.976019 0.5130686
vt 0.985702 0.5238107
vt 0.985702 0.5130686
vt 0.976019 0.5238107
vt 0.976019 0.5130684
vt 0.9857022 0.5238106
vt 0.976019 0.5238106
vt 0.9857022 0.5130684
vt 0.9658203 0.5617638
vt 0.9765625 0.5288606
vt 0.9765625 0.5617638
vt 0.9658203 0.5288606
vt 0.9986209 0.5618004
vt 0.9889378 0.5288972
vt 0.9889379 0.5618004
vt 0.9986209 0.5288972
vt 0.9866172 0.5617638
vt 0.975875 0.5288606
vt 0.975875 0.5617638
vt 0.9866172 0.5288606
vt 0.976019 0.5130686
vt 0.985702 0.5238107
vt 0.985702 0.5130686
vt 0.976019 0.5238107
vt 0.976019 0.5130684
vt 0.9857022 0.5238106
vt 0.976019 0.5238106
vt 0.9857022 0.5130684
vt 0.9658203 0.5617638
vt 0.9765625 0.5288606
vt 0.9765625 0.5617638
vt 0.9658203 0.5288606
vt 0.9986209 0.5618004
vt 0.9889378 0.5288972
vt 0.9889379 0.5618004
vt 0.9986209 0.5288972
vt 0.9866172 0.5617638
vt 0.975875 0.5288606
vt 0.975875 0.5617638
vt 0.9866172 0.5288606
vn 0 0 -1
vn 0 0 -1
vn 0 0 -1
vn 0 0 -1
vn 0 0 1
vn 0 0 1
vn 0 0 1
vn 0 0 1
vn 0 -1 0
vn 0 -1 0
vn 0 -1 0
vn 0 -1 0
vn 1 0 0
vn 1 0 0
vn 1 0 0
vn 1 0 0
vn 0 1 0
vn 0 1 0
vn 0 1 0
vn 0 1 0
vn 0 0 -1
vn 0 0 -1
vn 0 0 -1
vn 0 0 -1
vn 0 0 1
vn 0 0 1
vn 0 0 1
vn 0 0 1
vn 0 -1 0
vn 0 -1 0
vn 0 -1 0
vn 0 -1 0
vn 1 0 0
vn 1 0 0
vn 1 0 0
vn 1 0 0
vn 0 1 0
vn 0 1 0
vn 0 1 0
vn 0 1 0
vn 1 0 0
vn 1 0 0
vn 1 0 0
vn 1 0 0
vn -1 0 0
vn -1 0 0
vn -1 0 0
vn -1 0 0
vn 0 -1 0
vn 0 -1 0
vn 0 -1 0
vn 0 -1 0
vn 0 0 1
vn 0 0 1
vn 0 0 1
vn 0 0 1
vn 0 1 0
vn 0 1 0
vn 0 1 0
vn 0 1 0
vn -1 0 0
vn -1 0 0
vn -1 0 0
vn -1 0 0
vn 1 0 0
vn 1 0 0
vn 1 0 0
vn 1 0 0
vn 0 -1 0
vn 0 -1 0
vn 0 -1 0
vn 0 -1 0
vn 0 0 -1
vn 0 0 -1
vn 0 0 -1
vn 0 0 -1
vn 0 1 0
vn 0 1 0
vn 0 1 0
vn 0 1 0
vn -1 0 0
vn -1 0 0
vn -1 0 0
vn -1 0 0
vn 1 0 0
vn 1 0 0
vn 1 0 0
vn 1 0 0
vn 0 -1 0
vn 0 -1 0
vn 0 -1 0
vn 0 -1 0
vn 0 0 -1
vn 0 0 -1
vn 0 0 -1
vn 0 0 -1
vn 0 1 0
vn 0 1 0
vn 0 1 0
vn 0 1 0
vn 1 0 0
vn 1 0 0
vn 1 0 0
vn 1 0 0
vn -1 0 0
vn -1 0 0
vn -1 0 0
vn -1 0 0
vn 0 -1 0
vn 0 -1 0
vn 0 -1 0
vn 0 -1 0
vn 0 0 1
vn 0 0 1
vn 0 0 1
vn 0 0 1
vn 0 1 0
vn 0 1 0
vn 0 1 0
vn 0 1 0
vn 1 0 0
vn 1 0 0
vn 1 0 0
vn 1 0 0
vn -1 0 0
vn -1 0 0
vn -1 0 0
vn -1 0 0
vn 0 -1 0
vn 0 -1 0
vn 0 -1 0
vn 0 -1 0
vn 0 0 1
vn 0 0 1
vn 0 0 1
vn 0 0 1
vn 0 1 0
vn 0 1 0
vn 0 1 0
vn 0 1 0
vn 1 0 0
vn 1 0 0
vn 1 0 0
vn 1 0 0
vn -1 0 0
vn -1 0 0
vn -1 0 0
vn -1 0 0
vn 0 -1 0
vn 0 -1 0
vn 0 -1 0
vn 0 -1 0
vn 0 0 1
vn 0 0 1
vn 0 0 1
vn 0 0 1
vn 0 1 0
vn 0 1 0
vn 0 1 0
vn 0 1 0
g fonariki_0
f 3/3/3 2/2/2 1/1/1
f 4/4/4 1/1/1 2/2/2
f 7/7/7 6/6/6 5/5/5
f 8/8/8 5/5/5 6/6/6
f 11/11/11 10/10/10 9/9/9
f 12/12/12 9/9/9 10/10/10
f 15/15/15 14/14/14 13/13/13
f 16/16/16 13/13/13 14/14/14
f 19/19/19 18/18/18 17/17/17
f 20/20/20 17/17/17 18/18/18
f 23/23/23 22/22/22 21/21/21
f 24/24/24 21/21/21 22/22/22
f 27/27/27 26/26/26 25/25/25
f 28/28/28 25/25/25 26/26/26
f 31/31/31 30/30/30 29/29/29
f 32/32/32 29/29/29 30/30/30
f 35/35/35 34/34/34 33/33/33
f 36/36/36 33/33/33 34/34/34
f 39/39/39 38/38/38 37/37/37
f 40/40/40 37/37/37 38/38/38
f 43/43/43 42/42/42 41/41/41
f 44/44/44 41/41/41 42/42/42
f 47/47/47 46/46/46 45/45/45
f 48/48/48 45/45/45 46/46/46
f 51/51/51 50/50/50 49/49/49
f 52/52/52 49/49/49 50/50/50
f 55/55/55 54/54/54 53/53/53
f 56/56/56 53/53/53 54/54/54
f 59/59/59 58/58/58 57/57/57
f 60/60/60 57/57/57 58/58/58
f 63/63/63 62/62/62 61/61/61
f 64/64/64 61/61/61 62/62/62
f 67/67/67 66/66/66 65/65/65
f 68/68/68 65/65/65 66/66/66
f 71/71/71 70/70/70 69/69/69
f 72/72/72 69/69/69 70/70/70
f 75/75/75 74/74/74 73/73/73
f 76/76/76 73/73/73 74/74/74
f 79/79/79 78/78/78 77/77/77
f 80/80/80 77/77/77 78/78/78
f 83/83/83 82/82/82 81/81/81
f 84/84/84 81/81/81 82/82/82
f 87/87/87 86/86/86 85/85/85
f 88/88/88 85/85/85 86/86/86
f 91/91/91 90/90/90 89/89/89
f 92/92/92 89/89/89 90/90/90
f 95/95/95 94/94/94 93/93/93
f 96/96/96 93/93/93 94/94/94
f 99/99/99 98/98/98 97/97/97
f 100/100/100 97/97/97 98/98/98
f 103/103/103 102/102/102 101/101/101
f 104/104/104 101/101/101 102/102/102
f 107/107/107 106/106/106 105/105/105
f 108/108/108 105/105/105 106/106/106
f 111/111/111 110/110/110 109/109/109
f 112/112/112 109/109/109 110/110/110
f 115/115/115 114/114/114 113/113/113
f 116/116/116 113/113/113 114/114/114
f 119/119/119 118/118/118 117/117/117
f 120/120/120 117/117/117 118/118/118
f 123/123/123 122/122/122 121/121/121
f 124/124/124 121/121/121 122/122/122
f 127/127/127 126/126/126 125/125/125
f 128/128/128 125/125/125 126/126/126
f 131/131/131 130/130/130 129/129/129
f 132/132/132 129/129/129 130/130/130
f 135/135/135 134/134/134 133/133/133
f 136/136/136 133/133/133 134/134/134
f 139/139/139 138/138/138 137/137/137
f 140/140/140 137/137/137 138/138/138
f 143/143/143 142/142/142 141/141/141
f 144/144/144 141/141/141 142/142/142
f 147/147/147 146/146/146 145/145/145
f 148/148/148 145/145/145 146/146/146
f 151/151/151 150/150/150 149/149/149
f 152/152/152 149/149/149 150/150/150
f 155/155/155 154/154/154 153/153/153
f 156/156/156 153/153/153 154/154/154
f 159/159/159 158/158/158 157/157/157
f 160/160/160 157/157/157 158/158/158
