g Foot_left
v -0.08750001 0.08749999 0.01487885
v 0.08750001 0.08749999 0.01487885
v 0.08750001 -0.08749999 0.01487885
v -0.08750001 -0.08749999 0.01487885
v 0.08750001 -0.08749999 -0.5101212
v 0.08750001 0.08749999 -0.5101212
v -0.08750001 0.08749999 -0.5101212
v -0.08750001 -0.08749999 -0.5101212
v 0.08750001 -0.08749999 0.01487885
v 0.08750001 -0.08749999 -0.5101212
v -0.08750001 -0.08749999 -0.5101212
v -0.08750001 -0.08749999 0.01487885
v 0.08750001 0.08749999 0.01487885
v 0.08750001 0.08749999 -0.5101212
v 0.08750001 -0.08749999 -0.5101212
v 0.08750001 -0.08749999 0.01487885
v -0.08750001 0.08749999 0.01487885
v -0.08750001 0.08749999 -0.5101212
v 0.08750001 0.08749999 0.01487885
v 0.08750001 0.08749999 -0.5101212
v -0.08750001 -0.08749999 0.01487885
v -0.08750001 -0.08749999 -0.5101212
v -0.08750001 0.08749999 0.01487885
v -0.08750001 0.08749999 -0.5101212
vt 0.06814153 0.3790687
vt 0.06814153 0.4919109
vt 0.12186 0.4919109
vt 0.12186 0.3790687
vt 0.1850075 0.378416
vt 0.1279625 0.378416
vt 0.1279625 0.4948352
vt 0.1850075 0.4948352
vt 0.002342742 0.3693755
vt 0.002342742 0.006491167
vt 0.06159883 0.006491686
vt 0.06159883 0.3693758
vt 0.1910937 0.3665639
vt 0.1910937 0.009516146
vt 0.2471872 0.009515762
vt 0.2471872 0.3665636
vt 0.1858614 0.3727759
vt 0.1858615 0.006721321
vt 0.126264 0.3727759
vt 0.126264 0.006721321
vt 0.1242196 0.3679982
vt 0.1242196 0.004691529
vt 0.06510624 0.3679982
vt 0.06510622 0.004691529
vn 0 0 1
vn 0 0 1
vn 0 0 1
vn 0 0 1
vn 0 0 -1
vn 0 0 -1
vn 0 0 -1
vn 0 0 -1
vn 0 -1 0
vn 0 -1 0
vn 0 -1 0
vn 0 -1 0
vn 1 0 0
vn 1 0 0
vn 1 0 0
vn 1 0 0
vn 0 1 0
vn 0 1 0
vn 0 1 0
vn 0 1 0
vn -1 0 0
vn -1 0 0
vn -1 0 0
vn -1 0 0
g Foot_left_0
f 3/3/3 2/2/2 1/1/1
f 4/4/4 3/3/3 1/1/1
f 7/7/7 6/6/6 5/5/5
f 8/8/8 7/7/7 5/5/5
f 11/11/11 10/10/10 9/9/9
f 12/12/12 11/11/11 9/9/9
f 15/15/15 14/14/14 13/13/13
f 16/16/16 15/15/15 13/13/13
f 19/19/19 18/18/18 17/17/17
f 20/20/20 18/18/18 19/19/19
f 23/23/23 22/22/22 21/21/21
f 24/24/24 22/22/22 23/23/23
