g Foot_R_bone
v 0.1300518 0.1822438 3.372192E-05
v 0.1301187 -0.0669191 -0.5816037
v 0.1300518 -0.06691912 3.295898E-05
v 0.1301187 0.1822438 -0.581603
v -0.1301078 -0.06691913 -7.629394E-08
v 0.1300518 0.1822438 3.372192E-05
v 0.1300518 -0.06691912 3.295898E-05
v -0.1301187 0.1822438 -1.014709E-05
v -0.1300409 -0.0669191 -0.5816367
v 0.1300518 -0.06691912 3.295898E-05
v 0.1301187 -0.0669191 -0.5816037
v -0.1301078 -0.06691913 -7.629394E-08
v 0.1301187 0.1822438 -0.581603
v 0.1301187 -0.06691908 -0.980285
v 0.1301187 -0.0669191 -0.5816037
v 0.1301187 0.1822438 -1.101949
v 0.1301187 -0.1822438 -1.101819
v 0.1301187 -0.1822438 -0.980285
v -0.1300409 -0.06691909 -0.980285
v 0.1301187 -0.0669191 -0.5816037
v 0.1301187 -0.06691908 -0.980285
v -0.1300409 -0.0669191 -0.5816367
v -0.1301187 0.1822438 -1.014709E-05
v -0.1300409 -0.0669191 -0.5816367
v -0.1300409 0.1822438 -0.5816361
v -0.1301078 -0.06691913 -7.629394E-08
v -0.1300409 0.1822438 -0.5816361
v -0.1300409 -0.06691909 -0.980285
v -0.1300409 0.1822438 -1.101966
v -0.1300409 -0.0669191 -0.5816367
v -0.1300409 -0.1822438 -1.102079
v -0.1300409 -0.1822438 -0.980285
v -0.1300409 0.1822438 -0.5816361
v 0.1300518 0.1822438 3.372192E-05
v -0.1301187 0.1822438 -1.014709E-05
v 0.1301187 0.1822438 -0.581603
v -0.1300409 0.1822438 -1.101966
v 0.1301187 0.1822438 -0.581603
v -0.1300409 0.1822438 -0.5816361
v 0.1301187 0.1822438 -1.101949
v -0.1300409 -0.1822438 -1.102079
v 0.1301187 -0.1822438 -0.980285
v 0.1301187 -0.1822438 -1.101819
v -0.1300409 -0.1822438 -0.980285
v 0.1301187 -0.06691908 -0.980285
v -0.1300409 -0.1822438 -0.980285
v -0.1300409 -0.06691909 -0.980285
v -0.1300409 -0.1822438 -0.980285
v 0.1301187 -0.06691908 -0.980285
v 0.1301187 -0.1822438 -0.980285
v 0.1301187 -0.1822438 -1.101819
v -0.1300409 0.1822438 -1.101966
v -0.1300409 -0.1822438 -1.102079
v 0.1301187 0.1822438 -1.101949
vt 0.07812138 0.4044558
vt 0.01588699 0.1249122
vt 0.01588699 0.4044558
vt 0.07812133 0.1249122
vt 0.07786246 0.1249122
vt 0.01562783 0.2500047
vt 0.07786246 0.2500047
vt 0.01562783 0.1249122
vt 0.078125 0.375
vt 0.01562416 0.0955442
vt 0.01562416 0.375
vt 0.078123 0.0955442
vt 0.07812133 0.375
vt 0.01595725 0.1873176
vt 0.01588699 0.375
vt 0.07812133 0.1249122
vt -0.01322627 0.1249122
vt -0.01322627 0.1874099
vt 0.07812103 0.3165363
vt 0.01562416 0.1249122
vt 0.01562416 0.3165482
vt 0.078125 0.1249122
vt 0.07812139 0.4044564
vt 0.01588699 0.1249122
vt 0.07812133 0.1249122
vt 0.01588699 0.4044558
vt 0.07812133 0.375
vt 0.01588722 0.1874099
vt 0.07812033 0.1249135
vt 0.01588699 0.375
vt -0.01322627 0.1249122
vt -0.01322627 0.1874099
vt 0.078125 0.375
vt 0.01562416 0.0955442
vt 0.07812233 0.09554359
vt 0.01562416 0.375
vt 0.078125 0.375
vt 0.01562416 0.1249122
vt 0.078125 0.1249122
vt 0.01562416 0.375
vt 0.122953 0.003871151
vt 0.06364901 0.06111239
vt 0.06413034 -0.0004860842
vt 0.123113 0.06346049
vt 0.06302448 0.06333937
vt 0.123113 0.06346049
vt 0.1232595 0.06335094
vt 0.123113 0.06346049
vt 0.06302448 0.06333937
vt 0.06364901 0.06111239
vt 0.578125 0.5
vt 0.515625 0.5625
vt 0.578125 0.5625
vt 0.515625 0.5
vn 1 0 0.0001149715
vn 1 0 0.0001149715
vn 1 0 0.0001149715
vn 1 0 0.0001150043
vn -0.0001269808 -3.06201E-06 1
vn -0.0001269808 -3.062011E-06 1
vn -0.0001269808 -3.06201E-06 1
vn -0.0001686164 4.041115E-05 1
vn 0 -1 0
vn 0 -1 0
vn 0 -1 0
vn 0 -1 0
vn 1 0 0
vn 1 0 0
vn 1 0 0
vn 1 0 0
vn 1 0 0
vn 1 0 0
vn 0 -1 0
vn 0 -1 0
vn 0 -1 0
vn 0 -1 0
vn -1 0 -0.0001337642
vn -1 0 -0.0001337642
vn -1 0 -0.0001337642
vn -1 -4.379139E-05 -0.0001150043
vn -1 0 0
vn -1 0 0
vn -1 0 0
vn -1 0 0
vn -1 0 1.07086E-07
vn -1 1.653895E-07 0
vn 0 1 0
vn 0 1 0
vn 0 1 0
vn -1.466375E-07 1 0
vn -1.466291E-07 1 0
vn -1.466291E-07 1 0
vn -1.466291E-07 1 0
vn -1.466291E-07 1 0
vn 0 -1 1.569391E-07
vn 0 -1 1.569391E-07
vn 0 -1 1.569391E-07
vn 0 -1 1.566044E-07
vn -1.466291E-07 3.307788E-07 1
vn -1.466291E-07 3.307788E-07 1
vn -1.466291E-07 3.307789E-07 1
vn 1.466291E-07 -3.307789E-07 1
vn 1.466291E-07 -3.307788E-07 1
vn 1.466291E-07 -3.307788E-07 1
vn 0.0009982507 0.0003110469 -0.9999995
vn 0.0009982506 0.0003110469 -0.9999995
vn 0.0009982506 0.0003110469 -0.9999995
vn 6.334383E-05 -0.0003562598 -1
g Foot_R_bone_0
f 3/3/3 2/2/2 1/1/1
f 4/4/4 1/1/1 2/2/2
f 7/7/7 6/6/6 5/5/5
f 8/8/8 5/5/5 6/6/6
f 11/11/11 10/10/10 9/9/9
f 12/12/12 9/9/9 10/10/10
f 15/15/15 14/14/14 13/13/13
f 16/16/16 13/13/13 14/14/14
f 16/16/16 14/14/14 17/17/17
f 18/18/18 17/17/17 14/14/14
f 21/21/21 20/20/20 19/19/19
f 22/22/22 19/19/19 20/20/20
f 25/25/25 24/24/24 23/23/23
f 26/26/26 23/23/23 24/24/24
f 29/29/29 28/28/28 27/27/27
f 30/30/30 27/27/27 28/28/28
f 29/29/29 31/31/31 28/28/28
f 32/32/32 28/28/28 31/31/31
f 35/35/35 34/34/34 33/33/33
f 36/36/36 33/33/33 34/34/34
f 39/39/39 38/38/38 37/37/37
f 40/40/40 37/37/37 38/38/38
f 43/43/43 42/42/42 41/41/41
f 44/44/44 41/41/41 42/42/42
f 47/47/47 46/46/46 45/45/45
f 50/50/50 49/49/49 48/48/48
f 53/53/53 52/52/52 51/51/51
f 54/54/54 51/51/51 52/52/52
