g fort_grass001
v -13.72223 19.08184 -3.738403E-06
v -13.72223 19.08184 0.9999962
v -12.72223 19.08184 0.9999962
v -12.72223 19.08184 -3.738403E-06
v -13.22223 18.58184 -3.662109E-06
v -13.22223 18.58184 0.9999963
v -13.22223 19.58184 0.999996
v -13.22223 19.58184 -3.890991E-06
v -9.830054 11.98618 -5.000004
v -9.830054 11.98618 -4.000004
v -8.830054 11.98618 -4.000004
v -8.830054 11.98618 -5.000004
v -9.330054 11.48618 -5.000004
v -9.330054 11.48618 -4.000004
v -9.330054 12.48618 -4.000004
v -9.330054 12.48618 -5.000004
v -20.30016 22.76803 -6.000005
v -20.30016 22.76803 -5.000004
v -19.30016 22.76803 -5.000004
v -19.30016 22.76803 -6.000005
v -19.80016 22.26803 -6.000005
v -19.80016 22.26803 -5.000004
v -19.80016 23.26803 -5.000004
v -19.80016 23.26803 -6.000005
v -26.03753 25.45973 -6.027221E-06
v -26.03753 25.45973 0.999994
v -25.03753 25.45973 0.999994
v -25.03753 25.45973 -6.027221E-06
v -25.53753 24.95973 -5.912781E-06
v -25.53753 24.95973 0.999994
v -25.53753 25.95973 0.9999939
v -25.53753 25.95973 -6.141663E-06
v -19.7129 32.41253 -7.286072E-06
v -19.7129 32.41253 0.9999927
v -18.7129 32.41253 0.9999927
v -18.7129 32.41253 -7.286072E-06
v -19.2129 31.91253 -7.171631E-06
v -19.2129 31.91253 0.9999928
v -19.2129 32.91253 0.9999925
v -19.2129 32.91253 -7.438659E-06
v -35.42513 33.34165 -7.476806E-06
v -35.42513 33.34165 0.9999925
v -34.42513 33.34165 0.9999925
v -34.42513 33.34165 -7.476806E-06
v -34.92513 32.84165 -7.324219E-06
v -34.92513 32.84165 0.9999927
v -34.92513 33.84165 0.9999924
v -34.92513 33.84165 -7.5531E-06
v -24.1217 36.79688 -8.125305E-06
v -24.1217 36.79688 0.9999919
v -23.1217 36.79688 0.9999919
v -23.1217 36.79688 -8.125305E-06
v -23.6217 36.29688 -7.972717E-06
v -23.6217 36.29688 0.9999921
v -23.6217 37.29688 0.9999917
v -23.6217 37.29688 -8.201599E-06
v 7.309663 15.73777 -4.272461E-06
v 7.309663 15.73777 0.9999957
v 8.309663 15.73777 0.9999957
v 8.309663 15.73777 -4.272461E-06
v 7.809663 15.23777 -4.119873E-06
v 7.809663 15.23777 0.9999959
v 7.809663 16.23777 0.9999956
v 7.809663 16.23777 -4.348755E-06
v 14.40769 16.47034 -4.425049E-06
v 14.40769 16.47034 0.9999955
v 15.40769 16.47034 0.9999955
v 15.40769 16.47034 -4.425049E-06
v 14.90769 15.97034 -4.196167E-06
v 14.90769 15.97034 0.9999958
v 14.90769 16.97034 0.9999955
v 14.90769 16.97034 -4.463196E-06
vt 0 0
vt 0 1
vt 1 1
vt 1 0
vt 0 0
vt 0 1
vt 1 1
vt 1 0
vt 0 0
vt 0 1
vt 1 1
vt 1 0
vt 0 0
vt 0 1
vt 1 1
vt 1 0
vt 0 0
vt 0 1
vt 1 1
vt 1 0
vt 0 0
vt 0 1
vt 1 1
vt 1 0
vt 0 0
vt 0 1
vt 1 1
vt 1 0
vt 0 0
vt 0 1
vt 1 1
vt 1 0
vt 0 0
vt 0 1
vt 1 1
vt 1 0
vt 0 0
vt 0 1
vt 1 1
vt 1 0
vt 0 0
vt 0 1
vt 1 1
vt 1 0
vt 0 0
vt 0 1
vt 1 1
vt 1 0
vt 0 0
vt 0 1
vt 1 1
vt 1 0
vt 0 0
vt 0 1
vt 1 1
vt 1 0
vt 0 0
vt 0 1
vt 1 1
vt 1 0
vt 0 0
vt 0 1
vt 1 1
vt 1 0
vt 0 0
vt 0 1
vt 1 1
vt 1 0
vt 0 0
vt 0 1
vt 1 1
vt 1 0
vn 0 -1 0
vn 0 -1 0
vn 0 -1 0
vn 0 -1 0
vn 1 0 0
vn 1 0 0
vn 1 0 0
vn 1 0 0
vn 0 -1 0
vn 0 -1 0
vn 0 -1 0
vn 0 -1 0
vn 1 0 0
vn 1 0 0
vn 1 0 0
vn 1 0 0
vn 0 -1 0
vn 0 -1 0
vn 0 -1 0
vn 0 -1 0
vn 1 0 0
vn 1 0 0
vn 1 0 0
vn 1 0 0
vn 0 -1 0
vn 0 -1 0
vn 0 -1 0
vn 0 -1 0
vn 1 0 0
vn 1 0 0
vn 1 0 0
vn 1 0 0
vn 0 -1 0
vn 0 -1 0
vn 0 -1 0
vn 0 -1 0
vn 1 0 0
vn 1 0 0
vn 1 0 0
vn 1 0 0
vn 0 -1 0
vn 0 -1 0
vn 0 -1 0
vn 0 -1 0
vn 1 0 0
vn 1 0 0
vn 1 0 0
vn 1 0 0
vn 0 -1 0
vn 0 -1 0
vn 0 -1 0
vn 0 -1 0
vn 1 0 0
vn 1 0 0
vn 1 0 0
vn 1 0 0
vn 0 -1 0
vn 0 -1 0
vn 0 -1 0
vn 0 -1 0
vn 1 0 0
vn 1 0 0
vn 1 0 0
vn 1 0 0
vn 0 -1 0
vn 0 -1 0
vn 0 -1 0
vn 0 -1 0
vn 1 0 0
vn 1 0 0
vn 1 0 0
vn 1 0 0
g fort_grass001_0
f 3/3/3 2/2/2 1/1/1
f 4/4/4 3/3/3 1/1/1
f 7/7/7 6/6/6 5/5/5
f 8/8/8 7/7/7 5/5/5
f 11/11/11 10/10/10 9/9/9
f 12/12/12 11/11/11 9/9/9
f 15/15/15 14/14/14 13/13/13
f 16/16/16 15/15/15 13/13/13
f 19/19/19 18/18/18 17/17/17
f 20/20/20 19/19/19 17/17/17
f 23/23/23 22/22/22 21/21/21
f 24/24/24 23/23/23 21/21/21
f 27/27/27 26/26/26 25/25/25
f 28/28/28 27/27/27 25/25/25
f 31/31/31 30/30/30 29/29/29
f 32/32/32 31/31/31 29/29/29
f 35/35/35 34/34/34 33/33/33
f 36/36/36 35/35/35 33/33/33
f 39/39/39 38/38/38 37/37/37
f 40/40/40 39/39/39 37/37/37
f 43/43/43 42/42/42 41/41/41
f 44/44/44 43/43/43 41/41/41
f 47/47/47 46/46/46 45/45/45
f 48/48/48 47/47/47 45/45/45
f 51/51/51 50/50/50 49/49/49
f 52/52/52 51/51/51 49/49/49
f 55/55/55 54/54/54 53/53/53
f 56/56/56 55/55/55 53/53/53
f 59/59/59 58/58/58 57/57/57
f 60/60/60 59/59/59 57/57/57
f 63/63/63 62/62/62 61/61/61
f 64/64/64 63/63/63 61/61/61
f 67/67/67 66/66/66 65/65/65
f 68/68/68 67/67/67 65/65/65
f 71/71/71 70/70/70 69/69/69
f 72/72/72 71/71/71 69/69/69
