# Mesh "fort_background_forest_bush_3" exported with Unity Assets Bundle Extractor; 84 vertices, 126 indices, 320 bits per vertex
g fort_background_forest_bush_3
# SubMesh 0
# Vertices
v 0.749995 0.749990 1.346349
vt 0.248519 0.316683
vn -0.000000 0.000000 1.000000
v -0.750005 -0.750010 1.346350
vt 0.142866 0.211030
vn -0.000000 0.000000 1.000000
v -0.750005 0.749990 1.346349
vt 0.142866 0.316683
vn -0.000000 0.000000 1.000000
v 0.749995 -0.750010 1.346350
vt 0.248519 0.211030
vn -0.000000 0.000000 1.000000
v 0.750000 2.249990 0.000000
vt 0.248519 0.422335
vn -0.000000 0.000000 1.000000
v -0.750005 0.749990 0.000000
vt 0.142866 0.316683
vn -0.000000 0.000000 1.000000
v -0.750000 2.249990 0.000000
vt 0.142866 0.422335
vn -0.000000 0.000000 1.000000
v 0.749995 0.749990 0.000000
vt 0.248519 0.316683
vn -0.000000 0.000000 1.000000
v -0.750005 -0.750000 0.000001
vt 0.142866 0.211031
vn -0.000000 0.000000 1.000000
v -2.250005 0.749990 0.000000
vt 0.037214 0.316683
vn -0.000000 0.000000 1.000000
v -0.750005 0.749990 0.000000
vt 0.142866 0.316683
vn -0.000000 0.000000 1.000000
v -2.250005 -0.750010 0.000001
vt 0.037214 0.211030
vn -0.000000 0.000000 1.000000
v 2.249995 0.749990 0.000001
vt 0.354171 0.316683
vn -0.000000 0.000000 1.000000
v 0.749995 -0.750000 0.000001
vt 0.248519 0.211031
vn -0.000000 0.000000 1.000000
v 0.749995 0.749990 0.000000
vt 0.248519 0.316683
vn -0.000000 0.000000 1.000000
v 2.249995 -0.750010 0.000001
vt 0.354171 0.211030
vn -0.000000 0.000000 1.000000
v 0.749995 -0.750000 0.000001
vt 0.248519 0.211031
vn -0.000000 -0.000000 1.000000
v -0.750005 -2.250000 0.000000
vt 0.142866 0.105379
vn -0.000000 -0.000000 1.000000
v -0.750005 -0.750000 0.000001
vt 0.142866 0.211031
vn -0.000000 -0.000000 1.000000
v 0.749995 -2.250000 0.000000
vt 0.248519 0.105379
vn -0.000000 -0.000000 1.000000
v -0.750005 -0.750000 0.000001
vt 0.142866 0.263858
vn -0.000000 -1.000000 -0.000007
v 0.749995 -0.750010 1.346350
vt 0.248519 0.358688
vn -0.000000 -1.000000 -0.000007
v 0.749995 -0.750000 0.000001
vt 0.248519 0.263858
vn -0.000000 -1.000000 -0.000007
v -0.750005 -0.750010 1.346350
vt 0.142866 0.358688
vn -0.000000 -1.000000 -0.000007
v -2.250005 -0.750010 -1.346349
vt 0.037214 0.169028
vn 0.000007 -1.000000 0.000000
v -0.750005 -0.750000 0.000001
vt 0.142866 0.263858
vn 0.000007 -1.000000 0.000000
v -0.750005 -0.750000 -1.346349
vt 0.142866 0.169028
vn 0.000007 -1.000000 0.000000
v -2.250005 -0.750010 0.000001
vt 0.037214 0.263858
vn 0.000007 -1.000000 0.000000
v 0.749995 -0.750000 -1.346348
vt 0.248519 0.169028
vn -0.000000 -1.000000 -0.000007
v 2.249995 -0.750010 0.000001
vt 0.354171 0.263858
vn -0.000000 -1.000000 -0.000007
v 2.250000 -0.750000 -1.346347
vt 0.354171 0.169028
vn -0.000000 -1.000000 -0.000007
v 0.749995 -0.750000 0.000001
vt 0.248519 0.263858
vn -0.000007 -1.000000 0.000000
v -0.750005 -2.250000 0.000000
vt 0.142866 0.263858
vn -0.000000 -1.000000 0.000000
v 0.749995 -2.250000 -1.346348
vt 0.248519 0.169028
vn -0.000000 -1.000000 0.000000
v -0.750005 -2.250000 -1.346349
vt 0.142866 0.169028
vn -0.000000 -1.000000 0.000000
v 0.749995 -2.250000 0.000000
vt 0.248519 0.263858
vn -0.000000 -1.000000 0.000000
v -0.750005 -0.750000 0.000001
vt 0.296875 0.214844
vn -1.000000 0.000000 0.000000
v -0.750005 0.749990 1.346349
vt 0.191406 0.312500
vn -1.000000 0.000000 0.000000
v -0.750005 -0.750010 1.346350
vt 0.296875 0.312500
vn -1.000000 0.000000 0.000000
v -0.750005 0.749990 0.000000
vt 0.191406 0.214844
vn -1.000000 0.000000 0.000000
v 0.749995 -0.750000 0.000001
vt 0.093750 0.214844
vn 1.000000 0.000000 0.000000
v 0.749995 0.749990 1.346349
vt 0.199219 0.312500
vn 1.000000 0.000000 0.000000
v 0.749995 0.749990 0.000000
vt 0.199219 0.214844
vn 1.000000 0.000000 0.000000
v 0.749995 -0.750010 1.346350
vt 0.093750 0.312500
vn 1.000000 0.000000 0.000000
v -0.750005 0.750000 -1.346349
vt 0.199219 0.320313
vn -1.000000 0.000003 0.000000
v -0.750000 2.249990 0.000000
vt 0.093750 0.417969
vn -1.000000 0.000003 0.000000
v -0.750005 0.749990 0.000000
vt 0.199219 0.417969
vn -1.000000 0.000003 0.000000
v -0.750000 2.249990 -1.346349
vt 0.093750 0.320313
vn -1.000000 0.000003 0.000000
v 0.750000 0.750000 -1.346349
vt 0.191406 0.320313
vn 1.000000 0.000000 0.000000
v 0.750000 2.249990 0.000000
vt 0.296875 0.417969
vn 1.000000 0.000000 0.000000
v 0.750000 2.250000 -1.346349
vt 0.296875 0.320313
vn 1.000000 0.000000 0.000000
v 0.749995 0.749990 0.000000
vt 0.191406 0.417969
vn 1.000000 -0.000003 0.000004
v -2.250005 -0.750010 -1.346349
vt 0.199219 0.214844
vn -1.000000 0.000000 0.000000
v -2.250005 0.749990 0.000000
vt 0.093750 0.312500
vn -1.000000 0.000000 0.000000
v -2.250005 -0.750010 0.000001
vt 0.199219 0.312500
vn -1.000000 0.000000 0.000000
v -2.250005 0.750000 -1.346350
vt 0.093750 0.214844
vn -1.000000 0.000000 0.000000
v 2.250000 -0.750000 -1.346347
vt 0.191406 0.214844
vn 1.000000 0.000000 0.000004
v 2.249995 0.749990 0.000001
vt 0.296875 0.312500
vn 1.000000 0.000000 0.000004
v 2.250000 0.750000 -1.346347
vt 0.296875 0.214844
vn 1.000000 0.000000 0.000004
v 2.249995 -0.750010 0.000001
vt 0.191406 0.312500
vn 1.000000 0.000000 0.000004
v -0.750005 -0.750000 0.000001
vt 0.093750 0.207031
vn -1.000000 0.000000 0.000000
v -0.750005 -2.250000 -1.346349
vt 0.199219 0.109375
vn -1.000000 0.000000 0.000000
v -0.750005 -0.750000 -1.346349
vt 0.093750 0.109375
vn -1.000000 0.000000 0.000000
v -0.750005 -2.250000 0.000000
vt 0.199219 0.207031
vn -1.000000 0.000000 0.000000
v 0.749995 -2.250000 -1.346348
vt 0.191406 0.109375
vn 1.000000 0.000000 0.000000
v 0.749995 -0.750000 0.000001
vt 0.296875 0.207031
vn 1.000000 0.000000 0.000000
v 0.749995 -0.750000 -1.346348
vt 0.296875 0.109375
vn 1.000000 0.000000 0.000000
v 0.749995 -2.250000 0.000000
vt 0.191406 0.207031
vn 1.000000 0.000000 0.000000
v -0.750005 0.749990 1.346349
vt 0.248519 0.358688
vn -0.000000 1.000000 0.000000
v 0.749995 0.749990 0.000000
vt 0.142867 0.263858
vn -0.000000 1.000000 0.000000
v 0.749995 0.749990 1.346349
vt 0.142867 0.358688
vn -0.000000 1.000000 0.000000
v -0.750005 0.749990 0.000000
vt 0.248519 0.263858
vn -0.000000 1.000000 0.000000
v -0.750000 2.249990 -1.346349
vt 0.248519 0.169028
vn -0.000000 1.000000 0.000000
v 0.750000 2.249990 0.000000
vt 0.142867 0.263858
vn -0.000000 1.000000 0.000000
v -0.750000 2.249990 0.000000
vt 0.248519 0.263858
vn -0.000000 1.000000 0.000000
v 0.750000 2.250000 -1.346349
vt 0.142866 0.169028
vn -0.000007 1.000000 0.000007
v -2.250005 0.749990 0.000000
vt 0.354171 0.263858
vn -0.000000 1.000000 0.000007
v -0.750005 0.750000 -1.346349
vt 0.248519 0.169028
vn -0.000000 1.000000 0.000007
v -0.750005 0.749990 0.000000
vt 0.248519 0.263858
vn -0.000000 1.000000 0.000007
v -2.250005 0.750000 -1.346350
vt 0.354171 0.169028
vn -0.000000 1.000000 0.000007
v 0.750000 0.750000 -1.346349
vt 0.142866 0.169028
vn -0.000000 1.000000 0.000007
v 2.249995 0.749990 0.000001
vt 0.037214 0.263858
vn -0.000000 1.000000 0.000007
v 0.749995 0.749990 0.000000
vt 0.142867 0.263858
vn -0.000000 1.000000 0.000007
v 2.250000 0.750000 -1.346347
vt 0.037214 0.169028
vn -0.000000 1.000000 0.000007
# Faces (1 to 84)
g fort_background_forest_bush_3_0
f -82/-82/-82 -83/-83/-83 -84/-84/-84
f -81/-81/-81 -84/-84/-84 -83/-83/-83
f -78/-78/-78 -79/-79/-79 -80/-80/-80
f -77/-77/-77 -80/-80/-80 -79/-79/-79
f -74/-74/-74 -75/-75/-75 -76/-76/-76
f -73/-73/-73 -76/-76/-76 -75/-75/-75
f -70/-70/-70 -71/-71/-71 -72/-72/-72
f -69/-69/-69 -72/-72/-72 -71/-71/-71
f -66/-66/-66 -67/-67/-67 -68/-68/-68
f -65/-65/-65 -68/-68/-68 -67/-67/-67
f -62/-62/-62 -63/-63/-63 -64/-64/-64
f -61/-61/-61 -64/-64/-64 -63/-63/-63
f -58/-58/-58 -59/-59/-59 -60/-60/-60
f -57/-57/-57 -60/-60/-60 -59/-59/-59
f -54/-54/-54 -55/-55/-55 -56/-56/-56
f -53/-53/-53 -56/-56/-56 -55/-55/-55
f -50/-50/-50 -51/-51/-51 -52/-52/-52
f -49/-49/-49 -52/-52/-52 -51/-51/-51
f -46/-46/-46 -47/-47/-47 -48/-48/-48
f -45/-45/-45 -48/-48/-48 -47/-47/-47
f -42/-42/-42 -43/-43/-43 -44/-44/-44
f -41/-41/-41 -44/-44/-44 -43/-43/-43
f -38/-38/-38 -39/-39/-39 -40/-40/-40
f -37/-37/-37 -40/-40/-40 -39/-39/-39
f -34/-34/-34 -35/-35/-35 -36/-36/-36
f -33/-33/-33 -36/-36/-36 -35/-35/-35
f -30/-30/-30 -31/-31/-31 -32/-32/-32
f -29/-29/-29 -32/-32/-32 -31/-31/-31
f -26/-26/-26 -27/-27/-27 -28/-28/-28
f -25/-25/-25 -28/-28/-28 -27/-27/-27
f -22/-22/-22 -23/-23/-23 -24/-24/-24
f -21/-21/-21 -24/-24/-24 -23/-23/-23
f -18/-18/-18 -19/-19/-19 -20/-20/-20
f -17/-17/-17 -20/-20/-20 -19/-19/-19
f -14/-14/-14 -15/-15/-15 -16/-16/-16
f -13/-13/-13 -16/-16/-16 -15/-15/-15
f -10/-10/-10 -11/-11/-11 -12/-12/-12
f -9/-9/-9 -12/-12/-12 -11/-11/-11
f -6/-6/-6 -7/-7/-7 -8/-8/-8
f -5/-5/-5 -8/-8/-8 -7/-7/-7
f -2/-2/-2 -3/-3/-3 -4/-4/-4
f -1/-1/-1 -4/-4/-4 -3/-3/-3

