# Mesh "fort_bush_001" exported with Unity Assets Bundle Extractor; 72 vertices, 108 indices, 48 bytes per vertex
g fort_bush_001
# SubMesh 0
# Vertices
v 0.368196 -1.104585 -0.000002
vt -225.427124 37.418034
vn -0.000000 -1.000000 0.000000
v -0.368201 -1.104586 0.736390
vt -227.427139 39.418034
vn -0.000000 -1.000000 0.000000
v 0.368196 -1.104586 0.736390
vt -225.427124 39.418034
vn -0.000000 -1.000000 0.000000
v -0.368201 -1.104585 -0.000002
vt -227.427139 37.418034
vn -0.000000 -1.000000 0.000000
v -1.104590 0.368196 0.736390
vt 342.625397 39.418034
vn -1.000000 0.000000 0.000000
v -1.104590 -0.368195 -0.000001
vt 344.625397 37.418034
vn -1.000000 0.000000 0.000000
v -1.104590 0.368196 -0.000001
vt 342.625397 37.418034
vn -1.000000 0.000000 0.000000
v -1.104590 -0.368195 0.736391
vt 344.625397 39.418034
vn -1.000000 0.000000 0.000000
v -0.368201 0.368196 0.736390
vt 342.625397 39.418034
vn -1.000000 0.000000 0.000000
v -0.368201 -0.368196 1.472782
vt 344.625397 41.418034
vn -1.000000 0.000000 0.000000
v -0.368201 -0.368195 0.736391
vt 344.625397 39.418034
vn -1.000000 0.000000 0.000000
v -0.368201 0.368195 1.472781
vt 342.625397 41.418034
vn -1.000000 0.000000 0.000000
v 0.368196 -0.368195 0.736391
vt -225.427124 39.418034
vn -0.000000 -1.000000 0.000000
v -0.368201 -0.368196 1.472782
vt -227.427139 41.418034
vn -0.000000 -1.000000 0.000000
v 0.368196 -0.368196 1.472782
vt -225.427124 41.418034
vn -0.000000 -1.000000 0.000000
v -0.368201 -0.368195 0.736391
vt -227.427139 39.418034
vn -0.000000 -1.000000 0.000000
v 0.368196 -0.368195 -0.000001
vt -343.625397 37.418034
vn 1.000000 0.000000 0.000000
v 0.368196 -1.104586 0.736390
vt -345.625397 39.418034
vn 1.000000 0.000000 0.000000
v 0.368196 -0.368195 0.736391
vt -343.625397 39.418034
vn 1.000000 0.000000 0.000000
v 0.368196 -1.104585 -0.000002
vt -345.625397 37.418034
vn 1.000000 0.000000 0.000000
v -0.368201 -0.368195 0.736391
vt 344.625397 39.418034
vn -1.000000 0.000000 0.000000
v -0.368201 -1.104585 -0.000002
vt 346.625397 37.418034
vn -1.000000 0.000000 0.000000
v -0.368201 -0.368195 -0.000001
vt 344.625397 37.418034
vn -1.000000 0.000000 0.000000
v -0.368201 -1.104586 0.736390
vt 346.625397 39.418034
vn -1.000000 0.000000 0.000000
v -0.368201 -0.368195 -0.000001
vt -227.427139 37.418034
vn -0.000000 -1.000000 0.000000
v -1.104590 -0.368195 0.736391
vt -229.427139 39.418034
vn -0.000000 -1.000000 0.000000
v -0.368201 -0.368195 0.736391
vt -227.427139 39.418034
vn -0.000000 -1.000000 0.000000
v -1.104590 -0.368195 -0.000001
vt -229.427139 37.418034
vn -0.000000 -1.000000 0.000000
v -0.368201 1.104586 -0.000002
vt -225.427124 37.418034
vn -0.000000 1.000000 0.000000
v 0.368196 1.104586 0.736389
vt -227.427139 39.418034
vn -0.000000 1.000000 0.000000
v -0.368201 1.104586 0.736389
vt -225.427124 39.418034
vn -0.000000 1.000000 0.000000
v 0.368196 1.104586 -0.000002
vt -227.427139 37.418034
vn -0.000000 1.000000 0.000000
v -0.368201 0.368195 -0.000001
vt -343.625397 37.418034
vn -1.000000 0.000000 0.000000
v -0.368201 1.104586 0.736389
vt -345.625397 39.418034
vn -1.000000 0.000000 0.000000
v -0.368201 0.368195 0.736390
vt -343.625397 39.418034
vn -1.000000 0.000000 0.000000
v -0.368201 1.104586 -0.000002
vt -345.625397 37.418034
vn -1.000000 0.000000 0.000000
v 0.368196 0.368195 0.736390
vt 344.625397 39.418034
vn 1.000000 0.000000 0.000000
v 0.368196 1.104586 -0.000002
vt 346.625397 37.418034
vn 1.000000 0.000000 0.000000
v 0.368196 0.368195 -0.000001
vt 344.625397 37.418034
vn 1.000000 0.000000 0.000000
v 0.368196 1.104586 0.736389
vt 346.625397 39.418034
vn 1.000000 0.000000 0.000000
v 1.104587 0.368192 -0.000002
vt -225.427124 37.418034
vn 1.000000 0.000000 0.000000
v 1.104587 -0.368204 0.736389
vt -227.427139 39.418034
vn 1.000000 0.000000 0.000000
v 1.104587 0.368193 0.736389
vt -225.427124 39.418034
vn 1.000000 0.000000 0.000000
v 1.104587 -0.368204 -0.000002
vt -227.427139 37.418034
vn 1.000000 0.000000 0.000000
v 0.368196 0.368192 -0.000001
vt -343.625397 37.418034
vn -0.000000 1.000000 0.000000
v 1.104587 0.368193 0.736389
vt -345.625397 39.418034
vn -0.000000 1.000000 0.000000
v 0.368196 0.368193 0.736390
vt -343.625397 39.418034
vn -0.000000 1.000000 0.000000
v 1.104587 0.368192 -0.000002
vt -345.625397 37.418034
vn -0.000000 1.000000 0.000000
v 0.368196 -0.368204 0.736390
vt 344.625397 39.418034
vn -0.000000 -1.000000 0.000000
v 1.104587 -0.368204 -0.000002
vt 346.625397 37.418034
vn -0.000000 -1.000000 0.000000
v 0.368196 -0.368204 -0.000001
vt 344.625397 37.418034
vn -0.000000 -1.000000 0.000000
v 1.104587 -0.368204 0.736389
vt 346.625397 39.418034
vn -0.000000 -1.000000 0.000000
# Faces (1 to 52)
f -50/-50/-50 -51/-51/-51 -52/-52/-52
f -49/-49/-49 -52/-52/-52 -51/-51/-51
f -46/-46/-46 -47/-47/-47 -48/-48/-48
f -45/-45/-45 -48/-48/-48 -47/-47/-47
f -42/-42/-42 -43/-43/-43 -44/-44/-44
f -41/-41/-41 -44/-44/-44 -43/-43/-43
f -38/-38/-38 -39/-39/-39 -40/-40/-40
f -37/-37/-37 -40/-40/-40 -39/-39/-39
f -34/-34/-34 -35/-35/-35 -36/-36/-36
f -33/-33/-33 -36/-36/-36 -35/-35/-35
f -30/-30/-30 -31/-31/-31 -32/-32/-32
f -29/-29/-29 -32/-32/-32 -31/-31/-31
f -26/-26/-26 -27/-27/-27 -28/-28/-28
f -25/-25/-25 -28/-28/-28 -27/-27/-27
f -22/-22/-22 -23/-23/-23 -24/-24/-24
f -21/-21/-21 -24/-24/-24 -23/-23/-23
f -18/-18/-18 -19/-19/-19 -20/-20/-20
f -17/-17/-17 -20/-20/-20 -19/-19/-19
f -14/-14/-14 -15/-15/-15 -16/-16/-16
f -13/-13/-13 -16/-16/-16 -15/-15/-15
f -10/-10/-10 -11/-11/-11 -12/-12/-12
f -9/-9/-9 -12/-12/-12 -11/-11/-11
f -6/-6/-6 -7/-7/-7 -8/-8/-8
f -5/-5/-5 -8/-8/-8 -7/-7/-7
f -2/-2/-2 -3/-3/-3 -4/-4/-4
f -1/-1/-1 -4/-4/-4 -3/-3/-3

# SubMesh 1
# Vertices
v -0.368201 -0.368196 1.472782
vt -227.427139 -343.625397
vn -0.000000 0.000000 1.000000
v 0.368196 0.368193 1.472781
vt -225.427109 -341.625397
vn -0.000000 0.000000 1.000000
v 0.368196 -0.368196 1.472782
vt -225.427124 -343.625397
vn -0.000000 0.000000 1.000000
v -0.368201 0.368195 1.472781
vt -227.427139 -341.625397
vn -0.000000 0.000000 1.000000
v 0.368196 -0.368195 0.736391
vt -225.427124 -343.625397
vn -0.000000 0.000000 1.000000
v -0.368201 -1.104586 0.736390
vt -227.427139 -345.625397
vn -0.000000 0.000000 1.000000
v -0.368201 -0.368195 0.736391
vt -227.427139 -343.625397
vn -0.000000 0.000000 1.000000
v 0.368196 -1.104586 0.736390
vt -225.427124 -345.625397
vn -0.000000 0.000000 1.000000
v -0.368201 -0.368195 0.736391
vt -227.427139 -343.625397
vn -0.000000 0.000000 1.000000
v -1.104590 0.368196 0.736390
vt -229.427139 -341.625397
vn -0.000000 0.000000 1.000000
v -0.368201 0.368196 0.736390
vt -227.427139 -341.625397
vn -0.000000 0.000000 1.000000
v -1.104590 -0.368195 0.736391
vt -229.427139 -343.625397
vn -0.000000 0.000000 1.000000
v -0.368201 0.368195 0.736390
vt -225.427124 -343.625397
vn -0.000000 0.000000 1.000000
v 0.368196 1.104586 0.736389
vt -227.427139 -345.625397
vn -0.000000 0.000000 1.000000
v 0.368196 0.368195 0.736390
vt -227.427139 -343.625397
vn -0.000000 0.000000 1.000000
v -0.368201 1.104586 0.736389
vt -225.427124 -345.625397
vn -0.000000 0.000000 1.000000
v 0.368196 0.368193 0.736390
vt -225.427124 -343.625397
vn -0.000000 0.000000 1.000000
v 1.104587 -0.368204 0.736389
vt -227.427139 -345.625397
vn -0.000000 0.000000 1.000000
v 0.368196 -0.368204 0.736390
vt -227.427139 -343.625397
vn -0.000000 0.000000 1.000000
v 1.104587 0.368193 0.736389
vt -225.427124 -345.625397
vn -0.000000 0.000000 1.000000
# Faces (53 to 72)
f -18/-18/-18 -19/-19/-19 -20/-20/-20
f -17/-17/-17 -20/-20/-20 -19/-19/-19
f -14/-14/-14 -15/-15/-15 -16/-16/-16
f -13/-13/-13 -16/-16/-16 -15/-15/-15
f -10/-10/-10 -11/-11/-11 -12/-12/-12
f -9/-9/-9 -12/-12/-12 -11/-11/-11
f -6/-6/-6 -7/-7/-7 -8/-8/-8
f -5/-5/-5 -8/-8/-8 -7/-7/-7
f -2/-2/-2 -3/-3/-3 -4/-4/-4
f -1/-1/-1 -4/-4/-4 -3/-3/-3

