g fort_stronghold_gate_door_mesh
v 2.220999 3.177096 -0.09815025
v -2.220998 3.177097 -0.09814949
v -2.220998 3.058328 -0.09815142
v 2.220999 3.058327 -0.09815221
v -2.220998 1.870628 0.02050197
v -2.220998 1.989398 0.020502
v 2.220999 1.989397 0.02050122
v 2.220999 1.870627 0.02050118
v -0.5344645 0.6664244 0.08089656
v -0.653235 0.6664244 0.08089656
v -0.6532343 4.15695 0.07865539
v -0.5344639 4.15695 0.07865538
v 1.722165 4.14743 0.07865512
v 1.722165 0.6664239 0.08089608
v 1.722165 0.6664239 -0.03764476
v 1.722165 4.14743 -0.03988582
v 1.128315 4.15695 0.07865508
v 1.247086 4.15695 0.07865506
v 1.247084 0.6664241 0.08089617
v 1.128315 0.6664241 0.08089624
v -1.128314 4.15695 0.07865548
v -1.128314 4.15695 -0.03988536
v -1.128315 0.6664243 -0.03764419
v -1.128315 0.6664244 0.08089665
v -1.722164 4.14743 0.07865559
v -1.722165 0.6664246 0.08089667
v -1.840934 0.6664246 0.08089666
v -1.840934 4.147431 0.0786556
v -0.0593845 4.15695 0.07865529
v 0.05938595 4.15695 0.07865527
v 0.05938534 0.6664242 0.08089646
v -0.0593851 0.6664242 0.08089649
v 2.220999 3.177096 -0.09815025
v 2.220999 3.177096 0.02050123
v -2.220998 3.177097 0.02050201
v -2.220998 3.177097 -0.09814949
v 2.220999 1.395547 0.02050122
v 2.220999 1.276777 0.02050118
v -2.220998 1.276778 0.02050197
v -2.220998 1.395548 0.020502
v 2.220999 3.770946 -0.09815027
v 2.220999 3.770946 0.02050122
v -2.220998 3.770947 0.020502
v -2.220998 3.770947 -0.09814951
v 2.220999 1.989397 -0.09815027
v 2.220999 1.989397 0.02050122
v -2.220998 1.989398 0.020502
v -2.220998 1.989398 -0.09814951
v 2.220999 2.583247 -0.09815025
v 2.220999 2.583247 0.02050122
v -2.220998 2.583248 0.020502
v -2.220998 2.583248 -0.09814949
v 0.5344655 4.15695 0.07865518
v 0.6532359 4.15695 0.07865517
v 0.6532353 0.6664241 0.08089633
v 0.5344648 0.6664241 0.08089639
v 0.5344648 0.666424 -0.03764445
v 0.5344655 4.15695 -0.03988563
v 0.5344655 4.15695 0.07865518
v 0.5344648 0.6664241 0.08089639
v 0.6532353 0.6664241 0.08089633
v 0.6532359 4.15695 0.07865517
v 0.6532359 4.15695 -0.03988631
v 0.6532353 0.666424 -0.0376464
v -0.5344645 0.6664244 0.08089656
v -0.5344639 4.15695 0.07865538
v -0.5344639 4.15695 -0.03988545
v -0.5344645 0.6664245 -0.03764425
v -1.722164 4.14743 0.07865559
v -1.722164 4.14743 -0.03988528
v -1.722165 0.6664246 -0.03764415
v -1.722165 0.6664246 0.08089667
v 0.05938534 0.6664242 0.08089646
v 0.05938595 4.15695 0.07865527
v 0.05938594 4.15695 -0.03988619
v 0.05938532 0.6664242 -0.03764628
v 2.220999 3.058327 -0.09815221
v -2.220998 3.058328 -0.09815142
v -2.220998 3.058328 0.02050197
v 2.220999 3.058327 0.02050118
v -0.653235 0.6664245 -0.03764617
v -0.6532343 4.15695 -0.03988609
v -0.6532343 4.15695 0.07865539
v -0.653235 0.6664244 0.08089656
v -0.0593851 0.6664242 0.08089649
v -0.05938512 0.6664242 -0.03764625
v -0.05938451 4.15695 -0.03988614
v -0.0593845 4.15695 0.07865529
v 1.840934 0.6664239 0.08089601
v 1.840935 4.14743 0.07865511
v 1.840935 4.147429 -0.03988649
v 1.840934 0.6664239 -0.03764671
v -1.840934 0.6664246 0.08089666
v -1.840934 0.6664246 -0.03764607
v -1.840934 4.147431 -0.03988592
v -1.840934 4.147431 0.0786556
v 1.128315 4.15695 0.07865508
v 1.128315 0.6664241 0.08089624
v 1.128315 0.6664242 -0.03764458
v 1.128315 4.15695 -0.03988574
v 2.220999 2.583247 -0.09815025
v -2.220998 2.583248 -0.09814949
v -2.220998 2.464478 -0.09815142
v 2.220999 2.464477 -0.09815221
v 2.220999 3.652177 -0.09815221
v -2.220998 3.652178 -0.09815142
v -2.220998 3.652178 0.02050197
v 2.220999 3.652177 0.02050118
v 1.247084 0.6664241 0.08089617
v 1.247086 4.15695 0.07865506
v 1.247086 4.15695 -0.03988644
v 1.247084 0.6664241 -0.03764658
v -1.584202 0.6664246 0.01284198
v -1.78155 0.1759944 0.01284202
v -1.978898 0.6664246 0.01284205
v -0.9903519 0.6664244 0.01284187
v -1.1877 0.1759943 0.01284191
v -1.385048 0.6664246 0.01284194
v -0.396502 0.6664242 0.01284177
v -0.59385 0.1759942 0.01284181
v -0.7911977 0.6664244 0.01284184
v 0.1973479 0.6664242 0.01284167
v 1.681966E-08 0.1759941 0.01284169
v -0.1973477 0.6664242 0.01284174
v 0.791198 0.6664241 0.01284156
v 0.59385 0.175994 0.01284159
v 0.3965023 0.6664242 0.01284164
v 1.385048 0.6664239 0.01284146
v 1.1877 0.1759939 0.01284149
v 0.9903522 0.6664241 0.01284153
v 1.978898 0.6664239 0.01284136
v 1.78155 0.1759938 0.01284138
v 1.584202 0.6664239 0.01284143
v -1.722164 4.14743 -0.03988528
v -1.840934 4.147431 -0.03988592
v -1.840934 0.6664246 -0.03764607
v -1.722165 0.6664246 -0.03764415
v 0.5344655 4.15695 -0.03988563
v 0.5344648 0.666424 -0.03764445
v 0.6532353 0.666424 -0.0376464
v 0.6532359 4.15695 -0.03988631
v 1.128315 4.15695 -0.03988574
v 1.128315 0.6664242 -0.03764458
v 1.247084 0.6664241 -0.03764658
v 1.247086 4.15695 -0.03988644
v -1.128314 4.15695 -0.03988536
v -1.247084 4.15695 -0.03988601
v -1.247084 0.6664243 -0.03764614
v -1.128315 0.6664243 -0.03764419
v 1.722165 4.14743 -0.03988582
v 1.722165 0.6664239 -0.03764476
v 1.840934 0.6664239 -0.03764671
v 1.840935 4.147429 -0.03988649
v 2.220999 3.770946 -0.09815027
v -2.220998 3.770947 -0.09814951
v -2.220998 3.652178 -0.09815142
v 2.220999 3.652177 -0.09815221
v -1.584202 0.6664246 0.0001344774
v -1.978898 0.6664246 0.0001345221
v -1.78155 0.1759944 0.0001344923
v -0.9903519 0.6664244 0.0001343507
v -1.385048 0.6664246 0.0001344252
v -1.1877 0.1759942 0.000134388
v -0.396502 0.6664242 0.0001342688
v -0.7911977 0.6664244 0.0001343209
v -0.59385 0.1759942 0.0001342762
v 0.1973479 0.6664242 0.0001341421
v -0.1973477 0.6664242 0.0001342241
v 1.681965E-08 0.1759941 0.0001341794
v 0.791198 0.6664241 0.0001340453
v 0.3965024 0.6664242 0.0001341049
v 0.59385 0.1759939 0.0001340825
v 1.385047 0.6664239 0.000133941
v 0.9903522 0.6664241 0.0001340155
v 1.1877 0.1759939 0.0001339708
v 1.978898 0.6664239 0.0001338441
v 1.584202 0.6664239 0.0001338962
v 1.78155 0.1759938 0.0001338664
v 2.220999 2.464477 -0.09815221
v -2.220998 2.464478 -0.09815142
v -2.220998 2.464478 0.02050197
v 2.220999 2.464477 0.02050118
v -0.5344645 0.6664245 -0.03764425
v -0.5344639 4.15695 -0.03988545
v -0.6532343 4.15695 -0.03988609
v -0.653235 0.6664245 -0.03764617
v 2.220999 3.177096 0.02050123
v 2.220999 3.058327 0.02050118
v -2.220998 3.058328 0.02050197
v -2.220998 3.177097 0.02050201
v 2.220999 1.870627 -0.09815221
v -2.220998 1.870628 -0.09815142
v -2.220998 1.870628 0.02050197
v 2.220999 1.870627 0.02050118
v -1.247084 0.6664244 0.08089659
v -1.247084 0.6664243 -0.03764614
v -1.247084 4.15695 -0.03988601
v -1.247084 4.15695 0.0786555
v 2.220999 3.770946 0.02050122
v 2.220999 3.652177 0.02050118
v -2.220998 3.652178 0.02050197
v -2.220998 3.770947 0.020502
v 2.220999 1.395547 0.02050122
v -2.220998 1.395548 0.020502
v -2.220998 1.395548 -0.09814949
v 2.220999 1.395547 -0.09815025
v -0.05938451 4.15695 -0.03988614
v -0.05938512 0.6664242 -0.03764625
v 0.05938532 0.6664242 -0.03764628
v 0.05938594 4.15695 -0.03988619
v 1.722165 4.14743 0.07865512
v 1.840935 4.14743 0.07865511
v 1.840934 0.6664239 0.08089601
v 1.722165 0.6664239 0.08089608
v 2.220999 1.276777 -0.09815221
v -2.220998 1.276778 -0.09815146
v -2.220998 1.276778 0.02050197
v 2.220999 1.276777 0.02050118
v -2.220998 1.870628 -0.09815142
v 2.220999 1.870627 -0.09815221
v 2.220999 1.989397 -0.09815027
v -2.220998 1.989398 -0.09814951
v 2.220999 2.583247 0.02050122
v 2.220999 2.464477 0.02050118
v -2.220998 2.464478 0.02050197
v -2.220998 2.583248 0.020502
v 2.220999 1.395547 -0.09815025
v -2.220998 1.395548 -0.09814949
v -2.220998 1.276778 -0.09815146
v 2.220999 1.276777 -0.09815221
v -1.128314 4.15695 0.07865548
v -1.128315 0.6664244 0.08089665
v -1.247084 0.6664244 0.08089659
v -1.247084 4.15695 0.0786555
vt 26.74 -0.6500006
vt 19.26 -0.6500006
vt 19.26 -0.8499994
vt 26.74 -0.8499994
vt 19.26 -2.849999
vt 19.26 -2.65
vt 26.74 -2.65
vt 26.74 -2.849999
vt 22.1 -4.867933
vt 21.9 -4.867934
vt 21.9 0.9877423
vt 22.1 0.9877423
vt 0.5235502 0.9839067
vt 0.520142 -4.877797
vt 0.7193804 -4.877733
vt 0.7231544 0.9839702
vt 24.9 0.9877423
vt 25.1 0.9877423
vt 25.1 -4.867933
vt 24.9 -4.867934
vt 0.5235595 0.9999363
vt 0.7231644 0.9999999
vt 0.7193803 -4.877733
vt 0.5201418 -4.877797
vt 20.1 0.9717728
vt 20.1 -4.867934
vt 19.9 -4.867934
vt 19.9 0.9717728
vt 22.9 0.9877423
vt 23.1 0.9877423
vt 23.1 -4.867933
vt 22.9 -4.867934
vt -25.74 0.1785427
vt -25.74 0.3785266
vt -18.26 0.3785266
vt -18.26 0.1785433
vt 26.74 -3.65
vt 26.74 -3.849999
vt 19.26 -3.849999
vt 19.26 -3.65
vt -25.74 0.1785427
vt -25.74 0.3785266
vt -18.26 0.3785266
vt -18.26 0.1785433
vt -25.74 0.1785427
vt -25.74 0.3785272
vt -18.26 0.3785272
vt -18.26 0.1785433
vt -25.74 0.1785433
vt -25.74 0.3785272
vt -18.26 0.3785272
vt -18.26 0.1785439
vt 23.9 0.9877423
vt 24.1 0.9877423
vt 24.1 -4.867933
vt 23.9 -4.867934
vt 0.2806197 -4.877733
vt 0.2768354 0.9999999
vt 0.4764402 0.9999363
vt 0.4798582 -4.877797
vt 0.5201418 -4.877797
vt 0.5235598 0.9999363
vt 0.7231668 0.9999999
vt 0.7193868 -4.877733
vt 0.5201418 -4.877797
vt 0.5235596 0.9999363
vt 0.7231644 0.9999999
vt 0.7193803 -4.877733
vt 0.52355 0.9839067
vt 0.7231541 0.9839702
vt 0.7193804 -4.877733
vt 0.5201419 -4.877797
vt 0.5201418 -4.877797
vt 0.5235597 0.9999363
vt 0.7231667 0.9999999
vt 0.7193868 -4.877733
vt 26.74 0.1785362
vt 19.26 0.1785368
vt 19.26 0.3785266
vt 26.74 0.3785266
vt 0.2806132 -4.877733
vt 0.2768333 0.9999999
vt 0.4764404 0.9999363
vt 0.4798582 -4.877797
vt 0.4798582 -4.877797
vt 0.2806133 -4.877733
vt 0.2768333 0.9999999
vt 0.4764403 0.9999363
vt 0.479858 -4.877797
vt 0.4764498 0.9839067
vt 0.2768434 0.9839702
vt 0.2806131 -4.877733
vt 0.479858 -4.877797
vt 0.2806131 -4.877733
vt 0.2768436 0.9839702
vt 0.4764501 0.9839067
vt 0.47644 0.9999363
vt 0.4798581 -4.877797
vt 0.2806197 -4.877733
vt 0.2768353 0.9999999
vt 26.74 -1.65
vt 19.26 -1.65
vt 19.26 -1.849999
vt 26.74 -1.849999
vt 26.74 0.1785362
vt 19.26 0.1785368
vt 19.26 0.3785266
vt 26.74 0.3785266
vt 0.520142 -4.877797
vt 0.52356 0.9999363
vt 0.7231671 0.9999999
vt 0.719387 -4.877733
vt 20.33232 -4.866868
vt 20 -5.689549
vt 19.66768 -4.866865
vt 20.33232 -4.866868
vt 20 -5.689549
vt 19.66768 -4.866865
vt 20.33232 -4.866868
vt 20 -5.689549
vt 19.66768 -4.866865
vt 20.33232 -4.866868
vt 20 -5.689549
vt 19.66768 -4.866865
vt 20.33232 -4.866868
vt 20 -5.689549
vt 19.66768 -4.866865
vt 20.33232 -4.866868
vt 20 -5.689549
vt 19.66768 -4.866865
vt 20.33232 -4.866868
vt 20 -5.689549
vt 19.66768 -4.866865
vt 20.1 0.9717728
vt 19.9 0.9717728
vt 19.9 -4.867934
vt 20.1 -4.867934
vt 23.9 0.9877423
vt 23.9 -4.867934
vt 24.1 -4.867933
vt 24.1 0.9877423
vt 24.9 0.9877423
vt 24.9 -4.867934
vt 25.1 -4.867933
vt 25.1 0.9877423
vt 21.1 0.9877423
vt 20.9 0.9877423
vt 20.9 -4.867934
vt 21.1 -4.867934
vt 20.1 0.9717728
vt 20.1 -4.867934
vt 19.9 -4.867933
vt 19.9 0.9717728
vt 26.74 0.3499994
vt 19.26 0.3499994
vt 19.26 0.1500006
vt 26.74 0.1500006
vt 20.33232 -4.866868
vt 19.66768 -4.866865
vt 20 -5.689549
vt 20.33232 -4.866868
vt 19.66768 -4.866865
vt 20 -5.689549
vt 20.33232 -4.866868
vt 19.66768 -4.866865
vt 20 -5.689549
vt 20.33232 -4.866868
vt 19.66768 -4.866865
vt 20 -5.689549
vt 20.33232 -4.866868
vt 19.66768 -4.866865
vt 20 -5.689549
vt 20.33232 -4.866868
vt 19.66768 -4.866865
vt 20 -5.689549
vt 20.33232 -4.866868
vt 19.66768 -4.866865
vt 20 -5.689549
vt 26.74 0.1785362
vt 19.26 0.1785368
vt 19.26 0.3785272
vt 26.74 0.3785272
vt 22.1 -4.867933
vt 22.1 0.9877423
vt 21.9 0.9877423
vt 21.9 -4.867934
vt 26.74 -0.6500006
vt 26.74 -0.8499994
vt 19.26 -0.8499994
vt 19.26 -0.6500006
vt 26.74 0.1785362
vt 19.26 0.1785368
vt 19.26 0.3785271
vt 26.74 0.3785272
vt 0.4798581 -4.877797
vt 0.2806131 -4.877733
vt 0.2768333 0.9999999
vt 0.4764406 0.9999363
vt 26.74 0.3499994
vt 26.74 0.1500006
vt 19.26 0.1500006
vt 19.26 0.3499994
vt -25.74 0.3785269
vt -18.26 0.3785269
vt -18.26 0.1785436
vt -25.74 0.178543
vt 22.9 0.9877423
vt 22.9 -4.867934
vt 23.1 -4.867933
vt 23.1 0.9877423
vt 20.1 0.9717728
vt 19.9 0.9717728
vt 19.9 -4.867933
vt 20.1 -4.867934
vt 26.74 0.1785362
vt 19.26 0.1785368
vt 19.26 0.3785269
vt 26.74 0.3785269
vt 19.26 -2.849999
vt 26.74 -2.849999
vt 26.74 -2.65
vt 19.26 -2.65
vt 26.74 -1.65
vt 26.74 -1.849999
vt 19.26 -1.849999
vt 19.26 -1.65
vt 26.74 -3.65
vt 19.26 -3.65
vt 19.26 -3.849999
vt 26.74 -3.849999
vt 21.1 0.9877423
vt 21.1 -4.867934
vt 20.9 -4.867934
vt 20.9 0.9877423
vn -1.727588E-07 1.638197E-05 -1
vn -1.727588E-07 1.638197E-05 -1
vn -1.727588E-07 1.638197E-05 -1
vn -1.727588E-07 1.638197E-05 -1
vn 1.761167E-07 -3.248136E-07 1
vn 1.761167E-07 -3.248136E-07 1
vn 1.761167E-07 -3.248136E-07 1
vn 1.761167E-07 -3.248136E-07 1
vn 0 0.0006420747 0.9999999
vn 0 0.0006420747 0.9999999
vn 0 0.0006420747 0.9999999
vn 0 0.0006420747 0.9999999
vn -1 1.712282E-07 0
vn -1 1.712282E-07 0
vn -1 1.712282E-07 0
vn -1 1.712282E-07 0
vn 3.762859E-07 0.0006420627 0.9999999
vn 3.762859E-07 0.0006420627 0.9999999
vn 3.762859E-07 0.0006420627 0.9999999
vn 3.762859E-07 0.0006420627 0.9999999
vn 1 -2.049135E-07 0
vn 1 -2.049135E-07 0
vn 1 -2.049135E-07 0
vn 1 -2.049135E-07 0
vn 0 0.0006438008 0.9999999
vn 0 0.0006438008 0.9999999
vn 0 0.0006438008 0.9999999
vn 0 0.0006438008 0.9999999
vn 1.887036E-07 0.0006420828 0.9999999
vn 1.887036E-07 0.0006420828 0.9999999
vn 1.887036E-07 0.0006420828 0.9999999
vn 1.887036E-07 0.0006420828 0.9999999
vn 2.601782E-07 1 0
vn 2.601782E-07 1 0
vn 2.601782E-07 1 0
vn 2.601782E-07 1 0
vn 1.76117E-07 -3.248137E-07 1
vn 1.76117E-07 -3.248137E-07 1
vn 1.76117E-07 -3.248137E-07 1
vn 1.76117E-07 -3.248137E-07 1
vn 2.834427E-07 1 0
vn 2.834427E-07 1 0
vn 2.834427E-07 1 0
vn 2.834427E-07 1 0
vn 1.005561E-07 1 -1.004701E-06
vn 1.005561E-07 1 -1.004701E-06
vn 1.005561E-07 1 -1.004701E-06
vn 1.005561E-07 1 -1.004701E-06
vn 2.369123E-07 1 0
vn 2.369123E-07 1 0
vn 2.369123E-07 1 0
vn 2.369123E-07 1 0
vn 3.14506E-07 0.0006420776 0.9999999
vn 3.14506E-07 0.0006420776 0.9999999
vn 3.14506E-07 0.0006420776 0.9999999
vn 3.14506E-07 0.0006420776 0.9999999
vn -1 1.878374E-07 0
vn -1 1.878374E-07 0
vn -1 1.878374E-07 0
vn -1 1.878374E-07 0
vn 1 -1.707612E-07 0
vn 1 -1.707612E-07 0
vn 1 -1.707612E-07 0
vn 1 -1.707612E-07 0
vn 1 -1.707612E-07 2.881054E-07
vn 1 -1.707612E-07 2.881054E-07
vn 1 -1.707612E-07 2.881054E-07
vn 1 -1.707612E-07 2.881054E-07
vn 1 -1.712282E-07 0
vn 1 -1.712282E-07 0
vn 1 -1.712282E-07 0
vn 1 -1.712282E-07 0
vn 1 -1.750908E-07 -1.080383E-07
vn 1 -1.750908E-07 -1.080383E-07
vn 1 -1.750908E-07 -1.080383E-07
vn 1 -1.750908E-07 -1.080383E-07
vn -2.827233E-07 -1 0
vn -2.827233E-07 -1 0
vn -2.827233E-07 -1 0
vn -2.827233E-07 -1 0
vn -1 1.878374E-07 -5.762046E-07
vn -1 1.878374E-07 -5.762046E-07
vn -1 1.878374E-07 -5.762046E-07
vn -1 1.878374E-07 -5.762046E-07
vn -1 1.745471E-07 0
vn -1 1.745471E-07 0
vn -1 1.745471E-07 0
vn -1 1.745471E-07 0
vn 1 -4.794391E-07 -1.838085E-07
vn 1 -4.794391E-07 -1.838085E-07
vn 1 -4.794391E-07 -1.838085E-07
vn 1 -4.794391E-07 -1.838085E-07
vn -1 -1.369825E-07 -1.15556E-06
vn -1 -1.369825E-07 -1.15556E-06
vn -1 -1.369825E-07 -1.15556E-06
vn -1 -1.369825E-07 -1.15556E-06
vn -1 1.707612E-07 -1.625368E-07
vn -1 1.707612E-07 -1.625368E-07
vn -1 1.707612E-07 -1.625368E-07
vn -1 1.707612E-07 -1.625368E-07
vn -1.727589E-07 1.63819E-05 -1
vn -1.727589E-07 1.63819E-05 -1
vn -1.727589E-07 1.63819E-05 -1
vn -1.727589E-07 1.63819E-05 -1
vn -2.827233E-07 -1 0
vn -2.827233E-07 -1 0
vn -2.827233E-07 -1 0
vn -2.827233E-07 -1 0
vn 1 -4.781314E-07 -2.847438E-07
vn 1 -4.781314E-07 -2.847438E-07
vn 1 -4.781314E-07 -2.847438E-07
vn 1 -4.781314E-07 -2.847438E-07
vn 1.698909E-07 0 1
vn 1.698909E-07 0 1
vn 1.698909E-07 0 1
vn 1.69891E-07 0 1
vn 1.69891E-07 0 1
vn 1.69891E-07 0 1
vn 1.887677E-07 0 1
vn 1.887677E-07 0 1
vn 1.887677E-07 0 1
vn 1.887678E-07 0 1
vn 1.887678E-07 0 1
vn 1.887678E-07 0 1
vn 1.887678E-07 0 1
vn 1.887678E-07 0 1
vn 1.887678E-07 0 1
vn 1.69891E-07 0 1
vn 1.69891E-07 0 1
vn 1.69891E-07 0 1
vn 1.698909E-07 0 1
vn 1.698909E-07 0 1
vn 1.698909E-07 0 1
vn 1.078672E-05 -0.000643633 -0.9999999
vn 1.078672E-05 -0.000643633 -0.9999999
vn 1.078672E-05 -0.000643633 -0.9999999
vn 1.078672E-05 -0.000643633 -0.9999999
vn -1.110358E-05 -0.0006418944 -0.9999999
vn -1.110358E-05 -0.0006418944 -0.9999999
vn -1.110358E-05 -0.0006418944 -0.9999999
vn -1.110358E-05 -0.0006418944 -0.9999999
vn -1.135414E-05 -0.0006418854 -0.9999999
vn -1.135414E-05 -0.0006418854 -0.9999999
vn -1.135414E-05 -0.0006418854 -0.9999999
vn -1.135414E-05 -0.0006418854 -0.9999999
vn 1.097743E-05 -0.0006418842 -0.9999999
vn 1.097743E-05 -0.0006418842 -0.9999999
vn 1.097743E-05 -0.0006418842 -0.9999999
vn 1.097743E-05 -0.0006418842 -0.9999999
vn -1.104166E-05 -0.0006436136 -0.9999999
vn -1.104166E-05 -0.0006436136 -0.9999999
vn -1.104166E-05 -0.0006436136 -0.9999999
vn -1.104166E-05 -0.0006436136 -0.9999999
vn -1.727579E-07 1.62125E-05 -1
vn -1.727579E-07 1.62125E-05 -1
vn -1.727579E-07 1.62125E-05 -1
vn -1.727579E-07 1.62125E-05 -1
vn -1.132606E-07 0 -1
vn -1.132606E-07 0 -1
vn -1.132606E-07 0 -1
vn -1.887675E-07 0 -1
vn -1.887675E-07 0 -1
vn -1.887675E-07 0 -1
vn -1.321373E-07 0 -1
vn -1.321373E-07 0 -1
vn -1.321373E-07 0 -1
vn -2.076446E-07 0 -1
vn -2.076446E-07 0 -1
vn -2.076446E-07 0 -1
vn -1.510142E-07 0 -1
vn -1.510142E-07 0 -1
vn -1.510142E-07 0 -1
vn -1.887679E-07 0 -1
vn -1.887679E-07 0 -1
vn -1.887679E-07 0 -1
vn -1.321374E-07 0 -1
vn -1.321374E-07 0 -1
vn -1.321374E-07 0 -1
vn -1.69634E-07 -1 0
vn -1.69634E-07 -1 0
vn -1.69634E-07 -1 0
vn -1.69634E-07 -1 0
vn 1.078976E-05 -0.0006418955 -0.9999999
vn 1.078976E-05 -0.0006418955 -0.9999999
vn 1.078976E-05 -0.0006418955 -0.9999999
vn 1.078976E-05 -0.0006418955 -0.9999999
vn 1.761165E-07 -3.813045E-07 1
vn 1.761165E-07 -3.813045E-07 1
vn 1.761165E-07 -3.813045E-07 1
vn 1.761165E-07 -3.813045E-07 1
vn 0 -1 1.004685E-06
vn 0 -1 1.004685E-06
vn 0 -1 1.004685E-06
vn 0 -1 1.004685E-06
vn -1 -1.707613E-07 0
vn -1 -1.707613E-07 0
vn -1 -1.707613E-07 0
vn -1 -1.707613E-07 0
vn 1.76117E-07 -3.248149E-07 1
vn 1.76117E-07 -3.248149E-07 1
vn 1.76117E-07 -3.248149E-07 1
vn 1.76117E-07 -3.248149E-07 1
vn 1.130911E-07 1 0
vn 1.130911E-07 1 0
vn 1.130911E-07 1 0
vn 1.130911E-07 1 0
vn -3.137746E-07 -0.0006417102 -0.9999999
vn -3.137746E-07 -0.0006417102 -0.9999999
vn -3.137746E-07 -0.0006417102 -0.9999999
vn -3.137746E-07 -0.0006417102 -0.9999999
vn 3.164945E-07 0.000643761 0.9999999
vn 3.164945E-07 0.000643761 0.9999999
vn 3.164945E-07 0.000643761 0.9999999
vn 3.164945E-07 0.000643761 0.9999999
vn -1.979063E-07 -1 5.023424E-07
vn -1.979063E-07 -1 5.023424E-07
vn -1.979063E-07 -1 5.023424E-07
vn -1.979063E-07 -1 5.023424E-07
vn -1.727607E-07 1.621244E-05 -1
vn -1.727607E-07 1.621244E-05 -1
vn -1.727607E-07 1.621244E-05 -1
vn -1.727607E-07 1.621244E-05 -1
vn 1.761171E-07 -3.248136E-07 1
vn 1.761171E-07 -3.248136E-07 1
vn 1.761171E-07 -3.248136E-07 1
vn 1.761171E-07 -3.248136E-07 1
vn -1.710828E-07 1.660786E-05 -1
vn -1.710828E-07 1.660786E-05 -1
vn -1.710828E-07 1.660786E-05 -1
vn -1.710828E-07 1.660786E-05 -1
vn -1.258291E-07 0.0006420601 0.9999999
vn -1.258291E-07 0.0006420601 0.9999999
vn -1.258291E-07 0.0006420601 0.9999999
vn -1.258291E-07 0.0006420601 0.9999999
g fort_stronghold_gate_door_mesh_0
f 3/3/3 2/2/2 1/1/1
f 4/4/4 3/3/3 1/1/1
f 7/7/7 6/6/6 5/5/5
f 8/8/8 7/7/7 5/5/5
f 11/11/11 10/10/10 9/9/9
f 12/12/12 11/11/11 9/9/9
f 15/15/15 14/14/14 13/13/13
f 16/16/16 15/15/15 13/13/13
f 19/19/19 18/18/18 17/17/17
f 20/20/20 19/19/19 17/17/17
f 23/23/23 22/22/22 21/21/21
f 24/24/24 23/23/23 21/21/21
f 27/27/27 26/26/26 25/25/25
f 28/28/28 27/27/27 25/25/25
f 31/31/31 30/30/30 29/29/29
f 32/32/32 31/31/31 29/29/29
f 35/35/35 34/34/34 33/33/33
f 36/36/36 35/35/35 33/33/33
f 39/39/39 38/38/38 37/37/37
f 40/40/40 39/39/39 37/37/37
f 43/43/43 42/42/42 41/41/41
f 44/44/44 43/43/43 41/41/41
f 47/47/47 46/46/46 45/45/45
f 48/48/48 47/47/47 45/45/45
f 51/51/51 50/50/50 49/49/49
f 52/52/52 51/51/51 49/49/49
f 55/55/55 54/54/54 53/53/53
f 56/56/56 55/55/55 53/53/53
f 59/59/59 58/58/58 57/57/57
f 60/60/60 59/59/59 57/57/57
f 63/63/63 62/62/62 61/61/61
f 64/64/64 63/63/63 61/61/61
f 67/67/67 66/66/66 65/65/65
f 68/68/68 67/67/67 65/65/65
f 71/71/71 70/70/70 69/69/69
f 72/72/72 71/71/71 69/69/69
f 75/75/75 74/74/74 73/73/73
f 76/76/76 75/75/75 73/73/73
f 79/79/79 78/78/78 77/77/77
f 80/80/80 79/79/79 77/77/77
f 83/83/83 82/82/82 81/81/81
f 84/84/84 83/83/83 81/81/81
f 87/87/87 86/86/86 85/85/85
f 88/88/88 87/87/87 85/85/85
f 91/91/91 90/90/90 89/89/89
f 92/92/92 91/91/91 89/89/89
f 95/95/95 94/94/94 93/93/93
f 96/96/96 95/95/95 93/93/93
f 99/99/99 98/98/98 97/97/97
f 100/100/100 99/99/99 97/97/97
f 103/103/103 102/102/102 101/101/101
f 104/104/104 103/103/103 101/101/101
f 107/107/107 106/106/106 105/105/105
f 108/108/108 107/107/107 105/105/105
f 111/111/111 110/110/110 109/109/109
f 112/112/112 111/111/111 109/109/109
f 115/115/115 114/114/114 113/113/113
f 118/118/118 117/117/117 116/116/116
f 121/121/121 120/120/120 119/119/119
f 124/124/124 123/123/123 122/122/122
f 127/127/127 126/126/126 125/125/125
f 130/130/130 129/129/129 128/128/128
f 133/133/133 132/132/132 131/131/131
f 136/136/136 135/135/135 134/134/134
f 137/137/137 136/136/136 134/134/134
f 140/140/140 139/139/139 138/138/138
f 141/141/141 140/140/140 138/138/138
f 144/144/144 143/143/143 142/142/142
f 145/145/145 144/144/144 142/142/142
f 148/148/148 147/147/147 146/146/146
f 149/149/149 148/148/148 146/146/146
f 152/152/152 151/151/151 150/150/150
f 153/153/153 152/152/152 150/150/150
f 156/156/156 155/155/155 154/154/154
f 157/157/157 156/156/156 154/154/154
f 160/160/160 159/159/159 158/158/158
f 163/163/163 162/162/162 161/161/161
f 166/166/166 165/165/165 164/164/164
f 169/169/169 168/168/168 167/167/167
f 172/172/172 171/171/171 170/170/170
f 175/175/175 174/174/174 173/173/173
f 178/178/178 177/177/177 176/176/176
f 181/181/181 180/180/180 179/179/179
f 182/182/182 181/181/181 179/179/179
f 185/185/185 184/184/184 183/183/183
f 186/186/186 185/185/185 183/183/183
f 189/189/189 188/188/188 187/187/187
f 190/190/190 189/189/189 187/187/187
f 193/193/193 192/192/192 191/191/191
f 194/194/194 193/193/193 191/191/191
f 197/197/197 196/196/196 195/195/195
f 198/198/198 197/197/197 195/195/195
f 201/201/201 200/200/200 199/199/199
f 202/202/202 201/201/201 199/199/199
f 205/205/205 204/204/204 203/203/203
f 206/206/206 205/205/205 203/203/203
f 209/209/209 208/208/208 207/207/207
f 210/210/210 209/209/209 207/207/207
f 213/213/213 212/212/212 211/211/211
f 214/214/214 213/213/213 211/211/211
f 217/217/217 216/216/216 215/215/215
f 218/218/218 217/217/217 215/215/215
f 221/221/221 220/220/220 219/219/219
f 222/222/222 221/221/221 219/219/219
f 225/225/225 224/224/224 223/223/223
f 226/226/226 225/225/225 223/223/223
f 229/229/229 228/228/228 227/227/227
f 230/230/230 229/229/229 227/227/227
f 233/233/233 232/232/232 231/231/231
f 234/234/234 233/233/233 231/231/231
