g fort_defaultgates_door_mesh
v -1.893389 -0.07027206 0.06743717
v -1.893389 -0.07027192 -0.05470925
v -1.89339 3.970011 -0.05470201
v -1.89339 3.970011 0.06744321
v -1.771236 3.970011 0.06744321
v -1.771236 -0.07027206 0.06743722
v -1.893389 -0.07027206 0.06743717
v -1.89339 3.970011 0.06744321
v -1.771236 3.970011 0.06744321
v -1.771236 3.970011 -0.05470135
v -1.771236 -0.07027192 -0.05470823
v -1.771236 -0.07027206 0.06743722
v -1.282618 -0.07027206 0.06743721
v -1.282618 -0.07027192 -0.05470921
v -1.282619 3.970011 -0.05470202
v -1.282619 3.970011 0.06744318
v -1.160465 3.970011 0.06744313
v -1.160465 -0.07027206 0.06743728
v -1.282618 -0.07027206 0.06743721
v -1.282619 3.970011 0.06744318
v -1.160465 3.970011 0.06744313
v -1.160465 3.970011 -0.05470135
v -1.160465 -0.07027192 -0.05470816
v -1.160465 -0.07027206 0.06743728
v -0.6718484 -0.07027206 0.06743728
v -0.6718483 -0.07027192 -0.05470914
v -0.6718483 3.970011 -0.05470202
v -0.6718484 3.970011 0.0674431
v -0.5496937 -0.07027206 0.06743732
v -0.6718484 -0.07027206 0.06743728
v -0.6718484 3.970011 0.0674431
v -0.5496937 3.970011 0.0674431
v -0.5496937 -0.07027206 0.06743732
v -0.5496937 3.970011 0.0674431
v -0.5496936 3.970011 -0.05470135
v -0.5496936 -0.07027192 -0.05470813
v -0.06107734 -0.07027206 0.06743731
v -0.06107722 -0.07027192 -0.05470912
v -0.06107726 3.970011 -0.05470203
v -0.06107734 3.970011 0.06744304
v -0.06107734 3.970011 0.06744304
v 0.06107734 3.970011 0.06744304
v 0.06107734 -0.07027206 0.06743731
v -0.06107734 -0.07027206 0.06743731
v 0.06107734 -0.07027206 0.06743731
v 0.06107734 3.970011 0.06744304
v 0.06107741 3.970011 -0.05470203
v 0.06107745 -0.07027192 -0.05470912
v 0.5496937 -0.07027206 0.06743733
v 0.5496938 -0.07027192 -0.05470812
v 0.5496938 3.970011 -0.05470138
v 0.5496937 3.970011 0.06744303
v 0.5496937 3.970011 0.06744303
v 0.6718484 3.970011 0.06744303
v 0.6718484 -0.07027206 0.06743729
v 0.5496937 -0.07027206 0.06743733
v 0.6718484 -0.07027206 0.06743729
v 0.6718484 3.970011 0.06744303
v 0.6718484 3.970011 -0.05470205
v 0.6718484 -0.07027192 -0.05470913
v 1.160465 -0.07027206 0.06743729
v 1.160465 -0.07027192 -0.05470816
v 1.160465 3.970011 -0.05470142
v 1.160465 3.970011 0.06744299
v 1.160465 3.970011 0.06744299
v 1.282619 3.970011 0.06744295
v 1.282618 -0.07027206 0.06743722
v 1.160465 -0.07027206 0.06743729
v 1.282618 -0.07027206 0.06743722
v 1.282619 3.970011 0.06744295
v 1.28262 3.970011 -0.05470213
v 1.282618 -0.07027192 -0.05470921
v 1.771236 -0.07027206 0.06743722
v 1.771236 -0.07027192 -0.05470823
v 1.771236 3.970011 -0.05470148
v 1.771236 3.970011 0.06744293
v 1.771236 3.970011 0.06744293
v 1.89339 3.970011 0.06744293
v 1.893389 -0.07027206 0.06743717
v 1.771236 -0.07027206 0.06743722
v 1.893389 -0.07027206 0.06743717
v 1.89339 3.970011 0.06744293
v 1.89339 3.970011 -0.05470217
v 1.893389 -0.07027192 -0.05470925
v 2.443084 3.464415 0.006367723
v -2.443084 3.464415 0.006367913
v -2.443084 3.464415 0.1285141
v 2.443084 3.464415 0.1285141
v 2.443084 3.586568 0.1285142
v 2.443084 3.464415 0.1285141
v -2.443084 3.464415 0.1285141
v -2.443084 3.586568 0.1285142
v 2.443084 3.586569 0.006369719
v 2.443084 3.586568 0.1285142
v -2.443084 3.586568 0.1285142
v -2.443084 3.586569 0.006369911
v 2.443084 2.853643 0.006367711
v -2.443084 2.853643 0.006367901
v -2.443084 2.853643 0.1285141
v 2.443084 2.853643 0.1285141
v 2.443084 2.975797 0.1285142
v 2.443084 2.853643 0.1285141
v -2.443084 2.853643 0.1285141
v -2.443084 2.975797 0.1285142
v 2.443084 2.975797 0.006369728
v 2.443084 2.975797 0.1285142
v -2.443084 2.975797 0.1285142
v -2.443084 2.975797 0.00636988
v -1.771236 3.970011 -0.05470135
v -1.89339 3.970011 -0.05470201
v -1.893389 -0.07027192 -0.05470925
v -1.771236 -0.07027192 -0.05470823
v -1.160465 3.970011 -0.05470135
v -1.282619 3.970011 -0.05470202
v -1.282618 -0.07027192 -0.05470921
v -1.160465 -0.07027192 -0.05470816
v -0.5496936 -0.07027192 -0.05470813
v -0.5496936 3.970011 -0.05470135
v -0.6718483 3.970011 -0.05470202
v -0.6718483 -0.07027192 -0.05470914
v -0.06107726 3.970011 -0.05470203
v -0.06107722 -0.07027192 -0.05470912
v 0.06107745 -0.07027192 -0.05470912
v 0.06107741 3.970011 -0.05470203
v 0.5496938 3.970011 -0.05470138
v 0.5496938 -0.07027192 -0.05470812
v 0.6718484 -0.07027192 -0.05470913
v 0.6718484 3.970011 -0.05470205
v 1.160465 3.970011 -0.05470142
v 1.160465 -0.07027192 -0.05470816
v 1.282618 -0.07027192 -0.05470921
v 1.28262 3.970011 -0.05470213
v 1.771236 3.970011 -0.05470148
v 1.771236 -0.07027192 -0.05470823
v 1.893389 -0.07027192 -0.05470925
v 1.89339 3.970011 -0.05470217
v 2.443084 3.586569 0.006369719
v -2.443084 3.586569 0.006369911
v -2.443084 3.464415 0.006367913
v 2.443084 3.464415 0.006367723
v 2.443084 2.975797 0.006369728
v -2.443084 2.975797 0.00636988
v -2.443084 2.853643 0.006367901
v 2.443084 2.853643 0.006367711
v -1.771236 -0.07027206 0.06743722
v -1.771236 -0.07027192 -0.05470823
v -1.893389 -0.07027192 -0.05470925
v -1.893389 -0.07027206 0.06743717
v -1.160465 -0.07027206 0.06743728
v -1.160465 -0.07027192 -0.05470816
v -1.282618 -0.07027192 -0.05470921
v -1.282618 -0.07027206 0.06743721
v -0.5496937 -0.07027206 0.06743732
v -0.5496936 -0.07027192 -0.05470813
v -0.6718483 -0.07027192 -0.05470914
v -0.6718484 -0.07027206 0.06743728
v 0.06107734 -0.07027206 0.06743731
v 0.06107745 -0.07027192 -0.05470912
v -0.06107722 -0.07027192 -0.05470912
v -0.06107734 -0.07027206 0.06743731
v 0.6718484 -0.07027206 0.06743729
v 0.6718484 -0.07027192 -0.05470913
v 0.5496938 -0.07027192 -0.05470812
v 0.5496937 -0.07027206 0.06743733
v 1.282618 -0.07027206 0.06743722
v 1.282618 -0.07027192 -0.05470921
v 1.160465 -0.07027192 -0.05470816
v 1.160465 -0.07027206 0.06743729
v 1.893389 -0.07027206 0.06743717
v 1.893389 -0.07027192 -0.05470925
v 1.771236 -0.07027192 -0.05470823
v 1.771236 -0.07027206 0.06743722
v 2.443084 2.214413 0.006367777
v -2.443084 2.214413 0.006367968
v -2.443084 2.214413 0.1285142
v 2.443084 2.214413 0.1285142
v 2.443084 2.336567 0.1285142
v 2.443084 2.214413 0.1285142
v -2.443084 2.214413 0.1285142
v -2.443084 2.336567 0.1285142
v 2.443084 2.336567 0.006369775
v 2.443084 2.336567 0.1285142
v -2.443084 2.336567 0.1285142
v -2.443084 2.336567 0.006369966
v 2.443084 1.603642 0.006367765
v -2.443084 1.603642 0.006367956
v -2.443084 1.603642 0.1285142
v 2.443084 1.603642 0.1285142
v 2.443084 1.725796 0.1285142
v 2.443084 1.603642 0.1285142
v -2.443084 1.603642 0.1285142
v -2.443084 1.725796 0.1285142
v 2.443084 1.725796 0.006369782
v 2.443084 1.725796 0.1285142
v -2.443084 1.725796 0.1285142
v -2.443084 1.725796 0.006369934
v 2.443084 2.336567 0.006369775
v -2.443084 2.336567 0.006369966
v -2.443084 2.214413 0.006367968
v 2.443084 2.214413 0.006367777
v 2.443084 1.725796 0.006369782
v -2.443084 1.725796 0.006369934
v -2.443084 1.603642 0.006367956
v 2.443084 1.603642 0.006367765
v 2.443084 0.9754295 0.006367831
v -2.443084 0.9754295 0.006368022
v -2.443084 0.9754295 0.1285143
v 2.443084 0.9754295 0.1285143
v 2.443084 1.097583 0.1285143
v 2.443084 0.9754295 0.1285143
v -2.443084 0.9754295 0.1285143
v -2.443084 1.097583 0.1285143
v 2.443084 1.097583 0.006369829
v 2.443084 1.097583 0.1285143
v -2.443084 1.097583 0.1285143
v -2.443084 1.097583 0.00637002
v 2.443084 0.3646584 0.00636782
v -2.443084 0.3646584 0.00636801
v -2.443084 0.3646584 0.1285142
v 2.443084 0.3646584 0.1285142
v 2.443084 0.486812 0.1285143
v 2.443084 0.3646584 0.1285142
v -2.443084 0.3646584 0.1285142
v -2.443084 0.486812 0.1285143
v 2.443084 0.486812 0.006369836
v 2.443084 0.486812 0.1285143
v -2.443084 0.486812 0.1285143
v -2.443084 0.486812 0.006369989
v 2.443084 1.097583 0.006369829
v -2.443084 1.097583 0.00637002
v -2.443084 0.9754295 0.006368022
v 2.443084 0.9754295 0.006367831
v 2.443084 0.486812 0.006369836
v -2.443084 0.486812 0.006369989
v -2.443084 0.3646584 0.00636801
v 2.443084 0.3646584 0.00636782
vt 0.9609362 1.031896
vt 0.9765621 1.031896
vt 0.9765625 0.46875
vt 0.9609375 0.46875
vt 0.9609375 0.46875
vt 0.9609375 1.031896
vt 0.9765625 1.031896
vt 0.9765625 0.46875
vt 0.9765625 0.46875
vt 0.9609375 0.46875
vt 0.960939 1.031896
vt 0.9765629 1.031896
vt 0.9609362 1.031896
vt 0.9765621 1.031896
vt 0.9765625 0.46875
vt 0.9609375 0.46875
vt 0.9609375 0.46875
vt 0.9609375 1.031896
vt 0.9765625 1.031896
vt 0.9765625 0.46875
vt 0.9765625 0.46875
vt 0.9609375 0.46875
vt 0.960939 1.031896
vt 0.9765629 1.031896
vt 0.9609362 1.031896
vt 0.9765621 1.031896
vt 0.9765625 0.46875
vt 0.9609375 0.46875
vt 0.9609375 1.031896
vt 0.9765625 1.031896
vt 0.9765625 0.46875
vt 0.9609375 0.46875
vt 0.9765629 1.031896
vt 0.9765625 0.46875
vt 0.9609375 0.46875
vt 0.960939 1.031896
vt 0.9609362 1.031896
vt 0.9765621 1.031896
vt 0.9765625 0.46875
vt 0.9609375 0.46875
vt 0.9765625 0.46875
vt 0.9609375 0.46875
vt 0.9609375 1.031896
vt 0.9765625 1.031896
vt 0.9765629 1.031896
vt 0.9765625 0.46875
vt 0.9609375 0.46875
vt 0.960939 1.031896
vt 0.9609362 1.031896
vt 0.9765621 1.031896
vt 0.9765625 0.46875
vt 0.9609375 0.46875
vt 0.9765625 0.46875
vt 0.9609375 0.46875
vt 0.9609375 1.031896
vt 0.9765625 1.031896
vt 0.9765629 1.031896
vt 0.9765625 0.46875
vt 0.9609375 0.46875
vt 0.960939 1.031896
vt 0.9609362 1.031896
vt 0.9765621 1.031896
vt 0.9765625 0.46875
vt 0.9609375 0.46875
vt 0.9765625 0.46875
vt 0.9609375 0.46875
vt 0.9609373 1.031896
vt 0.9765625 1.031896
vt 0.9765629 1.031896
vt 0.9765625 0.46875
vt 0.9609375 0.46875
vt 0.960939 1.031896
vt 0.9609362 1.031896
vt 0.9765621 1.031896
vt 0.9765625 0.46875
vt 0.9609375 0.46875
vt 0.9765625 0.46875
vt 0.9609375 0.46875
vt 0.9609373 1.031896
vt 0.9765625 1.031896
vt 0.9765629 1.031896
vt 0.9765625 0.46875
vt 0.9609375 0.46875
vt 0.960939 1.031896
vt 0.953125 0.0078125
vt 0.953125 0.6875
vt 0.9765625 0.6875
vt 0.9765625 0.0078125
vt 0.9765625 0.0078125
vt 0.953125 0.0078125
vt 0.953125 0.6875
vt 0.9765625 0.6875
vt 0.9765625 0.0078125
vt 0.953125 0.0078125
vt 0.953125 0.6875
vt 0.9765625 0.6875
vt 0.953125 0.0078125
vt 0.953125 0.6875
vt 0.9765625 0.6875
vt 0.9765625 0.0078125
vt 0.9765625 0.0078125
vt 0.953125 0.0078125
vt 0.953125 0.6875
vt 0.9765625 0.6875
vt 0.9765625 0.0078125
vt 0.953125 0.0078125
vt 0.953125 0.6875
vt 0.9765625 0.6875
vt 0.9609375 0.46875
vt 0.9765625 0.46875
vt 0.9765627 1.031896
vt 0.9609375 1.031896
vt 0.9609375 0.46875
vt 0.9765625 0.46875
vt 0.9765627 1.031896
vt 0.9609375 1.031896
vt 0.9609375 1.031896
vt 0.9609375 0.46875
vt 0.9765625 0.46875
vt 0.9765625 1.031896
vt 0.9765625 0.46875
vt 0.9765625 1.031896
vt 0.9609375 1.031896
vt 0.9609375 0.46875
vt 0.9765625 0.46875
vt 0.9765625 1.031896
vt 0.9609375 1.031896
vt 0.9609375 0.46875
vt 0.9765625 0.46875
vt 0.9765625 1.031896
vt 0.9609375 1.031896
vt 0.9609375 0.46875
vt 0.9765625 0.46875
vt 0.9765625 1.031896
vt 0.9609375 1.031896
vt 0.9609375 0.46875
vt 0.9765625 0.0078125
vt 0.9765625 0.6875
vt 0.953125 0.6875
vt 0.953125 0.0078125
vt 0.9765625 0.0078125
vt 0.9765625 0.6875
vt 0.953125 0.6875
vt 0.953125 0.0078125
vt 0.9648434 0.6757813
vt 0.9648434 0.683593
vt 0.9726566 0.6835931
vt 0.9726566 0.6757814
vt 0.9648434 0.6757813
vt 0.9648434 0.683593
vt 0.9726566 0.6835931
vt 0.9726566 0.6757814
vt 0.9648433 0.6757813
vt 0.9648433 0.683593
vt 0.9726567 0.6835931
vt 0.9726567 0.6757814
vt 0.9648433 0.6757815
vt 0.9648433 0.6835932
vt 0.9726567 0.6835932
vt 0.9726567 0.6757815
vt 0.9648433 0.6757815
vt 0.9648433 0.6835932
vt 0.9726567 0.6835932
vt 0.9726567 0.6757814
vt 0.9648434 0.6757815
vt 0.9648434 0.6835932
vt 0.9726566 0.6835932
vt 0.9726566 0.6757814
vt 0.9648434 0.6757815
vt 0.9648434 0.6835932
vt 0.9726566 0.6835932
vt 0.9726566 0.6757814
vt 0.953125 0.0078125
vt 0.953125 0.6875
vt 0.9765625 0.6875
vt 0.9765625 0.0078125
vt 0.9765625 0.0078125
vt 0.953125 0.0078125
vt 0.953125 0.6875
vt 0.9765625 0.6875
vt 0.9765625 0.0078125
vt 0.953125 0.0078125
vt 0.953125 0.6875
vt 0.9765625 0.6875
vt 0.953125 0.0078125
vt 0.953125 0.6875
vt 0.9765625 0.6875
vt 0.9765625 0.0078125
vt 0.9765625 0.0078125
vt 0.953125 0.0078125
vt 0.953125 0.6875
vt 0.9765625 0.6875
vt 0.9765625 0.0078125
vt 0.953125 0.0078125
vt 0.953125 0.6875
vt 0.9765625 0.6875
vt 0.9765625 0.0078125
vt 0.9765625 0.6875
vt 0.953125 0.6875
vt 0.953125 0.0078125
vt 0.9765625 0.0078125
vt 0.9765625 0.6875
vt 0.953125 0.6875
vt 0.953125 0.0078125
vt 0.953125 0.0078125
vt 0.953125 0.6875
vt 0.9765625 0.6875
vt 0.9765625 0.0078125
vt 0.9765625 0.0078125
vt 0.953125 0.0078125
vt 0.953125 0.6875
vt 0.9765625 0.6875
vt 0.9765625 0.0078125
vt 0.953125 0.0078125
vt 0.953125 0.6875
vt 0.9765625 0.6875
vt 0.953125 0.0078125
vt 0.953125 0.6875
vt 0.9765625 0.6875
vt 0.9765625 0.0078125
vt 0.9765625 0.0078125
vt 0.953125 0.0078125
vt 0.953125 0.6875
vt 0.9765625 0.6875
vt 0.9765625 0.0078125
vt 0.953125 0.0078125
vt 0.953125 0.6875
vt 0.9765625 0.6875
vt 0.9765625 0.0078125
vt 0.9765625 0.6875
vt 0.953125 0.6875
vt 0.953125 0.0078125
vt 0.9765625 0.0078125
vt 0.9765625 0.6875
vt 0.953125 0.6875
vt 0.953125 0.0078125
vn -1 -2.950518E-07 9.66228E-07
vn -1 -2.950518E-07 9.66228E-07
vn -1 -2.950518E-07 9.66228E-07
vn -1 -2.950518E-07 9.66228E-07
vn -1.829803E-07 -1.490762E-06 1
vn -1.829803E-07 -1.490762E-06 1
vn -1.829803E-07 -1.490762E-06 1
vn -1.829803E-07 -1.490762E-06 1
vn 1 0 -9.662344E-07
vn 1 0 -9.662344E-07
vn 1 0 -9.662344E-07
vn 1 0 -9.662344E-07
vn -1 -2.950486E-07 -1.932456E-06
vn -1 -2.950486E-07 -1.932456E-06
vn -1 -2.950486E-07 -1.932456E-06
vn -1 -2.950486E-07 -1.932456E-06
vn -1.219879E-07 -1.464341E-06 1
vn -1.219879E-07 -1.464341E-06 1
vn -1.219879E-07 -1.464341E-06 1
vn -1.219879E-07 -1.464341E-06 1
vn 1 0 9.662348E-07
vn 1 0 9.662348E-07
vn 1 0 9.662348E-07
vn 1 0 9.662348E-07
vn -1 0 -4.831142E-07
vn -1 0 -4.831142E-07
vn -1 0 -4.831142E-07
vn -1 0 -4.831142E-07
vn -1.524825E-07 -1.432254E-06 1
vn -1.524825E-07 -1.432254E-06 1
vn -1.524825E-07 -1.432254E-06 1
vn -1.524825E-07 -1.432254E-06 1
vn 1 0 9.662349E-07
vn 1 0 9.662349E-07
vn 1 0 9.662349E-07
vn 1 0 9.662349E-07
vn -1 0 -7.548661E-07
vn -1 0 -7.548661E-07
vn -1 0 -7.548661E-07
vn -1 0 -7.548661E-07
vn 0 -1.420931E-06 1
vn 0 -1.420931E-06 1
vn 0 -1.420931E-06 1
vn 0 -1.420931E-06 1
vn 1 0 7.850607E-07
vn 1 0 7.850607E-07
vn 1 0 7.850607E-07
vn 1 0 7.850607E-07
vn -1 0 -9.662351E-07
vn -1 0 -9.662351E-07
vn -1 0 -9.662351E-07
vn -1 0 -9.662351E-07
vn 1.524825E-07 -1.41527E-06 1
vn 1.524825E-07 -1.41527E-06 1
vn 1.524825E-07 -1.41527E-06 1
vn 1.524825E-07 -1.41527E-06 1
vn 1 0 4.831143E-07
vn 1 0 4.831143E-07
vn 1 0 4.831143E-07
vn 1 0 4.831143E-07
vn -1 0 0
vn -1 0 0
vn -1 0 0
vn -1 0 0
vn 4.879484E-07 -1.414668E-06 1
vn 4.879484E-07 -1.414668E-06 1
vn 4.879484E-07 -1.414668E-06 1
vn 4.879484E-07 -1.414668E-06 1
vn 1 -2.950534E-07 9.662286E-07
vn 1 -2.950534E-07 9.662286E-07
vn 1 -2.950534E-07 9.662286E-07
vn 1 -2.950534E-07 9.662286E-07
vn -1 0 -9.662351E-07
vn -1 0 -9.662351E-07
vn -1 0 -9.662351E-07
vn -1 0 -9.662351E-07
vn 1.829803E-07 -1.420332E-06 1
vn 1.829803E-07 -1.420332E-06 1
vn 1.829803E-07 -1.420332E-06 1
vn 1.829803E-07 -1.420332E-06 1
vn 1 -2.950517E-07 9.662284E-07
vn 1 -2.950517E-07 9.662284E-07
vn 1 -2.950517E-07 9.662284E-07
vn 1 -2.950517E-07 9.662284E-07
vn 0 -1 0
vn 0 -1 0
vn 0 -1 0
vn 0 -1 0
vn 0 -3.99453E-07 1
vn 0 -3.99453E-07 1
vn 0 -3.99453E-07 1
vn 0 -3.99453E-07 1
vn 0 1 3.903881E-06
vn 0 1 3.903881E-06
vn 0 1 3.903881E-06
vn 0 1 3.903881E-06
vn 0 -1 0
vn 0 -1 0
vn 0 -1 0
vn 0 -1 0
vn 0 -1.997265E-07 1
vn 0 -1.997265E-07 1
vn 0 -1.997265E-07 1
vn 0 -1.997265E-07 1
vn 0 1 0
vn 0 1 0
vn 0 1 0
vn 0 1 0
vn 6.907508E-06 1.749331E-06 -1
vn 6.907508E-06 1.749331E-06 -1
vn 6.907508E-06 1.749331E-06 -1
vn 6.907508E-06 1.749331E-06 -1
vn 7.029487E-06 1.733289E-06 -1
vn 7.029487E-06 1.733289E-06 -1
vn 7.029487E-06 1.733289E-06 -1
vn 7.029487E-06 1.733289E-06 -1
vn 6.861711E-06 1.719081E-06 -1
vn 6.861711E-06 1.719081E-06 -1
vn 6.861711E-06 1.719081E-06 -1
vn 6.861711E-06 1.719081E-06 -1
vn 0 1.753048E-06 -1
vn 0 1.753048E-06 -1
vn 0 1.753048E-06 -1
vn 0 1.753048E-06 -1
vn -6.861715E-06 1.711534E-06 -1
vn -6.861715E-06 1.711534E-06 -1
vn -6.861715E-06 1.711534E-06 -1
vn -6.861715E-06 1.711534E-06 -1
vn -7.197204E-06 1.709654E-06 -1
vn -7.197204E-06 1.709654E-06 -1
vn -7.197204E-06 1.709654E-06 -1
vn -7.197204E-06 1.709654E-06 -1
vn -6.983749E-06 1.713433E-06 -1
vn -6.983749E-06 1.713433E-06 -1
vn -6.983749E-06 1.713433E-06 -1
vn -6.983749E-06 1.713433E-06 -1
vn 0 1.634942E-05 -1
vn 0 1.634942E-05 -1
vn 0 1.634942E-05 -1
vn 0 1.634942E-05 -1
vn 0 1.635573E-05 -1
vn 0 1.635573E-05 -1
vn 0 1.635573E-05 -1
vn 0 1.635573E-05 -1
vn 0 -1 -1.158949E-06
vn 0 -1 -1.158949E-06
vn 0 -1 -1.158949E-06
vn 0 -1 -1.158949E-06
vn 1.081891E-07 -1 -1.158951E-06
vn 1.081891E-07 -1 -1.158951E-06
vn 1.081891E-07 -1 -1.158951E-06
vn 1.081891E-07 -1 -1.158951E-06
vn 0 -1 -1.15895E-06
vn 0 -1 -1.15895E-06
vn 0 -1 -1.15895E-06
vn 0 -1 -1.15895E-06
vn 0 -1 -1.158945E-06
vn 0 -1 -1.158945E-06
vn 0 -1 -1.158945E-06
vn 0 -1 -1.158945E-06
vn 0 -1 -1.15895E-06
vn 0 -1 -1.15895E-06
vn 0 -1 -1.15895E-06
vn 0 -1 -1.15895E-06
vn 0 -1 -1.15895E-06
vn 0 -1 -1.15895E-06
vn 0 -1 -1.15895E-06
vn 0 -1 -1.15895E-06
vn 0 -1 -1.158949E-06
vn 0 -1 -1.158949E-06
vn 0 -1 -1.158949E-06
vn 0 -1 -1.158949E-06
vn 0 -1 0
vn 0 -1 0
vn 0 -1 0
vn 0 -1 0
vn 0 -2.995897E-07 1
vn 0 -2.995897E-07 1
vn 0 -2.995897E-07 1
vn 0 -2.995897E-07 1
vn 0 1 3.903881E-06
vn 0 1 3.903881E-06
vn 0 1 3.903881E-06
vn 0 1 3.903881E-06
vn 0 -1 0
vn 0 -1 0
vn 0 -1 0
vn 0 -1 0
vn 0 -1.997263E-07 1
vn 0 -1.997263E-07 1
vn 0 -1.997263E-07 1
vn 0 -1.997263E-07 1
vn 0 1 0
vn 0 1 0
vn 0 1 0
vn 0 1 0
vn 0 1.634942E-05 -1
vn 0 1.634942E-05 -1
vn 0 1.634942E-05 -1
vn 0 1.634942E-05 -1
vn 0 1.634947E-05 -1
vn 0 1.634947E-05 -1
vn 0 1.634947E-05 -1
vn 0 1.634947E-05 -1
vn 0 -1 0
vn 0 -1 0
vn 0 -1 0
vn 0 -1 0
vn 0 -1.997263E-07 1
vn 0 -1.997263E-07 1
vn 0 -1.997263E-07 1
vn 0 -1.997263E-07 1
vn 0 1 1.951941E-06
vn 0 1 1.951941E-06
vn 0 1 1.951941E-06
vn 0 1 1.951941E-06
vn 0 -1 0
vn 0 -1 0
vn 0 -1 0
vn 0 -1 0
vn 0 -2.995895E-07 1
vn 0 -2.995895E-07 1
vn 0 -2.995895E-07 1
vn 0 -2.995895E-07 1
vn 0 1 0
vn 0 1 0
vn 0 1 0
vn 0 1 0
vn 0 1.635568E-05 -1
vn 0 1.635568E-05 -1
vn 0 1.635568E-05 -1
vn 0 1.635568E-05 -1
vn 0 1.634948E-05 -1
vn 0 1.634948E-05 -1
vn 0 1.634948E-05 -1
vn 0 1.634948E-05 -1
g fort_defaultgates_door_mesh_0
f 3/3/3 2/2/2 1/1/1
f 4/4/4 3/3/3 1/1/1
f 7/7/7 6/6/6 5/5/5
f 8/8/8 7/7/7 5/5/5
f 11/11/11 10/10/10 9/9/9
f 12/12/12 11/11/11 9/9/9
f 15/15/15 14/14/14 13/13/13
f 16/16/16 15/15/15 13/13/13
f 19/19/19 18/18/18 17/17/17
f 20/20/20 19/19/19 17/17/17
f 23/23/23 22/22/22 21/21/21
f 24/24/24 23/23/23 21/21/21
f 27/27/27 26/26/26 25/25/25
f 28/28/28 27/27/27 25/25/25
f 31/31/31 30/30/30 29/29/29
f 32/32/32 31/31/31 29/29/29
f 35/35/35 34/34/34 33/33/33
f 36/36/36 35/35/35 33/33/33
f 39/39/39 38/38/38 37/37/37
f 40/40/40 39/39/39 37/37/37
f 43/43/43 42/42/42 41/41/41
f 44/44/44 43/43/43 41/41/41
f 47/47/47 46/46/46 45/45/45
f 48/48/48 47/47/47 45/45/45
f 51/51/51 50/50/50 49/49/49
f 52/52/52 51/51/51 49/49/49
f 55/55/55 54/54/54 53/53/53
f 56/56/56 55/55/55 53/53/53
f 59/59/59 58/58/58 57/57/57
f 60/60/60 59/59/59 57/57/57
f 63/63/63 62/62/62 61/61/61
f 64/64/64 63/63/63 61/61/61
f 67/67/67 66/66/66 65/65/65
f 68/68/68 67/67/67 65/65/65
f 71/71/71 70/70/70 69/69/69
f 72/72/72 71/71/71 69/69/69
f 75/75/75 74/74/74 73/73/73
f 76/76/76 75/75/75 73/73/73
f 79/79/79 78/78/78 77/77/77
f 80/80/80 79/79/79 77/77/77
f 83/83/83 82/82/82 81/81/81
f 84/84/84 83/83/83 81/81/81
f 87/87/87 86/86/86 85/85/85
f 88/88/88 87/87/87 85/85/85
f 91/91/91 90/90/90 89/89/89
f 92/92/92 91/91/91 89/89/89
f 95/95/95 94/94/94 93/93/93
f 96/96/96 95/95/95 93/93/93
f 99/99/99 98/98/98 97/97/97
f 100/100/100 99/99/99 97/97/97
f 103/103/103 102/102/102 101/101/101
f 104/104/104 103/103/103 101/101/101
f 107/107/107 106/106/106 105/105/105
f 108/108/108 107/107/107 105/105/105
f 111/111/111 110/110/110 109/109/109
f 112/112/112 111/111/111 109/109/109
f 115/115/115 114/114/114 113/113/113
f 116/116/116 115/115/115 113/113/113
f 119/119/119 118/118/118 117/117/117
f 120/120/120 119/119/119 117/117/117
f 123/123/123 122/122/122 121/121/121
f 124/124/124 123/123/123 121/121/121
f 127/127/127 126/126/126 125/125/125
f 128/128/128 127/127/127 125/125/125
f 131/131/131 130/130/130 129/129/129
f 132/132/132 131/131/131 129/129/129
f 135/135/135 134/134/134 133/133/133
f 136/136/136 135/135/135 133/133/133
f 139/139/139 138/138/138 137/137/137
f 140/140/140 139/139/139 137/137/137
f 143/143/143 142/142/142 141/141/141
f 144/144/144 143/143/143 141/141/141
f 147/147/147 146/146/146 145/145/145
f 148/148/148 147/147/147 145/145/145
f 151/151/151 150/150/150 149/149/149
f 152/152/152 151/151/151 149/149/149
f 155/155/155 154/154/154 153/153/153
f 156/156/156 155/155/155 153/153/153
f 159/159/159 158/158/158 157/157/157
f 160/160/160 159/159/159 157/157/157
f 163/163/163 162/162/162 161/161/161
f 164/164/164 163/163/163 161/161/161
f 167/167/167 166/166/166 165/165/165
f 168/168/168 167/167/167 165/165/165
f 171/171/171 170/170/170 169/169/169
f 172/172/172 171/171/171 169/169/169
f 175/175/175 174/174/174 173/173/173
f 176/176/176 175/175/175 173/173/173
f 179/179/179 178/178/178 177/177/177
f 180/180/180 179/179/179 177/177/177
f 183/183/183 182/182/182 181/181/181
f 184/184/184 183/183/183 181/181/181
f 187/187/187 186/186/186 185/185/185
f 188/188/188 187/187/187 185/185/185
f 191/191/191 190/190/190 189/189/189
f 192/192/192 191/191/191 189/189/189
f 195/195/195 194/194/194 193/193/193
f 196/196/196 195/195/195 193/193/193
f 199/199/199 198/198/198 197/197/197
f 200/200/200 199/199/199 197/197/197
f 203/203/203 202/202/202 201/201/201
f 204/204/204 203/203/203 201/201/201
f 207/207/207 206/206/206 205/205/205
f 208/208/208 207/207/207 205/205/205
f 211/211/211 210/210/210 209/209/209
f 212/212/212 211/211/211 209/209/209
f 215/215/215 214/214/214 213/213/213
f 216/216/216 215/215/215 213/213/213
f 219/219/219 218/218/218 217/217/217
f 220/220/220 219/219/219 217/217/217
f 223/223/223 222/222/222 221/221/221
f 224/224/224 223/223/223 221/221/221
f 227/227/227 226/226/226 225/225/225
f 228/228/228 227/227/227 225/225/225
f 231/231/231 230/230/230 229/229/229
f 232/232/232 231/231/231 229/229/229
f 235/235/235 234/234/234 233/233/233
f 236/236/236 235/235/235 233/233/233
