g fort_shadow
v 104.9867 -50.66948 3.403137
v 104.9867 -48.8544 -0.00800991
v 104.9867 -48.8544 3.403137
v 104.9867 -58.38355 3.403137
v 104.9867 -52.46943 7.403136
v 104.9867 -50.66948 7.403136
v 104.9867 -56.5836 7.403136
v 104.9867 -58.38355 7.403136
v 104.9867 -60.19863 -0.00800991
v 104.9867 -60.19863 3.403137
v 104.9867 -52.46943 9.403136
v 104.9867 -56.5836 9.403136
vn -1 0 0
vn -1 0 0
vn -1 0 0
vn -1 0 0
vn -1 0 0
vn -1 0 0
vn -1 0 0
vn -1 0 0
vn -1 0 0
vn -1 0 0
vn -1 0 0
vn -1 0 0
g fort_shadow_0
f 3/3/3 2/2/2 1/1/1
f 1/1/1 2/2/2 4/4/4
f 5/5/5 1/1/1 4/4/4
f 5/5/5 6/6/6 1/1/1
f 7/7/7 5/5/5 4/4/4
f 8/8/8 7/7/7 4/4/4
f 2/2/2 9/9/9 4/4/4
f 4/4/4 9/9/9 10/10/10
f 11/11/11 5/5/5 7/7/7
f 12/12/12 11/11/11 7/7/7
