g fort_trampoline_zone
v 2.249995 0.5624286 0.3374679
v 2.249995 -0.5625714 0.3374679
v 1.687495 1.687429 0.3374692
v 1.687495 -1.687566 0.3374692
v 0.5624945 -2.250066 0.3374679
v -0.5625055 -2.250066 0.3374679
v -1.687505 -1.687566 0.3374692
v -2.250005 -0.5625714 0.3374679
v -2.250005 0.5624286 0.3374679
v -1.687505 1.687429 0.3374692
v -0.5625055 2.249928 0.3374706
v 0.5624945 2.249928 0.3374706
vt 1 0.3125
vt 1 0.1875
vt 0.9375 0.4375
vt 0.9375 0.0625
vt 0.8125 0
vt 0.6875 0
vt 0.5625 0.0625
vt 0.5 0.1875
vt 0.5 0.3125
vt 0.5625 0.4375
vt 0.6875 0.5
vt 0.8125 0.5
vn 2.441406E-06 0 1
vn 2.441407E-06 0 1
vn 2.441406E-06 0 1
vn 2.441406E-06 0 1
vn -1.220703E-06 0 1
vn 0 -3.487729E-07 1
vn 8.138016E-07 -8.138031E-07 1
vn -8.138039E-07 8.138052E-07 1
vn -3.487723E-07 0 1
vn 0 -1.220703E-06 1
vn 0 -2.441407E-06 1
vn 0 -2.441406E-06 1
g fort_trampoline_zone_0
f 3/3/3 2/2/2 1/1/1
f 3/3/3 4/4/4 2/2/2
f 3/3/3 5/5/5 4/4/4
f 3/3/3 6/6/6 5/5/5
f 3/3/3 7/7/7 6/6/6
f 3/3/3 8/8/8 7/7/7
f 3/3/3 9/9/9 8/8/8
f 3/3/3 10/10/10 9/9/9
f 3/3/3 11/11/11 10/10/10
f 3/3/3 12/12/12 11/11/11
