# Mesh "fort_gate_castle_3_SI" exported with Unity Assets Bundle Extractor; 40 vertices, 60 indices, 40 bytes per vertex
g fort_gate_castle_3_SI
# SubMesh 0
# Vertices
v -3.496714 -1.017438 4.440692
vt -16.111788 2.213292
vn -0.000000 -0.341679 0.939817
v -3.496714 -1.151357 4.391947
vt -16.111788 2.438801
vn -0.000000 -0.341679 0.939817
v -3.639233 -1.151357 4.391947
vt -15.871798 2.438801
vn -0.000000 -0.341679 0.939817
v -3.639233 -1.017438 4.440692
vt -15.871798 2.213292
vn -0.000000 -0.341679 0.939817
v -3.734298 -0.806275 4.138373
vt -15.711716 0.968719
vn -0.000000 0.819752 0.572719
v -3.401696 -0.806275 4.138374
vt -16.271791 0.968720
vn -0.000000 0.819752 0.572719
v -3.496714 -1.017438 4.440692
vt -16.111788 1.477802
vn -0.000000 0.819752 0.572719
v -3.639233 -1.017438 4.440692
vt -15.871798 1.477802
vn -0.000000 0.819752 0.572719
v -3.734298 -0.806275 4.138373
vt 1.857708 0.968719
vn -0.966406 -0.088555 0.241281
v -3.639233 -1.017438 4.440692
vt 2.213292 1.477802
vn -0.966406 -0.088555 0.241281
v -3.639233 -1.151357 4.391947
vt 2.438801 1.395719
vn -0.966406 -0.088555 0.241281
v -3.734298 -1.118786 4.024633
vt 2.383954 0.777189
vn -0.966406 -0.088555 0.241281
v -3.401696 -0.806275 4.138374
vt -0.857708 0.968720
vn 0.966406 -0.088555 0.241281
v -3.401696 -1.118786 4.024633
vt -1.383953 0.777189
vn 0.966406 -0.088555 0.241281
v -3.496714 -1.151357 4.391947
vt -1.438801 1.395719
vn 0.966406 -0.088555 0.241281
v -3.496714 -1.017438 4.440692
vt -1.213292 1.477802
vn 0.966406 -0.088555 0.241281
v -3.734298 -1.118786 4.024633
vt 16.711716 0.777189
vn -0.000000 -0.996179 -0.087336
v -3.639233 -1.151357 4.391947
vt 16.871798 1.395719
vn -0.000000 -0.996179 -0.087336
v -3.496714 -1.151357 4.391947
vt 17.111788 1.395719
vn -0.000000 -0.996179 -0.087336
v -3.401696 -1.118786 4.024633
vt 17.271791 0.777189
vn -0.000000 -0.996179 -0.087336
v 3.496714 -1.017438 4.440692
vt -16.111788 2.213292
vn -0.000000 -0.341679 0.939817
v 3.639233 -1.017438 4.440692
vt -15.871798 2.213292
vn -0.000000 -0.341679 0.939817
v 3.639233 -1.151357 4.391947
vt -15.871798 2.438801
vn -0.000000 -0.341679 0.939817
v 3.496714 -1.151357 4.391947
vt -16.111788 2.438801
vn -0.000000 -0.341679 0.939817
v 3.734298 -0.806275 4.138373
vt -15.711716 0.968719
vn -0.000000 0.819752 0.572719
v 3.639233 -1.017438 4.440692
vt -15.871798 1.477802
vn -0.000000 0.819752 0.572719
v 3.496714 -1.017438 4.440692
vt -16.111788 1.477802
vn -0.000000 0.819752 0.572719
v 3.401696 -0.806275 4.138374
vt -16.271791 0.968720
vn -0.000000 0.819752 0.572719
v 3.734298 -0.806275 4.138373
vt 1.857708 0.968719
vn 0.966406 -0.088555 0.241281
v 3.734298 -1.118786 4.024633
vt 2.383954 0.777189
vn 0.966406 -0.088555 0.241281
v 3.639233 -1.151357 4.391947
vt 2.438801 1.395719
vn 0.966406 -0.088555 0.241281
v 3.639233 -1.017438 4.440692
vt 2.213292 1.477802
vn 0.966406 -0.088555 0.241281
v 3.401696 -0.806275 4.138374
vt -0.857708 0.968720
vn -0.966406 -0.088555 0.241281
v 3.496714 -1.017438 4.440692
vt -1.213292 1.477802
vn -0.966406 -0.088555 0.241281
v 3.496714 -1.151357 4.391947
vt -1.438801 1.395719
vn -0.966406 -0.088555 0.241281
v 3.401696 -1.118786 4.024633
vt -1.383953 0.777189
vn -0.966406 -0.088555 0.241281
v 3.734298 -1.118786 4.024633
vt 16.711716 0.777189
vn -0.000000 -0.996179 -0.087336
v 3.401696 -1.118786 4.024633
vt 17.271791 0.777189
vn -0.000000 -0.996179 -0.087336
v 3.496714 -1.151357 4.391947
vt 17.111788 1.395719
vn -0.000000 -0.996179 -0.087336
v 3.639233 -1.151357 4.391947
vt 16.871798 1.395719
vn -0.000000 -0.996179 -0.087336
# Faces (1 to 40)
f -38/-38/-38 -39/-39/-39 -40/-40/-40
f -37/-37/-37 -38/-38/-38 -40/-40/-40
f -34/-34/-34 -35/-35/-35 -36/-36/-36
f -33/-33/-33 -34/-34/-34 -36/-36/-36
f -30/-30/-30 -31/-31/-31 -32/-32/-32
f -29/-29/-29 -30/-30/-30 -32/-32/-32
f -26/-26/-26 -27/-27/-27 -28/-28/-28
f -25/-25/-25 -26/-26/-26 -28/-28/-28
f -22/-22/-22 -23/-23/-23 -24/-24/-24
f -21/-21/-21 -22/-22/-22 -24/-24/-24
f -18/-18/-18 -19/-19/-19 -20/-20/-20
f -17/-17/-17 -18/-18/-18 -20/-20/-20
f -14/-14/-14 -15/-15/-15 -16/-16/-16
f -13/-13/-13 -14/-14/-14 -16/-16/-16
f -10/-10/-10 -11/-11/-11 -12/-12/-12
f -9/-9/-9 -10/-10/-10 -12/-12/-12
f -6/-6/-6 -7/-7/-7 -8/-8/-8
f -5/-5/-5 -6/-6/-6 -8/-8/-8
f -2/-2/-2 -3/-3/-3 -4/-4/-4
f -1/-1/-1 -2/-2/-2 -4/-4/-4

