# Mesh "fort_stronghold_Op001" exported with Unity Assets Bundle Extractor; 88 vertices, 132 indices, 320 bits per vertex
g fort_stronghold_Op001
# SubMesh 0
# Vertices
v 48.726345 -8.068086 4.119481
vt 0.995231 0.465046
vn -0.000000 -1.000000 0.000000
v 47.585644 -8.068086 3.406403
vt 0.532807 0.000759
vn -0.000000 -1.000000 0.000000
v 47.612461 -8.068086 4.136404
vt 0.532806 0.465046
vn -0.000000 -1.000000 0.000000
v 48.699516 -8.068086 3.389480
vt 0.995225 0.000759
vn -0.000000 -1.000000 0.000000
v 45.764561 -8.068086 3.458735
vt 0.995222 0.000761
vn -0.000000 -1.000000 0.000000
v 44.742874 -8.068086 4.242889
vt 0.532806 0.465045
vn -0.000000 -1.000000 0.000000
v 45.853622 -8.068086 4.186689
vt 0.995222 0.465047
vn -0.000000 -1.000000 0.000000
v 44.653809 -8.068086 3.514934
vt 0.532806 0.000759
vn -0.000000 -1.000000 0.000000
v 53.104118 -8.068086 4.179130
vt 0.496535 0.467087
vn -0.000000 -1.000000 0.000000
v 52.040596 -8.068086 3.418328
vt 0.034203 0.002062
vn -0.000000 -1.000000 0.000000
v 51.990990 -8.068086 4.147834
vt 0.034201 0.467087
vn -0.000000 -1.000000 0.000000
v 53.153706 -8.068086 3.449621
vt 0.496530 0.002060
vn -0.000000 -1.000000 0.000000
v 54.684746 -8.068084 3.527747
vt 0.995224 0.000759
vn 0.000002 -1.000000 0.000000
v 53.446976 -8.068086 4.170382
vt 0.532809 0.465046
vn 0.000002 -1.000000 0.000000
v 54.553711 -8.068084 4.253074
vt 0.995224 0.465047
vn 0.000002 -1.000000 0.000000
v 53.578007 -8.068086 3.445059
vt 0.532806 0.000760
vn 0.000002 -1.000000 0.000000
v 47.284672 -8.068086 4.152141
vt 0.496530 0.467088
vn -0.000000 -1.000000 0.000000
v 46.111065 -8.068086 3.461508
vt 0.034201 0.002060
vn -0.000000 -1.000000 0.000000
v 46.172104 -8.068086 4.190656
vt 0.034201 0.467086
vn -0.000000 -1.000000 0.000000
v 47.223625 -8.068086 3.422992
vt 0.496528 0.002062
vn -0.000000 -1.000000 0.000000
v 50.197758 -8.068086 3.379921
vt 0.496536 0.002060
vn -0.000000 -1.000000 0.000000
v 49.062031 -8.068086 4.096266
vt 0.034203 0.467087
vn -0.000000 -1.000000 0.000000
v 50.175999 -8.068086 4.109993
vt 0.496529 0.467087
vn -0.000000 -1.000000 0.000000
v 49.083775 -8.068086 3.366196
vt 0.034201 0.002061
vn -0.000000 -1.000000 0.000000
v 51.633045 -8.068086 3.416193
vt 0.995224 0.000759
vn -0.000000 -1.000000 0.000000
v 50.492176 -8.068086 4.129153
vt 0.532806 0.465047
vn -0.000000 -1.000000 0.000000
v 51.606033 -8.068086 4.146191
vt 0.995219 0.465047
vn -0.000000 -1.000000 0.000000
v 50.519180 -8.068086 3.399155
vt 0.532806 0.000759
vn -0.000000 -1.000000 0.000000
v 49.738777 -8.072462 4.086321
vt 0.126999 0.904055
vn -0.000000 -1.000000 0.000000
v 45.431778 -8.072462 4.231319
vt 0.012471 0.955393
vn -0.000000 -1.000000 0.000000
v 49.740955 -8.072462 4.123485
vt 0.126990 0.955551
vn -0.000000 -1.000000 0.000000
v 45.416328 -8.072462 4.194602
vt 0.010964 0.904055
vn -0.000000 -1.000000 0.000000
v 53.740208 -8.072462 4.179078
vt 0.090310 0.904055
vn -0.000000 -1.000000 0.000000
v 49.740955 -8.072462 4.123485
vt 0.011450 0.955411
vn -0.000000 -1.000000 0.000000
v 53.729324 -8.072462 4.216030
vt 0.089306 0.955538
vn -0.000000 -1.000000 0.000000
v 49.738777 -8.072462 4.086321
vt 0.010964 0.904055
vn -0.000000 -1.000000 0.000000
v 53.740208 -8.072462 4.179078
vt 0.011649 0.904055
vn 0.000001 -1.000000 0.000001
v 54.811356 -8.072461 4.269986
vt 0.134734 0.955452
vn 0.000001 -1.000000 0.000001
v 54.834412 -8.072461 4.233910
vt 0.136815 0.904055
vn 0.000001 -1.000000 0.000001
v 53.729324 -8.072462 4.216030
vt 0.010964 0.955821
vn 0.000001 -1.000000 0.000000
v 45.416328 -8.072462 4.194602
vt 0.128015 0.904055
vn -0.000000 -1.000000 0.000000
v 44.418106 -8.072462 4.238118
vt 0.013909 0.953589
vn -0.000000 -1.000000 0.000000
v 45.431778 -8.072462 4.231319
vt 0.129516 0.955057
vn -0.000000 -1.000000 0.000000
v 44.390064 -8.072462 4.202559
vt 0.010964 0.904055
vn -0.000000 -1.000000 0.000000
v 48.726345 7.996142 4.119481
vt 0.995231 0.465046
vn -0.000000 1.000000 0.000000
v 47.585644 7.996142 3.406403
vt 0.532807 0.000759
vn -0.000000 1.000000 0.000000
v 48.699516 7.996142 3.389480
vt 0.995225 0.000759
vn -0.000000 1.000000 0.000000
v 47.612461 7.996142 4.136404
vt 0.532806 0.465046
vn -0.000000 1.000000 0.000000
v 45.764561 7.996142 3.458735
vt 0.995222 0.000761
vn -0.000000 1.000000 0.000000
v 44.742874 7.996142 4.242889
vt 0.532806 0.465045
vn -0.000000 1.000000 0.000000
v 44.653809 7.996142 3.514934
vt 0.532806 0.000759
vn -0.000000 1.000000 0.000000
v 45.853622 7.996142 4.186689
vt 0.995222 0.465047
vn -0.000000 1.000000 0.000000
v 53.104118 7.996142 4.179130
vt 0.496535 0.467087
vn -0.000000 1.000000 0.000000
v 52.040596 7.996142 3.418328
vt 0.034203 0.002062
vn -0.000000 1.000000 0.000000
v 53.153706 7.996142 3.449621
vt 0.496530 0.002060
vn -0.000000 1.000000 0.000000
v 51.990990 7.996142 4.147834
vt 0.034201 0.467087
vn -0.000000 1.000000 0.000000
v 54.684746 7.996140 3.527747
vt 0.995224 0.000759
vn 0.000002 1.000000 0.000000
v 53.446976 7.996142 4.170382
vt 0.532809 0.465046
vn 0.000002 1.000000 0.000000
v 53.578007 7.996142 3.445059
vt 0.532806 0.000760
vn 0.000002 1.000000 0.000000
v 54.553711 7.996140 4.253074
vt 0.995224 0.465047
vn 0.000002 1.000000 0.000000
v 47.284672 7.996142 4.152141
vt 0.496530 0.467088
vn -0.000000 1.000000 0.000000
v 46.111065 7.996142 3.461508
vt 0.034201 0.002060
vn -0.000000 1.000000 0.000000
v 47.223625 7.996142 3.422992
vt 0.496528 0.002062
vn -0.000000 1.000000 0.000000
v 46.172104 7.996142 4.190656
vt 0.034201 0.467086
vn -0.000000 1.000000 0.000000
v 50.197758 7.996142 3.379921
vt 0.496536 0.002060
vn -0.000000 1.000000 0.000000
v 49.062031 7.996142 4.096266
vt 0.034203 0.467087
vn -0.000000 1.000000 0.000000
v 49.083775 7.996142 3.366196
vt 0.034201 0.002061
vn -0.000000 1.000000 0.000000
v 50.175999 7.996142 4.109993
vt 0.496529 0.467087
vn -0.000000 1.000000 0.000000
v 51.633045 7.996142 3.416193
vt 0.995224 0.000759
vn -0.000000 1.000000 0.000000
v 50.492176 7.996142 4.129153
vt 0.532806 0.465047
vn -0.000000 1.000000 0.000000
v 50.519180 7.996142 3.399155
vt 0.532806 0.000759
vn -0.000000 1.000000 0.000000
v 51.606033 7.996142 4.146191
vt 0.995219 0.465047
vn -0.000000 1.000000 0.000000
v 49.738777 8.000519 4.086321
vt 0.126999 0.904055
vn -0.000000 1.000000 0.000000
v 45.431778 8.000519 4.231319
vt 0.012471 0.955393
vn -0.000000 1.000000 0.000000
v 45.416328 8.000519 4.194602
vt 0.010964 0.904055
vn -0.000000 1.000000 0.000000
v 49.740955 8.000519 4.123485
vt 0.126990 0.955551
vn -0.000000 1.000000 0.000000
v 53.740208 8.000519 4.179078
vt 0.090310 0.904055
vn -0.000000 1.000000 0.000000
v 49.740955 8.000519 4.123485
vt 0.011450 0.955411
vn -0.000000 1.000000 0.000000
v 49.738777 8.000519 4.086321
vt 0.010964 0.904055
vn -0.000000 1.000000 0.000000
v 53.729324 8.000519 4.216030
vt 0.089306 0.955538
vn -0.000000 1.000000 0.000000
v 53.740208 8.000519 4.179078
vt 0.011649 0.904055
vn 0.000001 1.000000 0.000000
v 54.811356 8.000518 4.269986
vt 0.134734 0.955452
vn 0.000001 1.000000 0.000000
v 53.729324 8.000519 4.216030
vt 0.010964 0.955821
vn 0.000001 1.000000 0.000000
v 54.834412 8.000518 4.233910
vt 0.136815 0.904055
vn 0.000001 1.000000 0.000001
v 45.416328 8.000519 4.194602
vt 0.128015 0.904055
vn -0.000000 1.000000 0.000000
v 44.418106 8.000519 4.238118
vt 0.013909 0.953589
vn -0.000000 1.000000 0.000000
v 44.390064 8.000519 4.202559
vt 0.010964 0.904055
vn -0.000000 1.000000 0.000000
v 45.431778 8.000519 4.231319
vt 0.129516 0.955057
vn -0.000000 1.000000 0.000000
# Faces (1 to 88)
g fort_stronghold_Op001_0
f -86/-86/-86 -87/-87/-87 -88/-88/-88
f -85/-85/-85 -88/-88/-88 -87/-87/-87
f -82/-82/-82 -83/-83/-83 -84/-84/-84
f -81/-81/-81 -84/-84/-84 -83/-83/-83
f -78/-78/-78 -79/-79/-79 -80/-80/-80
f -77/-77/-77 -80/-80/-80 -79/-79/-79
f -74/-74/-74 -75/-75/-75 -76/-76/-76
f -73/-73/-73 -76/-76/-76 -75/-75/-75
f -70/-70/-70 -71/-71/-71 -72/-72/-72
f -69/-69/-69 -72/-72/-72 -71/-71/-71
f -66/-66/-66 -67/-67/-67 -68/-68/-68
f -65/-65/-65 -68/-68/-68 -67/-67/-67
f -62/-62/-62 -63/-63/-63 -64/-64/-64
f -61/-61/-61 -64/-64/-64 -63/-63/-63
f -58/-58/-58 -59/-59/-59 -60/-60/-60
f -57/-57/-57 -60/-60/-60 -59/-59/-59
f -54/-54/-54 -55/-55/-55 -56/-56/-56
f -53/-53/-53 -56/-56/-56 -55/-55/-55
f -50/-50/-50 -51/-51/-51 -52/-52/-52
f -49/-49/-49 -52/-52/-52 -51/-51/-51
f -46/-46/-46 -47/-47/-47 -48/-48/-48
f -45/-45/-45 -48/-48/-48 -47/-47/-47
f -42/-42/-42 -43/-43/-43 -44/-44/-44
f -41/-41/-41 -44/-44/-44 -43/-43/-43
f -38/-38/-38 -39/-39/-39 -40/-40/-40
f -37/-37/-37 -40/-40/-40 -39/-39/-39
f -34/-34/-34 -35/-35/-35 -36/-36/-36
f -33/-33/-33 -36/-36/-36 -35/-35/-35
f -30/-30/-30 -31/-31/-31 -32/-32/-32
f -29/-29/-29 -32/-32/-32 -31/-31/-31
f -26/-26/-26 -27/-27/-27 -28/-28/-28
f -25/-25/-25 -28/-28/-28 -27/-27/-27
f -22/-22/-22 -23/-23/-23 -24/-24/-24
f -21/-21/-21 -24/-24/-24 -23/-23/-23
f -18/-18/-18 -19/-19/-19 -20/-20/-20
f -17/-17/-17 -20/-20/-20 -19/-19/-19
f -14/-14/-14 -15/-15/-15 -16/-16/-16
f -13/-13/-13 -16/-16/-16 -15/-15/-15
f -10/-10/-10 -11/-11/-11 -12/-12/-12
f -9/-9/-9 -12/-12/-12 -11/-11/-11
f -6/-6/-6 -7/-7/-7 -8/-8/-8
f -5/-5/-5 -8/-8/-8 -7/-7/-7
f -2/-2/-2 -3/-3/-3 -4/-4/-4
f -1/-1/-1 -4/-4/-4 -3/-3/-3

