g FPS_PLAYER_Arm_left
v 0.2500006 -0.1250006 -0.6249999
v -4.440536E-07 -0.1250006 -0.6249999
v -5.096207E-07 -0.1250006 0.1249997
v 0.2500005 -0.1250006 0.1249998
v 0.2500006 0.1249998 -0.6249999
v 0.2500005 0.1249998 0.1249998
v -5.096207E-07 0.1249998 0.1249997
v -4.440536E-07 0.1249998 -0.6249999
v 0.2500006 -0.1250006 -0.6249999
v 0.2500006 0.1249998 -0.6249999
v -4.440536E-07 0.1249998 -0.6249999
v -4.440536E-07 -0.1250006 -0.6249999
v -4.440536E-07 -0.1250006 -0.6249999
v -4.440536E-07 0.1249998 -0.6249999
v -5.096207E-07 0.1249998 0.1249997
v -5.096207E-07 -0.1250006 0.1249997
v -5.096207E-07 -0.1250006 0.1249997
v -5.096207E-07 0.1249998 0.1249997
v 0.2500005 0.1249998 0.1249998
v 0.2500005 -0.1250006 0.1249998
v 0.2500005 -0.1250006 0.1249998
v 0.2500005 0.1249998 0.1249998
v 0.2500006 0.1249998 -0.6249999
v 0.2500006 -0.1250006 -0.6249999
vt 0.8749058 0.0002772452
vt 0.8125199 0.0002772452
vt 0.8125199 0.3749776
vt 0.8749058 0.3749776
vt 0.6876549 0.0006676987
vt 0.6876549 0.3747333
vt 0.7498414 0.3747333
vt 0.7498413 0.0006676987
vt 0.7502348 0.4995673
vt 0.7502348 0.3751937
vt 0.8124284 0.3751937
vt 0.8124284 0.4995673
vt 0.8123293 0.0004921891
vt 0.7500771 0.0004921574
vt 0.7500771 0.3748665
vt 0.8123293 0.3748665
vt 0.6876221 0.4997762
vt 0.6876222 0.3753211
vt 0.7498814 0.3753211
vt 0.7498813 0.4997762
vt 0.6251479 0.3747509
vt 0.6873756 0.3747505
vt 0.6873756 0.0002376686
vt 0.6251479 0.0002380711
vn 0 -1 0
vn 0 -1 0
vn 0 -1 0
vn 0 -1 0
vn 0 1 0
vn 0 1 0
vn 0 1 0
vn 0 1 0
vn 0 0 -1
vn 0 0 -1
vn 0 0 -1
vn 0 0 -1
vn -1 0 0
vn -1 0 0
vn -1 0 0
vn -1 0 0
vn 0 0 1
vn 0 0 1
vn 0 0 1
vn 0 0 1
vn 1 0 0
vn 1 0 0
vn 1 0 0
vn 1 0 0
g FPS_PLAYER_Arm_left_0
f 3/3/3 2/2/2 1/1/1
f 4/4/4 3/3/3 1/1/1
f 7/7/7 6/6/6 5/5/5
f 8/8/8 7/7/7 5/5/5
f 11/11/11 10/10/10 9/9/9
f 12/12/12 11/11/11 9/9/9
f 15/15/15 14/14/14 13/13/13
f 16/16/16 15/15/15 13/13/13
f 19/19/19 18/18/18 17/17/17
f 20/20/20 19/19/19 17/17/17
f 23/23/23 22/22/22 21/21/21
f 24/24/24 23/23/23 21/21/21
