# Mesh "FPS_PLAYER_Arm_right" exported with Unity Assets Bundle Extractor; 24 vertices, 36 indices, 48 bytes per vertex
g FPS_PLAYER_Arm_right
# SubMesh 0
# Vertices
v 0.119304 0.255333 0.125000
vt 0.749947 0.375123
vn 1.000000 0.000996 -0.000001
v 0.119304 0.255333 -0.125000
vt 0.749947 0.499796
vn 1.000000 0.000996 -0.000001
v 0.119553 0.005334 -0.125000
vt 0.687630 0.499796
vn 1.000000 0.000996 -0.000001
v 0.119553 0.005333 0.125000
vt 0.687630 0.375123
vn 1.000000 0.000996 -0.000001
v -0.630695 0.254586 0.125001
vt 0.750142 0.375123
vn -1.000000 -0.000996 0.000001
v -0.630447 0.004586 0.125001
vt 0.812459 0.375123
vn -1.000000 -0.000996 0.000001
v -0.630447 0.004587 -0.124999
vt 0.812459 0.499796
vn -1.000000 -0.000996 0.000001
v -0.630696 0.254587 -0.124999
vt 0.750142 0.499796
vn -1.000000 -0.000996 0.000001
v 0.119304 0.255333 0.125000
vt 0.687464 0.374913
vn -0.000996 1.000000 0.000001
v -0.630695 0.254586 0.125001
vt 0.687464 0.000121
vn -0.000996 1.000000 0.000001
v -0.630696 0.254587 -0.124999
vt 0.625034 0.000121
vn -0.000996 1.000000 0.000001
v 0.119304 0.255333 -0.125000
vt 0.625034 0.374913
vn -0.000996 1.000000 0.000001
v -0.630447 0.004587 -0.124999
vt 0.812484 0.000080
vn -0.000001 0.000001 -1.000000
v 0.119553 0.005334 -0.125000
vt 0.812484 0.374995
vn -0.000001 0.000001 -1.000000
v 0.119304 0.255333 -0.125000
vt 0.874961 0.374994
vn -0.000001 0.000001 -1.000000
v -0.630696 0.254587 -0.124999
vt 0.874961 0.000080
vn -0.000001 0.000001 -1.000000
v 0.119553 0.005333 0.125000
vt 0.750047 0.374913
vn 0.000996 -1.000000 -0.000001
v -0.630447 0.004587 -0.124999
vt 0.812476 0.000121
vn 0.000996 -1.000000 -0.000001
v -0.630447 0.004586 0.125001
vt 0.750047 0.000121
vn 0.000996 -1.000000 -0.000001
v 0.119553 0.005334 -0.125000
vt 0.812476 0.374913
vn 0.000996 -1.000000 -0.000001
v -0.630447 0.004586 0.125001
vt 0.749987 0.000080
vn 0.000001 -0.000001 1.000000
v 0.119304 0.255333 0.125000
vt 0.687509 0.374995
vn 0.000001 -0.000001 1.000000
v 0.119553 0.005333 0.125000
vt 0.749987 0.374994
vn 0.000001 -0.000001 1.000000
v -0.630695 0.254586 0.125001
vt 0.687509 0.000080
vn 0.000001 -0.000001 1.000000
# Faces (1 to 24)
f -22/-22/-22 -23/-23/-23 -24/-24/-24
f -24/-24/-24 -21/-21/-21 -22/-22/-22
f -18/-18/-18 -19/-19/-19 -20/-20/-20
f -20/-20/-20 -17/-17/-17 -18/-18/-18
f -14/-14/-14 -15/-15/-15 -16/-16/-16
f -16/-16/-16 -13/-13/-13 -14/-14/-14
f -10/-10/-10 -11/-11/-11 -12/-12/-12
f -12/-12/-12 -9/-9/-9 -10/-10/-10
f -6/-6/-6 -7/-7/-7 -8/-8/-8
f -7/-7/-7 -5/-5/-5 -8/-8/-8
f -2/-2/-2 -3/-3/-3 -4/-4/-4
f -1/-1/-1 -4/-4/-4 -3/-3/-3

