g gadget_molotov_mesh
v -0.1132926 0.174906 0.0823252
v -0.08574544 -0.1899508 0.08228708
v -0.06829974 -0.1886146 -0.09982198
v -0.09584691 0.1762422 -0.09978387
v -0.07761708 0.2326435 0.04940846
v -0.073485 0.1779149 0.04940274
v -0.06301758 0.1787167 -0.0598627
v -0.06714966 0.2334452 -0.05985698
v -0.06873214 0.3800907 0.03296248
v -0.05771327 0.234148 0.03294723
v -0.050735 0.2346824 -0.0398964
v -0.06175387 0.3806252 -0.03988115
v -0.0502057 0.399838 0.01650315
v -0.04882834 0.3815951 0.01650125
v -0.0453392 0.3818624 -0.01992057
v -0.04671656 0.4001052 -0.01991866
v -0.05608235 0.4544329 0.03471978
v -0.05195027 0.3997044 0.03471406
v -0.044972 0.4002389 -0.03812957
v -0.04910407 0.4549674 -0.03812385
v 0.02068667 0.4051878 0.04171278
v 0.03170554 0.2592451 0.04169753
v 0.03868382 0.2597796 -0.0311461
v 0.02766495 0.4057223 -0.03113085
v -0.009020735 0.3846041 -0.01642121
v -0.01250987 0.3843369 0.0200006
v -0.01388723 0.4025797 0.02000251
v -0.01039809 0.402847 -0.0164193
v 0.02190194 0.2401659 -0.03289768
v 0.01492366 0.2396314 0.03994595
v 0.00390479 0.3855741 0.03996119
v 0.01088307 0.3861086 -0.03288244
v 0.04593783 0.1869418 -0.04936463
v 0.03547041 0.1861401 0.05990081
v 0.03133833 0.2408687 0.05990653
v 0.04180575 0.2416704 -0.04935892
v 0.1132926 -0.174906 -0.0823252
v 0.09584691 -0.1762422 0.09978387
v 0.06829974 0.1886146 0.09982198
v 0.08574544 0.1899508 -0.08228708
v 0.08902945 0.3186207 -0.02589135
v 0.08205117 0.3180862 0.04695228
v 0.0710323 0.464029 0.04696753
v 0.07801058 0.4645634 -0.0258761
v 0.12948 0.2666339 -0.02239771
v 0.1225017 0.2660994 0.05044592
v 0.1183696 0.3208279 0.05045164
v 0.1253479 0.3213624 -0.02239199
v 0.09584691 -0.1762422 0.09978387
v -0.08574544 -0.1899508 0.08228708
v -0.1132926 0.174906 0.0823252
v 0.06829974 0.1886146 0.09982198
v 0.03547041 0.1861401 0.05990081
v -0.073485 0.1779149 0.04940274
v -0.07761708 0.2326435 0.04940846
v 0.03133833 0.2408687 0.05990653
v 0.01492366 0.2396314 0.03994595
v -0.05771327 0.234148 0.03294723
v -0.06873214 0.3800907 0.03296248
v 0.00390479 0.3855741 0.03996119
v 0.02068667 0.4051878 0.04171278
v -0.05195027 0.3997044 0.03471406
v -0.05608235 0.4544329 0.03471978
v 0.0710323 0.464029 0.04696753
v 0.08205117 0.3180862 0.04695228
v 0.03170554 0.2592451 0.04169753
v 0.1225017 0.2660994 0.05044592
v 0.1183696 0.3208279 0.05045164
v -0.01250987 0.3843369 0.0200006
v -0.04882834 0.3815951 0.01650125
v -0.0502057 0.399838 0.01650315
v -0.01388723 0.4025797 0.02000251
v -0.04671656 0.4001052 -0.01991866
v -0.0453392 0.3818624 -0.01992057
v -0.009020735 0.3846041 -0.01642121
v -0.01039809 0.402847 -0.0164193
v -0.06175387 0.3806252 -0.03988115
v -0.050735 0.2346824 -0.0398964
v 0.02190194 0.2401659 -0.03289768
v 0.01088307 0.3861086 -0.03288244
v -0.04910407 0.4549674 -0.03812385
v -0.044972 0.4002389 -0.03812957
v 0.02766495 0.4057223 -0.03113085
v 0.07801058 0.4645634 -0.0258761
v 0.08902945 0.3186207 -0.02589135
v 0.03868382 0.2597796 -0.0311461
v 0.12948 0.2666339 -0.02239771
v 0.1253479 0.3213624 -0.02239199
v -0.06714966 0.2334452 -0.05985698
v -0.06301758 0.1787167 -0.0598627
v 0.04593783 0.1869418 -0.04936463
v 0.04180575 0.2416704 -0.04935892
v -0.09584691 0.1762422 -0.09978387
v -0.06829974 -0.1886146 -0.09982198
v 0.1132926 -0.174906 -0.0823252
v 0.08574544 0.1899508 -0.08228708
v -0.06829974 -0.1886146 -0.09982198
v -0.08574544 -0.1899508 0.08228708
v 0.09584691 -0.1762422 0.09978387
v 0.1132926 -0.174906 -0.0823252
v 0.03868382 0.2597796 -0.0311461
v 0.03170554 0.2592451 0.04169753
v 0.1225017 0.2660994 0.05044592
v 0.12948 0.2666339 -0.02239771
v 0.02766495 0.4057223 -0.03113085
v -0.044972 0.4002389 -0.03812957
v -0.05195027 0.3997044 0.03471406
v 0.02068667 0.4051878 0.04171278
v 0.06829974 0.1886146 0.09982198
v -0.1132926 0.174906 0.0823252
v -0.09584691 0.1762422 -0.09978387
v 0.08574544 0.1899508 -0.08228708
v 0.04180575 0.2416704 -0.04935892
v 0.03133833 0.2408687 0.05990653
v -0.07761708 0.2326435 0.04940846
v -0.06714966 0.2334452 -0.05985698
v 0.1183696 0.3208279 0.05045164
v 0.08205117 0.3180862 0.04695228
v 0.08902945 0.3186207 -0.02589135
v 0.1253479 0.3213624 -0.02239199
v 0.00390479 0.3855741 0.03996119
v -0.06873214 0.3800907 0.03296248
v -0.06175387 0.3806252 -0.03988115
v 0.01088307 0.3861086 -0.03288244
v 0.0710323 0.464029 0.04696753
v -0.05608235 0.4544329 0.03471978
v -0.04910407 0.4549674 -0.03812385
v 0.07801058 0.4645634 -0.0258761
v -0.06429482 -0.1440233 0.02035245
v -0.07531369 0.001919412 0.02036771
v 0.01548266 0.008773733 0.02911611
v 0.02650153 -0.137169 0.02910086
v 0.03173527 -0.1367681 -0.02553188
v 0.02071641 0.009174596 -0.02551662
v -0.07007982 0.002320284 -0.03426503
v -0.05906095 -0.1436224 -0.03428027
v 0.06812424 0.09185894 0.03476863
v 0.05127662 0.001978616 0.03249517
v 0.01548272 0.008773575 0.02911599
v 0.03233038 0.09865391 0.03138945
v 0.07335792 0.09225976 -0.01986411
v 0.03756405 0.09905475 -0.02324326
v 0.02071643 0.009174415 -0.02551671
v 0.05651029 0.002379454 -0.02213756
v -0.07007982 0.002320284 -0.03426503
v 0.02071641 0.009174596 -0.02551662
v 0.01548266 0.008773733 0.02911611
v -0.07531369 0.001919412 0.02036771
v -0.05906095 -0.1436224 -0.03428027
v -0.07007982 0.002320284 -0.03426503
v -0.07531369 0.001919412 0.02036771
v -0.06429482 -0.1440233 0.02035245
v 0.03173527 -0.1367681 -0.02553188
v -0.05906095 -0.1436224 -0.03428027
v -0.06429482 -0.1440233 0.02035245
v 0.02650153 -0.137169 0.02910086
v 0.03173527 -0.1367681 -0.02553188
v 0.02650153 -0.137169 0.02910086
v 0.01548266 0.008773733 0.02911611
v 0.02071641 0.009174596 -0.02551662
v 0.07335792 0.09225976 -0.01986411
v 0.06812424 0.09185894 0.03476863
v 0.03233038 0.09865391 0.03138945
v 0.03756405 0.09905475 -0.02324326
v 0.06812424 0.09185894 0.03476863
v 0.07335792 0.09225976 -0.01986411
v 0.05651029 0.002379454 -0.02213756
v 0.05127662 0.001978616 0.03249517
v 0.01548272 0.008773575 0.02911599
v 0.05127662 0.001978616 0.03249517
v 0.05651029 0.002379454 -0.02213756
v 0.02071643 0.009174415 -0.02551671
v -0.05505177 0.0217994 -0.01420664
v -0.05678681 0.0216665 0.003904819
v -0.05540955 0.003423878 0.00390292
v -0.0536745 0.003556754 -0.01420852
v -0.0009316542 0.007536497 0.009151978
v -0.002308995 0.02577912 0.009153875
v -0.0005738764 0.02591201 -0.008957571
v 0.0008033882 0.007669364 -0.008959456
v -0.0009316542 0.007536497 0.009151978
v -0.05540955 0.003423878 0.00390292
v -0.05678681 0.0216665 0.003904819
v -0.002308995 0.02577912 0.009153875
v -0.0536745 0.003556754 -0.01420852
v 0.0008033882 0.007669364 -0.008959456
v -0.0005738764 0.02591201 -0.008957571
v -0.05505177 0.0217994 -0.01420664
v -0.05678681 0.0216665 0.003904819
v -0.05505177 0.0217994 -0.01420664
v -0.0005738764 0.02591201 -0.008957571
v -0.002308995 0.02577912 0.009153875
v 0.03233038 0.09865391 0.03138945
v 0.01548272 0.008773575 0.02911599
v 0.02071643 0.009174415 -0.02551671
v 0.03756405 0.09905475 -0.02324326
vt 0.171875 0.75
vt 0.171875 0.4375
vt 0.015625 0.4375
vt 0.015625 0.75
vt 0.046875 0.796875
vt 0.046875 0.75
vt 0.140625 0.75
vt 0.140625 0.796875
vt 0.0625 0.921875
vt 0.0625 0.796875
vt 0.125 0.796875
vt 0.125 0.921875
vt 0.015625 0.03125
vt 0.015625 0.015625
vt 0.046875 0.015625
vt 0.046875 0.03125
vt 0.0625 0.984375
vt 0.0625 0.9375
vt 0.125 0.9375
vt 0.125 0.984375
vt 0.234375 0.9375
vt 0.234375 0.8125
vt 0.296875 0.8125
vt 0.296875 0.9375
vt 0.015625 0.03125
vt 0.046875 0.03125
vt 0.046875 0.015625
vt 0.015625 0.015625
vt 0.125 0.796875
vt 0.0625 0.796875
vt 0.0625 0.921875
vt 0.125 0.921875
vt 0.046875 0.75
vt 0.140625 0.75
vt 0.140625 0.796875
vt 0.046875 0.796875
vt 0.015625 0.4375
vt 0.171875 0.4375
vt 0.171875 0.75
vt 0.015625 0.75
vt 0.296875 0.859375
vt 0.234375 0.859375
vt 0.234375 0.984375
vt 0.296875 0.984375
vt 0.234375 0.8125
vt 0.296875 0.8125
vt 0.296875 0.859375
vt 0.234375 0.859375
vt 0.6875 0.28125
vt 0.53125 0.28125
vt 0.53125 0.59375
vt 0.6875 0.59375
vt 0.140625 0.75
vt 0.046875 0.75
vt 0.046875 0.796875
vt 0.140625 0.796875
vt 0.125 0.796875
vt 0.0625 0.796875
vt 0.0625 0.921875
vt 0.125 0.921875
vt 0.65625 0.78125
vt 0.59375 0.78125
vt 0.59375 0.828125
vt 0.703125 0.828125
vt 0.703125 0.703125
vt 0.65625 0.65625
vt 0.734375 0.65625
vt 0.734375 0.703125
vt 0.015625 0.03125
vt 0.046875 0.03125
vt 0.046875 0.015625
vt 0.015625 0.015625
vt 0.015625 0.015625
vt 0.015625 0.03125
vt 0.046875 0.03125
vt 0.046875 0.015625
vt 0.0625 0.921875
vt 0.0625 0.796875
vt 0.125 0.796875
vt 0.125 0.921875
vt 0.59375 0.828125
vt 0.59375 0.78125
vt 0.65625 0.78125
vt 0.703125 0.828125
vt 0.703125 0.703125
vt 0.65625 0.65625
vt 0.734375 0.65625
vt 0.734375 0.703125
vt 0.046875 0.796875
vt 0.046875 0.75
vt 0.140625 0.75
vt 0.140625 0.796875
vt 0.359375 0.75
vt 0.359375 0.4375
vt 0.515625 0.4375
vt 0.515625 0.75
vt 0.78125 0.828125
vt 0.78125 0.984375
vt 0.9375 0.984375
vt 0.9375 0.828125
vt 0.484375 0.875
vt 0.484375 0.8125
vt 0.5625 0.8125
vt 0.5625 0.875
vt 0.59375 0.875
vt 0.65625 0.875
vt 0.65625 0.9375
vt 0.59375 0.9375
vt 0.9375 0.828125
vt 0.78125 0.828125
vt 0.78125 0.984375
vt 0.9375 0.984375
vt 0.109375 0.109375
vt 0.109375 0.015625
vt 0.015625 0.015625
vt 0.015625 0.109375
vt 0.515625 0.9375
vt 0.546875 0.9375
vt 0.546875 0.875
vt 0.515625 0.875
vt 0.078125 0.015625
vt 0.015625 0.015625
vt 0.015625 0.078125
vt 0.078125 0.078125
vt 0.546875 0.9375
vt 0.65625 0.9375
vt 0.65625 0.875
vt 0.546875 0.875
vt 0.984375 0.671875
vt 0.984375 0.796875
vt 0.90625 0.796875
vt 0.90625 0.671875
vt 0.90625 0.671875
vt 0.90625 0.796875
vt 0.984375 0.796875
vt 0.984375 0.671875
vt 0.859375 0.796875
vt 0.78125 0.796875
vt 0.78125 0.765625
vt 0.859375 0.765625
vt 0.859375 0.796875
vt 0.859375 0.765625
vt 0.78125 0.765625
vt 0.78125 0.796875
vt 0.03125 0.125
vt 0.03125 0.046875
vt 0.078125 0.046875
vt 0.078125 0.125
vt 0.859375 0.671875
vt 0.859375 0.796875
vt 0.90625 0.796875
vt 0.90625 0.671875
vt 0.8125 0.671875
vt 0.8125 0.75
vt 0.859375 0.75
vt 0.859375 0.671875
vt 0.859375 0.671875
vt 0.90625 0.671875
vt 0.90625 0.796875
vt 0.859375 0.796875
vt 0.734375 0.796875
vt 0.78125 0.796875
vt 0.78125 0.765625
vt 0.734375 0.765625
vt 0.8125 0.75
vt 0.765625 0.75
vt 0.765625 0.671875
vt 0.8125 0.671875
vt 0.78125 0.765625
vt 0.78125 0.796875
vt 0.734375 0.796875
vt 0.734375 0.765625
vt 0.84375 0.6407335
vt 0.859375 0.6407335
vt 0.859375 0.625
vt 0.84375 0.625
vt 0.796875 0.625
vt 0.796875 0.640625
vt 0.78125 0.640625
vt 0.78125 0.625
vt 0.875 0.625
vt 0.921875 0.625
vt 0.9218749 0.6407335
vt 0.875 0.640625
vt 0.921875 0.625
vt 0.875 0.625
vt 0.875 0.640625
vt 0.921875 0.6407335
vt 0.921875 0.625
vt 0.921875 0.640625
vt 0.875 0.640625
vt 0.875 0.625
vt 0.984375 0.671875
vt 0.984375 0.59375
vt 0.9375 0.59375
vt 0.9375 0.671875
vn -0.6715957 0.5282329 0.5195472
vn -0.5846617 -0.6231905 0.5194269
vn -0.4745507 -0.6147569 -0.6299807
vn -0.5614846 0.5366665 -0.6298603
vn -0.6715957 0.5282329 0.5195472
vn -0.7692974 -0.05814944 0.6362391
vn -0.6344394 -0.0478204 -0.7714919
vn -0.5614846 0.5366665 -0.6298603
vn -0.6715957 0.5282329 0.5195472
vn -0.7692974 -0.05814946 0.6362391
vn -0.6344395 -0.04782045 -0.7714919
vn -0.5614847 0.5366665 -0.6298603
vn -0.7692974 -0.05814949 0.6362391
vn -0.7692974 -0.05814948 0.6362392
vn -0.6344394 -0.04782046 -0.7714919
vn -0.6344395 -0.04782046 -0.7714919
vn -0.6715957 0.5282329 0.5195471
vn -0.5846617 -0.6231906 0.5194269
vn -0.4745507 -0.6147569 -0.6299807
vn -0.5614847 0.5366665 -0.6298603
vn -0.3628333 -0.3298549 0.8715204
vn -0.5846617 -0.6231905 0.5194269
vn -0.4745507 -0.6147569 -0.6299807
vn -0.1903224 -0.316642 -0.9292552
vn 0.7692974 0.05814949 -0.6362391
vn 0.6344395 0.04782046 0.7714919
vn 0.6344394 0.04782046 0.7714919
vn 0.7692974 0.05814948 -0.6362392
vn 0.7692974 0.05814945 -0.6362391
vn 0.6344395 0.04782045 0.7714919
vn 0.4745507 0.6147569 0.6299807
vn 0.5846617 0.6231906 -0.5194269
vn 0.7692974 0.05814944 -0.6362391
vn 0.6344394 0.0478204 0.7714919
vn 0.4745507 0.6147569 0.6299807
vn 0.5846617 0.6231905 -0.5194269
vn 0.6715957 -0.5282329 -0.5195472
vn 0.5614846 -0.5366665 0.6298603
vn 0.4745507 0.6147569 0.6299807
vn 0.5846617 0.6231905 -0.5194269
vn 0.3628333 0.3298549 -0.8715204
vn 0.1903224 0.316642 0.9292552
vn 0.4745507 0.6147569 0.6299807
vn 0.5846617 0.6231906 -0.5194269
vn 0.6715957 -0.5282329 -0.5195472
vn 0.5614847 -0.5366665 0.6298604
vn 0.4745507 0.6147568 0.6299807
vn 0.5846617 0.6231905 -0.5194269
vn 0.5614846 -0.5366665 0.6298603
vn -0.5846617 -0.6231905 0.5194269
vn -0.6715957 0.5282329 0.5195472
vn 0.4745507 0.6147569 0.6299807
vn 0.6344394 0.0478204 0.7714919
vn -0.7692974 -0.05814944 0.6362391
vn -0.6715957 0.5282329 0.5195472
vn 0.4745507 0.6147569 0.6299807
vn 0.6344395 0.04782045 0.7714919
vn -0.7692974 -0.05814946 0.6362391
vn -0.6715957 0.5282329 0.5195472
vn 0.4745507 0.6147569 0.6299807
vn -0.3628333 -0.3298549 0.8715204
vn -0.5846617 -0.6231906 0.5194269
vn -0.6715957 0.5282329 0.5195471
vn 0.4745507 0.6147569 0.6299807
vn 0.1903224 0.316642 0.9292552
vn -0.5846617 -0.6231905 0.5194269
vn 0.5614847 -0.5366665 0.6298604
vn 0.4745507 0.6147568 0.6299807
vn 0.6344395 0.04782046 0.7714919
vn -0.7692974 -0.05814948 0.6362392
vn -0.7692974 -0.05814949 0.6362391
vn 0.6344394 0.04782046 0.7714919
vn -0.6344395 -0.04782046 -0.7714919
vn -0.6344394 -0.04782046 -0.7714919
vn 0.7692974 0.05814949 -0.6362391
vn 0.7692974 0.05814948 -0.6362392
vn -0.5614847 0.5366665 -0.6298603
vn -0.6344395 -0.04782045 -0.7714919
vn 0.7692974 0.05814945 -0.6362391
vn 0.5846617 0.6231906 -0.5194269
vn -0.5614847 0.5366665 -0.6298603
vn -0.4745507 -0.6147569 -0.6299807
vn -0.1903224 -0.316642 -0.9292552
vn 0.5846617 0.6231906 -0.5194269
vn 0.3628333 0.3298549 -0.8715204
vn -0.4745507 -0.6147569 -0.6299807
vn 0.6715957 -0.5282329 -0.5195472
vn 0.5846617 0.6231905 -0.5194269
vn -0.5614846 0.5366665 -0.6298603
vn -0.6344394 -0.0478204 -0.7714919
vn 0.7692974 0.05814944 -0.6362391
vn 0.5846617 0.6231905 -0.5194269
vn -0.5614846 0.5366665 -0.6298603
vn -0.4745507 -0.6147569 -0.6299807
vn 0.6715957 -0.5282329 -0.5195472
vn 0.5846617 0.6231905 -0.5194269
vn -0.4745507 -0.6147569 -0.6299807
vn -0.5846617 -0.6231905 0.5194269
vn 0.5614846 -0.5366665 0.6298603
vn 0.6715957 -0.5282329 -0.5195472
vn -0.4745507 -0.6147569 -0.6299807
vn -0.5846617 -0.6231905 0.5194269
vn 0.5614847 -0.5366665 0.6298604
vn 0.6715957 -0.5282329 -0.5195472
vn -0.1903224 -0.316642 -0.9292552
vn -0.4745507 -0.6147569 -0.6299807
vn -0.5846617 -0.6231906 0.5194269
vn -0.3628333 -0.3298549 0.8715204
vn 0.4745507 0.6147569 0.6299807
vn -0.6715957 0.5282329 0.5195472
vn -0.5614846 0.5366665 -0.6298603
vn 0.5846617 0.6231905 -0.5194269
vn 0.5846617 0.6231905 -0.5194269
vn 0.4745507 0.6147569 0.6299807
vn -0.6715957 0.5282329 0.5195472
vn -0.5614846 0.5366665 -0.6298603
vn 0.4745507 0.6147568 0.6299807
vn 0.1903224 0.316642 0.9292552
vn 0.3628333 0.3298549 -0.8715204
vn 0.5846617 0.6231905 -0.5194269
vn 0.4745507 0.6147569 0.6299807
vn -0.6715957 0.5282329 0.5195472
vn -0.5614847 0.5366665 -0.6298603
vn 0.5846617 0.6231906 -0.5194269
vn 0.4745507 0.6147569 0.6299807
vn -0.6715957 0.5282329 0.5195471
vn -0.5614847 0.5366665 -0.6298603
vn 0.5846617 0.6231906 -0.5194269
vn -0.09535895 -0.007303792 0.9954162
vn -0.09535895 -0.007303792 0.9954162
vn -0.09535895 -0.007303792 0.9954162
vn -0.09535895 -0.007303792 0.9954162
vn 0.09535897 0.007303793 -0.9954162
vn 0.09535897 0.007303793 -0.9954162
vn 0.09535897 0.007303793 -0.9954162
vn 0.09535897 0.007303793 -0.9954162
vn -0.09536024 -0.007303486 0.995416
vn -0.09536023 -0.007303486 0.995416
vn -0.09536023 -0.007303486 0.995416
vn -0.09536024 -0.007303486 0.995416
vn 0.09535959 0.007303555 -0.9954161
vn 0.09535959 0.007303555 -0.9954161
vn 0.09535959 0.007303555 -0.9954161
vn 0.09535959 0.007303555 -0.9954161
vn -0.07528692 0.9971619 0.0001041924
vn -0.07528692 0.9971619 0.0001041924
vn -0.07528692 0.9971619 0.0001041924
vn -0.07528692 0.9971619 0.0001041924
vn -0.9925916 -0.07493198 -0.09564096
vn -0.9925916 -0.07493198 -0.09564096
vn -0.9925916 -0.07493198 -0.09564096
vn -0.9925916 -0.07493198 -0.09564096
vn 0.07528675 -0.9971619 -0.0001043853
vn 0.07528674 -0.9971619 -0.0001043853
vn 0.07528675 -0.9971619 -0.0001043853
vn 0.07528675 -0.9971619 -0.0001043853
vn 0.9925917 0.074932 0.09563889
vn 0.9925917 0.074932 0.09563889
vn 0.9925917 0.074932 0.09563889
vn 0.9925917 0.07493199 0.09563888
vn 0.1841826 0.9825778 0.02485318
vn 0.1841825 0.9825778 0.02485318
vn 0.1841825 0.9825778 0.02485318
vn 0.1841825 0.9825778 0.02485318
vn 0.9782559 -0.1857053 0.09235192
vn 0.9782559 -0.1857052 0.09235192
vn 0.9782559 -0.1857052 0.09235192
vn 0.9782559 -0.1857052 0.09235191
vn -0.1841821 -0.9825779 -0.02485339
vn -0.1841821 -0.9825779 -0.02485339
vn -0.1841821 -0.9825779 -0.02485339
vn -0.1841821 -0.9825779 -0.0248534
vn -0.9925922 -0.07492784 -0.0956382
vn -0.9925922 -0.07492784 -0.09563819
vn -0.9925922 -0.07492784 -0.09563819
vn -0.9925922 -0.07492784 -0.09563819
vn 0.9925918 0.07492991 0.09564028
vn 0.9925918 0.07492991 0.09564028
vn 0.9925918 0.07492991 0.09564028
vn 0.9925918 0.07492991 0.09564028
vn -0.09535913 -0.007303087 0.9954162
vn -0.09535913 -0.007303087 0.9954162
vn -0.09535914 -0.007303087 0.9954162
vn -0.09535914 -0.007303087 0.9954162
vn 0.0953593 0.007302054 -0.9954162
vn 0.0953593 0.007302054 -0.9954162
vn 0.0953593 0.007302054 -0.9954162
vn 0.0953593 0.007302054 -0.9954162
vn -0.07528729 0.9971619 0.0001041576
vn -0.0752873 0.9971619 0.0001041575
vn -0.0752873 0.9971619 0.0001041575
vn -0.07528729 0.9971619 0.0001041576
vn -0.9782559 0.1857054 -0.0923522
vn -0.9782559 0.1857054 -0.0923522
vn -0.9782559 0.1857054 -0.0923522
vn -0.9782559 0.1857054 -0.0923522
g gadget_molotov_mesh_0
f 3/3/3 2/2/2 1/1/1
f 4/4/4 3/3/3 1/1/1
f 7/7/7 6/6/6 5/5/5
f 8/8/8 7/7/7 5/5/5
f 11/11/11 10/10/10 9/9/9
f 12/12/12 11/11/11 9/9/9
f 15/15/15 14/14/14 13/13/13
f 16/16/16 15/15/15 13/13/13
f 19/19/19 18/18/18 17/17/17
f 20/20/20 19/19/19 17/17/17
f 23/23/23 22/22/22 21/21/21
f 24/24/24 23/23/23 21/21/21
f 27/27/27 26/26/26 25/25/25
f 28/28/28 27/27/27 25/25/25
f 31/31/31 30/30/30 29/29/29
f 32/32/32 31/31/31 29/29/29
f 35/35/35 34/34/34 33/33/33
f 36/36/36 35/35/35 33/33/33
f 39/39/39 38/38/38 37/37/37
f 40/40/40 39/39/39 37/37/37
f 43/43/43 42/42/42 41/41/41
f 44/44/44 43/43/43 41/41/41
f 47/47/47 46/46/46 45/45/45
f 48/48/48 47/47/47 45/45/45
f 51/51/51 50/50/50 49/49/49
f 52/52/52 51/51/51 49/49/49
f 55/55/55 54/54/54 53/53/53
f 56/56/56 55/55/55 53/53/53
f 59/59/59 58/58/58 57/57/57
f 60/60/60 59/59/59 57/57/57
f 63/63/63 62/62/62 61/61/61
f 64/64/64 63/63/63 61/61/61
f 64/64/64 61/61/61 65/65/65
f 61/61/61 66/66/66 65/65/65
f 65/65/65 66/66/66 67/67/67
f 68/68/68 65/65/65 67/67/67
f 71/71/71 70/70/70 69/69/69
f 72/72/72 71/71/71 69/69/69
f 75/75/75 74/74/74 73/73/73
f 76/76/76 75/75/75 73/73/73
f 79/79/79 78/78/78 77/77/77
f 80/80/80 79/79/79 77/77/77
f 83/83/83 82/82/82 81/81/81
f 84/84/84 83/83/83 81/81/81
f 84/84/84 85/85/85 83/83/83
f 85/85/85 86/86/86 83/83/83
f 87/87/87 86/86/86 85/85/85
f 88/88/88 87/87/87 85/85/85
f 91/91/91 90/90/90 89/89/89
f 92/92/92 91/91/91 89/89/89
f 95/95/95 94/94/94 93/93/93
f 96/96/96 95/95/95 93/93/93
f 99/99/99 98/98/98 97/97/97
f 100/100/100 99/99/99 97/97/97
f 103/103/103 102/102/102 101/101/101
f 104/104/104 103/103/103 101/101/101
f 107/107/107 106/106/106 105/105/105
f 108/108/108 107/107/107 105/105/105
f 111/111/111 110/110/110 109/109/109
f 112/112/112 111/111/111 109/109/109
f 115/115/115 114/114/114 113/113/113
f 116/116/116 115/115/115 113/113/113
f 119/119/119 118/118/118 117/117/117
f 120/120/120 119/119/119 117/117/117
f 123/123/123 122/122/122 121/121/121
f 124/124/124 123/123/123 121/121/121
f 127/127/127 126/126/126 125/125/125
f 128/128/128 127/127/127 125/125/125
f 131/131/131 130/130/130 129/129/129
f 132/132/132 131/131/131 129/129/129
f 135/135/135 134/134/134 133/133/133
f 136/136/136 135/135/135 133/133/133
f 139/139/139 138/138/138 137/137/137
f 140/140/140 139/139/139 137/137/137
f 143/143/143 142/142/142 141/141/141
f 144/144/144 143/143/143 141/141/141
f 147/147/147 146/146/146 145/145/145
f 148/148/148 147/147/147 145/145/145
f 151/151/151 150/150/150 149/149/149
f 152/152/152 151/151/151 149/149/149
f 155/155/155 154/154/154 153/153/153
f 156/156/156 155/155/155 153/153/153
f 159/159/159 158/158/158 157/157/157
f 160/160/160 159/159/159 157/157/157
f 163/163/163 162/162/162 161/161/161
f 164/164/164 163/163/163 161/161/161
f 167/167/167 166/166/166 165/165/165
f 168/168/168 167/167/167 165/165/165
f 171/171/171 170/170/170 169/169/169
f 172/172/172 171/171/171 169/169/169
f 175/175/175 174/174/174 173/173/173
f 176/176/176 175/175/175 173/173/173
f 179/179/179 178/178/178 177/177/177
f 180/180/180 179/179/179 177/177/177
f 183/183/183 182/182/182 181/181/181
f 184/184/184 183/183/183 181/181/181
f 187/187/187 186/186/186 185/185/185
f 188/188/188 187/187/187 185/185/185
f 191/191/191 190/190/190 189/189/189
f 192/192/192 191/191/191 189/189/189
f 195/195/195 194/194/194 193/193/193
f 196/196/196 195/195/195 193/193/193
