# Mesh "gadget_black_label_mesh" exported with Unity Assets Bundle Extractor; 120 vertices, 228 indices, 32 bytes per vertex
g gadget_black_label_mesh
# SubMesh 0
# Vertices
v -0.065000 -0.045000 0.010000
vt 0.375000 0.437500
vn -1.000000 0.000000 0.000000
v -0.065000 0.045000 -0.010000
vt 0.093750 0.500000
vn -1.000000 0.000000 0.000000
v -0.065000 0.045000 0.010000
vt 0.093750 0.437500
vn -1.000000 0.000000 0.000000
v -0.065000 -0.045000 -0.010000
vt 0.375000 0.500000
vn -1.000000 0.000000 0.000000
v -0.055000 -0.055000 0.010000
vt 0.406250 0.437500
vn -1.000000 0.000000 0.000000
v -0.055000 -0.045000 -0.010000
vt 0.375000 0.500000
vn -1.000000 0.000000 0.000000
v -0.055000 -0.045000 0.010000
vt 0.375000 0.437500
vn -1.000000 0.000000 0.000000
v -0.055000 -0.055000 -0.010000
vt 0.406250 0.500000
vn -1.000000 0.000000 0.000000
v -0.055000 0.045000 0.010000
vt 0.093750 0.437500
vn -1.000000 0.000000 0.000000
v -0.055000 0.055000 -0.010000
vt 0.062500 0.500000
vn -1.000000 0.000000 0.000000
v -0.055000 0.055000 0.010000
vt 0.062500 0.437500
vn -1.000000 0.000000 0.000000
v -0.055000 0.045000 -0.010000
vt 0.093750 0.500000
vn -1.000000 0.000000 0.000000
v -0.045000 -0.065000 0.010000
vt 0.437500 0.437500
vn -1.000000 0.000000 0.000000
v -0.045000 -0.055000 -0.010000
vt 0.406250 0.500000
vn -1.000000 0.000000 0.000000
v -0.045000 -0.055000 0.010000
vt 0.406250 0.437500
vn -1.000000 0.000000 0.000000
v -0.045000 -0.065000 -0.010000
vt 0.437500 0.500000
vn -1.000000 0.000000 0.000000
v -0.045000 0.055000 0.010000
vt 0.062500 0.437500
vn -1.000000 0.000000 0.000000
v -0.045000 0.065000 -0.010000
vt 0.031250 0.500000
vn -1.000000 0.000000 0.000000
v -0.045000 0.065000 0.010000
vt 0.031250 0.437500
vn -1.000000 0.000000 0.000000
v -0.045000 0.055000 -0.010000
vt 0.062500 0.500000
vn -1.000000 0.000000 0.000000
v 0.045000 -0.055000 -0.010000
vt 0.062500 0.500000
vn 1.000000 0.000000 0.000000
v 0.045000 -0.065000 0.010000
vt 0.031250 0.437500
vn 1.000000 0.000000 0.000000
v 0.045000 -0.055000 0.010000
vt 0.062500 0.437500
vn 1.000000 0.000000 0.000000
v 0.045000 -0.065000 -0.010000
vt 0.031250 0.500000
vn 1.000000 0.000000 0.000000
v 0.045000 0.065000 -0.010000
vt 0.437500 0.500000
vn 1.000000 0.000000 0.000000
v 0.045000 0.055000 0.010000
vt 0.406250 0.437500
vn 1.000000 0.000000 0.000000
v 0.045000 0.065000 0.010000
vt 0.437500 0.437500
vn 1.000000 0.000000 0.000000
v 0.045000 0.055000 -0.010000
vt 0.406250 0.500000
vn 1.000000 0.000000 0.000000
v 0.055000 -0.045000 -0.010000
vt 0.093750 0.500000
vn 1.000000 0.000000 0.000000
v 0.055000 -0.055000 0.010000
vt 0.062500 0.437500
vn 1.000000 0.000000 0.000000
v 0.055000 -0.045000 0.010000
vt 0.093750 0.437500
vn 1.000000 0.000000 0.000000
v 0.055000 -0.055000 -0.010000
vt 0.062500 0.500000
vn 1.000000 0.000000 0.000000
v 0.055000 0.055000 -0.010000
vt 0.406250 0.500000
vn 1.000000 0.000000 0.000000
v 0.055000 0.045000 0.010000
vt 0.375000 0.437500
vn 1.000000 0.000000 0.000000
v 0.055000 0.055000 0.010000
vt 0.406250 0.437500
vn 1.000000 0.000000 0.000000
v 0.055000 0.045000 -0.010000
vt 0.375000 0.500000
vn 1.000000 0.000000 0.000000
v 0.065000 0.045000 -0.010000
vt 0.375000 0.500000
vn 1.000000 0.000000 0.000000
v 0.065000 -0.045000 0.010000
vt 0.093750 0.437500
vn 1.000000 0.000000 0.000000
v 0.065000 0.045000 0.010000
vt 0.375000 0.437500
vn 1.000000 0.000000 0.000000
v 0.065000 -0.045000 -0.010000
vt 0.093750 0.500000
vn 1.000000 0.000000 0.000000
v 0.045000 -0.065000 -0.010000
vt 0.843750 0.500000
vn -0.000000 -1.000000 0.000000
v -0.045000 -0.065000 0.010000
vt 0.562500 0.437500
vn -0.000000 -1.000000 0.000000
v 0.045000 -0.065000 0.010000
vt 0.843750 0.437500
vn -0.000000 -1.000000 0.000000
v -0.045000 -0.065000 -0.010000
vt 0.562500 0.500000
vn -0.000000 -1.000000 0.000000
v -0.045000 -0.055000 -0.010000
vt 0.562500 0.500000
vn -0.000000 -1.000000 0.000000
v -0.055000 -0.055000 0.010000
vt 0.531250 0.437500
vn -0.000000 -1.000000 0.000000
v -0.045000 -0.055000 0.010000
vt 0.562500 0.437500
vn -0.000000 -1.000000 0.000000
v -0.055000 -0.055000 -0.010000
vt 0.531250 0.500000
vn -0.000000 -1.000000 0.000000
v 0.055000 -0.055000 -0.010000
vt 0.875000 0.500000
vn -0.000000 -1.000000 0.000000
v 0.045000 -0.055000 0.010000
vt 0.843750 0.437500
vn -0.000000 -1.000000 0.000000
v 0.055000 -0.055000 0.010000
vt 0.875000 0.437500
vn -0.000000 -1.000000 0.000000
v 0.045000 -0.055000 -0.010000
vt 0.843750 0.500000
vn -0.000000 -1.000000 0.000000
v -0.055000 -0.045000 -0.010000
vt 0.531250 0.500000
vn -0.000000 -1.000000 0.000000
v -0.065000 -0.045000 0.010000
vt 0.500000 0.437500
vn -0.000000 -1.000000 0.000000
v -0.055000 -0.045000 0.010000
vt 0.531250 0.437500
vn -0.000000 -1.000000 0.000000
v -0.065000 -0.045000 -0.010000
vt 0.500000 0.500000
vn -0.000000 -1.000000 0.000000
v 0.065000 -0.045000 -0.010000
vt 0.906250 0.500000
vn -0.000000 -1.000000 0.000000
v 0.055000 -0.045000 0.010000
vt 0.875000 0.437500
vn -0.000000 -1.000000 0.000000
v 0.065000 -0.045000 0.010000
vt 0.906250 0.437500
vn -0.000000 -1.000000 0.000000
v 0.055000 -0.045000 -0.010000
vt 0.875000 0.500000
vn -0.000000 -1.000000 0.000000
v -0.065000 0.045000 0.010000
vt 0.906250 0.437500
vn -0.000000 1.000000 0.000000
v -0.055000 0.045000 -0.010000
vt 0.875000 0.500000
vn -0.000000 1.000000 0.000000
v -0.055000 0.045000 0.010000
vt 0.875000 0.437500
vn -0.000000 1.000000 0.000000
v -0.065000 0.045000 -0.010000
vt 0.906250 0.500000
vn -0.000000 1.000000 0.000000
v 0.055000 0.045000 0.010000
vt 0.531250 0.437500
vn -0.000000 1.000000 0.000000
v 0.065000 0.045000 -0.010000
vt 0.500000 0.500000
vn -0.000000 1.000000 0.000000
v 0.065000 0.045000 0.010000
vt 0.500000 0.437500
vn -0.000000 1.000000 0.000000
v 0.055000 0.045000 -0.010000
vt 0.531250 0.500000
vn -0.000000 1.000000 0.000000
v -0.055000 0.055000 0.010000
vt 0.875000 0.437500
vn -0.000000 1.000000 0.000000
v -0.045000 0.055000 -0.010000
vt 0.843750 0.500000
vn -0.000000 1.000000 0.000000
v -0.045000 0.055000 0.010000
vt 0.843750 0.437500
vn -0.000000 1.000000 0.000000
v -0.055000 0.055000 -0.010000
vt 0.875000 0.500000
vn -0.000000 1.000000 0.000000
v 0.045000 0.055000 0.010000
vt 0.562500 0.437500
vn -0.000000 1.000000 0.000000
v 0.055000 0.055000 -0.010000
vt 0.531250 0.500000
vn -0.000000 1.000000 0.000000
v 0.055000 0.055000 0.010000
vt 0.531250 0.437500
vn -0.000000 1.000000 0.000000
v 0.045000 0.055000 -0.010000
vt 0.562500 0.500000
vn -0.000000 1.000000 0.000000
v -0.045000 0.065000 0.010000
vt 0.843750 0.437500
vn -0.000000 1.000000 0.000000
v 0.045000 0.065000 -0.010000
vt 0.562500 0.500000
vn -0.000000 1.000000 0.000000
v 0.045000 0.065000 0.010000
vt 0.562500 0.437500
vn -0.000000 1.000000 0.000000
v -0.045000 0.065000 -0.010000
vt 0.843750 0.500000
vn -0.000000 1.000000 0.000000
v -0.045000 -0.055000 -0.010000
vt 0.562500 0.937500
vn -0.000000 0.000000 -1.000000
v 0.045000 -0.065000 -0.010000
vt 0.843750 0.968750
vn -0.000000 0.000000 -1.000000
v 0.045000 -0.055000 -0.010000
vt 0.843750 0.937500
vn -0.000000 0.000000 -1.000000
v -0.045000 -0.065000 -0.010000
vt 0.562500 0.968750
vn -0.000000 0.000000 -1.000000
v 0.055000 -0.045000 -0.010000
vt 0.875000 0.906250
vn -0.000000 0.000000 -1.000000
v -0.055000 -0.045000 -0.010000
vt 0.531250 0.906250
vn -0.000000 0.000000 -1.000000
v -0.055000 -0.055000 -0.010000
vt 0.531250 0.937500
vn -0.000000 0.000000 -1.000000
v 0.055000 0.045000 -0.010000
vt 0.875000 0.625000
vn -0.000000 0.000000 -1.000000
v 0.065000 -0.045000 -0.010000
vt 0.906250 0.906250
vn -0.000000 0.000000 -1.000000
v 0.065000 0.045000 -0.010000
vt 0.906250 0.625000
vn -0.000000 0.000000 -1.000000
v -0.055000 0.045000 -0.010000
vt 0.531250 0.625000
vn -0.000000 0.000000 -1.000000
v -0.065000 0.045000 -0.010000
vt 0.500000 0.625000
vn -0.000000 0.000000 -1.000000
v -0.065000 -0.045000 -0.010000
vt 0.500000 0.906250
vn -0.000000 0.000000 -1.000000
v 0.045000 0.055000 -0.010000
vt 0.843750 0.593750
vn -0.000000 0.000000 -1.000000
v 0.055000 0.055000 -0.010000
vt 0.875000 0.593750
vn -0.000000 0.000000 -1.000000
v -0.045000 0.055000 -0.010000
vt 0.562500 0.593750
vn -0.000000 0.000000 -1.000000
v -0.055000 0.055000 -0.010000
vt 0.531250 0.593750
vn -0.000000 0.000000 -1.000000
v -0.045000 0.065000 -0.010000
vt 0.562500 0.562500
vn -0.000000 0.000000 -1.000000
v 0.045000 0.065000 -0.010000
vt 0.843750 0.562500
vn -0.000000 0.000000 -1.000000
v 0.055000 -0.055000 -0.010000
vt 0.875000 0.937500
vn -0.000000 0.000000 -1.000000
v 0.045000 -0.065000 0.010000
vt 0.375000 0.968750
vn -0.000000 0.000000 1.000000
v -0.045000 -0.055000 0.010000
vt 0.093750 0.937500
vn -0.000000 0.000000 1.000000
v 0.045000 -0.055000 0.010000
vt 0.375000 0.937500
vn -0.000000 0.000000 1.000000
v -0.045000 -0.065000 0.010000
vt 0.093750 0.968750
vn -0.000000 0.000000 1.000000
v 0.055000 -0.045000 0.010000
vt 0.406250 0.906250
vn -0.000000 0.000000 1.000000
v -0.055000 -0.045000 0.010000
vt 0.062500 0.906250
vn -0.000000 0.000000 1.000000
v -0.055000 -0.055000 0.010000
vt 0.062500 0.937500
vn -0.000000 0.000000 1.000000
v -0.055000 0.045000 0.010000
vt 0.062500 0.625000
vn -0.000000 0.000000 1.000000
v -0.065000 0.045000 0.010000
vt 0.031250 0.625000
vn -0.000000 0.000000 1.000000
v -0.065000 -0.045000 0.010000
vt 0.031250 0.906250
vn -0.000000 0.000000 1.000000
v 0.055000 0.045000 0.010000
vt 0.406250 0.625000
vn -0.000000 0.000000 1.000000
v 0.065000 -0.045000 0.010000
vt 0.437500 0.906250
vn -0.000000 0.000000 1.000000
v 0.065000 0.045000 0.010000
vt 0.437500 0.625000
vn -0.000000 0.000000 1.000000
v 0.055000 -0.055000 0.010000
vt 0.406250 0.937500
vn -0.000000 0.000000 1.000000
v -0.045000 0.055000 0.010000
vt 0.093750 0.593750
vn -0.000000 0.000000 1.000000
v -0.055000 0.055000 0.010000
vt 0.062500 0.593750
vn -0.000000 0.000000 1.000000
v 0.045000 0.055000 0.010000
vt 0.375000 0.593750
vn -0.000000 0.000000 1.000000
v 0.055000 0.055000 0.010000
vt 0.406250 0.593750
vn -0.000000 0.000000 1.000000
v -0.045000 0.065000 0.010000
vt 0.093750 0.562500
vn -0.000000 0.000000 1.000000
v 0.045000 0.065000 0.010000
vt 0.375000 0.562500
vn -0.000000 0.000000 1.000000
# Faces (1 to 120)
f -118/-118/-118 -119/-119/-119 -120/-120/-120
f -117/-117/-117 -120/-120/-120 -119/-119/-119
f -114/-114/-114 -115/-115/-115 -116/-116/-116
f -113/-113/-113 -116/-116/-116 -115/-115/-115
f -110/-110/-110 -111/-111/-111 -112/-112/-112
f -109/-109/-109 -112/-112/-112 -111/-111/-111
f -106/-106/-106 -107/-107/-107 -108/-108/-108
f -105/-105/-105 -108/-108/-108 -107/-107/-107
f -102/-102/-102 -103/-103/-103 -104/-104/-104
f -101/-101/-101 -104/-104/-104 -103/-103/-103
f -98/-98/-98 -99/-99/-99 -100/-100/-100
f -97/-97/-97 -100/-100/-100 -99/-99/-99
f -94/-94/-94 -95/-95/-95 -96/-96/-96
f -93/-93/-93 -96/-96/-96 -95/-95/-95
f -90/-90/-90 -91/-91/-91 -92/-92/-92
f -89/-89/-89 -92/-92/-92 -91/-91/-91
f -86/-86/-86 -87/-87/-87 -88/-88/-88
f -85/-85/-85 -88/-88/-88 -87/-87/-87
f -82/-82/-82 -83/-83/-83 -84/-84/-84
f -81/-81/-81 -84/-84/-84 -83/-83/-83
f -78/-78/-78 -79/-79/-79 -80/-80/-80
f -77/-77/-77 -80/-80/-80 -79/-79/-79
f -74/-74/-74 -75/-75/-75 -76/-76/-76
f -73/-73/-73 -76/-76/-76 -75/-75/-75
f -70/-70/-70 -71/-71/-71 -72/-72/-72
f -69/-69/-69 -72/-72/-72 -71/-71/-71
f -66/-66/-66 -67/-67/-67 -68/-68/-68
f -65/-65/-65 -68/-68/-68 -67/-67/-67
f -62/-62/-62 -63/-63/-63 -64/-64/-64
f -61/-61/-61 -64/-64/-64 -63/-63/-63
f -58/-58/-58 -59/-59/-59 -60/-60/-60
f -57/-57/-57 -60/-60/-60 -59/-59/-59
f -54/-54/-54 -55/-55/-55 -56/-56/-56
f -53/-53/-53 -56/-56/-56 -55/-55/-55
f -50/-50/-50 -51/-51/-51 -52/-52/-52
f -49/-49/-49 -52/-52/-52 -51/-51/-51
f -46/-46/-46 -47/-47/-47 -48/-48/-48
f -45/-45/-45 -48/-48/-48 -47/-47/-47
f -42/-42/-42 -43/-43/-43 -44/-44/-44
f -41/-41/-41 -44/-44/-44 -43/-43/-43
f -38/-38/-38 -39/-39/-39 -40/-40/-40
f -37/-37/-37 -40/-40/-40 -39/-39/-39
f -38/-38/-38 -40/-40/-40 -36/-36/-36
f -35/-35/-35 -36/-36/-36 -40/-40/-40
f -40/-40/-40 -34/-34/-34 -35/-35/-35
f -36/-36/-36 -35/-35/-35 -33/-33/-33
f -32/-32/-32 -36/-36/-36 -33/-33/-33
f -32/-32/-32 -33/-33/-33 -31/-31/-31
f -30/-30/-30 -33/-33/-33 -35/-35/-35
f -30/-30/-30 -35/-35/-35 -29/-29/-29
f -35/-35/-35 -28/-28/-28 -29/-29/-29
f -33/-33/-33 -30/-30/-30 -27/-27/-27
f -33/-33/-33 -27/-27/-27 -26/-26/-26
f -25/-25/-25 -27/-27/-27 -30/-30/-30
f -25/-25/-25 -30/-30/-30 -24/-24/-24
f -27/-27/-27 -25/-25/-25 -23/-23/-23
f -27/-27/-27 -23/-23/-23 -22/-22/-22
f -21/-21/-21 -38/-38/-38 -36/-36/-36
f -18/-18/-18 -19/-19/-19 -20/-20/-20
f -17/-17/-17 -20/-20/-20 -19/-19/-19
f -18/-18/-18 -16/-16/-16 -19/-19/-19
f -15/-15/-15 -19/-19/-19 -16/-16/-16
f -19/-19/-19 -15/-15/-15 -14/-14/-14
f -15/-15/-15 -16/-16/-16 -13/-13/-13
f -13/-13/-13 -12/-12/-12 -15/-15/-15
f -11/-11/-11 -15/-15/-15 -12/-12/-12
f -10/-10/-10 -13/-13/-13 -16/-16/-16
f -16/-16/-16 -9/-9/-9 -10/-10/-10
f -8/-8/-8 -10/-10/-10 -9/-9/-9
f -7/-7/-7 -16/-16/-16 -18/-18/-18
f -13/-13/-13 -10/-10/-10 -6/-6/-6
f -6/-6/-6 -5/-5/-5 -13/-13/-13
f -4/-4/-4 -6/-6/-6 -10/-10/-10
f -10/-10/-10 -3/-3/-3 -4/-4/-4
f -6/-6/-6 -4/-4/-4 -2/-2/-2
f -1/-1/-1 -2/-2/-2 -4/-4/-4

