# Mesh "gadget_molotov_mesh" exported with Unity Assets Bundle Extractor; 128 vertices, 204 indices, 32 bytes per vertex
g gadget_molotov_mesh
# SubMesh 0
# Vertices
v -0.113293 0.174906 0.082325
vt 0.171875 0.750000
vn -0.671596 0.528233 0.519547
v -0.085745 -0.189951 0.082287
vt 0.171875 0.437500
vn -0.584662 -0.623191 0.519427
v -0.068300 -0.188615 -0.099822
vt 0.015625 0.437500
vn -0.474551 -0.614757 -0.629981
v -0.095847 0.176242 -0.099784
vt 0.015625 0.750000
vn -0.561485 0.536667 -0.629860
v -0.077617 0.232643 0.049408
vt 0.046875 0.796875
vn -0.671596 0.528233 0.519547
v -0.073485 0.177915 0.049403
vt 0.046875 0.750000
vn -0.769297 -0.058149 0.636239
v -0.063018 0.178717 -0.059863
vt 0.140625 0.750000
vn -0.634439 -0.047820 -0.771492
v -0.067150 0.233445 -0.059857
vt 0.140625 0.796875
vn -0.561485 0.536667 -0.629860
v -0.068732 0.380091 0.032962
vt 0.062500 0.921875
vn -0.671596 0.528233 0.519547
v -0.057713 0.234148 0.032947
vt 0.062500 0.796875
vn -0.769297 -0.058149 0.636239
v -0.050735 0.234682 -0.039896
vt 0.125000 0.796875
vn -0.634439 -0.047820 -0.771492
v -0.061754 0.380625 -0.039881
vt 0.125000 0.921875
vn -0.561485 0.536667 -0.629860
v -0.050206 0.399838 0.016503
vt 0.015625 0.031250
vn -0.769297 -0.058149 0.636239
v -0.048828 0.381595 0.016501
vt 0.015625 0.015625
vn -0.769297 -0.058149 0.636239
v -0.045339 0.381862 -0.019921
vt 0.046875 0.015625
vn -0.634439 -0.047820 -0.771492
v -0.046717 0.400105 -0.019919
vt 0.046875 0.031250
vn -0.634439 -0.047820 -0.771492
v -0.056082 0.454433 0.034720
vt 0.062500 0.984375
vn -0.671596 0.528233 0.519547
v -0.051950 0.399704 0.034714
vt 0.062500 0.937500
vn -0.584662 -0.623191 0.519427
v -0.044972 0.400239 -0.038130
vt 0.125000 0.937500
vn -0.474551 -0.614757 -0.629981
v -0.049104 0.454967 -0.038124
vt 0.125000 0.984375
vn -0.561485 0.536667 -0.629860
v 0.020687 0.405188 0.041713
vt 0.234375 0.937500
vn -0.362833 -0.329855 0.871520
v 0.031706 0.259245 0.041698
vt 0.234375 0.812500
vn -0.584662 -0.623191 0.519427
v 0.038684 0.259780 -0.031146
vt 0.296875 0.812500
vn -0.474551 -0.614757 -0.629981
v 0.027665 0.405722 -0.031131
vt 0.296875 0.937500
vn -0.190322 -0.316642 -0.929255
v -0.009021 0.384604 -0.016421
vt 0.015625 0.031250
vn 0.769297 0.058149 -0.636239
v -0.012510 0.384337 0.020001
vt 0.046875 0.031250
vn 0.634439 0.047820 0.771492
v -0.013887 0.402580 0.020003
vt 0.046875 0.015625
vn 0.634439 0.047820 0.771492
v -0.010398 0.402847 -0.016419
vt 0.015625 0.015625
vn 0.769297 0.058149 -0.636239
v 0.021902 0.240166 -0.032898
vt 0.125000 0.796875
vn 0.769297 0.058149 -0.636239
v 0.014924 0.239631 0.039946
vt 0.062500 0.796875
vn 0.634439 0.047820 0.771492
v 0.003905 0.385574 0.039961
vt 0.062500 0.921875
vn 0.474551 0.614757 0.629981
v 0.010883 0.386109 -0.032882
vt 0.125000 0.921875
vn 0.584662 0.623191 -0.519427
v 0.045938 0.186942 -0.049365
vt 0.046875 0.750000
vn 0.769297 0.058149 -0.636239
v 0.035470 0.186140 0.059901
vt 0.140625 0.750000
vn 0.634439 0.047820 0.771492
v 0.031338 0.240869 0.059907
vt 0.140625 0.796875
vn 0.474551 0.614757 0.629981
v 0.041806 0.241670 -0.049359
vt 0.046875 0.796875
vn 0.584662 0.623191 -0.519427
v 0.113293 -0.174906 -0.082325
vt 0.015625 0.437500
vn 0.671596 -0.528233 -0.519547
v 0.095847 -0.176242 0.099784
vt 0.171875 0.437500
vn 0.561485 -0.536667 0.629860
v 0.068300 0.188615 0.099822
vt 0.171875 0.750000
vn 0.474551 0.614757 0.629981
v 0.085745 0.189951 -0.082287
vt 0.015625 0.750000
vn 0.584662 0.623191 -0.519427
v 0.089029 0.318621 -0.025891
vt 0.296875 0.859375
vn 0.362833 0.329855 -0.871520
v 0.082051 0.318086 0.046952
vt 0.234375 0.859375
vn 0.190322 0.316642 0.929255
v 0.071032 0.464029 0.046968
vt 0.234375 0.984375
vn 0.474551 0.614757 0.629981
v 0.078011 0.464563 -0.025876
vt 0.296875 0.984375
vn 0.584662 0.623191 -0.519427
v 0.129480 0.266634 -0.022398
vt 0.234375 0.812500
vn 0.671596 -0.528233 -0.519547
v 0.122502 0.266099 0.050446
vt 0.296875 0.812500
vn 0.561485 -0.536666 0.629860
v 0.118370 0.320828 0.050452
vt 0.296875 0.859375
vn 0.474551 0.614757 0.629981
v 0.125348 0.321362 -0.022392
vt 0.234375 0.859375
vn 0.584662 0.623191 -0.519427
v 0.095847 -0.176242 0.099784
vt 0.687500 0.281250
vn 0.561485 -0.536667 0.629860
v -0.085745 -0.189951 0.082287
vt 0.531250 0.281250
vn -0.584662 -0.623191 0.519427
v -0.113293 0.174906 0.082325
vt 0.531250 0.593750
vn -0.671596 0.528233 0.519547
v 0.068300 0.188615 0.099822
vt 0.687500 0.593750
vn 0.474551 0.614757 0.629981
v 0.035470 0.186140 0.059901
vt 0.140625 0.750000
vn 0.634439 0.047820 0.771492
v -0.073485 0.177915 0.049403
vt 0.046875 0.750000
vn -0.769297 -0.058149 0.636239
v -0.077617 0.232643 0.049408
vt 0.046875 0.796875
vn -0.671596 0.528233 0.519547
v 0.031338 0.240869 0.059907
vt 0.140625 0.796875
vn 0.474551 0.614757 0.629981
v 0.014924 0.239631 0.039946
vt 0.125000 0.796875
vn 0.634439 0.047820 0.771492
v -0.057713 0.234148 0.032947
vt 0.062500 0.796875
vn -0.769297 -0.058149 0.636239
v -0.068732 0.380091 0.032962
vt 0.062500 0.921875
vn -0.671596 0.528233 0.519547
v 0.003905 0.385574 0.039961
vt 0.125000 0.921875
vn 0.474551 0.614757 0.629981
v 0.020687 0.405188 0.041713
vt 0.656250 0.781250
vn -0.362833 -0.329855 0.871520
v -0.051950 0.399704 0.034714
vt 0.593750 0.781250
vn -0.584662 -0.623191 0.519427
v -0.056082 0.454433 0.034720
vt 0.593750 0.828125
vn -0.671596 0.528233 0.519547
v 0.071032 0.464029 0.046968
vt 0.703125 0.828125
vn 0.474551 0.614757 0.629981
v 0.082051 0.318086 0.046952
vt 0.703125 0.703125
vn 0.190322 0.316642 0.929255
v 0.031706 0.259245 0.041698
vt 0.656250 0.656250
vn -0.584662 -0.623191 0.519427
v 0.122502 0.266099 0.050446
vt 0.734375 0.656250
vn 0.561485 -0.536666 0.629860
v 0.118370 0.320828 0.050452
vt 0.734375 0.703125
vn 0.474551 0.614757 0.629981
v -0.012510 0.384337 0.020001
vt 0.015625 0.031250
vn 0.634439 0.047820 0.771492
v -0.048828 0.381595 0.016501
vt 0.046875 0.031250
vn -0.769297 -0.058149 0.636239
v -0.050206 0.399838 0.016503
vt 0.046875 0.015625
vn -0.769297 -0.058149 0.636239
v -0.013887 0.402580 0.020003
vt 0.015625 0.015625
vn 0.634439 0.047820 0.771492
v -0.046717 0.400105 -0.019919
vt 0.015625 0.015625
vn -0.634439 -0.047820 -0.771492
v -0.045339 0.381862 -0.019921
vt 0.015625 0.031250
vn -0.634439 -0.047820 -0.771492
v -0.009021 0.384604 -0.016421
vt 0.046875 0.031250
vn 0.769297 0.058149 -0.636239
v -0.010398 0.402847 -0.016419
vt 0.046875 0.015625
vn 0.769297 0.058149 -0.636239
v -0.061754 0.380625 -0.039881
vt 0.062500 0.921875
vn -0.561485 0.536667 -0.629860
v -0.050735 0.234682 -0.039896
vt 0.062500 0.796875
vn -0.634439 -0.047820 -0.771492
v 0.021902 0.240166 -0.032898
vt 0.125000 0.796875
vn 0.769297 0.058149 -0.636239
v 0.010883 0.386109 -0.032882
vt 0.125000 0.921875
vn 0.584662 0.623191 -0.519427
v -0.049104 0.454967 -0.038124
vt 0.593750 0.828125
vn -0.561485 0.536667 -0.629860
v -0.044972 0.400239 -0.038130
vt 0.593750 0.781250
vn -0.474551 -0.614757 -0.629981
v 0.027665 0.405722 -0.031131
vt 0.656250 0.781250
vn -0.190322 -0.316642 -0.929255
v 0.078011 0.464563 -0.025876
vt 0.703125 0.828125
vn 0.584662 0.623191 -0.519427
v 0.089029 0.318621 -0.025891
vt 0.703125 0.703125
vn 0.362833 0.329855 -0.871520
v 0.038684 0.259780 -0.031146
vt 0.656250 0.656250
vn -0.474551 -0.614757 -0.629981
v 0.129480 0.266634 -0.022398
vt 0.734375 0.656250
vn 0.671596 -0.528233 -0.519547
v 0.125348 0.321362 -0.022392
vt 0.734375 0.703125
vn 0.584662 0.623191 -0.519427
v -0.067150 0.233445 -0.059857
vt 0.046875 0.796875
vn -0.561485 0.536667 -0.629860
v -0.063018 0.178717 -0.059863
vt 0.046875 0.750000
vn -0.634439 -0.047820 -0.771492
v 0.045938 0.186942 -0.049365
vt 0.140625 0.750000
vn 0.769297 0.058149 -0.636239
v 0.041806 0.241670 -0.049359
vt 0.140625 0.796875
vn 0.584662 0.623191 -0.519427
v -0.095847 0.176242 -0.099784
vt 0.359375 0.750000
vn -0.561485 0.536667 -0.629860
v -0.068300 -0.188615 -0.099822
vt 0.359375 0.437500
vn -0.474551 -0.614757 -0.629981
v 0.113293 -0.174906 -0.082325
vt 0.515625 0.437500
vn 0.671596 -0.528233 -0.519547
v 0.085745 0.189951 -0.082287
vt 0.515625 0.750000
vn 0.584662 0.623191 -0.519427
v -0.068300 -0.188615 -0.099822
vt 0.781250 0.828125
vn -0.474551 -0.614757 -0.629981
v -0.085745 -0.189951 0.082287
vt 0.781250 0.984375
vn -0.584662 -0.623191 0.519427
v 0.095847 -0.176242 0.099784
vt 0.937500 0.984375
vn 0.561485 -0.536667 0.629860
v 0.113293 -0.174906 -0.082325
vt 0.937500 0.828125
vn 0.671596 -0.528233 -0.519547
v 0.038684 0.259780 -0.031146
vt 0.484375 0.875000
vn -0.474551 -0.614757 -0.629981
v 0.031706 0.259245 0.041698
vt 0.484375 0.812500
vn -0.584662 -0.623191 0.519427
v 0.122502 0.266099 0.050446
vt 0.562500 0.812500
vn 0.561485 -0.536666 0.629860
v 0.129480 0.266634 -0.022398
vt 0.562500 0.875000
vn 0.671596 -0.528233 -0.519547
v 0.027665 0.405722 -0.031131
vt 0.593750 0.875000
vn -0.190322 -0.316642 -0.929255
v -0.044972 0.400239 -0.038130
vt 0.656250 0.875000
vn -0.474551 -0.614757 -0.629981
v -0.051950 0.399704 0.034714
vt 0.656250 0.937500
vn -0.584662 -0.623191 0.519427
v 0.020687 0.405188 0.041713
vt 0.593750 0.937500
vn -0.362833 -0.329855 0.871520
v 0.068300 0.188615 0.099822
vt 0.937500 0.828125
vn 0.474551 0.614757 0.629981
v -0.113293 0.174906 0.082325
vt 0.781250 0.828125
vn -0.671596 0.528233 0.519547
v -0.095847 0.176242 -0.099784
vt 0.781250 0.984375
vn -0.561485 0.536667 -0.629860
v 0.085745 0.189951 -0.082287
vt 0.937500 0.984375
vn 0.584662 0.623191 -0.519427
v 0.041806 0.241670 -0.049359
vt 0.109375 0.109375
vn 0.584662 0.623191 -0.519427
v 0.031338 0.240869 0.059907
vt 0.109375 0.015625
vn 0.474551 0.614757 0.629981
v -0.077617 0.232643 0.049408
vt 0.015625 0.015625
vn -0.671596 0.528233 0.519547
v -0.067150 0.233445 -0.059857
vt 0.015625 0.109375
vn -0.561485 0.536667 -0.629860
v 0.118370 0.320828 0.050452
vt 0.515625 0.937500
vn 0.474551 0.614757 0.629981
v 0.082051 0.318086 0.046952
vt 0.546875 0.937500
vn 0.190322 0.316642 0.929255
v 0.089029 0.318621 -0.025891
vt 0.546875 0.875000
vn 0.362833 0.329855 -0.871520
v 0.125348 0.321362 -0.022392
vt 0.515625 0.875000
vn 0.584662 0.623191 -0.519427
v 0.003905 0.385574 0.039961
vt 0.078125 0.015625
vn 0.474551 0.614757 0.629981
v -0.068732 0.380091 0.032962
vt 0.015625 0.015625
vn -0.671596 0.528233 0.519547
v -0.061754 0.380625 -0.039881
vt 0.015625 0.078125
vn -0.561485 0.536667 -0.629860
v 0.010883 0.386109 -0.032882
vt 0.078125 0.078125
vn 0.584662 0.623191 -0.519427
v 0.071032 0.464029 0.046968
vt 0.546875 0.937500
vn 0.474551 0.614757 0.629981
v -0.056082 0.454433 0.034720
vt 0.656250 0.937500
vn -0.671596 0.528233 0.519547
v -0.049104 0.454967 -0.038124
vt 0.656250 0.875000
vn -0.561485 0.536667 -0.629860
v 0.078011 0.464563 -0.025876
vt 0.546875 0.875000
vn 0.584662 0.623191 -0.519427
# Faces (1 to 128)
f -126/-126/-126 -127/-127/-127 -128/-128/-128
f -125/-125/-125 -126/-126/-126 -128/-128/-128
f -122/-122/-122 -123/-123/-123 -124/-124/-124
f -121/-121/-121 -122/-122/-122 -124/-124/-124
f -118/-118/-118 -119/-119/-119 -120/-120/-120
f -117/-117/-117 -118/-118/-118 -120/-120/-120
f -114/-114/-114 -115/-115/-115 -116/-116/-116
f -113/-113/-113 -114/-114/-114 -116/-116/-116
f -110/-110/-110 -111/-111/-111 -112/-112/-112
f -109/-109/-109 -110/-110/-110 -112/-112/-112
f -106/-106/-106 -107/-107/-107 -108/-108/-108
f -105/-105/-105 -106/-106/-106 -108/-108/-108
f -102/-102/-102 -103/-103/-103 -104/-104/-104
f -101/-101/-101 -102/-102/-102 -104/-104/-104
f -98/-98/-98 -99/-99/-99 -100/-100/-100
f -97/-97/-97 -98/-98/-98 -100/-100/-100
f -94/-94/-94 -95/-95/-95 -96/-96/-96
f -93/-93/-93 -94/-94/-94 -96/-96/-96
f -90/-90/-90 -91/-91/-91 -92/-92/-92
f -89/-89/-89 -90/-90/-90 -92/-92/-92
f -86/-86/-86 -87/-87/-87 -88/-88/-88
f -85/-85/-85 -86/-86/-86 -88/-88/-88
f -82/-82/-82 -83/-83/-83 -84/-84/-84
f -81/-81/-81 -82/-82/-82 -84/-84/-84
f -78/-78/-78 -79/-79/-79 -80/-80/-80
f -77/-77/-77 -78/-78/-78 -80/-80/-80
f -74/-74/-74 -75/-75/-75 -76/-76/-76
f -73/-73/-73 -74/-74/-74 -76/-76/-76
f -70/-70/-70 -71/-71/-71 -72/-72/-72
f -69/-69/-69 -70/-70/-70 -72/-72/-72
f -66/-66/-66 -67/-67/-67 -68/-68/-68
f -65/-65/-65 -66/-66/-66 -68/-68/-68
f -65/-65/-65 -68/-68/-68 -64/-64/-64
f -68/-68/-68 -63/-63/-63 -64/-64/-64
f -64/-64/-64 -63/-63/-63 -62/-62/-62
f -61/-61/-61 -64/-64/-64 -62/-62/-62
f -58/-58/-58 -59/-59/-59 -60/-60/-60
f -57/-57/-57 -58/-58/-58 -60/-60/-60
f -54/-54/-54 -55/-55/-55 -56/-56/-56
f -53/-53/-53 -54/-54/-54 -56/-56/-56
f -50/-50/-50 -51/-51/-51 -52/-52/-52
f -49/-49/-49 -50/-50/-50 -52/-52/-52
f -46/-46/-46 -47/-47/-47 -48/-48/-48
f -45/-45/-45 -46/-46/-46 -48/-48/-48
f -45/-45/-45 -44/-44/-44 -46/-46/-46
f -44/-44/-44 -43/-43/-43 -46/-46/-46
f -42/-42/-42 -43/-43/-43 -44/-44/-44
f -41/-41/-41 -42/-42/-42 -44/-44/-44
f -38/-38/-38 -39/-39/-39 -40/-40/-40
f -37/-37/-37 -38/-38/-38 -40/-40/-40
f -34/-34/-34 -35/-35/-35 -36/-36/-36
f -33/-33/-33 -34/-34/-34 -36/-36/-36
f -30/-30/-30 -31/-31/-31 -32/-32/-32
f -29/-29/-29 -30/-30/-30 -32/-32/-32
f -26/-26/-26 -27/-27/-27 -28/-28/-28
f -25/-25/-25 -26/-26/-26 -28/-28/-28
f -22/-22/-22 -23/-23/-23 -24/-24/-24
f -21/-21/-21 -22/-22/-22 -24/-24/-24
f -18/-18/-18 -19/-19/-19 -20/-20/-20
f -17/-17/-17 -18/-18/-18 -20/-20/-20
f -14/-14/-14 -15/-15/-15 -16/-16/-16
f -13/-13/-13 -14/-14/-14 -16/-16/-16
f -10/-10/-10 -11/-11/-11 -12/-12/-12
f -9/-9/-9 -10/-10/-10 -12/-12/-12
f -6/-6/-6 -7/-7/-7 -8/-8/-8
f -5/-5/-5 -6/-6/-6 -8/-8/-8
f -2/-2/-2 -3/-3/-3 -4/-4/-4
f -1/-1/-1 -2/-2/-2 -4/-4/-4

