g gadget_molotov_mesh
v -0.09321562 -0.09126811 0.1821695
v -0.08968881 -0.0917163 -0.1837084
v -0.08972352 0.09123124 -0.1839329
v -0.09325034 0.09167943 0.1819451
v -0.05716377 -0.05460399 0.237359
v -0.05663475 -0.05467122 0.1824773
v -0.05665558 0.0550973 0.1823426
v -0.0571846 0.05516453 0.2372243
v -0.04028406 -0.03612627 0.3838641
v -0.03887333 -0.03630555 0.2375129
v -0.03888721 0.03687346 0.2374231
v -0.04029794 0.03705274 0.3837743
v -0.02216996 -0.01780542 0.4023119
v -0.02199361 -0.01782783 0.384018
v -0.02200055 0.01876168 0.3839731
v -0.0221769 0.01878409 0.4022669
v -0.02269551 -0.03603294 0.457216
v -0.02216648 -0.03610017 0.4023343
v -0.02218037 0.03707885 0.4022445
v -0.0227094 0.03714608 0.4571262
v 0.05100918 -0.03608542 0.4030396
v 0.05241992 -0.03626471 0.2566885
v 0.05240603 0.03691431 0.2565987
v 0.0509953 0.03709359 0.4029499
v 0.01458727 0.01876905 0.3843257
v 0.01459421 -0.01782045 0.3843707
v 0.01441787 -0.01779804 0.4026645
v 0.01441093 0.01879146 0.4026196
v 0.03428845 0.03688821 0.2381285
v 0.03430233 -0.0362908 0.2382182
v 0.0328916 -0.03611152 0.3845694
v 0.03287772 0.0370675 0.3844796
v 0.05310792 0.05511943 0.1834006
v 0.05312875 -0.0546491 0.1835353
v 0.05259972 -0.05458187 0.238417
v 0.0525789 0.05518666 0.2382824
v 0.09321562 0.09126811 -0.1821695
v 0.09325034 -0.09167943 -0.1819451
v 0.08972352 -0.09123124 0.1839329
v 0.08968881 0.0917163 0.1837084
v 0.1067587 0.0369926 0.3120094
v 0.1067726 -0.03618642 0.3120992
v 0.1053619 -0.03600713 0.4584503
v 0.105348 0.03717188 0.4583606
v 0.1438756 0.03693274 0.2574804
v 0.1438895 -0.03624627 0.2575701
v 0.1433605 -0.03617904 0.3124518
v 0.1433466 0.03699997 0.312362
v 0.09325034 -0.09167943 -0.1819451
v -0.08968881 -0.0917163 -0.1837084
v -0.09321562 -0.09126811 0.1821695
v 0.08972352 -0.09123124 0.1839329
v 0.05312875 -0.0546491 0.1835353
v -0.05663475 -0.05467122 0.1824773
v -0.05716377 -0.05460399 0.237359
v 0.05259972 -0.05458187 0.238417
v 0.03430233 -0.0362908 0.2382182
v -0.03887333 -0.03630555 0.2375129
v -0.04028406 -0.03612627 0.3838641
v 0.0328916 -0.03611152 0.3845694
v 0.05100918 -0.03608542 0.4030396
v -0.02216648 -0.03610017 0.4023343
v -0.02269551 -0.03603294 0.457216
v 0.1053619 -0.03600713 0.4584503
v 0.1067726 -0.03618642 0.3120992
v 0.05241992 -0.03626471 0.2566885
v 0.1438895 -0.03624627 0.2575701
v 0.1433605 -0.03617904 0.3124518
v 0.01459421 -0.01782045 0.3843707
v -0.02199361 -0.01782783 0.384018
v -0.02216996 -0.01780542 0.4023119
v 0.01441787 -0.01779804 0.4026645
v -0.0221769 0.01878409 0.4022669
v -0.02200055 0.01876168 0.3839731
v 0.01458727 0.01876905 0.3843257
v 0.01441093 0.01879146 0.4026196
v -0.04029794 0.03705274 0.3837743
v -0.03888721 0.03687346 0.2374231
v 0.03428845 0.03688821 0.2381285
v 0.03287772 0.0370675 0.3844796
v -0.0227094 0.03714608 0.4571262
v -0.02218037 0.03707885 0.4022445
v 0.0509953 0.03709359 0.4029499
v 0.105348 0.03717188 0.4583606
v 0.1067587 0.0369926 0.3120094
v 0.05240603 0.03691431 0.2565987
v 0.1438756 0.03693274 0.2574804
v 0.1433466 0.03699997 0.312362
v -0.0571846 0.05516453 0.2372243
v -0.05665558 0.0550973 0.1823426
v 0.05310792 0.05511943 0.1834006
v 0.0525789 0.05518666 0.2382824
v -0.09325034 0.09167943 0.1819451
v -0.08972352 0.09123124 -0.1839329
v 0.09321562 0.09126811 -0.1821695
v 0.08968881 0.0917163 0.1837084
v -0.08972352 0.09123124 -0.1839329
v -0.08968881 -0.0917163 -0.1837084
v 0.09325034 -0.09167943 -0.1819451
v 0.09321562 0.09126811 -0.1821695
v 0.05240603 0.03691431 0.2565987
v 0.05241992 -0.03626471 0.2566885
v 0.1438895 -0.03624627 0.2575701
v 0.1438756 0.03693274 0.2574804
v 0.0509953 0.03709359 0.4029499
v -0.02218037 0.03707885 0.4022445
v -0.02216648 -0.03610017 0.4023343
v 0.05100918 -0.03608542 0.4030396
v 0.08972352 -0.09123124 0.1839329
v -0.09321562 -0.09126811 0.1821695
v -0.09325034 0.09167943 0.1819451
v 0.08968881 0.0917163 0.1837084
v 0.0525789 0.05518666 0.2382824
v 0.05259972 -0.05458187 0.238417
v -0.05716377 -0.05460399 0.237359
v -0.0571846 0.05516453 0.2372243
v 0.1433605 -0.03617904 0.3124518
v 0.1067726 -0.03618642 0.3120992
v 0.1067587 0.0369926 0.3120094
v 0.1433466 0.03699997 0.312362
v 0.0328916 -0.03611152 0.3845694
v -0.04028406 -0.03612627 0.3838641
v -0.04029794 0.03705274 0.3837743
v 0.03287772 0.0370675 0.3844796
v 0.1053619 -0.03600713 0.4584503
v -0.02269551 -0.03603294 0.457216
v -0.0227094 0.03714608 0.4571262
v 0.105348 0.03717188 0.4583606
vt 0.171875 0.75
vt 0.171875 0.4375
vt 0.015625 0.4375
vt 0.015625 0.75
vt 0.046875 0.796875
vt 0.046875 0.75
vt 0.140625 0.75
vt 0.140625 0.796875
vt 0.0625 0.921875
vt 0.0625 0.796875
vt 0.125 0.796875
vt 0.125 0.921875
vt 0.015625 0.03125
vt 0.015625 0.015625
vt 0.046875 0.015625
vt 0.046875 0.03125
vt 0.0625 0.984375
vt 0.0625 0.9375
vt 0.125 0.9375
vt 0.125 0.984375
vt 0.234375 0.9375
vt 0.234375 0.8125
vt 0.296875 0.8125
vt 0.296875 0.9375
vt 0.015625 0.03125
vt 0.046875 0.03125
vt 0.046875 0.015625
vt 0.015625 0.015625
vt 0.125 0.796875
vt 0.0625 0.796875
vt 0.0625 0.921875
vt 0.125 0.921875
vt 0.046875 0.75
vt 0.140625 0.75
vt 0.140625 0.796875
vt 0.046875 0.796875
vt 0.015625 0.4375
vt 0.171875 0.4375
vt 0.171875 0.75
vt 0.015625 0.75
vt 0.296875 0.859375
vt 0.234375 0.859375
vt 0.234375 0.984375
vt 0.296875 0.984375
vt 0.234375 0.8125
vt 0.296875 0.8125
vt 0.296875 0.859375
vt 0.234375 0.859375
vt 0.6875 0.28125
vt 0.53125 0.28125
vt 0.53125 0.59375
vt 0.6875 0.59375
vt 0.140625 0.75
vt 0.046875 0.75
vt 0.046875 0.796875
vt 0.140625 0.796875
vt 0.125 0.796875
vt 0.0625 0.796875
vt 0.0625 0.921875
vt 0.125 0.921875
vt 0.65625 0.78125
vt 0.59375 0.78125
vt 0.59375 0.828125
vt 0.703125 0.828125
vt 0.703125 0.703125
vt 0.65625 0.65625
vt 0.734375 0.65625
vt 0.734375 0.703125
vt 0.015625 0.03125
vt 0.046875 0.03125
vt 0.046875 0.015625
vt 0.015625 0.015625
vt 0.015625 0.015625
vt 0.015625 0.03125
vt 0.046875 0.03125
vt 0.046875 0.015625
vt 0.0625 0.921875
vt 0.0625 0.796875
vt 0.125 0.796875
vt 0.125 0.921875
vt 0.59375 0.828125
vt 0.59375 0.78125
vt 0.65625 0.78125
vt 0.703125 0.828125
vt 0.703125 0.703125
vt 0.65625 0.65625
vt 0.734375 0.65625
vt 0.734375 0.703125
vt 0.046875 0.796875
vt 0.046875 0.75
vt 0.140625 0.75
vt 0.140625 0.796875
vt 0.359375 0.75
vt 0.359375 0.4375
vt 0.515625 0.4375
vt 0.515625 0.75
vt 0.78125 0.828125
vt 0.78125 0.984375
vt 0.9375 0.984375
vt 0.9375 0.828125
vt 0.484375 0.875
vt 0.484375 0.8125
vt 0.5625 0.8125
vt 0.5625 0.875
vt 0.59375 0.875
vt 0.65625 0.875
vt 0.65625 0.9375
vt 0.59375 0.9375
vt 0.9375 0.828125
vt 0.78125 0.828125
vt 0.78125 0.984375
vt 0.9375 0.984375
vt 0.109375 0.109375
vt 0.109375 0.015625
vt 0.015625 0.015625
vt 0.015625 0.109375
vt 0.515625 0.9375
vt 0.546875 0.9375
vt 0.546875 0.875
vt 0.515625 0.875
vt 0.078125 0.015625
vt 0.015625 0.015625
vt 0.015625 0.078125
vt 0.078125 0.078125
vt 0.546875 0.9375
vt 0.65625 0.9375
vt 0.65625 0.875
vt 0.546875 0.875
vn -0.9999535 -0.0002015612 -0.009638643
vn -0.9999535 -0.0002015612 -0.009638643
vn -0.9999535 -0.0002015612 -0.009638643
vn -0.9999535 -0.0002015612 -0.009638643
vn -0.9999535 -0.000201564 -0.009638623
vn -0.9999535 -0.000201564 -0.009638623
vn -0.9999535 -0.000201564 -0.009638623
vn -0.9999535 -0.000201564 -0.009638623
vn -0.9999535 -0.0002014983 -0.009638667
vn -0.9999535 -0.0002014983 -0.009638667
vn -0.9999535 -0.0002014983 -0.009638667
vn -0.9999535 -0.0002014983 -0.009638667
vn -0.9999535 -0.0002015334 -0.009638745
vn -0.9999535 -0.0002015334 -0.009638745
vn -0.9999535 -0.0002015334 -0.009638745
vn -0.9999535 -0.0002015334 -0.009638745
vn -0.9999535 -0.0002015606 -0.009638667
vn -0.9999535 -0.0002015606 -0.009638667
vn -0.9999535 -0.0002015606 -0.009638667
vn -0.9999535 -0.0002015606 -0.009638667
vn -0.9999535 -0.0002015618 -0.00963867
vn -0.9999535 -0.0002015618 -0.00963867
vn -0.9999535 -0.0002015618 -0.00963867
vn -0.9999535 -0.0002015618 -0.00963867
vn 0.9999535 0.0002015006 0.009638681
vn 0.9999535 0.0002015006 0.009638681
vn 0.9999535 0.0002015006 0.009638681
vn 0.9999535 0.0002015006 0.009638681
vn 0.9999535 0.0002014994 0.009638669
vn 0.9999535 0.0002014994 0.009638669
vn 0.9999535 0.0002014994 0.009638669
vn 0.9999535 0.0002014994 0.009638669
vn 0.9999535 0.000201564 0.009638623
vn 0.9999535 0.000201564 0.009638623
vn 0.9999535 0.000201564 0.009638623
vn 0.9999535 0.000201564 0.009638623
vn 0.9999535 0.0002015612 0.009638643
vn 0.9999535 0.0002015612 0.009638643
vn 0.9999535 0.0002015612 0.009638643
vn 0.9999535 0.0002015612 0.009638643
vn 0.9999535 0.0002015617 0.009638603
vn 0.9999535 0.0002015617 0.009638603
vn 0.9999535 0.0002015617 0.009638603
vn 0.9999535 0.0002015617 0.009638603
vn 0.9999535 0.0002015632 0.009638626
vn 0.9999535 0.0002015632 0.009638626
vn 0.9999535 0.0002015632 0.009638626
vn 0.9999535 0.0002015632 0.009638626
vn 0.0001897121 -0.9999992 0.001226796
vn 0.0001897121 -0.9999992 0.001226796
vn 0.0001897121 -0.9999992 0.001226796
vn 0.0001897121 -0.9999992 0.001226796
vn 0.0001897464 -0.9999992 0.001226813
vn 0.0001897464 -0.9999992 0.001226813
vn 0.0001897464 -0.9999992 0.001226813
vn 0.0001897464 -0.9999992 0.001226813
vn 0.0001897245 -0.9999992 0.001226835
vn 0.0001897245 -0.9999992 0.001226835
vn 0.0001897245 -0.9999992 0.001226835
vn 0.0001897245 -0.9999992 0.001226835
vn 0.0001896828 -0.9999992 0.001226836
vn 0.0001896713 -0.9999992 0.001226828
vn 0.0001896713 -0.9999992 0.001226828
vn 0.0001896828 -0.9999992 0.001226836
vn 0.0001896861 -0.9999992 0.001226856
vn 0.0001896861 -0.9999992 0.001226856
vn 0.0001896779 -0.9999992 0.001226869
vn 0.0001896779 -0.9999992 0.001226869
vn 0.0001897247 -0.9999992 0.001226836
vn 0.0001897247 -0.9999992 0.001226836
vn 0.0001897247 -0.9999992 0.001226836
vn 0.0001897247 -0.9999992 0.001226836
vn -0.0001897247 0.9999992 -0.001226836
vn -0.0001897247 0.9999992 -0.001226836
vn -0.0001897247 0.9999992 -0.001226836
vn -0.0001897247 0.9999992 -0.001226836
vn -0.0001897245 0.9999992 -0.001226835
vn -0.0001897245 0.9999992 -0.001226835
vn -0.0001897245 0.9999992 -0.001226835
vn -0.0001897245 0.9999992 -0.001226835
vn -0.0001896713 0.9999992 -0.001226828
vn -0.0001896713 0.9999992 -0.001226828
vn -0.0001896829 0.9999992 -0.001226836
vn -0.0001896829 0.9999992 -0.001226836
vn -0.0001896862 0.9999992 -0.001226856
vn -0.0001896862 0.9999992 -0.001226856
vn -0.0001896779 0.9999992 -0.001226869
vn -0.0001896779 0.9999992 -0.001226869
vn -0.0001897464 0.9999992 -0.001226813
vn -0.0001897464 0.9999992 -0.001226813
vn -0.0001897464 0.9999992 -0.001226813
vn -0.0001897464 0.9999992 -0.001226813
vn -0.0001897121 0.9999992 -0.001226796
vn -0.0001897121 0.9999992 -0.001226796
vn -0.0001897121 0.9999992 -0.001226796
vn -0.0001897121 0.9999992 -0.001226796
vn 0.00963886 -0.0012249 -0.9999528
vn 0.00963886 -0.0012249 -0.9999528
vn 0.00963886 -0.0012249 -0.9999528
vn 0.00963886 -0.0012249 -0.9999528
vn 0.009638756 -0.001224953 -0.9999528
vn 0.009638756 -0.001224953 -0.9999528
vn 0.009638756 -0.001224953 -0.9999528
vn 0.009638756 -0.001224953 -0.9999528
vn 0.009638754 -0.001224692 -0.9999528
vn 0.009638754 -0.001224692 -0.9999528
vn 0.009638754 -0.001224692 -0.9999528
vn 0.009638754 -0.001224692 -0.9999528
vn -0.00963886 0.0012249 0.9999528
vn -0.00963886 0.0012249 0.9999528
vn -0.00963886 0.0012249 0.9999528
vn -0.00963886 0.0012249 0.9999528
vn -0.009638929 0.001225039 0.9999528
vn -0.009638929 0.001225039 0.9999528
vn -0.009638929 0.001225039 0.9999528
vn -0.009638929 0.001225039 0.9999528
vn -0.009638755 0.001224952 0.9999528
vn -0.009638755 0.001224952 0.9999528
vn -0.009638755 0.001224952 0.9999528
vn -0.009638755 0.001224952 0.9999528
vn -0.009638755 0.001225214 0.9999528
vn -0.009638755 0.001225214 0.9999528
vn -0.009638755 0.001225214 0.9999528
vn -0.009638755 0.001225214 0.9999528
vn -0.009638903 0.001224691 0.9999528
vn -0.009638903 0.001224691 0.9999528
vn -0.009638903 0.001224691 0.9999528
vn -0.009638903 0.001224691 0.9999528
g gadget_molotov_mesh_0
f 3/3/3 2/2/2 1/1/1
f 4/4/4 3/3/3 1/1/1
f 7/7/7 6/6/6 5/5/5
f 8/8/8 7/7/7 5/5/5
f 11/11/11 10/10/10 9/9/9
f 12/12/12 11/11/11 9/9/9
f 15/15/15 14/14/14 13/13/13
f 16/16/16 15/15/15 13/13/13
f 19/19/19 18/18/18 17/17/17
f 20/20/20 19/19/19 17/17/17
f 23/23/23 22/22/22 21/21/21
f 24/24/24 23/23/23 21/21/21
f 27/27/27 26/26/26 25/25/25
f 28/28/28 27/27/27 25/25/25
f 31/31/31 30/30/30 29/29/29
f 32/32/32 31/31/31 29/29/29
f 35/35/35 34/34/34 33/33/33
f 36/36/36 35/35/35 33/33/33
f 39/39/39 38/38/38 37/37/37
f 40/40/40 39/39/39 37/37/37
f 43/43/43 42/42/42 41/41/41
f 44/44/44 43/43/43 41/41/41
f 47/47/47 46/46/46 45/45/45
f 48/48/48 47/47/47 45/45/45
f 51/51/51 50/50/50 49/49/49
f 52/52/52 51/51/51 49/49/49
f 55/55/55 54/54/54 53/53/53
f 56/56/56 55/55/55 53/53/53
f 59/59/59 58/58/58 57/57/57
f 60/60/60 59/59/59 57/57/57
f 63/63/63 62/62/62 61/61/61
f 64/64/64 63/63/63 61/61/61
f 64/64/64 61/61/61 65/65/65
f 61/61/61 66/66/66 65/65/65
f 65/65/65 66/66/66 67/67/67
f 68/68/68 65/65/65 67/67/67
f 71/71/71 70/70/70 69/69/69
f 72/72/72 71/71/71 69/69/69
f 75/75/75 74/74/74 73/73/73
f 76/76/76 75/75/75 73/73/73
f 79/79/79 78/78/78 77/77/77
f 80/80/80 79/79/79 77/77/77
f 83/83/83 82/82/82 81/81/81
f 84/84/84 83/83/83 81/81/81
f 84/84/84 85/85/85 83/83/83
f 85/85/85 86/86/86 83/83/83
f 87/87/87 86/86/86 85/85/85
f 88/88/88 87/87/87 85/85/85
f 91/91/91 90/90/90 89/89/89
f 92/92/92 91/91/91 89/89/89
f 95/95/95 94/94/94 93/93/93
f 96/96/96 95/95/95 93/93/93
f 99/99/99 98/98/98 97/97/97
f 100/100/100 99/99/99 97/97/97
f 103/103/103 102/102/102 101/101/101
f 104/104/104 103/103/103 101/101/101
f 107/107/107 106/106/106 105/105/105
f 108/108/108 107/107/107 105/105/105
f 111/111/111 110/110/110 109/109/109
f 112/112/112 111/111/111 109/109/109
f 115/115/115 114/114/114 113/113/113
f 116/116/116 115/115/115 113/113/113
f 119/119/119 118/118/118 117/117/117
f 120/120/120 119/119/119 117/117/117
f 123/123/123 122/122/122 121/121/121
f 124/124/124 123/123/123 121/121/121
f 127/127/127 126/126/126 125/125/125
f 128/128/128 127/127/127 125/125/125
