g gate_castle_2_SI
v 2.78972 3.738901 0.8566454
v 2.909715 3.738901 0.8566453
v 2.909715 3.69786 0.9694002
v 2.78972 3.69786 0.9694002
v 2.709718 3.48436 0.6788538
v 2.989756 3.48436 0.6788538
v 2.909715 3.738901 0.8566453
v 2.78972 3.738901 0.8566454
v 2.989756 3.48436 0.6788538
v 2.989755 3.388595 0.9419763
v 2.909715 3.69786 0.9694002
v 2.909715 3.738901 0.8566453
v 2.709718 3.48436 0.6788538
v 2.78972 3.738901 0.8566454
v 2.78972 3.69786 0.9694002
v 2.709718 3.388595 0.9419764
v 2.709718 3.388595 0.9419764
v 2.78972 3.69786 0.9694002
v 2.909715 3.69786 0.9694002
v 2.989755 3.388595 0.9419763
v -2.78972 3.738901 0.8566457
v -2.78972 3.69786 0.9694005
v -2.909715 3.69786 0.9694006
v -2.909715 3.738901 0.8566458
v -2.989756 3.484359 0.6788542
v -2.709718 3.48436 0.6788541
v -2.78972 3.738901 0.8566457
v -2.909715 3.738901 0.8566458
v -2.989756 3.484359 0.6788542
v -2.909715 3.738901 0.8566458
v -2.909715 3.69786 0.9694006
v -2.989756 3.388594 0.9419767
v -2.709718 3.48436 0.6788541
v -2.709718 3.388595 0.9419767
v -2.78972 3.69786 0.9694005
v -2.78972 3.738901 0.8566457
v -2.989756 3.388594 0.9419767
v -2.909715 3.69786 0.9694006
v -2.78972 3.69786 0.9694005
v -2.709718 3.388595 0.9419767
vt -1.57944 2.213291
vt -1.81943 2.213291
vt -1.81943 2.4388
vt -1.57944 2.438801
vt -1.419436 0.9687195
vt -1.979512 0.96872
vt -1.81943 1.477803
vt -1.57944 1.477803
vt -0.8577076 0.96872
vt -1.383953 0.7771898
vt -1.4388 1.39572
vt -1.213291 1.477803
vt 1.857708 0.9687195
vt 2.213291 1.477803
vt 2.438801 1.39572
vt 2.383953 0.7771893
vt 2.419436 0.7771893
vt 2.57944 1.39572
vt 2.81943 1.39572
vt 2.979511 0.7771898
vt 9.579441 2.213292
vt 9.579441 2.438801
vt 9.819431 2.438801
vt 9.819431 2.213292
vt 9.979513 0.9687191
vt 9.419437 0.9687195
vt 9.579441 1.477802
vt 9.819431 1.477802
vt 1.857708 0.9687191
vt 2.213292 1.477802
vt 2.438801 1.395719
vt 2.383954 0.7771888
vt -0.8577084 0.9687195
vt -1.383953 0.7771893
vt -1.438801 1.395719
vt -1.213292 1.477802
vt -8.979511 0.7771888
vt -8.819431 1.395719
vt -8.579441 1.395719
vt -8.419437 0.7771893
vn 1.698974E-07 0.9396873 0.3420347
vn 1.698974E-07 0.9396873 0.3420347
vn 1.698974E-07 0.9396873 0.3420347
vn 1.698974E-07 0.9396873 0.3420347
vn -6.620149E-07 0.5726245 -0.8198178
vn -6.620149E-07 0.5726245 -0.8198178
vn -6.620149E-07 0.5726245 -0.8198178
vn -6.620149E-07 0.5726245 -0.8198178
vn 0.9662018 0.242241 0.08816689
vn 0.9662018 0.242241 0.08816689
vn 0.9662018 0.242241 0.08816689
vn 0.9662018 0.242241 0.08816689
vn -0.9662331 0.2421313 0.08812521
vn -0.9662331 0.2421313 0.08812521
vn -0.9662331 0.2421313 0.08812521
vn -0.9662331 0.2421313 0.08812521
vn 2.872139E-07 -0.08832769 0.9960914
vn 2.872139E-07 -0.08832769 0.9960914
vn 2.872139E-07 -0.08832769 0.9960914
vn 2.872139E-07 -0.08832769 0.9960914
vn 1.698974E-07 0.9396873 0.3420347
vn 1.698974E-07 0.9396873 0.3420347
vn 1.698974E-07 0.9396873 0.3420347
vn 1.698974E-07 0.9396873 0.3420347
vn -6.620152E-07 0.5726249 -0.8198175
vn -6.620152E-07 0.5726249 -0.8198175
vn -6.620152E-07 0.5726249 -0.8198175
vn -6.620152E-07 0.5726249 -0.8198175
vn -0.9662018 0.242241 0.08816689
vn -0.9662018 0.242241 0.08816689
vn -0.9662018 0.242241 0.08816689
vn -0.9662018 0.242241 0.08816689
vn 0.966233 0.2421316 0.08812533
vn 0.966233 0.2421316 0.08812533
vn 0.966233 0.2421316 0.08812533
vn 0.966233 0.2421316 0.08812533
vn 2.87214E-07 -0.08832775 0.9960914
vn 2.87214E-07 -0.08832775 0.9960914
vn 2.87214E-07 -0.08832775 0.9960914
vn 2.87214E-07 -0.08832775 0.9960914
g gate_castle_2_SI_0
f 3/3/3 2/2/2 1/1/1
f 4/4/4 3/3/3 1/1/1
f 7/7/7 6/6/6 5/5/5
f 8/8/8 7/7/7 5/5/5
f 11/11/11 10/10/10 9/9/9
f 12/12/12 11/11/11 9/9/9
f 15/15/15 14/14/14 13/13/13
f 16/16/16 15/15/15 13/13/13
f 19/19/19 18/18/18 17/17/17
f 20/20/20 19/19/19 17/17/17
f 23/23/23 22/22/22 21/21/21
f 24/24/24 23/23/23 21/21/21
f 27/27/27 26/26/26 25/25/25
f 28/28/28 27/27/27 25/25/25
f 31/31/31 30/30/30 29/29/29
f 32/32/32 31/31/31 29/29/29
f 35/35/35 34/34/34 33/33/33
f 36/36/36 35/35/35 33/33/33
f 39/39/39 38/38/38 37/37/37
f 40/40/40 39/39/39 37/37/37
