g gerl_arms_mesh
v 0.5026529 -0.1105356 1.483703
v 0.5026529 -0.1105356 1.041562
v 0.2815824 -0.1105356 1.041562
v 0.2815824 -0.1105354 1.483703
v 0.5026529 -0.1105356 0.9152362
v 0.5026529 -0.1105357 0.7257472
v 0.2815824 -0.1105356 0.7257472
v 0.2815824 -0.1105356 0.9152362
v 0.5342344 -0.1421171 1.041562
v 0.5342344 -0.1421171 0.9152362
v 0.250001 -0.1421171 0.9152362
v 0.250001 -0.142117 1.041562
v 0.4710715 -0.07895391 1.515285
v 0.5026529 -0.1105356 1.483703
v 0.2815824 -0.1105354 1.483703
v 0.2815824 -0.07895388 1.515285
v 0.4710715 0.07895358 1.515285
v 0.2815825 0.07895361 1.515285
v 0.2815825 0.1105348 1.483703
v 0.2815825 0.110535 1.041562
v 0.5026529 0.1105349 1.041562
v 0.5026529 0.110535 1.483703
v 0.2815825 0.07895361 1.515285
v 0.4710715 0.07895358 1.515285
v 0.2815825 0.110535 0.9152362
v 0.2815825 0.1105349 0.7257472
v 0.5026529 0.1105348 0.7257472
v 0.5026529 0.1105349 0.9152362
v 0.250001 0.1421165 1.041562
v 0.250001 0.1421164 0.9152362
v 0.5342345 0.1421164 0.9152362
v 0.5342345 0.1421164 1.041562
v 0.2815824 -0.1105354 1.483703
v 0.2815824 -0.1105356 1.041562
v 0.2815825 0.110535 1.041562
v 0.2815825 0.1105348 1.483703
v 0.2815824 -0.07895388 1.515285
v 0.2815825 0.07895361 1.515285
v 0.2815824 -0.1105356 0.9152362
v 0.2815824 -0.1105356 0.7257472
v 0.2815825 0.1105349 0.7257472
v 0.2815825 0.110535 0.9152362
v 0.250001 -0.142117 1.041562
v 0.250001 -0.1421171 0.9152362
v 0.250001 0.1421164 0.9152362
v 0.250001 0.1421165 1.041562
v 0.5026529 0.110535 1.483703
v 0.5026529 0.1105349 1.041562
v 0.5026529 -0.1105356 1.041562
v 0.5026529 -0.1105356 1.483703
v 0.4710715 0.07895358 1.515285
v 0.4710715 -0.07895391 1.515285
v 0.5026529 0.1105349 0.9152362
v 0.5026529 0.1105348 0.7257472
v 0.5026529 -0.1105357 0.7257472
v 0.5026529 -0.1105356 0.9152362
v 0.5342345 0.1421164 1.041562
v 0.5342345 0.1421164 0.9152362
v 0.5342344 -0.1421171 0.9152362
v 0.5342344 -0.1421171 1.041562
v 0.2815825 0.1105349 0.7257472
v 0.2815824 -0.1105356 0.7257472
v 0.5026529 -0.1105357 0.7257472
v 0.5026529 0.1105348 0.7257472
v 0.5342344 -0.1421171 1.041562
v 0.250001 -0.142117 1.041562
v 0.2815824 -0.1105356 1.041562
v 0.5026529 -0.1105356 1.041562
v 0.2815825 0.110535 1.041562
v 0.250001 0.1421165 1.041562
v 0.5026529 0.1105349 1.041562
v 0.5342345 0.1421164 1.041562
v 0.250001 -0.1421171 0.9152362
v 0.5342344 -0.1421171 0.9152362
v 0.5026529 -0.1105356 0.9152362
v 0.2815824 -0.1105356 0.9152362
v 0.250001 0.1421164 0.9152362
v 0.2815825 0.110535 0.9152362
v 0.5342345 0.1421164 0.9152362
v 0.5026529 0.1105349 0.9152362
v -0.5026529 -0.1105354 1.483703
v -0.2815825 -0.1105353 1.483703
v -0.2815825 -0.1105355 1.041562
v -0.5026529 -0.1105355 1.041562
v -0.5026529 -0.1105355 0.9152362
v -0.2815825 -0.1105355 0.9152362
v -0.2815825 -0.1105355 0.7257472
v -0.5026529 -0.1105355 0.7257472
v -0.5342345 -0.1421169 1.041562
v -0.250001 -0.1421169 1.041562
v -0.250001 -0.142117 0.9152362
v -0.5342345 -0.1421169 0.9152362
v -0.4710715 -0.07895377 1.515285
v -0.2815825 -0.0789538 1.515285
v -0.2815825 -0.1105353 1.483703
v -0.5026529 -0.1105354 1.483703
v -0.4710715 0.07895372 1.515285
v -0.2815824 0.07895369 1.515285
v -0.2815824 0.1105349 1.483703
v -0.5026529 0.1105352 1.483703
v -0.5026529 0.1105351 1.041562
v -0.2815824 0.110535 1.041562
v -0.2815824 0.07895369 1.515285
v -0.4710715 0.07895372 1.515285
v -0.2815824 0.1105351 0.9152362
v -0.5026529 0.110535 0.9152362
v -0.5026529 0.110535 0.7257472
v -0.2815824 0.1105349 0.7257472
v -0.250001 0.1421165 1.041562
v -0.5342344 0.1421166 1.041562
v -0.5342344 0.1421165 0.9152362
v -0.250001 0.1421165 0.9152362
v -0.2815825 -0.1105353 1.483703
v -0.2815824 0.1105349 1.483703
v -0.2815824 0.110535 1.041562
v -0.2815825 -0.1105355 1.041562
v -0.2815825 -0.0789538 1.515285
v -0.2815824 0.07895369 1.515285
v -0.2815825 -0.1105355 0.9152362
v -0.2815824 0.1105351 0.9152362
v -0.2815824 0.1105349 0.7257472
v -0.2815825 -0.1105355 0.7257472
v -0.250001 -0.1421169 1.041562
v -0.250001 0.1421165 1.041562
v -0.250001 0.1421165 0.9152362
v -0.250001 -0.142117 0.9152362
v -0.5026529 0.1105352 1.483703
v -0.5026529 -0.1105354 1.483703
v -0.5026529 -0.1105355 1.041562
v -0.5026529 0.1105351 1.041562
v -0.4710715 0.07895372 1.515285
v -0.4710715 -0.07895377 1.515285
v -0.5026529 0.110535 0.9152362
v -0.5026529 -0.1105355 0.9152362
v -0.5026529 -0.1105355 0.7257472
v -0.5026529 0.110535 0.7257472
v -0.5342344 0.1421166 1.041562
v -0.5342345 -0.1421169 1.041562
v -0.5342345 -0.1421169 0.9152362
v -0.5342344 0.1421165 0.9152362
v -0.2815824 0.1105349 0.7257472
v -0.5026529 0.110535 0.7257472
v -0.5026529 -0.1105355 0.7257472
v -0.2815825 -0.1105355 0.7257472
v -0.5342345 -0.1421169 1.041562
v -0.5026529 -0.1105355 1.041562
v -0.2815825 -0.1105355 1.041562
v -0.250001 -0.1421169 1.041562
v -0.2815824 0.110535 1.041562
v -0.250001 0.1421165 1.041562
v -0.5026529 0.1105351 1.041562
v -0.5342344 0.1421166 1.041562
v -0.250001 -0.142117 0.9152362
v -0.2815825 -0.1105355 0.9152362
v -0.5026529 -0.1105355 0.9152362
v -0.5342345 -0.1421169 0.9152362
v -0.250001 0.1421165 0.9152362
v -0.2815824 0.1105351 0.9152362
v -0.5342344 0.1421165 0.9152362
v -0.5026529 0.110535 0.9152362
vt 0.8125 0.484375
vt 0.8125 0.375
vt 0.7578125 0.375
vt 0.7578125 0.484375
vt 0.8125 0.21875
vt 0.8125 0.171875
vt 0.7578125 0.171875
vt 0.7578125 0.21875
vt 0.8125 0.2734375
vt 0.8125 0.2421875
vt 0.7421875 0.2421875
vt 0.7421875 0.2734375
vt 0.8046875 0.4921875
vt 0.8125 0.484375
vt 0.7578125 0.484375
vt 0.7578125 0.4921875
vt 0.8046875 0.53125
vt 0.7578125 0.53125
vt 0.921875 0.484375
vt 0.921875 0.375
vt 0.8671875 0.375
vt 0.8671875 0.484375
vt 0.921875 0.4921875
vt 0.875 0.4921875
vt 0.921875 0.21875
vt 0.921875 0.171875
vt 0.8671875 0.171875
vt 0.8671875 0.21875
vt 0.953125 0.2734375
vt 0.953125 0.2421875
vt 0.8828125 0.2421875
vt 0.8828125 0.2734375
vt 0.7578125 0.484375
vt 0.7578125 0.375
vt 0.703125 0.375
vt 0.703125 0.484375
vt 0.75 0.4921875
vt 0.7109375 0.4921875
vt 0.7578125 0.21875
vt 0.7578125 0.171875
vt 0.703125 0.171875
vt 0.703125 0.21875
vt 0.7421875 0.2734375
vt 0.7421875 0.2421875
vt 0.671875 0.2421875
vt 0.671875 0.2734375
vt 0.8671875 0.484375
vt 0.8671875 0.375
vt 0.8125 0.375
vt 0.8125 0.484375
vt 0.859375 0.4921875
vt 0.8203125 0.4921875
vt 0.8671875 0.21875
vt 0.8671875 0.171875
vt 0.8125 0.171875
vt 0.8125 0.21875
vt 0.8828125 0.2734375
vt 0.8828125 0.2421875
vt 0.8125 0.2421875
vt 0.8125 0.2734375
vt 0.8671875 0.1171875
vt 0.8125 0.1171875
vt 0.8125 0.171875
vt 0.8671875 0.171875
vt 0.7421875 0.34375
vt 0.8125 0.34375
vt 0.8046875 0.3359375
vt 0.75 0.3359375
vt 0.8046875 0.28125
vt 0.8125 0.2734375
vt 0.75 0.28125
vt 0.7421875 0.2734375
vt 0.8125 0.2734375
vt 0.7421875 0.2734375
vt 0.75 0.28125
vt 0.8046875 0.28125
vt 0.8125 0.34375
vt 0.8046875 0.3359375
vt 0.7421875 0.34375
vt 0.75 0.3359375
vt 0.8125 0.484375
vt 0.7578125 0.484375
vt 0.7578125 0.375
vt 0.8125 0.375
vt 0.8125 0.21875
vt 0.7578125 0.21875
vt 0.7578125 0.171875
vt 0.8125 0.171875
vt 0.8125 0.2734375
vt 0.7421875 0.2734375
vt 0.7421875 0.2421875
vt 0.8125 0.2421875
vt 0.8046875 0.4921875
vt 0.7578125 0.4921875
vt 0.7578125 0.484375
vt 0.8125 0.484375
vt 0.8046875 0.53125
vt 0.7578125 0.53125
vt 0.921875 0.484375
vt 0.8671875 0.484375
vt 0.8671875 0.375
vt 0.921875 0.375
vt 0.921875 0.4921875
vt 0.875 0.4921875
vt 0.921875 0.21875
vt 0.8671875 0.21875
vt 0.8671875 0.171875
vt 0.921875 0.171875
vt 0.953125 0.2734375
vt 0.8828125 0.2734375
vt 0.8828125 0.2421875
vt 0.953125 0.2421875
vt 0.7578125 0.484375
vt 0.703125 0.484375
vt 0.703125 0.375
vt 0.7578125 0.375
vt 0.75 0.4921875
vt 0.7109375 0.4921875
vt 0.7578125 0.21875
vt 0.703125 0.21875
vt 0.703125 0.171875
vt 0.7578125 0.171875
vt 0.7421875 0.2734375
vt 0.671875 0.2734375
vt 0.671875 0.2421875
vt 0.7421875 0.2421875
vt 0.8671875 0.484375
vt 0.8125 0.484375
vt 0.8125 0.375
vt 0.8671875 0.375
vt 0.859375 0.4921875
vt 0.8203125 0.4921875
vt 0.8671875 0.21875
vt 0.8125 0.21875
vt 0.8125 0.171875
vt 0.8671875 0.171875
vt 0.8828125 0.2734375
vt 0.8125 0.2734375
vt 0.8125 0.2421875
vt 0.8828125 0.2421875
vt 0.8671875 0.1171875
vt 0.8671875 0.171875
vt 0.8125 0.171875
vt 0.8125 0.1171875
vt 0.7421875 0.34375
vt 0.75 0.3359375
vt 0.8046875 0.3359375
vt 0.8125 0.34375
vt 0.8046875 0.28125
vt 0.8125 0.2734375
vt 0.75 0.28125
vt 0.7421875 0.2734375
vt 0.8125 0.2734375
vt 0.8046875 0.28125
vt 0.75 0.28125
vt 0.7421875 0.2734375
vt 0.8125 0.34375
vt 0.8046875 0.3359375
vt 0.7421875 0.34375
vt 0.75 0.3359375
vn -4.529587E-07 -1 2.264793E-07
vn -4.529587E-07 -1 2.264793E-07
vn -4.529587E-07 -1 2.264793E-07
vn -4.529587E-07 -1 2.264793E-07
vn -1.725557E-07 -1 3.019725E-07
vn -1.725557E-07 -1 3.019725E-07
vn -1.725557E-07 -1 3.019725E-07
vn -1.725557E-07 -1 3.019725E-07
vn -1.3421E-07 -1 3.774656E-07
vn -1.3421E-07 -1 3.774656E-07
vn -1.3421E-07 -1 3.774656E-07
vn -1.3421E-07 -1 3.774656E-07
vn 0.3001939 -0.3001927 0.9054103
vn 0.8298355 -0.2495482 0.4990978
vn -3.27655E-07 -0.707105 0.7071086
vn -1.773255E-07 -0.3826823 0.92388
vn 0.4443523 1.788019E-07 0.8958521
vn 0 0 1
vn -3.588836E-07 0.9238802 0.3826817
vn -3.666809E-07 1 0
vn -3.666809E-07 1 0
vn -3.662837E-07 0.9576366 0.2879795
vn -2.964502E-07 0.7071095 0.707104
vn -2.964502E-07 0.7071095 0.7071041
vn 4.529587E-07 1 -6.291094E-07
vn 4.529587E-07 1 -6.291094E-07
vn 4.529587E-07 1 -6.291094E-07
vn 4.529587E-07 1 -6.291094E-07
vn 1.3421E-07 1 -2.264794E-07
vn 1.3421E-07 1 -2.264794E-07
vn 1.3421E-07 1 -2.264794E-07
vn 1.3421E-07 1 -2.264794E-07
vn -1 1.821422E-07 0
vn -1 1.725558E-07 0
vn -1 1.725558E-07 0
vn -1 1.821423E-07 0
vn -1 2.013151E-07 0
vn -1 2.013151E-07 0
vn -1 1.725557E-07 0
vn -1 1.725556E-07 0
vn -1 1.725556E-07 0
vn -1 1.725557E-07 0
vn -1 1.3421E-07 0
vn -1 1.3421E-07 0
vn -1 1.3421E-07 0
vn -1 1.3421E-07 0
vn 0.9576361 1.1588E-07 0.2879809
vn 1 0 0
vn 1 0 0
vn 0.8298355 -0.2495482 0.4990978
vn 0.4443523 1.788019E-07 0.8958521
vn 0.3001939 -0.3001927 0.9054103
vn 1 0 0
vn 1 0 0
vn 1 0 0
vn 1 0 0
vn 1 -2.6842E-07 0
vn 1 -2.6842E-07 0
vn 1 -2.6842E-07 0
vn 1 -2.6842E-07 0
vn 0 0 -1
vn 0 0 -1
vn 0 0 -1
vn 0 0 -1
vn 0 1.509862E-07 1
vn 0 1.509863E-07 1
vn 0 1.509862E-07 1
vn 0 1.509862E-07 1
vn 0 1.509862E-07 1
vn 0 1.509862E-07 1
vn 0 1.509862E-07 1
vn 0 1.509863E-07 1
vn -6.039449E-07 -1.283383E-06 -1
vn 6.039445E-07 -1.283384E-06 -1
vn 6.039449E-07 -1.283383E-06 -1
vn -6.039451E-07 -1.283383E-06 -1
vn -6.039464E-07 0 -1
vn -6.039443E-07 0 -1
vn 6.039451E-07 0 -1
vn 6.03945E-07 0 -1
vn 1.509863E-07 -1 2.480488E-07
vn 1.509863E-07 -1 2.480488E-07
vn 1.509863E-07 -1 2.480488E-07
vn 1.509863E-07 -1 2.480488E-07
vn -1.294168E-07 -1 3.019725E-07
vn -1.294168E-07 -1 3.019725E-07
vn -1.294168E-07 -1 3.019725E-07
vn -1.294168E-07 -1 3.019725E-07
vn -1.677625E-07 -1 3.774656E-07
vn -1.677625E-07 -1 3.774656E-07
vn -1.677625E-07 -1 3.774656E-07
vn -1.677625E-07 -1 3.774656E-07
vn -0.3001941 -0.3001927 0.9054103
vn 0 -0.3826823 0.92388
vn 1.144192E-07 -0.707105 0.7071084
vn -0.8298355 -0.2495484 0.4990978
vn -0.4443527 1.78802E-07 0.8958519
vn 0 0 1
vn 6.377123E-07 0.9238802 0.3826818
vn 6.553449E-07 0.9576366 0.2879796
vn 6.686534E-07 1 0
vn 6.686534E-07 1 0
vn 5.096863E-07 0.7071095 0.7071041
vn 5.096863E-07 0.7071095 0.7071041
vn -1.294168E-07 1 -6.542737E-07
vn -1.294168E-07 1 -6.542737E-07
vn -1.294168E-07 1 -6.542737E-07
vn -1.294168E-07 1 -6.542737E-07
vn 1.677625E-07 1 -2.264794E-07
vn 1.677625E-07 1 -2.264794E-07
vn 1.677625E-07 1 -2.264794E-07
vn 1.677625E-07 1 -2.264794E-07
vn 1 -1.821422E-07 0
vn 1 -1.821423E-07 0
vn 1 -1.725558E-07 0
vn 1 -1.725558E-07 0
vn 1 -2.013151E-07 0
vn 1 -2.013151E-07 0
vn 1 -1.725557E-07 0
vn 1 -1.725557E-07 0
vn 1 -1.725557E-07 0
vn 1 -1.725557E-07 0
vn 1 -1.3421E-07 0
vn 1 -1.3421E-07 0
vn 1 -1.3421E-07 0
vn 1 -1.3421E-07 0
vn -0.9576362 1.1588E-07 0.2879808
vn -0.8298355 -0.2495484 0.4990978
vn -1 0 0
vn -1 0 0
vn -0.4443527 1.78802E-07 0.8958519
vn -0.3001941 -0.3001927 0.9054103
vn -1 0 0
vn -1 0 0
vn -1 0 0
vn -1 0 0
vn -1 2.6842E-07 0
vn -1 2.6842E-07 0
vn -1 2.6842E-07 0
vn -1 2.6842E-07 0
vn 0 0 -1
vn 0 0 -1
vn 0 0 -1
vn 0 0 -1
vn 0 1.509864E-07 1
vn 0 1.509861E-07 1
vn 0 1.509862E-07 1
vn 0 1.509864E-07 1
vn 0 1.509862E-07 1
vn 0 1.509863E-07 1
vn 0 1.509863E-07 1
vn 0 1.509862E-07 1
vn 6.039447E-07 -1.283383E-06 -1
vn 6.039447E-07 -1.283383E-06 -1
vn -6.039449E-07 -1.283383E-06 -1
vn -6.039455E-07 -1.283382E-06 -1
vn 6.039463E-07 0 -1
vn 6.039442E-07 0 -1
vn -6.039446E-07 0 -1
vn -6.039451E-07 0 -1
g gerl_arms_mesh_0
f 3/3/3 2/2/2 1/1/1
f 4/4/4 3/3/3 1/1/1
f 7/7/7 6/6/6 5/5/5
f 8/8/8 7/7/7 5/5/5
f 11/11/11 10/10/10 9/9/9
f 12/12/12 11/11/11 9/9/9
f 15/15/15 14/14/14 13/13/13
f 16/16/16 15/15/15 13/13/13
f 13/13/13 17/17/17 16/16/16
f 17/17/17 18/18/18 16/16/16
f 21/21/21 20/20/20 19/19/19
f 22/22/22 21/21/21 19/19/19
f 22/22/22 19/19/19 23/23/23
f 24/24/24 22/22/22 23/23/23
f 27/27/27 26/26/26 25/25/25
f 28/28/28 27/27/27 25/25/25
f 31/31/31 30/30/30 29/29/29
f 32/32/32 31/31/31 29/29/29
f 35/35/35 34/34/34 33/33/33
f 36/36/36 35/35/35 33/33/33
f 36/36/36 33/33/33 37/37/37
f 38/38/38 36/36/36 37/37/37
f 41/41/41 40/40/40 39/39/39
f 42/42/42 41/41/41 39/39/39
f 45/45/45 44/44/44 43/43/43
f 46/46/46 45/45/45 43/43/43
f 49/49/49 48/48/48 47/47/47
f 50/50/50 49/49/49 47/47/47
f 50/50/50 47/47/47 51/51/51
f 52/52/52 50/50/50 51/51/51
f 55/55/55 54/54/54 53/53/53
f 56/56/56 55/55/55 53/53/53
f 59/59/59 58/58/58 57/57/57
f 60/60/60 59/59/59 57/57/57
f 63/63/63 62/62/62 61/61/61
f 64/64/64 63/63/63 61/61/61
f 67/67/67 66/66/66 65/65/65
f 68/68/68 67/67/67 65/65/65
f 67/67/67 69/69/69 66/66/66
f 69/69/69 70/70/70 66/66/66
f 69/69/69 71/71/71 70/70/70
f 71/71/71 72/72/72 70/70/70
f 68/68/68 65/65/65 72/72/72
f 71/71/71 68/68/68 72/72/72
f 75/75/75 74/74/74 73/73/73
f 76/76/76 75/75/75 73/73/73
f 76/76/76 73/73/73 77/77/77
f 78/78/78 76/76/76 77/77/77
f 78/78/78 77/77/77 79/79/79
f 80/80/80 78/78/78 79/79/79
f 80/80/80 79/79/79 74/74/74
f 75/75/75 80/80/80 74/74/74
f 83/83/83 82/82/82 81/81/81
f 84/84/84 83/83/83 81/81/81
f 87/87/87 86/86/86 85/85/85
f 88/88/88 87/87/87 85/85/85
f 91/91/91 90/90/90 89/89/89
f 92/92/92 91/91/91 89/89/89
f 95/95/95 94/94/94 93/93/93
f 96/96/96 95/95/95 93/93/93
f 97/97/97 93/93/93 94/94/94
f 98/98/98 97/97/97 94/94/94
f 101/101/101 100/100/100 99/99/99
f 102/102/102 101/101/101 99/99/99
f 99/99/99 100/100/100 103/103/103
f 100/100/100 104/104/104 103/103/103
f 107/107/107 106/106/106 105/105/105
f 108/108/108 107/107/107 105/105/105
f 111/111/111 110/110/110 109/109/109
f 112/112/112 111/111/111 109/109/109
f 115/115/115 114/114/114 113/113/113
f 116/116/116 115/115/115 113/113/113
f 113/113/113 114/114/114 117/117/117
f 114/114/114 118/118/118 117/117/117
f 121/121/121 120/120/120 119/119/119
f 122/122/122 121/121/121 119/119/119
f 125/125/125 124/124/124 123/123/123
f 126/126/126 125/125/125 123/123/123
f 129/129/129 128/128/128 127/127/127
f 130/130/130 129/129/129 127/127/127
f 127/127/127 128/128/128 131/131/131
f 128/128/128 132/132/132 131/131/131
f 135/135/135 134/134/134 133/133/133
f 136/136/136 135/135/135 133/133/133
f 139/139/139 138/138/138 137/137/137
f 140/140/140 139/139/139 137/137/137
f 143/143/143 142/142/142 141/141/141
f 144/144/144 143/143/143 141/141/141
f 147/147/147 146/146/146 145/145/145
f 148/148/148 147/147/147 145/145/145
f 149/149/149 147/147/147 148/148/148
f 150/150/150 149/149/149 148/148/148
f 151/151/151 149/149/149 150/150/150
f 152/152/152 151/151/151 150/150/150
f 146/146/146 151/151/151 152/152/152
f 145/145/145 146/146/146 152/152/152
f 155/155/155 154/154/154 153/153/153
f 156/156/156 155/155/155 153/153/153
f 153/153/153 154/154/154 157/157/157
f 154/154/154 158/158/158 157/157/157
f 157/157/157 158/158/158 159/159/159
f 158/158/158 160/160/160 159/159/159
f 160/160/160 155/155/155 156/156/156
f 159/159/159 160/160/160 156/156/156
