g Glass
v 1.402786 15.25974 -0.07188232
v -1.46165 12.47309 -0.07188232
v -1.461648 15.25975 -0.07188232
v 1.402784 12.47308 -0.07188232
v 1.392429 12.45382 -0.1216858
v -1.472007 15.24047 -0.1216858
v -1.472005 12.45381 -0.1216858
v 1.392427 15.24048 -0.1216858
v 1.36019 1.928813 -12.31933
v -0.81892 -1.005969 -12.31933
v -1.406643 1.187454 -12.31933
v 1.947913 -0.2646069 -12.31933
v 1.937555 -0.2838708 -12.36913
v -1.417 1.16817 -12.36913
v -0.8292725 -1.025251 -12.36913
v 1.349828 1.909548 -12.36913
v -0.81892 -1.005969 -12.31933
v -1.417 1.16817 -12.36913
v -1.406643 1.187454 -12.31933
v -1.417 1.16817 -12.36913
v -0.81892 -1.005969 -12.31933
v -0.8292725 -1.025251 -12.36913
v -1.406643 1.187454 -12.31933
v 1.349828 1.909548 -12.36913
v 1.36019 1.928813 -12.31933
v -1.417 1.16817 -12.36913
v 1.36019 1.928813 -12.31933
v 1.937555 -0.2838708 -12.36913
v 1.947913 -0.2646069 -12.31933
v 1.349828 1.909548 -12.36913
v 1.947913 -0.2646069 -12.31933
v -0.8292725 -1.025251 -12.36913
v -0.81892 -1.005969 -12.31933
v 1.937555 -0.2838708 -12.36913
v 1.36019 -8.525015 -12.31933
v -0.81892 -11.45979 -12.31933
v -1.406643 -9.266375 -12.31933
v 1.947913 -10.71844 -12.31933
v 1.937555 -10.7377 -12.36913
v -1.417 -9.285659 -12.36913
v -0.8292725 -11.47908 -12.36913
v 1.349828 -8.544277 -12.36913
v -0.81892 -11.45979 -12.31933
v -1.417 -9.285659 -12.36913
v -1.406643 -9.266375 -12.31933
v -1.417 -9.285659 -12.36913
v -0.81892 -11.45979 -12.31933
v -0.8292725 -11.47908 -12.36913
v -1.406643 -9.266375 -12.31933
v 1.349828 -8.544277 -12.36913
v 1.36019 -8.525015 -12.31933
v -1.417 -9.285659 -12.36913
v 1.36019 -8.525015 -12.31933
v 1.937555 -10.7377 -12.36913
v 1.947913 -10.71844 -12.31933
v 1.349828 -8.544277 -12.36913
v 1.947913 -10.71844 -12.31933
v -0.8292725 -11.47908 -12.36913
v -0.81892 -11.45979 -12.31933
v 1.937555 -10.7377 -12.36913
v 1.366115 -22.71023 -0.07188232
v -1.449209 -25.49688 -0.07188232
v -1.449207 -22.71022 -0.07188232
v 1.366112 -25.49689 -0.07188232
v 1.355757 -25.51616 -0.1216858
v -1.459566 -22.7295 -0.1216858
v -1.459564 -25.51617 -0.1216858
v 1.355756 -22.72949 -0.1216858
v -28.423 -22.71514 -0.07188232
v -30.4723 -25.59859 -0.07188232
v -30.4723 -22.71513 -0.07188232
v -28.423 -25.5986 -0.07188232
v -28.43336 -25.61786 -0.1216858
v -30.48266 -22.73441 -0.1216858
v -30.48266 -25.61787 -0.1216858
v -28.43336 -22.7344 -0.1216858
v -28.4393 -9.265208 -0.07188232
v -30.46551 -11.50731 -0.07188232
v -30.46551 -9.265197 -0.07188232
v -28.4393 -11.50732 -0.07188232
v -28.44966 -11.52658 -0.1216858
v -30.47587 -9.284481 -0.1216858
v -30.47586 -11.52659 -0.1216858
v -28.44966 -9.284472 -0.1216858
v -28.423 15.26725 -0.07188232
v -30.4723 12.38381 -0.07188232
v -30.4723 15.26726 -0.07188232
v -28.423 12.3838 -0.07188232
v -28.43336 12.36453 -0.1216858
v -30.48266 15.24798 -0.1216858
v -30.48266 12.36452 -0.1216858
v -28.43336 15.24799 -0.1216858
v -28.87682 1.374083 -12.25505
v -30.01399 -1.425807 -12.25505
v -30.78083 0.6810901 -12.25505
v -28.10997 -0.7328125 -12.25505
v -28.11312 -0.7544556 -12.30485
v -30.78397 0.6594263 -12.30485
v -30.01712 -1.447468 -12.30485
v -28.87996 1.352438 -12.30485
vt 0.1299469 0.4678456
vt 0.04298164 0.3818612
vt 0.04320607 0.467551
vt 0.1309478 0.3785346
vt 0.1295788 0.4689887
vt 0.04318181 0.3822727
vt 0.04281868 0.4679616
vt 0.1304123 0.379626
vt 0.3757069 0.3699869
vt 0.2887416 0.2840024
vt 0.288966 0.3696922
vt 0.3767078 0.2806759
vt 0.3753388 0.3711299
vt 0.2889418 0.2844139
vt 0.2885787 0.3701028
vt 0.3761723 0.2817672
vt 0.09702074 0.4617504
vt 0.09701611 0.4617625
vt 0.09701554 0.4642725
vt 0.09701611 0.4617625
vt 0.09702074 0.4617504
vt 0.09702451 0.4642846
vt 0.09701554 0.4642725
vt 0.0949975 0.4616846
vt 0.09500828 0.4642812
vt 0.09701611 0.4617625
vt 0.09500828 0.4642812
vt 0.09501679 0.4643148
vt 0.09498511 0.4616525
vt 0.0949975 0.4616846
vt 0.1501303 0.7597089
vt 0.1915279 0.7604607
vt 0.1913123 0.7597089
vt 0.1503458 0.7604607
vt 0.3757069 0.3699869
vt 0.2887416 0.2840024
vt 0.288966 0.3696922
vt 0.3767078 0.2806759
vt 0.3753388 0.3711299
vt 0.2889418 0.2844139
vt 0.2885787 0.3701028
vt 0.3761723 0.2817672
vt 0.09702074 0.4617504
vt 0.09701611 0.4617625
vt 0.09701554 0.4642725
vt 0.09701611 0.4617625
vt 0.09702074 0.4617504
vt 0.09702451 0.4642846
vt 0.09701554 0.4642725
vt 0.0949975 0.4616846
vt 0.09500828 0.4642812
vt 0.09701611 0.4617625
vt 0.09500828 0.4642812
vt 0.09501679 0.4643148
vt 0.09498511 0.4616525
vt 0.0949975 0.4616846
vt 0.1501303 0.7597089
vt 0.1915279 0.7604607
vt 0.1913124 0.7597089
vt 0.1503458 0.7604607
vt 0.1299469 0.4678456
vt 0.04298164 0.3818612
vt 0.04320607 0.467551
vt 0.1309478 0.3785346
vt 0.1295788 0.4689887
vt 0.04318181 0.3822727
vt 0.04281868 0.4679616
vt 0.1304123 0.379626
vt 0.07707998 0.4951201
vt 0.01000351 0.4474481
vt 0.07708022 0.4474482
vt 0.01000333 0.4951201
vt 0.009533552 0.4955238
vt 0.07660997 0.4478517
vt 0.009533284 0.4478518
vt 0.07661018 0.4955237
vt 0.19648 0.3611771
vt 0.1343752 0.2920038
vt 0.134052 0.3609651
vt 0.1971319 0.2891805
vt 0.1961629 0.3605571
vt 0.1340277 0.2914268
vt 0.1337356 0.3603708
vt 0.1968168 0.2885587
vt 0.07707998 0.4951201
vt 0.01000351 0.4474481
vt 0.07708022 0.4474482
vt 0.01000333 0.4951201
vt 0.009533552 0.4955238
vt 0.07660997 0.4478517
vt 0.009533284 0.4478518
vt 0.07661018 0.4955237
vt 0.111232 0.4451649
vt 0.05297947 0.3807055
vt 0.05297954 0.4451652
vt 0.1112319 0.3807052
vt 0.111232 0.3803977
vt 0.05297947 0.444857
vt 0.05297951 0.3803973
vt 0.1112319 0.4448572
vn 0 0 1
vn 0 0 1
vn 0 0 1
vn 0 0 1
vn 0 0 -1
vn 0 0 -1
vn 0 0 -1
vn 0 0 -1
vn 0 0 1
vn 0 0 1
vn 0 0 1
vn 0 0 1
vn 0 0 -1
vn 0 0 -1
vn 0 0 -1
vn 0 0 -1
vn -0.9249258 -0.2478329 0.2882554
vn -0.9249258 -0.2478329 0.2882554
vn -0.9249152 -0.2478292 0.2882925
vn -0.9249258 -0.2478329 0.2882554
vn -0.9249258 -0.2478329 0.2882554
vn -0.9249364 -0.2478367 0.2882182
vn -0.2465062 0.9199749 -0.3047639
vn -0.2465062 0.9199749 -0.3047639
vn -0.2465166 0.9200261 -0.3046006
vn -0.2464957 0.9199235 -0.3049271
vn 0.9249255 0.2478328 -0.2882564
vn 0.9249255 0.2478328 -0.2882564
vn 0.9249356 0.2478347 -0.2882223
vn 0.9249153 0.2478309 -0.2882906
vn 0.2465073 -0.9199757 0.3047603
vn 0.2465073 -0.9199757 0.3047603
vn 0.2464905 -0.9199253 0.3049259
vn 0.2465241 -0.9200261 0.3045947
vn 0 0 1
vn 0 0 1
vn 0 0 1
vn 0 0 1
vn 0 0 -1
vn 0 0 -1
vn 0 0 -1
vn 0 0 -1
vn -0.9249248 -0.247833 0.2882584
vn -0.9249248 -0.247833 0.2882584
vn -0.9249135 -0.247829 0.2882981
vn -0.9249248 -0.247833 0.2882584
vn -0.9249248 -0.247833 0.2882584
vn -0.9249361 -0.247837 0.2882186
vn -0.2465077 0.9199781 -0.3047526
vn -0.2465077 0.9199781 -0.3047526
vn -0.2465201 0.9200389 -0.3045592
vn -0.2464953 0.9199175 -0.3049459
vn 0.9249264 0.2478329 -0.2882532
vn 0.9249264 0.2478329 -0.2882532
vn 0.924934 0.2478343 -0.2882276
vn 0.9249188 0.2478315 -0.2882788
vn 0.2465054 -0.9199725 0.3047716
vn 0.2465054 -0.9199725 0.3047716
vn 0.2464896 -0.9199252 0.3049271
vn 0.2465211 -0.9200198 0.3046161
vn 0 0 1
vn 0 0 1
vn 0 0 1
vn 0 0 1
vn 0 0 -1
vn 0 0 -1
vn 0 0 -1
vn 0 0 -1
vn 0 0 1
vn 0 0 1
vn 0 0 1
vn 0 0 1
vn 0 0 -1
vn 0 0 -1
vn 0 0 -1
vn 0 0 -1
vn 0 0 1
vn 0 0 1
vn 0 0 1
vn 0 0 1
vn 0 0 -1
vn 0 0 -1
vn 0 0 -1
vn 0 0 -1
vn 0 0 1
vn 0 0 1
vn 0 0 1
vn 0 0 1
vn 0 0 -1
vn 0 0 -1
vn 0 0 -1
vn 0 0 -1
vn 0 0 1
vn 0 0 1
vn 0 0 1
vn 0 0 1
vn 0 0 -1
vn 0 0 -1
vn 0 0 -1
vn 0 0 -1
g Glass_0
f 3/3/3 2/2/2 1/1/1
f 4/4/4 1/1/1 2/2/2
f 7/7/7 6/6/6 5/5/5
f 8/8/8 5/5/5 6/6/6
f 11/11/11 10/10/10 9/9/9
f 12/12/12 9/9/9 10/10/10
f 15/15/15 14/14/14 13/13/13
f 16/16/16 13/13/13 14/14/14
f 19/19/19 18/18/18 17/17/17
f 22/22/22 21/21/21 20/20/20
f 25/25/25 24/24/24 23/23/23
f 26/26/26 23/23/23 24/24/24
f 29/29/29 28/28/28 27/27/27
f 30/30/30 27/27/27 28/28/28
f 33/33/33 32/32/32 31/31/31
f 34/34/34 31/31/31 32/32/32
f 37/37/37 36/36/36 35/35/35
f 38/38/38 35/35/35 36/36/36
f 41/41/41 40/40/40 39/39/39
f 42/42/42 39/39/39 40/40/40
f 45/45/45 44/44/44 43/43/43
f 48/48/48 47/47/47 46/46/46
f 51/51/51 50/50/50 49/49/49
f 52/52/52 49/49/49 50/50/50
f 55/55/55 54/54/54 53/53/53
f 56/56/56 53/53/53 54/54/54
f 59/59/59 58/58/58 57/57/57
f 60/60/60 57/57/57 58/58/58
f 63/63/63 62/62/62 61/61/61
f 64/64/64 61/61/61 62/62/62
f 67/67/67 66/66/66 65/65/65
f 68/68/68 65/65/65 66/66/66
f 71/71/71 70/70/70 69/69/69
f 72/72/72 69/69/69 70/70/70
f 75/75/75 74/74/74 73/73/73
f 76/76/76 73/73/73 74/74/74
f 79/79/79 78/78/78 77/77/77
f 80/80/80 77/77/77 78/78/78
f 83/83/83 82/82/82 81/81/81
f 84/84/84 81/81/81 82/82/82
f 87/87/87 86/86/86 85/85/85
f 88/88/88 85/85/85 86/86/86
f 91/91/91 90/90/90 89/89/89
f 92/92/92 89/89/89 90/90/90
f 95/95/95 94/94/94 93/93/93
f 96/96/96 93/93/93 94/94/94
f 99/99/99 98/98/98 97/97/97
f 100/100/100 97/97/97 98/98/98
