g glider_hawk_screw_l_mesh
v -0.1406251 0.02343758 -0.04818483
v -0.04687509 0.02343761 -0.04818494
v -0.01562507 0.02343761 -0.01562395
v -0.1718751 0.0234376 -0.01667266
v -0.171875 0.02343761 0.01457733
v -0.01562506 0.02343762 0.01562603
v -0.140625 0.02343765 0.04713831
v -0.04687501 0.02343764 0.04713821
v -0.005718845 0.02343764 0.02134461
v -0.005719539 0.02343761 -0.02134372
v 0.02134396 0.02343765 0.005719319
v 0.02134374 0.02343764 -0.005718718
v -0.171875 0.02343761 0.01457733
v -0.171875 -0.02343748 0.01457734
v -0.1718751 -0.02343752 -0.01667264
v -0.1718751 0.0234376 -0.01667266
v -0.04687501 0.02343764 0.04713821
v -0.04687501 -0.02343745 0.04713822
v -0.140625 -0.02343748 0.04713833
v -0.140625 0.02343765 0.04713831
v -0.1718751 0.0234376 -0.01667266
v -0.1718751 -0.02343752 -0.01667264
v -0.1406251 -0.02343755 -0.04818481
v -0.1406251 0.02343758 -0.04818483
v -0.140625 0.02343765 0.04713831
v -0.140625 -0.02343748 0.04713833
v -0.171875 -0.02343748 0.01457734
v -0.171875 0.02343761 0.01457733
v -0.01562506 0.02343762 0.01562603
v -0.01562505 -0.02343747 0.01562604
v -0.04687501 -0.02343745 0.04713822
v -0.04687501 0.02343764 0.04713821
v -0.04687509 0.02343761 -0.04818494
v -0.04687509 -0.02343756 -0.04818491
v -0.01562507 -0.02343752 -0.01562393
v -0.01562507 0.02343761 -0.01562395
v -0.1406251 0.02343758 -0.04818483
v -0.1406251 -0.02343755 -0.04818481
v -0.04687509 -0.02343756 -0.04818491
v -0.04687509 0.02343761 -0.04818494
v -0.01562507 0.02343761 -0.01562395
v -0.01562507 -0.02343752 -0.01562393
v -0.005719534 -0.02343751 -0.0213437
v -0.005719539 0.02343761 -0.02134372
v -0.005718845 0.02343764 0.02134461
v -0.00571884 -0.02343749 0.02134463
v -0.01562505 -0.02343747 0.01562604
v -0.01562506 0.02343762 0.01562603
v -0.01562507 -0.02343752 -0.01562393
v -0.04687509 -0.02343756 -0.04818491
v -0.1406251 -0.02343755 -0.04818481
v -0.1718751 -0.02343752 -0.01667264
v -0.171875 -0.02343748 0.01457734
v -0.01562505 -0.02343747 0.01562604
v -0.140625 -0.02343748 0.04713833
v -0.04687501 -0.02343745 0.04713822
v -0.00571884 -0.02343749 0.02134463
v -0.005719534 -0.02343751 -0.0213437
v 0.02134397 -0.02343744 0.005719329
v 0.02134374 -0.02343753 -0.005718695
v -0.005718845 0.02343764 0.02134461
v 0.02134396 0.02343765 0.005719319
v 0.06426021 0.02343767 0.01702607
v 0.1111353 0.02343768 0.09821585
v -0.018292 0.02343769 0.06468773
v 0.02858309 0.02343776 0.1458776
v 0.09856164 0.02343773 0.1415596
v 0.07149837 0.02343777 0.1571847
v 0.09856164 0.02343773 0.1415596
v 0.09856164 -0.02343739 0.1415597
v 0.07149837 -0.02343739 0.1571847
v 0.07149837 0.02343777 0.1571847
v 0.06426021 0.02343767 0.01702607
v 0.06426021 -0.0234375 0.01702609
v 0.1111353 -0.02343741 0.09821586
v 0.1111353 0.02343768 0.09821585
v 0.07149837 0.02343777 0.1571847
v 0.07149837 -0.02343739 0.1571847
v 0.02858309 -0.02343737 0.1458776
v 0.02858309 0.02343776 0.1458776
v 0.1111353 0.02343768 0.09821585
v 0.1111353 -0.02343741 0.09821586
v 0.09856164 -0.02343739 0.1415597
v 0.09856164 0.02343773 0.1415596
v 0.02134396 0.02343765 0.005719319
v 0.02134397 -0.02343744 0.005719329
v 0.06426021 -0.0234375 0.01702609
v 0.06426021 0.02343767 0.01702607
v -0.018292 0.02343769 0.06468773
v -0.018292 -0.02343747 0.06468776
v -0.00571884 -0.02343749 0.02134463
v -0.005718845 0.02343764 0.02134461
v 0.02858309 0.02343776 0.1458776
v 0.02858309 -0.02343737 0.1458776
v -0.018292 -0.02343747 0.06468776
v -0.018292 0.02343769 0.06468773
v 0.06426021 -0.0234375 0.01702609
v 0.02134397 -0.02343744 0.005719329
v -0.00571884 -0.02343749 0.02134463
v 0.1111353 -0.02343741 0.09821586
v -0.018292 -0.02343747 0.06468776
v 0.02858309 -0.02343737 0.1458776
v 0.09856164 -0.02343739 0.1415597
v 0.07149837 -0.02343739 0.1571847
v 0.02948953 0.02343751 -0.1453538
v 0.07331322 0.02343753 -0.1561367
v 0.1003765 0.02343751 -0.1405117
v -0.01738539 0.02343758 -0.06416389
v 0.1120418 0.02343755 -0.09769235
v 0.06516693 0.02343763 -0.0165024
v -0.005719539 0.02343761 -0.02134372
v 0.02134374 0.02343764 -0.005718718
v 0.07331322 0.02343753 -0.1561367
v 0.07331322 -0.0234376 -0.1561366
v 0.1003765 -0.02343758 -0.1405116
v 0.1003765 0.02343751 -0.1405117
v -0.01738539 0.02343758 -0.06416389
v -0.01738538 -0.02343755 -0.06416386
v 0.02948953 -0.02343758 -0.1453538
v 0.02948953 0.02343751 -0.1453538
v 0.1003765 0.02343751 -0.1405117
v 0.1003765 -0.02343758 -0.1405116
v 0.1120418 -0.02343758 -0.09769233
v 0.1120418 0.02343755 -0.09769235
v 0.02948953 0.02343751 -0.1453538
v 0.02948953 -0.02343758 -0.1453538
v 0.07331322 -0.0234376 -0.1561366
v 0.07331322 0.02343753 -0.1561367
v -0.005719539 0.02343761 -0.02134372
v -0.005719534 -0.02343751 -0.0213437
v -0.01738538 -0.02343755 -0.06416386
v -0.01738539 0.02343758 -0.06416389
v 0.06516693 0.02343763 -0.0165024
v 0.06516693 -0.0234375 -0.01650239
v 0.02134374 -0.02343753 -0.005718695
v 0.02134374 0.02343764 -0.005718718
v 0.1120418 0.02343755 -0.09769235
v 0.1120418 -0.02343758 -0.09769233
v 0.06516693 -0.0234375 -0.01650239
v 0.06516693 0.02343763 -0.0165024
v 0.02134374 0.02343764 -0.005718718
v 0.02134374 -0.02343753 -0.005718695
v 0.02134397 -0.02343744 0.005719329
v 0.02134396 0.02343765 0.005719319
v 0.1003765 -0.02343758 -0.1405116
v 0.07331322 -0.0234376 -0.1561366
v 0.02948953 -0.02343758 -0.1453538
v -0.01738538 -0.02343755 -0.06416386
v 0.1120418 -0.02343758 -0.09769233
v 0.06516693 -0.0234375 -0.01650239
v -0.005719534 -0.02343751 -0.0213437
v 0.02134374 -0.02343753 -0.005718695
vt 0.375 0.093753
vt 0.375 0.117188
vt 0.383141 0.125002
vt 0.382878 0.085938
vt 0.390689 0.085938
vt 0.390953 0.125002
vt 0.398831 0.093753
vt 0.398831 0.117188
vt 0.392383 0.127478
vt 0.381711 0.127478
vt 0.388476 0.134244
vt 0.385616 0.134244
vt 0.390689 0.085938
vt 0.390689 0.085938
vt 0.382878 0.085938
vt 0.382878 0.085938
vt 0.398831 0.117188
vt 0.398831 0.117188
vt 0.398831 0.093753
vt 0.398831 0.093753
vt 0.382878 0.085938
vt 0.382878 0.085938
vt 0.375 0.093753
vt 0.375 0.093753
vt 0.398831 0.093753
vt 0.398831 0.093753
vt 0.390689 0.085938
vt 0.390689 0.085938
vt 0.390953 0.125002
vt 0.390953 0.125002
vt 0.398831 0.117188
vt 0.398831 0.117188
vt 0.375 0.117188
vt 0.375 0.117188
vt 0.383141 0.125002
vt 0.383141 0.125002
vt 0.375 0.093753
vt 0.375 0.093753
vt 0.375 0.117188
vt 0.375 0.117188
vt 0.383141 0.125002
vt 0.383141 0.125002
vt 0.381711 0.127478
vt 0.381711 0.127478
vt 0.392383 0.127478
vt 0.392383 0.127478
vt 0.390953 0.125002
vt 0.390953 0.125002
vt 0.383141 0.125002
vt 0.375 0.117188
vt 0.375 0.093753
vt 0.382878 0.085938
vt 0.390689 0.085938
vt 0.390953 0.125002
vt 0.398831 0.093753
vt 0.398831 0.117188
vt 0.392383 0.127478
vt 0.381711 0.127478
vt 0.388476 0.134244
vt 0.385616 0.134244
vt 0.383141 0.125002
vt 0.390953 0.125002
vt 0.398831 0.117188
vt 0.398831 0.093753
vt 0.375 0.117188
vt 0.375 0.093753
vt 0.390689 0.085938
vt 0.382878 0.085938
vt 0.390689 0.085938
vt 0.390689 0.085938
vt 0.382878 0.085938
vt 0.382878 0.085938
vt 0.398831 0.117188
vt 0.398831 0.117188
vt 0.398831 0.093753
vt 0.398831 0.093753
vt 0.382878 0.085938
vt 0.382878 0.085938
vt 0.375 0.093753
vt 0.375 0.093753
vt 0.398831 0.093753
vt 0.398831 0.093753
vt 0.390689 0.085938
vt 0.390689 0.085938
vt 0.390953 0.125002
vt 0.390953 0.125002
vt 0.398831 0.117188
vt 0.398831 0.117188
vt 0.375 0.117188
vt 0.375 0.117188
vt 0.383141 0.125002
vt 0.383141 0.125002
vt 0.375 0.093753
vt 0.375 0.093753
vt 0.375 0.117188
vt 0.375 0.117188
vt 0.398831 0.117188
vt 0.390953 0.125002
vt 0.383141 0.125002
vt 0.398831 0.093753
vt 0.375 0.117188
vt 0.375 0.093753
vt 0.390689 0.085938
vt 0.382878 0.085938
vt 0.398831 0.093753
vt 0.390689 0.085938
vt 0.382878 0.085938
vt 0.398831 0.117188
vt 0.375 0.093753
vt 0.375 0.117188
vt 0.390953 0.125002
vt 0.383141 0.125002
vt 0.390689 0.085938
vt 0.390689 0.085938
vt 0.382878 0.085938
vt 0.382878 0.085938
vt 0.398831 0.117188
vt 0.398831 0.117188
vt 0.398831 0.093753
vt 0.398831 0.093753
vt 0.382878 0.085938
vt 0.382878 0.085938
vt 0.375 0.093753
vt 0.375 0.093753
vt 0.398831 0.093753
vt 0.398831 0.093753
vt 0.390689 0.085938
vt 0.390689 0.085938
vt 0.390953 0.125002
vt 0.390953 0.125002
vt 0.398831 0.117188
vt 0.398831 0.117188
vt 0.375 0.117188
vt 0.375 0.117188
vt 0.383141 0.125002
vt 0.383141 0.125002
vt 0.375 0.093753
vt 0.375 0.093753
vt 0.375 0.117188
vt 0.375 0.117188
vt 0.383141 0.125002
vt 0.383141 0.125002
vt 0.381711 0.127478
vt 0.381711 0.127478
vt 0.382878 0.085938
vt 0.390689 0.085938
vt 0.398831 0.093753
vt 0.398831 0.117188
vt 0.375 0.093753
vt 0.375 0.117188
vt 0.390953 0.125002
vt 0.383141 0.125002
vn 0 1 -5.15183E-07
vn 0 1 -5.15183E-07
vn -6.225148E-07 1 -4.754826E-07
vn 0 1 -5.195076E-07
vn 0 1 -5.15183E-07
vn -6.245546E-07 1 -4.754826E-07
vn 0 1 -5.15183E-07
vn 0 1 -5.15183E-07
vn -3.501713E-07 1 -6.472557E-07
vn -4.53143E-07 1 -6.766052E-07
vn -1.888354E-07 1 -7.05955E-07
vn -2.891221E-07 1 -7.059549E-07
vn -1 0 1.063647E-06
vn -1 0 1.063647E-06
vn -1 0 1.063647E-06
vn -1 0 1.063647E-06
vn 1.098912E-06 3.140607E-07 1
vn 1.098912E-06 3.140607E-07 1
vn 1.098912E-06 3.140607E-07 1
vn 1.098912E-06 3.287355E-07 1
vn -0.7100548 -3.202795E-07 -0.7041464
vn -0.7100548 -3.172666E-07 -0.7041464
vn -0.7100548 -3.276168E-07 -0.7041464
vn -0.7100548 -3.319414E-07 -0.7041464
vn -0.7214815 1.26527E-07 0.6924337
vn -0.7214815 1.26527E-07 0.6924337
vn -0.7214815 1.295399E-07 0.6924337
vn -0.7214815 1.191896E-07 0.6924337
vn 0.7100548 2.438927E-07 0.7041464
vn 0.7100548 2.305295E-07 0.7041464
vn 0.7100548 2.438927E-07 0.7041464
vn 0.7100548 2.305295E-07 0.7041464
vn 0.7214817 -2.158873E-07 -0.6924335
vn 0.7214817 -2.158873E-07 -0.6924335
vn 0.7214816 -2.189001E-07 -0.6924335
vn 0.7214817 -2.158873E-07 -0.6924335
vn -1.100268E-06 -4.461337E-07 -1
vn -1.100268E-06 -4.271344E-07 -1
vn -1.100268E-06 -4.314589E-07 -1
vn -1.100268E-06 -4.314589E-07 -1
vn -0.5000527 -3.806338E-07 -0.865995
vn -0.5000527 -3.806338E-07 -0.865995
vn -0.9246896 -2.565318E-07 -0.3807219
vn -0.9246896 -2.470321E-07 -0.3807219
vn -0.9277495 0 0.3732037
vn -0.9277493 0 0.3732039
vn -0.4999493 2.160988E-07 0.8660547
vn -0.4999493 2.204233E-07 0.8660547
vn -2.731453E-07 -1 9.951266E-07
vn 0 -1 1.005476E-06
vn 0 -1 1.005476E-06
vn 0 -1 9.847761E-07
vn 0 -1 1.005476E-06
vn -2.743569E-07 -1 9.908019E-07
vn 0 -1 9.761268E-07
vn 0 -1 9.994507E-07
vn 0 -1 1.034826E-06
vn 0 -1 9.804515E-07
vn 3.187913E-07 -1 1.269622E-06
vn 2.658943E-07 -1 1.229922E-06
vn -3.501713E-07 1 -6.472557E-07
vn -1.888354E-07 1 -7.05955E-07
vn 1.439141E-07 1 -8.086788E-07
vn 1.439141E-07 1 -8.043543E-07
vn 1.439141E-07 1 -8.043543E-07
vn 1.439141E-07 1 -7.940041E-07
vn 1.439141E-07 1 -8.043543E-07
vn 1.439141E-07 1 -7.940041E-07
vn 0.5000024 1.050767E-06 0.866024
vn 0.5000024 1.040417E-06 0.866024
vn 0.5000024 1.040417E-06 0.866024
vn 0.5000024 1.044741E-06 0.866024
vn 0.8660247 -2.431854E-07 -0.5000013
vn 0.8660247 -2.453476E-07 -0.5000013
vn 0.8660247 -2.483604E-07 -0.5000013
vn 0.8660247 -2.483604E-07 -0.5000013
vn -0.2547809 4.15546E-07 0.9669988
vn -0.2547809 4.155461E-07 0.9669988
vn -0.2547809 4.051958E-07 0.9669988
vn -0.2547809 4.15546E-07 0.9669988
vn 0.9604057 2.135436E-07 0.2786053
vn 0.9604057 2.098749E-07 0.2786053
vn 0.9604057 2.120372E-07 0.2786053
vn 0.9604057 2.135436E-07 0.2786053
vn 0.7920693 -2.089475E-07 -0.6104311
vn 0.7920703 -2.043759E-07 -0.6104299
vn 0.2547674 -3.408216E-07 -0.9670024
vn 0.2547674 -3.364971E-07 -0.9670024
vn -0.9604075 -2.202293E-07 -0.2785991
vn -0.9604075 -2.172164E-07 -0.2785991
vn -0.9277493 0 0.3732039
vn -0.9277495 0 0.3732037
vn -0.8660249 1.495718E-07 0.500001
vn -0.8660249 1.443967E-07 0.5000008
vn -0.8660249 1.443967E-07 0.5000009
vn -0.8660249 1.443967E-07 0.5000008
vn 1.011262E-07 -1 6.47256E-07
vn 3.187913E-07 -1 1.269622E-06
vn 0 -1 1.034826E-06
vn 1.011261E-07 -1 6.325812E-07
vn 1.011261E-07 -1 6.282567E-07
vn 1.011262E-07 -1 6.47256E-07
vn 1.011262E-07 -1 6.576062E-07
vn 1.011261E-07 -1 6.429315E-07
vn 0 1 -8.380282E-07
vn 0 1 -8.483784E-07
vn 0 1 -8.380282E-07
vn 0 1 -8.276779E-07
vn 0 1 -8.380282E-07
vn 0 1 -8.483784E-07
vn -4.53143E-07 1 -6.766052E-07
vn -2.891221E-07 1 -7.059549E-07
vn 0.4999998 -2.460399E-07 -0.8660255
vn 0.4999998 -2.460399E-07 -0.8660255
vn 0.4999999 -2.503644E-07 -0.8660255
vn 0.4999998 -2.563902E-07 -0.8660255
vn -0.866026 -2.085132E-07 -0.499999
vn -0.866026 -2.106755E-07 -0.499999
vn -0.866026 -2.033381E-07 -0.499999
vn -0.8660259 -2.033381E-07 -0.499999
vn 0.9648364 -1.607898E-07 -0.2628514
vn 0.9648363 -1.586276E-07 -0.2628514
vn 0.9648363 -1.586276E-07 -0.2628514
vn 0.9648364 -1.607898E-07 -0.2628514
vn -0.2389244 -2.495412E-07 -0.9710382
vn -0.2389244 -2.495412E-07 -0.9710382
vn -0.2389243 -2.685405E-07 -0.9710382
vn -0.2389244 -2.832153E-07 -0.9710382
vn -0.9246896 -2.470321E-07 -0.3807219
vn -0.9246896 -2.565318E-07 -0.3807219
vn -0.9648346 0 0.2628577
vn -0.9648346 0 0.2628577
vn 0.2389447 4.573999E-07 0.9710332
vn 0.2389447 4.470496E-07 0.9710332
vn 0.2389447 4.280503E-07 0.9710332
vn 0.2389447 4.470496E-07 0.9710332
vn 0.8660259 1.204645E-07 0.499999
vn 0.866026 1.174517E-07 0.499999
vn 0.8660259 1.256397E-07 0.499999
vn 0.866026 1.174517E-07 0.499999
vn 1 0 -1.982358E-05
vn 1 0 -1.982358E-05
vn 0.7920703 -2.043759E-07 -0.6104299
vn 0.7920693 -2.089475E-07 -0.6104311
vn 0 -1 5.548828E-07
vn 0 -1 5.445327E-07
vn 0 -1 5.445327E-07
vn 0 -1 5.488572E-07
vn 0 -1 5.298579E-07
vn 0 -1 5.445327E-07
vn 0 -1 9.804515E-07
vn 2.658943E-07 -1 1.229922E-06
g glider_hawk_screw_l_mesh_0
f 3/3/3 2/2/2 1/1/1
f 1/1/1 4/4/4 3/3/3
f 4/4/4 5/5/5 3/3/3
f 5/5/5 6/6/6 3/3/3
f 5/5/5 7/7/7 6/6/6
f 7/7/7 8/8/8 6/6/6
f 6/6/6 9/9/9 3/3/3
f 9/9/9 10/10/10 3/3/3
f 9/9/9 11/11/11 10/10/10
f 11/11/11 12/12/12 10/10/10
f 15/15/15 14/14/14 13/13/13
f 16/16/16 15/15/15 13/13/13
f 19/19/19 18/18/18 17/17/17
f 20/20/20 19/19/19 17/17/17
f 23/23/23 22/22/22 21/21/21
f 24/24/24 23/23/23 21/21/21
f 27/27/27 26/26/26 25/25/25
f 28/28/28 27/27/27 25/25/25
f 31/31/31 30/30/30 29/29/29
f 32/32/32 31/31/31 29/29/29
f 35/35/35 34/34/34 33/33/33
f 36/36/36 35/35/35 33/33/33
f 39/39/39 38/38/38 37/37/37
f 40/40/40 39/39/39 37/37/37
f 43/43/43 42/42/42 41/41/41
f 44/44/44 43/43/43 41/41/41
f 47/47/47 46/46/46 45/45/45
f 48/48/48 47/47/47 45/45/45
f 51/51/51 50/50/50 49/49/49
f 49/49/49 52/52/52 51/51/51
f 49/49/49 53/53/53 52/52/52
f 49/49/49 54/54/54 53/53/53
f 54/54/54 55/55/55 53/53/53
f 54/54/54 56/56/56 55/55/55
f 57/57/57 54/54/54 49/49/49
f 58/58/58 57/57/57 49/49/49
f 59/59/59 57/57/57 58/58/58
f 60/60/60 59/59/59 58/58/58
f 63/63/63 62/62/62 61/61/61
f 61/61/61 64/64/64 63/63/63
f 61/61/61 65/65/65 64/64/64
f 65/65/65 66/66/66 64/64/64
f 66/66/66 67/67/67 64/64/64
f 66/66/66 68/68/68 67/67/67
f 71/71/71 70/70/70 69/69/69
f 72/72/72 71/71/71 69/69/69
f 75/75/75 74/74/74 73/73/73
f 76/76/76 75/75/75 73/73/73
f 79/79/79 78/78/78 77/77/77
f 80/80/80 79/79/79 77/77/77
f 83/83/83 82/82/82 81/81/81
f 84/84/84 83/83/83 81/81/81
f 87/87/87 86/86/86 85/85/85
f 88/88/88 87/87/87 85/85/85
f 91/91/91 90/90/90 89/89/89
f 92/92/92 91/91/91 89/89/89
f 95/95/95 94/94/94 93/93/93
f 96/96/96 95/95/95 93/93/93
f 99/99/99 98/98/98 97/97/97
f 97/97/97 100/100/100 99/99/99
f 100/100/100 101/101/101 99/99/99
f 100/100/100 102/102/102 101/101/101
f 100/100/100 103/103/103 102/102/102
f 103/103/103 104/104/104 102/102/102
f 107/107/107 106/106/106 105/105/105
f 105/105/105 108/108/108 107/107/107
f 108/108/108 109/109/109 107/107/107
f 108/108/108 110/110/110 109/109/109
f 108/108/108 111/111/111 110/110/110
f 111/111/111 112/112/112 110/110/110
f 115/115/115 114/114/114 113/113/113
f 116/116/116 115/115/115 113/113/113
f 119/119/119 118/118/118 117/117/117
f 120/120/120 119/119/119 117/117/117
f 123/123/123 122/122/122 121/121/121
f 124/124/124 123/123/123 121/121/121
f 127/127/127 126/126/126 125/125/125
f 128/128/128 127/127/127 125/125/125
f 131/131/131 130/130/130 129/129/129
f 132/132/132 131/131/131 129/129/129
f 135/135/135 134/134/134 133/133/133
f 136/136/136 135/135/135 133/133/133
f 139/139/139 138/138/138 137/137/137
f 140/140/140 139/139/139 137/137/137
f 143/143/143 142/142/142 141/141/141
f 144/144/144 143/143/143 141/141/141
f 147/147/147 146/146/146 145/145/145
f 145/145/145 148/148/148 147/147/147
f 145/145/145 149/149/149 148/148/148
f 149/149/149 150/150/150 148/148/148
f 150/150/150 151/151/151 148/148/148
f 150/150/150 152/152/152 151/151/151
