g Grass
v -0.4999995 -0.1221261 -1.400709E-06
v 0.5000009 0.8778742 -1.400709E-06
v 0.5000009 -0.1221261 -1.400709E-06
v -0.4999995 0.8778742 -1.400709E-06
v 5.960464E-08 -0.1221261 -0.5000009
v 5.960464E-08 0.8778742 0.4999995
v 5.960464E-08 -0.1221261 0.4999995
v 5.960464E-08 0.8778742 -0.5000009
vt 0.5332143 0.2509671
vt 0.7802563 0.4965957
vt 0.7802563 0.2509671
vt 0.5332143 0.4965957
vt 0.5332143 0.2509671
vt 0.7802563 0.4965957
vt 0.7802563 0.2509671
vt 0.5332143 0.4965957
vn 0 0 1
vn 0 0 1
vn 0 0 1
vn 0 0 1
vn -1 0 0
vn -1 0 0
vn -1 0 0
vn -1 0 0
g Grass_0
f 3/3/3 2/2/2 1/1/1
f 4/4/4 1/1/1 2/2/2
f 7/7/7 6/6/6 5/5/5
f 8/8/8 5/5/5 6/6/6
