g gravestone_shovel_mesh
v 0.2759428 0.1061871 0.04242535
v 0.2759428 0.106187 0.7846481
v 0.1702652 0.106187 0.8231955
v 0.1049496 0.106187 0.9052252
v -0.2524448 0.1061872 0.04242531
v -0.08145176 0.106187 0.9052251
v -0.1467674 0.106187 0.8231955
v -0.2524449 0.106187 0.7846479
v 0.2759428 0.1061871 0.04242535
v 0.2759428 -0.1061872 0.04242531
v 0.2759427 -0.1061873 0.7846479
v 0.2759428 0.106187 0.7846481
v -0.2524449 -0.1061871 0.04242527
v -0.2524449 -0.1061872 0.7846479
v -0.1467674 -0.1061872 0.8231954
v -0.0814518 -0.1061872 0.905225
v 0.2759428 -0.1061872 0.04242531
v 0.1049495 -0.1061873 0.9052251
v 0.1702652 -0.1061873 0.8231955
v 0.2759427 -0.1061873 0.7846479
v -0.2524449 -0.1061871 0.04242527
v -0.2524448 0.1061872 0.04242531
v -0.2524449 0.106187 0.7846479
v -0.2524449 -0.1061872 0.7846479
v -0.1467674 -0.1061872 0.8231954
v -0.2524449 -0.1061872 0.7846479
v -0.2524449 0.106187 0.7846479
v -0.1467674 0.106187 0.8231955
v 0.2759427 -0.1061873 0.7846479
v 0.1702652 -0.1061873 0.8231955
v 0.1702652 0.106187 0.8231955
v 0.2759428 0.106187 0.7846481
v 0.1702652 -0.1061873 0.8231955
v 0.1049495 -0.1061873 0.9052251
v 0.1049496 0.106187 0.9052252
v 0.1702652 0.106187 0.8231955
v 0.1049495 -0.1061873 0.9052251
v -0.0814518 -0.1061872 0.905225
v -0.08145176 0.106187 0.9052251
v 0.1049496 0.106187 0.9052252
v -0.0814518 -0.1061872 0.905225
v -0.1467674 -0.1061872 0.8231954
v -0.1467674 0.106187 0.8231955
v -0.08145176 0.106187 0.9052251
v 0.2759428 0.1061871 0.04242535
v -0.2524448 0.1061872 0.04242531
v -0.2524449 -0.1061871 0.04242527
v 0.2759428 -0.1061872 0.04242531
v 0.3134865 0.1552493 0.07778767
v 0.3134865 -0.1552494 0.07778762
v -0.2899886 -0.1552493 0.07778759
v -0.2899885 0.1552493 0.07778762
v 0.3134865 0.1552493 -0.07778767
v -0.2899885 0.1552494 -0.0777877
v -0.2899886 -0.1552493 -0.07778774
v 0.3134865 -0.1552494 -0.0777877
v 0.3134865 -0.1552494 0.07778762
v 0.3134865 -0.1552494 -0.0777877
v -0.2899886 -0.1552493 -0.07778774
v -0.2899886 -0.1552493 0.07778759
v 0.3134865 0.1552493 0.07778767
v 0.3134865 0.1552493 -0.07778767
v 0.3134865 -0.1552494 -0.0777877
v 0.3134865 -0.1552494 0.07778762
v -0.2899885 0.1552493 0.07778762
v -0.2899885 0.1552494 -0.0777877
v 0.3134865 0.1552493 -0.07778767
v 0.3134865 0.1552493 0.07778767
v -0.2899886 -0.1552493 0.07778759
v -0.2899886 -0.1552493 -0.07778774
v -0.2899885 0.1552494 -0.0777877
v -0.2899885 0.1552493 0.07778762
v -0.2240108 0.05339429 -0.05230629
v -0.04417217 -0.1303479 -0.05230633
v -0.04417215 -0.1303479 -0.3094117
v -0.2240108 0.05339433 -0.3094117
v 0.07165027 -0.1844859 -0.07152458
v 0.1618457 0.02992822 0.03799476
v 0.2980237 0.08094442 -0.1740338
v 0.2078283 -0.1334697 -0.2835531
v 0.03753754 -0.1359639 0.04196842
v -0.06504039 0.09635024 0.001830177
v -0.003043242 0.08069909 -0.2471972
v 0.09953472 -0.151615 -0.2070589
v 0.002312995 0.03147484 -0.04566879
v 0.1831672 -0.1014182 0.07976791
v 0.3153684 -0.1281153 -0.1391233
v 0.1345142 0.004777764 -0.26456
v -0.2145226 0.05195507 0.02598549
v 0.03538025 0.004891193 -0.01191898
v 0.01156204 0.0763922 -0.257731
v -0.2383408 0.1234561 -0.2198265
v -0.1057838 -0.124802 0.5066038
v -0.1057838 -0.124802 0.6693453
v -0.08770145 -0.124802 0.6693453
v -0.06961906 -0.124802 0.5066038
v -0.01537192 -0.124802 0.470439
v -0.06961906 -0.124802 0.4523566
v -0.01537191 -0.124802 0.4523567
v 0.03887523 -0.124802 0.470439
v 0.1112048 -0.124802 0.6693453
v 0.09312236 -0.124802 0.5066038
v 0.1292872 -0.124802 0.5066038
v 0.1292871 -0.124802 0.6693453
v 0.09312238 -0.124802 0.4523567
v 0.03887523 -0.124802 0.4523567
v -0.08770146 -0.124802 0.70551
v 0.1112047 -0.1248021 0.7055101
v -0.01537191 -0.124802 0.4523567
v -0.01537191 -0.1067196 0.4523567
v -0.06961906 -0.1067196 0.4523567
v -0.06961906 -0.124802 0.4523566
v 0.09312238 -0.124802 0.4523567
v 0.09312238 -0.1067196 0.4523567
v 0.03887523 -0.1067196 0.4523567
v 0.03887523 -0.124802 0.4523567
v -0.06961906 -0.124802 0.5066038
v -0.06961906 -0.124802 0.4523566
v -0.06961906 -0.1067196 0.4523567
v -0.06961906 -0.1067196 0.5066038
v -0.01537192 -0.124802 0.470439
v -0.01537191 -0.1067196 0.470439
v -0.01537191 -0.1067196 0.4523567
v -0.01537191 -0.124802 0.4523567
v 0.03887523 -0.124802 0.470439
v 0.03887523 -0.1067196 0.470439
v -0.01537191 -0.1067196 0.470439
v -0.01537192 -0.124802 0.470439
v 0.03887523 -0.124802 0.4523567
v 0.03887523 -0.1067196 0.4523567
v 0.03887523 -0.1067196 0.470439
v 0.03887523 -0.124802 0.470439
v -0.06961906 -0.124802 0.5066038
v -0.06961906 -0.1067196 0.5066038
v -0.1057838 -0.1067196 0.5066038
v -0.1057838 -0.124802 0.5066038
v 0.09312236 -0.124802 0.5066038
v 0.09312236 -0.1067196 0.5066038
v 0.09312238 -0.1067196 0.4523567
v 0.09312238 -0.124802 0.4523567
v 0.1292872 -0.124802 0.5066038
v 0.1292872 -0.1067196 0.5066038
v 0.09312236 -0.1067196 0.5066038
v 0.09312236 -0.124802 0.5066038
v -0.1057838 -0.124802 0.6693453
v -0.1057838 -0.124802 0.5066038
v -0.1057838 -0.1067196 0.5066038
v -0.1057838 -0.1067196 0.6693453
v -0.1057838 -0.124802 0.6693453
v -0.1057838 -0.1067196 0.6693453
v -0.08770145 -0.1067196 0.6693453
v -0.08770145 -0.124802 0.6693453
v 0.1112048 -0.124802 0.6693453
v 0.1112048 -0.1067197 0.6693453
v 0.1292871 -0.1067197 0.6693453
v 0.1292871 -0.124802 0.6693453
v 0.1292871 -0.124802 0.6693453
v 0.1292871 -0.1067197 0.6693453
v 0.1292872 -0.1067196 0.5066038
v 0.1292872 -0.124802 0.5066038
v -0.08770146 -0.124802 0.70551
v -0.08770145 -0.124802 0.6693453
v -0.08770145 -0.1067196 0.6693453
v -0.08770146 -0.1067196 0.70551
v 0.1112047 -0.1248021 0.7055101
v -0.08770146 -0.124802 0.70551
v -0.08770146 -0.1067196 0.70551
v 0.1112047 -0.1067197 0.7055101
v 0.1112047 -0.1248021 0.7055101
v 0.1112047 -0.1067197 0.7055101
v 0.1112048 -0.1067197 0.6693453
v 0.1112048 -0.124802 0.6693453
vt 1.000022 0.4389231
vt 1.000022 0.9213939
vt 0.9377155 0.946451
vt 0.8992064 0.9997732
vt 0.6884914 0.4389231
vt 0.7893067 0.9997732
vt 0.7507974 0.946451
vt 0.6884914 0.9213939
vt 0.328125 0.421875
vt 0.46875 0.421875
vt 0.46875 0.875
vt 0.328125 0.875
vt 0.01617919 0.4223203
vt 0.01617919 0.9047911
vt 0.07848522 0.9298483
vt 0.1169945 0.9831704
vt 0.3277095 0.4223203
vt 0.2268942 0.9831704
vt 0.2654033 0.9298483
vt 0.3277095 0.9047911
vt 0.46875 0.421875
vt 0.328125 0.421875
vt 0.328125 0.875
vt 0.46875 0.875
vt 0.46875 0.921875
vt 0.46875 0.875
vt 0.328125 0.875
vt 0.328125 0.921875
vt 0.46875 0.875
vt 0.46875 0.921875
vt 0.328125 0.921875
vt 0.328125 0.875
vt 0.46875 0.921875
vt 0.46875 0.984375
vt 0.328125 0.984375
vt 0.328125 0.921875
vt 0.609375 0.984375
vt 0.609375 0.875
vt 0.484375 0.875
vt 0.484375 0.984375
vt 0.46875 0.984375
vt 0.46875 0.921875
vt 0.328125 0.921875
vt 0.328125 0.984375
vt 0 0
vt 0 0
vt 0 0
vt 0 0
vt 0.75 0.21875
vt 0.75 0
vt 0.296875 0
vt 0.296875 0.21875
vt 0.9375 0.234375
vt 0.484375 0.234375
vt 0.484375 0.453125
vt 0.9375 0.453125
vt 0.46875 0.40625
vt 0.46875 0.28125
vt 0.015625 0.28125
vt 0.015625 0.40625
vt 0.015625 0.203125
vt 0.015625 0.078125
vt 0.28125 0.078125
vt 0.28125 0.203125
vt 0.015625 0.40625
vt 0.015625 0.28125
vt 0.46875 0.28125
vt 0.46875 0.40625
vt 0.28125 0.203125
vt 0.28125 0.078125
vt 0.015625 0.078125
vt 0.015625 0.203125
vt 0.765625 0.21875
vt 0.984375 0.21875
vt 0.984375 0
vt 0.765625 0
vt 0.765625 0.21875
vt 0.984375 0.21875
vt 0.984375 0
vt 0.765625 0
vt 0.765625 0.21875
vt 0.984375 0.21875
vt 0.984375 0
vt 0.765625 0
vt 0.765625 0.21875
vt 0.984375 0.21875
vt 0.984375 0
vt 0.765625 0
vt 0.765625 0.21875
vt 0.984375 0.21875
vt 0.984375 0
vt 0.765625 0
vt 0.484375 0.6875
vt 0.484375 0.828125
vt 0.5 0.828125
vt 0.515625 0.6875
vt 0.5625 0.65625
vt 0.515625 0.640625
vt 0.5625 0.640625
vt 0.609375 0.65625
vt 0.671875 0.828125
vt 0.65625 0.6875
vt 0.6875 0.6875
vt 0.6875 0.828125
vt 0.65625 0.640625
vt 0.609375 0.640625
vt 0.5 0.859375
vt 0.671875 0.859375
vt 0.5625 0.640625
vt 0.5625 0.625
vt 0.515625 0.625
vt 0.515625 0.640625
vt 0.65625 0.640625
vt 0.65625 0.625
vt 0.609375 0.625
vt 0.609375 0.640625
vt 0.515625 0.6875
vt 0.515625 0.640625
vt 0.5 0.640625
vt 0.5 0.6875
vt 0.5625 0.65625
vt 0.578125 0.65625
vt 0.578125 0.640625
vt 0.5625 0.640625
vt 0.609375 0.65625
vt 0.609375 0.640625
vt 0.5625 0.640625
vt 0.5625 0.65625
vt 0.609375 0.640625
vt 0.59375 0.640625
vt 0.59375 0.65625
vt 0.609375 0.65625
vt 0.515625 0.6875
vt 0.515625 0.671875
vt 0.484375 0.671875
vt 0.484375 0.6875
vt 0.65625 0.6875
vt 0.671875 0.6875
vt 0.671875 0.640625
vt 0.65625 0.640625
vt 0.6875 0.6875
vt 0.6875 0.671875
vt 0.65625 0.671875
vt 0.65625 0.6875
vt 0.484375 0.828125
vt 0.484375 0.6875
vt 0.46875 0.6875
vt 0.46875 0.828125
vt 0.484375 0.828125
vt 0.484375 0.84375
vt 0.5 0.84375
vt 0.5 0.828125
vt 0.671875 0.828125
vt 0.671875 0.84375
vt 0.6875 0.84375
vt 0.6875 0.828125
vt 0.6875 0.828125
vt 0.703125 0.828125
vt 0.703125 0.6875
vt 0.6875 0.6875
vt 0.5 0.859375
vt 0.5 0.828125
vt 0.484375 0.828125
vt 0.484375 0.859375
vt 0.671875 0.859375
vt 0.5 0.859375
vt 0.5 0.875
vt 0.671875 0.875
vt 0.671875 0.859375
vt 0.6875 0.859375
vt 0.6875 0.828125
vt 0.671875 0.828125
vn 0 1 0
vn 0 1 0
vn 0 1 0
vn 0 1 0
vn 0 1 0
vn 0 1 0
vn 0 1 0
vn 0 1 0
vn 1 0 0
vn 1 0 0
vn 1 0 0
vn 1 0 0
vn 0 -1 0
vn 0 -1 0
vn 0 -1 0
vn 0 -1 0
vn 0 -1 0
vn 0 -1 0
vn 0 -1 0
vn 0 -1 0
vn -1 0 0
vn -1 0 0
vn -1 0 0
vn -1 0 0
vn -0.342678 -2.891407E-06 0.9394529
vn -0.3426831 0 0.939451
vn -0.3426831 0 0.939451
vn -0.342678 -2.891407E-06 0.9394529
vn 0.342678 0 0.9394529
vn 0.342678 -2.891407E-06 0.9394529
vn 0.342678 -2.891407E-06 0.9394529
vn 0.342678 0 0.9394529
vn 0.782311 -2.891451E-06 0.622888
vn 0.7823009 0 0.6229007
vn 0.7823122 0 0.6228866
vn 0.7822998 -2.891409E-06 0.6229021
vn 0 0 1
vn 0 0 1
vn 0 0 1
vn 0 0 1
vn -0.7822896 0 0.6229149
vn -0.7822998 -2.891409E-06 0.6229021
vn -0.782311 -2.891451E-06 0.622888
vn -0.7823009 0 0.6229007
vn 0 0 -1
vn 0 0 -1
vn 0 0 -1
vn 0 0 -1
vn 0 0 1
vn 0 0 1
vn 0 0 1
vn 0 0 1
vn 0 0 -1
vn 0 0 -1
vn 0 0 -1
vn 0 0 -1
vn 0 -1 0
vn 0 -1 0
vn 0 -1 0
vn 0 -1 0
vn 1 0 0
vn 1 0 0
vn 1 0 0
vn 1 0 0
vn 0 1 0
vn 0 1 0
vn 0 1 0
vn 0 1 0
vn -1 0 0
vn -1 0 0
vn -1 0 0
vn -1 0 0
vn -0.7146595 -0.6994724 0
vn -0.7146581 -0.699474 0
vn -0.7146581 -0.699474 0
vn -0.7146595 -0.6994724 0
vn 0.7722636 -0.5149282 0.3720992
vn 0.7722654 -0.5149245 0.3721007
vn 0.7722648 -0.5149256 0.3721004
vn 0.7722687 -0.5149268 0.3720908
vn 0.8846892 0.4240818 0.1935967
vn 0.8846903 0.4240794 0.1935969
vn 0.8846901 0.4240851 0.1935853
vn 0.8846889 0.4240823 0.1935969
vn -0.4907158 -0.8497347 -0.1927405
vn -0.4907216 -0.8497314 -0.1927403
vn -0.4907116 -0.849737 -0.1927409
vn -0.4907172 -0.8497365 -0.1927293
vn -0.2160159 -0.9429466 -0.2533554
vn -0.2160112 -0.9429476 -0.2533558
vn -0.216013 -0.9429529 -0.2533343
vn -0.2160159 -0.9429466 -0.2533554
vn -3.516034E-07 -1 -1.953352E-07
vn -3.516034E-07 -1 -1.953353E-07
vn -1.931247E-07 -1 -2.107103E-07
vn -1.974017E-07 -1 -1.794613E-07
vn -1.23469E-07 -1 -1.543047E-07
vn -1.318513E-07 -1 -1.318514E-07
vn -1.318513E-07 -1 -1.318514E-07
vn -1.864443E-07 -1 -1.401129E-07
vn 0 -1 -1.77501E-07
vn -1.880677E-07 -1 -1.044524E-07
vn 0 -1 -1.172011E-07
vn 0 -1 -1.172011E-07
vn -2.197522E-07 -1 -1.318514E-07
vn -2.197522E-07 -1 -1.318514E-07
vn 0 -1 -2.637026E-07
vn 0 -1 -2.637026E-07
vn 7.032074E-07 2.10962E-06 -1
vn 7.032074E-07 2.10962E-06 -1
vn 7.032074E-07 2.10962E-06 -1
vn 7.032074E-07 2.10962E-06 -1
vn 0 2.10962E-06 -1
vn 0 2.10962E-06 -1
vn 0 2.10962E-06 -1
vn 0 2.10962E-06 -1
vn -1 0 0
vn -1 0 0
vn -1 0 0
vn -1 0 0
vn 1 -1.318516E-07 1.318516E-07
vn 1 -1.318516E-07 1.318516E-07
vn 1 -1.318516E-07 1.318516E-07
vn 1 -1.318516E-07 1.318516E-07
vn 3.516037E-07 1.05481E-06 -1
vn 3.516037E-07 1.05481E-06 -1
vn 3.516037E-07 1.05481E-06 -1
vn 3.516037E-07 1.05481E-06 -1
vn -1 2.637025E-07 0
vn -1 2.637025E-07 0
vn -1 2.637025E-07 0
vn -1 2.637025E-07 0
vn 0 4.219241E-06 -1
vn 0 4.21924E-06 -1
vn 0 4.219241E-06 -1
vn 0 4.21924E-06 -1
vn 1 0 1.758018E-07
vn 1 0 1.758018E-07
vn 1 0 1.758018E-07
vn 1 0 1.758018E-07
vn 0 2.10962E-06 -1
vn 0 2.10962E-06 -1
vn 0 2.10962E-06 -1
vn 0 2.10962E-06 -1
vn -1 0 0
vn -1 0 0
vn -1 0 0
vn -1 0 0
vn 0 0 1
vn 0 0 1
vn 0 0 1
vn 0 0 1
vn 0 0 1
vn 0 0 1
vn 0 0 1
vn 0 0 1
vn 1 0 0
vn 1 0 0
vn 1 0 0
vn 1 0 0
vn -1 0 -2.637025E-07
vn -1 0 -2.637025E-07
vn -1 0 -2.637025E-07
vn -1 0 -2.637025E-07
vn -3.835675E-07 0 1
vn -3.835675E-07 0 1
vn -3.835675E-07 0 1
vn -3.835675E-07 0 1
vn 1 0 2.637025E-07
vn 1 0 2.637025E-07
vn 1 0 2.637025E-07
vn 1 0 2.637025E-07
g gravestone_shovel_mesh_0
f 3/3/3 2/2/2 1/1/1
f 4/4/4 3/3/3 1/1/1
f 4/4/4 1/1/1 5/5/5
f 6/6/6 4/4/4 5/5/5
f 7/7/7 6/6/6 5/5/5
f 8/8/8 7/7/7 5/5/5
f 11/11/11 10/10/10 9/9/9
f 12/12/12 11/11/11 9/9/9
f 15/15/15 14/14/14 13/13/13
f 16/16/16 15/15/15 13/13/13
f 16/16/16 13/13/13 17/17/17
f 18/18/18 16/16/16 17/17/17
f 19/19/19 18/18/18 17/17/17
f 20/20/20 19/19/19 17/17/17
f 23/23/23 22/22/22 21/21/21
f 24/24/24 23/23/23 21/21/21
f 27/27/27 26/26/26 25/25/25
f 28/28/28 27/27/27 25/25/25
f 31/31/31 30/30/30 29/29/29
f 32/32/32 31/31/31 29/29/29
f 35/35/35 34/34/34 33/33/33
f 36/36/36 35/35/35 33/33/33
f 39/39/39 38/38/38 37/37/37
f 40/40/40 39/39/39 37/37/37
f 43/43/43 42/42/42 41/41/41
f 44/44/44 43/43/43 41/41/41
f 47/47/47 46/46/46 45/45/45
f 48/48/48 47/47/47 45/45/45
f 51/51/51 50/50/50 49/49/49
f 52/52/52 51/51/51 49/49/49
f 55/55/55 54/54/54 53/53/53
f 56/56/56 55/55/55 53/53/53
f 59/59/59 58/58/58 57/57/57
f 60/60/60 59/59/59 57/57/57
f 63/63/63 62/62/62 61/61/61
f 64/64/64 63/63/63 61/61/61
f 67/67/67 66/66/66 65/65/65
f 68/68/68 67/67/67 65/65/65
f 71/71/71 70/70/70 69/69/69
f 72/72/72 71/71/71 69/69/69
f 75/75/75 74/74/74 73/73/73
f 76/76/76 75/75/75 73/73/73
f 79/79/79 78/78/78 77/77/77
f 80/80/80 79/79/79 77/77/77
f 83/83/83 82/82/82 81/81/81
f 84/84/84 83/83/83 81/81/81
f 87/87/87 86/86/86 85/85/85
f 88/88/88 87/87/87 85/85/85
f 91/91/91 90/90/90 89/89/89
f 92/92/92 91/91/91 89/89/89
f 95/95/95 94/94/94 93/93/93
f 96/96/96 95/95/95 93/93/93
f 96/96/96 97/97/97 95/95/95
f 97/97/97 96/96/96 98/98/98
f 99/99/99 97/97/97 98/98/98
f 97/97/97 100/100/100 95/95/95
f 100/100/100 101/101/101 95/95/95
f 101/101/101 100/100/100 102/102/102
f 101/101/101 102/102/102 103/103/103
f 104/104/104 101/101/101 103/103/103
f 105/105/105 102/102/102 100/100/100
f 106/106/106 105/105/105 100/100/100
f 107/107/107 95/95/95 101/101/101
f 108/108/108 107/107/107 101/101/101
f 111/111/111 110/110/110 109/109/109
f 112/112/112 111/111/111 109/109/109
f 115/115/115 114/114/114 113/113/113
f 116/116/116 115/115/115 113/113/113
f 119/119/119 118/118/118 117/117/117
f 120/120/120 119/119/119 117/117/117
f 123/123/123 122/122/122 121/121/121
f 124/124/124 123/123/123 121/121/121
f 127/127/127 126/126/126 125/125/125
f 128/128/128 127/127/127 125/125/125
f 131/131/131 130/130/130 129/129/129
f 132/132/132 131/131/131 129/129/129
f 135/135/135 134/134/134 133/133/133
f 136/136/136 135/135/135 133/133/133
f 139/139/139 138/138/138 137/137/137
f 140/140/140 139/139/139 137/137/137
f 143/143/143 142/142/142 141/141/141
f 144/144/144 143/143/143 141/141/141
f 147/147/147 146/146/146 145/145/145
f 148/148/148 147/147/147 145/145/145
f 151/151/151 150/150/150 149/149/149
f 152/152/152 151/151/151 149/149/149
f 155/155/155 154/154/154 153/153/153
f 156/156/156 155/155/155 153/153/153
f 159/159/159 158/158/158 157/157/157
f 160/160/160 159/159/159 157/157/157
f 163/163/163 162/162/162 161/161/161
f 164/164/164 163/163/163 161/161/161
f 167/167/167 166/166/166 165/165/165
f 168/168/168 167/167/167 165/165/165
f 171/171/171 170/170/170 169/169/169
f 172/172/172 171/171/171 169/169/169
