g Head
v -0.167565 -0.05532529 -0.2857738
v -0.167565 -0.05532532 0.04922616
v 0.167435 -0.05532533 0.04922615
v 0.167435 -0.05532528 -0.2857737
v -0.167565 0.2595746 -0.2857738
v -0.167565 -0.05532529 -0.2857738
v 0.167435 -0.05532528 -0.2857737
v 0.167435 0.2595747 -0.2857737
v 0.167435 0.2595747 -0.2857737
v 0.167435 -0.05532528 -0.2857737
v 0.167435 -0.05532533 0.04922615
v 0.167435 0.2595747 0.04922633
v 0.167435 0.2595747 0.04922633
v 0.167435 -0.05532533 0.04922615
v -0.167565 -0.05532532 0.04922616
v -0.167565 0.2595747 0.04922626
v -0.167565 0.2595747 0.04922626
v -0.167565 -0.05532532 0.04922616
v -0.167565 -0.05532529 -0.2857738
v -0.167565 0.2595746 -0.2857738
v -0.167565 0.2595746 -0.2857738
v 0.167435 0.2595747 -0.2857737
v 0.167435 0.2595747 0.04922633
v -0.167565 0.2595747 0.04922626
vt 0.00697382 0.2444642
vt 0.00697382 0.6203243
vt 0.3828341 0.6203243
vt 0.3828341 0.2444642
vt 0.3828341 0.6203243
vt 0.3828341 0.2444641
vt 0.006973861 0.2444641
vt 0.006973861 0.6203243
vt 0.3828341 0.6203243
vt 0.3828341 0.2444642
vt 0.006973981 0.2444642
vt 0.006973861 0.6203243
vt 0.3828341 0.6203243
vt 0.3828341 0.2444642
vt 0.006973861 0.2444642
vt 0.006973861 0.6203243
vt 0.3828341 0.6203243
vt 0.382834 0.2444642
vt 0.00697382 0.2444642
vt 0.006973861 0.6203243
vt 0.01652433 0.9840034
vt 0.3994757 0.9840034
vt 0.3994757 0.6159965
vt 0.01652433 0.6159965
vn 0 -1 -1.138716E-07
vn 0 -1 -1.138716E-07
vn 0 -1 -1.138716E-07
vn 0 -1 -1.138716E-07
vn 1.992752E-07 0 -1
vn 1.992752E-07 0 -1
vn 1.992752E-07 0 -1
vn 1.992752E-07 0 -1
vn 1 0 0
vn 1 0 0
vn 1 0 0
vn 1 0 0
vn 0 -4.391324E-07 1
vn 0 -4.391324E-07 1
vn 0 -4.391324E-07 1
vn 0 -4.391324E-07 1
vn -1 0 0
vn -1 0 0
vn -1 0 0
vn -1 0 0
vn 0 1 0
vn 0 1 0
vn 0 1 0
vn 0 1 0
g Head_0
f 3/3/3 2/2/2 1/1/1
f 4/4/4 3/3/3 1/1/1
f 7/7/7 6/6/6 5/5/5
f 8/8/8 7/7/7 5/5/5
f 11/11/11 10/10/10 9/9/9
f 12/12/12 11/11/11 9/9/9
f 15/15/15 14/14/14 13/13/13
f 16/16/16 15/15/15 13/13/13
f 19/19/19 18/18/18 17/17/17
f 20/20/20 19/19/19 17/17/17
f 23/23/23 22/22/22 21/21/21
f 24/24/24 23/23/23 21/21/21
