g heaven_Back_mountains_2
v -96.97587 -171.0642 -2.193218
v -96.97585 -171.0642 79.75906
v -150.404 -191.9933 79.75909
v -150.4039 -191.9933 -2.193214
v -48.68414 -140.1523 -2.193217
v -48.68414 -140.1523 79.75907
v -96.97585 -171.0642 79.75906
v -96.97587 -171.0642 -2.193218
v -7.384503 -100.4455 -2.193212
v -7.384496 -100.4456 79.75909
v -48.68414 -140.1523 79.75907
v -48.68414 -140.1523 -2.193217
v 25.3359 -53.46986 -2.193203
v 25.33592 -53.46988 79.7591
v -7.384496 -100.4456 79.75909
v -7.384503 -100.4455 -2.193212
v 48.21961 -1.030425 -2.19319
v 48.21964 -1.030444 79.7591
v 25.33592 -53.46988 79.7591
v 25.3359 -53.46986 -2.193203
v 60.38734 54.85748 -2.193176
v 60.38736 54.85748 79.75912
v 48.21964 -1.030444 79.7591
v 48.21961 -1.030425 -2.19319
v 61.37131 112.0461 -2.193165
v 61.37131 112.0461 79.75913
v 60.38736 54.85748 79.75912
v 60.38734 54.85748 -2.193176
v 55.97474 169.1728 -2.193181
v 55.97474 169.1729 79.75911
v 61.37131 112.0461 79.75913
v 61.37131 112.0461 -2.193165
v 39.56659 224.1128 -2.193181
v 39.56659 224.1128 79.7591
v 55.97474 169.1729 79.75911
v 55.97474 169.1728 -2.193181
v 12.77732 274.7549 -2.193181
v 12.77736 274.7549 79.75912
v 39.56659 224.1128 79.7591
v 39.56659 224.1128 -2.193181
v -23.36353 319.1529 -2.193176
v -23.36347 319.1529 79.75912
v 12.77736 274.7549 79.75912
v 12.77732 274.7549 -2.193181
v -67.46706 355.6006 -2.193171
v -67.46707 355.6006 79.75912
v -23.36347 319.1529 79.75912
v -23.36353 319.1529 -2.193176
v -117.8385 382.6974 -2.193166
v -117.8385 382.6974 79.75913
v -67.46707 355.6006 79.75912
v -67.46706 355.6006 -2.193171
v -172.5419 399.4018 -2.193157
v -172.5419 399.4018 79.75915
v -117.8385 382.6974 79.75913
v -117.8385 382.6974 -2.193166
v -318.6326 -211.8224 -2.193245
v -318.6327 -211.8226 79.75905
v -373.7031 -196.1833 79.75904
v -373.7031 -196.1833 -2.193259
v -261.5995 -216.3819 -2.193235
v -261.5996 -216.382 79.75906
v -318.6327 -211.8226 79.75905
v -318.6326 -211.8224 -2.193245
v -204.7957 -209.6865 -2.193225
v -204.7957 -209.6865 79.75907
v -261.5996 -216.382 79.75906
v -261.5995 -216.3819 -2.193235
v -150.4039 -191.9933 -2.193214
v -150.404 -191.9933 79.75909
v -204.7957 -209.6865 79.75907
v -204.7957 -209.6865 -2.193225
vt 0.8538446 0.0003602579
vt 0.8538443 0.8096183
vt 0.5705322 0.8096147
vt 0.5705327 0.0003562644
vt 1.136944 0.0003648475
vt 1.136944 0.809623
vt 0.8538443 0.8096183
vt 0.8538446 0.0003602579
vt 1.419816 0.0003700331
vt 1.419816 0.8096284
vt 1.136944 0.809623
vt 1.136944 0.0003648475
vt 1.702477 0.0003758743
vt 1.702477 0.8096336
vt 1.419816 0.8096284
vt 1.419816 0.0003700331
vt 1.984977 0.0003811792
vt 1.984977 0.8096388
vt 1.702477 0.8096336
vt 1.702477 0.0003758743
vt 2.267394 0.0003857687
vt 2.267393 0.8096434
vt 1.984977 0.8096388
vt 1.984977 0.0003811792
vt 2.549819 0.0003897622
vt 2.549793 0.8096485
vt 2.267393 0.8096434
vt 2.267394 0.0003857687
vt 2.833105 0.000391924
vt 2.833105 0.8096499
vt 2.549793 0.8096463
vt 2.549793 0.0003879305
vt 3.116238 0.0003574061
vt 3.116238 0.8096156
vt 2.833105 0.8096499
vt 2.833105 0.000391924
vt 3.39911 0.0003625917
vt 3.39911 0.8096209
vt 3.116238 0.8096156
vt 3.116238 0.0003574061
vt 3.681771 0.0003684329
vt 3.681771 0.8096262
vt 3.39911 0.8096209
vt 3.39911 0.0003625917
vt 3.964271 0.0003737377
vt 3.964271 0.8096313
vt 3.681771 0.8096262
vt 3.681771 0.0003684329
vt 4.246687 0.0003783273
vt 4.246687 0.809636
vt 3.964271 0.8096313
vt 3.964271 0.0003737377
vt 4.529113 0.0003823208
vt 4.529087 0.809641
vt 4.246687 0.809636
vt 4.246687 0.0003783273
vt 2.724068 0.0003939117
vt 2.724067 0.8096517
vt 2.441406 0.8096464
vt 2.441407 0.0003880705
vt 3.006568 0.0003803371
vt 3.006568 0.809638
vt 2.724067 0.8096517
vt 2.724068 0.0003939117
vt 3.288984 0.0003849266
vt 3.288984 0.8096426
vt 3.006568 0.809638
vt 3.006568 0.0003803371
vt 3.571409 0.0003889201
vt 3.571383 0.8096476
vt 3.288984 0.8096426
vt 3.288984 0.0003849266
vn -0.3647393 0.9311097 0
vn -0.3647393 0.9311097 0
vn -0.3647393 0.9311097 0
vn -0.3647393 0.9311097 0
vn -0.5391173 0.8422307 2.500548E-07
vn -0.5391173 0.8422307 2.500548E-07
vn -0.5391173 0.8422307 2.500548E-07
vn -0.5391173 0.8422307 2.500548E-07
vn -0.6930687 0.7208716 3.035047E-07
vn -0.6930687 0.7208715 3.035047E-07
vn -0.6930687 0.7208716 3.035047E-07
vn -0.6930687 0.7208716 3.035047E-07
vn -0.8205639 0.5715548 2.930763E-07
vn -0.8205639 0.5715548 2.930763E-07
vn -0.8205639 0.5715548 2.930763E-07
vn -0.8205639 0.5715548 2.930763E-07
vn -0.9165326 0.3999599 3.812193E-07
vn -0.9165326 0.3999599 3.812193E-07
vn -0.9165326 0.3999599 3.812193E-07
vn -0.9165326 0.3999599 3.812193E-07
vn -0.9771104 0.2127331 3.826719E-07
vn -0.9771104 0.2127331 3.826719E-07
vn -0.9771104 0.2127331 3.826719E-07
vn -0.9771104 0.2127331 3.826719E-07
vn -0.9998521 0.01720293 1.503355E-07
vn -0.9998521 0.01720293 1.503355E-07
vn -0.9998521 0.01720293 1.503355E-07
vn -0.9998521 0.01720293 1.503355E-07
vn -0.9955676 -0.09404799 0
vn -0.9955676 -0.09404799 0
vn -0.9955676 -0.09404797 0
vn -0.9955676 -0.09404799 0
vn -0.9581801 -0.286166 0
vn -0.9581801 -0.286166 0
vn -0.9581801 -0.286166 0
vn -0.9581801 -0.286166 0
vn -0.8839414 -0.4675978 2.103235E-07
vn -0.8839414 -0.4675978 2.103235E-07
vn -0.8839414 -0.4675978 2.103235E-07
vn -0.8839414 -0.4675978 2.103235E-07
vn -0.775537 -0.6313021 5.781594E-07
vn -0.775537 -0.6313021 5.781594E-07
vn -0.775537 -0.6313021 5.781594E-07
vn -0.775537 -0.6313022 5.781595E-07
vn -0.6370302 -0.7708388 2.532576E-07
vn -0.6370302 -0.7708388 2.532575E-07
vn -0.6370301 -0.7708388 2.532575E-07
vn -0.6370301 -0.7708388 2.532575E-07
vn -0.4737435 -0.8806629 2.960039E-07
vn -0.4737435 -0.8806629 2.960039E-07
vn -0.4737435 -0.8806629 2.960039E-07
vn -0.4737435 -0.8806629 2.960039E-07
vn -0.2920502 -0.956403 1.706692E-07
vn -0.2920502 -0.956403 1.706692E-07
vn -0.2920502 -0.956403 1.706692E-07
vn -0.2920502 -0.956403 1.706692E-07
vn 0.2731827 0.9619621 1.55064E-06
vn 0.2731827 0.9619621 1.55064E-06
vn 0.2731827 0.9619621 1.55064E-06
vn 0.2731827 0.9619621 1.55064E-06
vn 0.07968976 0.9968197 1.226299E-06
vn 0.07968976 0.9968197 1.226299E-06
vn 0.07968976 0.9968197 1.226299E-06
vn 0.07968977 0.9968197 1.226299E-06
vn -0.1170596 0.9931249 4.040058E-07
vn -0.1170596 0.9931249 4.040058E-07
vn -0.1170596 0.9931249 4.040058E-07
vn -0.1170596 0.9931249 4.040058E-07
vn -0.3093368 0.9509525 1.920027E-07
vn -0.3093368 0.9509525 1.920027E-07
vn -0.3093369 0.9509525 1.920027E-07
vn -0.3093368 0.9509525 1.920027E-07
g heaven_Back_mountains_2_0
f 3/3/3 2/2/2 1/1/1
f 4/4/4 3/3/3 1/1/1
f 7/7/7 6/6/6 5/5/5
f 8/8/8 7/7/7 5/5/5
f 11/11/11 10/10/10 9/9/9
f 12/12/12 11/11/11 9/9/9
f 15/15/15 14/14/14 13/13/13
f 16/16/16 15/15/15 13/13/13
f 19/19/19 18/18/18 17/17/17
f 20/20/20 19/19/19 17/17/17
f 23/23/23 22/22/22 21/21/21
f 24/24/24 23/23/23 21/21/21
f 27/27/27 26/26/26 25/25/25
f 28/28/28 27/27/27 25/25/25
f 31/31/31 30/30/30 29/29/29
f 32/32/32 31/31/31 29/29/29
f 35/35/35 34/34/34 33/33/33
f 36/36/36 35/35/35 33/33/33
f 39/39/39 38/38/38 37/37/37
f 40/40/40 39/39/39 37/37/37
f 43/43/43 42/42/42 41/41/41
f 44/44/44 43/43/43 41/41/41
f 47/47/47 46/46/46 45/45/45
f 48/48/48 47/47/47 45/45/45
f 51/51/51 50/50/50 49/49/49
f 52/52/52 51/51/51 49/49/49
f 55/55/55 54/54/54 53/53/53
f 56/56/56 55/55/55 53/53/53
f 59/59/59 58/58/58 57/57/57
f 60/60/60 59/59/59 57/57/57
f 63/63/63 62/62/62 61/61/61
f 64/64/64 63/63/63 61/61/61
f 67/67/67 66/66/66 65/65/65
f 68/68/68 67/67/67 65/65/65
f 71/71/71 70/70/70 69/69/69
f 72/72/72 71/71/71 69/69/69
