g HeliCarrierCannon
v 2.250819 1.125408 -3.313706
v 2.250819 -9.727478E-07 -3.313705
v 2.250819 -8.010864E-07 -2.06325
v 2.250819 1.125409 -2.063251
v 2.250819 1.563068 0.8127957
v 2.250819 -3.242493E-07 0.812796
v 2.250819 -1.907347E-08 2.563433
v 2.250819 2.313342 2.563432
v 2.250819 2.313341 -0.8127959
v 2.250819 1.563068 -0.8127957
v 2.063251 1.563068 -0.8127957
v 2.063251 -6.866455E-07 -1.438023
v 2.063251 -3.242493E-07 0.812796
v 2.063251 1.563068 0.8127957
v 2.063251 2.000727 -1.438023
v 2.063251 2.000727 -0.8127959
v 1.688114 1.125409 -2.063251
v 1.688114 -8.010864E-07 -2.06325
v 1.688114 -6.866455E-07 -1.438023
v 1.688114 2.000727 -1.438023
v 1.688114 1.125409 -2.50091
v 1.688114 2.313341 -2.50091
v 1.688114 2.000727 -0.8127959
v 1.688114 2.313341 -0.8127959
v 0.8127957 -8.392334E-07 -2.500909
v 0.8127957 -9.727478E-07 -3.313705
v 0.8127957 1.125408 -3.313706
v 0.8127957 1.125409 -2.50091
v 0.750273 -1.907348E-08 2.563433
v 0.750273 -7.629394E-08 2.313342
v 0.750273 1.438023 2.313342
v 0.750273 2.313342 2.563432
v 0.750273 2.313341 2.000728
v 0.750273 1.438023 2.000728
v 0.8127957 -9.727478E-07 -3.313705
v 2.250819 -9.727478E-07 -3.313705
v 2.250819 1.125408 -3.313706
v 0.8127957 1.125408 -3.313706
v 0.8127957 1.125409 -2.50091
v 1.688114 1.125409 -2.50091
v 1.688114 2.313341 -2.50091
v -1.688114 2.313341 -2.50091
v -0.8127957 1.125409 -2.50091
v -0.8127957 -8.010864E-07 -2.500909
v 0.8127957 -8.392334E-07 -2.500909
v -1.688114 1.125409 -2.50091
v 1.688114 -6.866455E-07 -1.438023
v 2.063251 -6.866455E-07 -1.438023
v 2.063251 2.000727 -1.438023
v 1.688114 2.000727 -1.438023
v 2.063251 1.563068 -0.8127957
v 2.250819 1.563068 -0.8127957
v 2.250819 2.313341 -0.8127959
v 2.063251 2.000727 -0.8127959
v 1.688114 2.000727 -0.8127959
v 1.688114 2.313341 -0.8127959
v 2.063251 -3.242493E-07 0.812796
v 2.250819 -3.242493E-07 0.812796
v 2.250819 1.563068 0.8127957
v 2.063251 1.563068 0.8127957
v 2.250819 1.125409 -2.063251
v 2.250819 -8.010864E-07 -2.06325
v 1.688114 -8.010864E-07 -2.06325
v 1.688114 1.125409 -2.063251
v 0.750273 2.313341 2.000728
v 0.750273 1.438023 2.000728
v -0.7502729 1.438023 2.000728
v -0.7502729 2.313341 2.000728
v 0.750273 1.438023 2.313342
v 0.750273 -7.629394E-08 2.313342
v -0.7502729 -1.144409E-07 2.313342
v -0.7502729 1.438023 2.313342
v 2.250819 2.313342 2.563432
v 2.250819 -1.907347E-08 2.563433
v 0.750273 -1.907348E-08 2.563433
v 0.750273 2.313342 2.563432
v 2.250819 1.563068 0.8127957
v 2.250819 1.563068 -0.8127957
v 2.063251 1.563068 -0.8127957
v 2.063251 1.563068 0.8127957
v 0.8127957 1.125408 -3.313706
v 2.250819 1.125408 -3.313706
v 1.688114 1.125409 -2.50091
v 0.8127957 1.125409 -2.50091
v 2.250819 1.125409 -2.063251
v 1.688114 1.125409 -2.063251
v -0.7502729 1.438023 2.000728
v 0.750273 1.438023 2.000728
v 0.750273 1.438023 2.313342
v -0.7502729 1.438023 2.313342
v 1.688114 2.000727 -1.438023
v 2.063251 2.000727 -1.438023
v 2.063251 2.000727 -0.8127959
v 1.688114 2.000727 -0.8127959
v 1.325704 2.313341 -2.188297
v -1.325704 2.313341 -2.188297
v -1.688114 2.313341 -2.50091
v 1.688114 2.313341 -2.50091
v 1.688114 2.313341 -0.8127959
v 1.325704 2.313341 0.8753183
v 2.250819 2.313341 -0.8127959
v 2.250819 2.313342 2.563432
v 0.750273 2.313341 2.000728
v -0.7502729 2.313341 2.000728
v -1.325704 2.313341 0.8753183
v 0.750273 2.313342 2.563432
v -2.250819 1.125408 -3.313706
v -2.250819 1.125409 -2.063251
v -2.250819 -7.629394E-07 -2.06325
v -2.250819 -9.155273E-07 -3.313705
v -2.250819 1.563068 0.8127958
v -2.250819 2.313342 2.563432
v -2.250819 -1.583607E-14 2.563433
v -2.250819 -3.051758E-07 0.8127959
v -2.250819 2.313341 -0.8127959
v -2.250819 1.563068 -0.8127957
v -2.063251 1.563068 -0.8127957
v -2.063251 1.563068 0.8127958
v -2.063251 -3.051758E-07 0.8127959
v -2.063251 -7.629394E-07 -1.438023
v -2.063251 2.000727 -1.438023
v -2.063251 2.000727 -0.8127959
v -1.688114 1.125409 -2.063251
v -1.688114 2.000727 -1.438023
v -1.688114 -7.629394E-07 -1.438023
v -1.688114 -7.629394E-07 -2.06325
v -1.688114 1.125409 -2.50091
v -1.688114 2.313341 -2.50091
v -1.688114 2.000727 -0.8127959
v -1.688114 2.313341 -0.8127959
v -0.8127957 1.125408 -3.313706
v -0.8127957 -9.155273E-07 -3.313705
v -0.8127957 -8.010864E-07 -2.500909
v -0.8127957 1.125409 -2.50091
v -0.7502729 1.438023 2.313342
v -0.7502729 -1.144409E-07 2.313342
v -0.7502728 -5.174044E-15 2.563433
v -0.7502728 2.313342 2.563432
v -0.7502729 2.313341 2.000728
v -0.7502729 1.438023 2.000728
v -0.8127957 -9.155273E-07 -3.313705
v -0.8127957 1.125408 -3.313706
v -2.250819 1.125408 -3.313706
v -2.250819 -9.155273E-07 -3.313705
v -1.688114 -7.629394E-07 -1.438023
v -1.688114 2.000727 -1.438023
v -2.063251 2.000727 -1.438023
v -2.063251 -7.629394E-07 -1.438023
v -2.063251 1.563068 -0.8127957
v -2.063251 2.000727 -0.8127959
v -2.250819 2.313341 -0.8127959
v -2.250819 1.563068 -0.8127957
v -1.688114 2.000727 -0.8127959
v -1.688114 2.313341 -0.8127959
v -2.063251 -3.051758E-07 0.8127959
v -2.063251 1.563068 0.8127958
v -2.250819 1.563068 0.8127958
v -2.250819 -3.051758E-07 0.8127959
v -1.688114 -7.629394E-07 -2.06325
v -2.250819 -7.629394E-07 -2.06325
v -2.250819 1.125409 -2.063251
v -1.688114 1.125409 -2.063251
v -0.7502728 -5.174044E-15 2.563433
v -2.250819 -1.583607E-14 2.563433
v -2.250819 2.313342 2.563432
v -0.7502728 2.313342 2.563432
v -2.250819 1.563068 0.8127958
v -2.063251 1.563068 0.8127958
v -2.063251 1.563068 -0.8127957
v -2.250819 1.563068 -0.8127957
v -1.688114 1.125409 -2.50091
v -2.250819 1.125408 -3.313706
v -0.8127957 1.125408 -3.313706
v -0.8127957 1.125409 -2.50091
v -2.250819 1.125409 -2.063251
v -1.688114 1.125409 -2.063251
v -2.063251 2.000727 -0.8127959
v -2.063251 2.000727 -1.438023
v -1.688114 2.000727 -1.438023
v -1.688114 2.000727 -0.8127959
v -1.325704 2.313341 -2.188297
v -1.325704 2.313341 0.8753183
v -1.688114 2.313341 -0.8127959
v -1.688114 2.313341 -2.50091
v -2.250819 2.313341 -0.8127959
v -2.250819 2.313342 2.563432
v -0.7502729 2.313341 2.000728
v -0.7502728 2.313342 2.563432
v -1.325704 2.313341 -2.188297
v 1.325704 2.313341 -2.188297
v 1.325704 2.313341 0.8753183
v -1.325704 2.313341 0.8753183
vt 0.1142578 0.06542969
vt 0.1142578 0.04785156
vt 0.09472656 0.04785156
vt 0.09472656 0.06542969
vt 0.2265625 0.03808594
vt 0.2021484 0.03808594
vt 0.2021484 0.06542969
vt 0.2382813 0.06542969
vt 0.2382813 0.01269531
vt 0.2265625 0.01269531
vt 0.1757813 0.08398438
vt 0.2001953 0.09375
vt 0.2001953 0.05859375
vt 0.1757813 0.05859375
vt 0.1689453 0.09375
vt 0.1689453 0.08398438
vt 0.1220703 0.1416016
vt 0.1044922 0.1416016
vt 0.1044922 0.1513672
vt 0.1357422 0.1513672
vt 0.1220703 0.1347656
vt 0.140625 0.1347656
vt 0.1357422 0.1611328
vt 0.140625 0.1611328
vt 0.1044922 0.1210938
vt 0.1044922 0.1337891
vt 0.1220703 0.1337891
vt 0.1220703 0.1210938
vt 0.2021484 0.08886719
vt 0.2021484 0.09277344
vt 0.2246094 0.09277344
vt 0.2382813 0.08886719
vt 0.2382813 0.09765625
vt 0.2246094 0.09765625
vt 0.1367188 0.04785156
vt 0.1142578 0.04785156
vt 0.1142578 0.06542969
vt 0.1367188 0.06542969
vt 0.1220703 0.1210938
vt 0.1220703 0.1347656
vt 0.140625 0.1347656
vt 0.140625 0.08203125
vt 0.1220703 0.09570313
vt 0.1044922 0.09570313
vt 0.1044922 0.1210938
vt 0.1220703 0.08203125
vt 0.2001953 0.09960938
vt 0.2001953 0.09375
vt 0.1689453 0.09375
vt 0.1689453 0.09960938
vt 0.2265625 0.009765625
vt 0.2265625 0.01269531
vt 0.2382813 0.01269531
vt 0.2333984 0.009765625
vt 0.2333984 0.00390625
vt 0.2382813 0.00390625
vt 0.2021484 0.03515625
vt 0.2021484 0.03808594
vt 0.2265625 0.03808594
vt 0.2265625 0.03515625
vt 0.09472656 0.06542969
vt 0.09472656 0.04785156
vt 0.0859375 0.04785156
vt 0.0859375 0.06542969
vt 0.01953125 0.1513672
vt 0.01953125 0.1650391
vt 0.04296875 0.1650391
vt 0.04296875 0.1513672
vt 0.1650391 0.09570313
vt 0.1425781 0.09570313
vt 0.1425781 0.1191406
vt 0.1650391 0.1191406
vt 0.2382813 0.06542969
vt 0.2021484 0.06542969
vt 0.2021484 0.08886719
vt 0.2382813 0.08886719
vt 0.1728516 0.05859375
vt 0.1728516 0.08398438
vt 0.1757813 0.08398438
vt 0.1757813 0.05859375
vt 0.07519531 0.09667969
vt 0.05273438 0.09667969
vt 0.06152344 0.109375
vt 0.07519531 0.109375
vt 0.05273438 0.1162109
vt 0.06152344 0.1162109
vt 0.04296875 0.1650391
vt 0.01953125 0.1650391
vt 0.01953125 0.1699219
vt 0.04296875 0.1699219
vt 0.1630859 0.09375
vt 0.1689453 0.09375
vt 0.1689453 0.08398438
vt 0.1630859 0.08398438
vt 0.08300781 0.01953125
vt 0.1242259 0.01953125
vt 0.1298828 0.01464844
vt 0.07714844 0.01464844
vt 0.07714844 0.04101563
vt 0.08300781 0.06738281
vt 0.06835938 0.04101563
vt 0.06835938 0.09375
vt 0.09179688 0.08496094
vt 0.1152344 0.08496094
vt 0.124225 0.06738437
vt 0.09179688 0.09375
vt 0.1142578 0.06542969
vt 0.09472656 0.06542969
vt 0.09472656 0.04785156
vt 0.1142578 0.04785156
vt 0.2265625 0.03808594
vt 0.2382813 0.06542969
vt 0.2021484 0.06542969
vt 0.2021484 0.03808594
vt 0.2382813 0.01269531
vt 0.2265625 0.01269531
vt 0.1757813 0.08398438
vt 0.1757813 0.05859375
vt 0.2001953 0.05859375
vt 0.2001953 0.09375
vt 0.1689453 0.09375
vt 0.1689453 0.08398438
vt 0.1220703 0.1416016
vt 0.1357422 0.1513672
vt 0.1044922 0.1513672
vt 0.1044922 0.1416016
vt 0.1220703 0.1347656
vt 0.140625 0.1347656
vt 0.1357422 0.1611328
vt 0.140625 0.1611328
vt 0.1220703 0.1337891
vt 0.1044922 0.1337891
vt 0.1044922 0.1210938
vt 0.1220703 0.1210938
vt 0.2246094 0.09277344
vt 0.2021484 0.09277344
vt 0.2021484 0.08886719
vt 0.2382813 0.08886719
vt 0.2382813 0.09765625
vt 0.2246094 0.09765625
vt 0.1367188 0.04785156
vt 0.1367188 0.06542969
vt 0.1142578 0.06542969
vt 0.1142578 0.04785156
vt 0.2001953 0.09960938
vt 0.1689453 0.09960938
vt 0.1689453 0.09375
vt 0.2001953 0.09375
vt 0.2265625 0.009765625
vt 0.2333984 0.009765625
vt 0.2382813 0.01269531
vt 0.2265625 0.01269531
vt 0.2333984 0.00390625
vt 0.2382813 0.00390625
vt 0.2021484 0.03515625
vt 0.2265625 0.03515625
vt 0.2265625 0.03808594
vt 0.2021484 0.03808594
vt 0.0859375 0.04785156
vt 0.09472656 0.04785156
vt 0.09472656 0.06542969
vt 0.0859375 0.06542969
vt 0.2021484 0.08886719
vt 0.2021484 0.06542969
vt 0.2382813 0.06542969
vt 0.2382813 0.08886719
vt 0.1728516 0.05859375
vt 0.1757813 0.05859375
vt 0.1757813 0.08398438
vt 0.1728516 0.08398438
vt 0.06152344 0.109375
vt 0.05273438 0.09667969
vt 0.07519531 0.09667969
vt 0.07519531 0.109375
vt 0.05273438 0.1162109
vt 0.06152344 0.1162109
vt 0.1689453 0.08398438
vt 0.1689453 0.09375
vt 0.1630859 0.09375
vt 0.1630859 0.08398438
vt 0.08300781 0.01953125
vt 0.08300781 0.06738281
vt 0.07714844 0.04101563
vt 0.07714844 0.01464844
vt 0.06835938 0.04101563
vt 0.06835938 0.09375
vt 0.09179688 0.08496094
vt 0.09179688 0.09375
vt 0.1982422 0.1220703
vt 0.1982422 0.1572266
vt 0.2392578 0.1572266
vt 0.2392578 0.1220703
vn 1 0 0
vn 1 0 0
vn 1 0 0
vn 1 0 0
vn 1 0 0
vn 1 0 0
vn 1 0 0
vn 1 0 0
vn 1 0 0
vn 1 0 0
vn 1 0 0
vn 1 0 0
vn 1 0 0
vn 1 0 0
vn 1 0 0
vn 1 0 0
vn 1 0 0
vn 1 0 0
vn 1 0 0
vn 1 0 0
vn 1 0 0
vn 1 0 0
vn 1 0 0
vn 1 0 0
vn -1 0 0
vn -1 0 0
vn -1 0 0
vn -1 0 0
vn -1 0 0
vn -1 0 0
vn -1 0 0
vn -1 0 0
vn -1 0 0
vn -1 0 0
vn 0 -5.423373E-07 -1
vn 0 -5.423373E-07 -1
vn 0 -5.423373E-07 -1
vn 0 -5.423373E-07 -1
vn 0 -2.568966E-07 -1
vn 0 -2.568966E-07 -1
vn 0 -2.568966E-07 -1
vn 0 -2.568967E-07 -1
vn 0 -2.711687E-07 -1
vn 0 -2.711687E-07 -1
vn 0 -2.711687E-07 -1
vn 0 -2.568966E-07 -1
vn 0 -3.050647E-07 -1
vn 0 -3.050647E-07 -1
vn 0 -3.050647E-07 -1
vn 0 -3.050647E-07 -1
vn 2.140805E-07 -2.568966E-07 -1
vn 2.140805E-07 -2.568966E-07 -1
vn 2.140805E-07 -2.568966E-07 -1
vn 2.140805E-07 -2.568966E-07 -1
vn 0 0 -1
vn 0 0 -1
vn 0 -1.952414E-07 -1
vn 0 -1.952414E-07 -1
vn 0 -1.952414E-07 -1
vn 0 -1.952414E-07 -1
vn 0 2.711687E-07 1
vn 0 2.711687E-07 1
vn 0 2.711687E-07 1
vn 0 2.711687E-07 1
vn 0 0 1
vn 0 0 1
vn 0 0 1
vn 0 0 1
vn 0 2.122189E-07 1
vn 0 2.122189E-07 1
vn 0 2.12219E-07 1
vn 0 2.122189E-07 1
vn 0 1.319199E-07 1
vn 0 1.319199E-07 1
vn 0 1.319199E-07 1
vn 0 1.319199E-07 1
vn 0 -1 0
vn 0 -1 0
vn 0 -1 0
vn 0 -1 0
vn 0 1 -1.877321E-07
vn 0 1 -1.877321E-07
vn 0 1 -1.877321E-07
vn 0 1 -1.877321E-07
vn 0 1 0
vn 0 1 0
vn 0 1 0
vn 0 1 0
vn 0 1 0
vn 0 1 0
vn 0 1 0
vn 0 1 0
vn 0 1 0
vn 0 1 0
vn 0 1 0
vn 0 1 0
vn 0 1 0
vn 0 1 0
vn -1.107991E-07 1 -1.926725E-07
vn 0 1 0
vn 0 1 -1.807791E-07
vn 0 1 -1.807791E-07
vn 0 1 0
vn 0 1 0
vn 0 1 0
vn -1.202173E-07 1 -2.217578E-07
vn -1 0 0
vn -1 0 0
vn -1 0 0
vn -1 0 0
vn -1 0 0
vn -1 0 0
vn -1 0 0
vn -1 0 0
vn -1 0 0
vn -1 0 0
vn -1 0 0
vn -1 0 0
vn -1 0 0
vn -1 0 0
vn -1 0 0
vn -1 0 0
vn -1 0 0
vn -1 0 0
vn -1 0 0
vn -1 0 0
vn -1 0 0
vn -1 0 0
vn -1 0 0
vn -1 0 0
vn 1 0 0
vn 1 0 0
vn 1 0 0
vn 1 0 0
vn 1 0 -3.050647E-07
vn 1 0 -3.050647E-07
vn 1 0 -3.050647E-07
vn 1 0 -3.050647E-07
vn 1 0 0
vn 1 0 0
vn 0 -5.423374E-07 -1
vn 0 -5.423374E-07 -1
vn 0 -5.423374E-07 -1
vn 0 -5.423374E-07 -1
vn 0 -3.050647E-07 -1
vn 0 -3.050647E-07 -1
vn 0 -3.050647E-07 -1
vn 0 -3.050647E-07 -1
vn -2.140803E-07 -2.568966E-07 -1
vn -2.140803E-07 -2.568966E-07 -1
vn -2.140803E-07 -2.568966E-07 -1
vn -2.140803E-07 -2.568966E-07 -1
vn 0 0 -1
vn 0 0 -1
vn 0 0 -1
vn 0 0 -1
vn 0 0 -1
vn 0 0 -1
vn 0 2.711687E-07 1
vn 0 2.711687E-07 1
vn 0 2.711687E-07 1
vn 0 2.711687E-07 1
vn 0 1.319199E-07 1
vn 0 1.319199E-07 1
vn 0 1.319199E-07 1
vn 0 1.319199E-07 1
vn 0 -1 0
vn 0 -1 0
vn 0 -1 0
vn 0 -1 0
vn 0 1 -1.87732E-07
vn 0 1 -1.87732E-07
vn 0 1 -1.87732E-07
vn 0 1 -1.87732E-07
vn 0 1 0
vn 0 1 0
vn 0 1 0
vn 0 1 0
vn 0 1 0
vn 0 1 0
vn 1.107991E-07 1 -1.926725E-07
vn 1.107991E-07 1 -1.926725E-07
vn 1.107991E-07 1 -1.926725E-07
vn 1.107991E-07 1 -1.926725E-07
vn 0 1 -1.807791E-07
vn 0 1 -1.807791E-07
vn 1.202173E-07 1 -2.217579E-07
vn 1.202173E-07 1 -2.217579E-07
vn 0 1 -1.992259E-07
vn 0 1 -1.992259E-07
vn 0 1 -1.992259E-07
vn 0 1 -1.992259E-07
g HeliCarrierCannon_0
f 3/3/3 2/2/2 1/1/1
f 4/4/4 3/3/3 1/1/1
f 7/7/7 6/6/6 5/5/5
f 8/8/8 7/7/7 5/5/5
f 8/8/8 5/5/5 9/9/9
f 5/5/5 10/10/10 9/9/9
f 13/13/13 12/12/12 11/11/11
f 14/14/14 13/13/13 11/11/11
f 11/11/11 12/12/12 15/15/15
f 16/16/16 11/11/11 15/15/15
f 19/19/19 18/18/18 17/17/17
f 20/20/20 19/19/19 17/17/17
f 17/17/17 21/21/21 20/20/20
f 21/21/21 22/22/22 20/20/20
f 23/23/23 20/20/20 22/22/22
f 24/24/24 23/23/23 22/22/22
f 27/27/27 26/26/26 25/25/25
f 28/28/28 27/27/27 25/25/25
f 31/31/31 30/30/30 29/29/29
f 32/32/32 31/31/31 29/29/29
f 32/32/32 33/33/33 31/31/31
f 33/33/33 34/34/34 31/31/31
f 37/37/37 36/36/36 35/35/35
f 38/38/38 37/37/37 35/35/35
f 41/41/41 40/40/40 39/39/39
f 41/41/41 39/39/39 42/42/42
f 39/39/39 43/43/43 42/42/42
f 43/43/43 39/39/39 44/44/44
f 39/39/39 45/45/45 44/44/44
f 46/46/46 42/42/42 43/43/43
f 49/49/49 48/48/48 47/47/47
f 50/50/50 49/49/49 47/47/47
f 53/53/53 52/52/52 51/51/51
f 54/54/54 53/53/53 51/51/51
f 53/53/53 54/54/54 55/55/55
f 56/56/56 53/53/53 55/55/55
f 59/59/59 58/58/58 57/57/57
f 60/60/60 59/59/59 57/57/57
f 63/63/63 62/62/62 61/61/61
f 64/64/64 63/63/63 61/61/61
f 67/67/67 66/66/66 65/65/65
f 68/68/68 67/67/67 65/65/65
f 71/71/71 70/70/70 69/69/69
f 72/72/72 71/71/71 69/69/69
f 75/75/75 74/74/74 73/73/73
f 76/76/76 75/75/75 73/73/73
f 79/79/79 78/78/78 77/77/77
f 80/80/80 79/79/79 77/77/77
f 83/83/83 82/82/82 81/81/81
f 84/84/84 83/83/83 81/81/81
f 85/85/85 82/82/82 83/83/83
f 86/86/86 85/85/85 83/83/83
f 89/89/89 88/88/88 87/87/87
f 90/90/90 89/89/89 87/87/87
f 93/93/93 92/92/92 91/91/91
f 94/94/94 93/93/93 91/91/91
f 97/97/97 96/96/96 95/95/95
f 98/98/98 97/97/97 95/95/95
f 99/99/99 98/98/98 95/95/95
f 100/100/100 99/99/99 95/95/95
f 101/101/101 99/99/99 100/100/100
f 102/102/102 101/101/101 100/100/100
f 100/100/100 103/103/103 102/102/102
f 104/104/104 103/103/103 100/100/100
f 105/105/105 104/104/104 100/100/100
f 103/103/103 106/106/106 102/102/102
f 109/109/109 108/108/108 107/107/107
f 110/110/110 109/109/109 107/107/107
f 113/113/113 112/112/112 111/111/111
f 114/114/114 113/113/113 111/111/111
f 111/111/111 112/112/112 115/115/115
f 116/116/116 111/111/111 115/115/115
f 119/119/119 118/118/118 117/117/117
f 120/120/120 119/119/119 117/117/117
f 120/120/120 117/117/117 121/121/121
f 117/117/117 122/122/122 121/121/121
f 125/125/125 124/124/124 123/123/123
f 126/126/126 125/125/125 123/123/123
f 127/127/127 123/123/123 124/124/124
f 128/128/128 127/127/127 124/124/124
f 124/124/124 129/129/129 128/128/128
f 129/129/129 130/130/130 128/128/128
f 133/133/133 132/132/132 131/131/131
f 134/134/134 133/133/133 131/131/131
f 137/137/137 136/136/136 135/135/135
f 138/138/138 137/137/137 135/135/135
f 138/138/138 135/135/135 139/139/139
f 135/135/135 140/140/140 139/139/139
f 143/143/143 142/142/142 141/141/141
f 144/144/144 143/143/143 141/141/141
f 147/147/147 146/146/146 145/145/145
f 148/148/148 147/147/147 145/145/145
f 151/151/151 150/150/150 149/149/149
f 152/152/152 151/151/151 149/149/149
f 150/150/150 151/151/151 153/153/153
f 151/151/151 154/154/154 153/153/153
f 157/157/157 156/156/156 155/155/155
f 158/158/158 157/157/157 155/155/155
f 161/161/161 160/160/160 159/159/159
f 162/162/162 161/161/161 159/159/159
f 165/165/165 164/164/164 163/163/163
f 166/166/166 165/165/165 163/163/163
f 169/169/169 168/168/168 167/167/167
f 170/170/170 169/169/169 167/167/167
f 173/173/173 172/172/172 171/171/171
f 174/174/174 173/173/173 171/171/171
f 171/171/171 172/172/172 175/175/175
f 176/176/176 171/171/171 175/175/175
f 179/179/179 178/178/178 177/177/177
f 180/180/180 179/179/179 177/177/177
f 183/183/183 182/182/182 181/181/181
f 184/184/184 183/183/183 181/181/181
f 182/182/182 183/183/183 185/185/185
f 186/186/186 182/182/182 185/185/185
f 187/187/187 182/182/182 186/186/186
f 188/188/188 187/187/187 186/186/186
f 191/191/191 190/190/190 189/189/189
f 192/192/192 191/191/191 189/189/189
