g Hotel_Paradise2
v 0.13 -0.22 0.0925
v 0.13 0.22 0.0975
v 0.13 0.22 0.0925
v 0.13 -0.22 0.0975
v -0.13 -0.22 0.0925
v 0.13 -0.22 0.0975
v 0.13 -0.22 0.0925
v -0.13 -0.22 0.0975
v -0.13 0.22 0.0975
v -0.13 -0.22 0.0925
v -0.13 0.22 0.0925
v -0.13 -0.22 0.0975
v 0.13 0.22 0.0975
v -0.13 0.22 0.0925
v 0.13 0.22 0.0925
v -0.13 0.22 0.0975
v 0.13 0.22 0.0975
v -0.13 -0.22 0.0975
v -0.13 0.22 0.0975
v 0.13 -0.22 0.0975
v 0.12 -0.21 0.0975
v 0.12 0.21 0.1025
v 0.12 0.21 0.0975
v 0.12 -0.21 0.1025
v -0.12 -0.21 0.0975
v 0.12 -0.21 0.1025
v 0.12 -0.21 0.0975
v -0.12 -0.21 0.1025
v -0.12 0.21 0.1025
v -0.12 -0.21 0.0975
v -0.12 0.21 0.0975
v -0.12 -0.21 0.1025
v 0.12 0.21 0.1025
v -0.12 0.21 0.0975
v 0.12 0.21 0.0975
v -0.12 0.21 0.1025
v 0.12 0.21 0.1025
v -0.12 -0.21 0.1025
v -0.12 0.21 0.1025
v 0.12 -0.21 0.1025
v 0.11 -0.2 0.1025
v 0.11 0.2 0.1075
v 0.11 0.2 0.1025
v 0.11 -0.2 0.1075
v -0.11 -0.2 0.1025
v 0.11 -0.2 0.1075
v 0.11 -0.2 0.1025
v -0.11 -0.2 0.1075
v -0.11 0.2 0.1075
v -0.11 -0.2 0.1025
v -0.11 0.2 0.1025
v -0.11 -0.2 0.1075
v 0.11 0.2 0.1075
v -0.11 0.2 0.1025
v 0.11 0.2 0.1025
v -0.11 0.2 0.1075
v 0.11 0.2 0.1075
v -0.11 -0.2 0.1075
v -0.11 0.2 0.1075
v 0.11 -0.2 0.1075
v 0.09999999 -0.172273 0.1075
v 0.09999999 0.172273 0.1125
v 0.09999999 0.172273 0.1075
v 0.09999999 -0.172273 0.1125
v -0.09999999 -0.172273 0.1075
v 0.09999999 -0.172273 0.1125
v 0.09999999 -0.172273 0.1075
v -0.09999999 -0.172273 0.1125
v -0.09999999 0.172273 0.1125
v -0.09999999 -0.172273 0.1075
v -0.09999999 0.172273 0.1075
v -0.09999999 -0.172273 0.1125
v 0.09999999 0.172273 0.1125
v -0.09999999 0.172273 0.1075
v 0.09999999 0.172273 0.1075
v -0.09999999 0.172273 0.1125
v 0.09999999 0.172273 0.1125
v -0.09999999 -0.172273 0.1125
v -0.09999999 0.172273 0.1125
v 0.09999999 -0.172273 0.1125
v 0.09 -0.162273 0.1125
v 0.09 0.162273 0.1175
v 0.09 0.162273 0.1125
v 0.09 -0.162273 0.1175
v -0.09 -0.162273 0.1125
v 0.09 -0.162273 0.1175
v 0.09 -0.162273 0.1125
v -0.09 -0.162273 0.1175
v -0.09 0.162273 0.1175
v -0.09 -0.162273 0.1125
v -0.09 0.162273 0.1125
v -0.09 -0.162273 0.1175
v 0.09 0.162273 0.1175
v -0.09 0.162273 0.1125
v 0.09 0.162273 0.1125
v -0.09 0.162273 0.1175
v 0.09 0.162273 0.1175
v -0.09 -0.162273 0.1175
v -0.09 0.162273 0.1175
v 0.09 -0.162273 0.1175
v 0.08 -0.152273 0.1175
v 0.08 0.152273 0.1225
v 0.08 0.152273 0.1175
v 0.08 -0.152273 0.1225
v -0.08 -0.152273 0.1175
v 0.08 -0.152273 0.1225
v 0.08 -0.152273 0.1175
v -0.08 -0.152273 0.1225
v -0.08 0.152273 0.1225
v -0.08 -0.152273 0.1175
v -0.08 0.152273 0.1175
v -0.08 -0.152273 0.1225
v 0.08 0.152273 0.1225
v -0.08 0.152273 0.1175
v 0.08 0.152273 0.1175
v -0.08 0.152273 0.1225
v 0.08 0.152273 0.1225
v -0.08 -0.152273 0.1225
v -0.08 0.152273 0.1225
v 0.08 -0.152273 0.1225
v 0.06 -0.125 0.1225
v 0.06 0.125 0.1275
v 0.06 0.125 0.1225
v 0.06 -0.125 0.1275
v -0.06 -0.125 0.1225
v 0.06 -0.125 0.1275
v 0.06 -0.125 0.1225
v -0.06 -0.125 0.1275
v -0.06 0.125 0.1275
v -0.06 -0.125 0.1225
v -0.06 0.125 0.1225
v -0.06 -0.125 0.1275
v 0.06 0.125 0.1275
v -0.06 0.125 0.1225
v 0.06 0.125 0.1225
v -0.06 0.125 0.1275
v 0.06 0.125 0.1275
v -0.06 -0.125 0.1275
v -0.06 0.125 0.1275
v 0.06 -0.125 0.1275
v 0.045 -0.11 0.1275
v 0.045 0.11 0.132288
v 0.045 0.11 0.1275
v 0.045 -0.11 0.132288
v -0.045 -0.11 0.1275
v 0.045 -0.11 0.132288
v 0.045 -0.11 0.1275
v -0.045 -0.11 0.132288
v -0.045 0.11 0.132288
v -0.045 -0.11 0.1275
v -0.045 0.11 0.1275
v -0.045 -0.11 0.132288
v 0.045 0.11 0.132288
v -0.045 0.11 0.1275
v 0.045 0.11 0.1275
v -0.045 0.11 0.132288
v 0.045 0.11 0.132288
v -0.045 -0.11 0.132288
v -0.045 0.11 0.132288
v 0.045 -0.11 0.132288
v 0.03 -0.095 0.132288
v 0.03 0.095 0.137
v 0.03 0.095 0.132288
v 0.03 -0.095 0.137
v -0.03 -0.095 0.132288
v 0.03 -0.095 0.137
v 0.03 -0.095 0.132288
v -0.03 -0.095 0.137
v -0.03 0.095 0.137
v -0.03 -0.095 0.132288
v -0.03 0.095 0.132288
v -0.03 -0.095 0.137
v 0.03 0.095 0.137
v -0.03 0.095 0.132288
v 0.03 0.095 0.132288
v -0.03 0.095 0.137
v 0.03 0.095 0.137
v -0.03 -0.095 0.137
v -0.03 0.095 0.137
v 0.03 -0.095 0.137
v -0.13 -0.22 0.0925
v 0.1075 -0.1975 0.0925
v -0.1075 -0.1975 0.0925
v 0.13 -0.22 0.0925
v -0.13 0.22 0.0925
v -0.1075 0.197058 0.0925
v 0.13 0.22 0.0925
v 0.1075 0.197058 0.0925
vt 8.44718 32.975
vt 8.94718 -11.025
vt 8.44718 -11.025
vt 8.94718 32.975
vt 8.44718 40.2726
vt 8.94718 14.2726
vt 8.44718 14.2726
vt 8.94718 40.2726
vt 8.94718 32.975
vt 8.44718 -11.025
vt 8.44718 32.975
vt 8.94718 -11.025
vt 8.94718 7.67736
vt 8.44718 -18.3226
vt 8.44718 7.67736
vt 8.94718 -18.3226
vt 3.79764 -21.5
vt 29.7976 22.5
vt 29.7976 -21.5
vt 3.79764 22.5
vt 8.94718 31.975
vt 9.44718 -10.025
vt 8.94718 -10.025
vt 9.44718 31.975
vt 8.94718 39.2726
vt 9.44718 15.2726
vt 8.94718 15.2726
vt 9.44718 39.2726
vt 9.44718 31.975
vt 8.94718 -10.025
vt 8.94718 31.975
vt 9.44718 -10.025
vt 9.44718 6.67736
vt 8.94718 -17.3226
vt 8.94718 6.67736
vt 9.44718 -17.3226
vt 4.79764 -20.5
vt 28.7976 21.5
vt 28.7976 -20.5
vt 4.79764 21.5
vt 9.44718 30.975
vt 9.94718 -9.025
vt 9.44718 -9.025
vt 9.94718 30.975
vt 9.44718 38.2726
vt 9.94718 16.2726
vt 9.44718 16.2726
vt 9.94718 38.2726
vt 9.94718 30.975
vt 9.44718 -9.025
vt 9.44718 30.975
vt 9.94718 -9.025
vt 9.94718 5.67736
vt 9.44718 -16.3226
vt 9.44718 5.67736
vt 9.94718 -16.3226
vt 5.79764 -19.5
vt 27.7976 20.5
vt 27.7976 -19.5
vt 5.79764 20.5
vt 9.94718 28.2023
vt 10.4472 -6.25227
vt 9.94718 -6.25227
vt 10.4472 28.2023
vt 9.94718 37.2726
vt 10.4472 17.2726
vt 9.94718 17.2726
vt 10.4472 37.2726
vt 10.4472 28.2023
vt 9.94718 -6.25227
vt 9.94718 28.2023
vt 10.4472 -6.25227
vt 10.4472 4.67736
vt 9.94718 -15.3226
vt 9.94718 4.67736
vt 10.4472 -15.3226
vt 6.79764 -16.7273
vt 26.7976 17.7273
vt 26.7976 -16.7273
vt 6.79764 17.7273
vt 10.4472 27.2023
vt 10.9472 -5.25227
vt 10.4472 -5.25227
vt 10.9472 27.2023
vt 10.4472 36.2726
vt 10.9472 18.2726
vt 10.4472 18.2726
vt 10.9472 36.2726
vt 10.9472 27.2023
vt 10.4472 -5.25227
vt 10.4472 27.2023
vt 10.9472 -5.25227
vt 10.9472 3.67736
vt 10.4472 -14.3226
vt 10.4472 3.67736
vt 10.9472 -14.3226
vt 7.79764 -15.7273
vt 25.7976 16.7273
vt 25.7976 -15.7273
vt 7.79764 16.7273
vt 10.9472 26.2023
vt 11.4472 -4.25227
vt 10.9472 -4.25227
vt 11.4472 26.2023
vt 10.9472 35.2726
vt 11.4472 19.2726
vt 10.9472 19.2726
vt 11.4472 35.2726
vt 11.4472 26.2023
vt 10.9472 -4.25227
vt 10.9472 26.2023
vt 11.4472 -4.25227
vt 11.4472 2.67736
vt 10.9472 -13.3226
vt 10.9472 2.67736
vt 11.4472 -13.3226
vt 8.79764 -14.7273
vt 24.7976 15.7273
vt 24.7976 -14.7273
vt 8.79764 15.7273
vt 11.4472 23.475
vt 11.9472 -1.525
vt 11.4472 -1.525
vt 11.9472 23.475
vt 11.4472 33.2726
vt 11.9472 21.2726
vt 11.4472 21.2726
vt 11.9472 33.2726
vt 11.9472 23.475
vt 11.4472 -1.525
vt 11.4472 23.475
vt 11.9472 -1.525
vt 11.9472 0.677357
vt 11.4472 -11.3226
vt 11.4472 0.677357
vt 11.9472 -11.3226
vt 10.7976 -12
vt 22.7976 13
vt 22.7976 -12
vt 10.7976 13
vt 11.9472 21.975
vt 12.4259 -0.0250001
vt 11.9472 -0.0250001
vt 12.4259 21.975
vt 11.9472 31.7726
vt 12.4259 22.7726
vt 11.9472 22.7726
vt 12.4259 31.7726
vt 12.4259 21.975
vt 11.9472 -0.0250001
vt 11.9472 21.975
vt 12.4259 -0.0250001
vt 12.4259 -0.822643
vt 11.9472 -9.82264
vt 11.9472 -0.822643
vt 12.4259 -9.82264
vt 12.2976 -10.5
vt 21.2976 11.5
vt 21.2976 -10.5
vt 12.2976 11.5
vt 12.4259 20.475
vt 12.8972 1.475
vt 12.4259 1.475
vt 12.8972 20.475
vt 12.4259 30.2726
vt 12.8972 24.2726
vt 12.4259 24.2726
vt 12.8972 30.2726
vt 12.8972 20.475
vt 12.4259 1.475
vt 12.4259 20.475
vt 12.8972 1.475
vt 12.8972 -2.32264
vt 12.4259 -8.32264
vt 12.4259 -2.32264
vt 12.8972 -8.32264
vt 13.7976 -9
vt 19.7976 10
vt 19.7976 -9
vt 13.7976 10
vt -28.7976 22.5
vt -5.04764 20.25
vt -26.5476 20.25
vt -2.79764 22.5
vt -28.7976 -21.5
vt -26.5476 -19.2058
vt -2.79764 -21.5
vt -5.04764 -19.2058
vn 1 0 0
vn 1 0 0
vn 1 0 0
vn 1 0 0
vn 0 -1 0
vn 0 -1 0
vn 0 -1 0
vn 0 -1 0
vn -1 0 0
vn -1 0 0
vn -1 0 0
vn -1 0 0
vn 0 1 0
vn 0 1 0
vn 0 1 0
vn 0 1 0
vn 0 0 1
vn 0 0 1
vn 0 0 1
vn 0 0 1
vn 1 0 0
vn 1 0 0
vn 1 0 0
vn 1 0 0
vn 0 -1 0
vn 0 -1 0
vn 0 -1 0
vn 0 -1 0
vn -1 0 0
vn -1 0 0
vn -1 0 0
vn -1 0 0
vn 0 1 0
vn 0 1 0
vn 0 1 0
vn 0 1 0
vn 0 0 1
vn 0 0 1
vn 0 0 1
vn 0 0 1
vn 1 0 0
vn 1 0 0
vn 1 0 0
vn 1 0 0
vn 0 -1 0
vn 0 -1 0
vn 0 -1 0
vn 0 -1 0
vn -1 0 0
vn -1 0 0
vn -1 0 0
vn -1 0 0
vn 0 1 0
vn 0 1 0
vn 0 1 0
vn 0 1 0
vn 0 0 1
vn 0 0 1
vn 0 0 1
vn 0 0 1
vn 1 0 0
vn 1 0 0
vn 1 0 0
vn 1 0 0
vn 0 -1 0
vn 0 -1 0
vn 0 -1 0
vn 0 -1 0
vn -1 0 0
vn -1 0 0
vn -1 0 0
vn -1 0 0
vn 0 1 0
vn 0 1 0
vn 0 1 0
vn 0 1 0
vn 0 0 1
vn 0 0 1
vn 0 0 1
vn 0 0 1
vn 1 0 0
vn 1 0 0
vn 1 0 0
vn 1 0 0
vn 0 -1 0
vn 0 -1 0
vn 0 -1 0
vn 0 -1 0
vn -1 0 0
vn -1 0 0
vn -1 0 0
vn -1 0 0
vn 0 1 0
vn 0 1 0
vn 0 1 0
vn 0 1 0
vn 0 0 1
vn 0 0 1
vn 0 0 1
vn 0 0 1
vn 1 0 0
vn 1 0 0
vn 1 0 0
vn 1 0 0
vn 0 -1 0
vn 0 -1 0
vn 0 -1 0
vn 0 -1 0
vn -1 0 0
vn -1 0 0
vn -1 0 0
vn -1 0 0
vn 0 1 0
vn 0 1 0
vn 0 1 0
vn 0 1 0
vn 0 0 1
vn 0 0 1
vn 0 0 1
vn 0 0 1
vn 1 0 0
vn 1 0 0
vn 1 0 0
vn 1 0 0
vn 0 -1 0
vn 0 -1 0
vn 0 -1 0
vn 0 -1 0
vn -1 0 0
vn -1 0 0
vn -1 0 0
vn -1 0 0
vn 0 1 0
vn 0 1 0
vn 0 1 0
vn 0 1 0
vn 0 0 1
vn 0 0 1
vn 0 0 1
vn 0 0 1
vn 1 0 0
vn 1 0 0
vn 1 0 0
vn 1 0 0
vn 0 -1 0
vn 0 -1 0
vn 0 -1 0
vn 0 -1 0
vn -1 0 0
vn -1 0 0
vn -1 0 0
vn -1 0 0
vn 0 1 0
vn 0 1 0
vn 0 1 0
vn 0 1 0
vn 0 0 1
vn 0 0 1
vn 0 0 1
vn 0 0 1
vn 1 0 0
vn 1 0 0
vn 1 0 0
vn 1 0 0
vn 0 -1 0
vn 0 -1 0
vn 0 -1 0
vn 0 -1 0
vn -1 0 0
vn -1 0 0
vn -1 0 0
vn -1 0 0
vn 0 1 0
vn 0 1 0
vn 0 1 0
vn 0 1 0
vn 0 0 1
vn 0 0 1
vn 0 0 1
vn 0 0 1
vn 0 0 -1
vn 0 0 -1
vn 0 0 -1
vn 0 0 -1
vn 0 0 -1
vn 0 0 -1
vn 0 0 -1
vn 0 0 -1
g Hotel_Paradise2_0
f 3/3/3 2/2/2 1/1/1
f 4/4/4 1/1/1 2/2/2
f 7/7/7 6/6/6 5/5/5
f 8/8/8 5/5/5 6/6/6
f 11/11/11 10/10/10 9/9/9
f 12/12/12 9/9/9 10/10/10
f 15/15/15 14/14/14 13/13/13
f 16/16/16 13/13/13 14/14/14
f 19/19/19 18/18/18 17/17/17
f 20/20/20 17/17/17 18/18/18
f 23/23/23 22/22/22 21/21/21
f 24/24/24 21/21/21 22/22/22
f 27/27/27 26/26/26 25/25/25
f 28/28/28 25/25/25 26/26/26
f 31/31/31 30/30/30 29/29/29
f 32/32/32 29/29/29 30/30/30
f 35/35/35 34/34/34 33/33/33
f 36/36/36 33/33/33 34/34/34
f 39/39/39 38/38/38 37/37/37
f 40/40/40 37/37/37 38/38/38
f 43/43/43 42/42/42 41/41/41
f 44/44/44 41/41/41 42/42/42
f 47/47/47 46/46/46 45/45/45
f 48/48/48 45/45/45 46/46/46
f 51/51/51 50/50/50 49/49/49
f 52/52/52 49/49/49 50/50/50
f 55/55/55 54/54/54 53/53/53
f 56/56/56 53/53/53 54/54/54
f 59/59/59 58/58/58 57/57/57
f 60/60/60 57/57/57 58/58/58
f 63/63/63 62/62/62 61/61/61
f 64/64/64 61/61/61 62/62/62
f 67/67/67 66/66/66 65/65/65
f 68/68/68 65/65/65 66/66/66
f 71/71/71 70/70/70 69/69/69
f 72/72/72 69/69/69 70/70/70
f 75/75/75 74/74/74 73/73/73
f 76/76/76 73/73/73 74/74/74
f 79/79/79 78/78/78 77/77/77
f 80/80/80 77/77/77 78/78/78
f 83/83/83 82/82/82 81/81/81
f 84/84/84 81/81/81 82/82/82
f 87/87/87 86/86/86 85/85/85
f 88/88/88 85/85/85 86/86/86
f 91/91/91 90/90/90 89/89/89
f 92/92/92 89/89/89 90/90/90
f 95/95/95 94/94/94 93/93/93
f 96/96/96 93/93/93 94/94/94
f 99/99/99 98/98/98 97/97/97
f 100/100/100 97/97/97 98/98/98
f 103/103/103 102/102/102 101/101/101
f 104/104/104 101/101/101 102/102/102
f 107/107/107 106/106/106 105/105/105
f 108/108/108 105/105/105 106/106/106
f 111/111/111 110/110/110 109/109/109
f 112/112/112 109/109/109 110/110/110
f 115/115/115 114/114/114 113/113/113
f 116/116/116 113/113/113 114/114/114
f 119/119/119 118/118/118 117/117/117
f 120/120/120 117/117/117 118/118/118
f 123/123/123 122/122/122 121/121/121
f 124/124/124 121/121/121 122/122/122
f 127/127/127 126/126/126 125/125/125
f 128/128/128 125/125/125 126/126/126
f 131/131/131 130/130/130 129/129/129
f 132/132/132 129/129/129 130/130/130
f 135/135/135 134/134/134 133/133/133
f 136/136/136 133/133/133 134/134/134
f 139/139/139 138/138/138 137/137/137
f 140/140/140 137/137/137 138/138/138
f 143/143/143 142/142/142 141/141/141
f 144/144/144 141/141/141 142/142/142
f 147/147/147 146/146/146 145/145/145
f 148/148/148 145/145/145 146/146/146
f 151/151/151 150/150/150 149/149/149
f 152/152/152 149/149/149 150/150/150
f 155/155/155 154/154/154 153/153/153
f 156/156/156 153/153/153 154/154/154
f 159/159/159 158/158/158 157/157/157
f 160/160/160 157/157/157 158/158/158
f 163/163/163 162/162/162 161/161/161
f 164/164/164 161/161/161 162/162/162
f 167/167/167 166/166/166 165/165/165
f 168/168/168 165/165/165 166/166/166
f 171/171/171 170/170/170 169/169/169
f 172/172/172 169/169/169 170/170/170
f 175/175/175 174/174/174 173/173/173
f 176/176/176 173/173/173 174/174/174
f 179/179/179 178/178/178 177/177/177
f 180/180/180 177/177/177 178/178/178
f 183/183/183 182/182/182 181/181/181
f 184/184/184 181/181/181 182/182/182
f 181/181/181 185/185/185 183/183/183
f 186/186/186 183/183/183 185/185/185
f 185/185/185 187/187/187 186/186/186
f 188/188/188 186/186/186 187/187/187
f 182/182/182 188/188/188 184/184/184
f 187/187/187 184/184/184 188/188/188
g Hotel_Paradise2_1
f 183/183/183 186/186/186 182/182/182
f 188/188/188 182/182/182 186/186/186
