g House_roof
v -11.69799 10.38427 4.504949
v -18.52479 10.38427 4.004949
v -11.698 10.38427 4.004948
v -18.52478 10.38427 4.504948
v -13.40043 2.851028 5.004949
v -23.64914 2.85103 4.504947
v -13.40043 2.851028 4.504949
v -23.64914 2.85103 5.004947
v -15.10287 1.318171 5.504948
v -21.94669 1.318179 5.004946
v -15.10287 1.318171 5.004948
v -21.94669 1.318179 5.504946
v -16.80532 -0.2146802 6.004948
v -20.24425 -0.2146753 5.504948
v -16.80532 -0.2146802 5.504948
v -20.24425 -0.2146753 6.004948
v -16.80532 -0.2146802 6.004948
v -20.24425 -7.909565 6.004948
v -20.24425 -0.2146753 6.004948
v -16.80533 -7.909565 6.004948
v -11.698 -12.50811 4.504949
v -11.69801 -6.785015 4.004948
v -11.69801 -12.50811 4.004948
v -11.698 -6.785015 4.504949
v -13.40044 -10.97526 5.004949
v -13.40044 -4.062117 4.504949
v -13.40044 -10.97526 4.504949
v -13.40044 -4.062117 5.004949
v -15.10288 -9.442424 5.504948
v -15.10287 1.318171 5.004948
v -15.10288 -9.442424 5.004948
v -15.10287 1.318171 5.504948
v -16.80533 -7.909565 6.004948
v -16.80532 -0.2146802 5.504948
v -16.80533 -7.909565 5.504948
v -16.80532 -0.2146802 6.004948
v -25.35158 -12.50811 4.504947
v -18.52479 -12.50811 4.004947
v -25.35158 -12.50811 4.004946
v -18.52479 -12.50811 4.504948
v -23.64914 -10.97526 5.004947
v -13.40044 -10.97526 4.504949
v -23.64914 -10.97526 4.504947
v -13.40044 -10.97526 5.004949
v -25.35157 10.38427 4.504947
v -25.35158 4.661177 4.004948
v -25.35157 10.38427 4.004949
v -25.35158 4.661177 4.504947
v -25.35157 -6.785015 4.504947
v -18.52479 -12.50811 4.504948
v -25.35158 -12.50811 4.504947
v -18.52479 -6.785015 4.504948
v -23.64914 2.85103 5.004947
v -23.64914 -4.062114 4.504947
v -23.64914 2.85103 4.504947
v -23.64914 -4.062114 5.004947
v -23.64914 -4.062114 5.004947
v -13.40044 -10.97526 5.004949
v -23.64914 -10.97526 5.004947
v -13.40044 -4.062117 5.004949
v -21.94669 1.318179 5.504946
v -21.94669 -9.442419 5.004946
v -21.94669 1.318179 5.004946
v -21.94669 -9.442419 5.504946
v -21.94669 -9.442419 5.504946
v -15.10287 1.318171 5.504948
v -15.10288 -9.442424 5.504948
v -21.94669 1.318179 5.504946
v -20.24425 -0.2146753 6.004948
v -20.24425 -7.909565 5.504948
v -20.24425 -0.2146753 5.504948
v -20.24425 -7.909565 6.004948
v -25.35158 4.661177 4.004948
v -18.52479 10.38427 4.004949
v -25.35157 10.38427 4.004949
v -18.52479 4.66117 4.004948
v -20.24425 -7.909565 5.504948
v -16.80533 -7.909565 6.004948
v -16.80533 -7.909565 5.504948
v -20.24425 -7.909565 6.004948
v -21.94669 -9.442419 5.004946
v -15.10288 -9.442424 5.504948
v -15.10288 -9.442424 5.004948
v -21.94669 -9.442419 5.504946
v -11.698 -1.061921 4.504949
v -11.698 4.661174 4.004948
v -11.69801 -1.061921 4.004948
v -11.69799 4.661174 4.504949
v -11.698 10.38427 4.004948
v -11.69799 10.38427 4.504949
v -25.35158 -1.061919 4.504947
v -25.35157 -6.785015 4.004947
v -25.35158 -1.061919 4.004947
v -25.35157 -6.785015 4.504947
v -25.35158 -12.50811 4.004946
v -25.35158 -12.50811 4.504947
v -18.52479 -1.061921 4.504948
v -11.69799 4.661174 4.504949
v -11.698 -1.061921 4.504949
v -18.52479 4.66117 4.504948
v -18.52479 -1.061921 4.004948
v -11.69801 -6.785015 4.004948
v -11.69801 -1.061921 4.004948
v -18.52479 -6.785015 4.004947
v -18.52478 10.38427 4.504948
v -25.35157 10.38427 4.004949
v -18.52479 10.38427 4.004949
v -25.35157 10.38427 4.504947
v -18.52479 -12.50811 4.504948
v -11.69801 -12.50811 4.004948
v -18.52479 -12.50811 4.004947
v -11.698 -12.50811 4.504949
v -18.52479 -6.785015 4.504948
v -11.698 -12.50811 4.504949
v -18.52479 -12.50811 4.504948
v -11.698 -6.785015 4.504949
v -18.52479 4.66117 4.004948
v -11.698 10.38427 4.004948
v -18.52479 10.38427 4.004949
v -11.698 4.661174 4.004948
v -18.52479 4.66117 4.504948
v -25.35157 10.38427 4.504947
v -18.52478 10.38427 4.504948
v -25.35158 4.661177 4.504947
v -18.52479 -6.785015 4.004947
v -25.35158 -12.50811 4.004946
v -18.52479 -12.50811 4.004947
v -25.35157 -6.785015 4.004947
v -11.698 -6.785015 4.504949
v -11.69801 -1.061921 4.004948
v -11.69801 -6.785015 4.004948
v -11.698 -1.061921 4.504949
v -25.35158 4.661177 4.504947
v -25.35158 -1.061919 4.004947
v -25.35158 4.661177 4.004948
v -25.35158 -1.061919 4.504947
v -25.35157 -6.785015 4.504947
v -18.52479 -1.061921 4.504948
v -18.52479 -6.785015 4.504948
v -25.35158 -1.061919 4.504947
v -25.35158 4.661177 4.004948
v -18.52479 -1.061921 4.004948
v -18.52479 4.66117 4.004948
v -25.35158 -1.061919 4.004947
v -18.52479 4.66117 4.504948
v -11.69799 10.38427 4.504949
v -11.69799 4.661174 4.504949
v -18.52478 10.38427 4.504948
v -18.52479 -6.785015 4.004947
v -11.69801 -12.50811 4.004948
v -11.69801 -6.785015 4.004948
v -18.52479 -12.50811 4.004947
v -18.52479 -6.785015 4.504948
v -11.698 -1.061921 4.504949
v -11.698 -6.785015 4.504949
v -18.52479 -1.061921 4.504948
v -18.52479 4.66117 4.004948
v -11.69801 -1.061921 4.004948
v -11.698 4.661174 4.004948
v -18.52479 -1.061921 4.004948
v -18.52479 4.66117 4.504948
v -25.35158 -1.061919 4.504947
v -25.35158 4.661177 4.504947
v -18.52479 -1.061921 4.504948
v -18.52479 -6.785015 4.004947
v -25.35158 -1.061919 4.004947
v -25.35157 -6.785015 4.004947
v -18.52479 -1.061921 4.004948
v -13.40044 -4.062117 5.004949
v -13.40043 2.851028 4.504949
v -13.40044 -4.062117 4.504949
v -13.40043 2.851028 5.004949
v -23.64914 -4.062114 5.004947
v -23.64914 -10.97526 4.504947
v -23.64914 -4.062114 4.504947
v -23.64914 -10.97526 5.004947
v -23.64914 -4.062114 5.004947
v -13.40043 2.851028 5.004949
v -13.40044 -4.062117 5.004949
v -23.64914 2.85103 5.004947
vt 0.2644158 0.01329271
vt 0.3710845 0.005480215
vt 0.2644159 0.005480185
vt 0.3710844 0.01329271
vt 0.2644158 0.01329274
vt 0.4245517 0.005480215
vt 0.2644158 0.005480215
vt 0.4245517 0.01329271
vt 0.2644158 0.01329271
vt 0.3713504 0.005480185
vt 0.2644158 0.005480215
vt 0.3713504 0.01329271
vt 0.2644158 0.01329269
vt 0.318149 0.005480185
vt 0.2644158 0.005480185
vt 0.318149 0.01329269
vt 0.9642166 0.1517591
vt 0.9104833 0.03152655
vt 0.9104834 0.1517591
vt 0.9642165 0.03152649
vt 0.2644158 0.01329271
vt 0.3538392 0.005480185
vt 0.2644158 0.005480185
vt 0.3538392 0.01329271
vt 0.2644158 0.01329271
vt 0.3724336 0.005480185
vt 0.2644158 0.005480185
vt 0.3724336 0.01329271
vt 0.2644158 0.01329269
vt 0.4325501 0.005480215
vt 0.2644158 0.005480185
vt 0.4325501 0.01329271
vt 0.2644158 0.01329269
vt 0.3846484 0.005480215
vt 0.2644158 0.005480185
vt 0.3846484 0.01329269
vt 0.2644158 0.01329271
vt 0.3710842 0.005480215
vt 0.2644158 0.005480185
vt 0.3710843 0.01329274
vt 0.2644158 0.01329269
vt 0.4245516 0.005480245
vt 0.2644158 0.005480185
vt 0.4245516 0.01329277
vt 0.2644158 0.01329271
vt 0.3538391 0.005480245
vt 0.2644158 0.005480245
vt 0.3538391 0.01329271
vt 0.8956898 0.03531089
vt 0.9851132 0.1419794
vt 0.9851132 0.03531089
vt 0.8956898 0.1419795
vt 0.2644158 0.01329269
vt 0.3724336 0.005480185
vt 0.2644158 0.005480185
vt 0.3724336 0.01329269
vt 0.8863925 0.008577254
vt 0.9944105 0.1687131
vt 0.9944103 0.008577224
vt 0.8863925 0.1687132
vt 0.2644158 0.01329271
vt 0.4325501 0.005480215
vt 0.2644158 0.005480185
vt 0.4325501 0.01329271
vt 0.8863076 0.00289059
vt 0.9932423 0.1710249
vt 0.9932422 0.00289059
vt 0.8863076 0.1710249
vt 0.2644158 0.01329269
vt 0.3846484 0.005480215
vt 0.2644158 0.005480185
vt 0.3846484 0.01329269
vt 0.3320786 0.1069533
vt 0.4387472 0.01752996
vt 0.3320786 0.01752996
vt 0.4387472 0.1069533
vt 0.2644158 0.005480185
vt 0.318149 0.01329269
vt 0.318149 0.005480185
vt 0.2644158 0.01329269
vt 0.2644158 0.005480185
vt 0.3713504 0.01329271
vt 0.3713504 0.005480215
vt 0.2644158 0.01329271
vt 0.2644158 0.01329271
vt 0.3538392 0.005480185
vt 0.2644158 0.005480185
vt 0.3538392 0.01329271
vt 0.4432625 0.005480215
vt 0.4432625 0.01329274
vt 0.2644158 0.01329271
vt 0.3538392 0.005480215
vt 0.2644158 0.005480215
vt 0.3538392 0.01329271
vt 0.4432625 0.005480215
vt 0.4432625 0.01329274
vt 0.9851132 0.03531089
vt 0.8956898 0.1419795
vt 0.9851132 0.1419795
vt 0.8956898 0.03531092
vt 0.3320787 0.01752996
vt 0.4387471 0.1069533
vt 0.4387472 0.01752996
vt 0.3320786 0.1069533
vt 0.2644158 0.01329271
vt 0.3710844 0.005480215
vt 0.2644159 0.005480215
vt 0.3710844 0.01329269
vt 0.2644159 0.01329274
vt 0.3710843 0.005480215
vt 0.2644158 0.005480215
vt 0.3710844 0.01329274
vt 0.8956898 0.03531095
vt 0.9851132 0.1419794
vt 0.9851132 0.03531089
vt 0.8956898 0.1419795
vt 0.3320786 0.1069533
vt 0.4387473 0.01752996
vt 0.3320787 0.01752996
vt 0.4387472 0.1069533
vt 0.9851132 0.1419795
vt 0.8956898 0.03531089
vt 0.8956899 0.1419795
vt 0.9851132 0.03531086
vt 0.4387471 0.01752999
vt 0.3320786 0.1069533
vt 0.438747 0.1069533
vt 0.3320786 0.01752996
vt 0.2644158 0.01329271
vt 0.3538391 0.005480185
vt 0.2644158 0.005480185
vt 0.3538391 0.01329271
vt 0.2644158 0.01329271
vt 0.3538391 0.005480215
vt 0.2644158 0.005480245
vt 0.3538391 0.01329271
vt 0.9851132 0.03531089
vt 0.8956899 0.1419795
vt 0.9851132 0.1419795
vt 0.8956898 0.03531092
vt 0.3320786 0.01752996
vt 0.4387471 0.1069533
vt 0.4387472 0.01752996
vt 0.3320786 0.1069533
vt 0.9851132 0.03531086
vt 0.8956899 0.1419795
vt 0.9851132 0.1419795
vt 0.8956898 0.03531089
vt 0.3320786 0.01752996
vt 0.438747 0.1069533
vt 0.4387471 0.01752996
vt 0.3320786 0.1069533
vt 0.9851132 0.03531089
vt 0.8956899 0.1419795
vt 0.9851132 0.1419794
vt 0.8956898 0.03531092
vt 0.3320786 0.01752996
vt 0.4387471 0.1069533
vt 0.4387472 0.01752996
vt 0.3320786 0.1069533
vt 0.8956898 0.1419795
vt 0.9851132 0.03531089
vt 0.8956898 0.03531089
vt 0.9851132 0.1419795
vt 0.4387471 0.1069534
vt 0.3320786 0.01752996
vt 0.3320786 0.1069533
vt 0.4387472 0.01753002
vt 0.2644158 0.01329271
vt 0.3724337 0.005480185
vt 0.2644158 0.005480185
vt 0.3724337 0.01329271
vt 0.2644158 0.01329269
vt 0.3724336 0.005480185
vt 0.2644158 0.005480185
vt 0.3724336 0.01329269
vt 0.9944104 0.008577194
vt 0.8863926 0.1687132
vt 0.9944105 0.1687131
vt 0.8863925 0.008577224
vn 0 1 0
vn 0 1 0
vn 0 1 0
vn 0 1 0
vn 0 1 0
vn 0 1 0
vn 0 1 0
vn 0 1 0
vn 0 1 0
vn 0 1 0
vn 0 1 0
vn 0 1 0
vn 0 1 0
vn 0 1 0
vn 0 1 0
vn 0 1 0
vn 0 0 1
vn 0 0 1
vn 0 0 1
vn 0 0 1
vn 1 0 -1.95312E-05
vn 1 0 -1.95312E-05
vn 1 0 -1.95312E-05
vn 1 0 -1.95312E-05
vn 1 0 0
vn 1 0 0
vn 1 0 0
vn 1 0 0
vn 1 0 0
vn 1 0 0
vn 1 0 0
vn 1 0 0
vn 1 0 0
vn 1 0 0
vn 1 0 0
vn 1 0 0
vn 0 -1 0
vn 0 -1 0
vn 0 -1 0
vn 0 -1 0
vn 0 -1 0
vn 0 -1 0
vn 0 -1 0
vn 0 -1 0
vn -1 0 0
vn -1 0 0
vn -1 0 0
vn -1 0 0
vn 0 0 1
vn 0 0 1
vn 0 0 1
vn 0 0 1
vn -1 0 0
vn -1 0 0
vn -1 0 0
vn -1 0 0
vn 0 0 1
vn 0 0 1
vn 0 0 1
vn 0 0 1
vn -1 0 0
vn -1 0 0
vn -1 0 0
vn -1 0 0
vn 0 0 1
vn 0 0 1
vn 0 0 1
vn 0 0 1
vn -1 0 0
vn -1 0 0
vn -1 0 0
vn -1 0 0
vn 0 0 -1
vn 0 0 -1
vn 0 0 -1
vn 0 0 -1
vn 0 -1 0
vn 0 -1 0
vn 0 -1 0
vn 0 -1 0
vn 0 -1 0
vn 0 -1 0
vn 0 -1 0
vn 0 -1 0
vn 1 0 -1.95312E-05
vn 1 0 -1.95312E-05
vn 1 0 -1.95312E-05
vn 1 0 -1.95312E-05
vn 1 0 -1.95312E-05
vn 1 0 -1.95312E-05
vn -1 0 0
vn -1 0 0
vn -1 0 0
vn -1 0 0
vn -1 0 0
vn -1 0 0
vn 0 0 1
vn 0 0 1
vn 0 0 1
vn 0 0 1
vn 0 0 -1
vn 0 0 -1
vn 0 0 -1
vn 0 0 -1
vn 0 1 0
vn 0 1 0
vn 0 1 0
vn 0 1 0
vn 0 -1 0
vn 0 -1 0
vn 0 -1 0
vn 0 -1 0
vn 0 0 1
vn 0 0 1
vn 0 0 1
vn 0 0 1
vn 0 0 -1
vn 0 0 -1
vn 0 0 -1
vn 0 0 -1
vn 0 0 1
vn 0 0 1
vn 0 0 1
vn 0 0 1
vn 0 0 -1
vn 0 0 -1
vn 0 0 -1
vn 0 0 -1
vn 1 0 -1.95312E-05
vn 1 0 -1.95312E-05
vn 1 0 -1.95312E-05
vn 1 0 -1.95312E-05
vn -1 0 0
vn -1 0 0
vn -1 0 0
vn -1 0 0
vn 0 0 1
vn 0 0 1
vn 0 0 1
vn 0 0 1
vn 0 0 -1
vn 0 0 -1
vn 0 0 -1
vn 0 0 -1
vn 0 0 1
vn 0 0 1
vn 0 0 1
vn 0 0 1
vn 0 0 -1
vn 0 0 -1
vn 0 0 -1
vn 0 0 -1
vn 0 0 1
vn 0 0 1
vn 0 0 1
vn 0 0 1
vn 0 0 -1
vn 0 0 -1
vn 0 0 -1
vn 0 0 -1
vn 0 0 1
vn 0 0 1
vn 0 0 1
vn 0 0 1
vn 0 0 -1
vn 0 0 -1
vn 0 0 -1
vn 0 0 -1
vn 1 0 0
vn 1 0 0
vn 1 0 0
vn 1 0 0
vn -1 0 0
vn -1 0 0
vn -1 0 0
vn -1 0 0
vn 0 0 1
vn 0 0 1
vn 0 0 1
vn 0 0 1
g House_roof_0
f 3/3/3 2/2/2 1/1/1
f 4/4/4 1/1/1 2/2/2
f 7/7/7 6/6/6 5/5/5
f 8/8/8 5/5/5 6/6/6
f 11/11/11 10/10/10 9/9/9
f 12/12/12 9/9/9 10/10/10
f 15/15/15 14/14/14 13/13/13
f 16/16/16 13/13/13 14/14/14
f 19/19/19 18/18/18 17/17/17
f 20/20/20 17/17/17 18/18/18
f 23/23/23 22/22/22 21/21/21
f 24/24/24 21/21/21 22/22/22
f 27/27/27 26/26/26 25/25/25
f 28/28/28 25/25/25 26/26/26
f 31/31/31 30/30/30 29/29/29
f 32/32/32 29/29/29 30/30/30
f 35/35/35 34/34/34 33/33/33
f 36/36/36 33/33/33 34/34/34
f 39/39/39 38/38/38 37/37/37
f 40/40/40 37/37/37 38/38/38
f 43/43/43 42/42/42 41/41/41
f 44/44/44 41/41/41 42/42/42
f 47/47/47 46/46/46 45/45/45
f 48/48/48 45/45/45 46/46/46
f 51/51/51 50/50/50 49/49/49
f 52/52/52 49/49/49 50/50/50
f 55/55/55 54/54/54 53/53/53
f 56/56/56 53/53/53 54/54/54
f 59/59/59 58/58/58 57/57/57
f 60/60/60 57/57/57 58/58/58
f 63/63/63 62/62/62 61/61/61
f 64/64/64 61/61/61 62/62/62
f 67/67/67 66/66/66 65/65/65
f 68/68/68 65/65/65 66/66/66
f 71/71/71 70/70/70 69/69/69
f 72/72/72 69/69/69 70/70/70
f 75/75/75 74/74/74 73/73/73
f 76/76/76 73/73/73 74/74/74
f 79/79/79 78/78/78 77/77/77
f 80/80/80 77/77/77 78/78/78
f 83/83/83 82/82/82 81/81/81
f 84/84/84 81/81/81 82/82/82
f 87/87/87 86/86/86 85/85/85
f 88/88/88 85/85/85 86/86/86
f 86/86/86 89/89/89 88/88/88
f 90/90/90 88/88/88 89/89/89
f 93/93/93 92/92/92 91/91/91
f 94/94/94 91/91/91 92/92/92
f 92/92/92 95/95/95 94/94/94
f 96/96/96 94/94/94 95/95/95
f 99/99/99 98/98/98 97/97/97
f 100/100/100 97/97/97 98/98/98
f 103/103/103 102/102/102 101/101/101
f 104/104/104 101/101/101 102/102/102
f 107/107/107 106/106/106 105/105/105
f 108/108/108 105/105/105 106/106/106
f 111/111/111 110/110/110 109/109/109
f 112/112/112 109/109/109 110/110/110
f 115/115/115 114/114/114 113/113/113
f 116/116/116 113/113/113 114/114/114
f 119/119/119 118/118/118 117/117/117
f 120/120/120 117/117/117 118/118/118
f 123/123/123 122/122/122 121/121/121
f 124/124/124 121/121/121 122/122/122
f 127/127/127 126/126/126 125/125/125
f 128/128/128 125/125/125 126/126/126
f 131/131/131 130/130/130 129/129/129
f 132/132/132 129/129/129 130/130/130
f 135/135/135 134/134/134 133/133/133
f 136/136/136 133/133/133 134/134/134
f 139/139/139 138/138/138 137/137/137
f 140/140/140 137/137/137 138/138/138
f 143/143/143 142/142/142 141/141/141
f 144/144/144 141/141/141 142/142/142
f 147/147/147 146/146/146 145/145/145
f 148/148/148 145/145/145 146/146/146
f 151/151/151 150/150/150 149/149/149
f 152/152/152 149/149/149 150/150/150
f 155/155/155 154/154/154 153/153/153
f 156/156/156 153/153/153 154/154/154
f 159/159/159 158/158/158 157/157/157
f 160/160/160 157/157/157 158/158/158
f 163/163/163 162/162/162 161/161/161
f 164/164/164 161/161/161 162/162/162
f 167/167/167 166/166/166 165/165/165
f 168/168/168 165/165/165 166/166/166
f 171/171/171 170/170/170 169/169/169
f 172/172/172 169/169/169 170/170/170
f 175/175/175 174/174/174 173/173/173
f 176/176/176 173/173/173 174/174/174
f 179/179/179 178/178/178 177/177/177
f 180/180/180 177/177/177 178/178/178
