g Ice_Palace_Duel_Arc_small007
v 30.125 -5.062501 1.9375
v 29.625 -5.062501 1.9375
v 29.625 -5.062501 5.999998
v 30.125 -5.062501 5.999998
v 29.625 -5.062501 1.9375
v 29.62499 -4.687502 1.9375
v 29.62499 -4.687502 6.375
v 29.625 -5.062501 5.999998
v 29.625 -5.375003 6.375
v 29.625 -5.750001 5.999998
v 29.625 -5.375003 7.062499
v 29.625 -5.750001 6.687498
v 29.625 -7.437499 6.687498
v 29.625 -7.812503 7.0625
v 29.625 -7.437499 5.999998
v 29.625 -7.812503 6.375
v 29.625 -8.125 5.999998
v 29.62499 -8.500003 6.375
v 29.625 -8.125 1.9375
v 29.62499 -8.500002 1.9375
v 30.12499 -4.687501 1.9375
v 30.125 -5.062501 1.9375
v 30.125 -5.062501 5.999998
v 30.125 -4.687501 6.375
v 30.12499 -5.750001 5.999998
v 30.12499 -5.375003 6.375
v 30.12499 -5.750001 6.687498
v 30.12499 -5.375003 7.062499
v 30.12499 -7.437499 6.687498
v 30.12499 -7.812503 7.0625
v 30.12499 -7.812503 6.375
v 30.12499 -7.437499 5.999998
v 30.12499 -8.500003 6.375
v 30.12499 -8.125 5.999998
v 30.12499 -8.500001 1.9375
v 30.125 -8.124999 1.9375
v 30.125 -5.062501 5.999998
v 29.625 -5.062501 5.999998
v 29.625 -5.750001 5.999998
v 30.12499 -5.750001 5.999998
v 30.12499 -5.750001 5.999998
v 29.625 -5.750001 5.999998
v 29.625 -5.750001 6.687498
v 30.12499 -5.750001 6.687498
v 29.625 -5.375003 6.375
v 30.12499 -5.375003 6.375
v 30.12499 -5.375003 7.062499
v 29.625 -5.375003 7.062499
v 29.62499 -4.687502 6.375
v 30.125 -4.687501 6.375
v 30.12499 -5.375003 6.375
v 29.625 -5.375003 6.375
v 29.62499 -4.687502 1.9375
v 30.12499 -4.687501 1.9375
v 30.125 -4.687501 6.375
v 29.62499 -4.687502 6.375
v 29.625 -7.437499 6.687498
v 30.12499 -7.437499 6.687498
v 30.12499 -5.750001 6.687498
v 29.625 -5.750001 6.687498
v 30.125 -8.124999 1.9375
v 30.12499 -8.125 5.999998
v 29.625 -8.125 5.999998
v 29.625 -8.125 1.9375
v 30.12499 -8.125 5.999998
v 30.12499 -7.437499 5.999998
v 29.625 -7.437499 5.999998
v 29.625 -8.125 5.999998
v 30.12499 -7.437499 5.999998
v 30.12499 -7.437499 6.687498
v 29.625 -7.437499 6.687498
v 29.625 -7.437499 5.999998
v 30.12499 -5.375003 7.062499
v 30.12499 -7.812503 7.0625
v 29.625 -7.812503 7.0625
v 29.625 -5.375003 7.062499
v 30.12499 -7.812503 7.0625
v 30.12499 -7.812503 6.375
v 29.625 -7.812503 6.375
v 29.625 -7.812503 7.0625
v 30.12499 -7.812503 6.375
v 30.12499 -8.500003 6.375
v 29.62499 -8.500003 6.375
v 29.625 -7.812503 6.375
v 30.12499 -8.500003 6.375
v 30.12499 -8.500001 1.9375
v 29.62499 -8.500002 1.9375
v 29.62499 -8.500003 6.375
vt 0.7500019 -2.0625
vt 0.2500019 -2.0625
vt 0.2500019 1.999998
vt 0.7500019 1.999998
vt -1.031251 -2.0625
vt -1.40625 -2.0625
vt -1.40625 2.375
vt -1.031251 1.999998
vt -0.7187495 2.375
vt -0.3437514 1.999998
vt -0.7187495 3.062499
vt -0.3437514 2.687498
vt 1.343747 2.687498
vt 1.71875 3.0625
vt 1.343747 1.999998
vt 1.71875 2.375
vt 2.031247 1.999998
vt 2.40625 2.375
vt 2.031247 -2.0625
vt 2.406249 -2.0625
vt 2.406251 -2.0625
vt 2.031251 -2.0625
vt 2.031251 1.999998
vt 2.406251 2.375
vt 1.343751 1.999998
vt 1.71875 2.375
vt 1.343751 2.687498
vt 1.71875 3.062499
vt -0.3437467 2.687498
vt -0.7187505 3.0625
vt -0.7187505 2.375
vt -0.3437467 1.999998
vt -1.406251 2.375
vt -1.031247 1.999998
vt -1.406249 -2.0625
vt -1.031247 -2.0625
vt 0.2499981 2.031251
vt 0.7499981 2.031251
vt 0.7499962 1.343751
vt 0.25 1.343751
vt 0.75 1.999998
vt 0.2500038 1.999998
vt 0.2500038 2.687498
vt 0.7499981 2.687498
vt 0.7499962 2.375
vt 0.25 2.375
vt 0.2500019 3.062499
vt 0.7499962 3.062499
vt 0.2499981 2.40625
vt 0.7500019 2.406251
vt 0.75 1.71875
vt 0.2500038 1.71875
vt 0.7500019 -2.0625
vt 0.25 -2.0625
vt 0.2499981 2.375
vt 0.7500019 2.375
vt 0.7499981 -0.3437467
vt 0.2500019 -0.3437467
vt 0.2500019 1.343751
vt 0.7499962 1.343751
vt 0.2499981 -2.0625
vt 0.25 1.999998
vt 0.7499981 1.999998
vt 0.7499981 -2.0625
vt 0.25 -1.031247
vt 0.25 -0.3437467
vt 0.7499981 -0.3437467
vt 0.7499981 -1.031247
vt 0.25 1.999998
vt 0.2500019 2.687498
vt 0.7499981 2.687498
vt 0.7499981 1.999998
vt 0.7499981 1.71875
vt 0.7499981 -0.7187505
vt 0.2500038 -0.7187505
vt 0.2500038 1.71875
vt 0.7499981 3.0625
vt 0.75 2.375
vt 0.2500038 2.375
vt 0.2500038 3.0625
vt 0.75 -0.7187505
vt 0.75 -1.406251
vt 0.2499981 -1.40625
vt 0.2500038 -0.7187505
vt 0.75 2.375
vt 0.7499981 -2.0625
vt 0.25 -2.0625
vt 0.2499981 2.375
vn 0 -1 0
vn 0 -1 0
vn 0 -1 0
vn 0 -1 0
vn -1 -1.017256E-05 0
vn -1 -1.017256E-05 0
vn -1 0 0
vn -1 0 0
vn -1 0 0
vn -1 0 0
vn -1 0 0
vn -1 0 0
vn -1 0 0
vn -1 0 0
vn -1 0 0
vn -1 0 0
vn -1 0 0
vn -1 0 0
vn -1 0 0
vn -1 0 0
vn 1 0 0
vn 1 0 0
vn 1 0 0
vn 1 0 0
vn 1 0 0
vn 1 0 0
vn 1 0 0
vn 1 0 0
vn 1 0 0
vn 1 0 0
vn 1 0 0
vn 1 0 0
vn 1 0 0
vn 1 0 0
vn 1 0 0
vn 1 0 0
vn 0 0 -1
vn 0 0 -1
vn 0 0 -1
vn 0 0 -1
vn 0 -1 0
vn 0 -1 0
vn 0 -1 0
vn 0 -1 0
vn 0 1 0
vn 0 1 0
vn 0 1 0
vn 0 1 0
vn 0 0 1
vn 0 0 1
vn 0 0 1
vn 0 0 1
vn 0 1 0
vn 0 1 0
vn 0 1 0
vn 0 1 0
vn 0 0 -1
vn 0 0 -1
vn 0 0 -1
vn 0 0 -1
vn 0 1 0
vn 0 1 0
vn 0 1 0
vn 0 1 0
vn 0 0 -1
vn 0 0 -1
vn 0 0 -1
vn 0 0 -1
vn 0 1 0
vn 0 1 0
vn 0 1 0
vn 0 1 0
vn 0 0 1
vn 0 0 1
vn 0 0 1
vn 0 0 1
vn 0 -1 0
vn 0 -1 0
vn 0 -1 0
vn 0 -1 0
vn 0 0 1
vn 0 0 1
vn 0 0 1
vn 0 0 1
vn 0 -1 0
vn 0 -1 0
vn 0 -1 0
vn 0 -1 0
g Ice_Palace_Duel_Arc_small007_0
f 3/3/3 2/2/2 1/1/1
f 4/4/4 3/3/3 1/1/1
f 7/7/7 6/6/6 5/5/5
f 8/8/8 7/7/7 5/5/5
f 9/9/9 7/7/7 8/8/8
f 10/10/10 9/9/9 8/8/8
f 11/11/11 9/9/9 10/10/10
f 12/12/12 11/11/11 10/10/10
f 11/11/11 12/12/12 13/13/13
f 14/14/14 11/11/11 13/13/13
f 14/14/14 13/13/13 15/15/15
f 16/16/16 14/14/14 15/15/15
f 16/16/16 15/15/15 17/17/17
f 18/18/18 16/16/16 17/17/17
f 18/18/18 17/17/17 19/19/19
f 20/20/20 18/18/18 19/19/19
f 23/23/23 22/22/22 21/21/21
f 24/24/24 23/23/23 21/21/21
f 25/25/25 23/23/23 24/24/24
f 26/26/26 25/25/25 24/24/24
f 27/27/27 25/25/25 26/26/26
f 28/28/28 27/27/27 26/26/26
f 27/27/27 28/28/28 29/29/29
f 28/28/28 30/30/30 29/29/29
f 29/29/29 30/30/30 31/31/31
f 32/32/32 29/29/29 31/31/31
f 32/32/32 31/31/31 33/33/33
f 34/34/34 32/32/32 33/33/33
f 34/34/34 33/33/33 35/35/35
f 36/36/36 34/34/34 35/35/35
f 39/39/39 38/38/38 37/37/37
f 40/40/40 39/39/39 37/37/37
f 43/43/43 42/42/42 41/41/41
f 44/44/44 43/43/43 41/41/41
f 47/47/47 46/46/46 45/45/45
f 48/48/48 47/47/47 45/45/45
f 51/51/51 50/50/50 49/49/49
f 52/52/52 51/51/51 49/49/49
f 55/55/55 54/54/54 53/53/53
f 56/56/56 55/55/55 53/53/53
f 59/59/59 58/58/58 57/57/57
f 60/60/60 59/59/59 57/57/57
f 63/63/63 62/62/62 61/61/61
f 64/64/64 63/63/63 61/61/61
f 67/67/67 66/66/66 65/65/65
f 68/68/68 67/67/67 65/65/65
f 71/71/71 70/70/70 69/69/69
f 72/72/72 71/71/71 69/69/69
f 75/75/75 74/74/74 73/73/73
f 76/76/76 75/75/75 73/73/73
f 79/79/79 78/78/78 77/77/77
f 80/80/80 79/79/79 77/77/77
f 83/83/83 82/82/82 81/81/81
f 84/84/84 83/83/83 81/81/81
f 87/87/87 86/86/86 85/85/85
f 88/88/88 87/87/87 85/85/85
