g Ice_Palace_Duel_Corridor_Centr_Stairs_003
v 0 -33 11
v 0 -33 11.25
v 5 -33 11.25
v 5 -33 11
v 0 -33 11.25
v 0 -32.75 11.25
v 5 -32.75 11.25
v 5 -33 11.25
v 0 -32.75 11.25
v 0 -32.75 11.5
v 5 -32.75 11.5
v 5 -32.75 11.25
v 0 -32.75 11.5
v 0 -32.5 11.5
v 5 -32.5 11.5
v 5 -32.75 11.5
v 0 -32.5 11.5
v 0 -32.5 11.75
v 5 -32.5 11.75
v 5 -32.5 11.5
v 0 -32.5 11.75
v 0 -32.25 11.75
v 5 -32.25 11.75
v 5 -32.5 11.75
v 0 -32.25 11.75
v 0 -32.25 12
v 5 -32.25 12
v 5 -32.25 11.75
v 0 -32.25 12
v 0 -32 12
v 5 -32 12
v 5 -32.25 12
v 0 -32 12
v 0 -32 12.25
v 5 -32 12.25
v 5 -32 12
v 0 -32 12.25
v 0 -31.75 12.25
v 5 -31.75 12.25
v 5 -32 12.25
v 0 -31.75 12.25
v 0 -31.75 12.5
v 5 -31.75 12.5
v 5 -31.75 12.25
v 0 -31.75 12.5
v 0 -31.5 12.5
v 5 -31.5 12.5
v 5 -31.75 12.5
v 0 -31.5 12.5
v 0 -31.5 12.75
v 5 -31.5 12.75
v 5 -31.5 12.5
v 0 -31.5 12.75
v 0 -31.25 12.75
v 5 -31.25 12.75
v 5 -31.5 12.75
v 0 -31.25 12.75
v 0 -31.25 13
v 5 -31.25 13
v 5 -31.25 12.75
v 0 -31.25 13
v 0 -31 13
v 5 -31 13
v 5 -31.25 13
v 0 -31 13
v 0 -31 13.25
v 5 -31 13.25
v 5 -31 13
v 0 -31 13.25
v 0 -30.75 13.25
v 5 -30.75 13.25
v 5 -31 13.25
v 0 -30.75 13.25
v 0 -30.75 13.5
v 5 -30.75 13.5
v 5 -30.75 13.25
v 0 -30.75 13.5
v 0 -30.5 13.5
v 5 -30.5 13.5
v 5 -30.75 13.5
v 0 -30.5 13.5
v 0 -30.5 13.75
v 5 -30.5 13.75
v 5 -30.5 13.5
v 0 -30.5 13.75
v 0 -30.25 13.75
v 5 -30.25 13.75
v 5 -30.5 13.75
v 0 -30.25 13.75
v 0 -30.25 14
v 5 -30.25 14
v 5 -30.25 13.75
v 0 -30.25 14
v 0 -30 14
v 5 -30 14
v 5 -30.25 14
v 0 -30 14
v 0 -30 14.25
v 5 -30 14.25
v 5 -30 14
v 0 -30 14.25
v 0 -29.75 14.25
v 5 -29.75 14.25
v 5 -30 14.25
v 0 -29.75 14.25
v 0 -29.75 14.5
v 5 -29.75 14.5
v 5 -29.75 14.25
v 0 -29.75 14.5
v 0 -29.5 14.5
v 5 -29.5 14.5
v 5 -29.75 14.5
v 0 -29.5 14.5
v 0 -29.5 14.75
v 5 -29.5 14.75
v 5 -29.5 14.5
v 0 -29.5 14.75
v 0 -29.25 14.75
v 5 -29.25 14.75
v 5 -29.5 14.75
v 0 -29.25 14.75
v 0 -29.25 15
v 5 -29.25 15
v 5 -29.25 14.75
vt 0.6337891 0.840684
vt 0.6298828 0.840684
vt 0.6298828 0.9188089
vt 0.6337891 0.9188089
vt 0.6653923 0.919922
vt 0.6614861 0.919922
vt 0.6614861 0.9980469
vt 0.6653923 0.9980469
vt 0.6337891 0.7762309
vt 0.6298828 0.7762309
vt 0.6298828 0.8543558
vt 0.6337891 0.8543558
vt 0.640815 0.919922
vt 0.6369087 0.919922
vt 0.6369087 0.9980469
vt 0.640815 0.9980469
vt 0.6591797 0.7762309
vt 0.6552734 0.7762309
vt 0.6552734 0.8543558
vt 0.6591797 0.8543558
vt 0.6367188 0.7771537
vt 0.6328125 0.7771537
vt 0.6328125 0.8552786
vt 0.6367188 0.8552786
vt 0.6337891 0.794643
vt 0.6298828 0.794643
vt 0.6298828 0.8727679
vt 0.6337891 0.8727679
vt 0.6653923 0.8416068
vt 0.661486 0.8416068
vt 0.661486 0.9197317
vt 0.6653923 0.9197317
vt 0.6582031 0.8115236
vt 0.6542969 0.8115236
vt 0.6542969 0.8896484
vt 0.6582031 0.8896484
vt 0.6735848 0.8416068
vt 0.6696785 0.8416068
vt 0.6696785 0.9197317
vt 0.6735848 0.9197317
vt 0.6328125 0.8896486
vt 0.6289063 0.8896486
vt 0.6289063 0.9677734
vt 0.6328125 0.9677734
vt 0.6650391 0.8416068
vt 0.6611328 0.8416068
vt 0.6611328 0.919732
vt 0.6650391 0.919732
vt 0.6337891 0.9169923
vt 0.6298828 0.9169923
vt 0.6298828 0.9951172
vt 0.6337891 0.9951172
vt 0.6531036 0.8416068
vt 0.6491974 0.8416068
vt 0.6491974 0.919732
vt 0.6531036 0.919732
vt 0.6591797 0.8056642
vt 0.6552734 0.8056642
vt 0.6552734 0.8837891
vt 0.6591797 0.8837891
vt 0.6376953 0.8416068
vt 0.6337891 0.8416068
vt 0.6337891 0.919732
vt 0.6376953 0.919732
vt 0.6337891 0.9189454
vt 0.6298828 0.9189454
vt 0.6298828 0.9970703
vt 0.6337891 0.9970703
vt 0.6490074 0.8416068
vt 0.6451012 0.8416068
vt 0.6451012 0.919732
vt 0.6490074 0.919732
vt 0.6337891 0.8544922
vt 0.6298828 0.8544922
vt 0.6298828 0.9326172
vt 0.6337891 0.9326172
vt 0.6490075 0.919922
vt 0.6451012 0.919922
vt 0.6451012 0.9980469
vt 0.6490075 0.9980469
vt 0.6591797 0.8544922
vt 0.6552734 0.8544922
vt 0.6552734 0.9326172
vt 0.6591797 0.9326172
vt 0.6449112 0.8416068
vt 0.6410049 0.8416068
vt 0.6410049 0.919732
vt 0.6449112 0.919732
vt 0.6591797 0.9204023
vt 0.6552734 0.9204023
vt 0.6552734 0.9985272
vt 0.6591797 0.9985272
vt 0.640815 0.8416068
vt 0.6369087 0.8416068
vt 0.6369087 0.919732
vt 0.640815 0.919732
vt 0.6591797 0.8681641
vt 0.6552734 0.8681641
vt 0.6552734 0.9462891
vt 0.6591797 0.9462891
vt 0.6640625 0.8416068
vt 0.6601563 0.8416068
vt 0.6601563 0.919732
vt 0.6640625 0.919732
vt 0.6337891 0.7910157
vt 0.6298828 0.7910157
vt 0.6298828 0.8691406
vt 0.6337891 0.8691406
vt 0.6367188 0.8554689
vt 0.6328126 0.8554689
vt 0.6328126 0.9335938
vt 0.6367189 0.9335938
vt 0.6591797 0.8830763
vt 0.6552734 0.8830763
vt 0.6552734 0.9612013
vt 0.6591797 0.9612013
vt 0.6439348 0.8554689
vt 0.6400285 0.8554689
vt 0.6400285 0.9335938
vt 0.6439348 0.9335938
vt 0.6337891 0.9187024
vt 0.6298828 0.9187024
vt 0.6298828 0.9968274
vt 0.6337891 0.9968274
vn 0 -1 0
vn 0 -1 0
vn 0 -1 0
vn 0 -1 0
vn 0 0 1
vn 0 0 1
vn 0 0 1
vn 0 0 1
vn 0 -1 0
vn 0 -1 0
vn 0 -1 0
vn 0 -1 0
vn 0 0 1
vn 0 0 1
vn 0 0 1
vn 0 0 1
vn 0 -1 0
vn 0 -1 0
vn 0 -1 0
vn 0 -1 0
vn 0 0 1
vn 0 0 1
vn 0 0 1
vn 0 0 1
vn 0 -1 0
vn 0 -1 0
vn 0 -1 0
vn 0 -1 0
vn 0 0 1
vn 0 0 1
vn 0 0 1
vn 0 0 1
vn 0 -1 0
vn 0 -1 0
vn 0 -1 0
vn 0 -1 0
vn 0 0 1
vn 0 0 1
vn 0 0 1
vn 0 0 1
vn 0 -1 0
vn 0 -1 0
vn 0 -1 0
vn 0 -1 0
vn 0 0 1
vn 0 0 1
vn 0 0 1
vn 0 0 1
vn 0 -1 0
vn 0 -1 0
vn 0 -1 0
vn 0 -1 0
vn 0 0 1
vn 0 0 1
vn 0 0 1
vn 0 0 1
vn 0 -1 0
vn 0 -1 0
vn 0 -1 0
vn 0 -1 0
vn 0 0 1
vn 0 0 1
vn 0 0 1
vn 0 0 1
vn 0 -1 0
vn 0 -1 0
vn 0 -1 0
vn 0 -1 0
vn 0 0 1
vn 0 0 1
vn 0 0 1
vn 0 0 1
vn 0 -1 0
vn 0 -1 0
vn 0 -1 0
vn 0 -1 0
vn 0 0 1
vn 0 0 1
vn 0 0 1
vn 0 0 1
vn 0 -1 0
vn 0 -1 0
vn 0 -1 0
vn 0 -1 0
vn 0 0 1
vn 0 0 1
vn 0 0 1
vn 0 0 1
vn 0 -1 0
vn 0 -1 0
vn 0 -1 0
vn 0 -1 0
vn 0 0 1
vn 0 0 1
vn 0 0 1
vn 0 0 1
vn 0 -1 0
vn 0 -1 0
vn 0 -1 0
vn 0 -1 0
vn 0 0 1
vn 0 0 1
vn 0 0 1
vn 0 0 1
vn 0 -1 0
vn 0 -1 0
vn 0 -1 0
vn 0 -1 0
vn 0 0 1
vn 0 0 1
vn 0 0 1
vn 0 0 1
vn 0 -1 0
vn 0 -1 0
vn 0 -1 0
vn 0 -1 0
vn 0 0 1
vn 0 0 1
vn 0 0 1
vn 0 0 1
vn 0 -1 0
vn 0 -1 0
vn 0 -1 0
vn 0 -1 0
g Ice_Palace_Duel_Corridor_Centr_Stairs_003_0
f 3/3/3 2/2/2 1/1/1
f 4/4/4 3/3/3 1/1/1
f 7/7/7 6/6/6 5/5/5
f 8/8/8 7/7/7 5/5/5
f 11/11/11 10/10/10 9/9/9
f 12/12/12 11/11/11 9/9/9
f 15/15/15 14/14/14 13/13/13
f 16/16/16 15/15/15 13/13/13
f 19/19/19 18/18/18 17/17/17
f 20/20/20 19/19/19 17/17/17
f 23/23/23 22/22/22 21/21/21
f 24/24/24 23/23/23 21/21/21
f 27/27/27 26/26/26 25/25/25
f 28/28/28 27/27/27 25/25/25
f 31/31/31 30/30/30 29/29/29
f 32/32/32 31/31/31 29/29/29
f 35/35/35 34/34/34 33/33/33
f 36/36/36 35/35/35 33/33/33
f 39/39/39 38/38/38 37/37/37
f 40/40/40 39/39/39 37/37/37
f 43/43/43 42/42/42 41/41/41
f 44/44/44 43/43/43 41/41/41
f 47/47/47 46/46/46 45/45/45
f 48/48/48 47/47/47 45/45/45
f 51/51/51 50/50/50 49/49/49
f 52/52/52 51/51/51 49/49/49
f 55/55/55 54/54/54 53/53/53
f 56/56/56 55/55/55 53/53/53
f 59/59/59 58/58/58 57/57/57
f 60/60/60 59/59/59 57/57/57
f 63/63/63 62/62/62 61/61/61
f 64/64/64 63/63/63 61/61/61
f 67/67/67 66/66/66 65/65/65
f 68/68/68 67/67/67 65/65/65
f 71/71/71 70/70/70 69/69/69
f 72/72/72 71/71/71 69/69/69
f 75/75/75 74/74/74 73/73/73
f 76/76/76 75/75/75 73/73/73
f 79/79/79 78/78/78 77/77/77
f 80/80/80 79/79/79 77/77/77
f 83/83/83 82/82/82 81/81/81
f 84/84/84 83/83/83 81/81/81
f 87/87/87 86/86/86 85/85/85
f 88/88/88 87/87/87 85/85/85
f 91/91/91 90/90/90 89/89/89
f 92/92/92 91/91/91 89/89/89
f 95/95/95 94/94/94 93/93/93
f 96/96/96 95/95/95 93/93/93
f 99/99/99 98/98/98 97/97/97
f 100/100/100 99/99/99 97/97/97
f 103/103/103 102/102/102 101/101/101
f 104/104/104 103/103/103 101/101/101
f 107/107/107 106/106/106 105/105/105
f 108/108/108 107/107/107 105/105/105
f 111/111/111 110/110/110 109/109/109
f 112/112/112 111/111/111 109/109/109
f 115/115/115 114/114/114 113/113/113
f 116/116/116 115/115/115 113/113/113
f 119/119/119 118/118/118 117/117/117
f 120/120/120 119/119/119 117/117/117
f 123/123/123 122/122/122 121/121/121
f 124/124/124 123/123/123 121/121/121
