g islands_sniper_grass_big28
v 120.1842 -35.38494 29.99999
v 121.1842 -35.38494 29.99999
v 121.1842 -35.38494 31.49507
v 120.1842 -35.38494 31.49507
v 120.6842 -34.88494 29.99999
v 120.6842 -35.88494 29.99999
v 120.6842 -35.88494 31.49507
v 120.6842 -34.88494 31.49507
vt 0.1484375 0.1170828
vt 0.2734375 0.1170828
vt 0.2734375 0.3085938
vt 0.1484375 0.3085938
vt 0.1484375 0.1170828
vt 0.2734375 0.1170828
vt 0.2734375 0.3085938
vt 0.1484375 0.3085938
vn 0 1 0
vn 0 1 0
vn 0 1 0
vn 0 1 0
vn 1 0 0
vn 1 0 0
vn 1 0 0
vn 1 0 0
g islands_sniper_grass_big28_0
f 3/3/3 2/2/2 1/1/1
f 4/4/4 3/3/3 1/1/1
f 7/7/7 6/6/6 5/5/5
f 8/8/8 7/7/7 5/5/5
