g islands_sniper_box05
v 0.6226404 0.6517798 0.5000001
v -0.3621674 0.8254248 0.4999999
v -0.3621674 0.8254248 -0.4999998
v 0.6226404 0.6517798 -0.4999995
v 0.3621683 -0.8254321 0.5
v 0.3621683 -0.8254321 -0.4999999
v -0.6226391 -0.6517871 -0.5000001
v -0.6226398 -0.6517847 0.4999997
v 0.3621683 -0.8254321 -0.4999999
v 0.6226404 0.6517798 -0.4999995
v -0.3621674 0.8254248 -0.4999998
v -0.6226391 -0.6517871 -0.5000001
v 0.3621683 -0.8254321 0.5
v 0.6226404 0.6517798 0.5000001
v 0.6226404 0.6517798 -0.4999995
v 0.3621683 -0.8254321 -0.4999999
v -0.6226398 -0.6517847 0.4999997
v -0.3621674 0.8254248 0.4999999
v 0.6226404 0.6517798 0.5000001
v 0.3621683 -0.8254321 0.5
v -0.6226391 -0.6517871 -0.5000001
v -0.3621674 0.8254248 -0.4999998
v -0.3621674 0.8254248 0.4999999
v -0.6226398 -0.6517847 0.4999997
vt 0.01647829 0.9989743
vt 0.01647829 0.9834785
vt 0.001027999 0.9834785
vt 0.001027999 0.9989743
vt 0.001017333 0.9989957
vt 0.01648962 0.9989957
vt 0.01648962 0.9834801
vt 0.001017333 0.9834801
vt 0.001099386 0.961022
vt 0.001099386 0.983296
vt 0.01647263 0.983296
vt 0.01647263 0.961022
vt 0.001099725 0.9610116
vt 0.001099725 0.9832975
vt 0.0164848 0.9832975
vt 0.0164848 0.9610116
vt 0.001106366 0.9610133
vt 0.001106366 0.9832873
vt 0.01647962 0.9832873
vt 0.01647962 0.9610133
vt 0.001111356 0.9610239
vt 0.001111356 0.9832979
vt 0.01648461 0.9832979
vt 0.01648461 0.9610239
vn 0.1743704 0.9846801 0
vn 0.1723803 0.9850305 0
vn 0.1743704 0.9846801 0
vn 0.1743704 0.9846801 0
vn -0.1723803 -0.9850305 0
vn -0.1723803 -0.9850305 0
vn -0.1723803 -0.9850305 0
vn -0.1715968 -0.9851673 0
vn 0 0 -1
vn 0 0 -1
vn 0 0 -1
vn 0 0 -1
vn 0.9835397 -0.180692 0
vn 0.9863382 -0.1647329 0
vn 0.9835397 -0.180692 0
vn 0.9835397 -0.180692 0
vn 0 0 1
vn 0 0 1
vn 0 0 1
vn 0 0 1
vn -0.9834725 0.1810577 0
vn -0.9834725 0.1810577 0
vn -0.9835397 0.180692 0
vn -0.9863382 0.1647329 0
g islands_sniper_box05_0
f 3/3/3 2/2/2 1/1/1
f 4/4/4 3/3/3 1/1/1
f 7/7/7 6/6/6 5/5/5
f 8/8/8 7/7/7 5/5/5
f 11/11/11 10/10/10 9/9/9
f 12/12/12 11/11/11 9/9/9
f 15/15/15 14/14/14 13/13/13
f 16/16/16 15/15/15 13/13/13
f 19/19/19 18/18/18 17/17/17
f 20/20/20 19/19/19 17/17/17
f 23/23/23 22/22/22 21/21/21
f 24/24/24 23/23/23 21/21/21
