g islands_sniper_box02
v -0.5950345 0.6770759 -0.4750001
v -0.8538538 -0.2888492 0.3249995
v -0.8538535 -0.2888487 -0.4750002
v -0.7891489 -0.04736771 0.3249995
v -0.7891489 -0.04736771 0.4749995
v -0.6597397 0.4355952 0.3249998
v -0.6597397 0.4355943 0.4749998
v -0.5950348 0.6770758 0.3249997
v 0.8538538 0.2888492 -0.4749994
v -0.8538535 -0.2888487 -0.4750002
v 0.5950354 -0.6770768 -0.4749994
v -0.5950345 0.6770759 -0.4750001
v 0.5950354 -0.6770768 -0.4749994
v -0.8538538 -0.2888492 0.3249995
v 0.5950354 -0.6770765 0.3250001
v -0.8538535 -0.2888487 -0.4750002
v 0.5950354 -0.6770765 0.3250001
v -0.7891489 -0.04736771 0.3249995
v 0.6597403 -0.4355949 0.3250002
v -0.8538538 -0.2888492 0.3249995
v 0.6597394 -0.4355949 0.4750002
v -0.6597397 0.4355943 0.4749998
v 0.7891489 0.04736771 0.4750003
v -0.7891489 -0.04736771 0.4749995
v 0.7891489 0.04736831 0.3250003
v -0.5950348 0.6770758 0.3249997
v 0.8538538 0.2888493 0.3250005
v -0.6597397 0.4355952 0.3249998
v 0.8538538 0.2888493 0.3250005
v -0.5950345 0.6770759 -0.4750001
v 0.8538538 0.2888492 -0.4749994
v -0.5950348 0.6770758 0.3249997
v 0.8538538 0.2888492 -0.4749994
v 0.7891489 0.04736831 0.3250003
v 0.8538538 0.2888493 0.3250005
v 0.6597403 -0.4355949 0.3250002
v 0.6597394 -0.4355949 0.4750002
v 0.7891489 0.04736771 0.4750003
v 0.5950354 -0.6770765 0.3250001
v 0.5950354 -0.6770768 -0.4749994
v 0.7891489 0.04736831 0.3250003
v -0.6597397 0.4355943 0.4749998
v -0.6597397 0.4355952 0.3249998
v 0.7891489 0.04736771 0.4750003
v -0.7891489 -0.04736771 0.3249995
v 0.6597394 -0.4355949 0.4750002
v 0.6597403 -0.4355949 0.3250002
v -0.7891489 -0.04736771 0.4749995
vt 0.08127861 0.9835141
vt 0.09662586 0.9964
vt 0.09662586 0.9835141
vt 0.09278904 0.9964
vt 0.09278904 0.9988161
vt 0.08511542 0.9964
vt 0.08511542 0.9988161
vt 0.08127861 0.9964
vt 0.1062922 0.9660041
vt 0.08123178 0.9813633
vt 0.1062922 0.9813633
vt 0.08123178 0.9660041
vt 0.07884971 0.9660896
vt 0.05377544 0.9784139
vt 0.07884971 0.9784139
vt 0.05377544 0.9660896
vt 0.07903956 0.9834913
vt 0.05390821 0.9873422
vt 0.07903956 0.9873422
vt 0.05390821 0.9834913
vt 0.07903956 0.9873422
vt 0.05390821 0.9950439
vt 0.07903956 0.9950439
vt 0.05390821 0.9873422
vt 0.07903956 0.9950439
vt 0.05390821 0.9988948
vt 0.07903956 0.9988948
vt 0.05390821 0.9950439
vt 0.05377239 0.9784213
vt 0.07884663 0.9660971
vt 0.05377239 0.9660971
vt 0.07884663 0.9784213
vt 0.09660619 0.9834955
vt 0.09277388 0.9963815
vt 0.09660619 0.9963815
vt 0.08510922 0.9963815
vt 0.08510922 0.9987977
vt 0.09277388 0.9987977
vt 0.08127691 0.9963815
vt 0.08127691 0.9834955
vt 0.05377239 0.9789835
vt 0.07884663 0.9813995
vt 0.07884663 0.9789835
vt 0.05377239 0.9813995
vt 0.05377544 0.9789757
vt 0.07884971 0.9813917
vt 0.07884971 0.9789757
vt 0.05377544 0.9813917
vn -0.9656356 0.2598998 0
vn -0.9660214 0.2584621 0
vn -0.9658837 0.2589763 0
vn -0.965893 0.2589416 0
vn -0.965893 0.2589416 0
vn -0.965893 0.2589416 0
vn -0.965893 0.2589416 0
vn -0.9656356 0.2598998 0
vn 0 0 -1
vn 0 0 -1
vn 0 0 -1
vn 0 0 -1
vn -0.2590701 -0.9658585 0
vn -0.2590701 -0.9658585 0
vn -0.2591988 -0.9658239 0
vn -0.2591988 -0.9658239 0
vn 0 0 1
vn 0 0 1
vn 0 0 1
vn 0 0 1
vn 0 0 1
vn 0 0 1
vn 0 0 1
vn 0 0 1
vn 0 0 1
vn 0 0 1
vn 0 0 1
vn 0 0 1
vn 0.2591988 0.9658239 0
vn 0.2589416 0.965893 0
vn 0.2591988 0.9658239 0
vn 0.2589416 0.965893 0
vn 0.965893 -0.2589416 0
vn 0.966286 -0.2574711 0
vn 0.9661496 -0.2579825 0
vn 0.9661582 -0.2579499 0
vn 0.9661582 -0.2579499 0
vn 0.966286 -0.2574711 0
vn 0.9661582 -0.2579499 0
vn 0.9661582 -0.2579499 0
vn 0.2591988 0.9658239 0
vn 0.2591988 0.9658239 0
vn 0.2591988 0.9658239 0
vn 0.2589416 0.965893 0
vn -0.2591988 -0.9658239 0
vn -0.2591988 -0.9658239 0
vn -0.2591988 -0.9658239 0
vn -0.2591988 -0.9658239 0
g islands_sniper_box02_0
f 3/3/3 2/2/2 1/1/1
f 2/2/2 4/4/4 1/1/1
f 4/4/4 5/5/5 1/1/1
f 5/5/5 6/6/6 1/1/1
f 7/7/7 6/6/6 5/5/5
f 6/6/6 8/8/8 1/1/1
f 11/11/11 10/10/10 9/9/9
f 12/12/12 9/9/9 10/10/10
f 15/15/15 14/14/14 13/13/13
f 16/16/16 13/13/13 14/14/14
f 19/19/19 18/18/18 17/17/17
f 20/20/20 17/17/17 18/18/18
f 23/23/23 22/22/22 21/21/21
f 24/24/24 21/21/21 22/22/22
f 27/27/27 26/26/26 25/25/25
f 28/28/28 25/25/25 26/26/26
f 31/31/31 30/30/30 29/29/29
f 32/32/32 29/29/29 30/30/30
f 35/35/35 34/34/34 33/33/33
f 34/34/34 36/36/36 33/33/33
f 37/37/37 36/36/36 34/34/34
f 38/38/38 37/37/37 34/34/34
f 36/36/36 39/39/39 33/33/33
f 39/39/39 40/40/40 33/33/33
f 43/43/43 42/42/42 41/41/41
f 44/44/44 41/41/41 42/42/42
f 47/47/47 46/46/46 45/45/45
f 48/48/48 45/45/45 46/46/46
