g islands_sniper_grass_big46
v 9.872799 38.66584 20
v 9.872799 38.66584 21.49507
v 10.8728 38.66584 21.49507
v 10.8728 38.66584 20
v 10.3728 39.16584 20
v 10.3728 39.16584 21.49507
v 10.3728 38.16584 21.49507
v 10.3728 38.16584 20
vt 0.1484375 0.1170828
vt 0.1484375 0.3085938
vt 0.2734375 0.3085938
vt 0.2734375 0.1170828
vt 0.1484375 0.1170828
vt 0.1484375 0.3085938
vt 0.2734375 0.3085938
vt 0.2734375 0.1170828
vn 0 -1 0
vn 0 -1 0
vn 0 -1 0
vn 0 -1 0
vn -1 0 0
vn -1 0 0
vn -1 0 0
vn -1 0 0
g islands_sniper_grass_big46_0
f 3/3/3 2/2/2 1/1/1
f 4/4/4 3/3/3 1/1/1
f 7/7/7 6/6/6 5/5/5
f 8/8/8 7/7/7 5/5/5
