g islands_sniper_grass_big26
v 110.3654 -19.55588 4.499999
v 111.3654 -19.55588 4.499999
v 111.3654 -19.55588 5.995072
v 110.3654 -19.55588 5.995072
v 110.8654 -19.05588 4.499999
v 110.8654 -20.05588 4.499999
v 110.8654 -20.05588 5.995072
v 110.8654 -19.05588 5.995072
vt 0.1484375 0.1170828
vt 0.2734375 0.1170828
vt 0.2734375 0.3085938
vt 0.1484375 0.3085938
vt 0.1484375 0.1170828
vt 0.2734375 0.1170828
vt 0.2734375 0.3085938
vt 0.1484375 0.3085938
vn 0 1 0
vn 0 1 0
vn 0 1 0
vn 0 1 0
vn 1 0 0
vn 1 0 0
vn 1 0 0
vn 1 0 0
g islands_sniper_grass_big26_0
f 3/3/3 2/2/2 1/1/1
f 4/4/4 3/3/3 1/1/1
f 7/7/7 6/6/6 5/5/5
f 8/8/8 7/7/7 5/5/5
