g islands_sniper_grass_big39
v 37.14386 25.70364 7.999999
v 37.14386 25.70364 9.495071
v 38.14386 25.70364 9.495071
v 38.14386 25.70364 7.999999
v 37.64386 26.20364 7.999999
v 37.64386 26.20364 9.495071
v 37.64386 25.20364 9.495071
v 37.64386 25.20364 7.999999
vt 0.1484375 0.1170828
vt 0.1484375 0.3085938
vt 0.2734375 0.3085938
vt 0.2734375 0.1170828
vt 0.1484375 0.1170828
vt 0.1484375 0.3085938
vt 0.2734375 0.3085938
vt 0.2734375 0.1170828
vn 0 -1 0
vn 0 -1 0
vn 0 -1 0
vn 0 -1 0
vn -1 0 0
vn -1 0 0
vn -1 0 0
vn -1 0 0
g islands_sniper_grass_big39_0
f 3/3/3 2/2/2 1/1/1
f 4/4/4 3/3/3 1/1/1
f 7/7/7 6/6/6 5/5/5
f 8/8/8 7/7/7 5/5/5
