g Jail_Collider
v -16.97503 56.49276 -30.99996
v -16.97503 13.45984 -6.02306
v -16.97503 56.42699 -6.02306
v -16.94999 13.45984 -15.00003
v -16.97503 2.999987 -30.975
v -16.97503 2.999987 -15.02499
v 10.025 2.999987 -30.975
v -16.97503 2.999987 -30.975
v 9.975008 56.49276 -30.99996
v -16.97503 56.49276 -30.99996
v 9.975008 13.45984 -6.02306
v 9.975008 56.49276 -30.99996
v 9.975008 56.42699 -6.02306
v 9.975008 13.45984 -15.02499
v 10.02083 6.636946 -31.02391
v 10.02083 6.636946 -15.00003
v 9.975008 56.42699 -6.02306
v -16.97503 56.42699 -6.02306
v 9.975008 13.45984 -6.02306
v -16.97503 13.45984 -6.02306
v 9.975008 13.45984 -6.02306
v -16.97503 13.45984 -6.02306
v 9.975008 6.859873 -6.02306
v -16.97503 6.859873 -6.02306
v -13.10003 6.116976 2.999987
v -13.10003 6.116976 6.100031
v 9.650005 6.116976 6.100031
v 9.650005 6.116976 2.999987
v -13.10003 6.859873 2.999987
v -13.10003 6.116976 2.999987
v 9.650005 6.116976 2.999987
v 9.650005 6.859873 2.999987
v 9.650005 6.859873 2.999987
v 9.650005 6.116976 2.999987
v 9.650005 6.116976 6.100031
v 9.650005 6.859873 6.100031
v 9.650005 6.859873 6.100031
v 9.650005 6.116976 6.100031
v -13.10003 6.116976 6.100031
v -13.10003 6.859873 6.100031
v -13.10003 6.859873 6.100031
v -13.10003 6.116976 6.100031
v -13.10003 6.116976 2.999987
v -13.10003 6.859873 2.999987
v -13.10003 6.859873 2.999987
v 9.650005 6.859873 2.999987
v 9.650005 6.859873 6.100031
v -13.10003 6.859873 6.100031
vt 0 0
vt 0 1
vt 0 0
vt 0 0
vt 0 0
vt 0 0
vt 0 0
vt 0 0
vt 0 0
vt 0 0
vt 0 0
vt 0 0
vt 0 0
vt 0 0
vt 0 0
vt 0 0
vt 0 0
vt 0 0
vt 0 0
vt 0 1
vt 0 0
vt 0 1
vt 1 0
vt 1 1
vt 0.2500038 0
vt 0.2500038 0.3333333
vt 0.5000076 0.3333333
vt 0.5000076 0
vt 1 0.6666667
vt 1 0.3333333
vt 0.7499962 0.3333333
vt 0.7499962 0.6666667
vt 0.7499962 0.6666667
vt 0.7499962 0.3333333
vt 0.5000076 0.3333333
vt 0.5000076 0.6666667
vt 0.5000076 0.6666667
vt 0.5000076 0.3333333
vt 0.2500038 0.3333333
vt 0.2500038 0.6666667
vt 0.2500038 0.6666667
vt 0.2500038 0.3333333
vt 0 0.3333333
vt 0 0.6666667
vt 0.2500038 1
vt 0.5000076 1
vt 0.5000076 0.6666667
vt 0.2500038 0.6666667
vn 0.9999995 0.0009775162 0
vn 0.9999995 0.0009775162 0
vn 0.9999995 0.0009775162 0
vn 0.9999995 -0.0009775162 0
vn 0.9999995 -0.0009775162 0
vn 0.9999957 -0.002932537 0
vn -0.0009775162 0.0009775162 0.999999
vn -0.0009775162 0.0009775162 0.999999
vn -0.0009775162 0.0009775162 0.999999
vn -0.0009775162 0.0009775162 0.999999
vn -0.9999995 0.0009775162 0
vn -0.9999995 -0.0009775162 0
vn -0.9999995 0.0009775162 0
vn -0.9999957 -0.002932537 0
vn -0.9999957 -0.002932537 0
vn -0.9999766 -0.006842457 0
vn -0.0009775162 0.0009775162 -0.999999
vn -0.0009775162 0.0009775162 -0.999999
vn -0.0009775162 0.0009775162 -0.999999
vn -0.0009775162 0.0009775162 -0.999999
vn -0.0009775162 0.0009775162 -0.999999
vn -0.0009775162 0.0009775162 -0.999999
vn -0.0009775162 0.0009775162 -0.999999
vn -0.0009775162 0.0009775162 -0.999999
vn -0.0009775162 -0.9999995 0
vn -0.0009775162 -0.9999995 0
vn -0.0009775162 -0.9999995 0
vn -0.0009775162 -0.9999995 0
vn -0.0009775162 0.0009775162 -0.999999
vn -0.0009775162 0.0009775162 -0.999999
vn -0.0009775162 0.0009775162 -0.999999
vn -0.0009775162 0.0009775162 -0.999999
vn 0.9999995 0.0009775162 0
vn 0.9999995 0.0009775162 0
vn 0.9999995 0.0009775162 0
vn 0.9999995 0.0009775162 0
vn -0.0009775162 0.0009775162 0.999999
vn -0.0009775162 0.0009775162 0.999999
vn -0.0009775162 0.0009775162 0.999999
vn -0.0009775162 0.0009775162 0.999999
vn -0.9999995 0.0009775162 0
vn -0.9999995 0.0009775162 0
vn -0.9999995 0.0009775162 0
vn -0.9999995 0.0009775162 0
vn -0.0009775162 0.9999995 0
vn -0.0009775162 0.9999995 0
vn -0.0009775162 0.9999995 0
vn -0.0009775162 0.9999995 0
g Jail_Collider_0
f 3/3/3 2/2/2 1/1/1
f 2/2/2 4/4/4 1/1/1
f 5/5/5 1/1/1 4/4/4
f 6/6/6 5/5/5 4/4/4
f 9/9/9 8/8/8 7/7/7
f 8/8/8 9/9/9 10/10/10
f 13/13/13 12/12/12 11/11/11
f 14/14/14 11/11/11 12/12/12
f 15/15/15 14/14/14 12/12/12
f 16/16/16 14/14/14 15/15/15
f 19/19/19 18/18/18 17/17/17
f 18/18/18 19/19/19 20/20/20
f 23/23/23 22/22/22 21/21/21
f 22/22/22 23/23/23 24/24/24
f 27/27/27 26/26/26 25/25/25
f 28/28/28 27/27/27 25/25/25
f 31/31/31 30/30/30 29/29/29
f 32/32/32 31/31/31 29/29/29
f 35/35/35 34/34/34 33/33/33
f 36/36/36 35/35/35 33/33/33
f 39/39/39 38/38/38 37/37/37
f 40/40/40 39/39/39 37/37/37
f 43/43/43 42/42/42 41/41/41
f 44/44/44 43/43/43 41/41/41
f 47/47/47 46/46/46 45/45/45
f 48/48/48 47/47/47 45/45/45
