g Jail_floor
v 56.87852 1.002146E-06 -4.999999
v 56.87852 0.329343 -4.999999
v 56.87852 0.3293424 -19
v 56.87852 3.901868E-07 -19
v 38.87853 1.002146E-06 -5.000001
v 38.87852 3.901867E-07 -19
v 38.87852 0.3293424 -19
v 38.87853 0.329343 -5.000001
v 56.87852 1.002146E-06 -4.999999
v 38.87853 0.329343 -5.000001
v 56.87852 0.329343 -4.999999
v 38.87853 1.002146E-06 -5.000001
v 38.87852 0.3293424 -19
v 39.49095 0.3293425 -18.38758
v 39.49095 0.3293425 -16.75
v 40.7 0.3293424 -18.8
v 40.7 0.3293425 -18.38758
v 56.87852 0.3293424 -19
v 38.87853 0.329343 -5.000001
v 39.78675 0.3293426 -16.13713
v 40.37835 0.3293426 -14.82205
v 41.26574 0.3293426 -14.82205
v 56.87852 0.329343 -4.999999
v 42.6 0.3293425 -16.52441
v 42.15313 0.3293426 -15.47959
v 41.26574 0.3293426 -15.47959
v 42.15314 0.3293425 -16.52441
v 42.6 0.3293425 -17.63743
v 42.15314 0.3293425 -18.38758
v 42.15314 0.3293425 -17.63743
v 41.47316 0.3293424 -18.8
v 41.47316 0.3293425 -18.38758
v 40.37835 0.3293426 -16.13713
v 41.47316 0.3293424 -18.8
v 56.87852 0.3293424 -19
v 38.87852 0.3293424 -19
v 38.87852 3.901867E-07 -19
v 56.87852 3.901868E-07 -19
v 39.78675 0.3293425 -16.75
v 40.37835 0.3293426 -14.82205
v 41.26574 0.2293417 -14.82205
v 41.26574 0.3293426 -14.82205
v 40.37835 0.2293417 -14.82205
v 40.7 0.3293425 -18.38758
v 39.49095 0.2293415 -18.38758
v 39.49095 0.3293425 -18.38758
v 40.7 0.2293415 -18.38758
v 42.15314 0.3293425 -17.63743
v 42.15314 0.2293415 -18.38758
v 42.15314 0.3293425 -18.38758
v 42.15314 0.2293416 -17.63743
v 39.78675 0.3293426 -16.13713
v 40.37835 0.2293416 -16.13713
v 40.37835 0.3293426 -16.13713
v 39.78675 0.2293416 -16.13713
v 40.37835 0.3293426 -16.13713
v 40.37835 0.2293417 -14.82205
v 40.37835 0.3293426 -14.82205
v 40.37835 0.2293416 -16.13713
v 39.49095 0.3293425 -16.75
v 39.78675 0.2293416 -16.75
v 39.78675 0.3293425 -16.75
v 39.49095 0.2293416 -16.75
v 39.78675 0.3293425 -16.75
v 39.78675 0.2293416 -16.13713
v 39.78675 0.3293426 -16.13713
v 39.78675 0.2293416 -16.75
v 39.49095 0.3293425 -18.38758
v 39.49095 0.2293416 -16.75
v 39.49095 0.3293425 -16.75
v 39.49095 0.2293415 -18.38758
v 41.26574 0.3293426 -14.82205
v 41.26574 0.2293417 -15.47959
v 41.26574 0.3293426 -15.47959
v 41.26574 0.2293417 -14.82205
v 41.26574 0.3293426 -15.47959
v 42.15313 0.2293417 -15.47959
v 42.15313 0.3293426 -15.47959
v 41.26574 0.2293417 -15.47959
v 42.15314 0.3293425 -18.38758
v 41.47316 0.2293415 -18.38758
v 41.47316 0.3293425 -18.38758
v 42.15314 0.2293415 -18.38758
v 40.7 0.3293424 -18.8
v 40.7 0.2293415 -18.38758
v 40.7 0.3293425 -18.38758
v 40.7 0.2293415 -18.8
v 41.47316 0.3293425 -18.38758
v 41.47316 0.2293415 -18.8
v 41.47316 0.3293424 -18.8
v 41.47316 0.2293415 -18.38758
v 41.47316 0.3293424 -18.8
v 40.7 0.2293415 -18.8
v 40.7 0.3293424 -18.8
v 41.47316 0.2293415 -18.8
v 42.6 0.3293425 -16.52441
v 42.6 0.2293416 -17.63743
v 42.6 0.3293425 -17.63743
v 42.6 0.2293416 -16.52441
v 42.15314 0.3293425 -16.52441
v 42.6 0.2293416 -16.52441
v 42.6 0.3293425 -16.52441
v 42.15314 0.2293416 -16.52441
v 42.15313 0.3293426 -15.47959
v 42.15314 0.2293416 -16.52441
v 42.15314 0.3293425 -16.52441
v 42.15313 0.2293417 -15.47959
v 42.6 0.3293425 -17.63743
v 42.15314 0.2293416 -17.63743
v 42.15314 0.3293425 -17.63743
v 42.6 0.2293416 -17.63743
v 50.87852 0.2500008 -2.125
v 44.87852 0.2500009 -0.125
v 44.87852 0.2500008 -2.125
v 50.87852 0.2500009 -0.125
v 50.87852 8.226406E-07 -2.125
v 44.87852 9.100634E-07 -0.125
v 50.87852 9.100634E-07 -0.125
v 44.87852 8.226406E-07 -2.125
v 50.87852 0.2500008 -2.125
v 44.87852 8.226406E-07 -2.125
v 50.87852 8.226406E-07 -2.125
v 44.87852 0.2500008 -2.125
v 44.87852 0.2500008 -2.125
v 44.87852 9.100634E-07 -0.125
v 44.87852 8.226406E-07 -2.125
v 44.87852 0.2500009 -0.125
v 44.87852 0.2500009 -0.125
v 50.87852 9.100634E-07 -0.125
v 44.87852 9.100634E-07 -0.125
v 50.87852 0.2500009 -0.125
v 50.87852 0.2500009 -0.125
v 50.87852 8.226406E-07 -2.125
v 50.87852 9.100634E-07 -0.125
v 50.87852 0.2500008 -2.125
v 43.50352 0.5000011 -2.677412
v 43.50352 1.375 -2.514419
v 43.50352 0.5000011 -2.514419
v 43.50352 1.375 -2.677412
v 46.25352 0.5000011 -2.677412
v 46.25352 1.375 -2.514419
v 46.25352 1.375 -2.677412
v 46.25352 0.5000011 -2.514419
v 43.50352 0.5000011 -2.677412
v 46.25352 1.375 -2.677412
v 43.50352 1.375 -2.677412
v 46.25352 0.5000011 -2.677412
v 43.50352 1.375 -2.677412
v 46.25352 1.375 -2.514419
v 43.50352 1.375 -2.514419
v 46.25352 1.375 -2.677412
v 43.50352 1.375 -2.514419
v 46.25352 0.5000011 -2.514419
v 43.50352 0.5000011 -2.514419
v 46.25352 1.375 -2.514419
v 43.50352 0.5000011 -2.514419
v 46.25352 0.5000011 -2.677412
v 43.50352 0.5000011 -2.677412
v 46.25352 0.5000011 -2.514419
v 49.50352 0.5000014 -2.677411
v 49.50352 1.375 -2.514418
v 49.50352 0.5000014 -2.514418
v 49.50352 1.375 -2.677411
v 52.25352 0.5000014 -2.677411
v 52.25352 1.375 -2.514418
v 52.25352 1.375 -2.677411
v 52.25352 0.5000014 -2.514418
v 49.50352 0.5000014 -2.677411
v 52.25352 1.375 -2.677411
v 49.50352 1.375 -2.677411
v 52.25352 0.5000014 -2.677411
v 49.50352 1.375 -2.677411
v 52.25352 1.375 -2.514418
v 49.50352 1.375 -2.514418
v 52.25352 1.375 -2.677411
v 49.50352 1.375 -2.514418
v 52.25352 0.5000014 -2.514418
v 49.50352 0.5000014 -2.514418
v 52.25352 1.375 -2.514418
v 49.50352 0.5000014 -2.514418
v 52.25352 0.5000014 -2.677411
v 49.50352 0.5000014 -2.677411
v 52.25352 0.5000014 -2.514418
v 52.25352 0.5000014 -2.677411
v 52.41652 1.375 -2.677411
v 52.41652 0.5000014 -2.677411
v 52.25352 1.375 -2.677411
v 52.25352 0.5000007 -4.999996
v 52.41652 1.375 -4.999996
v 52.25352 1.375 -4.999996
v 52.41652 0.5000007 -4.999996
v 52.25352 0.5000014 -2.677411
v 52.25352 1.375 -4.999996
v 52.25352 1.375 -2.677411
v 52.25352 0.5000007 -4.999996
v 52.25352 1.375 -2.677411
v 52.41652 1.375 -4.999996
v 52.41652 1.375 -2.677411
v 52.25352 1.375 -4.999996
v 52.41652 1.375 -2.677411
v 52.41652 0.5000007 -4.999996
v 52.41652 0.5000014 -2.677411
v 52.41652 1.375 -4.999996
v 52.41652 0.5000014 -2.677411
v 52.25352 0.5000007 -4.999996
v 52.25352 0.5000014 -2.677411
v 52.41652 0.5000007 -4.999996
v 43.50352 0.5000011 -2.677412
v 43.34053 1.375 -2.677412
v 43.50352 1.375 -2.677412
v 43.34053 0.5000011 -2.677412
v 43.50352 0.5000004 -4.999998
v 43.34053 1.374999 -4.999998
v 43.34053 0.5000001 -4.999998
v 43.50352 1.374999 -4.999998
v 43.50352 0.5000011 -2.677412
v 43.50352 1.374999 -4.999998
v 43.50352 0.5000004 -4.999998
v 43.50352 1.375 -2.677412
v 43.50352 1.375 -2.677412
v 43.34053 1.374999 -4.999998
v 43.50352 1.374999 -4.999998
v 43.34053 1.375 -2.677412
v 43.34053 1.375 -2.677412
v 43.34053 0.5000001 -4.999998
v 43.34053 1.374999 -4.999998
v 43.34053 0.5000011 -2.677412
v 43.34053 0.5000011 -2.677412
v 43.50352 0.5000004 -4.999998
v 43.34053 0.5000001 -4.999998
v 43.50352 0.5000011 -2.677412
v 39.49095 0.2293416 -16.75
v 39.78675 0.2293416 -16.13713
v 39.78675 0.2293416 -16.75
v 39.28378 0.2293417 -14.82205
v 40.37835 0.2293417 -14.82205
v 40.37835 0.2293416 -16.13713
v 39.28378 0.2293417 -14.82205
v 39.49095 0.2293415 -18.38758
v 39.28378 0.2293417 -14.82205
v 39.49095 0.2293416 -16.75
v 39.28378 0.2293415 -18.38758
vt 0.6646714 -6.500003
vt 0.3353293 -6.500003
vt 0.3353293 7.499998
vt 0.6646714 7.499998
vt 0.3353293 -6.499997
vt 0.3353293 7.500003
vt 0.6646714 7.500003
vt 0.6646714 -6.499997
vt 0.3353286 -8.499998
vt 0.6646714 9.5
vt 0.6646707 -8.499998
vt 0.3353293 9.5
vt 7.500003 9.499998
vt 6.887585 8.887577
vt 5.250001 8.887577
vt 7.300002 7.678526
vt 6.887585 7.678525
vt 7.499998 -8.5
vt -6.499997 9.5
vt 4.637134 8.591778
vt 3.322053 8.000181
vt 3.322053 7.112783
vt -6.500003 -8.499998
vt 5.024415 5.778525
vt 3.97959 6.225384
vt 3.979591 7.112782
vt 5.024415 6.225379
vt 6.13743 5.778525
vt 6.887582 6.225382
vt 6.137429 6.225382
vt 7.300002 6.90536
vt 6.887582 6.90536
vt 4.637133 8.000179
vt 7.300002 6.90536
vt 0.3353293 -8.5
vt 0.3353286 9.499998
vt 0.6646707 9.499998
vt 0.6646714 -8.5
vt 5.250001 8.591778
vt 0.3353286 8.000181
vt 0.4353297 7.112783
vt 0.3353286 7.112783
vt 0.4353297 8.000181
vt 0.6646714 7.678525
vt 0.5646703 8.887577
vt 0.6646714 8.887577
vt 0.5646703 7.678525
vt 0.6646714 6.137429
vt 0.5646703 6.887582
vt 0.6646714 6.887582
vt 0.5646703 6.137429
vt 0.3353286 8.591778
vt 0.4353297 8.000179
vt 0.3353286 8.000179
vt 0.4353297 8.591778
vt 0.3353286 4.637133
vt 0.4353297 3.322053
vt 0.3353286 3.322053
vt 0.4353297 4.637133
vt 0.3353286 8.887577
vt 0.4353297 8.591778
vt 0.3353286 8.591778
vt 0.4353297 8.887577
vt 0.3353286 5.250001
vt 0.4353297 4.637134
vt 0.3353286 4.637134
vt 0.4353297 5.250001
vt 0.3353286 6.887585
vt 0.4353297 5.250001
vt 0.3353286 5.250001
vt 0.4353297 6.887585
vt 0.6646714 3.322052
vt 0.5646703 3.979591
vt 0.6646714 3.979591
vt 0.5646703 3.322052
vt 0.3353286 7.112781
vt 0.4353297 6.225383
vt 0.3353286 6.225383
vt 0.4353297 7.112781
vt 0.6646714 6.225382
vt 0.5646703 6.90536
vt 0.6646714 6.90536
vt 0.5646703 6.225382
vt 0.3353286 7.300002
vt 0.4353297 6.887585
vt 0.3353286 6.887585
vt 0.4353297 7.300002
vt 0.6646714 6.887582
vt 0.5646703 7.300002
vt 0.6646714 7.300002
vt 0.5646703 6.887582
vt 0.6646714 6.90536
vt 0.5646703 7.678526
vt 0.6646714 7.678526
vt 0.5646703 6.90536
vt 0.6646714 5.024414
vt 0.5646703 6.13743
vt 0.6646714 6.13743
vt 0.5646703 5.024414
vt 0.3353286 6.225378
vt 0.4353297 5.778524
vt 0.3353286 5.778524
vt 0.4353297 6.225378
vt 0.6646714 3.97959
vt 0.5646703 5.024415
vt 0.6646714 5.024415
vt 0.5646703 3.97959
vt 0.6646714 5.778525
vt 0.5646703 6.225382
vt 0.6646714 6.225382
vt 0.5646703 5.778525
vt 3.500003 -6.937501
vt -2.499998 -8.937499
vt -2.499997 -6.937499
vt 3.500002 -8.937501
vt -2.500003 -6.937501
vt 3.499998 -8.937499
vt -2.500002 -8.937501
vt 3.499997 -6.937499
vt -2.500003 -3.579342
vt 3.499997 -3.829342
vt -2.500003 -3.829342
vt 3.499997 -3.579342
vt 7.937499 -3.579342
vt 9.937499 -3.829342
vt 7.937499 -3.829342
vt 9.937499 -3.579342
vt -2.499998 -3.579342
vt 3.500002 -3.829342
vt -2.499998 -3.829342
vt 3.500002 -3.579342
vt -8.937501 -3.579342
vt -6.937501 -3.829342
vt -8.937501 -3.829342
vt -6.937501 -3.579342
vt -1.853563 -7.513183
vt -0.9785639 -7.676177
vt -1.853563 -7.676177
vt -0.978564 -7.513183
vt 2.853563 -7.513183
vt 1.978564 -7.676177
vt 1.978564 -7.513183
vt 2.853563 -7.676177
vt 2.853563 4.875
vt 1.978564 2.125
vt 1.978564 4.875
vt 2.853563 2.125
vt -7.513183 4.875
vt -7.676177 2.125
vt -7.676177 4.875
vt -7.513183 2.125
vt -0.9785639 4.875
vt -1.853563 2.125
vt -1.853563 4.875
vt -0.978564 2.125
vt 8.676177 4.875
vt 8.513183 2.125
vt 8.513183 4.875
vt 8.676177 2.125
vt -1.853563 -7.513185
vt -0.9785639 -7.676177
vt -1.853563 -7.676177
vt -0.9785641 -7.513185
vt 2.853563 -7.513186
vt 1.978564 -7.676179
vt 1.978564 -7.513186
vt 2.853563 -7.676179
vt 2.853563 -1.124999
vt 1.978564 -3.875
vt 1.978564 -1.125
vt 2.853563 -3.875
vt -7.513185 -1.125
vt -7.676179 -3.875
vt -7.676177 -1.125
vt -7.513186 -3.875
vt -0.9785639 -1.125
vt -1.853563 -3.875
vt -1.853563 -1.124999
vt -0.978564 -3.875
vt 8.676177 -1.124999
vt 8.513186 -3.875
vt 8.513185 -1.124999
vt 8.676179 -3.875
vt -1.853563 -3.874998
vt -0.9785639 -4.037992
vt -1.853563 -4.037992
vt -0.9785639 -3.874998
vt 2.853564 -3.874999
vt 1.978565 -4.037992
vt 1.978565 -3.874999
vt 2.853564 -4.037992
vt -1.853563 -7.513186
vt -0.9785647 -5.190601
vt -0.9785639 -7.513186
vt -1.853564 -5.190601
vt -7.513186 -3.874998
vt -5.190601 -4.037992
vt -7.513186 -4.037992
vt -5.190601 -3.874999
vt 1.978564 -7.513186
vt 2.853564 -5.190601
vt 2.853563 -7.513186
vt 1.978565 -5.190601
vt 8.513186 -4.037992
vt 6.190601 -3.874999
vt 8.513186 -3.874998
vt 6.190601 -4.037992
vt -1.853563 4.874999
vt -0.978564 5.037992
vt -0.978564 4.874999
vt -1.853563 5.037992
vt 2.853564 4.874998
vt 1.978565 5.037992
vt 2.853564 5.037992
vt 1.978565 4.874998
vt 2.853563 -7.513183
vt 1.978565 -5.190597
vt 2.853564 -5.190597
vt 1.978564 -7.513183
vt -7.513183 4.874999
vt -5.190597 5.037992
vt -5.190597 4.874998
vt -7.513183 5.037992
vt -0.978564 -7.513183
vt -1.853564 -5.190597
vt -0.9785647 -5.190597
vt -1.853563 -7.513183
vt 8.513183 5.037992
vt 6.190597 4.874998
vt 6.190597 5.037992
vt 8.513183 4.874999
vt 0.4353297 8.887577
vt 0.4353297 8.591778
vt 0.4353297 8.591778
vt 0.4353297 9.493698
vt 0.4353297 8.000179
vt 0.4353297 8.000179
vt 0.4353297 9.09475
vt 0.4353297 6.887585
vt 0.4353297 3.322054
vt 0.4353297 5.250001
vt 0.4353297 6.887585
vn 1 0 0
vn 1 0 0
vn 1 0 0
vn 1 0 0
vn -1 0 0
vn -1 0 0
vn -1 0 0
vn -1 0 0
vn 0 0 1
vn 0 0 1
vn 0 0 1
vn 0 0 1
vn 0 1 0
vn 0 1 0
vn 0 1 0
vn 0 1 0
vn 0 1 0
vn 0 1 0
vn 0 1 0
vn 0 1 0
vn 0 1 0
vn 0 1 0
vn 0 1 0
vn 0 1 0
vn 0 1 0
vn 0 1 0
vn 0 1 0
vn 0 1 0
vn 0 1 0
vn 0 1 0
vn 0 1 0
vn 0 1 0
vn 0 1 0
vn 0 1 0
vn 0 0 -1
vn 0 0 -1
vn 0 0 -1
vn 0 0 -1
vn 0 1 0
vn 0 0 -1
vn 0 0 -1
vn 0 0 -1
vn 0 0 -1
vn 0 0 1
vn 0 0 1
vn 0 0 1
vn 0 0 1
vn -1 0 0
vn -1 0 0
vn -1 0 0
vn -1 0 0
vn 0 0 -1
vn 0 0 -1
vn 0 0 -1
vn 0 0 -1
vn 1 0 0
vn 1 0 0
vn 1 0 0
vn 1 0 0
vn 0 0 -1
vn 0 0 -1
vn 0 0 -1
vn 0 0 -1
vn 1 0 0
vn 1 0 0
vn 1 0 0
vn 1 0 0
vn 1 0 0
vn 1 0 0
vn 1 0 0
vn 1 0 0
vn -1 0 0
vn -1 0 0
vn -1 0 0
vn -1 0 0
vn 0 0 -1
vn 0 0 -1
vn 0 0 -1
vn 0 0 -1
vn 0 0 1
vn 0 0 1
vn 0 0 1
vn 0 0 1
vn 1 0 -5.919769E-06
vn 1 0 -5.919769E-06
vn 1 0 0
vn 1 0 0
vn -1 0 0
vn -1 0 0
vn -1 0 0
vn -1 0 0
vn 0 0 1
vn 0 0 1
vn 0 0 1
vn 0 0 1
vn -1 0 0
vn -1 0 0
vn -1 0 0
vn -1 0 0
vn 5.463526E-06 0 -1
vn 5.463526E-06 0 -1
vn 0 0 -1
vn 0 0 -1
vn -1 0 -9.346657E-06
vn -1 0 -9.346657E-06
vn -1 0 0
vn -1 0 0
vn 0 0 1
vn 0 0 1
vn 0 0 1
vn 0 0 1
vn 0 1 0
vn 0 1 0
vn 0 1 0
vn 0 1 0
vn 0 -1 0
vn 0 -1 0
vn 0 -1 0
vn 0 -1 0
vn 0 0 -1
vn 0 0 -1
vn 0 0 -1
vn 0 0 -1
vn -1 0 0
vn -1 0 0
vn -1 0 0
vn -1 0 0
vn 0 0 1
vn 0 0 1
vn 0 0 1
vn 0 0 1
vn 1 0 0
vn 1 0 0
vn 1 0 0
vn 1 0 0
vn -1 0 0
vn -1 0 0
vn -1 0 0
vn -1 0 0
vn 1 0 0
vn 1 0 0
vn 1 0 0
vn 1 0 0
vn 0 0 -1
vn 0 0 -1
vn 0 0 -1
vn 0 0 -1
vn 0 1 0
vn 0 1 0
vn 0 1 0
vn 0 1 0
vn 0 0 1
vn 0 0 1
vn 0 0 1
vn 0 0 1
vn 0 -1 0
vn 0 -1 0
vn 0 -1 0
vn 0 -1 0
vn -1 0 0
vn -1 0 0
vn -1 0 0
vn -1 0 0
vn 1 0 0
vn 1 0 0
vn 1 0 0
vn 1 0 0
vn 0 0 -1
vn 0 0 -1
vn 0 0 -1
vn 0 0 -1
vn 0 1 0
vn 0 1 0
vn 0 1 0
vn 0 1 0
vn 0 0 1
vn 0 0 1
vn 0 0 1
vn 0 0 1
vn 0 -1 0
vn 0 -1 0
vn 0 -1 0
vn 0 -1 0
vn 0 0 1
vn 0 0 1
vn 0 0 1
vn 0 0 1
vn 0 0 -1
vn 0 0 -1
vn 0 0 -1
vn 0 0 -1
vn -1 0 0
vn -1 0 0
vn -1 0 0
vn -1 0 0
vn 0 1 0
vn 0 1 0
vn 0 1 0
vn 0 1 0
vn 1 0 0
vn 1 0 0
vn 1 0 0
vn 1 0 0
vn 0 -1 0
vn 0 -1 0
vn 0 -1 0
vn 0 -1 0
vn 0 0 1
vn 0 0 1
vn 0 0 1
vn 0 0 1
vn 0 0 -1
vn 0 0 -1
vn 0 0 -1
vn 0 0 -1
vn 1 0 0
vn 1 0 0
vn 1 0 0
vn 1 0 0
vn 0 1 0
vn 0 1 0
vn 0 1 0
vn 0 1 0
vn -1 0 0
vn -1 0 0
vn -1 0 0
vn -1 0 0
vn 0 -1 0
vn 0 -1 0
vn 0 -1 0
vn 0 -1 0
vn 0 -1 0
vn 0 -1 0
vn 0 -1 0
vn 0 -1 0
vn 0 -1 0
vn 0 -1 0
vn 0 -1 0
vn 0 -1 0
vn 0 -1 0
vn 0 -1 0
vn 0 -1 0
g Jail_floor_0
f 3/3/3 2/2/2 1/1/1
f 4/4/4 3/3/3 1/1/1
f 7/7/7 6/6/6 5/5/5
f 8/8/8 7/7/7 5/5/5
f 11/11/11 10/10/10 9/9/9
f 12/12/12 9/9/9 10/10/10
f 15/15/15 14/14/14 13/13/13
f 13/13/13 14/14/14 16/16/16
f 14/14/14 17/17/17 16/16/16
f 18/18/18 13/13/13 16/16/16
f 19/19/19 15/15/15 13/13/13
f 15/15/15 19/19/19 20/20/20
f 20/20/20 19/19/19 21/21/21
f 22/22/22 21/21/21 19/19/19
f 23/23/23 22/22/22 19/19/19
f 18/18/18 24/24/24 23/23/23
f 25/25/25 23/23/23 24/24/24
f 23/23/23 25/25/25 22/22/22
f 25/25/25 26/26/26 22/22/22
f 27/27/27 25/25/25 24/24/24
f 28/28/28 24/24/24 18/18/18
f 29/29/29 28/28/28 18/18/18
f 30/30/30 28/28/28 29/29/29
f 18/18/18 31/31/31 29/29/29
f 29/29/29 31/31/31 32/32/32
f 33/33/33 20/20/20 21/21/21
f 34/34/34 18/18/18 16/16/16
f 37/37/37 36/36/36 35/35/35
f 38/38/38 37/37/37 35/35/35
f 39/39/39 15/15/15 20/20/20
f 42/42/42 41/41/41 40/40/40
f 43/43/43 40/40/40 41/41/41
f 46/46/46 45/45/45 44/44/44
f 47/47/47 44/44/44 45/45/45
f 50/50/50 49/49/49 48/48/48
f 51/51/51 48/48/48 49/49/49
f 54/54/54 53/53/53 52/52/52
f 55/55/55 52/52/52 53/53/53
f 58/58/58 57/57/57 56/56/56
f 59/59/59 56/56/56 57/57/57
f 62/62/62 61/61/61 60/60/60
f 63/63/63 60/60/60 61/61/61
f 66/66/66 65/65/65 64/64/64
f 67/67/67 64/64/64 65/65/65
f 70/70/70 69/69/69 68/68/68
f 71/71/71 68/68/68 69/69/69
f 74/74/74 73/73/73 72/72/72
f 75/75/75 72/72/72 73/73/73
f 78/78/78 77/77/77 76/76/76
f 79/79/79 76/76/76 77/77/77
f 82/82/82 81/81/81 80/80/80
f 83/83/83 80/80/80 81/81/81
f 86/86/86 85/85/85 84/84/84
f 87/87/87 84/84/84 85/85/85
f 90/90/90 89/89/89 88/88/88
f 91/91/91 88/88/88 89/89/89
f 94/94/94 93/93/93 92/92/92
f 95/95/95 92/92/92 93/93/93
f 98/98/98 97/97/97 96/96/96
f 99/99/99 96/96/96 97/97/97
f 102/102/102 101/101/101 100/100/100
f 103/103/103 100/100/100 101/101/101
f 106/106/106 105/105/105 104/104/104
f 107/107/107 104/104/104 105/105/105
f 110/110/110 109/109/109 108/108/108
f 111/111/111 108/108/108 109/109/109
f 114/114/114 113/113/113 112/112/112
f 115/115/115 112/112/112 113/113/113
f 118/118/118 117/117/117 116/116/116
f 119/119/119 116/116/116 117/117/117
f 122/122/122 121/121/121 120/120/120
f 123/123/123 120/120/120 121/121/121
f 126/126/126 125/125/125 124/124/124
f 127/127/127 124/124/124 125/125/125
f 130/130/130 129/129/129 128/128/128
f 131/131/131 128/128/128 129/129/129
f 134/134/134 133/133/133 132/132/132
f 135/135/135 132/132/132 133/133/133
f 138/138/138 137/137/137 136/136/136
f 139/139/139 136/136/136 137/137/137
f 142/142/142 141/141/141 140/140/140
f 143/143/143 140/140/140 141/141/141
f 146/146/146 145/145/145 144/144/144
f 147/147/147 144/144/144 145/145/145
f 150/150/150 149/149/149 148/148/148
f 151/151/151 148/148/148 149/149/149
f 154/154/154 153/153/153 152/152/152
f 155/155/155 152/152/152 153/153/153
f 158/158/158 157/157/157 156/156/156
f 159/159/159 156/156/156 157/157/157
f 162/162/162 161/161/161 160/160/160
f 163/163/163 160/160/160 161/161/161
f 166/166/166 165/165/165 164/164/164
f 167/167/167 164/164/164 165/165/165
f 170/170/170 169/169/169 168/168/168
f 171/171/171 168/168/168 169/169/169
f 174/174/174 173/173/173 172/172/172
f 175/175/175 172/172/172 173/173/173
f 178/178/178 177/177/177 176/176/176
f 179/179/179 176/176/176 177/177/177
f 182/182/182 181/181/181 180/180/180
f 183/183/183 180/180/180 181/181/181
f 186/186/186 185/185/185 184/184/184
f 187/187/187 184/184/184 185/185/185
f 190/190/190 189/189/189 188/188/188
f 191/191/191 188/188/188 189/189/189
f 194/194/194 193/193/193 192/192/192
f 195/195/195 192/192/192 193/193/193
f 198/198/198 197/197/197 196/196/196
f 199/199/199 196/196/196 197/197/197
f 202/202/202 201/201/201 200/200/200
f 203/203/203 200/200/200 201/201/201
f 206/206/206 205/205/205 204/204/204
f 207/207/207 204/204/204 205/205/205
f 210/210/210 209/209/209 208/208/208
f 211/211/211 208/208/208 209/209/209
f 214/214/214 213/213/213 212/212/212
f 215/215/215 212/212/212 213/213/213
f 218/218/218 217/217/217 216/216/216
f 219/219/219 216/216/216 217/217/217
f 222/222/222 221/221/221 220/220/220
f 223/223/223 220/220/220 221/221/221
f 226/226/226 225/225/225 224/224/224
f 227/227/227 224/224/224 225/225/225
f 230/230/230 229/229/229 228/228/228
f 231/231/231 228/228/228 229/229/229
f 234/234/234 233/233/233 232/232/232
f 235/235/235 232/232/232 233/233/233
f 237/237/237 236/236/236 233/233/233
f 238/238/238 233/233/233 236/236/236
f 241/241/241 240/240/240 239/239/239
f 242/242/242 239/239/239 240/240/240
