g key_hospital
v -0.2083015 0.0765903 -0.1119395
v -0.2083015 -0.1119394 0.07658994
v -0.1916466 -0.1119394 0.07658994
v -0.1916466 0.0765903 -0.1119395
v 0.1916237 -0.1237226 0.088373
v -0.1916466 -0.1237226 0.088373
v -0.1916466 -0.08837318 0.1237223
v 0.1916237 -0.08837318 0.1237223
v 0.1916237 -0.1237226 0.088373
v 0.1916237 -0.08837318 0.1237223
v 0.1916237 0.1237223 -0.08837336
v 0.1916237 0.08837318 -0.1237226
v -0.1916466 -0.1119394 0.07658994
v -0.2083015 -0.1119394 0.07658994
v -0.2083015 -0.0765903 0.1119392
v -0.1916466 -0.0765903 0.1119392
v 0.1916237 0.1237223 -0.08837336
v -0.1916466 0.1237223 -0.08837336
v -0.1916466 0.08837318 -0.1237226
v 0.1916237 0.08837318 -0.1237226
v -0.1916466 0.08837318 -0.1237226
v -0.1916466 -0.1237226 0.088373
v 0.1916237 -0.1237226 0.088373
v 0.1916237 0.08837318 -0.1237226
v -0.1916466 0.1119394 -0.07659024
v -0.1916466 -0.0765903 0.1119392
v -0.2083015 -0.0765903 0.1119392
v -0.2083015 0.1119394 -0.07659024
v 0.2082939 -0.1119394 0.07658994
v 0.2082939 -0.0765903 0.1119392
v 0.2082939 0.1119394 -0.07659024
v 0.2082939 0.0765903 -0.1119395
v -0.2083015 0.0765903 -0.1119395
v -0.2083015 0.1119394 -0.07659024
v -0.2083015 -0.0765903 0.1119392
v -0.2083015 -0.1119394 0.07658994
v 0.2082939 -0.1119394 0.07658994
v 0.1916237 -0.1119394 0.07658994
v 0.1916237 -0.0765903 0.1119392
v 0.2082939 -0.0765903 0.1119392
v 0.2082939 0.1119394 -0.07659024
v 0.1916237 0.1119394 -0.07659024
v 0.1916237 0.0765903 -0.1119395
v 0.2082939 0.0765903 -0.1119395
v -0.1916466 0.1237223 -0.08837336
v 0.1916237 0.1237223 -0.08837336
v 0.1916237 -0.08837318 0.1237223
v -0.1916466 -0.08837318 0.1237223
v 0.1916237 0.0765903 -0.1119395
v 0.1916237 -0.1119394 0.07658994
v 0.2082939 -0.1119394 0.07658994
v 0.2082939 0.0765903 -0.1119395
v 0.2082939 0.1119394 -0.07659024
v 0.2082939 -0.0765903 0.1119392
v 0.1916237 -0.0765903 0.1119392
v 0.1916237 0.1119394 -0.07659024
v -0.1916466 0.1119394 -0.07659024
v -0.2083015 0.1119394 -0.07659024
v -0.2083015 0.0765903 -0.1119395
v -0.1916466 0.0765903 -0.1119395
v -0.1916466 0.08837318 -0.1237226
v -0.1916466 0.1237223 -0.08837336
v -0.1916466 -0.08837318 0.1237223
v -0.1916466 -0.1237226 0.088373
vt 0.8515625 0.015625
vt 0.8515625 0.140625
vt 0.859375 0.140625
vt 0.859375 0.015625
vt 0.46875 0.546875
vt 0.6484375 0.546875
vt 0.6484375 0.5234375
vt 0.46875 0.5234375
vt 0.46875 0.546875
vt 0.46875 0.5234375
vt 0.328125 0.5234375
vt 0.328125 0.546875
vt 0.4296875 0.9140625
vt 0.4296875 0.921875
vt 0.453125 0.921875
vt 0.453125 0.9140625
vt 0.328125 0.5234375
vt 0.1484375 0.5234375
vt 0.1484375 0.546875
vt 0.328125 0.546875
vt 0.390625 0.359375
vt 0.390625 0.21875
vt 0.2109375 0.21875
vt 0.2109375 0.359375
vt 0.7109375 0.140625
vt 0.8359375 0.140625
vt 0.8359375 0.1328125
vt 0.7109375 0.1328125
vt 0.7890625 0.3828125
vt 0.8125 0.3828125
vt 0.8125 0.2578125
vt 0.7890625 0.2578125
vt 0.8125 0.3984375
vt 0.7890625 0.3984375
vt 0.7890625 0.5234375
vt 0.8125 0.5234375
vt 0.9140625 0.5546875
vt 0.90625 0.5546875
vt 0.90625 0.578125
vt 0.9140625 0.578125
vt 0.9140625 0.921875
vt 0.9140625 0.9140625
vt 0.890625 0.9140625
vt 0.890625 0.921875
vt 0.359375 0.1953125
vt 0.359375 0.015625
vt 0.21875 0.015625
vt 0.21875 0.1953125
vt 0.546875 0.8671875
vt 0.671875 0.8671875
vt 0.671875 0.859375
vt 0.546875 0.859375
vt 0.7265625 0.40625
vt 0.7265625 0.53125
vt 0.734375 0.53125
vt 0.734375 0.40625
vt 0.1328125 0.921875
vt 0.1328125 0.9140625
vt 0.109375 0.9140625
vt 0.109375 0.921875
vt 0.1484375 0.546875
vt 0.1484375 0.5234375
vt 0.0078125 0.5234375
vt 0.0078125 0.546875
vn 0 -0.7071061 -0.7071074
vn 0 -0.7071061 -0.7071074
vn 0 -0.7071061 -0.7071074
vn 0 -0.7071061 -0.7071074
vn 0 -0.7071061 0.7071074
vn 0 -0.7071061 0.7071074
vn 0 -0.7071061 0.7071074
vn 0 -0.7071061 0.7071074
vn 1 0 0
vn 1 0 0
vn 1 0 0
vn 1 0 0
vn 0 -0.7071081 0.7071054
vn 0 -0.7071081 0.7071054
vn 0 -0.7071081 0.7071054
vn 0 -0.7071081 0.7071054
vn 0 0.7071079 -0.7071056
vn 0 0.7071079 -0.7071056
vn 0 0.7071079 -0.7071056
vn 0 0.7071079 -0.7071056
vn 0 -0.7071066 -0.7071069
vn 0 -0.7071066 -0.7071069
vn 0 -0.7071066 -0.7071069
vn 0 -0.7071066 -0.7071069
vn 0 0.7071061 0.7071074
vn 0 0.7071061 0.7071074
vn 0 0.7071061 0.7071074
vn 0 0.7071061 0.7071074
vn 1 0 0
vn 1 0 0
vn 1 0 0
vn 1 0 0
vn -1 0 0
vn -1 0 0
vn -1 0 0
vn -1 0 0
vn 0 -0.7071078 0.7071056
vn 0 -0.7071078 0.7071056
vn 0 -0.7071078 0.7071056
vn 0 -0.7071078 0.7071056
vn 0 0.707108 -0.7071056
vn 0 0.707108 -0.7071056
vn 0 0.707108 -0.7071056
vn 0 0.707108 -0.7071056
vn 0 0.707107 0.7071065
vn 0 0.707107 0.7071065
vn 0 0.707107 0.7071065
vn 0 0.707107 0.7071065
vn 0 -0.7071062 -0.7071073
vn 0 -0.7071062 -0.7071073
vn 0 -0.7071062 -0.7071073
vn 0 -0.7071062 -0.7071073
vn 0 0.7071061 0.7071074
vn 0 0.7071061 0.7071074
vn 0 0.7071061 0.7071074
vn 0 0.7071061 0.7071074
vn 0 0.7071081 -0.7071053
vn 0 0.7071081 -0.7071053
vn 0 0.7071081 -0.7071053
vn 0 0.7071081 -0.7071053
vn -1 0 0
vn -1 0 0
vn -1 0 0
vn -1 0 0
g key_hospital_0
f 3/3/3 2/2/2 1/1/1
f 4/4/4 3/3/3 1/1/1
f 7/7/7 6/6/6 5/5/5
f 8/8/8 7/7/7 5/5/5
f 11/11/11 10/10/10 9/9/9
f 12/12/12 11/11/11 9/9/9
f 15/15/15 14/14/14 13/13/13
f 16/16/16 15/15/15 13/13/13
f 19/19/19 18/18/18 17/17/17
f 20/20/20 19/19/19 17/17/17
f 23/23/23 22/22/22 21/21/21
f 24/24/24 23/23/23 21/21/21
f 27/27/27 26/26/26 25/25/25
f 28/28/28 27/27/27 25/25/25
f 31/31/31 30/30/30 29/29/29
f 32/32/32 31/31/31 29/29/29
f 35/35/35 34/34/34 33/33/33
f 36/36/36 35/35/35 33/33/33
f 39/39/39 38/38/38 37/37/37
f 40/40/40 39/39/39 37/37/37
f 43/43/43 42/42/42 41/41/41
f 44/44/44 43/43/43 41/41/41
f 47/47/47 46/46/46 45/45/45
f 48/48/48 47/47/47 45/45/45
f 51/51/51 50/50/50 49/49/49
f 52/52/52 51/51/51 49/49/49
f 55/55/55 54/54/54 53/53/53
f 56/56/56 55/55/55 53/53/53
f 59/59/59 58/58/58 57/57/57
f 60/60/60 59/59/59 57/57/57
f 63/63/63 62/62/62 61/61/61
f 64/64/64 63/63/63 61/61/61
