g kriloL (4)
v 4.101376 2.625552 0.1215826
v -0.04381165 -0.1704122 0.1215826
v -0.1836098 0.03684726 0.1215826
v 3.961577 2.832812 0.1215826
v 4.101376 2.625552 -0.1484171
v 4.101376 2.625552 0.1215826
v 3.961577 2.832812 0.1215826
v 3.961577 2.832812 -0.1484171
v 3.961577 2.832812 -0.1484171
v 3.961577 2.832812 0.1215826
v -0.1836098 0.03684726 0.1215826
v -0.1836098 0.03684726 -0.1484171
v -0.1836098 0.03684726 -0.1484171
v -0.1836098 0.03684726 0.1215826
v -0.04381165 -0.1704122 0.1215826
v -0.04381165 -0.1704122 -0.1484171
v -0.04381165 -0.1704122 -0.1484171
v -0.04381165 -0.1704122 0.1215826
v 4.101376 2.625552 0.1215826
v 4.101376 2.625552 -0.1484171
v 4.101376 2.625552 -0.1484171
v 3.961577 2.832812 -0.1484171
v -0.1836098 0.03684726 -0.1484171
v -0.04381165 -0.1704122 -0.1484171
vt -26.07869 -18.76509
vt -10.4444 -6.354836
vt -9.785259 -7.183882
vt -25.41954 -19.59414
vt -19.00523 -0.2977757
vt -18.76509 -1.37567
vt -19.59414 -1.378011
vt -19.83428 -0.3001161
vt 26.71775 -0.3001161
vt 26.41954 -1.378011
vt 10.78526 5.712276
vt 11.08347 6.790171
vt 8.424025 6.790171
vt 8.183882 5.712276
vt 7.354836 5.714617
vt 7.594979 6.792512
vt -10.74262 6.792512
vt -10.4444 5.714617
vt -26.07869 -1.37567
vt -26.3769 -0.2977757
vt 27.3769 -19.00523
vt 26.71775 -19.83428
vt 11.08347 -7.424025
vt 11.74262 -6.594979
vn 0 0 1
vn 0 0 1
vn 0 0 1
vn 0 0 1
vn 0.8290371 0.5591937 0
vn 0.8290371 0.5591937 0
vn 0.8290371 0.5591937 0
vn 0.8290371 0.5591937 0
vn -0.559193 0.8290375 0
vn -0.559193 0.8290375 0
vn -0.559193 0.8290375 0
vn -0.559193 0.8290375 0
vn -0.8290377 -0.5591928 0
vn -0.8290377 -0.5591928 0
vn -0.8290377 -0.5591928 0
vn -0.8290377 -0.5591928 0
vn 0.5591929 -0.8290376 0
vn 0.5591929 -0.8290376 0
vn 0.5591929 -0.8290376 0
vn 0.5591929 -0.8290376 0
vn 0 0 -1
vn 0 0 -1
vn 0 0 -1
vn 0 0 -1
g kriloL (4)_0
f 3/3/3 2/2/2 1/1/1
f 4/4/4 3/3/3 1/1/1
f 7/7/7 6/6/6 5/5/5
f 8/8/8 7/7/7 5/5/5
f 11/11/11 10/10/10 9/9/9
f 12/12/12 11/11/11 9/9/9
f 15/15/15 14/14/14 13/13/13
f 16/16/16 15/15/15 13/13/13
f 19/19/19 18/18/18 17/17/17
f 20/20/20 19/19/19 17/17/17
f 23/23/23 22/22/22 21/21/21
f 24/24/24 23/23/23 21/21/21
