# Mesh "kriloL (2)" exported with Unity Assets Bundle Extractor; 24 vertices, 36 indices, 256 bits per vertex
g kriloL (2)
# SubMesh 0
# Vertices
v 4.880260 0.075272 -0.037223
vt -45.645027 -20.154556
vn 0.015053 -0.999887 -0.000000
v -0.119741 0.000000 -0.116275
vt -25.224947 -18.701998
vn 0.015053 -0.999887 -0.000000
v -0.119741 0.000000 0.133724
vt -25.117136 -19.737911
vn 0.015053 -0.999887 -0.000000
v 4.880260 0.075272 0.049672
vt -45.607555 -20.514622
vn 0.015053 -0.999887 -0.000000
v 4.880260 0.194045 -0.037223
vt -20.256304 -6.143833
vn 1.000000 0.000000 0.000000
v 4.880260 0.075272 -0.037223
vt -20.154556 -6.619736
vn 1.000000 0.000000 0.000000
v 4.880260 0.075272 0.049672
vt -20.514622 -6.686643
vn 1.000000 0.000000 0.000000
v 4.880260 0.194045 0.049672
vt -20.616367 -6.210740
vn 1.000000 0.000000 0.000000
v 4.880260 0.194045 0.049672
vt 46.735489 -6.210740
vn 0.016808 0.000000 0.999859
v 4.880260 0.075272 0.049672
vt 46.607555 -6.686643
vn 0.016808 0.000000 0.999859
v -0.119741 0.000000 0.133724
vt 26.117136 -1.349481
vn 0.016808 0.000000 0.999859
v -0.119741 0.270000 0.133724
vt 26.407959 -0.267639
vn 0.016808 0.000000 0.999859
v -0.119741 0.270000 0.133724
vt 20.969204 -0.267639
vn -1.000000 0.000000 0.000000
v -0.119741 0.000000 0.133724
vt 20.737911 -1.349481
vn -1.000000 0.000000 0.000000
v -0.119741 0.000000 -0.116275
vt 19.701998 -1.156989
vn -1.000000 0.000000 0.000000
v -0.119741 0.270000 -0.116275
vt 19.933292 -0.075148
vn -1.000000 0.000000 0.000000
v -0.119741 0.270000 -0.116275
vt -25.515772 -0.075148
vn 0.015808 0.000000 -0.999875
v -0.119741 0.000000 -0.116275
vt -25.224947 -1.156989
vn 0.015808 0.000000 -0.999875
v 4.880260 0.075272 -0.037223
vt -45.645027 -6.619736
vn 0.015808 0.000000 -0.999875
v 4.880260 0.194045 -0.037223
vt -45.772964 -6.143833
vn 0.015808 0.000000 -0.999875
v 4.880260 0.194045 -0.037223
vt 46.772964 -20.256304
vn 0.015189 0.999885 0.000000
v 4.880260 0.194045 0.049672
vt 46.735489 -20.616367
vn 0.015189 0.999885 0.000000
v -0.119741 0.270000 0.133724
vt 26.407959 -19.969204
vn 0.015189 0.999885 0.000000
v -0.119741 0.270000 -0.116275
vt 26.515772 -18.933292
vn 0.015189 0.999885 0.000000
# Faces (1 to 24)
g kriloL (2)_0
f -22/-22/-22 -23/-23/-23 -24/-24/-24
f -21/-21/-21 -22/-22/-22 -24/-24/-24
f -18/-18/-18 -19/-19/-19 -20/-20/-20
f -17/-17/-17 -18/-18/-18 -20/-20/-20
f -14/-14/-14 -15/-15/-15 -16/-16/-16
f -13/-13/-13 -14/-14/-14 -16/-16/-16
f -10/-10/-10 -11/-11/-11 -12/-12/-12
f -9/-9/-9 -10/-10/-10 -12/-12/-12
f -6/-6/-6 -7/-7/-7 -8/-8/-8
f -5/-5/-5 -6/-6/-6 -8/-8/-8
f -2/-2/-2 -3/-3/-3 -4/-4/-4
f -1/-1/-1 -2/-2/-2 -4/-4/-4

