g kriloL (4)001
v 4.101376 -2.625552 -0.1307982
v -0.04381162 0.1704125 -0.1307982
v -0.1836098 -0.03684694 -0.1307982
v 3.961577 -2.832811 -0.1307982
v 4.101376 -2.625552 0.1392015
v 4.101376 -2.625552 -0.1307982
v 3.961577 -2.832811 -0.1307982
v 3.961577 -2.832811 0.1392015
v 3.961577 -2.832811 0.1392015
v 3.961577 -2.832811 -0.1307982
v -0.1836098 -0.03684694 -0.1307982
v -0.1836098 -0.03684694 0.1392015
v -0.1836098 -0.03684694 0.1392015
v -0.1836098 -0.03684694 -0.1307982
v -0.04381162 0.1704125 -0.1307982
v -0.04381162 0.1704125 0.1392015
v -0.04381162 0.1704125 0.1392015
v -0.04381162 0.1704125 -0.1307982
v 4.101376 -2.625552 -0.1307982
v 4.101376 -2.625552 0.1392015
v 4.101376 -2.625552 0.1392015
v 3.961577 -2.832811 0.1392015
v -0.1836098 -0.03684694 0.1392015
v -0.04381162 0.1704125 0.1392015
vt -25.77049 -19.06606
vt -10.1949 -6.597915
vt -9.53069 -7.422865
vt -25.10627 -19.89101
vt 19.81833 -1.364584
vt 20.06606 -0.2872548
vt 20.89101 -0.2956738
vt 20.64329 -1.373003
vt -24.81225 -1.373003
vt -25.10627 -0.2956738
vt -9.53069 6.822168
vt -9.236669 5.744839
vt -7.175137 5.744839
vt -7.422865 6.822168
vt -6.597915 6.830587
vt -6.350187 5.753258
vt 10.90088 5.753258
vt 11.1949 6.830587
vt 26.77049 -0.2872548
vt 26.47647 -1.364584
vt 26.47647 -18.81833
vt 25.81225 -19.64329
vt 10.23667 -7.175137
vt 10.90088 -6.350187
vn 0 0 -1
vn 0 0 -1
vn 0 0 -1
vn 0 0 -1
vn 0.8290371 -0.5591937 0
vn 0.8290371 -0.5591937 0
vn 0.8290371 -0.5591937 0
vn 0.8290371 -0.5591937 0
vn -0.559193 -0.8290375 0
vn -0.559193 -0.8290375 0
vn -0.559193 -0.8290375 0
vn -0.559193 -0.8290375 0
vn -0.8290377 0.5591928 0
vn -0.8290377 0.5591928 0
vn -0.8290377 0.5591928 0
vn -0.8290377 0.5591928 0
vn 0.5591929 0.8290376 0
vn 0.5591929 0.8290376 0
vn 0.5591929 0.8290376 0
vn 0.5591929 0.8290376 0
vn 0 0 1
vn 0 0 1
vn 0 0 1
vn 0 0 1
g kriloL (4)001_0
f 3/3/3 2/2/2 1/1/1
f 4/4/4 3/3/3 1/1/1
f 7/7/7 6/6/6 5/5/5
f 8/8/8 7/7/7 5/5/5
f 11/11/11 10/10/10 9/9/9
f 12/12/12 11/11/11 9/9/9
f 15/15/15 14/14/14 13/13/13
f 16/16/16 15/15/15 13/13/13
f 19/19/19 18/18/18 17/17/17
f 20/20/20 19/19/19 17/17/17
f 23/23/23 22/22/22 21/21/21
f 24/24/24 23/23/23 21/21/21
