# Mesh "Lab_piranha_rocket_mesh" exported with Unity Assets Bundle Extractor; 124 vertices, 186 indices, 256 bits per vertex
g Lab_piranha_rocket_mesh
# SubMesh 0
# Vertices
v 0.006597 -0.254004 0.010001
vt 0.328125 0.562500
vn -0.000000 0.000000 1.000000
v 0.028265 -0.272185 0.010001
vt 0.343750 0.578125
vn -0.000000 0.000000 1.000000
v 0.008341 -0.273928 0.010001
vt 0.343750 0.562500
vn -0.000000 0.000000 1.000000
v 0.026521 -0.252261 0.010001
vt 0.328125 0.578125
vn -0.000000 0.000000 1.000000
v 0.006597 -0.254005 -0.010000
vt 0.328125 0.578125
vn 0.000004 0.000000 -1.000000
v 0.028265 -0.272185 -0.009999
vt 0.343750 0.562500
vn 0.000004 0.000000 -1.000000
v 0.026521 -0.252261 -0.009999
vt 0.328125 0.562500
vn 0.000004 0.000000 -1.000000
v 0.008341 -0.273929 -0.010000
vt 0.343750 0.578125
vn 0.000004 0.000000 -1.000000
v 0.006597 -0.254004 0.010001
vt 0.328125 0.578125
vn -0.996195 -0.087156 0.000001
v 0.008341 -0.273929 -0.010000
vt 0.343750 0.562500
vn -0.996195 -0.087156 0.000001
v 0.006597 -0.254005 -0.010000
vt 0.328125 0.562500
vn -0.996195 -0.087156 0.000001
v 0.008341 -0.273928 0.010001
vt 0.343750 0.578125
vn -0.996195 -0.087155 -0.000001
v 0.008341 -0.273928 0.010001
vt 0.328125 0.578125
vn 0.087158 -0.996194 0.000008
v 0.028265 -0.272185 -0.009999
vt 0.343750 0.562500
vn 0.087158 -0.996194 0.000008
v 0.008341 -0.273929 -0.010000
vt 0.328125 0.562500
vn 0.087158 -0.996194 0.000008
v 0.028265 -0.272185 0.010001
vt 0.343750 0.578125
vn 0.087151 -0.996195 0.000000
v 0.028265 -0.272185 0.010001
vt 0.328125 0.578125
vn 0.996195 0.087155 0.000000
v 0.026521 -0.252261 -0.009999
vt 0.343750 0.562500
vn 0.996195 0.087155 0.000000
v 0.028265 -0.272185 -0.009999
vt 0.328125 0.562500
vn 0.996195 0.087155 0.000000
v 0.026521 -0.252261 0.010001
vt 0.343750 0.578125
vn 0.996195 0.087155 0.000000
v -0.012576 -0.034842 0.050000
vt 0.390514 0.078141
vn -0.000000 0.000004 1.000000
v 0.012577 -0.092871 0.050000
vt 0.343639 0.062516
vn -0.000000 0.000004 1.000000
v -0.007347 -0.094614 0.050000
vt 0.343639 0.078141
vn -0.000000 0.000004 1.000000
v 0.007348 -0.033099 0.050000
vt 0.390514 0.062516
vn -0.000000 0.000004 1.000000
v -0.012576 -0.034842 0.050000
vt 0.390514 0.062516
vn -0.996195 -0.087156 0.000002
v -0.007347 -0.094614 0.030000
vt 0.343639 0.078141
vn -0.996195 -0.087156 0.000002
v -0.012576 -0.034842 0.030000
vt 0.390514 0.078141
vn -0.996195 -0.087156 0.000002
v -0.007347 -0.094614 0.050000
vt 0.343639 0.062516
vn -0.996195 -0.087155 0.000000
v -0.007347 -0.094614 0.050000
vt 0.343639 0.078141
vn 0.087158 -0.996194 0.000004
v 0.012577 -0.092871 0.030000
vt 0.359264 0.062516
vn 0.087158 -0.996194 0.000004
v -0.007347 -0.094614 0.030000
vt 0.343639 0.062516
vn 0.087158 -0.996194 0.000004
v 0.012577 -0.092871 0.050000
vt 0.359264 0.078141
vn 0.087154 -0.996195 -0.000000
v 0.012577 -0.092871 0.050000
vt 0.390514 0.062516
vn 0.996195 0.087156 -0.000001
v 0.007348 -0.033099 0.030000
vt 0.343639 0.078141
vn 0.996195 0.087156 -0.000001
v 0.012577 -0.092871 0.030000
vt 0.390514 0.078141
vn 0.996195 0.087156 -0.000001
v 0.007348 -0.033099 0.050000
vt 0.343639 0.062516
vn 0.996195 0.087156 -0.000001
v 0.007348 -0.033099 0.050000
vt 0.343639 0.078141
vn -0.087151 0.996195 -0.000008
v -0.012576 -0.034842 0.030000
vt 0.359264 0.062516
vn -0.087151 0.996195 -0.000008
v 0.007348 -0.033099 0.030000
vt 0.343639 0.062516
vn -0.087151 0.996195 -0.000008
v -0.012576 -0.034842 0.050000
vt 0.359264 0.078141
vn -0.087151 0.996195 -0.000007
v -0.012576 -0.034842 -0.050000
vt 0.390514 0.062516
vn 0.000000 -0.000003 -1.000000
v 0.012577 -0.092871 -0.050000
vt 0.343639 0.078141
vn 0.000000 -0.000003 -1.000000
v 0.007348 -0.033099 -0.050000
vt 0.390514 0.078141
vn 0.000000 -0.000003 -1.000000
v -0.007347 -0.094614 -0.050000
vt 0.343639 0.062516
vn 0.000000 -0.000003 -1.000000
v -0.012576 -0.034842 -0.030000
vt 0.390514 0.062516
vn -0.996195 -0.087156 -0.000000
v -0.007347 -0.094614 -0.050000
vt 0.343639 0.078141
vn -0.996195 -0.087156 -0.000000
v -0.012576 -0.034842 -0.050000
vt 0.390514 0.078141
vn -0.996195 -0.087156 -0.000000
v -0.007347 -0.094614 -0.030000
vt 0.343639 0.062516
vn -0.996195 -0.087156 -0.000000
v -0.007347 -0.094614 -0.030000
vt 0.343639 0.078141
vn 0.087158 -0.996194 0.000000
v 0.012577 -0.092871 -0.050000
vt 0.359264 0.062516
vn 0.087158 -0.996194 0.000000
v -0.007347 -0.094614 -0.050000
vt 0.343639 0.062516
vn 0.087158 -0.996194 0.000000
v 0.012577 -0.092871 -0.030000
vt 0.359264 0.078141
vn 0.087154 -0.996195 -0.000004
v 0.012577 -0.092871 -0.030000
vt 0.390514 0.062516
vn 0.996195 0.087156 0.000001
v 0.007348 -0.033099 -0.050000
vt 0.343639 0.078141
vn 0.996195 0.087156 0.000001
v 0.012577 -0.092871 -0.050000
vt 0.390514 0.078141
vn 0.996195 0.087156 0.000001
v 0.007348 -0.033099 -0.030000
vt 0.343639 0.062516
vn 0.996195 0.087155 0.000000
v 0.007348 -0.033099 -0.030000
vt 0.343639 0.078141
vn -0.087162 0.996194 0.000004
v -0.012576 -0.034842 -0.050000
vt 0.359264 0.062516
vn -0.087162 0.996194 0.000004
v 0.007348 -0.033099 -0.050000
vt 0.343639 0.062516
vn -0.087162 0.996194 0.000004
v -0.012576 -0.034842 -0.030000
vt 0.359264 0.078141
vn -0.087162 0.996194 0.000004
v -0.052424 -0.038328 0.010000
vt 0.390514 0.078141
vn 0.000003 0.000004 1.000000
v -0.027271 -0.096356 0.010000
vt 0.343639 0.062516
vn 0.000003 0.000004 1.000000
v -0.047195 -0.098100 0.010000
vt 0.343639 0.078141
vn 0.000003 0.000004 1.000000
v -0.032500 -0.036585 0.010000
vt 0.390514 0.062516
vn 0.000003 0.000004 1.000000
v -0.052424 -0.038328 -0.010000
vt 0.390514 0.062516
vn -0.000004 -0.000002 -1.000000
v -0.027271 -0.096357 -0.010000
vt 0.343639 0.078141
vn -0.000004 -0.000002 -1.000000
v -0.032500 -0.036585 -0.010000
vt 0.390514 0.078141
vn -0.000004 -0.000002 -1.000000
v -0.047195 -0.098100 -0.010000
vt 0.343639 0.062516
vn -0.000004 -0.000002 -1.000000
v -0.052424 -0.038328 0.010000
vt 0.390514 0.062516
vn -0.996195 -0.087156 -0.000000
v -0.047195 -0.098100 -0.010000
vt 0.343639 0.078141
vn -0.996195 -0.087156 -0.000000
v -0.052424 -0.038328 -0.010000
vt 0.390514 0.078141
vn -0.996195 -0.087156 -0.000000
v -0.047195 -0.098100 0.010000
vt 0.343639 0.062516
vn -0.996195 -0.087156 0.000000
v -0.047195 -0.098100 0.010000
vt 0.343639 0.078141
vn 0.087154 -0.996195 0.000004
v -0.027271 -0.096357 -0.010000
vt 0.359264 0.062516
vn 0.087154 -0.996195 0.000004
v -0.047195 -0.098100 -0.010000
vt 0.343639 0.062516
vn 0.087154 -0.996195 0.000004
v -0.027271 -0.096356 0.010000
vt 0.359264 0.078141
vn 0.087154 -0.996195 0.000004
v -0.032500 -0.036585 0.010000
vt 0.343639 0.078141
vn -0.087154 0.996195 0.000000
v -0.052424 -0.038328 -0.010000
vt 0.359264 0.062516
vn -0.087154 0.996195 0.000000
v -0.032500 -0.036585 -0.010000
vt 0.343639 0.062516
vn -0.087154 0.996195 0.000000
v -0.052424 -0.038328 0.010000
vt 0.359264 0.078141
vn -0.087151 0.996195 -0.000004
v 0.027271 -0.031355 0.009999
vt 0.390514 0.078141
vn -0.000000 0.000004 1.000000
v 0.052424 -0.089383 0.009999
vt 0.343639 0.062516
vn -0.000000 0.000004 1.000000
v 0.032500 -0.091126 0.009999
vt 0.343639 0.078141
vn -0.000000 0.000004 1.000000
v 0.047195 -0.029612 0.009999
vt 0.390514 0.062516
vn -0.000000 0.000004 1.000000
v 0.027271 -0.031355 -0.010001
vt 0.390514 0.062516
vn 0.000000 -0.000003 -1.000000
v 0.052424 -0.089383 -0.010001
vt 0.343639 0.078141
vn 0.000000 -0.000003 -1.000000
v 0.047195 -0.029612 -0.010001
vt 0.390514 0.078141
vn 0.000000 -0.000003 -1.000000
v 0.032500 -0.091126 -0.010001
vt 0.343639 0.062516
vn 0.000000 -0.000003 -1.000000
v 0.032500 -0.091126 0.009999
vt 0.343639 0.078141
vn 0.087158 -0.996194 0.000004
v 0.052424 -0.089383 -0.010001
vt 0.359264 0.062516
vn 0.087158 -0.996194 0.000004
v 0.032500 -0.091126 -0.010001
vt 0.343639 0.062516
vn 0.087158 -0.996194 0.000004
v 0.052424 -0.089383 0.009999
vt 0.359264 0.078141
vn 0.087151 -0.996195 -0.000004
v 0.052424 -0.089383 0.009999
vt 0.390514 0.062516
vn 0.996195 0.087156 0.000000
v 0.047195 -0.029612 -0.010001
vt 0.343639 0.078141
vn 0.996195 0.087156 0.000000
v 0.052424 -0.089383 -0.010001
vt 0.390514 0.078141
vn 0.996195 0.087156 0.000000
v 0.047195 -0.029612 0.009999
vt 0.343639 0.062516
vn 0.996195 0.087156 -0.000000
v 0.047195 -0.029612 0.009999
vt 0.343639 0.078141
vn -0.087147 0.996195 -0.000004
v 0.027271 -0.031355 -0.010001
vt 0.359264 0.062516
vn -0.087147 0.996195 -0.000004
v 0.047195 -0.029612 -0.010001
vt 0.343639 0.062516
vn -0.087147 0.996195 -0.000004
v 0.027271 -0.031355 0.009999
vt 0.359264 0.078141
vn -0.087154 0.996195 0.000004
v -0.035987 0.003263 0.029999
vt 0.968750 0.328141
vn -0.000000 0.000003 1.000000
v 0.046446 -0.250518 0.030000
vt 0.765625 0.281266
vn -0.000000 0.000003 1.000000
v -0.013326 -0.255748 0.030000
vt 0.765625 0.328141
vn -0.000000 0.000003 1.000000
v 0.023785 0.008493 0.029999
vt 0.968750 0.281266
vn -0.000000 0.000003 1.000000
v -0.035987 0.003263 -0.030000
vt 0.968750 0.281266
vn -0.000001 -0.000003 -1.000000
v 0.046446 -0.250518 -0.030000
vt 0.765625 0.328141
vn -0.000001 -0.000003 -1.000000
v 0.023785 0.008492 -0.030000
vt 0.968750 0.328141
vn -0.000001 -0.000003 -1.000000
v -0.013326 -0.255748 -0.030000
vt 0.765625 0.281266
vn 0.000001 -0.000002 -1.000000
v -0.035987 0.003263 0.029999
vt 0.968750 0.328141
vn -0.996195 -0.087156 0.000001
v -0.013326 -0.255748 -0.030000
vt 0.765625 0.281266
vn -0.996195 -0.087156 0.000001
v -0.035987 0.003263 -0.030000
vt 0.968750 0.281266
vn -0.996195 -0.087156 0.000001
v -0.013326 -0.255748 0.030000
vt 0.765625 0.328141
vn -0.996195 -0.087156 0.000001
v -0.013326 -0.255748 0.030000
vt 0.937500 0.640625
vn 0.087158 -0.996194 0.000003
v 0.046446 -0.250518 -0.030000
vt 0.984375 0.593750
vn 0.087158 -0.996194 0.000003
v -0.013326 -0.255748 -0.030000
vt 0.937500 0.593750
vn 0.087158 -0.996194 0.000003
v 0.046446 -0.250518 0.030000
vt 0.984375 0.640625
vn 0.087156 -0.996195 0.000000
v 0.046446 -0.250518 0.030000
vt 0.765625 0.328141
vn 0.996195 0.087156 -0.000000
v 0.023785 0.008492 -0.030000
vt 0.968750 0.281266
vn 0.996195 0.087156 -0.000000
v 0.046446 -0.250518 -0.030000
vt 0.765625 0.281266
vn 0.996195 0.087156 -0.000000
v 0.023785 0.008493 0.029999
vt 0.968750 0.328141
vn 0.996195 0.087156 -0.000000
v 0.023785 0.008493 0.029999
vt 0.203014 0.218766
vn -0.087156 0.996195 -0.000001
v -0.035987 0.003263 -0.030000
vt 0.249889 0.171891
vn -0.087156 0.996195 -0.000001
v 0.023785 0.008492 -0.030000
vt 0.203014 0.171891
vn -0.087156 0.996195 -0.000001
v -0.035987 0.003263 0.029999
vt 0.249889 0.218766
vn -0.087156 0.996195 -0.000001
# Faces (1 to 124)
g Lab_piranha_rocket_mesh_0
f -122/-122/-122 -123/-123/-123 -124/-124/-124
f -121/-121/-121 -124/-124/-124 -123/-123/-123
f -118/-118/-118 -119/-119/-119 -120/-120/-120
f -117/-117/-117 -120/-120/-120 -119/-119/-119
f -114/-114/-114 -115/-115/-115 -116/-116/-116
f -113/-113/-113 -116/-116/-116 -115/-115/-115
f -110/-110/-110 -111/-111/-111 -112/-112/-112
f -109/-109/-109 -112/-112/-112 -111/-111/-111
f -106/-106/-106 -107/-107/-107 -108/-108/-108
f -105/-105/-105 -108/-108/-108 -107/-107/-107
f -102/-102/-102 -103/-103/-103 -104/-104/-104
f -101/-101/-101 -104/-104/-104 -103/-103/-103
f -98/-98/-98 -99/-99/-99 -100/-100/-100
f -97/-97/-97 -100/-100/-100 -99/-99/-99
f -94/-94/-94 -95/-95/-95 -96/-96/-96
f -93/-93/-93 -96/-96/-96 -95/-95/-95
f -90/-90/-90 -91/-91/-91 -92/-92/-92
f -89/-89/-89 -92/-92/-92 -91/-91/-91
f -86/-86/-86 -87/-87/-87 -88/-88/-88
f -85/-85/-85 -88/-88/-88 -87/-87/-87
f -82/-82/-82 -83/-83/-83 -84/-84/-84
f -81/-81/-81 -84/-84/-84 -83/-83/-83
f -78/-78/-78 -79/-79/-79 -80/-80/-80
f -77/-77/-77 -80/-80/-80 -79/-79/-79
f -74/-74/-74 -75/-75/-75 -76/-76/-76
f -73/-73/-73 -76/-76/-76 -75/-75/-75
f -70/-70/-70 -71/-71/-71 -72/-72/-72
f -69/-69/-69 -72/-72/-72 -71/-71/-71
f -66/-66/-66 -67/-67/-67 -68/-68/-68
f -65/-65/-65 -68/-68/-68 -67/-67/-67
f -62/-62/-62 -63/-63/-63 -64/-64/-64
f -61/-61/-61 -64/-64/-64 -63/-63/-63
f -58/-58/-58 -59/-59/-59 -60/-60/-60
f -57/-57/-57 -60/-60/-60 -59/-59/-59
f -54/-54/-54 -55/-55/-55 -56/-56/-56
f -53/-53/-53 -56/-56/-56 -55/-55/-55
f -50/-50/-50 -51/-51/-51 -52/-52/-52
f -49/-49/-49 -52/-52/-52 -51/-51/-51
f -46/-46/-46 -47/-47/-47 -48/-48/-48
f -45/-45/-45 -48/-48/-48 -47/-47/-47
f -42/-42/-42 -43/-43/-43 -44/-44/-44
f -41/-41/-41 -44/-44/-44 -43/-43/-43
f -38/-38/-38 -39/-39/-39 -40/-40/-40
f -37/-37/-37 -40/-40/-40 -39/-39/-39
f -34/-34/-34 -35/-35/-35 -36/-36/-36
f -33/-33/-33 -36/-36/-36 -35/-35/-35
f -30/-30/-30 -31/-31/-31 -32/-32/-32
f -29/-29/-29 -32/-32/-32 -31/-31/-31
f -26/-26/-26 -27/-27/-27 -28/-28/-28
f -25/-25/-25 -28/-28/-28 -27/-27/-27
f -22/-22/-22 -23/-23/-23 -24/-24/-24
f -21/-21/-21 -24/-24/-24 -23/-23/-23
f -18/-18/-18 -19/-19/-19 -20/-20/-20
f -17/-17/-17 -20/-20/-20 -19/-19/-19
f -14/-14/-14 -15/-15/-15 -16/-16/-16
f -13/-13/-13 -16/-16/-16 -15/-15/-15
f -10/-10/-10 -11/-11/-11 -12/-12/-12
f -9/-9/-9 -12/-12/-12 -11/-11/-11
f -6/-6/-6 -7/-7/-7 -8/-8/-8
f -5/-5/-5 -8/-8/-8 -7/-7/-7
f -2/-2/-2 -3/-3/-3 -4/-4/-4
f -1/-1/-1 -4/-4/-4 -3/-3/-3

