# Mesh "lapa_2_02" exported with Unity Assets Bundle Extractor; 24 vertices, 36 indices, 32 bytes per vertex
g lapa_2_02
# SubMesh 0
# Vertices
v -0.232744 -0.093934 0.520311
vt 0.078125 0.124912
vn -0.000000 -1.000000 -0.000044
v -0.044849 -0.093934 0.520322
vt 0.031416 0.124916
vn -0.000000 -1.000000 -0.000044
v -0.044826 -0.093912 -0.000004
vt 0.031416 0.375003
vn -0.000000 -1.000000 -0.000044
v -0.232722 -0.093912 -0.000015
vt 0.078125 0.374999
vn -0.000000 -1.000000 -0.000044
v -0.044849 -0.093934 0.520322
vt 0.078125 0.124912
vn 1.000000 0.000010 0.000044
v -0.044851 0.093912 0.520326
vt 0.031416 0.124916
vn 1.000000 0.000010 0.000044
v -0.044828 0.093935 0.000000
vt 0.031416 0.375003
vn 1.000000 0.000010 0.000044
v -0.044826 -0.093912 -0.000004
vt 0.078125 0.374999
vn 1.000000 0.000010 0.000044
v -0.232748 0.093912 0.520313
vt 0.031014 0.124911
vn -0.000063 -0.000016 1.000000
v -0.044851 0.093912 0.520326
vt 0.031014 0.218393
vn -0.000063 -0.000016 1.000000
v -0.044849 -0.093934 0.520322
vt 0.078125 0.218394
vn -0.000063 -0.000016 1.000000
v -0.232744 -0.093934 0.520311
vt 0.078125 0.124912
vn -0.000063 -0.000016 1.000000
v -0.232725 0.093935 -0.000013
vt 0.031416 0.375003
vn -1.000000 -0.000019 -0.000044
v -0.232748 0.093912 0.520313
vt 0.031416 0.124916
vn -1.000000 -0.000019 -0.000044
v -0.232744 -0.093934 0.520311
vt 0.078125 0.124912
vn -1.000000 -0.000019 -0.000044
v -0.232722 -0.093912 -0.000015
vt 0.078125 0.374999
vn -1.000000 -0.000019 -0.000044
v -0.044828 0.093935 0.000000
vt 0.031416 0.375003
vn -0.000000 1.000000 0.000044
v -0.044851 0.093912 0.520326
vt 0.031416 0.124916
vn -0.000000 1.000000 0.000044
v -0.232748 0.093912 0.520313
vt 0.078125 0.124912
vn -0.000000 1.000000 0.000044
v -0.232725 0.093935 -0.000013
vt 0.078125 0.374999
vn -0.000000 1.000000 0.000044
v -0.044826 -0.093912 -0.000004
vt 0.078120 0.218368
vn 0.000063 0.000016 -1.000000
v -0.044828 0.093935 0.000000
vt 0.031009 0.218366
vn 0.000063 0.000016 -1.000000
v -0.232725 0.093935 -0.000013
vt 0.031008 0.124884
vn 0.000063 0.000016 -1.000000
v -0.232722 -0.093912 -0.000015
vt 0.078120 0.124886
vn 0.000063 0.000016 -1.000000
# Faces (1 to 24)
f -22/-22/-22 -23/-23/-23 -24/-24/-24
f -21/-21/-21 -22/-22/-22 -24/-24/-24
f -18/-18/-18 -19/-19/-19 -20/-20/-20
f -17/-17/-17 -18/-18/-18 -20/-20/-20
f -14/-14/-14 -15/-15/-15 -16/-16/-16
f -13/-13/-13 -14/-14/-14 -16/-16/-16
f -10/-10/-10 -11/-11/-11 -12/-12/-12
f -9/-9/-9 -10/-10/-10 -12/-12/-12
f -6/-6/-6 -7/-7/-7 -8/-8/-8
f -5/-5/-5 -6/-6/-6 -8/-8/-8
f -2/-2/-2 -3/-3/-3 -4/-4/-4
f -1/-1/-1 -2/-2/-2 -4/-4/-4

