g laservert_ram003
v 0.2499943 15.23158 -0.2499943
v 0.2499943 8.106232E-06 0.25001
v 0.2499943 15.23158 0.25001
v 0.2499943 8.106232E-06 -0.2499943
v -0.25001 15.23158 -0.2499943
v 0.2499943 8.106232E-06 -0.2499943
v 0.2499943 15.23158 -0.2499943
v -0.25001 8.106232E-06 -0.2499943
v -0.25001 15.23158 0.25001
v -0.25001 8.106232E-06 -0.2499943
v -0.25001 15.23158 -0.2499943
v -0.2499905 8.106232E-06 0.2499905
v 0.2499943 15.23158 0.25001
v -0.2499905 8.106232E-06 0.2499905
v -0.25001 15.23158 0.25001
v 0.2499943 8.106232E-06 0.25001
v 0.09046364 0.2520933 5.013919
v 0.09046364 0.4288692 1.653957
v 0.09046364 0.2520933 1.653957
v 0.09046364 0.4288692 4.837142
v 0.09046364 0.4288692 -1.617598
v 0.09046364 0.2520933 -1.617598
v 0.09048271 0.4288692 -4.800765
v 0.09046364 0.2520933 -4.977541
v 0.09046364 0.4288692 4.837142
v -0.08631277 0.4288692 1.653976
v 0.09046364 0.4288692 1.653957
v -0.08631277 0.4288692 4.837142
v -0.08631277 0.4288692 -1.617598
v 0.09046364 0.4288692 -1.617598
v -0.08631277 0.4288692 -4.800765
v 0.09048271 0.4288692 -4.800765
v -0.08631277 0.4288692 4.837142
v -0.08631277 0.2520933 1.653976
v -0.08631277 0.4288692 1.653976
v -0.08631277 0.2520933 5.013919
v -0.08631277 0.2520933 -1.617598
v -0.08631277 0.4288692 -1.617598
v -0.08631277 0.2520933 -4.977541
v -0.08631277 0.4288692 -4.800765
v -0.08631277 0.2520933 5.013919
v 0.09046364 0.2520933 1.653957
v -0.08631277 0.2520933 1.653976
v 0.09046364 0.2520933 5.013919
v 0.09046364 0.2520933 -1.617598
v -0.08631277 0.2520933 -1.617598
v 0.09046364 0.2520933 -4.977541
v -0.08631277 0.2520933 -4.977541
v 0.09046364 0.2520933 -4.977541
v 0.09046364 14.97882 -4.800765
v 0.09046364 15.15559 -4.977541
v 0.09048271 0.4288692 -4.800765
v 0.09048271 0.4288692 -4.800765
v -0.08631277 14.97882 -4.800765
v 0.09046364 14.97882 -4.800765
v -0.08631277 0.4288692 -4.800765
v -0.08631277 0.4288692 -4.800765
v -0.08631277 15.15559 -4.977541
v -0.08631277 14.97882 -4.800765
v -0.08631277 0.2520933 -4.977541
v -0.08631277 0.2520933 -4.977541
v 0.09046364 15.15559 -4.977541
v -0.08631277 15.15559 -4.977541
v 0.09046364 0.2520933 -4.977541
v 0.09046364 15.15559 -4.977541
v 0.09046364 14.97882 -1.617598
v 0.09046364 15.15559 -1.617598
v 0.09046364 14.97882 -4.800765
v 0.09046364 14.97882 1.653976
v 0.09046364 15.15559 1.653976
v 0.09046364 14.97882 4.837142
v 0.09046364 15.15559 5.013919
v 0.09046364 14.97882 -4.800765
v -0.08631277 14.97882 -1.617598
v 0.09046364 14.97882 -1.617598
v -0.08631277 14.97882 -4.800765
v -0.08631277 14.97882 1.653976
v 0.09046364 14.97882 1.653976
v -0.08631277 14.97882 4.837142
v 0.09046364 14.97882 4.837142
v -0.08631277 14.97882 -4.800765
v -0.08631277 15.15559 -1.617598
v -0.08631277 14.97882 -1.617598
v -0.08631277 15.15559 -4.977541
v -0.08631277 15.15559 1.653976
v -0.08631277 14.97882 1.653976
v -0.08631277 15.15559 5.013919
v -0.08631277 14.97882 4.837142
v -0.08631277 15.15559 -4.977541
v 0.09046364 15.15559 -1.617598
v -0.08631277 15.15559 -1.617598
v 0.09046364 15.15559 -4.977541
v 0.09046364 15.15559 1.653976
v -0.08631277 15.15559 1.653976
v 0.09046364 15.15559 5.013919
v -0.08631277 15.15559 5.013919
v 0.09046364 15.15559 5.013919
v 0.09046364 0.4288692 4.837142
v 0.09046364 0.2520933 5.013919
v 0.09046364 14.97882 4.837142
v 0.09046364 14.97882 4.837142
v -0.08631277 0.4288692 4.837142
v 0.09046364 0.4288692 4.837142
v -0.08631277 14.97882 4.837142
v -0.08631277 14.97882 4.837142
v -0.08631277 0.2520933 5.013919
v -0.08631277 0.4288692 4.837142
v -0.08631277 15.15559 5.013919
v -0.08631277 15.15559 5.013919
v 0.09046364 0.2520933 5.013919
v -0.08631277 0.2520933 5.013919
v 0.09046364 15.15559 5.013919
v -4.995728 0.2520933 0.1086507
v -1.635785 0.4288692 0.1086507
v -1.635785 0.2520933 0.1086507
v -4.818952 0.4288692 0.1086507
v 1.635789 0.4288692 0.1086507
v 1.635789 0.2520933 0.1086507
v 4.818956 0.4288692 0.1086507
v 4.995732 0.2520933 0.1086507
v -4.818952 0.4288692 0.1086507
v -1.635785 0.4288692 -0.06812525
v -1.635785 0.4288692 0.1086507
v -4.818952 0.4288692 -0.0681448
v 1.635789 0.4288692 -0.0681448
v 1.635789 0.4288692 0.1086507
v 4.818956 0.4288692 -0.06812525
v 4.818956 0.4288692 0.1086507
v -4.818952 0.4288692 -0.0681448
v -1.635785 0.2520933 -0.06812525
v -1.635785 0.4288692 -0.06812525
v -4.995728 0.2520933 -0.0681448
v 1.635789 0.2520933 -0.0681448
v 1.635789 0.4288692 -0.0681448
v 4.995732 0.2520933 -0.06812525
v 4.818956 0.4288692 -0.06812525
v -4.995728 0.2520933 -0.0681448
v -1.635785 0.2520933 0.1086507
v -1.635785 0.2520933 -0.06812525
v -4.995728 0.2520933 0.1086507
v 1.635789 0.2520933 0.1086507
v 1.635789 0.2520933 -0.0681448
v 4.995732 0.2520933 0.1086507
v 4.995732 0.2520933 -0.06812525
v 4.995732 0.2520933 0.1086507
v 4.818956 14.97882 0.1086507
v 4.995732 15.15559 0.1086507
v 4.818956 0.4288692 0.1086507
v 4.818956 0.4288692 0.1086507
v 4.818956 14.97882 -0.06810617
v 4.818956 14.97882 0.1086507
v 4.818956 0.4288692 -0.06812525
v 4.818956 0.4288692 -0.06812525
v 4.995732 15.15559 -0.06812525
v 4.818956 14.97882 -0.06810617
v 4.995732 0.2520933 -0.06812525
v 4.995732 0.2520933 -0.06812525
v 4.995732 15.15559 0.1086507
v 4.995732 15.15559 -0.06812525
v 4.995732 0.2520933 0.1086507
v 4.995732 15.15559 0.1086507
v 1.635789 14.97882 0.1086507
v 1.635789 15.15559 0.1086507
v 4.818956 14.97882 0.1086507
v -1.635785 14.97882 0.1086507
v -1.635785 15.15559 0.1086507
v -4.818952 14.97882 0.1086507
v -4.995728 15.15559 0.1086507
v 4.818956 14.97882 0.1086507
v 1.63577 14.97882 -0.06812525
v 1.635789 14.97882 0.1086507
v 4.818956 14.97882 -0.06810617
v -1.635785 14.97882 -0.06812525
v -1.635785 14.97882 0.1086507
v -4.818952 14.97882 -0.06812525
v -4.818952 14.97882 0.1086507
v 4.818956 14.97882 -0.06810617
v 1.63577 15.15559 -0.06812525
v 1.63577 14.97882 -0.06812525
v 4.995732 15.15559 -0.06812525
v -1.635785 15.15559 -0.06812525
v -1.635785 14.97882 -0.06812525
v -4.995728 15.15559 -0.06812525
v -4.818952 14.97882 -0.06812525
v 4.995732 15.15559 -0.06812525
v 1.635789 15.15559 0.1086507
v 1.63577 15.15559 -0.06812525
v 4.995732 15.15559 0.1086507
v -1.635785 15.15559 0.1086507
v -1.635785 15.15559 -0.06812525
v -4.995728 15.15559 0.1086507
v -4.995728 15.15559 -0.06812525
v -4.995728 15.15559 0.1086507
v -4.818952 0.4288692 0.1086507
v -4.995728 0.2520933 0.1086507
v -4.818952 14.97882 0.1086507
v -4.818952 14.97882 0.1086507
v -4.818952 0.4288692 -0.0681448
v -4.818952 0.4288692 0.1086507
v -4.818952 14.97882 -0.06812525
v -4.818952 14.97882 -0.06812525
v -4.995728 0.2520933 -0.0681448
v -4.818952 0.4288692 -0.0681448
v -4.995728 15.15559 -0.06812525
v -4.995728 15.15559 -0.06812525
v -4.995728 0.2520933 0.1086507
v -4.995728 0.2520933 -0.0681448
v -4.995728 15.15559 0.1086507
vt 0.494141 0.601563
vt 0.02734406 0.61133
vt 0.494141 0.61133
vt 0.02734406 0.601563
vt 0.494141 0.601563
vt 0.02734406 0.61133
vt 0.494141 0.61133
vt 0.02734406 0.601563
vt 0.494141 0.601563
vt 0.02734406 0.61133
vt 0.494141 0.61133
vt 0.02734406 0.601563
vt 0.494141 0.601563
vt 0.02734406 0.61133
vt 0.494141 0.61133
vt 0.02734406 0.601563
vt 0.0189872 0.6050364
vt 0.1249694 0.6106027
vt 0.1249694 0.6050364
vt 0.02455349 0.6106027
vt 0.228176 0.6106027
vt 0.228176 0.6050364
vt 0.3286068 0.6106027
vt 0.3341731 0.6050364
vt 0.1879799 0.6050364
vt 0.2883959 0.6106027
vt 0.2883959 0.6050364
vt 0.1879799 0.6106027
vt 0.3916024 0.6106027
vt 0.3916024 0.6050364
vt 0.4920332 0.6106027
vt 0.4920332 0.6050364
vt 0.3286068 0.6106027
vt 0.228176 0.6050364
vt 0.228176 0.6106027
vt 0.3341731 0.6050364
vt 0.1249694 0.6050364
vt 0.1249694 0.6106027
vt 0.0189872 0.6050364
vt 0.02455349 0.6106027
vt 0.0189872 0.6050364
vt 0.1249694 0.6106027
vt 0.1249694 0.6050364
vt 0.0189872 0.6106027
vt 0.228176 0.6106027
vt 0.228176 0.6050364
vt 0.3341731 0.6106027
vt 0.3341731 0.6050364
vt 0.0189872 0.6050364
vt 0.4920332 0.6106027
vt 0.4975995 0.6050364
vt 0.02455349 0.6106027
vt 0.02455349 0.6050364
vt 0.4920332 0.6106027
vt 0.4920332 0.6050364
vt 0.02455349 0.6106027
vt 0.02455349 0.6106027
vt 0.4975995 0.6050364
vt 0.4920332 0.6106027
vt 0.0189872 0.6050364
vt 0.0189872 0.6050364
vt 0.4975995 0.6106027
vt 0.4975995 0.6050364
vt 0.0189872 0.6106027
vt 0.3341731 0.6050364
vt 0.228176 0.6106027
vt 0.228176 0.6050364
vt 0.3286068 0.6106027
vt 0.1249694 0.6106027
vt 0.1249694 0.6050364
vt 0.02455349 0.6106027
vt 0.0189872 0.6050364
vt 0.3286068 0.6106027
vt 0.228176 0.6050364
vt 0.228176 0.6106027
vt 0.3286068 0.6050364
vt 0.1249694 0.6050364
vt 0.1249694 0.6106027
vt 0.02455349 0.6050364
vt 0.02455349 0.6106027
vt 0.02455349 0.6106027
vt 0.1249694 0.6050364
vt 0.1249694 0.6106027
vt 0.0189872 0.6050364
vt 0.228176 0.6050364
vt 0.228176 0.6106027
vt 0.3341731 0.6050364
vt 0.3286068 0.6106027
vt 0.4975995 0.6106027
vt 0.3916024 0.6050364
vt 0.3916024 0.6106027
vt 0.4975995 0.6050364
vt 0.2883959 0.6050364
vt 0.2883959 0.6106027
vt 0.1824136 0.6050364
vt 0.1824136 0.6106027
vt 0.4975995 0.6050364
vt 0.02455349 0.6106027
vt 0.0189872 0.6050364
vt 0.4920332 0.6106027
vt 0.4920332 0.6106027
vt 0.02455349 0.6050364
vt 0.02455349 0.6106027
vt 0.4920332 0.6050364
vt 0.4920332 0.6106027
vt 0.0189872 0.6050364
vt 0.02455349 0.6106027
vt 0.4975995 0.6050364
vt 0.4975995 0.6106027
vt 0.0189872 0.6050364
vt 0.0189872 0.6106027
vt 0.4975995 0.6050364
vt 0.0189872 0.6050364
vt 0.1249694 0.6106027
vt 0.1249694 0.6050364
vt 0.02455349 0.6106027
vt 0.228176 0.6106027
vt 0.228176 0.6050364
vt 0.3286068 0.6106027
vt 0.3341731 0.6050364
vt 0.3286068 0.6106027
vt 0.228176 0.6050364
vt 0.228176 0.6106027
vt 0.3286068 0.6050364
vt 0.1249694 0.6050364
vt 0.1249694 0.6106027
vt 0.02455349 0.6050364
vt 0.02455349 0.6106027
vt 0.3286068 0.6106027
vt 0.228176 0.6050364
vt 0.228176 0.6106027
vt 0.3341731 0.6050364
vt 0.1249694 0.6050364
vt 0.1249694 0.6106027
vt 0.0189872 0.6050364
vt 0.02455349 0.6106027
vt 0.0189872 0.6050364
vt 0.1249694 0.6106027
vt 0.1249694 0.6050364
vt 0.0189872 0.6106027
vt 0.228176 0.6106027
vt 0.228176 0.6050364
vt 0.3341731 0.6106027
vt 0.3341731 0.6050364
vt 0.0189872 0.6050364
vt 0.4920332 0.6106027
vt 0.4975995 0.6050364
vt 0.02455349 0.6106027
vt 0.02455349 0.6050364
vt 0.4920332 0.6106027
vt 0.4920332 0.6050364
vt 0.02455349 0.6106027
vt 0.4920332 0.6106027
vt 0.0189872 0.6050364
vt 0.02455349 0.6106027
vt 0.4975995 0.6050364
vt 0.0189872 0.6050364
vt 0.4975995 0.6106027
vt 0.4975995 0.6050364
vt 0.0189872 0.6106027
vt 0.3341731 0.6050364
vt 0.228176 0.6106027
vt 0.228176 0.6050364
vt 0.3286068 0.6106027
vt 0.1249694 0.6106027
vt 0.1249694 0.6050364
vt 0.02455349 0.6106027
vt 0.0189872 0.6050364
vt 0.3286068 0.6106027
vt 0.228176 0.6050364
vt 0.228176 0.6106027
vt 0.3286068 0.6050364
vt 0.1249694 0.6050364
vt 0.1249694 0.6106027
vt 0.02455349 0.6050364
vt 0.02455349 0.6106027
vt 0.02455349 0.6106027
vt 0.1249694 0.6050364
vt 0.1249694 0.6106027
vt 0.0189872 0.6050364
vt 0.228176 0.6050364
vt 0.228176 0.6106027
vt 0.3341731 0.6050364
vt 0.3286068 0.6106027
vt 0.0189872 0.6050364
vt 0.1249694 0.6106027
vt 0.1249694 0.6050364
vt 0.0189872 0.6106027
vt 0.228176 0.6106027
vt 0.228176 0.6050364
vt 0.3341731 0.6106027
vt 0.3341731 0.6050364
vt 0.4975995 0.6106027
vt 0.02455349 0.6050364
vt 0.0189872 0.6106027
vt 0.4920332 0.6050364
vt 0.4920332 0.6106027
vt 0.02455349 0.6050364
vt 0.02455349 0.6106027
vt 0.4920332 0.6050364
vt 0.4920332 0.6106027
vt 0.0189872 0.6050364
vt 0.02455349 0.6106027
vt 0.4975995 0.6050364
vt 0.4975995 0.6106027
vt 0.0189872 0.6050364
vt 0.0189872 0.6106027
vt 0.4975995 0.6050364
vn 0.9999995 0.0009775162 0
vn 0.9999995 0.0009775162 0
vn 0.9999995 0.0009775162 0
vn 0.9999995 0.0009775162 0
vn 0.0009775162 0.0009775162 -0.999999
vn 0.0009775162 0.0009775162 -0.999999
vn 0.0009775162 0.0009775162 -0.999999
vn -0.0009775162 0.0009775162 -0.999999
vn -0.9999995 0.0009775162 0
vn -0.9999995 0.0009775162 0
vn -0.9999995 0.0009775162 0
vn -0.9999995 0.0009775162 0
vn -0.0009775162 0.0009775162 0.999999
vn -0.0009775162 0.0009775162 0.999999
vn -0.0009775162 0.0009775162 0.999999
vn -0.0009775162 0.0009775162 0.999999
vn 0.9999995 -0.0009775162 0
vn 0.9999995 -0.0009775162 0
vn 0.9999995 0.0009775162 0
vn 0.9999995 -0.0009775162 0
vn 0.9999995 0.0009775162 0
vn 0.9999995 -0.0009775162 0
vn 0.9999995 -0.0009775162 0
vn 0.9999995 -0.0009775162 0
vn -0.0009775162 0.9999995 0
vn -0.0009775162 0.9999995 0
vn -0.0009775162 0.9999995 0
vn -0.0009775162 0.9999995 0
vn -0.0009775162 0.9999995 0
vn -0.0009775162 0.9999995 0
vn -0.0009775162 0.9999995 0
vn -0.0009775162 0.9999995 0
vn -0.9999995 0.0009775162 0
vn -0.9999995 0.0009775162 0
vn -0.9999995 0.0009775162 0
vn -0.9999995 0.0009775162 0
vn -0.9999995 0.0009775162 0
vn -0.9999995 0.0009775162 0
vn -0.9999995 0.0009775162 0
vn -0.9999995 0.0009775162 0
vn -0.0009775162 -0.9999995 0
vn -0.0009775162 -0.9999995 0
vn -0.0009775162 -0.9999995 0
vn -0.0009775162 -0.9999995 0
vn -0.0009775162 -0.9999995 0
vn -0.0009775162 -0.9999995 0
vn -0.0009775162 -0.9999995 0
vn -0.0009775162 -0.9999995 0
vn 0.9999995 -0.0009775162 0
vn 0.9999995 0.0009775162 0
vn 0.9999995 0.0009775162 0
vn 0.9999995 -0.0009775162 0
vn 0.0009775162 0.0009775162 0.999999
vn 0.0009775162 0.0009775162 0.999999
vn -0.0009775162 0.0009775162 0.999999
vn 0.0009775162 0.0009775162 0.999999
vn -0.9999995 0.0009775162 0
vn -0.9999995 0.0009775162 0
vn -0.9999995 0.0009775162 0
vn -0.9999995 0.0009775162 0
vn -0.0009775162 0.0009775162 -0.999999
vn -0.0009775162 0.0009775162 -0.999999
vn -0.0009775162 0.0009775162 -0.999999
vn -0.0009775162 0.0009775162 -0.999999
vn 0.9999995 0.0009775162 0
vn 0.9999995 0.0009775162 0
vn 0.9999995 -0.0009775162 0
vn 0.9999995 0.0009775162 0
vn 0.9999995 -0.0009775162 0
vn 0.9999995 -0.0009775162 0
vn 0.9999995 -0.0009775162 0
vn 0.9999995 0.0009775162 0
vn -0.0009775162 -0.9999995 0
vn -0.0009775162 -0.9999995 0
vn -0.0009775162 -0.9999995 0
vn -0.0009775162 -0.9999995 0
vn -0.0009775162 -0.9999995 0
vn -0.0009775162 -0.9999995 0
vn -0.0009775162 -0.9999995 0
vn -0.0009775162 -0.9999995 0
vn -0.9999995 0.0009775162 0
vn -0.9999995 0.0009775162 0
vn -0.9999995 0.0009775162 0
vn -0.9999995 0.0009775162 0
vn -0.9999995 0.0009775162 0
vn -0.9999995 0.0009775162 0
vn -0.9999995 0.0009775162 0
vn -0.9999995 0.0009775162 0
vn -0.0009775162 0.9999995 0
vn -0.0009775162 0.9999995 0
vn -0.0009775162 0.9999995 0
vn -0.0009775162 0.9999995 0
vn -0.0009775162 0.9999995 0
vn -0.0009775162 0.9999995 0
vn -0.0009775162 0.9999995 0
vn -0.0009775162 0.9999995 0
vn 0.9999995 0.0009775162 0
vn 0.9999995 -0.0009775162 0
vn 0.9999995 -0.0009775162 0
vn 0.9999995 -0.0009775162 0
vn -0.0009775162 0.0009775162 -0.999999
vn -0.0009775162 0.0009775162 -0.999999
vn -0.0009775162 0.0009775162 -0.999999
vn -0.0009775162 0.0009775162 -0.999999
vn -0.9999995 0.0009775162 0
vn -0.9999995 0.0009775162 0
vn -0.9999995 0.0009775162 0
vn -0.9999995 0.0009775162 0
vn 0.0009775162 0.0009775162 0.999999
vn 0.0009775162 0.0009775162 0.999999
vn -0.0009775162 0.0009775162 0.999999
vn 0.0009775162 0.0009775162 0.999999
vn -0.0009775162 -0.0009775162 0.999999
vn -0.0009775162 -0.0009775162 0.999999
vn -0.0009775162 0.0009775162 0.999999
vn -0.0009775162 -0.0009775162 0.999999
vn -0.0009775162 0.0009775162 0.999999
vn -0.0009775162 0.0009775162 0.999999
vn -0.0009775162 0.0009775162 0.999999
vn -0.0009775162 0.0009775162 0.999999
vn -0.0009775162 0.9999995 0
vn -0.0009775162 0.9999995 0
vn -0.0009775162 0.9999995 0
vn -0.0009775162 0.9999995 0
vn -0.0009775162 0.9999995 0
vn -0.0009775162 0.9999995 0
vn -0.0009775162 0.9999995 0
vn -0.0009775162 0.9999995 0
vn 0.0009775162 0.0009775162 -0.999999
vn -0.0009775162 0.0009775162 -0.999999
vn -0.0009775162 0.0009775162 -0.999999
vn 0.0009775162 0.0009775162 -0.999999
vn -0.0009775162 0.0009775162 -0.999999
vn -0.0009775162 0.0009775162 -0.999999
vn -0.0009775162 0.0009775162 -0.999999
vn -0.0009775162 0.0009775162 -0.999999
vn -0.0009775162 -0.9999995 0
vn -0.0009775162 -0.9999995 0
vn -0.0009775162 -0.9999995 0
vn -0.0009775162 -0.9999995 0
vn -0.0009775162 -0.9999995 0
vn -0.0009775162 -0.9999995 0
vn -0.0009775162 -0.9999995 0
vn -0.0009775162 -0.9999995 0
vn -0.0009775162 0.0009775162 0.999999
vn -0.0009775162 0.0009775162 0.999999
vn -0.0009775162 0.0009775162 0.999999
vn -0.0009775162 0.0009775162 0.999999
vn -0.9999995 0.0009775162 0
vn -0.9999995 0.0009775162 0
vn -0.9999995 0.0009775162 0
vn -0.9999995 0.0009775162 0
vn -0.0009775162 0.0009775162 -0.999999
vn -0.0009775162 -0.0009775162 -0.999999
vn -0.0009775162 -0.0009775162 -0.999999
vn -0.0009775162 0.0009775162 -0.999999
vn 0.9999995 0.0009775162 0
vn 0.9999995 0.0009775162 0
vn 0.9999995 0.0009775162 0
vn 0.9999995 0.0009775162 0
vn -0.0009775162 0.0009775162 0.999999
vn -0.0009775162 0.0009775162 0.999999
vn -0.0009775162 0.0009775162 0.999999
vn -0.0009775162 0.0009775162 0.999999
vn -0.0009775162 0.0009775162 0.999999
vn -0.0009775162 0.0009775162 0.999999
vn -0.0009775162 0.0009775162 0.999999
vn -0.0009775162 0.0009775162 0.999999
vn -0.0009775162 -0.9999995 0
vn -0.0009775162 -0.9999995 0
vn -0.0009775162 -0.9999995 0
vn -0.0009775162 -0.9999995 0
vn -0.0009775162 -0.9999995 0
vn -0.0009775162 -0.9999995 0
vn -0.0009775162 -0.9999995 0
vn -0.0009775162 -0.9999995 0
vn -0.0009775162 -0.0009775162 -0.999999
vn -0.0009775162 -0.0009775162 -0.999999
vn -0.0009775162 0.0009775162 -0.999999
vn -0.0009775162 -0.0009775162 -0.999999
vn -0.0009775162 0.0009775162 -0.999999
vn -0.0009775162 -0.0009775162 -0.999999
vn 0.0009775162 -0.0009775162 -0.999999
vn 0.0009775162 -0.0009775162 -0.999999
vn -0.0009775162 0.9999995 0
vn -0.0009775162 0.9999995 0
vn -0.0009775162 0.9999995 0
vn -0.0009775162 0.9999995 0
vn -0.0009775162 0.9999995 0
vn -0.0009775162 0.9999995 0
vn -0.0009775162 0.9999995 0
vn -0.0009775162 0.9999995 0
vn -0.0009775162 0.0009775162 0.999999
vn -0.0009775162 -0.0009775162 0.999999
vn -0.0009775162 -0.0009775162 0.999999
vn -0.0009775162 0.0009775162 0.999999
vn 0.9999995 0.0009775162 0
vn 0.9999995 0.0009775162 0
vn 0.9999995 0.0009775162 0
vn 0.9999995 0.0009775162 0
vn 0.0009775162 -0.0009775162 -0.999999
vn 0.0009775162 0.0009775162 -0.999999
vn 0.0009775162 0.0009775162 -0.999999
vn 0.0009775162 -0.0009775162 -0.999999
vn -0.9999995 0.0009775162 0
vn -0.9999995 0.0009775162 0
vn -0.9999995 0.0009775162 0
vn -0.9999995 0.0009775162 0
g laservert_ram003_0
f 3/3/3 2/2/2 1/1/1
f 4/4/4 1/1/1 2/2/2
f 7/7/7 6/6/6 5/5/5
f 8/8/8 5/5/5 6/6/6
f 11/11/11 10/10/10 9/9/9
f 12/12/12 9/9/9 10/10/10
f 15/15/15 14/14/14 13/13/13
f 16/16/16 13/13/13 14/14/14
f 19/19/19 18/18/18 17/17/17
f 20/20/20 17/17/17 18/18/18
f 18/18/18 19/19/19 21/21/21
f 22/22/22 21/21/21 19/19/19
f 21/21/21 22/22/22 23/23/23
f 24/24/24 23/23/23 22/22/22
f 27/27/27 26/26/26 25/25/25
f 28/28/28 25/25/25 26/26/26
f 26/26/26 27/27/27 29/29/29
f 30/30/30 29/29/29 27/27/27
f 29/29/29 30/30/30 31/31/31
f 32/32/32 31/31/31 30/30/30
f 35/35/35 34/34/34 33/33/33
f 36/36/36 33/33/33 34/34/34
f 34/34/34 35/35/35 37/37/37
f 38/38/38 37/37/37 35/35/35
f 37/37/37 38/38/38 39/39/39
f 40/40/40 39/39/39 38/38/38
f 43/43/43 42/42/42 41/41/41
f 44/44/44 41/41/41 42/42/42
f 42/42/42 43/43/43 45/45/45
f 46/46/46 45/45/45 43/43/43
f 45/45/45 46/46/46 47/47/47
f 48/48/48 47/47/47 46/46/46
f 51/51/51 50/50/50 49/49/49
f 52/52/52 49/49/49 50/50/50
f 55/55/55 54/54/54 53/53/53
f 56/56/56 53/53/53 54/54/54
f 59/59/59 58/58/58 57/57/57
f 60/60/60 57/57/57 58/58/58
f 63/63/63 62/62/62 61/61/61
f 64/64/64 61/61/61 62/62/62
f 67/67/67 66/66/66 65/65/65
f 68/68/68 65/65/65 66/66/66
f 66/66/66 67/67/67 69/69/69
f 70/70/70 69/69/69 67/67/67
f 69/69/69 70/70/70 71/71/71
f 72/72/72 71/71/71 70/70/70
f 75/75/75 74/74/74 73/73/73
f 76/76/76 73/73/73 74/74/74
f 74/74/74 75/75/75 77/77/77
f 78/78/78 77/77/77 75/75/75
f 77/77/77 78/78/78 79/79/79
f 80/80/80 79/79/79 78/78/78
f 83/83/83 82/82/82 81/81/81
f 84/84/84 81/81/81 82/82/82
f 82/82/82 83/83/83 85/85/85
f 86/86/86 85/85/85 83/83/83
f 85/85/85 86/86/86 87/87/87
f 88/88/88 87/87/87 86/86/86
f 91/91/91 90/90/90 89/89/89
f 92/92/92 89/89/89 90/90/90
f 90/90/90 91/91/91 93/93/93
f 94/94/94 93/93/93 91/91/91
f 93/93/93 94/94/94 95/95/95
f 96/96/96 95/95/95 94/94/94
f 99/99/99 98/98/98 97/97/97
f 100/100/100 97/97/97 98/98/98
f 103/103/103 102/102/102 101/101/101
f 104/104/104 101/101/101 102/102/102
f 107/107/107 106/106/106 105/105/105
f 108/108/108 105/105/105 106/106/106
f 111/111/111 110/110/110 109/109/109
f 112/112/112 109/109/109 110/110/110
f 115/115/115 114/114/114 113/113/113
f 116/116/116 113/113/113 114/114/114
f 114/114/114 115/115/115 117/117/117
f 118/118/118 117/117/117 115/115/115
f 117/117/117 118/118/118 119/119/119
f 120/120/120 119/119/119 118/118/118
f 123/123/123 122/122/122 121/121/121
f 124/124/124 121/121/121 122/122/122
f 122/122/122 123/123/123 125/125/125
f 126/126/126 125/125/125 123/123/123
f 125/125/125 126/126/126 127/127/127
f 128/128/128 127/127/127 126/126/126
f 131/131/131 130/130/130 129/129/129
f 132/132/132 129/129/129 130/130/130
f 130/130/130 131/131/131 133/133/133
f 134/134/134 133/133/133 131/131/131
f 133/133/133 134/134/134 135/135/135
f 136/136/136 135/135/135 134/134/134
f 139/139/139 138/138/138 137/137/137
f 140/140/140 137/137/137 138/138/138
f 138/138/138 139/139/139 141/141/141
f 142/142/142 141/141/141 139/139/139
f 141/141/141 142/142/142 143/143/143
f 144/144/144 143/143/143 142/142/142
f 147/147/147 146/146/146 145/145/145
f 148/148/148 145/145/145 146/146/146
f 151/151/151 150/150/150 149/149/149
f 152/152/152 149/149/149 150/150/150
f 155/155/155 154/154/154 153/153/153
f 156/156/156 153/153/153 154/154/154
f 159/159/159 158/158/158 157/157/157
f 160/160/160 157/157/157 158/158/158
f 163/163/163 162/162/162 161/161/161
f 164/164/164 161/161/161 162/162/162
f 162/162/162 163/163/163 165/165/165
f 166/166/166 165/165/165 163/163/163
f 165/165/165 166/166/166 167/167/167
f 168/168/168 167/167/167 166/166/166
f 171/171/171 170/170/170 169/169/169
f 172/172/172 169/169/169 170/170/170
f 170/170/170 171/171/171 173/173/173
f 174/174/174 173/173/173 171/171/171
f 173/173/173 174/174/174 175/175/175
f 176/176/176 175/175/175 174/174/174
f 179/179/179 178/178/178 177/177/177
f 180/180/180 177/177/177 178/178/178
f 178/178/178 179/179/179 181/181/181
f 182/182/182 181/181/181 179/179/179
f 181/181/181 182/182/182 183/183/183
f 184/184/184 183/183/183 182/182/182
f 187/187/187 186/186/186 185/185/185
f 188/188/188 185/185/185 186/186/186
f 186/186/186 187/187/187 189/189/189
f 190/190/190 189/189/189 187/187/187
f 189/189/189 190/190/190 191/191/191
f 192/192/192 191/191/191 190/190/190
f 195/195/195 194/194/194 193/193/193
f 196/196/196 193/193/193 194/194/194
f 199/199/199 198/198/198 197/197/197
f 200/200/200 197/197/197 198/198/198
f 203/203/203 202/202/202 201/201/201
f 204/204/204 201/201/201 202/202/202
f 207/207/207 206/206/206 205/205/205
f 208/208/208 205/205/205 206/206/206
