g league3_hat_afro_Mesh
v -0.31 -0.2499988 0.4335222
v -0.37 -0.2499987 0.4335222
v -0.37 -0.2499987 0.6204044
v -0.31 -0.2499988 0.6204044
v 0.2500004 0.2500007 0.8013452
v -0.2487496 0.2500011 0.8013452
v -0.2487496 0.2500011 0.7413452
v 0.2500004 0.2500007 0.7413452
v 0.3100004 0.2500007 0.1835222
v 0.31 -0.2499993 0.1835222
v 0.37 -0.2499993 0.1835222
v 0.3700004 0.2500007 0.1835222
v -0.1598055 -0.3099989 0.3710222
v -0.1598055 -0.3099989 0.1835222
v -0.159805 0.3100011 0.1835222
v -0.159805 0.3100011 0.3710222
v -0.1250001 -0.369999 0.4335222
v -0.1249995 0.370001 0.4335222
v -0.2487495 0.3700011 0.4335222
v -0.2487501 -0.3699988 0.4335222
v -0.37 -0.2499987 0.6204044
v -0.3699996 0.2500012 0.6204044
v -0.3099996 0.2500012 0.6204044
v -0.31 -0.2499988 0.6204044
v 0.25 -0.2499993 0.8013452
v 0.25 -0.2499993 0.7413452
v -0.24875 -0.2499989 0.7413452
v -0.24875 -0.2499989 0.8013452
v 0.3100004 0.3100007 0.1210222
v 0.3099999 -0.3099993 0.1210222
v 0.3099999 -0.3099993 0.7413452
v 0.3100004 0.3100007 0.7413452
v -0.31 -0.3099988 0.3710222
v -0.1598055 -0.3099989 0.3710222
v -0.159805 0.3100011 0.3710222
v -0.3099995 0.3100012 0.3710222
v -0.2487501 -0.3699988 0.4335222
v -0.2487495 0.3700011 0.4335222
v -0.2487495 0.3700011 0.6204044
v -0.2487501 -0.3699988 0.6204044
v 0.2500005 0.3700007 0.1835222
v 0.2500005 0.3700007 0.6204044
v -0.1249995 0.370001 0.4335222
v -0.06249949 0.370001 0.2460222
v -0.2487495 0.3700011 0.6204044
v -0.2487495 0.3700011 0.4335222
v -0.1249995 0.370001 0.2460222
v -0.06249949 0.370001 0.1835222
v -0.3699996 0.2500012 0.6204044
v -0.37 -0.2499987 0.6204044
v -0.37 -0.2499987 0.4335222
v -0.3699996 0.2500012 0.4335222
v -0.24875 -0.2499989 0.7413452
v -0.2487496 0.2500011 0.7413452
v -0.2487496 0.2500011 0.8013452
v -0.24875 -0.2499989 0.8013452
v -0.31 -0.3099988 0.7413452
v 0.3099999 -0.3099993 0.7413452
v 0.3099999 -0.3099993 0.1210222
v -0.1598055 -0.3099989 0.3710222
v -0.125 -0.3099989 0.1835222
v -0.1598055 -0.3099989 0.1835222
v -0.31 -0.3099988 0.3710222
v -0.125 -0.3099989 0.1210222
v 0.3100004 0.2500007 0.6204044
v 0.3100004 0.2500007 0.1835222
v 0.3700004 0.2500007 0.1835222
v 0.3700004 0.2500007 0.6204044
v -0.1249995 0.370001 0.2460222
v -0.1249995 0.370001 0.4335222
v -0.1250001 -0.369999 0.4335222
v -0.1250001 -0.3699989 0.2460222
v -0.2487495 0.3700011 0.6204044
v 0.2500005 0.3700007 0.6204044
v 0.2499999 -0.3699993 0.6204044
v -0.2487501 -0.3699988 0.6204044
v -0.3099995 0.3100012 0.7413452
v -0.31 -0.3099988 0.7413452
v -0.31 -0.3099988 0.3710222
v -0.3099995 0.3100012 0.3710222
v 0.3099999 -0.3099993 0.7413452
v -0.31 -0.3099988 0.7413452
v -0.3099995 0.3100012 0.7413452
v 0.3100004 0.3100007 0.7413452
v 0.3100004 0.3100007 0.1210222
v 0.3100004 0.3100007 0.7413452
v -0.3099995 0.3100012 0.7413452
v -0.159805 0.3100011 0.3710222
v -0.1249995 0.310001 0.1835222
v -0.159805 0.3100011 0.1835222
v -0.3099995 0.3100012 0.3710222
v -0.1249995 0.310001 0.1210222
v 0.31 -0.2499993 0.1835222
v 0.31 -0.2499993 0.6204044
v 0.37 -0.2499993 0.6204044
v 0.37 -0.2499993 0.1835222
v -0.125 -0.3099989 0.1835222
v -0.125 -0.3099989 0.1210222
v -0.1249995 0.310001 0.1210222
v -0.1249995 0.310001 0.1835222
v -0.06249949 0.370001 0.1835222
v -0.06250008 -0.369999 0.1835222
v 0.2499999 -0.3699992 0.1835222
v 0.2500005 0.3700007 0.1835222
v -0.125 -0.3099989 0.1210222
v 0.3099999 -0.3099993 0.1210222
v 0.3100004 0.3100007 0.1210222
v -0.1249995 0.310001 0.1210222
v -0.3699996 0.2500012 0.6204044
v -0.3699996 0.2500012 0.4335222
v -0.3099996 0.2500012 0.4335222
v -0.3099996 0.2500012 0.6204044
v 0.25 -0.2499993 0.7413452
v 0.25 -0.2499993 0.8013452
v 0.2500004 0.2500007 0.8013452
v 0.2500004 0.2500007 0.7413452
v 0.3700004 0.2500007 0.6204044
v 0.37 -0.2499993 0.6204044
v 0.31 -0.2499993 0.6204044
v 0.3100004 0.2500007 0.6204044
v -0.1598055 -0.3099989 0.1835222
v -0.125 -0.3099989 0.1835222
v -0.1249995 0.310001 0.1835222
v -0.159805 0.3100011 0.1835222
v -0.1249995 0.370001 0.2460222
v -0.1250001 -0.3699989 0.2460222
v -0.06250008 -0.369999 0.2460222
v -0.06249949 0.370001 0.2460222
v -0.3099996 0.2500012 0.4335222
v -0.3699996 0.2500012 0.4335222
v -0.37 -0.2499987 0.4335222
v -0.31 -0.2499988 0.4335222
v -0.24875 -0.2499989 0.8013452
v -0.2487496 0.2500011 0.8013452
v 0.2500004 0.2500007 0.8013452
v 0.25 -0.2499993 0.8013452
v -0.2487501 -0.3699988 0.6204044
v 0.2499999 -0.3699993 0.6204044
v -0.1250001 -0.369999 0.4335222
v -0.2487501 -0.3699988 0.4335222
v 0.2499999 -0.3699992 0.1835222
v -0.06250008 -0.369999 0.2460222
v -0.1250001 -0.3699989 0.2460222
v -0.06250008 -0.369999 0.1835222
v 0.3700004 0.2500007 0.6204044
v 0.3700004 0.2500007 0.1835222
v 0.37 -0.2499993 0.1835222
v 0.37 -0.2499993 0.6204044
v -0.06249949 0.370001 0.2460222
v -0.06250008 -0.369999 0.2460222
v -0.06250008 -0.369999 0.1835222
v -0.06249949 0.370001 0.1835222
v 0.2499999 -0.3699992 0.1835222
v 0.2499999 -0.3699993 0.6204044
v 0.2500005 0.3700007 0.6204044
v 0.2500005 0.3700007 0.1835222
vt 0.0625 0
vt 0 0
vt 0 0.1875
vt 0.0625 0.1875
vt 0.125 0.0625
vt 0.625 0.0625
vt 0.625 0
vt 0.125 0
vt 0.125 0.0625
vt 0.625 0.0625
vt 0.625 0
vt 0.125 0
vt 0.6875 0.1875
vt 0.6875 0
vt 0.06249998 0
vt 0.06249998 0.1875
vt 0.75 0
vt 0 0
vt 0 0.125
vt 0.75 0.125
vt 0.125 0.0625
vt 0.625 0.0625
vt 0.625 0
vt 0.125 0
vt 0.625 0.0625
vt 0.625 0
vt 0.125 0
vt 0.125 0.0625
vt 0.6875 0
vt 0.0625 0
vt 0.0625 0.625
vt 0.6875 0.625
vt 0.6875 0.0625
vt 0.6875 -0.06972025
vt 0.06249998 -0.06972024
vt 0.0625 0.0625
vt 0.75 0
vt 0 0
vt 0 0.1875
vt 0.75 0.1875
vt 0.125 0
vt 0.125 0.4375
vt 0.5 0.25
vt 0.4375 0.0625
vt 0.625 0.4375
vt 0.625 0.25
vt 0.5 0.0625
vt 0.4375 0
vt 0.125 0.1875
vt 0.625 0.1875
vt 0.625 0
vt 0.125 0
vt 0.625 0
vt 0.125 0
vt 0.125 0.0625
vt 0.625 0.0625
vt 0.0625 0.625
vt 0.6875 0.625
vt 0.6875 0
vt 0.2024705 0.2491811
vt 0.25 0.0625
vt 0.2118373 0.0625
vt 0.0625 0.25
vt 0.25 0
vt 0.0625 0.4375
vt 0.0625 0
vt 0 0
vt 0 0.4375
vt 0 0
vt 0 0.1875
vt 0.75 0.1875
vt 0.75 0
vt 0.75 0.5
vt 0.75 0
vt 0 0
vt 0 0.5
vt 0.0625 0.375
vt 0.6875 0.375
vt 0.6875 0
vt 0.0625 0
vt 0.0625 0
vt 0.0625 0.625
vt 0.6875 0.625
vt 0.6875 0
vt 0.0625 0
vt 0.0625 0.625
vt 0.6875 0.625
vt 0.5473728 0.2495882
vt 0.5 0.0625
vt 0.5381626 0.0625
vt 0.6875 0.25
vt 0.5 0
vt 0.6875 0
vt 0.6875 0.4375
vt 0.75 0.4375
vt 0.75 0
vt 0.6875 0.0625
vt 0.6875 0
vt 0.0625 0
vt 0.0625 0.0625
vt 0 0.3125
vt 0.75 0.3125
vt 0.75 0
vt 0 0
vt 0.6875 0.4375
vt 0.6875 0
vt 0.0625 0
vt 0.0625 0.4375
vt 0.75 0.1875
vt 0.75 0
vt 0.6875 0
vt 0.6875 0.1875
vt 0.125 0
vt 0.125 0.0625
vt 0.625 0.0625
vt 0.625 0
vt 0.625 0
vt 0.125 0
vt 0.125 0.0625
vt 0.625 0.0625
vt 0.6875 0.03816268
vt 0.6875 0
vt 0.0625 0
vt 0.06249998 0.03816267
vt 0 0.0625
vt 0.75 0.0625
vt 0.75 0
vt 0 0
vt 0.125 0
vt 0.125 0.0625
vt 0.625 0.0625
vt 0.625 0
vt 0.125 0.5
vt 0.625 0.5
vt 0.625 0
vt 0.125 0
vt 0.125 0.4375
vt 0.625 0.4375
vt 0.25 0.25
vt 0.125 0.25
vt 0.625 0
vt 0.3125 0.0625
vt 0.25 0.0625
vt 0.3125 0
vt 0.625 0.4375
vt 0.625 0
vt 0.125 0
vt 0.125 0.4375
vt 0 0.0625
vt 0.75 0.0625
vt 0.75 0
vt 0 0
vt 0 0
vt 0 0.4375
vt 0.75 0.4375
vt 0.75 0
vn 0 -1 0
vn 0 -1 0
vn 0 -1 0
vn 0 -1 0
vn 0 1 0
vn 0 1 0
vn 0 1 0
vn 0 1 0
vn 0 0 -1
vn 0 0 -1
vn 0 0 -1
vn 0 0 -1
vn -1 0 0
vn -1 0 0
vn -1 0 0
vn -1 0 0
vn 0 0 -1
vn 0 0 -1
vn 0 0 -1
vn 0 0 -1
vn 0 0 1
vn 0 0 1
vn 0 0 1
vn 0 0 1
vn 0 -1 0
vn 0 -1 0
vn 0 -1 0
vn 0 -1 0
vn 1 0 0
vn 1 0 0
vn 1 0 0
vn 1 0 0
vn 0 0 -1
vn 0 0 -1
vn 0 0 -1
vn 0 0 -1
vn -1 0 0
vn -1 0 0
vn -1 0 0
vn -1 0 0
vn 0 1 0
vn 0 1 0
vn 0 1 0
vn 0 1 0
vn 0 1 0
vn 0 1 0
vn 0 1 0
vn 0 1 0
vn -1 0 0
vn -1 0 0
vn -1 0 0
vn -1 0 0
vn -1 0 0
vn -1 0 0
vn -1 0 0
vn -1 0 0
vn 0 -1 0
vn 0 -1 0
vn 0 -1 0
vn 0 -1 0
vn 0 -1 0
vn 0 -1 0
vn 0 -1 0
vn 0 -1 0
vn 0 1 0
vn 0 1 0
vn 0 1 0
vn 0 1 0
vn -1 0 0
vn -1 0 0
vn -1 0 0
vn -1 0 0
vn 0 0 1
vn 0 0 1
vn 0 0 1
vn 0 0 1
vn -1 0 0
vn -1 0 0
vn -1 0 0
vn -1 0 0
vn 0 0 1
vn 0 0 1
vn 0 0 1
vn 0 0 1
vn 0 1 0
vn 0 1 0
vn 0 1 0
vn 0 1 0
vn 0 1 0
vn 0 1 0
vn 0 1 0
vn 0 1 0
vn 0 -1 0
vn 0 -1 0
vn 0 -1 0
vn 0 -1 0
vn -1 0 0
vn -1 0 0
vn -1 0 0
vn -1 0 0
vn 0 0 -1
vn 0 0 -1
vn 0 0 -1
vn 0 0 -1
vn 0 0 -1
vn 0 0 -1
vn 0 0 -1
vn 0 0 -1
vn 0 1 0
vn 0 1 0
vn 0 1 0
vn 0 1 0
vn 1 0 0
vn 1 0 0
vn 1 0 0
vn 1 0 0
vn 0 0 1
vn 0 0 1
vn 0 0 1
vn 0 0 1
vn 0 0 -1
vn 0 0 -1
vn 0 0 -1
vn 0 0 -1
vn 0 0 -1
vn 0 0 -1
vn 0 0 -1
vn 0 0 -1
vn 0 0 -1
vn 0 0 -1
vn 0 0 -1
vn 0 0 -1
vn 0 0 1
vn 0 0 1
vn 0 0 1
vn 0 0 1
vn 0 -1 0
vn 0 -1 0
vn 0 -1 0
vn 0 -1 0
vn 0 -1 0
vn 0 -1 0
vn 0 -1 0
vn 0 -1 0
vn 1 0 0
vn 1 0 0
vn 1 0 0
vn 1 0 0
vn -1 0 0
vn -1 0 0
vn -1 0 0
vn -1 0 0
vn 1 0 0
vn 1 0 0
vn 1 0 0
vn 1 0 0
g league3_hat_afro_Mesh_0
f 3/3/3 2/2/2 1/1/1
f 4/4/4 3/3/3 1/1/1
f 7/7/7 6/6/6 5/5/5
f 8/8/8 7/7/7 5/5/5
f 11/11/11 10/10/10 9/9/9
f 12/12/12 11/11/11 9/9/9
f 15/15/15 14/14/14 13/13/13
f 16/16/16 15/15/15 13/13/13
f 19/19/19 18/18/18 17/17/17
f 20/20/20 19/19/19 17/17/17
f 23/23/23 22/22/22 21/21/21
f 24/24/24 23/23/23 21/21/21
f 27/27/27 26/26/26 25/25/25
f 28/28/28 27/27/27 25/25/25
f 31/31/31 30/30/30 29/29/29
f 32/32/32 31/31/31 29/29/29
f 35/35/35 34/34/34 33/33/33
f 36/36/36 35/35/35 33/33/33
f 39/39/39 38/38/38 37/37/37
f 40/40/40 39/39/39 37/37/37
f 43/43/43 42/42/42 41/41/41
f 44/44/44 43/43/43 41/41/41
f 42/42/42 43/43/43 45/45/45
f 43/43/43 46/46/46 45/45/45
f 47/47/47 43/43/43 44/44/44
f 48/48/48 44/44/44 41/41/41
f 51/51/51 50/50/50 49/49/49
f 52/52/52 51/51/51 49/49/49
f 55/55/55 54/54/54 53/53/53
f 56/56/56 55/55/55 53/53/53
f 59/59/59 58/58/58 57/57/57
f 60/60/60 59/59/59 57/57/57
f 59/59/59 60/60/60 61/61/61
f 60/60/60 62/62/62 61/61/61
f 63/63/63 60/60/60 57/57/57
f 64/64/64 59/59/59 61/61/61
f 67/67/67 66/66/66 65/65/65
f 68/68/68 67/67/67 65/65/65
f 71/71/71 70/70/70 69/69/69
f 72/72/72 71/71/71 69/69/69
f 75/75/75 74/74/74 73/73/73
f 76/76/76 75/75/75 73/73/73
f 79/79/79 78/78/78 77/77/77
f 80/80/80 79/79/79 77/77/77
f 83/83/83 82/82/82 81/81/81
f 84/84/84 83/83/83 81/81/81
f 87/87/87 86/86/86 85/85/85
f 88/88/88 87/87/87 85/85/85
f 85/85/85 89/89/89 88/88/88
f 89/89/89 90/90/90 88/88/88
f 91/91/91 87/87/87 88/88/88
f 92/92/92 89/89/89 85/85/85
f 95/95/95 94/94/94 93/93/93
f 96/96/96 95/95/95 93/93/93
f 99/99/99 98/98/98 97/97/97
f 100/100/100 99/99/99 97/97/97
f 103/103/103 102/102/102 101/101/101
f 104/104/104 103/103/103 101/101/101
f 107/107/107 106/106/106 105/105/105
f 108/108/108 107/107/107 105/105/105
f 111/111/111 110/110/110 109/109/109
f 112/112/112 111/111/111 109/109/109
f 115/115/115 114/114/114 113/113/113
f 116/116/116 115/115/115 113/113/113
f 119/119/119 118/118/118 117/117/117
f 120/120/120 119/119/119 117/117/117
f 123/123/123 122/122/122 121/121/121
f 124/124/124 123/123/123 121/121/121
f 127/127/127 126/126/126 125/125/125
f 128/128/128 127/127/127 125/125/125
f 131/131/131 130/130/130 129/129/129
f 132/132/132 131/131/131 129/129/129
f 135/135/135 134/134/134 133/133/133
f 136/136/136 135/135/135 133/133/133
f 139/139/139 138/138/138 137/137/137
f 140/140/140 139/139/139 137/137/137
f 138/138/138 139/139/139 141/141/141
f 139/139/139 142/142/142 141/141/141
f 143/143/143 142/142/142 139/139/139
f 144/144/144 141/141/141 142/142/142
f 147/147/147 146/146/146 145/145/145
f 148/148/148 147/147/147 145/145/145
f 151/151/151 150/150/150 149/149/149
f 152/152/152 151/151/151 149/149/149
f 155/155/155 154/154/154 153/153/153
f 156/156/156 155/155/155 153/153/153
