g Leg_BL
v -0.09999999 -0.09999999 -0.3127886
v 0.09999999 -0.09999999 -0.3127886
v 0.09999999 0.09999999 -0.3127886
v -0.09999999 0.09999999 -0.3127886
v -0.09999999 -0.09999999 0.005130481
v -0.09999999 0.09999999 0.005130472
v 0.09999999 0.09999999 0.005130472
v 0.09999999 -0.09999999 0.005130481
v -0.09999999 -0.09999999 -0.3127886
v -0.09999999 -0.09999999 0.005130481
v 0.09999999 -0.09999999 0.005130481
v 0.09999999 -0.09999999 -0.3127886
v 0.09999999 -0.09999999 -0.3127886
v 0.09999999 -0.09999999 0.005130481
v 0.09999999 0.09999999 0.005130472
v 0.09999999 0.09999999 -0.3127886
v 0.09999999 0.09999999 -0.3127886
v 0.09999999 0.09999999 0.005130472
v -0.09999999 0.09999999 0.005130472
v -0.09999999 0.09999999 -0.3127886
v -0.09999999 0.09999999 -0.3127886
v -0.09999999 0.09999999 0.005130472
v -0.09999999 -0.09999999 0.005130481
v -0.09999999 -0.09999999 -0.3127886
vt 0.1872776 0.6880622
vt 0.1254975 0.6880622
vt 0.1254975 0.7499697
vt 0.1872777 0.7499697
vt 0.06304707 0.7499729
vt 0.1242063 0.7498634
vt 0.1240981 0.687999
vt 0.06293895 0.6881084
vt 0.1879991 0.5939682
vt 0.1879991 0.6872437
vt 0.2497609 0.6872437
vt 0.2497609 0.5939682
vt 0.0006323349 0.5950296
vt 0.0006323349 0.6870601
vt 0.06207512 0.6870601
vt 0.06207512 0.5950295
vt 0.06284907 0.5941641
vt 0.06284907 0.6873107
vt 0.1235575 0.6873107
vt 0.1235575 0.5941641
vt 0.125775 0.5942145
vt 0.125775 0.6871259
vt 0.186304 0.6871259
vt 0.186304 0.5942145
vn 0 0 -1
vn 0 0 -1
vn 0 0 -1
vn 0 0 -1
vn 0 0 1
vn 0 0 1
vn 0 0 1
vn 0 0 1
vn 0 -1 0
vn 0 -1 0
vn 0 -1 0
vn 0 -1 0
vn 1 0 0
vn 1 0 0
vn 1 0 0
vn 1 0 0
vn 0 1 0
vn 0 1 0
vn 0 1 0
vn 0 1 0
vn -1 0 0
vn -1 0 0
vn -1 0 0
vn -1 0 0
g Leg_BL_0
f 3/3/3 2/2/2 1/1/1
f 4/4/4 3/3/3 1/1/1
f 7/7/7 6/6/6 5/5/5
f 8/8/8 7/7/7 5/5/5
f 11/11/11 10/10/10 9/9/9
f 12/12/12 11/11/11 9/9/9
f 15/15/15 14/14/14 13/13/13
f 16/16/16 15/15/15 13/13/13
f 19/19/19 18/18/18 17/17/17
f 20/20/20 19/19/19 17/17/17
f 23/23/23 22/22/22 21/21/21
f 24/24/24 23/23/23 21/21/21
