# Mesh "Leg_FR" exported with Unity Assets Bundle Extractor; 24 vertices, 36 indices, 48 bytes per vertex
g Leg_FR
# SubMesh 0
# Vertices
v -0.100000 -0.100000 -0.312789
vt 0.125498 0.688062
vn -0.000000 0.000000 -1.000000
v 0.100000 -0.100000 -0.312789
vt 0.187278 0.688062
vn -0.000000 0.000000 -1.000000
v 0.100000 0.100000 -0.312789
vt 0.187278 0.749970
vn -0.000000 0.000000 -1.000000
v -0.100000 0.100000 -0.312789
vt 0.125497 0.749970
vn -0.000000 0.000000 -1.000000
v -0.100000 -0.100000 0.005131
vt 0.062852 0.687660
vn -0.000000 0.000000 1.000000
v -0.100000 0.100000 0.005130
vt 0.062960 0.749873
vn -0.000000 0.000000 1.000000
v 0.100000 0.100000 0.005130
vt 0.123947 0.749762
vn -0.000000 0.000000 1.000000
v 0.100000 -0.100000 0.005131
vt 0.123839 0.687550
vn -0.000000 0.000000 1.000000
v -0.100000 -0.100000 -0.312789
vt 0.249761 0.593968
vn -0.000000 -1.000000 -0.000000
v -0.100000 -0.100000 0.005131
vt 0.249761 0.687244
vn -0.000000 -1.000000 -0.000000
v 0.100000 -0.100000 0.005131
vt 0.187999 0.687244
vn -0.000000 -1.000000 -0.000000
v 0.100000 -0.100000 -0.312789
vt 0.187999 0.593968
vn -0.000000 -1.000000 -0.000000
v 0.100000 -0.100000 -0.312789
vt 0.186903 0.595144
vn 1.000000 0.000000 0.000000
v 0.100000 -0.100000 0.005131
vt 0.186903 0.687175
vn 1.000000 0.000000 0.000000
v 0.100000 0.100000 0.005130
vt 0.125460 0.687175
vn 1.000000 0.000000 0.000000
v 0.100000 0.100000 -0.312789
vt 0.125460 0.595144
vn 1.000000 0.000000 0.000000
v 0.100000 0.100000 -0.312789
vt 0.123558 0.594164
vn -0.000000 1.000000 0.000000
v 0.100000 0.100000 0.005130
vt 0.123558 0.687311
vn -0.000000 1.000000 0.000000
v -0.100000 0.100000 0.005130
vt 0.062849 0.687311
vn -0.000000 1.000000 0.000000
v -0.100000 0.100000 -0.312789
vt 0.062849 0.594164
vn -0.000000 1.000000 0.000000
v -0.100000 0.100000 -0.312789
vt 0.061891 0.594087
vn -1.000000 0.000000 0.000000
v -0.100000 0.100000 0.005130
vt 0.061891 0.686998
vn -1.000000 0.000000 0.000000
v -0.100000 -0.100000 0.005131
vt 0.001362 0.686998
vn -1.000000 0.000000 0.000000
v -0.100000 -0.100000 -0.312789
vt 0.001362 0.594087
vn -1.000000 0.000000 0.000000
# Faces (1 to 24)
f -22/-22/-22 -23/-23/-23 -24/-24/-24
f -21/-21/-21 -22/-22/-22 -24/-24/-24
f -18/-18/-18 -19/-19/-19 -20/-20/-20
f -17/-17/-17 -18/-18/-18 -20/-20/-20
f -14/-14/-14 -15/-15/-15 -16/-16/-16
f -13/-13/-13 -14/-14/-14 -16/-16/-16
f -10/-10/-10 -11/-11/-11 -12/-12/-12
f -9/-9/-9 -10/-10/-10 -12/-12/-12
f -6/-6/-6 -7/-7/-7 -8/-8/-8
f -5/-5/-5 -6/-6/-6 -8/-8/-8
f -2/-2/-2 -3/-3/-3 -4/-4/-4
f -1/-1/-1 -2/-2/-2 -4/-4/-4

