# Mesh "Leg_BL" exported with Unity Assets Bundle Extractor; 24 vertices, 36 indices, 48 bytes per vertex
g Leg_BL
# SubMesh 0
# Vertices
v -0.100000 -0.100000 -0.312789
vt 0.187278 0.688062
vn -0.000000 0.000000 -1.000000
v 0.100000 -0.100000 -0.312789
vt 0.125497 0.688062
vn -0.000000 0.000000 -1.000000
v 0.100000 0.100000 -0.312789
vt 0.125498 0.749970
vn -0.000000 0.000000 -1.000000
v -0.100000 0.100000 -0.312789
vt 0.187278 0.749970
vn -0.000000 0.000000 -1.000000
v -0.100000 -0.100000 0.005130
vt 0.063047 0.749973
vn -0.000000 0.000000 1.000000
v -0.100000 0.100000 0.005130
vt 0.124206 0.749863
vn -0.000000 0.000000 1.000000
v 0.100000 0.100000 0.005130
vt 0.124098 0.687999
vn -0.000000 0.000000 1.000000
v 0.100000 -0.100000 0.005130
vt 0.062939 0.688108
vn -0.000000 0.000000 1.000000
v -0.100000 -0.100000 -0.312789
vt 0.187999 0.593968
vn -0.000000 -1.000000 0.000000
v -0.100000 -0.100000 0.005130
vt 0.187999 0.687244
vn -0.000000 -1.000000 0.000000
v 0.100000 -0.100000 0.005130
vt 0.249761 0.687244
vn -0.000000 -1.000000 0.000000
v 0.100000 -0.100000 -0.312789
vt 0.249761 0.593968
vn -0.000000 -1.000000 0.000000
v 0.100000 -0.100000 -0.312789
vt 0.000632 0.595030
vn 1.000000 0.000000 0.000000
v 0.100000 -0.100000 0.005130
vt 0.000632 0.687060
vn 1.000000 0.000000 0.000000
v 0.100000 0.100000 0.005130
vt 0.062075 0.687060
vn 1.000000 0.000000 0.000000
v 0.100000 0.100000 -0.312789
vt 0.062075 0.595030
vn 1.000000 0.000000 0.000000
v 0.100000 0.100000 -0.312789
vt 0.062849 0.594164
vn -0.000000 1.000000 0.000000
v 0.100000 0.100000 0.005130
vt 0.062849 0.687311
vn -0.000000 1.000000 0.000000
v -0.100000 0.100000 0.005130
vt 0.123558 0.687311
vn -0.000000 1.000000 0.000000
v -0.100000 0.100000 -0.312789
vt 0.123558 0.594164
vn -0.000000 1.000000 0.000000
v -0.100000 0.100000 -0.312789
vt 0.125775 0.594214
vn -1.000000 0.000000 0.000000
v -0.100000 0.100000 0.005130
vt 0.125775 0.687126
vn -1.000000 0.000000 0.000000
v -0.100000 -0.100000 0.005130
vt 0.186304 0.687126
vn -1.000000 0.000000 0.000000
v -0.100000 -0.100000 -0.312789
vt 0.186304 0.594214
vn -1.000000 0.000000 0.000000
# Faces (1 to 24)
f -22/-22/-22 -23/-23/-23 -24/-24/-24
f -21/-21/-21 -22/-22/-22 -24/-24/-24
f -18/-18/-18 -19/-19/-19 -20/-20/-20
f -17/-17/-17 -18/-18/-18 -20/-20/-20
f -14/-14/-14 -15/-15/-15 -16/-16/-16
f -13/-13/-13 -14/-14/-14 -16/-16/-16
f -10/-10/-10 -11/-11/-11 -12/-12/-12
f -9/-9/-9 -10/-10/-10 -12/-12/-12
f -6/-6/-6 -7/-7/-7 -8/-8/-8
f -5/-5/-5 -6/-6/-6 -8/-8/-8
f -2/-2/-2 -3/-3/-3 -4/-4/-4
f -1/-1/-1 -2/-2/-2 -4/-4/-4

