# Mesh "Leprikon_Arm_R" exported with Unity Assets Bundle Extractor; 24 vertices, 36 indices, 32 bytes per vertex
g Leprikon_Arm_R
# SubMesh 0
# Vertices
v 0.000025 0.096159 0.027155
vt 0.687630 0.375189
vn 0.000000 0.000000 1.000000
v 0.000025 -0.096159 0.027155
vt 0.749914 0.375189
vn 0.000000 0.000000 1.000000
v -0.192294 -0.096159 0.027155
vt 0.749914 0.499796
vn 0.000000 0.000000 1.000000
v -0.192294 0.096159 0.027155
vt 0.687630 0.499796
vn 0.000000 0.000000 1.000000
v 0.000025 0.096159 -0.401060
vt 0.812404 0.375123
vn -0.000000 0.000000 -1.000000
v -0.192294 0.096159 -0.401060
vt 0.812404 0.499686
vn -0.000000 0.000000 -1.000000
v -0.192294 -0.096159 -0.401060
vt 0.750142 0.499686
vn -0.000000 0.000000 -1.000000
v 0.000024 -0.096159 -0.401060
vt 0.750142 0.375123
vn -0.000000 0.000000 -1.000000
v -0.192294 0.096159 -0.401060
vt 0.625035 0.278180
vn -1.000000 0.000001 0.000000
v -0.192294 0.096159 0.027155
vt 0.687362 0.278181
vn -1.000000 0.000001 0.000000
v -0.192294 -0.096159 0.027155
vt 0.687362 0.000122
vn -1.000000 0.000001 0.000000
v -0.192294 -0.096159 -0.401060
vt 0.625034 0.000121
vn -1.000000 0.000001 0.000000
v 0.000025 0.096159 -0.401060
vt 0.812483 0.278457
vn 0.000001 1.000000 0.000000
v 0.000025 0.096159 0.027155
vt 0.874988 0.278456
vn 0.000001 1.000000 0.000000
v -0.192294 0.096159 0.027155
vt 0.874988 0.000573
vn 0.000001 1.000000 0.000000
v -0.192294 0.096159 -0.401060
vt 0.812484 0.000573
vn 0.000001 1.000000 0.000000
v 0.000025 -0.096159 0.027155
vt 0.812447 0.278378
vn 1.000000 -0.000001 -0.000000
v 0.000025 0.096159 0.027155
vt 0.749542 0.281901
vn 1.000000 -0.000001 -0.000000
v 0.000024 -0.096159 -0.401060
vt 0.812447 0.000581
vn 1.000000 -0.000001 -0.000000
v 0.000025 0.096159 -0.401060
vt 0.750129 0.000581
vn 1.000000 -0.000001 -0.000000
v -0.192294 -0.096159 0.027155
vt 0.749970 0.278285
vn -0.000001 -1.000000 0.000000
v 0.000025 -0.096159 0.027155
vt 0.686946 0.281812
vn -0.000001 -1.000000 0.000000
v -0.192294 -0.096159 -0.401060
vt 0.749970 0.000084
vn -0.000001 -1.000000 0.000000
v 0.000024 -0.096159 -0.401060
vt 0.687533 0.000084
vn -0.000001 -1.000000 0.000000
# Faces (1 to 24)
f -22/-22/-22 -23/-23/-23 -24/-24/-24
f -21/-21/-21 -22/-22/-22 -24/-24/-24
f -18/-18/-18 -19/-19/-19 -20/-20/-20
f -17/-17/-17 -18/-18/-18 -20/-20/-20
f -14/-14/-14 -15/-15/-15 -16/-16/-16
f -13/-13/-13 -14/-14/-14 -16/-16/-16
f -10/-10/-10 -11/-11/-11 -12/-12/-12
f -9/-9/-9 -10/-10/-10 -12/-12/-12
f -6/-6/-6 -7/-7/-7 -8/-8/-8
f -6/-6/-6 -5/-5/-5 -7/-7/-7
f -2/-2/-2 -3/-3/-3 -4/-4/-4
f -2/-2/-2 -1/-1/-1 -3/-3/-3

