g Lift_Button
v 0.12 0.16 0.05
v -0.12 -0.16 0.05
v -0.12 0.16 0.05
v 0.12 -0.16 0.05
v 0.12 -0.16 0.05
v -0.12 -0.16 0
v -0.12 -0.16 0.05
v 0.12 -0.16 0
v 0.12 0.16 0.05
v 0.12 -0.16 0
v 0.12 -0.16 0.05
v 0.12 0.16 0
v -0.12 0.16 0.05
v 0.12 0.16 0
v 0.12 0.16 0.05
v -0.12 0.16 0
v -0.12 -0.16 0.05
v -0.12 0.16 0
v -0.12 0.16 0.05
v -0.12 -0.16 0
vt 0.1142578 0.9580078
vt 0.1298828 0.9453125
vt 0.1142578 0.9453125
vt 0.1298828 0.9580078
vt 0.1201172 0.9462891
vt 0.1210938 0.9453125
vt 0.1201172 0.9453125
vt 0.1210938 0.9462891
vt 0.1201172 0.9462891
vt 0.1210938 0.9453125
vt 0.1201172 0.9453125
vt 0.1210938 0.9462891
vt 0.1201172 0.9462891
vt 0.1210938 0.9453125
vt 0.1201172 0.9453125
vt 0.1210938 0.9462891
vt 0.1201172 0.9462891
vt 0.1210938 0.9453125
vt 0.1201172 0.9453125
vt 0.1210938 0.9462891
vn 0 0 1
vn 0 0 1
vn 0 0 1
vn 0 0 1
vn 0 -1 0
vn 0 -1 0
vn 0 -1 0
vn 0 -1 0
vn 1 0 0
vn 1 0 0
vn 1 0 0
vn 1 0 0
vn 0 1 0
vn 0 1 0
vn 0 1 0
vn 0 1 0
vn -1 0 0
vn -1 0 0
vn -1 0 0
vn -1 0 0
g Lift_Button_0
f 3/3/3 2/2/2 1/1/1
f 4/4/4 1/1/1 2/2/2
f 7/7/7 6/6/6 5/5/5
f 8/8/8 5/5/5 6/6/6
f 11/11/11 10/10/10 9/9/9
f 12/12/12 9/9/9 10/10/10
f 15/15/15 14/14/14 13/13/13
f 16/16/16 13/13/13 14/14/14
f 19/19/19 18/18/18 17/17/17
f 20/20/20 17/17/17 18/18/18
