# Mesh "Light_Champion_Armor_Left" exported with Unity Assets Bundle Extractor; 48 vertices, 72 indices, 32 bytes per vertex
g Light_Champion_Armor_Left
# SubMesh 0
# Vertices
v 0.280532 -0.192384 -0.168889
vt 0.156250 0.062500
vn -0.000000 -1.000000 0.000000
v -0.013712 -0.192384 -0.168889
vt 0.031250 0.062500
vn -0.000000 -1.000000 0.000000
v -0.013712 -0.192384 0.169078
vt 0.031250 0.187500
vn -0.000000 -1.000000 0.000000
v 0.280532 -0.192384 0.169078
vt 0.156250 0.187500
vn -0.000000 -1.000000 0.000000
v 0.280532 0.151950 -0.168889
vt 0.671875 0.984375
vn 1.000000 0.000000 0.000000
v 0.280532 -0.192384 -0.168889
vt 0.671875 0.827928
vn 1.000000 0.000000 0.000000
v 0.280532 -0.192384 0.169078
vt 0.546875 0.827928
vn 1.000000 0.000000 0.000000
v 0.280532 0.151950 0.169078
vt 0.546875 0.984375
vn 1.000000 0.000000 0.000000
v -0.013712 0.151950 0.169078
vt 0.546875 0.984375
vn -1.000000 0.000000 0.000000
v -0.013712 -0.192384 0.169078
vt 0.546875 0.827928
vn -1.000000 0.000000 0.000000
v -0.013712 -0.192384 -0.168889
vt 0.671875 0.827928
vn -1.000000 0.000000 0.000000
v -0.013712 0.151950 -0.168889
vt 0.671875 0.984375
vn -1.000000 0.000000 0.000000
v -0.013712 0.151950 0.169078
vt 0.171875 0.937500
vn -0.000000 0.000000 1.000000
v 0.280532 0.151950 0.169078
vt 0.296875 0.937500
vn -0.000000 0.000000 1.000000
v 0.280532 -0.192384 0.169078
vt 0.296875 0.781053
vn -0.000000 0.000000 1.000000
v -0.013712 -0.192384 0.169078
vt 0.171875 0.781053
vn -0.000000 0.000000 1.000000
v 0.280532 -0.192384 -0.168889
vt 0.296875 0.781053
vn -0.000000 0.000000 -1.000000
v 0.280532 0.151950 -0.168889
vt 0.296875 0.937500
vn -0.000000 0.000000 -1.000000
v -0.013712 0.151950 -0.168889
vt 0.171875 0.937500
vn -0.000000 0.000000 -1.000000
v -0.013712 -0.192384 -0.168889
vt 0.171875 0.781053
vn -0.000000 0.000000 -1.000000
v 0.280532 0.151950 -0.168889
vt 0.843750 0.843750
vn -0.000000 1.000000 0.000000
v 0.280532 0.151950 0.169078
vt 0.843750 0.968750
vn -0.000000 1.000000 0.000000
v -0.013712 0.151950 0.169078
vt 0.718750 0.968750
vn -0.000000 1.000000 0.000000
v -0.013712 0.151950 -0.168889
vt 0.718750 0.843750
vn -0.000000 1.000000 0.000000
v 0.206971 0.165645 0.186520
vt 0.968750 0.968750
vn -0.000000 1.000000 0.000000
v 0.059849 0.165645 0.186520
vt 0.906250 0.968750
vn -0.000000 1.000000 0.000000
v 0.059849 0.165645 -0.184485
vt 0.906250 0.843750
vn -0.000000 1.000000 0.000000
v 0.206971 0.165645 -0.184485
vt 0.968750 0.843750
vn -0.000000 1.000000 0.000000
v 0.206971 0.014216 0.186520
vt 0.796356 0.687500
vn 1.000000 0.000000 0.000000
v 0.206971 0.165645 0.186520
vt 0.796356 0.750079
vn 1.000000 0.000000 0.000000
v 0.206971 0.165645 -0.184485
vt 0.781250 0.750079
vn 1.000000 0.000000 0.000000
v 0.206971 0.014216 -0.184485
vt 0.781250 0.687500
vn 1.000000 0.000000 0.000000
v 0.206971 0.014216 0.186520
vt 0.781250 0.687500
vn -0.000000 0.000000 1.000000
v 0.059849 0.014216 0.186520
vt 0.718750 0.687500
vn -0.000000 0.000000 1.000000
v 0.059849 0.165645 0.186520
vt 0.718750 0.750079
vn -0.000000 0.000000 1.000000
v 0.206971 0.165645 0.186520
vt 0.781250 0.750079
vn -0.000000 0.000000 1.000000
v 0.206971 0.165645 -0.184485
vt 0.781250 0.750079
vn -0.000000 0.000000 -1.000000
v 0.059849 0.165645 -0.184485
vt 0.718750 0.750079
vn -0.000000 0.000000 -1.000000
v 0.059849 0.014216 -0.184485
vt 0.718750 0.687500
vn -0.000000 0.000000 -1.000000
v 0.206971 0.014216 -0.184485
vt 0.781250 0.687500
vn -0.000000 0.000000 -1.000000
v 0.059849 0.014216 0.186520
vt 0.796356 0.687500
vn -1.000000 0.000000 0.000000
v 0.059849 0.014216 -0.184485
vt 0.781250 0.687500
vn -1.000000 0.000000 0.000000
v 0.059849 0.165645 -0.184485
vt 0.781250 0.750079
vn -1.000000 0.000000 0.000000
v 0.059849 0.165645 0.186520
vt 0.796356 0.750079
vn -1.000000 0.000000 0.000000
v 0.206971 0.014216 0.186520
vt 0.781250 0.687500
vn -0.000000 -1.000000 0.000000
v 0.206971 0.014216 -0.184485
vt 0.781250 0.699072
vn -0.000000 -1.000000 0.000000
v 0.059849 0.014216 -0.184485
vt 0.718750 0.699072
vn -0.000000 -1.000000 0.000000
v 0.059849 0.014216 0.186520
vt 0.718750 0.687500
vn -0.000000 -1.000000 0.000000
# Faces (1 to 48)
f -46/-46/-46 -47/-47/-47 -48/-48/-48
f -45/-45/-45 -46/-46/-46 -48/-48/-48
f -42/-42/-42 -43/-43/-43 -44/-44/-44
f -41/-41/-41 -42/-42/-42 -44/-44/-44
f -38/-38/-38 -39/-39/-39 -40/-40/-40
f -37/-37/-37 -38/-38/-38 -40/-40/-40
f -34/-34/-34 -35/-35/-35 -36/-36/-36
f -33/-33/-33 -34/-34/-34 -36/-36/-36
f -30/-30/-30 -31/-31/-31 -32/-32/-32
f -29/-29/-29 -30/-30/-30 -32/-32/-32
f -26/-26/-26 -27/-27/-27 -28/-28/-28
f -25/-25/-25 -26/-26/-26 -28/-28/-28
f -22/-22/-22 -23/-23/-23 -24/-24/-24
f -21/-21/-21 -22/-22/-22 -24/-24/-24
f -18/-18/-18 -19/-19/-19 -20/-20/-20
f -17/-17/-17 -18/-18/-18 -20/-20/-20
f -14/-14/-14 -15/-15/-15 -16/-16/-16
f -13/-13/-13 -14/-14/-14 -16/-16/-16
f -10/-10/-10 -11/-11/-11 -12/-12/-12
f -9/-9/-9 -10/-10/-10 -12/-12/-12
f -6/-6/-6 -7/-7/-7 -8/-8/-8
f -5/-5/-5 -6/-6/-6 -8/-8/-8
f -2/-2/-2 -3/-3/-3 -4/-4/-4
f -1/-1/-1 -2/-2/-2 -4/-4/-4

