g Light
v -3.744682 -11.35738 -0.05249786
v 5.46928 0.2313461 -0.05249786
v 5.46928 -11.35738 -0.05249786
v -3.744682 0.2313461 -0.05249786
v 4.500839 -10.73732 -4.00285
v 13.71481 0.1524239 -0.03922272
v 13.71481 -10.73732 -4.00285
v 4.500839 0.1524239 -0.03922272
v 12.42281 -11.35738 -0.05249786
v 21.63678 0.2313461 -0.05249786
v 21.63678 -11.35738 -0.05249786
v 12.42281 0.2313461 -0.05249786
v 20.41879 -13.88199 -2.501019
v 30.18532 0.2910919 -0.001976013
v 30.18532 -13.88199 -2.501019
v 20.41879 0.2910919 -0.001976013
v 28.95307 -11.35738 -0.05249786
v 38.16704 0.2313461 -0.05249786
v 38.16704 -11.35738 -0.05249786
v 28.95307 0.2313461 -0.05249786
v 37.41298 -9.822845 -1.78532
v 45.59753 0.3146935 0.002204895
v 45.59753 -9.822845 -1.78532
v 37.41298 0.3146935 0.002204895
v 45.2537 -11.35738 -0.05249786
v 54.46766 0.2313461 -0.05249786
v 54.46766 -11.35738 -0.05249786
v 45.2537 0.2313461 -0.05249786
v 54.76552 -10.67524 -3.920979
v 56.77789 -1.035938 7.134724
v 54.76552 -12.27517 5.152966
v 56.77789 0.5639954 -1.939228
v 56.73842 -12.26841 4.172848
v 56.73842 -2.45578 15.25928
v 56.73842 -13.86834 13.24691
v 56.73842 -0.8557243 6.185211
v 54.60006 -15.17939 11.21341
v 56.94335 -3.954662 24.08761
v 54.59993 -17.04252 21.77985
v 56.94335 -2.091537 13.52118
v 56.73842 -15.10822 20.27875
v 56.73842 -5.295582 31.36506
v 56.73842 -16.70827 29.3527
v 56.73842 -3.695648 22.29112
v 54.76552 -16.36751 28.36164
v 56.77789 -6.728329 39.41746
v 54.76552 -17.96756 37.43571
v 56.77789 -5.128273 30.34352
v 56.73842 -17.93929 36.33438
v 56.73842 -8.126656 47.42069
v 56.73842 -19.53922 45.40833
v 56.73842 -6.526726 38.34674
v 54.65341 -20.55155 45.21914
v 56.88987 -9.325222 54.59414
v 54.65341 -21.81625 52.39173
v 56.88987 -8.06052 47.42167
v 56.73842 -20.79434 52.52609
v 56.73842 -10.9817 63.6124
v 56.73842 -22.39427 61.60004
v 56.73842 -9.381649 54.53846
v 54.6389 -23.34968 59.51159
v 56.90438 -12.49804 71.95787
v 54.6389 -25.15097 69.72681
v 56.90438 -10.69675 61.74264
v 55.00819 -23.24408 67.36078
v 45.79422 -12.35434 71.3243
v 45.79422 -23.24408 67.36078
v 55.00819 -12.35434 71.3243
v 46.95591 -23.76703 69.38507
v 37.74194 -12.35434 71.39743
v 37.74194 -23.76703 69.38507
v 46.95591 -12.35434 71.39743
v 38.64954 -23.30715 67.71838
v 29.43557 -12.4174 71.6819
v 29.43557 -23.30715 67.71838
v 38.64954 -12.4174 71.6819
v 30.44901 -23.84988 69.8549
v 21.23504 -12.43719 71.86714
v 21.23504 -23.84988 69.8549
v 30.44901 -12.43719 71.86714
v 22.33551 -23.24408 67.36078
v 13.12154 -12.35434 71.3243
v 13.12154 -23.24408 67.36078
v 22.33551 -12.35434 71.3243
v 13.85421 -23.74773 69.27541
v 4.640244 -12.33504 71.28778
v 4.640244 -23.74773 69.27541
v 13.85421 -12.33504 71.28778
v 7.403461 -26.85896 66.3873
v -4.841339 -12.38692 71.65472
v -4.841339 -26.85896 66.3873
v 7.403461 -12.38692 71.65472
v -3.896008 -22.14767 68.75616
v -5.683533 -10.74285 62.45637
v -3.896008 -20.72648 60.69601
v -5.683533 -12.16417 70.51651
v -3.608353 -22.63091 52.26954
v -5.971188 -7.902309 45.90792
v -3.608353 -21.09883 43.5811
v -5.971188 -9.434261 54.59648
v -5.756554 -22.26151 60.8466
v -5.756554 -9.248886 53.78489
v -5.756554 -20.66145 51.77266
v -5.756554 -10.84882 62.85897
v -5.756554 -19.41887 44.72582
v -5.756554 -6.406254 37.66411
v -5.756554 -17.81894 35.65175
v -5.756554 -8.00631 46.73806
v -3.647324 -19.45084 37.14387
v -5.93222 -4.872581 29.09098
v -3.647324 -17.63418 26.84075
v -5.93222 -6.68924 39.39411
v -5.756554 -16.58436 28.64978
v -5.756554 -3.571735 21.5882
v -5.756554 -14.9843 19.57584
v -5.756554 -5.171669 30.66215
v -3.918507 -13.37122 20.40279
v -5.661037 -2.253067 14.26133
v -3.918507 -11.98579 12.54511
v -5.661037 -3.638611 22.11889
v -5.756554 -13.75267 12.59047
v -5.756554 -0.7400475 5.528889
v -5.756554 -12.15261 3.516525
v -5.756554 -2.339977 14.60283
v -3.783527 -12.16761 4.542744
v -5.795891 0.6715584 -2.54945
v -3.783527 -10.56768 -4.531204
v -5.795891 -0.9283752 6.524498
vt 0 0
vt 1 1
vt 1 0
vt 0 1
vt 0 0
vt 1 1
vt 1 0
vt 0 1
vt 0 0
vt 1 1
vt 1 0
vt 0 1
vt 0 0
vt 1 1
vt 1 0
vt 0 1
vt 0 0
vt 1 1
vt 1 0
vt 0 1
vt 0 0
vt 1 1
vt 1 0
vt 0 1
vt 0 0
vt 1 1
vt 1 0
vt 0 1
vt 0 0
vt 1 1
vt 1 0
vt 0 1
vt 0 0
vt 1 1
vt 1 0
vt 0 1
vt 0 0
vt 1 1
vt 1 0
vt 0 1
vt 0 0
vt 1 1
vt 1 0
vt 0 1
vt 0 0
vt 1 1
vt 1 0
vt 0 1
vt 0 0
vt 1 1
vt 1 0
vt 0 1
vt 0 0
vt 1 1
vt 1 0
vt 0 1
vt 0 0
vt 1 1
vt 1 0
vt 0 1
vt 0 0
vt 1 1
vt 1 0
vt 0 1
vt 0 0
vt 1 1
vt 1 0
vt 0 1
vt 0 0
vt 1 1
vt 1 0
vt 0 1
vt 0 0
vt 1 1
vt 1 0
vt 0 1
vt 0 0
vt 1 1
vt 1 0
vt 0 1
vt 0 0
vt 1 1
vt 1 0
vt 0 1
vt 0 0
vt 1 1
vt 1 0
vt 0 1
vt 0 0
vt 1 1
vt 1 0
vt 0 1
vt 0 0
vt 1 1
vt 1 0
vt 0 1
vt 0 0
vt 1 1
vt 1 0
vt 0 1
vt 0 0
vt 1 1
vt 1 0
vt 0 1
vt 0 0
vt 1 1
vt 1 0
vt 0 1
vt 0 0
vt 1 1
vt 1 0
vt 0 1
vt 0 0
vt 1 1
vt 1 0
vt 0 1
vt 0 0
vt 1 1
vt 1 0
vt 0 1
vt 0 0
vt 1 1
vt 1 0
vt 0 1
vt 0 0
vt 1 1
vt 1 0
vt 0 1
vn -0.0009775162 0.0009775162 0.999999
vn -0.0009775162 0.0009775162 0.999999
vn -0.0009775162 0.0009775162 0.999999
vn -0.0009775162 0.0009775162 0.999999
vn -0.0009775162 -0.3411533 0.9400072
vn -0.0009775162 -0.3411533 0.9400072
vn -0.0009775162 -0.3411533 0.9400072
vn -0.0009775162 -0.3411533 0.9400072
vn -0.0009775162 0.0009775162 0.999999
vn -0.0009775162 0.0009775162 0.999999
vn -0.0009775162 0.0009775162 0.999999
vn -0.0009775162 0.0009775162 0.999999
vn -0.0009775162 -0.1730204 0.9849178
vn -0.0009775162 -0.1730204 0.9849178
vn -0.0009775162 -0.1730204 0.9849178
vn -0.0009775162 -0.1730204 0.9849178
vn -0.0009775162 0.0009775162 0.999999
vn -0.0009775162 0.0009775162 0.999999
vn -0.0009775162 0.0009775162 0.999999
vn -0.0009775162 0.0009775162 0.999999
vn -0.0009775162 -0.1730204 0.9849178
vn -0.0009775162 -0.1730204 0.9849178
vn -0.0009775162 -0.1730204 0.9849178
vn -0.0009775162 -0.1730204 0.9849178
vn -0.0009775162 0.0009775162 0.999999
vn -0.0009775162 0.0009775162 0.999999
vn -0.0009775162 0.0009775162 0.999999
vn -0.0009775162 0.0009775162 0.999999
vn -0.9843593 0.1710654 0.04211253
vn -0.9843593 0.1710654 0.04211253
vn -0.9843593 0.1710654 0.04211253
vn -0.9843593 0.1710654 0.04211253
vn -0.9999995 0.0009775162 0
vn -0.9999995 0.0009775162 0
vn -0.9999995 0.0009775162 0
vn -0.9999995 0.0009775162 0
vn -0.9843593 0.1710654 0.04211253
vn -0.9843593 0.1710654 0.04211253
vn -0.9843593 0.1710654 0.04211253
vn -0.9843593 0.1710654 0.04211253
vn -0.9999995 0.0009775162 0
vn -0.9999995 0.0009775162 0
vn -0.9999995 0.0009775162 0
vn -0.9999995 0.0009775162 0
vn -0.9843593 0.1710654 0.04211253
vn -0.9843593 0.1710654 0.04211253
vn -0.9843593 0.1710654 0.04211253
vn -0.9843593 0.1710654 0.04211253
vn -0.9999995 0.0009775162 0
vn -0.9999995 0.0009775162 0
vn -0.9999995 0.0009775162 0
vn -0.9999995 0.0009775162 0
vn -0.9843593 0.1710654 0.04211253
vn -0.9843593 0.1710654 0.04211253
vn -0.9843593 0.1710654 0.04211253
vn -0.9843593 0.1710654 0.04211253
vn -0.9999995 0.0009775162 0
vn -0.9999995 0.0009775162 0
vn -0.9999995 0.0009775162 0
vn -0.9999995 0.0009775162 0
vn -0.9843593 0.1710654 0.04211253
vn -0.9843593 0.1710654 0.04211253
vn -0.9843593 0.1710654 0.04211253
vn -0.9843593 0.1710654 0.04211253
vn -0.0009775162 0.3411533 -0.9400072
vn -0.0009775162 0.3411533 -0.9400072
vn -0.0009775162 0.3411533 -0.9400072
vn -0.0009775162 0.3411533 -0.9400072
vn -0.0009775162 0.1730205 -0.9849178
vn -0.0009775162 0.1730205 -0.9849178
vn -0.0009775162 0.1730205 -0.9849178
vn -0.0009775162 0.1730205 -0.9849178
vn -0.0009775162 0.3411533 -0.9400072
vn -0.0009775162 0.3411533 -0.9400072
vn -0.0009775162 0.3411533 -0.9400072
vn -0.0009775162 0.3411533 -0.9400072
vn -0.0009775162 0.1730205 -0.9849178
vn -0.0009775162 0.1730205 -0.9849178
vn -0.0009775162 0.1730205 -0.9849178
vn -0.0009775162 0.1730205 -0.9849178
vn -0.0009775162 0.3411533 -0.9400072
vn -0.0009775162 0.3411533 -0.9400072
vn -0.0009775162 0.3411533 -0.9400072
vn -0.0009775162 0.3411533 -0.9400072
vn -0.0009775162 0.1730205 -0.9849178
vn -0.0009775162 0.1730205 -0.9849178
vn -0.0009775162 0.1730205 -0.9849178
vn -0.0009775162 0.1730205 -0.9849178
vn -0.0009775162 0.3411533 -0.9400072
vn -0.0009775162 0.3411533 -0.9400072
vn -0.0009775162 0.3411533 -0.9400072
vn -0.0009775162 0.3411533 -0.9400072
vn 0.9843593 0.1710654 0.04211253
vn 0.9843593 0.1710654 0.04211253
vn 0.9843593 0.1710654 0.04211253
vn 0.9843593 0.1710654 0.04211253
vn 0.9843593 0.1710654 0.04211253
vn 0.9843593 0.1710654 0.04211253
vn 0.9843593 0.1710654 0.04211253
vn 0.9843593 0.1710654 0.04211253
vn 0.9999995 0.0009775162 0
vn 0.9999995 0.0009775162 0
vn 0.9999995 0.0009775162 0
vn 0.9999995 0.0009775162 0
vn 0.9999995 0.0009775162 0
vn 0.9999995 0.0009775162 0
vn 0.9999995 0.0009775162 0
vn 0.9999995 0.0009775162 0
vn 0.9843593 0.1710654 0.04211253
vn 0.9843593 0.1710654 0.04211253
vn 0.9843593 0.1710654 0.04211253
vn 0.9843593 0.1710654 0.04211253
vn 0.9999995 0.0009775162 0
vn 0.9999995 0.0009775162 0
vn 0.9999995 0.0009775162 0
vn 0.9999995 0.0009775162 0
vn 0.9843593 0.1710654 0.04211253
vn 0.9843593 0.1710654 0.04211253
vn 0.9843593 0.1710654 0.04211253
vn 0.9843593 0.1710654 0.04211253
vn 0.9999995 0.0009775162 0
vn 0.9999995 0.0009775162 0
vn 0.9999995 0.0009775162 0
vn 0.9999995 0.0009775162 0
vn 0.9843593 0.1710654 0.04211253
vn 0.9843593 0.1710654 0.04211253
vn 0.9843593 0.1710654 0.04211253
vn 0.9843593 0.1710654 0.04211253
g Light_0
f 3/3/3 2/2/2 1/1/1
f 4/4/4 1/1/1 2/2/2
f 7/7/7 6/6/6 5/5/5
f 8/8/8 5/5/5 6/6/6
f 11/11/11 10/10/10 9/9/9
f 12/12/12 9/9/9 10/10/10
f 15/15/15 14/14/14 13/13/13
f 16/16/16 13/13/13 14/14/14
f 19/19/19 18/18/18 17/17/17
f 20/20/20 17/17/17 18/18/18
f 23/23/23 22/22/22 21/21/21
f 24/24/24 21/21/21 22/22/22
f 27/27/27 26/26/26 25/25/25
f 28/28/28 25/25/25 26/26/26
f 31/31/31 30/30/30 29/29/29
f 32/32/32 29/29/29 30/30/30
f 35/35/35 34/34/34 33/33/33
f 36/36/36 33/33/33 34/34/34
f 39/39/39 38/38/38 37/37/37
f 40/40/40 37/37/37 38/38/38
f 43/43/43 42/42/42 41/41/41
f 44/44/44 41/41/41 42/42/42
f 47/47/47 46/46/46 45/45/45
f 48/48/48 45/45/45 46/46/46
f 51/51/51 50/50/50 49/49/49
f 52/52/52 49/49/49 50/50/50
f 55/55/55 54/54/54 53/53/53
f 56/56/56 53/53/53 54/54/54
f 59/59/59 58/58/58 57/57/57
f 60/60/60 57/57/57 58/58/58
f 63/63/63 62/62/62 61/61/61
f 64/64/64 61/61/61 62/62/62
f 67/67/67 66/66/66 65/65/65
f 68/68/68 65/65/65 66/66/66
f 71/71/71 70/70/70 69/69/69
f 72/72/72 69/69/69 70/70/70
f 75/75/75 74/74/74 73/73/73
f 76/76/76 73/73/73 74/74/74
f 79/79/79 78/78/78 77/77/77
f 80/80/80 77/77/77 78/78/78
f 83/83/83 82/82/82 81/81/81
f 84/84/84 81/81/81 82/82/82
f 87/87/87 86/86/86 85/85/85
f 88/88/88 85/85/85 86/86/86
f 91/91/91 90/90/90 89/89/89
f 92/92/92 89/89/89 90/90/90
f 95/95/95 94/94/94 93/93/93
f 96/96/96 93/93/93 94/94/94
f 99/99/99 98/98/98 97/97/97
f 100/100/100 97/97/97 98/98/98
f 103/103/103 102/102/102 101/101/101
f 104/104/104 101/101/101 102/102/102
f 107/107/107 106/106/106 105/105/105
f 108/108/108 105/105/105 106/106/106
f 111/111/111 110/110/110 109/109/109
f 112/112/112 109/109/109 110/110/110
f 115/115/115 114/114/114 113/113/113
f 116/116/116 113/113/113 114/114/114
f 119/119/119 118/118/118 117/117/117
f 120/120/120 117/117/117 118/118/118
f 123/123/123 122/122/122 121/121/121
f 124/124/124 121/121/121 122/122/122
f 127/127/127 126/126/126 125/125/125
f 128/128/128 125/125/125 126/126/126
