g Lim_access_Label
v 4.798166 -20.24031 3.800125
v 4.798166 -18.2403 3.800125
v 4.798166 -18.2403 4.000125
v 4.798166 -20.24031 4.000125
v 4.848166 -20.24031 3.800125
v 4.798166 -20.24031 3.800125
v 4.798166 -20.24031 4.000125
v 4.848166 -20.24031 4.000125
v 4.848166 -20.24031 4.000125
v 4.798166 -20.24031 4.000125
v 4.798166 -18.2403 4.000125
v 4.848166 -18.2403 4.000125
v 4.848166 -18.2403 4.000125
v 4.798166 -18.2403 4.000125
v 4.798166 -18.2403 3.800125
v 4.848166 -18.2403 3.800125
vt 0.2898623 0.9110799
vt 0.1327278 0.9110799
vt 0.1327278 0.9252801
vt 0.2898623 0.9252801
vt 0.177918 0.9241683
vt 0.173509 0.9241683
vt 0.173509 0.9244132
vt 0.177918 0.9244132
vt 0.2898623 0.9110799
vt 0.1327278 0.9110799
vt 0.1327278 0.9119673
vt 0.2898623 0.9119673
vt 0.177918 0.9241683
vt 0.173509 0.9241683
vt 0.173509 0.9244132
vt 0.177918 0.9244132
vn -1 0 0
vn -1 0 0
vn -1 0 0
vn -1 0 0
vn 0 -1 0
vn 0 -1 0
vn 0 -1 0
vn 0 -1 0
vn 0 -2.980221E-07 1
vn 0 -2.980221E-07 1
vn 0 -2.980221E-07 1
vn 0 -2.980221E-07 1
vn 0 1 0
vn 0 1 0
vn 0 1 0
vn 0 1 0
g Lim_access_Label_0
f 3/3/3 2/2/2 1/1/1
f 4/4/4 3/3/3 1/1/1
f 7/7/7 6/6/6 5/5/5
f 8/8/8 7/7/7 5/5/5
f 11/11/11 10/10/10 9/9/9
f 12/12/12 11/11/11 9/9/9
f 15/15/15 14/14/14 13/13/13
f 16/16/16 15/15/15 13/13/13
