# Mesh "Line003" exported with Unity Assets Bundle Extractor; 34 vertices, 60 indices, 256 bits per vertex
g Line003
# SubMesh 0
# Vertices
v 1.301465 -0.663091 0.010000
vt 26.624949 -19.157028
vn -0.000000 0.000000 1.000000
v 2.062572 -1.163584 0.010000
vt 39.071152 -8.937910
vn -0.000000 0.000000 1.000000
v -2.795789 -1.125329 0.010000
vt 39.530609 -12.222184
vn -0.000000 0.000000 1.000000
v -2.795789 -1.125329 0.010000
vt 39.530609 -12.222184
vn -0.000000 0.000000 1.000000
v 0.575379 -0.004615 0.010000
vt 46.404419 -20.346012
vn -0.000000 0.000000 1.000000
v 1.301465 -0.663091 0.010000
vt 26.624949 -19.157028
vn -0.000000 0.000000 1.000000
v 0.178297 0.700512 0.010000
vt 43.519035 -18.110710
vn -0.000000 0.000000 1.000000
v -0.017291 1.483104 0.010000
vt 40.844482 -15.228210
vn -0.000000 0.000000 1.000000
v -2.795789 -1.125329 0.000000
vt -25.614178 -19.148462
vn -0.000000 0.000000 -1.000000
v 2.062572 -1.163584 0.000000
vt -45.393646 -20.337446
vn -0.000000 0.000000 -1.000000
v 1.301465 -0.663091 0.000000
vt -42.508266 -18.102144
vn -0.000000 0.000000 -1.000000
v 0.575379 -0.004615 0.000000
vt -39.833710 -15.219644
vn -0.000000 0.000000 -1.000000
v 0.178297 0.700512 0.000000
vt -38.519840 -12.213617
vn -0.000000 0.000000 -1.000000
v -0.017291 1.483104 0.000000
vt -38.060383 -8.929344
vn -0.000000 0.000000 -1.000000
v 2.062572 -1.163584 0.010000
vt 46.404419 -6.366787
vn -0.007874 -0.999969 0.000000
v 2.062572 -1.163584 0.000000
vt 46.393646 -6.406856
vn -0.007874 -0.999969 0.000000
v -2.795789 -1.125329 0.000000
vt 26.614178 -0.835486
vn -0.007874 -0.999969 0.000000
v -2.795789 -1.125329 0.010000
vt 26.624949 -0.795418
vn -0.007874 -0.999969 0.000000
v 1.301465 -0.663091 0.010000
vt -42.519035 -5.113233
vn 0.612443 0.790515 0.000000
v 1.301465 -0.663091 0.000000
vt -42.508266 -5.153301
vn 0.612443 0.790515 0.000000
v 2.062572 -1.163584 0.000000
vt -45.393646 -6.406856
vn 0.549436 0.835536 0.000000
v 2.062572 -1.163584 0.010000
vt -45.404419 -6.366787
vn 0.549436 0.835536 0.000000
v 0.575379 -0.004615 0.010000
vt -15.228210 -3.777985
vn 0.781624 0.623750 0.000000
v 0.575379 -0.004615 0.000000
vt -15.219644 -3.818053
vn 0.781624 0.623750 0.000000
v 1.301465 -0.663091 0.000000
vt -18.102144 -5.153301
vn 0.612443 0.790515 0.000000
v 1.301465 -0.663091 0.010000
vt -18.110710 -5.113233
vn 0.612443 0.790515 0.000000
v 0.178297 0.700512 0.010000
vt -12.222184 -2.782109
vn 0.929076 0.369889 0.000000
v 0.178297 0.700512 0.000000
vt -12.213617 -2.822178
vn 0.929076 0.369889 0.000000
v -0.017291 1.483104 0.010000
vt -8.937910 -1.956432
vn 0.970160 0.242467 0.000000
v -0.017291 1.483104 0.000000
vt -8.929344 -1.996500
vn 0.970160 0.242467 0.000000
v -2.795789 -1.125329 0.010000
vt -25.624949 -0.795418
vn -0.684443 0.729067 0.000000
v -2.795789 -1.125329 0.000000
vt -25.614178 -0.835486
vn -0.684443 0.729067 0.000000
v -0.017291 1.483104 0.000000
vt -38.060383 -1.996500
vn -0.684443 0.729067 0.000000
v -0.017291 1.483104 0.010000
vt -38.071152 -1.956432
vn -0.684443 0.729067 0.000000
# Faces (1 to 34)
g Line003_0
f -32/-32/-32 -33/-33/-33 -34/-34/-34
f -29/-29/-29 -30/-30/-30 -31/-31/-31
f -30/-30/-30 -28/-28/-28 -31/-31/-31
f -28/-28/-28 -27/-27/-27 -31/-31/-31
f -24/-24/-24 -25/-25/-25 -26/-26/-26
f -26/-26/-26 -23/-23/-23 -24/-24/-24
f -26/-26/-26 -22/-22/-22 -23/-23/-23
f -26/-26/-26 -21/-21/-21 -22/-22/-22
f -18/-18/-18 -19/-19/-19 -20/-20/-20
f -17/-17/-17 -18/-18/-18 -20/-20/-20
f -14/-14/-14 -15/-15/-15 -16/-16/-16
f -13/-13/-13 -14/-14/-14 -16/-16/-16
f -10/-10/-10 -11/-11/-11 -12/-12/-12
f -9/-9/-9 -10/-10/-10 -12/-12/-12
f -12/-12/-12 -11/-11/-11 -8/-8/-8
f -11/-11/-11 -7/-7/-7 -8/-8/-8
f -8/-8/-8 -7/-7/-7 -6/-6/-6
f -7/-7/-7 -5/-5/-5 -6/-6/-6
f -2/-2/-2 -3/-3/-3 -4/-4/-4
f -1/-1/-1 -2/-2/-2 -4/-4/-4

