g Line001
v 1.358046 -2.180524 0.01
v -2.706528 0.5546948 0.01
v -1.743451 0.5708134 0.01
v -0.4532777 0.8040457 0.01
v 0.6295367 1.198601 0.01
v 1.348482 1.62583 0.01
v 1.358046 -2.180524 0
v 1.348482 1.62583 0
v 0.6295367 1.198601 0
v -0.4532777 0.8040457 0
v 1.358046 -2.180524 0
v -1.743451 0.5708134 0
v -1.743451 0.5708134 0
v -2.706528 0.5546948 0
v 1.358046 -2.180524 0
v -2.706528 0.5546948 0.01
v -2.706528 0.5546948 0
v -1.743451 0.5708134 0
v -1.743451 0.5708134 0.01
v -0.4532777 0.8040457 0
v -0.4532777 0.8040457 0.01
v 0.6295367 1.198601 0
v 0.6295367 1.198601 0.01
v 1.348482 1.62583 0
v 1.348482 1.62583 0.01
v 1.358046 -2.180524 0.01
v 1.358046 -2.180524 0
v -2.706528 0.5546948 0
v -2.706528 0.5546948 0.01
v 1.348482 1.62583 0.01
v 1.348482 1.62583 0
v 1.358046 -2.180524 0
v 1.358046 -2.180524 0.01
vt 26.74417 -19.02287
vt 11.41115 -6.880322
vt 15.33468 -7.009458
vt 20.68335 -6.306862
vt 25.25931 -4.894681
vt 28.36983 -3.273339
vt -24.24826 -4.885787
vt -19.6723 -6.297967
vt -14.32364 -7.000563
vt -10.40011 -6.871428
vt -24.24826 -4.885787
vt -25.73313 -19.01398
vt -25.73313 -19.01398
vt -27.35878 -3.264445
vt -24.24826 -4.885787
vt -10.41115 6.249692
vt -10.40011 6.20977
vt -14.32364 5.095505
vt -14.33468 5.135427
vt -19.6723 3.77226
vt -19.68335 3.812182
vt -24.24826 2.820881
vt -24.25931 2.860803
vt -27.35878 2.321533
vt -27.36983 2.361455
vt 26.74417 -0.6976049
vt 26.73313 -0.7375269
vt 11.40011 6.20977
vt 11.41115 6.249692
vt -3.273339 2.361455
vt -3.264445 2.321533
vt -19.01398 -0.7375269
vt -19.02287 -0.6976049
vn 0 0 1
vn 0 0 1
vn 0 0 1
vn 0 0 1
vn 0 0 1
vn 0 0 1
vn 0 0 -1
vn 0 0 -1
vn 0 0 -1
vn 0 0 -1
vn 0 0 -1
vn 0 0 -1
vn 0 0 -1
vn 0 0 -1
vn 0 0 -1
vn -0.01673417 0.9998599 0
vn -0.01673417 0.9998599 0
vn -0.09763389 0.9952224 0
vn -0.09763389 0.9952224 0
vn -0.2610751 0.9653185 0
vn -0.2610751 0.9653185 0
vn -0.4284726 0.9035548 0
vn -0.4284726 0.9035548 0
vn -0.5108526 0.8596683 0
vn -0.5108526 0.8596683 0
vn -0.5582988 -0.8296399 0
vn -0.5582988 -0.8296399 0
vn -0.5582988 -0.8296399 0
vn -0.5582988 -0.8296399 0
vn 0.9999969 0.002512527 0
vn 0.9999969 0.002512527 0
vn 0.9999969 0.002512527 0
vn 0.9999969 0.002512527 0
g Line001_0
f 3/3/3 2/2/2 1/1/1
f 1/1/1 4/4/4 3/3/3
f 1/1/1 5/5/5 4/4/4
f 1/1/1 6/6/6 5/5/5
f 9/9/9 8/8/8 7/7/7
f 11/11/11 10/10/10 9/9/9
f 11/11/11 12/12/12 10/10/10
f 15/15/15 14/14/14 13/13/13
f 18/18/18 17/17/17 16/16/16
f 19/19/19 18/18/18 16/16/16
f 20/20/20 18/18/18 19/19/19
f 21/21/21 20/20/20 19/19/19
f 22/22/22 20/20/20 21/21/21
f 23/23/23 22/22/22 21/21/21
f 24/24/24 22/22/22 23/23/23
f 25/25/25 24/24/24 23/23/23
f 28/28/28 27/27/27 26/26/26
f 29/29/29 28/28/28 26/26/26
f 32/32/32 31/31/31 30/30/30
f 33/33/33 32/32/32 30/30/30
