g Line003
v 1.301465 -0.6630888 0.009999752
v 2.062572 -1.163582 0.009999752
v -2.795789 -1.12533 0.009999752
v 0.5753804 -0.004613638 0.009999752
v 0.1782975 0.7005141 0.009999752
v -0.0172925 1.483102 0.009999752
v -2.795789 -1.12533 1.192093E-06
v 2.062572 -1.163582 1.192093E-06
v 1.301465 -0.6630888 1.192093E-06
v 0.5753804 -0.004613638 1.192093E-06
v 0.1782975 0.7005141 1.192093E-06
v -0.0172925 1.483102 1.192093E-06
v 2.062572 -1.163582 0.009999752
v 2.062572 -1.163582 1.192093E-06
v -2.795789 -1.12533 1.192093E-06
v -2.795789 -1.12533 0.009999752
v 1.301465 -0.6630888 0.009999752
v 1.301465 -0.6630888 1.192093E-06
v 2.062572 -1.163582 1.192093E-06
v 2.062572 -1.163582 0.009999752
v 0.5753804 -0.004613638 0.009999752
v 0.5753804 -0.004613638 1.192093E-06
v 0.1782975 0.7005141 0.009999752
v 0.1782975 0.7005141 1.192093E-06
v -0.0172925 1.483102 0.009999752
v -0.0172925 1.483102 1.192093E-06
v -2.795789 -1.12533 0.009999752
v -2.795789 -1.12533 1.192093E-06
v -0.0172925 1.483102 1.192093E-06
v -0.0172925 1.483102 0.009999752
vt 0.8829636 0.1083348
vt 0.9245407 0.06036221
vt 0.6591356 0.06402806
vt 0.8432986 0.1714322
vt 0.8216067 0.2390132
vt 0.8109257 0.3140181
vt 0.6591356 0.06402806
vt 0.9245407 0.06036221
vt 0.8829636 0.1083348
vt 0.8432986 0.1714322
vt 0.8216067 0.2390132
vt 0.8109257 0.3140181
vt 0.9245407 0.06036221
vt 0.9245407 0.06036221
vt 0.6591356 0.06402806
vt 0.6591356 0.06402806
vt 0.8829636 0.1083348
vt 0.8829636 0.1083348
vt 0.9245407 0.06036221
vt 0.9245407 0.06036221
vt 0.8432986 0.1714322
vt 0.8432986 0.1714322
vt 0.8216067 0.2390132
vt 0.8216067 0.2390132
vt 0.8109257 0.3140181
vt 0.8109257 0.3140181
vt 0.6591356 0.06402806
vt 0.6591356 0.06402806
vt 0.8109257 0.3140181
vt 0.8109257 0.3140181
vn 0.000621736 -0.000621736 0.9999996
vn 0.000621736 -0.000621736 0.9999996
vn 0.000621736 -0.000621736 0.9999996
vn 0.000621736 -0.000621736 0.9999996
vn 0.000621736 -0.000621736 0.9999996
vn 0.000621736 -0.000621736 0.9999996
vn 0.000621736 -0.000621736 -0.9999996
vn 0.000621736 -0.000621736 -0.9999996
vn 0.000621736 -0.000621736 -0.9999996
vn 0.000621736 -0.000621736 -0.9999996
vn 0.000621736 -0.000621736 -0.9999996
vn 0.000621736 -0.000621736 -0.9999996
vn -0.008349061 -0.9999648 -0.0008097229
vn -0.008349061 -0.9999648 -0.0008097229
vn -0.008349061 -0.9999648 -0.0008097229
vn -0.008349061 -0.9999648 -0.0008097229
vn 0.6123925 0.790554 0
vn 0.6123925 0.790554 0
vn 0.549611 0.8354207 0
vn 0.549611 0.8354207 0
vn 0.7810782 0.6237434 -0.02934262
vn 0.7810782 0.6237434 -0.02934262
vn 0.9281987 0.3689737 -0.04801617
vn 0.9281987 0.3689737 -0.04801617
vn 0.9694642 0.2415888 -0.04211766
vn 0.9694642 0.2415888 -0.04211766
vn -0.6843379 0.729165 0
vn -0.6843379 0.729165 0
vn -0.6843379 0.729165 0
vn -0.6843379 0.729165 0
g Line003_0
f 3/3/3 2/2/2 1/1/1
f 1/1/1 4/4/4 3/3/3
f 4/4/4 5/5/5 3/3/3
f 5/5/5 6/6/6 3/3/3
f 9/9/9 8/8/8 7/7/7
f 7/7/7 10/10/10 9/9/9
f 7/7/7 11/11/11 10/10/10
f 7/7/7 12/12/12 11/11/11
f 15/15/15 14/14/14 13/13/13
f 16/16/16 15/15/15 13/13/13
f 19/19/19 18/18/18 17/17/17
f 20/20/20 19/19/19 17/17/17
f 17/17/17 18/18/18 21/21/21
f 18/18/18 22/22/22 21/21/21
f 21/21/21 22/22/22 23/23/23
f 22/22/22 24/24/24 23/23/23
f 23/23/23 24/24/24 25/25/25
f 24/24/24 26/26/26 25/25/25
f 29/29/29 28/28/28 27/27/27
f 30/30/30 29/29/29 27/27/27
