g Loveisland2_airship_propeller2
v -0.4724495 -0.2504878 0.2504869
v -0.4724495 -0.2504878 -0.2504934
v -0.4724495 0.2504912 -0.2504934
v -0.4724495 0.2504912 0.2504869
v -0.4724495 -0.2504878 -0.2504934
v 0.5215943 -0.2504878 -0.2504934
v 0.5215943 0.2504912 -0.2504934
v -0.4724495 0.2504912 -0.2504934
v 0.5215943 -0.2504878 -0.2504934
v 0.5215943 -0.2504878 0.2504869
v 0.5215943 0.2504912 0.2504869
v 0.5215943 0.2504912 -0.2504934
v 0.5215943 -0.2504878 0.2504869
v -0.4724495 -0.2504878 0.2504869
v -0.4724495 0.2504912 0.2504869
v 0.5215943 0.2504912 0.2504869
v -0.4724495 -0.2504878 -0.2504934
v -0.4724495 -0.2504878 0.2504869
v 0.5215943 -0.2504878 0.2504869
v 0.5215943 -0.2504878 -0.2504934
v 0.5215943 0.2504912 -0.2504934
v 0.5215943 0.2504912 0.2504869
v -0.4724495 0.2504912 0.2504869
v -0.4724495 0.2504912 -0.2504934
v 0.1694528 -0.3411003 2.101627
v -0.1203017 -0.3411003 2.101627
v -0.1203017 0.3411025 2.101627
v 0.1694528 0.3411025 2.101627
v -0.1203017 -0.3411003 2.101627
v -0.1203017 -0.3411003 -2.101629
v -0.1203017 0.3411025 -2.101629
v -0.1203017 0.3411025 2.101627
v -0.1203017 -0.3411003 -2.101629
v 0.1694528 -0.3411003 -2.101629
v 0.1694528 0.3411025 -2.101629
v -0.1203017 0.3411025 -2.101629
v 0.1694528 -0.3411003 -2.101629
v 0.1694528 -0.3411003 2.101627
v 0.1694528 0.3411025 2.101627
v 0.1694528 0.3411025 -2.101629
v -0.1203017 -0.3411003 2.101627
v 0.1694528 -0.3411003 2.101627
v 0.1694528 -0.3411003 -2.101629
v -0.1203017 -0.3411003 -2.101629
v -0.1203017 0.3411025 -2.101629
v 0.1694528 0.3411025 -2.101629
v 0.1694528 0.3411025 2.101627
v -0.1203017 0.3411025 2.101627
v 0.1131479 -2.101629 -0.3410995
v -0.1766066 -2.101629 -0.3410995
v -0.1766066 -2.101629 0.3411032
v 0.1131479 -2.101629 0.3411032
v -0.1766066 -2.101629 -0.3410995
v -0.1766066 2.101627 -0.3410995
v -0.1766066 2.101627 0.3411032
v -0.1766066 -2.101629 0.3411032
v -0.1766066 2.101627 -0.3410995
v 0.1131479 2.101627 -0.3410995
v 0.1131479 2.101627 0.3411032
v -0.1766066 2.101627 0.3411032
v 0.1131479 2.101627 -0.3410995
v 0.1131479 -2.101629 -0.3410995
v 0.1131479 -2.101629 0.3411032
v 0.1131479 2.101627 0.3411032
v -0.1766066 -2.101629 -0.3410995
v 0.1131479 -2.101629 -0.3410995
v 0.1131479 2.101627 -0.3410995
v -0.1766066 2.101627 -0.3410995
v -0.1766066 2.101627 0.3411032
v 0.1131479 2.101627 0.3411032
v 0.1131479 -2.101629 0.3411032
v -0.1766066 -2.101629 0.3411032
vt 0.248009 0.2480102
vt 0.751991 0.2480102
vt 0.751991 0.751991
vt 0.248009 0.751991
vt 2.980232E-08 0.2480102
vt 1 0.2480102
vt 1 0.751991
vt 2.980232E-08 0.751991
vt 0.751991 0.2480102
vt 0.248009 0.2480102
vt 0.248009 0.751991
vt 0.751991 0.751991
vt 1 0.2480102
vt 2.980232E-08 0.2480102
vt 2.980232E-08 0.751991
vt 1 0.751991
vt 2.980232E-08 0.751991
vt 2.980232E-08 0.248009
vt 1 0.248009
vt 1 0.751991
vt 1 0.751991
vt 1 0.248009
vt 2.980232E-08 0.248009
vt 2.980232E-08 0.751991
vt 0.6312323 0.2413006
vt 0.4114723 0.2413006
vt 0.4114723 0.758707
vt 0.6312323 0.758707
vt -1.093947 0.2413006
vt 2.093949 0.2413006
vt 2.093949 0.758707
vt -1.093947 0.758707
vt 0.4114723 0.2413006
vt 0.6312323 0.2413006
vt 0.6312323 0.758707
vt 0.4114723 0.758707
vt 2.093949 0.2413006
vt -1.093947 0.2413006
vt -1.093947 0.758707
vt 2.093949 0.758707
vt 0.4114723 -1.093947
vt 0.6312323 -1.093947
vt 0.6312323 2.093949
vt 0.4114723 2.093949
vt 0.4114723 2.093949
vt 0.6312323 2.093949
vt 0.6312323 -1.093947
vt 0.4114723 -1.093947
vt 0.5885286 0.7587023
vt 0.3687687 0.7587023
vt 0.3687687 0.2412958
vt 0.5885286 0.2412958
vt 0.7587023 -1.093946
vt 0.7587023 2.09395
vt 0.2412958 2.09395
vt 0.2412958 -1.093946
vt 0.3687687 0.7587023
vt 0.5885286 0.7587023
vt 0.5885286 0.2412958
vt 0.3687687 0.2412958
vt 0.7587023 2.09395
vt 0.7587023 -1.093946
vt 0.2412958 -1.093946
vt 0.2412958 2.09395
vt 0.3687687 -1.093946
vt 0.5885286 -1.093946
vt 0.5885286 2.09395
vt 0.3687687 2.09395
vt 0.3687687 2.09395
vt 0.5885286 2.09395
vt 0.5885286 -1.093946
vt 0.3687687 -1.093946
vn -1 0 0
vn -1 0 0
vn -1 0 0
vn -1 0 0
vn 0 0 -1
vn 0 0 -1
vn 0 0 -1
vn 0 0 -1
vn 1 0 0
vn 1 0 0
vn 1 0 0
vn 1 0 0
vn 0 0 1
vn 0 0 1
vn 0 0 1
vn 0 0 1
vn 0 -1 0
vn 0 -1 0
vn 0 -1 0
vn 0 -1 0
vn 0 1 0
vn 0 1 0
vn 0 1 0
vn 0 1 0
vn 0 0 1
vn 0 0 1
vn 0 0 1
vn 0 0 1
vn -1 0 0
vn -1 0 0
vn -1 0 0
vn -1 0 0
vn 0 0 -1
vn 0 0 -1
vn 0 0 -1
vn 0 0 -1
vn 1 0 0
vn 1 0 0
vn 1 0 0
vn 1 0 0
vn 0 -1 0
vn 0 -1 0
vn 0 -1 0
vn 0 -1 0
vn 0 1 0
vn 0 1 0
vn 0 1 0
vn 0 1 0
vn 0 -1 0
vn 0 -1 0
vn 0 -1 0
vn 0 -1 0
vn -1 0 0
vn -1 0 0
vn -1 0 0
vn -1 0 0
vn 0 1 0
vn 0 1 0
vn 0 1 0
vn 0 1 0
vn 1 0 0
vn 1 0 0
vn 1 0 0
vn 1 0 0
vn 0 0 -1
vn 0 0 -1
vn 0 0 -1
vn 0 0 -1
vn 0 0 1
vn 0 0 1
vn 0 0 1
vn 0 0 1
g Loveisland2_airship_propeller2_0
f 3/3/3 2/2/2 1/1/1
f 4/4/4 3/3/3 1/1/1
f 7/7/7 6/6/6 5/5/5
f 8/8/8 7/7/7 5/5/5
f 11/11/11 10/10/10 9/9/9
f 12/12/12 11/11/11 9/9/9
f 15/15/15 14/14/14 13/13/13
f 16/16/16 15/15/15 13/13/13
f 19/19/19 18/18/18 17/17/17
f 20/20/20 19/19/19 17/17/17
f 23/23/23 22/22/22 21/21/21
f 24/24/24 23/23/23 21/21/21
g Loveisland2_airship_propeller2_1
f 27/27/27 26/26/26 25/25/25
f 28/28/28 27/27/27 25/25/25
f 31/31/31 30/30/30 29/29/29
f 32/32/32 31/31/31 29/29/29
f 35/35/35 34/34/34 33/33/33
f 36/36/36 35/35/35 33/33/33
f 39/39/39 38/38/38 37/37/37
f 40/40/40 39/39/39 37/37/37
f 43/43/43 42/42/42 41/41/41
f 44/44/44 43/43/43 41/41/41
f 47/47/47 46/46/46 45/45/45
f 48/48/48 47/47/47 45/45/45
f 51/51/51 50/50/50 49/49/49
f 52/52/52 51/51/51 49/49/49
f 55/55/55 54/54/54 53/53/53
f 56/56/56 55/55/55 53/53/53
f 59/59/59 58/58/58 57/57/57
f 60/60/60 59/59/59 57/57/57
f 63/63/63 62/62/62 61/61/61
f 64/64/64 63/63/63 61/61/61
f 67/67/67 66/66/66 65/65/65
f 68/68/68 67/67/67 65/65/65
f 71/71/71 70/70/70 69/69/69
f 72/72/72 71/71/71 69/69/69
