g m22
v -547.7155 573.4568 -13.91279
v -317.5 573.4609 3.187742
v -317.5 573.4609 -13.91281
v -547.7155 573.4568 3.187761
v -394.889 604.2471 -13.91286
v -394.889 564.3606 13.03555
v -394.889 564.3606 -13.91286
v -394.889 604.2471 13.03555
v -394.889 564.3606 -13.91286
v -317.5 564.3606 13.03557
v -317.5 564.3606 -13.91284
v -394.889 564.3606 13.03555
v -679.009 708.997 -13.91276
v -547.7145 708.9937 3.187768
v -547.7145 708.9937 -13.91279
v -679.009 708.997 3.18779
v -508.8805 612.324 20.28828
v -508.8813 747.8622 45.93916
v -508.8769 612.324 45.93914
v -508.8813 747.8622 20.28831
v -529.4401 591.7467 3.187754
v -529.4401 727.2849 20.28833
v -529.4402 591.7472 20.28831
v -529.4399 727.2847 3.187765
v -547.7145 708.9937 -13.91279
v -547.7155 573.4568 3.187761
v -547.7155 573.4568 -13.91279
v -547.7145 708.9937 3.187768
v -508.8805 612.324 20.28828
v -317.5 612.3246 45.93913
v -317.5 612.3246 20.28828
v -508.8769 612.324 45.93914
v -529.4402 591.7472 20.28831
v -317.5 591.7472 3.187742
v -529.4401 591.7467 3.187754
v -317.5 591.7472 20.2883
v -640.1672 747.9214 20.28831
v -508.8813 747.8622 45.93916
v -508.8813 747.8622 20.28831
v -640.1672 747.9214 45.93917
v -660.7319 727.2856 3.187783
v -529.4401 727.2849 20.28833
v -529.4399 727.2847 3.187765
v -660.7318 727.2853 20.28834
v -640.17 948.0198 36.85454
v -1228.371 948.0198 14.18712
v -1228.371 948.0197 36.85454
v -640.17 948.0199 14.18712
v -640.17 959.9423 45.93914
v -1228.371 959.9424 36.85455
v -1228.371 959.9421 45.93914
v -640.17 959.9426 36.85455
v -729.0104 1346.09 198.7299
v -1049.011 1346.09 139.6581
v -1049.01 1346.091 198.7299
v -729.0107 1346.09 139.6581
v -729.0107 1346.09 139.6581
v -729.0104 1506.091 198.7299
v -729.0104 1506.09 139.6581
v -729.0104 1346.09 198.7299
v -569.0107 1241.337 139.6581
v -409.0105 1241.337 221.3296
v -409.0102 1241.337 139.6581
v -569.0107 1241.337 221.3297
v -409.0102 1241.337 139.6581
v -409.0105 1401.337 221.3296
v -409.0105 1401.337 139.6581
v -409.0105 1241.337 221.3296
v -729.0104 1084.596 92.79861
v -729.0106 984.5963 92.7986
v -729.0107 984.5963 45.93916
v -729.0103 1304.597 45.93916
v -729.0104 1304.596 139.6581
v -729.0104 1084.596 139.6581
v -1209.01 1304.596 139.6581
v -729.0104 1304.596 139.6581
v -729.0103 1304.597 45.93916
v -1209.01 1304.596 45.93919
v -1049.011 1304.597 139.6581
v -1049.01 1346.091 198.7299
v -1049.011 1346.09 139.6581
v -1049.01 1304.596 198.7299
v -1209.01 1304.597 198.7299
v -1049.011 1304.597 139.6581
v -1209.01 1304.596 139.6581
v -1049.01 1304.596 198.7299
v -640.1703 930.9626 14.18709
v -1228.371 930.9624 -13.91282
v -1228.371 930.9626 14.18709
v -640.1702 930.9625 -13.91282
v -729.0104 1084.596 92.79861
v -579.0101 1084.596 139.6581
v -579.0101 1084.596 92.79861
v -729.0104 1084.596 139.6581
v -729.0107 984.5963 45.93916
v -729.0106 984.5963 92.7986
v -579.0104 984.5963 92.79859
v -237.4998 984.5963 139.6581
v -237.5001 984.5963 45.93917
v -579.0102 984.5963 139.6581
v -579.0104 984.5963 92.79859
v -579.0101 1084.596 139.6581
v -579.0102 984.5963 139.6581
v -579.0101 1084.596 92.79861
v -394.889 564.3606 13.03555
v -317.5 604.2471 13.03557
v -317.5 564.3606 13.03557
v -394.889 604.2471 13.03555
v -529.4402 591.7472 20.28831
v -529.4401 727.2849 20.28833
v -508.8805 612.324 20.8227
v -317.5 612.324 20.82269
v -317.5 591.7472 20.2883
v -508.8805 747.9214 20.82272
v -660.7318 727.2853 20.28834
v -640.1674 747.9212 20.82273
v -547.7155 573.4568 3.187761
v -547.7145 708.9937 3.187768
v -529.4401 591.7467 3.187754
v -317.5 591.7482 3.187742
v -317.5 573.4609 3.187742
v -529.4399 727.2847 3.187765
v -679.009 708.997 3.18779
v -660.7319 727.2856 3.187783
v -1228.371 930.9626 14.18709
v -640.17 948.0199 14.18712
v -640.1703 930.9626 14.18709
v -1228.371 948.0198 14.18712
v -640.17 959.9426 36.85455
v -1228.371 948.0197 36.85454
v -1228.371 959.9424 36.85455
v -640.17 948.0198 36.85454
v -729.0104 1506.091 198.7299
v -1049.01 1346.091 198.7299
v -1049.01 1506.091 198.7299
v -729.0104 1346.09 198.7299
v -409.0105 1241.337 221.3296
v -569.0107 1401.337 221.3297
v -409.0105 1401.337 221.3296
v -569.0107 1241.337 221.3297
v -1209.01 1346.091 198.7299
v -1049.01 1304.596 198.7299
v -1209.01 1304.597 198.7299
v -1049.01 1346.091 198.7299
v -729.0107 1346.09 139.6581
v -729.0104 1401.337 139.6581
v -729.0104 1304.596 139.6581
v -1049.011 1304.597 139.6581
v -1049.011 1346.09 139.6581
v -729.0104 1084.596 92.79861
v -579.0104 984.5963 92.79859
v -729.0106 984.5963 92.7986
v -579.0101 1084.596 92.79861
v -508.8813 747.8622 45.93916
v -640.1672 747.9214 45.93917
v -640.1702 975.4525 45.93916
v -317.5 612.3246 45.93913
v -508.8769 612.324 45.93914
v -317.5 984.5964 45.93919
v -640.2091 984.5964 45.93919
v -729.0104 1304.596 139.6581
v -579.0101 1084.596 139.6581
v -729.0104 1084.596 139.6581
v -237.4998 984.5963 139.6581
v -579.0102 984.5963 139.6581
v -77.49991 984.5966 139.6581
v -729.0104 1401.337 139.6581
v -77.50023 1401.337 139.6581
v -729.0107 984.5963 45.93916
v -1228.371 984.5964 45.93917
v -729.0103 1304.597 45.93916
v -1209.01 1304.596 45.93919
v -1369.011 1304.596 45.9392
v -1228.371 959.9421 45.93914
v -640.17 959.9423 45.93914
v -640.17 984.5963 45.93916
v -1369.011 984.5964 45.93921
v -1347.87 975.4526 45.93921
v -1228.371 984.5964 45.93917
v -1228.371 975.4525 45.93917
v -1347.87 984.5964 45.93921
vt -24.15378 -14.82161
vt -9.765314 -13.75283
vt -9.765314 -14.82161
vt -24.15378 -13.75283
vt -20.91265 -14.82161
vt -18.41974 -13.13734
vt -18.41974 -14.82161
vt -20.91265 -13.13734
vt -14.60213 -14.82161
vt -9.765318 -13.13734
vt -9.765318 -14.82161
vt -14.60213 -13.13734
vt -32.35963 -14.82161
vt -24.15372 -13.75282
vt -24.15372 -14.82161
vt -32.35963 -13.75282
vt -21.41746 -12.68404
vt -29.8886 -11.08086
vt -21.41746 -11.08086
vt -29.8886 -12.68404
vt -20.13137 -13.75283
vt -28.60251 -12.68404
vt -20.1314 -12.68404
vt -28.6025 -13.75283
vt -27.45931 -14.82161
vt -18.98826 -13.75283
vt -18.98825 -14.82161
vt -27.45931 -13.75282
vt -21.7266 -12.68404
vt -9.765314 -11.08086
vt -9.765312 -12.68404
vt -21.72637 -11.08086
vt -23.01158 -12.68404
vt -9.765316 -13.75283
vt -23.01157 -13.75283
vt -9.765316 -12.68404
vt -29.93201 -12.68404
vt -21.72664 -11.08086
vt -21.72664 -12.68404
vt -29.93201 -11.08086
vt -31.2173 -13.75282
vt -23.01157 -12.68404
vt -23.01156 -13.75283
vt -31.2173 -12.68404
vt -29.93219 -11.64865
vt -66.69476 -13.06537
vt -66.69476 -11.64865
vt -29.93219 -13.06537
vt -29.93219 -11.08087
vt -66.69476 -11.64865
vt -66.69476 -11.08087
vt -29.93219 -11.64865
vt -35.4847 -1.53144
vt -55.48471 -5.223432
vt -55.4847 -1.53144
vt -35.48472 -5.223432
vt 68.27786 -5.223432
vt 78.27788 -1.531442
vt 78.27786 -5.223432
vt 68.27786 -1.53144
vt -25.48472 -5.223432
vt -15.48471 -0.1189594
vt -15.48469 -5.223432
vt -25.48472 -0.1189566
vt 61.73075 -5.223432
vt 71.73074 -0.1189594
vt 71.73076 -5.223432
vt 61.73075 -0.1189594
vt -50.93448 -8.152147
vt -44.68447 -8.152148
vt -44.68447 -11.08086
vt -64.68449 -11.08086
vt -64.68448 -5.223432
vt -50.93448 -5.223432
vt -65.48468 -5.223433
vt -35.4847 -5.223432
vt -35.4847 -11.08086
vt -65.4847 -11.08086
vt 65.68451 -5.223432
vt 68.27788 -1.53144
vt 68.27786 -5.223432
vt 65.68449 -1.531442
vt -65.4847 -1.53144
vt -55.48473 -5.223432
vt -65.48468 -5.223433
vt -55.4847 -1.531442
vt -29.9322 -13.06537
vt -66.69476 -14.82161
vt -66.69476 -13.06537
vt -29.9322 -14.82161
vt -35.48471 -8.152147
vt -26.10969 -5.223429
vt -26.10969 -8.152147
vt -35.48471 -5.223432
vt -35.48473 -11.08086
vt -35.48472 -8.152148
vt -26.10971 -8.152149
vt -4.765298 -5.223433
vt -4.765318 -11.08086
vt -26.1097 -5.223433
vt -44.68447 -8.152149
vt -50.93448 -5.223429
vt -44.68447 -5.223433
vt -50.93448 -8.152147
vt -14.60213 19.41974
vt -9.765316 21.91265
vt -9.765318 19.41974
vt -14.60213 21.91265
vt -23.01158 21.1314
vt -23.01157 29.60251
vt -21.72659 22.41746
vt -9.765312 22.41745
vt -9.765316 21.1314
vt -21.72659 30.8923
vt -31.2173 29.60254
vt -29.93202 30.89228
vt -24.15378 19.98826
vt -24.15372 28.45931
vt -23.01157 21.13137
vt -9.765312 21.13146
vt -9.765314 19.98851
vt -23.01156 29.6025
vt -32.35963 28.45952
vt -31.2173 29.60256
vt -66.69476 42.33238
vt -29.93219 43.39845
vt -29.9322 42.33237
vt -66.69476 43.39846
vt -29.93219 44.14362
vt -66.69476 43.39845
vt -66.69476 44.14362
vt -29.93219 43.39845
vt -35.4847 78.27788
vt -55.4847 68.27788
vt -55.4847 78.27788
vt -35.4847 68.27786
vt -15.48471 61.73075
vt -25.48472 71.73074
vt -15.48471 71.73074
vt -25.48472 61.73074
vt -65.4847 68.27788
vt -55.4847 65.68449
vt -65.4847 65.68449
vt -55.4847 68.27788
vt -35.48472 68.27786
vt -35.4847 71.73076
vt -35.4847 65.68448
vt -55.48473 65.68451
vt -55.48471 68.27786
vt -35.48471 51.93448
vt -26.10971 45.68447
vt -35.48472 45.68447
vt -26.10969 51.93448
vt -21.72664 30.8886
vt -29.93201 30.8923
vt -29.9322 45.11299
vt -9.765314 22.41749
vt -21.72637 22.41746
vt -9.765308 45.68448
vt -29.93463 45.68448
vt -35.4847 65.68448
vt -26.10969 51.93448
vt -35.48471 51.93448
vt -4.765298 45.68447
vt -26.1097 45.68447
vt 5.234697 45.68448
vt -35.4847 71.73076
vt 5.234683 71.73074
vt -35.48471 45.68448
vt -66.69476 45.68449
vt -35.48471 65.68449
vt -65.4847 65.68448
vt -75.48471 65.68449
vt -66.69476 44.14361
vt -29.93217 44.1436
vt -29.93217 45.68448
vt -75.48473 45.6845
vt 4.23433 0.3332392
vt -3.234331 -0.23825
vt -3.234331 0.3332441
vt 4.23433 -0.2382549
vn 1.764651E-05 -1 0
vn 1.764651E-05 -1 0
vn 1.764651E-05 -1 0
vn 1.764651E-05 -1 0
vn -1 0 0
vn -1 0 0
vn -1 0 0
vn -1 0 0
vn 0 -1 0
vn 0 -1 0
vn 0 -1 0
vn 0 -1 0
vn -2.499152E-05 -1 0
vn -2.499152E-05 -1 0
vn -2.499152E-05 -1 0
vn -2.499152E-05 -1 0
vn -1 -1.930961E-05 7.157412E-05
vn -1 -1.930961E-05 7.157412E-05
vn -1 -3.285515E-05 0.0001431482
vn -1 0 0
vn -1 0 -5.710726E-06
vn -1 0 -5.710726E-06
vn -1 0 0
vn -1 0 0
vn -1 6.916935E-06 0
vn -1 6.916935E-06 0
vn -1 0 0
vn -1 0 0
vn 0 -1 0
vn 0 -1 0
vn 0 -1 0
vn 0 -1 0
vn 0 -1 1.370569E-05
vn 0 -1 1.370569E-05
vn 0 -1 2.741139E-05
vn 0 -1 0
vn -0.0004504719 -0.9999999 0
vn -0.0004504719 -0.9999999 0
vn -0.0004504719 -0.9999999 0
vn -0.0004504719 -0.9999999 0
vn -5.355436E-06 -1 0
vn -5.355436E-06 -1 0
vn 0 -1 0
vn 0 -1 -1.827424E-05
vn 0 -1 0
vn 0 -1 0
vn 0 -1 0
vn 0 -1 0
vn 0 -1 -2.579916E-05
vn 0 -1 -2.579916E-05
vn 0 -1 -2.579916E-05
vn 0 -1 -2.579917E-05
vn 0 -1 0
vn 0 -1 0
vn 0 -1 0
vn 0 -1 0
vn 1 0 0
vn 1 0 0
vn 1 0 0
vn 1 0 0
vn 0 -1 0
vn 0 -1 0
vn 0 -1 0
vn 0 -1 0
vn 1 0 0
vn 1 0 0
vn 1 0 0
vn 1 0 0
vn -1 0 0
vn -1 0 0
vn -1 0 0
vn -1 0 0
vn -1 0 0
vn -1 0 0
vn 0 -1 0
vn 0 -1 0
vn 0 -1 0
vn 0 -1 0
vn 1 0 -6.6127E-06
vn 1 0 -6.6127E-06
vn 1 0 0
vn 1 0 0
vn 0 -1 0
vn 0 -1 0
vn 0 -1 0
vn 0 -1 0
vn 0 -1 6.950645E-06
vn 0 -1 6.950645E-06
vn 0 -1 0
vn 0 -1 0
vn 0 -1 0
vn 0 -1 0
vn 0 -1 0
vn 0 -1 0
vn 0 -1 0
vn 0 -1 0
vn 0 -1 0
vn 0 -1 0
vn 0 -1 0
vn 0 -1 0
vn -1 0 0
vn -1 0 0
vn -1 0 0
vn -1 0 0
vn 0 0 1
vn 0 0 1
vn 0 0 1
vn 0 0 1
vn -0.008662329 -0.01731039 0.9998127
vn -0.01732478 -0.008630196 0.9998127
vn -0.01732477 -0.008655264 0.9998125
vn 0 -0.02596165 0.9996629
vn 0 -0.02596159 0.9996629
vn -0.008662362 -0.01726064 0.9998135
vn 0 -0.02588703 0.9996649
vn 0 -0.02588755 0.9996648
vn 0 0 1
vn 0 0 1
vn 0 0 1
vn 0 0 1
vn 0 0 1
vn 0 0 1
vn 0 0 1
vn 0 0 1
vn 0 0 1
vn 0 0 1
vn 0 0 1
vn 0 0 1
vn 0 0 1
vn 0 0 1
vn 0 0 1
vn 0 0 1
vn 0 0 1
vn 0 0 1
vn 0 0 1
vn 0 0 1
vn 0 0 1
vn 0 0 1
vn 0 0 1
vn 0 0 1
vn 0 0 1
vn 0 0 1
vn 0 0 1
vn 0 0 1
vn 0 0 1
vn 0 0 1
vn 0 0 1
vn 0 0 1
vn 0 0 1
vn 0 0 1
vn 0 0 1
vn 0 0 1
vn 0 0 1
vn 0 0 1
vn 0 0 1
vn 0 0 1
vn 0 0 1
vn 0 0 1
vn 0 0 1
vn 0 0 1
vn 0 0 1
vn 0 0 1
vn 0 0 1
vn 0 0 1
vn 0 0 1
vn 0 0 1
vn 0 0 1
vn 0 0 1
vn 0 0 1
vn 0 0 1
vn 0 0 1
vn 0 0 1
vn 0 0 1
vn 0 0 1
vn 0 0 1
vn 0 0 1
vn 0 0 1
vn 0 0 1
vn 0 0 1
vn 0 0 1
vn 0 0 1
g m22_0
f 3/3/3 2/2/2 1/1/1
f 4/4/4 1/1/1 2/2/2
f 7/7/7 6/6/6 5/5/5
f 8/8/8 5/5/5 6/6/6
f 11/11/11 10/10/10 9/9/9
f 12/12/12 9/9/9 10/10/10
f 15/15/15 14/14/14 13/13/13
f 16/16/16 13/13/13 14/14/14
f 19/19/19 18/18/18 17/17/17
f 20/20/20 17/17/17 18/18/18
f 23/23/23 22/22/22 21/21/21
f 24/24/24 21/21/21 22/22/22
f 27/27/27 26/26/26 25/25/25
f 28/28/28 25/25/25 26/26/26
f 31/31/31 30/30/30 29/29/29
f 32/32/32 29/29/29 30/30/30
f 35/35/35 34/34/34 33/33/33
f 36/36/36 33/33/33 34/34/34
f 39/39/39 38/38/38 37/37/37
f 40/40/40 37/37/37 38/38/38
f 43/43/43 42/42/42 41/41/41
f 44/44/44 41/41/41 42/42/42
f 47/47/47 46/46/46 45/45/45
f 48/48/48 45/45/45 46/46/46
f 51/51/51 50/50/50 49/49/49
f 52/52/52 49/49/49 50/50/50
f 55/55/55 54/54/54 53/53/53
f 56/56/56 53/53/53 54/54/54
f 59/59/59 58/58/58 57/57/57
f 60/60/60 57/57/57 58/58/58
f 63/63/63 62/62/62 61/61/61
f 64/64/64 61/61/61 62/62/62
f 67/67/67 66/66/66 65/65/65
f 68/68/68 65/65/65 66/66/66
f 71/71/71 70/70/70 69/69/69
f 72/72/72 71/71/71 69/69/69
f 73/73/73 72/72/72 69/69/69
f 74/74/74 73/73/73 69/69/69
f 77/77/77 76/76/76 75/75/75
f 78/78/78 77/77/77 75/75/75
f 81/81/81 80/80/80 79/79/79
f 82/82/82 79/79/79 80/80/80
f 85/85/85 84/84/84 83/83/83
f 86/86/86 83/83/83 84/84/84
f 89/89/89 88/88/88 87/87/87
f 90/90/90 87/87/87 88/88/88
f 93/93/93 92/92/92 91/91/91
f 94/94/94 91/91/91 92/92/92
f 97/97/97 96/96/96 95/95/95
f 98/98/98 97/97/97 95/95/95
f 99/99/99 98/98/98 95/95/95
f 100/100/100 97/97/97 98/98/98
f 103/103/103 102/102/102 101/101/101
f 104/104/104 101/101/101 102/102/102
g m22_1
f 107/107/107 106/106/106 105/105/105
f 108/108/108 105/105/105 106/106/106
f 111/111/111 110/110/110 109/109/109
f 112/112/112 111/111/111 109/109/109
f 113/113/113 112/112/112 109/109/109
f 114/114/114 110/110/110 111/111/111
f 115/115/115 110/110/110 114/114/114
f 116/116/116 115/115/115 114/114/114
f 119/119/119 118/118/118 117/117/117
f 120/120/120 119/119/119 117/117/117
f 121/121/121 120/120/120 117/117/117
f 122/122/122 118/118/118 119/119/119
f 123/123/123 118/118/118 122/122/122
f 124/124/124 123/123/123 122/122/122
f 127/127/127 126/126/126 125/125/125
f 128/128/128 125/125/125 126/126/126
f 131/131/131 130/130/130 129/129/129
f 132/132/132 129/129/129 130/130/130
f 135/135/135 134/134/134 133/133/133
f 136/136/136 133/133/133 134/134/134
f 139/139/139 138/138/138 137/137/137
f 140/140/140 137/137/137 138/138/138
f 143/143/143 142/142/142 141/141/141
f 144/144/144 141/141/141 142/142/142
f 147/147/147 146/146/146 145/145/145
f 148/148/148 147/147/147 145/145/145
f 149/149/149 148/148/148 145/145/145
f 152/152/152 151/151/151 150/150/150
f 153/153/153 150/150/150 151/151/151
f 156/156/156 155/155/155 154/154/154
f 157/157/157 156/156/156 154/154/154
f 158/158/158 157/157/157 154/154/154
f 159/159/159 156/156/156 157/157/157
f 160/160/160 156/156/156 159/159/159
f 163/163/163 162/162/162 161/161/161
f 162/162/162 164/164/164 161/161/161
f 165/165/165 164/164/164 162/162/162
f 164/164/164 166/166/166 161/161/161
f 166/166/166 167/167/167 161/161/161
f 168/168/168 167/167/167 166/166/166
f 171/171/171 170/170/170 169/169/169
f 172/172/172 170/170/170 171/171/171
f 173/173/173 170/170/170 172/172/172
f 170/170/170 174/174/174 169/169/169
f 174/174/174 175/175/175 169/169/169
f 175/175/175 176/176/176 169/169/169
f 177/177/177 170/170/170 173/173/173
f 180/180/180 179/179/179 178/178/178
f 181/181/181 178/178/178 179/179/179
