g m2222
v -569.0106 -1209.5 78.52318
v -569.0106 -1049.5 221.3297
v -569.0107 -1049.5 78.52318
v -569.0107 -1209.5 221.3297
v -730.9579 -799.2176 45.93908
v -680.9579 -799.2176 95.93911
v -730.9579 -799.2176 95.93908
v -680.9579 -799.2176 45.93911
v -606.8603 -501.3067 45.93916
v -408.5001 -501.3067 45.93916
v -408.5001 -799.188 45.93916
v -939.9614 -799.2471 45.93917
v -939.9614 -501.3658 45.93917
v -729.0106 -1369.5 78.52318
v -729.0104 -1209.5 221.3297
v -729.0104 -1209.5 78.52318
v -729.0104 -1369.5 221.3296
v -785.7048 -729.4997 166.2806
v -835.7048 -729.4997 139.6581
v -785.7048 -729.4997 139.6581
v -835.7048 -729.4997 166.2806
v -1005.705 -794.9063 166.2806
v -885.7048 -999.3029 166.2806
v -1005.705 -999.3027 166.2806
v -885.7048 -794.9065 166.2806
v -835.7048 -897.1047 207.0824
v -885.7048 -999.3029 207.0824
v -885.7048 -897.1047 207.0824
v -835.7048 -999.3029 207.0824
v -835.7048 -897.1047 207.0824
v -835.7048 -999.3029 192.9033
v -835.7048 -999.3029 207.0824
v -835.7048 -897.1047 192.9033
v -885.7048 -897.1047 207.0824
v -835.7048 -897.1047 192.9033
v -835.7048 -897.1047 207.0824
v -885.7048 -897.1047 192.9033
v -785.7048 -729.4997 166.2806
v -835.7048 -794.9065 166.2806
v -835.7048 -729.4997 166.2806
v -785.7048 -794.9065 166.2806
v -729.0104 -1209.5 221.3297
v -729.0104 -1369.5 221.3296
v -1049.01 -1369.5 221.3296
v -889.0102 -1209.5 221.3297
v -889.0107 -1049.5 221.3296
v -569.0106 -1049.5 221.3297
v -569.0107 -1209.5 221.3297
v -1049.01 -1209.5 221.3296
v -785.7048 -729.4997 139.6581
v -785.7048 -794.9065 139.6581
v -785.7048 -794.9065 166.2806
v -785.7048 -729.4997 166.2806
v -785.7048 -999.3029 192.9033
v -785.7048 -794.9065 192.9033
v -785.7048 -999.3029 139.6581
v -885.7048 -794.9065 192.9033
v -785.7048 -794.9065 192.9033
v -785.7048 -999.3029 192.9033
v -835.7048 -897.1047 192.9033
v -1005.705 -794.9063 139.6581
v -885.7048 -794.9065 139.6581
v -885.7048 -794.9065 166.2806
v -1005.705 -794.9063 166.2806
v -835.7048 -794.9065 166.2806
v -885.7048 -794.9065 192.9033
v -785.7048 -794.9065 192.9033
v -785.7048 -794.9065 166.2806
v -835.7048 -794.9065 139.6581
v -729.0107 -729.4998 139.6581
v -1049.011 -1049.5 139.6581
v -1049.011 -729.4997 139.6581
v -729.0107 -1049.5 139.6581
v -680.9579 -799.2176 95.93911
v -730.9579 -1199.339 95.93908
v -730.9579 -799.2176 95.93908
v -680.9579 -1199.339 95.93911
v -885.7048 -794.9065 192.9033
v -835.7048 -897.1047 192.9033
v -885.7048 -897.1047 192.9033
v -835.7048 -897.1047 192.9033
v -785.7048 -999.3029 192.9033
v -835.7048 -999.3029 192.9033
v -622.8505 -485.3022 -13.91285
v -955.9567 -485.3018 28.83862
v -955.9567 -485.3018 -13.91283
v -622.8505 -485.3021 28.8386
v -606.8597 -501.3666 28.83858
v -939.9614 -501.3658 45.93917
v -939.9614 -501.3648 28.83859
v -606.8603 -501.3067 45.93916
v -622.8505 -485.3021 28.8386
v -939.9614 -501.3648 28.83859
v -955.9567 -485.3018 28.83862
v -606.8597 -501.3666 28.83858
v -1049.011 -729.4997 139.6581
v -1049.01 -729.4997 45.93915
v -729.0107 -729.4998 139.6581
v -729.0103 -729.4997 45.93915
v -729.0104 -1049.5 45.9392
v -729.0107 -729.4998 139.6581
v -729.0103 -729.4997 45.93915
v -729.0107 -1049.5 139.6581
v -889.0109 -1209.5 139.6581
v -1049.01 -1209.5 221.3296
v -1049.011 -1209.5 139.6581
v -889.0102 -1209.5 221.3297
v -729.0107 -1049.5 139.6581
v -729.0104 -1049.5 45.9392
v -569.0107 -1049.5 78.52318
v -569.0106 -1049.5 221.3297
v -889.0107 -1049.5 221.3296
v -889.0107 -1049.5 139.6581
vt -91.44653 -9.044362
vt -81.44653 -0.1189556
vt -81.44652 -9.044362
vt -91.44653 -0.1189575
vt 36.60646 -11.08087
vt 33.48146 -7.955866
vt 36.60646 -7.955868
vt 33.48146 -11.08087
vt -27.85035 -47.18446
vt -15.45284 -47.18446
vt -15.45284 -65.80205
vt -48.66917 -65.80573
vt -48.66917 -47.18815
vt -101.4465 -9.044362
vt -91.44653 -0.1189566
vt -91.44653 -9.044362
vt -101.4465 -0.1189594
vt 40.02814 -3.559521
vt 43.15314 -5.223433
vt 40.02814 -5.223433
vt 43.15314 -3.559521
vt -52.77814 -65.53443
vt -45.27814 -78.30922
vt -52.77814 -78.3092
vt -45.27814 -65.53445
vt -42.15314 -71.92184
vt -45.27814 -78.30922
vt -45.27814 -71.92184
vt -42.15314 -78.30922
vt -71.92184 -1.009414
vt -78.30922 -1.895607
vt -78.30922 -1.009414
vt -71.92184 -1.895607
vt 46.27814 -1.009414
vt 43.15314 -1.895607
vt 43.15314 -1.009414
vt 46.27814 -1.895607
vt -39.02814 -61.44652
vt -42.15314 -65.53445
vt -42.15314 -61.44652
vt -39.02814 -65.53445
vt -35.48474 -91.44653
vt -35.48474 -101.4465
vt -55.48475 -101.4465
vt -45.48473 -91.44652
vt -45.48476 -81.44652
vt -25.48475 -81.44653
vt -25.48476 -91.44653
vt -55.48474 -91.44652
vt -61.44652 -5.223433
vt -65.53445 -5.223433
vt -65.53445 -3.559521
vt -61.44652 -3.559521
vt -78.30922 -1.895607
vt -65.53445 -1.895607
vt -78.30922 -5.223433
vt -45.27814 -65.53445
vt -39.02814 -65.53445
vt -39.02814 -78.30922
vt -42.15314 -71.92184
vt 53.77814 -5.223433
vt 46.27814 -5.223433
vt 46.27814 -3.559521
vt 53.77814 -3.559521
vt 43.15314 -3.559521
vt 46.27814 -1.895607
vt 40.02814 -1.895607
vt 40.02814 -3.559521
vt 43.15314 -5.223433
vt -35.48475 -61.44653
vt -55.48475 -81.44652
vt -55.48475 -61.44652
vt -35.48476 -81.44653
vt -32.48146 -65.80389
vt -35.60646 -90.81151
vt -35.60646 -65.80389
vt -32.48146 -90.81151
vt -45.27814 -65.53445
vt -42.15314 -71.92184
vt -45.27814 -71.92184
vt -42.15314 -71.92184
vt -39.02814 -78.30922
vt -42.15314 -78.30922
vt 29.84974 -14.82161
vt 50.66888 -12.14965
vt 50.66888 -14.82161
vt 29.84974 -12.14965
vt 28.85032 -12.14965
vt 49.66917 -11.08086
vt 49.66917 -12.14965
vt 28.85035 -11.08086
vt -28.84974 -46.18417
vt -48.66917 -47.18809
vt -49.66888 -46.18415
vt -27.85032 -47.1882
vt 56.48475 -5.223433
vt 56.48474 -11.08086
vt 36.48475 -5.223432
vt 36.48473 -11.08086
vt -81.44652 -11.08086
vt -61.44653 -5.223432
vt -61.44652 -11.08086
vt -81.44653 -5.223432
vt 46.48477 -5.223433
vt 56.48474 -0.1189594
vt 56.48475 -5.223432
vt 46.48473 -0.1189566
vt 36.48476 -5.223432
vt 36.48474 -11.08086
vt 26.48476 -9.044362
vt 26.48475 -0.1189556
vt 46.48476 -0.1189594
vt 46.48476 -5.223432
vn 1 0 0
vn 1 0 0
vn 1 0 0
vn 1 0 0
vn 0 1 0
vn 0 1 0
vn 0 1 0
vn 0 1 0
vn 0 0 1
vn 0 0 1
vn 0 0 1
vn 0 0 1
vn 0 0 1
vn 1 0 0
vn 1 0 0
vn 1 0 0
vn 1 0 0
vn 0 1 0
vn 0 1 0
vn 0 1 0
vn 0 1 0
vn 0 0 1
vn 0 0 1
vn 0 0 1
vn 0 0 1
vn 0 0 1
vn 0 0 1
vn 0 0 1
vn 0 0 1
vn 1 0 0
vn 1 0 0
vn 1 0 0
vn 1 0 0
vn 0 1 0
vn 0 1 0
vn 0 1 0
vn 0 1 0
vn 0 0 1
vn 0 0 1
vn 0 0 1
vn 0 0 1
vn 0 0 1
vn 0 0 1
vn 0 0 1
vn 0 0 1
vn 0 0 1
vn 0 0 1
vn 0 0 1
vn 0 0 1
vn 1 0 0
vn 1 0 0
vn 1 0 0
vn 1 0 0
vn 1 0 0
vn 1 0 0
vn 1 0 0
vn 0 0 1
vn 0 0 1
vn 0 0 1
vn 0 0 1
vn 0 1 0
vn 0 1 0
vn 0 1 0
vn 0 1 0
vn 0 1 0
vn 0 1 0
vn 0 1 0
vn 0 1 0
vn 0 1 0
vn 0 0 1
vn 0 0 1
vn 0 0 1
vn 0 0 1
vn 0 0 1
vn 0 0 1
vn 0 0 1
vn 0 0 1
vn 0 0 1
vn 0 0 1
vn 0 0 1
vn 0 0 1
vn 0 0 1
vn 0 0 1
vn 0 1 0
vn 0 1 0
vn 0 1 0
vn 0 1 0
vn -8.595794E-05 0.9999985 -0.001722341
vn -8.595794E-05 0.9999985 -0.001722341
vn 0 1 5.710699E-05
vn -0.00017731 0.9999939 -0.003501783
vn 0 0 1
vn 0 0 1
vn 0 0 1
vn 0 0 1
vn 0 1 0
vn 0 1 0
vn 0 1 0
vn 0 1 0
vn 1 0 0
vn 1 0 0
vn 1 0 0
vn 1 0 0
vn 0 1 0
vn 0 1 0
vn 0 1 0
vn 0 1 0
vn 0 1 0
vn 0 1 0
vn 0 1 0
vn 0 1 0
vn 0 1 0
vn 0 1 0
g m2222_0
f 3/3/3 2/2/2 1/1/1
f 4/4/4 1/1/1 2/2/2
f 7/7/7 6/6/6 5/5/5
f 8/8/8 5/5/5 6/6/6
f 11/11/11 10/10/10 9/9/9
f 9/9/9 12/12/12 11/11/11
f 13/13/13 12/12/12 9/9/9
f 16/16/16 15/15/15 14/14/14
f 17/17/17 14/14/14 15/15/15
f 20/20/20 19/19/19 18/18/18
f 21/21/21 18/18/18 19/19/19
f 24/24/24 23/23/23 22/22/22
f 25/25/25 22/22/22 23/23/23
f 28/28/28 27/27/27 26/26/26
f 29/29/29 26/26/26 27/27/27
f 32/32/32 31/31/31 30/30/30
f 33/33/33 30/30/30 31/31/31
f 36/36/36 35/35/35 34/34/34
f 37/37/37 34/34/34 35/35/35
f 40/40/40 39/39/39 38/38/38
f 41/41/41 38/38/38 39/39/39
f 44/44/44 43/43/43 42/42/42
f 45/45/45 44/44/44 42/42/42
f 46/46/46 45/45/45 42/42/42
f 47/47/47 46/46/46 42/42/42
f 48/48/48 47/47/47 42/42/42
f 49/49/49 44/44/44 45/45/45
f 52/52/52 51/51/51 50/50/50
f 53/53/53 52/52/52 50/50/50
f 54/54/54 51/51/51 52/52/52
f 55/55/55 54/54/54 52/52/52
f 56/56/56 51/51/51 54/54/54
f 59/59/59 58/58/58 57/57/57
f 60/60/60 59/59/59 57/57/57
f 63/63/63 62/62/62 61/61/61
f 64/64/64 63/63/63 61/61/61
f 65/65/65 62/62/62 63/63/63
f 66/66/66 65/65/65 63/63/63
f 67/67/67 65/65/65 66/66/66
f 68/68/68 65/65/65 67/67/67
f 69/69/69 62/62/62 65/65/65
f 72/72/72 71/71/71 70/70/70
f 73/73/73 70/70/70 71/71/71
f 76/76/76 75/75/75 74/74/74
f 77/77/77 74/74/74 75/75/75
f 80/80/80 79/79/79 78/78/78
f 83/83/83 82/82/82 81/81/81
g m2222_1
f 86/86/86 85/85/85 84/84/84
f 87/87/87 84/84/84 85/85/85
f 90/90/90 89/89/89 88/88/88
f 91/91/91 88/88/88 89/89/89
f 94/94/94 93/93/93 92/92/92
f 95/95/95 92/92/92 93/93/93
f 98/98/98 97/97/97 96/96/96
f 99/99/99 97/97/97 98/98/98
f 102/102/102 101/101/101 100/100/100
f 103/103/103 100/100/100 101/101/101
f 106/106/106 105/105/105 104/104/104
f 107/107/107 104/104/104 105/105/105
f 110/110/110 109/109/109 108/108/108
f 111/111/111 110/110/110 108/108/108
f 112/112/112 111/111/111 108/108/108
f 113/113/113 112/112/112 108/108/108
