g m_grass.002
v 0.06369194 0.02999997 -0.1600675
v 0.06369194 0.02999997 -0.1700675
v 0.06369194 0.03562497 -0.1700675
v 0.06369194 0.03562497 -0.1600675
v 0.06119194 0.02999997 -0.1625675
v 0.07119193 0.02999997 -0.1625675
v 0.07119193 0.03562497 -0.1625675
v 0.06119194 0.03562497 -0.1625675
v 0.06869193 0.02999997 -0.1600675
v 0.06869193 0.02999997 -0.1700675
v 0.06869193 0.03562497 -0.1700675
v 0.06869193 0.03562497 -0.1600675
v 0.06119194 0.02999997 -0.1675675
v 0.07119193 0.02999997 -0.1675675
v 0.07119193 0.03562497 -0.1675675
v 0.06119194 0.03562497 -0.1675675
v 0.1164084 0.02999998 -0.1118698
v 0.1164084 0.02999998 -0.1218698
v 0.1164084 0.03562498 -0.1218698
v 0.1164084 0.03562498 -0.1118698
v 0.1139084 0.02999998 -0.1143698
v 0.1239084 0.02999998 -0.1143698
v 0.1239084 0.03562498 -0.1143698
v 0.1139084 0.03562498 -0.1143698
v 0.1214084 0.02999998 -0.1118698
v 0.1214084 0.02999998 -0.1218698
v 0.1214084 0.03562498 -0.1218698
v 0.1214084 0.03562498 -0.1118698
v 0.1139084 0.02999998 -0.1193698
v 0.1239084 0.02999998 -0.1193698
v 0.1239084 0.03562498 -0.1193698
v 0.1139084 0.03562498 -0.1193698
v 0.06950515 0.02999998 -0.08479603
v 0.06950515 0.02999998 -0.09479602
v 0.06950515 0.03562498 -0.09479602
v 0.06950515 0.03562498 -0.08479603
v 0.06700515 0.02999998 -0.08729602
v 0.07700514 0.02999998 -0.08729602
v 0.07700514 0.03562498 -0.08729602
v 0.06700515 0.03562498 -0.08729602
v 0.07450514 0.02999998 -0.08479603
v 0.07450514 0.02999998 -0.09479602
v 0.07450514 0.03562498 -0.09479602
v 0.07450514 0.03562498 -0.08479603
v 0.06700515 0.02999998 -0.09229603
v 0.07700514 0.02999998 -0.09229603
v 0.07700514 0.03562498 -0.09229603
v 0.06700515 0.03562498 -0.09229603
v 0.08418084 0.02999998 -0.1225667
v 0.08418084 0.02999998 -0.1325667
v 0.08418084 0.03562497 -0.1325667
v 0.08418084 0.03562497 -0.1225667
v 0.08168084 0.02999998 -0.1250667
v 0.09168084 0.02999998 -0.1250667
v 0.09168084 0.03562497 -0.1250667
v 0.08168084 0.03562498 -0.1250667
v 0.08918084 0.02999998 -0.1225667
v 0.08918084 0.02999998 -0.1325667
v 0.08918084 0.03562497 -0.1325667
v 0.08918084 0.03562497 -0.1225667
v 0.08168084 0.02999998 -0.1300667
v 0.09168084 0.02999998 -0.1300667
v 0.09168084 0.03562497 -0.1300667
v 0.08168084 0.03562498 -0.1300667
v 0.1065757 0.02999999 -0.04339973
v 0.1065757 0.02999999 -0.05339973
v 0.1065757 0.03562499 -0.05339973
v 0.1065757 0.03562499 -0.04339973
v 0.1040757 0.02999999 -0.04589973
v 0.1140757 0.02999999 -0.04589973
v 0.1140757 0.03562499 -0.04589973
v 0.1040757 0.03562499 -0.04589973
v 0.1115757 0.02999999 -0.04339973
v 0.1115757 0.02999999 -0.05339973
v 0.1115757 0.03562499 -0.05339973
v 0.1115757 0.03562499 -0.04339973
v 0.1040757 0.02999999 -0.05089973
v 0.1140757 0.02999999 -0.05089973
v 0.1140757 0.03562499 -0.05089973
v 0.1040757 0.03562499 -0.05089973
v 0.06799852 0.02999999 -0.0156184
v 0.06799852 0.02999999 -0.0256184
v 0.06799852 0.03562499 -0.0256184
v 0.06799852 0.03562499 -0.0156184
v 0.06549852 0.02999999 -0.0181184
v 0.07549851 0.02999999 -0.0181184
v 0.07549851 0.03562499 -0.0181184
v 0.06549852 0.03562499 -0.0181184
v 0.07299852 0.02999999 -0.0156184
v 0.07299852 0.02999999 -0.0256184
v 0.07299852 0.03562499 -0.0256184
v 0.07299852 0.03562499 -0.0156184
v 0.06549852 0.02999999 -0.0231184
v 0.07549851 0.02999999 -0.0231184
v 0.07549851 0.03562499 -0.0231184
v 0.06549852 0.03562499 -0.0231184
v 0.1033043 0.02999997 -0.1501575
v 0.1033043 0.02999997 -0.1601575
v 0.1033043 0.03562497 -0.1601575
v 0.1033043 0.03562497 -0.1501575
v 0.1008043 0.02999997 -0.1526575
v 0.1108043 0.02999997 -0.1526575
v 0.1108043 0.03562497 -0.1526575
v 0.1008043 0.03562497 -0.1526575
v 0.1083043 0.02999997 -0.1501575
v 0.1083043 0.02999997 -0.1601575
v 0.1083043 0.03562497 -0.1601575
v 0.1083043 0.03562497 -0.1501575
v 0.1008043 0.02999997 -0.1576575
v 0.1108043 0.02999997 -0.1576575
v 0.1108043 0.03562497 -0.1576575
v 0.1008043 0.03562497 -0.1576575
v 0.1322985 0.02999998 -0.07381184
v 0.1322985 0.02999998 -0.08381183
v 0.1322985 0.03562498 -0.08381183
v 0.1322985 0.03562498 -0.07381184
v 0.1297985 0.02999998 -0.07631183
v 0.1397985 0.02999998 -0.07631183
v 0.1397985 0.03562498 -0.07631183
v 0.1297985 0.03562498 -0.07631183
v 0.1372985 0.02999998 -0.07381184
v 0.1372985 0.02999998 -0.08381183
v 0.1372985 0.03562498 -0.08381183
v 0.1372985 0.03562498 -0.07381184
v 0.1297985 0.02999998 -0.08131184
v 0.1397985 0.02999998 -0.08131184
v 0.1397985 0.03562498 -0.08131184
v 0.1297985 0.03562498 -0.08131184
v 0.1324292 0.02999997 -0.1699522
v 0.1324292 0.02999997 -0.1799522
v 0.1324292 0.03562497 -0.1799522
v 0.1324292 0.03562497 -0.1699522
v 0.1299292 0.02999997 -0.1724522
v 0.1399292 0.02999997 -0.1724522
v 0.1399292 0.03562497 -0.1724522
v 0.1299292 0.03562497 -0.1724522
v 0.1374292 0.02999997 -0.1699522
v 0.1374292 0.02999997 -0.1799522
v 0.1374292 0.03562497 -0.1799522
v 0.1374292 0.03562497 -0.1699522
v 0.1299292 0.02999997 -0.1774522
v 0.1399292 0.02999997 -0.1774522
v 0.1399292 0.03562497 -0.1774522
v 0.1299292 0.03562497 -0.1774522
vt 0.5004571 0.0001253784
vt 0.2500756 0.0001253635
vt 0.2500756 0.1409644
vt 0.500457 0.1409644
vt 0.5004549 0.0001254261
vt 0.2500744 0.0001254186
vt 0.2500744 0.1409644
vt 0.5004549 0.1409644
vt 0.500456 0.0001254529
vt 0.2500754 0.0001254231
vt 0.2500754 0.1409644
vt 0.500456 0.1409645
vt 0.500456 0.0001253516
vt 0.2500756 0.0001254186
vt 0.2500756 0.1409644
vt 0.500456 0.1409644
vt 0.500456 0.0001254529
vt 0.2500754 0.0001254827
vt 0.2500754 0.1409644
vt 0.500456 0.1409645
vt 0.5004559 0.0001253516
vt 0.2500755 0.0001253814
vt 0.2500755 0.1409644
vt 0.5004559 0.1409644
vt 0.5004561 0.0001253784
vt 0.2500756 0.0001253933
vt 0.2500756 0.1409644
vt 0.5004561 0.1409644
vt 0.5004559 0.0001253516
vt 0.2500756 0.0001253441
vt 0.2500756 0.1409644
vt 0.5004559 0.1409644
vt 0.500456 0.0001254529
vt 0.2500764 0.0001254231
vt 0.2500764 0.1409644
vt 0.500456 0.1409645
vt 0.5004559 0.0001254261
vt 0.2500755 0.0001254932
vt 0.2500755 0.1409644
vt 0.5004559 0.1409644
vt 0.500456 0.0001253784
vt 0.2500754 0.0001253635
vt 0.2500754 0.1409644
vt 0.500456 0.1409644
vt 0.5004559 0.0001253665
vt 0.2500756 0.0001254186
vt 0.2500756 0.1409644
vt 0.5004559 0.1409644
vt 0.500456 0.0001253933
vt 0.2500744 0.0001253635
vt 0.2500744 0.1409644
vt 0.5004559 0.1409644
vt 0.500456 0.0001254261
vt 0.2500756 0.000125441
vt 0.2500755 0.1409644
vt 0.500456 0.1409644
vt 0.500456 0.0001254529
vt 0.2500744 0.0001254231
vt 0.2500744 0.1409644
vt 0.500456 0.1409645
vt 0.500456 0.0001254261
vt 0.2500755 0.0001254559
vt 0.2500755 0.1409644
vt 0.500456 0.1409644
vt 0.5004571 0.0001254231
vt 0.2500756 0.0001253933
vt 0.2500756 0.1409644
vt 0.5004571 0.1409644
vt 0.500455 0.0001254261
vt 0.2500744 0.0001254186
vt 0.2500744 0.1409644
vt 0.500455 0.1409644
vt 0.5004571 0.0001253486
vt 0.2500756 0.0001253188
vt 0.2500756 0.1409644
vt 0.5004571 0.1409644
vt 0.5004562 0.0001253516
vt 0.2500756 0.0001253441
vt 0.2500756 0.1409644
vt 0.5004562 0.1409644
vt 0.500456 0.0001254529
vt 0.2500754 0.0001254231
vt 0.2500754 0.1409644
vt 0.500456 0.1409645
vt 0.5004551 0.0001253665
vt 0.2500744 0.0001253441
vt 0.2500744 0.1409644
vt 0.500455 0.1409644
vt 0.5004571 0.0001253486
vt 0.2500756 0.0001253188
vt 0.2500756 0.1409644
vt 0.5004571 0.1409644
vt 0.5004562 0.0001253784
vt 0.2500756 0.0001253933
vt 0.2500756 0.1409644
vt 0.5004562 0.1409644
vt 0.5004571 0.0001254529
vt 0.2500765 0.0001254231
vt 0.2500765 0.1409644
vt 0.5004571 0.1409645
vt 0.500456 0.0001253516
vt 0.2500755 0.0001253441
vt 0.2500755 0.1409644
vt 0.500456 0.1409643
vt 0.5004571 0.0001253486
vt 0.2500765 0.0001253188
vt 0.2500765 0.1409644
vt 0.5004571 0.1409644
vt 0.500456 0.0001253516
vt 0.2500755 0.0001254186
vt 0.2500755 0.1409644
vt 0.500456 0.1409644
vt 0.5004571 0.0001254231
vt 0.2500756 0.0001253933
vt 0.2500756 0.1409644
vt 0.500457 0.1409644
vt 0.500455 0.0001253665
vt 0.2500744 0.0001253814
vt 0.2500744 0.1409644
vt 0.500455 0.1409644
vt 0.500456 0.0001253933
vt 0.2500744 0.0001253635
vt 0.2500744 0.1409644
vt 0.500456 0.1409644
vt 0.5004562 0.0001252994
vt 0.2500756 0.0001253441
vt 0.2500756 0.1409644
vt 0.5004562 0.1409644
vt 0.500456 0.0001253784
vt 0.2500773 0.0001253635
vt 0.2500773 0.1409644
vt 0.500456 0.1409644
vt 0.5004562 0.0001253516
vt 0.2500756 0.0001254186
vt 0.2500756 0.1409644
vt 0.5004562 0.1409644
vt 0.500456 0.0001254529
vt 0.2500764 0.0001254231
vt 0.2500764 0.1409644
vt 0.500456 0.1409645
vt 0.5004551 0.0001254634
vt 0.2500744 0.0001254932
vt 0.2500744 0.1409645
vt 0.5004551 0.1409645
vn -1 0 0
vn -1 0 0
vn -1 0 0
vn -1 0 0
vn 0 0 -1
vn 0 0 -1
vn 0 0 -1
vn 0 0 -1
vn -1 0 0
vn -1 0 0
vn -1 0 0
vn -1 0 0
vn 0 0 -1
vn 0 0 -1
vn 0 0 -1
vn 0 0 -1
vn -1 0 0
vn -1 0 0
vn -1 0 0
vn -1 0 0
vn 0 0 -1
vn 0 0 -1
vn 0 0 -1
vn 0 0 -1
vn -1 0 0
vn -1 0 0
vn -1 0 0
vn -1 0 0
vn 0 0 -1
vn 0 0 -1
vn 0 0 -1
vn 0 0 -1
vn -1 0 0
vn -1 0 0
vn -1 0 0
vn -1 0 0
vn 0 0 -1
vn 0 0 -1
vn 0 0 -1
vn 0 0 -1
vn -1 0 0
vn -1 0 0
vn -1 0 0
vn -1 0 0
vn 0 0 -1
vn 0 0 -1
vn 0 0 -1
vn 0 0 -1
vn -1 0 0
vn -1 0 0
vn -1 0 0
vn -1 0 0
vn 0 0 -1
vn 0 0 -1
vn 0 0 -1
vn 0 0 -1
vn -1 0 0
vn -1 0 0
vn -1 0 0
vn -1 0 0
vn 0 0 -1
vn 0 0 -1
vn 0 0 -1
vn 0 0 -1
vn -1 0 0
vn -1 0 0
vn -1 0 0
vn -1 0 0
vn 0 0 -1
vn 0 0 -1
vn 0 0 -1
vn 0 0 -1
vn -1 0 0
vn -1 0 0
vn -1 0 0
vn -1 0 0
vn 0 0 -1
vn 0 0 -1
vn 0 0 -1
vn 0 0 -1
vn -1 0 0
vn -1 0 0
vn -1 0 0
vn -1 0 0
vn 0 0 -1
vn 0 0 -1
vn 0 0 -1
vn 0 0 -1
vn -1 0 0
vn -1 0 0
vn -1 0 0
vn -1 0 0
vn 0 0 -1
vn 0 0 -1
vn 0 0 -1
vn 0 0 -1
vn -1 0 0
vn -1 0 0
vn -1 0 0
vn -1 0 0
vn 0 0 -1
vn 0 0 -1
vn 0 0 -1
vn 0 0 -1
vn -1 0 0
vn -1 0 0
vn -1 0 0
vn -1 0 0
vn 0 0 -1
vn 0 0 -1
vn 0 0 -1
vn 0 0 -1
vn -1 0 0
vn -1 0 0
vn -1 0 0
vn -1 0 0
vn 0 0 -1
vn 0 0 -1
vn 0 0 -1
vn 0 0 -1
vn -1 0 0
vn -1 0 0
vn -1 0 0
vn -1 0 0
vn 0 0 -1
vn 0 0 -1
vn 0 0 -1
vn 0 0 -1
vn -1 0 0
vn -1 0 0
vn -1 0 0
vn -1 0 0
vn 0 0 -1
vn 0 0 -1
vn 0 0 -1
vn 0 0 -1
vn -1 0 0
vn -1 0 0
vn -1 0 0
vn -1 0 0
vn 0 0 -1
vn 0 0 -1
vn 0 0 -1
vn 0 0 -1
g m_grass.002_0
f 3/3/3 2/2/2 1/1/1
f 4/4/4 3/3/3 1/1/1
f 7/7/7 6/6/6 5/5/5
f 8/8/8 7/7/7 5/5/5
f 11/11/11 10/10/10 9/9/9
f 12/12/12 11/11/11 9/9/9
f 15/15/15 14/14/14 13/13/13
f 16/16/16 15/15/15 13/13/13
f 19/19/19 18/18/18 17/17/17
f 20/20/20 19/19/19 17/17/17
f 23/23/23 22/22/22 21/21/21
f 24/24/24 23/23/23 21/21/21
f 27/27/27 26/26/26 25/25/25
f 28/28/28 27/27/27 25/25/25
f 31/31/31 30/30/30 29/29/29
f 32/32/32 31/31/31 29/29/29
f 35/35/35 34/34/34 33/33/33
f 36/36/36 35/35/35 33/33/33
f 39/39/39 38/38/38 37/37/37
f 40/40/40 39/39/39 37/37/37
f 43/43/43 42/42/42 41/41/41
f 44/44/44 43/43/43 41/41/41
f 47/47/47 46/46/46 45/45/45
f 48/48/48 47/47/47 45/45/45
f 51/51/51 50/50/50 49/49/49
f 52/52/52 51/51/51 49/49/49
f 55/55/55 54/54/54 53/53/53
f 56/56/56 55/55/55 53/53/53
f 59/59/59 58/58/58 57/57/57
f 60/60/60 59/59/59 57/57/57
f 63/63/63 62/62/62 61/61/61
f 64/64/64 63/63/63 61/61/61
f 67/67/67 66/66/66 65/65/65
f 68/68/68 67/67/67 65/65/65
f 71/71/71 70/70/70 69/69/69
f 72/72/72 71/71/71 69/69/69
f 75/75/75 74/74/74 73/73/73
f 76/76/76 75/75/75 73/73/73
f 79/79/79 78/78/78 77/77/77
f 80/80/80 79/79/79 77/77/77
f 83/83/83 82/82/82 81/81/81
f 84/84/84 83/83/83 81/81/81
f 87/87/87 86/86/86 85/85/85
f 88/88/88 87/87/87 85/85/85
f 91/91/91 90/90/90 89/89/89
f 92/92/92 91/91/91 89/89/89
f 95/95/95 94/94/94 93/93/93
f 96/96/96 95/95/95 93/93/93
f 99/99/99 98/98/98 97/97/97
f 100/100/100 99/99/99 97/97/97
f 103/103/103 102/102/102 101/101/101
f 104/104/104 103/103/103 101/101/101
f 107/107/107 106/106/106 105/105/105
f 108/108/108 107/107/107 105/105/105
f 111/111/111 110/110/110 109/109/109
f 112/112/112 111/111/111 109/109/109
f 115/115/115 114/114/114 113/113/113
f 116/116/116 115/115/115 113/113/113
f 119/119/119 118/118/118 117/117/117
f 120/120/120 119/119/119 117/117/117
f 123/123/123 122/122/122 121/121/121
f 124/124/124 123/123/123 121/121/121
f 127/127/127 126/126/126 125/125/125
f 128/128/128 127/127/127 125/125/125
f 131/131/131 130/130/130 129/129/129
f 132/132/132 131/131/131 129/129/129
f 135/135/135 134/134/134 133/133/133
f 136/136/136 135/135/135 133/133/133
f 139/139/139 138/138/138 137/137/137
f 140/140/140 139/139/139 137/137/137
f 143/143/143 142/142/142 141/141/141
f 144/144/144 143/143/143 141/141/141
