g Main_Door_Frame
v -39.30186 -6.190306 3.9875
v -39.30186 -6.190306 7.879367E-07
v -39.50186 -6.190306 7.879367E-07
v -39.50186 -6.190306 3.9875
v -39.30186 -5.990306 4.1875
v -39.30186 -5.990305 8.117787E-07
v -39.30186 -6.190306 7.879367E-07
v -39.30186 -6.190306 3.9875
v -39.50186 -5.990306 4.1875
v -39.50186 -5.990305 8.117787E-07
v -39.30186 -5.990305 8.117787E-07
v -39.30186 -5.990306 4.1875
v -39.50186 -6.190306 3.9875
v -39.50186 -6.190306 7.879367E-07
v -39.50186 -5.990305 8.117787E-07
v -39.50186 -5.990306 4.1875
v -39.30186 -6.190306 3.9875
v -39.50186 -6.190306 3.9875
v -39.50186 -9.590306 3.987499
v -39.30186 -9.590306 3.987499
v -39.30186 -6.190306 3.9875
v -39.30186 -9.590306 3.987499
v -39.30186 -9.590305 4.1875
v -39.30186 -5.990306 4.1875
v -39.50186 -5.990306 4.1875
v -39.30186 -5.990306 4.1875
v -39.30186 -9.590305 4.1875
v -39.50186 -9.590305 4.1875
v -39.50186 -6.190306 3.9875
v -39.50186 -5.990306 4.1875
v -39.50186 -9.590305 4.1875
v -39.50186 -9.590306 3.987499
v -39.30186 -13.1903 4.187498
v -39.30186 -13.1903 -4.652793E-08
v -39.50186 -13.1903 -4.652793E-08
v -39.50186 -13.1903 4.187498
v -39.30186 -12.99031 3.987499
v -39.30186 -12.9903 -2.268621E-08
v -39.30186 -13.1903 -4.652793E-08
v -39.30186 -13.1903 4.187498
v -39.50186 -12.99031 3.987499
v -39.50186 -12.9903 -2.268621E-08
v -39.30186 -12.9903 -2.268621E-08
v -39.30186 -12.99031 3.987499
v -39.50186 -13.1903 4.187498
v -39.50186 -13.1903 -4.652793E-08
v -39.50186 -12.9903 -2.268621E-08
v -39.50186 -12.99031 3.987499
v -39.30186 -12.99031 3.987499
v -39.30186 -9.590306 3.987499
v -39.50186 -9.590306 3.987499
v -39.50186 -12.99031 3.987499
v -39.30186 -9.590305 4.1875
v -39.30186 -9.590306 3.987499
v -39.30186 -12.99031 3.987499
v -39.30186 -13.1903 4.187498
v -39.50186 -13.1903 4.187498
v -39.50186 -9.590305 4.1875
v -39.30186 -9.590305 4.1875
v -39.30186 -13.1903 4.187498
v -39.50186 -12.99031 3.987499
v -39.50186 -9.590306 3.987499
v -39.50186 -9.590305 4.1875
v -39.50186 -13.1903 4.187498
vt 0.4589844 0.7070313
vt 0.5185059 0.7070313
vt 0.5185059 0.7040101
vt 0.4589844 0.7040101
vt 0.4589844 0.7040099
vt 0.5214913 0.7040099
vt 0.5214913 0.7070313
vt 0.4619699 0.7070313
vt 0.5214913 0.7040101
vt 0.4589844 0.7040101
vt 0.4589844 0.7070313
vt 0.5214913 0.7070313
vt 0.46197 0.7070313
vt 0.5214913 0.7070311
vt 0.5214913 0.7040097
vt 0.4589844 0.7040099
vt 0.4589844 0.7040101
vt 0.4589844 0.7070313
vt 0.5097361 0.7070313
vt 0.5097361 0.7040101
vt 0.4619699 0.7040097
vt 0.5127216 0.7040095
vt 0.5127227 0.7070308
vt 0.4589844 0.7070313
vt 0.4589844 0.7070313
vt 0.4589844 0.7040101
vt 0.5127217 0.7040101
vt 0.5127217 0.7070313
vt 0.4619692 0.70401
vt 0.4589844 0.7070313
vt 0.512721 0.7070311
vt 0.5127211 0.7040098
vt 0.4589844 0.7070313
vt 0.5214913 0.7070313
vt 0.5214913 0.70401
vt 0.4589844 0.70401
vt 0.4619694 0.707031
vt 0.5214912 0.7070313
vt 0.5214912 0.70401
vt 0.4589844 0.7040098
vt 0.518506 0.70401
vt 0.4589844 0.70401
vt 0.4589844 0.7070313
vt 0.518506 0.7070313
vt 0.4589844 0.7040098
vt 0.5214913 0.7040099
vt 0.5214913 0.7070313
vt 0.4619699 0.7070313
vt 0.4589844 0.7040101
vt 0.5097361 0.7040101
vt 0.5097361 0.7070313
vt 0.4589844 0.7070313
vt 0.5127227 0.7070313
vt 0.5127224 0.70401
vt 0.4619709 0.7040097
vt 0.4589844 0.7070311
vt 0.4589844 0.7070313
vt 0.5127216 0.7070313
vt 0.5127216 0.7040101
vt 0.4589844 0.7040101
vt 0.4619696 0.7040098
vt 0.5127216 0.70401
vt 0.5127215 0.7070313
vt 0.4589844 0.7070309
vn 0 -1 -1.19583E-07
vn 0 -1 -1.19583E-07
vn 0 -1 -1.19583E-07
vn 0 -1 -1.19583E-07
vn 1 0 4.974E-06
vn 1 0 0
vn 1 0 0
vn 1 0 4.973991E-06
vn 0 1 1.138716E-07
vn 0 1 1.138716E-07
vn 0 1 1.138716E-07
vn 0 1 1.138716E-07
vn -1 0 0
vn -1 0 0
vn -1 0 0
vn -1 0 0
vn 0 1.753097E-07 -1
vn 0 1.753097E-07 -1
vn 0 1.753097E-07 -1
vn 0 1.753097E-07 -1
vn 1 0 4.973991E-06
vn 1 0 1.587316E-05
vn 1 0 1.587312E-05
vn 1 0 4.974E-06
vn 0 -1.655717E-07 1
vn 0 -1.655717E-07 1
vn 0 -2.483575E-07 1
vn 0 -2.483575E-07 1
vn -1 0 0
vn -1 0 0
vn -1 0 5.110224E-06
vn -1 0 5.110257E-06
vn 0 -1 0
vn 0 -1 0
vn 0 -1 0
vn 0 -1 0
vn 1 0 1.119078E-05
vn 1 0 5.832892E-07
vn 1 0 5.832892E-07
vn 1 0 1.119081E-05
vn 0 1 2.391661E-07
vn 0 1 2.391661E-07
vn 0 1 2.391661E-07
vn 0 1 2.391661E-07
vn -1 0 5.11025E-06
vn -1 0 0
vn -1 0 0
vn -1 0 5.110237E-06
vn 0 1.753097E-07 -1
vn 0 1.753097E-07 -1
vn 0 1.753097E-07 -1
vn 0 1.753097E-07 -1
vn 1 0 1.587312E-05
vn 1 0 1.587316E-05
vn 1 0 1.119078E-05
vn 1 0 1.119081E-05
vn 0 -3.311434E-07 1
vn 0 -2.483575E-07 1
vn 0 -2.483575E-07 1
vn 0 -3.311434E-07 1
vn -1 0 5.110237E-06
vn -1 0 5.110257E-06
vn -1 0 5.110224E-06
vn -1 0 5.11025E-06
g Main_Door_Frame_0
f 3/3/3 2/2/2 1/1/1
f 4/4/4 3/3/3 1/1/1
f 7/7/7 6/6/6 5/5/5
f 8/8/8 7/7/7 5/5/5
f 11/11/11 10/10/10 9/9/9
f 12/12/12 11/11/11 9/9/9
f 15/15/15 14/14/14 13/13/13
f 16/16/16 15/15/15 13/13/13
f 19/19/19 18/18/18 17/17/17
f 20/20/20 19/19/19 17/17/17
f 23/23/23 22/22/22 21/21/21
f 24/24/24 23/23/23 21/21/21
f 27/27/27 26/26/26 25/25/25
f 28/28/28 27/27/27 25/25/25
f 31/31/31 30/30/30 29/29/29
f 32/32/32 31/31/31 29/29/29
f 35/35/35 34/34/34 33/33/33
f 36/36/36 35/35/35 33/33/33
f 39/39/39 38/38/38 37/37/37
f 40/40/40 39/39/39 37/37/37
f 43/43/43 42/42/42 41/41/41
f 44/44/44 43/43/43 41/41/41
f 47/47/47 46/46/46 45/45/45
f 48/48/48 47/47/47 45/45/45
f 51/51/51 50/50/50 49/49/49
f 52/52/52 51/51/51 49/49/49
f 55/55/55 54/54/54 53/53/53
f 56/56/56 55/55/55 53/53/53
f 59/59/59 58/58/58 57/57/57
f 60/60/60 59/59/59 57/57/57
f 63/63/63 62/62/62 61/61/61
f 64/64/64 63/63/63 61/61/61
