g MechBearGun
v 0.4843734 -0.07812065 0.6251147
v 0.734374 -0.07811979 1.093865
v 0.7343743 -0.07811997 0.6251147
v 0.4843732 -0.07812043 1.093865
v 0.7343733 0.2656299 0.6251147
v 0.734374 -0.07811979 1.093865
v 0.7343731 0.2656301 1.093865
v 0.7343743 -0.07811997 0.6251147
v 0.4843724 0.2656293 0.6251146
v 0.4843732 -0.07812043 1.093865
v 0.4843734 -0.07812065 0.6251147
v 0.4843722 0.2656294 1.093865
v 0.4843724 0.2656293 0.6251146
v 0.7343731 0.2656301 1.093865
v 0.4843722 0.2656294 1.093865
v 0.7343733 0.2656299 0.6251147
v 0.7343733 0.2656299 0.6251147
v 0.4843734 -0.07812065 0.6251147
v 0.7343743 -0.07811997 0.6251147
v 0.4843724 0.2656293 0.6251146
v 0.7343731 0.2656301 1.093865
v 0.4843732 -0.07812043 1.093865
v 0.4843722 0.2656294 1.093865
v 0.734374 -0.07811979 1.093865
v 0.4843726 -0.04687084 1.093865
v 0.578122 -0.04687053 1.437615
v 0.640622 -0.0468704 1.406365
v 0.578122 -0.04687051 1.468865
v 0.484372 -0.04687074 1.468865
v 0.671872 -0.04687029 1.375115
v 0.7031218 -0.04687024 1.375115
v 0.703122 -0.04687028 1.093864
v 0.671872 -0.04687031 1.406365
v 0.640622 -0.04687039 1.437615
v 0.578122 -0.04687051 1.468865
v 0.5781212 0.2343795 1.437614
v 0.578122 -0.04687053 1.437615
v 0.5781212 0.2343796 1.468864
v 0.484372 -0.04687074 1.468865
v 0.5781212 0.2343796 1.468864
v 0.578122 -0.04687051 1.468865
v 0.4843712 0.2343794 1.468864
v 0.4843726 -0.04687084 1.093865
v 0.4843712 0.2343794 1.468864
v 0.484372 -0.04687074 1.468865
v 0.4843718 0.2343792 1.093864
v 0.7031218 -0.04687024 1.375115
v 0.7031212 0.2343798 1.093864
v 0.703122 -0.04687028 1.093864
v 0.703121 0.2343798 1.375114
v 0.671872 -0.04687029 1.375115
v 0.703121 0.2343798 1.375114
v 0.7031218 -0.04687024 1.375115
v 0.6718712 0.2343797 1.375114
v 0.671872 -0.04687031 1.406365
v 0.6718712 0.2343797 1.375114
v 0.671872 -0.04687029 1.375115
v 0.6718712 0.2343797 1.406364
v 0.640622 -0.0468704 1.406365
v 0.6718712 0.2343797 1.406364
v 0.671872 -0.04687031 1.406365
v 0.6406212 0.2343796 1.406364
v 0.578122 -0.04687053 1.437615
v 0.6406212 0.2343796 1.437614
v 0.640622 -0.04687039 1.437615
v 0.5781212 0.2343795 1.437614
v 0.640622 -0.04687039 1.437615
v 0.6406212 0.2343796 1.406364
v 0.640622 -0.0468704 1.406365
v 0.6406212 0.2343796 1.437614
v 0.4843718 0.2343792 1.093864
v 0.5781212 0.2343796 1.468864
v 0.4843712 0.2343794 1.468864
v 0.5781212 0.2343795 1.437614
v 0.6406212 0.2343796 1.406364
v 0.6718712 0.2343797 1.375114
v 0.703121 0.2343798 1.375114
v 0.7031212 0.2343798 1.093864
v 0.6718712 0.2343797 1.406364
v 0.6406212 0.2343796 1.437614
v -0.4843735 -0.07812365 0.6251141
v -0.7343747 -0.07812439 1.093864
v -0.4843738 -0.07812365 1.093864
v -0.7343745 -0.07812439 0.625114
v -0.7343755 0.2656254 0.625114
v -0.7343747 -0.07812439 1.093864
v -0.7343745 -0.07812439 0.625114
v -0.7343758 0.2656254 1.093864
v -0.4843746 0.2656262 0.6251141
v -0.4843738 -0.07812365 1.093864
v -0.4843749 0.2656262 1.093864
v -0.4843735 -0.07812365 0.6251141
v -0.4843746 0.2656262 0.6251141
v -0.7343758 0.2656254 1.093864
v -0.7343755 0.2656254 0.625114
v -0.4843749 0.2656262 1.093864
v -0.7343755 0.2656254 0.625114
v -0.4843735 -0.07812365 0.6251141
v -0.4843746 0.2656262 0.6251141
v -0.7343745 -0.07812439 0.625114
v -0.7343758 0.2656254 1.093864
v -0.4843738 -0.07812365 1.093864
v -0.7343747 -0.07812439 1.093864
v -0.4843749 0.2656262 1.093864
v -0.4843734 -0.04687412 1.093864
v -0.5781234 -0.04687444 1.468864
v -0.4843734 -0.04687418 1.468864
v -0.5781234 -0.04687444 1.437614
v -0.6406234 -0.04687463 1.406364
v -0.6718731 -0.04687469 1.375114
v -0.7031229 -0.04687479 1.375114
v -0.7031229 -0.0468748 1.093864
v -0.6718734 -0.04687469 1.406364
v -0.6406234 -0.04687463 1.437614
v -0.5781234 -0.04687444 1.468864
v -0.578124 0.2343756 1.437614
v -0.578124 0.2343756 1.468864
v -0.5781234 -0.04687444 1.437614
v -0.4843734 -0.04687418 1.468864
v -0.578124 0.2343756 1.468864
v -0.484374 0.2343759 1.468864
v -0.5781234 -0.04687444 1.468864
v -0.4843734 -0.04687412 1.093864
v -0.484374 0.2343759 1.468864
v -0.4843743 0.234376 1.093864
v -0.4843734 -0.04687418 1.468864
v -0.7031229 -0.04687479 1.375114
v -0.7031237 0.2343753 1.093864
v -0.7031239 0.2343752 1.375114
v -0.7031229 -0.0468748 1.093864
v -0.6718731 -0.04687469 1.375114
v -0.7031239 0.2343752 1.375114
v -0.671874 0.2343753 1.375114
v -0.7031229 -0.04687479 1.375114
v -0.6718734 -0.04687469 1.406364
v -0.671874 0.2343753 1.375114
v -0.671874 0.2343753 1.406364
v -0.6718731 -0.04687469 1.375114
v -0.6406234 -0.04687463 1.406364
v -0.671874 0.2343753 1.406364
v -0.640624 0.2343754 1.406364
v -0.6718734 -0.04687469 1.406364
v -0.5781234 -0.04687444 1.437614
v -0.640624 0.2343754 1.437614
v -0.578124 0.2343756 1.437614
v -0.6406234 -0.04687463 1.437614
v -0.6406234 -0.04687463 1.437614
v -0.640624 0.2343754 1.406364
v -0.640624 0.2343754 1.437614
v -0.6406234 -0.04687463 1.406364
v -0.4843743 0.234376 1.093864
v -0.578124 0.2343756 1.437614
v -0.640624 0.2343754 1.406364
v -0.578124 0.2343756 1.468864
v -0.484374 0.2343759 1.468864
v -0.671874 0.2343753 1.375114
v -0.7031239 0.2343752 1.375114
v -0.7031237 0.2343753 1.093864
v -0.671874 0.2343753 1.406364
v -0.640624 0.2343754 1.437614
v 0.7031212 0.2343798 1.093864
v 0.4843726 -0.04687084 1.093865
v 0.703122 -0.04687028 1.093864
v 0.4843718 0.2343792 1.093864
v -0.7031237 0.2343753 1.093864
v -0.4843734 -0.04687412 1.093864
v -0.4843743 0.234376 1.093864
v -0.7031229 -0.0468748 1.093864
vt 0.2812501 0.5390626
vt 0.3437504 0.65625
vt 0.3437503 0.5390625
vt 0.2812501 0.65625
vt 0.3828126 0.5390625
vt 0.4687501 0.65625
vt 0.3828126 0.65625
vt 0.4687501 0.5390625
vt 0.4765626 0.5390625
vt 0.5625002 0.6562499
vt 0.5625001 0.5390625
vt 0.4765626 0.65625
vt 0.2812501 0.5390626
vt 0.3437504 0.65625
vt 0.2812501 0.65625
vt 0.3437503 0.5390625
vt 0.06250022 0.08593738
vt 0 0
vt 0.06250022 -4.440892E-16
vt 0 0.08593738
vt 0.1562502 0.08593738
vt 0.09375 0
vt 0.09375 0.08593738
vt 0.1562502 -4.768368E-09
vt 0.453125 0.2734376
vt 0.4765625 0.359375
vt 0.4921875 0.3515625
vt 0.4765625 0.3671875
vt 0.453125 0.3671876
vt 0.5 0.34375
vt 0.5078124 0.3437501
vt 0.5078124 0.2734375
vt 0.5 0.3515625
vt 0.4921875 0.359375
vt 0.6406248 0.3437501
vt 0.6484373 0.2734376
vt 0.6484373 0.3437501
vt 0.6406248 0.2734376
vt 0.6171873 0.3437501
vt 0.6406248 0.2734376
vt 0.6406248 0.3437501
vt 0.6171873 0.2734376
vt 0.6874999 0.3437501
vt 0.7812498 0.2734376
vt 0.7812498 0.3437501
vt 0.6874999 0.2734376
vt 0.7031249 0.3437501
vt 0.7734373 0.2734376
vt 0.7734373 0.3437501
vt 0.7031249 0.2734376
vt 0.6874998 0.3437501
vt 0.6953123 0.2734376
vt 0.6953123 0.3437501
vt 0.6874998 0.2734376
vt 0.6796873 0.3437501
vt 0.6874998 0.2734376
vt 0.6874998 0.3437501
vt 0.6796873 0.2734376
vt 0.6718748 0.3437501
vt 0.6796873 0.2734376
vt 0.6796873 0.3437501
vt 0.6718748 0.2734376
vt 0.6484373 0.3437501
vt 0.6640623 0.2734376
vt 0.6640623 0.3437501
vt 0.6484373 0.2734376
vt 0.6640623 0.3437501
vt 0.6718748 0.2734376
vt 0.6718748 0.3437501
vt 0.6640623 0.2734376
vt 0.453125 0.2734376
vt 0.4765625 0.3671875
vt 0.453125 0.3671876
vt 0.4765625 0.359375
vt 0.4921875 0.3515625
vt 0.5 0.34375
vt 0.5078124 0.3437501
vt 0.5078124 0.2734375
vt 0.5 0.3515625
vt 0.4921875 0.359375
vt 0.2812501 0.5390626
vt 0.3437504 0.65625
vt 0.2812501 0.65625
vt 0.3437503 0.5390625
vt 0.3828126 0.5390625
vt 0.4687501 0.65625
vt 0.4687501 0.5390625
vt 0.3828126 0.65625
vt 0.4765626 0.5390625
vt 0.5625002 0.6562499
vt 0.4765626 0.65625
vt 0.5625001 0.5390625
vt 0.2812501 0.5390626
vt 0.3437504 0.65625
vt 0.3437503 0.5390625
vt 0.2812501 0.65625
vt 0.06250022 0.08593738
vt 0 0
vt 0 0.08593738
vt 0.06250022 -4.440892E-16
vt 0.1562502 0.08593738
vt 0.09375 0
vt 0.1562502 -4.768368E-09
vt 0.09375 0.08593738
vt 0.453125 0.2734376
vt 0.4765625 0.3671875
vt 0.453125 0.3671876
vt 0.4765625 0.359375
vt 0.4921875 0.3515625
vt 0.5 0.34375
vt 0.5078124 0.3437501
vt 0.5078124 0.2734375
vt 0.5 0.3515625
vt 0.4921875 0.359375
vt 0.6406248 0.3437501
vt 0.6484373 0.2734376
vt 0.6406248 0.2734376
vt 0.6484373 0.3437501
vt 0.6171873 0.3437501
vt 0.6406248 0.2734376
vt 0.6171873 0.2734376
vt 0.6406248 0.3437501
vt 0.6874999 0.3437501
vt 0.7812498 0.2734376
vt 0.6874999 0.2734376
vt 0.7812498 0.3437501
vt 0.7031249 0.3437501
vt 0.7734373 0.2734376
vt 0.7031249 0.2734376
vt 0.7734373 0.3437501
vt 0.6874998 0.3437501
vt 0.6953123 0.2734376
vt 0.6874998 0.2734376
vt 0.6953123 0.3437501
vt 0.6796873 0.3437501
vt 0.6874998 0.2734376
vt 0.6796873 0.2734376
vt 0.6874998 0.3437501
vt 0.6718748 0.3437501
vt 0.6796873 0.2734376
vt 0.6718748 0.2734376
vt 0.6796873 0.3437501
vt 0.6484373 0.3437501
vt 0.6640623 0.2734376
vt 0.6484373 0.2734376
vt 0.6640623 0.3437501
vt 0.6640623 0.3437501
vt 0.6718748 0.2734376
vt 0.6640623 0.2734376
vt 0.6718748 0.3437501
vt 0.453125 0.2734376
vt 0.4765625 0.359375
vt 0.4921875 0.3515625
vt 0.4765625 0.3671875
vt 0.453125 0.3671876
vt 0.5 0.34375
vt 0.5078124 0.3437501
vt 0.5078124 0.2734375
vt 0.5 0.3515625
vt 0.4921875 0.359375
vt 0.2421872 0.07812487
vt 0.1875 0.007812416
vt 0.2421872 0.007812412
vt 0.1875 0.07812486
vt 0.2421872 0.07812481
vt 0.1875 0.007812377
vt 0.1875 0.07812482
vt 0.2421873 0.007812375
vn 2.708425E-06 -1 3.865573E-07
vn 2.708425E-06 -1 3.865573E-07
vn 2.708425E-06 -1 3.865573E-07
vn 2.555838E-06 -1 4.679375E-07
vn 1 2.885299E-06 4.882799E-07
vn 1 2.885299E-06 4.882799E-07
vn 1 2.885299E-06 4.8828E-07
vn 1 2.885299E-06 4.882801E-07
vn -1 -2.885299E-06 -4.8828E-07
vn -1 -2.885299E-06 -4.8828E-07
vn -1 -2.885299E-06 -4.8828E-07
vn -1 -2.885299E-06 -4.882804E-07
vn -2.822866E-06 1 -2.848321E-07
vn -2.822866E-06 1 -2.848321E-07
vn -2.822866E-06 1 -2.848321E-07
vn -2.517691E-06 1 -4.475924E-07
vn 3.05175E-07 -1.109722E-07 -1
vn 3.05175E-07 -1.109722E-07 -1
vn 3.05175E-07 -1.109722E-07 -1
vn 4.577626E-07 -2.219448E-07 -1
vn -6.1035E-07 2.219444E-07 1
vn -6.1035E-07 2.219444E-07 1
vn -6.1035E-07 2.219444E-07 1
vn -3.051747E-07 0 1
vn 2.148439E-06 -1 3.295932E-07
vn 2.148439E-06 -1 3.295932E-07
vn 2.148439E-06 -1 3.295932E-07
vn 1.678478E-06 -1 4.577637E-07
vn 2.441406E-06 -1 2.670328E-07
vn 3.377283E-06 -1 -2.848263E-07
vn 2.572204E-06 -1 1.525885E-07
vn 2.572204E-06 -1 1.525885E-07
vn 2.89917E-06 -1 -7.629394E-07
vn 2.212524E-06 -1 4.577637E-07
vn 1 2.98394E-06 0
vn 1 2.98394E-06 0
vn 1 2.98394E-06 0
vn 1 2.98394E-06 0
vn 0 5.425346E-07 1
vn 0 5.425346E-07 1
vn 0 5.425346E-07 1
vn 0 5.425346E-07 1
vn -1 -2.98394E-06 -1.627603E-06
vn -1 -2.98394E-06 -1.627603E-06
vn -1 -2.983941E-06 -1.627603E-06
vn -1 -2.98394E-06 -1.627603E-06
vn 1 2.712672E-06 2.712669E-07
vn 1 2.712673E-06 2.712669E-07
vn 1 2.712673E-06 2.712669E-07
vn 1 2.98394E-06 5.425347E-07
vn 0 5.425346E-07 1
vn 0 5.425345E-07 1
vn 0 5.425346E-07 1
vn 0 5.425347E-07 1
vn 1 2.983941E-06 0
vn 1 2.983942E-06 0
vn 1 2.983941E-06 0
vn 1 2.983941E-06 0
vn 0 5.425347E-07 1
vn 0 5.425347E-07 1
vn 0 5.425347E-07 1
vn 0 5.425347E-07 1
vn 0 5.425347E-07 1
vn 0 5.425347E-07 1
vn 0 5.425347E-07 1
vn 0 5.425346E-07 1
vn 1 2.983941E-06 0
vn 1 2.983941E-06 0
vn 1 2.983941E-06 0
vn 1 2.983941E-06 0
vn -2.034505E-06 1 -3.560418E-07
vn -2.034505E-06 1 -3.560418E-07
vn -2.034506E-06 1 -3.560418E-07
vn -1.01726E-06 1 -6.103517E-07
vn -1.464845E-06 1 -4.882837E-07
vn -2.441409E-06 1 0
vn -2.790186E-06 1 0
vn -2.790186E-06 1 0
vn -3.051758E-06 1 -6.103515E-07
vn -1.525879E-06 1 -6.103515E-07
vn 2.95638E-06 -1 0
vn 2.95638E-06 -1 0
vn 2.95638E-06 -1 0
vn 2.956379E-06 -1 0
vn -1 -3.107246E-06 -4.882814E-07
vn -1 -3.107246E-06 -4.882814E-07
vn -1 -3.107246E-06 -4.882814E-07
vn -1 -3.107245E-06 -4.882813E-07
vn 1 3.107245E-06 4.882813E-07
vn 1 3.107245E-06 4.882813E-07
vn 1 3.107245E-06 4.882812E-07
vn 1 3.107245E-06 4.882813E-07
vn -3.12804E-06 1 0
vn -3.128041E-06 1 0
vn -3.12804E-06 1 0
vn -3.12804E-06 1 0
vn 4.577613E-07 2.219475E-07 -1
vn 4.577613E-07 2.219475E-07 -1
vn 4.577613E-07 2.219475E-07 -1
vn 4.577614E-07 2.219476E-07 -1
vn -6.103481E-07 -4.438942E-07 1
vn -6.103481E-07 -4.438942E-07 1
vn -6.103481E-07 -4.438942E-07 1
vn -6.103479E-07 -4.438941E-07 1
vn 2.69572E-06 -1 -1.653036E-07
vn 2.69572E-06 -1 -1.653036E-07
vn 2.695719E-06 -1 -1.653036E-07
vn 3.356934E-06 -1 0
vn 3.155518E-06 -1 0
vn 2.309179E-06 -1 -4.781012E-07
vn 3.095362E-06 -1 0
vn 3.095362E-06 -1 0
vn 1.831055E-06 -1 0
vn 3.128052E-06 -1 0
vn -1 -2.034505E-06 0
vn -1 -2.034505E-06 0
vn -1 -2.034505E-06 0
vn -1 -2.034505E-06 0
vn 0 0 1
vn 0 0 1
vn 0 0 1
vn 0 0 1
vn 1 3.255207E-06 -9.155266E-07
vn 1 3.255207E-06 -9.155266E-07
vn 1 3.255207E-06 -9.155267E-07
vn 1 2.034505E-06 0
vn -1 -3.255208E-06 -5.42535E-07
vn -1 -3.255208E-06 -5.42535E-07
vn -1 -3.255208E-06 -5.425351E-07
vn -1 -2.98394E-06 -2.712674E-07
vn 0 0 1
vn 0 0 1
vn 0 0 1
vn -9.765668E-06 -1.085101E-06 1
vn -1 -2.170139E-06 0
vn -1 -2.170139E-06 0
vn -1 -2.170139E-06 0
vn -1 -3.255208E-06 -9.765625E-06
vn 0 0 1
vn 0 0 1
vn 0 0 1
vn 0 0 1
vn 0 0 1
vn 0 0 1
vn 0 0 1
vn 0 0 1
vn -1 -2.170139E-06 0
vn -1 -2.170138E-06 0
vn -1 -2.170138E-06 0
vn -1 -2.170138E-06 0
vn -3.417969E-06 1 1.220739E-07
vn -3.417969E-06 1 1.220739E-07
vn -3.417969E-06 1 1.220739E-07
vn -3.865574E-06 1 0
vn -3.051758E-06 1 2.034533E-07
vn -3.255211E-06 1 2.034531E-07
vn -3.313346E-06 1 1.356318E-07
vn -3.313346E-06 1 1.356318E-07
vn -3.051758E-06 1 0
vn -3.356931E-06 1 0
vn -3.487727E-07 -2.712682E-07 -1
vn -3.487727E-07 -2.712682E-07 -1
vn -3.487727E-07 -2.712682E-07 -1
vn -3.487725E-07 -2.712683E-07 -1
vn 3.487733E-07 0 -1
vn 3.487733E-07 0 -1
vn 3.487733E-07 0 -1
vn 6.975455E-07 2.712694E-07 -1
g MechBearGun_0
f 3/3/3 2/2/2 1/1/1
f 4/4/4 1/1/1 2/2/2
f 7/7/7 6/6/6 5/5/5
f 8/8/8 5/5/5 6/6/6
f 11/11/11 10/10/10 9/9/9
f 12/12/12 9/9/9 10/10/10
f 15/15/15 14/14/14 13/13/13
f 16/16/16 13/13/13 14/14/14
f 19/19/19 18/18/18 17/17/17
f 20/20/20 17/17/17 18/18/18
f 23/23/23 22/22/22 21/21/21
f 24/24/24 21/21/21 22/22/22
f 27/27/27 26/26/26 25/25/25
f 26/26/26 28/28/28 25/25/25
f 28/28/28 29/29/29 25/25/25
f 25/25/25 30/30/30 27/27/27
f 25/25/25 31/31/31 30/30/30
f 25/25/25 32/32/32 31/31/31
f 30/30/30 33/33/33 27/27/27
f 26/26/26 27/27/27 34/34/34
f 37/37/37 36/36/36 35/35/35
f 38/38/38 35/35/35 36/36/36
f 41/41/41 40/40/40 39/39/39
f 42/42/42 39/39/39 40/40/40
f 45/45/45 44/44/44 43/43/43
f 46/46/46 43/43/43 44/44/44
f 49/49/49 48/48/48 47/47/47
f 50/50/50 47/47/47 48/48/48
f 53/53/53 52/52/52 51/51/51
f 54/54/54 51/51/51 52/52/52
f 57/57/57 56/56/56 55/55/55
f 58/58/58 55/55/55 56/56/56
f 61/61/61 60/60/60 59/59/59
f 62/62/62 59/59/59 60/60/60
f 65/65/65 64/64/64 63/63/63
f 66/66/66 63/63/63 64/64/64
f 69/69/69 68/68/68 67/67/67
f 70/70/70 67/67/67 68/68/68
f 73/73/73 72/72/72 71/71/71
f 72/72/72 74/74/74 71/71/71
f 74/74/74 75/75/75 71/71/71
f 76/76/76 71/71/71 75/75/75
f 77/77/77 71/71/71 76/76/76
f 78/78/78 71/71/71 77/77/77
f 79/79/79 76/76/76 75/75/75
f 75/75/75 74/74/74 80/80/80
f 83/83/83 82/82/82 81/81/81
f 84/84/84 81/81/81 82/82/82
f 87/87/87 86/86/86 85/85/85
f 88/88/88 85/85/85 86/86/86
f 91/91/91 90/90/90 89/89/89
f 92/92/92 89/89/89 90/90/90
f 95/95/95 94/94/94 93/93/93
f 96/96/96 93/93/93 94/94/94
f 99/99/99 98/98/98 97/97/97
f 100/100/100 97/97/97 98/98/98
f 103/103/103 102/102/102 101/101/101
f 104/104/104 101/101/101 102/102/102
f 107/107/107 106/106/106 105/105/105
f 106/106/106 108/108/108 105/105/105
f 108/108/108 109/109/109 105/105/105
f 110/110/110 105/105/105 109/109/109
f 111/111/111 105/105/105 110/110/110
f 112/112/112 105/105/105 111/111/111
f 113/113/113 110/110/110 109/109/109
f 109/109/109 108/108/108 114/114/114
f 117/117/117 116/116/116 115/115/115
f 118/118/118 115/115/115 116/116/116
f 121/121/121 120/120/120 119/119/119
f 122/122/122 119/119/119 120/120/120
f 125/125/125 124/124/124 123/123/123
f 126/126/126 123/123/123 124/124/124
f 129/129/129 128/128/128 127/127/127
f 130/130/130 127/127/127 128/128/128
f 133/133/133 132/132/132 131/131/131
f 134/134/134 131/131/131 132/132/132
f 137/137/137 136/136/136 135/135/135
f 138/138/138 135/135/135 136/136/136
f 141/141/141 140/140/140 139/139/139
f 142/142/142 139/139/139 140/140/140
f 145/145/145 144/144/144 143/143/143
f 146/146/146 143/143/143 144/144/144
f 149/149/149 148/148/148 147/147/147
f 150/150/150 147/147/147 148/148/148
f 153/153/153 152/152/152 151/151/151
f 152/152/152 154/154/154 151/151/151
f 154/154/154 155/155/155 151/151/151
f 151/151/151 156/156/156 153/153/153
f 151/151/151 157/157/157 156/156/156
f 151/151/151 158/158/158 157/157/157
f 156/156/156 159/159/159 153/153/153
f 152/152/152 153/153/153 160/160/160
f 163/163/163 162/162/162 161/161/161
f 164/164/164 161/161/161 162/162/162
f 167/167/167 166/166/166 165/165/165
f 168/168/168 165/165/165 166/166/166
