# Mesh "Medium_ Champion_Armor_left" exported with Unity Assets Bundle Extractor; 220 vertices, 408 indices, 32 bytes per vertex
g Medium_ Champion_Armor_left
# SubMesh 0
# Vertices
v 0.302087 0.211266 0.186146
vt 0.906175 0.453281
vn -0.000000 1.000000 -0.000001
v 0.150711 0.211266 0.186146
vt 0.843738 0.453281
vn -0.000000 1.000000 -0.000001
v 0.188555 0.211266 0.072613
vt 0.859347 0.499996
vn -0.000000 1.000000 -0.000001
v 0.302087 0.211266 0.072613
vt 0.906175 0.499996
vn -0.000000 1.000000 -0.000001
v 0.188555 0.211266 -0.078763
vt 0.859347 0.562533
vn 0.000002 1.000000 0.000000
v 0.150711 0.211266 -0.192296
vt 0.843738 0.609248
vn 0.000002 1.000000 0.000000
v 0.302087 0.211266 -0.078763
vt 0.906175 0.562533
vn -0.000000 1.000000 0.000000
v 0.302087 0.211266 -0.192296
vt 0.906175 0.609248
vn -0.000000 1.000000 0.000000
v 0.075022 0.211266 0.186146
vt 0.812519 0.453281
vn -0.000000 1.000000 -0.000001
v -0.076354 0.211266 0.186146
vt 0.750081 0.453281
vn -0.000000 1.000000 -0.000001
v -0.076354 0.211266 0.072613
vt 0.750081 0.499996
vn -0.000000 1.000000 -0.000001
v 0.037178 0.211266 0.072613
vt 0.796910 0.499996
vn -0.000000 1.000000 -0.000001
v 0.037178 0.211266 -0.078763
vt 0.796910 0.562533
vn -0.000000 1.000000 0.000000
v 0.075022 0.211266 -0.192296
vt 0.812519 0.609248
vn -0.000000 1.000000 0.000000
v -0.076354 0.211266 -0.078763
vt 0.750081 0.562533
vn -0.000000 1.000000 0.000000
v -0.076354 0.211266 -0.192296
vt 0.750081 0.609248
vn -0.000000 1.000000 0.000000
v -0.076354 0.211266 -0.192296
vt 0.374992 0.593719
vn -0.000000 -0.000000 -1.000000
v -0.076354 -0.015799 -0.192296
vt 0.374992 0.500016
vn -0.000000 -0.000000 -1.000000
v -0.038510 -0.015799 -0.192296
vt 0.359369 0.500016
vn -0.000000 -0.000000 -1.000000
v 0.075022 0.211266 -0.192296
vt 0.312498 0.593719
vn -0.000000 -0.000000 -1.000000
v 0.150711 0.211266 -0.192296
vt 0.281252 0.593719
vn -0.000000 -0.000001 -1.000000
v 0.150711 0.249110 -0.192296
vt 0.281252 0.609336
vn -0.000000 -0.000001 -1.000000
v 0.075022 0.249110 -0.192296
vt 0.312498 0.609336
vn -0.000000 -0.000001 -1.000000
v 0.264243 -0.015799 -0.192296
vt 0.234381 0.500016
vn -0.000000 0.000001 -1.000000
v -0.038510 -0.053643 -0.192296
vt 0.359369 0.484399
vn -0.000000 0.000001 -1.000000
v 0.264243 -0.053643 -0.192296
vt 0.234381 0.484399
vn -0.000000 0.000001 -1.000000
v 0.302087 0.211266 -0.192296
vt 0.218758 0.593719
vn -0.000000 -0.000000 -1.000000
v 0.302087 -0.015799 -0.192296
vt 0.218758 0.500016
vn -0.000000 -0.000000 -1.000000
v 0.264243 -0.053643 -0.154452
vt 0.234381 0.484399
vn -0.000000 0.000001 -1.000000
v -0.038510 -0.053643 -0.154452
vt 0.359369 0.484399
vn -0.000000 0.000001 -1.000000
v -0.038510 -0.318552 -0.154452
vt 0.359369 0.375079
vn -0.000000 0.000001 -1.000000
v 0.264243 -0.318552 -0.154452
vt 0.234381 0.375079
vn -0.000000 0.000001 -1.000000
v -0.076354 0.211266 -0.078763
vt 0.218758 0.593719
vn -0.000000 0.000000 -1.000000
v -0.114199 0.249110 -0.078763
vt 0.203134 0.609336
vn -0.000000 0.000000 -1.000000
v -0.114199 0.135578 -0.078763
vt 0.203134 0.562485
vn -0.000000 0.000000 -1.000000
v -0.076354 0.135578 -0.078763
vt 0.218758 0.562485
vn -0.000000 0.000000 -1.000000
v 0.037178 0.249110 -0.078763
vt 0.265628 0.609336
vn -0.000000 0.000000 -1.000000
v 0.037178 0.211266 -0.078763
vt 0.265628 0.593719
vn -0.000000 0.000000 -1.000000
v 0.339931 0.249110 -0.078763
vt 0.390616 0.609336
vn -0.000000 0.000000 -1.000000
v 0.302087 0.211266 -0.078763
vt 0.374992 0.593719
vn -0.000000 0.000000 -1.000000
v 0.302087 0.135578 -0.078763
vt 0.374992 0.562485
vn -0.000000 0.000000 -1.000000
v 0.339931 0.135578 -0.078763
vt 0.390616 0.562485
vn -0.000000 0.000000 -1.000000
v 0.188555 0.211266 -0.078763
vt 0.328122 0.593719
vn -0.000000 0.000000 -1.000000
v 0.188555 0.249110 -0.078763
vt 0.328122 0.609336
vn -0.000000 0.000000 -1.000000
v 0.188555 0.249110 0.072613
vt 0.328122 0.609336
vn -0.000000 -0.000000 1.000000
v 0.339931 0.249110 0.072613
vt 0.390616 0.609336
vn -0.000000 -0.000000 1.000000
v 0.302087 0.211266 0.072613
vt 0.374992 0.593719
vn -0.000000 -0.000000 1.000000
v 0.188555 0.211266 0.072613
vt 0.328122 0.593719
vn -0.000000 -0.000000 1.000000
v 0.339931 0.135578 0.072613
vt 0.390616 0.562485
vn -0.000000 -0.000000 1.000000
v 0.302087 0.135578 0.072613
vt 0.374992 0.562485
vn -0.000000 -0.000000 1.000000
v -0.076354 0.135578 -0.040919
vt 0.218758 0.562485
vn -0.000000 0.000000 -1.000000
v -0.114199 0.135578 -0.040919
vt 0.203134 0.562485
vn -0.000000 0.000000 -1.000000
v -0.114199 0.097734 -0.040919
vt 0.203134 0.546868
vn -0.000000 0.000000 -1.000000
v -0.076354 0.097734 -0.040919
vt 0.218758 0.546868
vn -0.000000 0.000000 -1.000000
v 0.339931 0.135578 -0.040919
vt 0.390616 0.562485
vn -0.000000 0.000000 -1.000000
v 0.302087 0.135578 -0.040919
vt 0.374992 0.562485
vn -0.000000 0.000000 -1.000000
v 0.302087 0.097734 -0.040919
vt 0.374992 0.546868
vn -0.000000 0.000000 -1.000000
v 0.339931 0.097734 -0.040919
vt 0.390616 0.546868
vn -0.000000 0.000000 -1.000000
v 0.302087 0.211266 0.186146
vt 0.218758 0.593719
vn -0.000000 0.000000 1.000000
v 0.302087 -0.015799 0.186146
vt 0.218758 0.500016
vn -0.000000 0.000000 1.000000
v 0.264243 -0.015799 0.186146
vt 0.234381 0.500016
vn -0.000000 0.000000 1.000000
v 0.150711 0.211266 0.186146
vt 0.281252 0.593719
vn -0.000000 0.000000 1.000000
v 0.075022 0.211266 0.186146
vt 0.312498 0.593719
vn -0.000000 -0.000001 1.000000
v 0.075022 0.249110 0.186146
vt 0.312498 0.609336
vn -0.000000 -0.000001 1.000000
v 0.150711 0.249110 0.186146
vt 0.281252 0.609336
vn -0.000000 -0.000001 1.000000
v -0.038510 -0.015799 0.186146
vt 0.359369 0.500016
vn -0.000000 -0.000001 1.000000
v 0.264243 -0.053643 0.186146
vt 0.234381 0.484399
vn -0.000000 -0.000001 1.000000
v -0.038510 -0.053643 0.186146
vt 0.359369 0.484399
vn -0.000000 -0.000001 1.000000
v -0.076354 -0.015799 0.186146
vt 0.374992 0.500016
vn -0.000000 0.000000 1.000000
v -0.076354 0.211266 0.186146
vt 0.374992 0.593719
vn -0.000000 0.000000 1.000000
v -0.038510 -0.053643 0.148302
vt 0.359369 0.484399
vn -0.000000 -0.000000 1.000000
v 0.264243 -0.053643 0.148302
vt 0.234381 0.484399
vn -0.000000 -0.000000 1.000000
v 0.264243 -0.318552 0.148302
vt 0.234381 0.375079
vn -0.000000 -0.000000 1.000000
v -0.038510 -0.318552 0.148302
vt 0.359369 0.375079
vn -0.000000 -0.000000 1.000000
v -0.114199 0.249110 0.072613
vt 0.203134 0.609336
vn -0.000000 -0.000000 1.000000
v -0.076354 0.211266 0.072613
vt 0.218758 0.593719
vn -0.000000 -0.000000 1.000000
v -0.076354 0.135578 0.072613
vt 0.218758 0.562485
vn -0.000000 -0.000000 1.000000
v -0.114199 0.135578 0.072613
vt 0.203134 0.562485
vn -0.000000 -0.000000 1.000000
v 0.037178 0.211266 0.072613
vt 0.265628 0.593719
vn -0.000000 -0.000000 1.000000
v 0.037178 0.249110 0.072613
vt 0.265628 0.609336
vn -0.000000 -0.000000 1.000000
v -0.114199 0.135578 0.034769
vt 0.203134 0.562485
vn -0.000000 -0.000000 1.000000
v -0.076354 0.135578 0.034769
vt 0.218758 0.562485
vn -0.000000 -0.000000 1.000000
v -0.076354 0.097734 0.034769
vt 0.218758 0.546868
vn -0.000000 -0.000000 1.000000
v -0.114199 0.097734 0.034769
vt 0.203134 0.546868
vn -0.000000 -0.000000 1.000000
v 0.302087 0.135578 0.034769
vt 0.374992 0.562485
vn -0.000000 -0.000000 1.000000
v 0.339931 0.135578 0.034769
vt 0.390616 0.562485
vn -0.000000 -0.000000 1.000000
v 0.339931 0.097734 0.034769
vt 0.390616 0.546868
vn -0.000000 -0.000000 1.000000
v 0.302087 0.097734 0.034769
vt 0.374992 0.546868
vn -0.000000 -0.000000 1.000000
v -0.038510 -0.053643 -0.154452
vt 0.171894 0.484399
vn -1.000000 0.000000 0.000000
v -0.038510 -0.053643 0.148302
vt 0.046898 0.484399
vn -1.000000 0.000000 0.000000
v -0.038510 -0.318552 0.148302
vt 0.046898 0.375028
vn -1.000000 0.000000 0.000000
v -0.038510 -0.318552 -0.154452
vt 0.171894 0.375028
vn -1.000000 0.000000 0.000000
v -0.038510 -0.015799 -0.192296
vt 0.187518 0.500024
vn -1.000000 0.000000 0.000000
v -0.038510 -0.053643 -0.192296
vt 0.187518 0.484399
vn -1.000000 0.000000 0.000000
v -0.038510 -0.015799 0.186146
vt 0.031274 0.500024
vn -1.000000 0.000000 0.000000
v -0.038510 -0.053643 0.186146
vt 0.031274 0.484399
vn -1.000000 0.000000 0.000000
v -0.114199 0.249110 -0.078763
vt 0.140645 0.609395
vn -1.000000 0.000000 0.000000
v -0.114199 0.249110 0.072613
vt 0.078147 0.609395
vn -1.000000 0.000000 0.000000
v -0.114199 0.135578 0.072613
vt 0.078147 0.562521
vn -1.000000 0.000000 0.000000
v -0.114199 0.135578 -0.078763
vt 0.140645 0.562521
vn -1.000000 0.000000 0.000000
v -0.076354 0.211266 -0.192296
vt 0.187518 0.593712
vn -1.000000 0.000000 0.000000
v -0.076354 0.211266 -0.078763
vt 0.140645 0.593712
vn -1.000000 0.000000 0.000000
v -0.076354 0.135578 -0.078763
vt 0.140645 0.562521
vn -1.000000 0.000000 0.000000
v -0.076354 -0.015799 -0.192296
vt 0.187518 0.500024
vn -1.000000 0.000000 0.000000
v -0.076354 0.135578 -0.040919
vt 0.125020 0.562521
vn -1.000000 0.000000 0.000000
v -0.076354 0.097734 -0.040919
vt 0.125020 0.546897
vn -1.000000 0.000000 0.000000
v -0.076354 0.097734 0.034769
vt 0.093771 0.546897
vn -1.000000 0.000000 0.000000
v -0.076354 -0.015799 0.186146
vt 0.031274 0.500024
vn -1.000000 0.000000 0.000000
v -0.076354 0.135578 0.034769
vt 0.093771 0.562521
vn -1.000000 0.000000 0.000000
v -0.076354 0.135578 0.072613
vt 0.078147 0.562521
vn -1.000000 0.000000 0.000000
v -0.076354 0.211266 0.072613
vt 0.078147 0.593712
vn -1.000000 0.000000 0.000000
v -0.076354 0.211266 0.186146
vt 0.031274 0.593712
vn -1.000000 0.000000 0.000000
v 0.075022 0.249110 -0.192296
vt 0.828166 0.453187
vn -1.000000 0.000000 0.000000
v 0.075022 0.249110 0.186146
vt 0.828166 0.609350
vn -1.000000 0.000000 0.000000
v 0.075022 0.211266 0.186146
vt 0.812550 0.609350
vn -1.000000 0.000000 0.000000
v 0.075022 0.211266 -0.192296
vt 0.812550 0.453187
vn -1.000000 0.000000 0.000000
v 0.188555 0.249110 -0.078763
vt 0.140645 0.609395
vn -1.000000 0.000000 0.000000
v 0.188555 0.249110 0.072613
vt 0.078147 0.609395
vn -1.000000 0.000000 0.000000
v 0.188555 0.211266 0.072613
vt 0.078147 0.593770
vn -1.000000 0.000000 0.000000
v 0.188555 0.211266 -0.078763
vt 0.140645 0.593770
vn -1.000000 0.000000 0.000000
v -0.114199 0.135578 -0.040919
vt 0.125020 0.562521
vn -1.000000 0.000000 0.000000
v -0.114199 0.135578 0.034769
vt 0.093771 0.562521
vn -1.000000 0.000000 0.000000
v -0.114199 0.097734 0.034769
vt 0.093771 0.546897
vn -1.000000 0.000000 0.000000
v -0.114199 0.097734 -0.040919
vt 0.125020 0.546897
vn -1.000000 0.000000 0.000000
v 0.264243 -0.053643 0.148302
vt 0.046898 0.484399
vn 1.000000 0.000000 0.000000
v 0.264243 -0.053643 -0.154452
vt 0.171894 0.484399
vn 1.000000 0.000000 0.000000
v 0.264243 -0.318552 -0.154452
vt 0.171894 0.375028
vn 1.000000 0.000000 0.000000
v 0.264243 -0.318552 0.148302
vt 0.046898 0.375028
vn 1.000000 0.000000 0.000000
v 0.264243 -0.053643 0.186146
vt 0.031274 0.484399
vn 1.000000 0.000000 0.000000
v 0.264243 -0.015799 0.186146
vt 0.031274 0.500024
vn 1.000000 0.000000 0.000000
v 0.264243 -0.053643 -0.192296
vt 0.187518 0.484399
vn 1.000000 0.000000 0.000000
v 0.264243 -0.015799 -0.192296
vt 0.187518 0.500024
vn 1.000000 0.000000 0.000000
v 0.339931 0.249110 0.072613
vt 0.078147 0.609395
vn 1.000000 0.000000 0.000000
v 0.339931 0.249110 -0.078763
vt 0.140645 0.609395
vn 1.000000 0.000000 0.000000
v 0.339931 0.135578 -0.078763
vt 0.140645 0.562521
vn 1.000000 0.000000 0.000000
v 0.339931 0.135578 0.072613
vt 0.078147 0.562521
vn 1.000000 0.000000 0.000000
v 0.302087 0.211266 -0.078763
vt 0.140645 0.593712
vn 1.000000 0.000000 0.000000
v 0.302087 0.211266 -0.192296
vt 0.187518 0.593712
vn 1.000000 0.000000 0.000000
v 0.302087 -0.015799 -0.192296
vt 0.187518 0.500024
vn 1.000000 0.000000 0.000000
v 0.302087 0.135578 -0.078763
vt 0.140645 0.562521
vn 1.000000 0.000000 0.000000
v 0.302087 0.135578 -0.040919
vt 0.125020 0.562521
vn 1.000000 0.000000 0.000000
v 0.302087 0.097734 -0.040919
vt 0.125020 0.546897
vn 1.000000 0.000000 0.000000
v 0.302087 -0.015799 0.186146
vt 0.031274 0.500024
vn 1.000000 0.000000 0.000000
v 0.302087 0.097734 0.034769
vt 0.093771 0.546897
vn 1.000000 0.000000 0.000000
v 0.302087 0.135578 0.034769
vt 0.093771 0.562521
vn 1.000000 0.000000 0.000000
v 0.302087 0.135578 0.072613
vt 0.078147 0.562521
vn 1.000000 0.000000 0.000000
v 0.302087 0.211266 0.186146
vt 0.031274 0.593712
vn 1.000000 0.000000 0.000000
v 0.302087 0.211266 0.072613
vt 0.078147 0.593712
vn 1.000000 0.000000 0.000000
v 0.150711 0.249110 0.186146
vt 0.828166 0.609350
vn 1.000000 0.000000 0.000000
v 0.150711 0.249110 -0.192296
vt 0.828166 0.453187
vn 1.000000 0.000000 0.000000
v 0.150711 0.211266 -0.192296
vt 0.812550 0.453187
vn 1.000000 0.000000 0.000000
v 0.150711 0.211266 0.186146
vt 0.812550 0.609350
vn 1.000000 0.000000 0.000000
v 0.037178 0.249110 0.072613
vt 0.078147 0.609395
vn 1.000000 0.000000 0.000000
v 0.037178 0.249110 -0.078763
vt 0.140645 0.609395
vn 1.000000 0.000000 0.000000
v 0.037178 0.211266 -0.078763
vt 0.140645 0.593770
vn 1.000000 0.000000 0.000000
v 0.037178 0.211266 0.072613
vt 0.078147 0.593770
vn 1.000000 0.000000 0.000000
v 0.339931 0.135578 0.034769
vt 0.093771 0.562521
vn 1.000000 0.000000 0.000000
v 0.339931 0.135578 -0.040919
vt 0.125020 0.562521
vn 1.000000 0.000000 0.000000
v 0.339931 0.097734 -0.040919
vt 0.125020 0.546897
vn 1.000000 0.000000 0.000000
v 0.339931 0.097734 0.034769
vt 0.093771 0.546897
vn 1.000000 0.000000 0.000000
v 0.075022 0.249110 -0.192296
vt 0.812519 0.609248
vn -0.000000 1.000000 0.000000
v 0.150711 0.249110 -0.192296
vt 0.843738 0.609248
vn -0.000000 1.000000 0.000000
v 0.150711 0.249110 0.186146
vt 0.843738 0.453281
vn -0.000000 1.000000 0.000000
v 0.075022 0.249110 0.186146
vt 0.812519 0.453281
vn -0.000000 1.000000 0.000000
v -0.114199 0.249110 -0.078763
vt 0.734472 0.562458
vn -0.000000 1.000000 0.000000
v 0.037178 0.249110 -0.078763
vt 0.796910 0.562458
vn -0.000000 1.000000 0.000000
v 0.037178 0.249110 0.072613
vt 0.796910 0.500071
vn -0.000000 1.000000 0.000000
v -0.114199 0.249110 0.072613
vt 0.734472 0.500071
vn -0.000000 1.000000 0.000000
v 0.188555 0.249110 -0.078763
vt 0.859347 0.562458
vn -0.000000 1.000000 0.000000
v 0.339931 0.249110 -0.078763
vt 0.921785 0.562458
vn -0.000000 1.000000 0.000000
v 0.339931 0.249110 0.072613
vt 0.921785 0.500071
vn -0.000000 1.000000 0.000000
v 0.188555 0.249110 0.072613
vt 0.859347 0.500071
vn -0.000000 1.000000 0.000000
v -0.076354 -0.015799 0.186146
vt 0.586847 0.177683
vn -0.000000 -1.000000 -0.000000
v -0.038510 -0.015799 0.186146
vt 0.602467 0.177683
vn -0.000000 -1.000000 -0.000000
v -0.038510 -0.015799 -0.192296
vt 0.602467 0.021485
vn -0.000000 -1.000000 -0.000000
v -0.076354 -0.015799 -0.192296
vt 0.586847 0.021485
vn -0.000000 -1.000000 -0.000000
v 0.264243 -0.015799 0.186146
vt 0.727425 0.177683
vn -0.000000 -1.000000 -0.000000
v 0.302087 -0.015799 0.186146
vt 0.743045 0.177683
vn -0.000000 -1.000000 -0.000000
v 0.302087 -0.015799 -0.192296
vt 0.743045 0.021485
vn -0.000000 -1.000000 -0.000000
v 0.264243 -0.015799 -0.192296
vt 0.727425 0.021485
vn -0.000000 -1.000000 -0.000000
v -0.038510 -0.318552 0.148302
vt 0.062539 0.312501
vn -0.000000 -1.000000 -0.000001
v 0.264243 -0.318552 0.148302
vt 0.187497 0.312501
vn -0.000000 -1.000000 -0.000001
v 0.264243 -0.318552 -0.154452
vt 0.187497 0.187543
vn -0.000000 -1.000000 -0.000001
v -0.038510 -0.318552 -0.154452
vt 0.062539 0.187543
vn -0.000000 -1.000000 -0.000001
v -0.114199 0.097734 0.034769
vt 0.031299 0.265642
vn -0.000000 -1.000000 0.000000
v -0.076354 0.097734 0.034769
vt 0.046919 0.265642
vn -0.000000 -1.000000 0.000000
v -0.076354 0.097734 -0.040919
vt 0.046919 0.234402
vn -0.000000 -1.000000 0.000000
v -0.114199 0.097734 -0.040919
vt 0.031299 0.234402
vn -0.000000 -1.000000 0.000000
v 0.302087 0.097734 0.034769
vt 0.203117 0.265642
vn -0.000000 -1.000000 0.000000
v 0.339931 0.097734 0.034769
vt 0.218737 0.265642
vn -0.000000 -1.000000 0.000000
v 0.339931 0.097734 -0.040919
vt 0.218737 0.234402
vn -0.000000 -1.000000 0.000000
v 0.302087 0.097734 -0.040919
vt 0.203117 0.234402
vn -0.000000 -1.000000 0.000000
v -0.038510 -0.053643 -0.154452
vt 0.602467 0.037105
vn -0.000000 -1.000000 0.000001
v 0.264243 -0.053643 -0.154452
vt 0.727425 0.037105
vn -0.000000 -1.000000 0.000001
v 0.264243 -0.053643 -0.192296
vt 0.727425 0.021485
vn -0.000000 -1.000000 0.000001
v -0.038510 -0.053643 -0.192296
vt 0.602467 0.021485
vn -0.000000 -1.000000 0.000001
v -0.038510 -0.053643 0.186146
vt 0.602467 0.177683
vn -0.000000 -1.000000 -0.000001
v 0.264243 -0.053643 0.186146
vt 0.727425 0.177683
vn -0.000000 -1.000000 -0.000001
v 0.264243 -0.053643 0.148302
vt 0.727425 0.162063
vn -0.000000 -1.000000 -0.000001
v -0.038510 -0.053643 0.148302
vt 0.602467 0.162063
vn -0.000000 -1.000000 -0.000001
v -0.114199 0.135578 -0.040919
vt 0.031299 0.234402
vn -0.000000 -1.000000 -0.000000
v -0.076354 0.135578 -0.040919
vt 0.046919 0.234402
vn -0.000000 -1.000000 -0.000000
v -0.076354 0.135578 -0.078763
vt 0.046919 0.218782
vn -0.000000 -1.000000 -0.000000
v -0.114199 0.135578 -0.078763
vt 0.031299 0.218782
vn -0.000000 -1.000000 -0.000000
v 0.302087 0.135578 -0.040919
vt 0.203117 0.234402
vn -0.000000 -1.000000 -0.000000
v 0.339931 0.135578 -0.040919
vt 0.218737 0.234402
vn -0.000000 -1.000000 -0.000000
v 0.339931 0.135578 -0.078763
vt 0.218737 0.218782
vn -0.000000 -1.000000 -0.000000
v 0.302087 0.135578 -0.078763
vt 0.203117 0.218782
vn -0.000000 -1.000000 -0.000000
v -0.114199 0.135578 0.072613
vt 0.031299 0.281262
vn -0.000000 -1.000000 -0.000002
v -0.076354 0.135578 0.072613
vt 0.046919 0.281262
vn -0.000000 -1.000000 -0.000002
v -0.076354 0.135578 0.034769
vt 0.046919 0.265642
vn -0.000000 -1.000000 -0.000002
v -0.114199 0.135578 0.034769
vt 0.031299 0.265642
vn -0.000000 -1.000000 -0.000002
v 0.302087 0.135578 0.072613
vt 0.203117 0.281262
vn -0.000000 -1.000000 -0.000002
v 0.339931 0.135578 0.072613
vt 0.218737 0.281262
vn -0.000000 -1.000000 -0.000002
v 0.339931 0.135578 0.034769
vt 0.218737 0.265642
vn -0.000000 -1.000000 -0.000002
v 0.302087 0.135578 0.034769
vt 0.203117 0.265642
vn -0.000000 -1.000000 -0.000002
v 0.264243 -0.015799 0.186146
vt 0.032836 0.499676
vn 1.000000 0.000000 0.000000
v 0.264243 -0.015799 -0.192296
vt 0.185956 0.499676
vn 1.000000 0.000000 0.000000
v 0.264243 -0.053643 -0.154452
vt 0.170644 0.484747
vn 1.000000 0.000000 0.000000
v 0.264243 -0.053643 0.148302
vt 0.048148 0.484747
vn 1.000000 0.000000 0.000000
# Faces (1 to 220)
f -218/-218/-218 -219/-219/-219 -220/-220/-220
f -217/-217/-217 -218/-218/-218 -220/-220/-220
f -218/-218/-218 -216/-216/-216 -219/-219/-219
f -216/-216/-216 -215/-215/-215 -219/-219/-219
f -215/-215/-215 -216/-216/-216 -214/-214/-214
f -213/-213/-213 -215/-215/-215 -214/-214/-214
f -210/-210/-210 -211/-211/-211 -212/-212/-212
f -209/-209/-209 -210/-210/-210 -212/-212/-212
f -208/-208/-208 -209/-209/-209 -212/-212/-212
f -207/-207/-207 -208/-208/-208 -212/-212/-212
f -208/-208/-208 -207/-207/-207 -206/-206/-206
f -207/-207/-207 -205/-205/-205 -206/-206/-206
f -202/-202/-202 -203/-203/-203 -204/-204/-204
f -201/-201/-201 -202/-202/-202 -204/-204/-204
f -201/-201/-201 -200/-200/-200 -202/-202/-202
f -200/-200/-200 -201/-201/-201 -199/-199/-199
f -201/-201/-201 -198/-198/-198 -199/-199/-199
f -200/-200/-200 -197/-197/-197 -202/-202/-202
f -196/-196/-196 -202/-202/-202 -197/-197/-197
f -195/-195/-195 -196/-196/-196 -197/-197/-197
f -197/-197/-197 -200/-200/-200 -194/-194/-194
f -193/-193/-193 -197/-197/-197 -194/-194/-194
f -190/-190/-190 -191/-191/-191 -192/-192/-192
f -189/-189/-189 -190/-190/-190 -192/-192/-192
f -186/-186/-186 -187/-187/-187 -188/-188/-188
f -185/-185/-185 -186/-186/-186 -188/-188/-188
f -188/-188/-188 -187/-187/-187 -184/-184/-184
f -183/-183/-183 -188/-188/-188 -184/-184/-184
f -180/-180/-180 -181/-181/-181 -182/-182/-182
f -179/-179/-179 -180/-180/-180 -182/-182/-182
f -182/-182/-182 -181/-181/-181 -178/-178/-178
f -177/-177/-177 -182/-182/-182 -178/-178/-178
f -174/-174/-174 -175/-175/-175 -176/-176/-176
f -173/-173/-173 -174/-174/-174 -176/-176/-176
f -172/-172/-172 -175/-175/-175 -174/-174/-174
f -171/-171/-171 -172/-172/-172 -174/-174/-174
f -168/-168/-168 -169/-169/-169 -170/-170/-170
f -167/-167/-167 -168/-168/-168 -170/-170/-170
f -164/-164/-164 -165/-165/-165 -166/-166/-166
f -163/-163/-163 -164/-164/-164 -166/-166/-166
f -160/-160/-160 -161/-161/-161 -162/-162/-162
f -159/-159/-159 -160/-160/-160 -162/-162/-162
f -159/-159/-159 -158/-158/-158 -160/-160/-160
f -158/-158/-158 -159/-159/-159 -157/-157/-157
f -159/-159/-159 -156/-156/-156 -157/-157/-157
f -158/-158/-158 -155/-155/-155 -160/-160/-160
f -154/-154/-154 -160/-160/-160 -155/-155/-155
f -153/-153/-153 -154/-154/-154 -155/-155/-155
f -152/-152/-152 -155/-155/-155 -158/-158/-158
f -151/-151/-151 -152/-152/-152 -158/-158/-158
f -148/-148/-148 -149/-149/-149 -150/-150/-150
f -147/-147/-147 -148/-148/-148 -150/-150/-150
f -144/-144/-144 -145/-145/-145 -146/-146/-146
f -143/-143/-143 -144/-144/-144 -146/-146/-146
f -146/-146/-146 -145/-145/-145 -142/-142/-142
f -141/-141/-141 -146/-146/-146 -142/-142/-142
f -138/-138/-138 -139/-139/-139 -140/-140/-140
f -137/-137/-137 -138/-138/-138 -140/-140/-140
f -134/-134/-134 -135/-135/-135 -136/-136/-136
f -133/-133/-133 -134/-134/-134 -136/-136/-136
f -130/-130/-130 -131/-131/-131 -132/-132/-132
f -129/-129/-129 -130/-130/-130 -132/-132/-132
f -132/-132/-132 -131/-131/-131 -128/-128/-128
f -127/-127/-127 -132/-132/-132 -128/-128/-128
f -131/-131/-131 -126/-126/-126 -128/-128/-128
f -126/-126/-126 -131/-131/-131 -125/-125/-125
f -122/-122/-122 -123/-123/-123 -124/-124/-124
f -121/-121/-121 -122/-122/-122 -124/-124/-124
f -118/-118/-118 -119/-119/-119 -120/-120/-120
f -117/-117/-117 -118/-118/-118 -120/-120/-120
f -116/-116/-116 -118/-118/-118 -117/-117/-117
f -115/-115/-115 -116/-116/-116 -117/-117/-117
f -115/-115/-115 -117/-117/-117 -114/-114/-114
f -117/-117/-117 -113/-113/-113 -114/-114/-114
f -114/-114/-114 -113/-113/-113 -112/-112/-112
f -113/-113/-113 -111/-111/-111 -112/-112/-112
f -111/-111/-111 -113/-113/-113 -110/-110/-110
f -113/-113/-113 -109/-109/-109 -110/-110/-110
f -106/-106/-106 -107/-107/-107 -108/-108/-108
f -105/-105/-105 -106/-106/-106 -108/-108/-108
f -102/-102/-102 -103/-103/-103 -104/-104/-104
f -101/-101/-101 -102/-102/-102 -104/-104/-104
f -98/-98/-98 -99/-99/-99 -100/-100/-100
f -97/-97/-97 -98/-98/-98 -100/-100/-100
f -94/-94/-94 -95/-95/-95 -96/-96/-96
f -93/-93/-93 -94/-94/-94 -96/-96/-96
f -96/-96/-96 -91/-91/-91 -92/-92/-92
f -89/-89/-89 -95/-95/-95 -90/-90/-90
f -86/-86/-86 -87/-87/-87 -88/-88/-88
f -85/-85/-85 -86/-86/-86 -88/-88/-88
f -82/-82/-82 -83/-83/-83 -84/-84/-84
f -81/-81/-81 -82/-82/-82 -84/-84/-84
f -81/-81/-81 -80/-80/-80 -82/-82/-82
f -80/-80/-80 -79/-79/-79 -82/-82/-82
f -82/-82/-82 -79/-79/-79 -78/-78/-78
f -79/-79/-79 -77/-77/-77 -78/-78/-78
f -77/-77/-77 -76/-76/-76 -78/-78/-78
f -76/-76/-76 -75/-75/-75 -78/-78/-78
f -78/-78/-78 -75/-75/-75 -74/-74/-74
f -75/-75/-75 -73/-73/-73 -74/-74/-74
f -70/-70/-70 -71/-71/-71 -72/-72/-72
f -69/-69/-69 -70/-70/-70 -72/-72/-72
f -66/-66/-66 -67/-67/-67 -68/-68/-68
f -65/-65/-65 -66/-66/-66 -68/-68/-68
f -62/-62/-62 -63/-63/-63 -64/-64/-64
f -61/-61/-61 -62/-62/-62 -64/-64/-64
f -58/-58/-58 -59/-59/-59 -60/-60/-60
f -57/-57/-57 -58/-58/-58 -60/-60/-60
f -54/-54/-54 -55/-55/-55 -56/-56/-56
f -53/-53/-53 -54/-54/-54 -56/-56/-56
f -50/-50/-50 -51/-51/-51 -52/-52/-52
f -49/-49/-49 -50/-50/-50 -52/-52/-52
f -46/-46/-46 -47/-47/-47 -48/-48/-48
f -45/-45/-45 -46/-46/-46 -48/-48/-48
f -42/-42/-42 -43/-43/-43 -44/-44/-44
f -41/-41/-41 -42/-42/-42 -44/-44/-44
f -38/-38/-38 -39/-39/-39 -40/-40/-40
f -37/-37/-37 -38/-38/-38 -40/-40/-40
f -34/-34/-34 -35/-35/-35 -36/-36/-36
f -33/-33/-33 -34/-34/-34 -36/-36/-36
f -30/-30/-30 -31/-31/-31 -32/-32/-32
f -29/-29/-29 -30/-30/-30 -32/-32/-32
f -26/-26/-26 -27/-27/-27 -28/-28/-28
f -25/-25/-25 -26/-26/-26 -28/-28/-28
f -22/-22/-22 -23/-23/-23 -24/-24/-24
f -21/-21/-21 -22/-22/-22 -24/-24/-24
f -18/-18/-18 -19/-19/-19 -20/-20/-20
f -17/-17/-17 -18/-18/-18 -20/-20/-20
f -14/-14/-14 -15/-15/-15 -16/-16/-16
f -13/-13/-13 -14/-14/-14 -16/-16/-16
f -10/-10/-10 -11/-11/-11 -12/-12/-12
f -9/-9/-9 -10/-10/-10 -12/-12/-12
f -6/-6/-6 -7/-7/-7 -8/-8/-8
f -5/-5/-5 -6/-6/-6 -8/-8/-8
f -2/-2/-2 -3/-3/-3 -4/-4/-4
f -1/-1/-1 -2/-2/-2 -4/-4/-4

