g Mesh (20)
v 0.5 -0.4955502 -1
v 0.5 -0.4955502 2.384186E-07
v 0.5 0.5044498 2.384186E-07
v 0.5 0.5044498 -1
v -0.5 -0.4955502 -1
v 0.5 -0.4955502 -1
v 0.5 0.5044498 -1
v -0.5 0.5044498 -1
v -0.5 0.5044498 -1
v 0.5 0.5044498 -1
v 0.5 0.5044498 2.384186E-07
v -0.5 0.5044498 2.384186E-07
v -0.5 0.5044498 2.384186E-07
v 0.5 0.5044498 2.384186E-07
v 0.5 -0.4955502 2.384186E-07
v -0.5 -0.4955502 2.384186E-07
v -0.5 -0.4955502 2.384186E-07
v 0.5 -0.4955502 2.384186E-07
v 0.5 -0.4955502 -1
v -0.5 -0.4955502 -1
v -0.5 -0.4955502 -1
v -0.5 0.5044498 -1
v -0.5 0.5044498 2.384186E-07
v -0.5 -0.4955502 2.384186E-07
v -0.08313093 0.4457781 -0.1999183
v 0.0849864 0.4457781 -0.1999183
v 0.0849864 0.445778 -0.8314488
v -0.08313093 0.445778 -0.8314488
v -0.08313093 0.9320813 -0.1999184
v -0.08313093 0.9320813 -0.831449
v 0.0849864 0.9320813 -0.831449
v 0.0849864 0.9320813 -0.1999184
v -0.08313093 0.4457781 -0.1999183
v -0.08313093 0.9320813 -0.1999184
v 0.0849864 0.9320813 -0.1999184
v 0.0849864 0.4457781 -0.1999183
v 0.0849864 0.4457781 -0.1999183
v 0.0849864 0.9320813 -0.1999184
v 0.0849864 0.9320813 -0.831449
v 0.0849864 0.445778 -0.8314488
v 0.0849864 0.445778 -0.8314488
v 0.0849864 0.9320813 -0.831449
v -0.08313093 0.9320813 -0.831449
v -0.08313093 0.445778 -0.8314488
v -0.08313093 0.445778 -0.8314488
v -0.08313093 0.9320813 -0.831449
v -0.08313093 0.9320813 -0.1999184
v -0.08313093 0.4457781 -0.1999183
vt 16.31698 -1.690911
vt 12.208 -0.6589142
vt 13.24 3.45006
vt 17.34897 2.418063
vt 2.479468 -1.690157
vt -1.757122 -1.690911
vt -1.757891 2.418063
vt 2.478699 2.418817
vt -1.478699 17.34913
vt 2.757891 17.34897
vt 2.757923 13.24
vt -1.478667 13.24015
vt -1.478667 3.450814
vt 2.757923 3.45006
vt 2.757154 -0.6589142
vt -1.479436 -0.6581602
vt 2.479436 12.20816
vt -1.757154 12.208
vt -1.757122 16.31698
vt 2.479468 16.31713
vt -15.31713 -1.690157
vt -16.34913 2.418817
vt -12.24015 3.450814
vt -11.20816 -0.6581602
vt 0.7126151 14.001
vt 0.0003709197 14.00097
vt 0.0003910065 16.59592
vt 0.7126353 16.59594
vt 0.2877591 14.50286
vt 0.287739 17.09781
vt 0.9999832 17.09778
vt 1.000003 14.50284
vt 0.2873848 3.003104
vt 0.2877591 5.001311
vt 1.000003 5.001184
vt 0.9996291 3.002977
vt 14.00097 3.002977
vt 14.50284 5.001184
vt 17.09778 4.349447
vt 16.59592 2.351239
vt 0.0003910065 2.351239
vt 1.680851E-05 4.349447
vt 0.712261 4.349574
vt 0.7126353 2.351366
vt -15.59594 2.351366
vt -16.09781 4.349574
vt -13.50286 5.001311
vt -13.001 3.003104
vn 1 0 0
vn 1 0 0
vn 1 0 0
vn 1 0 0
vn 0 0 -1
vn 0 0 -1
vn 0 0 -1
vn 0 0 -1
vn 0 1 0
vn 0 1 0
vn 0 1 0
vn 0 1 0
vn 0 0 1
vn 0 0 1
vn 0 0 1
vn 0 0 1
vn 0 -1 0
vn 0 -1 0
vn 0 -1 0
vn 0 -1 0
vn -1 0 0
vn -1 0 0
vn -1 0 0
vn -1 0 0
vn 0 -1 2.41616E-07
vn 0 -1 2.41616E-07
vn 0 -1 2.41616E-07
vn 0 -1 2.41616E-07
vn 0 1 0
vn 0 1 0
vn 0 1 0
vn 0 1 0
vn 0 1.96107E-07 1
vn 0 1.96107E-07 1
vn 0 1.96107E-07 1
vn 0 1.96107E-07 1
vn 1 0 0
vn 1 0 0
vn 1 0 0
vn 1 0 0
vn 0 -3.13771E-07 -1
vn 0 -3.13771E-07 -1
vn 0 -3.13771E-07 -1
vn 0 -3.13771E-07 -1
vn -1 0 0
vn -1 0 0
vn -1 0 0
vn -1 0 0
g Mesh (20)_0
f 3/3/3 2/2/2 1/1/1
f 4/4/4 3/3/3 1/1/1
f 7/7/7 6/6/6 5/5/5
f 8/8/8 7/7/7 5/5/5
f 11/11/11 10/10/10 9/9/9
f 12/12/12 11/11/11 9/9/9
f 15/15/15 14/14/14 13/13/13
f 16/16/16 15/15/15 13/13/13
f 19/19/19 18/18/18 17/17/17
f 20/20/20 19/19/19 17/17/17
f 23/23/23 22/22/22 21/21/21
f 24/24/24 23/23/23 21/21/21
f 27/27/27 26/26/26 25/25/25
f 28/28/28 27/27/27 25/25/25
f 31/31/31 30/30/30 29/29/29
f 32/32/32 31/31/31 29/29/29
f 35/35/35 34/34/34 33/33/33
f 36/36/36 35/35/35 33/33/33
f 39/39/39 38/38/38 37/37/37
f 40/40/40 39/39/39 37/37/37
f 43/43/43 42/42/42 41/41/41
f 44/44/44 43/43/43 41/41/41
f 47/47/47 46/46/46 45/45/45
f 48/48/48 47/47/47 45/45/45
