g Mesh (30)
v 0.18468 -0.6709102 0.418746
v 0.18468 -0.004952089 0.009072275
v -0.18468 -0.004952089 0.009072275
v -0.18468 -0.6709102 0.418746
v 0.18468 -0.4712812 0.7509843
v 0.18468 -0.6709102 0.418746
v -0.18468 -0.6709102 0.418746
v -0.18468 -0.4712812 0.7509843
v -0.18468 -0.4712812 0.7509843
v -0.18468 -0.6709102 0.418746
v -0.18468 -0.004952089 0.009072275
v -0.18468 0.1946767 0.3413104
v -0.18468 0.1946767 0.3413104
v -0.18468 -0.004952089 0.009072275
v 0.18468 -0.004952089 0.009072275
v 0.18468 0.1946767 0.3413104
v 0.18468 0.1946767 0.3413104
v 0.18468 -0.004952089 0.009072275
v 0.18468 -0.6709102 0.418746
v 0.18468 -0.4712812 0.7509843
v 0.18468 -0.4712812 0.7509843
v -0.18468 -0.4712812 0.7509843
v -0.18468 0.1946767 0.3413104
v 0.18468 0.1946767 0.3413104
vt -5.471091 -11.53829
vt -5.47169 -8.376416
vt -3.906863 -8.376138
vt -3.906264 -11.53801
vt -5.471117 0.3865938
vt -5.471091 1.959058
vt -3.906264 1.959116
vt -3.90629 0.3866518
vt 0.6133482 -11.06488
vt -0.959116 -11.53801
vt -1.946617 -8.376138
vt -0.3741531 -7.903
vt 4.906889 1.374153
vt 4.906863 2.946617
vt 6.47169 2.946559
vt 6.471716 1.374095
vt 1.374095 -7.903278
vt 2.946559 -8.376416
vt 1.959058 -11.53829
vt 0.3865938 -11.06516
vt 6.471117 -11.06516
vt 4.90629 -11.06488
vt 4.906889 -7.903
vt 6.471716 -7.903278
vn 0 -0.5239614 -0.851742
vn 0 -0.5239614 -0.851742
vn 0 -0.5239614 -0.851742
vn 0 -0.5239614 -0.851742
vn 0 -0.8571672 0.5150383
vn 0 -0.8571672 0.5150383
vn 0 -0.8571672 0.5150383
vn 0 -0.8571672 0.5150383
vn -1 0 0
vn -1 0 0
vn -1 0 0
vn -1 0 0
vn 0 0.8571673 -0.5150381
vn 0 0.8571673 -0.5150381
vn 0 0.8571673 -0.5150381
vn 0 0.8571673 -0.5150381
vn 1 0 0
vn 1 0 0
vn 1 0 0
vn 1 0 0
vn 0 0.5239615 0.8517419
vn 0 0.5239615 0.8517419
vn 0 0.5239615 0.8517419
vn 0 0.5239615 0.8517419
g Mesh (30)_0
f 3/3/3 2/2/2 1/1/1
f 4/4/4 3/3/3 1/1/1
f 7/7/7 6/6/6 5/5/5
f 8/8/8 7/7/7 5/5/5
f 11/11/11 10/10/10 9/9/9
f 12/12/12 11/11/11 9/9/9
f 15/15/15 14/14/14 13/13/13
f 16/16/16 15/15/15 13/13/13
f 19/19/19 18/18/18 17/17/17
f 20/20/20 19/19/19 17/17/17
f 23/23/23 22/22/22 21/21/21
f 24/24/24 23/23/23 21/21/21
