# Mesh "Mesh (29)" exported with Unity Assets Bundle Extractor; 24 vertices, 36 indices, 256 bits per vertex
g Mesh (29)
# SubMesh 0
# Vertices
v 0.184680 -0.671945 0.419343
vt 4.527263 -11.541385
vn -0.000000 -0.523925 -0.851764
v 0.184680 -0.004952 0.009072
vt 4.526662 -8.374636
vn -0.000000 -0.523925 -0.851764
v -0.184680 -0.004952 0.009072
vt 6.091489 -8.374357
vn -0.000000 -0.523925 -0.851764
v -0.184680 -0.671945 0.419343
vt 6.092090 -11.541106
vn -0.000000 -0.523925 -0.851764
v 0.184680 -0.472316 0.751582
vt 4.527236 0.385589
vn -0.000000 -0.857167 0.515038
v 0.184680 -0.671945 0.419343
vt 4.527263 1.958053
vn -0.000000 -0.857167 0.515038
v -0.184680 -0.671945 0.419343
vt 6.092090 1.958111
vn -0.000000 -0.857167 0.515038
v -0.184680 -0.472316 0.751582
vt 6.092063 0.385647
vn -0.000000 -0.857167 0.515038
v -0.184680 -0.472316 0.751582
vt 0.614353 -11.067967
vn -1.000000 0.000000 0.000000
v -0.184680 -0.671945 0.419343
vt -0.958111 -11.541106
vn -1.000000 0.000000 0.000000
v -0.184680 -0.004952 0.009072
vt -1.946985 -8.374357
vn -1.000000 0.000000 0.000000
v -0.184680 0.194677 0.341310
vt -0.374521 -7.901219
vn -1.000000 0.000000 0.000000
v -0.184680 0.194677 0.341310
vt -5.091463 1.374521
vn -0.000000 0.857167 -0.515038
v -0.184680 -0.004952 0.009072
vt -5.091489 2.946985
vn -0.000000 0.857167 -0.515038
v 0.184680 -0.004952 0.009072
vt -3.526662 2.946927
vn -0.000000 0.857167 -0.515038
v 0.184680 0.194677 0.341310
vt -3.526636 1.374464
vn -0.000000 0.857167 -0.515038
v 0.184680 0.194677 0.341310
vt 1.374464 -7.901498
vn 1.000000 0.000000 0.000000
v 0.184680 -0.004952 0.009072
vt 2.946927 -8.374636
vn 1.000000 0.000000 0.000000
v 0.184680 -0.671945 0.419343
vt 1.958053 -11.541385
vn 1.000000 0.000000 0.000000
v 0.184680 -0.472316 0.751582
vt 0.385589 -11.068246
vn 1.000000 0.000000 0.000000
v 0.184680 -0.472316 0.751582
vt -3.527236 -11.068246
vn -0.000000 0.523925 0.851764
v -0.184680 -0.472316 0.751582
vt -5.092063 -11.067967
vn -0.000000 0.523925 0.851764
v -0.184680 0.194677 0.341310
vt -5.091463 -7.901219
vn -0.000000 0.523925 0.851764
v 0.184680 0.194677 0.341310
vt -3.526636 -7.901498
vn -0.000000 0.523925 0.851764
# Faces (1 to 24)
g Mesh (29)_0
f -22/-22/-22 -23/-23/-23 -24/-24/-24
f -21/-21/-21 -22/-22/-22 -24/-24/-24
f -18/-18/-18 -19/-19/-19 -20/-20/-20
f -17/-17/-17 -18/-18/-18 -20/-20/-20
f -14/-14/-14 -15/-15/-15 -16/-16/-16
f -13/-13/-13 -14/-14/-14 -16/-16/-16
f -10/-10/-10 -11/-11/-11 -12/-12/-12
f -9/-9/-9 -10/-10/-10 -12/-12/-12
f -6/-6/-6 -7/-7/-7 -8/-8/-8
f -5/-5/-5 -6/-6/-6 -8/-8/-8
f -2/-2/-2 -3/-3/-3 -4/-4/-4
f -1/-1/-1 -2/-2/-2 -4/-4/-4

