g Mesh (27)
v 0.18468 0.4583054 -1.323991
v 0.18468 0.3275104 0.03436624
v -0.18468 0.3275104 0.03436624
v -0.18468 0.4583054 -1.323991
v 0.18468 0.0724896 -1.361141
v 0.18468 0.4583054 -1.323991
v -0.18468 0.4583054 -1.323991
v -0.18468 0.0724896 -1.361141
v -0.18468 0.0724896 -1.361141
v -0.18468 0.4583054 -1.323991
v -0.18468 0.3275104 0.03436624
v -0.18468 -0.05830516 -0.00278367
v -0.18468 -0.05830516 -0.00278367
v -0.18468 0.3275104 0.03436624
v 0.18468 0.3275104 0.03436624
v 0.18468 -0.05830516 -0.00278367
v 0.18468 -0.05830516 -0.00278367
v 0.18468 0.3275104 0.03436624
v 0.18468 0.4583054 -1.323991
v 0.18468 0.0724896 -1.361141
v 0.18468 0.0724896 -1.361141
v -0.18468 0.0724896 -1.361141
v -0.18468 -0.05830516 -0.00278367
v 0.18468 -0.05830516 -0.00278367
vt 6.471955 3.327976
vt 6.472425 -1.211125
vt 4.907598 -1.211068
vt 4.907128 3.328034
vt -5.471688 -8.253308
vt -5.471955 -6.964061
vt -3.907128 -6.963783
vt -3.906861 -8.25303
vt -1.311006 -8.25303
vt -2.328034 -6.963783
vt 2.211068 -3.383088
vt 3.228096 -4.672333
vt 4.907331 -4.672333
vt 4.907598 -3.383088
vt 6.472425 -3.383366
vt 6.472158 -4.672611
vt -2.228154 -4.672611
vt -1.211125 -3.383366
vt 3.327976 -6.964061
vt 2.310948 -8.253308
vt -5.471688 2.310948
vt -3.906861 2.311006
vt -3.907331 -2.228096
vt -5.472158 -2.228154
vn 0 0.9953962 0.09584573
vn 0 0.9953962 0.09584573
vn 0 0.9953962 0.09584573
vn 0 0.9953962 0.09584573
vn 0 0.09584687 -0.9953961
vn 0 0.09584687 -0.9953961
vn 0 0.09584687 -0.9953961
vn 0 0.09584687 -0.9953961
vn -1 0 0
vn -1 0 0
vn -1 0 0
vn -1 0 0
vn 0 -0.09584598 0.9953962
vn 0 -0.09584598 0.9953962
vn 0 -0.09584598 0.9953962
vn 0 -0.09584598 0.9953962
vn 1 0 0
vn 1 0 0
vn 1 0 0
vn 1 0 0
vn 0 -0.9953963 -0.0958456
vn 0 -0.9953963 -0.0958456
vn 0 -0.9953963 -0.0958456
vn 0 -0.9953963 -0.0958456
g Mesh (27)_0
f 3/3/3 2/2/2 1/1/1
f 4/4/4 3/3/3 1/1/1
f 7/7/7 6/6/6 5/5/5
f 8/8/8 7/7/7 5/5/5
f 11/11/11 10/10/10 9/9/9
f 12/12/12 11/11/11 9/9/9
f 15/15/15 14/14/14 13/13/13
f 16/16/16 15/15/15 13/13/13
f 19/19/19 18/18/18 17/17/17
f 20/20/20 19/19/19 17/17/17
f 23/23/23 22/22/22 21/21/21
f 24/24/24 23/23/23 21/21/21
