g North_Pole_boxes_yellow
v 17.125 -10.5 -2.999999
v 17.125 -14.5 -2.999999
v 14.625 -14.5 -2.999999
v 14.625 -10.5 -2.999999
v 17.125 -14.5 -5.062499
v 14.625 -14.5 -5.062499
v 14.625 -14.5 -2.999999
v 17.125 -14.5 -2.999999
v 17.125 -10.5 -5.062499
v 17.125 -14.5 -5.062499
v 17.125 -14.5 -2.999999
v 17.125 -10.5 -2.999999
v 14.625 -10.5 -5.062499
v 17.125 -10.5 -5.062499
v 17.125 -10.5 -2.999999
v 14.625 -10.5 -2.999999
v 14.625 -14.5 -5.062499
v 14.625 -10.5 -5.062499
v 14.625 -10.5 -2.999999
v 14.625 -14.5 -2.999999
vt 0.7421876 0.3144531
vt 0.8671876 0.3144531
vt 0.8671876 0.2363281
vt 0.7421876 0.2363281
vt 0.7363281 0.234375
vt 0.6582031 0.234375
vt 0.6582031 0.2988281
vt 0.7363281 0.2988281
vt 0.6542969 0.234375
vt 0.5292969 0.234375
vt 0.5292969 0.2988281
vt 0.6542969 0.2988281
vt 0.7363281 0.234375
vt 0.6582031 0.234375
vt 0.6582031 0.2988281
vt 0.7363281 0.2988281
vt 0.6542969 0.234375
vt 0.5292969 0.234375
vt 0.5292969 0.2988281
vt 0.6542969 0.2988281
vn 0 0 1
vn 0 0 1
vn 0 0 1
vn 0 0 1
vn 0 -1 0
vn 0 -1 0
vn 0 -1 0
vn 0 -1 0
vn 1 0 0
vn 1 0 0
vn 1 0 0
vn 1 0 0
vn 0 1 0
vn 0 1 0
vn 0 1 0
vn 0 1 0
vn -1 0 0
vn -1 0 0
vn -1 0 0
vn -1 0 0
g North_Pole_boxes_yellow_0
f 3/3/3 2/2/2 1/1/1
f 4/4/4 3/3/3 1/1/1
f 7/7/7 6/6/6 5/5/5
f 8/8/8 7/7/7 5/5/5
f 11/11/11 10/10/10 9/9/9
f 12/12/12 11/11/11 9/9/9
f 15/15/15 14/14/14 13/13/13
f 16/16/16 15/15/15 13/13/13
f 19/19/19 18/18/18 17/17/17
f 20/20/20 19/19/19 17/17/17
