g North_Pole_Mesh_Rock_Detail
v 35.87529 -14.52028 -6.587569
v 33.09449 -14.52028 -6.587569
v 33.09449 -14.52028 -11.7803
v 35.87529 -14.52028 -11.7803
v 33.09449 -14.52028 -6.587569
v 33.09449 -17.08117 -6.587569
v 33.09449 -17.08117 -11.7803
v 33.09449 -14.52028 -11.7803
v 37.14228 -15.07049 -0.6316254
v 33.78349 -15.07049 -0.6316254
v 33.78349 -15.07049 -6.903635
v 37.14228 -15.07049 -6.903635
v 33.78349 -15.07049 -0.6316254
v 33.78349 -17.28851 -0.6316254
v 33.78349 -17.28851 -6.903635
v 33.78349 -15.07049 -6.903635
v 37.50275 -14.91544 3.946097
v 34.72195 -14.91544 3.946097
v 34.72195 -14.91544 -1.24663
v 37.50275 -14.91544 -1.24663
v 34.72195 -14.91544 3.946097
v 34.72195 -16.72794 3.946097
v 34.72195 -16.72794 -1.24663
v 34.72195 -14.91544 -1.24663
v 45.08375 -11.61952 -6.587569
v 38.59319 -11.61952 -6.587569
v 38.59319 -11.61952 -11.7803
v 45.08375 -11.61952 -11.7803
v 38.59319 -11.61952 -6.587569
v 38.59319 -18.6334 -6.587569
v 38.59319 -18.6334 -11.7803
v 38.59319 -11.61952 -11.7803
v 44.40009 -12.25297 -0.6316254
v 39.7247 -12.25297 -0.6316254
v 39.7247 -12.25297 -6.903635
v 44.40009 -12.25297 -6.903635
v 39.7247 -12.25297 -0.6316254
v 39.7247 -16.18838 -0.6316254
v 39.7247 -16.18838 -6.903635
v 39.7247 -12.25297 -6.903635
v 42.92211 -12.87115 3.259127
v 39.05126 -12.87115 3.259127
v 39.05126 -12.87115 -1.9336
v 42.92211 -12.87115 -1.9336
v 39.05126 -12.87115 3.259127
v 39.05126 -15.83168 3.259127
v 39.05126 -15.83168 -1.9336
v 39.05126 -12.87115 -1.9336
v 48.35519 -12.36375 -2.850662
v 46.69025 -12.36375 -2.850662
v 46.69025 -12.36375 -8.043388
v 48.35519 -12.36375 -8.043388
v 46.69025 -12.36375 -2.850662
v 46.69025 -14.92463 -2.850662
v 46.69025 -14.92463 -8.043388
v 46.69025 -12.36375 -8.043388
v 48.62483 -11.53963 3.105281
v 47.05165 -11.53963 3.105281
v 47.05165 -11.53963 -3.166728
v 48.62483 -11.53963 -3.166728
v 47.05165 -11.53963 3.105281
v 47.05165 -13.75766 3.105281
v 47.05165 -13.75766 -3.166728
v 47.05165 -11.53963 -3.166728
v 48.00309 -13.03421 4.294135
v 46.70062 -13.03421 4.294135
v 46.70062 -13.03421 -0.8985925
v 48.00309 -13.03421 -0.8985925
v 46.70062 -13.03421 4.294135
v 46.70062 -14.84671 4.294135
v 46.70062 -14.84671 -0.8985925
v 46.70062 -13.03421 -0.8985925
v 55.39885 -9.476061 -6.587569
v 48.90828 -9.476061 -6.587569
v 48.90828 -9.476061 -11.7803
v 55.39885 -9.476061 -11.7803
v 48.90828 -9.476061 -6.587569
v 48.90828 -16.48994 -6.587569
v 48.90828 -16.48994 -11.7803
v 48.90828 -9.476061 -11.7803
v 54.87843 -10.9936 -0.6316254
v 50.20304 -10.9936 -0.6316254
v 50.20304 -10.9936 -6.903635
v 54.87843 -10.9936 -6.903635
v 50.20304 -10.9936 -0.6316254
v 50.20304 -14.61651 -0.6316254
v 50.20304 -14.61651 -6.903635
v 50.20304 -10.9936 -6.903635
v 53.33855 -11.23758 3.259127
v 49.46771 -11.23758 3.259127
v 49.46771 -11.23758 -1.9336
v 53.33855 -11.23758 -1.9336
v 49.46771 -11.23758 3.259127
v 49.46771 -14.1981 3.259127
v 49.46771 -14.1981 -1.9336
v 49.46771 -11.23758 -1.9336
v 39.83899 -12.57042 -4.796806
v 34.89952 -12.57042 -4.796806
v 34.89952 -12.57042 -9.989532
v 39.83899 -12.57042 -9.989532
v 34.89952 -12.57042 -4.796806
v 34.89952 -15.75631 -4.796806
v 34.89952 -15.75631 -9.989532
v 34.89952 -12.57042 -9.989532
v 39.91428 -13.3965 -0.6316254
v 36.55549 -13.3965 -0.6316254
v 36.55549 -13.3965 -6.903635
v 39.91428 -13.3965 -6.903635
v 36.55549 -13.3965 -0.6316254
v 36.55549 -15.61453 -0.6316254
v 36.55549 -15.61453 -6.903635
v 36.55549 -13.3965 -6.903635
v 39.91428 -13.3965 -0.6316254
v 39.91428 -15.61453 -0.6316254
v 36.55549 -15.61453 -0.6316254
v 36.55549 -13.3965 -0.6316254
v 37.96671 -13.70161 3.259127
v 35.18591 -13.70161 3.259127
v 35.18591 -13.70161 -1.9336
v 37.96671 -13.70161 -1.9336
v 35.18591 -13.70161 3.259127
v 35.18591 -15.51411 3.259127
v 35.18591 -15.51411 -1.9336
v 35.18591 -13.70161 -1.9336
v 40.56026 -12.98932 4.757627
v 39.25778 -12.98932 4.757627
v 39.25778 -12.98932 -0.4351002
v 40.56026 -12.98932 -0.4351002
v 39.25778 -12.98932 4.757627
v 39.25778 -14.80182 4.757627
v 39.25778 -14.80182 -0.4351002
v 39.25778 -12.98932 -0.4351002
v 31.47592 -15.10678 -2.850662
v 29.81099 -15.10678 -2.850662
v 29.81099 -15.10678 -8.712382
v 31.47592 -15.10678 -8.712382
v 29.81099 -15.10678 -2.850662
v 29.81099 -17.66767 -2.850662
v 29.81099 -17.66767 -8.712382
v 29.81099 -15.10678 -8.712382
v 31.74557 -14.28266 4.812498
v 30.17238 -14.28266 4.812498
v 30.17238 -14.28266 -3.166728
v 31.74557 -14.28266 -3.166728
v 30.17238 -14.28266 4.812498
v 30.17238 -16.50069 4.812498
v 30.17238 -16.50069 -3.166728
v 30.17238 -14.28266 -3.166728
v 31.05048 -15.45569 4.294135
v 29.74801 -15.45569 4.294135
v 29.74801 -15.45569 -0.8985925
v 31.05048 -15.45569 -0.8985925
v 29.74801 -15.45569 4.294135
v 29.74801 -17.26819 4.294135
v 29.74801 -17.26819 -0.8985925
v 29.74801 -15.45569 -0.8985925
v 31.74557 -14.28266 4.812498
v 31.74557 -14.28266 -3.166728
v 31.74557 -16.50069 -3.166728
v 31.74557 -16.50069 4.812498
v 31.47592 -15.10678 -2.850662
v 31.47592 -15.10678 -8.712382
v 31.47592 -17.66767 -8.712382
v 31.47592 -17.66767 -2.850662
v 31.05048 -15.45569 4.294135
v 31.05048 -15.45569 -0.8985925
v 31.05048 -17.26819 -0.8985925
v 31.05048 -17.26819 4.294135
v 42.92211 -12.87115 3.259127
v 42.92211 -12.87115 -1.9336
v 42.9221 -15.83168 -1.9336
v 42.92211 -15.83168 3.259127
v 44.40009 -12.25297 -0.6316254
v 44.40009 -12.25297 -6.903635
v 44.40009 -16.18838 -6.903635
v 44.40009 -16.18838 -0.6316254
v 45.08375 -11.61952 -6.587569
v 45.08375 -11.61952 -11.7803
v 45.08374 -18.6334 -11.7803
v 45.08375 -18.6334 -6.587569
v 37.50275 -14.91544 3.946097
v 37.50275 -14.91544 -1.24663
v 37.50275 -16.72794 -1.24663
v 37.50275 -16.72794 3.946097
v 37.96671 -13.70161 3.259127
v 37.96671 -13.70161 -1.9336
v 37.96671 -15.51411 -1.9336
v 37.96671 -15.51411 3.259127
v 40.56026 -12.98932 4.757627
v 40.56026 -12.98932 -0.4351002
v 40.56026 -14.80182 -0.4351001
v 40.56026 -14.80182 4.757627
v 35.87529 -14.52028 -6.587569
v 35.87529 -17.08117 -6.587569
v 33.09449 -17.08117 -6.587569
v 33.09449 -14.52028 -6.587569
v 37.14228 -15.07049 -0.6316254
v 37.14228 -17.28851 -0.6316254
v 33.78349 -17.28851 -0.6316254
v 33.78349 -15.07049 -0.6316254
v 37.50275 -14.91544 3.946097
v 37.50275 -16.72794 3.946097
v 34.72195 -16.72794 3.946097
v 34.72195 -14.91544 3.946097
v 45.08375 -11.61952 -6.587569
v 45.08375 -18.6334 -6.587569
v 38.59319 -18.6334 -6.587569
v 38.59319 -11.61952 -6.587569
v 44.40009 -12.25297 -0.6316254
v 44.40009 -16.18838 -0.6316254
v 39.7247 -16.18838 -0.6316254
v 39.7247 -12.25297 -0.6316254
v 42.92211 -12.87115 3.259127
v 42.92211 -15.83168 3.259127
v 39.05126 -15.83168 3.259127
v 39.05126 -12.87115 3.259127
v 48.35519 -12.36375 -2.850662
v 48.35519 -14.92463 -2.850662
v 46.69025 -14.92463 -2.850662
v 46.69025 -12.36375 -2.850662
v 48.62483 -11.53963 3.105281
v 48.62483 -13.75766 3.105281
v 47.05165 -13.75766 3.105281
v 47.05165 -11.53963 3.105281
v 48.00309 -13.03421 4.294135
v 48.00309 -14.84671 4.294135
v 46.70062 -14.84671 4.294135
v 46.70062 -13.03421 4.294135
v 55.39885 -9.476061 -6.587569
v 55.39885 -16.48994 -6.587569
v 48.90828 -16.48994 -6.587569
v 48.90828 -9.476061 -6.587569
v 54.87843 -10.9936 -0.6316254
v 54.87843 -14.61651 -0.6316254
v 50.20304 -14.61651 -0.6316254
v 50.20304 -10.9936 -0.6316254
v 53.33855 -11.23758 3.259127
v 53.33855 -14.1981 3.259127
v 49.46771 -14.1981 3.259127
v 49.46771 -11.23758 3.259127
v 39.83899 -12.57042 -4.796806
v 39.83899 -15.75631 -4.796806
v 34.89952 -15.75631 -4.796806
v 34.89952 -12.57042 -4.796806
v 37.96671 -13.70161 3.259127
v 37.96671 -15.51411 3.259127
v 35.18591 -15.51411 3.259127
v 35.18591 -13.70161 3.259127
v 40.56026 -12.98932 4.757627
v 40.56026 -14.80182 4.757627
v 39.25778 -14.80182 4.757627
v 39.25778 -12.98932 4.757627
v 31.47592 -15.10678 -2.850662
v 31.47592 -17.66767 -2.850662
v 29.81099 -17.66767 -2.850662
v 29.81099 -15.10678 -2.850662
v 31.74557 -14.28266 4.812498
v 31.74557 -16.50069 4.812498
v 30.17238 -16.50069 4.812498
v 30.17238 -14.28266 4.812498
v 31.05048 -15.45569 4.294135
v 31.05048 -17.26819 4.294135
v 29.74801 -17.26819 4.294135
v 29.74801 -15.45569 4.294135
v 31.05048 -15.45569 -0.8985925
v 29.74801 -15.45569 -0.8985925
v 29.74801 -17.26819 -0.8985925
v 31.05048 -17.26819 -0.8985925
vt 14.36416 13.28744
vt 17.14497 13.28744
vt 17.14497 8.094714
vt 14.36416 8.094714
vt -634.2085 13.28744
vt -631.6476 13.28744
vt -631.6476 8.094714
vt -634.2085 8.094714
vt 13.09718 19.24338
vt 16.45597 19.24338
vt 16.45597 12.97137
vt 13.09718 12.97137
vt -633.6583 19.24338
vt -631.4402 19.24338
vt -631.4402 12.97137
vt -633.6583 12.97137
vt 12.7367 23.82111
vt 15.51751 23.82111
vt 15.51751 18.62838
vt 12.7367 18.62838
vt -633.8133 23.82111
vt -632.0008 23.82111
vt -632.0008 18.62838
vt -633.8133 18.62838
vt 5.155708 13.28744
vt 11.64627 13.28744
vt 11.64627 8.094714
vt 5.155708 8.094714
vt -637.1093 13.28744
vt -630.0953 13.28744
vt -630.0953 8.094714
vt -637.1093 8.094714
vt 5.839363 19.24338
vt 10.51475 19.24338
vt 10.51475 12.97137
vt 5.839363 12.97137
vt -636.4758 19.24338
vt -632.5403 19.24338
vt -632.5403 12.97137
vt -636.4758 12.97137
vt 7.317348 23.13414
vt 11.18819 23.13414
vt 11.18819 17.94141
vt 7.317348 17.94141
vt -635.8576 23.13414
vt -632.8971 23.13414
vt -632.8971 17.94141
vt -635.8576 17.94141
vt 1.884266 17.02435
vt 3.549202 17.02435
vt 3.549202 11.83162
vt 1.884266 11.83162
vt -636.365 17.02435
vt -633.8041 17.02435
vt -633.8041 11.83162
vt -636.365 11.83162
vt 1.614624 22.98029
vt 3.187805 22.98029
vt 3.187805 16.70828
vt 1.614624 16.70828
vt -637.1891 22.98029
vt -634.9711 22.98029
vt -634.9711 16.70828
vt -637.1891 16.70828
vt 2.236362 24.16914
vt 3.538837 24.16914
vt 3.538837 18.97642
vt 2.236362 18.97642
vt -635.6945 24.16914
vt -633.882 24.16914
vt -633.882 18.97642
vt -635.6945 18.97642
vt -5.159393 13.28744
vt 1.331173 13.28744
vt 1.331173 8.094714
vt -5.159393 8.094714
vt -639.2527 13.28744
vt -632.2388 13.28744
vt -632.2388 8.094714
vt -639.2527 8.094714
vt -4.638969 19.24338
vt 0.03641891 19.24338
vt 0.03641891 12.97137
vt -4.638969 12.97137
vt -637.7352 19.24338
vt -634.1122 19.24338
vt -634.1122 12.97137
vt -637.7352 12.97137
vt -3.099098 23.13414
vt 0.7717438 23.13414
vt 0.7717438 17.94141
vt -3.099098 17.94141
vt -637.4911 23.13414
vt -634.5306 23.13414
vt -634.5306 17.94141
vt -637.4911 17.94141
vt 10.40047 15.0782
vt 15.33993 15.0782
vt 15.33993 9.885477
vt 10.40047 9.885477
vt -636.1583 15.0782
vt -632.9724 15.0782
vt -632.9724 9.885477
vt -636.1583 9.885477
vt 10.32518 19.24338
vt 13.68396 19.24338
vt 13.68396 12.97137
vt 10.32518 12.97137
vt -635.3323 19.24338
vt -633.1142 19.24338
vt -633.1142 12.97137
vt -635.3323 12.97137
vt -9.325176 636.3323
vt -9.325176 634.1142
vt -12.68396 634.1142
vt -12.68396 636.3323
vt 12.27274 23.13414
vt 15.05355 23.13414
vt 15.05355 17.94141
vt 12.27274 17.94141
vt -635.0272 23.13414
vt -633.2147 23.13414
vt -633.2147 17.94141
vt -635.0272 17.94141
vt 9.679199 24.63264
vt 10.98167 24.63264
vt 10.98167 19.43991
vt 9.679199 19.43991
vt -635.7394 24.63264
vt -633.9269 24.63264
vt -633.9269 19.43991
vt -635.7394 19.43991
vt 18.76353 17.02435
vt 20.42847 17.02435
vt 20.42847 11.16263
vt 18.76353 11.16263
vt -633.6219 17.02435
vt -631.0611 17.02435
vt -631.0611 11.16263
vt -633.6219 11.16263
vt 18.49389 24.68751
vt 20.06707 24.68751
vt 20.06707 16.70828
vt 18.49389 16.70828
vt -634.4461 24.68751
vt -632.2281 24.68751
vt -632.2281 16.70828
vt -634.4461 16.70828
vt 19.18897 24.16914
vt 20.49145 24.16914
vt 20.49145 18.97642
vt 19.18897 18.97642
vt -633.2731 24.16914
vt -631.4606 24.16914
vt -631.4606 18.97642
vt -633.2731 18.97642
vt -634.4461 24.68751
vt -634.4461 16.70828
vt -632.2281 16.70828
vt -632.2281 24.68751
vt -633.6219 17.02435
vt -633.6219 11.16263
vt -631.0611 11.16263
vt -631.0611 17.02435
vt -633.2731 24.16914
vt -633.2731 18.97642
vt -631.4606 18.97642
vt -631.4606 24.16914
vt -635.8576 23.13414
vt -635.8576 17.94141
vt -632.8971 17.94141
vt -632.8971 23.13414
vt -636.4758 19.24338
vt -636.4758 12.97137
vt -632.5403 12.97137
vt -632.5403 19.24338
vt -637.1093 13.28744
vt -637.1093 8.094714
vt -630.0953 8.094714
vt -630.0953 13.28744
vt -633.8133 23.82111
vt -633.8133 18.62838
vt -632.0008 18.62838
vt -632.0008 23.82111
vt -635.0272 23.13414
vt -635.0272 17.94141
vt -633.2147 17.94141
vt -633.2147 23.13414
vt -635.7394 24.63264
vt -635.7394 19.43991
vt -633.9269 19.43991
vt -633.9269 24.63264
vt -13.36416 635.2085
vt -13.36416 632.6476
vt -16.14497 632.6476
vt -16.14497 635.2085
vt -12.09718 634.6583
vt -12.09718 632.4402
vt -15.45597 632.4402
vt -15.45597 634.6583
vt -11.7367 634.8133
vt -11.7367 633.0008
vt -14.51751 633.0008
vt -14.51751 634.8133
vt -4.155708 638.1093
vt -4.155708 631.0953
vt -10.64627 631.0953
vt -10.64627 638.1093
vt -4.839363 637.4758
vt -4.839363 633.5403
vt -9.514751 633.5403
vt -9.514751 637.4758
vt -6.317348 636.8576
vt -6.317348 633.8971
vt -10.18819 633.8971
vt -10.18819 636.8576
vt -0.8842659 637.365
vt -0.8842659 634.8041
vt -2.549202 634.8041
vt -2.549202 637.365
vt -0.614624 638.1891
vt -0.614624 635.9711
vt -2.187805 635.9711
vt -2.187805 638.1891
vt -1.236362 636.6945
vt -1.236362 634.882
vt -2.538837 634.882
vt -2.538837 636.6945
vt 6.159393 640.2527
vt 6.159393 633.2388
vt -0.3311729 633.2388
vt -0.3311729 640.2527
vt 5.638969 638.7352
vt 5.638969 635.1122
vt 0.9635811 635.1122
vt 0.9635811 638.7352
vt 4.099098 638.4911
vt 4.099098 635.5306
vt 0.2282562 635.5306
vt 0.2282562 638.4911
vt -9.400465 637.1583
vt -9.400465 633.9724
vt -14.33993 633.9724
vt -14.33993 637.1583
vt -11.27274 636.0272
vt -11.27274 634.2147
vt -14.05355 634.2147
vt -14.05355 636.0272
vt -8.679199 636.7394
vt -8.679199 634.9269
vt -9.981674 634.9269
vt -9.981674 636.7394
vt -17.76353 634.6219
vt -17.76353 632.0611
vt -19.42847 632.0611
vt -19.42847 634.6219
vt -17.49389 635.4461
vt -17.49389 633.2281
vt -19.06707 633.2281
vt -19.06707 635.4461
vt -18.18897 634.2731
vt -18.18897 632.4606
vt -19.49145 632.4606
vt -19.49145 634.2731
vt -18.18897 634.2731
vt -19.49145 634.2731
vt -19.49145 632.4606
vt -18.18897 632.4606
vn 0 1 0
vn 0 1 0
vn 0 1 0
vn 0 1 0
vn -1 0 0
vn -1 0 0
vn -1 0 0
vn -1 0 0
vn 0 1 0
vn 0 1 0
vn 0 1 0
vn 0 1 0
vn -1 0 0
vn -1 0 0
vn -1 0 0
vn -1 0 0
vn 0 1 0
vn 0 1 0
vn 0 1 0
vn 0 1 0
vn -1 0 0
vn -1 0 0
vn -1 0 0
vn -1 0 0
vn 0 1 0
vn 0 1 0
vn 0 1 0
vn 0 1 0
vn -1 0 0
vn -1 0 0
vn -1 0 0
vn -1 0 0
vn 0 1 0
vn 0 1 0
vn 0 1 0
vn 0 1 0
vn -1 0 0
vn -1 0 0
vn -1 0 0
vn -1 0 0
vn 0 1 0
vn 0 1 0
vn 0 1 0
vn 0 1 0
vn -1 0 0
vn -1 0 0
vn -1 0 0
vn -1 0 0
vn 0 1 0
vn 0 1 0
vn 0 1 0
vn 0 1 0
vn -1 0 0
vn -1 0 0
vn -1 0 0
vn -1 0 0
vn 0 1 0
vn 0 1 0
vn 0 1 0
vn 0 1 0
vn -1 0 0
vn -1 0 0
vn -1 0 0
vn -1 0 0
vn 0 1 0
vn 0 1 0
vn 0 1 0
vn 0 1 0
vn -1 0 0
vn -1 0 0
vn -1 0 0
vn -1 0 0
vn 0 1 0
vn 0 1 0
vn 0 1 0
vn 0 1 0
vn -1 0 0
vn -1 0 0
vn -1 0 0
vn -1 0 0
vn 0 1 0
vn 0 1 0
vn 0 1 0
vn 0 1 0
vn -1 0 0
vn -1 0 0
vn -1 0 0
vn -1 0 0
vn 0 1 0
vn 0 1 0
vn 0 1 0
vn 0 1 0
vn -1 0 0
vn -1 0 0
vn -1 0 0
vn -1 0 0
vn 0 1 0
vn 0 1 0
vn 0 1 0
vn 0 1 0
vn -1 0 0
vn -1 0 0
vn -1 0 0
vn -1 0 0
vn 0 1 0
vn 0 1 0
vn 0 1 0
vn 0 1 0
vn -1 0 0
vn -1 0 0
vn -1 0 0
vn -1 0 0
vn 0 0 1
vn 0 0 1
vn 0 0 1
vn 0 0 1
vn 0 1 0
vn 0 1 0
vn 0 1 0
vn 0 1 0
vn -1 0 0
vn -1 0 0
vn -1 0 0
vn -1 0 0
vn 0 1 0
vn 0 1 0
vn 0 1 0
vn 0 1 0
vn -1 0 0
vn -1 0 0
vn -1 0 0
vn -1 0 0
vn 0 1 0
vn 0 1 0
vn 0 1 0
vn 0 1 0
vn -1 0 0
vn -1 0 0
vn -1 0 0
vn -1 0 0
vn 0 1 0
vn 0 1 0
vn 0 1 0
vn 0 1 0
vn -1 0 0
vn -1 0 0
vn -1 0 0
vn -1 0 0
vn 0 1 0
vn 0 1 0
vn 0 1 0
vn 0 1 0
vn -1 0 0
vn -1 0 0
vn -1 0 0
vn -1 0 0
vn 1 0 0
vn 1 0 0
vn 1 0 0
vn 1 0 0
vn 1 0 0
vn 1 0 0
vn 1 0 0
vn 1 0 0
vn 1 0 0
vn 1 0 0
vn 1 0 0
vn 1 0 0
vn 1 0 0
vn 1 0 0
vn 1 0 0
vn 1 0 0
vn 1 0 0
vn 1 0 0
vn 1 0 0
vn 1 0 0
vn 1 0 0
vn 1 0 0
vn 1 0 0
vn 1 0 0
vn 1 0 0
vn 1 0 0
vn 1 0 0
vn 1 0 0
vn 1 0 0
vn 1 0 0
vn 1 0 0
vn 1 0 0
vn 1 0 0
vn 1 0 0
vn 1 0 0
vn 1 0 0
vn 0 0 1
vn 0 0 1
vn 0 0 1
vn 0 0 1
vn 0 0 1
vn 0 0 1
vn 0 0 1
vn 0 0 1
vn 0 0 1
vn 0 0 1
vn 0 0 1
vn 0 0 1
vn 0 0 1
vn 0 0 1
vn 0 0 1
vn 0 0 1
vn 0 0 1
vn 0 0 1
vn 0 0 1
vn 0 0 1
vn 0 0 1
vn 0 0 1
vn 0 0 1
vn 0 0 1
vn 0 0 1
vn 0 0 1
vn 0 0 1
vn 0 0 1
vn 0 0 1
vn 0 0 1
vn 0 0 1
vn 0 0 1
vn 0 0 1
vn 0 0 1
vn 0 0 1
vn 0 0 1
vn 0 0 1
vn 0 0 1
vn 0 0 1
vn 0 0 1
vn 0 0 1
vn 0 0 1
vn 0 0 1
vn 0 0 1
vn 0 0 1
vn 0 0 1
vn 0 0 1
vn 0 0 1
vn 0 0 1
vn 0 0 1
vn 0 0 1
vn 0 0 1
vn 0 0 1
vn 0 0 1
vn 0 0 1
vn 0 0 1
vn 0 0 1
vn 0 0 1
vn 0 0 1
vn 0 0 1
vn 0 0 1
vn 0 0 1
vn 0 0 1
vn 0 0 1
vn 0 0 1
vn 0 0 1
vn 0 0 1
vn 0 0 1
vn 0 0 1
vn 0 0 1
vn 0 0 1
vn 0 0 1
vn 0 0 -1
vn 0 0 -1
vn 0 0 -1
vn 0 0 -1
g North_Pole_Mesh_Rock_Detail_0
f 3/3/3 2/2/2 1/1/1
f 4/4/4 3/3/3 1/1/1
f 7/7/7 6/6/6 5/5/5
f 8/8/8 7/7/7 5/5/5
f 11/11/11 10/10/10 9/9/9
f 12/12/12 11/11/11 9/9/9
f 15/15/15 14/14/14 13/13/13
f 16/16/16 15/15/15 13/13/13
f 19/19/19 18/18/18 17/17/17
f 20/20/20 19/19/19 17/17/17
f 23/23/23 22/22/22 21/21/21
f 24/24/24 23/23/23 21/21/21
f 27/27/27 26/26/26 25/25/25
f 28/28/28 27/27/27 25/25/25
f 31/31/31 30/30/30 29/29/29
f 32/32/32 31/31/31 29/29/29
f 35/35/35 34/34/34 33/33/33
f 36/36/36 35/35/35 33/33/33
f 39/39/39 38/38/38 37/37/37
f 40/40/40 39/39/39 37/37/37
f 43/43/43 42/42/42 41/41/41
f 44/44/44 43/43/43 41/41/41
f 47/47/47 46/46/46 45/45/45
f 48/48/48 47/47/47 45/45/45
f 51/51/51 50/50/50 49/49/49
f 52/52/52 51/51/51 49/49/49
f 55/55/55 54/54/54 53/53/53
f 56/56/56 55/55/55 53/53/53
f 59/59/59 58/58/58 57/57/57
f 60/60/60 59/59/59 57/57/57
f 63/63/63 62/62/62 61/61/61
f 64/64/64 63/63/63 61/61/61
f 67/67/67 66/66/66 65/65/65
f 68/68/68 67/67/67 65/65/65
f 71/71/71 70/70/70 69/69/69
f 72/72/72 71/71/71 69/69/69
f 75/75/75 74/74/74 73/73/73
f 76/76/76 75/75/75 73/73/73
f 79/79/79 78/78/78 77/77/77
f 80/80/80 79/79/79 77/77/77
f 83/83/83 82/82/82 81/81/81
f 84/84/84 83/83/83 81/81/81
f 87/87/87 86/86/86 85/85/85
f 88/88/88 87/87/87 85/85/85
f 91/91/91 90/90/90 89/89/89
f 92/92/92 91/91/91 89/89/89
f 95/95/95 94/94/94 93/93/93
f 96/96/96 95/95/95 93/93/93
f 99/99/99 98/98/98 97/97/97
f 100/100/100 99/99/99 97/97/97
f 103/103/103 102/102/102 101/101/101
f 104/104/104 103/103/103 101/101/101
f 107/107/107 106/106/106 105/105/105
f 108/108/108 107/107/107 105/105/105
f 111/111/111 110/110/110 109/109/109
f 112/112/112 111/111/111 109/109/109
f 115/115/115 114/114/114 113/113/113
f 116/116/116 115/115/115 113/113/113
f 119/119/119 118/118/118 117/117/117
f 120/120/120 119/119/119 117/117/117
f 123/123/123 122/122/122 121/121/121
f 124/124/124 123/123/123 121/121/121
f 127/127/127 126/126/126 125/125/125
f 128/128/128 127/127/127 125/125/125
f 131/131/131 130/130/130 129/129/129
f 132/132/132 131/131/131 129/129/129
f 135/135/135 134/134/134 133/133/133
f 136/136/136 135/135/135 133/133/133
f 139/139/139 138/138/138 137/137/137
f 140/140/140 139/139/139 137/137/137
f 143/143/143 142/142/142 141/141/141
f 144/144/144 143/143/143 141/141/141
f 147/147/147 146/146/146 145/145/145
f 148/148/148 147/147/147 145/145/145
f 151/151/151 150/150/150 149/149/149
f 152/152/152 151/151/151 149/149/149
f 155/155/155 154/154/154 153/153/153
f 156/156/156 155/155/155 153/153/153
f 159/159/159 158/158/158 157/157/157
f 160/160/160 159/159/159 157/157/157
f 163/163/163 162/162/162 161/161/161
f 164/164/164 163/163/163 161/161/161
f 167/167/167 166/166/166 165/165/165
f 168/168/168 167/167/167 165/165/165
f 171/171/171 170/170/170 169/169/169
f 172/172/172 171/171/171 169/169/169
f 175/175/175 174/174/174 173/173/173
f 176/176/176 175/175/175 173/173/173
f 179/179/179 178/178/178 177/177/177
f 180/180/180 179/179/179 177/177/177
f 183/183/183 182/182/182 181/181/181
f 184/184/184 183/183/183 181/181/181
f 187/187/187 186/186/186 185/185/185
f 188/188/188 187/187/187 185/185/185
f 191/191/191 190/190/190 189/189/189
f 192/192/192 191/191/191 189/189/189
g North_Pole_Mesh_Rock_Detail_1
f 195/195/195 194/194/194 193/193/193
f 196/196/196 195/195/195 193/193/193
f 199/199/199 198/198/198 197/197/197
f 200/200/200 199/199/199 197/197/197
f 203/203/203 202/202/202 201/201/201
f 204/204/204 203/203/203 201/201/201
f 207/207/207 206/206/206 205/205/205
f 208/208/208 207/207/207 205/205/205
f 211/211/211 210/210/210 209/209/209
f 212/212/212 211/211/211 209/209/209
f 215/215/215 214/214/214 213/213/213
f 216/216/216 215/215/215 213/213/213
f 219/219/219 218/218/218 217/217/217
f 220/220/220 219/219/219 217/217/217
f 223/223/223 222/222/222 221/221/221
f 224/224/224 223/223/223 221/221/221
f 227/227/227 226/226/226 225/225/225
f 228/228/228 227/227/227 225/225/225
f 231/231/231 230/230/230 229/229/229
f 232/232/232 231/231/231 229/229/229
f 235/235/235 234/234/234 233/233/233
f 236/236/236 235/235/235 233/233/233
f 239/239/239 238/238/238 237/237/237
f 240/240/240 239/239/239 237/237/237
f 243/243/243 242/242/242 241/241/241
f 244/244/244 243/243/243 241/241/241
f 247/247/247 246/246/246 245/245/245
f 248/248/248 247/247/247 245/245/245
f 251/251/251 250/250/250 249/249/249
f 252/252/252 251/251/251 249/249/249
f 255/255/255 254/254/254 253/253/253
f 256/256/256 255/255/255 253/253/253
f 259/259/259 258/258/258 257/257/257
f 260/260/260 259/259/259 257/257/257
f 263/263/263 262/262/262 261/261/261
f 264/264/264 263/263/263 261/261/261
f 267/267/267 266/266/266 265/265/265
f 268/268/268 267/267/267 265/265/265
