g North_Pole_windgenerator_head001
v 7.165613 -34.98835 13.18786
v 7.165613 -34.98835 12.50036
v 7.72878 -34.59402 12.50036
v 7.72878 -34.59402 13.18786
v 7.48825 -35.44912 12.50036
v 7.165613 -34.98835 12.50036
v 7.165613 -34.98835 13.18786
v 7.48825 -35.44912 13.18786
v 7.72878 -34.59402 12.50036
v 8.051417 -35.05479 12.50036
v 7.72878 -34.59402 13.18786
v 8.051417 -35.05479 13.18786
v 7.165613 -34.98835 13.18786
v 7.72878 -34.59402 13.18786
v 7.48825 -35.44912 13.18786
v 8.051417 -35.05479 13.18786
v 8.051417 -35.05479 13.18786
v 8.051417 -35.05479 12.50036
v 7.48825 -35.44912 12.50036
v 7.48825 -35.44912 13.18786
v 8.051417 -35.05479 12.50036
v 7.72878 -34.59402 12.50036
v 7.165613 -34.98835 12.50036
v 7.48825 -35.44912 12.50036
v 7.969629 -36.02764 12.56286
v 7.969629 -36.02764 13.12536
v 8.430402 -35.705 12.56286
v 8.430402 -35.705 13.12536
v 7.969629 -36.02764 12.56286
v 7.539447 -35.41327 12.56286
v 7.539447 -35.41327 13.12536
v 7.969629 -36.02764 13.12536
v 8.00022 -35.09064 12.56286
v 8.430402 -35.705 12.56286
v 8.00022 -35.09064 13.12536
v 8.430402 -35.705 13.12536
v 8.00022 -35.09064 12.56286
v 7.539447 -35.41327 12.56286
v 7.969629 -36.02764 12.56286
v 8.430402 -35.705 12.56286
v 7.539447 -35.41327 13.12536
v 8.00022 -35.09064 13.12536
v 7.969629 -36.02764 13.12536
v 8.430402 -35.705 13.12536
v 7.390901 -34.9832 12.50036
v 7.390901 -34.9832 12.43786
v 7.646886 -34.80396 12.43786
v 7.646886 -34.80396 12.50036
v 7.570144 -35.23918 12.43786
v 7.570144 -35.23918 12.50036
v 7.826129 -35.05994 12.43786
v 7.826129 -35.05994 12.50036
v 7.570144 -35.23918 12.43786
v 7.390901 -34.9832 12.43786
v 7.390901 -34.9832 12.50036
v 7.570144 -35.23918 12.50036
v 7.646886 -34.80396 12.43786
v 7.826129 -35.05994 12.43786
v 7.646886 -34.80396 12.50036
v 7.826129 -35.05994 12.50036
v 7.646886 -34.80396 12.43786
v 7.390901 -34.9832 12.43786
v 7.570144 -35.23918 12.43786
v 7.826129 -35.05994 12.43786
v 7.677705 -35.17487 12.49956
v 7.677705 -35.17487 11.49956
v 7.728902 -35.13902 11.49956
v 7.728902 -35.13902 12.49956
v 7.821099 -35.37965 12.56206
v 7.821099 -35.37965 12.49956
v 7.872296 -35.34381 12.49956
v 7.872296 -35.34381 12.56206
v 8.03619 -35.68684 12.56206
v 8.03619 -35.68684 12.49956
v 8.087387 -35.65099 12.49956
v 8.087387 -35.65099 12.56206
v 7.785251 -35.32846 11.49956
v 7.785251 -35.32846 11.62456
v 7.836448 -35.29261 11.49956
v 7.836448 -35.29261 11.62456
v 7.856947 -35.43085 11.62456
v 7.856947 -35.43085 11.74956
v 7.908144 -35.395 11.62456
v 7.908144 -35.395 11.74956
v 7.856947 -35.43085 12.49956
v 7.856947 -35.43085 12.56206
v 7.908144 -35.395 12.49956
v 7.908144 -35.395 12.56206
v 7.928645 -35.53325 11.74956
v 7.928645 -35.53325 11.87456
v 7.979842 -35.49739 11.74956
v 7.979842 -35.49739 11.87456
v 8.000341 -35.63564 11.87456
v 8.000341 -35.63564 11.99956
v 8.051538 -35.59979 11.87456
v 8.051538 -35.59979 11.99956
v 8.072039 -35.73803 11.99956
v 8.072039 -35.73803 12.12456
v 8.123236 -35.70218 11.99956
v 8.123236 -35.70218 12.12456
v 8.072039 -35.73803 12.49956
v 8.072039 -35.73803 12.56206
v 8.123236 -35.70218 12.49956
v 8.123236 -35.70218 12.56206
v 8.143736 -35.84043 12.12456
v 8.143736 -35.84043 12.24956
v 8.194933 -35.80458 12.12456
v 8.194933 -35.80458 12.24956
v 8.215432 -35.94282 12.24956
v 8.215432 -35.94282 12.37456
v 8.26663 -35.90697 12.24956
v 8.26663 -35.90697 12.37456
v 8.28713 -36.04522 12.37456
v 8.28713 -36.04522 12.49956
v 8.338326 -36.00937 12.37456
v 8.338326 -36.00937 12.49956
v 7.785251 -35.32846 11.49956
v 7.677705 -35.17487 11.49956
v 7.677705 -35.17487 12.49956
v 7.785251 -35.32846 11.62456
v 7.821099 -35.37965 12.49956
v 7.856947 -35.43085 11.62456
v 7.821099 -35.37965 12.56206
v 7.856947 -35.43085 11.74956
v 7.856947 -35.43085 12.49956
v 7.856947 -35.43085 12.56206
v 7.928645 -35.53325 11.74956
v 7.928645 -35.53325 11.87456
v 8.000341 -35.63564 11.87456
v 8.000341 -35.63564 11.99956
v 8.03619 -35.68684 12.49956
v 8.072039 -35.73803 11.99956
v 8.03619 -35.68684 12.56206
v 8.072039 -35.73803 12.12456
v 8.072039 -35.73803 12.49956
v 8.072039 -35.73803 12.56206
v 8.143736 -35.84043 12.12456
v 8.143736 -35.84043 12.24956
v 8.215432 -35.94282 12.24956
v 8.215432 -35.94282 12.37456
v 8.28713 -36.04522 12.37456
v 8.28713 -36.04522 12.49956
v 7.728902 -35.13902 11.49956
v 7.836448 -35.29261 11.49956
v 7.728902 -35.13902 12.49956
v 7.836448 -35.29261 11.62456
v 7.872296 -35.34381 12.49956
v 7.908144 -35.395 11.62456
v 7.872296 -35.34381 12.56206
v 7.908144 -35.395 11.74956
v 7.908144 -35.395 12.49956
v 7.908144 -35.395 12.56206
v 7.979842 -35.49739 11.74956
v 7.979842 -35.49739 11.87456
v 8.051538 -35.59979 11.87456
v 8.051538 -35.59979 11.99956
v 8.087387 -35.65099 12.49956
v 8.123236 -35.70218 11.99956
v 8.087387 -35.65099 12.56206
v 8.123236 -35.70218 12.12456
v 8.123236 -35.70218 12.49956
v 8.123236 -35.70218 12.56206
v 8.194933 -35.80458 12.12456
v 8.194933 -35.80458 12.24956
v 8.26663 -35.90697 12.24956
v 8.26663 -35.90697 12.37456
v 8.338326 -36.00937 12.37456
v 8.338326 -36.00937 12.49956
v 7.728902 -35.13902 11.49956
v 7.677705 -35.17487 11.49956
v 7.785251 -35.32846 11.49956
v 7.836448 -35.29261 11.49956
v 7.836448 -35.29261 11.62456
v 7.785251 -35.32846 11.62456
v 7.856947 -35.43085 11.62456
v 7.908144 -35.395 11.62456
v 7.908144 -35.395 11.74956
v 7.856947 -35.43085 11.74956
v 7.928645 -35.53325 11.74956
v 7.979842 -35.49739 11.74956
v 7.979842 -35.49739 11.87456
v 7.928645 -35.53325 11.87456
v 8.000341 -35.63564 11.87456
v 8.051538 -35.59979 11.87456
v 8.051538 -35.59979 11.99956
v 8.000341 -35.63564 11.99956
v 8.072039 -35.73803 11.99956
v 8.123236 -35.70218 11.99956
v 8.123236 -35.70218 12.12456
v 8.072039 -35.73803 12.12456
v 8.143736 -35.84043 12.12456
v 8.194933 -35.80458 12.12456
v 8.194933 -35.80458 12.24956
v 8.143736 -35.84043 12.24956
v 8.215432 -35.94282 12.24956
v 8.26663 -35.90697 12.24956
v 8.26663 -35.90697 12.37456
v 8.215432 -35.94282 12.37456
v 8.28713 -36.04522 12.37456
v 8.338326 -36.00937 12.37456
v 7.677705 -35.17487 12.49956
v 7.728902 -35.13902 12.49956
v 7.821099 -35.37965 12.49956
v 7.872296 -35.34381 12.49956
v 7.856947 -35.43085 12.49956
v 7.908144 -35.395 12.49956
v 8.03619 -35.68684 12.49956
v 8.087387 -35.65099 12.49956
v 8.072039 -35.73803 12.49956
v 8.123236 -35.70218 12.49956
v 8.28713 -36.04522 12.49956
v 8.338326 -36.00937 12.49956
v 7.821099 -35.37965 12.56206
v 7.872296 -35.34381 12.56206
v 7.856947 -35.43085 12.56206
v 7.908144 -35.395 12.56206
v 8.03619 -35.68684 12.56206
v 8.087387 -35.65099 12.56206
v 8.072039 -35.73803 12.56206
v 8.123236 -35.70218 12.56206
vt 0.03222656 0.5332031
vt 0.03222656 0.5224609
vt 0.02148438 0.5224609
vt 0.02148438 0.5332031
vt 0.04101563 0.5224609
vt 0.03222656 0.5224609
vt 0.03222656 0.5332031
vt 0.04101563 0.5332031
vt 0.02148438 0.5224609
vt 0.01269531 0.5224609
vt 0.02148438 0.5332031
vt 0.01269531 0.5332031
vt 0.08984375 0.546875
vt 0.07910156 0.546875
vt 0.08984375 0.5556641
vt 0.07910156 0.5556641
vt 0.01269531 0.5332031
vt 0.01269531 0.5224609
vt 0.001953125 0.5224609
vt 0.001953125 0.5332031
vt 0.08007813 0.5302734
vt 0.08007813 0.5390625
vt 0.09082031 0.5390625
vt 0.09082031 0.5302734
vt 0.06835938 0.5566406
vt 0.06835938 0.5654297
vt 0.07714844 0.5566406
vt 0.07714844 0.5654297
vt 0.06835938 0.5566406
vt 0.05664063 0.5566406
vt 0.05664063 0.5654297
vt 0.06835938 0.5654297
vt 0.08886719 0.5566406
vt 0.07714844 0.5566406
vt 0.08886719 0.5654297
vt 0.07714844 0.5654297
vt 0.07714844 0.5449219
vt 0.06835938 0.5449219
vt 0.06835938 0.5566406
vt 0.07714844 0.5566406
vt 0.06835938 0.5771484
vt 0.07714844 0.5771484
vt 0.06835938 0.5654297
vt 0.07714844 0.5654297
vt 0.001953125 0.5078125
vt 0.002929688 0.5078125
vt 0.002929688 0.5029297
vt 0.001953125 0.5029297
vt 0.0078125 0.5078125
vt 0.008789063 0.5078125
vt 0.0078125 0.5029297
vt 0.008789063 0.5029297
vt 0.0078125 0.5078125
vt 0.002929688 0.5078125
vt 0.002929688 0.5087891
vt 0.0078125 0.5087891
vt 0.002929688 0.5029297
vt 0.0078125 0.5029297
vt 0.002929688 0.5019531
vt 0.0078125 0.5019531
vt 0.002929688 0.5029297
vt 0.002929688 0.5078125
vt 0.0078125 0.5078125
vt 0.0078125 0.5029297
vt 0.01953125 0.5195313
vt 0.01953125 0.5039063
vt 0.01855469 0.5039063
vt 0.01855469 0.5195313
vt 0.04980469 0.5888672
vt 0.05078125 0.5888672
vt 0.05078125 0.5878906
vt 0.04980469 0.5878906
vt 0.04199219 0.5888672
vt 0.04296875 0.5888672
vt 0.04296875 0.5878906
vt 0.04199219 0.5878906
vt 0.004882813 0.5888672
vt 0.006835938 0.5888672
vt 0.004882813 0.5878906
vt 0.006835938 0.5878906
vt 0.008789063 0.5888672
vt 0.01074219 0.5888672
vt 0.008789063 0.5878906
vt 0.01074219 0.5878906
vt 0.04785156 0.5888672
vt 0.04882813 0.5888672
vt 0.04785156 0.5878906
vt 0.04882813 0.5878906
vt 0.01269531 0.5888672
vt 0.01464844 0.5888672
vt 0.01269531 0.5878906
vt 0.01464844 0.5878906
vt 0.01660156 0.5888672
vt 0.01855469 0.5888672
vt 0.01660156 0.5878906
vt 0.01855469 0.5878906
vt 0.02050781 0.5888672
vt 0.02246094 0.5888672
vt 0.02050781 0.5878906
vt 0.02246094 0.5878906
vt 0.04003906 0.5888672
vt 0.04101563 0.5888672
vt 0.04003906 0.5878906
vt 0.04101563 0.5878906
vt 0.02441406 0.5888672
vt 0.02636719 0.5888672
vt 0.02441406 0.5878906
vt 0.02636719 0.5878906
vt 0.02832031 0.5888672
vt 0.03027344 0.5888672
vt 0.02832031 0.5878906
vt 0.03027344 0.5878906
vt 0.03222656 0.5888672
vt 0.03417969 0.5888672
vt 0.03222656 0.5878906
vt 0.03417969 0.5878906
vt 0.02246094 0.5039063
vt 0.01953125 0.5039063
vt 0.01953125 0.5195313
vt 0.02246094 0.5058594
vt 0.0234375 0.5195313
vt 0.02441406 0.5058594
vt 0.0234375 0.5205078
vt 0.02441406 0.5078125
vt 0.02441406 0.5195313
vt 0.02441406 0.5205078
vt 0.02636719 0.5078125
vt 0.02636719 0.5097656
vt 0.02832031 0.5097656
vt 0.02832031 0.5117188
vt 0.02929688 0.5195313
vt 0.03027344 0.5117188
vt 0.02929688 0.5205078
vt 0.03027344 0.5136719
vt 0.03027344 0.5195313
vt 0.03027344 0.5205078
vt 0.03222656 0.5136719
vt 0.03222656 0.515625
vt 0.03417969 0.515625
vt 0.03417969 0.5175781
vt 0.03613281 0.5175781
vt 0.03613281 0.5195313
vt 0.01855469 0.5039063
vt 0.015625 0.5039063
vt 0.01855469 0.5195313
vt 0.015625 0.5058594
vt 0.01464844 0.5195313
vt 0.01367188 0.5058594
vt 0.01464844 0.5205078
vt 0.01367188 0.5078125
vt 0.01367188 0.5195313
vt 0.01367188 0.5205078
vt 0.01171875 0.5078125
vt 0.01171875 0.5097656
vt 0.009765625 0.5097656
vt 0.009765625 0.5117188
vt 0.008789063 0.5195313
vt 0.0078125 0.5117188
vt 0.008789063 0.5205078
vt 0.0078125 0.5136719
vt 0.0078125 0.5195313
vt 0.0078125 0.5205078
vt 0.005859375 0.5136719
vt 0.005859375 0.515625
vt 0.00390625 0.515625
vt 0.00390625 0.5175781
vt 0.001953125 0.5175781
vt 0.001953125 0.5195313
vt 0.001953125 0.5878906
vt 0.001953125 0.5888672
vt 0.004882813 0.5888672
vt 0.004882813 0.5878906
vt 0.006835938 0.5878906
vt 0.006835938 0.5888672
vt 0.008789063 0.5888672
vt 0.008789063 0.5878906
vt 0.01074219 0.5878906
vt 0.01074219 0.5888672
vt 0.01269531 0.5888672
vt 0.01269531 0.5878906
vt 0.01464844 0.5878906
vt 0.01464844 0.5888672
vt 0.01660156 0.5888672
vt 0.01660156 0.5878906
vt 0.01855469 0.5878906
vt 0.01855469 0.5888672
vt 0.02050781 0.5888672
vt 0.02050781 0.5878906
vt 0.02246094 0.5878906
vt 0.02246094 0.5888672
vt 0.02441406 0.5888672
vt 0.02441406 0.5878906
vt 0.02636719 0.5878906
vt 0.02636719 0.5888672
vt 0.02832031 0.5888672
vt 0.02832031 0.5878906
vt 0.03027344 0.5878906
vt 0.03027344 0.5888672
vt 0.03222656 0.5888672
vt 0.03222656 0.5878906
vt 0.0546875 0.5888672
vt 0.0546875 0.5878906
vt 0.05078125 0.5888672
vt 0.05078125 0.5878906
vt 0.04785156 0.5888672
vt 0.04785156 0.5878906
vt 0.04296875 0.5888672
vt 0.04296875 0.5878906
vt 0.04003906 0.5888672
vt 0.04003906 0.5878906
vt 0.03417969 0.5888672
vt 0.03417969 0.5878906
vt 0.04980469 0.5888672
vt 0.04980469 0.5878906
vt 0.04882813 0.5888672
vt 0.04882813 0.5878906
vt 0.04199219 0.5888672
vt 0.04199219 0.5878906
vt 0.04101563 0.5888672
vt 0.04101563 0.5878906
vn -0.5735761 0.8191523 0
vn -0.5735761 0.8191523 0
vn -0.5735761 0.8191523 0
vn -0.5735761 0.8191523 0
vn -0.8191526 -0.5735756 0
vn -0.8191526 -0.5735756 0
vn -0.8191526 -0.5735756 0
vn -0.8191526 -0.5735756 0
vn 0.8191526 0.5735756 0
vn 0.8191526 0.5735756 0
vn 0.8191526 0.5735756 0
vn 0.8191526 0.5735756 0
vn 0 0 1
vn 0 0 1
vn 0 0 1
vn 0 0 1
vn 0.5735761 -0.8191523 0
vn 0.5735761 -0.8191523 0
vn 0.5735761 -0.8191523 0
vn 0.5735761 -0.8191523 0
vn 0 0 -1
vn 0 0 -1
vn 0 0 -1
vn 0 0 -1
vn 0.5735766 -0.8191519 0
vn 0.5735766 -0.8191519 0
vn 0.5735766 -0.8191519 0
vn 0.5735766 -0.8191519 0
vn -0.8191525 -0.5735759 0
vn -0.8191525 -0.5735759 0
vn -0.8191525 -0.5735759 0
vn -0.8191525 -0.5735759 0
vn 0.8191528 0.5735753 0
vn 0.8191528 0.5735753 0
vn 0.8191528 0.5735753 0
vn 0.8191528 0.5735753 0
vn 0 0 -1
vn 0 0 -1
vn 0 0 -1
vn 0 0 -1
vn 0 0 1
vn 0 0 1
vn 0 0 1
vn 0 0 1
vn -0.5735775 0.8191513 0
vn -0.5735775 0.8191513 0
vn -0.5735775 0.8191513 0
vn -0.5735775 0.8191513 0
vn 0.5735722 -0.819155 0
vn 0.5735722 -0.819155 0
vn 0.5735722 -0.819155 0
vn 0.5735722 -0.819155 0
vn -0.819151 -0.5735779 0
vn -0.819151 -0.5735779 0
vn -0.819151 -0.5735779 0
vn -0.819151 -0.5735779 0
vn 0.8191535 0.5735742 0
vn 0.8191535 0.5735742 0
vn 0.8191535 0.5735742 0
vn 0.8191535 0.5735742 0
vn 0 0 -1
vn 0 0 -1
vn 0 0 -1
vn 0 0 -1
vn -0.5735888 0.8191434 0
vn -0.5735888 0.8191434 0
vn -0.5735888 0.8191434 0
vn -0.5735888 0.8191434 0
vn -0.5735626 0.8191617 0
vn -0.5735626 0.8191617 0
vn -0.5735626 0.8191617 0
vn -0.5735626 0.8191617 0
vn -0.5735842 0.8191466 0
vn -0.5735842 0.8191466 0
vn -0.5735842 0.8191466 0
vn -0.5735842 0.8191466 0
vn 0.5735888 -0.8191434 0
vn 0.5735888 -0.8191434 0
vn 0.5735888 -0.8191434 0
vn 0.5735888 -0.8191434 0
vn 0.5735626 -0.8191617 0
vn 0.5735626 -0.8191617 0
vn 0.5735626 -0.8191617 0
vn 0.5735626 -0.8191617 0
vn 0.5735626 -0.8191617 0
vn 0.5735626 -0.8191617 0
vn 0.5735626 -0.8191617 0
vn 0.5735626 -0.8191617 0
vn 0.5735888 -0.8191434 0
vn 0.5735888 -0.8191434 0
vn 0.5735888 -0.8191434 0
vn 0.5735888 -0.8191434 0
vn 0.5735888 -0.8191434 0
vn 0.5735888 -0.8191434 0
vn 0.5735888 -0.8191434 0
vn 0.5735888 -0.8191434 0
vn 0.5735626 -0.8191617 0
vn 0.5735626 -0.8191617 0
vn 0.5735626 -0.8191617 0
vn 0.5735626 -0.8191617 0
vn 0.5735626 -0.8191617 0
vn 0.5735626 -0.8191617 0
vn 0.5735626 -0.8191617 0
vn 0.5735626 -0.8191617 0
vn 0.5735888 -0.8191434 0
vn 0.5735888 -0.8191434 0
vn 0.5735888 -0.8191434 0
vn 0.5735888 -0.8191434 0
vn 0.573558 -0.8191649 0
vn 0.573558 -0.8191649 0
vn 0.573558 -0.8191649 0
vn 0.573558 -0.8191649 0
vn 0.5735888 -0.8191434 0
vn 0.5735888 -0.8191434 0
vn 0.5735888 -0.8191434 0
vn 0.5735888 -0.8191434 0
vn -0.8191521 -0.5735764 0
vn -0.8191521 -0.5735764 0
vn -0.8191519 -0.5735766 0
vn -0.8191509 -0.5735781 0
vn -0.81915 -0.5735793 0
vn -0.8191493 -0.5735803 0
vn -0.8191494 -0.5735803 0
vn -0.8191507 -0.5735783 0
vn -0.8191528 -0.5735754 0
vn -0.8191494 -0.5735803 0
vn -0.8191535 -0.5735744 0
vn -0.8191546 -0.5735728 0
vn -0.8191552 -0.5735719 0
vn -0.8191518 -0.5735769 0
vn -0.8191484 -0.5735816 0
vn -0.8191455 -0.5735858 0
vn -0.8191448 -0.5735869 0
vn -0.8191484 -0.5735816 0
vn -0.8191511 -0.5735778 0
vn -0.8191448 -0.5735869 0
vn -0.8191558 -0.5735711 0
vn -0.8191525 -0.5735757 0
vn -0.8191509 -0.573578 0
vn -0.819153 -0.5735751 0
vn -0.8191532 -0.5735748 0
vn -0.8191529 -0.5735753 0
vn 0.8191521 0.5735764 0
vn 0.8191521 0.5735764 0
vn 0.819153 0.5735751 0
vn 0.8191541 0.5735735 0
vn 0.8191532 0.5735747 0
vn 0.8191515 0.5735772 0
vn 0.8191494 0.5735803 0
vn 0.8191486 0.5735813 0
vn 0.81915 0.5735794 0
vn 0.8191494 0.5735803 0
vn 0.819147 0.5735837 0
vn 0.8191514 0.5735775 0
vn 0.8191535 0.5735742 0
vn 0.8191516 0.573577 0
vn 0.8191552 0.5735719 0
vn 0.8191593 0.5735661 0
vn 0.8191622 0.573562 0
vn 0.8191578 0.5735681 0
vn 0.8191535 0.5735743 0
vn 0.8191622 0.573562 0
vn 0.8191494 0.5735803 0
vn 0.8191514 0.5735775 0
vn 0.8191525 0.5735759 0
vn 0.8191504 0.5735788 0
vn 0.8191501 0.5735793 0
vn 0.8191507 0.5735783 0
vn 0 0 -1
vn 0 0 -1
vn 0 0 -1
vn 0 0 -1
vn 0 0 -1
vn 0 0 -1
vn 0 0 -1
vn 0 0 -1
vn 0 0 -1
vn 0 0 -1
vn 0 0 -1
vn 0 0 -1
vn 0 0 -1
vn 0 0 -1
vn 0 0 -1
vn 0 0 -1
vn 0 0 -1
vn 0 0 -1
vn 0 0 -1
vn 0 0 -1
vn 0 0 -1
vn 0 0 -1
vn 0 0 -1
vn 0 0 -1
vn 0 0 -1
vn 0 0 -1
vn 0 0 -1
vn 0 0 -1
vn 0 0 -1
vn 0 0 -1
vn 0 0 -1
vn 0 0 -1
vn 0 0 1
vn 0 0 1
vn 0 0 1
vn 0 0 1
vn 0 0 1
vn 0 0 1
vn 0 0 1
vn 0 0 1
vn 0 0 1
vn 0 0 1
vn 0 0 1
vn 0 0 1
vn 0 0 1
vn 0 0 1
vn 0 0 1
vn 0 0 1
vn 0 0 1
vn 0 0 1
vn 0 0 1
vn 0 0 1
g North_Pole_windgenerator_head001_0
f 3/3/3 2/2/2 1/1/1
f 3/3/3 1/1/1 4/4/4
f 7/7/7 6/6/6 5/5/5
f 7/7/7 5/5/5 8/8/8
f 11/11/11 10/10/10 9/9/9
f 11/11/11 12/12/12 10/10/10
f 15/15/15 14/14/14 13/13/13
f 15/15/15 16/16/16 14/14/14
f 19/19/19 18/18/18 17/17/17
f 20/20/20 19/19/19 17/17/17
f 23/23/23 22/22/22 21/21/21
f 24/24/24 23/23/23 21/21/21
f 27/27/27 26/26/26 25/25/25
f 27/27/27 28/28/28 26/26/26
f 31/31/31 30/30/30 29/29/29
f 31/31/31 29/29/29 32/32/32
f 35/35/35 34/34/34 33/33/33
f 35/35/35 36/36/36 34/34/34
f 39/39/39 38/38/38 37/37/37
f 39/39/39 37/37/37 40/40/40
f 43/43/43 42/42/42 41/41/41
f 43/43/43 44/44/44 42/42/42
f 47/47/47 46/46/46 45/45/45
f 47/47/47 45/45/45 48/48/48
f 51/51/51 50/50/50 49/49/49
f 51/51/51 52/52/52 50/50/50
f 55/55/55 54/54/54 53/53/53
f 55/55/55 53/53/53 56/56/56
f 59/59/59 58/58/58 57/57/57
f 59/59/59 60/60/60 58/58/58
f 63/63/63 62/62/62 61/61/61
f 63/63/63 61/61/61 64/64/64
f 67/67/67 66/66/66 65/65/65
f 67/67/67 65/65/65 68/68/68
f 71/71/71 70/70/70 69/69/69
f 71/71/71 69/69/69 72/72/72
f 75/75/75 74/74/74 73/73/73
f 75/75/75 73/73/73 76/76/76
f 79/79/79 78/78/78 77/77/77
f 79/79/79 80/80/80 78/78/78
f 83/83/83 82/82/82 81/81/81
f 83/83/83 84/84/84 82/82/82
f 87/87/87 86/86/86 85/85/85
f 87/87/87 88/88/88 86/86/86
f 91/91/91 90/90/90 89/89/89
f 91/91/91 92/92/92 90/90/90
f 95/95/95 94/94/94 93/93/93
f 95/95/95 96/96/96 94/94/94
f 99/99/99 98/98/98 97/97/97
f 99/99/99 100/100/100 98/98/98
f 103/103/103 102/102/102 101/101/101
f 103/103/103 104/104/104 102/102/102
f 107/107/107 106/106/106 105/105/105
f 107/107/107 108/108/108 106/106/106
f 111/111/111 110/110/110 109/109/109
f 111/111/111 112/112/112 110/110/110
f 115/115/115 114/114/114 113/113/113
f 115/115/115 116/116/116 114/114/114
f 119/119/119 118/118/118 117/117/117
f 119/119/119 117/117/117 120/120/120
f 119/119/119 120/120/120 121/121/121
f 121/121/121 120/120/120 122/122/122
f 123/123/123 121/121/121 122/122/122
f 123/123/123 122/122/122 124/124/124
f 123/123/123 124/124/124 125/125/125
f 123/123/123 125/125/125 126/126/126
f 125/125/125 124/124/124 127/127/127
f 125/125/125 127/127/127 128/128/128
f 125/125/125 128/128/128 129/129/129
f 125/125/125 129/129/129 130/130/130
f 125/125/125 130/130/130 131/131/131
f 131/131/131 130/130/130 132/132/132
f 133/133/133 131/131/131 132/132/132
f 133/133/133 132/132/132 134/134/134
f 133/133/133 134/134/134 135/135/135
f 133/133/133 135/135/135 136/136/136
f 135/135/135 134/134/134 137/137/137
f 135/135/135 137/137/137 138/138/138
f 135/135/135 138/138/138 139/139/139
f 135/135/135 139/139/139 140/140/140
f 135/135/135 140/140/140 141/141/141
f 135/135/135 141/141/141 142/142/142
f 145/145/145 144/144/144 143/143/143
f 145/145/145 146/146/146 144/144/144
f 145/145/145 147/147/147 146/146/146
f 147/147/147 148/148/148 146/146/146
f 149/149/149 148/148/148 147/147/147
f 149/149/149 150/150/150 148/148/148
f 149/149/149 151/151/151 150/150/150
f 149/149/149 152/152/152 151/151/151
f 151/151/151 153/153/153 150/150/150
f 151/151/151 154/154/154 153/153/153
f 151/151/151 155/155/155 154/154/154
f 151/151/151 156/156/156 155/155/155
f 151/151/151 157/157/157 156/156/156
f 157/157/157 158/158/158 156/156/156
f 159/159/159 158/158/158 157/157/157
f 159/159/159 160/160/160 158/158/158
f 159/159/159 161/161/161 160/160/160
f 159/159/159 162/162/162 161/161/161
f 161/161/161 163/163/163 160/160/160
f 161/161/161 164/164/164 163/163/163
f 161/161/161 165/165/165 164/164/164
f 161/161/161 166/166/166 165/165/165
f 161/161/161 167/167/167 166/166/166
f 161/161/161 168/168/168 167/167/167
f 171/171/171 170/170/170 169/169/169
f 171/171/171 169/169/169 172/172/172
f 175/175/175 174/174/174 173/173/173
f 175/175/175 173/173/173 176/176/176
f 179/179/179 178/178/178 177/177/177
f 179/179/179 177/177/177 180/180/180
f 183/183/183 182/182/182 181/181/181
f 183/183/183 181/181/181 184/184/184
f 187/187/187 186/186/186 185/185/185
f 187/187/187 185/185/185 188/188/188
f 191/191/191 190/190/190 189/189/189
f 191/191/191 189/189/189 192/192/192
f 195/195/195 194/194/194 193/193/193
f 195/195/195 193/193/193 196/196/196
f 199/199/199 198/198/198 197/197/197
f 199/199/199 197/197/197 200/200/200
f 203/203/203 202/202/202 201/201/201
f 203/203/203 204/204/204 202/202/202
f 207/207/207 206/206/206 205/205/205
f 207/207/207 208/208/208 206/206/206
f 211/211/211 210/210/210 209/209/209
f 211/211/211 212/212/212 210/210/210
f 215/215/215 214/214/214 213/213/213
f 215/215/215 216/216/216 214/214/214
f 219/219/219 218/218/218 217/217/217
f 219/219/219 220/220/220 218/218/218
