g North_Pole_Container_blue_Big
v 23.5 15 3.000001
v 23.5 18.5 3.000001
v 27.5 18.5 3.000001
v 27.5 15 3.000001
v 23.5 15 -0.06249878
v 23.5 15 3.000001
v 27.5 15 3.000001
v 27.5 15 -0.06249878
v 27.5 15 -0.06249878
v 27.5 15 3.000001
v 27.5 18.5 3.000001
v 27.5 18.5 -0.06249878
v 27.5 18.5 -0.06249878
v 27.5 18.5 3.000001
v 23.5 18.5 3.000001
v 23.5 18.5 -0.06249878
v 23.5 18.5 -0.06249878
v 23.5 18.5 3.000001
v 23.5 15 3.000001
v 23.5 15 -0.06249878
vt 0.1386719 0.2148437
vt 0.1386719 0.3242187
vt 0.2636719 0.3242187
vt 0.2636719 0.2148437
vt 0.005859375 0.2283163
vt 0.005859375 0.3240193
vt 0.1308594 0.3240193
vt 0.1308594 0.2283163
vt 0.005859375 0.2283163
vt 0.005859375 0.3240193
vt 0.1152344 0.3240193
vt 0.1152344 0.2283163
vt 0.005859375 0.2283163
vt 0.005859375 0.3240193
vt 0.1308594 0.3240193
vt 0.1308594 0.2283163
vt 0.2753906 0.2283163
vt 0.2753906 0.3240193
vt 0.3847656 0.3240193
vt 0.3847656 0.2283163
vn 0 0 1
vn 0 0 1
vn 0 0 1
vn 0 0 1
vn 0 -1 0
vn 0 -1 0
vn 0 -1 0
vn 0 -1 0
vn 1 0 0
vn 1 0 0
vn 1 0 0
vn 1 0 0
vn 0 1 0
vn 0 1 0
vn 0 1 0
vn 0 1 0
vn -1 0 0
vn -1 0 0
vn -1 0 0
vn -1 0 0
g North_Pole_Container_blue_Big_0
f 3/3/3 2/2/2 1/1/1
f 4/4/4 3/3/3 1/1/1
f 7/7/7 6/6/6 5/5/5
f 8/8/8 7/7/7 5/5/5
f 11/11/11 10/10/10 9/9/9
f 12/12/12 11/11/11 9/9/9
f 15/15/15 14/14/14 13/13/13
f 16/16/16 15/15/15 13/13/13
f 19/19/19 18/18/18 17/17/17
f 20/20/20 19/19/19 17/17/17
