g North_Pole_Main_House_Windows_Glass002
v 15.0625 2.59375 2.031252
v 15.0625 2.59375 3.718753
v 16.1875 2.59375 3.718753
v 16.1875 2.59375 2.031252
v 12.59375 7.562499 2.031252
v 12.59375 8.687499 2.031252
v 12.59375 8.687499 3.718753
v 12.59375 7.562499 3.718753
v 24.90625 7.562499 2.031252
v 24.90625 7.562499 3.718753
v 24.90625 8.687499 3.718753
v 24.90625 8.687499 2.031252
v 24.90625 3.812498 2.031252
v 24.90625 3.812498 3.718753
v 24.90625 4.937499 3.718753
v 24.90625 4.937499 2.031252
v 20.9375 2.59375 2.031252
v 20.9375 2.59375 3.718753
v 22.0625 2.59375 3.718753
v 22.0625 2.59375 2.031252
v 15.0625 9.90625 2.031252
v 16.1875 9.90625 2.031252
v 16.1875 9.90625 3.718753
v 15.0625 9.90625 3.718753
vt 0.0625 0.515625
vt 0.0625 0.9375
vt 0.34375 0.9375
vt 0.34375 0.515625
vt 0.34375 0.515625
vt 0.0625 0.515625
vt 0.0625 0.9375
vt 0.34375 0.9375
vt 0.0625 0.515625
vt 0.0625 0.9375
vt 0.34375 0.9375
vt 0.34375 0.515625
vt 0.0625 0.515625
vt 0.0625 0.9375
vt 0.34375 0.9375
vt 0.34375 0.515625
vt 0.0625 0.515625
vt 0.0625 0.9375
vt 0.34375 0.9375
vt 0.34375 0.515625
vt 0.34375 0.515625
vt 0.0625 0.515625
vt 0.0625 0.9375
vt 0.34375 0.9375
vn 0 -1 0
vn 0 -1 0
vn 0 -1 0
vn 0 -1 0
vn -1 0 0
vn -1 0 0
vn -1 0 0
vn -1 0 0
vn 1 0 0
vn 1 0 0
vn 1 0 0
vn 1 0 0
vn 1 0 0
vn 1 0 0
vn 1 0 0
vn 1 0 0
vn 0 -1 0
vn 0 -1 0
vn 0 -1 0
vn 0 -1 0
vn 0 1 0
vn 0 1 0
vn 0 1 0
vn 0 1 0
g North_Pole_Main_House_Windows_Glass002_0
f 3/3/3 2/2/2 1/1/1
f 4/4/4 3/3/3 1/1/1
f 7/7/7 6/6/6 5/5/5
f 8/8/8 7/7/7 5/5/5
f 11/11/11 10/10/10 9/9/9
f 12/12/12 11/11/11 9/9/9
f 15/15/15 14/14/14 13/13/13
f 16/16/16 15/15/15 13/13/13
f 19/19/19 18/18/18 17/17/17
f 20/20/20 19/19/19 17/17/17
f 23/23/23 22/22/22 21/21/21
f 24/24/24 23/23/23 21/21/21
