g NuclearCity_GreenHouse_glass007
v -0.7373865 0.1725768 1.176794
v 0.7248845 -0.2192375 1.176794
v 0.7248846 -0.2192371 -1.176794
v -0.7373864 0.1725771 -1.176794
v -0.7248843 0.2192355 1.176794
v 0.7373868 -0.1725784 -1.176794
v 0.7373867 -0.1725787 1.176794
v -0.7248842 0.2192358 -1.176794
v 0.7538791 -0.1456592 1.023206
v 0.6653928 -0.1219495 1.023206
v 0.6653928 -0.1219495 -1.176794
v 0.7538791 -0.1456592 -1.176794
v -0.6372195 0.2270837 -0.07121659
v -0.6372195 0.2270837 -0.1323722
v 0.6653928 -0.1219495 -0.1323721
v 0.6653928 -0.1219495 -0.07121655
v -0.6372195 0.2270837 1.023206
v -0.7257034 0.2507935 1.023206
v -0.7257034 0.2507935 -1.176794
v -0.6372195 0.2270837 -1.176794
v 0.04359344 0.04466064 0.9315968
v -0.01542145 0.06047546 0.9315968
v -0.01542389 0.06047607 -0.07121681
v 0.04359344 0.04466064 -0.07121681
v 0.04359344 0.04466064 -0.1323721
v -0.01542389 0.06047607 -0.1323721
v -0.01542267 0.06047485 -1.085186
v 0.04359344 0.04466125 -1.085186
v -0.6372171 0.2270862 1.023206
v -0.6372195 0.2270837 0.9315968
v 0.6653928 -0.1219495 0.9315968
v 0.6653928 -0.1219495 1.023206
v -0.6372195 0.2270837 -1.085186
v -0.6372195 0.2270849 -1.176794
v 0.6653928 -0.1219495 -1.176794
v 0.6653928 -0.1219495 -1.085186
v -0.753876 0.145658 1.023206
v -0.6653897 0.1219482 1.023206
v -0.6653897 0.1219482 -1.176794
v -0.7538772 0.1456586 -1.176794
v 0.6372213 -0.2270874 -0.07121659
v 0.6372213 -0.2270874 -0.1323722
v -0.6653897 0.1219482 -0.1323722
v -0.6653897 0.1219482 -0.07121663
v 0.6372213 -0.2270862 1.023206
v 0.7257065 -0.2507941 1.023206
v 0.7257065 -0.2507941 -1.176794
v 0.6372213 -0.2270849 -1.176794
v -0.04359283 -0.04466125 0.9315968
v 0.01542206 -0.06047424 0.9315968
v 0.01542206 -0.06047424 -0.07121681
v -0.04359283 -0.04466125 -0.07121681
v -0.04359283 -0.04466125 -0.1323721
v 0.01542206 -0.06047424 -0.1323721
v 0.01542206 -0.06047424 -1.085186
v -0.04359405 -0.04466064 -1.085186
v 0.6372238 -0.2270862 1.023206
v 0.6372238 -0.2270862 0.9315968
v -0.6653885 0.1219482 0.9315966
v -0.6653885 0.1219482 1.023206
v 0.6372213 -0.2270849 -1.085186
v 0.6372213 -0.2270849 -1.176794
v -0.6653909 0.1219489 -1.176794
v -0.6653909 0.1219489 -1.085186
v -0.6372195 0.2270837 0.9315968
v -0.6653885 0.1219482 0.9315966
v 0.6372238 -0.2270862 0.9315968
v 0.6653928 -0.1219495 0.9315968
v -0.6372195 0.2270837 -1.085186
v 0.6653928 -0.1219495 -1.085186
v 0.6372213 -0.2270849 -1.085186
v -0.6653909 0.1219489 -1.085186
v -0.6372195 0.2270837 -0.07121659
v 0.6653928 -0.1219495 -0.07121655
v 0.6372213 -0.2270874 -0.07121659
v -0.6653897 0.1219482 -0.07121663
v -0.6372195 0.2270837 -0.1323722
v -0.6653897 0.1219482 -0.1323722
v 0.6372213 -0.2270874 -0.1323722
v 0.6653928 -0.1219495 -0.1323721
v 0.6653928 -0.1219495 1.023206
v 0.6372213 -0.2270862 1.023206
v 0.6372213 -0.2270849 -1.176794
v 0.6653928 -0.1219495 -1.176794
v -0.6372195 0.2270837 1.023206
v -0.6372195 0.2270837 -1.176794
v -0.6653897 0.1219482 -1.176794
v -0.6653897 0.1219482 1.023206
v -0.01542145 0.06047546 0.9315968
v -0.04359772 -0.04465942 0.9315968
v -0.04359894 -0.04465942 -1.085186
v -0.01542267 0.06047485 -1.085186
v 0.04359344 0.04466064 0.9315968
v 0.04359344 0.04466125 -1.085186
v 0.01542206 -0.06047424 -1.085186
v 0.01542206 -0.06047424 0.9315968
vt 0.01171875 0.4726563
vt 0.01171885 0.6601563
vt 0.2929688 0.6601561
vt 0.2929687 0.4726563
vt 0.0117188 0.6601561
vt 0.2929688 0.4726563
vt 0.01171882 0.4726563
vt 0.2929687 0.6601563
vt 0.3106116 0.527344
vt 0.3106116 0.5390624
vt 0.5796335 0.5390624
vt 0.5796335 0.5273438
vt 0.3126279 0.5312393
vt 0.3126279 0.5390625
vt 0.4775338 0.5390624
vt 0.4775338 0.5312392
vt 0.3106116 0.5273439
vt 0.3106116 0.5390624
vt 0.5796335 0.5390624
vt 0.5796335 0.5273437
vt 0.3106115 0.5312463
vt 0.3106115 0.5390623
vt 0.4332382 0.5390623
vt 0.4332382 0.5312462
vt 0.3075547 0.5312462
vt 0.3075547 0.5390623
vt 0.4240673 0.5390623
vt 0.4240673 0.5312464
vt 0.3126279 0.520686
vt 0.3126284 0.5324047
vt 0.4775338 0.5324045
vt 0.4775338 0.5206859
vt 0.3126279 0.53005
vt 0.312628 0.5417687
vt 0.4775338 0.5417686
vt 0.4775338 0.5300498
vt 0.3106116 0.527344
vt 0.3106116 0.5390626
vt 0.5796335 0.5390624
vt 0.5796335 0.5273438
vt 0.3169296 0.5312393
vt 0.3169296 0.5390625
vt 0.4883015 0.5390624
vt 0.4883015 0.5312392
vt 0.3106116 0.5273439
vt 0.3106116 0.5390626
vt 0.5796335 0.5390624
vt 0.5796335 0.5273437
vt 0.3106115 0.5312466
vt 0.3106115 0.5390625
vt 0.4332382 0.5390624
vt 0.4332382 0.5312465
vt 0.3075547 0.5312466
vt 0.3075547 0.5390625
vt 0.4240673 0.5390624
vt 0.4240673 0.5312464
vt 0.3169099 0.520686
vt 0.3169099 0.5324046
vt 0.4818158 0.5324045
vt 0.4818158 0.5206859
vt 0.3169099 0.53005
vt 0.3169099 0.5417687
vt 0.4818158 0.5417685
vt 0.4818158 0.5300499
vt 0.3126279 0.5234376
vt 0.3126279 0.5390626
vt 0.4775338 0.5390624
vt 0.4775338 0.5234375
vt 0.3126279 0.5234377
vt 0.4775338 0.5234376
vt 0.4775339 0.5390623
vt 0.3126279 0.5390625
vt 0.3126279 0.5234377
vt 0.4775338 0.5234376
vt 0.4775339 0.5390623
vt 0.3126279 0.5390625
vt 0.3126279 0.5234376
vt 0.3126279 0.5390626
vt 0.4775339 0.5390624
vt 0.4775338 0.5234375
vt 0.3106116 0.5234378
vt 0.3106116 0.5390627
vt 0.5796335 0.5390623
vt 0.5796335 0.5234377
vt 0.3106116 0.5234378
vt 0.5796335 0.5234377
vt 0.5796335 0.5390623
vt 0.3106116 0.5390625
vt 0.3104596 0.5234376
vt 0.3104596 0.5390625
vt 0.5635365 0.5390623
vt 0.5635365 0.5234377
vt 0.3104596 0.5234378
vt 0.5635365 0.5234377
vt 0.5635365 0.5390623
vt 0.3104596 0.5390625
vn -0.258819 -0.9659258 -1.473688E-07
vn -0.258819 -0.9659258 -1.507468E-07
vn -0.258819 -0.9659258 -1.448416E-07
vn -0.258819 -0.9659258 -1.414635E-07
vn 0.258819 0.9659258 1.473688E-07
vn 0.258819 0.9659258 1.448416E-07
vn 0.258819 0.9659258 1.507468E-07
vn 0.258819 0.9659258 1.414635E-07
vn 0.2588178 0.9659262 0
vn 0.2588178 0.9659262 0
vn 0.2588178 0.9659262 0
vn 0.2588178 0.9659262 0
vn 0.2588186 0.9659259 0
vn 0.2588185 0.965926 0
vn 0.2588186 0.9659259 0
vn 0.2588185 0.965926 0
vn 0.2588244 0.9659244 0
vn 0.2588244 0.9659244 0
vn 0.2588244 0.9659244 0
vn 0.2588244 0.9659244 0
vn 0.2588466 0.9659185 0
vn 0.2588466 0.9659185 0
vn 0.2588466 0.9659185 0
vn 0.2588466 0.9659185 0
vn 0.2588348 0.9659216 -1.433399E-07
vn 0.2588348 0.9659216 -1.433399E-07
vn 0.2588348 0.9659216 -1.433398E-07
vn 0.2588348 0.9659216 -1.433399E-07
vn 0.2588196 0.9659256 -1.630359E-05
vn 0.2588196 0.9659256 -1.630359E-05
vn 0.2588196 0.9659256 -1.630359E-05
vn 0.2588196 0.9659256 -1.630359E-05
vn 0.258819 0.9659258 6.422674E-06
vn 0.258819 0.9659258 6.422674E-06
vn 0.258819 0.9659258 6.422673E-06
vn 0.258819 0.9659258 6.422673E-06
vn -0.2588192 -0.9659258 0
vn -0.2588192 -0.9659258 0
vn -0.2588192 -0.9659258 0
vn -0.2588192 -0.9659258 0
vn -0.2588205 -0.9659255 0
vn -0.2588205 -0.9659255 0
vn -0.2588205 -0.9659255 0
vn -0.2588205 -0.9659255 0
vn -0.2588086 -0.9659286 -2.680724E-07
vn -0.2588086 -0.9659286 -2.680724E-07
vn -0.2588086 -0.9659286 -2.680724E-07
vn -0.2588087 -0.9659286 -2.680724E-07
vn -0.258819 -0.9659258 0
vn -0.258819 -0.9659258 0
vn -0.258819 -0.9659258 0
vn -0.258819 -0.9659258 0
vn -0.2588212 -0.9659252 -1.433434E-07
vn -0.2588212 -0.9659252 -1.433434E-07
vn -0.2588212 -0.9659252 -1.433434E-07
vn -0.2588212 -0.9659252 -1.433434E-07
vn -0.2588194 -0.9659257 0
vn -0.2588194 -0.9659257 0
vn -0.2588194 -0.9659257 0
vn -0.2588194 -0.9659257 0
vn -0.258819 -0.9659258 0
vn -0.258819 -0.9659258 0
vn -0.258819 -0.9659258 0
vn -0.258819 -0.9659258 0
vn 2.360648E-07 6.624199E-07 -1
vn 2.360648E-07 6.624198E-07 -1
vn 2.360648E-07 6.624199E-07 -1
vn 2.360648E-07 6.624199E-07 -1
vn -1.180323E-07 -3.312101E-07 1
vn -1.180323E-07 -3.312101E-07 1
vn -1.180323E-07 -3.312101E-07 1
vn -1.180323E-07 -3.312101E-07 1
vn -1.180316E-07 -3.312062E-07 1
vn -1.180316E-07 -3.312062E-07 1
vn -1.180316E-07 -3.312062E-07 1
vn -1.180316E-07 -3.312062E-07 1
vn 1.180316E-07 3.312062E-07 -1
vn 1.180316E-07 3.312062E-07 -1
vn 1.180316E-07 3.312062E-07 -1
vn 1.180316E-07 3.312062E-07 -1
vn -0.9659252 0.2588213 0
vn -0.9659252 0.2588212 0
vn -0.9659252 0.2588212 0
vn -0.9659252 0.2588213 0
vn 0.9659277 -0.2588121 0
vn 0.9659277 -0.2588121 0
vn 0.9659277 -0.2588121 0
vn 0.9659277 -0.2588121 0
vn -0.9659131 0.2588666 5.456612E-07
vn -0.9659131 0.2588665 5.456612E-07
vn -0.9659131 0.2588666 5.456613E-07
vn -0.9659131 0.2588665 5.456612E-07
vn 0.9659247 -0.2588233 0
vn 0.9659247 -0.2588233 0
vn 0.9659247 -0.2588233 0
vn 0.9659247 -0.2588233 0
g NuclearCity_GreenHouse_glass007_0
f 3/3/3 2/2/2 1/1/1
f 4/4/4 3/3/3 1/1/1
f 7/7/7 6/6/6 5/5/5
f 6/6/6 8/8/8 5/5/5
f 11/11/11 10/10/10 9/9/9
f 12/12/12 11/11/11 9/9/9
f 15/15/15 14/14/14 13/13/13
f 16/16/16 15/15/15 13/13/13
f 19/19/19 18/18/18 17/17/17
f 20/20/20 19/19/19 17/17/17
f 23/23/23 22/22/22 21/21/21
f 24/24/24 23/23/23 21/21/21
f 27/27/27 26/26/26 25/25/25
f 28/28/28 27/27/27 25/25/25
f 31/31/31 30/30/30 29/29/29
f 32/32/32 31/31/31 29/29/29
f 35/35/35 34/34/34 33/33/33
f 36/36/36 35/35/35 33/33/33
f 39/39/39 38/38/38 37/37/37
f 40/40/40 39/39/39 37/37/37
f 43/43/43 42/42/42 41/41/41
f 44/44/44 43/43/43 41/41/41
f 47/47/47 46/46/46 45/45/45
f 48/48/48 47/47/47 45/45/45
f 51/51/51 50/50/50 49/49/49
f 52/52/52 51/51/51 49/49/49
f 55/55/55 54/54/54 53/53/53
f 56/56/56 55/55/55 53/53/53
f 59/59/59 58/58/58 57/57/57
f 60/60/60 59/59/59 57/57/57
f 63/63/63 62/62/62 61/61/61
f 64/64/64 63/63/63 61/61/61
f 67/67/67 66/66/66 65/65/65
f 68/68/68 67/67/67 65/65/65
f 71/71/71 70/70/70 69/69/69
f 72/72/72 71/71/71 69/69/69
f 75/75/75 74/74/74 73/73/73
f 76/76/76 75/75/75 73/73/73
f 79/79/79 78/78/78 77/77/77
f 80/80/80 79/79/79 77/77/77
f 83/83/83 82/82/82 81/81/81
f 84/84/84 83/83/83 81/81/81
f 87/87/87 86/86/86 85/85/85
f 88/88/88 87/87/87 85/85/85
f 91/91/91 90/90/90 89/89/89
f 92/92/92 91/91/91 89/89/89
f 95/95/95 94/94/94 93/93/93
f 96/96/96 95/95/95 93/93/93
