g Object103
v 0.0123938 -0.5115185 0.02499969
v -0.9876062 0.4884814 0.02500061
v 0.0123938 0.4884814 0.02500091
v -0.9876062 -0.5115185 0.02499969
v 0.0123938 -0.5115137 -0.0250003
v 0.0123938 0.4884814 0.02500091
v 0.0123938 0.4884863 -0.02499908
v 0.0123938 -0.5115185 0.02499969
v 0.0123938 0.4884863 -0.02499908
v -0.9876062 0.4884814 0.02500061
v -0.9876062 0.4884863 -0.02499939
v 0.0123938 0.4884814 0.02500091
v -0.9876062 0.4884863 -0.02499939
v -0.9876062 -0.5115185 0.02499969
v -0.9876062 -0.5115137 -0.0250003
v -0.9876062 0.4884814 0.02500061
v -0.9876062 -0.5115137 -0.0250003
v 0.0123938 -0.5115185 0.02499969
v 0.0123938 -0.5115137 -0.0250003
v -0.9876062 -0.5115185 0.02499969
v 5.032142 -0.4979004 0.02499939
v 4.032142 0.5020996 0.02500061
v 5.032142 0.5020996 0.02500091
v 4.032142 -0.4979004 0.02499939
v 5.032142 -0.4979004 -0.02500061
v 5.032142 0.5020996 0.02500091
v 5.032142 0.5020996 -0.02499908
v 5.032142 -0.4979004 0.02499939
v 5.032142 0.5020996 -0.02499908
v 4.032142 0.5020996 0.02500061
v 4.032142 0.5020996 -0.02499939
v 5.032142 0.5020996 0.02500091
v 4.032142 0.5020996 -0.02499939
v 4.032142 -0.4979004 0.02499939
v 4.032142 -0.4979004 -0.02500061
v 4.032142 0.5020996 0.02500061
v 4.032142 -0.4979004 -0.02500061
v 5.032142 -0.4979004 0.02499939
v 5.032142 -0.4979004 -0.02500061
v 4.032142 -0.4979004 0.02499939
v -4.032141 -0.4884863 0.025
v -5.032141 0.5115137 0.02500091
v -4.032141 0.5115137 0.02500091
v -5.032141 -0.4884863 0.025
v -4.032141 -0.4884863 -0.025
v -4.032141 0.5115137 0.02500091
v -4.032141 0.5115137 -0.02499908
v -4.032141 -0.4884863 0.025
v -4.032141 0.5115137 -0.02499908
v -5.032141 0.5115137 0.02500091
v -5.032141 0.5115137 -0.02499908
v -4.032141 0.5115137 0.02500091
v -5.032141 0.5115137 -0.02499908
v -5.032141 -0.4884863 0.025
v -5.032141 -0.4884863 -0.025
v -5.032141 0.5115137 0.02500091
v -5.032141 -0.4884863 -0.025
v -4.032141 -0.4884863 0.025
v -4.032141 -0.4884863 -0.025
v -5.032141 -0.4884863 0.025
v -12.92411 -0.5115185 0.02499969
v -13.92411 0.4884814 0.02500061
v -12.92411 0.4884814 0.02500091
v -13.92411 -0.5115185 0.02499969
v -12.92411 -0.5115137 -0.0250003
v -12.92411 0.4884814 0.02500091
v -12.92411 0.4884863 -0.02499908
v -12.92411 -0.5115185 0.02499969
v -12.92411 0.4884863 -0.02499908
v -13.92411 0.4884814 0.02500061
v -13.92411 0.4884863 -0.02499939
v -12.92411 0.4884814 0.02500091
v -13.92411 0.4884863 -0.02499939
v -13.92411 -0.5115185 0.02499969
v -13.92411 -0.5115137 -0.0250003
v -13.92411 0.4884814 0.02500061
v -13.92411 -0.5115137 -0.0250003
v -12.92411 -0.5115185 0.02499969
v -12.92411 -0.5115137 -0.0250003
v -13.92411 -0.5115185 0.02499969
v -7.904361 -0.4979004 0.02499939
v -8.904362 0.5020996 0.02500061
v -7.904361 0.5020996 0.02500091
v -8.904362 -0.4979004 0.02499939
v -7.904361 -0.4979004 -0.02500061
v -7.904361 0.5020996 0.02500091
v -7.904361 0.5020996 -0.02499908
v -7.904361 -0.4979004 0.02499939
v -7.904361 0.5020996 -0.02499908
v -8.904362 0.5020996 0.02500061
v -8.904362 0.5020996 -0.02499939
v -7.904361 0.5020996 0.02500091
v -8.904362 0.5020996 -0.02499939
v -8.904362 -0.4979004 0.02499939
v -8.904362 -0.4979004 -0.02500061
v -8.904362 0.5020996 0.02500061
v -8.904362 -0.4979004 -0.02500061
v -7.904361 -0.4979004 0.02499939
v -7.904361 -0.4979004 -0.02500061
v -8.904362 -0.4979004 0.02499939
vt 0.4622121 0.4930237
vt 0.5002447 0.5310562
vt 0.5002447 0.4930237
vt 0.4622122 0.5310562
vt 0.4666837 0.5285444
vt 0.4944865 0.5299346
vt 0.4944865 0.5285444
vt 0.4666837 0.5299346
vt 0.4666837 0.5285444
vt 0.4944865 0.5299346
vt 0.4944865 0.5285444
vt 0.4666837 0.5299346
vt 0.4666837 0.5285444
vt 0.4944865 0.5299346
vt 0.4944865 0.5285444
vt 0.4666837 0.5299346
vt 0.4666837 0.5285444
vt 0.4944865 0.5299346
vt 0.4944865 0.5285444
vt 0.4666837 0.5299346
vt 0.4622121 0.4930237
vt 0.5002447 0.5310562
vt 0.5002447 0.4930237
vt 0.4622122 0.5310562
vt 0.4666837 0.5285444
vt 0.4944865 0.5299346
vt 0.4944865 0.5285444
vt 0.4666837 0.5299346
vt 0.4666837 0.5285444
vt 0.4944865 0.5299346
vt 0.4944865 0.5285444
vt 0.4666837 0.5299346
vt 0.4666837 0.5285444
vt 0.4944865 0.5299346
vt 0.4944865 0.5285444
vt 0.4666837 0.5299346
vt 0.4666837 0.5285444
vt 0.4944865 0.5299346
vt 0.4944865 0.5285444
vt 0.4666837 0.5299346
vt 0.4622121 0.4930237
vt 0.5002447 0.5310562
vt 0.5002447 0.4930237
vt 0.4622122 0.5310562
vt 0.4666837 0.5285444
vt 0.4944865 0.5299346
vt 0.4944865 0.5285444
vt 0.4666837 0.5299346
vt 0.4666837 0.5285444
vt 0.4944865 0.5299346
vt 0.4944865 0.5285444
vt 0.4666837 0.5299346
vt 0.4666837 0.5285444
vt 0.4944865 0.5299346
vt 0.4944865 0.5285444
vt 0.4666837 0.5299346
vt 0.4666837 0.5285444
vt 0.4944865 0.5299346
vt 0.4944865 0.5285444
vt 0.4666837 0.5299346
vt 0.4622121 0.4930237
vt 0.5002447 0.5310562
vt 0.5002447 0.4930237
vt 0.4622122 0.5310562
vt 0.4666837 0.5285444
vt 0.4944865 0.5299346
vt 0.4944865 0.5285444
vt 0.4666837 0.5299346
vt 0.4666837 0.5285444
vt 0.4944865 0.5299346
vt 0.4944865 0.5285444
vt 0.4666837 0.5299346
vt 0.4666837 0.5285444
vt 0.4944865 0.5299346
vt 0.4944865 0.5285444
vt 0.4666837 0.5299346
vt 0.4666837 0.5285444
vt 0.4944865 0.5299346
vt 0.4944865 0.5285444
vt 0.4666837 0.5299346
vt 0.4622121 0.4930237
vt 0.5002447 0.5310562
vt 0.5002447 0.4930237
vt 0.4622122 0.5310562
vt 0.4666837 0.5285444
vt 0.4944865 0.5299346
vt 0.4944865 0.5285444
vt 0.4666837 0.5299346
vt 0.4666837 0.5285444
vt 0.4944865 0.5299346
vt 0.4944865 0.5285444
vt 0.4666837 0.5299346
vt 0.4666837 0.5285444
vt 0.4944865 0.5299346
vt 0.4944865 0.5285444
vt 0.4666837 0.5299346
vt 0.4666837 0.5285444
vt 0.4944865 0.5299346
vt 0.4944865 0.5285444
vt 0.4666837 0.5299346
vn 0 0 1
vn 0 0 1
vn 0 0 1
vn 0 0 1
vn 1 0 0
vn 1 0 0
vn 1 0 0
vn 1 0 0
vn 0 1 9.765625E-05
vn 0 1 9.765625E-05
vn 0 1 9.765625E-05
vn 0 1 9.765625E-05
vn -1 0 0
vn -1 0 0
vn -1 0 0
vn -1 0 0
vn 0 -1 -9.765625E-05
vn 0 -1 -9.765625E-05
vn 0 -1 -9.765625E-05
vn 0 -1 -9.765625E-05
vn 0 0 1
vn 0 0 1
vn 0 0 1
vn 0 0 1
vn 1 0 0
vn 1 0 0
vn 1 0 0
vn 1 0 0
vn 0 1 0
vn 0 1 0
vn 0 1 0
vn 0 1 0
vn -1 0 0
vn -1 0 0
vn -1 0 0
vn -1 0 0
vn 0 -1 0
vn 0 -1 0
vn 0 -1 0
vn 0 -1 0
vn 0 0 1
vn 0 0 1
vn 0 0 1
vn 0 0 1
vn 1 0 0
vn 1 0 0
vn 1 0 0
vn 1 0 0
vn 0 1 0
vn 0 1 0
vn 0 1 0
vn 0 1 0
vn -1 0 0
vn -1 0 0
vn -1 0 0
vn -1 0 0
vn 0 -1 0
vn 0 -1 0
vn 0 -1 0
vn 0 -1 0
vn 0 0 1
vn 0 0 1
vn 0 0 1
vn 0 0 1
vn 1 0 0
vn 1 0 0
vn 1 0 0
vn 1 0 0
vn 0 1 9.765625E-05
vn 0 1 9.765625E-05
vn 0 1 9.765625E-05
vn 0 1 9.765625E-05
vn -1 0 0
vn -1 0 0
vn -1 0 0
vn -1 0 0
vn 0 -1 -9.765625E-05
vn 0 -1 -9.765625E-05
vn 0 -1 -9.765625E-05
vn 0 -1 -9.765625E-05
vn 0 0 1
vn 0 0 1
vn 0 0 1
vn 0 0 1
vn 1 0 0
vn 1 0 0
vn 1 0 0
vn 1 0 0
vn 0 1 0
vn 0 1 0
vn 0 1 0
vn 0 1 0
vn -1 0 0
vn -1 0 0
vn -1 0 0
vn -1 0 0
vn 0 -1 0
vn 0 -1 0
vn 0 -1 0
vn 0 -1 0
g Object103_0
f 3/3/3 2/2/2 1/1/1
f 4/4/4 1/1/1 2/2/2
f 7/7/7 6/6/6 5/5/5
f 8/8/8 5/5/5 6/6/6
f 11/11/11 10/10/10 9/9/9
f 12/12/12 9/9/9 10/10/10
f 15/15/15 14/14/14 13/13/13
f 16/16/16 13/13/13 14/14/14
f 19/19/19 18/18/18 17/17/17
f 20/20/20 17/17/17 18/18/18
f 23/23/23 22/22/22 21/21/21
f 24/24/24 21/21/21 22/22/22
f 27/27/27 26/26/26 25/25/25
f 28/28/28 25/25/25 26/26/26
f 31/31/31 30/30/30 29/29/29
f 32/32/32 29/29/29 30/30/30
f 35/35/35 34/34/34 33/33/33
f 36/36/36 33/33/33 34/34/34
f 39/39/39 38/38/38 37/37/37
f 40/40/40 37/37/37 38/38/38
f 43/43/43 42/42/42 41/41/41
f 44/44/44 41/41/41 42/42/42
f 47/47/47 46/46/46 45/45/45
f 48/48/48 45/45/45 46/46/46
f 51/51/51 50/50/50 49/49/49
f 52/52/52 49/49/49 50/50/50
f 55/55/55 54/54/54 53/53/53
f 56/56/56 53/53/53 54/54/54
f 59/59/59 58/58/58 57/57/57
f 60/60/60 57/57/57 58/58/58
f 63/63/63 62/62/62 61/61/61
f 64/64/64 61/61/61 62/62/62
f 67/67/67 66/66/66 65/65/65
f 68/68/68 65/65/65 66/66/66
f 71/71/71 70/70/70 69/69/69
f 72/72/72 69/69/69 70/70/70
f 75/75/75 74/74/74 73/73/73
f 76/76/76 73/73/73 74/74/74
f 79/79/79 78/78/78 77/77/77
f 80/80/80 77/77/77 78/78/78
f 83/83/83 82/82/82 81/81/81
f 84/84/84 81/81/81 82/82/82
f 87/87/87 86/86/86 85/85/85
f 88/88/88 85/85/85 86/86/86
f 91/91/91 90/90/90 89/89/89
f 92/92/92 89/89/89 90/90/90
f 95/95/95 94/94/94 93/93/93
f 96/96/96 93/93/93 94/94/94
f 99/99/99 98/98/98 97/97/97
f 100/100/100 97/97/97 98/98/98
