g Object770
v 0.643457 0.4710038 -1.32742
v 0.6434277 0.4710001 6.514276
v 0.6434277 0.7951993 6.51428
v 0.643457 0.7951835 -1.32742
v 0.3244775 0.4710038 -1.32742
v 0.324458 0.4710001 6.514276
v 0.6434277 0.4710001 6.514276
v 0.643457 0.4710038 -1.32742
v 0.3244775 0.7951835 -1.32742
v 0.324458 0.7951993 6.514276
v 0.324458 0.4710001 6.514276
v 0.3244775 0.4710038 -1.32742
v 0.643457 0.7951835 -1.32742
v 0.6434277 0.7951993 6.51428
v 0.324458 0.7951993 6.514276
v 0.3244775 0.7951835 -1.32742
v 1.87562 -0.9349552 2.884644
v 1.87561 2.201148 2.884663
v -0.9077002 2.201148 2.884655
v -0.9077002 -0.9349552 2.884635
v 1.87561 2.201148 2.884663
v 1.87561 2.201147 4.725686
v -0.9077002 2.201147 4.72568
v -0.9077002 2.201148 2.884655
v 1.87562 -0.9349552 2.884644
v 1.87561 -0.934956 4.725667
v 1.87561 2.201147 4.725686
v 1.87561 2.201148 2.884663
v -0.9077002 -0.9349552 2.884635
v -0.9077002 -0.934956 4.725658
v 1.87561 -0.934956 4.725667
v 1.87562 -0.9349552 2.884644
v -0.9077002 2.201148 2.884655
v -0.9077002 2.201147 4.72568
v -0.9077002 -0.934956 4.725658
v -0.9077002 -0.9349552 2.884635
v 1.497012 -0.5077178 0.8224039
v 1.497012 1.773893 0.8224245
v -0.5290918 1.773893 0.822416
v -0.5290918 -0.5077178 0.822399
v 1.497012 1.773893 0.8224245
v 1.497012 1.773893 2.14
v -0.5290918 1.773893 2.139995
v -0.5290918 1.773893 0.822416
v 1.497012 -0.5077178 0.8224039
v 1.497012 -0.5077185 2.139982
v 1.497012 1.773893 2.14
v 1.497012 1.773893 0.8224245
v -0.5290918 -0.5077178 0.822399
v -0.5290918 -0.5077185 2.139973
v 1.497012 -0.5077185 2.139982
v 1.497012 -0.5077178 0.8224039
v -0.5290918 1.773893 0.822416
v -0.5290918 1.773893 2.139995
v -0.5290918 -0.5077185 2.139973
v -0.5290918 -0.5077178 0.822399
v 1.092344 -0.03759024 -0.5958063
v 1.092334 1.303845 -0.5957959
v -0.1244043 1.303845 -0.5957885
v -0.1244043 -0.03759024 -0.5958014
v 1.092334 1.303845 -0.5957959
v 1.092334 1.303845 0.226532
v -0.1244043 1.303845 0.226532
v -0.1244043 1.303845 -0.5957885
v 1.092344 -0.03759024 -0.5958063
v 1.092334 -0.03759064 0.2265179
v 1.092334 1.303845 0.226532
v 1.092334 1.303845 -0.5957959
v -0.1244043 -0.03759024 -0.5958014
v -0.1244043 -0.03759064 0.2265179
v 1.092334 -0.03759064 0.2265179
v 1.092344 -0.03759024 -0.5958063
v -0.1244043 1.303845 -0.5957885
v -0.1244043 1.303845 0.226532
v -0.1244043 -0.03759064 0.2265179
v -0.1244043 -0.03759024 -0.5958014
v 0.8232959 0.2605254 -1.496121
v 0.8232959 1.005672 -1.496121
v 0.1446338 1.005672 -1.496121
v 0.1446338 0.2605254 -1.496121
v 0.8232959 1.005672 -1.496121
v 0.8232959 1.005672 -1.053716
v 0.1446338 1.005672 -1.053716
v 0.1446338 1.005672 -1.496121
v 0.8232959 0.2605254 -1.496121
v 0.8232959 0.2605252 -1.053716
v 0.8232959 1.005672 -1.053716
v 0.8232959 1.005672 -1.496121
v 0.1446338 0.2605254 -1.496121
v 0.1446338 0.2605252 -1.053716
v 0.8232959 0.2605252 -1.053716
v 0.8232959 0.2605254 -1.496121
v 0.1446338 1.005672 -1.496121
v 0.1446338 1.005672 -1.053716
v 0.1446338 0.2605252 -1.053716
v 0.1446338 0.2605254 -1.496121
vt -9.917699 2.055913
vt -9.917699 1.494458
vt -9.94091 1.494458
vt -9.940909 2.055913
vt -1.055913 -6.441655
vt -0.4944584 -6.441653
vt -0.4944584 -6.464492
vt -1.055913 -6.464494
vt 10.94091 2.055913
vt 10.94091 1.494458
vt 10.9177 1.494458
vt 10.9177 2.055913
vt 2.055913 -6.464494
vt 1.494458 -6.464492
vt 1.494458 -6.441653
vt 2.055913 -6.441655
vt -9.817034 -6.552714
vt -10.04157 -6.552714
vt -10.04157 -6.353433
vt -9.817034 -6.353433
vt 1.754334 -6.552714
vt 1.622519 -6.552714
vt 1.622519 -6.353433
vt 1.754334 -6.353433
vt -9.817034 1.754335
vt -9.817034 1.62252
vt -10.04157 1.622519
vt -10.04157 1.754334
vt -0.7543355 -6.353433
vt -0.6225208 -6.353433
vt -0.6225202 -6.552714
vt -0.7543349 -6.552714
vt 11.04157 1.754334
vt 11.04157 1.622519
vt 10.81703 1.622521
vt 10.81703 1.754336
vt -9.847623 -6.525607
vt -10.01098 -6.525607
vt -10.01098 -6.380541
vt -9.847623 -6.380541
vt 1.901987 -6.525607
vt 1.807651 -6.525607
vt 1.807651 -6.380541
vt 1.901988 -6.380541
vt -9.847623 1.901989
vt -9.847623 1.807652
vt -10.01098 1.807651
vt -10.01098 1.901987
vt -0.9019889 -6.380541
vt -0.8076524 -6.380541
vt -0.8076518 -6.525607
vt -0.9019885 -6.525607
vt 11.01098 1.901988
vt 11.01098 1.807651
vt 10.84762 1.807652
vt 10.84762 1.901989
vt -9.881284 -6.496634
vt -9.977328 -6.496633
vt -9.977328 -6.409516
vt -9.881284 -6.409516
vt 2.00353 -6.496633
vt 1.944652 -6.496633
vt 1.944652 -6.409516
vt 2.003529 -6.409516
vt -9.881284 2.003531
vt -9.881284 1.944653
vt -9.977328 1.944652
vt -9.977328 2.00353
vt -1.00353 -6.409516
vt -0.9446532 -6.409516
vt -0.9446532 -6.496633
vt -1.003531 -6.496634
vt 10.97733 2.003529
vt 10.97733 1.944652
vt 10.88128 1.944653
vt 10.88128 2.00353
vt -9.902628 -6.47737
vt -9.955979 -6.47737
vt -9.955979 -6.428779
vt -9.902628 -6.428779
vt 2.067992 -6.47737
vt 2.036316 -6.47737
vt 2.036316 -6.428779
vt 2.067992 -6.428779
vt -9.902628 2.067992
vt -9.902628 2.036316
vt -9.955979 2.036316
vt -9.955979 2.067992
vt -1.067992 -6.428779
vt -1.036316 -6.428779
vt -1.036316 -6.47737
vt -1.067992 -6.47737
vt 10.95598 2.067992
vt 10.95598 2.036316
vt 10.90263 2.036316
vt 10.90263 2.067992
vn 1 0 3.736037E-06
vn 1 0 3.736038E-06
vn 1 0 3.736038E-06
vn 1 0 3.736038E-06
vn 0 -1 -4.768372E-07
vn 0 -1 -4.768372E-07
vn 0 -1 -4.768372E-07
vn 0 -1 -4.768372E-07
vn -1 0 -2.490692E-06
vn -1 0 -2.490692E-06
vn -1 0 -2.490692E-06
vn -1 0 -2.490692E-06
vn 0 1 -2.013855E-06
vn 0 1 -2.013855E-06
vn 0 1 -2.013855E-06
vn 0 1 -2.013854E-06
vn 3.070051E-06 6.315471E-06 -1
vn 3.070051E-06 6.315472E-06 -1
vn 3.070051E-06 6.315471E-06 -1
vn 3.070051E-06 6.315471E-06 -1
vn 0 1 4.768372E-07
vn 0 1 4.768372E-07
vn 0 1 4.768372E-07
vn 0 1 4.768372E-07
vn 1 1.556951E-06 2.652229E-06
vn 1 1.556951E-06 2.652229E-06
vn 1 1.556951E-06 2.652229E-06
vn 1 1.556951E-06 2.652229E-06
vn 0 -1 -4.768372E-07
vn 0 -1 -4.768372E-07
vn 0 -1 -4.768372E-07
vn 0 -1 -4.768372E-07
vn -1 0 0
vn -1 0 0
vn -1 0 0
vn -1 0 0
vn 3.313684E-06 8.234599E-06 -1
vn 3.313684E-06 8.234599E-06 -1
vn 3.313684E-06 8.234599E-06 -1
vn 3.313684E-06 8.234599E-06 -1
vn 0 1 4.768372E-07
vn 0 1 4.768372E-07
vn 0 1 4.768372E-07
vn 0 1 4.768372E-07
vn 1 0 0
vn 1 0 0
vn 1 0 0
vn 1 0 0
vn 0 -1 -4.768372E-07
vn 0 -1 -4.768372E-07
vn 0 -1 -4.768372E-07
vn 0 -1 -4.768372E-07
vn -1 0 0
vn -1 0 0
vn -1 0 0
vn -1 0 0
vn -5.016273E-06 8.666798E-06 -1
vn -5.016273E-06 8.666798E-06 -1
vn -5.016273E-06 8.666798E-06 -1
vn -5.016273E-06 8.666798E-06 -1
vn 0 1 4.768372E-07
vn 0 1 4.768372E-07
vn 0 1 4.768372E-07
vn 0 1 4.768372E-07
vn 1 3.639936E-06 5.937808E-06
vn 1 3.639936E-06 5.937807E-06
vn 1 3.639936E-06 5.937807E-06
vn 1 3.639936E-06 5.937808E-06
vn 0 -1 -4.768372E-07
vn 0 -1 -4.768372E-07
vn 0 -1 -4.768372E-07
vn 0 -1 -4.768372E-07
vn -1 0 0
vn -1 0 0
vn -1 0 0
vn -1 0 0
vn 0 4.768372E-07 -1
vn 0 4.768372E-07 -1
vn 0 4.768372E-07 -1
vn 0 4.768372E-07 -1
vn 0 1 4.768372E-07
vn 0 1 4.768372E-07
vn 0 1 4.768372E-07
vn 0 1 4.768372E-07
vn 1 0 0
vn 1 0 0
vn 1 0 0
vn 1 0 0
vn 0 -1 -4.768372E-07
vn 0 -1 -4.768372E-07
vn 0 -1 -4.768372E-07
vn 0 -1 -4.768372E-07
vn -1 0 0
vn -1 0 0
vn -1 0 0
vn -1 0 0
g Object770_0
f 3/3/3 2/2/2 1/1/1
f 4/4/4 3/3/3 1/1/1
f 7/7/7 6/6/6 5/5/5
f 8/8/8 7/7/7 5/5/5
f 11/11/11 10/10/10 9/9/9
f 12/12/12 11/11/11 9/9/9
f 15/15/15 14/14/14 13/13/13
f 16/16/16 15/15/15 13/13/13
g Object770_1
f 19/19/19 18/18/18 17/17/17
f 20/20/20 19/19/19 17/17/17
f 23/23/23 22/22/22 21/21/21
f 24/24/24 23/23/23 21/21/21
f 27/27/27 26/26/26 25/25/25
f 28/28/28 27/27/27 25/25/25
f 31/31/31 30/30/30 29/29/29
f 32/32/32 31/31/31 29/29/29
f 35/35/35 34/34/34 33/33/33
f 36/36/36 35/35/35 33/33/33
f 39/39/39 38/38/38 37/37/37
f 40/40/40 39/39/39 37/37/37
f 43/43/43 42/42/42 41/41/41
f 44/44/44 43/43/43 41/41/41
f 47/47/47 46/46/46 45/45/45
f 48/48/48 47/47/47 45/45/45
f 51/51/51 50/50/50 49/49/49
f 52/52/52 51/51/51 49/49/49
f 55/55/55 54/54/54 53/53/53
f 56/56/56 55/55/55 53/53/53
f 59/59/59 58/58/58 57/57/57
f 60/60/60 59/59/59 57/57/57
f 63/63/63 62/62/62 61/61/61
f 64/64/64 63/63/63 61/61/61
f 67/67/67 66/66/66 65/65/65
f 68/68/68 67/67/67 65/65/65
f 71/71/71 70/70/70 69/69/69
f 72/72/72 71/71/71 69/69/69
f 75/75/75 74/74/74 73/73/73
f 76/76/76 75/75/75 73/73/73
f 79/79/79 78/78/78 77/77/77
f 80/80/80 79/79/79 77/77/77
f 83/83/83 82/82/82 81/81/81
f 84/84/84 83/83/83 81/81/81
f 87/87/87 86/86/86 85/85/85
f 88/88/88 87/87/87 85/85/85
f 91/91/91 90/90/90 89/89/89
f 92/92/92 91/91/91 89/89/89
f 95/95/95 94/94/94 93/93/93
f 96/96/96 95/95/95 93/93/93
