# Mesh "Object001" exported with Unity Assets Bundle Extractor; 72 vertices, 108 indices, 48 bytes per vertex
g Object001
# SubMesh 0
# Vertices
v -0.080197 -0.127667 -0.125001
vt 0.812520 0.374978
vn -1.000000 0.000000 -0.000001
v -0.080197 0.058021 0.625000
vt 0.874906 0.000277
vn -1.000000 0.000000 -0.000001
v -0.080197 -0.127669 0.624999
vt 0.812520 0.000277
vn -1.000000 0.000000 -0.000001
v -0.080197 0.058024 -0.125000
vt 0.874906 0.374978
vn -1.000000 0.000000 -0.000001
v 0.096803 -0.127670 0.624999
vt 0.749841 0.000668
vn 1.000000 -0.000000 0.000001
v 0.096803 0.058021 0.625000
vt 0.687655 0.000668
vn 1.000000 -0.000000 0.000001
v 0.096804 0.058024 -0.125000
vt 0.687655 0.374733
vn 1.000000 -0.000000 0.000001
v 0.096804 -0.127667 -0.125000
vt 0.749841 0.374733
vn 1.000000 -0.000000 0.000001
v 0.096803 0.058021 0.625000
vt 0.812428 0.499567
vn -0.000001 -0.000003 1.000000
v 0.096803 -0.127670 0.624999
vt 0.750235 0.499567
vn -0.000001 -0.000003 1.000000
v -0.080197 -0.127669 0.624999
vt 0.750235 0.375194
vn -0.000001 -0.000003 1.000000
v -0.080197 0.058021 0.625000
vt 0.812428 0.375194
vn -0.000001 -0.000003 1.000000
v 0.096803 -0.127670 0.624999
vt 0.750077 0.000492
vn -0.000000 -1.000000 -0.000003
v 0.096804 -0.127667 -0.125000
vt 0.750077 0.374866
vn -0.000000 -1.000000 -0.000003
v -0.080197 -0.127667 -0.125001
vt 0.812329 0.374867
vn -0.000000 -1.000000 -0.000003
v -0.080197 -0.127669 0.624999
vt 0.812329 0.000492
vn -0.000000 -1.000000 -0.000003
v 0.096804 -0.127667 -0.125000
vt 0.687622 0.375321
vn 0.000001 0.000003 -1.000000
v 0.096804 0.058024 -0.125000
vt 0.749881 0.375321
vn 0.000001 0.000003 -1.000000
v -0.080197 -0.127667 -0.125001
vt 0.687622 0.499776
vn 0.000001 0.000003 -1.000000
v -0.080197 0.058024 -0.125000
vt 0.749881 0.499776
vn 0.000001 0.000003 -1.000000
v -0.080197 0.058021 0.625000
vt 0.625148 0.000238
vn 0.000000 1.000000 0.000003
v -0.080197 0.058024 -0.125000
vt 0.625148 0.374751
vn 0.000000 1.000000 0.000003
v 0.096804 0.058024 -0.125000
vt 0.687376 0.374750
vn 0.000000 1.000000 0.000003
v 0.096803 0.058021 0.625000
vt 0.687376 0.000238
vn 0.000000 1.000000 0.000003
v -0.096522 0.079055 0.125444
vt 0.750000 0.250000
vn -0.000000 -0.000003 1.000000
v 0.115704 0.079055 0.125444
vt 0.687500 0.250000
vn -0.000000 -0.000003 1.000000
v 0.115704 -0.128908 0.125444
vt 0.687500 0.375000
vn -0.000000 -0.000003 1.000000
v -0.096522 -0.128908 0.125444
vt 0.750000 0.375000
vn -0.000000 -0.000003 1.000000
v -0.096522 -0.128907 -0.126850
vt 0.750000 0.500000
vn 0.000000 0.000003 -1.000000
v 0.115704 -0.128907 -0.126850
vt 0.750000 0.375000
vn 0.000000 0.000003 -1.000000
v 0.115704 0.079056 -0.126849
vt 0.687500 0.375000
vn 0.000000 0.000003 -1.000000
v -0.096522 0.079056 -0.126849
vt 0.687500 0.500000
vn 0.000000 0.000003 -1.000000
v 0.115704 -0.128908 0.125444
vt 0.750000 0.250000
vn 1.000000 -0.000000 0.000000
v 0.115704 0.079055 0.125444
vt 0.687500 0.250000
vn 1.000000 -0.000000 0.000000
v 0.115704 0.079056 -0.126849
vt 0.687500 0.375000
vn 1.000000 -0.000000 0.000000
v 0.115704 -0.128907 -0.126850
vt 0.750000 0.375000
vn 1.000000 -0.000000 0.000000
v -0.096522 -0.128908 0.125444
vt 0.812500 0.375000
vn -0.000000 -1.000000 -0.000003
v 0.115704 -0.128908 0.125444
vt 0.812500 0.250000
vn -0.000000 -1.000000 -0.000003
v 0.115704 -0.128907 -0.126850
vt 0.750000 0.250000
vn -0.000000 -1.000000 -0.000003
v -0.096522 -0.128907 -0.126850
vt 0.750000 0.375000
vn -0.000000 -1.000000 -0.000003
v -0.096522 0.079055 0.125444
vt 0.812500 0.375000
vn -1.000000 0.000000 0.000000
v -0.096522 -0.128908 0.125444
vt 0.812500 0.250000
vn -1.000000 0.000000 0.000000
v -0.096522 -0.128907 -0.126850
vt 0.875000 0.250000
vn -1.000000 0.000000 0.000000
v -0.096522 0.079056 -0.126849
vt 0.875000 0.375000
vn -1.000000 0.000000 0.000000
v 0.115704 0.079055 0.125444
vt 0.687500 0.250000
vn 0.000000 1.000000 0.000003
v -0.096522 0.079055 0.125444
vt 0.625000 0.250000
vn 0.000000 1.000000 0.000003
v 0.115704 0.079056 -0.126849
vt 0.687500 0.375000
vn 0.000000 1.000000 0.000003
v -0.096522 0.079056 -0.126849
vt 0.625000 0.375000
vn 0.000000 1.000000 0.000003
v -0.092614 0.078255 0.635190
vt 0.750000 0.375000
vn -0.000000 -0.000003 1.000000
v 0.111797 0.078255 0.635190
vt 0.750000 0.500000
vn -0.000000 -0.000003 1.000000
v 0.111797 -0.128331 0.635190
vt 0.812500 0.500000
vn -0.000000 -0.000003 1.000000
v -0.092614 -0.128331 0.635190
vt 0.812500 0.375000
vn -0.000000 -0.000003 1.000000
v 0.111797 -0.128331 0.434038
vt 0.625000 0.000000
vn -0.000000 0.000003 -1.000000
v 0.111797 0.078256 0.434038
vt 0.687500 0.000000
vn -0.000000 0.000003 -1.000000
v -0.092614 0.078256 0.434038
vt 0.687500 0.093750
vn -0.000000 0.000003 -1.000000
v -0.092614 -0.128331 0.434038
vt 0.625000 0.093750
vn -0.000000 0.000003 -1.000000
v 0.111797 -0.128331 0.434038
vt 0.750000 0.093750
vn 1.000000 -0.000000 0.000000
v 0.111797 -0.128331 0.635190
vt 0.750000 -0.000000
vn 1.000000 -0.000000 0.000000
v 0.111797 0.078255 0.635190
vt 0.687500 -0.000000
vn 1.000000 -0.000000 0.000000
v 0.111797 0.078256 0.434038
vt 0.687500 0.093750
vn 1.000000 -0.000000 0.000000
v -0.092614 -0.128331 0.434038
vt 0.812500 0.093750
vn -0.000000 -1.000000 -0.000003
v -0.092614 -0.128331 0.635190
vt 0.812500 -0.000000
vn -0.000000 -1.000000 -0.000003
v 0.111797 -0.128331 0.635190
vt 0.750000 -0.000000
vn -0.000000 -1.000000 -0.000003
v 0.111797 -0.128331 0.434038
vt 0.750000 0.093750
vn -0.000000 -1.000000 -0.000003
v -0.092614 0.078255 0.635190
vt 0.875000 0.000000
vn -1.000000 0.000000 0.000000
v -0.092614 -0.128331 0.635190
vt 0.812500 0.000000
vn -1.000000 0.000000 0.000000
v -0.092614 -0.128331 0.434038
vt 0.812500 0.093750
vn -1.000000 0.000000 0.000000
v -0.092614 0.078256 0.434038
vt 0.875000 0.093750
vn -1.000000 0.000000 0.000000
v 0.111797 0.078255 0.635190
vt 0.687500 -0.000000
vn 0.000000 1.000000 0.000003
v -0.092614 0.078255 0.635190
vt 0.625000 -0.000000
vn 0.000000 1.000000 0.000003
v -0.092614 0.078256 0.434038
vt 0.625000 0.093750
vn 0.000000 1.000000 0.000003
v 0.111797 0.078256 0.434038
vt 0.687500 0.093750
vn 0.000000 1.000000 0.000003
# Faces (1 to 72)
f -70/-70/-70 -71/-71/-71 -72/-72/-72
f -69/-69/-69 -72/-72/-72 -71/-71/-71
f -66/-66/-66 -67/-67/-67 -68/-68/-68
f -68/-68/-68 -65/-65/-65 -66/-66/-66
f -62/-62/-62 -63/-63/-63 -64/-64/-64
f -64/-64/-64 -61/-61/-61 -62/-62/-62
f -58/-58/-58 -59/-59/-59 -60/-60/-60
f -60/-60/-60 -57/-57/-57 -58/-58/-58
f -54/-54/-54 -55/-55/-55 -56/-56/-56
f -53/-53/-53 -55/-55/-55 -54/-54/-54
f -50/-50/-50 -51/-51/-51 -52/-52/-52
f -52/-52/-52 -49/-49/-49 -50/-50/-50
f -46/-46/-46 -47/-47/-47 -48/-48/-48
f -48/-48/-48 -45/-45/-45 -46/-46/-46
f -42/-42/-42 -43/-43/-43 -44/-44/-44
f -44/-44/-44 -41/-41/-41 -42/-42/-42
f -38/-38/-38 -39/-39/-39 -40/-40/-40
f -40/-40/-40 -37/-37/-37 -38/-38/-38
f -34/-34/-34 -35/-35/-35 -36/-36/-36
f -36/-36/-36 -33/-33/-33 -34/-34/-34
f -30/-30/-30 -31/-31/-31 -32/-32/-32
f -32/-32/-32 -29/-29/-29 -30/-30/-30
f -26/-26/-26 -27/-27/-27 -28/-28/-28
f -26/-26/-26 -25/-25/-25 -27/-27/-27
f -22/-22/-22 -23/-23/-23 -24/-24/-24
f -24/-24/-24 -21/-21/-21 -22/-22/-22
f -18/-18/-18 -19/-19/-19 -20/-20/-20
f -20/-20/-20 -17/-17/-17 -18/-18/-18
f -14/-14/-14 -15/-15/-15 -16/-16/-16
f -16/-16/-16 -13/-13/-13 -14/-14/-14
f -10/-10/-10 -11/-11/-11 -12/-12/-12
f -12/-12/-12 -9/-9/-9 -10/-10/-10
f -6/-6/-6 -7/-7/-7 -8/-8/-8
f -8/-8/-8 -5/-5/-5 -6/-6/-6
f -2/-2/-2 -3/-3/-3 -4/-4/-4
f -4/-4/-4 -1/-1/-1 -2/-2/-2

