g Object003
v -0.8538536 -0.5000008 0.2888486
v -0.595035 0.4999998 -0.6770768
v -0.8538536 0.4999998 0.2888486
v -0.5950333 -0.5000008 -0.6770768
v 0.595036 -0.4999992 0.6770773
v 0.8538547 0.4999998 -0.288848
v 0.8538547 -0.4999992 -0.288848
v 0.5950345 0.4999998 0.6770773
v 0.5950345 0.4999998 0.6770773
v -0.595035 0.4999998 -0.6770768
v 0.8538547 0.4999998 -0.288848
v -0.8538536 0.4999998 0.2888486
v 0.595036 -0.4999992 0.6770773
v -0.8538536 0.4999998 0.2888486
v 0.5950345 0.4999998 0.6770773
v -0.8538536 -0.5000008 0.2888486
v 0.8538547 -0.4999992 -0.288848
v -0.8538536 -0.5000008 0.2888486
v 0.595036 -0.4999992 0.6770773
v -0.5950333 -0.5000008 -0.6770768
v 0.8538547 0.4999998 -0.288848
v -0.5950333 -0.5000008 -0.6770768
v 0.8538547 -0.4999992 -0.288848
v -0.595035 0.4999998 -0.6770768
vt 0.03296123 0.9979458
vt 0.002049864 0.9669585
vt 0.002049864 0.9979458
vt 0.03296123 0.9669585
vt 0.002034667 0.9979914
vt 0.03297642 0.9669585
vt 0.002034667 0.9669585
vt 0.03297642 0.9979914
vt 0.002201837 0.9220504
vt 0.03294603 0.9665938
vt 0.03294603 0.9220504
vt 0.002201837 0.9665938
vt 0.002201837 0.92202
vt 0.03297642 0.9665938
vt 0.03297642 0.92202
vt 0.002201837 0.9665938
vt 0.002217035 0.92202
vt 0.03296123 0.9665786
vt 0.03296123 0.92202
vt 0.002217035 0.9665786
vt 0.002217035 0.9220504
vt 0.03297642 0.9665938
vt 0.03297642 0.9220504
vt 0.002217035 0.9665938
vn -0.966764 -0.0009775162 -0.2556686
vn -0.966764 -0.0009775162 -0.2556686
vn -0.966764 -0.0009775162 -0.2556686
vn -0.966764 -0.0009775162 -0.2556686
vn 0.966764 0.0009775162 0.2556686
vn 0.966764 0.0009775162 0.2556686
vn 0.966764 0.0009775162 0.2556686
vn 0.966764 0.0009775162 0.2556686
vn -0.0009775162 0.9999995 0
vn -0.0009775162 0.9999995 0
vn -0.0009775162 0.9999995 0
vn -0.0009775162 0.9999995 0
vn -0.2590419 0.0009775162 0.9658656
vn -0.2590419 0.0009775162 0.9658656
vn -0.2590419 0.0009775162 0.9658656
vn -0.2590419 -0.0009775162 0.9658656
vn 0.0009775162 -0.9999995 0
vn 0.0009775162 -0.9999995 0
vn 0.0009775162 -0.9999995 0
vn 0.0009775162 -0.9999995 0
vn 0.2590419 0.0009775162 -0.9658656
vn 0.2590419 0.0009775162 -0.9658656
vn 0.2590419 0.0009775162 -0.9658656
vn 0.2590419 0.0009775162 -0.9658656
g Object003_0
f 3/3/3 2/2/2 1/1/1
f 4/4/4 1/1/1 2/2/2
f 7/7/7 6/6/6 5/5/5
f 8/8/8 5/5/5 6/6/6
f 11/11/11 10/10/10 9/9/9
f 12/12/12 9/9/9 10/10/10
f 15/15/15 14/14/14 13/13/13
f 16/16/16 13/13/13 14/14/14
f 19/19/19 18/18/18 17/17/17
f 20/20/20 17/17/17 18/18/18
f 23/23/23 22/22/22 21/21/21
f 24/24/24 21/21/21 22/22/22
