g Object006
v 10.99281 100.4569 4.809146
v 10.99281 100.4569 1.541138E-05
v 9.329188 100.4482 4.809146
v 8.377581 100.4482 3.95914
v 8.377581 100.4482 0.1361175
v 4.805164 100.4482 3.95914
v 3.853556 100.4482 4.809146
v 7.841372 100.4482 5.561506
v 9.329188 100.4482 5.561506
v 5.341372 100.4482 5.561506
v 5.341372 100.4482 6.061507
v 7.841372 100.4482 6.061507
v 3.853556 100.4482 5.561506
v 4.805164 100.4482 0.1361175
v 2.161912 100.4482 1.541138E-05
v 2.161912 100.4482 4.809146
v 10.99281 100.4569 4.809146
v 10.99281 108.0257 1.647949E-05
v 10.99281 100.4569 1.541138E-05
v 10.99281 108.0257 4.809147
v 9.329188 100.4482 4.809146
v 10.99281 108.0257 4.809147
v 10.99281 100.4569 4.809146
v 9.329188 108.0257 4.809147
v 9.329188 100.4482 5.561506
v 9.329188 108.0257 4.809147
v 9.329188 100.4482 4.809146
v 9.329188 108.0257 5.561507
v 7.841372 100.4482 5.561506
v 9.329188 108.0257 5.561507
v 9.329188 100.4482 5.561506
v 7.841372 108.0257 5.561507
v 7.841372 100.4482 6.061507
v 7.841372 108.0257 5.561507
v 7.841372 100.4482 5.561506
v 7.841372 108.0257 6.061506
v 5.341372 100.4482 6.061507
v 7.841372 108.0257 6.061506
v 7.841372 100.4482 6.061507
v 5.341372 108.0257 6.061506
v 5.341372 100.4482 5.561506
v 5.341372 108.0257 6.061506
v 5.341372 100.4482 6.061507
v 5.341372 108.0257 5.561507
v 3.853556 100.4482 5.561506
v 5.341372 108.0257 5.561507
v 5.341372 100.4482 5.561506
v 3.853556 108.0257 5.561507
v 3.853556 100.4482 4.809146
v 3.853556 108.0257 5.561507
v 3.853556 100.4482 5.561506
v 3.853556 108.0257 4.809147
v 2.161912 100.4482 4.809146
v 3.853556 108.0257 4.809147
v 3.853556 100.4482 4.809146
v 2.161912 108.0257 4.809147
v 2.161912 100.4482 1.541138E-05
v 2.161912 108.0257 4.809147
v 2.161912 100.4482 4.809146
v 2.161912 108.0257 1.647949E-05
v 10.45088 100.5723 0.03927108
v 10.45088 108.0256 4.310684
v 10.45088 100.5723 4.310683
v 10.45088 108.0256 0.03927216
v 2.703839 100.581 4.310683
v 2.703839 108.0256 0.03927216
v 2.703839 100.581 0.03927109
v 2.703839 108.0256 4.310684
v 2.703839 100.581 0.03927109
v 10.45088 108.0256 0.03927216
v 10.45088 100.5723 0.03927108
v 2.703839 108.0256 0.03927216
v 8.377581 100.4482 0.1361175
v 8.377581 100.5723 3.95914
v 8.377581 100.4482 3.95914
v 8.377581 100.5723 0.1361175
v 4.805164 100.4482 3.95914
v 4.805164 100.5723 0.1361175
v 4.805164 100.4482 0.1361175
v 4.805164 100.5723 3.95914
v 8.377581 100.4482 3.95914
v 4.805164 100.5723 3.95914
v 4.805164 100.4482 3.95914
v 8.377581 100.5723 3.95914
v 4.805164 100.4482 0.1361175
v 8.377581 100.5723 0.1361175
v 8.377581 100.4482 0.1361175
v 4.805164 100.5723 0.1361175
v 8.957703 100.5723 4.310683
v 10.45088 108.0256 4.310684
v 8.957703 108.0256 4.310684
v 10.45088 100.5723 4.310683
v 8.377581 100.5723 0.1361175
v 10.45088 100.5723 4.310683
v 8.377581 100.5723 3.95914
v 10.45088 100.5723 0.03927108
v 8.957703 100.5723 4.310683
v 4.225039 100.5723 4.310683
v 4.805164 100.5723 3.95914
v 2.703839 100.581 4.310683
v 2.703839 100.581 0.03927109
v 4.805164 100.5723 0.1361175
v 4.225039 100.5723 5.222556
v 8.957703 100.5723 5.222556
v 4.225039 108.0256 4.310684
v 2.703839 100.581 4.310683
v 4.225039 100.5723 4.310683
v 2.703839 108.0256 4.310684
v 8.957703 108.0256 4.310684
v 8.957703 100.5723 5.222556
v 8.957703 100.5723 4.310683
v 8.957703 108.0256 5.222557
v 4.225039 100.5723 4.310683
v 4.225039 108.0256 5.222557
v 4.225039 108.0256 4.310684
v 4.225039 100.5723 5.222556
v 8.957703 108.0256 5.222557
v 4.225039 100.5723 5.222556
v 8.957703 100.5723 5.222556
v 4.225039 108.0256 5.222557
vt 0.2011719 0.6972656
vt 0.2011719 0.5927734
vt 0.162337 0.6975232
vt 0.1382814 0.6796146
vt 0.1382814 0.5962654
vt 0.06530338 0.6796146
vt 0.04069058 0.6975232
vt 0.1311137 0.7113503
vt 0.162337 0.7113503
vt 0.07575044 0.7113503
vt 0.07575044 0.7235381
vt 0.1311137 0.7235381
vt 0.04069058 0.7113503
vt 0.06530338 0.5962654
vt 0.002929688 0.5927734
vt 0.002929688 0.6972656
vt 0.3533117 0.4570313
vt 0.1765136 0.5585938
vt 0.3533117 0.5585938
vt 0.1765136 0.4570312
vt 0.1769745 0.4912109
vt 0.353483 0.4582623
vt 0.1771756 0.4576705
vt 0.3535533 0.4912109
vt 0.3525391 0.4570313
vt 0.1759634 0.4707391
vt 0.3525391 0.46875
vt 0.1760315 0.4570312
vt 0.1764796 0.4873047
vt 0.3534817 0.4570313
vt 0.1764796 0.4570313
vt 0.3534817 0.4873047
vt 0.3525391 0.4570313
vt 0.1760315 0.46875
vt 0.3525391 0.46875
vt 0.1760315 0.4570313
vt 0.1769742 0.5146484
vt 0.3534817 0.4570313
vt 0.1769742 0.4570313
vt 0.3534817 0.5146484
vt 0.1764796 0.46875
vt 0.3534817 0.4570313
vt 0.1764796 0.4570313
vt 0.3534817 0.46875
vt 0.1769742 0.4863281
vt 0.3534817 0.4570313
vt 0.1769742 0.4570313
vt 0.3534817 0.4863281
vt 0.1764796 0.46875
vt 0.3534817 0.4570312
vt 0.1764796 0.4570313
vt 0.3534817 0.46875
vt 0.1764796 0.4912109
vt 0.3534817 0.4570313
vt 0.1764796 0.4570313
vt 0.3534817 0.4912109
vt 0.1764796 0.5585938
vt 0.3534817 0.4570312
vt 0.1764796 0.4570313
vt 0.3534814 0.5585938
vt 0.1829367 0.5566406
vt 0.3566546 0.4570312
vt 0.1829367 0.4570313
vt 0.3566546 0.5566406
vt 0.3533121 0.4570313
vt 0.1797975 0.5566406
vt 0.3533121 0.5566406
vt 0.1797975 0.4570312
vt 0.2332726 0.5843067
vt 0.355731 0.4570313
vt 0.233129 0.4570313
vt 0.3557312 0.5843067
vt 0.2636719 0.4570313
vt 0.3535156 0.4609375
vt 0.3535156 0.4570313
vt 0.2636719 0.4609375
vt 0.3535156 0.4609375
vt 0.2646484 0.4570313
vt 0.2646484 0.4609375
vt 0.3535156 0.4570313
vt 0.2695313 0.4570313
vt 0.3535156 0.4609375
vt 0.3535156 0.4570313
vt 0.2695313 0.4609375
vt 0.3535156 0.4609375
vt 0.2705078 0.4570313
vt 0.2705078 0.4609375
vt 0.3535156 0.4570313
vt 0.3518105 0.4989404
vt 0.179827 0.4570313
vt 0.179827 0.4989404
vt 0.3518105 0.4570313
vt 0.3027344 0.5771484
vt 0.3535156 0.4746094
vt 0.3027344 0.4833984
vt 0.3535156 0.5791016
vt 0.3173828 0.4746094
vt 0.2021484 0.4746094
vt 0.2158203 0.4833984
vt 0.1643475 0.4746081
vt 0.164353 0.5791016
vt 0.2158203 0.5771484
vt 0.2021484 0.4638672
vt 0.3173828 0.4638672
vt 0.179827 0.4570313
vt 0.351609 0.5009468
vt 0.3518105 0.4570313
vt 0.1798268 0.5009512
vt 0.3562208 0.4890878
vt 0.1829203 0.4570314
vt 0.1829203 0.4890879
vt 0.3562208 0.4570313
vt 0.3462698 0.4890879
vt 0.1729693 0.4570313
vt 0.1729693 0.4890878
vt 0.3462698 0.4570314
vt 0.1793468 0.4721069
vt 0.3535156 0.5826996
vt 0.3535156 0.4721069
vt 0.1793468 0.5826996
vn 0.005247796 -0.9999862 0
vn 0.002703636 -0.9999288 -0.01162486
vn 0.001081099 -0.9999994 -0.0002311435
vn 0.001525697 -0.9999987 -0.0004622865
vn 0.001442301 -0.9998859 -0.01503802
vn 0 -1 0
vn 0 -1 0
vn 0 -1 0
vn 0 -1 0
vn 0 -1 0
vn 0 -1 0
vn 0 -1 0
vn 0 -1 0
vn 0 -1 0
vn 0.0002469524 -0.9999363 -0.01127811
vn 0 -1 0
vn 1 0 0
vn 1 0 0
vn 1 0 0
vn 1 0 0
vn 0 0 1
vn 0 0 1
vn 0 0 1
vn 0 0 1
vn 1 0 0
vn 1 0 0
vn 1 0 0
vn 1 0 0
vn 0 0 1
vn 0 0 1
vn 0 0 1
vn 0 0 1
vn 1 0 0
vn 1 0 0
vn 1 0 0
vn 1 0 0
vn 0 0 1
vn 0 0 1
vn 0 0 1
vn 0 0 1
vn -1 0 0
vn -1 0 0
vn -1 0 0
vn -1 0 0
vn 0 0 1
vn 0 0 1
vn 0 0 1
vn 0 0 1
vn -1 0 0
vn -1 0 0
vn -1 0 0
vn -1 0 0
vn 0 0 1
vn 0 0 1
vn 0 0 1
vn 0 0 1
vn -1 0 0
vn -1 0 0
vn -1 0 0
vn -1 0 0
vn -1 0 0
vn -1 0 0
vn -1 0 0
vn -1 0 0
vn 1 0 0
vn 1 0 0
vn 1 0 0
vn 1 0 0
vn 0 0 1
vn 0 0 1
vn 0 0 1
vn 0 0 1
vn -1 0 0
vn -1 0 0
vn -1 0 0
vn -1 0 0
vn 1 0 0
vn 1 0 0
vn 1 0 0
vn 1 0 0
vn 0 0 -1
vn 0 0 -1
vn 0 0 -1
vn 0 0 -1
vn 0 0 1
vn 0 0 1
vn 0 0 1
vn 0 0 1
vn 0 0 -1
vn 0 0 -1
vn 0 0 -1
vn 0 0 -1
vn 0 1 0
vn 0 1 0
vn 0 1 0
vn 0.0003750184 0.9997609 0.02186193
vn 0 1 0
vn 0.001434728 0.9999962 0.00236762
vn 0.003512103 0.9999911 0.002367618
vn 0.004946834 0.9999766 0.004735241
vn 0.003146152 0.999756 0.02186195
vn 0.001760586 0.9997594 0.02186196
vn 0 1 0
vn 0 1 0
vn 0 0 -1
vn 0 0 -1
vn 0 0 -1
vn 0 0 -1
vn -1 0 0
vn -1 0 0
vn -1 0 0
vn -1 0 0
vn 1 0 0
vn 1 0 0
vn 1 0 0
vn 1 0 0
vn 0 0 -1
vn 0 0 -1
vn 0 0 -1
vn 0 0 -1
g Object006_0
f 3/3/3 2/2/2 1/1/1
f 3/3/3 4/4/4 2/2/2
f 5/5/5 2/2/2 4/4/4
f 4/4/4 3/3/3 6/6/6
f 7/7/7 6/6/6 3/3/3
f 3/3/3 8/8/8 7/7/7
f 9/9/9 8/8/8 3/3/3
f 10/10/10 7/7/7 8/8/8
f 10/10/10 8/8/8 11/11/11
f 12/12/12 11/11/11 8/8/8
f 13/13/13 7/7/7 10/10/10
f 6/6/6 7/7/7 14/14/14
f 15/15/15 14/14/14 7/7/7
f 2/2/2 5/5/5 15/15/15
f 14/14/14 15/15/15 5/5/5
f 16/16/16 15/15/15 7/7/7
f 19/19/19 18/18/18 17/17/17
f 20/20/20 17/17/17 18/18/18
f 23/23/23 22/22/22 21/21/21
f 24/24/24 21/21/21 22/22/22
f 27/27/27 26/26/26 25/25/25
f 28/28/28 25/25/25 26/26/26
f 31/31/31 30/30/30 29/29/29
f 32/32/32 29/29/29 30/30/30
f 35/35/35 34/34/34 33/33/33
f 36/36/36 33/33/33 34/34/34
f 39/39/39 38/38/38 37/37/37
f 40/40/40 37/37/37 38/38/38
f 43/43/43 42/42/42 41/41/41
f 44/44/44 41/41/41 42/42/42
f 47/47/47 46/46/46 45/45/45
f 48/48/48 45/45/45 46/46/46
f 51/51/51 50/50/50 49/49/49
f 52/52/52 49/49/49 50/50/50
f 55/55/55 54/54/54 53/53/53
f 56/56/56 53/53/53 54/54/54
f 59/59/59 58/58/58 57/57/57
f 60/60/60 57/57/57 58/58/58
f 63/63/63 62/62/62 61/61/61
f 64/64/64 61/61/61 62/62/62
f 67/67/67 66/66/66 65/65/65
f 68/68/68 65/65/65 66/66/66
f 71/71/71 70/70/70 69/69/69
f 72/72/72 69/69/69 70/70/70
f 75/75/75 74/74/74 73/73/73
f 76/76/76 73/73/73 74/74/74
f 79/79/79 78/78/78 77/77/77
f 80/80/80 77/77/77 78/78/78
f 83/83/83 82/82/82 81/81/81
f 84/84/84 81/81/81 82/82/82
f 87/87/87 86/86/86 85/85/85
f 88/88/88 85/85/85 86/86/86
f 91/91/91 90/90/90 89/89/89
f 92/92/92 89/89/89 90/90/90
f 95/95/95 94/94/94 93/93/93
f 96/96/96 93/93/93 94/94/94
f 95/95/95 97/97/97 94/94/94
f 97/97/97 95/95/95 98/98/98
f 99/99/99 98/98/98 95/95/95
f 100/100/100 98/98/98 99/99/99
f 100/100/100 99/99/99 101/101/101
f 102/102/102 101/101/101 99/99/99
f 93/93/93 96/96/96 102/102/102
f 101/101/101 102/102/102 96/96/96
f 98/98/98 103/103/103 97/97/97
f 104/104/104 97/97/97 103/103/103
f 107/107/107 106/106/106 105/105/105
f 108/108/108 105/105/105 106/106/106
f 111/111/111 110/110/110 109/109/109
f 112/112/112 109/109/109 110/110/110
f 115/115/115 114/114/114 113/113/113
f 116/116/116 113/113/113 114/114/114
f 119/119/119 118/118/118 117/117/117
f 120/120/120 117/117/117 118/118/118
