g Object009.001
v -1.996323 -0.09374998 0.01470589
v -1.996323 -0.09374998 -0.1727942
v -1.996323 0.09375001 -0.1727942
v -1.996323 0.09375001 0.01470589
v 0.4411764 0.09375001 -0.172794
v 0.4411764 -0.09374998 -0.172794
v 0.4411764 -0.09374998 0.01470589
v 0.4411764 0.09375001 0.01470589
v 0.4411764 -0.09374998 -0.172794
v -1.996323 -0.09374998 -0.1727942
v -1.996323 -0.09374998 0.01470589
v 0.4411764 -0.09374998 0.01470589
v 0.4411764 -0.09374998 0.01470589
v -1.996323 -0.09374998 0.01470589
v -1.996323 0.09375001 0.01470589
v 0.4411764 0.09375001 0.01470589
v 0.4411764 -0.09374998 -0.172794
v 0.4411764 0.09375001 -0.172794
v -1.996323 0.09375001 -0.1727942
v -1.996323 -0.09374998 -0.1727942
v 0.4411764 0.09375001 -0.172794
v 0.4411764 0.09375001 0.01470589
v -1.996323 0.09375001 0.01470589
v -1.996323 0.09375001 -0.1727942
v -0.05882357 0.21875 -0.04779411
v -0.05882357 0.09375001 -0.04779411
v -0.05882357 0.09375001 -0.1102941
v -0.05882357 0.21875 -0.1102941
v 0.003676427 0.28125 -0.04779411
v 0.003676427 0.21875 -0.04779411
v 0.003676427 0.21875 -0.1102941
v 0.003676427 0.28125 -0.1102941
v 0.06617643 0.34375 -0.04779411
v 0.06617643 0.28125 -0.04779411
v 0.06617643 0.28125 -0.1102941
v 0.06617643 0.34375 -0.1102941
v 0.1286764 0.40625 -0.04779411
v 0.1286764 0.34375 -0.04779411
v 0.1286764 0.34375 -0.1102941
v 0.1286764 0.40625 -0.1102941
v 0.3786764 0.09375001 -0.110294
v 0.3786764 0.09375001 -0.04779404
v 0.3786764 0.40625 -0.04779404
v 0.3786764 0.40625 -0.110294
v 0.003676427 0.21875 -0.04779411
v -0.05882357 0.09375001 -0.04779411
v -0.05882357 0.21875 -0.04779411
v 0.3786764 0.09375001 -0.04779404
v 0.06617643 0.28125 -0.04779411
v 0.003676427 0.28125 -0.04779411
v 0.1286764 0.34375 -0.04779411
v 0.06617643 0.34375 -0.04779411
v 0.1286764 0.40625 -0.04779411
v 0.3786764 0.40625 -0.04779404
v 0.003676427 0.21875 -0.04779411
v -0.05882357 0.21875 -0.04779411
v -0.05882357 0.21875 -0.1102941
v 0.003676427 0.21875 -0.1102941
v 0.06617643 0.28125 -0.04779411
v 0.003676427 0.28125 -0.04779411
v 0.003676427 0.28125 -0.1102941
v 0.06617643 0.28125 -0.1102941
v 0.1286764 0.34375 -0.04779411
v 0.06617643 0.34375 -0.04779411
v 0.06617643 0.34375 -0.1102941
v 0.1286764 0.34375 -0.1102941
v 0.3786764 0.40625 -0.04779404
v 0.1286764 0.40625 -0.04779411
v 0.1286764 0.40625 -0.1102941
v 0.3786764 0.40625 -0.110294
v 0.003676427 0.21875 -0.1102941
v -0.05882357 0.21875 -0.1102941
v -0.05882357 0.09375001 -0.1102941
v 0.3786764 0.09375001 -0.110294
v 0.06617643 0.28125 -0.1102941
v 0.003676427 0.28125 -0.1102941
v 0.1286764 0.34375 -0.1102941
v 0.06617643 0.34375 -0.1102941
v 0.1286764 0.40625 -0.1102941
v 0.3786764 0.40625 -0.110294
v -0.05882349 -0.21875 -0.04779411
v -0.05882349 -0.21875 -0.1102941
v -0.05882349 -0.09374998 -0.110294
v -0.05882349 -0.09374998 -0.04779396
v 0.003676503 -0.28125 -0.04779411
v 0.003676503 -0.28125 -0.1102941
v 0.003676503 -0.21875 -0.1102941
v 0.003676503 -0.21875 -0.04779411
v 0.0661765 -0.34375 -0.04779411
v 0.0661765 -0.34375 -0.1102941
v 0.0661765 -0.28125 -0.1102941
v 0.0661765 -0.28125 -0.04779411
v 0.1286765 -0.40625 -0.04779411
v 0.1286765 -0.40625 -0.1102941
v 0.1286765 -0.34375 -0.1102941
v 0.1286765 -0.34375 -0.04779411
v 0.3786764 -0.09374998 -0.110294
v 0.3786764 -0.40625 -0.1102941
v 0.3786764 -0.40625 -0.04779411
v 0.3786764 -0.09374998 -0.04779396
v 0.003676503 -0.21875 -0.04779411
v -0.05882349 -0.21875 -0.04779411
v -0.05882349 -0.09374998 -0.04779396
v 0.3786764 -0.09374998 -0.04779396
v 0.0661765 -0.28125 -0.04779411
v 0.003676503 -0.28125 -0.04779411
v 0.1286765 -0.34375 -0.04779411
v 0.0661765 -0.34375 -0.04779411
v 0.1286765 -0.40625 -0.04779411
v 0.3786764 -0.40625 -0.04779411
v 0.003676503 -0.21875 -0.04779411
v 0.003676503 -0.21875 -0.1102941
v -0.05882349 -0.21875 -0.1102941
v -0.05882349 -0.21875 -0.04779411
v 0.0661765 -0.28125 -0.04779411
v 0.0661765 -0.28125 -0.1102941
v 0.003676503 -0.28125 -0.1102941
v 0.003676503 -0.28125 -0.04779411
v 0.1286765 -0.34375 -0.04779411
v 0.1286765 -0.34375 -0.1102941
v 0.0661765 -0.34375 -0.1102941
v 0.0661765 -0.34375 -0.04779411
v 0.3786764 -0.40625 -0.04779411
v 0.3786764 -0.40625 -0.1102941
v 0.1286765 -0.40625 -0.1102941
v 0.1286765 -0.40625 -0.04779411
v 0.003676503 -0.21875 -0.1102941
v -0.05882349 -0.09374998 -0.110294
v -0.05882349 -0.21875 -0.1102941
v 0.3786764 -0.09374998 -0.110294
v 0.0661765 -0.28125 -0.1102941
v 0.003676503 -0.28125 -0.1102941
v 0.1286765 -0.34375 -0.1102941
v 0.0661765 -0.34375 -0.1102941
v 0.1286765 -0.40625 -0.1102941
v 0.3786764 -0.40625 -0.1102941
v -0.05882349 -0.03124998 0.1397059
v -0.05882349 -0.03124998 0.01470589
v -0.05882349 0.03125002 0.01470589
v -0.05882349 0.03125002 0.1397059
v 0.003676503 -0.03124998 0.2022059
v 0.003676503 -0.03124998 0.1397059
v 0.003676503 0.03125002 0.1397059
v 0.003676503 0.03125002 0.2022059
v 0.0661765 -0.03124998 0.2647059
v 0.0661765 -0.03124998 0.2022059
v 0.0661765 0.03125002 0.2022059
v 0.0661765 0.03125002 0.2647059
v 0.1286764 -0.03124998 0.3272059
v 0.1286764 -0.03124998 0.2647059
v 0.1286764 0.03125002 0.2647059
v 0.1286764 0.03125002 0.3272059
v 0.3786764 0.03125002 0.01470589
v 0.3786764 -0.03124998 0.01470589
v 0.3786764 -0.03124998 0.3272059
v 0.3786764 0.03125002 0.3272059
v 0.003676503 -0.03124998 0.1397059
v -0.05882349 -0.03124998 0.01470589
v -0.05882349 -0.03124998 0.1397059
v 0.3786764 -0.03124998 0.01470589
v 0.0661765 -0.03124998 0.2022059
v 0.003676503 -0.03124998 0.2022059
v 0.1286764 -0.03124998 0.2647059
v 0.0661765 -0.03124998 0.2647059
v 0.1286764 -0.03124998 0.3272059
v 0.3786764 -0.03124998 0.3272059
v 0.003676503 -0.03124998 0.1397059
v -0.05882349 -0.03124998 0.1397059
v -0.05882349 0.03125002 0.1397059
v 0.003676503 0.03125002 0.1397059
v 0.0661765 -0.03124998 0.2022059
v 0.003676503 -0.03124998 0.2022059
v 0.003676503 0.03125002 0.2022059
v 0.0661765 0.03125002 0.2022059
v 0.1286764 -0.03124998 0.2647059
v 0.0661765 -0.03124998 0.2647059
v 0.0661765 0.03125002 0.2647059
v 0.1286764 0.03125002 0.2647059
v 0.3786764 -0.03124998 0.3272059
v 0.1286764 -0.03124998 0.3272059
v 0.1286764 0.03125002 0.3272059
v 0.3786764 0.03125002 0.3272059
v 0.003676503 0.03125002 0.1397059
v -0.05882349 0.03125002 0.1397059
v -0.05882349 0.03125002 0.01470589
v 0.3786764 0.03125002 0.01470589
v 0.0661765 0.03125002 0.2022059
v 0.003676503 0.03125002 0.2022059
v 0.1286764 0.03125002 0.2647059
v 0.0661765 0.03125002 0.2647059
v 0.1286764 0.03125002 0.3272059
v 0.3786764 0.03125002 0.3272059
vt 0.5546875 0.5234375
vt 0.5546875 0.5
vt 0.53125 0.5
vt 0.53125 0.5234375
vt 0.8828125 0.5
vt 0.859375 0.5
vt 0.859375 0.5234375
vt 0.8828125 0.5234375
vt 0.859375 0.5
vt 0.5546875 0.5
vt 0.5546875 0.5234375
vt 0.859375 0.5234375
vt 0.859375 0.5
vt 0.5546875 0.5
vt 0.5546875 0.5234375
vt 0.859375 0.5234375
vt 0.859375 0.5
vt 0.859375 0.5234375
vt 0.5546875 0.5234375
vt 0.5546875 0.5
vt 0.859375 0.5
vt 0.859375 0.5234375
vt 0.5546875 0.5234375
vt 0.5546875 0.5
vt 0.765625 0.484375
vt 0.75 0.484375
vt 0.75 0.4921875
vt 0.765625 0.4921875
vt 0.78125 0.484375
vt 0.7734375 0.484375
vt 0.7734375 0.4921875
vt 0.78125 0.4921875
vt 0.796875 0.484375
vt 0.7890625 0.484375
vt 0.7890625 0.4921875
vt 0.796875 0.4921875
vt 0.8125 0.484375
vt 0.8046875 0.484375
vt 0.8046875 0.4921875
vt 0.8125 0.4921875
vt 0.8828125 0.4921875
vt 0.8828125 0.484375
vt 0.84375 0.484375
vt 0.84375 0.4921875
vt 0.8671875 0.4375
vt 0.8828125 0.4296875
vt 0.8671875 0.4296875
vt 0.8828125 0.484375
vt 0.859375 0.4453125
vt 0.859375 0.4375
vt 0.8515625 0.453125
vt 0.8515625 0.4453125
vt 0.84375 0.453125
vt 0.84375 0.484375
vt 0.7734375 0.484375
vt 0.765625 0.484375
vt 0.765625 0.4921875
vt 0.7734375 0.4921875
vt 0.7890625 0.484375
vt 0.78125 0.484375
vt 0.78125 0.4921875
vt 0.7890625 0.4921875
vt 0.8046875 0.484375
vt 0.796875 0.484375
vt 0.796875 0.4921875
vt 0.8046875 0.4921875
vt 0.84375 0.484375
vt 0.8125 0.484375
vt 0.8125 0.4921875
vt 0.84375 0.4921875
vt 0.8671875 0.4375
vt 0.8671875 0.4296875
vt 0.8828125 0.4296875
vt 0.8828125 0.484375
vt 0.859375 0.4453125
vt 0.859375 0.4375
vt 0.8515625 0.453125
vt 0.8515625 0.4453125
vt 0.84375 0.453125
vt 0.84375 0.484375
vt 0.765625 0.484375
vt 0.765625 0.4921875
vt 0.75 0.4921875
vt 0.75 0.484375
vt 0.78125 0.484375
vt 0.78125 0.4921875
vt 0.7734375 0.4921875
vt 0.7734375 0.484375
vt 0.796875 0.484375
vt 0.796875 0.4921875
vt 0.7890625 0.4921875
vt 0.7890625 0.484375
vt 0.8125 0.484375
vt 0.8125 0.4921875
vt 0.8046875 0.4921875
vt 0.8046875 0.484375
vt 0.8828125 0.4921875
vt 0.84375 0.4921875
vt 0.84375 0.484375
vt 0.8828125 0.484375
vt 0.8671875 0.4375
vt 0.8671875 0.4296875
vt 0.8828125 0.4296875
vt 0.8828125 0.484375
vt 0.859375 0.4453125
vt 0.859375 0.4375
vt 0.8515625 0.453125
vt 0.8515625 0.4453125
vt 0.84375 0.453125
vt 0.84375 0.484375
vt 0.7734375 0.484375
vt 0.7734375 0.4921875
vt 0.765625 0.4921875
vt 0.765625 0.484375
vt 0.7890625 0.484375
vt 0.7890625 0.4921875
vt 0.78125 0.4921875
vt 0.78125 0.484375
vt 0.8046875 0.484375
vt 0.8046875 0.4921875
vt 0.796875 0.4921875
vt 0.796875 0.484375
vt 0.84375 0.484375
vt 0.84375 0.4921875
vt 0.8125 0.4921875
vt 0.8125 0.484375
vt 0.8671875 0.4375
vt 0.8828125 0.4296875
vt 0.8671875 0.4296875
vt 0.8828125 0.484375
vt 0.859375 0.4453125
vt 0.859375 0.4375
vt 0.8515625 0.453125
vt 0.8515625 0.4453125
vt 0.84375 0.453125
vt 0.84375 0.484375
vt 0.765625 0.484375
vt 0.75 0.484375
vt 0.75 0.4921875
vt 0.765625 0.4921875
vt 0.78125 0.484375
vt 0.7734375 0.484375
vt 0.7734375 0.4921875
vt 0.78125 0.4921875
vt 0.796875 0.484375
vt 0.7890625 0.484375
vt 0.7890625 0.4921875
vt 0.796875 0.4921875
vt 0.8125 0.484375
vt 0.8046875 0.484375
vt 0.8046875 0.4921875
vt 0.8125 0.4921875
vt 0.8828125 0.4921875
vt 0.8828125 0.484375
vt 0.84375 0.484375
vt 0.84375 0.4921875
vt 0.8671875 0.4375
vt 0.8828125 0.4296875
vt 0.8671875 0.4296875
vt 0.8828125 0.484375
vt 0.859375 0.4453125
vt 0.859375 0.4375
vt 0.8515625 0.453125
vt 0.8515625 0.4453125
vt 0.84375 0.453125
vt 0.84375 0.484375
vt 0.7734375 0.484375
vt 0.765625 0.484375
vt 0.765625 0.4921875
vt 0.7734375 0.4921875
vt 0.7890625 0.484375
vt 0.78125 0.484375
vt 0.78125 0.4921875
vt 0.7890625 0.4921875
vt 0.8046875 0.484375
vt 0.796875 0.484375
vt 0.796875 0.4921875
vt 0.8046875 0.4921875
vt 0.84375 0.484375
vt 0.8125 0.484375
vt 0.8125 0.4921875
vt 0.84375 0.4921875
vt 0.8671875 0.4375
vt 0.8671875 0.4296875
vt 0.8828125 0.4296875
vt 0.8828125 0.484375
vt 0.859375 0.4453125
vt 0.859375 0.4375
vt 0.8515625 0.453125
vt 0.8515625 0.4453125
vt 0.84375 0.453125
vt 0.84375 0.484375
vn -1 0 0
vn -1 0 0
vn -1 0 0
vn -1 0 0
vn 1 0 0
vn 1 0 0
vn 1 0 0
vn 1 0 0
vn 0 -1 0
vn 0 -1 0
vn 0 -1 0
vn 0 -1 0
vn 0 0 1
vn 0 0 1
vn 0 0 1
vn 0 0 1
vn 0 0 -1
vn 0 0 -1
vn 0 0 -1
vn 0 0 -1
vn 0 1 0
vn 0 1 0
vn 0 1 0
vn 0 1 0
vn -1 0 0
vn -1 0 0
vn -1 0 0
vn -1 0 0
vn -1 0 0
vn -1 0 0
vn -1 0 0
vn -1 0 0
vn -1 0 0
vn -1 0 0
vn -1 0 0
vn -1 0 0
vn -1 0 0
vn -1 0 0
vn -1 0 0
vn -1 0 0
vn 1 0 0
vn 1 0 0
vn 1 0 0
vn 1 0 0
vn -1.009357E-07 0 1
vn -1.188905E-07 0 1
vn 0 0 1
vn -2.635762E-07 0 1
vn -1.177481E-07 0 1
vn 0 0 1
vn -2.17692E-07 0 1
vn -1.302083E-07 1.356337E-07 1
vn -3.051758E-07 0 1
vn -3.051758E-07 0 1
vn 0 1 0
vn 0 1 0
vn 0 1 0
vn 0 1 0
vn 0 1 0
vn 0 1 0
vn 0 1 0
vn 0 1 0
vn 0 1 0
vn 0 1 0
vn 0 1 0
vn 0 1 0
vn 0 1 0
vn 0 1 0
vn 0 1 0
vn 0 1 0
vn 0 0 -1
vn 0 0 -1
vn 0 0 -1
vn 2.346474E-07 0 -1
vn 1.461963E-07 -1.035258E-07 -1
vn 0 0 -1
vn 2.332899E-07 0 -1
vn 1.736111E-07 -1.356337E-07 -1
vn 2.929688E-07 0 -1
vn 2.929688E-07 0 -1
vn -1 0 0
vn -1 0 0
vn -1 0 0
vn -1 0 0
vn -1 0 0
vn -1 0 0
vn -1 0 0
vn -1 0 0
vn -1 0 0
vn -1 0 0
vn -1 0 0
vn -1 0 0
vn -1 0 0
vn -1 0 0
vn -1 0 0
vn -1 0 0
vn 1 0 0
vn 1 0 0
vn 1 0 0
vn 1 0 0
vn 0 -1.220703E-06 1
vn 0 -1.220703E-06 1
vn 0 -1.220703E-06 1
vn -1.367795E-07 -5.511918E-07 1
vn -1.628512E-07 -4.636119E-07 1
vn 0 0 1
vn -1.8514E-07 -3.390841E-07 1
vn -2.604166E-07 -2.712671E-07 1
vn -1.098633E-07 -4.069011E-07 1
vn -1.098633E-07 -4.069011E-07 1
vn 0 -1 0
vn 0 -1 0
vn 0 -1 0
vn 0 -1 0
vn 0 -1 0
vn 0 -1 0
vn 0 -1 0
vn 0 -1 0
vn 0 -1 0
vn 0 -1 0
vn 0 -1 0
vn 0 -1 0
vn 0 -1 0
vn 0 -1 0
vn 0 -1 0
vn 0 -1 0
vn 0 8.180376E-07 -1
vn 1.001183E-07 9.860508E-07 -1
vn 0 1.220703E-06 -1
vn 1.569921E-07 3.746533E-07 -1
vn 0 6.197266E-07 -1
vn 0 0 -1
vn 2.224392E-07 3.390841E-07 -1
vn 3.472222E-07 2.712671E-07 -1
vn 0 4.069011E-07 -1
vn 0 4.069011E-07 -1
vn -1 0 0
vn -1 0 0
vn -1 0 0
vn -1 0 0
vn -1 0 0
vn -1 0 0
vn -1 0 0
vn -1 0 0
vn -1 0 0
vn -1 0 0
vn -1 0 0
vn -1 0 0
vn -1 0 0
vn -1 0 0
vn -1 0 0
vn -1 0 0
vn 1 0 0
vn 1 0 0
vn 1 0 0
vn 1 0 0
vn 0 -1 0
vn 0 -1 0
vn 0 -1 0
vn 0 -1 0
vn 0 -1 0
vn 0 -1 0
vn 0 -1 0
vn 0 -1 0
vn 0 -1 0
vn 0 -1 0
vn 0 0 1
vn 0 0 1
vn 0 0 1
vn 0 0 1
vn 0 0 1
vn 0 0 1
vn 0 0 1
vn 0 0 1
vn 0 0 1
vn 0 0 1
vn 0 0 1
vn 0 0 1
vn 0 0 1
vn 0 0 1
vn 0 0 1
vn 0 0 1
vn 0 1 0
vn 0 1 0
vn 0 1 0
vn 0 1 0
vn 0 1 0
vn 0 1 0
vn 0 1 0
vn 0 1 0
vn 0 1 0
vn 0 1 0
g Object009.001_0
f 3/3/3 2/2/2 1/1/1
f 4/4/4 3/3/3 1/1/1
f 7/7/7 6/6/6 5/5/5
f 8/8/8 7/7/7 5/5/5
f 11/11/11 10/10/10 9/9/9
f 12/12/12 11/11/11 9/9/9
f 15/15/15 14/14/14 13/13/13
f 16/16/16 15/15/15 13/13/13
f 19/19/19 18/18/18 17/17/17
f 20/20/20 19/19/19 17/17/17
f 23/23/23 22/22/22 21/21/21
f 24/24/24 23/23/23 21/21/21
f 27/27/27 26/26/26 25/25/25
f 28/28/28 27/27/27 25/25/25
f 31/31/31 30/30/30 29/29/29
f 32/32/32 31/31/31 29/29/29
f 35/35/35 34/34/34 33/33/33
f 36/36/36 35/35/35 33/33/33
f 39/39/39 38/38/38 37/37/37
f 40/40/40 39/39/39 37/37/37
f 43/43/43 42/42/42 41/41/41
f 44/44/44 43/43/43 41/41/41
f 47/47/47 46/46/46 45/45/45
f 45/45/45 46/46/46 48/48/48
f 49/49/49 45/45/45 48/48/48
f 50/50/50 45/45/45 49/49/49
f 48/48/48 51/51/51 49/49/49
f 51/51/51 52/52/52 49/49/49
f 53/53/53 51/51/51 48/48/48
f 54/54/54 53/53/53 48/48/48
f 57/57/57 56/56/56 55/55/55
f 58/58/58 57/57/57 55/55/55
f 61/61/61 60/60/60 59/59/59
f 62/62/62 61/61/61 59/59/59
f 65/65/65 64/64/64 63/63/63
f 66/66/66 65/65/65 63/63/63
f 69/69/69 68/68/68 67/67/67
f 70/70/70 69/69/69 67/67/67
f 73/73/73 72/72/72 71/71/71
f 73/73/73 71/71/71 74/74/74
f 71/71/71 75/75/75 74/74/74
f 71/71/71 76/76/76 75/75/75
f 77/77/77 74/74/74 75/75/75
f 78/78/78 77/77/77 75/75/75
f 77/77/77 79/79/79 74/74/74
f 79/79/79 80/80/80 74/74/74
f 83/83/83 82/82/82 81/81/81
f 84/84/84 83/83/83 81/81/81
f 87/87/87 86/86/86 85/85/85
f 88/88/88 87/87/87 85/85/85
f 91/91/91 90/90/90 89/89/89
f 92/92/92 91/91/91 89/89/89
f 95/95/95 94/94/94 93/93/93
f 96/96/96 95/95/95 93/93/93
f 99/99/99 98/98/98 97/97/97
f 100/100/100 99/99/99 97/97/97
f 103/103/103 102/102/102 101/101/101
f 103/103/103 101/101/101 104/104/104
f 101/101/101 105/105/105 104/104/104
f 101/101/101 106/106/106 105/105/105
f 107/107/107 104/104/104 105/105/105
f 108/108/108 107/107/107 105/105/105
f 107/107/107 109/109/109 104/104/104
f 109/109/109 110/110/110 104/104/104
f 113/113/113 112/112/112 111/111/111
f 114/114/114 113/113/113 111/111/111
f 117/117/117 116/116/116 115/115/115
f 118/118/118 117/117/117 115/115/115
f 121/121/121 120/120/120 119/119/119
f 122/122/122 121/121/121 119/119/119
f 125/125/125 124/124/124 123/123/123
f 126/126/126 125/125/125 123/123/123
f 129/129/129 128/128/128 127/127/127
f 127/127/127 128/128/128 130/130/130
f 131/131/131 127/127/127 130/130/130
f 132/132/132 127/127/127 131/131/131
f 130/130/130 133/133/133 131/131/131
f 133/133/133 134/134/134 131/131/131
f 135/135/135 133/133/133 130/130/130
f 136/136/136 135/135/135 130/130/130
f 139/139/139 138/138/138 137/137/137
f 140/140/140 139/139/139 137/137/137
f 143/143/143 142/142/142 141/141/141
f 144/144/144 143/143/143 141/141/141
f 147/147/147 146/146/146 145/145/145
f 148/148/148 147/147/147 145/145/145
f 151/151/151 150/150/150 149/149/149
f 152/152/152 151/151/151 149/149/149
f 155/155/155 154/154/154 153/153/153
f 156/156/156 155/155/155 153/153/153
f 159/159/159 158/158/158 157/157/157
f 157/157/157 158/158/158 160/160/160
f 161/161/161 157/157/157 160/160/160
f 162/162/162 157/157/157 161/161/161
f 160/160/160 163/163/163 161/161/161
f 163/163/163 164/164/164 161/161/161
f 165/165/165 163/163/163 160/160/160
f 166/166/166 165/165/165 160/160/160
f 169/169/169 168/168/168 167/167/167
f 170/170/170 169/169/169 167/167/167
f 173/173/173 172/172/172 171/171/171
f 174/174/174 173/173/173 171/171/171
f 177/177/177 176/176/176 175/175/175
f 178/178/178 177/177/177 175/175/175
f 181/181/181 180/180/180 179/179/179
f 182/182/182 181/181/181 179/179/179
f 185/185/185 184/184/184 183/183/183
f 185/185/185 183/183/183 186/186/186
f 183/183/183 187/187/187 186/186/186
f 183/183/183 188/188/188 187/187/187
f 189/189/189 186/186/186 187/187/187
f 190/190/190 189/189/189 187/187/187
f 189/189/189 191/191/191 186/186/186
f 191/191/191 192/192/192 186/186/186
