g Oil_tank_mesh
v 0.3002653 -0.3002653 0.001987736
v 0.3002654 -0.3002653 0.9403169
v 0.3002654 0.3002653 0.9403169
v 0.3002653 0.3002653 0.001987736
v -0.3002654 -0.3002653 0.0019877
v -0.3002653 -0.3002654 0.940317
v 0.3002654 -0.3002653 0.9403169
v 0.3002653 -0.3002653 0.001987736
v -0.3002654 0.3002653 0.001987664
v -0.3002653 0.3002653 0.9403169
v -0.3002653 -0.3002654 0.940317
v -0.3002654 -0.3002653 0.0019877
v 0.3002653 0.3002653 0.001987736
v 0.3002654 0.3002653 0.9403169
v -0.3002653 0.3002653 0.9403169
v -0.3002654 0.3002653 0.001987664
v -0.3002653 -0.3002654 0.940317
v -0.3002653 0.3002653 0.9403169
v 0.3002654 0.3002653 0.9403169
v 0.3002654 -0.3002653 0.9403169
v 0.3002653 -0.3002653 0.001987736
v 0.3002653 0.3002653 0.001987736
v -0.3002654 0.3002653 0.001987664
v -0.3002654 -0.3002653 0.0019877
vt 0.609375 0.265625
vt 0.609375 0.65625
vt 0.859375 0.65625
vt 0.859375 0.265625
vt 0.34375 0.265625
vt 0.34375 0.65625
vt 0.59375 0.65625
vt 0.59375 0.265625
vt 0.609375 0.265625
vt 0.609375 0.65625
vt 0.859375 0.65625
vt 0.859375 0.265625
vt 0.34375 0.265625
vt 0.34375 0.65625
vt 0.59375 0.65625
vt 0.59375 0.265625
vt 0.34375 0.671875
vt 0.34375 0.921875
vt 0.59375 0.921875
vt 0.59375 0.671875
vt 0.609375 0.671875
vt 0.609375 0.921875
vt 0.859375 0.921875
vt 0.859375 0.671875
vn 1 0 0
vn 1 0 0
vn 1 0 0
vn 1 0 0
vn 0 -1 0
vn 0 -1 0
vn 0 -1 0
vn 0 -1 0
vn -1 0 0
vn -1 0 0
vn -1 0 0
vn -1 0 0
vn 0 1 0
vn 0 1 0
vn 0 1 0
vn 0 1 0
vn 0 0 1
vn 0 0 1
vn 0 0 1
vn 0 0 1
vn 0 0 -1
vn 0 0 -1
vn 0 0 -1
vn 0 0 -1
g Oil_tank_mesh_0
f 3/3/3 2/2/2 1/1/1
f 4/4/4 3/3/3 1/1/1
f 7/7/7 6/6/6 5/5/5
f 8/8/8 7/7/7 5/5/5
f 11/11/11 10/10/10 9/9/9
f 12/12/12 11/11/11 9/9/9
f 15/15/15 14/14/14 13/13/13
f 16/16/16 15/15/15 13/13/13
f 19/19/19 18/18/18 17/17/17
f 20/20/20 19/19/19 17/17/17
f 23/23/23 22/22/22 21/21/21
f 24/24/24 23/23/23 21/21/21
