# Mesh "penilizer_mesh" exported with Unity Assets Bundle Extractor; 72 vertices, 132 indices, 256 bits per vertex
g penilizer_mesh
# SubMesh 0
# Vertices
v -0.000176 -0.001400 0.002502
vt 0.148438 0.632813
vn -0.000000 -1.000000 0.000000
v 0.000182 -0.001400 0.002502
vt 0.148438 0.632813
vn -0.000000 -1.000000 0.000000
v 0.000182 -0.001400 0.002144
vt 0.156250 0.632813
vn -0.000000 -1.000000 0.000000
v -0.000176 -0.001400 0.002144
vt 0.156250 0.632813
vn -0.000000 -1.000000 0.000000
v -0.000176 -0.001400 0.002502
vt 0.148438 0.632813
vn -0.000000 0.000000 1.000000
v -0.000176 0.001465 0.002502
vt 0.148438 0.695313
vn -0.000000 0.000000 1.000000
v 0.000182 0.001465 0.002502
vt 0.148438 0.695313
vn -0.000000 0.000000 1.000000
v 0.000182 -0.001400 0.002502
vt 0.148438 0.632813
vn -0.000000 0.000000 1.000000
v 0.000182 0.001465 0.002502
vt 0.148438 0.695313
vn -0.000000 1.000000 -0.000000
v -0.000176 0.001465 0.002502
vt 0.148438 0.695313
vn -0.000000 1.000000 -0.000000
v -0.000176 0.001465 0.002144
vt 0.156250 0.695313
vn -0.000000 1.000000 -0.000000
v 0.000182 0.001465 0.002144
vt 0.156250 0.695313
vn -0.000000 1.000000 -0.000000
v -0.000176 -0.001758 0.002144
vt 0.156250 0.625000
vn -0.000000 0.000000 1.000000
v -0.000176 -0.001400 0.002144
vt 0.156250 0.632813
vn -0.000000 0.000000 1.000000
v 0.000182 -0.001400 0.002144
vt 0.156250 0.632813
vn -0.000000 0.000000 1.000000
v 0.000182 -0.001758 0.002144
vt 0.156250 0.625000
vn -0.000000 0.000000 1.000000
v 0.000182 -0.001758 -0.002153
vt 0.250000 0.625000
vn -0.000000 -1.000000 0.000000
v -0.000176 -0.001758 -0.002153
vt 0.250000 0.625000
vn -0.000000 -1.000000 0.000000
v -0.000176 -0.001758 0.002144
vt 0.156250 0.625000
vn -0.000000 -1.000000 0.000000
v 0.000182 -0.001758 0.002144
vt 0.156250 0.625000
vn -0.000000 -1.000000 0.000000
v -0.000176 0.001465 0.002144
vt 0.156250 0.695313
vn -0.000000 0.000000 1.000000
v -0.000176 0.001823 0.002144
vt 0.156250 0.703125
vn -0.000000 0.000000 1.000000
v 0.000182 0.001823 0.002144
vt 0.156250 0.703125
vn -0.000000 0.000000 1.000000
v 0.000182 0.001465 0.002144
vt 0.156250 0.695313
vn -0.000000 0.000000 1.000000
v 0.000182 0.001465 -0.002153
vt 0.250000 0.695313
vn 1.000000 -0.000000 0.000000
v 0.000182 0.001465 0.002144
vt 0.156250 0.695313
vn 1.000000 -0.000000 0.000000
v 0.000182 0.001823 0.002144
vt 0.156250 0.703125
vn 1.000000 0.000000 0.000000
v 0.000182 0.001823 -0.002153
vt 0.250000 0.703125
vn 1.000000 0.000000 0.000000
v 0.000182 -0.001400 0.002144
vt 0.156250 0.632813
vn 1.000000 -0.000000 0.000000
v 0.000182 -0.001400 0.002502
vt 0.148438 0.632813
vn 1.000000 -0.000000 0.000000
v 0.000182 0.001465 0.002502
vt 0.148438 0.695313
vn 1.000000 -0.000000 0.000000
v 0.000182 -0.001400 -0.002153
vt 0.250000 0.632813
vn 1.000000 -0.000000 0.000000
v 0.000182 0.001465 -0.002511
vt 0.257813 0.695313
vn 1.000000 -0.000000 0.000000
v 0.000182 -0.001400 -0.002511
vt 0.257813 0.632813
vn 1.000000 -0.000000 0.000000
v 0.000182 -0.001758 -0.002153
vt 0.250000 0.625000
vn 1.000000 0.000000 0.000000
v 0.000182 -0.001758 0.002144
vt 0.156250 0.625000
vn 1.000000 0.000000 0.000000
v -0.000176 -0.001400 0.002144
vt 0.156250 0.632813
vn -1.000000 0.000000 0.000000
v -0.000176 0.001465 0.002144
vt 0.156250 0.695313
vn -1.000000 0.000000 0.000000
v -0.000176 0.001465 0.002502
vt 0.148438 0.695313
vn -1.000000 0.000000 0.000000
v -0.000176 -0.001400 0.002502
vt 0.148438 0.632813
vn -1.000000 0.000000 0.000000
v -0.000176 0.001465 -0.002153
vt 0.250000 0.695313
vn -1.000000 0.000000 0.000000
v -0.000176 0.001823 -0.002153
vt 0.250000 0.703125
vn -1.000000 0.000000 0.000000
v -0.000176 0.001823 0.002144
vt 0.156250 0.703125
vn -1.000000 0.000000 0.000000
v -0.000176 -0.001400 -0.002153
vt 0.250000 0.632813
vn -1.000000 0.000000 0.000000
v -0.000176 -0.001400 -0.002511
vt 0.257813 0.632813
vn -1.000000 0.000000 0.000000
v -0.000176 0.001465 -0.002511
vt 0.257813 0.695313
vn -1.000000 0.000000 0.000000
v -0.000176 -0.001758 0.002144
vt 0.156250 0.625000
vn -1.000000 0.000001 0.000000
v -0.000176 -0.001758 -0.002153
vt 0.250000 0.625000
vn -1.000000 0.000001 0.000000
v 0.000182 0.001823 -0.002153
vt 0.250000 0.703125
vn -0.000000 1.000000 -0.000000
v 0.000182 0.001823 0.002144
vt 0.156250 0.703125
vn -0.000000 1.000000 -0.000000
v -0.000176 0.001823 0.002144
vt 0.156250 0.703125
vn -0.000000 1.000000 -0.000000
v -0.000176 0.001823 -0.002153
vt 0.250000 0.703125
vn -0.000000 1.000000 -0.000000
v 0.000182 -0.001758 -0.002153
vt 0.250000 0.625000
vn -0.000000 0.000000 -1.000000
v 0.000182 -0.001400 -0.002153
vt 0.250000 0.632813
vn -0.000000 0.000000 -1.000000
v -0.000176 -0.001400 -0.002153
vt 0.250000 0.632813
vn -0.000000 0.000000 -1.000000
v -0.000176 -0.001758 -0.002153
vt 0.250000 0.625000
vn -0.000000 0.000000 -1.000000
v 0.000182 0.001465 -0.002153
vt 0.250000 0.695313
vn -0.000000 0.000000 -1.000000
v 0.000182 0.001823 -0.002153
vt 0.250000 0.703125
vn -0.000000 0.000000 -1.000000
v -0.000176 0.001823 -0.002153
vt 0.250000 0.703125
vn -0.000000 0.000000 -1.000000
v -0.000176 0.001465 -0.002153
vt 0.250000 0.695313
vn -0.000000 0.000000 -1.000000
v -0.000176 -0.001400 -0.002153
vt 0.250000 0.632813
vn -0.000000 -1.000000 0.000000
v 0.000182 -0.001400 -0.002153
vt 0.250000 0.632813
vn -0.000000 -1.000000 0.000000
v 0.000182 -0.001400 -0.002511
vt 0.257813 0.632813
vn -0.000000 -1.000000 0.000000
v -0.000176 -0.001400 -0.002511
vt 0.257813 0.632813
vn -0.000000 -1.000000 0.000000
v 0.000182 -0.001400 -0.002511
vt 0.257813 0.632813
vn -0.000000 -0.000000 -1.000000
v 0.000182 0.001465 -0.002511
vt 0.257813 0.695313
vn -0.000000 -0.000000 -1.000000
v -0.000176 0.001465 -0.002511
vt 0.257813 0.695313
vn -0.000000 -0.000000 -1.000000
v -0.000176 -0.001400 -0.002511
vt 0.257813 0.632813
vn -0.000000 -0.000000 -1.000000
v 0.000182 0.001465 -0.002153
vt 0.250000 0.695313
vn -0.000000 1.000000 -0.000000
v -0.000176 0.001465 -0.002153
vt 0.250000 0.695313
vn -0.000000 1.000000 -0.000000
v -0.000176 0.001465 -0.002511
vt 0.257813 0.695313
vn -0.000000 1.000000 -0.000000
v 0.000182 0.001465 -0.002511
vt 0.257813 0.695313
vn -0.000000 1.000000 -0.000000
# Faces (1 to 72)
g penilizer_mesh_0
f -70/-70/-70 -71/-71/-71 -72/-72/-72
f -69/-69/-69 -70/-70/-70 -72/-72/-72
f -66/-66/-66 -67/-67/-67 -68/-68/-68
f -65/-65/-65 -66/-66/-66 -68/-68/-68
f -62/-62/-62 -63/-63/-63 -64/-64/-64
f -61/-61/-61 -62/-62/-62 -64/-64/-64
f -58/-58/-58 -59/-59/-59 -60/-60/-60
f -57/-57/-57 -58/-58/-58 -60/-60/-60
f -54/-54/-54 -55/-55/-55 -56/-56/-56
f -53/-53/-53 -54/-54/-54 -56/-56/-56
f -50/-50/-50 -51/-51/-51 -52/-52/-52
f -49/-49/-49 -50/-50/-50 -52/-52/-52
f -46/-46/-46 -47/-47/-47 -48/-48/-48
f -45/-45/-45 -46/-46/-46 -48/-48/-48
f -47/-47/-47 -44/-44/-44 -48/-48/-48
f -44/-44/-44 -47/-47/-47 -43/-43/-43
f -47/-47/-47 -42/-42/-42 -43/-43/-43
f -44/-44/-44 -41/-41/-41 -48/-48/-48
f -40/-40/-40 -48/-48/-48 -41/-41/-41
f -39/-39/-39 -40/-40/-40 -41/-41/-41
f -41/-41/-41 -44/-44/-44 -38/-38/-38
f -44/-44/-44 -37/-37/-37 -38/-38/-38
f -34/-34/-34 -35/-35/-35 -36/-36/-36
f -33/-33/-33 -34/-34/-34 -36/-36/-36
f -35/-35/-35 -32/-32/-32 -36/-36/-36
f -32/-32/-32 -35/-35/-35 -31/-31/-31
f -35/-35/-35 -30/-30/-30 -31/-31/-31
f -32/-32/-32 -29/-29/-29 -36/-36/-36
f -29/-29/-29 -32/-32/-32 -28/-28/-28
f -32/-32/-32 -27/-27/-27 -28/-28/-28
f -26/-26/-26 -36/-36/-36 -29/-29/-29
f -25/-25/-25 -26/-26/-26 -29/-29/-29
f -22/-22/-22 -23/-23/-23 -24/-24/-24
f -21/-21/-21 -22/-22/-22 -24/-24/-24
f -18/-18/-18 -19/-19/-19 -20/-20/-20
f -17/-17/-17 -18/-18/-18 -20/-20/-20
f -14/-14/-14 -15/-15/-15 -16/-16/-16
f -13/-13/-13 -14/-14/-14 -16/-16/-16
f -10/-10/-10 -11/-11/-11 -12/-12/-12
f -9/-9/-9 -10/-10/-10 -12/-12/-12
f -6/-6/-6 -7/-7/-7 -8/-8/-8
f -5/-5/-5 -6/-6/-6 -8/-8/-8
f -2/-2/-2 -3/-3/-3 -4/-4/-4
f -1/-1/-1 -2/-2/-2 -4/-4/-4

