g Pizza_Tree
v 0.25 -0.25 -0.9906499
v -0.25 -0.25 -0.2406499
v 0.25 -0.25 -0.2406499
v -0.25 -0.25 -0.9906499
v 0.25 0.25 -0.9906502
v 0.25 -0.25 -0.2406499
v 0.25 0.25 -0.2406502
v 0.25 -0.25 -0.9906499
v -0.25 0.25 -0.2406502
v -0.25 -0.25 -0.9906499
v -0.25 0.25 -0.9906502
v -0.25 -0.25 -0.2406499
v -0.25 0.25 -0.9906502
v 0.25 -0.25 -0.9906499
v 0.25 0.25 -0.9906502
v -0.25 -0.25 -0.9906499
v 0.25 0.25 -0.9906502
v -0.25 0.25 -0.2406502
v -0.25 0.25 -0.9906502
v 0.25 0.25 -0.2406502
v -0.2483252 -0.2466797 -0.005950012
v 0.2483252 -0.3126758 -0.00594986
v 0.2483252 -0.2466797 -0.005950012
v -0.2483252 -0.3126758 -0.00594986
v 0.2483252 -0.2466797 -0.005950012
v 0.2483252 -0.3126758 0.9246501
v 0.2483252 -0.2466797 0.92465
v 0.2483252 -0.3126758 -0.00594986
v 0.2483252 -0.2466797 0.92465
v -0.2483252 -0.3126758 0.9246501
v -0.2483252 -0.2466797 0.92465
v 0.2483252 -0.3126758 0.9246501
v -0.2483252 -0.2466797 0.92465
v -0.2483252 -0.3126758 -0.00594986
v -0.2483252 -0.2466797 -0.005950012
v -0.2483252 -0.3126758 0.9246501
v 0.2483252 -0.3126758 -0.00594986
v -0.2483252 -0.3126758 0.9246501
v 0.2483252 -0.3126758 0.9246501
v -0.2483252 -0.3126758 -0.00594986
v 0.2483252 -0.2466797 -0.005950012
v 0.3143262 0.2466699 -0.005950165
v 0.2483252 0.2466699 -0.005950165
v 0.3143262 -0.2466797 -0.005950012
v 0.2483252 0.2466699 -0.005950165
v 0.3143262 0.2466699 0.9246498
v 0.2483252 0.2466699 0.9246498
v 0.3143262 0.2466699 -0.005950165
v 0.2483252 0.2466699 0.9246498
v 0.3143262 -0.2466797 0.92465
v 0.2483252 -0.2466797 0.92465
v 0.3143262 0.2466699 0.9246498
v 0.2483252 -0.2466797 0.92465
v 0.3143262 -0.2466797 -0.005950012
v 0.2483252 -0.2466797 -0.005950012
v 0.3143262 -0.2466797 0.92465
v 0.3143262 0.2466699 -0.005950165
v 0.3143262 -0.2466797 0.92465
v 0.3143262 0.2466699 0.9246498
v 0.3143262 -0.2466797 -0.005950012
v 0.2483252 -0.2466797 0.92465
v 0.2483252 0.2466699 0.9906499
v 0.2483252 0.2466699 0.9246498
v 0.2483252 -0.2466797 0.99065
v 0.2483252 0.2466699 0.9246498
v -0.2483252 0.2466699 0.9906499
v -0.2483252 0.2466699 0.9246498
v 0.2483252 0.2466699 0.9906499
v -0.2483252 0.2466699 0.9246498
v -0.2483252 -0.2466797 0.99065
v -0.2483252 -0.2466797 0.92465
v -0.2483252 0.2466699 0.9906499
v -0.2483252 -0.2466797 0.92465
v 0.2483252 -0.2466797 0.99065
v 0.2483252 -0.2466797 0.92465
v -0.2483252 -0.2466797 0.99065
v 0.2483252 0.2466699 0.9906499
v -0.2483252 -0.2466797 0.99065
v -0.2483252 0.2466699 0.9906499
v 0.2483252 -0.2466797 0.99065
v -0.2483252 -0.2466797 0.92465
v -0.3143262 0.2466699 0.9246498
v -0.2483252 0.2466699 0.9246498
v -0.3143262 -0.2466797 0.92465
v -0.2483252 0.2466699 0.9246498
v -0.3143262 0.2466699 -0.005950165
v -0.2483252 0.2466699 -0.005950165
v -0.3143262 0.2466699 0.9246498
v -0.2483252 0.2466699 -0.005950165
v -0.3143262 -0.2466797 -0.005950012
v -0.2483252 -0.2466797 -0.005950012
v -0.3143262 0.2466699 -0.005950165
v -0.2483252 -0.2466797 -0.005950012
v -0.3143262 -0.2466797 0.92465
v -0.2483252 -0.2466797 0.92465
v -0.3143262 -0.2466797 -0.005950012
v -0.3143262 0.2466699 0.9246498
v -0.3143262 -0.2466797 -0.005950012
v -0.3143262 0.2466699 -0.005950165
v -0.3143262 -0.2466797 0.92465
v -0.2483252 -0.2466797 -0.005950012
v -0.2483252 0.2466699 -0.07195023
v -0.2483252 0.2466699 -0.005950165
v -0.2483252 -0.2466797 -0.07194992
v -0.2483252 0.2466699 -0.005950165
v 0.2483252 0.2466699 -0.07195023
v 0.2483252 0.2466699 -0.005950165
v -0.2483252 0.2466699 -0.07195023
v 0.2483252 0.2466699 -0.005950165
v 0.2483252 -0.2466797 -0.07194992
v 0.2483252 -0.2466797 -0.005950012
v 0.2483252 0.2466699 -0.07195023
v 0.2483252 -0.2466797 -0.005950012
v -0.2483252 -0.2466797 -0.07194992
v -0.2483252 -0.2466797 -0.005950012
v 0.2483252 -0.2466797 -0.07194992
v -0.2483252 0.2466699 -0.07195023
v 0.2483252 -0.2466797 -0.07194992
v 0.2483252 0.2466699 -0.07195023
v -0.2483252 -0.2466797 -0.07194992
v 0.2483252 0.2466699 0.9246498
v 0.2483252 0.3126758 -0.005950165
v 0.2483252 0.2466699 -0.005950165
v 0.2483252 0.3126758 0.9246498
v 0.2483252 0.2466699 -0.005950165
v -0.2483252 0.3126758 -0.005950165
v -0.2483252 0.2466699 -0.005950165
v 0.2483252 0.3126758 -0.005950165
v -0.2483252 0.2466699 -0.005950165
v -0.2483252 0.3126758 0.9246498
v -0.2483252 0.2466699 0.9246498
v -0.2483252 0.3126758 -0.005950165
v -0.2483252 0.2466699 0.9246498
v 0.2483252 0.3126758 0.9246498
v 0.2483252 0.2466699 0.9246498
v -0.2483252 0.3126758 0.9246498
v 0.2483252 0.3126758 -0.005950165
v -0.2483252 0.3126758 0.9246498
v -0.2483252 0.3126758 -0.005950165
v 0.2483252 0.3126758 0.9246498
v 0.25 -0.25 -0.2406499
v 0.148999 0.148999 -0.2406502
v 0.25 0.25 -0.2406502
v 0.148999 -0.1490039 -0.2406499
v 0.25 0.25 -0.2406502
v -0.1490015 0.148999 -0.2406502
v -0.25 0.25 -0.2406502
v 0.148999 0.148999 -0.2406502
v -0.25 0.25 -0.2406502
v -0.1490015 -0.1490039 -0.2406499
v -0.25 -0.25 -0.2406499
v -0.1490015 0.148999 -0.2406502
v -0.25 -0.25 -0.2406499
v 0.148999 -0.1490039 -0.2406499
v 0.25 -0.25 -0.2406499
v -0.1490015 -0.1490039 -0.2406499
v 0.148999 -0.1490039 -0.2406499
v 0.148999 0.148999 -0.4106502
v 0.148999 0.148999 -0.2406502
v 0.148999 -0.1490039 -0.4106499
v 0.148999 0.148999 -0.2406502
v -0.1490015 0.148999 -0.4106502
v -0.1490015 0.148999 -0.2406502
v 0.148999 0.148999 -0.4106502
v -0.1490015 0.148999 -0.2406502
v -0.1490015 -0.1490039 -0.4106499
v -0.1490015 -0.1490039 -0.2406499
v -0.1490015 0.148999 -0.4106502
v -0.1490015 -0.1490039 -0.2406499
v 0.148999 -0.1490039 -0.4106499
v 0.148999 -0.1490039 -0.2406499
v -0.1490015 -0.1490039 -0.4106499
v 0.148999 0.148999 -0.4106502
v -0.1490015 -0.1490039 -0.4106499
v -0.1490015 0.148999 -0.4106502
v 0.148999 -0.1490039 -0.4106499
v 0.0475 -0.0225 -0.4556502
v 0.0475 0.0775 0.04434998
v 0.0475 0.0775 -0.4556502
v 0.0475 -0.0225 0.04435013
v -0.0525 -0.0225 -0.4556502
v 0.0475 0.0775 -0.4556502
v -0.0525 0.0775 -0.4556502
v 0.0475 -0.0225 -0.4556502
v -0.0525 0.0775 -0.4556502
v 0.0475 0.0775 0.04434998
v -0.0525 0.0775 0.04434998
v 0.0475 0.0775 -0.4556502
v -0.0525 0.0775 0.04434998
v 0.0475 -0.0225 0.04435013
v -0.0525 -0.0225 0.04435013
v 0.0475 0.0775 0.04434998
v -0.0525 -0.0225 0.04435013
v 0.0475 -0.0225 -0.4556502
v -0.0525 -0.0225 -0.4556502
v 0.0475 -0.0225 0.04435013
v -0.0525 -0.0225 -0.4556502
v -0.0525 0.0775 0.04434998
v -0.0525 -0.0225 0.04435013
v -0.0525 0.0775 -0.4556502
vt 0.9561421 0.7000166
vt 0.9459028 0.7152999
vt 0.9561073 0.7153232
vt 0.9459376 0.6999934
vt 0.9663464 0.7000397
vt 0.9561073 0.7153232
vt 0.9663116 0.7153463
vt 0.9561421 0.7000166
vt 0.9356986 0.7152768
vt 0.9459376 0.6999934
vt 0.9357332 0.6999702
vt 0.9459028 0.7152999
vt 0.9357332 0.6999702
vt 0.925552 0.6897428
vt 0.9255289 0.6999472
vt 0.9357563 0.6897659
vt 0.9255289 0.6999472
vt 0.9356986 0.7152768
vt 0.9357332 0.6999702
vt 0.9254943 0.7152537
vt 0.9574234 0.7190728
vt 0.9675664 0.7203652
vt 0.9675591 0.7190183
vt 0.9574307 0.7204198
vt 0.9689133 0.7203579
vt 0.9676689 0.7393572
vt 0.9690157 0.7393498
vt 0.9675664 0.7203652
vt 0.967676 0.7407041
vt 0.9575329 0.7394118
vt 0.9575403 0.7407587
vt 0.9676689 0.7393572
vt 0.9561861 0.739419
vt 0.9574307 0.7204198
vt 0.9560837 0.720427
vt 0.9575329 0.7394118
vt 0.9675664 0.7203652
vt 0.9575329 0.7394118
vt 0.9676689 0.7393572
vt 0.9574307 0.7204198
vt 0.970253 0.7190037
vt 0.9803288 0.7202961
vt 0.9803215 0.7189493
vt 0.9702602 0.7203506
vt 0.9816758 0.7202888
vt 0.9804312 0.7392883
vt 0.9817781 0.739281
vt 0.9803288 0.7202961
vt 0.9804385 0.7406353
vt 0.9703628 0.7393426
vt 0.9703699 0.7406896
vt 0.9804312 0.7392883
vt 0.9690157 0.7393498
vt 0.9702602 0.7203506
vt 0.9689133 0.7203579
vt 0.9703628 0.7393426
vt 0.9803288 0.7202961
vt 0.9703628 0.7393426
vt 0.9804312 0.7392883
vt 0.9702602 0.7203506
vt 0.9703699 0.7406896
vt 0.9804457 0.7419823
vt 0.9804385 0.7406353
vt 0.9703773 0.7420365
vt 0.9817927 0.741975
vt 0.9805003 0.7521181
vt 0.9818473 0.7521108
vt 0.9804457 0.7419823
vt 0.9805076 0.753465
vt 0.9704319 0.7521723
vt 0.9704391 0.7535192
vt 0.9805003 0.7521181
vt 0.969085 0.7521796
vt 0.9703773 0.7420365
vt 0.9690303 0.7420438
vt 0.9704319 0.7521723
vt 0.9804457 0.7419823
vt 0.9704319 0.7521723
vt 0.9805003 0.7521181
vt 0.9703773 0.7420365
vt 0.9548463 0.7407733
vt 0.9447707 0.7394804
vt 0.9447779 0.7408274
vt 0.9548391 0.7394263
vt 0.9434237 0.7394877
vt 0.9446683 0.7204885
vt 0.9433213 0.7204958
vt 0.9447707 0.7394804
vt 0.9446611 0.7191415
vt 0.9547367 0.7204342
vt 0.9547296 0.7190874
vt 0.9446683 0.7204885
vt 0.9560837 0.720427
vt 0.9548391 0.7394263
vt 0.9561861 0.739419
vt 0.9547367 0.7204342
vt 0.9447707 0.7394804
vt 0.9547367 0.7204342
vt 0.9446683 0.7204885
vt 0.9548391 0.7394263
vt 0.9701836 0.7061738
vt 0.9802594 0.7074663
vt 0.9802521 0.7061194
vt 0.9701908 0.7075208
vt 0.9816063 0.707459
vt 0.9803143 0.7176022
vt 0.9816612 0.7175949
vt 0.9802594 0.7074663
vt 0.9803215 0.7189493
vt 0.9702457 0.7176567
vt 0.970253 0.7190037
vt 0.9803143 0.7176022
vt 0.9688988 0.717664
vt 0.9701908 0.7075208
vt 0.9688439 0.7075281
vt 0.9702457 0.7176567
vt 0.9802594 0.7074663
vt 0.9702457 0.7176567
vt 0.9803143 0.7176022
vt 0.9701908 0.7075208
vt 0.9817781 0.739281
vt 0.9830228 0.7202815
vt 0.9816758 0.7202888
vt 0.9831252 0.7392738
vt 0.9830155 0.7189346
vt 0.9931588 0.7202269
vt 0.9931515 0.7188799
vt 0.9830228 0.7202815
vt 0.9945058 0.7202196
vt 0.9932612 0.7392192
vt 0.9946082 0.7392119
vt 0.9931588 0.7202269
vt 0.9932684 0.7405662
vt 0.9831252 0.7392738
vt 0.9831324 0.7406208
vt 0.9932612 0.7392192
vt 0.9830228 0.7202815
vt 0.9932612 0.7392192
vt 0.9931588 0.7202269
vt 0.9831252 0.7392738
vt 0.9561073 0.7153232
vt 0.9642456 0.7174029
vt 0.9663116 0.7153463
vt 0.9581639 0.7173892
vt 0.9254943 0.7152537
vt 0.9336327 0.7173334
vt 0.9356986 0.7152768
vt 0.9275509 0.7173195
vt 0.9356986 0.7152768
vt 0.9438369 0.7173565
vt 0.9459028 0.7152999
vt 0.9377552 0.7173427
vt 0.9459028 0.7152999
vt 0.9540414 0.7173797
vt 0.9561073 0.7153232
vt 0.9479595 0.7173659
vt 0.9240601 0.726863
vt 0.9275432 0.720789
vt 0.9240737 0.7207813
vt 0.9275295 0.7268707
vt 0.9275509 0.7173195
vt 0.9336249 0.7208027
vt 0.9336327 0.7173334
vt 0.9275432 0.720789
vt 0.9370942 0.7208105
vt 0.9336112 0.7268844
vt 0.9370806 0.7268922
vt 0.9336249 0.7208027
vt 0.9336034 0.7303538
vt 0.9275295 0.7268707
vt 0.9275217 0.7303402
vt 0.9336112 0.7268844
vt 0.9275432 0.720789
vt 0.9336112 0.7268844
vt 0.9336249 0.7208027
vt 0.9275295 0.7268707
vt 0.9385132 0.7354375
vt 0.9283088 0.7374783
vt 0.9385132 0.7374783
vt 0.9283088 0.7354375
vt 0.9385132 0.7415601
vt 0.940554 0.7395193
vt 0.9385132 0.7395193
vt 0.940554 0.7415601
vt 0.9385132 0.7395193
vt 0.9283088 0.7374783
vt 0.9283088 0.7395193
vt 0.9385132 0.7374783
vt 0.9283088 0.7395193
vt 0.9262679 0.7415601
vt 0.9283088 0.7415601
vt 0.9262679 0.7395192
vt 0.9283088 0.7333966
vt 0.9385132 0.7354375
vt 0.9385132 0.7333966
vt 0.9283088 0.7354375
vt 0.9385132 0.7415601
vt 0.9283088 0.7395193
vt 0.9283088 0.7415601
vt 0.9385132 0.7395193
vn 0 -1 0
vn 0 -1 0
vn 0 -1 0
vn 0 -1 0
vn 1 0 0
vn 1 0 0
vn 1 0 0
vn 1 0 0
vn -1 0 0
vn -1 0 0
vn -1 0 0
vn -1 0 0
vn 0 -6.103515E-07 -1
vn 0 -6.103515E-07 -1
vn 0 -6.103515E-07 -1
vn 0 -6.103515E-07 -1
vn 0 1 0
vn 0 1 0
vn 0 1 0
vn 0 1 0
vn 0 -1.310682E-06 -1
vn 0 -2.312074E-06 -1
vn 0 -1.310682E-06 -1
vn 0 -2.312074E-06 -1
vn 1 0 0
vn 1 0 0
vn 1 0 0
vn 1 0 0
vn 0 1.310682E-06 1
vn 0 2.312074E-06 1
vn 0 1.310682E-06 1
vn 0 2.312074E-06 1
vn -1 0 0
vn -1 0 0
vn -1 0 0
vn -1 0 0
vn 0 -1 0
vn 0 -1 0
vn 0 -1 0
vn 0 -1 0
vn 0 -1.310682E-06 -1
vn 0 -3.092896E-07 -1
vn 0 0.4472135 -0.8944273
vn 0 -3.092896E-07 -1
vn 0.8944272 0.4472135 0
vn 0 1 0
vn 0.8944272 0.4472136 0
vn 0 1 0
vn 0 0.4472137 0.8944271
vn 0 3.092896E-07 1
vn 0 1.310682E-06 1
vn 0 3.092896E-07 1
vn 0 -1 0
vn 0 -1 0
vn 0 -1 0
vn 0 -1 0
vn 1 0 0
vn 1 0 0
vn 1 0 0
vn 1 0 0
vn 1 0 0
vn 1 0 0
vn 0.8944272 0.4472136 0
vn 1 0 0
vn 0 0.4472137 0.8944271
vn 0 1 0
vn 0 0.4472137 0.8944271
vn 0 1 0
vn -0.8944272 0.4472136 0
vn -1 0 0
vn -1 0 0
vn -1 0 0
vn 0 -1 0
vn 0 -1 0
vn 0 -1 0
vn 0 -1 0
vn 0 3.092896E-07 1
vn 0 3.092896E-07 1
vn 0 3.092896E-07 1
vn 0 3.092896E-07 1
vn 0 1.310682E-06 1
vn 0 3.092896E-07 1
vn 0 0.4472137 0.8944271
vn 0 3.092896E-07 1
vn -0.8944272 0.4472136 0
vn 0 1 0
vn -0.8944272 0.4472135 0
vn 0 1 0
vn 0 0.4472135 -0.8944273
vn 0 -3.092896E-07 -1
vn 0 -1.310682E-06 -1
vn 0 -3.092896E-07 -1
vn 0 -1 0
vn 0 -1 0
vn 0 -1 0
vn 0 -1 0
vn -1 0 0
vn -1 0 0
vn -1 0 0
vn -1 0 0
vn -1 0 0
vn -1 0 0
vn -0.8944272 0.4472135 0
vn -1 0 0
vn 0 0.4472135 -0.8944273
vn 0 1 0
vn 0 0.4472135 -0.8944273
vn 0 1 0
vn 0.8944272 0.4472135 0
vn 1 0 0
vn 1 0 0
vn 1 0 0
vn 0 -1 0
vn 0 -1 0
vn 0 -1 0
vn 0 -1 0
vn 0 -6.185792E-07 -1
vn 0 -6.185792E-07 -1
vn 0 -6.185792E-07 -1
vn 0 -6.185792E-07 -1
vn 0.8944272 0.4472136 0
vn 1 0 0
vn 0.8944272 0.4472135 0
vn 1 0 0
vn 0 0.4472135 -0.8944273
vn 0 0 -1
vn 0 0.4472135 -0.8944273
vn 0 0 -1
vn -0.8944272 0.4472135 0
vn -1 0 0
vn -0.8944272 0.4472136 0
vn -1 0 0
vn 0 0.4472137 0.8944271
vn 0 0 1
vn 0 0.4472137 0.8944271
vn 0 0 1
vn 0 1 0
vn 0 1 0
vn 0 1 0
vn 0 1 0
vn 0 3.824362E-07 1
vn 0 3.824244E-07 1
vn 0 3.824244E-07 1
vn 0 3.824205E-07 1
vn 0 3.824244E-07 1
vn 0 3.824264E-07 1
vn 0 3.824185E-07 1
vn 0 3.824244E-07 1
vn 0 3.824185E-07 1
vn 0 3.824224E-07 1
vn 0 3.824303E-07 1
vn 0 3.824264E-07 1
vn 0 3.824303E-07 1
vn 0 3.824205E-07 1
vn 0 3.824362E-07 1
vn 0 3.824224E-07 1
vn -1 0 0
vn -1 0 0
vn -1 0 0
vn -1 0 0
vn 0 -1 0
vn 0 -1 0
vn 0 -1 0
vn 0 -1 0
vn 1 0 0
vn 1 0 0
vn 1 0 0
vn 1 0 0
vn 0 1 0
vn 0 1 0
vn 0 1 0
vn 0 1 0
vn 0 1.02407E-06 1
vn 0 1.02407E-06 1
vn 0 1.02407E-06 1
vn 0 1.02407E-06 1
vn 1 0 0
vn 1 0 0
vn 1 0 0
vn 1 0 0
vn 0 0 -1
vn 0 0 -1
vn 0 0 -1
vn 0 0 -1
vn 0 1 0
vn 0 1 0
vn 0 1 0
vn 0 1 0
vn 0 1.525879E-06 1
vn 0 1.525879E-06 1
vn 0 1.525879E-06 1
vn 0 1.525879E-06 1
vn 0 -1 0
vn 0 -1 0
vn 0 -1 0
vn 0 -1 0
vn -1 0 0
vn -1 0 0
vn -1 0 0
vn -1 0 0
g Pizza_Tree_0
f 3/3/3 2/2/2 1/1/1
f 4/4/4 1/1/1 2/2/2
f 7/7/7 6/6/6 5/5/5
f 8/8/8 5/5/5 6/6/6
f 11/11/11 10/10/10 9/9/9
f 12/12/12 9/9/9 10/10/10
f 15/15/15 14/14/14 13/13/13
f 16/16/16 13/13/13 14/14/14
f 19/19/19 18/18/18 17/17/17
f 20/20/20 17/17/17 18/18/18
f 23/23/23 22/22/22 21/21/21
f 24/24/24 21/21/21 22/22/22
f 27/27/27 26/26/26 25/25/25
f 28/28/28 25/25/25 26/26/26
f 31/31/31 30/30/30 29/29/29
f 32/32/32 29/29/29 30/30/30
f 35/35/35 34/34/34 33/33/33
f 36/36/36 33/33/33 34/34/34
f 39/39/39 38/38/38 37/37/37
f 40/40/40 37/37/37 38/38/38
f 43/43/43 42/42/42 41/41/41
f 44/44/44 41/41/41 42/42/42
f 47/47/47 46/46/46 45/45/45
f 48/48/48 45/45/45 46/46/46
f 51/51/51 50/50/50 49/49/49
f 52/52/52 49/49/49 50/50/50
f 55/55/55 54/54/54 53/53/53
f 56/56/56 53/53/53 54/54/54
f 59/59/59 58/58/58 57/57/57
f 60/60/60 57/57/57 58/58/58
f 63/63/63 62/62/62 61/61/61
f 64/64/64 61/61/61 62/62/62
f 67/67/67 66/66/66 65/65/65
f 68/68/68 65/65/65 66/66/66
f 71/71/71 70/70/70 69/69/69
f 72/72/72 69/69/69 70/70/70
f 75/75/75 74/74/74 73/73/73
f 76/76/76 73/73/73 74/74/74
f 79/79/79 78/78/78 77/77/77
f 80/80/80 77/77/77 78/78/78
f 83/83/83 82/82/82 81/81/81
f 84/84/84 81/81/81 82/82/82
f 87/87/87 86/86/86 85/85/85
f 88/88/88 85/85/85 86/86/86
f 91/91/91 90/90/90 89/89/89
f 92/92/92 89/89/89 90/90/90
f 95/95/95 94/94/94 93/93/93
f 96/96/96 93/93/93 94/94/94
f 99/99/99 98/98/98 97/97/97
f 100/100/100 97/97/97 98/98/98
f 103/103/103 102/102/102 101/101/101
f 104/104/104 101/101/101 102/102/102
f 107/107/107 106/106/106 105/105/105
f 108/108/108 105/105/105 106/106/106
f 111/111/111 110/110/110 109/109/109
f 112/112/112 109/109/109 110/110/110
f 115/115/115 114/114/114 113/113/113
f 116/116/116 113/113/113 114/114/114
f 119/119/119 118/118/118 117/117/117
f 120/120/120 117/117/117 118/118/118
f 123/123/123 122/122/122 121/121/121
f 124/124/124 121/121/121 122/122/122
f 127/127/127 126/126/126 125/125/125
f 128/128/128 125/125/125 126/126/126
f 131/131/131 130/130/130 129/129/129
f 132/132/132 129/129/129 130/130/130
f 135/135/135 134/134/134 133/133/133
f 136/136/136 133/133/133 134/134/134
f 139/139/139 138/138/138 137/137/137
f 140/140/140 137/137/137 138/138/138
f 143/143/143 142/142/142 141/141/141
f 144/144/144 141/141/141 142/142/142
f 147/147/147 146/146/146 145/145/145
f 148/148/148 145/145/145 146/146/146
f 151/151/151 150/150/150 149/149/149
f 152/152/152 149/149/149 150/150/150
f 155/155/155 154/154/154 153/153/153
f 156/156/156 153/153/153 154/154/154
f 159/159/159 158/158/158 157/157/157
f 160/160/160 157/157/157 158/158/158
f 163/163/163 162/162/162 161/161/161
f 164/164/164 161/161/161 162/162/162
f 167/167/167 166/166/166 165/165/165
f 168/168/168 165/165/165 166/166/166
f 171/171/171 170/170/170 169/169/169
f 172/172/172 169/169/169 170/170/170
f 175/175/175 174/174/174 173/173/173
f 176/176/176 173/173/173 174/174/174
f 179/179/179 178/178/178 177/177/177
f 180/180/180 177/177/177 178/178/178
f 183/183/183 182/182/182 181/181/181
f 184/184/184 181/181/181 182/182/182
f 187/187/187 186/186/186 185/185/185
f 188/188/188 185/185/185 186/186/186
f 191/191/191 190/190/190 189/189/189
f 192/192/192 189/189/189 190/190/190
f 195/195/195 194/194/194 193/193/193
f 196/196/196 193/193/193 194/194/194
f 199/199/199 198/198/198 197/197/197
f 200/200/200 197/197/197 198/198/198
