g Pizza_Corridor_Walls
v -26.75 -11.5 1.467957
v -25.5 -11.5 4.882812E-06
v -25.5 -11.5 1.467957
v -26.75 -11.5 4.882812E-06
v -22.75 -11.5 1.467957
v -22.75 -2.961324 4.882812E-06
v -22.75 -2.961324 1.467957
v -22.75 -11.5 4.882812E-06
v -26.75 11.5 1.467957
v -26.75 6.500014 4.882812E-06
v -26.75 6.500014 1.467957
v -26.75 11.5 4.882812E-06
v -22.75 7.499999 1.467957
v -11.75 7.500002 4.119873E-06
v -11.75 7.500002 1.467957
v -22.75 7.500002 4.310608E-06
v -11.75 10.25 1.467957
v -11.75 11.5 4.119873E-06
v -11.75 11.5 1.467957
v -11.75 10.25 4.119873E-06
v -11.75 10.25 1.499999
v -11.75 11.5 1.499999
v -24 -11.5 1.467957
v -22.75 -11.5 4.882812E-06
v -22.75 -11.5 1.467957
v -24 -11.5 4.882812E-06
v -25.5 -11.5 4.500005
v -26.75 -11.5 3.000007
v -25.5 -11.5 3.000007
v -26.75 -11.5 4.500005
v -24 -11.5 4.500005
v -24 -11.5 3.000007
v -22.75 -11.5 4.500005
v -22.75 -11.5 3.000007
v -25.5 -11.5 1.967957
v -26.75 -11.5 1.967957
v -22.75 -11.5 1.967957
v -24 -11.5 1.967957
v -22.75 -1.461324 3.000007
v -22.75 7.499995 4.500004
v -22.75 -1.461324 4.500005
v -22.75 7.499995 3.000007
v -22.75 -2.961324 4.500005
v -22.75 -2.961324 3.000007
v -22.75 -11.5 4.500005
v -22.75 -11.5 3.000007
v -22.75 -2.961324 1.967957
v -22.75 -11.5 1.967957
v -22.75 7.499998 1.967957
v -22.75 -1.461324 1.967957
v -11.75 7.500002 4.500004
v -22.75 7.499995 3.000007
v -11.75 7.500002 3.000007
v -22.75 7.499995 4.500004
v -11.75 7.500002 1.967957
v -22.75 7.499998 1.967957
v -11.75 8.749999 4.500003
v -11.75 7.500002 3.000007
v -11.75 8.75 3.000007
v -11.75 7.500002 4.500004
v -11.75 10.25 4.500004
v -11.75 10.25 3.000007
v -11.75 11.5 4.500004
v -11.75 11.5 3.000007
v -11.75 11.5 1.967957
v -11.75 10.25 1.967957
v -11.75 8.75 1.967957
v -11.75 7.500002 1.967957
v -26.75 -11.5 4.500005
v -26.75 -7.49999 3.000007
v -26.75 -11.5 3.000007
v -26.75 -7.49999 4.500005
v -26.75 -5.99999 4.500005
v -26.75 -5.99999 3.000007
v -26.75 5.000014 4.500005
v -26.75 5.000014 3.000007
v -26.75 6.500014 4.500005
v -26.75 6.500014 3.000007
v -26.75 11.5 4.500005
v -26.75 11.5 3.000007
v -26.75 6.500014 1.967957
v -26.75 11.5 1.967957
v -26.75 -5.99999 1.967957
v -26.75 5.000014 1.967957
v -26.75 -11.5 1.967957
v -26.75 -7.49999 1.967957
v -26.75 5.000014 1.467957
v -26.75 -5.99999 4.882812E-06
v -26.75 -5.99999 1.467957
v -26.75 5.000014 4.882812E-06
v -22.75 -1.461324 1.467957
v -22.75 7.500002 4.310608E-06
v -22.75 7.499999 1.467957
v -22.75 -1.461324 4.882812E-06
v -26.75 -5.99999 4.882812E-06
v -27 -5.99999 1.467957
v -26.75 -5.99999 1.467957
v -27 -5.99999 7.171631E-06
v -26.75 -7.49999 3.000007
v -27 -7.49999 1.967957
v -26.75 -7.49999 1.967957
v -27 -7.49999 3.000007
v -27 5.000015 7.171631E-06
v -26.75 5.000014 1.467957
v -27 5.000015 1.467957
v -26.75 5.000014 4.882812E-06
v -27 5.000015 3.000007
v -26.75 6.500014 3.000007
v -27 6.500014 3.000007
v -26.75 5.000014 3.000007
v -27 6.500014 3.000007
v -26.75 6.500014 1.967957
v -27 6.500014 1.967957
v -26.75 6.500014 3.000007
v -11.75 7.500002 1.467957
v -11.75 8.75 4.119873E-06
v -11.75 8.75 1.467957
v -11.75 7.500002 4.119873E-06
v -26.75 -7.49999 1.467957
v -26.75 -11.5 4.882812E-06
v -26.75 -11.5 1.467957
v -26.75 -7.49999 4.882812E-06
v -27 -7.49999 3.000007
v -26.75 -5.99999 3.000007
v -27 -5.99999 3.000007
v -26.75 -7.49999 3.000007
v -15.65 11.5 3
v -11.75 11.5 1.967957
v -15.65 11.5 1.967957
v -11.75 11.5 4.499983
v -17.35 11.5 3
v -26.75 11.49999 4.499983
v -21.15 11.5 3
v -21.15 11.5 1.967957
v -17.35 11.5 1.967957
v -22.85 11.49999 3
v -26.75 11.49999 1.967957
v -22.85 11.49999 1.967957
v -26.75 -7.49999 4.882812E-06
v -27 -7.49999 1.467957
v -27 -7.49999 7.171631E-06
v -26.75 -7.49999 1.467957
v -27 6.500014 7.171631E-06
v -26.75 6.500014 1.467957
v -26.75 6.500014 4.882812E-06
v -27 6.500014 1.467957
v -15.65 11.5 -1.724243E-05
v -11.75 11.5 1.467957
v -11.75 11.5 -1.739502E-05
v -15.65 11.5 1.467957
v -21.15 11.5 -1.754761E-05
v -17.35 11.5 1.467957
v -17.35 11.5 -1.708984E-05
v -21.15 11.5 1.467957
v -26.75 11.49999 -1.724243E-05
v -22.85 11.49999 1.467957
v -22.85 11.49999 -1.724243E-05
v -26.75 11.49999 1.467957
v -26.75 -5.99999 3.000007
v -27 -5.99999 1.967957
v -27 -5.99999 3.000007
v -26.75 -5.99999 1.967957
v -27 5.000015 3.000007
v -26.75 5.000014 1.967957
v -26.75 5.000014 3.000007
v -27 5.000015 1.967957
v -11.75 10.25 1.499999
v -11.75 11.5 1.967957
v -11.75 10.25 1.967957
v -11.75 11.5 1.499999
v -26.75 -11.5 1.967957
v -25.5 -11.5 1.467957
v -25.5 -11.5 1.967957
v -26.75 -11.5 1.467957
v -22.75 -11.5 1.967957
v -22.75 -2.961324 1.467957
v -22.75 -2.961324 1.967957
v -22.75 -11.5 1.467957
v -26.75 11.5 1.967957
v -26.75 6.500014 1.467957
v -26.75 6.500014 1.967957
v -26.75 11.5 1.467957
v -22.75 7.499998 1.967957
v -11.75 7.500002 1.467957
v -11.75 7.500002 1.967957
v -22.75 7.499999 1.467957
v -24 -11.5 1.967957
v -22.75 -11.5 1.467957
v -22.75 -11.5 1.967957
v -24 -11.5 1.467957
v -26.75 5.000014 1.967957
v -26.75 -5.99999 1.467957
v -26.75 -5.99999 1.967957
v -26.75 5.000014 1.467957
v -22.75 -1.461324 1.967957
v -22.75 7.499999 1.467957
v -22.75 7.499998 1.967957
v -22.75 -1.461324 1.467957
v -26.75 -5.99999 1.967957
v -27 -5.99999 1.467957
v -27 -5.99999 1.967957
v -26.75 -5.99999 1.467957
v -27 5.000015 1.967957
v -26.75 5.000014 1.467957
v -26.75 5.000014 1.967957
v -27 5.000015 1.467957
v -11.75 7.500002 1.967957
v -11.75 8.75 1.467957
v -11.75 8.75 1.967957
v -11.75 7.500002 1.467957
v -26.75 -7.49999 1.967957
v -26.75 -11.5 1.467957
v -26.75 -11.5 1.967957
v -26.75 -7.49999 1.467957
v -26.75 -7.49999 1.467957
v -27 -7.49999 1.967957
v -27 -7.49999 1.467957
v -26.75 -7.49999 1.967957
v -27 6.500014 1.467957
v -26.75 6.500014 1.967957
v -26.75 6.500014 1.467957
v -27 6.500014 1.967957
v -15.65 11.5 1.467957
v -11.75 11.5 1.967957
v -11.75 11.5 1.467957
v -15.65 11.5 1.967957
v -21.15 11.5 1.467957
v -17.35 11.5 1.967957
v -17.35 11.5 1.467957
v -21.15 11.5 1.967957
v -26.75 11.49999 1.467957
v -22.85 11.49999 1.967957
v -22.85 11.49999 1.467957
v -26.75 11.49999 1.967957
v -26.75 -11.5 4.882812E-06
v -24 -11.5 4.882812E-06
v -25.5 -11.5 4.882812E-06
v -26.75 -11.5 4.882812E-06
v -22.75 -11.5 4.882812E-06
v -24 -11.5 4.882812E-06
v -26.75 -11.5 4.882812E-06
v -22.75 7.500006 4.577636E-06
v -22.75 -11.5 4.882812E-06
v -26.75 7.500002 4.882812E-06
v -26.75 11.5 4.882812E-06
v -22.75 11.5 4.577636E-06
v -11.75 7.50001 4.272461E-06
v -11.75 8.75 4.272461E-06
v -11.75 10.25 4.272461E-06
v -11.75 11.5 4.272461E-06
v -26.75 -11.5 4.500005
v -22.75 7.500006 4.500004
v -26.75 7.500002 4.500005
v -22.75 -11.5 4.500005
v -26.75 11.5 4.500005
v -22.75 11.5 4.500004
v -11.75 7.50001 4.500004
v -11.75 8.75 4.500004
v -11.75 10.25 4.500004
v -11.75 11.5 4.500004
v -26.75 -11.5 4.500005
v -24 -11.5 4.500005
v -22.75 -11.5 4.500005
v -26.75 -11.5 4.500005
v -25.5 -11.5 4.500005
v -24 -11.5 4.500005
vt -18.625 0.4679556
vt -17.375 -0.9999967
vt -17.375 0.4679557
vt -18.625 -0.9999967
vt -6.99999 0.4679557
vt 1.538682 -0.9999967
vt 1.538682 0.4679557
vt -6.99999 -0.9999967
vt -15.00001 0.4679558
vt -10.00002 -0.9999967
vt -10.00002 0.4679557
vt -15.00001 -0.9999967
vt -14.62499 0.4679556
vt -3.624995 -0.9999974
vt -3.624995 0.4679556
vt -14.62499 -0.9999974
vt 14.75 0.4679557
vt 16 -0.9999974
vt 16 0.4679557
vt 14.75 -0.9999974
vt 14.75 0.4999971
vt 16 0.4999974
vt -15.875 0.4679558
vt -14.625 -0.9999967
vt -14.625 0.4679557
vt -15.875 -0.9999967
vt -17.375 3.500003
vt -18.625 2.000005
vt -17.375 2.000006
vt -18.625 3.500004
vt -15.875 3.500003
vt -15.875 2.000006
vt -14.625 3.500003
vt -14.625 2.000006
vt -17.375 0.9679558
vt -18.625 0.9679556
vt -14.625 0.9679558
vt -15.875 0.9679557
vt 3.038682 2.000006
vt 12 3.500005
vt 3.038682 3.500003
vt 12 2.000006
vt 1.538682 3.500003
vt 1.538682 2.000006
vt -6.99999 3.500003
vt -6.99999 2.000006
vt 1.538682 0.9679558
vt -6.99999 0.9679558
vt 12 0.9679559
vt 3.038682 0.9679557
vt -3.624995 3.500002
vt -14.62499 2.000006
vt -3.624995 2.000006
vt -14.62499 3.500002
vt -3.624995 0.9679556
vt -14.62499 0.9679556
vt 13.25 3.500002
vt 12.00001 2.000006
vt 13.25 2.000006
vt 12.00001 3.500002
vt 14.75 3.500002
vt 14.75 2.000006
vt 16 3.500002
vt 16 2.000006
vt 16 0.9679558
vt 14.75 0.9679556
vt 13.25 0.9679556
vt 12.00001 0.9679556
vt 7.999989 3.500004
vt 3.999984 2.000005
vt 7.999989 2.000005
vt 3.999984 3.500004
vt 2.499984 3.500004
vt 2.499984 2.000005
vt -8.500021 3.500003
vt -8.500021 2.000006
vt -10.00002 3.500003
vt -10.00002 2.000006
vt -15.00001 3.500003
vt -15.00001 2.000006
vt -10.00002 0.9679558
vt -15.00001 0.9679557
vt 2.49998 0.9679556
vt -8.500021 0.9679557
vt 7.999989 0.9679556
vt 3.999988 0.9679556
vt -8.500021 0.4679558
vt 2.499973 -0.9999967
vt 2.499978 0.4679556
vt -8.500021 -0.9999967
vt 3.038682 0.4679558
vt 12 -0.9999967
vt 12 0.4679561
vt 3.038682 -0.9999967
vt 19.625 -0.9999967
vt 19.875 0.4679558
vt 19.625 0.4679556
vt 19.875 -0.9999944
vt -18.625 2.000005
vt -18.875 0.9679557
vt -18.625 0.9679556
vt -18.875 2.000006
vt -18.875 -0.9999944
vt -18.625 0.4679558
vt -18.875 0.4679556
vt -18.625 -0.9999967
vt -18.875 9.500021
vt -18.625 11.00002
vt -18.875 11.00002
vt -18.625 9.500021
vt 19.875 2.000006
vt 19.625 0.9679558
vt 19.875 0.9679557
vt 19.625 2.000006
vt 12.00001 0.4679556
vt 13.25 -0.9999974
vt 13.25 0.4679556
vt 12.00001 -0.9999974
vt 3.999989 0.4679556
vt 7.999989 -0.9999967
vt 7.999989 0.4679556
vt 3.999994 -0.9999967
vt -18.875 -2.999973
vt -18.625 -1.499994
vt -18.875 -1.499993
vt -18.625 -2.999975
vt 4.1 1.250018
vt 7.999998 0.2179749
vt 4.1 0.2179748
vt 7.999999 2.75
vt 2.400001 1.250017
vt -7.000001 2.75
vt -1.400002 1.250018
vt -1.400002 0.2179749
vt 2.400001 0.2179747
vt -3.100003 1.250018
vt -7.000001 0.2179748
vt -3.100002 0.2179749
vt -18.625 -0.9999967
vt -18.875 0.4679556
vt -18.875 -0.9999944
vt -18.625 0.4679556
vt 19.875 -0.9999944
vt 19.625 0.4679557
vt 19.625 -0.9999967
vt 19.875 0.4679558
vt 4.1 -1.75
vt 7.999998 -0.2820252
vt 7.999999 -1.75
vt 4.1 -0.2820252
vt -1.400002 -1.75
vt 2.400001 -0.2820254
vt 2.400001 -1.75
vt -1.400002 -0.2820251
vt -7.000001 -1.75
vt -3.100003 -0.2820251
vt -3.100003 -1.75
vt -7.000001 -0.2820254
vt 19.625 2.000005
vt 19.875 0.9679557
vt 19.875 2.000006
vt 19.625 0.9679556
vt -18.875 2.000006
vt -18.625 0.9679557
vt -18.625 2.000006
vt -18.875 0.9679557
vt -13.75 0.2820415
vt -15 0.7500001
vt -13.75 0.7500001
vt -15 0.2820418
vt 19.69571 0.7500001
vt 18.44571 0.25
vt 18.44571 0.7500001
vt 19.69571 0.2500001
vt 7.999989 0.7500001
vt -0.5386822 0.25
vt -0.5386822 0.7500001
vt 7.999989 0.25
vt 16.00001 0.7500001
vt 11.00002 0.25
vt 11.00002 0.7500001
vt 16.00001 0.2500001
vt 15.69571 0.7500001
vt 4.695704 0.2500001
vt 4.695704 0.7500001
vt 15.69571 0.2500001
vt 16.94571 0.7500001
vt 15.69571 0.25
vt 15.69571 0.7500001
vt 16.94571 0.2500001
vt 9.500021 0.7500001
vt -1.499983 0.2500001
vt -1.499983 0.7500001
vt 9.500021 0.2500001
vt -2.038682 0.7500001
vt -11 0.2500001
vt -11 0.7500001
vt -2.038682 0.2500001
vt -18.69571 0.7500001
vt -18.94571 0.2500001
vt -18.94571 0.7500001
vt -18.69571 0.2500001
vt 19.94571 0.7500001
vt 19.69571 0.2500001
vt 19.69571 0.7500001
vt 19.94571 0.25
vt -11.00001 0.7500001
vt -12.25 0.2500001
vt -12.25 0.7500001
vt -11.00001 0.2500001
vt -2.999983 0.7500001
vt -6.999988 0.2500001
vt -6.999988 0.7500001
vt -2.999983 0.2500001
vt 19.69571 0.2500001
vt 19.94571 0.7500001
vt 19.94571 0.25
vt 19.69571 0.7500001
vt -18.94571 0.2500001
vt -18.69571 0.7500001
vt -18.69571 0.25
vt -18.94571 0.7500001
vt -7.595702 0.2500001
vt -3.695705 0.7500001
vt -3.695705 0.25
vt -7.595702 0.7500001
vt -13.09571 0.2500001
vt -9.295703 0.7500001
vt -9.295703 0.25
vt -13.09571 0.7500001
vt -18.69571 0.25
vt -14.79571 0.75
vt -14.79571 0.2500001
vt -18.69571 0.7500002
vt -1.375001 -2.375
vt -0.687501 -2.375
vt -1.062501 -2.375
vt -1.375001 -2.375
vt -0.375001 -2.375
vt -0.687501 -2.375
vt -1.375001 -2.375
vt -0.375 2.375
vt -0.375001 -2.375
vt -1.375 2.374999
vt -1.374999 3.375
vt -0.374999 3.374998
vt 2.375 2.375
vt 2.375 2.687498
vt 2.375 3.062498
vt 2.375 3.374996
vt 19.625 -10.99999
vt 15.625 8.000006
vt 19.625 8.000004
vt 15.625 -10.99999
vt 19.625 12.00001
vt 15.625 12
vt 4.624997 8.000008
vt 4.624997 9.249998
vt 4.624996 10.75
vt 4.624996 11.99999
vt 19.625 -10.99999
vt 16.875 -10.99999
vt 15.625 -10.99999
vt 19.625 -10.99999
vt 18.375 -10.99999
vt 16.875 -10.99999
vn 0 1 0
vn 0 1 0
vn 0 1 0
vn 0 1 0
vn -1 0 0
vn -1 0 0
vn -1 0 0
vn -1 0 0
vn 1 0 0
vn 1 0 0
vn 1 0 0
vn 1 0 0
vn -2.774325E-07 1 1.234028E-06
vn -1.664595E-07 1 1.247352E-06
vn -2.774325E-07 1 1.234028E-06
vn -1.664595E-07 1 1.247352E-06
vn -1 0 0
vn -1 0 0
vn -1 0 0
vn -1 0 0
vn -1 -2.441416E-07 6.521428E-07
vn -1 -2.441417E-07 6.521429E-07
vn 0 1 0
vn 0 1 0
vn 0 1 0
vn 0 1 0
vn 0 1 0
vn 0 1 0
vn 0 1 0
vn 0 1 0
vn 0 1 0
vn 0 1 0
vn 0 1 0
vn 0 1 0
vn 0 1 0
vn 0 1 0
vn 0 1 0
vn 0 1 0
vn -1 0 0
vn -1 0 0
vn -1 0 0
vn -1 0 0
vn -1 0 0
vn -1 0 0
vn -1 0 0
vn -1 0 0
vn -1 0 0
vn -1 0 0
vn -1 0 0
vn -1 0 0
vn -6.65838E-07 1 0
vn -6.103515E-07 1 5.913973E-07
vn -6.103515E-07 1 5.913973E-07
vn -6.65838E-07 1 0
vn -4.716352E-07 1 1.201749E-06
vn -4.716352E-07 1 1.201749E-06
vn -1 0 0
vn -1 9.765645E-07 0
vn -1 3.797755E-07 0
vn -1 9.765646E-07 0
vn -1 -4.069009E-07 0
vn -1 -4.340284E-07 -1.971325E-07
vn -1 0 0
vn -1 -2.441416E-07 -2.956986E-07
vn -1 -4.882833E-07 3.564443E-07
vn -1 -4.882833E-07 3.564443E-07
vn -1 9.765644E-07 0
vn -1 9.765644E-07 0
vn 1 0 0
vn 1 0 0
vn 1 0 0
vn 1 0 0
vn 1 0 0
vn 1 0 0
vn 1 8.138021E-07 0
vn 1 5.425347E-07 0
vn 1 5.69661E-07 0
vn 1 2.983937E-07 3.942649E-07
vn 1 -4.882822E-07 0
vn 1 -3.662116E-07 5.913973E-07
vn 1 -1.220705E-07 5.913973E-07
vn 1 -1.220705E-07 5.913973E-07
vn 1 0 0
vn 1 0 0
vn 1 0 0
vn 1 0 0
vn 1 0 0
vn 1 0 0
vn 1 0 0
vn 1 0 0
vn -1 0 0
vn -1 0 0
vn -1 0 0
vn -1 0 0
vn 0 -1 0
vn 0 -1 0
vn 0 -1 0
vn 0 -1 0
vn 0 1 0
vn 0 1 0
vn 0 1 0
vn 0 1 0
vn 1.220679E-06 1 0
vn 1.220679E-06 1 0
vn 1.220679E-06 1 0
vn 1.220679E-06 1 0
vn 0 0 -1
vn 0 0 -1
vn 0 0 -1
vn 0 0 -1
vn 0 -1 0
vn 0 -1 0
vn 0 -1 0
vn 0 -1 0
vn -1 7.324234E-07 2.07892E-07
vn -1 4.882822E-07 4.157841E-07
vn -1 7.324234E-07 2.07892E-07
vn -1 4.882822E-07 4.157841E-07
vn 1 0 0
vn 1 0 0
vn 1 0 0
vn 1 0 0
vn -1.220679E-06 0 -1
vn -1.220679E-06 0 -1
vn -1.220679E-06 0 -1
vn -1.220679E-06 0 -1
vn 0 -1 0
vn 0 -1 0
vn 0 -1 0
vn 0 -1 -1.355893E-07
vn 0 -1 -4.973444E-07
vn 3.096828E-07 -1 0
vn 1.192413E-07 -1 -4.388549E-07
vn 0 -1 0
vn 0 -1 0
vn 5.5148E-07 -1 6.20053E-07
vn 3.130008E-07 -1 0
vn 3.130008E-07 -1 0
vn 0 1 0
vn 0 1 0
vn 0 1 0
vn 0 1 0
vn 0 -1 0
vn 0 -1 0
vn 0 -1 0
vn 0 -1 0
vn 1.565005E-07 -1 -4.157781E-07
vn 0 -1 -2.07889E-07
vn 1.565005E-07 -1 -4.157781E-07
vn 0 -1 -2.07889E-07
vn 0 -1 0
vn 0 -1 0
vn 0 -1 0
vn 0 -1 0
vn 1.565004E-07 -1 -4.157781E-07
vn 2.347506E-07 -1 -2.07889E-07
vn 1.565004E-07 -1 -4.157781E-07
vn 2.347506E-07 -1 -2.07889E-07
vn 0 -1 0
vn 0 -1 0
vn 0 -1 0
vn 0 -1 0
vn 1.220679E-06 1 0
vn 1.220679E-06 1 0
vn 1.220679E-06 1 0
vn 1.220679E-06 1 0
vn -1 -2.441416E-07 6.521428E-07
vn -1 -4.882833E-07 3.564443E-07
vn -1 -4.882833E-07 3.564443E-07
vn -1 -2.441417E-07 6.521429E-07
vn 0 1 0
vn 0 1 0
vn 0 1 0
vn 0 1 0
vn -1 0 0
vn -1 0 0
vn -1 0 0
vn -1 0 0
vn 1 -1.220705E-07 5.913973E-07
vn 1 0 0
vn 1 -1.220705E-07 5.913973E-07
vn 1 0 0
vn -4.716352E-07 1 1.201749E-06
vn -2.774325E-07 1 1.234028E-06
vn -4.716352E-07 1 1.201749E-06
vn -2.774325E-07 1 1.234028E-06
vn 0 1 0
vn 0 1 0
vn 0 1 0
vn 0 1 0
vn 1 0 0
vn 1 0 0
vn 1 0 0
vn 1 0 0
vn -1 0 0
vn -1 0 0
vn -1 0 0
vn -1 0 0
vn 0 -1 0
vn 0 -1 0
vn 0 -1 0
vn 0 -1 0
vn 1.220679E-06 1 0
vn 1.220679E-06 1 0
vn 1.220679E-06 1 0
vn 1.220679E-06 1 0
vn -1 9.765644E-07 0
vn -1 7.324234E-07 2.07892E-07
vn -1 9.765644E-07 0
vn -1 7.324234E-07 2.07892E-07
vn 1 0 0
vn 1 0 0
vn 1 0 0
vn 1 0 0
vn 0 1 0
vn 0 1 0
vn 0 1 0
vn 0 1 0
vn 0 -1 0
vn 0 -1 0
vn 0 -1 0
vn 0 -1 0
vn 0 -1 -2.07889E-07
vn 0 -1 0
vn 0 -1 -2.07889E-07
vn 0 -1 0
vn 0 -1 0
vn 0 -1 0
vn 0 -1 0
vn 0 -1 0
vn 2.347506E-07 -1 -2.07889E-07
vn 3.130008E-07 -1 0
vn 2.347506E-07 -1 -2.07889E-07
vn 3.130008E-07 -1 0
vn 0 0 1
vn 0 0 1
vn 0 0 1
vn 0 0 1
vn 0 0 1
vn 0 0 1
vn 0 0 1
vn 0 0 1
vn 0 0 1
vn 0 0 1
vn 0 0 1
vn 0 0 1
vn 0 0 1
vn 0 0 1
vn 0 0 1
vn 0 0 1
vn 0 0 -1
vn 0 0 -1
vn -1.144409E-07 0 -1
vn 0 0 -1
vn -1.525879E-07 0 -1
vn 0 0 -1
vn 0 0 -1
vn 0 0 -1
vn 0 0 -1
vn 0 0 -1
vn 0 0 -1
vn 0 0 -1
vn 0 0 -1
vn 0 0 -1
vn 0 0 -1
vn 0 0 -1
g Pizza_Corridor_Walls_0
f 3/3/3 2/2/2 1/1/1
f 4/4/4 1/1/1 2/2/2
f 7/7/7 6/6/6 5/5/5
f 8/8/8 5/5/5 6/6/6
f 11/11/11 10/10/10 9/9/9
f 12/12/12 9/9/9 10/10/10
f 15/15/15 14/14/14 13/13/13
f 16/16/16 13/13/13 14/14/14
f 19/19/19 18/18/18 17/17/17
f 20/20/20 17/17/17 18/18/18
f 17/17/17 21/21/21 19/19/19
f 22/22/22 19/19/19 21/21/21
f 25/25/25 24/24/24 23/23/23
f 26/26/26 23/23/23 24/24/24
f 29/29/29 28/28/28 27/27/27
f 30/30/30 27/27/27 28/28/28
f 27/27/27 31/31/31 29/29/29
f 32/32/32 29/29/29 31/31/31
f 31/31/31 33/33/33 32/32/32
f 34/34/34 32/32/32 33/33/33
f 29/29/29 35/35/35 28/28/28
f 36/36/36 28/28/28 35/35/35
f 34/34/34 37/37/37 32/32/32
f 38/38/38 32/32/32 37/37/37
f 41/41/41 40/40/40 39/39/39
f 42/42/42 39/39/39 40/40/40
f 41/41/41 39/39/39 43/43/43
f 44/44/44 43/43/43 39/39/39
f 43/43/43 44/44/44 45/45/45
f 46/46/46 45/45/45 44/44/44
f 44/44/44 47/47/47 46/46/46
f 48/48/48 46/46/46 47/47/47
f 42/42/42 49/49/49 39/39/39
f 50/50/50 39/39/39 49/49/49
f 53/53/53 52/52/52 51/51/51
f 54/54/54 51/51/51 52/52/52
f 53/53/53 55/55/55 52/52/52
f 56/56/56 52/52/52 55/55/55
f 59/59/59 58/58/58 57/57/57
f 60/60/60 57/57/57 58/58/58
f 57/57/57 61/61/61 59/59/59
f 62/62/62 59/59/59 61/61/61
f 61/61/61 63/63/63 62/62/62
f 64/64/64 62/62/62 63/63/63
f 64/64/64 65/65/65 62/62/62
f 66/66/66 62/62/62 65/65/65
f 59/59/59 67/67/67 58/58/58
f 68/68/68 58/58/58 67/67/67
f 71/71/71 70/70/70 69/69/69
f 72/72/72 69/69/69 70/70/70
f 72/72/72 70/70/70 73/73/73
f 74/74/74 73/73/73 70/70/70
f 73/73/73 74/74/74 75/75/75
f 76/76/76 75/75/75 74/74/74
f 75/75/75 76/76/76 77/77/77
f 78/78/78 77/77/77 76/76/76
f 77/77/77 78/78/78 79/79/79
f 80/80/80 79/79/79 78/78/78
f 78/78/78 81/81/81 80/80/80
f 82/82/82 80/80/80 81/81/81
f 74/74/74 83/83/83 76/76/76
f 84/84/84 76/76/76 83/83/83
f 71/71/71 85/85/85 70/70/70
f 86/86/86 70/70/70 85/85/85
f 89/89/89 88/88/88 87/87/87
f 90/90/90 87/87/87 88/88/88
f 93/93/93 92/92/92 91/91/91
f 94/94/94 91/91/91 92/92/92
f 97/97/97 96/96/96 95/95/95
f 98/98/98 95/95/95 96/96/96
f 101/101/101 100/100/100 99/99/99
f 102/102/102 99/99/99 100/100/100
f 105/105/105 104/104/104 103/103/103
f 106/106/106 103/103/103 104/104/104
f 109/109/109 108/108/108 107/107/107
f 110/110/110 107/107/107 108/108/108
f 113/113/113 112/112/112 111/111/111
f 114/114/114 111/111/111 112/112/112
f 117/117/117 116/116/116 115/115/115
f 118/118/118 115/115/115 116/116/116
f 121/121/121 120/120/120 119/119/119
f 122/122/122 119/119/119 120/120/120
f 125/125/125 124/124/124 123/123/123
f 126/126/126 123/123/123 124/124/124
f 129/129/129 128/128/128 127/127/127
f 130/130/130 127/127/127 128/128/128
f 131/131/131 127/127/127 130/130/130
f 130/130/130 132/132/132 131/131/131
f 133/133/133 131/131/131 132/132/132
f 133/133/133 134/134/134 131/131/131
f 135/135/135 131/131/131 134/134/134
f 136/136/136 133/133/133 132/132/132
f 132/132/132 137/137/137 136/136/136
f 138/138/138 136/136/136 137/137/137
f 141/141/141 140/140/140 139/139/139
f 142/142/142 139/139/139 140/140/140
f 145/145/145 144/144/144 143/143/143
f 146/146/146 143/143/143 144/144/144
f 149/149/149 148/148/148 147/147/147
f 150/150/150 147/147/147 148/148/148
f 153/153/153 152/152/152 151/151/151
f 154/154/154 151/151/151 152/152/152
f 157/157/157 156/156/156 155/155/155
f 158/158/158 155/155/155 156/156/156
f 161/161/161 160/160/160 159/159/159
f 162/162/162 159/159/159 160/160/160
f 165/165/165 164/164/164 163/163/163
f 166/166/166 163/163/163 164/164/164
g Pizza_Corridor_Walls_1
f 169/169/169 168/168/168 167/167/167
f 170/170/170 167/167/167 168/168/168
f 173/173/173 172/172/172 171/171/171
f 174/174/174 171/171/171 172/172/172
f 177/177/177 176/176/176 175/175/175
f 178/178/178 175/175/175 176/176/176
f 181/181/181 180/180/180 179/179/179
f 182/182/182 179/179/179 180/180/180
f 185/185/185 184/184/184 183/183/183
f 186/186/186 183/183/183 184/184/184
f 189/189/189 188/188/188 187/187/187
f 190/190/190 187/187/187 188/188/188
f 193/193/193 192/192/192 191/191/191
f 194/194/194 191/191/191 192/192/192
f 197/197/197 196/196/196 195/195/195
f 198/198/198 195/195/195 196/196/196
f 201/201/201 200/200/200 199/199/199
f 202/202/202 199/199/199 200/200/200
f 205/205/205 204/204/204 203/203/203
f 206/206/206 203/203/203 204/204/204
f 209/209/209 208/208/208 207/207/207
f 210/210/210 207/207/207 208/208/208
f 213/213/213 212/212/212 211/211/211
f 214/214/214 211/211/211 212/212/212
f 217/217/217 216/216/216 215/215/215
f 218/218/218 215/215/215 216/216/216
f 221/221/221 220/220/220 219/219/219
f 222/222/222 219/219/219 220/220/220
f 225/225/225 224/224/224 223/223/223
f 226/226/226 223/223/223 224/224/224
f 229/229/229 228/228/228 227/227/227
f 230/230/230 227/227/227 228/228/228
f 233/233/233 232/232/232 231/231/231
f 234/234/234 231/231/231 232/232/232
g Pizza_Corridor_Walls_2
f 237/237/237 236/236/236 235/235/235
f 240/240/240 239/239/239 238/238/238
f 243/243/243 242/242/242 241/241/241
f 242/242/242 244/244/244 241/241/241
f 244/244/244 242/242/242 245/245/245
f 246/246/246 245/245/245 242/242/242
f 242/242/242 247/247/247 246/246/246
f 247/247/247 248/248/248 246/246/246
f 248/248/248 249/249/249 246/246/246
f 249/249/249 250/250/250 246/246/246
g Pizza_Corridor_Walls_3
f 253/253/253 252/252/252 251/251/251
f 252/252/252 254/254/254 251/251/251
f 253/253/253 255/255/255 252/252/252
f 256/256/256 252/252/252 255/255/255
f 257/257/257 252/252/252 256/256/256
f 258/258/258 257/257/257 256/256/256
f 259/259/259 258/258/258 256/256/256
f 260/260/260 259/259/259 256/256/256
f 263/263/263 262/262/262 261/261/261
f 266/266/266 265/265/265 264/264/264
