g Pizza_WC_Ventilation_Grid
v -0.0982431 -1.703644 1.469483
v 1.309911 -1.62538 -0.8448147
v 0.04132606 -2.087107 -0.8448147
v 1.170342 -1.241917 1.469483
v -1.463001 -1.271771 1.469483
v -0.5912067 -2.380373 -0.8448147
v -1.697062 -1.606044 -0.8448147
v -0.3571458 -2.046099 1.469483
vt -0.1749961 0.425
vt 1.175004 -1.925
vt -0.1749961 -1.925
vt 1.175004 0.425
vt -0.1749961 0.425
vt 1.175004 -1.925
vt -0.1749961 -1.925
vt 1.175004 0.425
vn 0.336824 -0.9254166 0.1736481
vn 0.336824 -0.9254166 0.1736481
vn 0.336824 -0.9254166 0.1736481
vn 0.336824 -0.9254166 0.1736481
vn -0.5648627 -0.8067071 0.1736481
vn -0.5648627 -0.8067072 0.173648
vn -0.5648627 -0.8067072 0.173648
vn -0.5648627 -0.8067071 0.1736481
g Pizza_WC_Ventilation_Grid_0
f 3/3/3 2/2/2 1/1/1
f 4/4/4 1/1/1 2/2/2
f 7/7/7 6/6/6 5/5/5
f 8/8/8 5/5/5 6/6/6
