g Placats_Campaign4
v -18.06014 15.49997 2.190517
v -18.06014 15.49997 1.919842
v -11.56008 15.49997 2.190517
v -11.56008 15.49997 1.919842
v -18.06014 11.00002 -44.86661
v -18.06014 11.00002 -45.13721
v -18.06014 15.50006 -44.86661
v -18.06014 15.50006 -45.13721
v -18.06014 11.00002 2.190517
v -18.06014 11.00002 1.919842
v -18.06014 15.49997 2.190517
v -18.06014 15.49997 1.919842
v -18.06014 11.00002 -44.86661
v -11.56008 11.00002 -44.86661
v -18.06014 11.00002 -45.13721
v -11.56008 11.00002 -45.13721
v -11.56016 11.00002 2.190517
v -11.56016 11.00002 1.919842
v -18.06014 11.00002 2.190517
v -18.06014 11.00002 1.919842
v -18.06014 11.00002 -44.86661
v -18.06014 15.50006 -44.86661
v -11.56008 11.00002 -44.86661
v -11.56008 15.50006 -44.86661
v -11.56008 15.50006 -44.86661
v -11.56008 15.50006 -45.13721
v -11.56008 11.00002 -44.86661
v -11.56008 11.00002 -45.13721
v -11.56008 15.49997 2.190517
v -11.56016 11.00002 2.190517
v -18.06014 15.49997 2.190517
v -18.06014 11.00002 2.190517
v -11.56016 11.00002 2.190517
v -11.56008 15.49997 2.190517
v -11.56016 11.00002 1.919842
v -11.56008 15.49997 1.919842
v -18.06014 15.50006 -44.86661
v -18.06014 15.50006 -45.13721
v -11.56008 15.50006 -44.86661
v -11.56008 15.50006 -45.13721
v 10.01096 1.999954 -5.110859
v 10.01096 1.999954 -4.975479
v 10.01096 4.249973 -5.110859
v 10.01096 4.249973 -4.975479
v 20.02451 1.999954 -23.38757
v 20.02451 1.999954 -26.6376
v 19.88913 1.999954 -23.38757
v 19.88913 1.999954 -26.6376
v -19.87784 1.999954 -26.6376
v -19.87784 2.000038 -23.38757
v -19.87784 4.249973 -26.6376
v -19.87784 4.249973 -23.38757
v -19.87784 4.249973 -26.6376
v -20.01314 4.249973 -26.6376
v -19.87784 1.999954 -26.6376
v -20.01314 1.999954 -26.6376
v -15.54203 4.249973 -44.92263
v -15.54203 4.249973 -45.05792
v -12.29199 4.249973 -44.92263
v -12.29199 4.249973 -45.05792
v 10.01096 1.999954 -5.110859
v 10.01096 4.249973 -5.110859
v 6.760933 1.999954 -5.110859
v 6.760933 4.249973 -5.110859
v 6.760933 4.249973 -5.110859
v 6.760933 4.249973 -4.975479
v 6.760933 1.999954 -5.110859
v 6.760933 1.999954 -4.975479
v 19.88913 4.249973 -23.38757
v 19.88913 4.249973 -26.6376
v 20.02451 4.249973 -23.38757
v 20.02451 4.249973 -26.6376
v -19.87784 2.000038 -23.38757
v -20.01314 2.000038 -23.38757
v -19.87784 4.249973 -23.38757
v -20.01314 4.249973 -23.38757
v -12.29199 1.999954 -44.92263
v -12.29199 1.999954 -45.05792
v -15.54203 1.999954 -44.92263
v -15.54203 1.999954 -45.05792
v 6.760933 4.249973 -5.110859
v 10.01096 4.249973 -5.110859
v 6.760933 4.249973 -4.975479
v 10.01096 4.249973 -4.975479
v 19.88913 1.999954 -26.6376
v 20.02451 1.999954 -26.6376
v 19.88913 4.249973 -26.6376
v 20.02451 4.249973 -26.6376
v -19.87784 1.999954 -26.6376
v -20.01314 1.999954 -26.6376
v -19.87784 2.000038 -23.38757
v -20.01314 2.000038 -23.38757
v -12.29199 1.999954 -44.92263
v -15.54203 1.999954 -44.92263
v -12.29199 4.249973 -44.92263
v -15.54203 4.249973 -44.92263
v -12.29199 4.249973 -44.92263
v -12.29199 4.249973 -45.05792
v -12.29199 1.999954 -44.92263
v -12.29199 1.999954 -45.05792
v 10.01096 1.999954 -5.110859
v 6.760933 1.999954 -5.110859
v 10.01096 1.999954 -4.975479
v 6.760933 1.999954 -4.975479
v 19.88913 1.999954 -26.6376
v 19.88913 4.249973 -26.6376
v 19.88913 1.999954 -23.38757
v 19.88913 4.249973 -23.38757
v 19.88913 4.249973 -23.38757
v 20.02451 4.249973 -23.38757
v 19.88913 1.999954 -23.38757
v 20.02451 1.999954 -23.38757
v -19.87784 4.249973 -23.38757
v -20.01314 4.249973 -23.38757
v -19.87784 4.249973 -26.6376
v -20.01314 4.249973 -26.6376
v -15.54203 1.999954 -44.92263
v -15.54203 1.999954 -45.05792
v -15.54203 4.249973 -44.92263
v -15.54203 4.249973 -45.05792
v 7.05172 1.999954 41.87057
v 7.05172 1.999954 42.00586
v 7.05172 4.249973 41.87057
v 7.05172 4.249973 42.00586
v 2.104824 1.999954 24.24648
v 2.104824 1.999954 20.99654
v 1.969528 1.999954 24.24648
v 1.969528 1.999954 20.99654
v -2.098354 4.249973 24.24648
v -2.098354 1.999954 24.24648
v -2.098354 4.249973 20.99654
v -2.098354 1.999954 20.99654
v -2.098354 4.249973 24.24648
v -1.963058 4.249973 24.24648
v -2.098354 1.999954 24.24648
v -1.963058 1.999954 24.24648
v -6.653984 4.249973 2.122787
v -6.653984 4.249973 1.987492
v -3.404034 4.249973 2.122787
v -3.404034 4.249973 1.987492
v 7.05172 1.999954 41.87057
v 7.05172 4.249973 41.87057
v 3.801685 1.999954 41.87057
v 3.801685 4.249973 41.87057
v 3.801685 4.249973 41.87057
v 3.801685 4.249973 42.00586
v 3.801685 1.999954 41.87057
v 3.801685 1.999954 42.00586
v 2.104824 4.249973 24.24648
v 1.969528 4.249973 24.24648
v 2.104824 4.249973 20.99654
v 1.969528 4.249973 20.99654
v -2.098354 1.999954 20.99654
v -1.963058 1.999954 20.99654
v -2.098354 4.249973 20.99654
v -1.963058 4.249973 20.99654
v -6.653984 1.999954 2.122787
v -3.404034 1.999954 2.122787
v -6.653984 1.999954 1.987492
v -3.404034 1.999954 1.987492
v 3.801685 4.249973 42.00586
v 3.801685 4.249973 41.87057
v 7.05172 4.249973 42.00586
v 7.05172 4.249973 41.87057
v 2.104824 1.999954 24.24648
v 1.969528 1.999954 24.24648
v 2.104824 4.249973 24.24648
v 1.969528 4.249973 24.24648
v -2.098354 1.999954 20.99654
v -2.098354 1.999954 24.24648
v -1.963058 1.999954 20.99654
v -1.963058 1.999954 24.24648
v -6.653984 1.999954 2.122787
v -6.653984 4.249973 2.122787
v -3.404034 1.999954 2.122787
v -3.404034 4.249973 2.122787
v -3.404034 4.249973 2.122787
v -3.404034 4.249973 1.987492
v -3.404034 1.999954 2.122787
v -3.404034 1.999954 1.987492
v 3.801685 1.999954 42.00586
v 7.05172 1.999954 42.00586
v 3.801685 1.999954 41.87057
v 7.05172 1.999954 41.87057
v 2.104824 1.999954 20.99654
v 2.104824 1.999954 24.24648
v 2.104824 4.249973 20.99654
v 2.104824 4.249973 24.24648
v 2.104824 4.249973 20.99654
v 1.969528 4.249973 20.99654
v 2.104824 1.999954 20.99654
v 1.969528 1.999954 20.99654
v -2.098354 4.249973 24.24648
v -2.098354 4.249973 20.99654
v -1.963058 4.249973 24.24648
v -1.963058 4.249973 20.99654
v -6.653984 1.999954 2.122787
v -6.653984 1.999954 1.987492
v -6.653984 4.249973 2.122787
v -6.653984 4.249973 1.987492
vt 0.3580889 0.3707054
vt 0.3580889 0.3707054
vt 0.7045864 0.3707054
vt 0.7045864 0.3707054
vt 0.3583917 0.3791259
vt 0.3583917 0.3791259
vt 0.3583917 0.6086727
vt 0.3583917 0.6086727
vt 0.3580889 0.1411585
vt 0.3580889 0.1411585
vt 0.3580889 0.3707054
vt 0.3580889 0.3707054
vt 0.3583917 0.3791259
vt 0.7048892 0.3791259
vt 0.3583917 0.3791259
vt 0.7048892 0.3791259
vt 0.7045864 0.1411585
vt 0.7045864 0.1411585
vt 0.3580889 0.1411585
vt 0.3580889 0.1411585
vt 0.3583917 0.3791259
vt 0.3583917 0.6086727
vt 0.7048892 0.3791259
vt 0.7048892 0.6086727
vt 0.7048892 0.6086727
vt 0.7048892 0.6086727
vt 0.7048892 0.3791259
vt 0.7048892 0.3791259
vt 0.7045864 0.3707054
vt 0.7045864 0.1411585
vt 0.3580889 0.3707054
vt 0.3580889 0.1411585
vt 0.7045864 0.1411585
vt 0.7045864 0.3707054
vt 0.7045864 0.1411585
vt 0.7045864 0.3707054
vt 0.3583917 0.6086727
vt 0.3583917 0.6086727
vt 0.7048892 0.6086727
vt 0.7048892 0.6086727
vt 0.004483001 0.141072
vt 0.004483001 0.141072
vt 0.004483001 0.3706333
vt 0.004483001 0.3706333
vt 0.941011 0.3706044
vt 0.941011 0.02410695
vt 0.941011 0.3706044
vt 0.941011 0.02410695
vt 0.941011 0.3706044
vt 0.941011 0.02410695
vt 0.7114497 0.3706044
vt 0.7114497 0.02410695
vt 0.7114497 0.3706044
vt 0.7114497 0.3706044
vt 0.941011 0.3706044
vt 0.941011 0.3706044
vt 0.004483001 0.3706333
vt 0.004483001 0.3706333
vt 0.3509949 0.3706333
vt 0.3509949 0.3706333
vt 0.004483001 0.141072
vt 0.004483001 0.3706333
vt 0.3509949 0.141072
vt 0.3509949 0.3706333
vt 0.3509949 0.3706333
vt 0.3509949 0.3706333
vt 0.3509949 0.141072
vt 0.3509949 0.141072
vt 0.7114497 0.3706044
vt 0.7114497 0.02410695
vt 0.7114497 0.3706044
vt 0.7114497 0.02410695
vt 0.941011 0.02410695
vt 0.941011 0.02410695
vt 0.7114497 0.02410695
vt 0.7114497 0.02410695
vt 0.3509949 0.141072
vt 0.3509949 0.141072
vt 0.004483001 0.141072
vt 0.004483001 0.141072
vt 0.3509949 0.3706333
vt 0.004483001 0.3706333
vt 0.3509949 0.3706333
vt 0.004483001 0.3706333
vt 0.941011 0.02410695
vt 0.941011 0.02410695
vt 0.7114497 0.02410695
vt 0.7114497 0.02410695
vt 0.941011 0.3706044
vt 0.941011 0.3706044
vt 0.941011 0.02410695
vt 0.941011 0.02410695
vt 0.3509949 0.141072
vt 0.004483001 0.141072
vt 0.3509949 0.3706333
vt 0.004483001 0.3706333
vt 0.3509949 0.3706333
vt 0.3509949 0.3706333
vt 0.3509949 0.141072
vt 0.3509949 0.141072
vt 0.004483001 0.141072
vt 0.3509949 0.141072
vt 0.004483001 0.141072
vt 0.3509949 0.141072
vt 0.941011 0.02410695
vt 0.7114497 0.02410695
vt 0.941011 0.3706044
vt 0.7114497 0.3706044
vt 0.7114497 0.3706044
vt 0.7114497 0.3706044
vt 0.941011 0.3706044
vt 0.941011 0.3706044
vt 0.7114497 0.02410695
vt 0.7114497 0.02410695
vt 0.7114497 0.3706044
vt 0.7114497 0.3706044
vt 0.004483001 0.141072
vt 0.004483001 0.141072
vt 0.004483001 0.3706333
vt 0.004483001 0.3706333
vt 0.004295557 0.3794576
vt 0.004295557 0.3794576
vt 0.004295557 0.6090188
vt 0.004295557 0.6090188
vt 0.941011 0.02410695
vt 0.941011 0.3706044
vt 0.941011 0.02410695
vt 0.941011 0.3706044
vt 0.7114497 0.3706044
vt 0.941011 0.3706044
vt 0.7114497 0.02410695
vt 0.941011 0.02410695
vt 0.7114497 0.3706044
vt 0.7114497 0.3706044
vt 0.941011 0.3706044
vt 0.941011 0.3706044
vt 0.004295557 0.6090188
vt 0.004295557 0.6090188
vt 0.3508075 0.6090188
vt 0.3508075 0.6090188
vt 0.004295557 0.3794576
vt 0.004295557 0.6090188
vt 0.3508075 0.3794576
vt 0.3508075 0.6090188
vt 0.3508075 0.6090188
vt 0.3508075 0.6090188
vt 0.3508075 0.3794576
vt 0.3508075 0.3794576
vt 0.7114497 0.02410695
vt 0.7114497 0.02410695
vt 0.7114497 0.3706044
vt 0.7114497 0.3706044
vt 0.941011 0.02410695
vt 0.941011 0.02410695
vt 0.7114497 0.02410695
vt 0.7114497 0.02410695
vt 0.004295557 0.3794576
vt 0.3508075 0.3794576
vt 0.004295557 0.3794576
vt 0.3508075 0.3794576
vt 0.3508075 0.6090188
vt 0.3508075 0.6090188
vt 0.004295557 0.6090188
vt 0.004295557 0.6090188
vt 0.941011 0.02410695
vt 0.941011 0.02410695
vt 0.7114497 0.02410695
vt 0.7114497 0.02410695
vt 0.941011 0.02410695
vt 0.941011 0.3706044
vt 0.941011 0.02410695
vt 0.941011 0.3706044
vt 0.004295557 0.3794576
vt 0.004295557 0.6090188
vt 0.3508075 0.3794576
vt 0.3508075 0.6090188
vt 0.3508075 0.6090188
vt 0.3508075 0.6090188
vt 0.3508075 0.3794576
vt 0.3508075 0.3794576
vt 0.3508075 0.3794576
vt 0.004295557 0.3794576
vt 0.3508075 0.3794576
vt 0.004295557 0.3794576
vt 0.941011 0.3706044
vt 0.941011 0.02410695
vt 0.7114497 0.3706044
vt 0.7114497 0.02410695
vt 0.7114497 0.3706044
vt 0.7114497 0.3706044
vt 0.941011 0.3706044
vt 0.941011 0.3706044
vt 0.7114497 0.3706044
vt 0.7114497 0.02410695
vt 0.7114497 0.3706044
vt 0.7114497 0.02410695
vt 0.004295557 0.3794576
vt 0.004295557 0.3794576
vt 0.004295557 0.6090188
vt 0.004295557 0.6090188
vn -0.0009775162 0.9999995 0
vn -0.0009775162 0.9999995 0
vn -0.0009775162 0.9999995 0
vn -0.0009775162 0.9999995 0
vn -0.9999995 0.0009775162 0
vn -0.9999995 0.0009775162 0
vn -0.9999995 0.0009775162 0
vn -0.9999995 0.0009775162 0
vn -0.9999995 0.0009775162 0
vn -0.9999995 0.0009775162 0
vn -0.9999995 0.0009775162 0
vn -0.9999995 0.0009775162 0
vn -0.0009775162 -0.9999995 0
vn -0.0009775162 -0.9999995 0
vn -0.0009775162 -0.9999995 0
vn -0.0009775162 -0.9999995 0
vn -0.0009775162 -0.9999995 0
vn -0.0009775162 -0.9999995 0
vn -0.0009775162 -0.9999995 0
vn -0.0009775162 -0.9999995 0
vn -0.0009775162 0.0009775162 0.999999
vn -0.0009775162 0.0009775162 0.999999
vn -0.0009775162 0.0009775162 0.999999
vn -0.0009775162 0.0009775162 0.999999
vn 0.9999995 0.0009775162 0
vn 0.9999995 0.0009775162 0
vn 0.9999995 0.0009775162 0
vn 0.9999995 0.0009775162 0
vn -0.0009775162 0.0009775162 0.999999
vn -0.0009775162 0.0009775162 0.999999
vn -0.0009775162 0.0009775162 0.999999
vn -0.0009775162 0.0009775162 0.999999
vn 0.9999995 0.0009775162 0
vn 0.9999995 0.0009775162 0
vn 0.9999995 0.0009775162 0
vn 0.9999995 0.0009775162 0
vn -0.0009775162 0.9999995 0
vn -0.0009775162 0.9999995 0
vn -0.0009775162 0.9999995 0
vn -0.0009775162 0.9999995 0
vn 0.9999995 0.0009775162 0
vn 0.9999995 0.0009775162 0
vn 0.9999995 0.0009775162 0
vn 0.9999995 0.0009775162 0
vn -0.0009775162 -0.9999995 0
vn -0.0009775162 -0.9999995 0
vn -0.0009775162 -0.9999995 0
vn -0.0009775162 -0.9999995 0
vn 0.9999995 0.0009775162 0
vn 0.9999995 0.0009775162 0
vn 0.9999995 0.0009775162 0
vn 0.9999995 0.0009775162 0
vn -0.0009775162 0.0009775162 -0.999999
vn -0.0009775162 0.0009775162 -0.999999
vn -0.0009775162 0.0009775162 -0.999999
vn -0.0009775162 0.0009775162 -0.999999
vn -0.0009775162 0.9999995 0
vn -0.0009775162 0.9999995 0
vn -0.0009775162 0.9999995 0
vn -0.0009775162 0.9999995 0
vn -0.0009775162 0.0009775162 -0.999999
vn -0.0009775162 0.0009775162 -0.999999
vn -0.0009775162 0.0009775162 -0.999999
vn -0.0009775162 0.0009775162 -0.999999
vn -0.9999995 0.0009775162 0
vn -0.9999995 0.0009775162 0
vn -0.9999995 0.0009775162 0
vn -0.9999995 0.0009775162 0
vn -0.0009775162 0.9999995 0
vn -0.0009775162 0.9999995 0
vn -0.0009775162 0.9999995 0
vn -0.0009775162 0.9999995 0
vn -0.0009775162 0.0009775162 0.999999
vn -0.0009775162 0.0009775162 0.999999
vn -0.0009775162 0.0009775162 0.999999
vn -0.0009775162 0.0009775162 0.999999
vn -0.0009775162 -0.9999995 0
vn -0.0009775162 -0.9999995 0
vn -0.0009775162 -0.9999995 0
vn -0.0009775162 -0.9999995 0
vn -0.0009775162 0.9999995 0
vn -0.0009775162 0.9999995 0
vn -0.0009775162 0.9999995 0
vn -0.0009775162 0.9999995 0
vn 0.0009775162 0.0009775162 -0.999999
vn 0.0009775162 0.0009775162 -0.999999
vn 0.0009775162 0.0009775162 -0.999999
vn -0.0009775162 0.0009775162 -0.999999
vn -0.0009775162 -0.9999995 0
vn -0.0009775162 -0.9999995 0
vn -0.0009775162 -0.9999995 0
vn -0.0009775162 -0.9999995 0
vn -0.0009775162 0.0009775162 0.999999
vn -0.0009775162 0.0009775162 0.999999
vn -0.0009775162 0.0009775162 0.999999
vn -0.0009775162 0.0009775162 0.999999
vn 0.9999995 0.0009775162 0
vn 0.9999995 0.0009775162 0
vn 0.9999995 0.0009775162 0
vn 0.9999995 0.0009775162 0
vn -0.0009775162 -0.9999995 0
vn -0.0009775162 -0.9999995 0
vn -0.0009775162 -0.9999995 0
vn -0.0009775162 -0.9999995 0
vn -0.9999995 0.0009775162 0
vn -0.9999995 0.0009775162 0
vn -0.9999995 0.0009775162 0
vn -0.9999995 0.0009775162 0
vn -0.0009775162 0.0009775162 0.999999
vn -0.0009775162 0.0009775162 0.999999
vn -0.0009775162 0.0009775162 0.999999
vn -0.0009775162 0.0009775162 0.999999
vn -0.0009775162 0.9999995 0
vn -0.0009775162 0.9999995 0
vn -0.0009775162 0.9999995 0
vn -0.0009775162 0.9999995 0
vn -0.9999995 0.0009775162 0
vn -0.9999995 0.0009775162 0
vn -0.9999995 0.0009775162 0
vn -0.9999995 0.0009775162 0
vn 0.9999995 0.0009775162 0
vn 0.9999995 0.0009775162 0
vn 0.9999995 0.0009775162 0
vn 0.9999995 0.0009775162 0
vn -0.0009775162 -0.9999995 0
vn -0.0009775162 -0.9999995 0
vn -0.0009775162 -0.9999995 0
vn -0.0009775162 -0.9999995 0
vn -0.9999995 0.0009775162 0
vn -0.9999995 0.0009775162 0
vn -0.9999995 0.0009775162 0
vn -0.9999995 0.0009775162 0
vn -0.0009775162 0.0009775162 0.999999
vn -0.0009775162 0.0009775162 0.999999
vn -0.0009775162 0.0009775162 0.999999
vn -0.0009775162 0.0009775162 0.999999
vn -0.0009775162 0.9999995 0
vn -0.0009775162 0.9999995 0
vn -0.0009775162 0.9999995 0
vn -0.0009775162 0.9999995 0
vn -0.0009775162 0.0009775162 -0.999999
vn -0.0009775162 0.0009775162 -0.999999
vn -0.0009775162 0.0009775162 -0.999999
vn -0.0009775162 0.0009775162 -0.999999
vn -0.9999995 0.0009775162 0
vn -0.9999995 0.0009775162 0
vn -0.9999995 0.0009775162 0
vn -0.9999995 0.0009775162 0
vn -0.0009775162 0.9999995 0
vn -0.0009775162 0.9999995 0
vn -0.0009775162 0.9999995 0
vn -0.0009775162 0.9999995 0
vn -0.0009775162 0.0009775162 -0.999999
vn -0.0009775162 0.0009775162 -0.999999
vn -0.0009775162 0.0009775162 -0.999999
vn -0.0009775162 0.0009775162 -0.999999
vn -0.0009775162 -0.9999995 0
vn -0.0009775162 -0.9999995 0
vn -0.0009775162 -0.9999995 0
vn -0.0009775162 -0.9999995 0
vn -0.0009775162 0.9999995 0
vn -0.0009775162 0.9999995 0
vn -0.0009775162 0.9999995 0
vn -0.0009775162 0.9999995 0
vn -0.0009775162 0.0009775162 0.999999
vn -0.0009775162 0.0009775162 0.999999
vn -0.0009775162 0.0009775162 0.999999
vn -0.0009775162 0.0009775162 0.999999
vn -0.0009775162 -0.9999995 0
vn -0.0009775162 -0.9999995 0
vn -0.0009775162 -0.9999995 0
vn -0.0009775162 -0.9999995 0
vn -0.0009775162 0.0009775162 0.999999
vn -0.0009775162 0.0009775162 0.999999
vn -0.0009775162 0.0009775162 0.999999
vn -0.0009775162 0.0009775162 0.999999
vn 0.9999995 0.0009775162 0
vn 0.9999995 0.0009775162 0
vn 0.9999995 0.0009775162 0
vn 0.9999995 0.0009775162 0
vn -0.0009775162 -0.9999995 0
vn -0.0009775162 -0.9999995 0
vn -0.0009775162 -0.9999995 0
vn -0.0009775162 -0.9999995 0
vn 0.9999995 0.0009775162 0
vn 0.9999995 0.0009775162 0
vn 0.9999995 0.0009775162 0
vn 0.9999995 0.0009775162 0
vn -0.0009775162 0.0009775162 -0.999999
vn -0.0009775162 0.0009775162 -0.999999
vn -0.0009775162 0.0009775162 -0.999999
vn -0.0009775162 0.0009775162 -0.999999
vn -0.0009775162 0.9999995 0
vn -0.0009775162 0.9999995 0
vn -0.0009775162 0.9999995 0
vn -0.0009775162 0.9999995 0
vn -0.9999995 0.0009775162 0
vn -0.9999995 0.0009775162 0
vn -0.9999995 0.0009775162 0
vn -0.9999995 0.0009775162 0
g Placats_Campaign4_0
f 3/3/3 2/2/2 1/1/1
f 2/2/2 3/3/3 4/4/4
f 7/7/7 6/6/6 5/5/5
f 6/6/6 7/7/7 8/8/8
f 11/11/11 10/10/10 9/9/9
f 10/10/10 11/11/11 12/12/12
f 15/15/15 14/14/14 13/13/13
f 14/14/14 15/15/15 16/16/16
f 19/19/19 18/18/18 17/17/17
f 18/18/18 19/19/19 20/20/20
f 23/23/23 22/22/22 21/21/21
f 22/22/22 23/23/23 24/24/24
f 27/27/27 26/26/26 25/25/25
f 26/26/26 27/27/27 28/28/28
f 31/31/31 30/30/30 29/29/29
f 30/30/30 31/31/31 32/32/32
f 35/35/35 34/34/34 33/33/33
f 34/34/34 35/35/35 36/36/36
f 39/39/39 38/38/38 37/37/37
f 38/38/38 39/39/39 40/40/40
f 43/43/43 42/42/42 41/41/41
f 42/42/42 43/43/43 44/44/44
f 47/47/47 46/46/46 45/45/45
f 46/46/46 47/47/47 48/48/48
f 51/51/51 50/50/50 49/49/49
f 50/50/50 51/51/51 52/52/52
f 55/55/55 54/54/54 53/53/53
f 54/54/54 55/55/55 56/56/56
f 59/59/59 58/58/58 57/57/57
f 58/58/58 59/59/59 60/60/60
f 63/63/63 62/62/62 61/61/61
f 62/62/62 63/63/63 64/64/64
f 67/67/67 66/66/66 65/65/65
f 66/66/66 67/67/67 68/68/68
f 71/71/71 70/70/70 69/69/69
f 70/70/70 71/71/71 72/72/72
f 75/75/75 74/74/74 73/73/73
f 74/74/74 75/75/75 76/76/76
f 79/79/79 78/78/78 77/77/77
f 78/78/78 79/79/79 80/80/80
f 83/83/83 82/82/82 81/81/81
f 82/82/82 83/83/83 84/84/84
f 87/87/87 86/86/86 85/85/85
f 86/86/86 87/87/87 88/88/88
f 91/91/91 90/90/90 89/89/89
f 90/90/90 91/91/91 92/92/92
f 95/95/95 94/94/94 93/93/93
f 94/94/94 95/95/95 96/96/96
f 99/99/99 98/98/98 97/97/97
f 98/98/98 99/99/99 100/100/100
f 103/103/103 102/102/102 101/101/101
f 102/102/102 103/103/103 104/104/104
f 107/107/107 106/106/106 105/105/105
f 106/106/106 107/107/107 108/108/108
f 111/111/111 110/110/110 109/109/109
f 110/110/110 111/111/111 112/112/112
f 115/115/115 114/114/114 113/113/113
f 114/114/114 115/115/115 116/116/116
f 119/119/119 118/118/118 117/117/117
f 118/118/118 119/119/119 120/120/120
f 123/123/123 122/122/122 121/121/121
f 122/122/122 123/123/123 124/124/124
f 127/127/127 126/126/126 125/125/125
f 126/126/126 127/127/127 128/128/128
f 131/131/131 130/130/130 129/129/129
f 130/130/130 131/131/131 132/132/132
f 135/135/135 134/134/134 133/133/133
f 134/134/134 135/135/135 136/136/136
f 139/139/139 138/138/138 137/137/137
f 138/138/138 139/139/139 140/140/140
f 143/143/143 142/142/142 141/141/141
f 142/142/142 143/143/143 144/144/144
f 147/147/147 146/146/146 145/145/145
f 146/146/146 147/147/147 148/148/148
f 151/151/151 150/150/150 149/149/149
f 150/150/150 151/151/151 152/152/152
f 155/155/155 154/154/154 153/153/153
f 154/154/154 155/155/155 156/156/156
f 159/159/159 158/158/158 157/157/157
f 158/158/158 159/159/159 160/160/160
f 163/163/163 162/162/162 161/161/161
f 162/162/162 163/163/163 164/164/164
f 167/167/167 166/166/166 165/165/165
f 166/166/166 167/167/167 168/168/168
f 171/171/171 170/170/170 169/169/169
f 170/170/170 171/171/171 172/172/172
f 175/175/175 174/174/174 173/173/173
f 174/174/174 175/175/175 176/176/176
f 179/179/179 178/178/178 177/177/177
f 178/178/178 179/179/179 180/180/180
f 183/183/183 182/182/182 181/181/181
f 182/182/182 183/183/183 184/184/184
f 187/187/187 186/186/186 185/185/185
f 186/186/186 187/187/187 188/188/188
f 191/191/191 190/190/190 189/189/189
f 190/190/190 191/191/191 192/192/192
f 195/195/195 194/194/194 193/193/193
f 194/194/194 195/195/195 196/196/196
f 199/199/199 198/198/198 197/197/197
f 198/198/198 199/199/199 200/200/200
