g Plane001
v 0.1907938 0.1907938 0.1109692
v -0.2384922 0.2384922 0.1109692
v 0.2384922 0.2384922 0.1109692
v -0.1907938 0.1907938 0.1109692
v -0.1430954 0.1430953 0.1664538
v 0.1907938 0.1907938 0.1664538
v 0.1907938 0.1430953 0.1664538
v -0.1907938 0.1907938 0.1664538
v -0.1907938 -0.1907938 0.1664538
v -0.1430954 -0.1430954 0.1664538
v 0.1907938 -0.1430954 0.1664538
v 0.1907938 -0.1907938 0.1664538
v -0.09539691 0.09539689 0.2219384
v 0.1907938 0.1430953 0.2219384
v 0.1907938 0.09539689 0.2219384
v -0.1430954 0.1430953 0.2219384
v -0.1430954 -0.1430954 0.2219384
v -0.09539691 -0.09539691 0.2219384
v 0.1907938 -0.09539691 0.2219384
v 0.1907938 -0.1430954 0.2219384
v 0.04769844 0.04769844 0.3883922
v 0.1430953 0.09539689 0.3883922
v 0.1430953 0.04769844 0.3883922
v -7.220442E-09 0.09539689 0.3883922
v -7.220442E-09 -0.09539691 0.3883922
v 0.04769844 -0.04769845 0.3883922
v 0.1430953 -0.04769845 0.3883922
v 0.1430953 -0.09539691 0.3883922
v 0.1430953 -0.09539691 0.2774231
v 0.1907938 0.09539689 0.2774231
v 0.1907938 -0.09539691 0.2774231
v 0.1430953 0.09539689 0.2774231
v 0.09539689 0.04769844 0.4438769
v 0.04769844 -0.04769845 0.4438769
v 0.04769844 0.04769844 0.4438769
v 0.09539689 -0.04769845 0.4438769
v -0.04769845 0.09539689 0.2774231
v -0.09539691 -0.09539691 0.2774231
v -0.09539691 0.09539689 0.2774231
v -0.04769845 -0.09539691 0.2774231
v -7.220442E-09 0.09539689 0.3329076
v -0.04769845 -0.09539691 0.3329076
v -0.04769845 0.09539689 0.3329076
v -7.220442E-09 -0.09539691 0.3329076
v -0.2384922 -0.2384922 0
v 0.2384922 0.2384922 0
v -0.2384922 0.2384922 0
v 0.2384922 -0.2384922 0
v -0.2384922 -0.2384922 0
v 0.2384922 -0.2384922 0.1109692
v 0.2384922 -0.2384922 0
v -0.2384922 -0.2384922 0.1109692
v 0.2384922 -0.2384922 0
v 0.2384922 0.2384922 0.1109692
v 0.2384922 0.2384922 0
v 0.2384922 -0.2384922 0.1109692
v 0.2384922 0.2384922 0
v -0.2384922 0.2384922 0.1109692
v -0.2384922 0.2384922 0
v 0.2384922 0.2384922 0.1109692
v -0.2384922 0.2384922 0
v -0.2384922 -0.2384922 0.1109692
v -0.2384922 -0.2384922 0
v -0.2384922 0.2384922 0.1109692
v -0.1907938 -0.1907938 0.1109692
v 0.1907938 -0.1907938 0.1664538
v 0.1907938 -0.1907938 0.1109692
v -0.1907938 -0.1907938 0.1664538
v 0.1907938 0.09539689 0.2774231
v 0.1907938 -0.09539691 0.2219384
v 0.1907938 -0.09539691 0.2774231
v 0.1907938 -0.1907938 0.1109692
v 0.1907938 0.09539689 0.2219384
v 0.1907938 0.1430953 0.2219384
v 0.1907938 0.1430953 0.1664538
v 0.1907938 0.1907938 0.1664538
v 0.1907938 0.1907938 0.1109692
v 0.1907938 -0.09539691 0.2219384
v 0.1907938 -0.1430954 0.1664538
v 0.1907938 -0.1430954 0.2219384
v 0.1907938 -0.1907938 0.1109692
v 0.1907938 -0.1430954 0.1664538
v 0.1907938 -0.1907938 0.1109692
v 0.1907938 -0.1907938 0.1664538
v 0.1907938 0.1907938 0.1109692
v -0.1907938 0.1907938 0.1664538
v -0.1907938 0.1907938 0.1109692
v 0.1907938 0.1907938 0.1664538
v -0.1907938 0.1907938 0.1109692
v -0.1907938 -0.1907938 0.1664538
v -0.1907938 -0.1907938 0.1109692
v -0.1907938 0.1907938 0.1664538
v -0.1430954 -0.1430954 0.1664538
v 0.1907938 -0.1430954 0.2219384
v 0.1907938 -0.1430954 0.1664538
v -0.1430954 -0.1430954 0.2219384
v 0.1907938 0.1430953 0.1664538
v -0.1430954 0.1430953 0.2219384
v -0.1430954 0.1430953 0.1664538
v 0.1907938 0.1430953 0.2219384
v -0.1430954 0.1430953 0.1664538
v -0.1430954 -0.1430954 0.2219384
v -0.1430954 -0.1430954 0.1664538
v -0.1430954 0.1430953 0.2219384
v -7.220442E-09 -0.09539691 0.3329076
v -0.04769845 -0.09539691 0.2774231
v -0.04769845 -0.09539691 0.3329076
v 0.1430953 -0.09539691 0.2774231
v -0.09539691 -0.09539691 0.2219384
v -0.09539691 -0.09539691 0.2774231
v 0.1907938 -0.09539691 0.2774231
v 0.1907938 -0.09539691 0.2219384
v -7.220442E-09 -0.09539691 0.3883922
v 0.1430953 -0.09539691 0.3883922
v -0.09539691 0.09539689 0.2219384
v -0.09539691 -0.09539691 0.2774231
v -0.09539691 -0.09539691 0.2219384
v -0.09539691 0.09539689 0.2774231
v -0.04769845 0.09539689 0.2774231
v -0.04769845 -0.09539691 0.3329076
v -0.04769845 -0.09539691 0.2774231
v -0.04769845 0.09539689 0.3329076
v 0.1430953 -0.09539691 0.2774231
v 0.1430953 0.09539689 0.3883922
v 0.1430953 0.09539689 0.2774231
v 0.1430953 0.04769844 0.3883922
v 0.1430953 -0.04769845 0.3883922
v 0.1430953 -0.09539691 0.3883922
v -0.09539691 0.09539689 0.2219384
v -0.04769845 0.09539689 0.2774231
v -0.09539691 0.09539689 0.2774231
v 0.1430953 0.09539689 0.2774231
v -0.04769845 0.09539689 0.3329076
v -7.220442E-09 0.09539689 0.3329076
v -7.220442E-09 0.09539689 0.3883922
v 0.1430953 0.09539689 0.3883922
v 0.1907938 0.09539689 0.2219384
v 0.1907938 0.09539689 0.2774231
v -7.220442E-09 0.09539689 0.3329076
v -7.220442E-09 -0.09539691 0.3883922
v -7.220442E-09 -0.09539691 0.3329076
v -7.220442E-09 0.09539689 0.3883922
v 0.2861907 0.04769844 0.3329076
v 0.1907938 0.04769844 0.2219384
v 0.2861907 0.04769844 0.2219384
v 0.2384922 0.04769844 0.3329076
v 0.1907938 0.04769844 0.3326744
v 0.1907938 0.04769844 0.3883922
v 0.2384922 0.04769844 0.4438769
v 0.1907938 0.04769844 0.4438769
v 0.1430953 0.04769844 0.3883922
v 0.09539689 0.04769844 0.4438769
v 0.04769844 0.04769844 0.3883922
v 0.04769844 0.04769844 0.4438769
v 0.09539689 0.04769844 0.4993615
v 0.1907938 0.04769844 0.4993615
v 0.04769844 0.04769844 0.3883922
v 0.04769844 -0.04769845 0.4438769
v 0.04769844 -0.04769845 0.3883922
v 0.04769844 0.04769844 0.4438769
v 0.1430953 -0.04769845 0.3883922
v 0.1907938 0.04769844 0.3883922
v 0.1430953 0.04769844 0.3883922
v 0.1907938 -0.04769845 0.3883922
v 0.1907938 -0.04769845 0.4993615
v 0.09539689 0.04769844 0.4993615
v 0.1907938 0.04769844 0.4993615
v 0.09539689 -0.04769845 0.4993615
v 0.09539689 -0.04769845 0.4438769
v 0.09539689 0.04769844 0.4993615
v 0.09539689 -0.04769845 0.4993615
v 0.09539689 0.04769844 0.4438769
v 0.2384922 -0.04769845 0.4438769
v 0.1907938 0.04769844 0.4438769
v 0.2384922 0.04769844 0.4438769
v 0.1907938 -0.04769845 0.4438769
v 0.1907938 -0.04769845 0.4993615
v 0.1907938 0.04769844 0.4438769
v 0.1907938 -0.04769845 0.4438769
v 0.1907938 0.04769844 0.4993615
v 0.2384922 0.04769844 0.3329076
v 0.2384922 -0.04769845 0.4438769
v 0.2384922 0.04769844 0.4438769
v 0.2384922 -0.04769845 0.3329076
v 0.1907938 -0.04769845 0.3326741
v 0.1907938 0.04769844 0.2219384
v 0.1907938 0.04769844 0.3326744
v 0.1907938 -0.04769845 0.2219384
v 0.2861907 0.04769844 0.3329076
v 0.2861907 -0.04769845 0.2219384
v 0.2861907 -0.04769845 0.3329076
v 0.2861907 0.04769844 0.2219384
v 0.2384922 0.04769844 0.3329076
v 0.2861907 -0.04769845 0.3329076
v 0.2384922 -0.04769845 0.3329076
v 0.2861907 0.04769844 0.3329076
v 0.2861907 0.04769844 0.2219384
v 0.1907938 -0.04769845 0.2219384
v 0.2861907 -0.04769845 0.2219384
v 0.1907938 0.04769844 0.2219384
v 0.2861907 -0.04769845 0.2219384
v 0.2384922 -0.04769845 0.3329076
v 0.2861907 -0.04769845 0.3329076
v 0.1907938 -0.04769845 0.2219384
v 0.1907938 -0.04769845 0.3326741
v 0.1907938 -0.04769845 0.3883922
v 0.2384922 -0.04769845 0.4438769
v 0.1907938 -0.04769845 0.4438769
v 0.1430953 -0.04769845 0.3883922
v 0.1907938 -0.04769845 0.4993615
v 0.09539689 -0.04769845 0.4993615
v 0.09539689 -0.04769845 0.4438769
v 0.04769844 -0.04769845 0.3883922
v 0.04769844 -0.04769845 0.4438769
v 0.1907938 0.04769844 0.3326744
v 0.1907938 -0.04769845 0.3883922
v 0.1907938 -0.04769845 0.3326741
v 0.1907938 0.04769844 0.3883922
v -0.2384922 -0.2384922 0.1109692
v -0.1907938 0.1907938 0.1109692
v -0.1907938 -0.1907938 0.1109692
v -0.2384922 0.2384922 0.1109692
v 0.1907938 0.1907938 0.1109692
v 0.2384922 0.2384922 0.1109692
v 0.2384922 -0.2384922 0.1109692
v 0.1907938 -0.1907938 0.1109692
v -0.2384922 -0.2384922 0.1109692
v 0.1907938 -0.1907938 0.1109692
v 0.2384922 -0.2384922 0.1109692
v -0.1907938 -0.1907938 0.1109692
vt 0.890625 0.75
vt 0.75 0.78125
vt 0.90625 0.78125
vt 0.765625 0.75
vt 0.890625 0.6875
vt 1 0.71875
vt 1 0.6875
vt 0.875 0.71875
vt 0.875 0.5
vt 0.890625 0.53125
vt 1 0.53125
vt 1 0.5
vt 0.90625 0.6875
vt 1 0.71875
vt 1 0.6875
vt 0.890625 0.71875
vt 0.890625 0.53125
vt 0.90625 0.5625
vt 1 0.5625
vt 1 0.53125
vt 0.953125 0.65625
vt 0.984375 0.6875
vt 0.984375 0.65625
vt 0.9375 0.6875
vt 0.9375 0.5625
vt 0.953125 0.59375
vt 0.984375 0.59375
vt 0.984375 0.5625
vt 0.984375 0.5625
vt 1 0.6875
vt 1 0.5625
vt 0.984375 0.6875
vt 0.96875 0.65625
vt 0.953125 0.59375
vt 0.953125 0.65625
vt 0.96875 0.59375
vt 0.921875 0.6875
vt 0.90625 0.5625
vt 0.90625 0.6875
vt 0.921875 0.5625
vt 0.9375 0.6875
vt 0.921875 0.5625
vt 0.921875 0.6875
vt 0.9375 0.5625
vt 0.859375 0.78125
vt 0.875 0.71875
vt 0.859375 0.71875
vt 0.875 0.78125
vt 0.75 0.71875
vt 0.90625 0.78125
vt 0.90625 0.71875
vt 0.75 0.78125
vt 0.75 0.71875
vt 0.90625 0.78125
vt 0.90625 0.71875
vt 0.75 0.78125
vt 0.90625 0.71875
vt 0.75 0.78125
vt 0.75 0.71875
vt 0.90625 0.78125
vt 0.75 0.71875
vt 0.90625 0.78125
vt 0.90625 0.71875
vt 0.75 0.78125
vt 0.765625 0.78125
vt 0.890625 0.8125
vt 0.890625 0.78125
vt 0.765625 0.8125
vt 0.84375 0.59375
vt 0.78125 0.5625
vt 0.78125 0.59375
vt 0.75 0.5
vt 0.84375 0.5625
vt 0.859375 0.5625
vt 0.859375 0.53125
vt 0.875 0.53125
vt 0.875 0.5
vt 0.78125 0.5625
vt 0.765625 0.53125
vt 0.765625 0.5625
vt 0.75 0.5
vt 0.765625 0.53125
vt 0.75 0.5
vt 0.75 0.53125
vt 0.890625 0.78125
vt 0.765625 0.8125
vt 0.765625 0.78125
vt 0.890625 0.8125
vt 0.75 0.5
vt 0.875 0.53125
vt 0.875 0.5
vt 0.75 0.53125
vt 0.78125 0.8125
vt 0.890625 0.84375
vt 0.890625 0.8125
vt 0.78125 0.84375
vt 0.890625 0.8125
vt 0.78125 0.84375
vt 0.78125 0.8125
vt 0.890625 0.84375
vt 0.765625 0.53125
vt 0.859375 0.5625
vt 0.859375 0.53125
vt 0.765625 0.5625
vt 0.828125 0.90625
vt 0.8125 0.875
vt 0.8125 0.90625
vt 0.875 0.875
vt 0.796875 0.84375
vt 0.796875 0.875
vt 0.890625 0.875
vt 0.890625 0.84375
vt 0.828125 0.9375
vt 0.875 0.9375
vt 0.78125 0.5625
vt 0.84375 0.59375
vt 0.84375 0.5625
vt 0.78125 0.59375
vt 0.78125 0.59375
vt 0.84375 0.625
vt 0.84375 0.59375
vt 0.78125 0.625
vt 0.78125 0.59375
vt 0.84375 0.65625
vt 0.84375 0.59375
vt 0.828125 0.65625
vt 0.796875 0.65625
vt 0.78125 0.65625
vt 0.796875 0.84375
vt 0.8125 0.875
vt 0.796875 0.875
vt 0.875 0.875
vt 0.8125 0.90625
vt 0.828125 0.90625
vt 0.828125 0.9375
vt 0.875 0.9375
vt 0.890625 0.84375
vt 0.890625 0.875
vt 0.78125 0.625
vt 0.84375 0.65625
vt 0.84375 0.625
vt 0.78125 0.65625
vt 0.921875 0.90625
vt 0.890625 0.84375
vt 0.921875 0.84375
vt 0.90625 0.90625
vt 0.890625 0.90625
vt 0.890625 0.9375
vt 0.90625 0.96875
vt 0.890625 0.96875
vt 0.875 0.9375
vt 0.859375 0.96875
vt 0.84375 0.9375
vt 0.84375 0.96875
vt 0.859375 1
vt 0.890625 1
vt 0.796875 0.65625
vt 0.828125 0.6875
vt 0.828125 0.65625
vt 0.796875 0.6875
vt 0.96875 0.625
vt 0.984375 0.59375
vt 0.96875 0.59375
vt 0.984375 0.625
vt 1 0.59375
vt 0.96875 0.65625
vt 1 0.65625
vt 0.96875 0.59375
vt 0.859375 0.96875
vt 0.859375 1
vt 0.859375 1
vt 0.859375 0.96875
vt 0.984375 0.59375
vt 0.96875 0.65625
vt 0.984375 0.65625
vt 0.96875 0.59375
vt 0.796875 0.71875
vt 0.828125 0.6875
vt 0.796875 0.6875
vt 0.828125 0.71875
vt 0.828125 0.625
vt 0.796875 0.6875
vt 0.828125 0.6875
vt 0.796875 0.625
vt 0.921875 0.90625
vt 0.890625 0.84375
vt 0.890625 0.90625
vt 0.921875 0.84375
vt 0.921875 0.90625
vt 0.890625 0.84375
vt 0.890625 0.90625
vt 0.921875 0.84375
vt 0.890625 0.90625
vt 0.90625 0.84375
vt 0.890625 0.84375
vt 0.90625 0.90625
vt 0.921875 0.84375
vt 0.890625 0.90625
vt 0.921875 0.90625
vt 0.890625 0.84375
vt 0.921875 0.84375
vt 0.90625 0.90625
vt 0.921875 0.90625
vt 0.890625 0.84375
vt 0.890625 0.90625
vt 0.890625 0.9375
vt 0.90625 0.96875
vt 0.890625 0.96875
vt 0.875 0.9375
vt 0.890625 1
vt 0.859375 1
vt 0.859375 0.96875
vt 0.84375 0.9375
vt 0.84375 0.96875
vt 0.796875 0.625
vt 0.828125 0.65625
vt 0.828125 0.625
vt 0.796875 0.65625
vt 0.75 0.78125
vt 0.890625 0.75
vt 0.765625 0.75
vt 0.90625 0.78125
vt 0.765625 0.75
vt 0.75 0.78125
vt 0.90625 0.78125
vt 0.890625 0.75
vt 0.75 0.78125
vt 0.890625 0.75
vt 0.90625 0.78125
vt 0.765625 0.75
vn 0 0 1
vn 0 0 1
vn 0 0 1
vn 0 0 1
vn 0 0 1
vn 0 0 1
vn 0 0 1
vn 0 0 1
vn 0 0 1
vn 0 0 1
vn 0 0 1
vn 0 0 1
vn 0 0 1
vn 0 0 1
vn 0 0 1
vn 0 0 1
vn 0 0 1
vn 0 0 1
vn 0 0 1
vn 0 0 1
vn 0 0 1
vn 0 0 1
vn 0 0 1
vn 0 0 1
vn 0 0 1
vn 0 0 1
vn 0 0 1
vn 0 0 1
vn 0 0 1
vn 0 0 1
vn 0 0 1
vn 0 0 1
vn 0 0 1
vn 0 0 1
vn 0 0 1
vn 0 0 1
vn 0 0 1
vn 0 0 1
vn 0 0 1
vn 0 0 1
vn 0 0 1
vn 0 0 1
vn 0 0 1
vn 0 0 1
vn 0 0 -1
vn 0 0 -1
vn 0 0 -1
vn 0 0 -1
vn 0 -1 0
vn 0 -1 0
vn 0 -1 0
vn 0 -1 0
vn 1 0 0
vn 1 0 0
vn 1 0 0
vn 1 0 0
vn 0 1 0
vn 0 1 0
vn 0 1 0
vn 0 1 0
vn -1 0 0
vn -1 0 0
vn -1 0 0
vn -1 0 0
vn 0 -1 0
vn 0 -1 0
vn 0 -1 0
vn 0 -1 0
vn 1 0 0
vn 1 0 0
vn 1 0 0
vn 1 0 0
vn 1 0 0
vn 1 0 0
vn 1 0 0
vn 1 0 0
vn 1 0 0
vn 1 0 0
vn 1 0 0
vn 1 0 0
vn 1 0 0
vn 1 0 0
vn 1 0 0
vn 1 0 0
vn 0 1 0
vn 0 1 0
vn 0 1 0
vn 0 1 0
vn -1 0 0
vn -1 0 0
vn -1 0 0
vn -1 0 0
vn 0 -1 0
vn 0 -1 0
vn 0 -1 0
vn 0 -1 0
vn 0 1 0
vn 0 1 0
vn 0 1 0
vn 0 1 0
vn -1 0 0
vn -1 0 0
vn -1 0 0
vn -1 0 0
vn 0 -1 0
vn 0 -1 0
vn 0 -1 0
vn 0 -1 0
vn 0 -1 0
vn 0 -1 0
vn 0 -1 0
vn 0 -1 0
vn 0 -1 0
vn 0 -1 0
vn -1 0 0
vn -1 0 0
vn -1 0 0
vn -1 0 0
vn -1 0 0
vn -1 0 0
vn -1 0 0
vn -1 0 0
vn 1 0 0
vn 1 0 0
vn 1 0 0
vn 1 0 0
vn 1 0 0
vn 1 0 0
vn 0 1 0
vn 0 1 0
vn 0 1 0
vn 0 1 0
vn 0 1 0
vn 0 1 0
vn 0 1 0
vn 0 1 0
vn 0 1 0
vn 0 1 0
vn -1 0 0
vn -1 0 0
vn -1 0 0
vn -1 0 0
vn 0 1 0
vn 0 1 0
vn 0 1 0
vn 0 1 0
vn 0 1 0
vn 0 1 0
vn 0 1 0
vn 0 1 0
vn 0 1 0
vn 0 1 0
vn 0 1 0
vn 0 1 0
vn 0 1 0
vn 0 1 0
vn -1 0 0
vn -1 0 0
vn -1 0 0
vn -1 0 0
vn 0 0 -1
vn 0 0 -1
vn 0 0 -1
vn 0 0 -1
vn 0 0 1
vn 0 0 1
vn 0 0 1
vn 0 0 1
vn -1 0 0
vn -1 0 0
vn -1 0 0
vn -1 0 0
vn 0 0 1
vn 0 0 1
vn 0 0 1
vn 0 0 1
vn 1 0 0
vn 1 0 0
vn 1 0 0
vn 1 0 0
vn 1 0 0
vn 1 0 0
vn 1 0 0
vn 1 0 0
vn -1 0 0
vn -1 0 0
vn -1 0 0
vn -1 0 0
vn 1 0 0
vn 1 0 0
vn 1 0 0
vn 1 0 0
vn 0 0 1
vn 0 0 1
vn 0 0 1
vn 0 0 1
vn 0 0 -1
vn 0 0 -1
vn 0 0 -1
vn 0 0 -1
vn 0 -1 0
vn 0 -1 0
vn 0 -1 0
vn 0 -1 0
vn 0 -1 0
vn 0 -1 0
vn 0 -1 0
vn 0 -1 0
vn 0 -1 0
vn 0 -1 0
vn 0 -1 0
vn 0 -1 0
vn 0 -1 0
vn 0 -1 0
vn -1 0 0
vn -1 0 0
vn -1 0 0
vn -1 0 0
vn 0 0 1
vn 0 0 1
vn 0 0 1
vn 0 0 1
vn 0 0 1
vn 0 0 1
vn 0 0 1
vn 0 0 1
vn 0 0 1
vn 0 0 1
vn 0 0 1
vn 0 0 1
g Plane001_0
f 3/3/3 2/2/2 1/1/1
f 4/4/4 1/1/1 2/2/2
f 7/7/7 6/6/6 5/5/5
f 6/6/6 8/8/8 5/5/5
f 8/8/8 9/9/9 5/5/5
f 9/9/9 10/10/10 5/5/5
f 11/11/11 10/10/10 9/9/9
f 12/12/12 11/11/11 9/9/9
f 15/15/15 14/14/14 13/13/13
f 14/14/14 16/16/16 13/13/13
f 16/16/16 17/17/17 13/13/13
f 17/17/17 18/18/18 13/13/13
f 19/19/19 18/18/18 17/17/17
f 20/20/20 19/19/19 17/17/17
f 23/23/23 22/22/22 21/21/21
f 22/22/22 24/24/24 21/21/21
f 24/24/24 25/25/25 21/21/21
f 25/25/25 26/26/26 21/21/21
f 27/27/27 26/26/26 25/25/25
f 28/28/28 27/27/27 25/25/25
f 31/31/31 30/30/30 29/29/29
f 32/32/32 29/29/29 30/30/30
f 35/35/35 34/34/34 33/33/33
f 36/36/36 33/33/33 34/34/34
f 39/39/39 38/38/38 37/37/37
f 40/40/40 37/37/37 38/38/38
f 43/43/43 42/42/42 41/41/41
f 44/44/44 41/41/41 42/42/42
f 47/47/47 46/46/46 45/45/45
f 48/48/48 45/45/45 46/46/46
f 51/51/51 50/50/50 49/49/49
f 52/52/52 49/49/49 50/50/50
f 55/55/55 54/54/54 53/53/53
f 56/56/56 53/53/53 54/54/54
f 59/59/59 58/58/58 57/57/57
f 60/60/60 57/57/57 58/58/58
f 63/63/63 62/62/62 61/61/61
f 64/64/64 61/61/61 62/62/62
f 67/67/67 66/66/66 65/65/65
f 68/68/68 65/65/65 66/66/66
f 71/71/71 70/70/70 69/69/69
f 70/70/70 72/72/72 69/69/69
f 72/72/72 73/73/73 69/69/69
f 74/74/74 73/73/73 72/72/72
f 75/75/75 74/74/74 72/72/72
f 76/76/76 75/75/75 72/72/72
f 77/77/77 76/76/76 72/72/72
f 80/80/80 79/79/79 78/78/78
f 79/79/79 81/81/81 78/78/78
f 84/84/84 83/83/83 82/82/82
f 87/87/87 86/86/86 85/85/85
f 88/88/88 85/85/85 86/86/86
f 91/91/91 90/90/90 89/89/89
f 92/92/92 89/89/89 90/90/90
f 95/95/95 94/94/94 93/93/93
f 96/96/96 93/93/93 94/94/94
f 99/99/99 98/98/98 97/97/97
f 100/100/100 97/97/97 98/98/98
f 103/103/103 102/102/102 101/101/101
f 104/104/104 101/101/101 102/102/102
f 107/107/107 106/106/106 105/105/105
f 106/106/106 108/108/108 105/105/105
f 109/109/109 108/108/108 106/106/106
f 110/110/110 109/109/109 106/106/106
f 111/111/111 108/108/108 109/109/109
f 112/112/112 111/111/111 109/109/109
f 108/108/108 113/113/113 105/105/105
f 114/114/114 113/113/113 108/108/108
f 117/117/117 116/116/116 115/115/115
f 118/118/118 115/115/115 116/116/116
f 121/121/121 120/120/120 119/119/119
f 122/122/122 119/119/119 120/120/120
f 125/125/125 124/124/124 123/123/123
f 124/124/124 126/126/126 123/123/123
f 126/126/126 127/127/127 123/123/123
f 127/127/127 128/128/128 123/123/123
f 131/131/131 130/130/130 129/129/129
f 130/130/130 132/132/132 129/129/129
f 133/133/133 132/132/132 130/130/130
f 134/134/134 132/132/132 133/133/133
f 135/135/135 132/132/132 134/134/134
f 136/136/136 132/132/132 135/135/135
f 132/132/132 137/137/137 129/129/129
f 138/138/138 137/137/137 132/132/132
f 141/141/141 140/140/140 139/139/139
f 142/142/142 139/139/139 140/140/140
f 145/145/145 144/144/144 143/143/143
f 144/144/144 146/146/146 143/143/143
f 147/147/147 146/146/146 144/144/144
f 148/148/148 146/146/146 147/147/147
f 149/149/149 146/146/146 148/148/148
f 150/150/150 149/149/149 148/148/148
f 151/151/151 150/150/150 148/148/148
f 152/152/152 150/150/150 151/151/151
f 153/153/153 152/152/152 151/151/151
f 154/154/154 152/152/152 153/153/153
f 155/155/155 150/150/150 152/152/152
f 156/156/156 150/150/150 155/155/155
f 159/159/159 158/158/158 157/157/157
f 160/160/160 157/157/157 158/158/158
f 163/163/163 162/162/162 161/161/161
f 164/164/164 161/161/161 162/162/162
f 167/167/167 166/166/166 165/165/165
f 168/168/168 165/165/165 166/166/166
f 171/171/171 170/170/170 169/169/169
f 172/172/172 169/169/169 170/170/170
f 175/175/175 174/174/174 173/173/173
f 176/176/176 173/173/173 174/174/174
f 179/179/179 178/178/178 177/177/177
f 180/180/180 177/177/177 178/178/178
f 183/183/183 182/182/182 181/181/181
f 184/184/184 181/181/181 182/182/182
f 187/187/187 186/186/186 185/185/185
f 188/188/188 185/185/185 186/186/186
f 191/191/191 190/190/190 189/189/189
f 192/192/192 189/189/189 190/190/190
f 195/195/195 194/194/194 193/193/193
f 196/196/196 193/193/193 194/194/194
f 199/199/199 198/198/198 197/197/197
f 200/200/200 197/197/197 198/198/198
f 203/203/203 202/202/202 201/201/201
f 202/202/202 204/204/204 201/201/201
f 205/205/205 204/204/204 202/202/202
f 206/206/206 205/205/205 202/202/202
f 207/207/207 206/206/206 202/202/202
f 208/208/208 206/206/206 207/207/207
f 209/209/209 206/206/206 208/208/208
f 210/210/210 209/209/209 208/208/208
f 211/211/211 209/209/209 210/210/210
f 212/212/212 209/209/209 211/211/211
f 213/213/213 209/209/209 212/212/212
f 214/214/214 213/213/213 212/212/212
f 217/217/217 216/216/216 215/215/215
f 218/218/218 215/215/215 216/216/216
f 221/221/221 220/220/220 219/219/219
f 222/222/222 219/219/219 220/220/220
f 225/225/225 224/224/224 223/223/223
f 223/223/223 226/226/226 225/225/225
f 229/229/229 228/228/228 227/227/227
f 230/230/230 227/227/227 228/228/228
