g Plane
v -0.2372172 -0.1729835 -0.02106964
v -0.2372172 -0.08294849 -0.02106964
v 0.1536588 -0.08294849 -0.02106964
v 0.1536588 -0.1729835 -0.02106964
v 0.1536588 -0.08294849 -0.02106964
v 0.1536588 -0.08294849 -0.4116809
v 0.1536588 -0.1729835 -0.4116809
v 0.1536588 -0.1729835 -0.02106964
v 0.1536588 -0.08294849 -0.4116809
v -0.1238195 -0.08294849 -0.4116809
v -0.1238195 -0.1729835 -0.4116809
v 0.1536588 -0.1729835 -0.4116809
v 0.001082865 -0.3932812 -0.01534206
v -0.09138448 -0.3932812 -0.01534206
v -0.09138446 0.3541259 -0.01534206
v 0.001082894 0.3541259 -0.01534206
v -0.09138446 0.3541259 -0.01534206
v -0.09138446 0.3541259 -0.4059533
v 0.001082894 0.3541259 -0.4059533
v 0.001082894 0.3541259 -0.01534206
v 0.001082865 -0.3932812 -0.01534206
v -0.01879398 -0.4899018 -0.3238204
v -0.1112613 -0.4899018 -0.3238204
v -0.09138448 -0.3932812 -0.01534206
v -0.01879398 -0.4899018 -0.3238204
v -0.01879398 -0.488929 -0.4066406
v -0.1112613 -0.488929 -0.4066406
v -0.1112613 -0.4899018 -0.3238204
v -0.01879398 -0.488929 -0.4066406
v -0.01879398 0.03813725 -0.4066406
v -0.1112613 0.03813725 -0.4066406
v -0.1112613 -0.488929 -0.4066406
v -0.2372172 -0.1729835 -0.02106964
v -0.2372172 -0.1729835 -0.2598369
v -0.2372172 -0.08294849 -0.2598369
v -0.2372172 -0.08294849 -0.02106964
v -0.0840769 -0.07781835 -0.01317703
v -0.0840769 -0.07781835 0.03192657
v -0.0840769 -0.1791979 0.03192657
v -0.0840769 -0.1791979 -0.01317703
v 0.0127708 -0.1791979 -0.01317703
v 0.01193805 -0.2942012 0.0394249
v -0.08758569 -0.2942012 0.0394249
v -0.0840769 -0.1791979 -0.01317703
v -0.0840769 -0.07781835 -0.01317703
v -0.08758566 0.02548758 0.04530121
v 0.01193808 0.02548758 0.04530121
v 0.0127708 -0.07781836 -0.01317703
v -0.08758566 0.04482247 0.1142112
v -0.0828413 -0.001729355 0.1605944
v 0.007193718 -0.001729364 0.1605944
v 0.01193808 0.04482247 0.1142112
v 0.01193805 -0.3036423 0.1169546
v 0.007193699 -0.2468707 0.1602782
v -0.08284133 -0.2468707 0.1602782
v -0.08758569 -0.3036423 0.1169546
v 0.007193699 -0.2468707 0.1602782
v 0.007193708 -0.173951 0.1307034
v -0.08284132 -0.173951 0.1307034
v -0.08284133 -0.2468707 0.1602782
v 0.007193708 -0.173951 0.1307034
v -0.0125611 -0.1304061 0.02771828
v -0.06308651 -0.1304061 0.02771828
v -0.08284132 -0.173951 0.1307034
v -0.0828413 -0.001729355 0.1605944
v -0.08284132 -0.08537737 0.1322298
v 0.007193713 -0.08537738 0.1322298
v 0.007193718 -0.001729364 0.1605944
v -0.08284132 -0.08537737 0.1322298
v -0.06308651 -0.1304102 0.02763466
v -0.0125611 -0.1304102 0.02763466
v 0.007193713 -0.08537738 0.1322298
v 0.0127708 -0.1791979 0.03192657
v -0.0840769 -0.1791979 0.03192657
v -0.0840769 -0.07781835 0.03192657
v 0.0127708 -0.07781836 0.03192657
v 0.0127708 -0.1791979 -0.01317703
v 0.0127708 -0.1791979 0.03192657
v 0.0127708 -0.07781836 0.03192657
v 0.0127708 -0.07781836 -0.01317703
v 0.0127708 -0.07781836 -0.01317703
v 0.0127708 -0.07781836 0.03192657
v -0.0840769 -0.07781835 0.03192657
v -0.0840769 -0.07781835 -0.01317703
v -0.0840769 -0.1791979 -0.01317703
v -0.0840769 -0.1791979 0.03192657
v 0.0127708 -0.1791979 0.03192657
v 0.0127708 -0.1791979 -0.01317703
v 0.01193805 -0.2942012 0.0394249
v 0.01193805 -0.3036423 0.1169546
v -0.08758569 -0.3036423 0.1169546
v -0.08758569 -0.2942012 0.0394249
v -0.08758566 0.02548758 0.04530121
v -0.08758566 0.04482247 0.1142112
v 0.01193808 0.04482247 0.1142112
v 0.01193808 0.02548758 0.04530121
v 0.0127708 -0.07781836 -0.01317703
v 0.1682951 -0.1382456 0.02216244
v 0.1682951 -0.2522827 0.02216244
v 0.0127708 -0.1791979 -0.01317703
v 0.25535 -0.2133064 -0.08187197
v 0.2656435 -0.2843372 -0.1155018
v 0.1682951 -0.2522827 0.02216244
v 0.1682951 -0.1382456 0.02216244
v 0.2656435 -0.1389777 -0.1173286
v -0.2518798 -0.07396679 -0.09201799
v -0.2155006 -0.2157904 -0.0002423644
v -0.2751204 -0.2390577 0.05516751
v -0.3012553 -0.07944898 -0.02844669
v -0.2155006 -0.2157904 -0.0002423644
v -0.2571612 -0.3425172 0.0001767015
v -0.2838252 -0.3261248 0.03039543
v -0.2751204 -0.2390577 0.05516751
v -0.3141063 -0.3505312 0.06329391
v -0.08302004 -0.07690435 -0.01111442
v 0.01163192 -0.07690436 -0.01111442
v 0.01081808 0.02405943 0.046038
v -0.08644925 0.02405943 0.046038
v -0.08644925 0.04295596 0.1133857
v 0.01081808 0.04295596 0.1133857
v 0.006181283 -0.002540452 0.1587173
v -0.08181246 -0.002540445 0.1587173
v -0.08181246 -0.002540445 0.1587173
v 0.006181283 -0.002540452 0.1587173
v 0.006181278 -0.08429199 0.1309958
v -0.08181248 -0.08429198 0.1309958
v -0.08181248 -0.08429198 0.1309958
v 0.006181278 -0.08429199 0.1309958
v -0.01312566 -0.1283038 0.02877199
v -0.06250555 -0.1283038 0.02877199
v -0.08644925 0.02405943 0.046038
v 0.01081808 0.02405943 0.046038
v 0.01081808 0.04295596 0.1133857
v -0.08644925 0.04295596 0.1133857
v 0.01221955 -0.1796608 -0.01218763
v -0.08356535 -0.1796608 -0.01218763
v -0.08703563 -0.293402 0.03983706
v 0.01139595 -0.293402 0.03983706
v 0.01139595 -0.3027396 0.116516
v -0.08703563 -0.3027396 0.116516
v -0.08234335 -0.246591 0.1593641
v 0.006703653 -0.246591 0.1593641
v 0.006703653 -0.246591 0.1593641
v -0.08234335 -0.246591 0.1593641
v -0.08234333 -0.1744715 0.1301139
v 0.006703663 -0.1744715 0.1301139
v 0.006703663 -0.1744715 0.1301139
v -0.08234333 -0.1744715 0.1301139
v -0.06280531 -0.1314044 0.0282589
v -0.01283436 -0.1314044 0.0282589
v 0.01139595 -0.293402 0.03983706
v -0.08703563 -0.293402 0.03983706
v -0.08703563 -0.3027396 0.116516
v 0.01139595 -0.3027396 0.116516
vt 1 0.484375
vt 0.875 0.484375
vt 0.875 1
vt 1 1
vt 0.859375 0.375
vt 0.859375 0
vt 0.734375 0
vt 0.734375 0.375
vt 0.25 0
vt 0.25 0.375
vt 0.375 0.375
vt 0.375 0
vt 0.734375 1
vt 0.859375 1
vt 0.859375 0
vt 0.734375 0
vt 0.125 1
vt 0.125 0.484375
vt 0 0.484375
vt 0 1
vt 0.125 1
vt 0.125 0.578125
vt 0 0.578125
vt 0 1
vt 0.875 0.8125
vt 0.875 0.921875
vt 1 0.921875
vt 1 0.8125
vt 0 0.296875
vt 0 1
vt 0.125 1
vt 0.125 0.296875
vt 0.25 0.375
vt 0.25 0.703125
vt 0.375 0.703125
vt 0.375 0.375
vt 0.453125 0.71875
vt 0.390625 0.71875
vt 0.390625 0.859375
vt 0.453125 0.859375
vt 0.53125 0.171875
vt 0.53125 0.015625
vt 0.40625 0.015625
vt 0.40625 0.171875
vt 0.40625 0.171875
vt 0.40625 0.015625
vt 0.53125 0.015625
vt 0.53125 0.171875
vt 0.53125 0.28125
vt 0.53125 0.359375
vt 0.40625 0.359375
vt 0.40625 0.28125
vt 0.53125 0.28125
vt 0.53125 0.359375
vt 0.40625 0.359375
vt 0.40625 0.28125
vt 0.53125 0.359375
vt 0.53125 0.453125
vt 0.40625 0.453125
vt 0.40625 0.359375
vt 0.53125 0.453125
vt 0.53125 0.609375
vt 0.40625 0.609375
vt 0.40625 0.453125
vt 0.53125 0.359375
vt 0.53125 0.453125
vt 0.40625 0.453125
vt 0.40625 0.359375
vt 0.53125 0.453125
vt 0.53125 0.609375
vt 0.40625 0.609375
vt 0.40625 0.453125
vt 0.390625 0.71875
vt 0.265625 0.71875
vt 0.265625 0.859375
vt 0.390625 0.859375
vt 0.453125 0.71875
vt 0.390625 0.71875
vt 0.390625 0.859375
vt 0.453125 0.859375
vt 0.453125 0.859375
vt 0.390625 0.859375
vt 0.390625 0.71875
vt 0.453125 0.71875
vt 0.453125 0.859375
vt 0.390625 0.859375
vt 0.390625 0.71875
vt 0.453125 0.71875
vt 0.40625 0.171875
vt 0.40625 0.28125
vt 0.53125 0.28125
vt 0.53125 0.171875
vt 0.53125 0.171875
vt 0.53125 0.28125
vt 0.40625 0.28125
vt 0.40625 0.171875
vt 1 1
vt 1 0.765625
vt 0.875 0.765625
vt 0.875 1
vt 0.625 0.703125
vt 0.671875 0.625
vt 0.5 0.625
vt 0.5 0.796875
vt 0.671875 0.796875
vt 0.125 0.515625
vt 0.125 0.734375
vt 0.25 0.734375
vt 0.25 0.515625
vt 0.5 0.796875
vt 0.671875 0.796875
vt 0.625 0.703125
vt 0.5 0.625
vt 0.671875 0.625
vt 0.40625 0.171875
vt 0.53125 0.171875
vt 0.53125 0.015625
vt 0.40625 0.015625
vt 0.53125 0.28125
vt 0.40625 0.28125
vt 0.40625 0.359375
vt 0.53125 0.359375
vt 0.53125 0.359375
vt 0.40625 0.359375
vt 0.40625 0.453125
vt 0.53125 0.453125
vt 0.53125 0.453125
vt 0.40625 0.453125
vt 0.40625 0.609375
vt 0.53125 0.609375
vt 0.53125 0.171875
vt 0.40625 0.171875
vt 0.40625 0.28125
vt 0.53125 0.28125
vt 0.53125 0.171875
vt 0.40625 0.171875
vt 0.40625 0.015625
vt 0.53125 0.015625
vt 0.53125 0.28125
vt 0.40625 0.28125
vt 0.40625 0.359375
vt 0.53125 0.359375
vt 0.53125 0.359375
vt 0.40625 0.359375
vt 0.40625 0.453125
vt 0.53125 0.453125
vt 0.53125 0.453125
vt 0.40625 0.453125
vt 0.40625 0.609375
vt 0.53125 0.609375
vt 0.40625 0.171875
vt 0.53125 0.171875
vt 0.53125 0.28125
vt 0.40625 0.28125
vn 0 0 1
vn 0 0 1
vn 0 0 1
vn 0 0 1
vn 1 0 0
vn 1 0 0
vn 1 0 0
vn 1 0 0
vn 0 0 -1
vn 0 0 -1
vn 0 0 -1
vn 0 0 -1
vn 0 0 1
vn 0 0 1
vn 0 0 1
vn 0 0 1
vn 4.125453E-07 1 0
vn 4.125453E-07 1 0
vn 4.125453E-07 1 0
vn 4.125453E-07 1 0
vn 0 -0.954285 0.298898
vn 0 -0.954285 0.298898
vn 0 -0.954285 0.298898
vn 0 -0.954285 0.298898
vn 0 -0.999931 -0.0117453
vn 0 -0.999931 -0.0117453
vn 0 -0.999931 -0.0117453
vn 0 -0.999931 -0.0117453
vn 0 0 -1
vn 0 0 -1
vn 0 0 -1
vn 0 0 -1
vn -1 0 0
vn -1 0 0
vn -1 0 0
vn -1 0 0
vn -1 0 0
vn -1 0 0
vn -1 0 0
vn -1 0 0
vn 0 0.4159496 0.9093876
vn 0 0.4159496 0.9093876
vn 0 0.4159496 0.9093876
vn 0 0.4159496 0.9093876
vn 0 -0.4926185 0.8702453
vn 0 -0.4926185 0.8702453
vn 0 -0.4926185 0.8702453
vn 0 -0.4926185 0.8702453
vn 0 -0.7058226 -0.7083886
vn 0 -0.7058226 -0.7083886
vn 0 -0.7058226 -0.7083886
vn 0 -0.7058226 -0.7083886
vn 0 0.6066545 -0.7949656
vn 0 0.6066545 -0.7949656
vn 0 0.6066545 -0.7949656
vn 0 0.6066545 -0.7949656
vn 0 -0.3758436 -0.9266831
vn 0 -0.3758436 -0.9266831
vn 0 -0.3758436 -0.9266831
vn 0 -0.3758436 -0.9266831
vn 0 -0.9210497 -0.3894452
vn 0 -0.9210497 -0.3894452
vn 0 -0.9210497 -0.3894452
vn 0 -0.9210497 -0.3894452
vn 0 0.3211338 -0.9470338
vn 0 0.3211338 -0.9470338
vn 0 0.3211338 -0.9470338
vn 0 0.3211338 -0.9470338
vn 0 0.9184878 -0.3954492
vn 0 0.9184878 -0.3954492
vn 0 0.9184878 -0.3954492
vn 0 0.9184878 -0.3954492
vn 0 0 1
vn 0 0 1
vn 0 0 1
vn 0 0 1
vn 1 0 0
vn 1 0 0
vn 1 0 0
vn 1 0 0
vn 1.477073E-07 1 0
vn 1.477073E-07 1 0
vn 1.477073E-07 1 0
vn 1.477073E-07 1 0
vn 0 -1 0
vn 0 -1 0
vn 0 -1 0
vn 0 -1 0
vn 0 0.992667 0.1208815
vn 0 0.992667 0.1208815
vn 0 0.992667 0.1208815
vn 0 0.992667 0.1208815
vn 0 -0.9628184 0.2701494
vn 0 -0.9628184 0.2701494
vn 0 -0.9628184 0.2701494
vn 0 -0.9628184 0.2701494
vn -0.2215795 0 0.9751423
vn -0.2215795 0 0.9751423
vn -0.2215795 0 0.9751423
vn -0.2215795 0 0.9751423
vn 0.7933419 0.004075324 0.6087627
vn 0.7933419 0.004075324 0.6087627
vn 0.7933419 0.004075324 0.6087627
vn 0.7933419 0.004075324 0.6087627
vn 0.7933419 0.004075324 0.6087627
vn 0.5767573 0.4968979 0.6484162
vn 0.5767573 0.4968979 0.6484162
vn 0.5767573 0.4968979 0.6484162
vn 0.5767573 0.4968979 0.6484162
vn 0.7203655 -0.2405823 0.6505333
vn 0.7203655 -0.2405823 0.6505333
vn 0.7203655 -0.2405823 0.6505333
vn 0.7203655 -0.2405823 0.6505333
vn 0.7203655 -0.2405823 0.6505333
vn 0 0.4926186 -0.8702453
vn 0 0.4926186 -0.8702453
vn 0 0.4926186 -0.8702453
vn 0 0.4926186 -0.8702453
vn 0 0.7058227 0.7083885
vn 0 0.7058227 0.7083885
vn 0 0.7058227 0.7083885
vn 0 0.7058227 0.7083885
vn 1.004402E-07 -0.3211338 0.9470338
vn 1.004402E-07 -0.3211338 0.9470338
vn 1.004402E-07 -0.3211338 0.9470338
vn 1.004402E-07 -0.3211338 0.9470338
vn 0 -0.9184879 0.3954492
vn 0 -0.9184879 0.3954492
vn 0 -0.9184879 0.3954492
vn 0 -0.9184879 0.3954492
vn 0 0.9628184 -0.2701494
vn 0 0.9628184 -0.2701494
vn 0 0.9628184 -0.2701494
vn 0 0.9628184 -0.2701494
vn 0 -0.4159496 -0.9093876
vn 0 -0.4159496 -0.9093876
vn 0 -0.4159496 -0.9093876
vn 0 -0.4159496 -0.9093876
vn 0 -0.6066543 0.7949657
vn 0 -0.6066543 0.7949657
vn 0 -0.6066543 0.7949657
vn 0 -0.6066543 0.7949657
vn 0 0.3758435 0.9266832
vn 0 0.3758435 0.9266832
vn 0 0.3758435 0.9266832
vn 0 0.3758435 0.9266832
vn 0 0.9210497 0.389445
vn 0 0.9210497 0.389445
vn 0 0.9210497 0.389445
vn 0 0.9210497 0.389445
vn 0 -0.992667 -0.1208817
vn 0 -0.992667 -0.1208817
vn 0 -0.992667 -0.1208817
vn 0 -0.992667 -0.1208817
g Plane_0
f 3/3/3 2/2/2 1/1/1
f 4/4/4 3/3/3 1/1/1
f 7/7/7 6/6/6 5/5/5
f 8/8/8 7/7/7 5/5/5
f 11/11/11 10/10/10 9/9/9
f 12/12/12 11/11/11 9/9/9
f 15/15/15 14/14/14 13/13/13
f 16/16/16 15/15/15 13/13/13
f 19/19/19 18/18/18 17/17/17
f 20/20/20 19/19/19 17/17/17
f 23/23/23 22/22/22 21/21/21
f 24/24/24 23/23/23 21/21/21
f 27/27/27 26/26/26 25/25/25
f 28/28/28 27/27/27 25/25/25
f 31/31/31 30/30/30 29/29/29
f 32/32/32 31/31/31 29/29/29
f 35/35/35 34/34/34 33/33/33
f 36/36/36 35/35/35 33/33/33
f 39/39/39 38/38/38 37/37/37
f 40/40/40 39/39/39 37/37/37
f 43/43/43 42/42/42 41/41/41
f 44/44/44 43/43/43 41/41/41
f 47/47/47 46/46/46 45/45/45
f 48/48/48 47/47/47 45/45/45
f 51/51/51 50/50/50 49/49/49
f 52/52/52 51/51/51 49/49/49
f 55/55/55 54/54/54 53/53/53
f 56/56/56 55/55/55 53/53/53
f 59/59/59 58/58/58 57/57/57
f 60/60/60 59/59/59 57/57/57
f 63/63/63 62/62/62 61/61/61
f 64/64/64 63/63/63 61/61/61
f 67/67/67 66/66/66 65/65/65
f 68/68/68 67/67/67 65/65/65
f 71/71/71 70/70/70 69/69/69
f 72/72/72 71/71/71 69/69/69
f 75/75/75 74/74/74 73/73/73
f 76/76/76 75/75/75 73/73/73
f 79/79/79 78/78/78 77/77/77
f 80/80/80 79/79/79 77/77/77
f 83/83/83 82/82/82 81/81/81
f 84/84/84 83/83/83 81/81/81
f 87/87/87 86/86/86 85/85/85
f 88/88/88 87/87/87 85/85/85
f 91/91/91 90/90/90 89/89/89
f 92/92/92 91/91/91 89/89/89
f 95/95/95 94/94/94 93/93/93
f 96/96/96 95/95/95 93/93/93
f 99/99/99 98/98/98 97/97/97
f 100/100/100 99/99/99 97/97/97
f 103/103/103 102/102/102 101/101/101
f 101/101/101 104/104/104 103/103/103
f 101/101/101 105/105/105 104/104/104
f 108/108/108 107/107/107 106/106/106
f 109/109/109 108/108/108 106/106/106
f 112/112/112 111/111/111 110/110/110
f 110/110/110 113/113/113 112/112/112
f 114/114/114 112/112/112 113/113/113
f 117/117/117 116/116/116 115/115/115
f 118/118/118 117/117/117 115/115/115
f 121/121/121 120/120/120 119/119/119
f 122/122/122 121/121/121 119/119/119
f 125/125/125 124/124/124 123/123/123
f 126/126/126 125/125/125 123/123/123
f 129/129/129 128/128/128 127/127/127
f 130/130/130 129/129/129 127/127/127
f 133/133/133 132/132/132 131/131/131
f 134/134/134 133/133/133 131/131/131
f 137/137/137 136/136/136 135/135/135
f 138/138/138 137/137/137 135/135/135
f 141/141/141 140/140/140 139/139/139
f 142/142/142 141/141/141 139/139/139
f 145/145/145 144/144/144 143/143/143
f 146/146/146 145/145/145 143/143/143
f 149/149/149 148/148/148 147/147/147
f 150/150/150 149/149/149 147/147/147
f 153/153/153 152/152/152 151/151/151
f 154/154/154 153/153/153 151/151/151
