# Mesh "Player_Body" exported with Unity Assets Bundle Extractor; 64 vertices, 108 indices, 384 bits per vertex
g Player_Body
# SubMesh 0
# Vertices
v -0.218512 1.470189 -0.125000
vt 0.373502 0.815118
vn -0.000000 -1.000000 0.000000
v -0.218512 1.470189 0.125000
vt 0.253483 0.815118
vn -0.000000 -1.000000 0.000000
v 0.031488 1.470189 0.125000
vt 0.253483 0.900846
vn -0.000000 -1.000000 0.000000
v 0.031488 1.470189 -0.125000
vt 0.373502 0.900846
vn -0.000000 -1.000000 0.000000
v -0.218512 1.618382 -0.125000
vt 0.253483 0.815118
vn -0.000000 1.000000 -0.000000
v 0.031488 1.618382 -0.125000
vt 0.253483 0.900846
vn -0.000000 1.000000 -0.000000
v 0.031488 1.618382 0.125000
vt 0.373502 0.900846
vn -0.000000 1.000000 -0.000000
v -0.218511 1.618382 0.125000
vt 0.373502 0.815118
vn -0.000000 1.000000 -0.000000
v -0.218512 1.470189 -0.125000
vt 0.253483 0.815118
vn -1.000000 0.000000 0.000000
v -0.218512 1.618382 -0.125000
vt 0.253483 0.828834
vn -1.000000 0.000000 0.000000
v -0.218511 1.618382 0.125000
vt 0.373502 0.828834
vn -1.000000 0.000000 0.000000
v -0.218512 1.470189 0.125000
vt 0.373502 0.815118
vn -1.000000 0.000000 0.000000
v -0.218512 1.470189 0.125000
vt 0.253483 0.815118
vn -0.000000 0.000000 1.000000
v -0.218511 1.618382 0.125000
vt 0.253483 0.828834
vn -0.000000 0.000000 1.000000
v 0.031488 1.618382 0.125000
vt 0.339211 0.828834
vn -0.000000 0.000000 1.000000
v 0.031488 1.470189 0.125000
vt 0.339211 0.815118
vn -0.000000 0.000000 1.000000
v 0.031488 1.470189 0.125000
vt 0.253483 0.815118
vn 1.000000 -0.000000 0.000000
v 0.031488 1.618382 0.125000
vt 0.253483 0.828834
vn 1.000000 -0.000000 0.000000
v 0.031488 1.618382 -0.125000
vt 0.373502 0.828834
vn 1.000000 -0.000000 0.000000
v 0.031488 1.470189 -0.125000
vt 0.373502 0.815118
vn 1.000000 -0.000000 0.000000
v 0.031488 1.470189 -0.125000
vt 0.253483 0.815118
vn -0.000000 0.000000 -1.000000
v 0.031488 1.618382 -0.125000
vt 0.253483 0.828834
vn -0.000000 0.000000 -1.000000
v -0.218512 1.618382 -0.125000
vt 0.339211 0.828834
vn -0.000000 0.000000 -1.000000
v -0.218512 1.470189 -0.125000
vt 0.339211 0.815118
vn -0.000000 0.000000 -1.000000
v 0.056746 0.856625 0.250901
vt 0.560092 0.378915
vn -0.000001 -1.000000 -0.000000
v 0.056746 0.856625 -0.249099
vt 0.439732 0.378915
vn -0.000001 -1.000000 -0.000000
v -0.209947 0.856625 -0.249099
vt 0.439732 0.495384
vn -0.000001 -1.000000 -0.000000
v -0.209947 0.856625 0.250901
vt 0.560092 0.495384
vn -0.000001 -1.000000 -0.000000
v 0.056746 0.856625 -0.249099
vt 0.251970 0.001875
vn -0.000000 0.000000 -1.000000
v 0.056746 1.498693 -0.249100
vt 0.252043 0.371786
vn -0.000000 0.000000 -1.000000
v -0.209947 1.498693 -0.249099
vt 0.310187 0.371786
vn -0.000000 0.000000 -1.000000
v -0.209947 0.856625 -0.249099
vt 0.310170 0.001500
vn -0.000000 0.000000 -1.000000
v -0.209947 1.184193 -0.249099
vt 0.310187 0.189985
vn -0.000000 0.000000 -1.000000
v -0.253662 1.184193 -0.249099
vt 0.312350 0.190626
vn -0.000000 0.000000 -1.000000
v -0.253662 1.498693 -0.249099
vt 0.312350 0.371805
vn -0.000000 0.000000 -1.000000
v -0.253662 1.184193 0.250901
vt 0.436209 0.190626
vn -1.000000 0.000000 0.000000
v -0.253662 1.184193 -0.249099
vt 0.313787 0.190626
vn -1.000000 0.000000 0.000000
v -0.253662 1.498693 -0.249099
vt 0.313787 0.371805
vn -1.000000 0.000000 0.000000
v -0.253662 1.498693 0.250901
vt 0.436209 0.371805
vn -1.000000 0.000000 0.000000
v -0.253662 1.498693 0.250901
vt 0.436672 0.375519
vn -0.000000 1.000000 0.000000
v -0.253662 1.498693 -0.249099
vt 0.313819 0.375519
vn -0.000000 1.000000 0.000000
v -0.209947 1.498693 -0.249099
vt 0.313819 0.382762
vn -0.000000 1.000000 0.000000
v 0.056746 1.498693 0.250901
vt 0.436672 0.498311
vn -0.000000 1.000000 0.000000
v -0.209947 1.498693 0.250901
vt 0.436672 0.382762
vn -0.000000 1.000000 0.000000
v 0.056746 1.498693 -0.249100
vt 0.313819 0.498311
vn -0.000000 1.000000 0.000000
v -0.209947 1.184193 -0.249099
vt 0.313787 0.190626
vn -0.000000 -1.000000 0.000000
v -0.253662 1.184193 -0.249099
vt 0.313787 0.190626
vn -0.000000 -1.000000 0.000000
v -0.253662 1.184193 0.250901
vt 0.436209 0.190626
vn -0.000000 -1.000000 0.000000
v -0.209947 1.184193 0.250901
vt 0.436209 0.190626
vn -0.000000 -1.000000 0.000000
v -0.209947 1.184193 0.250901
vt 0.438896 0.190609
vn 0.000000 0.000000 1.000000
v -0.253662 1.184193 0.250901
vt 0.437664 0.190556
vn -0.000000 0.000000 1.000000
v -0.253662 1.498693 0.250901
vt 0.437664 0.371736
vn -0.000000 0.000000 1.000000
v -0.209947 1.498693 0.250901
vt 0.438896 0.371626
vn -0.000000 0.000000 1.000000
v -0.209947 0.856625 0.250901
vt 0.439046 0.003428
vn 0.000000 0.000000 1.000000
v 0.056746 0.856625 0.250901
vt 0.498652 0.003235
vn 0.000000 0.000000 1.000000
v 0.056746 1.498693 0.250901
vt 0.498652 0.371625
vn 0.000000 0.000000 1.000000
v -0.209947 1.184193 0.250901
vt 0.437350 0.187128
vn -1.000000 0.000000 0.000000
v -0.209947 0.856625 0.250901
vt 0.437350 0.000497
vn -1.000000 0.000000 0.000000
v -0.209947 0.856625 -0.249099
vt 0.312659 0.000497
vn -1.000000 0.000000 0.000000
v -0.209947 1.184193 -0.249099
vt 0.312659 0.187128
vn -1.000000 0.000000 0.000000
v 0.056746 0.856625 0.250901
vt 0.501985 0.001195
vn 1.000000 0.000000 -0.000000
v 0.056746 1.498693 0.250901
vt 0.501985 0.373569
vn 1.000000 0.000000 -0.000000
v 0.056746 1.498693 -0.249100
vt 0.623242 0.373569
vn 1.000000 0.000000 -0.000000
v 0.056746 0.856625 -0.249099
vt 0.623242 0.001195
vn 1.000000 0.000000 -0.000000
# Faces (1 to 64)
g Player_Body_0
f -62/-62/-62 -63/-63/-63 -64/-64/-64
f -61/-61/-61 -62/-62/-62 -64/-64/-64
f -58/-58/-58 -59/-59/-59 -60/-60/-60
f -57/-57/-57 -58/-58/-58 -60/-60/-60
f -54/-54/-54 -55/-55/-55 -56/-56/-56
f -53/-53/-53 -54/-54/-54 -56/-56/-56
f -50/-50/-50 -51/-51/-51 -52/-52/-52
f -49/-49/-49 -50/-50/-50 -52/-52/-52
f -46/-46/-46 -47/-47/-47 -48/-48/-48
f -45/-45/-45 -46/-46/-46 -48/-48/-48
f -42/-42/-42 -43/-43/-43 -44/-44/-44
f -41/-41/-41 -42/-42/-42 -44/-44/-44
f -38/-38/-38 -39/-39/-39 -40/-40/-40
f -37/-37/-37 -38/-38/-38 -40/-40/-40
f -34/-34/-34 -35/-35/-35 -36/-36/-36
f -36/-36/-36 -33/-33/-33 -34/-34/-34
f -33/-33/-33 -32/-32/-32 -34/-34/-34
f -32/-32/-32 -31/-31/-31 -34/-34/-34
f -31/-31/-31 -30/-30/-30 -34/-34/-34
f -27/-27/-27 -28/-28/-28 -29/-29/-29
f -26/-26/-26 -27/-27/-27 -29/-29/-29
f -23/-23/-23 -24/-24/-24 -25/-25/-25
f -25/-25/-25 -22/-22/-22 -23/-23/-23
f -25/-25/-25 -21/-21/-21 -22/-22/-22
f -20/-20/-20 -23/-23/-23 -22/-22/-22
f -17/-17/-17 -18/-18/-18 -19/-19/-19
f -16/-16/-16 -17/-17/-17 -19/-19/-19
f -13/-13/-13 -14/-14/-14 -15/-15/-15
f -12/-12/-12 -13/-13/-13 -15/-15/-15
f -12/-12/-12 -15/-15/-15 -11/-11/-11
f -12/-12/-12 -11/-11/-11 -10/-10/-10
f -10/-10/-10 -9/-9/-9 -12/-12/-12
f -6/-6/-6 -7/-7/-7 -8/-8/-8
f -5/-5/-5 -6/-6/-6 -8/-8/-8
f -2/-2/-2 -3/-3/-3 -4/-4/-4
f -1/-1/-1 -2/-2/-2 -4/-4/-4

