# Mesh "Player_Leg_Left" exported with Unity Assets Bundle Extractor; 74 vertices, 108 indices, 256 bits per vertex
g Player_Leg_Left
# SubMesh 0
# Vertices
v -0.204016 0.848760 -0.001395
vt 0.064578 0.378040
vn -0.014349 0.994326 -0.105408
v 0.045952 0.852517 0.000013
vt 0.064578 0.496846
vn -0.014349 0.994326 -0.105408
v 0.044161 0.878768 0.247893
vt 0.122835 0.496846
vn -0.014349 0.994326 -0.105408
v -0.205806 0.875012 0.246486
vt 0.122835 0.378040
vn -0.014349 0.994326 -0.105408
v 0.056185 0.051165 0.336222
vt 0.184990 0.378385
vn 0.014350 -0.994325 0.105409
v 0.057975 0.024913 0.088341
vt 0.127512 0.378385
vn 0.014350 -0.994325 0.105409
v -0.191992 0.021156 0.086934
vt 0.127512 0.496582
vn 0.014350 -0.994325 0.105409
v -0.193783 0.047408 0.334814
vt 0.184990 0.496582
vn 0.014350 -0.994325 0.105409
v 0.044161 0.878768 0.247893
vt 0.002461 0.370569
vn -0.007183 0.105314 0.994413
v 0.049508 0.508284 0.287168
vt 0.002461 0.215531
vn -0.007183 0.105314 0.994413
v -0.200460 0.504528 0.285761
vt 0.060070 0.215531
vn -0.007183 0.105314 0.994413
v -0.205806 0.875012 0.246486
vt 0.060070 0.370570
vn -0.007183 0.105314 0.994413
v 0.045952 0.852517 0.000013
vt 0.189483 0.370724
vn 0.999871 0.015026 0.005631
v 0.051298 0.482033 0.039288
vt 0.189483 0.215557
vn 0.999871 0.015026 0.005631
v 0.049508 0.508284 0.287168
vt 0.248006 0.215557
vn 0.999871 0.015026 0.005631
v 0.044161 0.878768 0.247893
vt 0.248006 0.370723
vn 0.999871 0.015026 0.005631
v -0.204016 0.848760 -0.001395
vt 0.126783 0.371491
vn 0.007183 -0.105314 -0.994413
v -0.198669 0.478276 0.037880
vt 0.126783 0.215692
vn 0.007183 -0.105314 -0.994413
v 0.051298 0.482033 0.039288
vt 0.185743 0.215692
vn 0.007183 -0.105314 -0.994413
v 0.045952 0.852517 0.000013
vt 0.185743 0.371491
vn 0.007183 -0.105314 -0.994413
v -0.205806 0.875012 0.246486
vt 0.063841 0.371489
vn -0.999871 -0.015026 -0.005631
v -0.200460 0.504528 0.285761
vt 0.063841 0.215716
vn -0.999871 -0.015026 -0.005631
v -0.198669 0.478276 0.037880
vt 0.123640 0.215716
vn -0.999871 -0.015026 -0.005631
v -0.204016 0.848760 -0.001395
vt 0.123640 0.371489
vn -0.999871 -0.015026 -0.005631
v -0.257731 0.135429 0.073763
vt 0.123640 0.061048
vn -0.999871 -0.015026 -0.005631
v -0.259521 0.161681 0.321643
vt 0.063841 0.061048
vn -0.999871 -0.015026 -0.005631
v -0.257778 0.046446 0.334453
vt 0.063841 0.003680
vn -0.999871 -0.015026 -0.005631
v -0.255987 0.020194 0.086573
vt 0.123640 0.003680
vn -0.999871 -0.015026 -0.005631
v -0.191992 0.021156 0.086934
vt 0.125908 0.493865
vn 0.014350 -0.994325 0.105409
v -0.255987 0.020194 0.086573
vt 0.125908 0.480980
vn 0.014350 -0.994325 0.105409
v -0.257778 0.046446 0.334453
vt 0.185629 0.480980
vn 0.014350 -0.994325 0.105409
v -0.193783 0.047408 0.334814
vt 0.185629 0.493865
vn 0.014350 -0.994325 0.105409
v -0.193783 0.047408 0.334814
vt 0.053078 0.004464
vn -0.007184 0.105314 0.994413
v -0.257778 0.046446 0.334453
vt 0.058191 0.003680
vn -0.007184 0.105314 0.994413
v -0.259521 0.161681 0.321643
vt 0.058191 0.061067
vn -0.007184 0.105314 0.994413
v -0.195526 0.162643 0.322004
vt 0.053000 0.061581
vn -0.007184 0.105314 0.994413
v -0.195526 0.162643 0.322004
vt 0.064319 0.061072
vn -0.014350 0.994325 -0.105409
v -0.259521 0.161681 0.321643
vt 0.063818 0.061072
vn -0.014350 0.994325 -0.105409
v -0.257731 0.135429 0.073763
vt 0.123616 0.061072
vn -0.014350 0.994325 -0.105409
v -0.193736 0.136391 0.074123
vt 0.123616 0.061072
vn -0.014350 0.994325 -0.105409
v -0.193736 0.136391 0.074123
vt 0.139820 0.060657
vn 0.007183 -0.105314 -0.994413
v -0.257731 0.135429 0.073763
vt 0.126904 0.060705
vn 0.007183 -0.105314 -0.994413
v -0.255987 0.020194 0.086573
vt 0.126904 0.003383
vn 0.007183 -0.105314 -0.994413
v -0.191992 0.021156 0.086934
vt 0.139820 0.003325
vn 0.007183 -0.105314 -0.994413
v 0.049508 0.508284 0.287168
vt 0.002461 0.215531
vn -0.007183 0.105314 0.994413
v 0.056185 0.051165 0.336222
vt 0.002461 0.004494
vn -0.007183 0.105314 0.994413
v -0.193783 0.047408 0.334814
vt 0.060070 0.004494
vn -0.007183 0.105314 0.994413
v -0.200460 0.504528 0.285761
vt 0.060070 0.215531
vn -0.007183 0.105314 0.994413
v -0.193783 0.047408 0.334814
vt 0.060070 0.004494
vn -0.007183 0.105314 0.994413
v -0.195526 0.162643 0.322004
vt 0.059569 0.063797
vn -0.007183 0.105314 0.994413
v -0.200460 0.504528 0.285761
vt 0.060070 0.215531
vn -0.007183 0.105314 0.994413
v 0.049508 0.508284 0.287168
vt 0.248006 0.215557
vn 0.999871 0.015026 0.005631
v 0.051298 0.482033 0.039288
vt 0.189483 0.215557
vn 0.999871 0.015026 0.005631
v 0.057975 0.024913 0.088341
vt 0.189483 0.004346
vn 0.999871 0.015026 0.005631
v 0.056185 0.051165 0.336222
vt 0.248006 0.004345
vn 0.999871 0.015026 0.005631
v -0.191992 0.021156 0.086934
vt 0.126783 0.003619
vn 0.007183 -0.105314 -0.994413
v 0.057975 0.024913 0.088341
vt 0.185743 0.003619
vn 0.007183 -0.105314 -0.994413
v 0.051298 0.482033 0.039288
vt 0.185743 0.215692
vn 0.007183 -0.105314 -0.994413
v -0.198669 0.478276 0.037880
vt 0.126783 0.215692
vn 0.007183 -0.105314 -0.994413
v -0.198669 0.478276 0.037880
vt 0.126783 0.215692
vn 0.007183 -0.105314 -0.994413
v -0.193736 0.136391 0.074123
vt 0.126783 0.063213
vn 0.007183 -0.105314 -0.994413
v -0.191992 0.021156 0.086934
vt 0.126783 0.003619
vn 0.007183 -0.105314 -0.994413
v -0.198669 0.478276 0.037880
vt 0.123640 0.215716
vn -0.999871 -0.015026 -0.005631
v -0.200460 0.504528 0.285761
vt 0.063841 0.215716
vn -0.999871 -0.015026 -0.005631
v -0.195526 0.162643 0.322004
vt 0.064343 0.063264
vn -0.999871 -0.015026 -0.005631
v -0.193736 0.136391 0.074123
vt 0.123640 0.063264
vn -0.999871 -0.015026 -0.005631
v 0.049508 0.508284 0.287168
vt 0.186335 0.499233
vn -0.014349 0.994326 -0.105408
v -0.200460 0.504528 0.285761
vt 0.186335 0.376869
vn -0.014349 0.994326 -0.105408
v -0.198669 0.478276 0.037880
vt 0.126125 0.376869
vn -0.014349 0.994326 -0.105408
v 0.051298 0.482033 0.039288
vt 0.126125 0.499233
vn -0.014349 0.994326 -0.105408
v -0.200460 0.504528 0.285761
vt 0.125509 0.378065
vn 0.014349 -0.994326 0.105408
v 0.049508 0.508284 0.287168
vt 0.125509 0.499390
vn 0.014349 -0.994326 0.105408
v 0.051298 0.482033 0.039288
vt 0.184846 0.499390
vn 0.014349 -0.994326 0.105408
v -0.198669 0.478276 0.037880
vt 0.184846 0.378065
vn 0.014349 -0.994326 0.105408
# Faces (1 to 74)
g Player_Leg_Left_0
f -72/-72/-72 -73/-73/-73 -74/-74/-74
f -71/-71/-71 -72/-72/-72 -74/-74/-74
f -68/-68/-68 -69/-69/-69 -70/-70/-70
f -67/-67/-67 -68/-68/-68 -70/-70/-70
f -64/-64/-64 -65/-65/-65 -66/-66/-66
f -63/-63/-63 -64/-64/-64 -66/-66/-66
f -60/-60/-60 -61/-61/-61 -62/-62/-62
f -59/-59/-59 -60/-60/-60 -62/-62/-62
f -56/-56/-56 -57/-57/-57 -58/-58/-58
f -55/-55/-55 -56/-56/-56 -58/-58/-58
f -52/-52/-52 -53/-53/-53 -54/-54/-54
f -51/-51/-51 -52/-52/-52 -54/-54/-54
f -48/-48/-48 -49/-49/-49 -50/-50/-50
f -47/-47/-47 -48/-48/-48 -50/-50/-50
f -44/-44/-44 -45/-45/-45 -46/-46/-46
f -43/-43/-43 -44/-44/-44 -46/-46/-46
f -40/-40/-40 -41/-41/-41 -42/-42/-42
f -39/-39/-39 -40/-40/-40 -42/-42/-42
f -36/-36/-36 -37/-37/-37 -38/-38/-38
f -35/-35/-35 -36/-36/-36 -38/-38/-38
f -32/-32/-32 -33/-33/-33 -34/-34/-34
f -31/-31/-31 -32/-32/-32 -34/-34/-34
f -28/-28/-28 -29/-29/-29 -30/-30/-30
f -30/-30/-30 -27/-27/-27 -28/-28/-28
f -24/-24/-24 -25/-25/-25 -26/-26/-26
f -21/-21/-21 -22/-22/-22 -23/-23/-23
f -20/-20/-20 -21/-21/-21 -23/-23/-23
f -17/-17/-17 -18/-18/-18 -19/-19/-19
f -19/-19/-19 -16/-16/-16 -17/-17/-17
f -13/-13/-13 -14/-14/-14 -15/-15/-15
f -10/-10/-10 -11/-11/-11 -12/-12/-12
f -9/-9/-9 -10/-10/-10 -12/-12/-12
f -6/-6/-6 -7/-7/-7 -8/-8/-8
f -5/-5/-5 -6/-6/-6 -8/-8/-8
f -2/-2/-2 -3/-3/-3 -4/-4/-4
f -1/-1/-1 -2/-2/-2 -4/-4/-4

