g PLAYER_Body_MESH
v 0.1425711 0.8426996 -0.2500003
v -0.1241212 0.8426999 -0.25
v -0.1241212 0.8426999 0.2500001
v 0.1425712 0.8426999 0.2499999
v 0.1425712 1.170267 -0.2500003
v -0.1241212 1.170268 -0.2500001
v -0.1241212 1.006484 -0.25
v 0.1425712 1.003217 -0.2500003
v 0.1425712 1.324251 -0.2500003
v -0.1241212 1.327518 -0.2500001
v -0.1241212 0.8426999 -0.25
v 0.1425711 0.8426996 -0.2500003
v 0.1425712 1.484769 -0.2500003
v -0.1241212 1.484769 -0.25
v -0.1678363 1.484769 -0.2500001
v -0.1678364 1.327518 -0.2500001
v -0.1241212 1.170268 -0.2500001
v -0.1678364 1.170268 -0.2500002
v -0.1678364 1.170268 0.25
v -0.1678364 1.170268 -0.2500002
v -0.1678364 1.327518 -0.2500001
v -0.1678364 1.327518 0.25
v -0.1678364 1.484769 0.25
v -0.1678363 1.484769 -0.2500001
v -0.1678364 1.484769 0.25
v -0.1678363 1.484769 -0.2500001
v -0.1241212 1.484769 -0.25
v 0.1425712 1.484769 0.25
v -0.1241212 1.484769 0.2500002
v 0.1425712 1.484769 -0.2500003
v -0.1678364 1.170268 0.25
v -0.1241212 1.170268 0.2500001
v -0.1241212 1.170268 -0.2500001
v -0.1678364 1.170268 -0.2500002
v -0.1678364 1.327518 0.25
v -0.1678364 1.484769 0.25
v -0.1241212 1.484769 0.2500002
v -0.1241212 1.327518 0.2500001
v 0.1425712 1.484769 0.25
v 0.1425712 1.324251 0.2499999
v -0.1678364 1.170268 0.25
v -0.1241212 1.170268 0.2500001
v -0.1241212 1.170268 0.2500001
v 0.1425712 1.170268 0.2499999
v -0.1241212 1.006484 0.2500001
v 0.1425712 1.003217 0.2499999
v -0.1241212 0.8426999 0.2500001
v 0.1425712 0.8426999 0.2499999
v -0.1241212 1.006484 0.2500001
v -0.1241212 0.8426999 0.2500001
v -0.1241212 0.8426999 -0.25
v -0.1241212 1.006484 -0.25
v -0.1241212 1.170268 0.2500001
v -0.1241212 1.170268 -0.2500001
v 0.1425712 1.170268 0.2499999
v 0.1425712 1.324251 0.2499999
v 0.1425712 1.324251 -0.2500003
v 0.1425712 1.170267 -0.2500003
v 0.1425712 1.003217 0.2499999
v 0.1425712 1.003217 -0.2500003
v 0.1425712 0.8426999 0.2499999
v 0.1425711 0.8426996 -0.2500003
v 0.1425712 1.484769 -0.2500003
v 0.1425712 1.484769 0.25
v -0.125 1.474957 -0.1250001
v -0.125 1.474957 0.125
v 0.125 1.474957 0.125
v 0.125 1.474957 -0.1250001
v -0.125 1.62315 -0.1250001
v 0.125 1.62315 -0.1250001
v 0.125 1.62315 0.1249999
v -0.125 1.62315 0.125
v -0.125 1.474957 -0.1250001
v -0.125 1.62315 -0.1250001
v -0.125 1.62315 0.125
v -0.125 1.474957 0.125
v -0.125 1.474957 0.125
v -0.125 1.62315 0.125
v 0.125 1.62315 0.1249999
v 0.125 1.474957 0.125
v 0.125 1.474957 0.125
v 0.125 1.62315 0.1249999
v 0.125 1.62315 -0.1250001
v 0.125 1.474957 -0.1250001
v 0.125 1.474957 -0.1250001
v 0.125 1.62315 -0.1250001
v -0.125 1.62315 -0.1250001
v -0.125 1.474957 -0.1250001
vt 0.4397316 0.3789147
vt 0.4397316 0.495384
vt 0.5600924 0.495384
vt 0.5600924 0.3789147
vt 0.2519226 0.1905898
vt 0.3101867 0.1899849
vt 0.3101781 0.09574254
vt 0.2519882 0.09435272
vt 0.2520248 0.2793081
vt 0.3101867 0.2808853
vt 0.3101695 0.001500143
vt 0.2519699 0.001875041
vt 0.2520431 0.3717858
vt 0.3101867 0.3717857
vt 0.3123496 0.3718053
vt 0.3123496 0.2808954
vt 0.3101867 0.1899849
vt 0.3123496 0.1899854
vt 0.4362094 0.1906257
vt 0.3137867 0.1906258
vt 0.3137867 0.2812155
vt 0.4362094 0.2812154
vt 0.4362094 0.3718051
vt 0.3137867 0.3718053
vt 0.4359302 0.3770154
vt 0.3144145 0.3770155
vt 0.3144145 0.3840292
vt 0.4359302 0.4959199
vt 0.4359302 0.3840292
vt 0.3144145 0.4959199
vt 0.4362094 0.1906257
vt 0.4362094 0.1906257
vt 0.3137867 0.1906258
vt 0.3137867 0.1906258
vt 0.4376639 0.2811461
vt 0.4376639 0.3717358
vt 0.4388956 0.3716256
vt 0.4388956 0.2811174
vt 0.4986522 0.3716254
vt 0.4986522 0.2795278
vt 0.4376639 0.1905565
vt 0.4388956 0.1906092
vt 0.4388956 0.1906092
vt 0.4987337 0.1911745
vt 0.4389709 0.09701858
vt 0.4986522 0.09533264
vt 0.4390461 0.003427919
vt 0.4986522 0.003235038
vt 0.4376588 0.09391087
vt 0.4376588 0.0004968483
vt 0.3127593 0.0004968483
vt 0.3127593 0.09391087
vt 0.4376588 0.1873249
vt 0.3127593 0.1873249
vt 0.5019852 0.1911712
vt 0.5019852 0.2804756
vt 0.6232423 0.2804756
vt 0.6232423 0.1911712
vt 0.5019852 0.09428861
vt 0.6232423 0.09428865
vt 0.5019852 0.001195142
vt 0.6232423 0.001195179
vt 0.6232423 0.373569
vt 0.5019852 0.373569
vt 0.3735024 0.8151176
vt 0.2534833 0.8151176
vt 0.2534833 0.9008456
vt 0.3735024 0.9008456
vt 0.2534833 0.8151176
vt 0.2534833 0.9008456
vt 0.3735024 0.9008456
vt 0.3735024 0.8151176
vt 0.2534833 0.8151176
vt 0.2534833 0.8288341
vt 0.3735024 0.8288341
vt 0.3735024 0.8151176
vt 0.2534833 0.8151176
vt 0.2534833 0.8288341
vt 0.3392112 0.8288341
vt 0.3392112 0.8151176
vt 0.2534833 0.8151176
vt 0.2534833 0.8288341
vt 0.3735024 0.8288341
vt 0.3735024 0.8151176
vt 0.2534833 0.8151176
vt 0.2534833 0.8288341
vt 0.3392112 0.8288341
vt 0.3392112 0.8151176
vn -7.24927E-07 -1 3.633499E-07
vn -7.249268E-07 -1 3.633499E-07
vn -7.249268E-07 -1 3.633499E-07
vn -7.249268E-07 -1 3.633499E-07
vn -7.816687E-07 0 -1
vn -7.816687E-07 0 -1
vn -8.811932E-07 -1.154976E-07 -1
vn -8.822979E-07 -1.151552E-07 -1
vn -7.948152E-07 1.208066E-07 -1
vn 2.034227E-06 1.444151E-07 -1
vn -9.52571E-07 0 -1
vn -9.52571E-07 0 -1
vn -8.378795E-07 0 -1
vn 2.207388E-06 1.444151E-07 -1
vn 2.207388E-06 1.444151E-07 -1
vn 2.034227E-06 1.444151E-07 -1
vn -0.7071061 0 -0.7071075
vn 1.861065E-06 1.444151E-07 -1
vn -1 1.881269E-07 0
vn -1 1.881269E-07 0
vn -1 1.881269E-07 0
vn -1 1.881269E-07 0
vn -1 1.881269E-07 0
vn -1 1.881269E-07 0
vn 0 1 0
vn 0 1 0
vn 0 1 0
vn 0 1 0
vn 0 1 0
vn 0 1 0
vn 1.34158E-06 -1 2.422333E-07
vn 1.34158E-06 -1 2.422333E-07
vn 1.34158E-06 -1 2.422333E-07
vn 1.34158E-06 -1 2.422333E-07
vn -2.293968E-06 -1.203456E-07 1
vn -2.726872E-06 0 1
vn -2.726872E-06 0 1
vn -2.293969E-06 -1.203456E-07 1
vn 7.524357E-07 -1.429309E-07 1
vn 6.952158E-07 -1.444428E-07 1
vn -1.861065E-06 -1.444149E-07 1
vn -0.7071069 -1.692515E-07 0.7071067
vn 6.251363E-07 0 1
vn 6.251362E-07 0 1
vn 6.395538E-07 0 1
vn 6.399965E-07 0 1
vn 6.681593E-07 0 1
vn 6.681592E-07 0 1
vn -1 0 0
vn -1 0 0
vn -1 0 0
vn -1 0 0
vn -0.7071069 -1.692515E-07 0.7071067
vn -0.7071061 0 -0.7071075
vn 1 0 0
vn 1 0 0
vn 1 0 0
vn 1 0 0
vn 1 0 0
vn 1 0 0
vn 1 0 -1.194094E-07
vn 1 0 -1.194094E-07
vn 1 0 0
vn 1 0 0
vn 0 -1 2.119541E-07
vn 0 -1 2.119541E-07
vn 0 -1 2.119541E-07
vn 0 -1 2.119541E-07
vn 1.194094E-07 1 -1.665353E-07
vn 1.194094E-07 1 -1.665353E-07
vn 1.194094E-07 1 -1.665353E-07
vn 1.194094E-07 1 -1.665353E-07
vn -1 0 1.345491E-07
vn -1 0 1.345491E-07
vn -1 0 1.345491E-07
vn -1 0 1.345491E-07
vn 1.042699E-07 1.532417E-07 1
vn 1.042699E-07 1.532417E-07 1
vn 1.042699E-07 1.532417E-07 1
vn 1.042699E-07 1.532417E-07 1
vn 1 0 0
vn 1 0 0
vn 1 0 0
vn 1 0 0
vn -1.648282E-07 0 -1
vn -1.648282E-07 0 -1
vn -1.648282E-07 0 -1
vn -1.648282E-07 0 -1
g PLAYER_Body_MESH_0
f 3/3/3 2/2/2 1/1/1
f 4/4/4 3/3/3 1/1/1
f 7/7/7 6/6/6 5/5/5
f 8/8/8 7/7/7 5/5/5
f 9/9/9 5/5/5 6/6/6
f 10/10/10 9/9/9 6/6/6
f 11/11/11 7/7/7 8/8/8
f 12/12/12 11/11/11 8/8/8
f 13/13/13 9/9/9 10/10/10
f 14/14/14 13/13/13 10/10/10
f 14/14/14 10/10/10 15/15/15
f 10/10/10 16/16/16 15/15/15
f 10/10/10 17/17/17 16/16/16
f 17/17/17 18/18/18 16/16/16
f 21/21/21 20/20/20 19/19/19
f 22/22/22 21/21/21 19/19/19
f 21/21/21 22/22/22 23/23/23
f 24/24/24 21/21/21 23/23/23
f 27/27/27 26/26/26 25/25/25
f 25/25/25 28/28/28 27/27/27
f 25/25/25 29/29/29 28/28/28
f 30/30/30 27/27/27 28/28/28
f 33/33/33 32/32/32 31/31/31
f 34/34/34 33/33/33 31/31/31
f 37/37/37 36/36/36 35/35/35
f 38/38/38 37/37/37 35/35/35
f 37/37/37 38/38/38 39/39/39
f 38/38/38 40/40/40 39/39/39
f 38/38/38 35/35/35 41/41/41
f 42/42/42 38/38/38 41/41/41
f 40/40/40 38/38/38 43/43/43
f 44/44/44 40/40/40 43/43/43
f 44/44/44 43/43/43 45/45/45
f 46/46/46 44/44/44 45/45/45
f 46/46/46 45/45/45 47/47/47
f 48/48/48 46/46/46 47/47/47
f 51/51/51 50/50/50 49/49/49
f 52/52/52 51/51/51 49/49/49
f 52/52/52 49/49/49 53/53/53
f 54/54/54 52/52/52 53/53/53
f 57/57/57 56/56/56 55/55/55
f 58/58/58 57/57/57 55/55/55
f 58/58/58 55/55/55 59/59/59
f 60/60/60 58/58/58 59/59/59
f 60/60/60 59/59/59 61/61/61
f 62/62/62 60/60/60 61/61/61
f 56/56/56 57/57/57 63/63/63
f 64/64/64 56/56/56 63/63/63
f 67/67/67 66/66/66 65/65/65
f 68/68/68 67/67/67 65/65/65
f 71/71/71 70/70/70 69/69/69
f 72/72/72 71/71/71 69/69/69
f 75/75/75 74/74/74 73/73/73
f 76/76/76 75/75/75 73/73/73
f 79/79/79 78/78/78 77/77/77
f 80/80/80 79/79/79 77/77/77
f 83/83/83 82/82/82 81/81/81
f 84/84/84 83/83/83 81/81/81
f 87/87/87 86/86/86 85/85/85
f 88/88/88 87/87/87 85/85/85
