g PLAYER_Runner_Body_MESH
v 0.1425711 0.8392773 -0.2500003
v -0.1241212 0.8392777 0.2500001
v 0.1425712 0.8392777 0.2499999
v -0.1241212 0.8392777 -0.25
v 0.1425711 0.8392773 -0.2500003
v -0.1241212 1.166845 -0.2500001
v -0.1241212 0.8392777 -0.25
v 0.1425712 1.481346 -0.2500003
v -0.1241212 1.481346 -0.25
v -0.1678364 1.166845 -0.2500002
v -0.1678364 1.481346 0.25
v -0.1678364 1.166845 0.25
v -0.1678363 1.481346 -0.2500001
v -0.1241212 1.481346 0.2500002
v 0.1425712 1.481346 -0.2500003
v 0.1425712 1.481346 0.25
v -0.1241212 1.481346 -0.25
v -0.1678363 1.481346 -0.2500001
v -0.1241212 1.481346 -0.25
v -0.1678364 1.481346 0.25
v -0.1678364 1.166845 -0.2500002
v -0.1241212 1.481346 -0.25
v -0.1678363 1.481346 -0.2500001
v -0.1241212 1.166845 -0.2500001
v -0.1678364 1.166845 0.25
v -0.1241212 1.166845 -0.2500001
v -0.1678364 1.166845 -0.2500002
v -0.1241212 1.166846 0.2500001
v -0.1678364 1.481346 0.25
v -0.1241212 1.166846 0.2500001
v -0.1678364 1.166845 0.25
v -0.1241212 1.481346 0.2500002
v 0.1425712 1.481346 0.25
v -0.1241212 0.8392777 0.2500001
v 0.1425712 0.8392777 0.2499999
v 0.1250002 0.8392779 -0.2498289
v -0.1249999 0.8392766 6.805697E-06
v -0.1249998 0.8392785 -0.2498288
v 0.125 0.8392766 6.862896E-06
v 0.1249997 0.001346015 -0.2498334
v -0.1250005 0.001344815 2.33952E-06
v 0.1249995 0.00134444 2.427E-06
v 0.1249997 0.001346015 -0.2498334
v -0.1250003 0.001346026 -0.2498333
v 0.1249999 0.4666787 4.970449E-06
v -0.1249999 0.8392766 6.805697E-06
v 0.125 0.8392766 6.862896E-06
v -0.1250001 0.4666787 4.943528E-06
v 0.1249999 0.4666787 -0.2498308
v 0.125 0.8392766 6.862896E-06
v 0.1250002 0.8392779 -0.2498289
v 0.1249999 0.4666787 4.970449E-06
v -0.125 0.4666787 -0.2498307
v 0.1250002 0.8392779 -0.2498289
v -0.1249998 0.8392785 -0.2498288
v 0.1249999 0.4666787 -0.2498308
v -0.125 0.4666787 -0.2498307
v -0.1249999 0.8392766 6.805697E-06
v -0.1250001 0.4666787 4.943528E-06
v -0.1249998 0.8392785 -0.2498288
v -0.1890036 0.1228426 3.00089E-06
v -0.1890035 0.001346029 -0.2498334
v -0.1890034 0.1228426 -0.2498327
v -0.1890037 0.001344817 2.304469E-06
v -0.1890037 0.001344817 2.304469E-06
v -0.1250003 0.001346026 -0.2498333
v -0.1890035 0.001346029 -0.2498334
v -0.1250005 0.001344815 2.33952E-06
v -0.1890036 0.1228426 3.00089E-06
v -0.1250005 0.001344815 2.33952E-06
v -0.1890037 0.001344817 2.304469E-06
v -0.1250004 0.1228426 3.028371E-06
v -0.1890034 0.1228426 -0.2498327
v -0.1250004 0.1228426 3.028371E-06
v -0.1890036 0.1228426 3.00089E-06
v -0.1250003 0.1228426 -0.2498325
v -0.1890035 0.001346029 -0.2498334
v -0.1250003 0.1228426 -0.2498325
v -0.1890034 0.1228426 -0.2498327
v -0.1250003 0.1228426 -0.2498325
v -0.1890035 0.001346029 -0.2498334
v -0.1250003 0.001346026 -0.2498333
v -0.1250004 0.1228426 3.028371E-06
v 0.1249995 0.00134444 2.427E-06
v -0.1250005 0.001344815 2.33952E-06
v -0.1250002 0.4666787 4.8754E-06
v 0.1249998 0.4666789 5.000728E-06
v 0.125 0.4666789 -0.2498308
v 0.1249995 0.00134444 2.427E-06
v 0.1249998 0.4666789 5.000728E-06
v 0.1249997 0.001346015 -0.2498334
v 0.1249997 0.001346015 -0.2498334
v -0.1250003 0.1228426 -0.2498325
v -0.1250003 0.001346026 -0.2498333
v -0.1250001 0.4666789 -0.2498307
v -0.1250003 0.1228426 -0.2498325
v 0.125 0.4666789 -0.2498308
v -0.1250002 0.4666787 4.8754E-06
v -0.1250003 0.1228426 -0.2498325
v -0.1250001 0.4666789 -0.2498307
v -0.1250004 0.1228426 3.028371E-06
v 0.125 0.8392774 7.960857E-05
v -0.125 0.8392774 0.2493527
v -0.125 0.8392771 7.966493E-05
v 0.125 0.8392771 0.2493525
v 0.1249999 0.00134553 7.984324E-05
v -0.125 0.00134542 0.2493529
v 0.125 0.00134553 0.2493528
v -0.1250001 0.00134542 7.986931E-05
v 0.125 0.4666785 0.2493526
v -0.125 0.8392774 0.2493527
v 0.125 0.8392771 0.2493525
v -0.125 0.4666787 0.2493528
v 0.125 0.4666787 7.969942E-05
v 0.125 0.8392771 0.2493525
v 0.125 0.8392774 7.960857E-05
v 0.125 0.4666785 0.2493526
v -0.1250001 0.4666785 7.977847E-05
v 0.125 0.8392774 7.960857E-05
v -0.125 0.8392771 7.966493E-05
v 0.125 0.4666787 7.969942E-05
v -0.1250001 0.4666785 7.977847E-05
v -0.125 0.8392774 0.2493527
v -0.125 0.4666787 0.2493528
v -0.125 0.8392771 7.966493E-05
v -0.1890032 0.1228427 0.2493529
v -0.1890033 0.001345423 7.991752E-05
v -0.1890032 0.1228426 7.990239E-05
v -0.1890032 0.001345423 0.2493529
v -0.1890032 0.001345423 0.2493529
v -0.1250001 0.00134542 7.986931E-05
v -0.1890033 0.001345423 7.991752E-05
v -0.125 0.00134542 0.2493529
v -0.1890032 0.1228427 0.2493529
v -0.125 0.00134542 0.2493529
v -0.1890032 0.001345423 0.2493529
v -0.125 0.1228427 0.2493529
v -0.1890032 0.1228426 7.990239E-05
v -0.125 0.1228427 0.2493529
v -0.1890032 0.1228427 0.2493529
v -0.1250001 0.1228426 7.985417E-05
v -0.1890033 0.001345423 7.991752E-05
v -0.1250001 0.1228426 7.985417E-05
v -0.1890032 0.1228426 7.990239E-05
v -0.1250001 0.00134542 7.986931E-05
v -0.125 0.1228427 0.2493529
v 0.125 0.00134553 0.2493528
v -0.125 0.00134542 0.2493529
v -0.125 0.4666786 0.2493528
v 0.125 0.4666786 0.2493526
v 0.125 0.4666786 7.970699E-05
v 0.125 0.00134553 0.2493528
v 0.125 0.4666786 0.2493526
v 0.1249999 0.00134553 7.984324E-05
v 0.1249999 0.00134553 7.984324E-05
v -0.1250001 0.1228426 7.985417E-05
v -0.1250001 0.00134542 7.986931E-05
v -0.1250001 0.4666786 7.976333E-05
v 0.125 0.4666786 7.970699E-05
v -0.125 0.4666786 0.2493528
v -0.1250001 0.1228426 7.985417E-05
v -0.1250001 0.4666786 7.976333E-05
v -0.125 0.1228427 0.2493529
v 0.2501749 1.501022 0.2491582
v 0.2501749 1.501022 -0.2491601
v -0.2501543 1.501022 0.2491584
v -0.2501545 1.501022 -0.24916
v -0.2501546 2.001022 0.2491582
v 0.250175 2.001022 -0.2491602
v 0.250175 2.001022 0.249158
v -0.2501547 2.001022 -0.2491602
v -0.2501543 1.501022 0.2491584
v 0.250175 2.001022 0.249158
v 0.2501749 1.501022 0.2491582
v -0.2501546 2.001022 0.2491582
v 0.2501749 1.501022 0.2491582
v 0.250175 2.001022 -0.2491602
v 0.2501749 1.501022 -0.2491601
v 0.250175 2.001022 0.249158
v 0.2501749 1.501022 -0.2491601
v -0.2501547 2.001022 -0.2491602
v -0.2501545 1.501022 -0.24916
v 0.250175 2.001022 -0.2491602
v -0.2501547 2.001022 -0.2491602
v -0.2501543 1.501022 0.2491584
v -0.2501545 1.501022 -0.24916
v -0.2501546 2.001022 0.2491582
v -0.1241212 0.8392777 0.2500001
v -0.1241212 1.166845 -0.2500001
v -0.1241212 1.166846 0.2500001
v -0.1241212 0.8392777 -0.25
v 0.1425712 1.481346 0.25
v 0.1425711 0.8392773 -0.2500003
v 0.1425712 0.8392777 0.2499999
v 0.1425712 1.481346 -0.2500003
v -0.125 1.471535 -0.1250001
v 0.125 1.471535 0.125
v 0.125 1.471535 -0.1250001
v -0.125 1.471535 0.125
v -0.125 1.619728 -0.1250001
v 0.125 1.619728 0.1249999
v -0.125 1.619728 0.125
v 0.125 1.619728 -0.1250001
v -0.125 1.471535 -0.1250001
v -0.125 1.619728 0.125
v -0.125 1.471535 0.125
v -0.125 1.619728 -0.1250001
v -0.125 1.471535 0.125
v 0.125 1.619728 0.1249999
v 0.125 1.471535 0.125
v -0.125 1.619728 0.125
v 0.125 1.471535 0.125
v 0.125 1.619728 -0.1250001
v 0.125 1.471535 -0.1250001
v 0.125 1.619728 0.1249999
v 0.125 1.471535 -0.1250001
v -0.125 1.619728 -0.1250001
v -0.125 1.471535 -0.1250001
v 0.125 1.619728 -0.1250001
v -0.125 0.4666786 0.2493528
v 0.125 0.4666786 7.970699E-05
v 0.125 0.4666786 0.2493526
v -0.1250001 0.4666786 7.976333E-05
v -0.1250002 0.4666787 4.8754E-06
v 0.125 0.4666789 -0.2498308
v 0.1249998 0.4666789 5.000728E-06
v -0.1250001 0.4666789 -0.2498307
v 0.1249999 0.4666787 4.970449E-06
v -0.125 0.4666787 -0.2498307
v -0.1250001 0.4666787 4.943528E-06
v 0.1249999 0.4666787 -0.2498308
v 0.125 0.4666785 0.2493526
v -0.1250001 0.4666785 7.977847E-05
v -0.125 0.4666787 0.2493528
v 0.125 0.4666787 7.969942E-05
vt 0.4397316 0.3789147
vt 0.5600924 0.495384
vt 0.5600924 0.3789147
vt 0.4397316 0.495384
vt 0.2519699 0.001875041
vt 0.3101867 0.1899849
vt 0.3101695 0.001500143
vt 0.2520431 0.3717858
vt 0.3101867 0.3717857
vt 0.3137867 0.1906258
vt 0.4362094 0.3718051
vt 0.4362094 0.1906257
vt 0.3137867 0.3718053
vt 0.4359302 0.3840292
vt 0.3144145 0.4959199
vt 0.4359302 0.4959199
vt 0.3144145 0.3840292
vt 0.3144145 0.3770155
vt 0.3144145 0.3840292
vt 0.4359302 0.3770154
vt 0.3123496 0.1899854
vt 0.3101867 0.3717857
vt 0.3123496 0.3718053
vt 0.3101867 0.1899849
vt 0.4362094 0.1906257
vt 0.3137867 0.1906258
vt 0.3137867 0.1906258
vt 0.4362094 0.1906257
vt 0.4376639 0.3717358
vt 0.4388956 0.1906092
vt 0.4376639 0.1905565
vt 0.4388956 0.3716256
vt 0.4986522 0.3716254
vt 0.4390461 0.003427919
vt 0.4986522 0.003235038
vt 0.1230149 0.4968598
vt 0.06439807 0.3773884
vt 0.1230149 0.3773884
vt 0.06439807 0.4968598
vt 0.1853301 0.3789685
vt 0.1271713 0.4959988
vt 0.1271713 0.3789685
vt 0.1853301 0.3789685
vt 0.1853301 0.4959988
vt 0.1857427 0.215639
vt 0.1264331 0.3712741
vt 0.1857427 0.3712738
vt 0.1264331 0.2156393
vt 0.2481632 0.2156525
vt 0.1893258 0.3713499
vt 0.2481632 0.3713503
vt 0.1893258 0.2156528
vt 0.05988977 0.2156028
vt 0.001610681 0.3709106
vt 0.05988975 0.3709106
vt 0.001610713 0.2156029
vt 0.06428509 0.2157107
vt 0.1233211 0.3714561
vt 0.1233211 0.2157115
vt 0.0642851 0.3714561
vt 0.123404 0.05594388
vt 0.06422246 0.003712624
vt 0.06422245 0.05594388
vt 0.1232585 0.003712624
vt 0.125 0.4794516
vt 0.1865855 0.4984805
vt 0.1865855 0.4794516
vt 0.125 0.4984805
vt 0.1331942 0.06103529
vt 0.1273482 0.003786383
vt 0.1331942 0.003711942
vt 0.1273482 0.06106929
vt 0.123404 0.05594388
vt 0.06422245 0.05604708
vt 0.06422245 0.05594388
vt 0.123404 0.05604708
vt 0.05228131 0.003712624
vt 0.04874855 0.0582869
vt 0.05228131 0.05810185
vt 0.04874855 0.0582869
vt 0.05228131 0.003712624
vt 0.04874855 0.004191397
vt 0.1264331 0.06332137
vt 0.1857427 0.003789461
vt 0.1264331 0.003789987
vt 0.1264331 0.2156393
vt 0.1857427 0.215639
vt 0.2481632 0.2156525
vt 0.1893258 0.003718575
vt 0.1893258 0.2156528
vt 0.2481632 0.00371897
vt 0.001610756 0.004200424
vt 0.0598898 0.05939525
vt 0.05988981 0.004200424
vt 0.05988977 0.2156028
vt 0.0598898 0.05939525
vt 0.001610713 0.2156029
vt 0.1233211 0.2157115
vt 0.06422245 0.05604708
vt 0.06428509 0.2157107
vt 0.123404 0.05604708
vt 0.06457817 0.4968459
vt 0.1228348 0.3780397
vt 0.06457817 0.3780397
vt 0.1228348 0.4968459
vt 0.1275117 0.3783854
vt 0.1849897 0.4965819
vt 0.1849897 0.3783854
vt 0.1275117 0.4965819
vt 0.002460881 0.2155309
vt 0.06007005 0.3705697
vt 0.00246088 0.3705694
vt 0.06007005 0.2155313
vt 0.1894827 0.215557
vt 0.2480062 0.3707232
vt 0.1894827 0.3707236
vt 0.2480062 0.2155566
vt 0.1260928 0.2156921
vt 0.1850525 0.3714915
vt 0.1260929 0.3714915
vt 0.1850524 0.2156921
vt 0.12395 0.2157161
vt 0.0641516 0.3714885
vt 0.0641516 0.2157161
vt 0.1239499 0.3714885
vt 0.06395295 0.05768424
vt 0.1238247 0.003680222
vt 0.1238873 0.06013286
vt 0.06402637 0.003680222
vt 0.1865855 0.4794516
vt 0.125 0.4984805
vt 0.125 0.4794516
vt 0.1865855 0.4984805
vt 0.051985 0.05861819
vt 0.0481153 0.004464365
vt 0.05196915 0.003680221
vt 0.04814414 0.05823698
vt 0.06384131 0.06013286
vt 0.1238873 0.05678927
vt 0.1237757 0.05768424
vt 0.06384131 0.06013286
vt 0.1329991 0.003677592
vt 0.1272569 0.06063386
vt 0.1329991 0.0606821
vt 0.1272569 0.003619465
vt 0.06031772 0.06045368
vt 0.00246088 0.004493862
vt 0.06007005 0.004494386
vt 0.06007005 0.2155313
vt 0.002460881 0.2155309
vt 0.1894827 0.215557
vt 0.2480062 0.004345284
vt 0.2480062 0.2155566
vt 0.1894827 0.004345678
vt 0.1850524 0.003619465
vt 0.1260928 0.06321342
vt 0.1260928 0.003619465
vt 0.1260928 0.2156921
vt 0.1850524 0.2156921
vt 0.0641516 0.2157161
vt 0.1238873 0.06013286
vt 0.12395 0.2157161
vt 0.06384131 0.05678927
vt 0.2517152 0.9957948
vt 0.3735232 0.9957948
vt 0.2517152 0.7535524
vt 0.3735232 0.7535524
vt 0.2486057 0.7530095
vt 0.1263149 0.9967196
vt 0.2486057 0.9967196
vt 0.1263149 0.7530095
vt 0.2513039 0.5035843
vt 0.3739942 0.7469546
vt 0.3739942 0.5035843
vt 0.2513039 0.7469546
vt 0.377808 0.5040857
vt 0.4969862 0.745851
vt 0.4969862 0.5040857
vt 0.3778077 0.745851
vt 0.001252105 0.503513
vt 0.1239769 0.7465922
vt 0.1239769 0.503513
vt 0.001252105 0.7465922
vt 0.1266034 0.7452473
vt 0.2483029 0.5049343
vt 0.1266034 0.5049343
vt 0.2483029 0.7452473
vt 0.4376588 0.0004968483
vt 0.3127593 0.1873249
vt 0.4376588 0.1873249
vt 0.3127593 0.0004968483
vt 0.5019852 0.373569
vt 0.6232423 0.001195179
vt 0.5019852 0.001195142
vt 0.6232423 0.373569
vt 0.3735024 0.8151176
vt 0.2534833 0.9008456
vt 0.3735024 0.9008456
vt 0.2534833 0.8151176
vt 0.2534833 0.8151176
vt 0.3735024 0.9008456
vt 0.3735024 0.8151176
vt 0.2534833 0.9008456
vt 0.2534833 0.8151176
vt 0.3735024 0.8288341
vt 0.3735024 0.8151176
vt 0.2534833 0.8288341
vt 0.2534833 0.8151176
vt 0.3392112 0.8288341
vt 0.3392112 0.8151176
vt 0.2534833 0.8288341
vt 0.2534833 0.8151176
vt 0.3735024 0.8288341
vt 0.3735024 0.8151176
vt 0.2534833 0.8288341
vt 0.2534833 0.8151176
vt 0.3392112 0.8288341
vt 0.3392112 0.8151176
vt 0.2534833 0.8288341
vt 0.186335 0.3768692
vt 0.1261245 0.4992332
vt 0.186335 0.4992333
vt 0.1261245 0.3768692
vt 0.1859699 0.3767743
vt 0.1256236 0.4991384
vt 0.1859699 0.4991384
vt 0.1256236 0.3767744
vt 0.1262207 0.4988653
vt 0.1856916 0.3775407
vt 0.1262207 0.3775407
vt 0.1856916 0.4988653
vt 0.1255088 0.4993901
vt 0.1848457 0.3780654
vt 0.1255088 0.3780654
vt 0.1848458 0.49939
vn 0 -1 7.266997E-07
vn 0 -1 7.266996E-07
vn 0 -1 7.266996E-07
vn -1.406143E-06 -1 0
vn -8.726947E-07 -1.203062E-07 -1
vn -8.086121E-07 0 -1
vn -1.008767E-06 -2.310909E-07 -1
vn -8.060097E-07 1.168956E-07 -1
vn -8.952307E-07 1.925538E-07 -1
vn -1 1.744019E-07 0
vn -1 2.018516E-07 0
vn -1 2.362653E-07 -1.076843E-07
vn -1 1.399883E-07 0
vn 1.072586E-07 1 0
vn 3.207722E-07 1 1.477798E-07
vn 0 1 0
vn 1.992275E-06 0.7071078 -0.7071057
vn -3.073198E-06 1 2.422332E-07
vn -3.073198E-06 1 2.422332E-07
vn 0 1 0
vn 1.748806E-06 1.840883E-07 -1
vn 1.992275E-06 0.7071078 -0.7071057
vn 2.380551E-06 0 -1
vn -0.7071061 0 -0.7071075
vn 6.489343E-07 -1 1.816749E-07
vn 6.489342E-07 -1 1.81675E-07
vn 6.489344E-07 -1 1.81675E-07
vn 2.034226E-06 -1 3.027917E-07
vn -1.341581E-06 0 1
vn -1.34158E-06 0 1
vn -1.341581E-06 0 1
vn -3.073196E-06 -2.406916E-07 1
vn 6.86544E-07 -1.356308E-07 1
vn 6.118167E-07 0 1
vn 6.68159E-07 0 1
vn 2.950517E-06 1 7.998961E-06
vn 2.950517E-06 1 7.99896E-06
vn 2.950517E-06 1 7.998961E-06
vn 0 1 5.090243E-06
vn -1.497109E-06 -1 -6.302206E-06
vn -1.497109E-06 -1 -6.302206E-06
vn -1.497109E-06 -1 -6.302206E-06
vn 0.8945019 -0.447064 -1.664349E-06
vn 0 -1 -4.847852E-06
vn -1.532516E-07 -5.028371E-06 1
vn -1.832341E-07 -5.048487E-06 1
vn -2.288012E-07 -5.079062E-06 1
vn -1.076846E-07 -4.997797E-06 1
vn 1 -5.79743E-07 4.830148E-07
vn 1 -6.250773E-07 5.506247E-07
vn 1 -6.938326E-07 6.531636E-07
vn 1 -5.109873E-07 3.804754E-07
vn -6.193061E-07 5.018292E-06 -1
vn -6.792681E-07 5.058524E-06 -1
vn -7.703962E-07 5.119668E-06 -1
vn -5.281779E-07 4.957148E-06 -1
vn -1 6.252444E-07 -4.296788E-07
vn -1 6.202064E-07 -4.221654E-07
vn -1 6.328851E-07 -4.410739E-07
vn -1 6.125657E-07 -4.107703E-07
vn -1 1.040582E-06 -7.44061E-07
vn -0.8225658 4.682466E-06 -0.56867
vn -1 1.040589E-06 -7.440646E-07
vn -1 1.040579E-06 -7.440595E-07
vn 0 -1 -4.847852E-06
vn 0 -1 -4.847852E-06
vn 0 -1 -4.847851E-06
vn 0 -1 -4.847851E-06
vn -4.658835E-07 -5.688889E-06 1
vn -4.305346E-07 -5.691194E-06 1
vn -5.476492E-07 -5.731961E-06 1
vn -3.142675E-07 -5.541791E-06 1
vn 0 1 0
vn 0 1 0
vn 0 1 0
vn 0 1 0
vn 2.08519E-06 6.105844E-06 -1
vn 2.08519E-06 6.105844E-06 -1
vn 2.08519E-06 6.105844E-06 -1
vn -0.699834 5.274644E-06 -0.7143056
vn -0.8225658 4.682466E-06 -0.56867
vn 4.293776E-07 6.728892E-06 -1
vn -3.142675E-07 -5.541791E-06 1
vn -3.398083E-07 -5.507533E-06 1
vn -4.305346E-07 -5.691194E-06 1
vn -4.083686E-07 -5.480991E-06 1
vn -5.013084E-07 -5.530921E-06 1
vn 1 -6.172191E-07 6.454482E-07
vn 1 -6.414673E-07 6.002841E-07
vn 1 -5.968076E-07 6.834661E-07
vn 0.8945019 -0.447064 -1.664349E-06
vn 0 6.728892E-06 -1
vn -0.699834 5.274644E-06 -0.7143056
vn 4.293776E-07 6.728892E-06 -1
vn -5.00014E-07 5.481002E-06 -1
vn -7.032267E-07 5.371826E-06 -1
vn -4.070612E-07 5.530941E-06 -1
vn -1 6.733626E-07 -5.501495E-07
vn -0.699834 5.274644E-06 -0.7143056
vn -1 6.821694E-07 -5.622697E-07
vn -1 6.60154E-07 -5.319713E-07
vn -1.167455E-06 1 -1.214699E-06
vn -1.167455E-06 1 -1.214699E-06
vn -1.167455E-06 1 -1.214699E-06
vn 1.012645E-06 1 9.717594E-07
vn 4.407551E-07 -1 0
vn 1.985218E-07 -1 0
vn 4.407551E-07 -1 0
vn 1.985219E-07 -1 0
vn 7.704118E-07 4.063239E-07 1
vn 7.704118E-07 4.063239E-07 1
vn 7.704119E-07 4.06324E-07 1
vn 7.704116E-07 4.063239E-07 1
vn 1 0 -1.72751E-07
vn 1 0 -1.576118E-07
vn 1 0 -1.34814E-07
vn 1 0 -1.955488E-07
vn -2.820484E-07 -2.667248E-07 -1
vn -2.595614E-07 -2.818127E-07 -1
vn -2.253861E-07 -3.047431E-07 -1
vn -3.162237E-07 -2.437944E-07 -1
vn -1 1.427306E-07 1.690106E-07
vn -1 1.275382E-07 1.917194E-07
vn -1 1.656087E-07 1.348138E-07
vn -1 1.046601E-07 2.259162E-07
vn -1 1.156657E-07 2.515802E-07
vn -1 2.209741E-07 2.002522E-07
vn -1 2.929284E-07 1.651812E-07
vn -1 0 2.866512E-07
vn 0 -1 0
vn 1.985219E-07 -1 0
vn 0 -1 0
vn 1.985218E-07 -1 0
vn 0 3.738251E-07 1
vn 3.767821E-07 3.73825E-07 1
vn 0 3.738251E-07 1
vn 4.741173E-07 3.456588E-07 1
vn 0 1 -4.858795E-07
vn 0 1 -4.858795E-07
vn 0 1 -4.858795E-07
vn 0 1 -4.858795E-07
vn -7.533439E-07 -1.246084E-07 -1
vn -3.497512E-07 -1.845343E-07 -1
vn -7.533442E-07 -1.246083E-07 -1
vn -4.288068E-07 -1.246085E-07 -1
vn 4.741173E-07 3.456588E-07 1
vn 6.781519E-07 3.222785E-07 1
vn 3.767821E-07 3.73825E-07 1
vn 6.582944E-07 2.976495E-07 1
vn 6.492947E-07 2.928143E-07 1
vn 1 0 -2.866513E-07
vn 1 0 -2.866513E-07
vn 1 0 -2.866513E-07
vn 1 0 -2.866513E-07
vn -1.692912E-07 -2.32975E-07 -1
vn -3.497512E-07 -1.845343E-07 -1
vn -4.288068E-07 -1.246085E-07 -1
vn -2.086635E-07 -2.8383E-07 -1
vn -2.253864E-07 -2.928144E-07 -1
vn -1 0 1.833225E-07
vn -1 0 2.077751E-07
vn -1 0 1.348139E-07
vn -1 0 2.562838E-07
vn 0 -1 0
vn 0 -1 0
vn 0 -1 0
vn 0 -1 0
vn 0 1 0
vn 0 1 0
vn 1.042299E-07 1 0
vn -1.378439E-07 1 -1.82288E-07
vn 3.916864E-07 4.693331E-07 1
vn 3.91699E-07 4.693204E-07 1
vn 4.068224E-07 4.541871E-07 1
vn 3.76563E-07 4.844665E-07 1
vn 1 -1.494611E-07 0
vn 1 -1.499157E-07 0
vn 1 0 1.385766E-07
vn 1 -2.556655E-07 0
vn -2.101308E-07 -3.179247E-07 -1
vn -2.101435E-07 -3.179374E-07 -1
vn -2.252668E-07 -3.330707E-07 -1
vn -1.950075E-07 -3.027914E-07 -1
vn -1 -4.408198E-07 3.170785E-07
vn -1 -4.406898E-07 3.172088E-07
vn -1 -4.104757E-07 3.475249E-07
vn -1 -4.71034E-07 2.867623E-07
vn -1 -1.105874E-07 0
vn -0.7071061 0 -0.7071075
vn -1 -1.873794E-07 0
vn -1 0 0
vn 1 0 0
vn 1 0 0
vn 1 0 -1.345489E-07
vn 1 -1.144495E-07 0
vn 0 -1 2.119541E-07
vn 0 -1 2.11954E-07
vn 0 -1 2.11954E-07
vn 0 -1 2.119541E-07
vn 1.194093E-07 1 -1.665354E-07
vn 1.194093E-07 1 -1.665353E-07
vn 0 1 0
vn 1.951072E-07 1 -2.422332E-07
vn -1 0 1.538491E-07
vn -1 1.273512E-07 1.152487E-07
vn -1 1.969532E-07 0
vn -1 0 1.951073E-07
vn 1.139199E-07 1.369621E-07 1
vn 0 1.695214E-07 1
vn 0 2.043223E-07 1
vn 1.34549E-07 1.021611E-07 1
vn 1 -1.262304E-07 0
vn 1 0 0
vn 1 1.095303E-07 0
vn 1 -2.480338E-07 -1.64828E-07
vn -1.648281E-07 0 -1
vn -1.648281E-07 0 -1
vn -1.648281E-07 0 -1
vn -1.648281E-07 0 -1
vn 0 1 0
vn 0 1 0
vn 0 1 0
vn 0 1 0
vn -4.405523E-07 1 4.849879E-07
vn -4.409579E-07 1 4.845821E-07
vn -9.252217E-07 1 0
vn 0 1 9.695709E-07
vn 0 -1 0
vn 0 -1 0
vn 0 -1 0
vn 0 -1 0
vn -1.012644E-06 -1 9.717591E-07
vn -1.012644E-06 -1 9.717589E-07
vn -1.012644E-06 -1 9.717589E-07
vn 9.252213E-07 -1 -9.717595E-07
g PLAYER_Runner_Body_MESH_0
f 3/3/3 2/2/2 1/1/1
f 4/4/4 1/1/1 2/2/2
f 7/7/7 6/6/6 5/5/5
f 6/6/6 8/8/8 5/5/5
f 9/9/9 8/8/8 6/6/6
f 12/12/12 11/11/11 10/10/10
f 13/13/13 10/10/10 11/11/11
f 16/16/16 15/15/15 14/14/14
f 15/15/15 17/17/17 14/14/14
f 19/19/19 18/18/18 14/14/14
f 18/18/18 20/20/20 14/14/14
f 23/23/23 22/22/22 21/21/21
f 24/24/24 21/21/21 22/22/22
f 27/27/27 26/26/26 25/25/25
f 28/28/28 25/25/25 26/26/26
f 31/31/31 30/30/30 29/29/29
f 32/32/32 29/29/29 30/30/30
f 32/32/32 30/30/30 33/33/33
f 30/30/30 34/34/34 33/33/33
f 34/34/34 35/35/35 33/33/33
f 38/38/38 37/37/37 36/36/36
f 39/39/39 36/36/36 37/37/37
f 42/42/42 41/41/41 40/40/40
f 44/44/44 43/43/43 41/41/41
f 47/47/47 46/46/46 45/45/45
f 48/48/48 45/45/45 46/46/46
f 51/51/51 50/50/50 49/49/49
f 52/52/52 49/49/49 50/50/50
f 55/55/55 54/54/54 53/53/53
f 56/56/56 53/53/53 54/54/54
f 59/59/59 58/58/58 57/57/57
f 60/60/60 57/57/57 58/58/58
f 63/63/63 62/62/62 61/61/61
f 64/64/64 61/61/61 62/62/62
f 67/67/67 66/66/66 65/65/65
f 68/68/68 65/65/65 66/66/66
f 71/71/71 70/70/70 69/69/69
f 72/72/72 69/69/69 70/70/70
f 75/75/75 74/74/74 73/73/73
f 76/76/76 73/73/73 74/74/74
f 79/79/79 78/78/78 77/77/77
f 82/82/82 81/81/81 80/80/80
f 85/85/85 84/84/84 83/83/83
f 84/84/84 86/86/86 83/83/83
f 87/87/87 86/86/86 84/84/84
f 90/90/90 89/89/89 88/88/88
f 91/91/91 88/88/88 89/89/89
f 94/94/94 93/93/93 92/92/92
f 96/96/96 95/95/95 92/92/92
f 95/95/95 97/97/97 92/92/92
f 100/100/100 99/99/99 98/98/98
f 101/101/101 98/98/98 99/99/99
f 104/104/104 103/103/103 102/102/102
f 105/105/105 102/102/102 103/103/103
f 108/108/108 107/107/107 106/106/106
f 109/109/109 106/106/106 107/107/107
f 112/112/112 111/111/111 110/110/110
f 113/113/113 110/110/110 111/111/111
f 116/116/116 115/115/115 114/114/114
f 117/117/117 114/114/114 115/115/115
f 120/120/120 119/119/119 118/118/118
f 121/121/121 118/118/118 119/119/119
f 124/124/124 123/123/123 122/122/122
f 125/125/125 122/122/122 123/123/123
f 128/128/128 127/127/127 126/126/126
f 129/129/129 126/126/126 127/127/127
f 132/132/132 131/131/131 130/130/130
f 133/133/133 130/130/130 131/131/131
f 136/136/136 135/135/135 134/134/134
f 137/137/137 134/134/134 135/135/135
f 140/140/140 139/139/139 138/138/138
f 141/141/141 138/138/138 139/139/139
f 144/144/144 143/143/143 142/142/142
f 145/145/145 142/142/142 143/143/143
f 148/148/148 147/147/147 146/146/146
f 147/147/147 149/149/149 146/146/146
f 150/150/150 149/149/149 147/147/147
f 153/153/153 152/152/152 151/151/151
f 154/154/154 151/151/151 152/152/152
f 157/157/157 156/156/156 155/155/155
f 156/156/156 158/158/158 155/155/155
f 158/158/158 159/159/159 155/155/155
f 162/162/162 161/161/161 160/160/160
f 163/163/163 160/160/160 161/161/161
f 166/166/166 165/165/165 164/164/164
f 166/166/166 167/167/167 165/165/165
f 170/170/170 169/169/169 168/168/168
f 171/171/171 168/168/168 169/169/169
f 174/174/174 173/173/173 172/172/172
f 175/175/175 172/172/172 173/173/173
f 178/178/178 177/177/177 176/176/176
f 179/179/179 176/176/176 177/177/177
f 182/182/182 181/181/181 180/180/180
f 183/183/183 180/180/180 181/181/181
f 186/186/186 185/185/185 184/184/184
f 187/187/187 184/184/184 185/185/185
f 190/190/190 189/189/189 188/188/188
f 191/191/191 188/188/188 189/189/189
f 194/194/194 193/193/193 192/192/192
f 195/195/195 192/192/192 193/193/193
f 198/198/198 197/197/197 196/196/196
f 199/199/199 196/196/196 197/197/197
f 202/202/202 201/201/201 200/200/200
f 203/203/203 200/200/200 201/201/201
f 206/206/206 205/205/205 204/204/204
f 207/207/207 204/204/204 205/205/205
f 210/210/210 209/209/209 208/208/208
f 211/211/211 208/208/208 209/209/209
f 214/214/214 213/213/213 212/212/212
f 215/215/215 212/212/212 213/213/213
f 218/218/218 217/217/217 216/216/216
f 219/219/219 216/216/216 217/217/217
f 222/222/222 221/221/221 220/220/220
f 223/223/223 220/220/220 221/221/221
f 226/226/226 225/225/225 224/224/224
f 227/227/227 224/224/224 225/225/225
f 230/230/230 229/229/229 228/228/228
f 231/231/231 228/228/228 229/229/229
f 234/234/234 233/233/233 232/232/232
f 235/235/235 232/232/232 233/233/233
