g Projection
v -1.518901 -2.75 3.999999
v -1.518901 2.749878 1.5
v -1.518901 -2.75 1.5
v -1.518901 2.749878 3.999999
v -1.518901 -1.25 5.5
v -1.518901 -1.25 0
v -1.518901 1.25 0
v -1.518901 1.25 5.5
v -1.519883 2.749919 3.999999
v -1.519883 -2.749959 1.5
v -1.519883 2.749919 1.5
v -1.519883 -2.749959 3.999999
v -1.519883 1.249919 5.5
v -1.519883 1.249919 0
v -1.519883 -1.25008 5.5
v -1.519883 -1.25008 0
vt 0.2705654 0.5863114
vt 0.1624419 0.5322497
vt 0.2705654 0.5322497
vt 0.1624419 0.5863114
vt 0.2435345 0.6133423
vt 0.2367768 0.5052188
vt 0.1894728 0.5052188
vt 0.1894728 0.6133423
vt 0.2705654 0.5863114
vt 0.1624419 0.5322497
vt 0.2705654 0.5322497
vt 0.1624419 0.5863114
vt 0.2435345 0.6133423
vt 0.2367768 0.5052188
vt 0.1894728 0.6133423
vt 0.1894728 0.5052188
vn 1 0 0
vn 1 0 0
vn 1 0 0
vn 1 0 0
vn 1 0 0
vn 1 0 0
vn 1 0 0
vn 1 0 0
vn -1 0 0
vn -1 0 0
vn -1 0 0
vn -1 0 0
vn -1 0 0
vn -1 0 0
vn -1 0 0
vn -1 0 0
g Projection_0
f 3/3/3 2/2/2 1/1/1
f 4/4/4 1/1/1 2/2/2
f 5/5/5 1/1/1 4/4/4
f 6/6/6 2/2/2 3/3/3
f 7/7/7 2/2/2 6/6/6
f 8/8/8 5/5/5 4/4/4
f 11/11/11 10/10/10 9/9/9
f 12/12/12 9/9/9 10/10/10
f 13/13/13 9/9/9 12/12/12
f 14/14/14 10/10/10 11/11/11
f 15/15/15 13/13/13 12/12/12
f 16/16/16 10/10/10 14/14/14
