g pumpkins_2_painting3
v -0.069375 -1.184845 -1.499928
v -0.069375 1.184846 1.499928
v -0.069375 -1.184845 1.499928
v -0.069375 1.184846 -1.499928
v -0.069375 -1.184845 -1.499928
v 0.06939453 -1.184845 1.499928
v 0.06939453 -1.184845 -1.499928
v -0.069375 -1.184845 1.499928
v -0.069375 -1.184845 1.499928
v 0.06939453 1.184846 1.499928
v 0.06939453 -1.184845 1.499928
v -0.069375 1.184846 1.499928
v -0.069375 1.184846 -1.499928
v 0.06939453 -1.184845 -1.499928
v 0.06939453 1.184846 -1.499928
v -0.069375 -1.184845 -1.499928
v -0.069375 1.184846 1.499928
v 0.06939453 1.184846 -1.499928
v 0.06939453 1.184846 1.499928
v -0.069375 1.184846 -1.499928
vt 0.3046875 0.00390625
vt 0.15625 0.1738281
vt 0.3046875 0.1738281
vt 0.15625 0.00390625
vt 0.3027344 0.00390625
vt 0.2949219 0.171875
vt 0.2949219 0.00390625
vt 0.3027344 0.171875
vt 0.3046875 0.01171875
vt 0.15625 0.00390625
vt 0.3046875 0.00390625
vt 0.15625 0.01171875
vt 0.3046875 0.01171875
vt 0.15625 0.00390625
vt 0.3046875 0.00390625
vt 0.15625 0.01171875
vt 0.2949219 0.171875
vt 0.3027344 0.00390625
vt 0.3027344 0.171875
vt 0.2949219 0.00390625
vn -1 0 0
vn -1 0 0
vn -1 0 0
vn -1 0 0
vn 0 -1 0
vn 0 -1 0
vn 0 -1 0
vn 0 -1 0
vn 0 0 1
vn 0 0 1
vn 0 0 1
vn 0 0 1
vn 0 0 -1
vn 0 0 -1
vn 0 0 -1
vn 0 0 -1
vn 0 1 0
vn 0 1 0
vn 0 1 0
vn 0 1 0
g pumpkins_2_painting3_0
f 3/3/3 2/2/2 1/1/1
f 4/4/4 1/1/1 2/2/2
f 7/7/7 6/6/6 5/5/5
f 8/8/8 5/5/5 6/6/6
f 11/11/11 10/10/10 9/9/9
f 12/12/12 9/9/9 10/10/10
f 15/15/15 14/14/14 13/13/13
f 16/16/16 13/13/13 14/14/14
f 19/19/19 18/18/18 17/17/17
f 20/20/20 17/17/17 18/18/18
