# Mesh "Rent_Clips" exported with Unity Assets Bundle Extractor; 8 vertices, 12 indices, 48 bytes per vertex
g Rent_Clips
# SubMesh 0
# Vertices
v -0.023136 -0.101557 -0.155980
vt 0.601626 0.446809
vn -0.000000 0.000000 -1.000000
v 0.023136 -0.101557 -0.155980
vt 0.560976 0.446809
vn -0.000000 0.000000 -1.000000
v 0.023136 -0.025080 -0.155980
vt 0.560976 0.500000
vn -0.000000 0.000000 -1.000000
v -0.023136 -0.025080 -0.155980
vt 0.601626 0.500000
vn -0.000000 0.000000 -1.000000
v 0.023136 -0.101557 -0.017163
vt 0.560976 0.446809
vn -0.000000 0.000000 1.000000
v -0.023136 -0.101557 -0.017163
vt 0.601626 0.446809
vn -0.000000 0.000000 1.000000
v -0.023136 -0.025080 -0.017163
vt 0.601626 0.500000
vn -0.000000 0.000000 1.000000
v 0.023136 -0.025080 -0.017163
vt 0.560976 0.500000
vn -0.000000 0.000000 1.000000
# Faces (1 to 8)
f -6/-6/-6 -7/-7/-7 -8/-8/-8
f -8/-8/-8 -5/-5/-5 -6/-6/-6
f -2/-2/-2 -3/-3/-3 -4/-4/-4
f -4/-4/-4 -1/-1/-1 -2/-2/-2

