g Roof
v 10.25 8.75 2.499999
v -10.25 8.75 -8
v 10.25 8.75 -8.000001
v -10.25 8.75 2.5
v 10.25 8 2.499999
v 10.25 8.75 -8.000001
v 10.25 8 -8.000001
v 10.25 8.75 2.499999
v 10.25 8 -8.000001
v -10.25 8.75 -8
v -10.25 8 -8
v 10.25 8.75 -8.000001
v -10.25 8 -8
v -10.25 8.75 2.5
v -10.25 8 2.5
v -10.25 8.75 -8
v 10.25 8 -8.000001
v -10.25 8 2.5
v 10.25 8 2.499999
v -10.25 8 -8
v 8 9.5 2.499999
v -8 9.5 -8
v 8 9.5 -8.000001
v -8 9.5 2.5
v 8 8.75 2.499999
v 8 9.5 -8.000001
v 8 8.75 -8.000001
v 8 9.5 2.499999
v 8 8.75 -8.000001
v -8 9.5 -8
v -8 8.75 -8
v 8 9.5 -8.000001
v -8 8.75 -8
v -8 9.5 2.5
v -8 8.75 2.5
v -8 9.5 -8
v 8 8.75 -8.000001
v -8 8.75 2.5
v 8 8.75 2.499999
v -8 8.75 -8
v 5.5 10.25 2.499999
v -5.5 10.25 -8
v 5.5 10.25 -8.000001
v -5.5 10.25 2.5
v 5.5 9.5 2.499999
v 5.5 10.25 -8.000001
v 5.5 9.5 -8.000001
v 5.5 10.25 2.499999
v 5.5 9.5 -8.000001
v -5.5 10.25 -8
v -5.5 9.5 -8
v 5.5 10.25 -8.000001
v -5.5 9.5 -8
v -5.5 10.25 2.5
v -5.5 9.5 2.5
v -5.5 10.25 -8
v 5.5 9.5 -8.000001
v -5.5 9.5 2.5
v 5.5 9.5 2.499999
v -5.5 9.5 -8
v 2.75 11 2.499999
v -2.75 11 -8
v 2.75 11 -8.000001
v -2.75 11 2.5
v 2.75 10.25 2.499999
v 2.75 11 -8.000001
v 2.75 10.25 -8.000001
v 2.75 11 2.499999
v 2.75 10.25 -8.000001
v -2.75 11 -8
v -2.75 10.25 -8
v 2.75 11 -8.000001
v -2.75 10.25 -8
v -2.75 11 2.5
v -2.75 10.25 2.5
v -2.75 11 -8
v 2.75 10.25 -8.000001
v -2.75 10.25 2.5
v 2.75 10.25 2.499999
v -2.75 10.25 -8
vt 5.8876 8.643999
vt -4.6124 -11.856
vt -4.6124 8.644
vt 5.887599 -11.856
vt -4.6124 -6.856001
vt 5.8876 -6.106001
vt 5.8876 -6.856001
vt -4.6124 -6.106001
vt -9.6124 -6.856001
vt 10.8876 -6.106001
vt 10.8876 -6.856001
vt -9.6124 -6.106001
vt -4.6124 -6.856001
vt 5.8876 -6.106001
vt 5.8876 -6.856001
vt -4.6124 -6.106001
vt 10.8876 -6.856001
vt -9.6124 3.643999
vt 10.8876 3.643999
vt -9.6124 -6.856
vt 5.887599 6.393999
vt -4.612401 -9.606
vt -4.6124 6.394
vt 5.887599 -9.606001
vt -4.6124 -6.856001
vt 5.8876 -6.106001
vt 5.8876 -6.856001
vt -4.6124 -6.106001
vt -7.3624 -6.856001
vt 8.6376 -6.106001
vt 8.6376 -6.856001
vt -7.3624 -6.106001
vt -4.6124 -6.856001
vt 5.8876 -6.106001
vt 5.8876 -6.856001
vt -4.6124 -6.106001
vt 8.6376 -6.856001
vt -7.3624 3.643998
vt 8.6376 3.643998
vt -7.3624 -6.856
vt 5.8876 3.893999
vt -4.6124 -7.106
vt -4.6124 3.894
vt 5.887599 -7.106001
vt -4.6124 -6.856001
vt 5.8876 -6.106001
vt 5.8876 -6.856001
vt -4.6124 -6.106001
vt -4.8624 -6.856001
vt 6.1376 -6.106001
vt 6.1376 -6.856001
vt -4.8624 -6.106001
vt -4.6124 -6.856001
vt 5.8876 -6.106001
vt 5.8876 -6.856001
vt -4.6124 -6.106001
vt 6.1376 -6.856001
vt -4.8624 3.644
vt 6.1376 3.643999
vt -4.8624 -6.856
vt 5.8876 -1.356001
vt -4.612399 -6.856001
vt -4.6124 -1.356001
vt 5.8876 -6.856001
vt -4.6124 -6.856001
vt 5.8876 -6.106001
vt 5.8876 -6.856001
vt -4.6124 -6.106001
vt -2.1124 -6.856001
vt 3.3876 -6.106001
vt 3.3876 -6.856001
vt -2.1124 -6.106001
vt -4.6124 -6.856001
vt 5.8876 -6.106001
vt 5.8876 -6.856001
vt -4.6124 -6.106001
vt -4.6124 -6.856001
vt 5.8876 -1.356001
vt 5.8876 -6.856001
vt -4.612399 -1.356001
vn 0 1 0
vn 0 1 0
vn 0 1 0
vn 0 1 0
vn 1 0 0
vn 1 0 0
vn 1 0 0
vn 1 0 0
vn 0 0 -1
vn 0 0 -1
vn 0 0 -1
vn 0 0 -1
vn -1 0 0
vn -1 0 0
vn -1 0 0
vn -1 0 0
vn 0 -1 0
vn 0 -1 0
vn 0 -1 0
vn 0 -1 0
vn 0 1 0
vn 0 1 0
vn 0 1 0
vn 0 1 0
vn 1 0 0
vn 1 0 0
vn 1 0 0
vn 1 0 0
vn 0 0 -1
vn 0 0 -1
vn 0 0 -1
vn 0 0 -1
vn -1 0 0
vn -1 0 0
vn -1 0 0
vn -1 0 0
vn 0 -1 0
vn 0 -1 0
vn 0 -1 0
vn 0 -1 0
vn 0 1 0
vn 0 1 0
vn 0 1 0
vn 0 1 0
vn 1 0 0
vn 1 0 0
vn 1 0 0
vn 1 0 0
vn 0 0 -1
vn 0 0 -1
vn 0 0 -1
vn 0 0 -1
vn -1 0 0
vn -1 0 0
vn -1 0 0
vn -1 0 0
vn 0 -1 0
vn 0 -1 0
vn 0 -1 0
vn 0 -1 0
vn 0 1 0
vn 0 1 0
vn 0 1 0
vn 0 1 0
vn 1 0 0
vn 1 0 0
vn 1 0 0
vn 1 0 0
vn 0 0 -1
vn 0 0 -1
vn 0 0 -1
vn 0 0 -1
vn -1 0 0
vn -1 0 0
vn -1 0 0
vn -1 0 0
vn 0 -1 0
vn 0 -1 0
vn 0 -1 0
vn 0 -1 0
g Roof_0
f 3/3/3 2/2/2 1/1/1
f 4/4/4 1/1/1 2/2/2
f 7/7/7 6/6/6 5/5/5
f 8/8/8 5/5/5 6/6/6
f 11/11/11 10/10/10 9/9/9
f 12/12/12 9/9/9 10/10/10
f 15/15/15 14/14/14 13/13/13
f 16/16/16 13/13/13 14/14/14
f 19/19/19 18/18/18 17/17/17
f 20/20/20 17/17/17 18/18/18
f 23/23/23 22/22/22 21/21/21
f 24/24/24 21/21/21 22/22/22
f 27/27/27 26/26/26 25/25/25
f 28/28/28 25/25/25 26/26/26
f 31/31/31 30/30/30 29/29/29
f 32/32/32 29/29/29 30/30/30
f 35/35/35 34/34/34 33/33/33
f 36/36/36 33/33/33 34/34/34
f 39/39/39 38/38/38 37/37/37
f 40/40/40 37/37/37 38/38/38
f 43/43/43 42/42/42 41/41/41
f 44/44/44 41/41/41 42/42/42
f 47/47/47 46/46/46 45/45/45
f 48/48/48 45/45/45 46/46/46
f 51/51/51 50/50/50 49/49/49
f 52/52/52 49/49/49 50/50/50
f 55/55/55 54/54/54 53/53/53
f 56/56/56 53/53/53 54/54/54
f 59/59/59 58/58/58 57/57/57
f 60/60/60 57/57/57 58/58/58
f 63/63/63 62/62/62 61/61/61
f 64/64/64 61/61/61 62/62/62
f 67/67/67 66/66/66 65/65/65
f 68/68/68 65/65/65 66/66/66
f 71/71/71 70/70/70 69/69/69
f 72/72/72 69/69/69 70/70/70
f 75/75/75 74/74/74 73/73/73
f 76/76/76 73/73/73 74/74/74
f 79/79/79 78/78/78 77/77/77
f 80/80/80 77/77/77 78/78/78
