g Room1
v -8.531785 -5.90117 -22.40663
v 14.47968 -5.901158 -35.44701
v 14.47968 -5.901161 -22.40664
v -8.531785 -5.901167 -35.447
v -8.536775 -5.901164 -30.43881
v -8.536787 6.094316 -16.43491
v -8.536782 -5.901167 -16.43491
v -8.536777 6.094315 -30.43881
v -8.536782 -5.901167 -16.43491
v -8.036975 6.094318 -16.43491
v -8.03697 -5.901167 -16.43491
v -8.536787 6.094316 -16.43491
v 15.08908 -2.902285 -31.43468
v 15.08908 -5.901161 -22.26561
v 15.08908 0.5963936 -22.26561
v 15.08908 -5.901159 -31.43468
v 15.08908 -2.902284 -32.99909
v 15.08908 0.596396 -34.74091
v 15.08908 -5.901158 -34.74092
v 15.08908 -5.901158 -32.99909
v -8.03697 -5.901167 -16.43491
v -8.036963 6.094313 -29.93899
v -8.036958 -5.901163 -29.93899
v -8.036975 6.094318 -16.43491
v 14.60343 -5.901159 -30.31401
v 5.107008 0.5963917 -30.31401
v 5.10701 -5.901163 -30.31401
v 14.60343 0.5963954 -30.31401
v 5.10701 -5.901163 -30.31401
v 5.107008 0.5963917 -29.8142
v 5.10701 -5.901163 -29.8142
v 5.107008 0.5963917 -30.31401
v 5.10701 -5.901163 -29.8142
v 14.60343 0.5963948 -29.8142
v 14.60343 -5.901159 -29.8142
v 5.107008 0.5963917 -29.8142
v 14.60343 -5.901159 -29.8142
v 14.60343 0.5963954 -30.31401
v 14.60343 -5.901159 -30.31401
v 14.60343 0.5963948 -29.8142
v 5.738883 -5.901163 -29.8142
v 5.738878 0.5963899 -24.81608
v 5.73888 -5.901163 -24.81608
v 5.73888 0.5963911 -29.8142
v 5.73888 -5.901163 -24.81608
v 5.988784 0.5963899 -24.81608
v 5.988786 -5.901163 -24.81608
v 5.738878 0.5963899 -24.81608
v 5.988786 -5.901163 -24.81608
v 5.988786 0.5963911 -29.8142
v 5.988788 -5.901163 -29.8142
v 5.988784 0.5963899 -24.81608
v 5.988788 -5.901163 -29.8142
v 5.73888 0.5963911 -29.8142
v 5.738883 -5.901163 -29.8142
v 5.988786 0.5963911 -29.8142
v 3.109238 -5.901164 -27.37425
v 3.109236 0.5963887 -22.37613
v 3.109239 -5.901165 -22.37613
v 3.109235 0.5963899 -27.37424
v 3.359145 -5.901165 -22.37613
v 3.359141 0.5963899 -27.37424
v 3.359143 -5.901164 -27.37425
v 3.359142 0.5963887 -22.37613
v 3.359143 -5.901164 -27.37425
v 3.109235 0.5963899 -27.37424
v 3.109238 -5.901164 -27.37425
v 3.359141 0.5963899 -27.37424
v 0.5164603 -5.901164 -29.9731
v 0.5164566 0.5963881 -24.97498
v 0.5164587 -5.901165 -24.97498
v 0.5164582 0.5963894 -29.9731
v 0.5164587 -5.901165 -24.97498
v 0.7663626 0.5963881 -24.97498
v 0.7663648 -5.901165 -24.97498
v 0.5164566 0.5963881 -24.97498
v 0.7663648 -5.901165 -24.97498
v 0.7663641 0.5963894 -29.9731
v 0.7663662 -5.901164 -29.9731
v 0.7663626 0.5963881 -24.97498
v 0.7663662 -5.901164 -29.9731
v 0.5164582 0.5963894 -29.9731
v 0.5164603 -5.901164 -29.9731
v 0.7663641 0.5963894 -29.9731
v 1.45946 -5.901161 -30.43881
v -8.536779 0.5963899 -30.4388
v -8.536775 -5.901164 -30.43881
v 1.459458 0.5963936 -30.4388
v -8.536777 -5.901164 -29.939
v 1.459458 0.5963936 -29.93899
v 1.45946 -5.901161 -29.939
v -8.536779 0.5963899 -29.93899
v 1.45946 -5.901161 -29.939
v 1.459458 0.5963936 -30.4388
v 1.45946 -5.901161 -30.43881
v 1.459458 0.5963936 -29.93899
v 14.58927 -2.902285 -31.43468
v 14.58927 -5.901161 -22.26561
v 14.58927 -5.901159 -31.43468
v 14.58927 0.5963936 -22.26561
v 14.58927 -2.902285 -32.99909
v 14.58927 0.596396 -34.74091
v 14.58927 -5.901159 -32.99909
v 14.58927 -5.901158 -34.74092
v 15.08908 -5.901158 -32.99909
v 14.58927 -2.902285 -32.99909
v 15.08908 -2.902284 -32.99909
v 14.58927 -5.901159 -32.99909
v 15.08908 -2.902284 -32.99909
v 14.58927 -2.902285 -31.43468
v 15.08908 -2.902285 -31.43468
v 14.58927 -2.902285 -32.99909
v 15.08908 -2.902285 -31.43468
v 14.58927 -5.901159 -31.43468
v 15.08908 -5.901159 -31.43468
v 14.58927 -2.902285 -31.43468
vt -21.91507 -8.03691
vt -34.96035 14.98322
vt -21.91507 14.98321
vt -34.96034 -8.036905
vt -30.45027 -5.501913
vt -16.4411 6.498086
vt -16.4411 -5.501913
vt -30.45027 6.498082
vt -13.30039 -5.501913
vt -12.80039 6.498086
vt -12.80039 -5.501913
vt -13.30039 6.498086
vt 32.4465 -2.501914
vt 23.27398 -5.501916
vt 23.27398 0.9980838
vt 32.4465 -5.501916
vt 34.0115 -2.501914
vt 35.75398 0.9980838
vt 35.75398 -5.501916
vt 34.0115 -5.501916
vt 0.148663 0.6068276
vt 0.3520202 0.7874667
vt 0.3520202 0.6068276
vt 0.148663 0.7874669
vt 0.6506726 0.6068851
vt 0.7936784 0.7047313
vt 0.7936784 0.6068851
vt 0.6506726 0.7047313
vt 0.878048 0.6068851
vt 0.8855746 0.7047313
vt 0.8855746 0.6068851
vt 0.878048 0.7047313
vt 0.5354956 0.6068851
vt 0.6785018 0.7047313
vt 0.6785018 0.6068851
vt 0.5354956 0.7047313
vt 3.383429 0.4980828
vt 3.390955 0.595929
vt 3.390955 0.4980828
vt 3.383429 0.595929
vt 0.6616415 0.6068852
vt 0.7369078 0.7047313
vt 0.7369078 0.6068852
vt 0.6616415 0.7047313
vt 0.9474387 0.6068851
vt 0.951202 0.7047313
vt 0.951202 0.6068851
vt 0.9474387 0.7047313
vt 0.662007 0.6068851
vt 0.7372734 0.7047313
vt 0.7372734 0.6068851
vt 0.662007 0.7047313
vt 0.7976164 0.6052741
vt 0.8013796 0.7031204
vt 0.8013796 0.6052741
vt 0.7976164 0.7031204
vt 0.8756015 0.6068851
vt 0.9508678 0.7047313
vt 0.9508678 0.6068851
vt 0.8756015 0.7047313
vt 0.6621096 0.6068852
vt 0.737376 0.7047313
vt 0.737376 0.6068852
vt 0.6621096 0.7047313
vt 0.8014019 0.6068851
vt 0.8051655 0.7047313
vt 0.8051655 0.6068851
vt 0.8014019 0.7047313
vt 0.8758192 0.6068851
vt 0.9510856 0.7047313
vt 0.9510856 0.6068851
vt 0.8758192 0.7047313
vt 0.9886786 0.6044122
vt 0.9924421 0.7022583
vt 0.9924421 0.6044122
vt 0.9886786 0.7022583
vt 0.8012053 0.6068852
vt 0.8764716 0.7047313
vt 0.8764716 0.6068852
vt 0.8012053 0.7047313
vt 0.7976164 0.6043384
vt 0.8013796 0.7021847
vt 0.8013796 0.6043384
vt 0.7976164 0.7021847
vt 0.6506726 0.6068851
vt 0.8012053 0.7047313
vt 0.8012053 0.6068851
vt 0.6506726 0.7047313
vt 0.6758979 0.6068851
vt 0.8264306 0.7047313
vt 0.8264306 0.6068851
vt 0.6758979 0.7047313
vt 0.9472086 0.6068851
vt 0.9547355 0.7047313
vt 0.9547355 0.6068851
vt 0.9472086 0.7047313
vt 0.8542912 0.6520449
vt 0.9923676 0.6068851
vt 0.8542912 0.6068851
vt 0.9923676 0.7047313
vt 0.8305584 0.6520449
vt 0.8043284 0.7047313
vt 0.8305584 0.6068851
vt 0.8043284 0.6068851
vt 0.8505859 0.6074579
vt 0.8466797 0.6308954
vt 0.8505859 0.6308954
vt 0.8466797 0.6074579
vt 0.8427734 0.6435907
vt 0.8466797 0.6318719
vt 0.8427734 0.6318719
vt 0.8466797 0.6435907
vt 0.8427734 0.6308954
vt 0.8466797 0.6074579
vt 0.8427734 0.6074579
vt 0.8466797 0.6308954
vn 0 1 0
vn 0 1 0
vn 0 1 0
vn 0 1 0
vn -1 0 0
vn -1 0 0
vn -1 0 0
vn -1 0 0
vn 0 0 1
vn 0 0 1
vn 0 0 1
vn 0 0 1
vn 1 0 0
vn 1 0 0
vn 1 0 0
vn 1 0 0
vn 1 0 0
vn 1 0 0
vn 1 0 0
vn 1 0 0
vn 1 0 0
vn 1 0 0
vn 1 0 0
vn 1 0 0
vn 0 0 -1
vn 0 0 -1
vn 0 0 -1
vn 0 0 -1
vn -1 0 0
vn -1 0 0
vn -1 0 0
vn -1 0 0
vn 0 0 1
vn 0 0 1
vn 0 0 1
vn 0 0 1
vn 1 0 0
vn 1 0 0
vn 1 0 0
vn 1 0 0
vn -1 0 0
vn -1 0 0
vn -1 0 0
vn -1 0 0
vn 0 0 1
vn 0 0 1
vn 0 0 1
vn 0 0 1
vn 1 0 0
vn 1 0 0
vn 1 0 0
vn 1 0 0
vn 0 0 -1
vn 0 0 -1
vn 0 0 -1
vn 0 0 -1
vn -1 0 0
vn -1 0 0
vn -1 0 0
vn -1 0 0
vn 1 0 0
vn 1 0 0
vn 1 0 0
vn 1 0 0
vn 0 0 -1
vn 0 0 -1
vn 0 0 -1
vn 0 0 -1
vn -1 0 0
vn -1 0 0
vn -1 0 0
vn -1 0 0
vn 0 0 1
vn 0 0 1
vn 0 0 1
vn 0 0 1
vn 1 0 0
vn 1 0 0
vn 1 0 0
vn 1 0 0
vn 0 0 -1
vn 0 0 -1
vn 0 0 -1
vn 0 0 -1
vn 0 0 -1
vn 0 0 -1
vn 0 0 -1
vn 0 0 -1
vn 0 0 1
vn 0 0 1
vn 0 0 1
vn 0 0 1
vn 1 0 0
vn 1 0 0
vn 1 0 0
vn 1 0 0
vn -1 0 0
vn -1 0 0
vn -1 0 0
vn -1 0 0
vn -1 0 0
vn -1 0 0
vn -1 0 0
vn -1 0 0
vn 0 0 1
vn 0 0 1
vn 0 0 1
vn 0 0 1
vn 0 -1 0
vn 0 -1 0
vn 0 -1 0
vn 0 -1 0
vn 0 0 -1
vn 0 0 -1
vn 0 0 -1
vn 0 0 -1
g Room1_0
f 3/3/3 2/2/2 1/1/1
f 4/4/4 1/1/1 2/2/2
g Room1_1
f 7/7/7 6/6/6 5/5/5
f 8/8/8 5/5/5 6/6/6
f 11/11/11 10/10/10 9/9/9
f 12/12/12 9/9/9 10/10/10
f 15/15/15 14/14/14 13/13/13
f 16/16/16 13/13/13 14/14/14
f 13/13/13 17/17/17 15/15/15
f 18/18/18 15/15/15 17/17/17
f 18/18/18 17/17/17 19/19/19
f 20/20/20 19/19/19 17/17/17
g Room1_2
f 23/23/23 22/22/22 21/21/21
f 24/24/24 21/21/21 22/22/22
f 27/27/27 26/26/26 25/25/25
f 28/28/28 25/25/25 26/26/26
f 31/31/31 30/30/30 29/29/29
f 32/32/32 29/29/29 30/30/30
f 35/35/35 34/34/34 33/33/33
f 36/36/36 33/33/33 34/34/34
f 39/39/39 38/38/38 37/37/37
f 40/40/40 37/37/37 38/38/38
f 43/43/43 42/42/42 41/41/41
f 44/44/44 41/41/41 42/42/42
f 47/47/47 46/46/46 45/45/45
f 48/48/48 45/45/45 46/46/46
f 51/51/51 50/50/50 49/49/49
f 52/52/52 49/49/49 50/50/50
f 55/55/55 54/54/54 53/53/53
f 56/56/56 53/53/53 54/54/54
f 59/59/59 58/58/58 57/57/57
f 60/60/60 57/57/57 58/58/58
f 63/63/63 62/62/62 61/61/61
f 64/64/64 61/61/61 62/62/62
f 67/67/67 66/66/66 65/65/65
f 68/68/68 65/65/65 66/66/66
f 71/71/71 70/70/70 69/69/69
f 72/72/72 69/69/69 70/70/70
f 75/75/75 74/74/74 73/73/73
f 76/76/76 73/73/73 74/74/74
f 79/79/79 78/78/78 77/77/77
f 80/80/80 77/77/77 78/78/78
f 83/83/83 82/82/82 81/81/81
f 84/84/84 81/81/81 82/82/82
f 87/87/87 86/86/86 85/85/85
f 88/88/88 85/85/85 86/86/86
f 91/91/91 90/90/90 89/89/89
f 92/92/92 89/89/89 90/90/90
f 95/95/95 94/94/94 93/93/93
f 96/96/96 93/93/93 94/94/94
f 99/99/99 98/98/98 97/97/97
f 100/100/100 97/97/97 98/98/98
f 97/97/97 100/100/100 101/101/101
f 102/102/102 101/101/101 100/100/100
f 101/101/101 102/102/102 103/103/103
f 104/104/104 103/103/103 102/102/102
f 107/107/107 106/106/106 105/105/105
f 108/108/108 105/105/105 106/106/106
f 111/111/111 110/110/110 109/109/109
f 112/112/112 109/109/109 110/110/110
f 115/115/115 114/114/114 113/113/113
f 116/116/116 113/113/113 114/114/114
