g royale_hat_pilgrim_mesh
v 0.403376 0.4035411 0.3953919
v -0.4015363 0.4035409 0.3953919
v -0.4015363 0.4035409 0.3091512
v 0.403376 0.4035411 0.3091512
v 0.2596417 0.2598068 0.3953919
v 0.2596417 0.2598068 0.5103794
v -0.2578019 0.2598068 0.5103794
v -0.2578019 0.2598068 0.3953919
v 0.2308948 0.2310599 0.6126094
v -0.229055 0.2310598 0.6126094
v -0.229055 0.2310599 0.5103794
v 0.2308948 0.23106 0.5103794
v -0.2003081 0.202313 0.6126094
v -0.2003081 0.202313 0.7013943
v -0.200308 -0.2001431 0.7013943
v -0.2003081 -0.2001431 0.6126094
v -0.1715612 0.1735656 0.7013943
v 0.1734011 0.1735656 0.7013943
v 0.173401 0.1735656 0.7942352
v -0.1715612 0.1735655 0.7942352
v -0.2865487 0.1160724 0.3953919
v -0.2578019 0.1160724 0.3953919
v -0.2578019 0.1160724 0.5103794
v -0.2865487 0.1160724 0.5391263
v -0.229055 0.1160724 0.5103794
v -0.229055 0.1160724 0.5391263
v -0.2865487 0.08732551 0.5678731
v -0.2865487 0.08732551 0.5391263
v -0.229055 0.08732551 0.5391263
v -0.229055 0.08732551 0.5678731
v -0.2865487 -0.05640884 0.5103794
v -0.2865487 -0.05640884 0.4241386
v -0.2578019 -0.05640884 0.4241386
v -0.2578019 -0.05640884 0.5103794
v -0.2578019 0.05857864 0.4241386
v -0.2865487 0.05857864 0.4241386
v -0.2865487 0.05857864 0.5103794
v -0.2578019 0.05857864 0.5103794
v -0.229055 -0.08515564 0.5391263
v -0.2865487 -0.08515564 0.5391263
v -0.2865487 -0.08515564 0.5678731
v -0.229055 -0.08515564 0.5678731
v -0.2578019 -0.113903 0.5103794
v -0.2578019 -0.113903 0.3953919
v -0.2865487 -0.113903 0.3953919
v -0.2865487 -0.113903 0.5391263
v -0.229055 -0.113903 0.5103794
v -0.229055 -0.113903 0.5391263
v 0.1734011 -0.1713961 0.7013943
v -0.1715612 -0.1713961 0.7013943
v -0.1715612 -0.1713961 0.7942352
v 0.1734011 -0.1713961 0.7942352
v 0.202148 -0.2001431 0.6126094
v -0.2003081 -0.2001431 0.6126094
v -0.200308 -0.2001431 0.7013943
v 0.202148 -0.2001431 0.7013943
v -0.2290549 -0.2288899 0.5103794
v -0.229055 -0.113903 0.5391263
v -0.2290549 -0.2288899 0.6126094
v -0.229055 -0.08515564 0.5678731
v -0.229055 0.2310598 0.6126094
v -0.229055 0.08732551 0.5678731
v -0.229055 0.08732551 0.5391263
v -0.229055 0.1160724 0.5391263
v -0.229055 0.2310599 0.5103794
v -0.229055 0.1160724 0.5103794
v -0.229055 -0.08515564 0.5391263
v -0.229055 -0.113903 0.5103794
v -0.2578018 -0.2576375 0.3953919
v -0.2578018 -0.2576375 0.5103794
v 0.2596418 -0.2576375 0.5103794
v 0.2596418 -0.2576375 0.3953919
v 0.4033762 -0.4013716 0.3091512
v -0.4015361 -0.4013717 0.3091512
v -0.4015361 -0.4013717 0.3953919
v 0.4033762 -0.4013716 0.3953919
v -0.4015361 -0.4013717 0.3953919
v -0.4015361 -0.4013717 0.3091512
v -0.4015363 0.4035409 0.3091512
v -0.4015363 0.4035409 0.3953919
v -0.2865487 0.1160724 0.3953919
v -0.2865487 0.05857864 0.4241386
v -0.2865487 -0.05640884 0.4241386
v -0.2865487 -0.113903 0.3953919
v -0.2865487 0.1160724 0.5391263
v -0.2865487 -0.113903 0.5391263
v -0.2865487 -0.08515564 0.5391263
v -0.2865487 -0.05640884 0.5103794
v -0.2865487 0.08732551 0.5391263
v -0.2865487 -0.08515564 0.5678731
v -0.2865487 0.08732551 0.5678731
v -0.2865487 0.05857864 0.5103794
v -0.2578019 0.1160724 0.3953919
v -0.2578019 0.2598068 0.3953919
v -0.2578019 0.2598068 0.5103794
v -0.2578019 0.1160724 0.5103794
v -0.2578019 0.05857864 0.5103794
v -0.2578019 -0.05640884 0.4241386
v -0.2578019 0.05857864 0.4241386
v -0.2578019 -0.05640884 0.5103794
v -0.2578018 -0.2576375 0.3953919
v -0.2578019 -0.113903 0.3953919
v -0.2578019 -0.113903 0.5103794
v -0.2578018 -0.2576375 0.5103794
v -0.1715612 0.1735656 0.7013943
v -0.1715612 0.1735655 0.7942352
v -0.1715612 -0.1713961 0.7942352
v -0.1715612 -0.1713961 0.7013943
v 0.2021479 0.202313 0.7013943
v 0.202148 0.2023131 0.6126094
v 0.202148 -0.2001431 0.6126094
v 0.202148 -0.2001431 0.7013943
v 0.2308949 -0.2288899 0.5103794
v 0.2308949 -0.2288899 0.6126094
v 0.2308948 0.2310599 0.6126094
v 0.2308948 0.23106 0.5103794
v 0.2596417 0.2598068 0.5103794
v 0.2596417 0.2598068 0.3953919
v 0.2596418 -0.2576375 0.3953919
v 0.2596418 -0.2576375 0.5103794
v 0.403376 0.4035411 0.3953919
v 0.403376 0.4035411 0.3091512
v 0.4033762 -0.4013716 0.3091512
v 0.4033762 -0.4013716 0.3953919
v 0.403376 0.4035411 0.3091512
v -0.4015363 0.4035409 0.3091512
v -0.4015361 -0.4013717 0.3091512
v 0.4033762 -0.4013716 0.3091512
v -0.2865487 -0.05640884 0.5103794
v -0.2578019 -0.05640884 0.5103794
v -0.2578019 0.05857864 0.5103794
v -0.2865487 0.05857864 0.5103794
v -0.4015361 -0.4013717 0.3953919
v -0.2865487 0.1160724 0.3953919
v -0.2865487 -0.113903 0.3953919
v -0.2578019 -0.113903 0.3953919
v -0.4015363 0.4035409 0.3953919
v -0.2578019 0.2598068 0.3953919
v -0.2578019 0.1160724 0.3953919
v -0.2578018 -0.2576375 0.3953919
v 0.2596417 0.2598068 0.3953919
v 0.403376 0.4035411 0.3953919
v 0.2596418 -0.2576375 0.3953919
v 0.4033762 -0.4013716 0.3953919
v -0.2578019 0.05857864 0.4241386
v -0.2578019 -0.05640884 0.4241386
v -0.2865487 -0.05640884 0.4241386
v -0.2865487 0.05857864 0.4241386
v -0.2578019 0.1160724 0.5103794
v -0.2578019 0.2598068 0.5103794
v -0.229055 0.2310599 0.5103794
v -0.229055 0.1160724 0.5103794
v 0.2308948 0.23106 0.5103794
v 0.2596417 0.2598068 0.5103794
v 0.2308949 -0.2288899 0.5103794
v 0.2596418 -0.2576375 0.5103794
v -0.2578018 -0.2576375 0.5103794
v -0.2290549 -0.2288899 0.5103794
v -0.229055 -0.113903 0.5103794
v -0.2578019 -0.113903 0.5103794
v -0.2865487 0.08732551 0.5391263
v -0.2865487 0.1160724 0.5391263
v -0.229055 0.1160724 0.5391263
v -0.229055 0.08732551 0.5391263
v -0.2865487 -0.113903 0.5391263
v -0.2865487 -0.08515564 0.5391263
v -0.229055 -0.08515564 0.5391263
v -0.229055 -0.113903 0.5391263
v -0.229055 0.08732551 0.5678731
v -0.229055 -0.08515564 0.5678731
v -0.2865487 -0.08515564 0.5678731
v -0.2865487 0.08732551 0.5678731
v -0.2003081 0.202313 0.6126094
v -0.2003081 -0.2001431 0.6126094
v -0.2290549 -0.2288899 0.6126094
v -0.229055 0.2310598 0.6126094
v 0.2308948 0.2310599 0.6126094
v 0.202148 0.2023131 0.6126094
v 0.2308949 -0.2288899 0.6126094
v 0.202148 -0.2001431 0.6126094
v -0.1715612 0.1735656 0.7013943
v -0.1715612 -0.1713961 0.7013943
v -0.200308 -0.2001431 0.7013943
v -0.2003081 0.202313 0.7013943
v 0.2021479 0.202313 0.7013943
v 0.1734011 0.1735656 0.7013943
v 0.1734011 -0.1713961 0.7013943
v 0.202148 -0.2001431 0.7013943
v -0.1715612 0.1735655 0.7942352
v 0.173401 0.1735656 0.7942352
v 0.1734011 -0.1713961 0.7942352
v -0.1715612 -0.1713961 0.7942352
v 0.2021479 0.202313 0.7013943
v -0.2003081 0.202313 0.7013943
v -0.2003081 0.202313 0.6126094
v 0.202148 0.2023131 0.6126094
v 0.1734011 -0.1713961 0.7942352
v 0.173401 0.1735656 0.7942352
v 0.1734011 0.1735656 0.7013943
v 0.1734011 -0.1713961 0.7013943
v -0.2290549 -0.2288899 0.5103794
v -0.2290549 -0.2288899 0.6126094
v 0.2308949 -0.2288899 0.6126094
v 0.2308949 -0.2288899 0.5103794
vt 0.078125 0.453125
vt 0.078125 0.015625
vt 0.03125 0.015625
vt 0.03125 0.453125
vt 0.015625 0.46875
vt 0.015625 0.53125
vt 0.296875 0.53125
vt 0.296875 0.46875
vt 0.3125 0.53125
vt 0.5625 0.53125
vt 0.5625 0.46875
vt 0.3125 0.46875
vt 0.578125 0.625
vt 0.578125 0.6875
vt 0.796875 0.6875
vt 0.796875 0.625
vt 0.34375 0.71875
vt 0.53125 0.71875
vt 0.53125 0.65625
vt 0.34375 0.65625
vt 0.09375 0.78125
vt 0.078125 0.78125
vt 0.078125 0.84375
vt 0.09375 0.859375
vt 0.0625 0.84375
vt 0.0625 0.859375
vt 0.609375 0.578125
vt 0.59375 0.578125
vt 0.59375 0.609375
vt 0.609375 0.609375
vt 0.59375 0.515625
vt 0.59375 0.46875
vt 0.578125 0.46875
vt 0.578125 0.515625
vt 0.140625 0.78125
vt 0.125 0.78125
vt 0.125 0.828125
vt 0.140625 0.828125
vt 0.71875 0.609375
vt 0.71875 0.578125
vt 0.703125 0.578125
vt 0.703125 0.609375
vt 0.25 0.71875
vt 0.25 0.65625
vt 0.234375 0.65625
vt 0.234375 0.734375
vt 0.265625 0.71875
vt 0.265625 0.734375
vt 0.34375 0.71875
vt 0.53125 0.71875
vt 0.53125 0.65625
vt 0.34375 0.65625
vt 0.796875 0.625
vt 0.578125 0.625
vt 0.578125 0.6875
vt 0.796875 0.6875
vt 0.5625 0.546875
vt 0.5 0.5625
vt 0.5625 0.609375
vt 0.484375 0.578125
vt 0.3125 0.609375
vt 0.390625 0.578125
vt 0.390625 0.5625
vt 0.375 0.5625
vt 0.3125 0.546875
vt 0.375 0.546875
vt 0.484375 0.5625
vt 0.5 0.546875
vt 0.015625 0.546875
vt 0.015625 0.609375
vt 0.296875 0.609375
vt 0.296875 0.546875
vt 0.03125 0.015625
vt 0.03125 0.453125
vt 0.078125 0.453125
vt 0.078125 0.015625
vt 0.078125 0.015625
vt 0.03125 0.015625
vt 0.03125 0.453125
vt 0.078125 0.453125
vt 0.609375 0.46875
vt 0.640625 0.484375
vt 0.703125 0.484375
vt 0.734375 0.46875
vt 0.609375 0.546875
vt 0.734375 0.546875
vt 0.71875 0.546875
vt 0.703125 0.53125
vt 0.625 0.546875
vt 0.71875 0.5625
vt 0.625 0.5625
vt 0.640625 0.53125
vt 0.203125 0.6875
vt 0.125 0.6875
vt 0.125 0.75
vt 0.203125 0.75
vt 0.4375 0.8125
vt 0.5 0.765625
vt 0.4375 0.765625
vt 0.5 0.8125
vt 0.25 0.796875
vt 0.171875 0.796875
vt 0.171875 0.859375
vt 0.25 0.859375
vt 0.53125 0.71875
vt 0.53125 0.65625
vt 0.3437499 0.65625
vt 0.34375 0.71875
vt 0.796875 0.6875
vt 0.796875 0.625
vt 0.578125 0.625
vt 0.578125 0.6875
vt 0.3125 0.46875
vt 0.3125 0.53125
vt 0.5625 0.53125
vt 0.5625 0.46875
vt 0.296875 0.984375
vt 0.296875 0.921875
vt 0.015625 0.921875
vt 0.015625 0.984375
vt 0.078125 0.015625
vt 0.03125 0.015625
vt 0.03125 0.453125
vt 0.078125 0.453125
vt 0.09375 0.015625
vt 0.09375 0.453125
vt 0.53125 0.453125
vt 0.53125 0.015625
vt 0.5 0.75
vt 0.5 0.734375
vt 0.4375 0.734375
vt 0.4375 0.75
vt 0.984375 0.015625
vt 0.703125 0.078125
vt 0.828125 0.078125
vt 0.828125 0.09375
vt 0.546875 0.015625
vt 0.625 0.09375
vt 0.703125 0.09375
vt 0.90625 0.09375
vt 0.625 0.375
vt 0.546875 0.453125
vt 0.90625 0.375
vt 0.984375 0.453125
vt 0.75 0.484375
vt 0.8125 0.484375
vt 0.8125 0.46875
vt 0.75 0.46875
vt 0.09375 0.625
vt 0.015625 0.625
vt 0.03125 0.640625
vt 0.09375 0.640625
vt 0.03125 0.890625
vt 0.015625 0.90625
vt 0.28125 0.890625
vt 0.296875 0.90625
vt 0.296875 0.625
vt 0.28125 0.640625
vt 0.21875 0.640625
vt 0.21875 0.625
vt 0.59375 0.578125
vt 0.578125 0.578125
vt 0.578125 0.609375
vt 0.59375 0.609375
vt 0.734375 0.578125
vt 0.71875 0.578125
vt 0.71875 0.609375
vt 0.734375 0.609375
vt 0.609375 0.609375
vt 0.703125 0.609375
vt 0.703125 0.578125
vt 0.609375 0.578125
vt 0.328125 0.640625
vt 0.546875 0.640625
vt 0.5625 0.625
vt 0.3125 0.625
vt 0.3125 0.875
vt 0.328125 0.859375
vt 0.5625 0.875
vt 0.546875 0.859375
vt 0.59375 0.71875
vt 0.78125 0.71875
vt 0.796875 0.703125
vt 0.578125 0.703125
vt 0.578125 0.921875
vt 0.59375 0.90625
vt 0.78125 0.90625
vt 0.796875 0.921875
vt 0.671875 0.140625
vt 0.671875 0.328125
vt 0.859375 0.328125
vt 0.859375 0.140625
vt 0.578125 0.6875
vt 0.796875 0.6875
vt 0.796875 0.625
vt 0.578125 0.625
vt 0.34375 0.71875
vt 0.53125 0.71875
vt 0.53125 0.65625
vt 0.3437499 0.65625
vt 0.3125 0.46875
vt 0.3125 0.53125
vt 0.5625 0.53125
vt 0.5625 0.46875
vn 0 1 0
vn 0 1 0
vn 0 1 0
vn 0 1 0
vn 0 1 0
vn 0 1 0
vn 0 1 0
vn 0 1 0
vn 0 1 0
vn 0 1 0
vn 0 1 0
vn 0 1 0
vn -1 0 0
vn -1 0 0
vn -1 0 0
vn -1 0 0
vn 0 1 0
vn 0 1 0
vn 0 1 0
vn 0 1 0
vn 0 1 0
vn 0 1 0
vn 0 1 0
vn 0 1 0
vn 0 1 0
vn 0 1 0
vn 0 1 0
vn 0 1 0
vn 0 1 0
vn 0 1 0
vn 0 1 0
vn 0 1 0
vn 0 1 0
vn 0 1 0
vn 0 -1 0
vn 0 -1 0
vn 0 -1 0
vn 0 -1 0
vn 0 -1 0
vn 0 -1 0
vn 0 -1 0
vn 0 -1 0
vn 0 -1 0
vn 0 -1 0
vn 0 -1 0
vn 0 -1 0
vn 0 -1 0
vn 0 -1 0
vn 0 -1 0
vn 0 -1 0
vn 0 -1 0
vn 0 -1 0
vn 0 -1 0
vn 0 -1 0
vn 0 -1 0
vn 0 -1 0
vn -1 0 0
vn -1 0 0
vn -1 0 0
vn -1 0 0
vn -1 0 0
vn -1 0 0
vn -1 0 0
vn -1 0 0
vn -1 0 0
vn -1 0 0
vn -1 0 0
vn -1 0 0
vn 0 -1 0
vn 0 -1 0
vn 0 -1 0
vn 0 -1 0
vn 0 -1 0
vn 0 -1 0
vn 0 -1 0
vn 0 -1 0
vn -1 0 0
vn -1 0 0
vn -1 0 0
vn -1 0 0
vn -1 0 0
vn -1 0 0
vn -1 0 0
vn -1 0 0
vn -1 0 0
vn -1 0 0
vn -1 0 0
vn -1 0 0
vn -1 0 0
vn -1 0 0
vn -1 0 0
vn -1 0 0
vn -1 0 0
vn -1 0 0
vn -1 0 0
vn -1 0 0
vn -1 0 0
vn -1 0 0
vn -1 0 0
vn -1 0 0
vn -1 0 0
vn -1 0 0
vn -1 0 0
vn -1 0 0
vn -1 0 0
vn -1 0 0
vn -1 0 0
vn -1 0 0
vn 1 0 0
vn 1 0 0
vn 1 0 0
vn 1 0 0
vn 1 0 0
vn 1 0 0
vn 1 0 0
vn 1 0 0
vn 1 0 0
vn 1 0 0
vn 1 0 0
vn 1 0 0
vn 1 0 0
vn 1 0 0
vn 1 0 0
vn 1 0 0
vn 0 0 -1
vn 0 0 -1
vn 0 0 -1
vn 0 0 -1
vn 0 0 -1
vn 0 0 -1
vn 0 0 -1
vn 0 0 -1
vn 0 0 1
vn 0 0 1
vn 0 0 1
vn 0 0 1
vn 0 0 1
vn 0 0 1
vn 0 0 1
vn 0 0 1
vn 0 0 1
vn 0 0 1
vn 0 0 1
vn 0 0 1
vn 0 0 1
vn 0 0 1
vn 0 0 1
vn 0 0 1
vn 0 0 1
vn 0 0 1
vn 0 0 1
vn 0 0 1
vn 0 0 1
vn 0 0 1
vn 0 0 1
vn 0 0 1
vn 0 0 1
vn 0 0 1
vn 0 0 1
vn 0 0 1
vn 0 0 1
vn 0 0 1
vn 0 0 1
vn 0 0 1
vn 0 0 1
vn 0 0 1
vn 0 0 1
vn 0 0 1
vn 0 0 1
vn 0 0 1
vn 0 0 1
vn 0 0 1
vn 0 0 1
vn 0 0 1
vn 0 0 1
vn 0 0 1
vn 0 0 1
vn 0 0 1
vn 0 0 1
vn 0 0 1
vn 0 0 1
vn 0 0 1
vn 0 0 1
vn 0 0 1
vn 0 0 1
vn 0 0 1
vn 0 0 1
vn 0 0 1
vn 0 0 1
vn 0 0 1
vn 0 0 1
vn 0 0 1
vn 0 1 0
vn 0 1 0
vn 0 1 0
vn 0 1 0
vn 1 0 0
vn 1 0 0
vn 1 0 0
vn 1 0 0
vn 0 -1 0
vn 0 -1 0
vn 0 -1 0
vn 0 -1 0
g royale_hat_pilgrim_mesh_0
f 3/3/3 2/2/2 1/1/1
f 4/4/4 3/3/3 1/1/1
f 7/7/7 6/6/6 5/5/5
f 8/8/8 7/7/7 5/5/5
f 11/11/11 10/10/10 9/9/9
f 12/12/12 11/11/11 9/9/9
f 15/15/15 14/14/14 13/13/13
f 16/16/16 15/15/15 13/13/13
f 19/19/19 18/18/18 17/17/17
f 20/20/20 19/19/19 17/17/17
f 23/23/23 22/22/22 21/21/21
f 24/24/24 23/23/23 21/21/21
f 25/25/25 23/23/23 24/24/24
f 26/26/26 25/25/25 24/24/24
f 29/29/29 28/28/28 27/27/27
f 30/30/30 29/29/29 27/27/27
f 33/33/33 32/32/32 31/31/31
f 34/34/34 33/33/33 31/31/31
f 37/37/37 36/36/36 35/35/35
f 38/38/38 37/37/37 35/35/35
f 41/41/41 40/40/40 39/39/39
f 42/42/42 41/41/41 39/39/39
f 45/45/45 44/44/44 43/43/43
f 46/46/46 45/45/45 43/43/43
f 46/46/46 43/43/43 47/47/47
f 48/48/48 46/46/46 47/47/47
f 51/51/51 50/50/50 49/49/49
f 52/52/52 51/51/51 49/49/49
f 55/55/55 54/54/54 53/53/53
f 56/56/56 55/55/55 53/53/53
f 59/59/59 58/58/58 57/57/57
f 59/59/59 60/60/60 58/58/58
f 59/59/59 61/61/61 60/60/60
f 61/61/61 62/62/62 60/60/60
f 62/62/62 61/61/61 63/63/63
f 61/61/61 64/64/64 63/63/63
f 61/61/61 65/65/65 64/64/64
f 64/64/64 65/65/65 66/66/66
f 60/60/60 67/67/67 58/58/58
f 68/68/68 57/57/57 58/58/58
f 71/71/71 70/70/70 69/69/69
f 72/72/72 71/71/71 69/69/69
f 75/75/75 74/74/74 73/73/73
f 76/76/76 75/75/75 73/73/73
f 79/79/79 78/78/78 77/77/77
f 80/80/80 79/79/79 77/77/77
f 83/83/83 82/82/82 81/81/81
f 84/84/84 83/83/83 81/81/81
f 85/85/85 81/81/81 82/82/82
f 84/84/84 86/86/86 83/83/83
f 83/83/83 86/86/86 87/87/87
f 88/88/88 83/83/83 87/87/87
f 88/88/88 87/87/87 89/89/89
f 89/89/89 85/85/85 82/82/82
f 89/89/89 87/87/87 90/90/90
f 91/91/91 89/89/89 90/90/90
f 92/92/92 88/88/88 89/89/89
f 92/92/92 89/89/89 82/82/82
f 95/95/95 94/94/94 93/93/93
f 96/96/96 95/95/95 93/93/93
f 99/99/99 98/98/98 97/97/97
f 97/97/97 98/98/98 100/100/100
f 103/103/103 102/102/102 101/101/101
f 104/104/104 103/103/103 101/101/101
f 107/107/107 106/106/106 105/105/105
f 108/108/108 107/107/107 105/105/105
f 111/111/111 110/110/110 109/109/109
f 112/112/112 111/111/111 109/109/109
f 115/115/115 114/114/114 113/113/113
f 116/116/116 115/115/115 113/113/113
f 119/119/119 118/118/118 117/117/117
f 120/120/120 119/119/119 117/117/117
f 123/123/123 122/122/122 121/121/121
f 124/124/124 123/123/123 121/121/121
f 127/127/127 126/126/126 125/125/125
f 128/128/128 127/127/127 125/125/125
f 131/131/131 130/130/130 129/129/129
f 132/132/132 131/131/131 129/129/129
f 135/135/135 134/134/134 133/133/133
f 136/136/136 135/135/135 133/133/133
f 133/133/133 134/134/134 137/137/137
f 137/137/137 134/134/134 138/138/138
f 134/134/134 139/139/139 138/138/138
f 140/140/140 136/136/136 133/133/133
f 138/138/138 141/141/141 137/137/137
f 141/141/141 142/142/142 137/137/137
f 140/140/140 133/133/133 143/143/143
f 142/142/142 141/141/141 143/143/143
f 133/133/133 144/144/144 143/143/143
f 144/144/144 142/142/142 143/143/143
f 147/147/147 146/146/146 145/145/145
f 148/148/148 147/147/147 145/145/145
f 151/151/151 150/150/150 149/149/149
f 152/152/152 151/151/151 149/149/149
f 151/151/151 153/153/153 150/150/150
f 153/153/153 154/154/154 150/150/150
f 154/154/154 153/153/153 155/155/155
f 156/156/156 154/154/154 155/155/155
f 156/156/156 155/155/155 157/157/157
f 155/155/155 158/158/158 157/157/157
f 158/158/158 159/159/159 157/157/157
f 159/159/159 160/160/160 157/157/157
f 163/163/163 162/162/162 161/161/161
f 164/164/164 163/163/163 161/161/161
f 167/167/167 166/166/166 165/165/165
f 168/168/168 167/167/167 165/165/165
f 171/171/171 170/170/170 169/169/169
f 172/172/172 171/171/171 169/169/169
f 175/175/175 174/174/174 173/173/173
f 176/176/176 175/175/175 173/173/173
f 176/176/176 173/173/173 177/177/177
f 173/173/173 178/178/178 177/177/177
f 174/174/174 175/175/175 179/179/179
f 180/180/180 174/174/174 179/179/179
f 177/177/177 178/178/178 180/180/180
f 179/179/179 177/177/177 180/180/180
f 183/183/183 182/182/182 181/181/181
f 184/184/184 183/183/183 181/181/181
f 184/184/184 181/181/181 185/185/185
f 181/181/181 186/186/186 185/185/185
f 187/187/187 182/182/182 183/183/183
f 185/185/185 186/186/186 187/187/187
f 188/188/188 187/187/187 183/183/183
f 188/188/188 185/185/185 187/187/187
f 191/191/191 190/190/190 189/189/189
f 192/192/192 191/191/191 189/189/189
f 195/195/195 194/194/194 193/193/193
f 196/196/196 195/195/195 193/193/193
f 199/199/199 198/198/198 197/197/197
f 200/200/200 199/199/199 197/197/197
f 203/203/203 202/202/202 201/201/201
f 204/204/204 203/203/203 201/201/201
