g royale_city_buildings_mesh_12
v -48.75881 -1.847744E-06 26.02759
v -48.75881 15.00001 26.02763
v -48.75881 15 6.521743
v -48.75881 -1.847744E-06 6.521701
v -48.75881 -1.847744E-06 6.521701
v -48.75881 15 6.521743
v -58.78497 15 6.521743
v -58.78497 -2.754927E-06 6.5217
v -58.78497 -2.449751E-06 26.02759
v -58.78497 15.00001 26.02763
v -48.75881 15.00001 26.02763
v -48.75881 -1.847744E-06 26.02759
v -58.78497 -2.449751E-06 26.02759
v -58.78497 -2.754927E-06 6.5217
v -58.78497 15 6.521743
v -58.78497 15.00001 26.02763
v -58.78497 15 6.521743
v -48.75881 15 6.521743
v -48.75881 15.00001 26.02763
v -58.78497 15.00001 26.02763
vt 0.5440042 0.009070295
vt 0.5440042 0.4557823
vt 0.9882506 0.4557823
vt 0.9882506 0.009070295
vt 0.5440042 0.009070295
vt 0.5440042 0.4557823
vt 0.9882506 0.4557823
vt 0.9882506 0.009070295
vt 0.5440042 0.009070295
vt 0.5440042 0.4557823
vt 0.9882506 0.4557823
vt 0.9882506 0.009070295
vt 0.5440042 0.009070295
vt 0.9882506 0.009070295
vt 0.9882506 0.4557823
vt 0.5440042 0.4557823
vt 59.28496 7.021797
vt 49.25881 7.021796
vt 49.25881 26.52768
vt 59.28496 26.52768
vn 1 0 0
vn 1 0 0
vn 1 0 0
vn 1 0 0
vn 0 0 -1
vn 0 0 -1
vn 0 0 -1
vn 0 0 -1
vn 0 0 1
vn 0 0 1
vn 0 0 1
vn 0 0 1
vn -1 0 0
vn -1 0 0
vn -1 0 0
vn -1 0 0
vn 0 1 0
vn 0 1 0
vn 0 1 0
vn 0 1 0
g royale_city_buildings_mesh_12_0
f 3/3/3 2/2/2 1/1/1
f 4/4/4 3/3/3 1/1/1
f 7/7/7 6/6/6 5/5/5
f 8/8/8 7/7/7 5/5/5
f 11/11/11 10/10/10 9/9/9
f 12/12/12 11/11/11 9/9/9
f 15/15/15 14/14/14 13/13/13
f 16/16/16 15/15/15 13/13/13
g royale_city_buildings_mesh_12_1
f 19/19/19 18/18/18 17/17/17
f 20/20/20 19/19/19 17/17/17
