g royal_fence_stone_lod00
v -0.09677612 9.966666 5
v -0.09677612 9.966666 0
v 0.1032239 9.966666 0
v 0.1032239 9.966666 5
v 0.2532239 0.25 5.5
v 0.2532239 -0.2500006 5.5
v -0.2467761 -0.2500006 5.5
v -0.2467761 0.25 5.5
v 0.2532239 -0.2500006 5.5
v 0.2532239 -0.2500006 4.336809E-21
v -0.2467761 -0.2500006 4.336809E-21
v -0.2467761 -0.2500006 5.5
v 0.2532239 0.25 5.5
v 0.2532239 0.25 4.336809E-21
v 0.2532239 -0.2500006 4.336809E-21
v 0.2532239 -0.2500006 5.5
v -0.2467761 0.25 5.5
v -0.2467761 0.25 4.336809E-21
v 0.2532239 0.25 4.336809E-21
v 0.2532239 0.25 5.5
v -0.2467761 -0.2500006 5.5
v -0.2467761 -0.2500006 4.336809E-21
v -0.2467761 0.25 4.336809E-21
v -0.2467761 0.25 5.5
v -0.09677612 9.966666 5
v 0.1032239 9.966666 5
v 0.1032239 0 5
v -0.09677612 0 5
v 0.1032239 9.966666 5
v 0.1032239 9.966666 0
v 0.1032239 0 0
v 0.1032239 0 5
v -0.09677612 9.966666 0
v -0.09677612 9.966666 5
v -0.09677612 0 5
v -0.09677612 0 0
vt -5.772818 23.70438
vt -5.772824 18.26623
vt -5.990344 18.26623
vt -5.990344 23.70438
vt 5.32228 7.766865
vt 5.32228 7.223419
vt 4.778835 7.22342
vt 4.778835 7.766865
vt 5.32228 24.24718
vt 5.32228 18.26928
vt 4.778835 18.26928
vt 4.778835 24.24718
vt 5.403446 24.24718
vt 5.403446 18.26928
vt 4.860001 18.26928
vt 4.860001 24.24718
vt 5.405823 24.24718
vt 5.405823 18.26928
vt 4.862378 18.26928
vt 4.862378 24.24718
vt 5.324657 24.24718
vt 5.324657 18.26928
vt 4.781211 18.26928
vt 4.781211 24.24718
vt 32.20471 13.02016
vt 32.2047 12.80279
vt 21.37203 12.80279
vt 21.37203 13.02017
vt 15.96439 23.70374
vt 15.96439 18.26928
vt 5.131718 18.26928
vt 5.131716 23.70374
vt -5.779736 18.26928
vt -5.779737 23.70374
vt 5.052937 23.70374
vt 5.052939 18.26928
vn 0 1 0
vn 0 1 0
vn 0 1 0
vn 0 1 0
vn 0 0 1
vn 0 0 1
vn 0 0 1
vn 0 0 1
vn 0 -1 0
vn 0 -1 0
vn 0 -1 0
vn 0 -1 0
vn 1 0 0
vn 1 0 0
vn 1 0 0
vn 1 0 0
vn 0 1 0
vn 0 1 0
vn 0 1 0
vn 0 1 0
vn -1 0 0
vn -1 0 0
vn -1 0 0
vn -1 0 0
vn 0 0 1
vn 0 0 1
vn 0 0 1
vn 0 0 1
vn 1 0 0
vn 1 0 0
vn 1 0 0
vn 1 0 0
vn -1 0 0
vn -1 0 0
vn -1 0 0
vn -1 0 0
g royal_fence_stone_lod00_0
f 3/3/3 2/2/2 1/1/1
f 4/4/4 3/3/3 1/1/1
f 7/7/7 6/6/6 5/5/5
f 8/8/8 7/7/7 5/5/5
f 11/11/11 10/10/10 9/9/9
f 12/12/12 11/11/11 9/9/9
f 15/15/15 14/14/14 13/13/13
f 16/16/16 15/15/15 13/13/13
f 19/19/19 18/18/18 17/17/17
f 20/20/20 19/19/19 17/17/17
f 23/23/23 22/22/22 21/21/21
f 24/24/24 23/23/23 21/21/21
f 27/27/27 26/26/26 25/25/25
f 28/28/28 27/27/27 25/25/25
f 31/31/31 30/30/30 29/29/29
f 32/32/32 31/31/31 29/29/29
f 35/35/35 34/34/34 33/33/33
f 36/36/36 35/35/35 33/33/33
