g royale_hat_sword_in_the_head_mesh001
v -0.2828743 0.01634878 0.1387288
v -0.2828743 0.01634881 -0.09015381
v -0.2828743 0.08174384 -0.1555489
v -0.2828743 0.08174379 0.2041239
v -0.2828743 -0.0817438 0.2041238
v -0.2828743 -0.01634874 0.1387288
v -0.2828743 -0.0163487 -0.09015381
v -0.2828743 -0.08174375 -0.1555489
v 0.3296088 0.04904631 -0.1882464
v 0.3296088 0.01634876 -0.09015381
v 0.3296088 -0.01634876 -0.09015381
v 0.3296088 -0.04904625 -0.1882464
v 0.3296088 -0.04904632 0.2368214
v 0.3296088 -0.01634879 0.1387288
v 0.3296088 0.01634873 0.1387288
v 0.3296088 0.04904625 0.2368213
v 0.276612 0.08174379 0.2041239
v 0.276612 0.08174384 -0.1555489
v 0.276612 0.01634874 0.1387288
v 0.276612 0.01634878 -0.09015381
v 0.276612 -0.08174375 -0.1555489
v 0.276612 -0.01634878 0.1387288
v 0.276612 -0.0817438 0.2041238
v 0.276612 -0.01634874 -0.09015381
v 0.3296088 0.04904625 0.2368213
v 0.4228566 0.0490463 -0.02475882
v 0.4228566 0.04904628 0.07333376
v 0.4228565 0.04904625 0.2368213
v 0.3296088 0.04904631 -0.1882464
v 0.4228565 0.04904631 -0.1882464
v -0.4264108 0.01634877 -0.02475882
v -0.3953283 0.01634878 -0.05745631
v -0.3953283 0.01634875 0.1060313
v -0.2828743 0.01634878 0.1387288
v -0.2828743 0.01634881 -0.09015381
v -0.3953283 0.01634878 -0.09015381
v -0.4264108 0.01634878 -0.05745631
v -0.3953283 0.01634875 0.1387288
v -0.4264108 0.01634876 0.07333376
v -0.4264108 0.01634875 0.1060313
v -0.4574933 0.01634876 0.04063623
v -0.4574933 0.01634876 0.07333376
v -0.4574933 0.01634877 0.007938709
v -0.488576 0.01634876 0.04063623
v -0.488576 0.01634877 0.007938709
v -0.4574933 0.01634877 -0.02475882
v -0.3953283 -0.01634877 0.1060313
v -0.3953283 -0.01634874 -0.05745632
v -0.4264108 -0.01634877 0.07333376
v -0.2828743 -0.01634874 0.1387288
v -0.2828743 -0.0163487 -0.09015381
v -0.3953283 -0.01634874 -0.09015381
v -0.3953283 -0.01634878 0.1387288
v -0.4264108 -0.01634877 0.1060313
v -0.4264108 -0.01634875 -0.02475881
v -0.4264108 -0.01634874 -0.05745632
v -0.4574933 -0.01634875 0.007938702
v -0.4574933 -0.01634875 -0.02475881
v -0.4574933 -0.01634876 0.04063623
v -0.488576 -0.01634875 0.007938702
v -0.488576 -0.01634876 0.04063623
v -0.4574933 -0.01634877 0.07333376
v -0.2517918 -0.08174375 -0.1555489
v -0.2517918 0.08174384 -0.1555489
v -0.2828743 0.08174384 -0.1555489
v -0.2828743 -0.08174375 -0.1555489
v -0.2517918 0.08174378 0.1714264
v -0.2517918 -0.0817438 0.1714263
v 0.2455295 -0.0817438 0.1714263
v 0.2455295 0.08174378 0.1714264
v 0.4228565 -0.04904625 -0.1882464
v 0.4228566 -0.04904627 -0.02475882
v 0.4228566 0.0490463 -0.02475882
v 0.4228565 0.04904631 -0.1882464
v 0.4228566 -0.0490463 0.07333376
v 0.4228566 -0.04904627 -0.02475882
v 0.3296088 -0.04904632 0.2368214
v 0.4228565 -0.04904632 0.2368214
v 0.3296088 -0.04904625 -0.1882464
v 0.4228565 -0.04904625 -0.1882464
v 0.2455295 -0.0817438 0.1714263
v 0.276612 -0.0817438 0.2041238
v 0.276612 -0.08174375 -0.1555489
v 0.2455295 -0.08174375 -0.1555489
v -0.2828743 -0.0817438 0.2041238
v -0.2517918 -0.0817438 0.1714263
v -0.2828743 -0.08174375 -0.1555489
v -0.2517918 -0.08174375 -0.1555489
v 0.4228566 0.04904628 0.07333376
v 0.4228566 -0.0490463 0.07333376
v 0.4228565 -0.04904632 0.2368214
v 0.4228565 0.04904625 0.2368213
v 0.3296088 -0.01634879 0.1387288
v 0.3296088 -0.01634876 -0.09015381
v 0.276612 -0.01634874 -0.09015381
v 0.276612 -0.01634878 0.1387288
v 0.276612 0.08174379 0.2041239
v 0.2455295 0.08174378 0.1714264
v 0.276612 0.08174384 -0.1555489
v 0.2455295 0.08174384 -0.1555489
v -0.2517918 0.08174378 0.1714264
v -0.2828743 0.08174379 0.2041239
v -0.2828743 0.08174384 -0.1555489
v -0.2517918 0.08174384 -0.1555489
v -0.2828743 0.08174379 0.2041239
v 0.276612 0.08174379 0.2041239
v 0.276612 -0.0817438 0.2041238
v -0.2828743 -0.0817438 0.2041238
v 0.276612 -0.01634878 0.1387288
v 0.276612 0.01634874 0.1387288
v 0.3296088 0.01634873 0.1387288
v 0.3296088 -0.01634879 0.1387288
v 0.7025996 0.04904629 -0.02475882
v 0.7025996 0.04904627 0.07333376
v 0.4228566 0.04904628 0.07333376
v 0.4228566 0.0490463 -0.02475882
v 0.7025996 -0.0490463 0.07333376
v 0.7025996 0.04904627 0.07333376
v 0.7025996 0.04904629 -0.02475882
v 0.7025996 -0.04904627 -0.02475882
v -0.488576 -0.01634876 0.04063623
v -0.488576 -0.01634875 0.007938702
v -0.488576 0.01634877 0.007938709
v -0.488576 0.01634876 0.04063623
v -0.4574933 0.01634876 0.04063623
v -0.4574933 -0.01634876 0.04063623
v -0.488576 -0.01634876 0.04063623
v -0.488576 0.01634876 0.04063623
v -0.4574933 -0.01634875 0.007938702
v -0.4574933 0.01634877 0.007938709
v -0.488576 0.01634877 0.007938709
v -0.488576 -0.01634875 0.007938702
v -0.4574933 -0.01634875 0.007938702
v -0.4574933 -0.01634875 -0.02475881
v -0.4574933 0.01634877 -0.02475882
v -0.4574933 0.01634877 0.007938709
v -0.4264108 -0.01634875 -0.02475881
v -0.4264108 0.01634877 -0.02475882
v -0.4574933 0.01634877 -0.02475882
v -0.4574933 -0.01634875 -0.02475881
v -0.4574933 -0.01634877 0.07333376
v -0.4574933 -0.01634876 0.04063623
v -0.4574933 0.01634876 0.04063623
v -0.4574933 0.01634876 0.07333376
v -0.4264108 0.01634876 0.07333376
v -0.4264108 -0.01634877 0.07333376
v -0.4574933 -0.01634877 0.07333376
v -0.4574933 0.01634876 0.07333376
v -0.4264108 -0.01634875 -0.02475881
v -0.4264108 -0.01634874 -0.05745632
v -0.4264108 0.01634878 -0.05745631
v -0.4264108 0.01634877 -0.02475882
v -0.3953283 -0.01634874 -0.05745632
v -0.3953283 0.01634878 -0.05745631
v -0.4264108 0.01634878 -0.05745631
v -0.4264108 -0.01634874 -0.05745632
v -0.4264108 -0.01634877 0.1060313
v -0.4264108 -0.01634877 0.07333376
v -0.4264108 0.01634876 0.07333376
v -0.4264108 0.01634875 0.1060313
v -0.3953283 0.01634875 0.1060313
v -0.3953283 -0.01634877 0.1060313
v -0.4264108 -0.01634877 0.1060313
v -0.4264108 0.01634875 0.1060313
v -0.3953283 -0.01634874 -0.05745632
v -0.3953283 -0.01634874 -0.09015381
v -0.3953283 0.01634878 -0.09015381
v -0.3953283 0.01634878 -0.05745631
v -0.3953283 -0.01634874 -0.09015381
v -0.2828743 -0.0163487 -0.09015381
v -0.2828743 0.01634881 -0.09015381
v -0.3953283 0.01634878 -0.09015381
v -0.3953283 -0.01634878 0.1387288
v -0.3953283 -0.01634877 0.1060313
v -0.3953283 0.01634875 0.1060313
v -0.3953283 0.01634875 0.1387288
v 0.7025996 -0.0490463 0.07333376
v 0.7025996 -0.04904627 -0.02475882
v 0.4228566 -0.04904627 -0.02475882
v 0.4228566 -0.0490463 0.07333376
v 0.276612 -0.01634874 -0.09015381
v 0.3296088 -0.01634876 -0.09015381
v 0.3296088 0.01634876 -0.09015381
v 0.276612 0.01634878 -0.09015381
v 0.3296088 0.04904631 -0.1882464
v 0.3296088 -0.04904625 -0.1882464
v 0.4228565 -0.04904625 -0.1882464
v 0.4228565 0.04904631 -0.1882464
v 0.276612 0.01634874 0.1387288
v 0.276612 0.01634878 -0.09015381
v 0.3296088 0.01634876 -0.09015381
v 0.3296088 0.01634873 0.1387288
v -0.2828743 0.01634878 0.1387288
v -0.2828743 -0.01634874 0.1387288
v -0.3953283 -0.01634878 0.1387288
v -0.3953283 0.01634875 0.1387288
v 0.3296088 0.04904625 0.2368213
v 0.4228565 0.04904625 0.2368213
v 0.4228565 -0.04904632 0.2368214
v 0.3296088 -0.04904632 0.2368214
v 0.4228566 0.0490463 -0.02475882
v 0.4228566 -0.04904627 -0.02475882
v 0.7025996 -0.04904627 -0.02475882
v 0.7025996 0.04904629 -0.02475882
v 0.7025996 -0.0490463 0.07333376
v 0.4228566 -0.0490463 0.07333376
v 0.4228566 0.04904628 0.07333376
v 0.7025996 0.04904627 0.07333376
v 0.2455295 0.08174384 -0.1555489
v 0.2455295 -0.08174375 -0.1555489
v 0.276612 -0.08174375 -0.1555489
v 0.276612 0.08174384 -0.1555489
v 0.2455295 -0.08174375 -0.1555489
v 0.2455295 0.08174384 -0.1555489
v 0.2455295 0.08174378 0.1714264
v 0.2455295 -0.0817438 0.1714263
v -0.2517918 0.08174384 -0.1555489
v -0.2517918 -0.08174375 -0.1555489
v -0.2517918 -0.0817438 0.1714263
v -0.2517918 0.08174378 0.1714264
vt 0.09375 0.671875
vt 0.09375 0.5625
vt 0.0625 0.53125
vt 0.0625 0.703125
vt 0.140625 0.703125
vt 0.109375 0.671875
vt 0.109375 0.5625
vt 0.140625 0.53125
vt 0.546875 0.78125
vt 0.53125 0.828125
vt 0.515625 0.828125
vt 0.5 0.78125
vt 0.5 0.984375
vt 0.515625 0.9375
vt 0.53125 0.9375
vt 0.546875 0.984375
vt 0.140625 0.703125
vt 0.140625 0.53125
vt 0.109375 0.671875
vt 0.109375 0.5625
vt 0.0625 0.53125
vt 0.09375 0.671875
vt 0.0625 0.703125
vt 0.09375 0.5625
vt 0.5 0.984375
vt 0.546875 0.859375
vt 0.546875 0.90625
vt 0.546875 0.984375
vt 0.5 0.78125
vt 0.546875 0.78125
vt 0.0625 0.859375
vt 0.078125 0.84375
vt 0.078125 0.921875
vt 0.1347069 0.9375087
vt 0.1347069 0.8281163
vt 0.078125 0.828125
vt 0.0625 0.84375
vt 0.078125 0.9375
vt 0.0625 0.90625
vt 0.0625 0.921875
vt 0.046875 0.890625
vt 0.046875 0.90625
vt 0.046875 0.875
vt 0.03125 0.890625
vt 0.03125 0.875
vt 0.046875 0.859375
vt 0.078125 0.921875
vt 0.078125 0.84375
vt 0.0625 0.90625
vt 0.1347069 0.9375087
vt 0.1347069 0.8281163
vt 0.078125 0.828125
vt 0.078125 0.9375
vt 0.0625 0.921875
vt 0.0625 0.859375
vt 0.0625 0.84375
vt 0.046875 0.875
vt 0.046875 0.859375
vt 0.046875 0.890625
vt 0.03125 0.875
vt 0.03125 0.890625
vt 0.046875 0.90625
vt 0.375 0.65625
vt 0.375 0.578125
vt 0.359375 0.578125
vt 0.359375 0.65625
vt 0.375 0.578125
vt 0.375 0.65625
vt 0.625 0.65625
vt 0.625 0.578125
vt 0.828125 0.765625
vt 0.828125 0.84375
vt 0.875 0.84375
vt 0.875 0.765625
vt 0.546875 0.90625
vt 0.546875 0.859375
vt 0.5 0.984375
vt 0.546875 0.984375
vt 0.5 0.78125
vt 0.546875 0.78125
vt 0.4375 0.953125
vt 0.453125 0.96875
vt 0.453125 0.796875
vt 0.4375 0.796875
vt 0.171875 0.96875
vt 0.1875 0.953125
vt 0.171875 0.796875
vt 0.1875 0.796875
vt 0.875 0.890625
vt 0.828125 0.890625
vt 0.828125 0.96875
vt 0.875 0.96875
vt 0.4797661 0.9375
vt 0.4797661 0.828125
vt 0.453125 0.828125
vt 0.453125 0.9375
vt 0.453125 0.96875
vt 0.4375 0.953125
vt 0.453125 0.796875
vt 0.4375 0.796875
vt 0.1875 0.953125
vt 0.171875 0.96875
vt 0.171875 0.796875
vt 0.1875 0.796875
vt 0.359375 0.578125
vt 0.640625 0.578125
vt 0.640625 0.65625
vt 0.359375 0.65625
vt 0.640625 0.625
vt 0.640625 0.609375
vt 0.6672661 0.609375
vt 0.6672661 0.625
vt 0.734375 0.859375
vt 0.734375 0.90625
vt 0.59375 0.90625
vt 0.59375 0.859375
vt 0.828125 0.890625
vt 0.875 0.890625
vt 0.875 0.84375
vt 0.828125 0.84375
vt 0.109375 0.625
vt 0.109375 0.609375
vt 0.09375 0.609375
vt 0.09375 0.625
vt 0.25 0.609375
vt 0.25 0.625
vt 0.234375 0.625
vt 0.234375 0.609375
vt 0.25 0.625
vt 0.25 0.609375
vt 0.234375 0.609375
vt 0.234375 0.625
vt 0.109375 0.609375
vt 0.109375 0.59375
vt 0.09375 0.59375
vt 0.09375 0.609375
vt 0.25 0.625
vt 0.25 0.609375
vt 0.25 0.609375
vt 0.25 0.625
vt 0.109375 0.640625
vt 0.109375 0.625
vt 0.09375 0.625
vt 0.09375 0.640625
vt 0.25 0.609375
vt 0.25 0.625
vt 0.25 0.625
vt 0.25 0.609375
vt 0.109375 0.59375
vt 0.109375 0.578125
vt 0.09375 0.578125
vt 0.09375 0.59375
vt 0.265625 0.625
vt 0.265625 0.609375
vt 0.25 0.609375
vt 0.25 0.625
vt 0.109375 0.65625
vt 0.109375 0.640625
vt 0.09375 0.640625
vt 0.09375 0.65625
vt 0.265625 0.609375
vt 0.265625 0.625
vt 0.25 0.625
vt 0.25 0.609375
vt 0.109375 0.578125
vt 0.109375 0.5625
vt 0.09375 0.5625
vt 0.09375 0.578125
vt 0.265625 0.625
vt 0.3221549 0.625
vt 0.3221549 0.609375
vt 0.265625 0.609375
vt 0.109375 0.671875
vt 0.109375 0.65625
vt 0.09375 0.65625
vt 0.09375 0.671875
vt 0.734375 0.90625
vt 0.734375 0.859375
vt 0.59375 0.859375
vt 0.59375 0.90625
vt 0.640625 0.625
vt 0.6672661 0.625
vt 0.6672661 0.609375
vt 0.640625 0.609375
vt 0.6875 0.59375
vt 0.6875 0.640625
vt 0.734375 0.640625
vt 0.734375 0.59375
vt 0.453125 0.9375
vt 0.453125 0.828125
vt 0.4797661 0.828125
vt 0.4797661 0.9375
vt 0.3221549 0.609375
vt 0.3221549 0.625
vt 0.265625 0.625
vt 0.265625 0.609375
vt 0.6875 0.59375
vt 0.734375 0.59375
vt 0.734375 0.640625
vt 0.6875 0.640625
vt 0.78125 0.59375
vt 0.78125 0.640625
vt 0.921875 0.640625
vt 0.921875 0.59375
vt 0.921875 0.640625
vt 0.78125 0.640625
vt 0.78125 0.59375
vt 0.921875 0.59375
vt 0.625 0.578125
vt 0.625 0.65625
vt 0.640625 0.65625
vt 0.640625 0.578125
vt 0.640625 0.578125
vt 0.640625 0.65625
vt 0.484375 0.65625
vt 0.484375 0.578125
vt 0.640625 0.65625
vt 0.640625 0.578125
vt 0.484375 0.578125
vt 0.484375 0.65625
vn -1 -1.458329E-07 -1.458328E-07
vn -1 -1.458329E-07 1.458327E-07
vn -1 -1.458329E-07 1.458327E-07
vn -1 -1.458328E-07 -1.458329E-07
vn -1 1.458328E-07 -1.458328E-07
vn -1 1.458328E-07 -1.458328E-07
vn -1 1.458328E-07 1.458328E-07
vn -1 1.458328E-07 1.458328E-07
vn -1 2.389706E-07 -3.092304E-07
vn -1 6.981177E-07 -1.561813E-07
vn -1 -6.981185E-07 -1.561815E-07
vn -1 -2.389706E-07 -3.092306E-07
vn -1 -2.38971E-07 3.092304E-07
vn -1 -6.981185E-07 1.561813E-07
vn -1 6.981178E-07 1.561815E-07
vn -1 2.389706E-07 3.092306E-07
vn 1 0 0
vn 1 0 0
vn 1 0 0
vn 1 0 0
vn 1 0 0
vn 1 0 0
vn 1 0 0
vn 1 0 0
vn 0 1 1.708186E-07
vn 0 1 1.591524E-07
vn 0 1 1.923049E-07
vn 0 1 1.749994E-07
vn 0 1 1.06749E-07
vn 0 1 0
vn 0 1 1.573539E-07
vn -1.932515E-07 1 1.269569E-07
vn -1.921082E-07 1 1.602672E-07
vn -2.79438E-07 1 1.573822E-07
vn -2.79438E-07 1 1.31112E-07
vn -2.968202E-07 1 0
vn 0 1 1.822912E-07
vn -2.968202E-07 1 1.82291E-07
vn 0 1 1.476624E-07
vn 0 1 1.458329E-07
vn 0 1 2.072916E-07
vn 0 1 1.093746E-07
vn 1.162941E-07 1 2.563827E-07
vn 0 1 2.916656E-07
vn 0 1 2.916656E-07
vn 0 1 0
vn 1.982694E-07 -1 -1.764783E-07
vn 1.908774E-07 -1 -1.527242E-07
vn 0 -1 -1.751587E-07
vn 2.924746E-07 -1 -1.764041E-07
vn 2.943842E-07 -1 -1.632691E-07
vn 3.074209E-07 -1 -1.458329E-07
vn 2.968202E-07 -1 -2.187492E-07
vn 0 -1 -1.458329E-07
vn 0 -1 -1.579855E-07
vn 0 -1 -1.093747E-07
vn 0 -1 -1.861155E-07
vn 0 -1 -1.093746E-07
vn 0 -1 -2.187492E-07
vn 0 -1 -2.187492E-07
vn 0 -1 -2.187492E-07
vn 0 -1 -2.187492E-07
vn 0 1.166663E-07 -1
vn 0 1.166663E-07 -1
vn 0 1.166663E-07 -1
vn 0 1.166663E-07 -1
vn 0 3.499989E-07 -1
vn 0 3.499989E-07 -1
vn 0 3.499989E-07 -1
vn 0 3.499989E-07 -1
vn 1 0 -2.333325E-07
vn 1 0 -2.333325E-07
vn 1 0 -2.333325E-07
vn 1 0 -2.333325E-07
vn -1.764792E-07 -1 -2.724164E-07
vn 0 -1 -1.986245E-07
vn 0 -1 -1.426223E-07
vn 0 -1 -1.166662E-07
vn 0 -1 -1.06749E-07
vn 0 -1 0
vn 0 -1 0
vn 0 -1 0
vn 0 -1 -1.740395E-07
vn 0 -1 -1.749994E-07
vn 0 -1 0
vn 0 -1 0
vn 0 -1 -1.740395E-07
vn 0 -1 -1.749994E-07
vn 1 0 2.333325E-07
vn 1 0 2.333325E-07
vn 1 0 2.333325E-07
vn 1 0 2.333325E-07
vn -3.261584E-07 -1 -1.640619E-07
vn -3.261584E-07 -1 -1.640619E-07
vn -3.261584E-07 -1 -1.640619E-07
vn -3.261584E-07 -1 -1.640619E-07
vn -2.159492E-07 1 0
vn -2.165635E-07 1 0
vn 0 1 1.724397E-07
vn 0 1 1.749994E-07
vn 2.165634E-07 1 0
vn 2.159491E-07 1 0
vn 0 1 1.724396E-07
vn 0 1 1.749993E-07
vn 0 -3.499988E-07 1
vn 0 -3.499988E-07 1
vn 0 -3.499988E-07 1
vn 0 -3.499988E-07 1
vn 0 0 1
vn 0 0 1
vn 0 0 1
vn 0 0 1
vn 0 1 1.944437E-07
vn 0 1 1.944437E-07
vn 0 1 1.923049E-07
vn 0 1 1.591524E-07
vn 1 0 0
vn 1 0 0
vn 1 0 0
vn 1 0 0
vn -1 0 0
vn -1 0 0
vn -1 0 0
vn -1 0 0
vn 0 -1.458328E-07 1
vn 0 -1.458328E-07 1
vn 0 -1.458328E-07 1
vn 0 -1.458328E-07 1
vn 0 2.187492E-07 -1
vn 0 2.187492E-07 -1
vn 0 2.187492E-07 -1
vn 0 2.187492E-07 -1
vn -1 0 0
vn -1 0 0
vn -1 0 0
vn -1 0 0
vn 0 -1.458328E-07 -1
vn 0 -1.458328E-07 -1
vn 0 -1.458328E-07 -1
vn 0 -1.458328E-07 -1
vn -1 0 0
vn -1 0 0
vn -1 0 0
vn -1 0 0
vn 0 1.458328E-07 1
vn 0 1.458328E-07 1
vn 0 1.458328E-07 1
vn 0 1.458328E-07 1
vn -1 0 0
vn -1 0 0
vn -1 0 0
vn -1 0 0
vn 0 2.916656E-07 -1
vn 0 2.916656E-07 -1
vn 0 2.916656E-07 -1
vn 0 2.916656E-07 -1
vn -1 0 0
vn -1 0 0
vn -1 0 0
vn -1 0 0
vn 0 0 1
vn 0 0 1
vn 0 0 1
vn 0 0 1
vn -1 0 0
vn -1 0 0
vn -1 0 0
vn -1 0 0
vn 0 0 -1
vn 0 0 -1
vn 0 0 -1
vn 0 0 -1
vn -1 0 0
vn -1 0 0
vn -1 0 0
vn -1 0 0
vn 0 -1 -2.916656E-07
vn 0 -1 -2.916656E-07
vn 0 -1 -1.986245E-07
vn -1.764792E-07 -1 -2.724164E-07
vn 0 0 -1
vn 0 0 -1
vn 0 0 -1
vn 0 0 -1
vn 0 -1.944438E-07 -1
vn 0 -1.944438E-07 -1
vn 0 -1.944438E-07 -1
vn 0 -1.944438E-07 -1
vn 3.149115E-07 1 1.458328E-07
vn 3.149115E-07 1 1.458328E-07
vn 3.149115E-07 1 1.458328E-07
vn 3.149115E-07 1 1.458328E-07
vn 0 0 1
vn 0 0 1
vn 0 0 1
vn 0 0 1
vn 0 3.888875E-07 1
vn 0 3.888875E-07 1
vn 0 3.888875E-07 1
vn 0 3.888875E-07 1
vn 0 0 -1
vn 0 0 -1
vn 0 0 -1
vn 0 0 -1
vn 0 0 1
vn 0 0 1
vn 0 0 1
vn 0 0 1
vn 0 1.166663E-07 -1
vn 0 1.166663E-07 -1
vn 0 1.166663E-07 -1
vn 0 1.166663E-07 -1
vn -1 0 0
vn -1 0 0
vn -1 0 0
vn -1 0 0
vn 1 0 0
vn 1 0 0
vn 1 0 0
vn 1 0 0
g royale_hat_sword_in_the_head_mesh001_0
f 3/3/3 2/2/2 1/1/1
f 4/4/4 3/3/3 1/1/1
f 4/4/4 1/1/1 5/5/5
f 1/1/1 6/6/6 5/5/5
f 2/2/2 3/3/3 7/7/7
f 7/7/7 8/8/8 6/6/6
f 6/6/6 8/8/8 5/5/5
f 3/3/3 8/8/8 7/7/7
f 11/11/11 10/10/10 9/9/9
f 12/12/12 11/11/11 9/9/9
f 13/13/13 11/11/11 12/12/12
f 14/14/14 11/11/11 13/13/13
f 15/15/15 14/14/14 13/13/13
f 16/16/16 15/15/15 13/13/13
f 16/16/16 10/10/10 15/15/15
f 16/16/16 9/9/9 10/10/10
f 19/19/19 18/18/18 17/17/17
f 20/20/20 18/18/18 19/19/19
f 21/21/21 18/18/18 20/20/20
f 22/22/22 19/19/19 17/17/17
f 21/21/21 22/22/22 23/23/23
f 23/23/23 22/22/22 17/17/17
f 24/24/24 22/22/22 21/21/21
f 20/20/20 24/24/24 21/21/21
f 27/27/27 26/26/26 25/25/25
f 28/28/28 27/27/27 25/25/25
f 29/29/29 25/25/25 26/26/26
f 29/29/29 26/26/26 30/30/30
f 33/33/33 32/32/32 31/31/31
f 32/32/32 33/33/33 34/34/34
f 35/35/35 32/32/32 34/34/34
f 36/36/36 32/32/32 35/35/35
f 37/37/37 31/31/31 32/32/32
f 38/38/38 34/34/34 33/33/33
f 39/39/39 33/33/33 31/31/31
f 40/40/40 33/33/33 39/39/39
f 41/41/41 39/39/39 31/31/31
f 42/42/42 39/39/39 41/41/41
f 43/43/43 41/41/41 31/31/31
f 41/41/41 43/43/43 44/44/44
f 43/43/43 45/45/45 44/44/44
f 46/46/46 43/43/43 31/31/31
f 49/49/49 48/48/48 47/47/47
f 50/50/50 47/47/47 48/48/48
f 51/51/51 50/50/50 48/48/48
f 51/51/51 48/48/48 52/52/52
f 53/53/53 47/47/47 50/50/50
f 54/54/54 49/49/49 47/47/47
f 55/55/55 48/48/48 49/49/49
f 56/56/56 48/48/48 55/55/55
f 57/57/57 55/55/55 49/49/49
f 58/58/58 55/55/55 57/57/57
f 59/59/59 57/57/57 49/49/49
f 57/57/57 59/59/59 60/60/60
f 59/59/59 61/61/61 60/60/60
f 62/62/62 59/59/59 49/49/49
f 65/65/65 64/64/64 63/63/63
f 66/66/66 65/65/65 63/63/63
f 69/69/69 68/68/68 67/67/67
f 70/70/70 69/69/69 67/67/67
f 73/73/73 72/72/72 71/71/71
f 74/74/74 73/73/73 71/71/71
f 77/77/77 76/76/76 75/75/75
f 78/78/78 77/77/77 75/75/75
f 79/79/79 76/76/76 77/77/77
f 80/80/80 76/76/76 79/79/79
f 83/83/83 82/82/82 81/81/81
f 84/84/84 83/83/83 81/81/81
f 85/85/85 81/81/81 82/82/82
f 86/86/86 81/81/81 85/85/85
f 87/87/87 86/86/86 85/85/85
f 88/88/88 86/86/86 87/87/87
f 91/91/91 90/90/90 89/89/89
f 92/92/92 91/91/91 89/89/89
f 95/95/95 94/94/94 93/93/93
f 96/96/96 95/95/95 93/93/93
f 99/99/99 98/98/98 97/97/97
f 100/100/100 98/98/98 99/99/99
f 98/98/98 101/101/101 97/97/97
f 97/97/97 101/101/101 102/102/102
f 102/102/102 101/101/101 103/103/103
f 104/104/104 103/103/103 101/101/101
f 107/107/107 106/106/106 105/105/105
f 108/108/108 107/107/107 105/105/105
f 111/111/111 110/110/110 109/109/109
f 112/112/112 111/111/111 109/109/109
f 115/115/115 114/114/114 113/113/113
f 116/116/116 115/115/115 113/113/113
f 119/119/119 118/118/118 117/117/117
f 120/120/120 119/119/119 117/117/117
f 123/123/123 122/122/122 121/121/121
f 124/124/124 123/123/123 121/121/121
f 127/127/127 126/126/126 125/125/125
f 128/128/128 127/127/127 125/125/125
f 131/131/131 130/130/130 129/129/129
f 132/132/132 131/131/131 129/129/129
f 135/135/135 134/134/134 133/133/133
f 136/136/136 135/135/135 133/133/133
f 139/139/139 138/138/138 137/137/137
f 140/140/140 139/139/139 137/137/137
f 143/143/143 142/142/142 141/141/141
f 144/144/144 143/143/143 141/141/141
f 147/147/147 146/146/146 145/145/145
f 148/148/148 147/147/147 145/145/145
f 151/151/151 150/150/150 149/149/149
f 152/152/152 151/151/151 149/149/149
f 155/155/155 154/154/154 153/153/153
f 156/156/156 155/155/155 153/153/153
f 159/159/159 158/158/158 157/157/157
f 160/160/160 159/159/159 157/157/157
f 163/163/163 162/162/162 161/161/161
f 164/164/164 163/163/163 161/161/161
f 167/167/167 166/166/166 165/165/165
f 168/168/168 167/167/167 165/165/165
f 171/171/171 170/170/170 169/169/169
f 172/172/172 171/171/171 169/169/169
f 175/175/175 174/174/174 173/173/173
f 176/176/176 175/175/175 173/173/173
f 179/179/179 178/178/178 177/177/177
f 180/180/180 179/179/179 177/177/177
f 183/183/183 182/182/182 181/181/181
f 184/184/184 183/183/183 181/181/181
f 187/187/187 186/186/186 185/185/185
f 188/188/188 187/187/187 185/185/185
f 191/191/191 190/190/190 189/189/189
f 192/192/192 191/191/191 189/189/189
f 195/195/195 194/194/194 193/193/193
f 196/196/196 195/195/195 193/193/193
f 199/199/199 198/198/198 197/197/197
f 200/200/200 199/199/199 197/197/197
f 203/203/203 202/202/202 201/201/201
f 204/204/204 203/203/203 201/201/201
f 207/207/207 206/206/206 205/205/205
f 208/208/208 207/207/207 205/205/205
f 211/211/211 210/210/210 209/209/209
f 212/212/212 211/211/211 209/209/209
f 215/215/215 214/214/214 213/213/213
f 216/216/216 215/215/215 213/213/213
f 219/219/219 218/218/218 217/217/217
f 220/220/220 219/219/219 217/217/217
