g royale_truck_trailer_lod2_A
v 0.6599124 -7.73428 1.557915
v 0.6599125 0.8982255 1.327293
v 0.6599124 -7.734279 0.2460998
v 0.6599125 0.8982255 1.327293
v 0.6599124 -7.73428 1.557915
v 0.6599125 0.8982248 1.557915
v 0.6599124 -7.73428 1.557915
v -0.7420242 -7.734279 0.2460998
v -0.7420242 -7.73428 1.557915
v 0.6599124 -7.734279 0.2460998
v 1.133861 -1.208179 1.35837
v 1.133861 -4.229781 0.3929361
v 1.133861 -4.229782 1.35837
v 1.133861 -1.208178 0.3929362
v 1.133861 -1.208179 1.35837
v -1.234598 -1.208178 0.3929362
v 1.133861 -1.208178 0.3929362
v -1.234598 -1.208179 1.35837
v 1.133861 -4.229782 1.35837
v -1.234598 -1.208179 1.35837
v 1.133861 -1.208179 1.35837
v -1.234598 -4.229782 1.35837
v 1.133861 -4.229781 0.3929361
v -1.234598 -4.229782 1.35837
v 1.133861 -4.229782 1.35837
v -1.234598 -4.229781 0.3929361
v -1.234598 -1.208179 1.35837
v -1.234598 -4.229781 0.3929361
v -1.234598 -1.208178 0.3929362
v -1.234598 -4.229782 1.35837
v 1.133861 -4.229781 0.3929361
v -1.234598 -1.208178 0.3929362
v -1.234598 -4.229781 0.3929361
v 1.133861 -1.208178 0.3929362
v 0.6599125 0.8982248 1.557915
v -0.7420241 0.8982255 1.327293
v 0.6599125 0.8982255 1.327293
v -0.742024 0.8982248 1.557915
v -0.7420241 0.8982255 1.327293
v 0.6599124 -7.734279 0.2460998
v 0.6599125 0.8982255 1.327293
v -0.7420242 -7.734279 0.2460998
v 0.6599125 0.8982248 1.557915
v -0.7420242 -7.73428 1.557915
v -0.742024 0.8982248 1.557915
v 0.6599124 -7.73428 1.557915
v -1.396616 -5.106784 -0.01285351
v 1.359205 -5.106784 1.109758
v -1.396616 -5.106784 1.109758
v 1.359205 -5.106783 -0.01285347
v -1.396616 -5.106784 1.109758
v 1.359205 -6.281142 1.109758
v -1.396615 -6.281142 1.109758
v 1.359205 -5.106784 1.109758
v -1.396616 -5.106784 1.109758
v -1.396615 -6.281142 -0.01285334
v -1.396616 -5.106784 -0.01285351
v -1.396615 -6.281142 1.109758
v -1.396616 -5.106784 -0.01285351
v 1.359205 -6.281142 -0.01285332
v 1.359205 -5.106783 -0.01285347
v -1.396615 -6.281142 -0.01285334
v -1.396615 -6.281142 1.109758
v 1.359206 -7.455502 1.109758
v -1.396614 -7.455502 1.109758
v 1.359205 -6.281142 1.109758
v -1.396614 -7.455502 1.109758
v 1.359206 -7.455502 -0.01285315
v -1.396614 -7.455502 -0.01285315
v 1.359206 -7.455502 1.109758
v -1.396615 -6.281142 1.109758
v -1.396614 -7.455502 -0.01285315
v -1.396615 -6.281142 -0.01285334
v -1.396614 -7.455502 1.109758
v -1.396615 -6.281142 -0.01285334
v 1.359206 -7.455502 -0.01285315
v 1.359205 -6.281142 -0.01285332
v -1.396614 -7.455502 -0.01285315
v 1.359205 -5.106784 1.109758
v 1.359205 -6.281142 -0.01285332
v 1.359205 -6.281142 1.109758
v 1.359205 -5.106783 -0.01285347
v 1.359205 -6.281142 1.109758
v 1.359206 -7.455502 -0.01285315
v 1.359206 -7.455502 1.109758
v 1.359205 -6.281142 -0.01285332
v -0.7420242 -7.73428 1.557915
v -0.7420241 0.8982255 1.327293
v -0.742024 0.8982248 1.557915
v -0.7420241 0.8982255 1.327293
v -0.7420242 -7.73428 1.557915
v -0.7420242 -7.734279 0.2460998
vt 0.8686523 0.6162832
vt 0.8125 0.6133535
vt 0.8686523 0.6133535
vt 0.8125 0.6133535
vt 0.8686523 0.6162832
vt 0.8125 0.6162832
vt 0.8321114 0.6136993
vt 0.8438302 0.6032239
vt 0.8438302 0.6136993
vt 0.8321114 0.6032239
vt 0.7944336 0.5854492
vt 0.7700195 0.5776367
vt 0.7700195 0.5854492
vt 0.7944336 0.5776367
vt 0.7705078 0.5776367
vt 0.7900391 0.5703125
vt 0.7705078 0.5703125
vt 0.7900391 0.5776367
vt 0.8100586 0.5830078
vt 0.8349609 0.6025391
vt 0.8349609 0.5830078
vt 0.8100586 0.6025391
vt 0.7705078 0.5776367
vt 0.7900391 0.5703125
vt 0.7705078 0.5703125
vt 0.7900391 0.5776367
vt 0.7944336 0.5776367
vt 0.7700195 0.5854492
vt 0.7944336 0.5854492
vt 0.7700195 0.5776367
vt 0.8100586 0.6025391
vt 0.8349609 0.5830078
vt 0.8100586 0.5830078
vt 0.8349609 0.6025391
vt 0.8116465 0.6125
vt 0.8145761 0.6242188
vt 0.8145761 0.6125
vt 0.8116465 0.6242188
vt 0.8125 0.6242188
vt 0.8686523 0.6125
vt 0.8125 0.6125
vt 0.8686523 0.6242188
vt 0.8125 0.6242188
vt 0.8686523 0.6125
vt 0.8125 0.6125
vt 0.8686523 0.6242188
vt 0.7592773 0.6020508
vt 0.7651367 0.5932617
vt 0.7592773 0.5932617
vt 0.7651367 0.6020508
vt 0.7592773 0.6020508
vt 0.7651367 0.5932617
vt 0.7592773 0.5932617
vt 0.7651367 0.6020508
vt 0.7504883 0.6020508
vt 0.7592773 0.5932617
vt 0.7504883 0.5932617
vt 0.7592773 0.6020508
vt 0.7592773 0.5932617
vt 0.7651367 0.6020508
vt 0.7651367 0.5932617
vt 0.7592773 0.6020508
vt 0.7592773 0.6020508
vt 0.7651367 0.5932617
vt 0.7592773 0.5932617
vt 0.7651367 0.6020508
vt 0.7651367 0.5932617
vt 0.7592773 0.6020508
vt 0.7651367 0.6020508
vt 0.7592773 0.5932617
vt 0.7504883 0.6020508
vt 0.7592773 0.5932617
vt 0.7504883 0.5932617
vt 0.7592773 0.6020508
vt 0.7592773 0.5932617
vt 0.7651367 0.6020508
vt 0.7651367 0.5932617
vt 0.7592773 0.6020508
vt 0.7504883 0.6020508
vt 0.7592773 0.5932617
vt 0.7592773 0.6020508
vt 0.7504883 0.5932617
vt 0.7504883 0.6020508
vt 0.7592773 0.5932617
vt 0.7592773 0.6020508
vt 0.7504883 0.5932617
vt 0.8686523 0.6162832
vt 0.8125 0.6133535
vt 0.8125 0.6162832
vt 0.8125 0.6133535
vt 0.8686523 0.6162832
vt 0.8686523 0.6133535
vn 1 0 0
vn 1 0 0
vn 1 0 0
vn 1 0 0
vn 1 0 0
vn 1 0 0
vn 0 -1 -1.03712E-06
vn 0 -1 -1.03712E-06
vn 0 -1 -1.03712E-06
vn 0 -1 -1.03712E-06
vn 1 0 0
vn 1 0 0
vn 1 0 0
vn 1 0 0
vn 0 1 1.042681E-06
vn 0 1 1.042681E-06
vn 0 1 1.042681E-06
vn 0 1 1.042681E-06
vn 0 0 1
vn 0 0 1
vn 0 0 1
vn 0 0 1
vn 0 -1 -8.341449E-07
vn 0 -1 -8.341449E-07
vn 0 -1 -8.341449E-07
vn 0 -1 -8.341449E-07
vn -1 0 0
vn -1 0 0
vn -1 0 0
vn -1 0 0
vn 0 0 -1
vn 0 0 -1
vn 0 0 -1
vn 0 0 -1
vn 0 1 2.949651E-06
vn 0 1 2.949651E-06
vn 0 1 2.949651E-06
vn 0 1 2.949651E-06
vn 0 0.1242758 -0.9922477
vn 0 0.1242758 -0.9922477
vn 0 0.1242758 -0.9922477
vn 0 0.1242758 -0.9922477
vn 0 0 1
vn 0 0 1
vn 0 0 1
vn 0 0 1
vn 0 1 0
vn 0 1 0
vn 0 1 0
vn -1.730291E-07 1 0
vn 0 0 1
vn 0 0 1
vn 0 0 1
vn 0 0 1
vn -1 -5.372119E-07 0
vn -1 -5.372119E-07 0
vn -1 -5.372119E-07 0
vn -1 -5.42539E-07 0
vn 0 -1.30853E-07 -1
vn 0 -1.30853E-07 -1
vn 0 -1.30853E-07 -1
vn 0 -1.475067E-07 -1
vn 0 0 1
vn 0 0 1
vn 0 0 1
vn 0 0 1
vn 0 -1 -1.233047E-06
vn 0 -1 -1.233047E-06
vn 0 -1 -1.233047E-06
vn 0 -1 0
vn -1 -6.96353E-07 0
vn -1 -6.96353E-07 0
vn -1 -6.96353E-07 0
vn -1 -5.425388E-07 0
vn 0 -1.403694E-07 -1
vn 0 -1.403694E-07 -1
vn 0 -1.403694E-07 -1
vn 0 -1.562304E-07 -1
vn 1 5.425391E-07 0
vn 1 5.425391E-07 0
vn 1 5.425391E-07 0
vn 1 5.425388E-07 0
vn 1 5.425388E-07 0
vn 1 5.425388E-07 0
vn 1 5.425388E-07 0
vn 1 7.233854E-07 0
vn -1 0 2.584512E-07
vn -1 0 2.584512E-07
vn -1 0 2.584512E-07
vn -1 0 0
vn -1 0 0
vn -1 0 0
g royale_truck_trailer_lod2_A_0
f 3/3/3 2/2/2 1/1/1
f 6/6/6 5/5/5 4/4/4
f 9/9/9 8/8/8 7/7/7
f 10/10/10 7/7/7 8/8/8
f 13/13/13 12/12/12 11/11/11
f 14/14/14 11/11/11 12/12/12
f 17/17/17 16/16/16 15/15/15
f 18/18/18 15/15/15 16/16/16
f 21/21/21 20/20/20 19/19/19
f 22/22/22 19/19/19 20/20/20
f 25/25/25 24/24/24 23/23/23
f 26/26/26 23/23/23 24/24/24
f 29/29/29 28/28/28 27/27/27
f 30/30/30 27/27/27 28/28/28
f 33/33/33 32/32/32 31/31/31
f 34/34/34 31/31/31 32/32/32
f 37/37/37 36/36/36 35/35/35
f 38/38/38 35/35/35 36/36/36
f 41/41/41 40/40/40 39/39/39
f 42/42/42 39/39/39 40/40/40
f 45/45/45 44/44/44 43/43/43
f 46/46/46 43/43/43 44/44/44
f 49/49/49 48/48/48 47/47/47
f 50/50/50 47/47/47 48/48/48
f 53/53/53 52/52/52 51/51/51
f 54/54/54 51/51/51 52/52/52
f 57/57/57 56/56/56 55/55/55
f 58/58/58 55/55/55 56/56/56
f 61/61/61 60/60/60 59/59/59
f 62/62/62 59/59/59 60/60/60
f 65/65/65 64/64/64 63/63/63
f 66/66/66 63/63/63 64/64/64
f 69/69/69 68/68/68 67/67/67
f 70/70/70 67/67/67 68/68/68
f 73/73/73 72/72/72 71/71/71
f 74/74/74 71/71/71 72/72/72
f 77/77/77 76/76/76 75/75/75
f 78/78/78 75/75/75 76/76/76
f 81/81/81 80/80/80 79/79/79
f 82/82/82 79/79/79 80/80/80
f 85/85/85 84/84/84 83/83/83
f 86/86/86 83/83/83 84/84/84
f 89/89/89 88/88/88 87/87/87
f 92/92/92 91/91/91 90/90/90
