g royale_trash_can_big_lod1_A
v 1.249988 0.5254406 1.234857
v -1.250015 0.525437 1.234857
v -1.250005 -0.5352307 2.295517
v 1.249995 -0.5352209 2.295517
v -1.25001 -0.9850824 1.249997
v 1.24999 -0.9850762 1.249997
v 1.24999 -0.9850762 -3.204346E-06
v -1.25001 -0.9850824 -3.356934E-06
v 1.24999 -0.2523828 2.57836
v 1.24999 0.8082806 1.517699
v 1.249988 0.5254406 1.234857
v 1.249995 -0.5352209 2.295517
v -1.250005 -0.5352307 2.295517
v -1.250012 -0.2523834 2.57836
v 1.24999 -0.2523828 2.57836
v 1.249995 -0.5352209 2.295517
v -1.250007 0.5149152 1.249997
v -1.25001 -0.9850824 1.249997
v -1.25001 -0.9850824 -3.356934E-06
v -1.250007 0.5149152 -3.204346E-06
v -1.25001 -0.9850824 1.249997
v -1.250007 0.5149152 1.249997
v 1.24999 0.5149231 1.249997
v 1.24999 -0.9850762 1.249997
v -1.250012 0.8082739 1.517699
v 1.24999 0.8082806 1.517699
v 1.24999 -0.2523828 2.57836
v -1.250012 -0.2523834 2.57836
v 1.24999 -0.9850762 1.249997
v 1.24999 0.5149231 1.249997
v 1.24999 0.5149231 -3.204346E-06
v 1.24999 -0.9850762 -3.204346E-06
v -1.250012 -0.2523834 2.57836
v -1.250005 -0.5352307 2.295517
v -1.250015 0.525437 1.234857
v -1.250012 0.8082739 1.517699
v -1.250012 0.8082739 1.517699
v -1.250015 0.525437 1.234857
v 1.249988 0.5254406 1.234857
v 1.24999 0.8082806 1.517699
v 1.24999 0.5149231 1.249997
v -1.250007 0.5149152 1.249997
v -1.250007 0.5149152 -3.204346E-06
v 1.24999 0.5149231 -3.204346E-06
vt 0.570338 0.9111336
vt 0.5903613 0.9111336
vt 0.5903613 0.9243197
vt 0.570338 0.9243197
vt 0.5489272 0.9342186
vt 0.5229169 0.9342394
vt 0.5229521 0.9474494
vt 0.5489624 0.9474494
vt 0.5514828 0.8849999
vt 0.5669265 0.8849876
vt 0.5669231 0.8808693
vt 0.5514795 0.8808816
vt 0.5926858 0.9096767
vt 0.5926825 0.9055583
vt 0.5669431 0.9055791
vt 0.5669464 0.9096974
vt 0.5542598 0.9128879
vt 0.554302 0.92874
vt 0.5673071 0.9287297
vt 0.5672649 0.9128776
vt 0.5464078 0.9262732
vt 0.5464078 0.915529
vt 0.5249194 0.915529
vt 0.5249194 0.9262732
vt 0.5932915 0.8847615
vt 0.5674078 0.8847615
vt 0.5674078 0.8979475
vt 0.5932915 0.8979475
vt 0.517513 0.9287694
vt 0.5174707 0.9129173
vt 0.5044656 0.9129278
vt 0.5045079 0.9287799
vt 0.6081095 0.8849545
vt 0.6081062 0.8808362
vt 0.5926625 0.8808486
vt 0.5926658 0.8849669
vt 0.5926658 0.8849669
vt 0.5926625 0.8808486
vt 0.5669231 0.8808693
vt 0.5669265 0.8849876
vt 0.5228455 0.9074387
vt 0.5488559 0.907418
vt 0.5488207 0.8942078
vt 0.5228103 0.8942286
vn 1.927079E-06 -0.7071052 -0.7071083
vn 1.927079E-06 -0.7071052 -0.7071083
vn 1.927079E-06 -0.7071052 -0.7071083
vn 1.927079E-06 -0.7071052 -0.7071083
vn 2.441406E-06 -1 0
vn 2.441406E-06 -1 0
vn 2.441406E-06 -1 0
vn 2.441406E-06 -1 0
vn 1 3.702825E-06 4.316138E-07
vn 1 3.702825E-06 4.316138E-07
vn 1 3.702825E-06 4.316138E-07
vn 1 3.702825E-06 4.316138E-07
vn 1.47605E-06 -0.7071065 0.7071071
vn 1.47605E-06 -0.7071065 0.7071071
vn 1.47605E-06 -0.7071065 0.7071071
vn 1.47605E-06 -0.7071065 0.7071071
vn -1 1.614586E-06 0
vn -1 1.614586E-06 0
vn -1 1.614586E-06 0
vn -1 1.614586E-06 0
vn 0 -1.52588E-07 1
vn 0 -1.52588E-07 1
vn 0 -1.52588E-07 1
vn 0 -1.52588E-07 1
vn -9.895817E-07 0.7071071 0.7071065
vn -9.895817E-07 0.7071071 0.7071065
vn -9.895817E-07 0.7071071 0.7071065
vn -9.895817E-07 0.7071071 0.7071065
vn 1 0 0
vn 1 0 0
vn 1 0 0
vn 1 0 0
vn -1 -6.673184E-06 -2.014074E-06
vn -1 -6.673184E-06 -2.014074E-06
vn -1 -6.673184E-06 -2.014074E-06
vn -1 -6.673184E-06 -2.014074E-06
vn -1.508104E-06 0.7071105 -0.7071031
vn -1.508104E-06 0.7071105 -0.7071031
vn -1.508104E-06 0.7071105 -0.7071031
vn -1.508104E-06 0.7071105 -0.7071031
vn -3.173832E-06 1 0
vn -3.173832E-06 1 0
vn -3.173832E-06 1 0
vn -3.173832E-06 1 0
g royale_trash_can_big_lod1_A_0
f 3/3/3 2/2/2 1/1/1
f 4/4/4 3/3/3 1/1/1
f 7/7/7 6/6/6 5/5/5
f 8/8/8 7/7/7 5/5/5
f 11/11/11 10/10/10 9/9/9
f 12/12/12 11/11/11 9/9/9
f 15/15/15 14/14/14 13/13/13
f 16/16/16 15/15/15 13/13/13
f 19/19/19 18/18/18 17/17/17
f 20/20/20 19/19/19 17/17/17
f 23/23/23 22/22/22 21/21/21
f 24/24/24 23/23/23 21/21/21
f 27/27/27 26/26/26 25/25/25
f 28/28/28 27/27/27 25/25/25
f 31/31/31 30/30/30 29/29/29
f 32/32/32 31/31/31 29/29/29
f 35/35/35 34/34/34 33/33/33
f 36/36/36 35/35/35 33/33/33
f 39/39/39 38/38/38 37/37/37
f 40/40/40 39/39/39 37/37/37
f 43/43/43 42/42/42 41/41/41
f 44/44/44 43/43/43 41/41/41
