g royale_city_buildings_mesh_5
v 8.871719 -2.056122E-05 -49.4799
v 8.871715 11.11797 -49.47991
v 8.871718 11.11797 -39.47991
v 8.871727 -1.847744E-06 -39.4799
v 8.871727 -1.847744E-06 -39.4799
v 8.871718 11.11797 -39.47991
v 23.82688 11.11797 -39.47993
v 23.82689 1.966953E-06 -39.47992
v 23.82689 1.966953E-06 -39.47992
v 23.82688 11.11797 -39.47993
v 23.82688 11.11797 -49.47993
v 23.82689 -1.682281E-05 -49.47993
v 8.871719 -2.056122E-05 -49.4799
v 23.82689 -1.682281E-05 -49.47993
v 23.82688 11.11797 -49.47993
v 8.871715 11.11797 -49.47991
v 23.85426 11.11796 -49.50606
v 23.85426 11.11797 -39.47991
v 8.871718 11.11797 -39.47991
v 8.871718 11.11796 -49.50606
vt 0.5429877 0.4648526
vt 0.5429877 0.7278911
vt 0.9884152 0.7278911
vt 0.9884152 0.4648526
vt 0.5429877 0.4648526
vt 0.5429877 0.7278911
vt 0.9884152 0.7278911
vt 0.9884152 0.4648526
vt 0.5429877 0.4648526
vt 0.5429877 0.7278911
vt 0.9884152 0.7278911
vt 0.9884152 0.4648526
vt 0.5429877 0.4648526
vt 0.9884152 0.4648526
vt 0.9884152 0.7278911
vt 0.5429877 0.7278911
vt -8.371722 -50.86322
vt -8.37172 -40.83706
vt 6.61082 -40.83706
vt 6.61082 -50.86322
vn -1 -6.86221E-07 1.449162E-06
vn -1 0 7.629397E-07
vn -1 -6.86221E-07 1.449162E-06
vn -1 -6.86221E-07 1.449162E-06
vn 1.530453E-06 6.862231E-07 1
vn 1.530453E-06 6.862231E-07 1
vn 1.530453E-06 6.862231E-07 1
vn 1.530453E-06 6.862231E-07 1
vn 1 0 -7.629395E-07
vn 1 6.862221E-07 0
vn 1 0 -7.629395E-07
vn 1 0 -7.629395E-07
vn 0 0 -1
vn 0 0 -1
vn 0 0 -1
vn 0 0 -1
vn 0 1 -3.043798E-07
vn 0 1 -3.043798E-07
vn 0 1 -3.043798E-07
vn 0 1 -3.043798E-07
g royale_city_buildings_mesh_5_0
f 3/3/3 2/2/2 1/1/1
f 4/4/4 3/3/3 1/1/1
f 7/7/7 6/6/6 5/5/5
f 8/8/8 7/7/7 5/5/5
f 11/11/11 10/10/10 9/9/9
f 12/12/12 11/11/11 9/9/9
f 15/15/15 14/14/14 13/13/13
f 16/16/16 15/15/15 13/13/13
g royale_city_buildings_mesh_5_1
f 19/19/19 18/18/18 17/17/17
f 20/20/20 19/19/19 17/17/17
