g royale_city02_buildings_mesh_1
v -65.03498 -3.374218 -6.116382E-05
v -65.0349 -3.403873 14.99997
v -65.03491 11.57867 14.99996
v -65.03498 11.60832 -6.052844E-05
v -65.03498 11.60832 -6.052844E-05
v -65.03491 11.57867 14.99996
v -75.06107 11.57867 14.99996
v -75.06112 11.60832 -6.049447E-05
v -75.06112 -3.374217 -6.113402E-05
v -75.06106 -3.403871 14.99996
v -65.0349 -3.403873 14.99997
v -65.03498 -3.374218 -6.116382E-05
v -75.06112 -3.374217 -6.113402E-05
v -75.06112 11.60832 -6.049447E-05
v -75.06107 11.57867 14.99996
v -75.06106 -3.403871 14.99996
v -75.06107 11.57867 14.99996
v -65.03491 11.57867 14.99996
v -65.0349 -3.403873 14.99997
v -75.06106 -3.403871 14.99996
vt 0.9824218 0.0004625812
vt 0.9824218 0.2255859
vt 0.734375 0.2255859
vt 0.734375 0.0004625812
vt 0.7167969 0
vt 0.7167969 0.2255859
vt 0.8672486 0.2255859
vt 0.8672486 0
vt 0.7167969 7.043127E-09
vt 0.7167969 0.2255859
vt 0.8672486 0.2255859
vt 0.8672486 7.043127E-09
vt 0.7343751 0.0004625956
vt 0.9824218 0.0004625956
vt 0.9824218 0.2255859
vt 0.7343751 0.2255859
vt -4.513084 7.991272
vt 5.513069 7.991272
vt 5.513077 -6.991273
vt -4.513077 -6.991269
vn 1 3.258998E-07 -4.55664E-06
vn 1 3.258998E-07 -4.556639E-06
vn 1 3.258998E-07 -4.55664E-06
vn 1 3.258998E-07 -4.556639E-06
vn -1.827896E-07 0.9999981 0.001976841
vn -1.827897E-07 0.9999981 0.00197684
vn -1.827896E-07 0.9999981 0.001976841
vn -1.827897E-07 0.9999981 0.001976841
vn -1.823838E-07 -0.9999981 -0.001976983
vn -1.823838E-07 -0.9999981 -0.001976983
vn -1.823838E-07 -0.9999981 -0.001976983
vn -1.823838E-07 -0.9999981 -0.001976983
vn -1 -3.259001E-07 3.9056E-06
vn -1 -3.259001E-07 3.9056E-06
vn -1 -3.259001E-07 3.905599E-06
vn -1 -3.259001E-07 3.9056E-06
vn -1.826279E-07 1.222124E-07 1
vn -1.826279E-07 1.222124E-07 1
vn -1.826279E-07 1.222124E-07 1
vn -1.826279E-07 1.222124E-07 1
g royale_city02_buildings_mesh_1_0
f 3/3/3 2/2/2 1/1/1
f 4/4/4 3/3/3 1/1/1
f 7/7/7 6/6/6 5/5/5
f 8/8/8 7/7/7 5/5/5
f 11/11/11 10/10/10 9/9/9
f 12/12/12 11/11/11 9/9/9
f 15/15/15 14/14/14 13/13/13
f 16/16/16 15/15/15 13/13/13
g royale_city02_buildings_mesh_1_1
f 19/19/19 18/18/18 17/17/17
f 20/20/20 19/19/19 17/17/17
