g royale_villagehouses_2_inner_mesh_lod00
v -4.500005 3.816064 3.332138
v -4.500004 3.816064 3.707134
v -4.500005 3.816064 1.207137
v 4.499993 -4.496436 3.707135
v 4.499991 -4.496436 1.207136
v 4.499992 -4.000001 1.207136
v 4.499994 -4.000001 3.707135
v 4.499991 -4.496436 0.3321381
v 4.499992 -4.000001 0.3321382
v 4.499994 -1.246436 0.3321393
v 4.499994 -1.246436 1.207137
v 4.499994 -4.496436 4.082133
v 4.499994 -4.000001 4.082133
v 4.499996 3.999999 4.082131
v 4.499996 3.999999 3.707134
v 4.499996 4.503564 4.082131
v 4.499996 4.503564 3.707134
v 4.499993 4.503564 1.207137
v 4.499993 3.999999 1.207137
v 4.499992 4.503564 0.3321368
v 4.499992 3.999999 0.3321371
v 4.499995 1.253564 0.3321393
v 4.499995 1.253564 1.207137
v 4.499995 1.253564 3.332139
v 4.499994 -1.246436 3.332139
v 3.999991 -4.496436 0.3321382
v 4.499991 -4.496436 0.3321381
v 4.499991 -4.496436 1.207136
v 3.999991 -4.496436 1.207137
v -4.000006 -4.496436 0.3321404
v -4.000006 -4.496435 1.207137
v -4.500007 -4.496436 0.3321405
v -4.500007 -4.496436 1.207137
v -4.500006 -4.496436 3.707135
v -4.000007 -4.496436 3.707135
v -4.500006 -4.496436 4.082137
v -4.000007 -4.496436 4.082137
v 3.999991 -4.496436 4.082134
v 3.999991 -4.496436 3.707135
v 4.499994 -4.496436 4.082133
v 4.499993 -4.496436 3.707135
v 4.499995 1.253564 0.3321393
v 4.999996 1.253564 0.3321381
v 4.999996 -1.246436 0.3321381
v 4.499994 -1.246436 0.3321393
v -5.000005 3.816064 0.3321378
v -4.500005 3.816064 0.332139
v -4.500006 1.31606 0.332139
v -5.000006 1.31606 0.3321378
v 3.999992 4.003564 0.332137
v 3.999991 -3.996436 0.3321381
v -4.000007 -3.996435 0.3321403
v -4.000005 4.003564 0.3321381
v -4.500005 4.503564 0.3321381
v -4.500007 -4.496436 0.3321405
v 4.499991 -4.496436 0.3321381
v 4.499992 4.503564 0.3321368
v 0.3861004 0.3909174 4.000298
v -0.3886065 0.3909195 4.000298
v -0.3886065 -0.3837973 4.000298
v 0.3861004 -0.3837994 4.000298
v -4.500007 -4.496436 0.3321405
v -4.500007 -4.496436 1.207137
v -4.500006 -3.999999 1.207137
v -4.500006 -3.999999 0.3321404
v -4.500006 1.31606 0.332139
v -4.500006 1.31606 1.207136
v -4.500006 -3.999999 3.707135
v -4.500007 -2.433935 1.207139
v -4.500007 -2.433935 3.707135
v -4.500006 -4.496436 3.707135
v -4.500006 -4.496436 4.082137
v -4.500006 -3.999999 4.082137
v -4.500007 -2.433935 3.707138
v -4.500005 0.06606445 3.707138
v -4.500004 3.816064 3.707134
v -4.500004 3.816065 4.082135
v -4.500003 4.503564 4.082134
v -4.500003 4.503564 3.707134
v -4.500004 4.503564 1.207136
v -4.500005 3.816064 1.207137
v -4.500005 3.816064 0.332139
v -4.500005 4.503564 0.3321381
v -4.500006 1.31606 3.332138
v -4.500005 0.06608283 3.707135
v -4.500005 3.816064 3.332138
v -4.500005 0.06606445 3.707135
v -4.500006 0.06606445 1.207139
v -4.500004 3.816064 3.707134
v -4.000005 4.503564 1.207136
v -4.000005 4.503564 3.707135
v 1.749995 4.503565 3.707135
v 1.749995 4.503565 1.207136
v -4.000004 4.503564 4.082134
v -4.500003 4.503564 4.082134
v -4.500003 4.503564 3.707134
v 4.249995 4.503564 4.082132
v -4.500004 4.503564 1.207136
v -4.000005 4.503564 0.3321381
v 4.249995 4.503564 0.3321369
v 4.249995 4.503564 1.207136
v 4.499993 4.503564 1.207137
v 4.499992 4.503564 0.3321368
v -4.500005 4.503564 0.3321381
v 4.499996 4.503564 3.707134
v 4.249995 4.503564 3.707135
v 4.499996 4.503564 4.082131
v -3.500004 3.503564 4.075894
v -3.500005 -3.496435 4.075894
v 3.499992 -3.496435 4.075894
v 3.499993 3.503564 4.075894
v -4.500003 4.503564 4.075894
v 4.499993 4.503564 4.075894
v 4.499992 -4.496435 4.075894
v -4.500005 -4.496436 4.075894
v -4.500006 -3.999999 1.207137
v -4.500007 -2.433935 1.207139
v -4.500006 0.06606445 1.207139
v -4.500006 -3.999999 1.207137
v -4.500006 0.06606445 1.207139
v -4.500006 1.31606 1.207136
v -0.6435122 -3.390891 1.299496
v -0.6436149 -4.496435 1.299496
v 0.7383378 -4.496504 1.299496
v 0.7384241 -3.390947 1.299496
v 0.6010613 -3.668647 1.299496
v 0.6010613 -3.668647 0.3321348
v 0.478221 -3.66835 0.3321348
v 0.478221 -3.66835 1.299496
v 0.6013927 -3.530477 1.299496
v 0.6013927 -3.530477 0.3321348
v 0.6010613 -3.668647 0.3321348
v 0.6010613 -3.668647 1.299496
v 0.7384241 -3.390947 1.299496
v 0.7383378 -4.496504 1.299496
v 0.7383488 -4.496504 1.437691
v 0.7384241 -3.390947 1.437691
v -0.3813154 -3.528067 1.299496
v -0.3813154 -3.528067 0.3321348
v -0.3816523 -3.666266 0.3321348
v -0.3816523 -3.666266 1.299496
v 0.478558 -3.530168 1.299496
v 0.478221 -3.66835 1.299496
v 0.478221 -3.66835 0.3321348
v 0.478558 -3.530168 0.3321348
v 0.4768686 -4.221127 1.299496
v 0.4765155 -4.359318 1.299496
v 0.4765155 -4.359318 0.3321348
v 0.4768686 -4.221127 0.3321348
v -0.5058482 -4.218728 1.299496
v -0.506183 -4.356912 1.299496
v -0.506183 -4.356912 0.3321348
v -0.5058482 -4.218728 0.3321348
v -0.5041528 -3.527756 1.299496
v -0.5044928 -3.665953 1.299496
v -0.5044928 -3.665953 0.3321348
v -0.5041528 -3.527756 0.3321348
v -0.6436021 -4.496435 1.437691
v -0.6436149 -4.496435 1.299496
v -0.6435122 -3.390891 1.299496
v -0.6435122 -3.390891 1.437691
v -0.5044928 -3.665953 1.299496
v -0.3816523 -3.666266 1.299496
v -0.3816523 -3.666266 0.3321348
v -0.5044928 -3.665953 0.3321348
v -0.6435122 -3.390891 1.437691
v -0.6435122 -3.390891 1.299496
v 0.7384241 -3.390947 1.299496
v 0.7384241 -3.390947 1.437691
v -0.3830076 -4.219025 1.299496
v -0.3830076 -4.219025 0.3321348
v -0.3833488 -4.357222 0.3321348
v -0.3833488 -4.357222 1.299496
v -0.3813154 -3.528067 0.3321348
v -0.3813154 -3.528067 1.299496
v -0.5041528 -3.527756 1.299496
v -0.5041528 -3.527756 0.3321348
v -0.3830076 -4.219025 0.3321348
v -0.3830076 -4.219025 1.299496
v -0.5058482 -4.218728 1.299496
v -0.5058482 -4.218728 0.3321348
v 0.478558 -3.530168 0.3321348
v 0.6013927 -3.530477 0.3321348
v 0.6013927 -3.530477 1.299496
v 0.478558 -3.530168 1.299496
v 0.4768686 -4.221127 0.3321348
v 0.5996972 -4.22145 0.3321348
v 0.5996972 -4.22145 1.299496
v 0.4768686 -4.221127 1.299496
v 0.5996972 -4.22145 1.299496
v 0.5996972 -4.22145 0.3321348
v 0.5993683 -4.35962 0.3321348
v 0.5993683 -4.35962 1.299496
v -0.6435122 -3.390891 1.437691
v 0.7384241 -3.390947 1.437691
v 0.7383488 -4.496504 1.437691
v -0.6436021 -4.496435 1.437691
vt 0.3613281 0.8886719
vt 0.3613281 0.9003906
vt 0.3613281 0.8222656
vt 0.3027344 0.9003906
vt 0.3027344 0.8222656
vt 0.2872208 0.8222655
vt 0.2872208 0.9003906
vt 0.3027344 0.7949219
vt 0.2872208 0.7949219
vt 0.2011719 0.7949219
vt 0.2011719 0.8222655
vt 0.3027344 0.9121093
vt 0.2872208 0.9121093
vt 0.03722078 0.9121093
vt 0.03722078 0.9003907
vt 0.02148438 0.9121093
vt 0.02148438 0.9003907
vt 0.02148438 0.8222656
vt 0.03722078 0.8222656
vt 0.02148438 0.7949219
vt 0.03722078 0.7949219
vt 0.1230469 0.7949219
vt 0.1230469 0.8222655
vt 0.1230469 0.8886719
vt 0.2011719 0.8886719
vt 0.671875 0.7167969
vt 0.65625 0.7167969
vt 0.65625 0.7441406
vt 0.671875 0.7441406
vt 0.921875 0.7167969
vt 0.9218749 0.7441405
vt 0.9375 0.7167969
vt 0.9375 0.7441405
vt 0.9375 0.8222656
vt 0.9218751 0.8222656
vt 0.9375 0.8339844
vt 0.9218751 0.8339844
vt 0.6718751 0.8339844
vt 0.6718751 0.8222656
vt 0.65625 0.8339844
vt 0.65625 0.8222656
vt 0.7695313 0.3964844
vt 0.7695313 0.4121094
vt 0.8476563 0.4121094
vt 0.8476563 0.3964844
vt 0.6894531 0.09960938
vt 0.6894531 0.1152344
vt 0.7675782 0.1152344
vt 0.7675782 0.09960937
vt 0.6835938 0.3808594
vt 0.9335938 0.3808594
vt 0.9335938 0.1308594
vt 0.6835938 0.1308594
vt 0.6679688 0.1152344
vt 0.9492188 0.1152344
vt 0.9492188 0.3964844
vt 0.6679688 0.3964844
vt 0.953125 0.07617188
vt 0.984375 0.07617188
vt 0.984375 0.046875
vt 0.953125 0.046875
vt 0.6210938 0.7949219
vt 0.6210938 0.8222655
vt 0.6055801 0.8222654
vt 0.6055801 0.7949219
vt 0.4394532 0.7949219
vt 0.4394532 0.8222655
vt 0.6055801 0.9003906
vt 0.5566406 0.8222656
vt 0.5566406 0.9003906
vt 0.6210938 0.9003906
vt 0.6210938 0.9121094
vt 0.6055801 0.9121094
vt 0.5566406 0.9003906
vt 0.4785156 0.9003906
vt 0.3613281 0.9003906
vt 0.3613281 0.9121094
vt 0.3398438 0.9121094
vt 0.3398438 0.9003906
vt 0.3398438 0.8222656
vt 0.3613281 0.8222656
vt 0.3613281 0.7949219
vt 0.3398438 0.7949219
vt 0.4394532 0.8886719
vt 0.4785151 0.9003906
vt 0.3613281 0.8886719
vt 0.4785157 0.9003906
vt 0.4785156 0.8222656
vt 0.3613281 0.9003906
vt 0.9218749 0.8886719
vt 0.921875 0.9667969
vt 0.7421875 0.9667969
vt 0.7421875 0.8886719
vt 0.921875 0.9785156
vt 0.9375 0.9785156
vt 0.9375 0.9667969
vt 0.6640626 0.9785156
vt 0.9375 0.8886719
vt 0.9218751 0.8613281
vt 0.6640624 0.8613281
vt 0.6640625 0.8886719
vt 0.65625 0.8886719
vt 0.65625 0.8613281
vt 0.9375 0.8613281
vt 0.65625 0.966797
vt 0.6640625 0.9667969
vt 0.65625 0.9785156
vt 0.6992188 0.6660156
vt 0.9179688 0.6660156
vt 0.9179688 0.4472656
vt 0.6992188 0.4472656
vt 0.6679688 0.6972656
vt 0.6679688 0.4160156
vt 0.9492188 0.4160156
vt 0.9492188 0.6972656
vt 0.6055801 0.8222654
vt 0.5566406 0.8222656
vt 0.4785156 0.8222656
vt 0.6055801 0.8222654
vt 0.4785156 0.8222656
vt 0.4394532 0.8222655
vt 0.4824219 0.046875
vt 0.4824219 0.015625
vt 0.4453125 0.015625
vt 0.4453125 0.046875
vt 0.4824219 0.0234375
vt 0.4550781 0.0234375
vt 0.4550781 0.02734375
vt 0.4824219 0.02734375
vt 0.4824219 0.01953125
vt 0.4550781 0.01953125
vt 0.4550781 0.0234375
vt 0.4824219 0.0234375
vt 0.4453125 0.046875
vt 0.4453125 0.015625
vt 0.4414063 0.015625
vt 0.4414063 0.046875
vt 0.4804688 0.02734375
vt 0.4550781 0.02734375
vt 0.4550781 0.03125
vt 0.4804688 0.03125
vt 0.4824219 0.03125
vt 0.4824219 0.02734375
vt 0.4550781 0.02734375
vt 0.4550781 0.03125
vt 0.4824219 0.01953125
vt 0.4824219 0.015625
vt 0.4550781 0.015625
vt 0.4550781 0.01953125
vt 0.4804688 0.03125
vt 0.4804688 0.02734375
vt 0.4550781 0.02734375
vt 0.4550781 0.03125
vt 0.4804688 0.0234375
vt 0.4804688 0.01953125
vt 0.4550781 0.01953125
vt 0.4550781 0.0234375
vt 0.4863281 0.015625
vt 0.4824219 0.015625
vt 0.4824219 0.046875
vt 0.4863281 0.046875
vt 0.4804688 0.01953125
vt 0.4804688 0.015625
vt 0.4550781 0.015625
vt 0.4550781 0.01953125
vt 0.4824219 0.05078125
vt 0.4824219 0.046875
vt 0.4453125 0.046875
vt 0.4453125 0.05078125
vt 0.4804688 0.01953125
vt 0.4550781 0.01953125
vt 0.4550781 0.0234375
vt 0.4804688 0.0234375
vt 0.4550781 0.02734375
vt 0.4804688 0.02734375
vt 0.4804688 0.0234375
vt 0.4550781 0.0234375
vt 0.4550781 0.01953125
vt 0.4804688 0.01953125
vt 0.4804688 0.015625
vt 0.4550781 0.015625
vt 0.4550781 0.015625
vt 0.4550781 0.01953125
vt 0.4824219 0.01953125
vt 0.4824219 0.015625
vt 0.4550781 0.01953125
vt 0.4550781 0.0234375
vt 0.4824219 0.0234375
vt 0.4824219 0.01953125
vt 0.4824219 0.0234375
vt 0.4550781 0.0234375
vt 0.4550781 0.02734375
vt 0.4824219 0.02734375
vt 0.4453125 0.046875
vt 0.4824219 0.046875
vt 0.4824219 0.015625
vt 0.4453125 0.015625
vn 0.5189773 -0.8547881 -1.490628E-07
vn 0.5189773 -0.854788 -1.490628E-07
vn 0.5189773 -0.854788 -1.490628E-07
vn -1 6.147346E-07 8.544926E-07
vn -1 6.147346E-07 8.544926E-07
vn -1 6.147346E-07 8.544926E-07
vn -1 6.147346E-07 8.544926E-07
vn -1 9.221017E-07 1.743865E-07
vn -1 9.97464E-07 0
vn -1 9.974641E-07 0
vn -1 9.974641E-07 0
vn -1 6.147346E-07 8.138057E-07
vn -1 2.67029E-07 8.138068E-07
vn -1 0 8.138079E-07
vn -1 0 8.138079E-07
vn -1 0 8.138079E-07
vn -1 0 8.13808E-07
vn -1 -6.060303E-07 6.975448E-07
vn -1 -6.060303E-07 6.975448E-07
vn -1 -6.060303E-07 6.975449E-07
vn -1 -6.060303E-07 6.975449E-07
vn -1 -7.778194E-07 3.487729E-07
vn -1 -7.778194E-07 3.48773E-07
vn -1 2.615792E-07 4.093921E-07
vn -1 2.615792E-07 4.093921E-07
vn 0 1 0
vn 0 1 0
vn 0 1 0
vn 0 1 0
vn -3.051757E-07 1 -1.743869E-07
vn -3.051759E-07 1 0
vn -3.051757E-07 1 -1.74387E-07
vn -3.051759E-07 1 0
vn -3.051759E-07 1 0
vn -3.051759E-07 1 0
vn 0 1 0
vn 0 1 0
vn 0 1 0
vn 0 1 0
vn 0 1 0
vn 0 1 0
vn 2.441401E-06 0 1
vn 2.441401E-06 0 1
vn 2.441401E-06 0 1
vn 2.441401E-06 0 1
vn -2.441406E-06 0 1
vn -2.441406E-06 0 1
vn -2.441406E-06 0 1
vn -2.441406E-06 0 1
vn 2.0504E-07 2.050399E-07 1
vn 2.0504E-07 2.050399E-07 1
vn 2.0504E-07 2.050399E-07 1
vn 2.050401E-07 2.050399E-07 1
vn 1.907349E-07 2.760046E-07 1
vn 1.907349E-07 2.760046E-07 1
vn 2.760047E-07 1.907349E-07 1
vn 1.907349E-07 1.323924E-07 1
vn 0 0 -1
vn 0 0 -1
vn 0 0 -1
vn 0 0 -1
vn 1 -6.147333E-07 0
vn 1 -6.147332E-07 0
vn 1 -6.147332E-07 0
vn 1 -6.147332E-07 0
vn 1 -1.148128E-07 0
vn 1 -1.148128E-07 0
vn 1 -6.147333E-07 0
vn 1 5.846043E-07 -2.441409E-07
vn 1 5.846043E-07 -2.441409E-07
vn 1 -6.147333E-07 0
vn 1 -6.147333E-07 0
vn 1 -6.147333E-07 0
vn 1 5.846041E-07 0
vn 1 0 0
vn 1 -3.417978E-07 -1.790372E-06
vn 1 -6.658386E-07 -4.069006E-07
vn 1 -6.658386E-07 -4.069006E-07
vn 1 -6.658386E-07 -4.069005E-07
vn 1 -1.10973E-06 -1.743866E-07
vn 1 -1.10973E-06 -1.743866E-07
vn 1 -1.10973E-06 -1.743866E-07
vn 1 -1.10973E-06 -1.743866E-07
vn 1 -3.417978E-07 -1.790372E-06
vn 1 -3.417977E-07 -1.790372E-06
vn 1 -3.417977E-07 -1.790372E-06
vn 1 0 0
vn 1 -2.441384E-07 -2.441393E-07
vn 1 -3.255226E-07 -1.959748E-06
vn 0 -1 0
vn 0 -1 0
vn 0 -1 0
vn 0 -1 0
vn 3.051764E-07 -1 -4.069015E-07
vn 3.051764E-07 -1 -4.069015E-07
vn 3.051764E-07 -1 -4.069015E-07
vn 0 -1 0
vn 0 -1 0
vn 0 -1 5.353256E-07
vn 0 -1 0
vn 0 -1 0
vn 0 -1 0
vn 0 -1 0
vn 0 -1 0
vn 0 -1 0
vn 0 -1 0
vn 0 -1 0
vn 0 0 -1
vn 0 0 -1
vn 0 0 -1
vn 0 0 -1
vn 0 0 -1
vn 0 0 -1
vn 0 0 -1
vn 0 0 -1
vn 0.7749143 -3.783761E-07 0.6320663
vn 0.7749143 -3.783761E-07 0.6320664
vn 0.7749143 -3.783761E-07 0.6320663
vn 0.9972534 -1.123715E-07 0.07406639
vn 0.9972534 -1.123715E-07 0.07406639
vn 0.9972534 -1.123715E-07 0.07406639
vn 0 0 -1
vn 0 0 -1
vn 0 0 -1
vn 0 0 -1
vn -0.002414762 -0.9999971 0
vn -0.002414762 -0.9999971 0
vn -0.002414762 -0.9999971 0
vn -0.002414762 -0.9999971 0
vn 0.9999971 -0.002398923 0
vn 0.9999971 -0.002398923 0
vn 0.9999971 -0.002398923 0
vn 0.9999971 -0.002398923 0
vn 1 -7.301201E-05 -3.974954E-05
vn 1 -7.301201E-05 -3.974954E-05
vn 1 -7.301201E-05 -3.974954E-05
vn 1 -7.301201E-05 -3.974954E-05
vn 0.999997 -0.002437881 0
vn 0.999997 -0.002437881 0
vn 0.999997 -0.002437881 0
vn 0.999997 -0.002437881 0
vn -0.999997 0.002438453 0
vn -0.999997 0.002438453 0
vn -0.999997 0.002438453 0
vn -0.999997 0.002438453 0
vn -0.9999968 0.002555057 0
vn -0.9999968 0.002555057 0
vn -0.9999968 0.002555057 0
vn -0.9999968 0.002555057 0
vn -0.9999971 0.002422691 0
vn -0.9999971 0.002422691 0
vn -0.9999971 0.002422691 0
vn -0.9999971 0.002422691 0
vn -0.999997 0.002460001 0
vn -0.999997 0.002460001 0
vn -0.999997 0.002460001 0
vn -0.999997 0.002460001 0
vn -1 8.709109E-05 4.637445E-05
vn -1 8.709109E-05 4.637445E-05
vn -1 8.709109E-05 4.637445E-05
vn -1 8.709109E-05 4.637445E-05
vn -0.002548908 -0.9999968 0
vn -0.002548908 -0.9999968 0
vn -0.002548908 -0.9999968 0
vn -0.002548908 -0.9999968 0
vn 3.99706E-05 1 0
vn 3.99706E-05 1 0
vn 3.99706E-05 1 0
vn 3.99706E-05 1 0
vn 0.999997 -0.002468833 0
vn 0.999997 -0.002468833 0
vn 0.999997 -0.002468833 0
vn 0.999997 -0.002468833 0
vn 0.002531581 0.9999968 0
vn 0.002531581 0.9999968 0
vn 0.002531581 0.9999968 0
vn 0.002531581 0.9999968 0
vn 0.002412271 0.9999971 0
vn 0.002412271 0.9999971 0
vn 0.002412271 0.9999971 0
vn 0.002412271 0.9999971 0
vn 0.002519215 0.9999969 0
vn 0.002519215 0.9999969 0
vn 0.002519215 0.9999969 0
vn 0.002519215 0.9999969 0
vn 0.00262866 0.9999965 0
vn 0.00262866 0.9999965 0
vn 0.00262866 0.9999965 0
vn 0.00262866 0.9999965 0
vn 0.9999971 -0.002380961 0
vn 0.9999971 -0.002380961 0
vn 0.9999971 -0.002380961 0
vn 0.9999971 -0.002380961 0
vn 0 0 1
vn 0 0 1
vn 0 0 1
vn 0 0 1
g royale_villagehouses_2_inner_mesh_lod00_0
f 3/3/3 2/2/2 1/1/1
f 6/6/6 5/5/5 4/4/4
f 7/7/7 6/6/6 4/4/4
f 5/5/5 6/6/6 8/8/8
f 6/6/6 9/9/9 8/8/8
f 9/9/9 6/6/6 10/10/10
f 6/6/6 11/11/11 10/10/10
f 7/7/7 4/4/4 12/12/12
f 13/13/13 7/7/7 12/12/12
f 7/7/7 13/13/13 14/14/14
f 15/15/15 7/7/7 14/14/14
f 15/15/15 14/14/14 16/16/16
f 17/17/17 15/15/15 16/16/16
f 15/15/15 17/17/17 18/18/18
f 19/19/19 15/15/15 18/18/18
f 19/19/19 18/18/18 20/20/20
f 21/21/21 19/19/19 20/20/20
f 19/19/19 21/21/21 22/22/22
f 23/23/23 19/19/19 22/22/22
f 19/19/19 23/23/23 15/15/15
f 23/23/23 24/24/24 15/15/15
f 7/7/7 15/15/15 24/24/24
f 25/25/25 7/7/7 24/24/24
f 6/6/6 7/7/7 25/25/25
f 11/11/11 6/6/6 25/25/25
f 28/28/28 27/27/27 26/26/26
f 29/29/29 28/28/28 26/26/26
f 29/29/29 26/26/26 30/30/30
f 31/31/31 29/29/29 30/30/30
f 31/31/31 30/30/30 32/32/32
f 33/33/33 31/31/31 32/32/32
f 31/31/31 33/33/33 34/34/34
f 35/35/35 31/31/31 34/34/34
f 31/31/31 35/35/35 29/29/29
f 35/35/35 34/34/34 36/36/36
f 37/37/37 35/35/35 36/36/36
f 35/35/35 37/37/37 38/38/38
f 39/39/39 35/35/35 38/38/38
f 35/35/35 39/39/39 29/29/29
f 29/29/29 39/39/39 28/28/28
f 39/39/39 38/38/38 40/40/40
f 41/41/41 39/39/39 40/40/40
f 39/39/39 41/41/41 28/28/28
f 44/44/44 43/43/43 42/42/42
f 45/45/45 44/44/44 42/42/42
f 48/48/48 47/47/47 46/46/46
f 49/49/49 48/48/48 46/46/46
f 52/52/52 51/51/51 50/50/50
f 53/53/53 52/52/52 50/50/50
f 52/52/52 53/53/53 54/54/54
f 55/55/55 52/52/52 54/54/54
f 51/51/51 52/52/52 55/55/55
f 56/56/56 51/51/51 55/55/55
f 50/50/50 51/51/51 56/56/56
f 57/57/57 50/50/50 56/56/56
f 53/53/53 50/50/50 57/57/57
f 54/54/54 53/53/53 57/57/57
f 60/60/60 59/59/59 58/58/58
f 61/61/61 60/60/60 58/58/58
f 64/64/64 63/63/63 62/62/62
f 65/65/65 64/64/64 62/62/62
f 64/64/64 65/65/65 66/66/66
f 67/67/67 64/64/64 66/66/66
f 64/64/64 68/68/68 63/63/63
f 64/64/64 69/69/69 68/68/68
f 69/69/69 70/70/70 68/68/68
f 68/68/68 71/71/71 63/63/63
f 71/71/71 68/68/68 72/72/72
f 68/68/68 73/73/73 72/72/72
f 73/73/73 68/68/68 70/70/70
f 74/74/74 73/73/73 70/70/70
f 73/73/73 74/74/74 75/75/75
f 76/76/76 73/73/73 75/75/75
f 77/77/77 73/73/73 76/76/76
f 77/77/77 76/76/76 78/78/78
f 76/76/76 79/79/79 78/78/78
f 79/79/79 76/76/76 80/80/80
f 80/80/80 76/76/76 81/81/81
f 80/80/80 81/81/81 82/82/82
f 83/83/83 80/80/80 82/82/82
f 76/76/76 85/85/85 84/84/84
f 86/86/86 76/76/76 84/84/84
f 75/75/75 87/87/87 85/85/85
f 87/87/87 88/88/88 85/85/85
f 88/88/88 67/67/67 85/85/85
f 84/84/84 85/85/85 67/67/67
f 85/85/85 89/89/89 75/75/75
f 92/92/92 91/91/91 90/90/90
f 93/93/93 92/92/92 90/90/90
f 94/94/94 91/91/91 92/92/92
f 91/91/91 94/94/94 95/95/95
f 96/96/96 91/91/91 95/95/95
f 97/97/97 94/94/94 92/92/92
f 91/91/91 96/96/96 98/98/98
f 90/90/90 91/91/91 98/98/98
f 99/99/99 90/90/90 98/98/98
f 90/90/90 99/99/99 93/93/93
f 99/99/99 100/100/100 93/93/93
f 100/100/100 101/101/101 93/93/93
f 102/102/102 101/101/101 100/100/100
f 103/103/103 102/102/102 100/100/100
f 104/104/104 99/99/99 98/98/98
f 102/102/102 105/105/105 101/101/101
f 97/97/97 106/106/106 105/105/105
f 105/105/105 106/106/106 101/101/101
f 106/106/106 97/97/97 92/92/92
f 107/107/107 97/97/97 105/105/105
f 110/110/110 109/109/109 108/108/108
f 111/111/111 110/110/110 108/108/108
f 111/111/111 108/108/108 112/112/112
f 113/113/113 111/111/111 112/112/112
f 110/110/110 111/111/111 113/113/113
f 114/114/114 110/110/110 113/113/113
f 109/109/109 110/110/110 114/114/114
f 115/115/115 109/109/109 114/114/114
f 108/108/108 109/109/109 115/115/115
f 112/112/112 108/108/108 115/115/115
f 118/118/118 117/117/117 116/116/116
f 121/121/121 120/120/120 119/119/119
f 124/124/124 123/123/123 122/122/122
f 125/125/125 124/124/124 122/122/122
f 128/128/128 127/127/127 126/126/126
f 129/129/129 128/128/128 126/126/126
f 132/132/132 131/131/131 130/130/130
f 133/133/133 132/132/132 130/130/130
f 136/136/136 135/135/135 134/134/134
f 137/137/137 136/136/136 134/134/134
f 140/140/140 139/139/139 138/138/138
f 141/141/141 140/140/140 138/138/138
f 144/144/144 143/143/143 142/142/142
f 145/145/145 144/144/144 142/142/142
f 148/148/148 147/147/147 146/146/146
f 149/149/149 148/148/148 146/146/146
f 152/152/152 151/151/151 150/150/150
f 153/153/153 152/152/152 150/150/150
f 156/156/156 155/155/155 154/154/154
f 157/157/157 156/156/156 154/154/154
f 160/160/160 159/159/159 158/158/158
f 161/161/161 160/160/160 158/158/158
f 164/164/164 163/163/163 162/162/162
f 165/165/165 164/164/164 162/162/162
f 168/168/168 167/167/167 166/166/166
f 169/169/169 168/168/168 166/166/166
f 172/172/172 171/171/171 170/170/170
f 173/173/173 172/172/172 170/170/170
f 176/176/176 175/175/175 174/174/174
f 177/177/177 176/176/176 174/174/174
f 180/180/180 179/179/179 178/178/178
f 181/181/181 180/180/180 178/178/178
f 184/184/184 183/183/183 182/182/182
f 185/185/185 184/184/184 182/182/182
f 188/188/188 187/187/187 186/186/186
f 189/189/189 188/188/188 186/186/186
f 192/192/192 191/191/191 190/190/190
f 193/193/193 192/192/192 190/190/190
f 196/196/196 195/195/195 194/194/194
f 197/197/197 196/196/196 194/194/194
