g royale_city02_buildings_mesh_18
v 20.86887 -109.4285 -6.535761E-05
v 30.86885 -109.4285 -6.538384E-05
v 30.86887 -109.4582 9.124633
v 20.86889 -109.4582 9.124635
v 20.86886 -119.4285 -6.584398E-05
v 20.86887 -109.4285 -6.535761E-05
v 20.86889 -109.4582 9.124635
v 20.8689 -119.4582 9.124631
v 30.86885 -119.4285 -6.586187E-05
v 20.86886 -119.4285 -6.584398E-05
v 20.8689 -119.4582 9.124631
v 30.86888 -119.4582 9.124628
v 30.86885 -109.4285 -6.538384E-05
v 30.86885 -119.4285 -6.586187E-05
v 30.86888 -119.4582 9.124628
v 30.86887 -109.4582 9.124633
v 30.86891 -109.4582 14.78413
v 20.86892 -109.4582 14.78414
v 20.8689 -109.4582 13.74855
v 30.86889 -109.4582 13.74855
v 20.86892 -109.4582 14.78414
v 20.86891 -119.4582 14.78413
v 20.8689 -119.4582 13.74855
v 20.8689 -109.4582 13.74855
v 20.86891 -119.4582 14.78413
v 30.86891 -119.4582 14.78413
v 30.86889 -119.4582 13.74854
v 20.8689 -119.4582 13.74855
v 30.86891 -119.4582 14.78413
v 30.86891 -109.4582 14.78413
v 30.86889 -109.4582 13.74855
v 30.86889 -119.4582 13.74854
v 30.86887 -109.4582 9.124633
v 30.86889 -109.4582 13.74855
v 20.8689 -109.4582 13.74855
v 20.86889 -109.4582 9.124635
v 20.86889 -109.4582 9.124635
v 20.8689 -109.4582 13.74855
v 20.8689 -119.4582 13.74855
v 20.8689 -119.4582 9.124631
v 20.8689 -119.4582 9.124631
v 20.8689 -119.4582 13.74855
v 30.86889 -119.4582 13.74854
v 30.86888 -119.4582 9.124628
v 30.86888 -119.4582 9.124628
v 30.86889 -119.4582 13.74854
v 30.86889 -109.4582 13.74855
v 30.86887 -109.4582 9.124633
v 20.86891 -119.4582 14.78413
v 20.86892 -109.4582 14.78414
v 30.86891 -109.4582 14.78413
v 30.86891 -119.4582 14.78413
vt 0.2246094 0
vt 0.05859375 0
vt 0.05859388 0.1425729
vt 0.2246094 0.1425729
vt 0.2246094 2.980232E-07
vt 0.05859375 3.278255E-07
vt 0.05844292 0.1425729
vt 0.2246094 0.1425735
vt 0.2246094 2.086163E-07
vt 0.05859375 2.086163E-07
vt 0.05859357 0.1425731
vt 0.2246093 0.1425731
vt 0.2246094 3.278255E-07
vt 0.05859375 3.278255E-07
vt 0.0587446 0.1425728
vt 0.2246094 0.1425736
vt 0.05083679 0.6562502
vt 0.2246093 0.6562502
vt 0.2246094 0.6738278
vt 0.05083692 0.6738278
vt 0.05083679 0.6562505
vt 0.2246093 0.6562506
vt 0.2246093 0.673828
vt 0.05078125 0.673828
vt 0.05083679 0.65625
vt 0.2246093 0.6562501
vt 0.2246092 0.6738276
vt 0.05083668 0.6738276
vt 0.05083679 0.6562506
vt 0.2246093 0.6562505
vt 0.2246093 0.6738279
vt 0.05089227 0.6738281
vt 0.05859388 0.1640785
vt 0.05859388 0.2363279
vt 0.2246095 0.236328
vt 0.2246094 0.1640785
vt 0.05844292 0.1640785
vt 0.05854069 0.2363277
vt 0.2246093 0.2363278
vt 0.2246094 0.1640791
vt 0.05859357 0.1640787
vt 0.05859365 0.2363282
vt 0.2246092 0.2363281
vt 0.2246093 0.1640787
vt 0.0587446 0.1640785
vt 0.05864676 0.2363277
vt 0.2246093 0.2363279
vt 0.2246094 0.1640792
vt -4.5 -4.5
vt -4.499992 5.5
vt 5.499998 5.5
vt 5.5 -4.5
vn 0 0.9999948 0.003248163
vn 0 0.9999948 0.003248163
vn 0 0.9999948 0.003248163
vn 0 0.9999948 0.003248163
vn -1 0 3.210723E-06
vn -1 0 3.210723E-06
vn -1 0 3.210723E-06
vn -1 0 3.210723E-06
vn 9.761235E-07 -0.9999948 -0.003248165
vn 9.761235E-07 -0.9999948 -0.003248165
vn 9.761235E-07 -0.9999948 -0.003248165
vn 9.761235E-07 -0.9999948 -0.003248165
vn 1 2.441415E-07 -2.94237E-06
vn 1 2.441415E-07 -2.94237E-06
vn 1 2.441415E-07 -2.94237E-06
vn 1 2.441415E-07 -2.94237E-06
vn 0 1 0
vn 0 1 0
vn 0 1 0
vn 0 1 0
vn -1 2.441343E-07 9.430076E-06
vn -1 2.441343E-07 9.430076E-06
vn -1 2.441343E-07 9.430076E-06
vn -1 2.441343E-07 9.430076E-06
vn 0 -1 0
vn 0 -1 0
vn 0 -1 0
vn 0 -1 0
vn 1 4.882924E-07 -1.650263E-05
vn 1 4.882924E-07 -1.650263E-05
vn 1 4.882924E-07 -1.650263E-05
vn 1 4.882924E-07 -1.650263E-05
vn 0 1 0
vn 0 1 0
vn 0 1 0
vn 0 1 0
vn -1 -2.441417E-07 2.111981E-06
vn -1 -2.441417E-07 2.111981E-06
vn -1 -2.441417E-07 2.111981E-06
vn -1 -2.441417E-07 2.111981E-06
vn 0 -1 0
vn 0 -1 0
vn 0 -1 0
vn 0 -1 0
vn 1 4.882831E-07 -3.695966E-06
vn 1 4.882831E-07 -3.695967E-06
vn 1 4.882831E-07 -3.695966E-06
vn 1 4.882831E-07 -3.695967E-06
vn 2.441407E-07 -7.324219E-07 1
vn 2.441408E-07 -7.324219E-07 1
vn 2.441408E-07 -7.324219E-07 1
vn 2.441407E-07 -7.324219E-07 1
g royale_city02_buildings_mesh_18_0
f 3/3/3 2/2/2 1/1/1
f 4/4/4 3/3/3 1/1/1
f 7/7/7 6/6/6 5/5/5
f 8/8/8 7/7/7 5/5/5
f 11/11/11 10/10/10 9/9/9
f 12/12/12 11/11/11 9/9/9
f 15/15/15 14/14/14 13/13/13
f 16/16/16 15/15/15 13/13/13
f 19/19/19 18/18/18 17/17/17
f 20/20/20 19/19/19 17/17/17
f 23/23/23 22/22/22 21/21/21
f 24/24/24 23/23/23 21/21/21
f 27/27/27 26/26/26 25/25/25
f 28/28/28 27/27/27 25/25/25
f 31/31/31 30/30/30 29/29/29
f 32/32/32 31/31/31 29/29/29
f 35/35/35 34/34/34 33/33/33
f 36/36/36 35/35/35 33/33/33
f 39/39/39 38/38/38 37/37/37
f 40/40/40 39/39/39 37/37/37
f 43/43/43 42/42/42 41/41/41
f 44/44/44 43/43/43 41/41/41
f 47/47/47 46/46/46 45/45/45
f 48/48/48 47/47/47 45/45/45
g royale_city02_buildings_mesh_18_1
f 51/51/51 50/50/50 49/49/49
f 52/52/52 51/51/51 49/49/49
