g royale_car_train_k1
v -0.2058672 0.001245717 -0.5153573
v -0.2058672 -0.255518 -0.4465576
v -0.00758039 -0.2555182 -0.4465576
v -0.007580393 0.001245718 -0.5153573
v -0.2058672 -0.255518 -0.4465576
v -0.2058672 -0.443482 -0.2585934
v -0.007580384 -0.443482 -0.2585935
v -0.00758039 -0.2555182 -0.4465576
v -0.2058672 -0.443482 -0.2585934
v -0.2058672 -0.5122817 -0.001829583
v -0.007580377 -0.5122818 -0.001829589
v -0.007580384 -0.443482 -0.2585935
v -0.2058672 -0.5122817 -0.001829583
v -0.2058672 -0.443482 0.2549342
v -0.00758037 -0.443482 0.2549342
v -0.007580377 -0.5122818 -0.001829589
v -0.2058672 -0.443482 0.2549342
v -0.2058671 -0.2555179 0.4428981
v -0.007580366 -0.255518 0.4428981
v -0.00758037 -0.443482 0.2549342
v -0.2058671 -0.2555179 0.4428981
v -0.2058671 0.001245838 0.5116977
v -0.007580366 0.001245839 0.5116977
v -0.007580366 -0.255518 0.4428981
v -0.2058671 0.001245838 0.5116977
v -0.2058671 0.2580097 0.4428981
v -0.007580369 0.2580095 0.4428981
v -0.007580366 0.001245839 0.5116977
v -0.2058671 0.2580097 0.4428981
v -0.2058672 0.4459736 0.254934
v -0.007580375 0.4459736 0.254934
v -0.007580369 0.2580095 0.4428981
v -0.2058672 0.4459736 0.254934
v -0.2058672 0.5147732 -0.001829573
v -0.007580382 0.5147732 -0.001829578
v -0.007580375 0.4459736 0.254934
v -0.2058672 0.5147732 -0.001829573
v -0.2058672 0.4459739 -0.2585934
v -0.007580389 0.4459739 -0.2585934
v -0.007580382 0.5147732 -0.001829578
v -0.007580366 -0.255518 0.4428981
v -0.007580366 0.001245839 0.5116977
v -0.007580774 0.001245823 -0.001829642
v -0.007580369 0.2580095 0.4428981
v -0.00758037 -0.443482 0.2549342
v -0.007580377 -0.5122818 -0.001829589
v -0.007580384 -0.443482 -0.2585935
v -0.00758039 -0.2555182 -0.4465576
v -0.007580375 0.4459736 0.254934
v -0.007580382 0.5147732 -0.001829578
v -0.007580389 0.4459739 -0.2585934
v -0.007580393 0.2580097 -0.4465576
v -0.007580393 0.001245718 -0.5153573
v -0.2058672 0.4459739 -0.2585934
v -0.2058672 0.2580097 -0.4465576
v -0.007580393 0.2580097 -0.4465576
v -0.007580389 0.4459739 -0.2585934
v -0.2058672 0.2580097 -0.4465576
v -0.2058672 0.001245717 -0.5153573
v -0.007580393 0.001245718 -0.5153573
v -0.007580393 0.2580097 -0.4465576
v -0.2058672 0.001245717 -0.5153573
v -0.2058668 0.001245866 -0.001829636
v -0.2058672 -0.255518 -0.4465576
v -0.2058672 0.2580097 -0.4465576
v -0.2058672 -0.443482 -0.2585934
v -0.2058672 -0.5122817 -0.001829583
v -0.2058672 -0.443482 0.2549342
v -0.2058671 -0.2555179 0.4428981
v -0.2058672 0.4459739 -0.2585934
v -0.2058672 0.5147732 -0.001829573
v -0.2058672 0.4459736 0.254934
v -0.2058671 0.2580097 0.4428981
v -0.2058671 0.001245838 0.5116977
vt 0.3203125 0.6796875
vt 0.3203125 0.6640625
vt 0.3515625 0.6640625
vt 0.3515625 0.6796875
vt 0.3203125 0.6640625
vt 0.3203125 0.6484375
vt 0.3515625 0.6484375
vt 0.3515625 0.6640625
vt 0.3203125 0.6484375
vt 0.3203125 0.640625
vt 0.3515625 0.640625
vt 0.3515625 0.6484375
vt 0.3203125 0.640625
vt 0.3203125 0.6484375
vt 0.3515625 0.6484375
vt 0.3515625 0.640625
vt 0.3203125 0.6484375
vt 0.3203125 0.6640625
vt 0.3515625 0.6640625
vt 0.3515625 0.6484375
vt 0.3203125 0.6640625
vt 0.3203125 0.6796875
vt 0.3515625 0.6796875
vt 0.3515625 0.6640625
vt 0.3203125 0.6796875
vt 0.3203125 0.703125
vt 0.3515625 0.703125
vt 0.3515625 0.6796875
vt 0.3203125 0.703125
vt 0.3203125 0.71875
vt 0.3515625 0.71875
vt 0.3515625 0.703125
vt 0.3203125 0.71875
vt 0.3203125 0.7265625
vt 0.3515625 0.7265625
vt 0.3515625 0.71875
vt 0.3203125 0.7265625
vt 0.3203125 0.71875
vt 0.3515625 0.71875
vt 0.3515625 0.7265625
vt 0.2574521 0.6703175
vt 0.2652321 0.6993534
vt 0.2071606 0.6993534
vt 0.2574521 0.7283892
vt 0.2361964 0.6490618
vt 0.2071606 0.6412817
vt 0.1781247 0.6490618
vt 0.156869 0.6703175
vt 0.2361964 0.7496448
vt 0.2071606 0.757425
vt 0.1781247 0.7496448
vt 0.156869 0.7283892
vt 0.1490889 0.6993534
vt 0.3203125 0.71875
vt 0.3203125 0.703125
vt 0.3515625 0.703125
vt 0.3515625 0.71875
vt 0.3203125 0.703125
vt 0.3203125 0.6796875
vt 0.3515625 0.6796875
vt 0.3515625 0.703125
vt 0.1490889 0.6993534
vt 0.2071606 0.6993534
vt 0.156869 0.6703175
vt 0.156869 0.7283892
vt 0.1781247 0.6490618
vt 0.2071606 0.6412817
vt 0.2361964 0.6490618
vt 0.2574521 0.6703175
vt 0.1781247 0.7496448
vt 0.2071606 0.757425
vt 0.2361964 0.7496448
vt 0.2574521 0.7283892
vt 0.2652321 0.6993534
vn 0 -0.2588148 -0.9659269
vn 0 -0.2588338 -0.9659219
vn -7.102785E-07 -0.2587914 -0.9659333
vn -7.102739E-07 -0.2588148 -0.9659269
vn 0 -0.7071068 -0.7071068
vn 0 -0.7071295 -0.707084
vn -7.102661E-07 -0.7071295 -0.707084
vn -1.420578E-06 -0.7071068 -0.7071068
vn 0 -0.9659275 -0.2588126
vn 0 -0.9659269 -0.2588148
vn -7.103051E-07 -0.965924 -0.2588259
vn -7.102743E-07 -0.9659275 -0.2588126
vn 0 -0.9659271 0.2588144
vn 0 -0.9659275 0.2588126
vn 0 -0.9659275 0.2588126
vn 0 -0.965924 0.2588257
vn 0 -0.7071181 0.7070954
vn 0 -0.7071409 0.7070727
vn 0 -0.7071181 0.7070954
vn 0 -0.7071181 0.7070954
vn 0 -0.2588126 0.9659275
vn 0 -0.2588145 0.9659271
vn 0 -0.2588145 0.9659271
vn 0 -0.2588338 0.9659219
vn 0 0.2588143 0.9659272
vn 0 0.2588126 0.9659275
vn 0 0.2588126 0.9659275
vn 0 0.2588143 0.9659272
vn 0 0.7071181 0.7070954
vn 0 0.7071068 0.7071068
vn 7.102889E-07 0.7071068 0.7071068
vn 7.102661E-07 0.7071295 0.707084
vn 0 0.9659219 0.2588338
vn 0 0.9659271 0.2588144
vn 0 0.9659271 0.2588144
vn 0 0.9659219 0.2588338
vn 0 0.9659273 -0.2588137
vn 0 0.9659245 -0.258824
vn 0 0.9659245 -0.258824
vn 0 0.9659273 -0.2588137
vn 1 0 0
vn 1 1.775702E-07 0
vn 1 2.663553E-07 -8.878509E-07
vn 1 0 0
vn 1 0 0
vn 1 0 -1.775702E-07
vn 1 0 0
vn 1 0 0
vn 1 0 0
vn 1 0 -1.775703E-07
vn 1 0 0
vn 1 0 0
vn 1 0 0
vn 0 0.7071068 -0.7071068
vn 0 0.7071068 -0.7071068
vn -7.102889E-07 0.7071068 -0.7071068
vn 0 0.7071068 -0.7071068
vn 0 0.2588126 -0.9659275
vn 0 0.2588143 -0.9659272
vn -7.102739E-07 0.2588144 -0.9659271
vn -7.102743E-07 0.2588126 -0.9659275
vn -1 1.77573E-07 0
vn -1 1.77573E-07 7.102919E-07
vn -1 0 0
vn -1 0 0
vn -1 0 0
vn -1 0 1.77573E-07
vn -1 0 0
vn -1 0 0
vn -1 0 0
vn -1 0 1.77573E-07
vn -1 0 0
vn -1 0 0
vn -1 -1.77573E-07 0
g royale_car_train_k1_0
f 3/3/3 2/2/2 1/1/1
f 4/4/4 3/3/3 1/1/1
f 7/7/7 6/6/6 5/5/5
f 8/8/8 7/7/7 5/5/5
f 11/11/11 10/10/10 9/9/9
f 12/12/12 11/11/11 9/9/9
f 15/15/15 14/14/14 13/13/13
f 16/16/16 15/15/15 13/13/13
f 19/19/19 18/18/18 17/17/17
f 20/20/20 19/19/19 17/17/17
f 23/23/23 22/22/22 21/21/21
f 24/24/24 23/23/23 21/21/21
f 27/27/27 26/26/26 25/25/25
f 28/28/28 27/27/27 25/25/25
f 31/31/31 30/30/30 29/29/29
f 32/32/32 31/31/31 29/29/29
f 35/35/35 34/34/34 33/33/33
f 36/36/36 35/35/35 33/33/33
f 39/39/39 38/38/38 37/37/37
f 40/40/40 39/39/39 37/37/37
f 43/43/43 42/42/42 41/41/41
f 43/43/43 44/44/44 42/42/42
f 43/43/43 41/41/41 45/45/45
f 43/43/43 45/45/45 46/46/46
f 43/43/43 46/46/46 47/47/47
f 43/43/43 47/47/47 48/48/48
f 43/43/43 49/49/49 44/44/44
f 43/43/43 50/50/50 49/49/49
f 43/43/43 51/51/51 50/50/50
f 43/43/43 52/52/52 51/51/51
f 43/43/43 53/53/53 52/52/52
f 43/43/43 48/48/48 53/53/53
f 56/56/56 55/55/55 54/54/54
f 57/57/57 56/56/56 54/54/54
f 60/60/60 59/59/59 58/58/58
f 61/61/61 60/60/60 58/58/58
f 64/64/64 63/63/63 62/62/62
f 62/62/62 63/63/63 65/65/65
f 66/66/66 63/63/63 64/64/64
f 67/67/67 63/63/63 66/66/66
f 68/68/68 63/63/63 67/67/67
f 69/69/69 63/63/63 68/68/68
f 65/65/65 63/63/63 70/70/70
f 70/70/70 63/63/63 71/71/71
f 71/71/71 63/63/63 72/72/72
f 72/72/72 63/63/63 73/73/73
f 73/73/73 63/63/63 74/74/74
f 74/74/74 63/63/63 69/69/69
