g royale_paradise_umbrella_lod01_A
v 0.125 -0.1250006 3
v -0.125 -0.1250006 6.103515E-07
v -0.125 -0.1250006 3
v 0.125 -0.1250006 6.103515E-07
v 0 0.1249994 3
v 0.125 -0.1250006 6.103515E-07
v 0.125 -0.1250006 3
v 0 0.1249994 6.103515E-07
v -0.125 -0.1250006 3
v 0 0.1249994 6.103515E-07
v 0 0.1249994 3
v -0.125 -0.1250006 6.103515E-07
v 1.773746 -1.773747 3.25
v -1.773746 -1.773747 3
v -1.773746 -1.773747 3.25
v 1.773746 -1.773747 3
v -1.773746 -1.773747 3.25
v 1.773746 1.773746 3.25
v 1.773746 -1.773747 3.25
v -1.773746 1.773746 3.25
v 1.773746 1.773746 3.25
v 1.773746 -1.773747 3
v 1.773746 -1.773747 3.25
v 1.773746 1.773746 3
v -1.773746 1.773746 3.25
v -1.773746 -1.773747 3
v -1.773746 1.773746 3
v -1.773746 -1.773747 3.25
v 1.773746 1.773746 3.25
v -1.773746 1.773746 3
v 1.773746 1.773746 3
v -1.773746 1.773746 3.25
v 1.266962 -1.266962 3.5
v -1.266962 -1.266961 3.25
v -1.266962 -1.266962 3.5
v 1.266962 -1.266962 3.25
v -1.266962 -1.266962 3.5
v 1.266962 1.266961 3.5
v 1.266962 -1.266962 3.5
v -1.266962 1.266961 3.5
v 1.266962 1.266961 3.5
v -1.266962 1.266961 3.25
v 1.266962 1.266961 3.25
v -1.266962 1.266961 3.5
v -1.266962 1.266961 3.5
v -1.266962 -1.266961 3.25
v -1.266962 1.266961 3.25
v -1.266962 -1.266962 3.5
v 1.266962 1.266961 3.5
v 1.266962 -1.266962 3.25
v 1.266962 -1.266962 3.5
v 1.266962 1.266961 3.25
v -1.773746 -1.773747 3
v 1.773746 1.773746 3
v -1.773746 1.773746 3
v 1.773746 -1.773747 3
vt 0.5371094 0.7421875
vt 0.5351563 0.71875
vt 0.5351563 0.7421875
vt 0.5371094 0.71875
vt 0.5400391 0.7421875
vt 0.5371094 0.71875
vt 0.5371094 0.7421875
vt 0.5400391 0.71875
vt 0.5351563 0.7421875
vt 0.5332031 0.71875
vt 0.5332031 0.7421875
vt 0.5351563 0.71875
vt 0.5024416 0.7128909
vt 0.5297875 0.7109376
vt 0.5297871 0.7128903
vt 0.502443 0.7109392
vt 0.5025012 0.7128924
vt 0.5307019 0.7402357
vt 0.5307016 0.7128931
vt 0.5025033 0.7402369
vt 0.5004883 0.7402357
vt 0.5024417 0.7128899
vt 0.50049 0.7128913
vt 0.502441 0.7402354
vt 0.5004879 0.7402357
vt 0.5024425 0.7128896
vt 0.5024415 0.7402351
vt 0.5004883 0.712891
vt 0.5297878 0.7109367
vt 0.5024416 0.7128912
vt 0.5297863 0.7128908
vt 0.5024422 0.7109377
vt 0.5083008 0.7194824
vt 0.5279717 0.7175291
vt 0.5279716 0.7194819
vt 0.5083015 0.7175301
vt 0.5068359 0.7167969
vt 0.5263672 0.7363281
vt 0.5263672 0.7167969
vt 0.5068359 0.7363281
vt 0.5279719 0.7175291
vt 0.5083008 0.7194833
vt 0.5279716 0.7194825
vt 0.5083016 0.7175294
vt 0.5229492 0.7365158
vt 0.5249029 0.7167969
vt 0.5249025 0.7365156
vt 0.5229493 0.7167973
vt 0.5229492 0.7363281
vt 0.5249023 0.7167969
vt 0.5229492 0.7167969
vt 0.5246582 0.7363281
vt 0.5025022 0.7128913
vt 0.5307009 0.7402337
vt 0.5025045 0.7402353
vt 0.5307007 0.7128916
vn 0 -1 0
vn 0 -1 0
vn 0 -1 0
vn 0 -1 0
vn 0.8944272 0.4472136 0
vn 0.8944272 0.4472136 0
vn 0.8944272 0.4472136 0
vn 0.8944272 0.4472136 0
vn -0.8944272 0.4472136 0
vn -0.8944272 0.4472136 0
vn -0.8944272 0.4472136 0
vn -0.8944272 0.4472136 0
vn 0 -1 -1.220703E-06
vn 0 -1 -1.220703E-06
vn 0 -1 -1.220703E-06
vn 0 -1 0
vn 0 0 1
vn 0 0 1
vn 0 0 1
vn 0 0 1
vn 1 0 0
vn 1 0 0
vn 1 0 0
vn 1 0 0
vn -1 0 0
vn -1 0 0
vn -1 0 0
vn -1 0 0
vn 0 1 0
vn 0 1 0
vn 0 1 0
vn 0 1 6.103515E-07
vn 0 -1 -1.220703E-06
vn 0 -1 -1.220703E-06
vn 0 -1 -1.220703E-06
vn -1.204361E-07 -1 0
vn 0 0 1
vn 0 0 1
vn 0 0 1
vn 0 0 1
vn 0 1 0
vn 0 1 0
vn 0 1 0
vn 0 1 0
vn -1 0 0
vn -1 0 0
vn -1 0 0
vn -1 0 0
vn 1 0 0
vn 1 0 0
vn 1 0 0
vn 1 0 0
vn 0 0 -1
vn 0 0 -1
vn 0 0 -1
vn 0 0 -1
g royale_paradise_umbrella_lod01_A_0
f 3/3/3 2/2/2 1/1/1
f 4/4/4 1/1/1 2/2/2
f 7/7/7 6/6/6 5/5/5
f 8/8/8 5/5/5 6/6/6
f 11/11/11 10/10/10 9/9/9
f 12/12/12 9/9/9 10/10/10
f 15/15/15 14/14/14 13/13/13
f 16/16/16 13/13/13 14/14/14
f 19/19/19 18/18/18 17/17/17
f 20/20/20 17/17/17 18/18/18
f 23/23/23 22/22/22 21/21/21
f 24/24/24 21/21/21 22/22/22
f 27/27/27 26/26/26 25/25/25
f 28/28/28 25/25/25 26/26/26
f 31/31/31 30/30/30 29/29/29
f 32/32/32 29/29/29 30/30/30
f 35/35/35 34/34/34 33/33/33
f 36/36/36 33/33/33 34/34/34
f 39/39/39 38/38/38 37/37/37
f 40/40/40 37/37/37 38/38/38
f 43/43/43 42/42/42 41/41/41
f 44/44/44 41/41/41 42/42/42
f 47/47/47 46/46/46 45/45/45
f 48/48/48 45/45/45 46/46/46
f 51/51/51 50/50/50 49/49/49
f 52/52/52 49/49/49 50/50/50
f 55/55/55 54/54/54 53/53/53
f 56/56/56 53/53/53 54/54/54
