g royale_car_red_crashed_mesh_lod01_A
v 1.267498 -1.785289 1.476984
v -0.7811703 -1.783048 2.025923
v -0.7785752 0.762 2.025228
v 1.269995 0.7598027 1.476316
v -0.7811703 -1.783048 2.025923
v -0.9981467 0.7620003 1.205776
v -0.7785752 0.762 2.025228
v -1.000741 -1.783047 1.20647
v 1.267498 -1.785289 1.476984
v -1.000741 -1.783047 1.20647
v -0.7811703 -1.783048 2.025923
v 1.047927 -1.785289 0.657532
v 1.269995 0.7598027 1.476316
v 1.047927 -1.785289 0.657532
v 1.267498 -1.785289 1.476984
v 1.050423 0.7598028 0.6568643
v -0.7785752 0.762 2.025228
v 1.050423 0.7598028 0.6568643
v 1.269995 0.7598027 1.476316
v -0.9981467 0.7620003 1.205776
v 1.083719 2.292957 -0.09612702
v 1.29975 -1.957856 0.7275313
v 1.304104 2.292957 0.7263661
v 1.079364 -1.957856 -0.09496128
v -1.383975 2.29566 0.5650884
v -1.167859 -1.955161 1.388724
v -1.388245 -1.955161 0.5662309
v -1.163589 2.29566 1.387581
v 1.079364 -1.957856 -0.09496128
v -1.167859 -1.955161 1.388724
v 1.29975 -1.957856 0.7275313
v -1.388245 -1.955161 0.5662309
v 1.29975 -1.957856 0.7275313
v -1.163589 2.29566 1.387581
v 1.304104 2.292957 0.7263661
v -1.167859 -1.955161 1.388724
v 1.304104 2.292957 0.7263661
v -1.383975 2.29566 0.5650884
v 1.083719 2.292957 -0.09612702
v -1.163589 2.29566 1.387581
v -1.767312 1.808449 0.03660944
v -1.516905 0.9964132 0.9274112
v -1.42684 0.992603 0.07629017
v -1.857377 1.812258 0.8877308
v -1.737912 -0.4886453 0.1048845
v -1.526565 -1.373187 0.934675
v -1.738645 -1.373572 0.1054855
v -1.525832 -0.488258 0.9340745
v 1.809073 1.93019 -0.10566
v 1.089377 1.135908 0.4999679
v 1.197464 2.014117 0.4871494
v 1.700987 1.05198 -0.09284136
v 1.219393 -0.4914251 -0.174186
v 1.599331 -1.376174 0.5929921
v 1.600044 -0.4912089 0.5923895
v 1.218681 -1.37639 -0.1735836
v 1.083719 2.292957 -0.09612702
v -1.383975 2.29566 0.5650884
v -1.388245 -1.955161 0.5662309
v 1.079364 -1.957856 -0.09496128
vt 0.972168 0.2714844
vt 0.972168 0.2602539
vt 0.9575195 0.2602539
vt 0.9575195 0.2714844
vt 0.9716797 0.2851563
vt 0.9575195 0.2797852
vt 0.9575195 0.2851563
vt 0.9716797 0.2797852
vt 0.9785156 0.2973633
vt 0.9663086 0.2924805
vt 0.9663086 0.2973633
vt 0.9785156 0.2924805
vt 0.9907227 0.2851563
vt 0.9765625 0.2797852
vt 0.9765625 0.2851563
vt 0.9907227 0.2797852
vt 0.9633789 0.2973633
vt 0.9506836 0.2924805
vt 0.9506836 0.2973633
vt 0.9633789 0.2924805
vt 0.9985352 0.2739258
vt 0.9746094 0.2788086
vt 0.9985352 0.2788086
vt 0.9746094 0.2739258
vt 0.9501953 0.2739258
vt 0.9741211 0.2788086
vt 0.9741211 0.2739258
vt 0.9501953 0.2788086
vt 0.9643555 0.2875977
vt 0.9492188 0.2924805
vt 0.9643555 0.2924805
vt 0.9492188 0.2875977
vt 0.9741211 0.2729492
vt 0.949707 0.2587891
vt 0.949707 0.2729492
vt 0.9741211 0.2587891
vt 0.965332 0.2924805
vt 0.9794922 0.2875977
vt 0.965332 0.2875977
vt 0.9794922 0.2924805
vt 0.9916992 0.2973633
vt 0.9863281 0.2919922
vt 0.9863281 0.2973633
vt 0.9916992 0.2919922
vt 0.9916992 0.2973633
vt 0.9863281 0.2919922
vt 0.9863281 0.2973633
vt 0.9916992 0.2919922
vt 0.9916992 0.2919922
vt 0.9863281 0.2973633
vt 0.9916992 0.2973633
vt 0.9863281 0.2919922
vt 0.9916992 0.2919922
vt 0.9863281 0.2973633
vt 0.9916992 0.2973633
vt 0.9863281 0.2919922
vt 0.9980469 0.2724609
vt 0.9980469 0.2592773
vt 0.9750977 0.2592773
vt 0.9750977 0.2724609
vn 0.2588187 -3.400157E-07 0.9659259
vn 0.2588187 -3.400157E-07 0.9659259
vn 0.2588187 -3.400157E-07 0.9659259
vn 0.2588187 -3.400157E-07 0.9659259
vn -0.9659255 0.001055391 0.2588184
vn -0.9659254 0.001055498 0.2588187
vn -0.9659254 0.001055535 0.2588188
vn -0.9659255 0.001055354 0.2588183
vn -0.001020847 -0.9999995 0.0002732754
vn -0.001020847 -0.9999995 0.0002732751
vn -0.001020847 -0.9999995 0.000273275
vn -0.001020847 -0.9999995 0.0002732755
vn 0.9659254 -0.001015396 -0.2588187
vn 0.9659254 -0.001015449 -0.2588186
vn 0.9659255 -0.001015467 -0.2588186
vn 0.9659254 -0.001015377 -0.2588188
vn 0.001000847 0.9999995 -0.0002679167
vn 0.001000847 0.9999995 -0.0002679167
vn 0.001000847 0.9999995 -0.0002679167
vn 0.001000847 0.9999995 -0.0002679167
vn 0.9659254 -0.001060431 -0.2588184
vn 0.9659254 -0.001060499 -0.2588187
vn 0.9659255 -0.00106042 -0.2588184
vn 0.9659254 -0.00106051 -0.2588188
vn -0.9659254 0.001039998 0.2588187
vn -0.9659255 0.001039917 0.2588183
vn -0.9659255 0.001039904 0.2588183
vn -0.9659254 0.001040012 0.2588188
vn -0.001019173 -0.9999995 0.0002728271
vn -0.001019173 -0.9999995 0.0002728268
vn -0.001019173 -0.9999995 0.0002728272
vn -0.001019173 -0.9999995 0.0002728267
vn 0.2588187 -3.930164E-07 0.9659259
vn 0.2588187 -3.76299E-07 0.9659259
vn 0.2588187 -3.577801E-07 0.9659259
vn 0.2588186 -4.115358E-07 0.9659259
vn 0.001022053 0.9999995 -0.0002731561
vn 0.001022073 0.9999995 -0.0002734904
vn 0.001022046 0.9999995 -0.0002730401
vn 0.001022081 0.9999995 -0.0002736063
vn -0.9170047 -0.3873237 -0.09530289
vn -0.9170047 -0.3873237 -0.09530293
vn -0.9170046 -0.3873239 -0.09530307
vn -0.9170048 -0.3873236 -0.09530273
vn -0.968813 0.0009708866 0.2477909
vn -0.968813 0.0009708827 0.2477909
vn -0.968813 0.0009707955 0.2477908
vn -0.968813 0.0009709737 0.247791
vn 0.6887915 -0.0742478 0.7211474
vn 0.6887915 -0.07424781 0.7211474
vn 0.6887915 -0.07424794 0.7211474
vn 0.6887913 -0.07424767 0.7211475
vn 0.8956562 -0.001023639 -0.4447461
vn 0.8956562 -0.001023632 -0.4447461
vn 0.895656 -0.001023821 -0.4447463
vn 0.8956562 -0.00102345 -0.4447459
vn -0.2588186 3.217453E-07 -0.9659259
vn -0.2588186 3.217453E-07 -0.9659259
vn -0.2588186 3.217453E-07 -0.9659259
vn -0.2588186 3.217453E-07 -0.9659259
g royale_car_red_crashed_mesh_lod01_A_0
f 3/3/3 2/2/2 1/1/1
f 4/4/4 3/3/3 1/1/1
f 7/7/7 6/6/6 5/5/5
f 8/8/8 5/5/5 6/6/6
f 11/11/11 10/10/10 9/9/9
f 12/12/12 9/9/9 10/10/10
f 15/15/15 14/14/14 13/13/13
f 16/16/16 13/13/13 14/14/14
f 19/19/19 18/18/18 17/17/17
f 20/20/20 17/17/17 18/18/18
f 23/23/23 22/22/22 21/21/21
f 24/24/24 21/21/21 22/22/22
f 27/27/27 26/26/26 25/25/25
f 28/28/28 25/25/25 26/26/26
f 31/31/31 30/30/30 29/29/29
f 32/32/32 29/29/29 30/30/30
f 35/35/35 34/34/34 33/33/33
f 36/36/36 33/33/33 34/34/34
f 39/39/39 38/38/38 37/37/37
f 40/40/40 37/37/37 38/38/38
f 43/43/43 42/42/42 41/41/41
f 44/44/44 41/41/41 42/42/42
f 47/47/47 46/46/46 45/45/45
f 48/48/48 45/45/45 46/46/46
f 51/51/51 50/50/50 49/49/49
f 52/52/52 49/49/49 50/50/50
f 55/55/55 54/54/54 53/53/53
f 56/56/56 53/53/53 54/54/54
f 59/59/59 58/58/58 57/57/57
f 60/60/60 59/59/59 57/57/57
