g royale_slender_wooden_fence_lod1
v -9.765625E-06 2.224904 6.000003
v -9.765625E-06 2.224905 4.156828E-06
v -9.765625E-06 -2.225095 4.156828E-06
v -9.765625E-06 -2.225095 6.000004
v -9.765625E-06 -2.225095 6.000004
v -9.765625E-06 -2.225095 4.156828E-06
v -9.765625E-06 2.224905 4.156828E-06
v -9.765625E-06 2.224904 6.000003
vt 2.95134 3.5
vt 2.951532 -2.499999
vt -1.498659 -2.499999
vt -1.498659 3.500001
vt 2.498659 3.500001
vt 2.498659 -2.5
vt -1.951151 -2.5
vt -1.95134 3.5
vn 1 0 0
vn 1 0 0
vn 1 0 0
vn 1 0 0
vn -1 0 0
vn -1 0 0
vn -1 0 0
vn -1 0 0
g royale_slender_wooden_fence_lod1_0
f 3/3/3 2/2/2 1/1/1
f 4/4/4 3/3/3 1/1/1
f 7/7/7 6/6/6 5/5/5
f 8/8/8 7/7/7 5/5/5
