g royale_martian_grass_mesh_lod0
v -1.445921 1.438813E-07 -0.8831368
v -1.239055 3.032778E-07 -1.861506
v -1.239055 1 -1.861506
v -1.445921 1 -0.8831366
v -0.8533036 2.067281E-07 -1.268888
v -1.831673 2.404309E-07 -1.475754
v -1.831673 1 -1.475754
v -0.8533036 1 -1.268888
v 0.3531198 1.151196E-07 -0.7065991
v 0.1242097 2.737143E-07 -1.680047
v 0.1242097 1 -1.680047
v 0.3531198 1 -0.7065989
v 0.7253885 2.13064E-07 -1.307778
v -0.248059 1.757699E-07 -1.078868
v -0.248059 1 -1.078868
v 0.7253885 1 -1.307778
v 1.710525 1.54809E-08 -0.09502105
v 1.481614 1.740756E-07 -1.068469
v 1.481614 1 -1.068468
v 1.710525 0.9999998 -0.09502089
v 2.082793 1.134253E-07 -0.6961998
v 1.109346 7.613117E-08 -0.4672898
v 1.109346 1 -0.4672897
v 2.082793 1 -0.6961995
v -0.8252866 -7.929739E-08 0.4867239
v -1.054197 7.929733E-08 -0.4867235
v -1.054197 0.9999999 -0.4867234
v -0.8252866 0.9999998 0.486724
v -0.453018 1.864706E-08 -0.1144549
v -1.426465 -1.86471E-08 0.1144551
v -1.426465 1 0.1144553
v -0.453018 1 -0.1144547
v 0.9050316 -1.303319E-07 0.7999712
v 0.6761216 2.826288E-08 -0.1734763
v 0.6761216 0.9999998 -0.1734761
v 0.9050316 0.9999998 0.7999714
v 1.2773 -3.238739E-08 0.1987924
v 0.3038529 -6.968157E-08 0.4277024
v 0.3038529 0.9999999 0.4277025
v 1.2773 0.9999999 0.1987926
v -1.44103 1.437128E-07 -0.8821025
v -1.44103 1 -0.8821023
v -1.234163 1 -1.860472
v -1.234163 3.031093E-07 -1.860472
v -0.8522694 2.075251E-07 -1.27378
v -0.8522694 1 -1.27378
v -1.830638 1 -1.480646
v -1.830638 2.412279E-07 -1.480646
v 0.3579869 1.153061E-07 -0.7077436
v 0.3579869 1 -0.7077433
v 0.1290768 1 -1.681191
v 0.1290768 2.739008E-07 -1.681191
v 0.7242441 2.13857E-07 -1.312645
v 0.7242441 1 -1.312645
v -0.2492034 1 -1.083735
v -0.2492034 1.765628E-07 -1.083735
v 1.715392 1.566735E-08 -0.09616552
v 1.715392 0.9999998 -0.09616535
v 1.486481 1 -1.069613
v 1.486481 1.742621E-07 -1.069613
v 2.081649 1.142183E-07 -0.7010668
v 2.081649 1 -0.7010667
v 1.108201 1 -0.4721568
v 1.108201 7.692413E-08 -0.472157
v -0.8204195 -7.911093E-08 0.4855794
v -0.8204195 0.9999998 0.4855796
v -1.04933 0.9999999 -0.4878679
v -1.04933 7.948379E-08 -0.487868
v -0.4541624 1.944001E-08 -0.119322
v -0.4541624 1 -0.1193218
v -1.42761 1 0.1095882
v -1.42761 -1.785415E-08 0.109588
v 0.9098988 -1.301454E-07 0.7988268
v 0.9098988 0.9999998 0.7988269
v 0.6809887 0.9999998 -0.1746206
v 0.6809887 2.844933E-08 -0.1746207
v 1.276156 -3.159445E-08 0.1939253
v 1.276156 0.9999999 0.1939255
v 0.3027085 0.9999999 0.4228354
v 0.3027085 -6.888861E-08 0.4228353
vt 0 0
vt 1 0
vt 1 1
vt 0 1
vt 1 0
vt 0 0
vt 0 1
vt 1 1
vt 0 0
vt 1 0
vt 1 1
vt 0 1
vt 1 0
vt 0 0
vt 0 1
vt 1 1
vt 0 0
vt 1 0
vt 1 1
vt 0 1
vt 1 0
vt 0 0
vt 0 1
vt 1 1
vt 0 0
vt 1 0
vt 1 1
vt 0 1
vt 1 0
vt 0 0
vt 0 1
vt 1 1
vt 0 0
vt 1 0
vt 1 1
vt 0 1
vt 1 0
vt 0 0
vt 0 1
vt 1 1
vt 0 0
vt 0 1
vt 1 1
vt 1 0
vt 1 0
vt 1 1
vt 0 1
vt 0 0
vt 0 0
vt 0 1
vt 1 1
vt 1 0
vt 1 0
vt 1 1
vt 0 1
vt 0 0
vt 0 0
vt 0 1
vt 1 1
vt 1 0
vt 1 0
vt 1 1
vt 0 1
vt 0 0
vt 0 0
vt 0 1
vt 1 1
vt 1 0
vt 1 0
vt 1 1
vt 0 1
vt 0 0
vt 0 0
vt 0 1
vt 1 1
vt 1 0
vt 1 0
vt 1 1
vt 0 1
vt 0 0
vn -0.9783691 0 -0.2068667
vn -0.9783691 0 -0.2068667
vn -0.9783691 0 -0.2068667
vn -0.9783691 0 -0.2068667
vn -0.2068666 -1.192093E-07 0.9783692
vn -0.2068666 -1.192093E-07 0.9783692
vn -0.2068666 -1.192093E-07 0.9783692
vn -0.2068666 -1.192093E-07 0.9783692
vn -0.9734476 0 0.2289101
vn -0.9734476 0 0.2289101
vn -0.9734476 0 0.2289101
vn -0.9734476 0 0.2289101
vn 0.22891 -1.192093E-07 0.9734476
vn 0.22891 -1.192093E-07 0.9734476
vn 0.22891 -1.192093E-07 0.9734476
vn 0.22891 -1.192093E-07 0.9734476
vn -0.9734476 0 0.2289101
vn -0.9734476 0 0.2289101
vn -0.9734476 0 0.2289101
vn -0.9734476 0 0.2289101
vn 0.22891 0 0.9734476
vn 0.22891 0 0.9734476
vn 0.22891 0 0.9734476
vn 0.22891 0 0.9734476
vn -0.9734475 0 0.2289102
vn -0.9734475 0 0.2289102
vn -0.9734475 0 0.2289102
vn -0.9734475 0 0.2289102
vn 0.22891 -1.595605E-07 0.9734476
vn 0.22891 -1.595605E-07 0.9734476
vn 0.22891 -1.595605E-07 0.9734476
vn 0.22891 -1.595605E-07 0.9734476
vn -0.9734476 0 0.22891
vn -0.9734476 0 0.22891
vn -0.9734476 0 0.22891
vn -0.9734476 0 0.22891
vn 0.22891 -1.490116E-07 0.9734476
vn 0.22891 -1.490116E-07 0.9734476
vn 0.22891 -1.490116E-07 0.9734476
vn 0.22891 -1.490116E-07 0.9734476
vn 0.9783691 0 0.2068668
vn 0.9783691 0 0.2068668
vn 0.9783691 0 0.2068668
vn 0.9783691 0 0.2068668
vn 0.2068667 1.192093E-07 -0.9783691
vn 0.2068667 1.192093E-07 -0.9783691
vn 0.2068667 1.192093E-07 -0.9783691
vn 0.2068667 1.192093E-07 -0.9783691
vn 0.9734475 0 -0.2289102
vn 0.9734475 0 -0.2289102
vn 0.9734475 0 -0.2289102
vn 0.9734475 0 -0.2289102
vn -0.22891 1.192093E-07 -0.9734476
vn -0.22891 1.192093E-07 -0.9734476
vn -0.22891 1.192093E-07 -0.9734476
vn -0.22891 1.192093E-07 -0.9734476
vn 0.9734475 0 -0.2289102
vn 0.9734475 0 -0.2289102
vn 0.9734475 0 -0.2289102
vn 0.9734475 0 -0.2289102
vn -0.2289099 1.78814E-07 -0.9734476
vn -0.2289099 1.78814E-07 -0.9734476
vn -0.2289099 1.78814E-07 -0.9734476
vn -0.2289099 1.78814E-07 -0.9734476
vn 0.9734475 0 -0.2289101
vn 0.9734475 0 -0.2289101
vn 0.9734475 0 -0.2289101
vn 0.9734475 0 -0.2289101
vn -0.22891 1.592562E-07 -0.9734476
vn -0.22891 1.592562E-07 -0.9734476
vn -0.22891 1.592562E-07 -0.9734476
vn -0.22891 1.592562E-07 -0.9734476
vn 0.9734476 0 -0.2289101
vn 0.9734476 0 -0.2289101
vn 0.9734476 0 -0.2289101
vn 0.9734476 0 -0.2289101
vn -0.22891 1.490116E-07 -0.9734476
vn -0.22891 1.490116E-07 -0.9734476
vn -0.22891 1.490116E-07 -0.9734476
vn -0.22891 1.490116E-07 -0.9734476
g royale_martian_grass_mesh_lod0_0
f 3/3/3 2/2/2 1/1/1
f 4/4/4 3/3/3 1/1/1
f 7/7/7 6/6/6 5/5/5
f 8/8/8 7/7/7 5/5/5
f 11/11/11 10/10/10 9/9/9
f 12/12/12 11/11/11 9/9/9
f 15/15/15 14/14/14 13/13/13
f 16/16/16 15/15/15 13/13/13
f 19/19/19 18/18/18 17/17/17
f 20/20/20 19/19/19 17/17/17
f 23/23/23 22/22/22 21/21/21
f 24/24/24 23/23/23 21/21/21
f 27/27/27 26/26/26 25/25/25
f 28/28/28 27/27/27 25/25/25
f 31/31/31 30/30/30 29/29/29
f 32/32/32 31/31/31 29/29/29
f 35/35/35 34/34/34 33/33/33
f 36/36/36 35/35/35 33/33/33
f 39/39/39 38/38/38 37/37/37
f 40/40/40 39/39/39 37/37/37
f 43/43/43 42/42/42 41/41/41
f 44/44/44 43/43/43 41/41/41
f 47/47/47 46/46/46 45/45/45
f 48/48/48 47/47/47 45/45/45
f 51/51/51 50/50/50 49/49/49
f 52/52/52 51/51/51 49/49/49
f 55/55/55 54/54/54 53/53/53
f 56/56/56 55/55/55 53/53/53
f 59/59/59 58/58/58 57/57/57
f 60/60/60 59/59/59 57/57/57
f 63/63/63 62/62/62 61/61/61
f 64/64/64 63/63/63 61/61/61
f 67/67/67 66/66/66 65/65/65
f 68/68/68 67/67/67 65/65/65
f 71/71/71 70/70/70 69/69/69
f 72/72/72 71/71/71 69/69/69
f 75/75/75 74/74/74 73/73/73
f 76/76/76 75/75/75 73/73/73
f 79/79/79 78/78/78 77/77/77
f 80/80/80 79/79/79 77/77/77
