g royale_millitary_asset_wach_tower_LOD_1_A
v -2.164065 0.009428711 1.867901
v -2.164064 0.009428711 -1.8821
v -2.164064 7.00943 -1.8821
v -2.164065 7.00943 1.867902
v 1.585934 0.009428711 1.8679
v -2.164065 0.009428711 1.867901
v -2.164065 7.00943 1.867902
v 1.585934 7.00943 1.8679
v 1.585933 0.009428711 -1.882101
v 1.585934 0.009428711 1.8679
v 1.585934 7.00943 1.8679
v 1.585933 7.00943 -1.882101
v -2.164064 0.009428711 -1.8821
v 1.585933 0.009428711 -1.882101
v 1.585933 7.00943 -1.882101
v -2.164064 7.00943 -1.8821
v 2.835936 6.609313 3.117898
v 2.835935 6.609313 -3.1321
v -3.414067 6.609313 -3.132099
v -3.414067 6.609313 3.1179
v -3.414067 7.109313 -3.1321
v -3.414067 7.109313 3.1179
v -3.414067 6.609313 3.1179
v -3.414067 6.609313 -3.132099
v -3.414067 7.109313 3.1179
v 2.835936 7.109313 3.117898
v 2.835936 6.609313 3.117898
v -3.414067 6.609313 3.1179
v 2.835936 7.109313 3.117898
v 2.835935 7.109313 -3.1321
v 2.835935 6.609313 -3.1321
v 2.835936 6.609313 3.117898
v -3.414067 7.109313 -3.1321
v -3.414067 6.609313 -3.132099
v 2.835935 6.609313 -3.1321
v 2.835935 7.109313 -3.1321
v 2.585936 7.109314 -3.132101
v 2.835936 7.109314 -2.882101
v 2.835936 7.109314 -3.132101
v 2.835936 8.109313 -2.882101
v 2.835936 7.109314 -2.882101
v 2.585936 7.109314 -3.132101
v 2.585936 8.109313 -3.132101
v 2.585936 7.109314 -3.132101
v 2.835936 7.109314 -3.132101
v 2.835936 8.109313 -3.132101
v 2.585936 8.109313 -3.132101
v 2.835936 7.109314 -3.132101
v 2.835936 7.109314 -2.882101
v 2.835936 8.109313 -2.882101
v 2.835936 8.109313 -3.132101
v -3.414068 7.109312 -2.882101
v -3.164068 7.109312 -3.132101
v -3.414068 7.109312 -3.132101
v -3.414068 7.109312 -2.882101
v -3.414068 7.109312 -3.132101
v -3.414068 8.109311 -3.132101
v -3.414068 8.109311 -2.882101
v -3.414068 7.109312 -3.132101
v -3.164068 7.109312 -3.132101
v -3.164068 8.109311 -3.132101
v -3.414068 8.109311 -3.132101
v -3.414068 7.109312 -2.882101
v -3.414068 8.109311 -2.882101
v -3.164068 8.109311 -3.132101
v -3.164068 7.109312 -3.132101
v 2.835932 7.109313 2.867899
v 2.585932 7.109313 3.117899
v 2.835932 7.109313 3.117899
v 2.835932 7.109313 2.867899
v 2.835932 8.109311 2.867897
v 2.585932 8.109311 3.117899
v 2.585932 7.109313 3.117899
v 2.585932 7.109313 3.117899
v 2.585932 8.109311 3.117899
v 2.835932 8.109311 3.117899
v 2.835932 7.109313 3.117899
v 2.835932 7.109313 3.117899
v 2.835932 8.109311 3.117899
v 2.835932 8.109311 2.867897
v 2.835932 7.109313 2.867899
v -3.164067 7.109312 3.1179
v -3.414067 7.109313 2.8679
v -3.414067 7.109313 3.1179
v -3.164067 7.109312 3.1179
v -3.414067 7.109313 3.1179
v -3.414067 8.109311 3.1179
v -3.164067 8.109311 3.1179
v -3.414067 7.109313 3.1179
v -3.414067 7.109313 2.8679
v -3.414067 8.109311 2.8679
v -3.414067 8.109311 3.1179
v -3.164067 7.109312 3.1179
v -3.164067 8.109311 3.1179
v -3.414067 8.109311 2.8679
v -3.414067 7.109313 2.8679
v -1.549783 7.109313 -1.269427
v -1.549783 9.460127 -1.269426
v -1.549783 9.460126 1.230576
v -1.549783 7.109313 1.230576
v -1.549783 7.109313 1.230576
v -1.549783 9.460126 1.230576
v 0.950218 9.460127 1.230578
v 0.950218 7.109313 1.230578
v 0.950218 7.109313 1.230578
v 0.950218 9.460127 1.230578
v 0.9502177 9.460127 -1.269427
v 0.9502177 7.109313 -1.269427
v 0.9502177 7.109313 -1.269427
v 0.9502177 9.460127 -1.269427
v -1.549783 9.460127 -1.269426
v -1.549783 7.109313 -1.269427
v -2.049782 9.460127 -1.769423
v -2.049781 9.460127 1.730577
v 1.450219 9.460127 1.730576
v 1.450218 9.460127 -1.769424
v -2.049782 9.960127 -1.769423
v 1.450218 9.960127 -1.769424
v 1.450219 9.960127 1.730576
v -2.049781 9.960127 1.730577
v -2.049782 9.460127 -1.769423
v -2.049782 9.960127 -1.769423
v -2.049781 9.960127 1.730577
v -2.049781 9.460127 1.730577
v -2.049781 9.460127 1.730577
v -2.049781 9.960127 1.730577
v 1.450219 9.960127 1.730576
v 1.450219 9.460127 1.730576
v 1.450219 9.460127 1.730576
v 1.450219 9.960127 1.730576
v 1.450218 9.960127 -1.769424
v 1.450218 9.460127 -1.769424
v 1.450218 9.460127 -1.769424
v 1.450218 9.960127 -1.769424
v -2.049782 9.960127 -1.769423
v -2.049782 9.460127 -1.769423
v -3.414067 7.109313 3.1179
v -3.414067 7.109313 -3.1321
v 2.835935 7.109313 -3.1321
v 2.835936 7.109313 3.117898
v -3.414067 7.109313 1.373903
v -3.164068 7.109312 1.123903
v -3.414067 7.109313 1.123903
v -3.164067 8.188794 1.123903
v -3.164068 7.109312 1.123903
v -3.414067 7.109313 1.373903
v -3.414067 8.109311 1.373903
v -3.414067 7.109313 1.373903
v -3.414067 7.109313 1.123903
v -3.414067 8.109311 1.123903
v -3.414067 8.109311 1.373903
v -3.414067 7.109313 1.123903
v -3.164068 7.109312 1.123903
v -3.164067 8.188794 1.123903
v -3.414067 8.109311 1.123903
v -3.164068 7.109312 -1.15392
v -3.414068 7.109313 -1.40392
v -3.414068 7.109313 -1.15392
v -3.164068 7.109312 -1.15392
v -3.414068 7.109313 -1.15392
v -3.414068 8.109311 -1.15392
v -3.164068 8.18681 -1.15392
v -3.414068 7.109313 -1.15392
v -3.414068 7.109313 -1.40392
v -3.414068 8.109311 -1.40392
v -3.414068 8.109311 -1.15392
v -3.164068 7.109312 -1.15392
v -3.164068 8.18681 -1.15392
v -3.414068 8.109311 -1.40392
v -3.414068 7.109313 -1.40392
v 2.835934 8.109313 -3.1321
v 2.835934 8.209312 -3.1321
v -3.414064 8.209312 -3.132101
v -3.414064 8.109313 -3.132101
v -3.414065 8.109311 -1.048767
v -3.414064 8.109313 -3.132101
v -3.414064 8.209312 -3.132101
v -3.414065 8.209311 -1.048767
v -3.414064 8.109311 3.117901
v -3.414064 8.209311 3.117901
v 2.835934 8.209311 3.1179
v 2.835934 8.109312 3.1179
v 2.835934 8.109312 3.1179
v 2.835934 8.209311 3.1179
v 2.835934 8.209312 -3.1321
v 2.835934 8.109313 -3.1321
v 2.835934 8.109313 -3.1321
v 2.460933 8.209312 -2.757099
v 2.460931 8.209311 2.7429
v 2.835934 8.109312 3.1179
v 2.835934 8.109312 3.1179
v 2.460931 8.209311 2.7429
v -3.039065 8.209311 2.7429
v -3.414064 8.109311 3.117901
v -3.414064 8.109312 1.03457
v -3.414064 8.109311 3.117901
v -3.039065 8.209311 2.7429
v -3.039063 8.209312 1.03457
v -3.414064 8.109313 -3.132101
v -3.039064 8.209312 -2.757099
v 2.460933 8.209312 -2.757099
v 2.835934 8.109313 -3.1321
v 2.835934 8.209312 -3.1321
v 2.460933 8.209312 -2.757099
v -3.039064 8.209312 -2.757099
v -3.414064 8.209312 -3.132101
v -3.414065 8.209311 -1.048767
v -3.414064 8.209312 -3.132101
v -3.039064 8.209312 -2.757099
v -3.039064 8.209311 -1.048767
v -3.414064 8.209311 3.117901
v -3.039065 8.209311 2.7429
v 2.460931 8.209311 2.7429
v 2.835934 8.209311 3.1179
v 2.835934 8.209311 3.1179
v 2.460931 8.209311 2.7429
v 2.460933 8.209312 -2.757099
v 2.835934 8.209312 -3.1321
v -3.414065 8.109311 -1.048767
v -3.039064 8.209311 -1.048767
v -3.039064 8.209312 -2.757099
v -3.414064 8.109313 -3.132101
v -3.414064 8.109311 3.117901
v -3.414064 8.109312 1.03457
v -3.414064 8.209312 1.03457
v -3.414064 8.209311 3.117901
v -3.414064 8.209312 1.03457
v -3.039063 8.209312 1.03457
v -3.039065 8.209311 2.7429
v -3.414064 8.209311 3.117901
v -3.039063 8.209312 1.03457
v -3.414064 8.209312 1.03457
v -3.414064 8.109312 1.03457
v -3.039064 8.209311 -1.048767
v -3.414065 8.109311 -1.048767
v -3.414065 8.209311 -1.048767
vt 0.3837891 0.5009766
vt 0.3608398 0.5009766
vt 0.3608398 0.5439453
vt 0.3837891 0.5439453
vt 0.3837891 0.5009766
vt 0.3608398 0.5009766
vt 0.3608398 0.5439453
vt 0.3837891 0.5439453
vt 0.3837891 0.5009766
vt 0.3608398 0.5009766
vt 0.3608398 0.5439453
vt 0.3837891 0.5439453
vt 0.3837891 0.5009766
vt 0.3608398 0.5009766
vt 0.3608398 0.5439453
vt 0.3837891 0.5439453
vt 0.3833008 0.5170898
vt 0.3642578 0.5170898
vt 0.3833008 0.5170898
vt 0.3833008 0.5361328
vt 0.3610007 0.5123335
vt 0.3610013 0.5439367
vt 0.3634323 0.5439367
vt 0.3634318 0.5123334
vt 0.3610007 0.5123335
vt 0.3610013 0.5439367
vt 0.3634323 0.5439367
vt 0.3634318 0.5123334
vt 0.3610007 0.5123335
vt 0.3610013 0.5439367
vt 0.3634323 0.5439367
vt 0.3634318 0.5123334
vt 0.3610013 0.5439367
vt 0.3634323 0.5439367
vt 0.3634318 0.5123334
vt 0.3610007 0.5123335
vt 0.3984375 0.5083008
vt 0.3969727 0.5068359
vt 0.3984375 0.5068359
vt 0.3984375 0.5083008
vt 0.3984375 0.5014648
vt 0.3969727 0.5014648
vt 0.3969727 0.5083008
vt 0.3984375 0.5014648
vt 0.3969727 0.5014648
vt 0.3969727 0.5083008
vt 0.3984375 0.5083008
vt 0.3984375 0.5014648
vt 0.3969727 0.5014648
vt 0.3969727 0.5083008
vt 0.3984375 0.5083008
vt 0.3969727 0.5083008
vt 0.3984375 0.5068359
vt 0.3984375 0.5083008
vt 0.3984375 0.5014648
vt 0.3969727 0.5014648
vt 0.3969727 0.5083008
vt 0.3984375 0.5083008
vt 0.3984375 0.5014648
vt 0.3969727 0.5014648
vt 0.3969727 0.5083008
vt 0.3984375 0.5083008
vt 0.3969727 0.5014648
vt 0.3969727 0.5083008
vt 0.3984375 0.5083008
vt 0.3984375 0.5014648
vt 0.3969727 0.5068359
vt 0.3984375 0.5083008
vt 0.3984375 0.5068359
vt 0.3969727 0.5014648
vt 0.3969727 0.5083008
vt 0.3969727 0.5083008
vt 0.3969727 0.5014648
vt 0.3969727 0.5014648
vt 0.3969727 0.5083008
vt 0.3984375 0.5083008
vt 0.3984375 0.5014648
vt 0.3969727 0.5014648
vt 0.3969727 0.5083008
vt 0.3984375 0.5083008
vt 0.3984375 0.5014648
vt 0.3969727 0.5068359
vt 0.3984375 0.5083008
vt 0.3984375 0.5068359
vt 0.3984375 0.5014648
vt 0.3969727 0.5014648
vt 0.3969727 0.5083008
vt 0.3984375 0.5083008
vt 0.3984375 0.5014648
vt 0.3969727 0.5014648
vt 0.3969727 0.5083008
vt 0.3984375 0.5083008
vt 0.3969727 0.5014648
vt 0.3969727 0.5083008
vt 0.3984375 0.5083008
vt 0.3984375 0.5014648
vt 0.3886719 0.5966797
vt 0.3886719 0.6181641
vt 0.4082031 0.6181641
vt 0.4082031 0.5966797
vt 0.3886719 0.5966797
vt 0.3886719 0.6181641
vt 0.4082031 0.6181641
vt 0.4082031 0.5966797
vt 0.3886719 0.5966797
vt 0.3886719 0.6181641
vt 0.4082031 0.6181641
vt 0.4082031 0.5966797
vt 0.3886719 0.5966797
vt 0.3886719 0.6181641
vt 0.4082031 0.6181641
vt 0.4082031 0.5966797
vt 0.3642578 0.5356445
vt 0.3857422 0.5356445
vt 0.3857422 0.5141602
vt 0.3642578 0.5141602
vt 0.300293 0.5961914
vt 0.300293 0.6176758
vt 0.3217773 0.6176758
vt 0.3217773 0.5961914
vt 0.315918 0.5898438
vt 0.315918 0.5864258
vt 0.2895508 0.5864258
vt 0.2895508 0.5898438
vt 0.315918 0.5898438
vt 0.315918 0.5864258
vt 0.2895508 0.5864258
vt 0.2895508 0.5898438
vt 0.315918 0.5898438
vt 0.315918 0.5864258
vt 0.2895508 0.5864258
vt 0.2895508 0.5898438
vt 0.315918 0.5898438
vt 0.315918 0.5864258
vt 0.2895508 0.5864258
vt 0.2895508 0.5898438
vt 0.2511184 0.6200815
vt 0.2781628 0.6200815
vt 0.2781628 0.5927889
vt 0.2511184 0.5927889
vt 0.3984375 0.5068359
vt 0.3969727 0.5083008
vt 0.3984375 0.5083008
vt 0.3984375 0.5083008
vt 0.3984375 0.5014648
vt 0.3969727 0.5014648
vt 0.3969727 0.5083008
vt 0.3984375 0.5014648
vt 0.3969727 0.5014648
vt 0.3969727 0.5083008
vt 0.3984375 0.5083008
vt 0.3984375 0.5014648
vt 0.3969727 0.5014648
vt 0.3969727 0.5083008
vt 0.3984375 0.5083008
vt 0.3969727 0.5068359
vt 0.3984375 0.5083008
vt 0.3984375 0.5068359
vt 0.3984375 0.5014648
vt 0.3969727 0.5014648
vt 0.3969727 0.5083008
vt 0.3984375 0.5083008
vt 0.3984375 0.5014648
vt 0.3969727 0.5014648
vt 0.3969727 0.5083008
vt 0.3984375 0.5083008
vt 0.3969727 0.5014648
vt 0.3969727 0.5083008
vt 0.3984375 0.5083008
vt 0.3984375 0.5014648
vt 0.3920898 0.5180664
vt 0.3916016 0.5180664
vt 0.3916016 0.5571289
vt 0.3920898 0.5571289
vt 0.3920898 0.5341797
vt 0.3920898 0.5209961
vt 0.3916016 0.5209961
vt 0.3916016 0.5341797
vt 0.3920898 0.5180664
vt 0.3916016 0.5180664
vt 0.3916016 0.5571289
vt 0.3920898 0.5571289
vt 0.3920898 0.5180664
vt 0.3916016 0.5180664
vt 0.3916016 0.5571289
vt 0.3920898 0.5571289
vt 0.3916016 0.5571289
vt 0.3940427 0.5547754
vt 0.3940428 0.5212598
vt 0.3916016 0.519043
vt 0.3916016 0.5571289
vt 0.394043 0.5547756
vt 0.394043 0.5212603
vt 0.3916016 0.519043
vt 0.3916016 0.5336914
vt 0.3916016 0.5209961
vt 0.3940429 0.5231568
vt 0.3940425 0.533567
vt 0.3916016 0.519043
vt 0.3940431 0.5212599
vt 0.3940439 0.5547756
vt 0.3916016 0.5571289
vt 0.3916016 0.5571289
vt 0.3940448 0.5548084
vt 0.3940445 0.521376
vt 0.3916016 0.519043
vt 0.3916016 0.5332031
vt 0.3916016 0.5209961
vt 0.3940443 0.5233134
vt 0.3940437 0.5332392
vt 0.3916016 0.519043
vt 0.3940423 0.5213881
vt 0.3940428 0.5548205
vt 0.3916016 0.5571289
vt 0.3916016 0.5571289
vt 0.394042 0.554783
vt 0.3940418 0.5213504
vt 0.3916016 0.519043
vt 0.3916016 0.5424805
vt 0.3940433 0.5423198
vt 0.3940433 0.5527299
vt 0.3916016 0.5551758
vt 0.3920898 0.5546875
vt 0.3920898 0.5419922
vt 0.3916016 0.5419922
vt 0.3916016 0.5546875
vt 0.3916016 0.5424805
vt 0.3940438 0.5424478
vt 0.3940441 0.5528044
vt 0.3916016 0.5551758
vt 0.3916016 0.5415039
vt 0.3916016 0.5439453
vt 0.3920898 0.5439453
vt 0.3916016 0.5395508
vt 0.3920898 0.5419922
vt 0.3916016 0.5419922
vn -1 0 -1.626001E-07
vn -1 0 -1.626001E-07
vn -1 0 -1.626001E-07
vn -1 0 -1.626001E-07
vn 2.849911E-07 0 1
vn 2.849911E-07 0 1
vn 2.849911E-07 0 1
vn 2.849911E-07 0 1
vn 1 0 -1.222306E-07
vn 1 0 -1.222306E-07
vn 1 0 -1.222306E-07
vn 1 0 -1.222306E-07
vn -2.849911E-07 0 -1
vn -2.849911E-07 0 -1
vn -2.849911E-07 0 -1
vn -2.849911E-07 0 -1
vn 0 -1 0
vn 0 -1 0
vn 0 -1 0
vn 0 -1 0
vn -1 0 0
vn -1 0 0
vn -1 0 0
vn -1 0 0
vn 1.629207E-07 0 1
vn 1.629207E-07 0 1
vn 1.629207E-07 0 1
vn 1.629207E-07 0 1
vn 1 0 -1.629207E-07
vn 1 0 -1.629207E-07
vn 1 0 -1.629207E-07
vn 1 0 -1.629207E-07
vn -1.629207E-07 0 -1
vn -1.629207E-07 0 -1
vn -1.629207E-07 0 -1
vn -1.629207E-07 0 -1
vn 0 -1 0
vn 0 -1 0
vn 0 -1 0
vn 1.629207E-07 0 1
vn 1.629207E-07 0 1
vn -1 0 1.629207E-07
vn -1 0 1.629207E-07
vn -1.629207E-07 0 -1
vn -1.629207E-07 0 -1
vn -1.629207E-07 0 -1
vn -1.629207E-07 0 -1
vn 1 0 -1.629207E-07
vn 1 0 -1.629207E-07
vn 1 0 -1.629207E-07
vn 1 0 -1.629207E-07
vn 0 -1 0
vn 0 -1 0
vn 0 -1 0
vn -1 0 1.629207E-07
vn -1 0 1.629207E-07
vn -1 0 1.629207E-07
vn -1 0 1.629207E-07
vn -1.629207E-07 0 -1
vn -1.629207E-07 0 -1
vn -1.629207E-07 0 -1
vn -1.629207E-07 0 -1
vn 1.629207E-07 0 1
vn 1.629207E-07 0 1
vn 1 0 -1.629207E-07
vn 1 0 -1.629207E-07
vn 0 -1 0
vn 0 -1 0
vn 0 -1 0
vn -1.629207E-07 -2.441409E-06 -1
vn -1.629207E-07 -2.441409E-06 -1
vn -1 0 1.629207E-07
vn -1 0 1.629207E-07
vn 1.629207E-07 0 1
vn 1.629207E-07 0 1
vn 1.629207E-07 0 1
vn 1.629207E-07 0 1
vn 1 0 -1.629207E-07
vn 1 0 -1.629207E-07
vn 1 0 -1.629207E-07
vn 1 0 -1.629207E-07
vn 0 -1 0
vn 0 -1 0
vn 0 -1 0
vn 1.629207E-07 0 1
vn 1.629207E-07 0 1
vn 1.629207E-07 0 1
vn 1.629207E-07 0 1
vn -1 0 1.629207E-07
vn -1 0 1.629207E-07
vn -1 0 1.629207E-07
vn -1 0 1.629207E-07
vn 1 -3.051761E-07 -1.629207E-07
vn 1 -3.051761E-07 -1.629207E-07
vn -1.629207E-07 0 -1
vn -1.629207E-07 0 -1
vn -1 0 0
vn -1 0 0
vn -1 0 0
vn -1 0 0
vn -8.136414E-07 0 1
vn -8.136414E-07 0 1
vn -8.136414E-07 0 1
vn -8.136414E-07 0 1
vn 1 0 -1.018856E-07
vn 1 0 -1.018856E-07
vn 1 0 -1.018856E-07
vn 1 0 -1.018856E-07
vn -1.629207E-07 0 -1
vn -1.629207E-07 0 -1
vn -1.629207E-07 0 -1
vn -1.629207E-07 0 -1
vn 0 -1 0
vn 0 -1 0
vn 0 -1 0
vn 0 -1 0
vn 0 1 0
vn 0 1 0
vn 0 1 0
vn 0 1 0
vn -1 0 1.629207E-07
vn -1 0 1.629207E-07
vn -1 0 1.629207E-07
vn -1 0 1.629207E-07
vn 1.629207E-07 0 1
vn 1.629207E-07 0 1
vn 1.629207E-07 0 1
vn 1.629207E-07 0 1
vn 1 0 -1.629207E-07
vn 1 0 -1.629207E-07
vn 1 0 -1.629207E-07
vn 1 0 -1.629207E-07
vn -1.629207E-07 0 -1
vn -1.629207E-07 0 -1
vn -1.629207E-07 0 -1
vn -1.629207E-07 0 -1
vn 0 1 0
vn 0 1 0
vn 0 1 0
vn 0 1 0
vn 0 -1 0
vn 0 -1 0
vn 0 -1 0
vn 1 -3.051761E-07 -1.629207E-07
vn 1 -3.051761E-07 -1.629207E-07
vn 1.629207E-07 0 1
vn 1.629207E-07 0 1
vn -1 0 1.629207E-07
vn -1 0 1.629207E-07
vn -1 0 1.629207E-07
vn -1 0 1.629207E-07
vn -1.629207E-07 0 -1
vn -1.629207E-07 0 -1
vn -1.629207E-07 0 -1
vn -1.629207E-07 0 -1
vn 0 -1 0
vn 0 -1 0
vn 0 -1 0
vn 1.629207E-07 0 1
vn 1.629207E-07 0 1
vn 1.629207E-07 0 1
vn 1.629207E-07 0 1
vn -1 0 1.629207E-07
vn -1 0 1.629207E-07
vn -1 0 1.629207E-07
vn -1 0 1.629207E-07
vn 1 -3.051761E-07 -1.629207E-07
vn 1 -3.051761E-07 -1.629207E-07
vn -1.629207E-07 0 -1
vn -1.629207E-07 0 -1
vn 0 0 -1
vn 0 0 -1
vn 0 0 -1
vn 0 0 -1
vn -1 0 -4.230167E-07
vn -1 0 -4.230167E-07
vn -1 0 -4.230166E-07
vn -1 0 -4.230166E-07
vn 0 0 1
vn 0 0 1
vn 0 0 1
vn 0 0 1
vn 1 0 0
vn 1 0 0
vn 1 0 0
vn 1 0 0
vn 0 -1 0
vn 0 -1 0
vn 0 -1 0
vn 0 -1 0
vn 0 -1 0
vn 0 -1 0
vn 0 -1 0
vn 0 -1 0
vn 8.942885E-07 -1 1.609722E-07
vn 8.942885E-07 -1 1.609722E-07
vn 8.942885E-07 -1 1.609722E-07
vn 8.942885E-07 -1 1.609722E-07
vn 0 -1 0
vn 0 -1 0
vn 0 -1 0
vn 0 -1 0
vn 0 1 0
vn 0 1 0
vn 0 1 0
vn 0 1 0
vn 0 1 0
vn 0 1 0
vn 0 1 0
vn 0 1 0
vn 0 1 0
vn 0 1 0
vn 0 1 0
vn 0 1 0
vn 0 1 0
vn 0 1 0
vn 0 1 0
vn 0 1 0
vn 1.609726E-07 -1 -3.219437E-07
vn 1.609726E-07 -1 -3.219437E-07
vn 1.609726E-07 -1 -3.219437E-07
vn 1.609726E-07 -1 -3.219437E-07
vn -1 -1.52587E-06 0
vn -1 -1.52587E-06 0
vn -1 -1.52587E-06 0
vn -1 -1.52587E-06 0
vn 8.942877E-07 1 1.609722E-07
vn 8.942878E-07 1 1.609722E-07
vn 8.942878E-07 1 1.609722E-07
vn 8.942877E-07 1 1.609722E-07
vn -9.767215E-07 0 -1
vn -9.767215E-07 0 -1
vn -9.767215E-07 0 -1
vn -3.457048E-07 3.814674E-07 1
vn -3.457048E-07 3.814674E-07 1
vn -3.457048E-07 3.814674E-07 1
g royale_millitary_asset_wach_tower_LOD_1_A_0
f 3/3/3 2/2/2 1/1/1
f 4/4/4 3/3/3 1/1/1
f 7/7/7 6/6/6 5/5/5
f 8/8/8 7/7/7 5/5/5
f 11/11/11 10/10/10 9/9/9
f 12/12/12 11/11/11 9/9/9
f 15/15/15 14/14/14 13/13/13
f 16/16/16 15/15/15 13/13/13
f 19/19/19 18/18/18 17/17/17
f 20/20/20 19/19/19 17/17/17
f 23/23/23 22/22/22 21/21/21
f 24/24/24 23/23/23 21/21/21
f 27/27/27 26/26/26 25/25/25
f 28/28/28 27/27/27 25/25/25
f 31/31/31 30/30/30 29/29/29
f 32/32/32 31/31/31 29/29/29
f 35/35/35 34/34/34 33/33/33
f 36/36/36 35/35/35 33/33/33
f 39/39/39 38/38/38 37/37/37
f 42/42/42 41/41/41 40/40/40
f 43/43/43 42/42/42 40/40/40
f 46/46/46 45/45/45 44/44/44
f 47/47/47 46/46/46 44/44/44
f 50/50/50 49/49/49 48/48/48
f 51/51/51 50/50/50 48/48/48
f 54/54/54 53/53/53 52/52/52
f 57/57/57 56/56/56 55/55/55
f 58/58/58 57/57/57 55/55/55
f 61/61/61 60/60/60 59/59/59
f 62/62/62 61/61/61 59/59/59
f 65/65/65 64/64/64 63/63/63
f 66/66/66 65/65/65 63/63/63
f 69/69/69 68/68/68 67/67/67
f 72/72/72 71/71/71 70/70/70
f 73/73/73 72/72/72 70/70/70
f 76/76/76 75/75/75 74/74/74
f 77/77/77 76/76/76 74/74/74
f 80/80/80 79/79/79 78/78/78
f 81/81/81 80/80/80 78/78/78
f 84/84/84 83/83/83 82/82/82
f 87/87/87 86/86/86 85/85/85
f 88/88/88 87/87/87 85/85/85
f 91/91/91 90/90/90 89/89/89
f 92/92/92 91/91/91 89/89/89
f 95/95/95 94/94/94 93/93/93
f 96/96/96 95/95/95 93/93/93
f 99/99/99 98/98/98 97/97/97
f 100/100/100 99/99/99 97/97/97
f 103/103/103 102/102/102 101/101/101
f 104/104/104 103/103/103 101/101/101
f 107/107/107 106/106/106 105/105/105
f 108/108/108 107/107/107 105/105/105
f 111/111/111 110/110/110 109/109/109
f 112/112/112 111/111/111 109/109/109
f 115/115/115 114/114/114 113/113/113
f 116/116/116 115/115/115 113/113/113
f 119/119/119 118/118/118 117/117/117
f 120/120/120 119/119/119 117/117/117
f 123/123/123 122/122/122 121/121/121
f 124/124/124 123/123/123 121/121/121
f 127/127/127 126/126/126 125/125/125
f 128/128/128 127/127/127 125/125/125
f 131/131/131 130/130/130 129/129/129
f 132/132/132 131/131/131 129/129/129
f 135/135/135 134/134/134 133/133/133
f 136/136/136 135/135/135 133/133/133
f 139/139/139 138/138/138 137/137/137
f 140/140/140 139/139/139 137/137/137
f 143/143/143 142/142/142 141/141/141
f 146/146/146 145/145/145 144/144/144
f 147/147/147 146/146/146 144/144/144
f 150/150/150 149/149/149 148/148/148
f 151/151/151 150/150/150 148/148/148
f 154/154/154 153/153/153 152/152/152
f 155/155/155 154/154/154 152/152/152
f 158/158/158 157/157/157 156/156/156
f 161/161/161 160/160/160 159/159/159
f 162/162/162 161/161/161 159/159/159
f 165/165/165 164/164/164 163/163/163
f 166/166/166 165/165/165 163/163/163
f 169/169/169 168/168/168 167/167/167
f 170/170/170 169/169/169 167/167/167
f 173/173/173 172/172/172 171/171/171
f 174/174/174 173/173/173 171/171/171
f 177/177/177 176/176/176 175/175/175
f 178/178/178 177/177/177 175/175/175
f 181/181/181 180/180/180 179/179/179
f 182/182/182 181/181/181 179/179/179
f 185/185/185 184/184/184 183/183/183
f 186/186/186 185/185/185 183/183/183
f 189/189/189 188/188/188 187/187/187
f 190/190/190 189/189/189 187/187/187
f 193/193/193 192/192/192 191/191/191
f 194/194/194 193/193/193 191/191/191
f 197/197/197 196/196/196 195/195/195
f 198/198/198 197/197/197 195/195/195
f 201/201/201 200/200/200 199/199/199
f 202/202/202 201/201/201 199/199/199
f 205/205/205 204/204/204 203/203/203
f 206/206/206 205/205/205 203/203/203
f 209/209/209 208/208/208 207/207/207
f 210/210/210 209/209/209 207/207/207
f 213/213/213 212/212/212 211/211/211
f 214/214/214 213/213/213 211/211/211
f 217/217/217 216/216/216 215/215/215
f 218/218/218 217/217/217 215/215/215
f 221/221/221 220/220/220 219/219/219
f 222/222/222 221/221/221 219/219/219
f 225/225/225 224/224/224 223/223/223
f 226/226/226 225/225/225 223/223/223
f 229/229/229 228/228/228 227/227/227
f 230/230/230 229/229/229 227/227/227
f 233/233/233 232/232/232 231/231/231
f 236/236/236 235/235/235 234/234/234
