g royale_body_bag_lod1
v 1.132866 0.3750091 0.2540576
v 1.132862 -0.3749866 0.2540576
v -0.8671377 -0.3749866 0.2540576
v -0.8671359 0.3750091 0.2540576
v 1.132862 -0.3749866 0.01405784
v -0.8671377 -0.3749866 0.01405736
v -0.8671377 -0.3749866 0.2540576
v 1.132862 -0.3749866 0.2540576
v 1.132866 0.3750091 0.01405787
v 1.132866 0.3750091 0.2540576
v -0.8671359 0.3750091 0.2540576
v -0.8671359 0.3750091 0.0140574
v 1.132862 -0.3749866 0.01405784
v 1.132862 -0.3749866 0.2540576
v 1.132866 0.3750091 0.2540576
v 1.132866 0.3750091 0.01405787
v -0.8671359 0.3750091 0.0140574
v -0.8671359 0.3750091 0.2540576
v -0.8671377 -0.3749866 0.2540576
v -0.8671377 -0.3749866 0.01405736
v -0.8671359 0.3750091 0.0140574
v -0.8671377 -0.3749866 0.01405736
v -1.25 -0.4999908 -2.737045E-06
v -1.25 0.5000091 -3.175735E-06
v 1.132862 -0.3749866 0.01405784
v 1.132866 0.3750091 0.01405787
v 1.250002 -0.4999908 -2.737045E-06
v 1.250002 0.5000091 -3.175735E-06
v 1.132862 -0.3749866 0.01405784
v 1.250002 -0.4999908 -2.737045E-06
v -1.25 -0.4999908 -2.737045E-06
v -0.8671377 -0.3749866 0.01405736
v -1.25 0.5000091 -3.175735E-06
v 1.250002 0.5000091 -3.175735E-06
v 1.132866 0.3750091 0.01405787
v -0.8671359 0.3750091 0.0140574
vt 0.2268362 0.875
vt 0.6631603 0.875
vt 0.6631603 -0.2885303
vt 0.2268362 -0.2885303
vt 0.9565983 0.9765625
vt 0.9565983 -0.1869678
vt 0.8169746 -0.1869678
vt 0.8169746 0.9765625
vt -0.0625 0.9765625
vt 0.07712269 0.9765625
vt 0.07712269 -0.1869678
vt -0.0625 -0.1869678
vt 0.6665468 1.273437
vt 0.6665468 1.133001
vt 0.2276831 1.133001
vt 0.2276831 1.273438
vt 0.2299156 -0.6291161
vt 0.2299156 -0.4892416
vt 0.6670246 -0.4892416
vt 0.6670246 -0.6291161
vt 0.2268362 -0.1869678
vt 0.6631603 -0.1869678
vt 0.7358809 -0.4097033
vt 0.1541157 -0.4097033
vt 0.6631603 0.9765625
vt 0.2268362 0.9765625
vt 0.7358809 1.044709
vt 0.1541157 1.044709
vt 0.6631603 0.9765625
vt 0.7358809 1.044709
vt 0.7358809 -0.4097033
vt 0.6631603 -0.1869678
vt 0.1541157 -0.4097033
vt 0.1541157 1.044709
vt 0.2268362 0.9765625
vt 0.2268362 -0.1869678
vn 0 0 1
vn 0 0 1
vn 0 0 1
vn 0 0 1
vn 0 -1 0
vn 0 -1 0
vn 0 -1 0
vn 0 -1 0
vn 0 1 0
vn 0 1 0
vn 0 1 0
vn 0 1 0
vn 1 -5.086291E-06 0
vn 1 -5.086291E-06 0
vn 1 -5.086291E-06 0
vn 1 -5.086291E-06 0
vn -1 2.44142E-06 0
vn -1 2.44142E-06 0
vn -1 2.44142E-06 0
vn -1 2.44142E-06 0
vn -0.03669945 2.698325E-07 0.9993263
vn -0.03669945 2.698325E-07 0.9993263
vn -0.03669945 2.698325E-07 0.9993263
vn -0.03669944 2.698325E-07 0.9993263
vn 0.1191762 -6.50353E-07 0.9928731
vn 0.1191762 -6.503529E-07 0.9928731
vn 0.1191762 -6.503529E-07 0.9928731
vn 0.1191842 4.355632E-07 0.9928722
vn -1.052962E-07 -0.1117739 0.9937337
vn -1.052962E-07 -0.1117739 0.9937337
vn -1.052962E-07 -0.1117739 0.9937337
vn -1.052962E-07 -0.1117739 0.9937337
vn -1.052996E-07 0.1117814 0.9937328
vn -1.052996E-07 0.1117814 0.9937328
vn -1.052996E-07 0.1117814 0.9937328
vn -1.052996E-07 0.1117814 0.9937328
g royale_body_bag_lod1_0
f 3/3/3 2/2/2 1/1/1
f 4/4/4 3/3/3 1/1/1
f 7/7/7 6/6/6 5/5/5
f 8/8/8 7/7/7 5/5/5
f 11/11/11 10/10/10 9/9/9
f 12/12/12 11/11/11 9/9/9
f 15/15/15 14/14/14 13/13/13
f 16/16/16 15/15/15 13/13/13
f 19/19/19 18/18/18 17/17/17
f 20/20/20 19/19/19 17/17/17
f 23/23/23 22/22/22 21/21/21
f 24/24/24 23/23/23 21/21/21
f 27/27/27 26/26/26 25/25/25
f 26/26/26 27/27/27 28/28/28
f 31/31/31 30/30/30 29/29/29
f 32/32/32 31/31/31 29/29/29
f 35/35/35 34/34/34 33/33/33
f 36/36/36 35/35/35 33/33/33
