g royale_slender_metall_fence_lod1
v -0.003144531 2.556647 -4.924046E-06
v 0.006850586 -2.651227 -5.619927E-06
v 0.006855469 2.556647 -4.924046E-06
v -0.003149414 -2.651227 -5.619927E-06
v -0.003144531 2.556647 -4.924046E-06
v 0.001850586 -2.651228 3.299994
v -0.003149414 -2.651227 -5.619927E-06
v 0.001855469 2.556647 3.299994
v 0.001850586 -2.651228 3.299994
v 0.006850586 -2.651227 -5.619927E-06
v -0.003149414 -2.651227 -5.619927E-06
v 0.006850586 -2.651227 -5.619927E-06
v 0.001855469 2.556647 3.299994
v 0.006855469 2.556647 -4.924046E-06
v 0.001850586 -2.651228 3.299994
v 0.001855469 2.556647 3.299994
v -0.003144531 2.556647 -4.924046E-06
v 0.006855469 2.556647 -4.924046E-06
v 9.765625E-06 2.451228 -7.077452E-06
v 0.1000098 2.651229 -7.044867E-06
v -0.09999023 2.651229 -7.044867E-06
v 0.1000098 2.651227 3.499993
v 9.765625E-06 2.451227 3.499993
v -0.09999023 2.651227 3.499993
v -0.09999023 2.651229 -7.044867E-06
v 9.765625E-06 2.451227 3.499993
v 9.765625E-06 2.451228 -7.077452E-06
v -0.09999023 2.651227 3.499993
v 9.765625E-06 2.451228 -7.077452E-06
v 0.1000098 2.651227 3.499993
v 0.1000098 2.651229 -7.044867E-06
v 9.765625E-06 2.451227 3.499993
v 0.1000098 2.651229 -7.044867E-06
v -0.09999023 2.651227 3.499993
v -0.09999023 2.651229 -7.044867E-06
v 0.1000098 2.651227 3.499993
vt -0.07226551 3.10153
vt -0.2421105 -2.103051
vt -0.08212018 3.101856
vt -0.2322558 -2.103378
vt -2.10153 -1.346085
vt 3.131794 1.833728
vt 3.103378 -1.418921
vt -2.073113 1.906564
vt 1.788576 1.833728
vt 1.24211 -1.420588
vt 1.232256 -1.418921
vt -2.103051 -1.420588
vt 3.073113 1.906564
vt 3.101856 -1.347752
vt -2.131794 1.833728
vt -0.6285859 1.906564
vt -0.07226551 -1.346085
vt -0.08212018 -1.347752
vt -0.07861233 2.996273
vt -0.1710142 3.199423
vt 0.02607846 3.192897
vt 1.755825 3.16911
vt 1.663423 2.965961
vt 1.558733 3.162585
vt -2.192897 -1.328617
vt -1.965961 2.102577
vt -1.996273 -1.348087
vt -2.162585 2.122046
vt 2.996273 -1.348087
vt 3.16911 2.088701
vt 3.199423 -1.361963
vt 2.965961 2.102577
vt -0.1710142 -1.361963
vt -0.5587325 2.122046
vt 0.02607846 -1.328617
vt -0.7558252 2.088701
vn 0 1.336211E-07 -1
vn 0 1.336211E-07 -1
vn 0 1.336211E-07 -1
vn 0 1.336211E-07 -1
vn -0.9999989 9.373381E-07 0.00151515
vn 0 -1.622909E-07 1
vn -0.9999989 9.373791E-07 0.00151515
vn 0 -1.623028E-07 1
vn 0 -1 -1.849551E-07
vn 0 -1 -1.849551E-07
vn 0 -1 -1.849551E-07
vn 0.9999989 -9.378249E-07 0.00151515
vn 0 -1.623028E-07 1
vn 0.9999989 -9.37784E-07 0.00151515
vn 0 -1.622909E-07 1
vn 0 1 1.849551E-07
vn 0 1 1.849551E-07
vn 0 1 1.849551E-07
vn 0 1.629227E-07 -1
vn 0 1.629227E-07 -1
vn 0 1.629227E-07 -1
vn 0 0 1
vn 0 0 1
vn 0 0 1
vn -0.8944277 -0.4472125 -1.559753E-07
vn 0 -1 -3.487724E-07
vn 0 -1 -3.487723E-07
vn -0.8944277 -0.4472125 -1.559753E-07
vn 0 -1 -3.487723E-07
vn 0.8944277 -0.4472125 -1.559754E-07
vn 0.8944277 -0.4472125 -1.559753E-07
vn 0 -1 -3.487724E-07
vn 0 1 3.487723E-07
vn 0 1 3.487723E-07
vn 0 1 3.487723E-07
vn 0 1 3.487723E-07
g royale_slender_metall_fence_lod1_0
f 3/3/3 2/2/2 1/1/1
f 4/4/4 1/1/1 2/2/2
f 7/7/7 6/6/6 5/5/5
f 8/8/8 5/5/5 6/6/6
f 11/11/11 10/10/10 9/9/9
f 14/14/14 13/13/13 12/12/12
f 15/15/15 12/12/12 13/13/13
f 18/18/18 17/17/17 16/16/16
f 21/21/21 20/20/20 19/19/19
f 24/24/24 23/23/23 22/22/22
f 27/27/27 26/26/26 25/25/25
f 28/28/28 25/25/25 26/26/26
f 31/31/31 30/30/30 29/29/29
f 32/32/32 29/29/29 30/30/30
f 35/35/35 34/34/34 33/33/33
f 36/36/36 33/33/33 34/34/34
