g royale_vending_machine_coka_lod0
v 1.198743 -0.7 2
v 0.1987427 -0.7 2.000001
v 0.1987427 0 2
v 1.198743 0 2
v 0.1987427 -0.7 2.000001
v 0.1987427 -0.7 7.629394E-07
v 0.1987427 0 4.577637E-07
v 0.1987427 0 2
v 1.198743 -0.7 2
v 1.198743 -0.7 7.629394E-07
v 0.1987427 -0.7 7.629394E-07
v 0.1987427 -0.7 2.000001
v 1.198743 0 2
v 1.198743 0 1.525879E-07
v 1.198743 -0.7 7.629394E-07
v 1.198743 -0.7 2
vt 0.0234375 0.96875
vt 0.1796875 0.96875
vt 0.1796875 0.734375
vt 0.0234375 0.734375
vt 0.0234375 0.953125
vt 0.328125 0.953125
vt 0.328125 0.734375
vt 0.0234375 0.734375
vt 0.1796875 0.7086005
vt 0.1796875 0.06249976
vt 0.0234375 0.06249976
vt 0.0234375 0.7086005
vt 0.2890625 0.7086005
vt 0.2890625 0.06249976
vt 0.1796875 0.06249976
vt 0.1796875 0.7086005
vn 3.814697E-07 1.089913E-07 1
vn 3.814697E-07 1.089913E-07 1
vn 3.814697E-07 1.089913E-07 1
vn 3.814697E-07 1.089913E-07 1
vn -1 0 0
vn -1 0 0
vn -1 0 0
vn -1 0 0
vn 0 -1 0
vn 0 -1 0
vn 0 -1 0
vn 0 -1 0
vn 1 0 0
vn 1 0 0
vn 1 0 0
vn 1 0 0
g royale_vending_machine_coka_lod0_0
f 3/3/3 2/2/2 1/1/1
f 4/4/4 3/3/3 1/1/1
f 7/7/7 6/6/6 5/5/5
f 8/8/8 7/7/7 5/5/5
f 11/11/11 10/10/10 9/9/9
f 12/12/12 11/11/11 9/9/9
f 15/15/15 14/14/14 13/13/13
f 16/16/16 15/15/15 13/13/13
