g royale_car_blue_crashed_mesh_lod01_A
v 0.8636279 -1.828731 2.04099
v -1.247754 -1.761422 1.851461
v -1.151798 0.7762787 1.683701
v 0.9594841 0.709016 1.873219
v -1.247754 -1.761422 1.851461
v -1.077981 0.7177515 0.8405883
v -1.151798 0.7762787 1.683701
v -1.173937 -1.81995 1.008348
v 0.8636279 -1.828731 2.04099
v -1.173937 -1.81995 1.008348
v -1.247754 -1.761422 1.851461
v 0.9374446 -1.887258 1.197878
v 0.9594841 0.709016 1.873219
v 0.9374446 -1.887258 1.197878
v 0.8636279 -1.828731 2.04099
v 1.033301 0.6504892 1.030106
v -1.151798 0.7762787 1.683701
v 1.033301 0.6504892 1.030106
v 0.9594841 0.709016 1.873219
v -1.077981 0.7177515 0.8405883
v 1.378066 2.122717 0.2349027
v 1.143685 -2.05708 1.36134
v 1.303974 2.181462 1.081145
v 1.217775 -2.115824 0.5150992
v -1.165168 2.203796 0.006607243
v -1.399462 -1.97601 1.133053
v -1.325371 -2.034755 0.2868114
v -1.239259 2.262541 0.8528493
v 1.217775 -2.115824 0.5150992
v -1.399462 -1.97601 1.133053
v 1.143685 -2.05708 1.36134
v -1.325371 -2.034755 0.2868114
v 1.143685 -2.05708 1.36134
v -1.239259 2.262541 0.8528493
v 1.303974 2.181462 1.081145
v -1.399462 -1.97601 1.133053
v 1.303974 2.181462 1.081145
v -1.165168 2.203796 0.006607243
v 1.378066 2.122717 0.2349027
v -1.239259 2.262541 0.8528493
v 2.120466 1.773119 0.05767911
v 1.487819 0.7957273 0.4578015
v 1.412418 1.674613 0.5283151
v 2.195867 0.8942314 -0.01283522
v 1.340001 -1.198445 -0.2115856
v 1.430141 -1.917087 0.7839667
v 1.431018 -1.046381 0.6257464
v 1.339124 -2.06915 -0.053366
v 1.378066 2.122717 0.2349027
v -1.165168 2.203796 0.006607243
v -1.325371 -2.034755 0.2868114
v 1.217775 -2.115824 0.5150992
vt 0.972168 0.1699219
vt 0.972168 0.1586914
vt 0.9575195 0.1586914
vt 0.9575195 0.1699219
vt 0.9716797 0.1835938
vt 0.9575195 0.1782227
vt 0.9575195 0.1835938
vt 0.9716797 0.1782227
vt 0.9785156 0.1958008
vt 0.9663086 0.190918
vt 0.9663086 0.1958008
vt 0.9785156 0.190918
vt 0.9907227 0.1835938
vt 0.9765625 0.1782227
vt 0.9765625 0.1835938
vt 0.9907227 0.1782227
vt 0.9633789 0.1958008
vt 0.9506836 0.190918
vt 0.9506836 0.1958008
vt 0.9633789 0.190918
vt 0.9985352 0.1723633
vt 0.9746094 0.1772461
vt 0.9985352 0.1772461
vt 0.9746094 0.1723633
vt 0.9741211 0.1723633
vt 0.9501953 0.1772461
vt 0.9501953 0.1723633
vt 0.9741211 0.1772461
vt 0.9643555 0.1860352
vt 0.9492188 0.190918
vt 0.9643555 0.190918
vt 0.9492188 0.1860352
vt 0.9741211 0.1713867
vt 0.949707 0.1572266
vt 0.949707 0.1713867
vt 0.9741211 0.1572266
vt 0.965332 0.190918
vt 0.9794922 0.1860352
vt 0.965332 0.1860352
vt 0.9794922 0.190918
vt 0.9916992 0.1904297
vt 0.9863281 0.1958008
vt 0.9916992 0.1958008
vt 0.9863281 0.1904297
vt 0.9916992 0.1904297
vt 0.9863281 0.1958008
vt 0.9916992 0.1958008
vt 0.9863281 0.1904297
vt 0.9980469 0.1708984
vt 0.9980469 0.1577148
vt 0.9750977 0.1577148
vt 0.9750977 0.1708984
vn -0.0870112 0.06898827 0.9938157
vn -0.08701121 0.06898827 0.9938157
vn -0.08701121 0.06898826 0.9938157
vn -0.0870112 0.06898827 0.9938157
vn -0.9954935 0.03173416 -0.08936179
vn -0.9954935 0.03173432 -0.08936139
vn -0.9954935 0.03173437 -0.08936122
vn -0.9954935 0.0317341 -0.08936187
vn -0.03770419 -0.9971125 0.06591672
vn -0.03770433 -0.9971125 0.06591697
vn -0.03770439 -0.9971125 0.06591708
vn -0.03770414 -0.9971125 0.06591661
vn 0.9954951 -0.03169454 0.08935863
vn 0.9954951 -0.03169451 0.08935855
vn 0.9954951 -0.03169449 0.08935851
vn 0.9954951 -0.03169455 0.08935867
vn 0.03768368 0.9971132 -0.06591816
vn 0.03768374 0.9971132 -0.06591798
vn 0.03768376 0.9971132 -0.06591788
vn 0.03768365 0.9971132 -0.06591824
vn 0.9954933 -0.03173922 0.08936178
vn 0.9954934 -0.03173948 0.0893609
vn 0.9954933 -0.03173918 0.08936194
vn 0.9954934 -0.03173952 0.08936073
vn -0.9954942 0.03171899 -0.08935975
vn -0.9954941 0.03171878 -0.08936048
vn -0.9954941 0.03171874 -0.08936055
vn -0.9954942 0.03171903 -0.08935966
vn -0.03770245 -0.9971126 0.0659163
vn -0.03770237 -0.9971126 0.06591667
vn -0.03770249 -0.9971126 0.06591617
vn -0.03770234 -0.9971126 0.06591679
vn -0.0870113 0.06898835 0.9938157
vn -0.08701126 0.06898835 0.9938157
vn -0.08701128 0.06898835 0.9938157
vn -0.08701126 0.06898835 0.9938157
vn 0.03770524 0.9971125 -0.06591602
vn 0.03770525 0.9971125 -0.06591603
vn 0.03770524 0.9971125 -0.06591602
vn 0.03770525 0.9971125 -0.06591604
vn 0.5553009 -0.01906624 0.8314309
vn 0.555301 -0.01906626 0.8314309
vn 0.5553005 -0.01906581 0.8314313
vn 0.5553014 -0.0190667 0.8314306
vn 0.994329 -0.01998215 -0.1044534
vn 0.994329 -0.01998212 -0.1044534
vn 0.9943289 -0.01998278 -0.1044539
vn 0.994329 -0.01998149 -0.104453
vn 0.08701145 -0.06898845 -0.9938157
vn 0.08701145 -0.06898845 -0.9938157
vn 0.08701145 -0.06898845 -0.9938157
vn 0.08701143 -0.06898845 -0.9938157
g royale_car_blue_crashed_mesh_lod01_A_0
f 3/3/3 2/2/2 1/1/1
f 4/4/4 3/3/3 1/1/1
f 7/7/7 6/6/6 5/5/5
f 8/8/8 5/5/5 6/6/6
f 11/11/11 10/10/10 9/9/9
f 12/12/12 9/9/9 10/10/10
f 15/15/15 14/14/14 13/13/13
f 16/16/16 13/13/13 14/14/14
f 19/19/19 18/18/18 17/17/17
f 20/20/20 17/17/17 18/18/18
f 23/23/23 22/22/22 21/21/21
f 24/24/24 21/21/21 22/22/22
f 27/27/27 26/26/26 25/25/25
f 28/28/28 25/25/25 26/26/26
f 31/31/31 30/30/30 29/29/29
f 32/32/32 29/29/29 30/30/30
f 35/35/35 34/34/34 33/33/33
f 36/36/36 33/33/33 34/34/34
f 39/39/39 38/38/38 37/37/37
f 40/40/40 37/37/37 38/38/38
f 43/43/43 42/42/42 41/41/41
f 44/44/44 41/41/41 42/42/42
f 47/47/47 46/46/46 45/45/45
f 48/48/48 45/45/45 46/46/46
f 51/51/51 50/50/50 49/49/49
f 52/52/52 51/51/51 49/49/49
