g royale_orc_flag_2
v -0.51854 -0.5000012 0.9999987
v 0.4814599 0.4999988 0.9999987
v 0.4814599 -0.5000012 0.9999987
v -0.51854 0.4999988 0.9999987
v -0.51854 -0.5000012 -1.220703E-06
v 0.4814599 -0.5000012 0.9999987
v 0.4814599 -0.5000012 -1.220703E-06
v -0.51854 -0.5000012 0.9999987
v 0.4814599 -0.5000012 -1.220703E-06
v 0.4814599 0.4999988 0.9999987
v 0.4814599 0.4999988 -1.220703E-06
v 0.4814599 -0.5000012 0.9999987
v 0.4814599 0.4999988 -1.220703E-06
v -0.51854 0.4999988 0.9999987
v -0.51854 0.4999988 -1.220703E-06
v 0.4814599 0.4999988 0.9999987
v -0.51854 0.4999988 -1.220703E-06
v -0.51854 -0.5000012 0.9999987
v -0.51854 -0.5000012 -1.220703E-06
v -0.51854 0.4999988 0.9999987
v -0.14354 -0.1250061 1.968885
v 0.10646 0.1249939 1.968885
v 0.10646 -0.1250061 1.968885
v -0.14354 0.1249939 1.968885
v -0.14354 -0.1250061 0.9688855
v 0.10646 -0.1250061 1.968885
v 0.10646 -0.1250061 0.9688855
v -0.14354 -0.1250061 1.968885
v 0.10646 -0.1250061 0.9688855
v 0.10646 0.1249939 1.968885
v 0.10646 0.1249939 0.9688855
v 0.10646 -0.1250061 1.968885
v 0.10646 0.1249939 0.9688855
v -0.14354 0.1249939 1.968885
v -0.14354 0.1249939 0.9688855
v 0.10646 0.1249939 1.968885
v -0.14354 0.1249939 0.9688855
v -0.14354 -0.1250061 1.968885
v -0.14354 -0.1250061 0.9688855
v -0.14354 0.1249939 1.968885
v -0.08104004 -0.06250488 5.937685
v 0.04395996 0.06249512 5.937685
v 0.04395996 -0.06250488 5.937685
v -0.08104004 0.06249512 5.937685
v -0.08104004 -0.0625061 1.937685
v 0.04395996 -0.06250488 5.937685
v 0.04395996 -0.0625061 1.937685
v -0.08104004 -0.06250488 5.937685
v 0.04395996 -0.0625061 1.937685
v 0.04395996 0.06249512 5.937685
v 0.04395996 0.06249389 1.937685
v 0.04395996 -0.06250488 5.937685
v 0.04395996 0.06249389 1.937685
v -0.08104004 0.06249512 5.937685
v -0.08104004 0.06249389 1.937685
v 0.04395996 0.06249512 5.937685
v -0.08104004 0.06249389 1.937685
v -0.08104004 -0.06250488 5.937685
v -0.08104004 -0.0625061 1.937685
v -0.08104004 0.06249512 5.937685
v -0.14354 -0.1250049 5.560466
v 0.10646 0.1249951 5.560466
v -0.14354 0.1249951 5.560466
v 0.10646 -0.1250049 5.560466
v -0.14354 -0.1250049 5.810466
v 0.10646 0.1249951 5.810466
v 0.10646 -0.1250049 5.810466
v -0.14354 0.1249951 5.810466
v -0.14354 -0.1250049 5.560466
v 0.10646 -0.1250049 5.810466
v 0.10646 -0.1250049 5.560466
v -0.14354 -0.1250049 5.810466
v 0.10646 -0.1250049 5.560466
v 0.10646 0.1249951 5.810466
v 0.10646 0.1249951 5.560466
v 0.10646 -0.1250049 5.810466
v 0.10646 0.1249951 5.560466
v -0.14354 0.1249951 5.810466
v -0.14354 0.1249951 5.560466
v 0.10646 0.1249951 5.810466
v -0.14354 0.1249951 5.560466
v -0.14354 -0.1250049 5.810466
v -0.14354 -0.1250049 5.560466
v -0.14354 0.1249951 5.810466
v 1.518184 -0.01048706 2.497818
v 0.01818359 -0.01048096 5.497817
v 1.518184 -0.01048584 5.497817
v 0.01818359 -0.01048218 2.497818
v 1.518184 0.02901062 2.497818
v 0.01818359 0.02901672 5.497817
v 0.01818359 0.0290155 2.497818
v 1.518184 0.02901184 5.497817
vt 0.78125 0.0703125
vt 0.921875 0.2109375
vt 0.921875 0.0703125
vt 0.78125 0.2109375
vt 0.78125 0.0703125
vt 0.921875 0.2109375
vt 0.921875 0.0703125
vt 0.78125 0.2109375
vt 0.78125 0.0703125
vt 0.921875 0.2109375
vt 0.921875 0.0703125
vt 0.78125 0.2109375
vt 0.78125 0.0703125
vt 0.921875 0.2109375
vt 0.921875 0.0703125
vt 0.78125 0.2109375
vt 0.78125 0.0703125
vt 0.921875 0.2109375
vt 0.921875 0.0703125
vt 0.78125 0.2109375
vt 0.0859375 0.21875
vt 0.0546875 0.25
vt 0.0859375 0.25
vt 0.0546875 0.21875
vt 0.6484375 0.203125
vt 0.5234375 0.234375
vt 0.6484375 0.234375
vt 0.5234375 0.203125
vt 0.6484375 0.203125
vt 0.5234375 0.234375
vt 0.6484375 0.234375
vt 0.5234375 0.203125
vt 0.6484375 0.203125
vt 0.5234375 0.234375
vt 0.6484375 0.234375
vt 0.5234375 0.203125
vt 0.6484375 0.203125
vt 0.5234375 0.234375
vt 0.6484375 0.234375
vt 0.5234375 0.203125
vt 0.078125 0.2265625
vt 0.0625 0.2421875
vt 0.078125 0.2421875
vt 0.0625 0.2265625
vt 0.5703125 0.0703125
vt 0.0390625 0.0859375
vt 0.5703125 0.0859375
vt 0.0390625 0.0703125
vt 0.5703125 0.0703125
vt 0.0390625 0.0859375
vt 0.5703125 0.0859375
vt 0.0390625 0.0703125
vt 0.5703125 0.0703125
vt 0.0390625 0.0859375
vt 0.5703125 0.0859375
vt 0.0390625 0.0703125
vt 0.5703125 0.0703125
vt 0.0390625 0.0859375
vt 0.5703125 0.0859375
vt 0.0390625 0.0703125
vt 0.0859375 0.25
vt 0.0546875 0.21875
vt 0.0546875 0.25
vt 0.0859375 0.21875
vt 0.0859375 0.21875
vt 0.0546875 0.25
vt 0.0859375 0.25
vt 0.0546875 0.21875
vt 0.0859375 0.1875
vt 0.0546875 0.21875
vt 0.0859375 0.21875
vt 0.0546875 0.1875
vt 0.0859375 0.1875
vt 0.0546875 0.21875
vt 0.0859375 0.21875
vt 0.0546875 0.1875
vt 0.0859375 0.1875
vt 0.0546875 0.21875
vt 0.0859375 0.21875
vt 0.0546875 0.1875
vt 0.0859375 0.1875
vt 0.0546875 0.21875
vt 0.0859375 0.21875
vt 0.0546875 0.1875
vt 0.9440886 0.7344131
vt 0.5544326 0.5395852
vt 0.5544326 0.7344131
vt 0.9440886 0.5395852
vt 0.9440886 0.7344131
vt 0.5544326 0.5395852
vt 0.9440886 0.5395852
vt 0.5544326 0.7344131
vn 0 0 1
vn 0 0 1
vn 0 0 1
vn 0 0 1
vn 0 -1 0
vn 0 -1 0
vn 0 -1 0
vn 0 -1 0
vn 1 0 0
vn 1 0 0
vn 1 0 0
vn 1 0 0
vn 0 1 0
vn 0 1 0
vn 0 1 0
vn 0 1 0
vn -1 0 0
vn -1 0 0
vn -1 0 0
vn -1 0 0
vn 0 0 1
vn 0 0 1
vn 0 0 1
vn 0 0 1
vn 0 -1 0
vn 0 -1 0
vn 0 -1 0
vn 0 -1 0
vn 1 0 0
vn 1 0 0
vn 1 0 0
vn 1 0 0
vn 0 1 0
vn 0 1 0
vn 0 1 0
vn 0 1 0
vn -1 0 0
vn -1 0 0
vn -1 0 0
vn -1 0 0
vn 0 0 1
vn 0 0 1
vn 0 0 1
vn 0 0 1
vn 0 -1 3.051757E-07
vn 0 -1 3.051757E-07
vn 0 -1 3.051758E-07
vn 0 -1 3.051758E-07
vn 1 0 0
vn 1 0 0
vn 1 0 0
vn 1 0 0
vn 0 1 -3.051757E-07
vn 0 1 -3.051757E-07
vn 0 1 -3.051758E-07
vn 0 1 -3.051758E-07
vn -1 0 0
vn -1 0 0
vn -1 0 0
vn -1 0 0
vn 0 0 -1
vn 0 0 -1
vn 0 0 -1
vn 0 0 -1
vn 0 0 1
vn 0 0 1
vn 0 0 1
vn 0 0 1
vn 0 -1 0
vn 0 -1 0
vn 0 -1 0
vn 0 -1 0
vn 1 0 0
vn 1 0 0
vn 1 0 0
vn 1 0 0
vn 0 1 0
vn 0 1 0
vn 0 1 0
vn 0 1 0
vn -1 0 0
vn -1 0 0
vn -1 0 0
vn -1 0 0
vn -3.255208E-06 -1 4.069011E-07
vn -3.255208E-06 -1 4.069011E-07
vn -3.255208E-06 -1 4.069011E-07
vn -3.255208E-06 -1 4.069011E-07
vn 3.255208E-06 1 -4.069011E-07
vn 3.255208E-06 1 -4.069011E-07
vn 3.255208E-06 1 -4.069011E-07
vn 3.255208E-06 1 -4.069011E-07
g royale_orc_flag_2_0
f 3/3/3 2/2/2 1/1/1
f 4/4/4 1/1/1 2/2/2
f 7/7/7 6/6/6 5/5/5
f 8/8/8 5/5/5 6/6/6
f 11/11/11 10/10/10 9/9/9
f 12/12/12 9/9/9 10/10/10
f 15/15/15 14/14/14 13/13/13
f 16/16/16 13/13/13 14/14/14
f 19/19/19 18/18/18 17/17/17
f 20/20/20 17/17/17 18/18/18
f 23/23/23 22/22/22 21/21/21
f 24/24/24 21/21/21 22/22/22
f 27/27/27 26/26/26 25/25/25
f 28/28/28 25/25/25 26/26/26
f 31/31/31 30/30/30 29/29/29
f 32/32/32 29/29/29 30/30/30
f 35/35/35 34/34/34 33/33/33
f 36/36/36 33/33/33 34/34/34
f 39/39/39 38/38/38 37/37/37
f 40/40/40 37/37/37 38/38/38
f 43/43/43 42/42/42 41/41/41
f 44/44/44 41/41/41 42/42/42
f 47/47/47 46/46/46 45/45/45
f 48/48/48 45/45/45 46/46/46
f 51/51/51 50/50/50 49/49/49
f 52/52/52 49/49/49 50/50/50
f 55/55/55 54/54/54 53/53/53
f 56/56/56 53/53/53 54/54/54
f 59/59/59 58/58/58 57/57/57
f 60/60/60 57/57/57 58/58/58
f 63/63/63 62/62/62 61/61/61
f 64/64/64 61/61/61 62/62/62
f 67/67/67 66/66/66 65/65/65
f 68/68/68 65/65/65 66/66/66
f 71/71/71 70/70/70 69/69/69
f 72/72/72 69/69/69 70/70/70
f 75/75/75 74/74/74 73/73/73
f 76/76/76 73/73/73 74/74/74
f 79/79/79 78/78/78 77/77/77
f 80/80/80 77/77/77 78/78/78
f 83/83/83 82/82/82 81/81/81
f 84/84/84 81/81/81 82/82/82
f 87/87/87 86/86/86 85/85/85
f 88/88/88 85/85/85 86/86/86
f 91/91/91 90/90/90 89/89/89
f 92/92/92 89/89/89 90/90/90
