g royal_fence_wood_angle_lod00
v -0.1249876 0.01183587 -0.001003241
v -4.937229 0.01183099 -0.001003241
v -4.937234 0.01183095 1.986844
v -0.1249926 0.01184071 1.986843
v -0.1511762 0.03353941 -0.001003333
v 0.03019929 -0.1385152 -0.001003369
v 0.03019929 -0.1385154 2.11184
v -0.1511762 0.0335393 2.11184
v -2.759392 -0.005263936 2.11184
v -2.759392 -0.005263796 -0.0010033
v -2.509392 -0.005263796 -0.0010033
v -2.509392 -0.005263936 2.11184
v -5.105947 0.0002350118 2.11184
v -5.105947 0.0002351226 -0.001003224
v -4.855952 0.0002351226 -0.001003224
v -4.855952 0.0002350118 2.11184
v 3.099442E-06 -0.1139384 -0.001003289
v 8.106232E-06 -4.92618 -0.001004054
v 7.390976E-06 -4.926186 1.986843
v -2.384186E-06 -0.1139437 1.986843
v -0.02259025 -2.498343 -0.001003705
v -0.02259025 -2.748348 -0.001003757
v -0.02259526 -2.748343 2.11184
v -0.02259049 -2.498343 2.11184
v -0.02225152 -4.844903 -0.001004038
v -0.02224675 -5.094903 -0.001004089
v -0.02224675 -5.094899 2.11184
v -0.02225152 -4.844903 2.11184
vt 0.02534032 0.7265466
vt 0.9779541 0.7265466
vt 0.9779541 0.3489072
vt 0.02534032 0.3489072
vt 0.04915375 0.2636517
vt 0.04914401 0.3085664
vt 0.4644026 0.3085694
vt 0.4644041 0.2636532
vt 0.4644041 0.2636532
vt 0.04915375 0.2636517
vt 0.04914401 0.3085664
vt 0.4644026 0.3085694
vt 0.4644041 0.2636532
vt 0.04915375 0.2636517
vt 0.04914401 0.3085664
vt 0.4644026 0.3085694
vt 0.02534032 0.7265466
vt 0.9779541 0.7265466
vt 0.9779541 0.3489072
vt 0.02534032 0.3489072
vt 0.04914708 0.2636507
vt 0.04914708 0.3085658
vt 0.4644016 0.3085658
vt 0.4644016 0.2636507
vt 0.04914708 0.2636507
vt 0.04914708 0.3085658
vt 0.4644016 0.3085658
vt 0.4644016 0.2636507
vn 1.522088E-06 -1 1.208755E-06
vn 1.522088E-06 -1 1.208755E-06
vn 1.522088E-06 -1 1.208755E-06
vn 1.522088E-06 -1 1.208755E-06
vn 0.6882194 0.7255027 0
vn 0.6882194 0.7255027 0
vn 0.6882194 0.7255027 0
vn 0.6882194 0.7255027 0
vn 0 1 0
vn 0 1 0
vn 0 1 0
vn 0 1 0
vn 0 1 0
vn 0 1 0
vn 0 1 0
vn 0 1 0
vn 1 1.53587E-06 1.559199E-06
vn 1 1.53587E-06 1.559199E-06
vn 1 1.53587E-06 1.559199E-06
vn 1 1.53587E-06 1.559199E-06
vn 1 -9.536646E-06 1.241063E-06
vn 1 -9.536646E-06 1.241063E-06
vn 1 -9.536646E-06 1.241063E-06
vn 1 -9.536646E-06 1.241063E-06
vn 1 1.907363E-05 0
vn 1 1.907363E-05 0
vn 1 1.907363E-05 0
vn 1 1.907363E-05 0
g royal_fence_wood_angle_lod00_0
f 3/3/3 2/2/2 1/1/1
f 4/4/4 3/3/3 1/1/1
f 7/7/7 6/6/6 5/5/5
f 8/8/8 7/7/7 5/5/5
f 11/11/11 10/10/10 9/9/9
f 12/12/12 11/11/11 9/9/9
f 15/15/15 14/14/14 13/13/13
f 16/16/16 15/15/15 13/13/13
f 19/19/19 18/18/18 17/17/17
f 20/20/20 19/19/19 17/17/17
f 23/23/23 22/22/22 21/21/21
f 24/24/24 23/23/23 21/21/21
f 27/27/27 26/26/26 25/25/25
f 28/28/28 27/27/27 25/25/25
