g royale_truck_cistern_lod0_A
v -0.5994102 -8.388006 1.449188
v 0.5255898 1.611992 1.449187
v -0.5994102 1.611992 1.449187
v 0.5255898 -8.388006 1.449188
v -0.5994102 1.611992 4.074187
v 0.5255898 -8.388006 4.074188
v -0.5994102 -8.388006 4.074188
v 0.5255898 1.611992 4.074187
v 1.27559 -8.388006 2.199188
v 1.27559 1.611992 3.324187
v 1.27559 1.611992 2.199187
v 1.27559 -8.388006 3.324188
v -1.34941 1.611992 2.199187
v -1.34941 -8.388006 3.324188
v -1.34941 -8.388006 2.199188
v -1.34941 1.611992 3.324187
v -0.5994102 -8.388006 3.699188
v 0.5255898 -8.388006 3.699188
v -0.03691021 -8.388006 2.761688
v -0.9744102 -8.388006 3.324188
v -0.9744102 -8.388006 2.199188
v 0.9005896 -8.388006 3.324188
v 0.9005896 -8.388006 2.199188
v 0.5255898 -8.388006 1.824188
v -0.5994102 -8.388006 1.824188
v 0.9005896 -8.388006 3.699188
v -0.9744102 -8.388006 3.699188
v 0.9005896 -8.388006 1.824188
v -0.9744102 -8.388006 1.824188
v 0.9005896 -8.388006 3.324188
v 0.9005896 1.611992 3.699187
v 0.9005896 1.611992 3.324187
v 0.9005896 -8.388006 3.699188
v 0.9005896 1.611992 2.199187
v 0.9005896 -8.388006 1.824188
v 0.9005896 -8.388006 2.199188
v 0.9005896 1.611992 1.824187
v 0.5255898 1.611992 3.699187
v -0.5994102 1.611992 3.699187
v -0.03691021 1.611992 2.761687
v 0.9005896 1.611992 3.324187
v 0.9005896 1.611992 2.199187
v -0.9744102 1.611992 3.324187
v -0.9744102 1.611992 2.199187
v -0.5994102 1.611992 1.824187
v 0.5255898 1.611992 1.824187
v 0.9005896 1.611992 3.699187
v -0.9744102 1.611992 3.699187
v 0.9005896 1.611992 1.824187
v -0.9744102 1.611992 1.824187
v -0.9744102 1.611992 3.324187
v -0.9744102 -8.388006 3.699188
v -0.9744102 -8.388006 3.324188
v -0.9744102 1.611992 3.699187
v -0.9744102 -8.388006 2.199188
v -0.9744102 1.611992 1.824187
v -0.9744102 1.611992 2.199187
v -0.9744102 -8.388006 1.824188
v 0.5255898 -8.388006 1.824188
v 0.9005896 1.611992 1.824187
v 0.5255898 1.611992 1.824187
v 0.9005896 -8.388006 1.824188
v -0.5994102 1.611992 1.824187
v -0.9744102 -8.388006 1.824188
v -0.5994102 -8.388006 1.824188
v -0.9744102 1.611992 1.824187
v 0.5255898 1.611992 3.699187
v 0.9005896 -8.388006 3.699188
v 0.5255898 -8.388006 3.699188
v 0.9005896 1.611992 3.699187
v -0.5994102 -8.388006 3.699188
v -0.9744102 1.611992 3.699187
v -0.5994102 1.611992 3.699187
v -0.9744102 -8.388006 3.699188
v 0.5255898 1.611992 1.449187
v -0.5994102 1.611992 1.824187
v -0.5994102 1.611992 1.449187
v 0.5255898 1.611992 1.824187
v 0.5255898 -8.388006 1.449188
v 0.5255898 1.611992 1.824187
v 0.5255898 1.611992 1.449187
v 0.5255898 -8.388006 1.824188
v -0.5994102 -8.388006 1.449188
v 0.5255898 -8.388006 1.824188
v 0.5255898 -8.388006 1.449188
v -0.5994102 -8.388006 1.824188
v -0.5994102 1.611992 1.449187
v -0.5994102 -8.388006 1.824188
v -0.5994102 -8.388006 1.449188
v -0.5994102 1.611992 1.824187
v 0.5255898 -8.388006 4.074188
v -0.5994102 -8.388006 3.699188
v -0.5994102 -8.388006 4.074188
v 0.5255898 -8.388006 3.699188
v 0.5255898 1.611992 4.074187
v 0.5255898 -8.388006 3.699188
v 0.5255898 -8.388006 4.074188
v 0.5255898 1.611992 3.699187
v -0.5994102 1.611992 4.074187
v 0.5255898 1.611992 3.699187
v 0.5255898 1.611992 4.074187
v -0.5994102 1.611992 3.699187
v -0.5994102 -8.388006 4.074188
v -0.5994102 1.611992 3.699187
v -0.5994102 1.611992 4.074187
v -0.5994102 -8.388006 3.699188
v 1.27559 -8.388006 2.199188
v 0.9005896 -8.388006 3.324188
v 1.27559 -8.388006 3.324188
v 0.9005896 -8.388006 2.199188
v 1.27559 1.611992 2.199187
v 0.9005896 -8.388006 2.199188
v 1.27559 -8.388006 2.199188
v 0.9005896 1.611992 2.199187
v 1.27559 1.611992 3.324187
v 0.9005896 1.611992 2.199187
v 1.27559 1.611992 2.199187
v 0.9005896 1.611992 3.324187
v 1.27559 -8.388006 3.324188
v 0.9005896 1.611992 3.324187
v 1.27559 1.611992 3.324187
v 0.9005896 -8.388006 3.324188
v -1.34941 -8.388006 3.324188
v -0.9744102 -8.388006 2.199188
v -1.34941 -8.388006 2.199188
v -0.9744102 -8.388006 3.324188
v -1.34941 1.611992 3.324187
v -0.9744102 -8.388006 3.324188
v -1.34941 -8.388006 3.324188
v -0.9744102 1.611992 3.324187
v -1.34941 1.611992 2.199187
v -0.9744102 1.611992 3.324187
v -1.34941 1.611992 3.324187
v -0.9744102 1.611992 2.199187
v -1.34941 -8.388006 2.199188
v -0.9744102 1.611992 2.199187
v -1.34941 1.611992 2.199187
v -0.9744102 -8.388006 2.199188
vt 0.7539063 0.5751953
vt 0.7641602 0.5039063
vt 0.7539063 0.5039063
vt 0.7641602 0.5751953
vt 0.7539063 0.5751953
vt 0.7641602 0.5039063
vt 0.7539063 0.5039063
vt 0.7641602 0.5751953
vt 0.7539063 0.5039063
vt 0.7641602 0.5751953
vt 0.7539063 0.5751953
vt 0.7641602 0.5039063
vt 0.7539063 0.5751953
vt 0.7641602 0.5039063
vt 0.7539063 0.5039063
vt 0.7641602 0.5751953
vt 0.7714844 0.5395508
vt 0.7822266 0.5395508
vt 0.7768555 0.5307617
vt 0.7680664 0.5361328
vt 0.7680664 0.5253906
vt 0.7856445 0.5361328
vt 0.7856445 0.5253906
vt 0.7822266 0.5219727
vt 0.7714844 0.5219727
vt 0.7856445 0.5395508
vt 0.7680664 0.5395508
vt 0.7856445 0.5219727
vt 0.7680664 0.5219727
vt 0.7641602 0.5039063
vt 0.7680664 0.5751953
vt 0.7641602 0.5751953
vt 0.7680664 0.5039063
vt 0.7539063 0.5751953
vt 0.75 0.5039063
vt 0.7539063 0.5039063
vt 0.75 0.5751953
vt 0.7714844 0.5395508
vt 0.7822266 0.5395508
vt 0.7768555 0.5307617
vt 0.7680664 0.5361328
vt 0.7680664 0.5253906
vt 0.7856445 0.5361328
vt 0.7856445 0.5253906
vt 0.7822266 0.5219727
vt 0.7714844 0.5219727
vt 0.7680664 0.5395508
vt 0.7856445 0.5395508
vt 0.7680664 0.5219727
vt 0.7856445 0.5219727
vt 0.7641602 0.5751953
vt 0.7680664 0.5039063
vt 0.7641602 0.5039063
vt 0.7680664 0.5751953
vt 0.7539063 0.5039063
vt 0.75 0.5751953
vt 0.7539063 0.5751953
vt 0.75 0.5039063
vt 0.7641602 0.5039063
vt 0.7680664 0.5751953
vt 0.7641602 0.5751953
vt 0.7680664 0.5039063
vt 0.7539063 0.5751953
vt 0.75 0.5039063
vt 0.7539063 0.5039063
vt 0.75 0.5751953
vt 0.7641602 0.5751953
vt 0.7680664 0.5039063
vt 0.7641602 0.5039063
vt 0.7680664 0.5751953
vt 0.7539063 0.5039063
vt 0.75 0.5751953
vt 0.7539063 0.5751953
vt 0.75 0.5039063
vt 0.7856445 0.5253906
vt 0.7822266 0.5361328
vt 0.7856445 0.5361328
vt 0.7822266 0.5253906
vt 0.75 0.5039063
vt 0.7539063 0.5751953
vt 0.75 0.5751953
vt 0.7539063 0.5039063
vt 0.7856445 0.5253906
vt 0.7822266 0.5361328
vt 0.7856445 0.5361328
vt 0.7822266 0.5253906
vt 0.75 0.5751953
vt 0.7539063 0.5039063
vt 0.75 0.5039063
vt 0.7539063 0.5751953
vt 0.7856445 0.5253906
vt 0.7822266 0.5361328
vt 0.7856445 0.5361328
vt 0.7822266 0.5253906
vt 0.7680664 0.5751953
vt 0.7641602 0.5039063
vt 0.7680664 0.5039063
vt 0.7641602 0.5751953
vt 0.7856445 0.5253906
vt 0.7822266 0.5361328
vt 0.7856445 0.5361328
vt 0.7822266 0.5253906
vt 0.7680664 0.5039063
vt 0.7641602 0.5751953
vt 0.7680664 0.5751953
vt 0.7641602 0.5039063
vt 0.7856445 0.5253906
vt 0.7822266 0.5361328
vt 0.7856445 0.5361328
vt 0.7822266 0.5253906
vt 0.7680664 0.5751953
vt 0.7641602 0.5039063
vt 0.7680664 0.5039063
vt 0.7641602 0.5751953
vt 0.7856445 0.5361328
vt 0.7822266 0.5253906
vt 0.7856445 0.5253906
vt 0.7822266 0.5361328
vt 0.7680664 0.5039063
vt 0.7641602 0.5751953
vt 0.7680664 0.5751953
vt 0.7641602 0.5039063
vt 0.7856445 0.5361328
vt 0.7822266 0.5253906
vt 0.7856445 0.5253906
vt 0.7822266 0.5361328
vt 0.75 0.5751953
vt 0.7539063 0.5039063
vt 0.75 0.5039063
vt 0.7539063 0.5751953
vt 0.7856445 0.5253906
vt 0.7822266 0.5361328
vt 0.7856445 0.5361328
vt 0.7822266 0.5253906
vt 0.75 0.5039063
vt 0.7539063 0.5751953
vt 0.75 0.5751953
vt 0.7539063 0.5039063
vn 0 0 -1
vn 0 0 -1
vn 0 0 -1
vn 0 0 -1
vn 0 0 1
vn 0 0 1
vn 0 0 1
vn 0 0 1
vn 1 0 0
vn 1 0 0
vn 1 0 0
vn 1 0 0
vn -1 0 0
vn -1 0 0
vn -1 0 0
vn -1 0 0
vn 0 -1 -6.747132E-07
vn 0 -1 -4.362122E-07
vn 0 -1 -1.322074E-07
vn 0 -1 -4.77002E-07
vn 0 -1 2.38501E-07
vn 0 -1 -2.385011E-07
vn 0 -1 0
vn 0 -1 1.977112E-07
vn 0 -1 4.362122E-07
vn 0 -1 0
vn 0 -1 0
vn 0 -1 0
vn 0 -1 0
vn 1 0 0
vn 1 0 0
vn 1 0 0
vn 1 0 0
vn 1 0 0
vn 1 0 0
vn 1 0 0
vn 1 0 0
vn 0 1 0
vn 0 1 0
vn 0 1 1.934543E-07
vn 0 1 0
vn 1.006175E-07 1 3.201608E-07
vn 0 1 0
vn -1.006175E-07 1 2.385009E-07
vn -1.006175E-07 1 3.620705E-07
vn 1.006175E-07 1 4.437304E-07
vn 0 1 0
vn 0 1 0
vn 0 1 8.477102E-07
vn 0 1 0
vn -1 0 0
vn -1 0 0
vn -1 0 0
vn -1 0 0
vn -1 0 0
vn -1 0 0
vn -1 0 0
vn -1 0 0
vn 0 0 -1
vn 0 0 -1
vn 0 0 -1
vn 0 0 -1
vn 0 0 -1
vn 0 0 -1
vn 0 0 -1
vn 0 0 -1
vn 0 0 1
vn 0 0 1
vn 0 0 1
vn 0 0 1
vn 0 0 1
vn 0 0 1
vn 0 0 1
vn 0 0 1
vn 0 1 0
vn -1.006175E-07 1 3.620705E-07
vn 0 1 0
vn 1.006175E-07 1 4.437304E-07
vn 1 0 0
vn 1 0 0
vn 1 0 0
vn 1 0 0
vn 0 -1 0
vn 0 -1 1.977112E-07
vn 0 -1 0
vn 0 -1 4.362122E-07
vn -1 0 0
vn -1 0 0
vn -1 0 0
vn -1 0 0
vn 0 -1 0
vn 0 -1 -6.747132E-07
vn 0 -1 0
vn 0 -1 -4.362122E-07
vn 1 0 0
vn 1 0 0
vn 1 0 0
vn 1 0 0
vn 0 1 0
vn 0 1 0
vn 0 1 0
vn 0 1 0
vn -1 0 0
vn -1 0 0
vn -1 0 0
vn -1 0 0
vn 0 -1 0
vn 0 -1 -2.385011E-07
vn 0 -1 0
vn 0 -1 0
vn 0 0 -1
vn 0 0 -1
vn 0 0 -1
vn 0 0 -1
vn 0 1 0
vn 1.006175E-07 1 3.201608E-07
vn 0 1 0
vn 0 1 0
vn 0 0 1
vn 0 0 1
vn 0 0 1
vn 0 0 1
vn 0 -1 0
vn 0 -1 2.38501E-07
vn 0 -1 0
vn 0 -1 -4.77002E-07
vn 0 0 1
vn 0 0 1
vn 0 0 1
vn 0 0 1
vn 0 1 0
vn 0 1 0
vn 0 1 0
vn -1.006175E-07 1 2.385009E-07
vn 0 0 -1
vn 0 0 -1
vn 0 0 -1
vn 0 0 -1
g royale_truck_cistern_lod0_A_0
f 3/3/3 2/2/2 1/1/1
f 4/4/4 1/1/1 2/2/2
f 7/7/7 6/6/6 5/5/5
f 8/8/8 5/5/5 6/6/6
f 11/11/11 10/10/10 9/9/9
f 12/12/12 9/9/9 10/10/10
f 15/15/15 14/14/14 13/13/13
f 16/16/16 13/13/13 14/14/14
f 19/19/19 18/18/18 17/17/17
f 20/20/20 19/19/19 17/17/17
f 21/21/21 19/19/19 20/20/20
f 22/22/22 18/18/18 19/19/19
f 23/23/23 22/22/22 19/19/19
f 23/23/23 19/19/19 24/24/24
f 19/19/19 25/25/25 24/24/24
f 21/21/21 25/25/25 19/19/19
f 26/26/26 18/18/18 22/22/22
f 27/27/27 20/20/20 17/17/17
f 28/28/28 23/23/23 24/24/24
f 29/29/29 25/25/25 21/21/21
f 32/32/32 31/31/31 30/30/30
f 33/33/33 30/30/30 31/31/31
f 36/36/36 35/35/35 34/34/34
f 37/37/37 34/34/34 35/35/35
f 40/40/40 39/39/39 38/38/38
f 41/41/41 40/40/40 38/38/38
f 42/42/42 40/40/40 41/41/41
f 43/43/43 39/39/39 40/40/40
f 44/44/44 43/43/43 40/40/40
f 44/44/44 40/40/40 45/45/45
f 40/40/40 46/46/46 45/45/45
f 42/42/42 46/46/46 40/40/40
f 47/47/47 41/41/41 38/38/38
f 48/48/48 39/39/39 43/43/43
f 49/49/49 46/46/46 42/42/42
f 50/50/50 44/44/44 45/45/45
f 53/53/53 52/52/52 51/51/51
f 54/54/54 51/51/51 52/52/52
f 57/57/57 56/56/56 55/55/55
f 58/58/58 55/55/55 56/56/56
f 61/61/61 60/60/60 59/59/59
f 62/62/62 59/59/59 60/60/60
f 65/65/65 64/64/64 63/63/63
f 66/66/66 63/63/63 64/64/64
f 69/69/69 68/68/68 67/67/67
f 70/70/70 67/67/67 68/68/68
f 73/73/73 72/72/72 71/71/71
f 74/74/74 71/71/71 72/72/72
f 77/77/77 76/76/76 75/75/75
f 78/78/78 75/75/75 76/76/76
f 81/81/81 80/80/80 79/79/79
f 82/82/82 79/79/79 80/80/80
f 85/85/85 84/84/84 83/83/83
f 86/86/86 83/83/83 84/84/84
f 89/89/89 88/88/88 87/87/87
f 90/90/90 87/87/87 88/88/88
f 93/93/93 92/92/92 91/91/91
f 94/94/94 91/91/91 92/92/92
f 97/97/97 96/96/96 95/95/95
f 98/98/98 95/95/95 96/96/96
f 101/101/101 100/100/100 99/99/99
f 102/102/102 99/99/99 100/100/100
f 105/105/105 104/104/104 103/103/103
f 106/106/106 103/103/103 104/104/104
f 109/109/109 108/108/108 107/107/107
f 110/110/110 107/107/107 108/108/108
f 113/113/113 112/112/112 111/111/111
f 114/114/114 111/111/111 112/112/112
f 117/117/117 116/116/116 115/115/115
f 118/118/118 115/115/115 116/116/116
f 121/121/121 120/120/120 119/119/119
f 122/122/122 119/119/119 120/120/120
f 125/125/125 124/124/124 123/123/123
f 126/126/126 123/123/123 124/124/124
f 129/129/129 128/128/128 127/127/127
f 130/130/130 127/127/127 128/128/128
f 133/133/133 132/132/132 131/131/131
f 134/134/134 131/131/131 132/132/132
f 137/137/137 136/136/136 135/135/135
f 138/138/138 135/135/135 136/136/136
