g royale_cactus_02_mesh_lod0
v -0.3681982 0.3681998 0.6869914
v -0.3681982 -0.3681976 0.6869911
v -1.104589 -0.3681979 0.6869911
v -1.104589 0.368201 0.6869923
v -0.3681995 0.3681988 -4.196167E-07
v -0.3681982 0.3681998 0.6869914
v -1.104589 0.368201 0.6869923
v -1.104589 0.3682007 -4.196167E-07
v -1.104589 0.3682007 -4.196167E-07
v -1.104589 0.368201 0.6869923
v -1.104589 -0.3681979 0.6869911
v -1.104589 -0.3681982 -4.196167E-07
v -1.104589 -0.3681982 -4.196167E-07
v -1.104589 -0.3681979 0.6869911
v -0.3681982 -0.3681976 0.6869911
v -0.3681995 -0.3681976 -4.196167E-07
v 0.3681958 0.368201 1.373984
v 0.3681958 -0.3681979 1.373983
v -0.3681958 -0.3681979 1.373983
v -0.3681958 0.368201 1.373984
v 0.368197 0.3681998 0.6869917
v 0.3681958 0.368201 1.373984
v -0.3681958 0.368201 1.373984
v -0.3681982 0.3681998 0.6869914
v -0.3681982 0.3681998 0.6869914
v -0.3681958 0.368201 1.373984
v -0.3681958 -0.3681979 1.373983
v -0.3681982 -0.3681976 0.6869911
v -0.3681982 -0.3681976 0.6869911
v -0.3681958 -0.3681979 1.373983
v 0.3681958 -0.3681979 1.373983
v 0.368197 -0.3681976 0.6869914
v 0.368197 -0.3681976 0.6869914
v 0.3681958 -0.3681979 1.373983
v 0.3681958 0.368201 1.373984
v 0.368197 0.3681998 0.6869917
v 1.104589 0.368201 0.6869923
v 1.104589 -0.3681979 0.6869911
v 0.368197 -0.3681976 0.6869914
v 0.368197 0.3681998 0.6869917
v 1.104589 0.3682007 -4.196167E-07
v 1.104589 0.368201 0.6869923
v 0.368197 0.3681998 0.6869917
v 0.368197 0.3681988 -4.196167E-07
v 0.368197 -0.3681976 -4.196167E-07
v 0.368197 -0.3681976 0.6869914
v 1.104589 -0.3681979 0.6869911
v 1.104589 -0.3681982 -4.196167E-07
v 1.104589 -0.3681982 -4.196167E-07
v 1.104589 -0.3681979 0.6869911
v 1.104589 0.368201 0.6869923
v 1.104589 0.3682007 -4.196167E-07
v 0.368197 0.3681998 0.6869917
v -0.3681982 0.3681998 0.6869914
v -0.3682007 1.104588 0.6869911
v 0.3681982 1.104588 0.6869923
v 0.368197 0.3681988 -4.196167E-07
v 0.368197 0.3681998 0.6869917
v 0.3681982 1.104588 0.6869923
v 0.3681982 1.104588 -4.196167E-07
v 0.3681982 1.104588 -4.196167E-07
v 0.3681982 1.104588 0.6869923
v -0.3682007 1.104588 0.6869911
v -0.3682007 1.104588 -4.196167E-07
v -0.3682007 1.104588 -4.196167E-07
v -0.3682007 1.104588 0.6869911
v -0.3681982 0.3681998 0.6869914
v -0.3681995 0.3681988 -4.196167E-07
v 0.3681982 -1.104589 0.6869923
v -0.3682007 -1.104589 0.6869911
v -0.3681982 -0.3681976 0.6869911
v 0.368197 -0.3681976 0.6869914
v 0.3681982 -1.104589 -4.196167E-07
v 0.3681982 -1.104589 0.6869923
v 0.368197 -0.3681976 0.6869914
v 0.368197 -0.3681976 -4.196167E-07
v -0.3681995 -0.3681976 -4.196167E-07
v -0.3681982 -0.3681976 0.6869911
v -0.3682007 -1.104589 0.6869911
v -0.3682007 -1.104589 -4.196167E-07
v -0.3682007 -1.104589 -4.196167E-07
v -0.3682007 -1.104589 0.6869911
v 0.3681982 -1.104589 0.6869923
v 0.3681982 -1.104589 -4.196167E-07
vt 0.1607325 0.8514403
vt 0.1607324 0.1485623
vt -0.5177971 0.1485622
vt -0.517797 0.8514416
vt 0.8392686 -0.1557215
vt 0.8392675 0.4999998
vt 1.517797 0.5000007
vt 1.517797 -0.1557215
vt 0.1607298 -0.1557215
vt 0.1607296 0.5000007
vt 0.8392668 0.4999995
vt 0.8392671 -0.1557215
vt -0.5177971 -0.1557215
vt -0.5177971 0.4999995
vt 0.1607324 0.4999995
vt 0.1607312 -0.1557215
vt 0.8392653 0.8514413
vt 0.8392652 0.1485618
vt 0.1607346 0.148562
vt 0.1607348 0.8514415
vt 0.1607335 0.5000001
vt 0.1607346 1.155722
vt 0.8392652 1.155722
vt 0.8392675 0.4999998
vt 0.1607308 0.4999998
vt 0.1607297 1.155722
vt 0.839267 1.15572
vt 0.8392667 0.4999995
vt 0.1607324 0.4999995
vt 0.1607346 1.15572
vt 0.8392652 1.15572
vt 0.8392663 0.4999998
vt 0.1607331 0.4999998
vt 0.1607328 1.15572
vt 0.8392701 1.155722
vt 0.839269 0.5000001
vt 1.517797 0.8514411
vt 1.517797 0.1485617
vt 0.8392663 0.1485621
vt 0.8392664 0.8514401
vt -0.5177971 -0.1557215
vt -0.5177971 0.5000007
vt 0.1607335 0.5000001
vt 0.1607335 -0.1557215
vt 0.8392663 -0.1557215
vt 0.8392663 0.4999998
vt 1.517797 0.4999995
vt 1.517797 -0.1557215
vt 0.1607323 -0.1557215
vt 0.1607327 0.4999995
vt 0.83927 0.5000007
vt 0.8392696 -0.1557215
vt 0.8392664 0.8514401
vt 0.1607325 0.8514403
vt 0.1607304 1.55431
vt 0.8392678 1.55431
vt 0.8392681 -0.1557215
vt 0.839269 0.5000001
vt 1.517797 0.5000007
vt 1.517797 -0.1557215
vt 0.1607322 -0.1557215
vt 0.1607322 0.5000007
vt 0.8392696 0.4999995
vt 0.8392696 -0.1557215
vt -0.517797 -0.1557215
vt -0.517797 0.4999995
vt 0.1607308 0.4999998
vt 0.1607316 -0.1557215
vt 0.8392673 -0.5543098
vt 0.1607299 -0.5543095
vt 0.1607324 0.1485623
vt 0.8392663 0.1485621
vt -0.5177971 -0.1557215
vt -0.5177971 0.5000007
vt 0.1607331 0.4999998
vt 0.1607331 -0.1557215
vt 0.8392667 -0.1557215
vt 0.8392667 0.4999995
vt 1.517797 0.4999995
vt 1.517797 -0.1557215
vt 0.1607299 -0.1557215
vt 0.1607299 0.4999995
vt 0.8392673 0.5000007
vt 0.8392673 -0.1557215
vn 1.243261E-06 -1.657666E-06 1
vn 0 -4.144173E-07 1
vn 1.243261E-06 -1.657666E-06 1
vn 1.243261E-06 -1.657666E-06 1
vn 2.486531E-06 1 -4.442198E-07
vn 1.657683E-06 1 -1.332664E-06
vn 2.486532E-06 1 -4.442198E-07
vn 2.486531E-06 1 -4.442198E-07
vn -1 0 0
vn -1 0 0
vn -1 0 0
vn -1 0 0
vn 8.288438E-07 -1 0
vn 4.144212E-07 -1 4.442205E-07
vn 8.288438E-07 -1 0
vn 8.288437E-07 -1 0
vn 0 -1.657666E-06 1
vn 0 -1.657666E-06 1
vn 0 -1.657666E-06 1
vn 0 -1.657666E-06 1
vn 0 1 -1.77688E-06
vn 0 1 -1.776881E-06
vn 0 1 -1.77688E-06
vn 0 1 -1.77688E-06
vn -1 0 3.553764E-06
vn -1 0 3.55376E-06
vn -1 0 3.553765E-06
vn -1 0 3.553764E-06
vn 0 -1 -4.442207E-07
vn 0 -1 -4.442206E-07
vn 0 -1 -4.442207E-07
vn 0 -1 -4.442207E-07
vn 1 0 1.776881E-06
vn 1 0 1.776883E-06
vn 1 0 1.776881E-06
vn 1 0 1.776881E-06
vn -8.288403E-07 -4.144172E-07 1
vn 4.144198E-07 -1.657666E-06 1
vn -8.288404E-07 -4.144172E-07 1
vn -8.288403E-07 -4.144172E-07 1
vn -2.486523E-06 1 -1.33266E-06
vn -1.657682E-06 1 -4.442198E-07
vn -2.486523E-06 1 -1.33266E-06
vn -2.486523E-06 1 -1.33266E-06
vn -8.288411E-07 -1 4.442206E-07
vn -4.144205E-07 -1 0
vn -8.288412E-07 -1 4.442206E-07
vn -8.288411E-07 -1 4.442206E-07
vn 1 0 0
vn 1 0 0
vn 1 0 0
vn 1 0 0
vn -1.657666E-06 -8.288417E-07 1
vn -4.144184E-07 4.144208E-07 1
vn -1.657666E-06 -8.288417E-07 1
vn -1.657666E-06 -8.288417E-07 1
vn 1 -1.657687E-06 0
vn 1 -1.657689E-06 0
vn 1 -1.657687E-06 0
vn 1 -1.657687E-06 0
vn 0 1 0
vn 0 1 0
vn 0 1 0
vn 0 1 0
vn -1 -1.657687E-06 1.776884E-06
vn -1 -3.315378E-06 0
vn -1 -1.657687E-06 1.776884E-06
vn -1 -1.657687E-06 1.776884E-06
vn -4.144184E-07 1.243262E-06 1
vn -1.657666E-06 0 1
vn -4.144184E-07 1.243262E-06 1
vn -4.144184E-07 1.243262E-06 1
vn 1 1.657684E-06 0
vn 1 1.657683E-06 0
vn 1 1.657683E-06 0
vn 1 1.657683E-06 0
vn -1 1.657684E-06 0
vn -1 3.315367E-06 1.776882E-06
vn -1 1.657684E-06 0
vn -1 1.657684E-06 0
vn 0 -1 0
vn 0 -1 0
vn 0 -1 0
vn 0 -1 0
g royale_cactus_02_mesh_lod0_0
f 3/3/3 2/2/2 1/1/1
f 4/4/4 3/3/3 1/1/1
f 7/7/7 6/6/6 5/5/5
f 8/8/8 7/7/7 5/5/5
f 11/11/11 10/10/10 9/9/9
f 12/12/12 11/11/11 9/9/9
f 15/15/15 14/14/14 13/13/13
f 16/16/16 15/15/15 13/13/13
f 19/19/19 18/18/18 17/17/17
f 20/20/20 19/19/19 17/17/17
f 23/23/23 22/22/22 21/21/21
f 24/24/24 23/23/23 21/21/21
f 27/27/27 26/26/26 25/25/25
f 28/28/28 27/27/27 25/25/25
f 31/31/31 30/30/30 29/29/29
f 32/32/32 31/31/31 29/29/29
f 35/35/35 34/34/34 33/33/33
f 36/36/36 35/35/35 33/33/33
f 39/39/39 38/38/38 37/37/37
f 40/40/40 39/39/39 37/37/37
f 43/43/43 42/42/42 41/41/41
f 44/44/44 43/43/43 41/41/41
f 47/47/47 46/46/46 45/45/45
f 48/48/48 47/47/47 45/45/45
f 51/51/51 50/50/50 49/49/49
f 52/52/52 51/51/51 49/49/49
f 55/55/55 54/54/54 53/53/53
f 56/56/56 55/55/55 53/53/53
f 59/59/59 58/58/58 57/57/57
f 60/60/60 59/59/59 57/57/57
f 63/63/63 62/62/62 61/61/61
f 64/64/64 63/63/63 61/61/61
f 67/67/67 66/66/66 65/65/65
f 68/68/68 67/67/67 65/65/65
f 71/71/71 70/70/70 69/69/69
f 72/72/72 71/71/71 69/69/69
f 75/75/75 74/74/74 73/73/73
f 76/76/76 75/75/75 73/73/73
f 79/79/79 78/78/78 77/77/77
f 80/80/80 79/79/79 77/77/77
f 83/83/83 82/82/82 81/81/81
f 84/84/84 83/83/83 81/81/81
