g royale_hat_boyscout_mesh
v -0.2063397 -0.2054474 0.2368318
v 0.1999103 -0.2054474 0.2368318
v 0.1999103 -0.2208178 0.1743315
v -0.2063397 -0.2208178 0.1743315
v 0.0436601 -0.1747068 0.3618308
v -0.05008955 -0.1670214 0.3930816
v 0.01241012 -0.1670214 0.3930816
v 0.07491036 -0.1747068 0.3618308
v 0.1999103 0.2163241 0.1743315
v 0.1999103 -0.1892119 0.1743315
v 0.1999103 -0.176064 0.2368318
v 0.1999103 0.2031762 0.2368318
v -0.2063397 0.2163241 0.1743315
v -0.2063397 -0.1892119 0.1743315
v 0.1999103 -0.1892119 0.1743315
v 0.1999103 0.2163241 0.1743315
v -0.2063397 0.2479325 0.1743315
v 0.1999103 0.2479325 0.1743315
v 0.1999103 -0.2208178 0.1743315
v -0.2063397 -0.2208178 0.1743315
v -0.2063397 0.2031762 0.2368318
v -0.2063397 -0.176064 0.2368318
v -0.2063397 -0.1892119 0.1743315
v -0.2063397 0.2163241 0.1743315
v 0.07491036 0.1768805 0.3618307
v 0.07491036 -0.1497686 0.3618308
v 0.0436601 -0.1497686 0.3618308
v 0.0436601 0.1768805 0.3618307
v 0.1999103 0.2031762 0.2368318
v 0.1999103 -0.176064 0.2368318
v 0.07491036 -0.1497686 0.3618308
v 0.07491036 0.1768805 0.3618307
v 0.01241012 0.1703067 0.3930816
v 0.01241012 -0.1431945 0.3930816
v -0.05008955 -0.1431945 0.3930816
v -0.05008955 0.1703067 0.3930816
v 0.0436601 0.1768805 0.3618307
v 0.0436601 -0.1497686 0.3618308
v 0.01241012 -0.1431945 0.3930816
v 0.01241012 0.1703067 0.3930816
v -0.05008955 0.1703067 0.3930816
v -0.05008955 -0.1431945 0.3930816
v -0.2063397 -0.176064 0.2368318
v -0.2063397 0.2031762 0.2368318
v -0.2063397 0.2479325 0.1743315
v 0.1999103 0.2479325 0.1743315
v 0.1999103 0.2325621 0.2368318
v -0.2063397 0.2325621 0.2368318
v 0.07491036 0.2018213 0.3618307
v 0.0436601 0.2018213 0.3618307
v 0.01241012 0.1941362 0.3930816
v -0.05008955 0.1941362 0.3930816
v 0.09629995 -0.07424708 0.3625417
v 0.1360069 0.04617547 0.3228351
v 0.2041282 0.00125237 0.2547143
v 0.1644215 -0.1191701 0.2944207
v 0.2001578 -0.01078983 0.2586847
v 0.208673 -0.01640525 0.2501696
v 0.1769073 -0.1127433 0.281935
v 0.1683921 -0.1071279 0.2904502
v 0.123521 0.03974871 0.3353209
v 0.1320362 0.0341333 0.3268058
v 0.1002705 -0.06220476 0.3585713
v 0.09175535 -0.05658934 0.3670864
v 0.1644215 -0.1191701 0.2944207
v 0.1533735 -0.1191701 0.2833725
v 0.08525197 -0.07424708 0.3514936
v 0.09629995 -0.07424708 0.3625417
v 0.2041282 0.00125237 0.2547143
v 0.1930802 0.001252388 0.2436661
v 0.1533735 -0.1191701 0.2833725
v 0.1644215 -0.1191701 0.2944207
v 0.1360069 0.04617547 0.3228351
v 0.1249589 0.04617546 0.3117869
v 0.1930802 0.001252388 0.2436661
v 0.2041282 0.00125237 0.2547143
v 0.09629995 -0.07424708 0.3625417
v 0.08525197 -0.07424708 0.3514936
v 0.1249589 0.04617546 0.3117869
v 0.1360069 0.04617547 0.3228351
v 0.1769073 -0.1127433 0.281935
v 0.1658593 -0.1127433 0.2708869
v 0.1573441 -0.1071279 0.279402
v 0.1683921 -0.1071279 0.2904502
v 0.2001578 -0.01078983 0.2586847
v 0.1891098 -0.01078979 0.2476366
v 0.197625 -0.01640523 0.2391214
v 0.208673 -0.01640525 0.2501696
v 0.208673 -0.01640525 0.2501696
v 0.197625 -0.01640523 0.2391214
v 0.1658593 -0.1127433 0.2708869
v 0.1769073 -0.1127433 0.281935
v 0.09175535 -0.05658934 0.3670864
v 0.08070735 -0.05658934 0.3560382
v 0.112473 0.03974873 0.3242728
v 0.123521 0.03974871 0.3353209
v 0.1002705 -0.06220476 0.3585713
v 0.08922254 -0.06220476 0.3475231
v 0.08070735 -0.05658934 0.3560382
v 0.09175535 -0.05658934 0.3670864
v 0.123521 0.03974871 0.3353209
v 0.112473 0.03974873 0.3242728
v 0.1209882 0.03413331 0.3157577
v 0.1320362 0.0341333 0.3268058
v 0.1999103 0.2163241 0.1743315
v 0.1999103 0.2031762 0.2368318
v 0.1999103 0.2325621 0.2368318
v 0.1999103 0.2479325 0.1743315
v 0.1999103 -0.2054474 0.2368318
v 0.1999103 -0.176064 0.2368318
v 0.1999103 -0.1892119 0.1743315
v 0.1999103 -0.2208178 0.1743315
v -0.2063397 0.2325621 0.2368318
v -0.2063397 0.2031762 0.2368318
v -0.2063397 0.2163241 0.1743315
v -0.2063397 0.2479325 0.1743315
v -0.2063397 -0.1892119 0.1743315
v -0.2063397 -0.176064 0.2368318
v -0.2063397 -0.2054474 0.2368318
v -0.2063397 -0.2208178 0.1743315
v 0.07491036 0.2018213 0.3618307
v 0.07491036 0.1768805 0.3618307
v 0.0436601 0.1768805 0.3618307
v 0.0436601 0.2018213 0.3618307
v 0.0436601 -0.1747068 0.3618308
v 0.0436601 -0.1497686 0.3618308
v 0.07491036 -0.1497686 0.3618308
v 0.07491036 -0.1747068 0.3618308
v 0.1999103 0.2031762 0.2368318
v 0.07491036 0.1768805 0.3618307
v 0.07491036 0.2018213 0.3618307
v 0.1999103 0.2325621 0.2368318
v 0.07491036 -0.1747068 0.3618308
v 0.07491036 -0.1497686 0.3618308
v 0.1999103 -0.176064 0.2368318
v 0.1999103 -0.2054474 0.2368318
v 0.01241012 0.1941362 0.3930816
v 0.01241012 0.1703067 0.3930816
v -0.05008955 0.1703067 0.3930816
v -0.05008955 0.1941362 0.3930816
v -0.05008955 -0.1670214 0.3930816
v -0.05008955 -0.1431945 0.3930816
v 0.01241012 -0.1431945 0.3930816
v 0.01241012 -0.1670214 0.3930816
v 0.0436601 0.1768805 0.3618307
v 0.01241012 0.1703067 0.3930816
v 0.01241012 0.1941362 0.3930816
v 0.0436601 0.2018213 0.3618307
v 0.01241012 -0.1670214 0.3930816
v 0.01241012 -0.1431945 0.3930816
v 0.0436601 -0.1497686 0.3618308
v 0.0436601 -0.1747068 0.3618308
v -0.05008955 0.1941362 0.3930816
v -0.05008955 0.1703067 0.3930816
v -0.2063397 0.2031762 0.2368318
v -0.2063397 0.2325621 0.2368318
v -0.2063397 -0.176064 0.2368318
v -0.05008955 -0.1431945 0.3930816
v -0.05008955 -0.1670214 0.3930816
v -0.2063397 -0.2054474 0.2368318
vt 0.4375 0.8125
vt 0.03125 0.8125
vt 0.03125 0.75
vt 0.4375 0.75
vt 0.1875 0.9375
vt 0.28125 0.96875
vt 0.21875 0.96875
vt 0.15625 0.9375
vt 0.53125 0.65625
vt 0.53125 0.59375
vt 0.46875 0.59375
vt 0.46875 0.65625
vt 0.4375 0.46875
vt 0.4375 0.46875
vt 0.03125 0.46875
vt 0.03125 0.46875
vt 0.4375 0.46875
vt 0.03125 0.46875
vt 0.03125 0.46875
vt 0.4375 0.46875
vt 0.09375 0.65625
vt 0.09375 0.59375
vt 0.03125 0.59375
vt 0.03125 0.65625
vt 0.34375 0.625
vt 0.34375 0.625
vt 0.3125 0.625
vt 0.3125 0.625
vt 0.46875 0.625
vt 0.46875 0.625
vt 0.34375 0.625
vt 0.34375 0.625
vt 0.28125 0.625
vt 0.28125 0.625
vt 0.21875 0.625
vt 0.21875 0.625
vt 0.3125 0.625
vt 0.3125 0.625
vt 0.28125 0.625
vt 0.28125 0.625
vt 0.21875 0.625
vt 0.21875 0.625
vt 0.0625 0.625
vt 0.0625 0.625
vt 0.4375 0.75
vt 0.03125 0.75
vt 0.03125 0.8125
vt 0.4375 0.8125
vt 0.15625 0.9375
vt 0.1875 0.9375
vt 0.21875 0.96875
vt 0.28125 0.96875
vt 0.65625 0.9375
vt 0.96875 0.9375
vt 0.96875 0.6875
vt 0.65625 0.6875
vt 0.9021105 0.9631447
vt 0.9021409 0.9546357
vt 0.7285523 0.9545463
vt 0.7285247 0.963055
vt 0.8908104 0.6712849
vt 0.8908527 0.6655883
vt 0.7353123 0.6654927
vt 0.7352727 0.6711891
vt 0.6523292 0.7545962
vt 0.6377288 0.7545962
vt 0.6377288 0.9204243
vt 0.6523292 0.9204243
vt 0.6684064 0.7149892
vt 0.653857 0.7149892
vt 0.653857 0.9215516
vt 0.6684064 0.9215516
vt 0.6374362 0.923329
vt 0.6520365 0.923329
vt 0.6520365 0.7575012
vt 0.6374362 0.7575012
vt 0.6520365 0.9230042
vt 0.6665859 0.9230042
vt 0.6665859 0.7164415
vt 0.6520365 0.7164415
vt 0.7285523 0.9545463
vt 0.7030362 0.9545343
vt 0.7030101 0.9630431
vt 0.7285247 0.963055
vt 0.9021105 0.9631447
vt 0.9276247 0.9631593
vt 0.9276567 0.9546506
vt 0.9021409 0.9546357
vt 0.9021409 0.9546357
vt 0.9021739 0.9446301
vt 0.7285865 0.9445408
vt 0.7285523 0.9545463
vt 0.7352727 0.6711891
vt 0.7352242 0.6778875
vt 0.8907627 0.6779832
vt 0.8908104 0.6712849
vt 0.7353123 0.6654927
vt 0.7124495 0.6654794
vt 0.712411 0.671176
vt 0.7352727 0.6711891
vt 0.8908104 0.6712849
vt 0.9136719 0.6712999
vt 0.9137155 0.6656035
vt 0.8908527 0.6655883
vt 0.03125 0.75
vt 0.03125 0.8125
vt 0.03125 0.8125
vt 0.03125 0.75
vt 0.03125 0.8125
vt 0.03125 0.8125
vt 0.03125 0.75
vt 0.03125 0.75
vt 0.4375 0.8125
vt 0.4375 0.8125
vt 0.4375 0.75
vt 0.4375 0.75
vt 0.4375 0.75
vt 0.4375 0.8125
vt 0.4375 0.8125
vt 0.4375 0.75
vt 0.15625 0.9375
vt 0.15625 0.9375
vt 0.1875 0.9375
vt 0.1875 0.9375
vt 0.1875 0.9375
vt 0.1875 0.9375
vt 0.15625 0.9375
vt 0.15625 0.9375
vt 0.03125 0.8125
vt 0.15625 0.9375
vt 0.15625 0.9375
vt 0.03125 0.8125
vt 0.15625 0.9375
vt 0.15625 0.9375
vt 0.03125 0.8125
vt 0.03125 0.8125
vt 0.21875 0.96875
vt 0.21875 0.96875
vt 0.28125 0.96875
vt 0.28125 0.96875
vt 0.28125 0.96875
vt 0.28125 0.96875
vt 0.21875 0.96875
vt 0.21875 0.96875
vt 0.1875 0.9375
vt 0.21875 0.96875
vt 0.21875 0.96875
vt 0.1875 0.9375
vt 0.21875 0.96875
vt 0.21875 0.96875
vt 0.1875 0.9375
vt 0.1875 0.9375
vt 0.28125 0.96875
vt 0.28125 0.96875
vt 0.4375 0.8125
vt 0.4375 0.8125
vt 0.4375 0.8125
vt 0.28125 0.96875
vt 0.28125 0.96875
vt 0.4375 0.8125
vn 0 -0.9710661 0.2388107
vn 0 -0.9710661 0.2388107
vn 0 -0.9710661 0.2388107
vn 0 -0.9710661 0.2388107
vn 0 -0.9710661 0.2388107
vn 0 -0.9710661 0.2388107
vn 0 -0.9710661 0.2388107
vn 0 -0.9710661 0.2388107
vn 1 0 0
vn 1 0 0
vn 1 0 0
vn 1 0 0
vn 0 7.09364E-07 -1
vn 0 0 -1
vn 0 0 -1
vn 0 7.09364E-07 -1
vn 0 1.446863E-06 -1
vn 0 1.446863E-06 -1
vn 0 1.599751E-07 -1
vn 0 1.599751E-07 -1
vn -1 0 0
vn -1 0 0
vn -1 0 0
vn -1 0 0
vn 0 -2.036209E-07 1
vn 0 0 1
vn 0 0 1
vn 0 -2.036209E-07 1
vn 0.7071042 -1.584811E-07 0.7071093
vn 0.7071043 0 0.7071093
vn 0.7071043 0 0.7071093
vn 0.7071042 0 0.7071093
vn 0 -3.044395E-07 1
vn 0 0 1
vn 0 0 1
vn 0 -3.044395E-07 1
vn 0.7071168 -1.964941E-07 0.7070967
vn 0.7071165 0 0.7070971
vn 0.7071166 0 0.707097
vn 0.7071168 -1.390856E-07 0.7070968
vn -0.7071061 -1.36466E-07 0.7071074
vn -0.7071061 0 0.7071074
vn -0.7071061 0 0.7071074
vn -0.7071061 -1.50936E-07 0.7071074
vn 0 0.9710662 0.2388104
vn 0 0.9710662 0.2388104
vn 0 0.971066 0.2388113
vn 3.166007E-07 0.9710662 0.2388106
vn 0 0.9710656 0.2388129
vn 7.483771E-07 0.971066 0.2388111
vn 2.312564E-06 0.971067 0.2388075
vn 2.312564E-06 0.971067 0.2388074
vn 0.7071043 0 0.7071093
vn 0.7071043 -1.003653E-07 0.7071093
vn 0.7071042 0 0.7071093
vn 0.7071042 0 0.7071093
vn 0.7071041 1.302118E-07 0.7071095
vn 0.7071041 1.304476E-07 0.7071094
vn 0.7071041 1.302118E-07 0.7071095
vn 0.7071041 1.302118E-07 0.7071095
vn 0.7071041 2.027977E-07 0.7071094
vn 0.7071041 2.170319E-07 0.7071095
vn 0.7071041 2.027977E-07 0.7071094
vn 0.7071041 2.170319E-07 0.7071095
vn -0.2988374 -0.9063084 0.2988333
vn -0.2988374 -0.9063084 0.2988333
vn -0.2988375 -0.9063084 0.2988334
vn -0.2988374 -0.9063084 0.2988334
vn 0.6408612 -0.4226162 -0.640853
vn 0.6408612 -0.4226162 -0.640853
vn 0.6408612 -0.4226162 -0.640853
vn 0.6408612 -0.4226161 -0.640853
vn 0.2988388 0.9063076 -0.2988341
vn 0.2988389 0.9063076 -0.2988341
vn 0.2988389 0.9063076 -0.2988341
vn 0.2988388 0.9063076 -0.2988341
vn -0.6408619 0.4226176 0.6408513
vn -0.6408619 0.4226176 0.6408513
vn -0.6408619 0.4226176 0.6408513
vn -0.6408619 0.4226176 0.6408513
vn -0.2988409 -0.906307 0.2988339
vn -0.2988409 -0.906307 0.2988339
vn -0.2988409 -0.906307 0.2988339
vn -0.2988409 -0.906307 0.2988339
vn 0.2988411 0.9063068 -0.2988344
vn 0.2988411 0.9063068 -0.2988344
vn 0.2988411 0.9063068 -0.2988344
vn 0.2988411 0.9063068 -0.2988344
vn 0.640861 -0.4226189 -0.6408513
vn 0.640861 -0.4226189 -0.6408513
vn 0.640861 -0.4226189 -0.6408513
vn 0.640861 -0.4226189 -0.6408513
vn -0.6408607 0.4226189 0.6408516
vn -0.6408607 0.422619 0.6408516
vn -0.6408607 0.422619 0.6408516
vn -0.6408607 0.4226189 0.6408516
vn -0.2988395 -0.9063072 0.2988347
vn -0.2988395 -0.9063072 0.2988347
vn -0.2988395 -0.9063072 0.2988347
vn -0.2988395 -0.9063072 0.2988346
vn 0.29884 0.9063072 -0.2988342
vn 0.29884 0.9063072 -0.2988342
vn 0.29884 0.9063072 -0.2988342
vn 0.29884 0.9063072 -0.2988342
vn 1 0 0
vn 1 0 0
vn 1 0 0
vn 1 0 0
vn 1 0 0
vn 1 0 0
vn 1 0 0
vn 1 0 0
vn -1 0 0
vn -1 0 0
vn -1 0 0
vn -1 0 0
vn -1 0 0
vn -1 0 0
vn -1 0 0
vn -1 0 0
vn 0 -4.636096E-07 1
vn 0 -2.036209E-07 1
vn 0 -2.036209E-07 1
vn 0 -4.636096E-07 1
vn 0 -1.457409E-07 1
vn 0 0 1
vn 0 0 1
vn 0 -1.457409E-07 1
vn 0.7071042 -1.584811E-07 0.7071093
vn 0.7071042 0 0.7071093
vn 0.7071041 -2.597712E-07 0.7071094
vn 0.7071042 -2.595354E-07 0.7071093
vn 0.7071043 0 0.7071093
vn 0.7071043 0 0.7071093
vn 0.7071043 0 0.7071093
vn 0.7071043 0 0.7071093
vn 0 -5.212539E-07 1
vn 0 -3.044395E-07 1
vn 0 -3.044395E-07 1
vn 0 -5.212539E-07 1
vn 0 -1.023308E-07 1
vn 0 0 1
vn 0 0 1
vn 0 -1.023308E-07 1
vn 0.7071168 -1.964941E-07 0.7070967
vn 0.7071168 -1.390856E-07 0.7070968
vn 0.707117 -3.551927E-07 0.7070966
vn 0.707117 -3.549569E-07 0.7070966
vn 0.7071164 0 0.7070971
vn 0.7071166 0 0.707097
vn 0.7071165 0 0.7070971
vn 0.7071165 0 0.7070971
vn -0.7071061 -2.809304E-07 0.7071074
vn -0.7071061 -1.36466E-07 0.7071074
vn -0.7071061 -1.50936E-07 0.7071074
vn -0.7071062 -2.951646E-07 0.7071073
vn -0.7071061 0 0.7071074
vn -0.7071061 0 0.7071074
vn -0.7071061 0 0.7071074
vn -0.7071061 0 0.7071074
g royale_hat_boyscout_mesh_0
f 3/3/3 2/2/2 1/1/1
f 4/4/4 3/3/3 1/1/1
f 5/5/5 1/1/1 2/2/2
f 1/1/1 5/5/5 6/6/6
f 5/5/5 7/7/7 6/6/6
f 8/8/8 5/5/5 2/2/2
f 11/11/11 10/10/10 9/9/9
f 12/12/12 11/11/11 9/9/9
f 15/15/15 14/14/14 13/13/13
f 16/16/16 15/15/15 13/13/13
f 16/16/16 13/13/13 17/17/17
f 18/18/18 16/16/16 17/17/17
f 14/14/14 15/15/15 19/19/19
f 20/20/20 14/14/14 19/19/19
f 23/23/23 22/22/22 21/21/21
f 24/24/24 23/23/23 21/21/21
f 27/27/27 26/26/26 25/25/25
f 28/28/28 27/27/27 25/25/25
f 31/31/31 30/30/30 29/29/29
f 32/32/32 31/31/31 29/29/29
f 35/35/35 34/34/34 33/33/33
f 36/36/36 35/35/35 33/33/33
f 39/39/39 38/38/38 37/37/37
f 40/40/40 39/39/39 37/37/37
f 43/43/43 42/42/42 41/41/41
f 44/44/44 43/43/43 41/41/41
f 47/47/47 46/46/46 45/45/45
f 48/48/48 47/47/47 45/45/45
f 49/49/49 47/47/47 48/48/48
f 50/50/50 49/49/49 48/48/48
f 51/51/51 50/50/50 48/48/48
f 52/52/52 51/51/51 48/48/48
f 55/55/55 54/54/54 53/53/53
f 56/56/56 55/55/55 53/53/53
f 59/59/59 58/58/58 57/57/57
f 60/60/60 59/59/59 57/57/57
f 63/63/63 62/62/62 61/61/61
f 64/64/64 63/63/63 61/61/61
f 67/67/67 66/66/66 65/65/65
f 68/68/68 67/67/67 65/65/65
f 71/71/71 70/70/70 69/69/69
f 72/72/72 71/71/71 69/69/69
f 75/75/75 74/74/74 73/73/73
f 76/76/76 75/75/75 73/73/73
f 79/79/79 78/78/78 77/77/77
f 80/80/80 79/79/79 77/77/77
f 83/83/83 82/82/82 81/81/81
f 84/84/84 83/83/83 81/81/81
f 87/87/87 86/86/86 85/85/85
f 88/88/88 87/87/87 85/85/85
f 91/91/91 90/90/90 89/89/89
f 92/92/92 91/91/91 89/89/89
f 95/95/95 94/94/94 93/93/93
f 96/96/96 95/95/95 93/93/93
f 99/99/99 98/98/98 97/97/97
f 100/100/100 99/99/99 97/97/97
f 103/103/103 102/102/102 101/101/101
f 104/104/104 103/103/103 101/101/101
f 107/107/107 106/106/106 105/105/105
f 108/108/108 107/107/107 105/105/105
f 111/111/111 110/110/110 109/109/109
f 112/112/112 111/111/111 109/109/109
f 115/115/115 114/114/114 113/113/113
f 116/116/116 115/115/115 113/113/113
f 119/119/119 118/118/118 117/117/117
f 120/120/120 119/119/119 117/117/117
f 123/123/123 122/122/122 121/121/121
f 124/124/124 123/123/123 121/121/121
f 127/127/127 126/126/126 125/125/125
f 128/128/128 127/127/127 125/125/125
f 131/131/131 130/130/130 129/129/129
f 132/132/132 131/131/131 129/129/129
f 135/135/135 134/134/134 133/133/133
f 136/136/136 135/135/135 133/133/133
f 139/139/139 138/138/138 137/137/137
f 140/140/140 139/139/139 137/137/137
f 143/143/143 142/142/142 141/141/141
f 144/144/144 143/143/143 141/141/141
f 147/147/147 146/146/146 145/145/145
f 148/148/148 147/147/147 145/145/145
f 151/151/151 150/150/150 149/149/149
f 152/152/152 151/151/151 149/149/149
f 155/155/155 154/154/154 153/153/153
f 156/156/156 155/155/155 153/153/153
f 159/159/159 158/158/158 157/157/157
f 160/160/160 159/159/159 157/157/157
