g royale_paradise_lounger_lod01_A
v -0.3500009 0.3125 1.102554
v -0.3500009 0.4375 1.227554
v -0.3500009 8.106232E-08 1.227554
v -0.3500009 7.152557E-08 1.102554
v -0.3500006 0.4374999 -0.8351155
v -0.3500006 0.3124999 -0.7099463
v -0.3500006 -3.33786E-08 -0.7099463
v -0.3500006 -2.861023E-08 -0.8349462
v -0.3500006 0.4374999 -0.8351155
v -0.3500006 0.3124999 -0.7099463
v 0.3499985 6.198883E-08 1.227554
v -0.3500009 8.106232E-08 1.227554
v -0.3500009 0.4375 1.227554
v 0.3499985 0.4375001 1.227554
v 0.3499984 0.3125 1.102554
v -0.3500009 0.3125 1.102554
v -0.3500009 7.152557E-08 1.102554
v 0.3499985 7.152557E-08 1.102554
v 0.3499985 0.4375001 1.227554
v -0.3500009 0.4375 1.227554
v -0.3500006 0.4374999 -0.8351155
v 0.3499988 0.4374999 -0.8351153
v 0.3499988 0.4374999 -0.8351153
v -0.3500006 0.4374999 -0.8351155
v -0.3500006 -2.861023E-08 -0.8349462
v 0.3499988 -3.576278E-08 -0.834946
v 0.3499988 -3.33786E-08 -0.7099461
v -0.3500006 -3.33786E-08 -0.7099463
v -0.3500006 0.3124999 -0.7099463
v 0.3499988 0.3124999 -0.7099461
v 0.3499985 6.198883E-08 1.227554
v 0.3499985 0.4375001 1.227554
v 0.3499984 0.3125 1.102554
v 0.3499985 7.152557E-08 1.102554
v 0.3499988 0.4374999 -0.8351153
v 0.3499988 0.3124999 -0.7099461
v 0.3499988 0.4374999 -0.8351153
v 0.3499988 -3.576278E-08 -0.834946
v 0.3499988 -3.33786E-08 -0.7099461
v 0.3499988 0.3124999 -0.7099461
vt 0.5408713 0.7471975
vt 0.5420246 0.7483574
vt 0.5420254 0.7443173
vt 0.5408719 0.7443171
vt 0.5229802 0.748355
vt 0.524139 0.7471975
vt 0.5312861 0.7442678
vt 0.5298213 0.7442678
vt 0.5298213 0.7483693
vt 0.5312861 0.7471975
vt 0.5298213 0.742803
vt 0.522985 0.742803
vt 0.522985 0.7471975
vt 0.5298213 0.7471975
vt 0.522985 0.7457392
vt 0.5298213 0.7457392
vt 0.5298213 0.742803
vt 0.522985 0.742803
vt 0.5229492 0.7495117
vt 0.5229492 0.7431641
vt 0.5048685 0.7431641
vt 0.5048685 0.7495117
vt 0.522985 0.7483693
vt 0.5298213 0.7483693
vt 0.5298213 0.7442678
vt 0.522985 0.7442678
vt 0.5298213 0.742803
vt 0.522985 0.742803
vt 0.522985 0.7457392
vt 0.5298213 0.7457392
vt 0.5420244 0.7443171
vt 0.5420253 0.7483574
vt 0.5408714 0.7471975
vt 0.5408708 0.7443174
vt 0.5229889 0.7483574
vt 0.524139 0.7471905
vt 0.5312861 0.7483693
vt 0.5312861 0.7442678
vt 0.5298213 0.7442678
vt 0.5298213 0.7471975
vn -1 0 0
vn -1 0 0
vn -1 0 0
vn -1 0 0
vn -1 0 0
vn -1 0 0
vn -1 0 0
vn -1 0 0
vn -1 0 0
vn -1 0 0
vn 0 0 1
vn 0 0 1
vn 0 0 1
vn 0 0 1
vn 0 0 -1
vn 0 0 -1
vn 0 0 -1
vn 0 0 -1
vn 0 1 0
vn 0 1 0
vn 0 1 0
vn 0 1 0
vn 0 0 -1
vn 0 0 -1
vn 0 0 -1
vn 0 0 -1
vn 0 0 1
vn 0 0 1
vn 0 0 1
vn 0 0 1
vn 1 0 0
vn 1 0 0
vn 1 0 0
vn 1 0 0
vn 1 0 0
vn 1 0 0
vn 1 0 0
vn 1 0 0
vn 1 0 0
vn 1 0 0
g royale_paradise_lounger_lod01_A_0
f 3/3/3 2/2/2 1/1/1
f 4/4/4 3/3/3 1/1/1
f 2/2/2 5/5/5 1/1/1
f 5/5/5 6/6/6 1/1/1
f 9/9/9 8/8/8 7/7/7
f 10/10/10 9/9/9 7/7/7
f 13/13/13 12/12/12 11/11/11
f 14/14/14 13/13/13 11/11/11
f 17/17/17 16/16/16 15/15/15
f 18/18/18 17/17/17 15/15/15
f 21/21/21 20/20/20 19/19/19
f 22/22/22 21/21/21 19/19/19
f 25/25/25 24/24/24 23/23/23
f 26/26/26 25/25/25 23/23/23
f 29/29/29 28/28/28 27/27/27
f 30/30/30 29/29/29 27/27/27
f 33/33/33 32/32/32 31/31/31
f 34/34/34 33/33/33 31/31/31
f 32/32/32 33/33/33 35/35/35
f 33/33/33 36/36/36 35/35/35
f 39/39/39 38/38/38 37/37/37
f 40/40/40 39/39/39 37/37/37
