g royale_grain_collector_LOD_2_mesh_A
v -4.593307 19.88485 4.613218
v -4.593314 21.26391 -4.613215
v -4.593307 21.26391 4.613218
v -4.593308 19.88485 -4.613216
v -4.593307 19.88485 4.613218
v 4.593314 21.26391 4.613223
v 4.593314 19.88485 4.613223
v -4.593307 21.26391 4.613218
v 4.593314 19.88485 4.613223
v 4.593319 21.26391 -4.613213
v 4.593319 19.88485 -4.613212
v 4.593314 21.26391 4.613223
v 4.593319 19.88485 -4.613212
v -4.593314 21.26391 -4.613215
v -4.593308 19.88485 -4.613216
v 4.593319 21.26391 -4.613213
v -1.1741 24.00613 1.194009
v -4.593314 21.26391 -4.613215
v -1.174105 24.00614 -1.193989
v -4.593307 21.26391 4.613218
v 4.593314 21.26391 4.613223
v -1.1741 24.00613 1.194009
v 1.213897 24.00614 1.194009
v -4.593307 21.26391 4.613218
v -4.593314 21.26391 -4.613215
v 1.213899 24.00613 -1.193994
v -1.174105 24.00614 -1.193989
v 4.593319 21.26391 -4.613213
v 1.213899 24.00613 -1.193994
v -1.1741 24.00613 1.194009
v -1.174105 24.00614 -1.193989
v 1.213897 24.00614 1.194009
v -3.36655 19.88485 3.383476
v -3.366549 -0.01514648 -3.383464
v -3.366549 19.88485 -3.383463
v -3.36655 -0.01514648 3.383476
v 3.366554 -0.01514648 3.383476
v 3.366554 19.88485 -3.383466
v 3.366554 -0.01514648 -3.383467
v 3.366554 19.88485 3.383476
v 3.366554 -0.01514648 -3.383467
v -3.366549 19.88485 -3.383463
v -3.366549 -0.01514648 -3.383464
v 3.366554 19.88485 -3.383466
v 3.366554 -0.01514648 3.383476
v -3.36655 19.88485 3.383476
v 3.366554 19.88485 3.383476
v -3.36655 -0.01514648 3.383476
v 4.593319 21.26391 -4.613213
v 1.213897 24.00614 1.194009
v 1.213899 24.00613 -1.193994
v 4.593314 21.26391 4.613223
v 4.593319 19.88485 -4.613212
v -4.593307 19.88485 4.613218
v 4.593314 19.88485 4.613223
v -4.593308 19.88485 -4.613216
vt 0.8363533 0.1669238
vt 0.9069765 0.1563679
vt 0.8363533 0.1563679
vt 0.9069765 0.1669238
vt 0.9069765 0.1669239
vt 0.8366581 0.1563679
vt 0.8366581 0.1669239
vt 0.9069765 0.1563679
vt 0.9069765 0.1669238
vt 0.8363533 0.1563679
vt 0.8363533 0.1669238
vt 0.9069765 0.1563679
vt 0.9066719 0.1669238
vt 0.8363533 0.1563679
vt 0.8363533 0.1669238
vt 0.9066719 0.1563679
vt 0.8457193 0.2680727
vt 0.8902283 0.3016658
vt 0.8640219 0.2680727
vt 0.8195131 0.3016658
vt 0.8899232 0.3019033
vt 0.8457193 0.2683101
vt 0.8640219 0.2683101
vt 0.8195132 0.3019033
vt 0.8195131 0.3016658
vt 0.8640219 0.2680727
vt 0.8457193 0.2680726
vt 0.8899232 0.3016658
vt 0.8640219 0.2497702
vt 0.8457193 0.2680727
vt 0.8640219 0.2680727
vt 0.8457193 0.2497702
vt 0.6557972 0.082371
vt 0.5092524 0.1237084
vt 0.6557973 0.1237084
vt 0.5092524 0.08237097
vt 0.5092524 0.1237084
vt 0.6557973 0.08237095
vt 0.5092524 0.08237097
vt 0.6557973 0.1237084
vt 0.5092525 0.123498
vt 0.6557972 0.08237095
vt 0.5092525 0.08237097
vt 0.6557973 0.123498
vt 0.5088847 0.08265983
vt 0.6557973 0.1236821
vt 0.6557973 0.08265981
vt 0.5088847 0.1236821
vt 0.8902282 0.3016658
vt 0.8457193 0.2683101
vt 0.8640219 0.2683102
vt 0.8195131 0.3016658
vt 0.8491641 0.1781847
vt 0.8883402 0.217273
vt 0.8883809 0.1782258
vt 0.8491234 0.2172318
vn -1 -4.180465E-07 7.313453E-07
vn -1 -4.007803E-06 1.947897E-07
vn -1 0 7.938299E-07
vn -1 -4.425849E-06 1.32305E-07
vn -5.346647E-07 -2.003009E-07 1
vn -5.615819E-07 0 1
vn -5.647331E-07 0 1
vn -5.315135E-07 -2.212924E-07 1
vn 1 0 5.292198E-07
vn 1 0 5.292198E-07
vn 1 0 5.292198E-07
vn 1 0 5.292198E-07
vn 2.815122E-07 1.049576E-07 -1
vn 4.160985E-07 1.001506E-06 -1
vn 4.318544E-07 1.106464E-06 -1
vn 2.657564E-07 0 -1
vn -0.2574316 0.9313742 0.2574318
vn -0.3488152 0.8698598 -0.3488151
vn -0.2574321 0.9313748 -0.2574288
vn -0.3488156 0.8698593 0.3488158
vn 0.3498419 0.868621 0.3508679
vn -0.2574316 0.9313742 0.2574318
vn 0.259991 0.9307538 0.2571034
vn -0.3488156 0.8698593 0.3488158
vn -0.3488152 0.8698598 -0.3488151
vn 0.259992 0.9307534 -0.2571035
vn -0.2574321 0.9313748 -0.2574288
vn 0.3498416 0.8686213 -0.3508672
vn 0.259992 0.9307534 -0.2571035
vn -0.2574316 0.9313742 0.2574318
vn -0.2574321 0.9313748 -0.2574288
vn 0.259991 0.9307538 0.2571034
vn -1 0 -1.803922E-07
vn -1 0 -1.803922E-07
vn -1 0 -1.803922E-07
vn -1 0 -1.803922E-07
vn 1 0 0
vn 1 0 0
vn 1 0 0
vn 1 0 0
vn -3.625975E-07 0 -1
vn -3.625975E-07 0 -1
vn -3.625975E-07 0 -1
vn -3.625975E-07 0 -1
vn 0 0 1
vn 0 0 1
vn 0 0 1
vn 0 0 1
vn 0.3498416 0.8686213 -0.3508672
vn 0.259991 0.9307538 0.2571034
vn 0.259992 0.9307534 -0.2571035
vn 0.3498419 0.868621 0.3508679
vn 0 -1 0
vn 0 -1 0
vn 0 -1 0
vn 0 -1 0
g royale_grain_collector_LOD_2_mesh_A_0
f 3/3/3 2/2/2 1/1/1
f 4/4/4 1/1/1 2/2/2
f 7/7/7 6/6/6 5/5/5
f 8/8/8 5/5/5 6/6/6
f 11/11/11 10/10/10 9/9/9
f 12/12/12 9/9/9 10/10/10
f 15/15/15 14/14/14 13/13/13
f 16/16/16 13/13/13 14/14/14
f 19/19/19 18/18/18 17/17/17
f 20/20/20 17/17/17 18/18/18
f 23/23/23 22/22/22 21/21/21
f 24/24/24 21/21/21 22/22/22
f 27/27/27 26/26/26 25/25/25
f 28/28/28 25/25/25 26/26/26
f 31/31/31 30/30/30 29/29/29
f 32/32/32 29/29/29 30/30/30
f 35/35/35 34/34/34 33/33/33
f 36/36/36 33/33/33 34/34/34
f 39/39/39 38/38/38 37/37/37
f 40/40/40 37/37/37 38/38/38
f 43/43/43 42/42/42 41/41/41
f 44/44/44 41/41/41 42/42/42
f 47/47/47 46/46/46 45/45/45
f 48/48/48 45/45/45 46/46/46
f 51/51/51 50/50/50 49/49/49
f 52/52/52 49/49/49 50/50/50
f 55/55/55 54/54/54 53/53/53
f 56/56/56 53/53/53 54/54/54
