g royale_carriage_barrel_LOD_0_A
v 7.734727 4.996068 1.075652
v -7.672446 4.996068 1.075651
v -7.672446 4.996068 -1.006307
v 7.734727 4.996067 -1.006306
v -7.672449 2.000894 1.075648
v -7.672446 2.000894 -1.006307
v -7.672445 2.426181 -1.006306
v -7.672447 2.426181 1.075649
v -7.672446 4.570781 1.075651
v -7.672446 4.570781 -1.006307
v -7.672444 2.42618 -1.409052
v -7.672446 4.570781 -1.409053
v -7.672446 4.996068 -1.006307
v -7.672446 4.996068 1.075651
v -7.672447 2.426181 1.478395
v -7.672446 4.570781 1.478396
v -7.672446 4.570781 1.075651
v 7.734727 4.570781 1.075652
v 7.734727 4.570781 1.478397
v -7.672446 4.570781 1.478396
v 7.734727 4.570781 1.478397
v 7.734726 2.426181 1.478396
v -7.672447 2.426181 1.478395
v -7.672446 4.570781 1.478396
v -7.672446 4.996068 1.075651
v 7.734727 4.996068 1.075652
v 7.734727 4.570781 1.075652
v -7.672446 4.570781 1.075651
v 7.734724 2.000894 1.075649
v 7.734726 2.000894 -1.006307
v -7.672446 2.000894 -1.006307
v -7.672449 2.000894 1.075648
v -7.672447 2.426181 1.075649
v -7.672447 2.426181 1.478395
v 7.734726 2.426181 1.478396
v 7.734726 2.426181 1.075651
v -7.672449 2.000894 1.075648
v -7.672447 2.426181 1.075649
v 7.734726 2.426181 1.075651
v 7.734724 2.000894 1.075649
v 7.734727 4.570781 -1.006306
v -7.672446 4.570781 -1.006307
v -7.672446 4.570781 -1.409053
v 7.734726 4.570781 -1.409053
v -7.672446 4.570781 -1.409053
v -7.672444 2.42618 -1.409052
v 7.734727 2.42618 -1.409052
v 7.734726 4.570781 -1.409053
v 7.734727 4.996067 -1.006306
v -7.672446 4.996068 -1.006307
v -7.672446 4.570781 -1.006307
v 7.734727 4.570781 -1.006306
v 7.73473 2.42618 -1.006304
v 7.734727 2.42618 -1.409052
v -7.672444 2.42618 -1.409052
v -7.672445 2.426181 -1.006306
v 7.734726 2.000894 -1.006307
v 7.73473 2.42618 -1.006304
v -7.672445 2.426181 -1.006306
v -7.672446 2.000894 -1.006307
v 7.734724 2.000894 1.075649
v 7.734726 2.426181 1.075651
v 7.73473 2.42618 -1.006304
v 7.734726 2.000894 -1.006307
v 7.734727 4.570781 1.075652
v 7.734727 4.570781 -1.006306
v 7.734727 2.42618 -1.409052
v 7.734726 4.570781 -1.409053
v 7.734727 4.996067 -1.006306
v 7.734727 4.996068 1.075652
v 7.734726 2.426181 1.478396
v 7.734727 4.570781 1.478397
vt 0.4990234 0.6474609
vt 0.4399414 0.6474609
vt 0.4399414 0.6552734
vt 0.4990234 0.6552734
vt 0.4393164 0.655274
vt 0.4393165 0.6474618
vt 0.4375 0.6474609
vt 0.4375 0.6552734
vt 0.4296875 0.6552734
vt 0.4296875 0.6474609
vt 0.4375006 0.6457956
vt 0.4296875 0.6457957
vt 0.4277344 0.6474609
vt 0.4277344 0.6552734
vt 0.4375 0.6567383
vt 0.4296875 0.6567383
vt 0.4399414 0.6455078
vt 0.4990234 0.6455078
vt 0.4990234 0.644043
vt 0.4399414 0.644043
vt 0.4990234 0.644043
vt 0.4990234 0.6362305
vt 0.4399414 0.6362305
vt 0.4399414 0.644043
vt 0.4399414 0.6474609
vt 0.4990234 0.6474609
vt 0.4990234 0.6455078
vt 0.4399414 0.6455078
vt 0.4990234 0.6474609
vt 0.4990235 0.6552734
vt 0.4399415 0.6552734
vt 0.4399414 0.6474609
vt 0.4399414 0.6455078
vt 0.4399414 0.644043
vt 0.4990234 0.644043
vt 0.4990234 0.6455078
vt 0.4399414 0.6474609
vt 0.4399414 0.6455078
vt 0.4990234 0.6455078
vt 0.4990234 0.6474609
vt 0.4399414 0.6455078
vt 0.4990234 0.6455078
vt 0.4990234 0.644043
vt 0.4399414 0.644043
vt 0.4990234 0.644043
vt 0.4990234 0.6362305
vt 0.4399414 0.6362305
vt 0.4399414 0.644043
vt 0.4399414 0.6474609
vt 0.4990234 0.6474609
vt 0.4990234 0.6455078
vt 0.4399414 0.6455078
vt 0.4399414 0.6455078
vt 0.4399415 0.644043
vt 0.4990235 0.644043
vt 0.4990234 0.6455078
vt 0.4399414 0.6474609
vt 0.4399414 0.6455078
vt 0.4990234 0.6455078
vt 0.4990235 0.6474609
vt 0.4393153 0.6552728
vt 0.4375 0.6552734
vt 0.4375 0.6474609
vt 0.4393166 0.6474606
vt 0.4296875 0.6552734
vt 0.4296875 0.6474609
vt 0.4374997 0.6457955
vt 0.4296872 0.645795
vt 0.4277344 0.6474609
vt 0.4277344 0.6552734
vt 0.4375 0.6567383
vt 0.4296875 0.6567383
vn 0 1 -2.931623E-07
vn 0 1 -2.931623E-07
vn 0 1 -2.931623E-07
vn 0 1 -2.931623E-07
vn -1 0 -5.863247E-07
vn -1 0 -5.863247E-07
vn -1 0 -5.863247E-07
vn -1 0 -5.863247E-07
vn -1 0 0
vn -1 -2.845988E-07 1.292853E-06
vn -1 -2.845988E-07 1.292853E-06
vn -1 -2.845988E-07 1.292853E-06
vn -1 0 0
vn -1 0 0
vn -1 5.691984E-07 0
vn -1 5.691984E-07 0
vn 0 1 0
vn 0 1 0
vn 0 1 0
vn 0 1 0
vn 0 -5.691984E-07 1
vn 0 -5.691984E-07 1
vn 0 -5.691984E-07 1
vn 0 -5.691984E-07 1
vn 0 0 1
vn 0 0 1
vn 0 0 1
vn 0 0 1
vn 0 -1 0
vn 0 -1 0
vn 0 -1 0
vn 0 -1 0
vn 0 -1 0
vn 0 -1 0
vn 0 -1 0
vn 0 -1 0
vn 0 -2.870308E-06 1
vn 0 -2.870308E-06 1
vn 0 -2.870308E-06 1
vn 0 -2.870308E-06 1
vn 0 1 0
vn 0 1 0
vn 0 1 0
vn 0 1 0
vn 0 -5.691985E-07 -1
vn 0 -5.691985E-07 -1
vn 0 -5.691985E-07 -1
vn 0 -5.691985E-07 -1
vn 0 0 -1
vn 0 0 -1
vn 0 0 -1
vn 0 0 -1
vn 0 -1 0
vn 0 -1 0
vn 0 -1 0
vn 0 -1 0
vn 0 5.740621E-06 -1
vn 0 5.740621E-06 -1
vn 0 5.740621E-06 -1
vn 0 5.740621E-06 -1
vn 1 2.669598E-06 8.79487E-07
vn 1 2.669598E-06 8.794871E-07
vn 1 2.669598E-06 8.79487E-07
vn 1 2.669598E-06 8.79487E-07
vn 1 0 0
vn 1 4.268991E-07 6.464277E-07
vn 1 4.268991E-07 6.464277E-07
vn 1 4.268991E-07 6.464277E-07
vn 1 0 0
vn 1 0 0
vn 1 -7.114975E-07 -7.577389E-07
vn 1 -7.114975E-07 -7.577389E-07
g royale_carriage_barrel_LOD_0_A_0
f 3/3/3 2/2/2 1/1/1
f 4/4/4 3/3/3 1/1/1
f 7/7/7 6/6/6 5/5/5
f 8/8/8 7/7/7 5/5/5
f 7/7/7 8/8/8 9/9/9
f 10/10/10 7/7/7 9/9/9
f 7/7/7 10/10/10 11/11/11
f 10/10/10 12/12/12 11/11/11
f 10/10/10 9/9/9 13/13/13
f 9/9/9 14/14/14 13/13/13
f 8/8/8 15/15/15 9/9/9
f 15/15/15 16/16/16 9/9/9
f 19/19/19 18/18/18 17/17/17
f 20/20/20 19/19/19 17/17/17
f 23/23/23 22/22/22 21/21/21
f 24/24/24 23/23/23 21/21/21
f 27/27/27 26/26/26 25/25/25
f 28/28/28 27/27/27 25/25/25
f 31/31/31 30/30/30 29/29/29
f 32/32/32 31/31/31 29/29/29
f 35/35/35 34/34/34 33/33/33
f 36/36/36 35/35/35 33/33/33
f 39/39/39 38/38/38 37/37/37
f 40/40/40 39/39/39 37/37/37
f 43/43/43 42/42/42 41/41/41
f 44/44/44 43/43/43 41/41/41
f 47/47/47 46/46/46 45/45/45
f 48/48/48 47/47/47 45/45/45
f 51/51/51 50/50/50 49/49/49
f 52/52/52 51/51/51 49/49/49
f 55/55/55 54/54/54 53/53/53
f 56/56/56 55/55/55 53/53/53
f 59/59/59 58/58/58 57/57/57
f 60/60/60 59/59/59 57/57/57
f 63/63/63 62/62/62 61/61/61
f 64/64/64 63/63/63 61/61/61
f 62/62/62 63/63/63 65/65/65
f 63/63/63 66/66/66 65/65/65
f 66/66/66 63/63/63 67/67/67
f 68/68/68 66/66/66 67/67/67
f 65/65/65 66/66/66 69/69/69
f 70/70/70 65/65/65 69/69/69
f 71/71/71 62/62/62 65/65/65
f 72/72/72 71/71/71 65/65/65
