g royale_grain_collector_LOD_1_mesh_A
v 1.759906 0.2973498 3.98
v -1.970096 -0.01515015 3.98
v -1.720096 0.2973498 3.98
v 2.009906 -0.01515015 3.98
v 2.009906 0.7348498 3.98
v 1.759906 0.7348498 3.98
v -1.970096 0.7348498 3.98
v -1.720096 0.7348498 3.98
v -1.720096 4.561848 3.782959
v 1.759906 4.561848 3.98
v 1.759906 4.561848 3.782959
v -1.720096 4.561848 3.98
v 1.759906 0.2973498 -3.890461
v -1.720096 0.2973498 3.98
v -1.720096 0.2973498 -3.890461
v 1.759906 0.2973498 3.98
v -3.960091 19.88485 1.99
v -3.96009 0.7348498 -1.990002
v -3.96009 19.88485 -1.990001
v -3.960091 0.7348498 1.99
v -1.970094 19.88485 1.99
v -3.960091 0.7348498 1.99
v -3.960091 19.88485 1.99
v -1.970094 0.7348498 1.99
v -1.970096 19.88485 3.98
v -1.970094 0.7348498 1.99
v -1.970094 19.88485 1.99
v -1.970096 0.7348498 3.98
v 2.009906 19.88485 1.99
v 2.009906 0.7348498 3.98
v 2.009906 19.88485 3.98
v 2.009906 0.7348498 1.99
v 3.960109 19.88485 1.99
v 2.009906 0.7348498 1.99
v 2.009906 19.88485 1.99
v 3.960109 0.7348498 1.99
v 3.960109 19.88485 -1.989999
v 3.960109 0.7348498 1.99
v 3.960109 19.88485 1.99
v 3.960109 0.7348498 -1.99
v 2.009908 19.88485 -1.989999
v 3.960109 0.7348498 -1.99
v 3.960109 19.88485 -1.989999
v 2.009908 0.7348498 -1.99
v 2.009908 19.88485 -3.979999
v 2.009908 0.7348498 -1.99
v 2.009908 19.88485 -1.989999
v 2.009908 0.7348498 -3.98
v -1.970094 19.88485 -3.979999
v 2.009908 0.7348498 -3.98
v 2.009908 19.88485 -3.979999
v -1.970094 0.7348498 -3.98
v -1.970094 19.88485 -1.989999
v -1.970094 0.7348498 -3.98
v -1.970094 19.88485 -3.979999
v -1.970094 0.7348498 -1.99
v -3.96009 19.88485 -1.990001
v -1.970094 0.7348498 -1.99
v -1.970094 19.88485 -1.989999
v -3.96009 0.7348498 -1.990002
v -1.970096 0.7348498 3.98
v -1.720096 4.561848 3.98
v -1.720096 0.7348498 3.98
v -1.970096 19.88485 3.98
v -3.960091 0.7348498 1.99
v -3.96009 -0.01514404 -1.990002
v -3.96009 0.7348498 -1.990002
v -3.960091 -0.01514404 1.99
v -1.970094 0.7348498 1.99
v -3.960091 -0.01514404 1.99
v -3.960091 0.7348498 1.99
v -1.970094 -0.01514404 1.99
v -1.970096 0.7348498 3.98
v -1.970094 -0.01514404 1.99
v -1.970094 0.7348498 1.99
v -1.970096 -0.01515015 3.98
v 2.009906 0.7348498 1.99
v 2.009906 -0.01515015 3.98
v 2.009906 0.7348498 3.98
v 2.009906 -0.01514404 1.99
v 3.960109 0.7348498 1.99
v 2.009906 -0.01514404 1.99
v 2.009906 0.7348498 1.99
v 3.960109 -0.01514404 1.99
v 3.960109 0.7348498 -1.99
v 3.960109 -0.01514404 1.99
v 3.960109 0.7348498 1.99
v 3.960109 -0.01514404 -1.99
v 2.009908 0.7348498 -1.99
v 3.960109 -0.01514404 -1.99
v 3.960109 0.7348498 -1.99
v 2.009908 -0.01514404 -1.99
v 2.009908 0.7348498 -3.98
v 2.009908 -0.01514404 -1.99
v 2.009908 0.7348498 -1.99
v 2.009908 -0.01514404 -3.98
v -1.970094 0.7348498 -3.98
v 2.009908 -0.01514404 -3.98
v 2.009908 0.7348498 -3.98
v -1.970094 -0.01514404 -3.98
v -1.970094 0.7348498 -1.99
v -1.970094 -0.01514404 -3.98
v -1.970094 0.7348498 -3.98
v -1.970094 -0.01514404 -1.99
v -3.96009 0.7348498 -1.990002
v -1.970094 -0.01514404 -1.99
v -1.970094 0.7348498 -1.99
v -3.96009 -0.01514404 -1.990002
v -1.970096 19.88485 3.98
v 1.759906 4.561848 3.98
v -1.720096 4.561848 3.98
v 2.009906 19.88485 3.98
v 2.009906 0.7348498 3.98
v 1.759906 4.561848 3.98
v 2.009906 19.88485 3.98
v 1.759906 0.7348498 3.98
v -4.593314 21.26392 -4.61322
v -4.593307 19.88485 4.613213
v -4.59331 19.88485 -4.613219
v -4.593307 21.26392 4.613213
v 4.593314 21.26392 4.613218
v -4.593307 19.88485 4.613213
v -4.593307 21.26392 4.613213
v 4.593314 19.88485 4.613218
v 4.593319 21.26392 -4.613218
v 4.593314 19.88485 4.613218
v 4.593314 21.26392 4.613218
v 4.593317 19.88485 -4.613216
v -4.593314 21.26392 -4.61322
v 4.593317 19.88485 -4.613216
v 4.593319 21.26392 -4.613218
v -4.59331 19.88485 -4.613219
v -4.593314 21.26392 -4.61322
v -1.1741 24.00613 1.194004
v -4.593307 21.26392 4.613213
v -1.174105 24.00614 -1.193994
v -1.1741 24.00613 1.194004
v 4.593314 21.26392 4.613218
v -4.593307 21.26392 4.613213
v 1.213897 24.00614 1.194004
v 1.213899 24.00613 -1.193999
v -4.593314 21.26392 -4.61322
v 4.593319 21.26392 -4.613218
v -1.174105 24.00614 -1.193994
v -1.1741 24.00613 1.194004
v 1.213899 24.00613 -1.193999
v 1.213897 24.00614 1.194004
v 1.213899 24.00613 -1.193999
v -1.1741 24.00613 1.194004
v -1.174105 24.00614 -1.193994
v 1.213897 24.00614 1.194004
v 4.593319 21.26392 -4.613218
v 4.593314 21.26392 4.613218
v 1.213899 24.00613 -1.193999
v -4.59331 19.88485 -4.613219
v 4.593314 19.88485 4.613218
v 4.593317 19.88485 -4.613216
v -4.593307 19.88485 4.613213
v -1.720096 4.561848 3.782959
v -1.720096 -0.01515015 3.98
v -1.720096 4.561848 3.98
v -1.720096 -0.01515015 -3.890461
v -1.720096 9.934853 -3.890461
v -1.720096 9.934854 3.782959
v 1.759906 4.561848 3.782959
v 1.759906 -0.01515015 3.98
v 1.759906 -0.01515015 -3.890461
v 1.759906 4.561848 3.98
v 1.759906 9.934853 -3.890461
v 1.759906 9.934852 3.782959
v 1.759906 9.934852 3.782959
v -1.720096 4.561848 3.782959
v 1.759906 4.561848 3.782959
v -1.720096 9.934854 3.782959
v -1.720096 9.934853 -3.890461
v 1.759906 -0.01515015 -3.890461
v -1.720096 -0.01515015 -3.890461
v 1.759906 9.934853 -3.890461
vt 0.7939122 0.2954617
vt 0.7961895 0.2682145
vt 0.7939122 0.270041
vt 0.7961895 0.2972881
vt 0.7907245 0.2972881
vt 0.7907245 0.2954619
vt 0.7907245 0.2682145
vt 0.7907245 0.2700408
vt 0.5360705 0.08443411
vt 0.5085191 0.08287417
vt 0.5085191 0.08443411
vt 0.5360705 0.08287417
vt 0.8439032 0.2329316
vt 0.8705407 0.2931755
vt 0.8705406 0.2329316
vt 0.8439032 0.2931755
vt 0.6549831 0.08683266
vt 0.5084888 0.1185006
vt 0.6549831 0.1185005
vt 0.5084888 0.08683272
vt 0.6550534 0.1162049
vt 0.50818 0.1226707
vt 0.6550534 0.1226707
vt 0.50818 0.116205
vt 0.6550534 0.1162049
vt 0.5081798 0.1226707
vt 0.6550534 0.1226707
vt 0.5081798 0.116205
vt 0.6550534 0.1162049
vt 0.5081797 0.1226707
vt 0.6550534 0.1226707
vt 0.5081797 0.116205
vt 0.6550534 0.1162049
vt 0.5081799 0.1225413
vt 0.6550534 0.1225413
vt 0.5081799 0.116205
vt 0.6549832 0.08683266
vt 0.5084888 0.1185006
vt 0.6549832 0.1185005
vt 0.5084888 0.08683272
vt 0.6550534 0.1162049
vt 0.50818 0.1225413
vt 0.6550534 0.1225413
vt 0.50818 0.116205
vt 0.6550534 0.1162049
vt 0.5081798 0.1226707
vt 0.6550534 0.1226707
vt 0.5081798 0.116205
vt 0.6549831 0.0868326
vt 0.5084889 0.1185006
vt 0.6549831 0.1185005
vt 0.5084889 0.08683266
vt 0.6550534 0.1162049
vt 0.5081797 0.1226707
vt 0.6550534 0.1226707
vt 0.5081797 0.116205
vt 0.6550534 0.1162049
vt 0.50818 0.1226707
vt 0.6550534 0.1226707
vt 0.50818 0.116205
vt 0.514495 0.1211191
vt 0.5447932 0.1191349
vt 0.514495 0.1191349
vt 0.6534581 0.121119
vt 0.7907245 0.2972881
vt 0.7961758 0.2681415
vt 0.7907245 0.2681415
vt 0.7961758 0.2972881
vt 0.7907245 0.2972881
vt 0.7961895 0.2827877
vt 0.7907245 0.2827877
vt 0.7961895 0.2972881
vt 0.7907245 0.2972881
vt 0.7961895 0.2827877
vt 0.7907245 0.2827877
vt 0.7961895 0.2972881
vt 0.7907245 0.2972881
vt 0.7961895 0.2827877
vt 0.7907245 0.2827877
vt 0.7961895 0.2972881
vt 0.7907245 0.2972881
vt 0.7961895 0.2830777
vt 0.7907245 0.2830777
vt 0.7961895 0.2972881
vt 0.7907245 0.2972881
vt 0.7961758 0.2681416
vt 0.7907245 0.2681416
vt 0.7961758 0.2972881
vt 0.7907245 0.2972881
vt 0.7961895 0.2830777
vt 0.7907245 0.2830777
vt 0.7961895 0.2972881
vt 0.7907245 0.2972881
vt 0.7961895 0.2827877
vt 0.7907245 0.2827877
vt 0.7961895 0.2972881
vt 0.7907245 0.2972881
vt 0.7961758 0.2681416
vt 0.7907245 0.2681416
vt 0.7961758 0.2972881
vt 0.7907245 0.2972881
vt 0.7961895 0.2827877
vt 0.7907245 0.2827877
vt 0.7961895 0.2972881
vt 0.7907245 0.2972881
vt 0.7961895 0.2827877
vt 0.7907245 0.2827877
vt 0.7961895 0.2972881
vt 0.6549831 0.1185006
vt 0.5336714 0.08889617
vt 0.5336714 0.1165163
vt 0.6549831 0.086912
vt 0.514495 0.08287422
vt 0.5447932 0.08485838
vt 0.6534581 0.08287439
vt 0.514495 0.08485838
vt 0.9069765 0.1563679
vt 0.8363533 0.1669238
vt 0.9069765 0.1669238
vt 0.8363533 0.1563679
vt 0.8366581 0.1563679
vt 0.9069765 0.1669239
vt 0.9069765 0.1563679
vt 0.8366581 0.1669239
vt 0.8363533 0.1563679
vt 0.9069765 0.1669238
vt 0.9069765 0.1563679
vt 0.8363533 0.1669238
vt 0.8363533 0.1563679
vt 0.9066719 0.1669238
vt 0.9066719 0.1563679
vt 0.8363533 0.1669238
vt 0.8902283 0.3016658
vt 0.8457193 0.2680727
vt 0.8195131 0.3016658
vt 0.8640219 0.2680727
vt 0.8457193 0.2683101
vt 0.8899232 0.3019033
vt 0.8195132 0.3019033
vt 0.8640219 0.2683101
vt 0.8640219 0.2680727
vt 0.8195131 0.3016658
vt 0.8899232 0.3016658
vt 0.8457193 0.2680726
vt 0.8457193 0.2680727
vt 0.8640219 0.2497702
vt 0.8457193 0.2497702
vt 0.8640219 0.2497702
vt 0.8457193 0.2680727
vt 0.8640219 0.2680727
vt 0.8457193 0.2683101
vt 0.8902282 0.3016658
vt 0.8195131 0.3016658
vt 0.8640219 0.2683102
vt 0.9011539 0.2202779
vt 0.8443187 0.1631972
vt 0.8443187 0.2202779
vt 0.9011538 0.1631972
vt 0.5471728 0.1177211
vt 0.5134109 0.1185293
vt 0.5471728 0.1185293
vt 0.5134109 0.08624816
vt 0.5897107 0.08624815
vt 0.5897107 0.1177211
vt 0.5471728 0.08685132
vt 0.5134109 0.08604311
vt 0.5134109 0.1183243
vt 0.5471728 0.0860431
vt 0.5897107 0.1183243
vt 0.5897107 0.08685132
vt 0.5534366 0.1151845
vt 0.5108987 0.08763339
vt 0.5108987 0.1151845
vt 0.5534366 0.08763338
vt 0.5897107 0.1151845
vt 0.5134109 0.08763339
vt 0.5134109 0.1151845
vt 0.5897107 0.08763338
vn 0 0 1
vn 0 0 1
vn 0 0 1
vn 0 0 1
vn 0 0 1
vn 0 0 1
vn 0 0 1
vn 0 0 1
vn 0 -1 0
vn 0 -1 0
vn 0 -1 0
vn 0 -1 0
vn 0 1 0
vn 0 1 0
vn 0 1 0
vn 0 1 0
vn -1 0 -3.067092E-07
vn -1 0 -3.067092E-07
vn -1 0 -3.067092E-07
vn -1 0 -3.067092E-07
vn 0 0 1
vn 0 0 1
vn 0 0 1
vn 0 0 1
vn -1 0 -1.226837E-06
vn -1 0 -1.226837E-06
vn -1 0 -1.226837E-06
vn -1 0 -1.226837E-06
vn 1 0 0
vn 1 0 0
vn 1 0 0
vn 1 0 0
vn 0 0 1
vn 0 0 1
vn 0 0 1
vn 0 0 1
vn 1 0 0
vn 1 0 0
vn 1 0 0
vn 1 0 0
vn 0 0 -1
vn 0 0 -1
vn 0 0 -1
vn 0 0 -1
vn 1 0 0
vn 1 0 0
vn 1 0 0
vn 1 0 0
vn 0 0 -1
vn 0 0 -1
vn 0 0 -1
vn 0 0 -1
vn -1 0 0
vn -1 0 0
vn -1 0 0
vn -1 0 0
vn 1.22684E-06 0 -1
vn 1.22684E-06 0 -1
vn 1.22684E-06 0 -1
vn 1.22684E-06 0 -1
vn 0 0 1
vn 0 0 1
vn 0 0 1
vn 0 0 1
vn -1 0 -3.067092E-07
vn -1 0 -3.067091E-07
vn -1 0 -3.067092E-07
vn -1 0 -3.067092E-07
vn 0 0 1
vn 0 0 1
vn 0 0 1
vn 0 0 1
vn -1 0 -1.226837E-06
vn -1 0 -1.226837E-06
vn -1 0 -1.226837E-06
vn -1 0 -1.226837E-06
vn 1 0 0
vn 1 0 0
vn 1 0 0
vn 1 0 0
vn 0 0 1
vn 0 0 1
vn 0 0 1
vn 0 0 1
vn 1 0 0
vn 1 0 0
vn 1 0 0
vn 1 0 0
vn 0 0 -1
vn 0 0 -1
vn 0 0 -1
vn 0 0 -1
vn 1 0 0
vn 1 0 0
vn 1 0 0
vn 1 0 0
vn 0 0 -1
vn 0 0 -1
vn 0 0 -1
vn 0 0 -1
vn -1 0 0
vn -1 0 0
vn -1 0 0
vn -1 0 0
vn 1.22684E-06 0 -1
vn 1.22684E-06 0 -1
vn 1.22684E-06 0 -1
vn 1.22684E-06 0 -1
vn 0 0 1
vn 0 0 1
vn 0 0 1
vn 0 0 1
vn 0 0 1
vn 0 0 1
vn 0 0 1
vn 0 0 1
vn -1 -2.404677E-06 4.344059E-07
vn -1 -2.508274E-07 7.563393E-07
vn -1 -2.655504E-06 3.96915E-07
vn -1 0 7.938299E-07
vn -5.315135E-07 0 1
vn -5.315135E-07 0 1
vn -5.315134E-07 0 1
vn -5.315134E-07 0 1
vn 1 -1.603117E-06 2.89604E-07
vn 1 -1.672191E-07 5.042259E-07
vn 1 0 5.292198E-07
vn 1 -1.770336E-06 2.646099E-07
vn 2.657565E-07 0 -1
vn 2.657564E-07 0 -1
vn 2.657564E-07 0 -1
vn 2.657565E-07 0 -1
vn -0.3488147 0.8698601 -0.3488148
vn -0.2574313 0.9313744 0.2574315
vn -0.3488152 0.8698596 0.3488154
vn -0.2574318 0.931375 -0.2574285
vn -0.2574313 0.9313744 0.2574315
vn 0.3498414 0.8686213 0.3508674
vn -0.3488152 0.8698596 0.3488154
vn 0.2599907 0.9307539 0.2571031
vn 0.2599916 0.9307536 -0.2571031
vn -0.3488147 0.8698601 -0.3488148
vn 0.3498412 0.8686218 -0.3508667
vn -0.2574318 0.931375 -0.2574285
vn -0.2574313 0.9313744 0.2574315
vn 0.2599916 0.9307536 -0.2571031
vn 0.2599907 0.9307539 0.2571031
vn 0.2599916 0.9307536 -0.2571031
vn -0.2574313 0.9313744 0.2574315
vn -0.2574318 0.931375 -0.2574285
vn 0.2599907 0.9307539 0.2571031
vn 0.3498412 0.8686218 -0.3508667
vn 0.3498414 0.8686213 0.3508674
vn 0.2599916 0.9307536 -0.2571031
vn 0 -1 0
vn 0 -1 0
vn 0 -1 0
vn 0 -1 0
vn 1 0 0
vn 1 0 0
vn 1 0 0
vn 1 0 0
vn 1 0 0
vn 1 0 0
vn -1 0 0
vn -1 0 0
vn -1 0 0
vn -1 0 0
vn -1 0 0
vn -1 0 0
vn 0 0 -1
vn 0 0 -1
vn 0 0 -1
vn 0 0 -1
vn 0 0 1
vn 0 0 1
vn 0 0 1
vn 0 0 1
g royale_grain_collector_LOD_1_mesh_A_0
f 3/3/3 2/2/2 1/1/1
f 4/4/4 1/1/1 2/2/2
f 4/4/4 5/5/5 1/1/1
f 6/6/6 1/1/1 5/5/5
f 2/2/2 3/3/3 7/7/7
f 8/8/8 7/7/7 3/3/3
f 11/11/11 10/10/10 9/9/9
f 12/12/12 9/9/9 10/10/10
f 15/15/15 14/14/14 13/13/13
f 16/16/16 13/13/13 14/14/14
f 19/19/19 18/18/18 17/17/17
f 20/20/20 17/17/17 18/18/18
f 23/23/23 22/22/22 21/21/21
f 24/24/24 21/21/21 22/22/22
f 27/27/27 26/26/26 25/25/25
f 28/28/28 25/25/25 26/26/26
f 31/31/31 30/30/30 29/29/29
f 32/32/32 29/29/29 30/30/30
f 35/35/35 34/34/34 33/33/33
f 36/36/36 33/33/33 34/34/34
f 39/39/39 38/38/38 37/37/37
f 40/40/40 37/37/37 38/38/38
f 43/43/43 42/42/42 41/41/41
f 44/44/44 41/41/41 42/42/42
f 47/47/47 46/46/46 45/45/45
f 48/48/48 45/45/45 46/46/46
f 51/51/51 50/50/50 49/49/49
f 52/52/52 49/49/49 50/50/50
f 55/55/55 54/54/54 53/53/53
f 56/56/56 53/53/53 54/54/54
f 59/59/59 58/58/58 57/57/57
f 60/60/60 57/57/57 58/58/58
f 63/63/63 62/62/62 61/61/61
f 64/64/64 61/61/61 62/62/62
f 67/67/67 66/66/66 65/65/65
f 68/68/68 65/65/65 66/66/66
f 71/71/71 70/70/70 69/69/69
f 72/72/72 69/69/69 70/70/70
f 75/75/75 74/74/74 73/73/73
f 76/76/76 73/73/73 74/74/74
f 79/79/79 78/78/78 77/77/77
f 80/80/80 77/77/77 78/78/78
f 83/83/83 82/82/82 81/81/81
f 84/84/84 81/81/81 82/82/82
f 87/87/87 86/86/86 85/85/85
f 88/88/88 85/85/85 86/86/86
f 91/91/91 90/90/90 89/89/89
f 92/92/92 89/89/89 90/90/90
f 95/95/95 94/94/94 93/93/93
f 96/96/96 93/93/93 94/94/94
f 99/99/99 98/98/98 97/97/97
f 100/100/100 97/97/97 98/98/98
f 103/103/103 102/102/102 101/101/101
f 104/104/104 101/101/101 102/102/102
f 107/107/107 106/106/106 105/105/105
f 108/108/108 105/105/105 106/106/106
f 111/111/111 110/110/110 109/109/109
f 112/112/112 109/109/109 110/110/110
f 115/115/115 114/114/114 113/113/113
f 116/116/116 113/113/113 114/114/114
f 119/119/119 118/118/118 117/117/117
f 120/120/120 117/117/117 118/118/118
f 123/123/123 122/122/122 121/121/121
f 124/124/124 121/121/121 122/122/122
f 127/127/127 126/126/126 125/125/125
f 128/128/128 125/125/125 126/126/126
f 131/131/131 130/130/130 129/129/129
f 132/132/132 129/129/129 130/130/130
f 135/135/135 134/134/134 133/133/133
f 136/136/136 133/133/133 134/134/134
f 139/139/139 138/138/138 137/137/137
f 140/140/140 137/137/137 138/138/138
f 143/143/143 142/142/142 141/141/141
f 144/144/144 141/141/141 142/142/142
f 147/147/147 146/146/146 145/145/145
f 150/150/150 149/149/149 148/148/148
f 153/153/153 152/152/152 151/151/151
f 154/154/154 151/151/151 152/152/152
f 157/157/157 156/156/156 155/155/155
f 158/158/158 155/155/155 156/156/156
f 161/161/161 160/160/160 159/159/159
f 162/162/162 159/159/159 160/160/160
f 162/162/162 163/163/163 159/159/159
f 164/164/164 159/159/159 163/163/163
f 167/167/167 166/166/166 165/165/165
f 168/168/168 165/165/165 166/166/166
f 167/167/167 165/165/165 169/169/169
f 170/170/170 169/169/169 165/165/165
f 173/173/173 172/172/172 171/171/171
f 174/174/174 171/171/171 172/172/172
f 177/177/177 176/176/176 175/175/175
f 178/178/178 175/175/175 176/176/176
