g royale_container_green_open_LOD_1_A
v -5.859918 4.218675 -2.03
v -5.837414 4.218675 2.029996
v 5.790561 4.218675 2.03
v 5.749601 4.218675 -2.029996
v 5.749601 4.218675 -2.029996
v 7.95662 4.201921 -1.740307
v 7.95662 0.2234713 -1.740307
v 5.749601 0.1980325 -2.029996
v 5.790561 4.218675 2.03
v -5.837414 4.218675 2.029996
v -5.837414 0.1980325 2.029996
v 5.79056 0.1980325 2.03
v 5.749601 4.218675 -2.029996
v 5.749601 0.1980325 -2.029996
v -5.859918 0.1980325 -2.03
v -5.859918 4.218675 -2.03
v -7.773624 4.182372 3.100442
v -7.773623 0.2259643 3.100442
v -5.837414 0.1980325 2.029996
v -5.837414 4.218675 2.029996
v 7.956635 0.2234713 1.892958
v 7.956635 4.201921 1.892958
v 5.790561 4.218675 2.03
v 5.79056 0.1980325 2.03
v -5.859918 4.218675 -2.03
v -5.859918 0.1980325 -2.03
v -7.340566 0.225964 -3.710342
v -7.340567 4.182371 -3.710341
v -5.800002 4.363675 -2.175
v 5.800002 4.363675 -2.174996
v 5.800002 4.363675 2.175
v -5.800001 4.363675 2.174996
v 5.800002 4.363675 -2.174996
v 5.800002 0.01367517 -2.174996
v 7.95662 0.2234713 -1.740307
v 7.95662 4.201921 -1.740307
v 5.800002 4.363675 2.175
v 5.800002 0.01367517 2.175
v -5.800001 0.01367517 2.174996
v -5.800001 4.363675 2.174996
v 5.800002 4.363675 -2.174996
v -5.800002 4.363675 -2.175
v -5.800001 0.01367517 -2.175
v 5.800002 0.01367517 -2.174996
v -7.703467 4.182371 3.22734
v -5.800001 4.363675 2.174996
v -5.800001 0.01367517 2.174996
v -7.703466 0.2259644 3.22734
v 7.956635 0.2234713 1.892958
v 5.800002 0.01367517 2.175
v 5.800002 4.363675 2.175
v 7.956635 4.201921 1.892958
v -5.800002 4.363675 -2.175
v -7.340567 4.182371 -3.710341
v -7.340566 0.225964 -3.710342
v -5.800001 0.01367517 -2.175
v -5.800002 4.363675 -2.175
v -5.800001 4.363675 2.174996
v -5.837414 4.218675 2.029996
v -5.859918 4.218675 -2.03
v 5.800002 4.363675 2.175
v 5.800002 4.363675 -2.174996
v 5.749601 4.218675 -2.029996
v 5.790561 4.218675 2.03
v 5.800002 4.363675 -2.174996
v 7.95662 4.201921 -1.740307
v 5.749601 4.218675 -2.029996
v 7.95662 0.2234713 -1.740307
v 5.800002 0.01367517 -2.174996
v 5.749601 0.1980325 -2.029996
v -7.703467 4.182371 3.22734
v -7.703466 0.2259644 3.22734
v -7.773623 0.2259643 3.100442
v -7.773624 4.182372 3.100442
v -7.703466 0.2259644 3.22734
v -5.800001 0.01367517 2.174996
v -5.837414 0.1980325 2.029996
v -7.773623 0.2259643 3.100442
v -5.800001 4.363675 2.174996
v -7.703467 4.182371 3.22734
v -7.773624 4.182372 3.100442
v -5.837414 4.218675 2.029996
v 7.956635 4.201921 1.892958
v 5.800002 4.363675 2.175
v 5.790561 4.218675 2.03
v 5.800002 0.01367517 2.175
v 7.956635 0.2234713 1.892958
v 5.79056 0.1980325 2.03
v -5.800001 0.01367517 -2.175
v -7.340566 0.225964 -3.710342
v -5.859918 0.1980325 -2.03
v -7.340567 4.182371 -3.710341
v -5.800002 4.363675 -2.175
v -5.859918 4.218675 -2.03
v 5.79056 0.1980325 2.03
v -5.837414 0.1980325 2.029996
v -5.859918 0.1980325 -2.03
v 5.749601 0.1980325 -2.029996
v -5.800001 0.01367517 2.174996
v 5.800002 0.01367517 2.175
v 5.800002 0.01367517 -2.174996
v -5.800001 0.01367517 -2.175
v -5.859918 0.1980325 -2.03
v -5.837414 0.1980325 2.029996
v -5.800001 0.01367517 2.174996
v -5.800001 0.01367517 -2.175
v 5.749601 0.1980325 -2.029996
v 5.800002 0.01367517 -2.174996
v 5.800002 0.01367517 2.175
v 5.79056 0.1980325 2.03
vt 0.4095476 0.5418022
vt 0.409525 0.5643847
vt 0.4700374 0.5644473
vt 0.4699935 0.5418341
vt 0.492613 0.5642795
vt 0.4810254 0.5643746
vt 0.4809966 0.5869331
vt 0.49261 0.5870773
vt 0.4700109 0.5643745
vt 0.4095347 0.5643745
vt 0.4095347 0.5869331
vt 0.4700109 0.5869331
vt 0.4700108 0.5643576
vt 0.4700108 0.5869331
vt 0.4095346 0.5869331
vt 0.4095346 0.5643576
vt 0.4812902 0.5643745
vt 0.4812902 0.5869331
vt 0.4699844 0.5870923
vt 0.4699873 0.5641675
vt 0.4812957 0.5867546
vt 0.4812557 0.5646669
vt 0.4700109 0.5642795
vt 0.4700157 0.5869223
vt 0.4926068 0.5641675
vt 0.4926114 0.5870923
vt 0.4809936 0.5869331
vt 0.4810421 0.5643745
vt 0.4095325 0.5418319
vt 0.4700134 0.5417945
vt 0.4700216 0.5642891
vt 0.4095361 0.5643625
vt 0.4925695 0.5641948
vt 0.4925695 0.5871393
vt 0.4812902 0.5869331
vt 0.4812901 0.5643745
vt 0.4700109 0.5643745
vt 0.4700109 0.5869331
vt 0.4095347 0.5869331
vt 0.4095347 0.5643745
vt 0.4700109 0.5643576
vt 0.4095347 0.5643576
vt 0.4095347 0.5869331
vt 0.4700109 0.5869331
vt 0.4812902 0.5643745
vt 0.4700109 0.5643733
vt 0.4700109 0.586816
vt 0.4812902 0.5869331
vt 0.481288 0.5867702
vt 0.4700132 0.5869729
vt 0.4700216 0.5642891
vt 0.4812917 0.5644931
vt 0.4925694 0.5640783
vt 0.4812903 0.5643746
vt 0.4812903 0.5869331
vt 0.4925695 0.5871602
vt 0.4422172 0.5643666
vt 0.4635154 0.5643666
vt 0.4628054 0.5651193
vt 0.4429271 0.5651193
vt 0.4422172 0.5643666
vt 0.4635154 0.5643666
vt 0.4628054 0.5651193
vt 0.4429271 0.5651193
vt 0.4908175 0.564195
vt 0.4810254 0.5643746
vt 0.492613 0.5642795
vt 0.4809966 0.5869331
vt 0.4910485 0.5871391
vt 0.49261 0.5870773
vt 0.4812902 0.5643745
vt 0.4812902 0.5869331
vt 0.4812902 0.5869331
vt 0.4812902 0.5643745
vt 0.4812902 0.5869331
vt 0.4712836 0.5868158
vt 0.4699844 0.5870923
vt 0.4812902 0.5869331
vt 0.4708617 0.5643733
vt 0.4812902 0.5643745
vt 0.4812902 0.5643745
vt 0.4699873 0.5641675
vt 0.4812557 0.5646669
vt 0.4697939 0.5650768
vt 0.4700374 0.5644473
vt 0.4699987 0.5869331
vt 0.4812957 0.5867546
vt 0.4700157 0.5869223
vt 0.4905266 0.5871601
vt 0.4809936 0.5869331
vt 0.4926114 0.5870923
vt 0.4810421 0.5643745
vt 0.491204 0.5640783
vt 0.4926068 0.5641675
vt 0.4093679 0.565079
vt 0.4699818 0.5650791
vt 0.4700991 0.5862429
vt 0.4095814 0.5862429
vt 0.4699676 0.5869987
vt 0.4094995 0.5869987
vt 0.4094995 0.5643232
vt 0.4699676 0.5643232
vt 0.4429271 0.585989
vt 0.4628054 0.585989
vt 0.4635154 0.586946
vt 0.4422172 0.586946
vt 0.4628054 0.585989
vt 0.4635154 0.586946
vt 0.4422172 0.586946
vt 0.4429271 0.585989
vn 0 -1 0
vn 0 -1 0
vn 0 -1 0
vn 0 -1 0
vn -0.1301421 0 0.9914954
vn -0.1301421 0 0.9914954
vn -0.1301421 0 0.9914954
vn -0.1301421 0 0.9914954
vn 3.007898E-07 0 -1
vn 3.007898E-07 0 -1
vn 3.007898E-07 0 -1
vn 3.007897E-07 0 -1
vn -3.012679E-07 0 1
vn -3.012679E-07 0 1
vn -3.012679E-07 0 1
vn -3.012679E-07 0 1
vn -0.4838368 0 -0.8751583
vn -0.4838368 0 -0.8751583
vn -0.4838368 0 -0.8751583
vn -0.4838369 0 -0.8751583
vn -0.06314114 0 -0.9980046
vn -0.06314114 0 -0.9980046
vn -0.06314114 0 -0.9980046
vn -0.06314114 0 -0.9980046
vn -0.7502818 -2.623771E-07 0.6611181
vn -0.7502819 -2.623771E-07 0.6611181
vn -0.7502818 -2.623771E-07 0.6611182
vn -0.7502818 -2.623771E-07 0.6611182
vn 0 1 0
vn 0 1 0
vn 0 1 0
vn 0 1 0
vn 0.197587 0 -0.9802853
vn 0.1975871 0 -0.9802853
vn 0.1975871 0 -0.9802853
vn 0.1975871 0 -0.9802853
vn -3.096511E-07 0 1
vn -3.096511E-07 0 1
vn -3.096511E-07 0 1
vn -3.096511E-07 0 1
vn 3.096511E-07 0 -1
vn 3.096511E-07 0 -1
vn 3.096511E-07 0 -1
vn 3.096511E-07 0 -1
vn 0.4838369 0 0.8751583
vn 0.4838368 0 0.8751583
vn 0.4838369 0 0.8751583
vn 0.4838368 0 0.8751583
vn 0.1296745 0 0.9915566
vn 0.1296745 0 0.9915566
vn 0.1296745 0 0.9915566
vn 0.1296745 0 0.9915566
vn 0.705905 2.594594E-07 -0.7083066
vn 0.7059048 2.594593E-07 -0.7083067
vn 0.705905 2.594594E-07 -0.7083067
vn 0.7059048 2.594593E-07 -0.7083067
vn -0.9480293 0.318173 0.002536768
vn -0.9480293 0.3181731 0.002536768
vn -0.9480293 0.3181731 0.002536768
vn -0.9480293 0.318173 0.002536768
vn 0.9793552 -0.2020908 -0.004769894
vn 0.9793552 -0.2020908 -0.004769894
vn 0.9793552 -0.2020908 -0.004769894
vn 0.9793552 -0.2020908 -0.004769894
vn -0.08505721 0.7191714 0.689607
vn -0.08505721 0.7191715 0.689607
vn -0.08505721 0.7191714 0.689607
vn -0.09378412 -0.6312006 0.7699288
vn -0.09378412 -0.6312006 0.7699288
vn -0.09378412 -0.6312006 0.7699288
vn -0.8751574 -3.404562E-07 0.4838384
vn -0.8751574 -3.404561E-07 0.4838384
vn -0.8751574 -3.404561E-07 0.4838384
vn -0.8751574 -3.404562E-07 0.4838383
vn -0.301605 -0.8403168 -0.4504465
vn -0.301605 -0.8403168 -0.4504465
vn -0.301605 -0.8403168 -0.4504465
vn -0.301605 -0.8403168 -0.4504465
vn -0.2570567 0.8912613 -0.3735977
vn -0.2570567 0.8912613 -0.3735977
vn -0.2570566 0.8912613 -0.3735977
vn -0.2570567 0.8912613 -0.3735977
vn -0.03914688 0.7078379 -0.7052892
vn -0.03914688 0.7078379 -0.7052894
vn -0.03914687 0.7078379 -0.7052894
vn -0.04234795 -0.6189959 -0.7842517
vn -0.04234795 -0.618996 -0.7842517
vn -0.04234795 -0.618996 -0.7842517
vn -0.6022445 -0.6051968 0.5206134
vn -0.6022445 -0.6051968 0.5206134
vn -0.6022445 -0.6051968 0.5206134
vn -0.5476494 0.6938685 0.4675752
vn -0.5476494 0.6938685 0.4675752
vn -0.5476494 0.6938685 0.4675753
vn 0 1 0
vn 0 1 0
vn 0 1 0
vn 0 1 0
vn 0 -1 0
vn 0 -1 0
vn 0 -1 0
vn 0 -1 0
vn -0.9668785 -0.2552238 0.002587127
vn -0.9668785 -0.2552238 0.002587127
vn -0.9668785 -0.2552238 0.002587127
vn -0.9668785 -0.2552238 0.002587127
vn 0.9870724 0.160203 -0.004807299
vn 0.9870724 0.160203 -0.004807299
vn 0.9870724 0.160203 -0.004807299
vn 0.9870724 0.160203 -0.004807299
g royale_container_green_open_LOD_1_A_0
f 3/3/3 2/2/2 1/1/1
f 4/4/4 3/3/3 1/1/1
f 7/7/7 6/6/6 5/5/5
f 8/8/8 7/7/7 5/5/5
f 11/11/11 10/10/10 9/9/9
f 12/12/12 11/11/11 9/9/9
f 15/15/15 14/14/14 13/13/13
f 16/16/16 15/15/15 13/13/13
f 19/19/19 18/18/18 17/17/17
f 20/20/20 19/19/19 17/17/17
f 23/23/23 22/22/22 21/21/21
f 24/24/24 23/23/23 21/21/21
f 27/27/27 26/26/26 25/25/25
f 28/28/28 27/27/27 25/25/25
f 31/31/31 30/30/30 29/29/29
f 32/32/32 31/31/31 29/29/29
f 35/35/35 34/34/34 33/33/33
f 36/36/36 35/35/35 33/33/33
f 39/39/39 38/38/38 37/37/37
f 40/40/40 39/39/39 37/37/37
f 43/43/43 42/42/42 41/41/41
f 44/44/44 43/43/43 41/41/41
f 47/47/47 46/46/46 45/45/45
f 48/48/48 47/47/47 45/45/45
f 51/51/51 50/50/50 49/49/49
f 52/52/52 51/51/51 49/49/49
f 55/55/55 54/54/54 53/53/53
f 56/56/56 55/55/55 53/53/53
f 59/59/59 58/58/58 57/57/57
f 60/60/60 59/59/59 57/57/57
f 63/63/63 62/62/62 61/61/61
f 64/64/64 63/63/63 61/61/61
f 67/67/67 66/66/66 65/65/65
f 70/70/70 69/69/69 68/68/68
f 73/73/73 72/72/72 71/71/71
f 74/74/74 73/73/73 71/71/71
f 77/77/77 76/76/76 75/75/75
f 78/78/78 77/77/77 75/75/75
f 81/81/81 80/80/80 79/79/79
f 82/82/82 81/81/81 79/79/79
f 85/85/85 84/84/84 83/83/83
f 88/88/88 87/87/87 86/86/86
f 91/91/91 90/90/90 89/89/89
f 94/94/94 93/93/93 92/92/92
f 97/97/97 96/96/96 95/95/95
f 98/98/98 97/97/97 95/95/95
f 101/101/101 100/100/100 99/99/99
f 102/102/102 101/101/101 99/99/99
f 105/105/105 104/104/104 103/103/103
f 106/106/106 105/105/105 103/103/103
f 109/109/109 108/108/108 107/107/107
f 110/110/110 109/109/109 107/107/107
