g royal_tree3_lod00
v 0.3717516 5.34932E-05 -0.3605019
v 0.3717516 3.459868 -0.3605356
v -0.3788686 3.459868 -0.3605356
v -0.3788686 5.34932E-05 -0.3605019
v 0.3717516 5.429587E-05 0.3901182
v 0.3717516 3.459869 0.3900845
v 0.3717516 3.459868 -0.3605356
v 0.3717516 5.34932E-05 -0.3605019
v -0.3788686 5.34932E-05 -0.3605019
v -0.3788686 3.459868 -0.3605356
v -0.3788686 3.459869 0.3900845
v -0.3788686 5.429587E-05 0.3901182
v -0.3788686 5.429587E-05 0.3901182
v -0.3788686 3.459869 0.3900845
v 0.3717516 3.459869 0.3900845
v 0.3717516 5.429587E-05 0.3901182
v 1.997963 3.101485 1.997966
v 1.997963 5.898633 1.997959
v 1.997963 5.898623 -1.997966
v 1.997963 3.101475 -1.997959
v 1.997963 5.898633 1.997959
v -1.997963 5.898633 1.997959
v -1.997963 5.898623 -1.997966
v 1.997963 5.898623 -1.997966
v -1.997963 3.101485 1.997958
v -1.997963 5.898633 1.997959
v 1.997963 5.898633 1.997959
v 1.997963 3.101485 1.997966
v 1.997963 3.101475 -1.997959
v 1.997963 5.898623 -1.997966
v -1.997963 5.898623 -1.997966
v -1.997963 3.101475 -1.997967
v 1.997963 3.101485 1.997966
v 1.997963 3.101475 -1.997959
v -1.997963 3.101475 -1.997967
v -1.997963 3.101485 1.997958
v -1.997963 3.101475 -1.997967
v -1.997963 5.898623 -1.997966
v -1.997963 5.898633 1.997959
v -1.997963 3.101485 1.997958
vt 0.8017156 0.4999568
vt 0.8017156 -2.830549
vt 0.1982844 -2.830549
vt 0.1982844 0.4999568
vt 0.1982709 0.5000435
vt 0.1982987 3.830549
vt 0.8017298 3.830548
vt 0.801702 0.5000427
vt 0.198298 0.5000427
vt 0.1982702 3.830548
vt 0.8017014 3.830549
vt 0.8017291 0.5000435
vt 0.1982844 0.5000435
vt 0.1982844 3.830549
vt 0.8017156 3.830549
vt 0.8017156 0.5000435
vt -1.230947 -2.925368
vt -1.230947 -0.4370248
vt 2.501568 -0.4370248
vt 2.501568 -2.925368
vt -1.230947 -2.925368
vt -1.230947 2.012438
vt 2.501568 2.012438
vt 2.501568 -2.925368
vt -2.475118 -2.925368
vt -2.475118 -0.4370248
vt 2.501568 -0.4370248
vt 2.501568 -2.925368
vt -2.475118 -2.925368
vt -2.475118 -0.4370248
vt 2.501568 -0.4370248
vt 2.501568 -2.925368
vt 2.501568 -2.925368
vt -1.230947 -2.925368
vt -1.230947 2.012438
vt 2.501568 2.012438
vt -1.230947 -2.925368
vt -1.230947 -0.4370248
vt 2.501568 -0.4370248
vt 2.501568 -2.925368
vn 0 -3.269006E-06 -1
vn 0 -3.269006E-06 -1
vn 0 -3.269006E-06 -1
vn 0 -3.269006E-06 -1
vn 1 0 0
vn 1 0 0
vn 1 0 0
vn 1 0 0
vn -1 0 0
vn -1 0 0
vn -1 0 0
vn -1 0 0
vn 0 3.269006E-06 1
vn 0 3.269006E-06 1
vn 0 3.269006E-06 1
vn 0 3.269006E-06 1
vn 1 0 0
vn 1 0 0
vn 1 0 0
vn 1 0 0
vn 0 1 -2.670995E-06
vn 0 1 -2.670995E-06
vn 0 1 -2.670995E-06
vn 0 1 -2.670995E-06
vn -9.542409E-07 1.123858E-06 1
vn -9.542409E-07 1.123858E-06 1
vn -9.542409E-07 1.123858E-06 1
vn -9.542409E-07 1.123858E-06 1
vn 9.542412E-07 -1.123859E-06 -1
vn 9.542412E-07 -1.123859E-06 -1
vn 9.542412E-07 -1.123859E-06 -1
vn 9.542412E-07 -1.123859E-06 -1
vn 0 -1 2.53037E-06
vn 0 -1 2.53037E-06
vn 0 -1 2.53037E-06
vn 0 -1 2.53037E-06
vn -1 0 0
vn -1 0 0
vn -1 0 0
vn -1 0 0
g royal_tree3_lod00_0
f 3/3/3 2/2/2 1/1/1
f 4/4/4 3/3/3 1/1/1
f 7/7/7 6/6/6 5/5/5
f 8/8/8 7/7/7 5/5/5
f 11/11/11 10/10/10 9/9/9
f 12/12/12 11/11/11 9/9/9
f 15/15/15 14/14/14 13/13/13
f 16/16/16 15/15/15 13/13/13
g royal_tree3_lod00_1
f 19/19/19 18/18/18 17/17/17
f 20/20/20 19/19/19 17/17/17
f 23/23/23 22/22/22 21/21/21
f 24/24/24 23/23/23 21/21/21
f 27/27/27 26/26/26 25/25/25
f 28/28/28 27/27/27 25/25/25
f 31/31/31 30/30/30 29/29/29
f 32/32/32 31/31/31 29/29/29
f 35/35/35 34/34/34 33/33/33
f 36/36/36 35/35/35 33/33/33
f 39/39/39 38/38/38 37/37/37
f 40/40/40 39/39/39 37/37/37
