g royale_car_purple_crashed_mesh_lod00_A
v 0.9188042 -1.657605 2.534641
v -1.193057 -1.675212 2.339413
v -1.190382 0.8567948 2.082095
v 0.9213779 0.8744442 2.277309
v -1.193057 -1.675212 2.339413
v -1.11198 0.771306 1.241703
v -1.190382 0.8567948 2.082095
v -1.114655 -1.7607 1.499021
v 0.9188042 -1.657605 2.534641
v -1.114655 -1.7607 1.499021
v -1.193057 -1.675212 2.339413
v 0.9972061 -1.743093 1.694248
v 0.9213779 0.8744442 2.277309
v 0.9972061 -1.743093 1.694248
v 0.9188042 -1.657605 2.534641
v 0.9997791 0.7889554 1.436917
v -1.190382 0.8567948 2.082095
v 0.9997791 0.7889554 1.436917
v 0.9213779 0.8744442 2.277309
v -1.11198 0.771306 1.241703
v 1.292277 2.243937 0.5906662
v 1.209096 -1.899288 1.863955
v 1.213585 2.329743 1.434177
v 1.287788 -1.985094 1.020444
v -1.251534 2.222732 0.3555069
v -1.334628 -1.9205 1.628804
v -1.255936 -2.006306 0.7852933
v -1.330226 2.308538 1.199017
v 1.287788 -1.985094 1.020444
v -1.334628 -1.9205 1.628804
v 1.209096 -1.899288 1.863955
v -1.255936 -2.006306 0.7852933
v 1.209096 -1.899288 1.863955
v -1.330226 2.308538 1.199017
v 1.213585 2.329743 1.434177
v -1.334628 -1.9205 1.628804
v 1.213585 2.329743 1.434177
v -1.251534 2.222732 0.3555069
v 1.292277 2.243937 0.5906662
v -1.330226 2.308538 1.199017
v 1.619796 1.99699 0.7152444
v 0.7922152 1.111208 0.5006124
v 0.8206379 1.990877 0.4089119
v 1.591375 1.11732 0.806945
v 1.780503 1.948178 0.2969702
v 0.9529159 1.062361 0.08235493
v 1.752075 1.068473 0.3886878
v 0.9813442 1.942065 -0.009363383
v 1.591375 1.11732 0.806945
v 0.9529159 1.062361 0.08235493
v 0.7922152 1.111208 0.5006124
v 1.752075 1.068473 0.3886878
v 0.7922152 1.111208 0.5006124
v 0.9813442 1.942065 -0.009363383
v 0.8206379 1.990877 0.4089119
v 0.9529159 1.062361 0.08235493
v 0.8206379 1.990877 0.4089119
v 1.780503 1.948178 0.2969702
v 1.619796 1.99699 0.7152444
v 0.9813442 1.942065 -0.009363383
v 1.109078 -0.8455827 0.04125804
v 1.6446 -1.64641 0.807759
v 1.647914 -0.7678679 0.7016741
v 1.105765 -1.724123 0.1473423
v 0.7588848 -0.810272 0.3228258
v 1.294406 -1.6111 1.089328
v 0.7555715 -1.688811 0.4289108
v 1.29772 -0.7325575 0.983243
v 1.105765 -1.724123 0.1473423
v 1.294406 -1.6111 1.089328
v 1.6446 -1.64641 0.807759
v 0.7555715 -1.688811 0.4289108
v 1.6446 -1.64641 0.807759
v 1.29772 -0.7325575 0.983243
v 1.647914 -0.7678679 0.7016741
v 1.294406 -1.6111 1.089328
v 1.647914 -0.7678679 0.7016741
v 0.7588848 -0.810272 0.3228258
v 1.109078 -0.8455827 0.04125804
v 1.29772 -0.7325575 0.983243
v -0.9923743 1.829625 0.09691066
v -1.160197 1.093868 1.069603
v -1.420737 1.906072 0.8339279
v -0.7318339 1.017421 0.3325868
v -1.359261 1.655288 -0.09824455
v -1.527156 0.9195048 0.8744082
v -1.098794 0.8430569 0.137391
v -1.787624 1.731737 0.6387723
v -0.7318339 1.017421 0.3325868
v -1.527156 0.9195048 0.8744082
v -1.160197 1.093868 1.069603
v -1.098794 0.8430569 0.137391
v -1.160197 1.093868 1.069603
v -1.787624 1.731737 0.6387723
v -1.420737 1.906072 0.8339279
v -1.527156 0.9195048 0.8744082
v -1.420737 1.906072 0.8339279
v -1.359261 1.655288 -0.09824455
v -0.9923743 1.829625 0.09691066
v -1.787624 1.731737 0.6387723
v -0.9822124 -0.9055509 0.03271119
v -1.057966 -1.699695 0.9704163
v -1.057036 -0.8192654 0.8809378
v -0.9831411 -1.78598 0.1221899
v -1.431208 -0.9091043 -0.006535247
v -1.506991 -1.703176 0.9311617
v -1.432167 -1.789461 0.08293418
v -1.506032 -0.8228188 0.8416915
v -0.9831411 -1.78598 0.1221899
v -1.506991 -1.703176 0.9311617
v -1.057966 -1.699695 0.9704163
v -1.432167 -1.789461 0.08293418
v -1.057966 -1.699695 0.9704163
v -1.506032 -0.8228188 0.8416915
v -1.057036 -0.8192654 0.8809378
v -1.506991 -1.703176 0.9311617
v -1.057036 -0.8192654 0.8809378
v -1.431208 -0.9091043 -0.006535247
v -0.9822124 -0.9055509 0.03271119
v -1.506032 -0.8228188 0.8416915
v 1.292277 2.243937 0.5906662
v -1.251534 2.222732 0.3555069
v -1.255936 -2.006306 0.7852933
v 1.287788 -1.985094 1.020444
v 1.109078 -0.8455827 0.04125804
v 0.7588848 -0.810272 0.3228258
v 0.7555715 -1.688811 0.4289108
v 1.105765 -1.724123 0.1473423
v 1.619796 1.99699 0.7152444
v 1.780503 1.948178 0.2969702
v 1.752075 1.068473 0.3886878
v 1.591375 1.11732 0.806945
v -0.9822124 -0.9055509 0.03271119
v -1.431208 -0.9091043 -0.006535247
v -1.432167 -1.789461 0.08293418
v -0.9831411 -1.78598 0.1221899
v -0.9923743 1.829625 0.09691066
v -1.359261 1.655288 -0.09824455
v -1.098794 0.8430569 0.137391
v -0.7318339 1.017421 0.3325868
vt 0.972168 0.06884766
vt 0.972168 0.05664063
vt 0.9580078 0.05664063
vt 0.9580078 0.06884766
vt 0.9907237 0.08202468
vt 0.9765844 0.07665778
vt 0.9765844 0.08202468
vt 0.9907237 0.07665778
vt 0.9785156 0.09423828
vt 0.9663086 0.08935547
vt 0.9663086 0.09423828
vt 0.9785156 0.08935547
vt 0.9716797 0.08202887
vt 0.9575195 0.07666039
vt 0.9575195 0.08202887
vt 0.9716797 0.07666039
vt 0.9633789 0.09423828
vt 0.9506836 0.08935547
vt 0.9506836 0.09423828
vt 0.9633789 0.08935547
vt 0.9741211 0.07080078
vt 0.9501953 0.07568359
vt 0.9741211 0.07568359
vt 0.9501953 0.07080078
vt 0.9985352 0.07080078
vt 0.9746094 0.07568359
vt 0.9746094 0.07080078
vt 0.9985352 0.07568359
vt 0.9648438 0.08447266
vt 0.9492188 0.08935547
vt 0.9648438 0.08935547
vt 0.9492188 0.08447266
vt 0.9741211 0.06982422
vt 0.949707 0.05566406
vt 0.949707 0.06982422
vt 0.9741211 0.05566406
vt 0.965332 0.08935547
vt 0.9794922 0.08447266
vt 0.965332 0.08447266
vt 0.9794922 0.08935547
vt 0.9916992 0.08886719
vt 0.9863281 0.09423828
vt 0.9916992 0.09423828
vt 0.9863281 0.08886719
vt 0.9863281 0.08886719
vt 0.9916992 0.09423828
vt 0.9916992 0.08886719
vt 0.9863281 0.09423828
vt 0.996582 0.06982422
vt 0.9916992 0.06738281
vt 0.9916992 0.06982422
vt 0.996582 0.06738281
vt 0.996582 0.06982422
vt 0.9916992 0.06738281
vt 0.9916992 0.06982422
vt 0.996582 0.06738281
vt 0.996582 0.06982422
vt 0.9916992 0.06738281
vt 0.9916992 0.06982422
vt 0.996582 0.06738281
vt 0.9916992 0.08886719
vt 0.9863281 0.09423828
vt 0.9916992 0.09423828
vt 0.9863281 0.08886719
vt 0.9863281 0.08886719
vt 0.9916992 0.09423828
vt 0.9916992 0.08886719
vt 0.9863281 0.09423828
vt 0.996582 0.06982422
vt 0.9916992 0.06738281
vt 0.9916992 0.06982422
vt 0.996582 0.06738281
vt 0.996582 0.06982422
vt 0.9916992 0.06738281
vt 0.9916992 0.06982422
vt 0.996582 0.06738281
vt 0.996582 0.06982422
vt 0.9916992 0.06738281
vt 0.9916992 0.06982422
vt 0.996582 0.06738281
vt 0.9916992 0.08886719
vt 0.9863281 0.09423828
vt 0.9916992 0.09423828
vt 0.9863281 0.08886719
vt 0.9916992 0.09423828
vt 0.9863281 0.08886719
vt 0.9863281 0.09423828
vt 0.9916992 0.08886719
vt 0.996582 0.06982422
vt 0.9916992 0.06738281
vt 0.9916992 0.06982422
vt 0.996582 0.06738281
vt 0.996582 0.06982422
vt 0.9916992 0.06738281
vt 0.9916992 0.06982422
vt 0.996582 0.06738281
vt 0.996582 0.06982422
vt 0.9916992 0.06738281
vt 0.9916992 0.06982422
vt 0.996582 0.06738281
vt 0.9916992 0.08886719
vt 0.9863281 0.09423828
vt 0.9916992 0.09423828
vt 0.9863281 0.08886719
vt 0.9916992 0.09423828
vt 0.9863281 0.08886719
vt 0.9863281 0.09423828
vt 0.9916992 0.08886719
vt 0.996582 0.06982422
vt 0.9916992 0.06738281
vt 0.9916992 0.06982422
vt 0.996582 0.06738281
vt 0.996582 0.06982422
vt 0.9916992 0.06738281
vt 0.9916992 0.06982422
vt 0.996582 0.06738281
vt 0.996582 0.06982422
vt 0.9916992 0.06738281
vt 0.9916992 0.06982422
vt 0.996582 0.06738281
vt 0.9985582 0.06982422
vt 0.9985582 0.05566406
vt 0.9751207 0.05566406
vt 0.9751207 0.06982422
vt 0.9916992 0.06738281
vt 0.9916992 0.06982422
vt 0.996582 0.06982422
vt 0.996582 0.06738281
vt 0.9916992 0.06738281
vt 0.9916992 0.06982422
vt 0.996582 0.06982422
vt 0.996582 0.06738281
vt 0.9916992 0.06738281
vt 0.9916992 0.06982422
vt 0.996582 0.06982422
vt 0.996582 0.06738281
vt 0.9916992 0.06738281
vt 0.9916992 0.06982422
vt 0.996582 0.06982422
vt 0.996582 0.06738281
vn -0.09241539 0.1007695 0.9906083
vn -0.09241539 0.1007695 0.9906083
vn -0.09241539 0.1007695 0.9906083
vn -0.09241538 0.1007695 0.9906083
vn -0.99572 -0.008302714 -0.09204817
vn -0.99572 -0.008302568 -0.09204784
vn -0.99572 -0.00830252 -0.09204774
vn -0.99572 -0.008302764 -0.09204829
vn -0.001052156 -0.9948751 0.1011051
vn -0.001052216 -0.9948751 0.1011052
vn -0.001052242 -0.9948751 0.1011053
vn -0.001052127 -0.9948753 0.1011051
vn 0.9957201 0.008342489 0.09204344
vn 0.99572 0.008342376 0.09204394
vn 0.99572 0.008342337 0.09204412
vn 0.9957201 0.008342527 0.09204329
vn 0.001031688 0.994875 -0.1011073
vn 0.001031684 0.994875 -0.1011074
vn 0.001031679 0.994875 -0.1011073
vn 0.00103169 0.994875 -0.1011073
vn 0.99572 0.008297624 0.09204836
vn 0.99572 0.008297584 0.09204821
vn 0.99572 0.008297632 0.09204839
vn 0.99572 0.008297576 0.09204818
vn -0.99572 -0.008317954 -0.09204585
vn -0.99572 -0.008318091 -0.09204629
vn -0.99572 -0.008318114 -0.09204637
vn -0.99572 -0.00831793 -0.09204577
vn -0.001050395 -0.9948753 0.1011051
vn -0.001050321 -0.9948751 0.1011054
vn -0.001050424 -0.9948753 0.101105
vn -0.001050294 -0.9948751 0.1011055
vn -0.09241559 0.1007692 0.9906083
vn -0.09241555 0.1007692 0.9906083
vn -0.09241549 0.1007693 0.9906083
vn -0.09241568 0.1007691 0.9906083
vn 0.001053126 0.9948753 -0.1011047
vn 0.001053302 0.9948753 -0.1011051
vn 0.001053065 0.9948753 -0.1011045
vn 0.001053364 0.9948751 -0.1011052
vn -0.3565424 0.1082572 0.927986
vn -0.3565424 0.1082572 0.927986
vn -0.3565427 0.1082575 0.9279858
vn -0.356542 0.1082569 0.9279861
vn 0.3565427 -0.1082736 -0.9279839
vn 0.3565427 -0.1082736 -0.9279839
vn 0.3565424 -0.1082732 -0.9279841
vn 0.356543 -0.1082739 -0.9279837
vn -0.03216191 -0.9940844 0.1037397
vn -0.03216241 -0.9940843 0.1037402
vn -0.03216281 -0.9940843 0.1037405
vn -0.0321615 -0.9940844 0.1037394
vn -0.9337262 -0.007142161 -0.3579168
vn -0.9337265 -0.007141608 -0.357916
vn -0.9337267 -0.007141192 -0.3579154
vn -0.933726 -0.007142575 -0.3579174
vn 0.03213198 0.9940932 -0.1036642
vn 0.03213189 0.9940931 -0.1036649
vn 0.03213183 0.9940931 -0.1036654
vn 0.03213204 0.9940932 -0.1036637
vn 0.7769367 -0.07836132 -0.6246832
vn 0.7769367 -0.07836128 -0.6246831
vn 0.7769362 -0.0783617 -0.6246834
vn 0.7769368 -0.07836087 -0.6246829
vn -0.7769374 0.07836175 0.6246822
vn -0.7769374 0.07836174 0.6246822
vn -0.7769375 0.07836147 0.6246821
vn -0.7769371 0.07836198 0.6246824
vn -0.003729482 -0.9927832 0.1198649
vn -0.003728702 -0.9927832 0.1198647
vn -0.003728077 -0.9927833 0.1198646
vn -0.003730109 -0.9927832 0.119865
vn 0.6295676 0.0907995 0.7716218
vn 0.6295676 0.09079951 0.7716218
vn 0.6295676 0.09079952 0.7716218
vn 0.6295676 0.0907995 0.7716218
vn 0.003726646 0.9927831 -0.1198664
vn 0.003726723 0.9927831 -0.1198666
vn 0.003726784 0.992783 -0.1198667
vn 0.003726582 0.9927831 -0.1198663
vn 0.8141395 0.3868229 0.4330646
vn 0.8141395 0.3868229 0.4330646
vn 0.8141397 0.3868227 0.4330644
vn 0.8141394 0.386823 0.4330646
vn -0.8141689 -0.3867322 -0.4330903
vn -0.8141689 -0.3867321 -0.4330902
vn -0.8141692 -0.3867319 -0.43309
vn -0.8141688 -0.3867324 -0.4330904
vn 0.2944366 -0.9178099 0.2663307
vn 0.2944367 -0.9178099 0.2663308
vn 0.2944367 -0.9178098 0.266331
vn 0.2944365 -0.91781 0.2663307
vn -0.5004929 0.08932017 0.8611206
vn -0.5004929 0.08932018 0.8611206
vn -0.5004929 0.08932018 0.8611206
vn -0.5004929 0.08932017 0.8611206
vn -0.2944484 0.9178042 -0.2663372
vn -0.2944494 0.9178039 -0.2663372
vn -0.2944502 0.9178036 -0.2663372
vn -0.2944475 0.9178045 -0.2663372
vn 0.9961707 0.007798505 0.08708137
vn 0.9961707 0.007798548 0.0870814
vn 0.9961707 0.007797529 0.08708055
vn 0.9961706 0.007799524 0.08708222
vn -0.9961706 -0.007765405 -0.08708503
vn -0.9961706 -0.007765395 -0.08708502
vn -0.9961706 -0.007765153 -0.08708481
vn -0.9961706 -0.007765646 -0.08708525
vn -0.001125574 -0.9948753 0.1011038
vn -0.001125855 -0.9948753 0.1011036
vn -0.001126082 -0.9948753 0.1011035
vn -0.001125345 -0.9948753 0.1011039
vn -0.08742265 0.1008152 0.9910568
vn -0.08742401 0.1008145 0.9910568
vn -0.08742503 0.100814 0.9910567
vn -0.08742165 0.1008157 0.9910568
vn 0.0009649633 0.9948739 -0.101118
vn 0.000964975 0.9948739 -0.1011181
vn 0.0009649869 0.9948739 -0.1011181
vn 0.0009649533 0.9948739 -0.101118
vn 0.09241559 -0.1007692 -0.9906083
vn 0.09241561 -0.1007693 -0.9906083
vn 0.0924156 -0.1007693 -0.9906083
vn 0.09241559 -0.1007692 -0.9906083
vn -0.6295672 -0.09079982 -0.7716221
vn -0.6295672 -0.09079982 -0.7716221
vn -0.6295672 -0.09079982 -0.7716221
vn -0.6295672 -0.0907998 -0.7716221
vn 0.9337265 0.007142335 0.3579161
vn 0.9337265 0.007142336 0.3579161
vn 0.9337265 0.007142335 0.357916
vn 0.9337265 0.007142337 0.3579161
vn 0.08742485 -0.1008145 -0.9910567
vn 0.08742486 -0.1008145 -0.9910567
vn 0.08742484 -0.1008145 -0.9910567
vn 0.08742484 -0.1008145 -0.9910567
vn 0.5004933 -0.08932037 -0.8611203
vn 0.5004933 -0.08932037 -0.8611203
vn 0.5004933 -0.08932038 -0.8611203
vn 0.5004933 -0.08932037 -0.8611203
g royale_car_purple_crashed_mesh_lod00_A_0
f 3/3/3 2/2/2 1/1/1
f 4/4/4 3/3/3 1/1/1
f 7/7/7 6/6/6 5/5/5
f 8/8/8 5/5/5 6/6/6
f 11/11/11 10/10/10 9/9/9
f 12/12/12 9/9/9 10/10/10
f 15/15/15 14/14/14 13/13/13
f 16/16/16 13/13/13 14/14/14
f 19/19/19 18/18/18 17/17/17
f 20/20/20 17/17/17 18/18/18
f 23/23/23 22/22/22 21/21/21
f 24/24/24 21/21/21 22/22/22
f 27/27/27 26/26/26 25/25/25
f 28/28/28 25/25/25 26/26/26
f 31/31/31 30/30/30 29/29/29
f 32/32/32 29/29/29 30/30/30
f 35/35/35 34/34/34 33/33/33
f 36/36/36 33/33/33 34/34/34
f 39/39/39 38/38/38 37/37/37
f 40/40/40 37/37/37 38/38/38
f 43/43/43 42/42/42 41/41/41
f 44/44/44 41/41/41 42/42/42
f 47/47/47 46/46/46 45/45/45
f 48/48/48 45/45/45 46/46/46
f 51/51/51 50/50/50 49/49/49
f 52/52/52 49/49/49 50/50/50
f 55/55/55 54/54/54 53/53/53
f 56/56/56 53/53/53 54/54/54
f 59/59/59 58/58/58 57/57/57
f 60/60/60 57/57/57 58/58/58
f 63/63/63 62/62/62 61/61/61
f 64/64/64 61/61/61 62/62/62
f 67/67/67 66/66/66 65/65/65
f 68/68/68 65/65/65 66/66/66
f 71/71/71 70/70/70 69/69/69
f 72/72/72 69/69/69 70/70/70
f 75/75/75 74/74/74 73/73/73
f 76/76/76 73/73/73 74/74/74
f 79/79/79 78/78/78 77/77/77
f 80/80/80 77/77/77 78/78/78
f 83/83/83 82/82/82 81/81/81
f 84/84/84 81/81/81 82/82/82
f 87/87/87 86/86/86 85/85/85
f 88/88/88 85/85/85 86/86/86
f 91/91/91 90/90/90 89/89/89
f 92/92/92 89/89/89 90/90/90
f 95/95/95 94/94/94 93/93/93
f 96/96/96 93/93/93 94/94/94
f 99/99/99 98/98/98 97/97/97
f 100/100/100 97/97/97 98/98/98
f 103/103/103 102/102/102 101/101/101
f 104/104/104 101/101/101 102/102/102
f 107/107/107 106/106/106 105/105/105
f 108/108/108 105/105/105 106/106/106
f 111/111/111 110/110/110 109/109/109
f 112/112/112 109/109/109 110/110/110
f 115/115/115 114/114/114 113/113/113
f 116/116/116 113/113/113 114/114/114
f 119/119/119 118/118/118 117/117/117
f 120/120/120 117/117/117 118/118/118
f 123/123/123 122/122/122 121/121/121
f 124/124/124 123/123/123 121/121/121
f 127/127/127 126/126/126 125/125/125
f 128/128/128 127/127/127 125/125/125
f 131/131/131 130/130/130 129/129/129
f 132/132/132 131/131/131 129/129/129
f 135/135/135 134/134/134 133/133/133
f 136/136/136 135/135/135 133/133/133
f 139/139/139 138/138/138 137/137/137
f 140/140/140 139/139/139 137/137/137
