g royale_street_light001_A
v -0.003999756 0.5143272 6.54497
v -0.1289998 0.2643272 6.54497
v -0.129001 0.2643272 0.007969665
v -0.004000977 0.5143272 0.007969665
v 0.1210002 0.2643272 6.54497
v -0.003999756 0.5143272 6.54497
v -0.004000977 0.5143272 0.007969665
v 0.120999 0.2643272 0.007969665
v -0.1289998 0.2643272 6.54497
v 0.1210002 0.2643272 6.54497
v 0.120999 0.2643272 0.007969665
v -0.129001 0.2643272 0.007969665
v 0.3810008 -1.599367 7.106789
v -0.3689991 -1.599367 7.10679
v -0.3689997 0.5563841 6.589241
v 0.3810003 0.5563841 6.58924
vt 0.6156126 0.990646
vt 0.6172872 0.990646
vt 0.6172872 0.9468608
vt 0.6156126 0.9468608
vt 0.618127 0.9891695
vt 0.6198015 0.9891695
vt 0.6198015 0.9453844
vt 0.618127 0.9453844
vt 0.6154478 0.9891695
vt 0.6171223 0.9891695
vt 0.6171223 0.9453844
vt 0.6154478 0.9453844
vt 0.6076125 0.9651271
vt 0.6076125 0.9701506
vt 0.6220518 0.9701506
vt 0.6220518 0.9651271
vn -0.8944272 0.4472136 1.674726E-07
vn -0.8944272 0.4472136 1.674726E-07
vn -0.8944272 0.4472136 1.674726E-07
vn -0.8944272 0.4472136 1.674726E-07
vn 0.8944273 0.4472135 -1.665736E-07
vn 0.8944273 0.4472135 -1.665736E-07
vn 0.8944273 0.4472135 -1.665736E-07
vn 0.8944273 0.4472135 -1.665736E-07
vn 0 -1 0
vn 0 -1 0
vn 0 -1 0
vn 0 -1 0
vn 9.397056E-07 0.2334449 0.97237
vn 9.397056E-07 0.2334449 0.97237
vn 9.397056E-07 0.2334449 0.97237
vn 9.397056E-07 0.2334449 0.97237
g royale_street_light001_A_0
f 3/3/3 2/2/2 1/1/1
f 4/4/4 3/3/3 1/1/1
f 7/7/7 6/6/6 5/5/5
f 8/8/8 7/7/7 5/5/5
f 11/11/11 10/10/10 9/9/9
f 12/12/12 11/11/11 9/9/9
f 15/15/15 14/14/14 13/13/13
f 16/16/16 15/15/15 13/13/13
