# Mesh "royale_car_heavy_rover_wheel_big" exported with Unity Assets Bundle Extractor; 72 vertices, 132 indices, 256 bits per vertex
g royale_car_heavy_rover_wheel_big
# SubMesh 0
# Vertices
v -0.596458 0.598422 -0.000552
vt 0.582031 0.148438
vn -0.000000 0.965926 -0.258820
v -0.596458 0.517895 -0.301084
vt 0.582031 0.167969
vn -0.000000 0.965926 -0.258818
v -0.027735 0.517895 -0.301084
vt 0.539063 0.167969
vn -0.000000 0.965926 -0.258818
v -0.027735 0.598422 -0.000552
vt 0.539063 0.148438
vn -0.000000 0.965926 -0.258820
v -0.596458 0.517895 -0.301084
vt 0.582031 0.148438
vn -0.000000 0.707107 -0.707107
v -0.596458 0.297890 -0.521089
vt 0.582031 0.167969
vn -0.000000 0.707108 -0.707106
v -0.027735 0.297890 -0.521089
vt 0.539063 0.167969
vn -0.000000 0.707108 -0.707106
v -0.027735 0.517895 -0.301084
vt 0.539063 0.148438
vn -0.000000 0.707106 -0.707108
v -0.596458 0.297890 -0.521089
vt 0.582031 0.148438
vn -0.000000 0.258820 -0.965926
v -0.596458 -0.002642 -0.601616
vt 0.582031 0.167969
vn -0.000000 0.258820 -0.965926
v -0.027735 -0.002642 -0.601616
vt 0.539063 0.167969
vn -0.000000 0.258820 -0.965926
v -0.027735 0.297890 -0.521089
vt 0.539063 0.148438
vn -0.000000 0.258820 -0.965926
v -0.596458 -0.002642 -0.601616
vt 0.582031 0.148438
vn -0.000000 -0.258820 -0.965926
v -0.596458 -0.303174 -0.521089
vt 0.582031 0.167969
vn -0.000000 -0.258818 -0.965926
v -0.027735 -0.303174 -0.521089
vt 0.539063 0.167969
vn -0.000000 -0.258817 -0.965926
v -0.027735 -0.002642 -0.601616
vt 0.539063 0.148438
vn -0.000000 -0.258820 -0.965926
v -0.596458 -0.303174 -0.521089
vt 0.582031 0.148438
vn -0.000000 -0.707106 -0.707108
v -0.596458 -0.523178 -0.301084
vt 0.582031 0.167969
vn -0.000000 -0.707108 -0.707106
v -0.027735 -0.523178 -0.301084
vt 0.539063 0.167969
vn -0.000000 -0.707106 -0.707108
v -0.027735 -0.303174 -0.521089
vt 0.539063 0.148438
vn -0.000000 -0.707106 -0.707108
v -0.596458 -0.523178 -0.301084
vt 0.582031 0.148438
vn -0.000000 -0.965926 -0.258820
v -0.596458 -0.603706 -0.000552
vt 0.582031 0.167969
vn -0.000000 -0.965926 -0.258820
v -0.027735 -0.603706 -0.000552
vt 0.539063 0.167969
vn -0.000000 -0.965926 -0.258820
v -0.027735 -0.523178 -0.301084
vt 0.539063 0.148438
vn -0.000000 -0.965925 -0.258822
v -0.596458 -0.603706 -0.000552
vt 0.582031 0.148438
vn -0.000000 -0.965926 0.258820
v -0.596458 -0.523179 0.299980
vt 0.582031 0.167969
vn -0.000000 -0.965926 0.258817
v -0.027735 -0.523179 0.299980
vt 0.539063 0.167969
vn -0.000000 -0.965926 0.258818
v -0.027735 -0.603706 -0.000552
vt 0.539063 0.148438
vn -0.000000 -0.965926 0.258820
v -0.596458 -0.523179 0.299980
vt 0.582031 0.148438
vn -0.000000 -0.707108 0.707106
v -0.596458 -0.303174 0.519985
vt 0.582031 0.167969
vn -0.000000 -0.707108 0.707106
v -0.027735 -0.303174 0.519985
vt 0.539063 0.167969
vn -0.000000 -0.707108 0.707106
v -0.027735 -0.523179 0.299980
vt 0.539063 0.148438
vn -0.000000 -0.707108 0.707106
v -0.596458 -0.303174 0.519985
vt 0.582031 0.148438
vn -0.000000 -0.258820 0.965926
v -0.596458 -0.002642 0.600512
vt 0.582031 0.167969
vn -0.000000 -0.258820 0.965926
v -0.027735 -0.002642 0.600512
vt 0.539063 0.167969
vn 0.000000 -0.258820 0.965926
v -0.027735 -0.303174 0.519985
vt 0.539063 0.148438
vn 0.000000 -0.258820 0.965926
v -0.596458 -0.002642 0.600512
vt 0.582031 0.148438
vn -0.000000 0.258819 0.965926
v -0.596458 0.297890 0.519985
vt 0.582031 0.167969
vn -0.000000 0.258817 0.965926
v -0.027735 0.297890 0.519985
vt 0.539063 0.167969
vn 0.000000 0.258817 0.965926
v -0.027735 -0.002642 0.600512
vt 0.539063 0.148438
vn 0.000000 0.258819 0.965926
v -0.027735 -0.523178 -0.301084
vt 0.263705 0.437790
vn 1.000000 0.000000 0.000000
v -0.027735 -0.603706 -0.000552
vt 0.257383 0.461386
vn 1.000000 0.000000 -0.000000
v -0.027735 -0.523179 0.299980
vt 0.263705 0.484982
vn 1.000000 0.000000 0.000000
v -0.027735 -0.303174 0.519985
vt 0.280979 0.502256
vn 1.000000 0.000000 0.000000
v -0.027735 -0.303174 -0.521089
vt 0.280979 0.420516
vn 1.000000 0.000000 0.000000
v -0.027735 -0.002642 0.600512
vt 0.304575 0.508579
vn 1.000000 0.000000 0.000000
v -0.027735 -0.002642 -0.601616
vt 0.304575 0.414194
vn 1.000000 0.000000 0.000000
v -0.027735 0.297890 0.519985
vt 0.328171 0.502256
vn 1.000000 0.000000 0.000000
v -0.027735 0.297890 -0.521089
vt 0.328171 0.420516
vn 1.000000 0.000000 0.000000
v -0.027735 0.517895 0.299980
vt 0.345445 0.484983
vn 1.000000 0.000000 0.000000
v -0.027735 0.517895 -0.301084
vt 0.345445 0.437790
vn 1.000000 0.000000 0.000000
v -0.027735 0.598422 -0.000552
vt 0.351768 0.461386
vn 1.000000 0.000000 -0.000000
v -0.596458 0.297890 0.519985
vt 0.582031 0.148438
vn -0.000000 0.707106 0.707108
v -0.596458 0.517895 0.299981
vt 0.582031 0.167969
vn -0.000000 0.707107 0.707107
v -0.027735 0.517895 0.299980
vt 0.539063 0.167969
vn 0.000000 0.707107 0.707107
v -0.027735 0.297890 0.519985
vt 0.539063 0.148438
vn 0.000000 0.707106 0.707108
v -0.596458 0.517895 0.299981
vt 0.582031 0.148438
vn -0.000000 0.965926 0.258820
v -0.596458 0.598422 -0.000552
vt 0.582031 0.167969
vn -0.000000 0.965926 0.258820
v -0.027735 0.598422 -0.000552
vt 0.539063 0.167969
vn -0.000000 0.965926 0.258820
v -0.027735 0.517895 0.299980
vt 0.539063 0.148438
vn -0.000000 0.965925 0.258822
v -0.596458 -0.523179 0.299980
vt 0.263705 0.484982
vn -1.000000 0.000000 0.000000
v -0.596458 -0.603706 -0.000552
vt 0.257383 0.461386
vn -1.000000 0.000000 0.000000
v -0.596458 -0.523178 -0.301084
vt 0.263705 0.437790
vn -1.000000 0.000000 0.000000
v -0.596458 -0.303174 0.519985
vt 0.280979 0.502256
vn -1.000000 0.000000 0.000000
v -0.596458 -0.303174 -0.521089
vt 0.280979 0.420516
vn -1.000000 0.000000 0.000000
v -0.596458 -0.002642 0.600512
vt 0.304575 0.508579
vn -1.000000 0.000000 0.000000
v -0.596458 -0.002642 -0.601616
vt 0.304575 0.414194
vn -1.000000 0.000000 0.000000
v -0.596458 0.297890 0.519985
vt 0.328171 0.502256
vn -1.000000 0.000000 0.000000
v -0.596458 0.297890 -0.521089
vt 0.328171 0.420516
vn -1.000000 0.000000 0.000000
v -0.596458 0.517895 0.299981
vt 0.345445 0.484983
vn -1.000000 0.000000 0.000000
v -0.596458 0.517895 -0.301084
vt 0.345445 0.437790
vn -1.000000 0.000000 0.000000
v -0.596458 0.598422 -0.000552
vt 0.351768 0.461386
vn -1.000000 0.000000 0.000000
# Faces (1 to 72)
g royale_car_heavy_rover_wheel_big_0
f -70/-70/-70 -71/-71/-71 -72/-72/-72
f -69/-69/-69 -70/-70/-70 -72/-72/-72
f -66/-66/-66 -67/-67/-67 -68/-68/-68
f -65/-65/-65 -66/-66/-66 -68/-68/-68
f -62/-62/-62 -63/-63/-63 -64/-64/-64
f -61/-61/-61 -62/-62/-62 -64/-64/-64
f -58/-58/-58 -59/-59/-59 -60/-60/-60
f -57/-57/-57 -58/-58/-58 -60/-60/-60
f -54/-54/-54 -55/-55/-55 -56/-56/-56
f -53/-53/-53 -54/-54/-54 -56/-56/-56
f -50/-50/-50 -51/-51/-51 -52/-52/-52
f -49/-49/-49 -50/-50/-50 -52/-52/-52
f -46/-46/-46 -47/-47/-47 -48/-48/-48
f -45/-45/-45 -46/-46/-46 -48/-48/-48
f -42/-42/-42 -43/-43/-43 -44/-44/-44
f -41/-41/-41 -42/-42/-42 -44/-44/-44
f -38/-38/-38 -39/-39/-39 -40/-40/-40
f -37/-37/-37 -38/-38/-38 -40/-40/-40
f -34/-34/-34 -35/-35/-35 -36/-36/-36
f -33/-33/-33 -34/-34/-34 -36/-36/-36
f -30/-30/-30 -31/-31/-31 -32/-32/-32
f -32/-32/-32 -29/-29/-29 -30/-30/-30
f -32/-32/-32 -28/-28/-28 -29/-29/-29
f -28/-28/-28 -27/-27/-27 -29/-29/-29
f -28/-28/-28 -26/-26/-26 -27/-27/-27
f -26/-26/-26 -25/-25/-25 -27/-27/-27
f -26/-26/-26 -24/-24/-24 -25/-25/-25
f -24/-24/-24 -23/-23/-23 -25/-25/-25
f -24/-24/-24 -22/-22/-22 -23/-23/-23
f -22/-22/-22 -21/-21/-21 -23/-23/-23
f -18/-18/-18 -19/-19/-19 -20/-20/-20
f -17/-17/-17 -18/-18/-18 -20/-20/-20
f -14/-14/-14 -15/-15/-15 -16/-16/-16
f -13/-13/-13 -14/-14/-14 -16/-16/-16
f -10/-10/-10 -11/-11/-11 -12/-12/-12
f -12/-12/-12 -9/-9/-9 -10/-10/-10
f -9/-9/-9 -8/-8/-8 -10/-10/-10
f -9/-9/-9 -7/-7/-7 -8/-8/-8
f -7/-7/-7 -6/-6/-6 -8/-8/-8
f -7/-7/-7 -5/-5/-5 -6/-6/-6
f -5/-5/-5 -4/-4/-4 -6/-6/-6
f -5/-5/-5 -3/-3/-3 -4/-4/-4
f -3/-3/-3 -2/-2/-2 -4/-4/-4
f -3/-3/-3 -1/-1/-1 -2/-2/-2

