g royale_hat_spec_headset_mesh
v 0.208514 0.3320453 0.3404165
v 0.208514 0.2695098 0.3404165
v 0.02090728 0.2695098 0.3404165
v 0.02090728 0.3320453 0.3404165
v 0.208514 0.3320453 0.1528098
v 0.02090728 0.3320453 0.1528098
v 0.02090728 0.2695098 0.1528098
v 0.208514 0.2695098 0.1528098
v 0.208514 0.3320453 0.3404165
v 0.02090728 0.3320453 0.3404165
v 0.02090728 0.3320453 0.1528098
v 0.208514 0.3320453 0.1528098
v 0.02090728 0.3320453 0.3404165
v 0.02090728 0.2695098 0.3404165
v 0.02090728 0.2695098 0.1528098
v 0.02090728 0.3320453 0.1528098
v 0.02090728 0.2695098 0.3404165
v 0.208514 0.2695098 0.3404165
v 0.208514 0.2695098 0.1528098
v 0.02090728 0.2695098 0.1528098
v 0.208514 0.2695098 0.3404165
v 0.208514 0.3320453 0.3404165
v 0.208514 0.3320453 0.1528098
v 0.208514 0.2695098 0.1528098
v 0.2397818 0.3320453 0.2778809
v 0.2397818 0.2695098 0.2778809
v 0.208514 0.2695098 0.2778809
v 0.208514 0.3320453 0.2778809
v 0.2397818 0.3320453 0.2153453
v 0.208514 0.3320453 0.2153453
v 0.208514 0.2695098 0.2153453
v 0.2397818 0.2695098 0.2153453
v 0.2397818 0.3320453 0.2778809
v 0.208514 0.3320453 0.2778809
v 0.208514 0.3320453 0.2153453
v 0.2397818 0.3320453 0.2153453
v 0.208514 0.2695098 0.2778809
v 0.2397818 0.2695098 0.2778809
v 0.2397818 0.2695098 0.2153453
v 0.208514 0.2695098 0.2153453
v 0.2397818 0.2695098 0.2778809
v 0.2397818 0.3320453 0.2778809
v 0.2397818 0.3320453 0.2153453
v 0.2397818 0.2695098 0.2153453
v 0.2710496 0.3007776 0.2778809
v 0.2710496 0.1131708 0.2778809
v 0.2397818 0.1131708 0.2778809
v 0.2397818 0.3007776 0.2778809
v 0.2710496 0.3007776 0.2153453
v 0.2397818 0.3007776 0.2153453
v 0.2397818 0.1131708 0.2153453
v 0.2710496 0.1131708 0.2153453
v 0.2710496 0.3007776 0.2778809
v 0.2397818 0.3007776 0.2778809
v 0.2397818 0.3007776 0.2153453
v 0.2710496 0.3007776 0.2153453
v 0.2397818 0.3007776 0.2778809
v 0.2397818 0.1131708 0.2778809
v 0.2397818 0.1131708 0.2153453
v 0.2397818 0.3007776 0.2153453
v 0.2710496 0.1131708 0.2778809
v 0.2710496 0.3007776 0.2778809
v 0.2710496 0.3007776 0.2153453
v 0.2710496 0.1131708 0.2153453
v 0.3961208 0.3633131 0.3091487
v 0.3961208 0.1131708 0.3091487
v 0.3023174 0.1131708 0.3091487
v 0.3023174 0.3633131 0.3091487
v 0.3961208 0.3633131 0.2153453
v 0.3023174 0.3633131 0.2153453
v 0.3023174 0.1131708 0.2153453
v 0.3961208 0.1131708 0.2153453
v 0.3961208 0.3633131 0.3091487
v 0.3023174 0.3633131 0.3091487
v 0.3023174 0.3633131 0.2153453
v 0.3961208 0.3633131 0.2153453
v 0.3023174 0.3633131 0.3091487
v 0.3023174 0.1131708 0.3091487
v 0.3023174 0.1131708 0.2153453
v 0.3023174 0.3633131 0.2153453
v 0.3023174 0.1131708 0.3091487
v 0.3961208 0.1131708 0.3091487
v 0.3961208 0.1131708 0.2153453
v 0.3023174 0.1131708 0.2153453
v 0.3961208 0.1131708 0.3091487
v 0.3961208 0.3633131 0.3091487
v 0.3961208 0.3633131 0.2153453
v 0.3961208 0.1131708 0.2153453
v 0.3023173 0.3007776 0.09027393
v 0.3023173 0.3007776 0.05900615
v 0.3023173 0.01936752 0.05900615
v 0.3023173 0.05063532 0.09027393
v 0.3023173 0.05063532 0.1528095
v 0.3023173 0.01936752 0.1528095
v 0.1147105 0.3007776 0.05900615
v 0.1147105 0.3007776 0.02773836
v 0.1147105 0.2695099 0.02773836
v 0.1147105 0.2695099 0.05900615
v 0.2710495 0.2695099 0.05900615
v 0.2710495 0.2695099 0.09027393
v 0.2710495 0.01936752 0.05900615
v 0.2710495 0.05063532 0.09027393
v 0.2710495 0.05063532 0.1528095
v 0.2710495 0.01936752 0.1528095
v 0.05217497 0.3007776 0.02773836
v 0.05217497 0.3007776 0.09027393
v 0.05217497 0.2695099 0.02773836
v 0.05217497 0.2695099 0.09027393
v 0.1147105 0.3007776 0.05900615
v 0.3023173 0.3007776 0.05900615
v 0.3023173 0.3007776 0.09027393
v 0.05217497 0.3007776 0.09027393
v 0.05217497 0.3007776 0.02773836
v 0.1147105 0.3007776 0.02773836
v 0.2710495 0.05063532 0.09027393
v 0.3023173 0.05063532 0.09027393
v 0.3023173 0.05063532 0.1528095
v 0.2710495 0.05063532 0.1528095
v 0.2710495 0.2695099 0.05900615
v 0.1147105 0.2695099 0.05900615
v 0.2710495 0.2695099 0.09027393
v 0.05217497 0.2695099 0.09027393
v 0.05217497 0.2695099 0.02773836
v 0.1147105 0.2695099 0.02773836
v 0.3023173 0.01936752 0.05900615
v 0.2710495 0.01936752 0.05900615
v 0.3023173 0.01936752 0.1528095
v 0.2710495 0.01936752 0.1528095
v 0.1147105 0.2695099 0.02773836
v 0.1147105 0.3007776 0.02773836
v 0.05217497 0.3007776 0.02773836
v 0.05217497 0.2695099 0.02773836
v 0.2710495 0.2695099 0.05900615
v 0.3023173 0.3007776 0.05900615
v 0.1147105 0.3007776 0.05900615
v 0.1147105 0.2695099 0.05900615
v 0.3023173 0.01936752 0.05900615
v 0.2710495 0.01936752 0.05900615
v 0.3023173 0.3007776 0.09027393
v 0.2710495 0.2695099 0.09027393
v 0.05217497 0.3007776 0.09027393
v 0.05217497 0.2695099 0.09027393
v 0.3023173 0.05063532 0.09027393
v 0.2710495 0.05063532 0.09027393
v 0.3335852 0.1131708 0.3404165
v 0.3335852 -0.07443588 0.3404165
v 0.2397818 -0.07443588 0.3404165
v 0.2397818 0.1131708 0.3404165
v 0.3335852 0.1131708 0.1528098
v 0.2397818 0.1131708 0.1528098
v 0.2397818 -0.07443588 0.1528098
v 0.3335852 -0.07443588 0.1528098
v 0.3335852 0.1131708 0.3404165
v 0.2397818 0.1131708 0.3404165
v 0.2397818 0.1131708 0.1528098
v 0.3335852 0.1131708 0.1528098
v 0.2397818 0.1131708 0.3404165
v 0.2397818 -0.07443588 0.3404165
v 0.2397818 -0.07443588 0.1528098
v 0.2397818 0.1131708 0.1528098
v 0.2397818 -0.07443588 0.3404165
v 0.3335852 -0.07443588 0.3404165
v 0.3335852 -0.07443588 0.1528098
v 0.2397818 -0.07443588 0.1528098
v 0.3335852 -0.07443588 0.3404165
v 0.3335852 0.1131708 0.3404165
v 0.3335852 0.1131708 0.1528098
v 0.3335852 -0.07443588 0.1528098
v 0.3023174 0.08190306 0.5280232
v 0.3023174 -0.04316811 0.5280232
v 0.2710496 -0.04316811 0.5280232
v 0.2710496 0.08190306 0.5280232
v 0.3023174 -0.04316811 0.5280232
v 0.3023174 0.08190306 0.5280232
v 0.3023174 0.08190306 0.3404165
v 0.3023174 -0.04316811 0.3404165
v 0.2710496 0.08190306 0.559291
v 0.2710496 -0.04316811 0.559291
v 0.2397818 -0.04316811 0.559291
v 0.2397818 0.08190306 0.559291
v 0.2397818 0.08190306 0.3404165
v 0.2397818 0.08190306 0.559291
v 0.2397818 -0.04316811 0.559291
v 0.2397818 -0.04316811 0.3404165
v 0.2710496 -0.04316811 0.559291
v 0.2710496 0.08190306 0.559291
v 0.2710496 0.08190306 0.5280232
v 0.2710496 -0.04316811 0.5280232
v 0.2710496 -0.04316811 0.559291
v 0.2710496 -0.04316811 0.5280232
v 0.2397818 -0.04316811 0.559291
v 0.2397818 -0.04316811 0.3404165
v 0.3023174 -0.04316811 0.3404165
v 0.3023174 -0.04316811 0.5280232
v -0.2605028 -0.04316811 0.4967555
v -0.2605028 -0.04316811 0.559291
v 0.2397818 -0.04316811 0.4967555
v 0.2710496 0.08190306 0.5280232
v 0.3023174 0.08190306 0.3404165
v 0.3023174 0.08190306 0.5280232
v 0.2397818 0.08190306 0.3404165
v 0.2397818 0.08190306 0.559291
v 0.2710496 0.08190306 0.559291
v 0.2397818 0.08190306 0.4967555
v -0.2605028 0.08190306 0.559291
v -0.2605028 0.08190306 0.4967555
v 0.2397818 0.08190306 0.4967555
v -0.2605028 0.08190306 0.4967555
v -0.2605028 -0.04316811 0.4967555
v 0.2397818 -0.04316811 0.4967555
v 0.2397818 0.08190306 0.559291
v 0.2397818 -0.04316811 0.559291
v -0.2605028 -0.04316811 0.559291
v -0.2605028 0.08190306 0.559291
v 0.1772462 0.1131708 0.5905588
v 0.1772462 -0.07443588 0.5905588
v -0.1979673 -0.07443588 0.5905588
v -0.1979673 0.1131708 0.5905588
v 0.1772462 0.1131708 0.5280232
v -0.1979673 0.1131708 0.5280232
v -0.1979673 -0.07443588 0.5280232
v 0.1772462 -0.07443588 0.5280232
v 0.1772462 0.1131708 0.5905588
v -0.1979673 0.1131708 0.5905588
v -0.1979673 0.1131708 0.5280232
v 0.1772462 0.1131708 0.5280232
v -0.1979673 0.1131708 0.5905588
v -0.1979673 -0.07443588 0.5905588
v -0.1979673 -0.07443588 0.5280232
v -0.1979673 0.1131708 0.5280232
v -0.1979673 -0.07443588 0.5905588
v 0.1772462 -0.07443588 0.5905588
v 0.1772462 -0.07443588 0.5280232
v -0.1979673 -0.07443588 0.5280232
v 0.1772462 -0.07443588 0.5905588
v 0.1772462 0.1131708 0.5905588
v 0.1772462 0.1131708 0.5280232
v 0.1772462 -0.07443588 0.5280232
v -0.3543062 0.1131708 0.3404163
v -0.2605028 0.1131708 0.3404163
v -0.2605028 -0.07443599 0.3404163
v -0.3543062 -0.07443599 0.3404163
v -0.3543062 0.1131708 0.1528095
v -0.3543062 -0.07443599 0.1528095
v -0.2605028 -0.07443599 0.1528095
v -0.2605028 0.1131708 0.1528095
v -0.3543062 0.1131708 0.3404163
v -0.3543062 0.1131708 0.1528095
v -0.2605028 0.1131708 0.1528095
v -0.2605028 0.1131708 0.3404163
v -0.2605028 0.1131708 0.3404163
v -0.2605028 0.1131708 0.1528095
v -0.2605028 -0.07443599 0.1528095
v -0.2605028 -0.07443599 0.3404163
v -0.2605028 -0.07443599 0.3404163
v -0.2605028 -0.07443599 0.1528095
v -0.3543062 -0.07443599 0.1528095
v -0.3543062 -0.07443599 0.3404163
v -0.3543062 -0.07443599 0.3404163
v -0.3543062 -0.07443599 0.1528095
v -0.3543062 0.1131708 0.1528095
v -0.3543062 0.1131708 0.3404163
v -0.3230384 0.08190296 0.528023
v -0.2917706 0.08190296 0.528023
v -0.2917706 -0.04316818 0.528023
v -0.3230384 -0.04316818 0.528023
v -0.3230384 -0.04316818 0.528023
v -0.3230384 -0.04316818 0.3404163
v -0.3230384 0.08190296 0.3404163
v -0.3230384 0.08190296 0.528023
v -0.2917706 0.08190296 0.5592908
v -0.2605028 0.08190296 0.5592908
v -0.2605028 -0.04316818 0.5592908
v -0.2917706 -0.04316818 0.5592908
v -0.2605028 0.08190296 0.3404163
v -0.2605028 -0.04316818 0.3404163
v -0.2605028 -0.04316818 0.5592908
v -0.2605028 0.08190296 0.5592908
v -0.2917706 0.08190296 0.528023
v -0.2917706 0.08190296 0.5592908
v -0.2917706 -0.04316818 0.5592908
v -0.2917706 -0.04316818 0.528023
v -0.2917706 -0.04316818 0.5592908
v -0.2605028 -0.04316818 0.5592908
v -0.2917706 -0.04316818 0.528023
v -0.2605028 -0.04316818 0.3404163
v -0.3230384 -0.04316818 0.3404163
v -0.3230384 -0.04316818 0.528023
v -0.2917706 0.08190296 0.528023
v -0.3230384 0.08190296 0.528023
v -0.3230384 0.08190296 0.3404163
v -0.2605028 0.08190296 0.3404163
v -0.2605028 0.08190296 0.5592908
v -0.2917706 0.08190296 0.5592908
vt 0.1875 0.28125
vt 0.1875 0.3125
vt 0.28125 0.3125
vt 0.28125 0.28125
vt 0.1875 0.125
vt 0.28125 0.125
vt 0.28125 0.09375
vt 0.1875 0.09375
vt 0.1875 0.25
vt 0.28125 0.25
vt 0.28125 0.15625
vt 0.1875 0.15625
vt 0.3125 0.25
vt 0.34375 0.25
vt 0.34375 0.15625
vt 0.3125 0.15625
vt 0.3125 0.375
vt 0.40625 0.375
vt 0.40625 0.28125
vt 0.3125 0.28125
vt 0.09375 0.25
vt 0.125 0.25
vt 0.125 0.15625
vt 0.09375 0.15625
vt 0.171875 0.28125
vt 0.171875 0.3125
vt 0.1875 0.3125
vt 0.1875 0.28125
vt 0.171875 0.125
vt 0.1875 0.125
vt 0.1875 0.09375
vt 0.171875 0.09375
vt 0.171875 0.21875
vt 0.1875 0.21875
vt 0.1875 0.1875
vt 0.171875 0.1875
vt 0.40625 0.34375
vt 0.421875 0.34375
vt 0.421875 0.3125
vt 0.40625 0.3125
vt 0.09375 0.21875
vt 0.125 0.21875
vt 0.125 0.1875
vt 0.09375 0.1875
vt 0.15625 0.296875
vt 0.15625 0.390625
vt 0.171875 0.390625
vt 0.171875 0.296875
vt 0.15625 0.109375
vt 0.171875 0.109375
vt 0.171875 0.015625
vt 0.15625 0.015625
vt 0.15625 0.21875
vt 0.171875 0.21875
vt 0.171875 0.1875
vt 0.15625 0.1875
vt 0.328125 0.21875
vt 0.421875 0.21875
vt 0.421875 0.1875
vt 0.328125 0.1875
vt 0.015625 0.21875
vt 0.109375 0.21875
vt 0.109375 0.1875
vt 0.015625 0.1875
vt 0.09375 0.984375
vt 0.09375 0.859375
vt 0.140625 0.859375
vt 0.140625 0.984375
vt 0.09375 0.984375
vt 0.140625 0.984375
vt 0.140625 0.859375
vt 0.09375 0.859375
vt 0.09375 0.828125
vt 0.140625 0.828125
vt 0.140625 0.78125
vt 0.09375 0.78125
vt 0.296875 0.828125
vt 0.171875 0.828125
vt 0.171875 0.78125
vt 0.296875 0.78125
vt 0.015625 0.828125
vt 0.0625 0.828125
vt 0.0625 0.78125
vt 0.015625 0.78125
vt 0.171875 0.828125
vt 0.296875 0.828125
vt 0.296875 0.78125
vt 0.171875 0.78125
vt 0.65625 0.21875
vt 0.65625 0.203125
vt 0.515625 0.203125
vt 0.53125 0.21875
vt 0.53125 0.25
vt 0.515625 0.25
vt 0.65625 0.203125
vt 0.65625 0.1875
vt 0.640625 0.1875
vt 0.640625 0.203125
vt 0.859375 0.203125
vt 0.859375 0.21875
vt 0.984375 0.203125
vt 0.96875 0.21875
vt 0.96875 0.25
vt 0.984375 0.25
vt 0.84375 0.1875
vt 0.84375 0.21875
vt 0.859375 0.1875
vt 0.859375 0.21875
vt 0.78125 0.203125
vt 0.6875 0.203125
vt 0.6875 0.21875
vt 0.8125 0.21875
vt 0.8125 0.1875
vt 0.78125 0.1875
vt 0.703125 0.21875
vt 0.6875 0.21875
vt 0.6875 0.25
vt 0.703125 0.25
vt 0.703125 0.203125
vt 0.78125 0.203125
vt 0.703125 0.21875
vt 0.8125 0.21875
vt 0.8125 0.1875
vt 0.78125 0.1875
vt 0.6875 0.203125
vt 0.703125 0.203125
vt 0.6875 0.25
vt 0.703125 0.25
vt 0.78125 0.140625
vt 0.78125 0.15625
vt 0.8125 0.15625
vt 0.8125 0.140625
vt 0.703125 0.140625
vt 0.6875 0.15625
vt 0.78125 0.15625
vt 0.78125 0.140625
vt 0.6875 0.015625
vt 0.703125 0.015625
vt 0.6875 0.28125
vt 0.703125 0.296875
vt 0.8125 0.28125
vt 0.8125 0.296875
vt 0.6875 0.40625
vt 0.703125 0.40625
vt 0.5625 0.890625
vt 0.5625 0.984375
vt 0.609375 0.984375
vt 0.609375 0.890625
vt 0.5625 0.609375
vt 0.609375 0.609375
vt 0.609375 0.515625
vt 0.5625 0.515625
vt 0.5625 0.734375
vt 0.609375 0.734375
vt 0.609375 0.640625
vt 0.5625 0.640625
vt 0.890625 0.734375
vt 0.984375 0.734375
vt 0.984375 0.640625
vt 0.890625 0.640625
vt 0.609375 0.734375
vt 0.5625 0.734375
vt 0.5625 0.640625
vt 0.609375 0.640625
vt 0.4375 0.734375
vt 0.53125 0.734375
vt 0.53125 0.640625
vt 0.4375 0.640625
vt 0.578125 0.90625
vt 0.578125 0.96875
vt 0.59375 0.96875
vt 0.59375 0.90625
vt 0.453125 0.828125
vt 0.515625 0.828125
vt 0.515625 0.734375
vt 0.453125 0.734375
vt 0.59375 0.90625
vt 0.59375 0.96875
vt 0.609375 0.96875
vt 0.609375 0.90625
vt 0.90625 0.734375
vt 0.90625 0.84375
vt 0.96875 0.84375
vt 0.96875 0.734375
vt 0.453125 0.84375
vt 0.515625 0.84375
vt 0.515625 0.828125
vt 0.453125 0.828125
vt 0.59375 0.84375
vt 0.59375 0.828125
vt 0.609375 0.84375
vt 0.609375 0.734375
vt 0.578125 0.734375
vt 0.578125 0.828125
vt 0.859375 0.8125
vt 0.859375 0.84375
vt 0.609375 0.8125
vt 0.59375 0.828125
vt 0.578125 0.734375
vt 0.578125 0.828125
vt 0.609375 0.734375
vt 0.609375 0.84375
vt 0.59375 0.84375
vt 0.609375 0.8125
vt 0.859375 0.84375
vt 0.859375 0.8125
vt 0.609375 0.59375
vt 0.859375 0.59375
vt 0.859375 0.53125
vt 0.609375 0.53125
vt 0.28125 0.90625
vt 0.28125 0.96875
vt 0.53125 0.96875
vt 0.53125 0.90625
vt 0.625 0.890625
vt 0.625 0.984375
vt 0.8125 0.984375
vt 0.8125 0.890625
vt 0.640625 0.609375
vt 0.828125 0.609375
vt 0.828125 0.515625
vt 0.640625 0.515625
vt 0.640625 0.859375
vt 0.828125 0.859375
vt 0.828125 0.828125
vt 0.640625 0.828125
vt 0.890625 0.859375
vt 0.984375 0.859375
vt 0.984375 0.828125
vt 0.890625 0.828125
vt 0.828125 0.859375
vt 0.640625 0.859375
vt 0.640625 0.828125
vt 0.828125 0.828125
vt 0.640625 0.78125
vt 0.734375 0.78125
vt 0.734375 0.75
vt 0.640625 0.75
vt 0.765625 0.6875
vt 0.8125 0.6875
vt 0.8125 0.78125
vt 0.765625 0.78125
vt 0.5625 0.609375
vt 0.5625 0.515625
vt 0.609375 0.515625
vt 0.609375 0.609375
vt 0.5625 0.734375
vt 0.5625 0.640625
vt 0.609375 0.640625
vt 0.609375 0.734375
vt 0.890625 0.734375
vt 0.890625 0.640625
vt 0.984375 0.640625
vt 0.984375 0.734375
vt 0.609375 0.734375
vt 0.609375 0.640625
vt 0.5625 0.640625
vt 0.5625 0.734375
vt 0.4375 0.734375
vt 0.4375 0.640625
vt 0.53125 0.640625
vt 0.53125 0.734375
vt 0.578125 0.90625
vt 0.59375 0.90625
vt 0.59375 0.96875
vt 0.578125 0.96875
vt 0.453125 0.828125
vt 0.453125 0.734375
vt 0.515625 0.734375
vt 0.515625 0.828125
vt 0.59375 0.90625
vt 0.609375 0.90625
vt 0.609375 0.96875
vt 0.59375 0.96875
vt 0.90625 0.734375
vt 0.96875 0.734375
vt 0.96875 0.84375
vt 0.90625 0.84375
vt 0.515625 0.828125
vt 0.515625 0.84375
vt 0.453125 0.84375
vt 0.453125 0.828125
vt 0.59375 0.84375
vt 0.609375 0.84375
vt 0.59375 0.828125
vt 0.609375 0.734375
vt 0.578125 0.734375
vt 0.578125 0.828125
vt 0.59375 0.828125
vt 0.578125 0.828125
vt 0.578125 0.734375
vt 0.609375 0.734375
vt 0.609375 0.84375
vt 0.59375 0.84375
vn 0 0 1
vn 0 0 1
vn 0 0 1
vn 0 0 1
vn 0 0 -1
vn 0 0 -1
vn 0 0 -1
vn 0 0 -1
vn 0 1 0
vn 0 1 0
vn 0 1 0
vn 0 1 0
vn -1 0 0
vn -1 0 0
vn -1 0 0
vn -1 0 0
vn 0 -1 0
vn 0 -1 0
vn 0 -1 0
vn 0 -1 0
vn 1 0 0
vn 1 0 0
vn 1 0 0
vn 1 0 0
vn 0 0 1
vn 0 0 1
vn 0 0 1
vn 0 0 1
vn 0 0 -1
vn 0 0 -1
vn 0 0 -1
vn 0 0 -1
vn 0 1 0
vn 0 1 0
vn 0 1 0
vn 0 1 0
vn 0 -1 0
vn 0 -1 0
vn 0 -1 0
vn 0 -1 0
vn 1 0 0
vn 1 0 0
vn 1 0 0
vn 1 0 0
vn 0 0 1
vn 0 0 1
vn 0 0 1
vn 0 0 1
vn 0 0 -1
vn 0 0 -1
vn 0 0 -1
vn 0 0 -1
vn 0 1 0
vn 0 1 0
vn 0 1 0
vn 0 1 0
vn -1 0 0
vn -1 0 0
vn -1 0 0
vn -1 0 0
vn 1 0 0
vn 1 0 0
vn 1 0 0
vn 1 0 0
vn 0 0 1
vn 0 0 1
vn 0 0 1
vn 0 0 1
vn 0 0 -1
vn 0 0 -1
vn 0 0 -1
vn 0 0 -1
vn 0 1 0
vn 0 1 0
vn 0 1 0
vn 0 1 0
vn -1 0 0
vn -1 0 0
vn -1 0 0
vn -1 0 0
vn 0 -1 0
vn 0 -1 0
vn 0 -1 0
vn 0 -1 0
vn 1 0 0
vn 1 0 0
vn 1 0 0
vn 1 0 0
vn 1 0 0
vn 1 0 0
vn 1 0 0
vn 1 0 0
vn 1 0 0
vn 1 0 0
vn 1 0 0
vn 1 0 0
vn 1 0 0
vn 1 0 0
vn -1 0 0
vn -1 0 0
vn -1 0 0
vn -1 0 0
vn -1 0 0
vn -1 0 0
vn -1 0 0
vn -1 0 0
vn -1 0 0
vn -1 0 0
vn 0 1 0
vn 0 1 0
vn 0 1 0
vn 0 1 0
vn 0 1 0
vn 0 1 0
vn 0 1 0
vn 0 1 0
vn 0 1 0
vn 0 1 0
vn 0 -1 0
vn 0 -1 0
vn 0 -1 0
vn 0 -1 0
vn 0 -1 0
vn 0 -1 0
vn 0 -1 0
vn 0 -1 0
vn 0 -1 0
vn 0 -1 0
vn 0 0 -1
vn 0 0 -1
vn 0 0 -1
vn 0 0 -1
vn 0 0 -1
vn 0 0 -1
vn 0 0 -1
vn 0 0 -1
vn 0 0 -1
vn 0 0 -1
vn 0 0 1
vn 0 0 1
vn 0 0 1
vn 0 0 1
vn 0 0 1
vn 0 0 1
vn 0 0 1
vn 0 0 1
vn 0 0 1
vn 0 0 1
vn 0 0 -1
vn 0 0 -1
vn 0 0 -1
vn 0 0 -1
vn 0 1 0
vn 0 1 0
vn 0 1 0
vn 0 1 0
vn -1 0 0
vn -1 0 0
vn -1 0 0
vn -1 0 0
vn 0 -1 0
vn 0 -1 0
vn 0 -1 0
vn 0 -1 0
vn 1 0 0
vn 1 0 0
vn 1 0 0
vn 1 0 0
vn 0 0 1
vn 0 0 1
vn 0 0 1
vn 0 0 1
vn 1 0 0
vn 1 0 0
vn 1 0 0
vn 1 0 0
vn 0 0 1
vn 0 0 1
vn 0 0 1
vn 0 0 1
vn -1 0 0
vn -1 0 0
vn -1 0 0
vn -1 0 0
vn 1 0 0
vn 1 0 0
vn 1 0 0
vn 1 0 0
vn 0 -1 0
vn 0 -1 0
vn 0 -1 0
vn 0 -1 0
vn 0 -1 0
vn 0 -1 0
vn 0 -1 0
vn 0 -1 0
vn 0 -1 0
vn 0 1 0
vn 0 1 0
vn 0 1 0
vn 0 1 0
vn 0 1 0
vn 0 1 0
vn 0 1 0
vn 0 1 0
vn 0 1 0
vn 0 0 -1
vn 0 0 -1
vn 0 0 -1
vn 0 0 -1
vn 0 0 1
vn 0 0 1
vn 0 0 1
vn 0 0 1
vn 0 0 1
vn 0 0 1
vn 0 0 1
vn 0 0 1
vn 0 0 -1
vn 0 0 -1
vn 0 0 -1
vn 0 0 -1
vn 0 1 0
vn 0 1 0
vn 0 1 0
vn 0 1 0
vn -1 0 0
vn -1 0 0
vn -1 0 0
vn -1 0 0
vn 0 -1 0
vn 0 -1 0
vn 0 -1 0
vn 0 -1 0
vn 1 0 0
vn 1 0 0
vn 1 0 0
vn 1 0 0
vn 0 0 1
vn 0 0 1
vn 0 0 1
vn 0 0 1
vn 0 0 -1
vn 0 0 -1
vn 0 0 -1
vn 0 0 -1
vn 0 1 0
vn 0 1 0
vn 0 1 0
vn 0 1 0
vn 1 0 0
vn 1 0 0
vn 1 0 0
vn 1 0 0
vn 0 -1 0
vn 0 -1 0
vn 0 -1 0
vn 0 -1 0
vn -1 0 0
vn -1 0 0
vn -1 0 0
vn -1 0 0
vn 0 0 1
vn 0 0 1
vn 0 0 1
vn 0 0 1
vn -1 0 0
vn -1 0 0
vn -1 0 0
vn -1 0 0
vn 0 0 1
vn 0 0 1
vn 0 0 1
vn 0 0 1
vn 1 0 0
vn 1 0 0
vn 1 0 0
vn 1 0 0
vn -1 0 0
vn -1 0 0
vn -1 0 0
vn -1 0 0
vn 0 -1 0
vn 0 -1 0
vn 0 -1 0
vn 0 -1 0
vn 0 -1 0
vn 0 -1 0
vn 0 1 0
vn 0 1 0
vn 0 1 0
vn 0 1 0
vn 0 1 0
vn 0 1 0
g royale_hat_spec_headset_mesh_0
f 3/3/3 2/2/2 1/1/1
f 4/4/4 3/3/3 1/1/1
f 7/7/7 6/6/6 5/5/5
f 8/8/8 7/7/7 5/5/5
f 11/11/11 10/10/10 9/9/9
f 12/12/12 11/11/11 9/9/9
f 15/15/15 14/14/14 13/13/13
f 16/16/16 15/15/15 13/13/13
f 19/19/19 18/18/18 17/17/17
f 20/20/20 19/19/19 17/17/17
f 23/23/23 22/22/22 21/21/21
f 24/24/24 23/23/23 21/21/21
f 27/27/27 26/26/26 25/25/25
f 28/28/28 27/27/27 25/25/25
f 31/31/31 30/30/30 29/29/29
f 32/32/32 31/31/31 29/29/29
f 35/35/35 34/34/34 33/33/33
f 36/36/36 35/35/35 33/33/33
f 39/39/39 38/38/38 37/37/37
f 40/40/40 39/39/39 37/37/37
f 43/43/43 42/42/42 41/41/41
f 44/44/44 43/43/43 41/41/41
f 47/47/47 46/46/46 45/45/45
f 48/48/48 47/47/47 45/45/45
f 51/51/51 50/50/50 49/49/49
f 52/52/52 51/51/51 49/49/49
f 55/55/55 54/54/54 53/53/53
f 56/56/56 55/55/55 53/53/53
f 59/59/59 58/58/58 57/57/57
f 60/60/60 59/59/59 57/57/57
f 63/63/63 62/62/62 61/61/61
f 64/64/64 63/63/63 61/61/61
f 67/67/67 66/66/66 65/65/65
f 68/68/68 67/67/67 65/65/65
f 71/71/71 70/70/70 69/69/69
f 72/72/72 71/71/71 69/69/69
f 75/75/75 74/74/74 73/73/73
f 76/76/76 75/75/75 73/73/73
f 79/79/79 78/78/78 77/77/77
f 80/80/80 79/79/79 77/77/77
f 83/83/83 82/82/82 81/81/81
f 84/84/84 83/83/83 81/81/81
f 87/87/87 86/86/86 85/85/85
f 88/88/88 87/87/87 85/85/85
f 91/91/91 90/90/90 89/89/89
f 91/91/91 89/89/89 92/92/92
f 91/91/91 92/92/92 93/93/93
f 91/91/91 93/93/93 94/94/94
f 97/97/97 96/96/96 95/95/95
f 97/97/97 95/95/95 98/98/98
f 101/101/101 100/100/100 99/99/99
f 101/101/101 102/102/102 100/100/100
f 101/101/101 103/103/103 102/102/102
f 101/101/101 104/104/104 103/103/103
f 107/107/107 106/106/106 105/105/105
f 107/107/107 108/108/108 106/106/106
f 111/111/111 110/110/110 109/109/109
f 111/111/111 109/109/109 112/112/112
f 109/109/109 113/113/113 112/112/112
f 109/109/109 114/114/114 113/113/113
f 117/117/117 116/116/116 115/115/115
f 117/117/117 115/115/115 118/118/118
f 121/121/121 120/120/120 119/119/119
f 121/121/121 122/122/122 120/120/120
f 120/120/120 122/122/122 123/123/123
f 120/120/120 123/123/123 124/124/124
f 127/127/127 126/126/126 125/125/125
f 127/127/127 128/128/128 126/126/126
f 131/131/131 130/130/130 129/129/129
f 131/131/131 129/129/129 132/132/132
f 135/135/135 134/134/134 133/133/133
f 135/135/135 133/133/133 136/136/136
f 133/133/133 134/134/134 137/137/137
f 133/133/133 137/137/137 138/138/138
f 141/141/141 140/140/140 139/139/139
f 141/141/141 142/142/142 140/140/140
f 140/140/140 143/143/143 139/139/139
f 140/140/140 144/144/144 143/143/143
f 147/147/147 146/146/146 145/145/145
f 148/148/148 147/147/147 145/145/145
f 151/151/151 150/150/150 149/149/149
f 152/152/152 151/151/151 149/149/149
f 155/155/155 154/154/154 153/153/153
f 156/156/156 155/155/155 153/153/153
f 159/159/159 158/158/158 157/157/157
f 160/160/160 159/159/159 157/157/157
f 163/163/163 162/162/162 161/161/161
f 164/164/164 163/163/163 161/161/161
f 167/167/167 166/166/166 165/165/165
f 168/168/168 167/167/167 165/165/165
f 171/171/171 170/170/170 169/169/169
f 172/172/172 171/171/171 169/169/169
f 175/175/175 174/174/174 173/173/173
f 176/176/176 175/175/175 173/173/173
f 179/179/179 178/178/178 177/177/177
f 180/180/180 179/179/179 177/177/177
f 183/183/183 182/182/182 181/181/181
f 184/184/184 183/183/183 181/181/181
f 187/187/187 186/186/186 185/185/185
f 188/188/188 187/187/187 185/185/185
f 191/191/191 190/190/190 189/189/189
f 191/191/191 192/192/192 190/190/190
f 192/192/192 193/193/193 190/190/190
f 193/193/193 194/194/194 190/190/190
f 191/191/191 196/196/196 195/195/195
f 197/197/197 191/191/191 195/195/195
f 200/200/200 199/199/199 198/198/198
f 199/199/199 201/201/201 198/198/198
f 198/198/198 201/201/201 202/202/202
f 198/198/198 202/202/202 203/203/203
f 205/205/205 202/202/202 204/204/204
f 206/206/206 205/205/205 204/204/204
f 209/209/209 208/208/208 207/207/207
f 210/210/210 209/209/209 207/207/207
f 213/213/213 212/212/212 211/211/211
f 214/214/214 213/213/213 211/211/211
f 217/217/217 216/216/216 215/215/215
f 218/218/218 217/217/217 215/215/215
f 221/221/221 220/220/220 219/219/219
f 222/222/222 221/221/221 219/219/219
f 225/225/225 224/224/224 223/223/223
f 226/226/226 225/225/225 223/223/223
f 229/229/229 228/228/228 227/227/227
f 230/230/230 229/229/229 227/227/227
f 233/233/233 232/232/232 231/231/231
f 234/234/234 233/233/233 231/231/231
f 237/237/237 236/236/236 235/235/235
f 238/238/238 237/237/237 235/235/235
f 241/241/241 240/240/240 239/239/239
f 242/242/242 241/241/241 239/239/239
f 245/245/245 244/244/244 243/243/243
f 246/246/246 245/245/245 243/243/243
f 249/249/249 248/248/248 247/247/247
f 250/250/250 249/249/249 247/247/247
f 253/253/253 252/252/252 251/251/251
f 254/254/254 253/253/253 251/251/251
f 257/257/257 256/256/256 255/255/255
f 258/258/258 257/257/257 255/255/255
f 261/261/261 260/260/260 259/259/259
f 262/262/262 261/261/261 259/259/259
f 265/265/265 264/264/264 263/263/263
f 266/266/266 265/265/265 263/263/263
f 269/269/269 268/268/268 267/267/267
f 270/270/270 269/269/269 267/267/267
f 273/273/273 272/272/272 271/271/271
f 274/274/274 273/273/273 271/271/271
f 277/277/277 276/276/276 275/275/275
f 278/278/278 277/277/277 275/275/275
f 281/281/281 280/280/280 279/279/279
f 282/282/282 281/281/281 279/279/279
f 285/285/285 284/284/284 283/283/283
f 286/286/286 284/284/284 285/285/285
f 287/287/287 286/286/286 285/285/285
f 288/288/288 287/287/287 285/285/285
f 291/291/291 290/290/290 289/289/289
f 292/292/292 291/291/291 289/289/289
f 292/292/292 289/289/289 293/293/293
f 293/293/293 289/289/289 294/294/294
