g royale_toilet_wall_lod0
v 0.00750061 2.984015 1.325
v -0.007499389 2.984015 1.325
v -0.00750061 2.984017 -1.324998
v 0.007499389 2.984017 -1.324998
v 0.00750061 2.984015 1.325
v 0.007499389 2.984017 -1.324998
v 0.007499389 0.2840185 -1.325
v 0.007499389 0.2840149 1.325
v -0.007499389 2.984015 1.325
v 0.00750061 2.984015 1.325
v 0.007499389 0.2840149 1.325
v -0.00750061 0.2840149 1.325
v -0.00750061 2.984017 -1.324998
v -0.007499389 2.984015 1.325
v -0.00750061 0.2840149 1.325
v -0.00750061 0.2840185 -1.325
vt 0.505556 -0.8459309
vt 0.4944449 -0.8459309
vt 0.494444 1.117029
vt 0.5055552 1.117029
vt -0.5000009 2.312499
vt 1.499999 2.312501
vt 1.500001 0.3125013
vt -0.5000009 0.3124987
vt 0.4944449 2.312499
vt 0.505556 2.312499
vt 0.5055552 0.3459309
vt 0.494444 0.3459309
vt -0.4999991 2.312501
vt 1.500001 2.312499
vt 1.500001 0.3124987
vt -0.5000009 0.3125013
vn 0 1 0
vn 0 1 0
vn 0 1 0
vn 0 1 0
vn 1 0 0
vn 1 0 0
vn 1 0 0
vn 1 0 0
vn 0 0 1
vn 0 0 1
vn 0 0 1
vn 0 0 1
vn -1 0 0
vn -1 0 0
vn -1 0 0
vn -1 0 0
g royale_toilet_wall_lod0_0
f 3/3/3 2/2/2 1/1/1
f 4/4/4 3/3/3 1/1/1
f 7/7/7 6/6/6 5/5/5
f 8/8/8 7/7/7 5/5/5
f 11/11/11 10/10/10 9/9/9
f 12/12/12 11/11/11 9/9/9
f 15/15/15 14/14/14 13/13/13
f 16/16/16 15/15/15 13/13/13
