g royale_slender_wooden_fence_long_lod01
v -9.765625E-06 4.450189 6.000003
v -9.765625E-06 4.45019 4.156828E-06
v -9.765625E-06 -4.449999 4.272461E-06
v -9.765625E-06 -4.449999 6.000004
v -9.765625E-06 -4.449999 6.000004
v -9.765625E-06 -4.449999 4.272461E-06
v -9.765625E-06 4.45019 4.156828E-06
v -9.765625E-06 4.450189 6.000003
vt 2.95134 3.5
vt 2.951532 -2.499999
vt -5.949039 -2.499999
vt -5.948848 3.500001
vt 6.948847 3.500001
vt 6.948657 -2.5
vt -1.951151 -2.5
vt -1.95134 3.5
vn 1 0 0
vn 1 0 0
vn 1 0 0
vn 1 0 0
vn -1 0 0
vn -1 0 0
vn -1 0 0
vn -1 0 0
g royale_slender_wooden_fence_long_lod01_0
f 3/3/3 2/2/2 1/1/1
f 4/4/4 3/3/3 1/1/1
f 7/7/7 6/6/6 5/5/5
f 8/8/8 7/7/7 5/5/5
