g royale_electricity_column_lod02
v -0.3218701 -2.250005 13.69999
v -0.3218701 -2.250005 13.39999
v -0.3218701 2.250018 13.39999
v -0.3218701 2.250018 13.69999
v -0.2982666 0.150011 15.3
v -0.2982666 -0.15 15.30001
v -0.2982666 -0.1499878 1.220703E-06
v -0.2982666 0.1500146 1.220703E-06
v -0.299126 -2.250005 13.69999
v -0.299126 2.250018 13.69999
v -0.299126 2.250018 13.39999
v -0.299126 -2.250005 13.39999
v -0.2967432 -0.1499878 1.220703E-06
v -0.2967432 -0.15 15.30001
v -0.2967432 0.150011 15.3
v -0.2967432 0.1500146 1.220703E-06
vt 0.2999997 -3.500023
vt 2.384186E-07 -3.500023
vt 2.861023E-06 1
vt 0.3000002 1
vt 1.872254E-06 1.300005
vt 0.3000074 1.300005
vt 0.3000021 -14
vt 0 -14
vt 0.2999997 -3.500023
vt 0.3000002 1
vt 2.861023E-06 1
vt 2.384186E-07 -3.500023
vt 0.3000021 -14
vt 0.3000048 1.300005
vt 4.348636E-06 1.300005
vt 0 -14
vn -1 0 0
vn -1 0 0
vn -1 0 0
vn -1 0 0
vn -1 0 0
vn -1 0 0
vn -1 0 0
vn -1 0 0
vn 1 0 0
vn 1 0 0
vn 1 0 0
vn 1 0 0
vn 1 0 0
vn 1 0 0
vn 1 0 0
vn 1 0 0
g royale_electricity_column_lod02_0
f 3/3/3 2/2/2 1/1/1
f 4/4/4 3/3/3 1/1/1
f 7/7/7 6/6/6 5/5/5
f 8/8/8 7/7/7 5/5/5
f 11/11/11 10/10/10 9/9/9
f 12/12/12 11/11/11 9/9/9
f 15/15/15 14/14/14 13/13/13
f 16/16/16 15/15/15 13/13/13
