g royale_truck_dumper_lod1_A
v -1.510777 2.601115 1.449187
v 1.489223 -8.085647 1.449188
v 1.489223 2.601115 1.449187
v -1.510776 -8.085647 1.449188
v 1.489223 -8.085647 1.449188
v 1.489223 -8.085646 3.653306
v 1.489223 2.601115 2.992152
v 1.489223 3.601116 3.653305
v 1.489223 3.601115 2.992151
v 1.489223 2.601115 2.992152
v -1.510777 2.601115 1.449187
v 1.489223 2.601115 1.449187
v -1.510777 2.601115 2.992152
v -1.510777 2.601115 1.449187
v -1.510777 2.601115 2.992152
v -1.510776 -8.085647 1.449188
v -1.510777 3.601116 3.653305
v 1.489223 3.601115 2.992151
v 1.489223 3.601116 3.653305
v -1.510777 3.601115 2.992151
v 1.489223 3.601115 2.992151
v -1.510777 2.601115 2.992152
v 1.489223 2.601115 2.992152
v -1.510777 3.601115 2.992151
v -1.510777 2.601115 2.992152
v -1.510777 3.601115 2.992151
v -1.510777 3.601116 3.653305
v -1.510777 -8.085646 3.653306
v -1.510776 -8.085647 1.449188
v -1.510777 -8.085646 3.653306
v -1.510777 3.601116 3.653305
v -1.270777 2.381116 3.183887
v -1.510776 -8.085647 1.449188
v -1.270777 2.381116 1.683485
v 1.489223 -8.085646 3.653306
v 1.489223 -8.085647 1.449188
v 1.249223 2.381116 3.183887
v 1.489223 3.601116 3.653305
v 1.249223 2.381116 1.683485
v -1.510776 -8.085647 1.449188
v -1.270777 2.381116 1.683485
v 1.489223 -8.085647 1.449188
v 1.249223 2.381116 3.183887
v -1.270777 2.381116 1.683485
v -1.270777 2.381116 3.183887
v 1.249223 2.381116 1.683485
v 1.489223 3.601116 3.653305
v -1.270777 2.381116 3.183887
v -1.510777 3.601116 3.653305
v 1.249223 2.381116 3.183887
v 1.249223 2.381116 3.183887
v 1.489223 -8.085647 1.449188
v 1.249223 2.381116 1.683485
v 1.489223 -8.085647 1.449188
v 1.489223 2.601115 2.992152
v 1.489223 2.601115 1.449187
vt 0.8671875 0.5053711
vt 0.7884409 0.5273438
vt 0.8671875 0.5273438
vt 0.7884409 0.5053711
vt 0.872204 0.5053703
vt 0.8722036 0.5214843
vt 0.793457 0.5166016
vt 0.7861328 0.5214844
vt 0.7861328 0.5166016
vt 0.8525391 0.5166016
vt 0.8745117 0.5053711
vt 0.8525391 0.5053711
vt 0.8745117 0.5166016
vt 0.793457 0.5053711
vt 0.793457 0.5166016
vt 0.8722041 0.505371
vt 0.8745117 0.5214844
vt 0.8525391 0.5166016
vt 0.8525391 0.5214844
vt 0.8745117 0.5166016
vt 0.8745117 0.5273438
vt 0.8671875 0.5053711
vt 0.8671875 0.5273438
vt 0.8745117 0.5053711
vt 0.793457 0.5166016
vt 0.7861328 0.5166016
vt 0.7861328 0.5214844
vt 0.8722042 0.5214837
vt 0.8722041 0.505371
vt 0.8721991 0.5214843
vt 0.7875977 0.5197754
vt 0.7949219 0.5180664
vt 0.8721986 0.5068371
vt 0.7949219 0.5068359
vt 0.8722013 0.5214854
vt 0.8721985 0.506836
vt 0.7949219 0.5180664
vt 0.7875977 0.5197754
vt 0.7949219 0.5268555
vt 0.8721991 0.5078125
vt 0.7949219 0.5078125
vt 0.8721991 0.5268555
vt 0.8583984 0.5078125
vt 0.847168 0.5268555
vt 0.8583984 0.5268555
vt 0.847168 0.5078125
vt 0.7866211 0.5268555
vt 0.7939453 0.5078125
vt 0.7866211 0.5078125
vt 0.7939453 0.5268555
vt 0.7949219 0.5180664
vt 0.8721985 0.506836
vt 0.7949219 0.5068359
vt 0.872204 0.5053703
vt 0.793457 0.5166016
vt 0.793457 0.5053711
vn 0 -1.227034E-07 -1
vn -0.7018375 -0.01605152 -0.7121562
vn 0 -1.227034E-07 -1
vn 0.7018375 -0.01605124 -0.7121562
vn 0.7122909 -0.01574518 0.7017077
vn 1 0 -1.364154E-07
vn 1 0 3.21941E-07
vn 0.7490897 -0.2379218 0.6182701
vn 1 0 5.409146E-07
vn 0 1 0
vn 0 1 0
vn 0 1 0
vn 0 1 0
vn -1 0 0
vn -1 0 0
vn -0.7122909 -0.01574529 0.7017077
vn 0.2238004 0.9678967 0.1144083
vn 0 1 -1.252064E-06
vn -0.2238005 0.9678967 0.114408
vn 0 1 -9.616264E-07
vn 0 -7.152556E-07 -1
vn 0 -7.152557E-07 -1
vn 0 -7.152555E-07 -1
vn 0 -7.152557E-07 -1
vn -1 0 0
vn -1 -1.803049E-07 0
vn -0.74909 -0.237922 0.6182696
vn -1 0 -1.558721E-07
vn -0.7122909 -0.01574529 0.7017077
vn 0.9996457 -0.0222675 0.01458393
vn 0.2239563 0.9678965 0.1141045
vn 0.9564497 -0.008845954 0.2917631
vn 0.7018355 -0.01613782 -0.7121562
vn 0.9997372 -0.02292369 0
vn -0.9996457 -0.02226751 0.01458392
vn -0.7018355 -0.01613744 -0.7121561
vn -0.9564498 -0.008845961 0.2917629
vn -0.2237983 0.9678966 0.1144137
vn 0 -0.02237925 0.9997496
vn -0.7122908 -0.01570062 0.7017089
vn 0 -0.02237925 0.9997496
vn 0.7122908 -0.01570094 0.7017088
vn 0 -1 -4.182224E-07
vn 0 -1 -3.384595E-07
vn 0 -1 -2.522273E-07
vn 0 -1 -5.044546E-07
vn 0.74909 -0.2376675 0.6183675
vn 0 -0.3591044 0.9332975
vn -0.74909 -0.2378764 0.6182872
vn 0 -0.359104 0.9332975
vn -0.9564498 -0.008845961 0.2917629
vn -0.7018355 -0.01613744 -0.7121561
vn -0.9997372 -0.02292368 0
vn 0.7122909 -0.01574518 0.7017077
vn 1 0 3.21941E-07
vn 1 0 0
g royale_truck_dumper_lod1_A_0
f 3/3/3 2/2/2 1/1/1
f 4/4/4 1/1/1 2/2/2
f 7/7/7 6/6/6 5/5/5
f 7/7/7 8/8/8 6/6/6
f 9/9/9 8/8/8 7/7/7
f 12/12/12 11/11/11 10/10/10
f 13/13/13 10/10/10 11/11/11
f 16/16/16 15/15/15 14/14/14
f 19/19/19 18/18/18 17/17/17
f 20/20/20 17/17/17 18/18/18
f 23/23/23 22/22/22 21/21/21
f 24/24/24 21/21/21 22/22/22
f 27/27/27 26/26/26 25/25/25
f 28/28/28 27/27/27 25/25/25
f 28/28/28 25/25/25 29/29/29
f 32/32/32 31/31/31 30/30/30
f 32/32/32 30/30/30 33/33/33
f 34/34/34 32/32/32 33/33/33
f 37/37/37 36/36/36 35/35/35
f 37/37/37 35/35/35 38/38/38
f 41/41/41 40/40/40 39/39/39
f 42/42/42 39/39/39 40/40/40
f 45/45/45 44/44/44 43/43/43
f 46/46/46 43/43/43 44/44/44
f 49/49/49 48/48/48 47/47/47
f 50/50/50 47/47/47 48/48/48
f 53/53/53 52/52/52 51/51/51
f 56/56/56 55/55/55 54/54/54
