g royale_hat_bomb_mesh
v 0.2912376 0.1953245 -0.2883616
v -0.2852504 -0.3491364 -0.2883616
v 0.2912376 -0.3491364 -0.2883616
v -0.2852504 0.1953245 -0.2883616
v 0.09907496 0.2693806 -0.09619888
v -0.09308769 0.1953245 -0.09619889
v 0.09907496 0.1953245 -0.09619889
v -0.09308769 0.2693806 -0.09619888
v -0.1571419 0.3654619 -0.03214465
v -0.2211961 0.2373535 -0.03214465
v -0.1571419 0.2373535 -0.03214465
v -0.2211961 0.4295161 -0.03214465
v 0.03502075 0.4295161 -0.03214465
v -0.02903347 0.3654619 -0.03214465
v -0.02903347 0.2693806 -0.03214465
v 0.03502075 0.2693806 -0.03214465
v -0.2852504 0.003161833 0.1279909
v 0.2912376 -0.3491364 0.1279909
v -0.2852504 -0.3491364 0.1279909
v 0.2912376 0.003161833 0.1279909
v -0.2852504 0.1953245 0.2881264
v 0.2912376 0.003161833 0.2881264
v -0.2852504 0.003161833 0.2881264
v 0.2912376 0.1953245 0.2881264
v -0.09308769 0.2693806 0.09596377
v 0.09907496 0.1953245 0.09596376
v -0.09308769 0.1953245 0.09596376
v 0.09907496 0.2693806 0.09596377
v -0.2211961 0.4295161 0.03190956
v -0.1571419 0.2373535 0.03190956
v -0.2211961 0.2373535 0.03190956
v -0.1571419 0.3654619 0.03190956
v -0.02903347 0.3654619 0.03190956
v 0.03502075 0.4295161 0.03190956
v 0.03502075 0.2693806 0.03190956
v -0.02903347 0.2693806 0.03190956
v -0.2852504 0.1953245 -0.2883616
v -0.2852504 -0.3491364 0.1279909
v -0.2852504 -0.3491364 -0.2883616
v -0.2852504 0.003161833 0.1279909
v -0.2852504 0.003161833 0.2881264
v -0.2852504 0.1953245 0.2881264
v -0.09308769 0.2693806 -0.09619888
v -0.09308769 0.1953245 0.09596376
v -0.09308769 0.1953245 -0.09619889
v -0.09308769 0.2693806 0.09596377
v -0.2211961 0.4295161 -0.03214465
v -0.2211961 0.2373535 0.03190956
v -0.2211961 0.2373535 -0.03214465
v -0.2211961 0.4295161 0.03190956
v -0.02903347 0.3654619 -0.03214465
v -0.02903347 0.2693806 0.03190956
v -0.02903347 0.2693806 -0.03214465
v -0.02903347 0.3654619 0.03190956
v 0.2912376 0.003161833 0.1279909
v 0.2912376 -0.3491364 -0.2883616
v 0.2912376 -0.3491364 0.1279909
v 0.2912376 0.1953245 -0.2883616
v 0.2912376 0.003161833 0.2881264
v 0.2912376 0.1953245 0.2881264
v 0.09907496 0.2693806 0.09596377
v 0.09907496 0.1953245 -0.09619889
v 0.09907496 0.1953245 0.09596376
v 0.09907496 0.2693806 -0.09619888
v 0.03502075 0.4295161 0.03190956
v 0.03502075 0.2693806 -0.03214465
v 0.03502075 0.2693806 0.03190956
v 0.03502075 0.4295161 -0.03214465
v -0.1571419 0.3654619 0.03190956
v -0.1571419 0.2373535 -0.03214465
v -0.1571419 0.2373535 0.03190956
v -0.1571419 0.3654619 -0.03214465
v 0.2912376 0.1953245 0.2881264
v -0.09308769 0.1953245 0.09596376
v 0.09907496 0.1953245 0.09596376
v -0.2852504 0.1953245 0.2881264
v 0.09907496 0.1953245 -0.09619889
v 0.2912376 0.1953245 -0.2883616
v -0.2852504 0.1953245 -0.2883616
v -0.09308769 0.1953245 -0.09619889
v -0.2852504 0.1953245 -0.2883616
v -0.09308769 0.1953245 0.09596376
v -0.2852504 0.1953245 0.2881264
v -0.09308769 0.1953245 -0.09619889
v -0.02903347 0.2693806 -0.03214465
v 0.09907496 0.2693806 -0.09619888
v 0.03502075 0.2693806 -0.03214465
v -0.09308769 0.2693806 -0.09619888
v 0.09907496 0.2693806 0.09596377
v 0.03502075 0.2693806 0.03190956
v -0.09308769 0.2693806 0.09596377
v -0.02903347 0.2693806 0.03190956
v -0.2211961 0.4295161 -0.03214465
v 0.03502075 0.4295161 0.03190956
v -0.2211961 0.4295161 0.03190956
v 0.03502075 0.4295161 -0.03214465
v -0.09308769 0.2693806 -0.09619888
v -0.02903347 0.2693806 0.03190956
v -0.09308769 0.2693806 0.09596377
v -0.02903347 0.2693806 -0.03214465
v -0.2852504 -0.3491364 0.1279909
v 0.2912376 -0.3491364 -0.2883616
v -0.2852504 -0.3491364 -0.2883616
v 0.2912376 -0.3491364 0.1279909
v -0.2852504 0.003161833 0.2881264
v 0.2912376 0.003161833 0.1279909
v -0.2852504 0.003161833 0.1279909
v 0.2912376 0.003161833 0.2881264
v -0.1571419 0.3654619 0.03190956
v -0.02903347 0.3654619 -0.03214465
v -0.1571419 0.3654619 -0.03214465
v -0.02903347 0.3654619 0.03190956
v -0.2211961 0.2373535 0.03190956
v -0.1571419 0.2373535 -0.03214465
v -0.2211961 0.2373535 -0.03214465
v -0.1571419 0.2373535 0.03190956
vt 0.671875 0.34375
vt 0.953125 0.078125
vt 0.671875 0.078125
vt 0.953125 0.34375
vt 0.765625 0.421875
vt 0.859375 0.390625
vt 0.765625 0.390625
vt 0.859375 0.421875
vt 0.890625 0.46875
vt 0.921875 0.40625
vt 0.890625 0.40625
vt 0.921875 0.5
vt 0.796875 0.5
vt 0.828125 0.46875
vt 0.828125 0.421875
vt 0.796875 0.421875
vt 0.359375 0.71875
vt 0.640625 0.546875
vt 0.359375 0.546875
vt 0.640625 0.71875
vt 0.359375 0.8125
vt 0.640625 0.71875
vt 0.359375 0.71875
vt 0.640625 0.8125
vt 0.453125 0.890625
vt 0.546875 0.859375
vt 0.453125 0.859375
vt 0.546875 0.890625
vt 0.390625 0.96875
vt 0.421875 0.875
vt 0.390625 0.875
vt 0.421875 0.9375
vt 0.484375 0.9375
vt 0.515625 0.96875
vt 0.515625 0.890625
vt 0.484375 0.890625
vt 0.6875 0.8125
vt 0.890625 0.546875
vt 0.6875 0.546875
vt 0.890625 0.71875
vt 0.96875 0.71875
vt 0.96875 0.8125
vt 0.453125 0.890625
vt 0.546875 0.859375
vt 0.453125 0.859375
vt 0.546875 0.890625
vt 0.8125 0.953125
vt 0.84375 0.875
vt 0.8125 0.875
vt 0.84375 0.953125
vt 0.515625 0.9375
vt 0.484375 0.890625
vt 0.515625 0.890625
vt 0.484375 0.9375
vt 0.109375 0.71875
vt 0.3125 0.546875
vt 0.109375 0.546875
vt 0.3125 0.8125
vt 0.03125 0.71875
vt 0.03125 0.8125
vt 0.125 0.890625
vt 0.21875 0.859375
vt 0.125 0.859375
vt 0.21875 0.890625
vt 0.15625 0.96875
vt 0.1875 0.890625
vt 0.15625 0.890625
vt 0.1875 0.96875
vt 0.390625 0.9375
vt 0.421875 0.875
vt 0.390625 0.875
vt 0.421875 0.9375
vt 0.3125 0.21875
vt 0.125 0.3125
vt 0.21875 0.3125
vt 0.03125 0.21875
vt 0.21875 0.40625
vt 0.3125 0.5
vt 0.03125 0.5
vt 0.125 0.40625
vt 0.3125 0.21875
vt 0.21875 0.40625
vt 0.3125 0.5
vt 0.21875 0.3125
vt 0.15625 0.375
vt 0.21875 0.40625
vt 0.1875 0.375
vt 0.125 0.40625
vt 0.21875 0.3125
vt 0.1875 0.34375
vt 0.125 0.3125
vt 0.15625 0.34375
vt 0.0625 0.375
vt 0.1875 0.34375
vt 0.0625 0.34375
vt 0.1875 0.375
vt 0.21875 0.3125
vt 0.1875 0.375
vt 0.21875 0.40625
vt 0.1875 0.34375
vt 0.359375 0.40625
vt 0.640625 0.21875
vt 0.359375 0.21875
vt 0.640625 0.40625
vt 0.359375 0.5
vt 0.640625 0.40625
vt 0.359375 0.40625
vt 0.640625 0.5
vt 0.421875 0.9375
vt 0.484375 0.953125
vt 0.421875 0.953125
vt 0.484375 0.9375
vt 0.734375 0.46875
vt 0.765625 0.4375
vt 0.734375 0.4375
vt 0.765625 0.46875
vn 0 0 -1
vn 0 0 -1
vn 0 0 -1
vn 0 0 -1
vn 0 1.287773E-07 -1
vn 0 1.287773E-07 -1
vn 0 1.287773E-07 -1
vn 0 1.287773E-07 -1
vn 0 0 -1
vn 0 0 -1
vn 0 0 -1
vn 0 0 -1
vn 0 0 -1
vn 0 0 -1
vn 0 0 -1
vn 0 0 -1
vn 0 0 1
vn 0 0 1
vn 0 0 1
vn 0 0 1
vn 0 0 1
vn 0 0 1
vn 0 0 1
vn 0 0 1
vn 0 -1.287773E-07 1
vn 0 -1.287773E-07 1
vn 0 -1.287773E-07 1
vn 0 -1.287773E-07 1
vn 0 0 1
vn 0 0 1
vn 0 0 1
vn 0 0 1
vn 0 0 1
vn 0 0 1
vn 0 0 1
vn 0 0 1
vn -1 0 0
vn -1 0 0
vn -1 0 0
vn -1 -4.561217E-07 0
vn -1 -1.62511E-07 0
vn -1 0 0
vn -1 0 0
vn -1 0 0
vn -1 0 0
vn -1 0 0
vn -1 0 0
vn -1 0 0
vn -1 0 0
vn -1 0 0
vn -1 0 0
vn -1 0 0
vn -1 0 0
vn -1 0 0
vn 1 -4.561217E-07 0
vn 1 0 0
vn 1 0 0
vn 1 0 0
vn 1 -1.62511E-07 0
vn 1 0 0
vn 1 0 0
vn 1 0 0
vn 1 0 0
vn 1 0 0
vn 1 0 0
vn 1 0 0
vn 1 0 0
vn 1 0 0
vn 1 0 0
vn 1 0 0
vn 1 0 0
vn 1 0 0
vn 0 1 0
vn 0 1 0
vn 0 1 0
vn 0 1 0
vn 0 1 0
vn 0 1 0
vn 0 1 0
vn 0 1 0
vn 0 1 0
vn 0 1 0
vn 0 1 0
vn 0 1 0
vn 0 1 0
vn 0 1 0
vn 0 1 0
vn 0 1 0
vn 0 1 -3.718987E-07
vn 0 1 -3.718987E-07
vn 0 1 -3.718986E-07
vn 0 1 -3.718987E-07
vn 0 1 0
vn 0 1 0
vn 0 1 0
vn 0 1 0
vn 0 1 0
vn 0 1 -3.718987E-07
vn 0 1 -3.718986E-07
vn 0 1 0
vn 0 -1 0
vn 0 -1 0
vn 0 -1 0
vn 0 -1 0
vn 0 -1 0
vn 0 -1 0
vn 0 -1 0
vn 0 -1 0
vn 0 -1 0
vn 0 -1 0
vn 0 -1 0
vn 0 -1 0
vn 0 -1 0
vn 0 -1 0
vn 0 -1 0
vn 0 -1 0
g royale_hat_bomb_mesh_0
f 3/3/3 2/2/2 1/1/1
f 4/4/4 1/1/1 2/2/2
f 7/7/7 6/6/6 5/5/5
f 8/8/8 5/5/5 6/6/6
f 11/11/11 10/10/10 9/9/9
f 12/12/12 9/9/9 10/10/10
f 12/12/12 13/13/13 9/9/9
f 14/14/14 9/9/9 13/13/13
f 14/14/14 13/13/13 15/15/15
f 16/16/16 15/15/15 13/13/13
f 19/19/19 18/18/18 17/17/17
f 20/20/20 17/17/17 18/18/18
f 23/23/23 22/22/22 21/21/21
f 24/24/24 21/21/21 22/22/22
f 27/27/27 26/26/26 25/25/25
f 28/28/28 25/25/25 26/26/26
f 31/31/31 30/30/30 29/29/29
f 32/32/32 29/29/29 30/30/30
f 32/32/32 33/33/33 29/29/29
f 34/34/34 29/29/29 33/33/33
f 34/34/34 33/33/33 35/35/35
f 36/36/36 35/35/35 33/33/33
f 39/39/39 38/38/38 37/37/37
f 40/40/40 37/37/37 38/38/38
f 37/37/37 40/40/40 41/41/41
f 41/41/41 42/42/42 37/37/37
f 45/45/45 44/44/44 43/43/43
f 46/46/46 43/43/43 44/44/44
f 49/49/49 48/48/48 47/47/47
f 50/50/50 47/47/47 48/48/48
f 53/53/53 52/52/52 51/51/51
f 54/54/54 51/51/51 52/52/52
f 57/57/57 56/56/56 55/55/55
f 58/58/58 55/55/55 56/56/56
f 55/55/55 58/58/58 59/59/59
f 59/59/59 58/58/58 60/60/60
f 63/63/63 62/62/62 61/61/61
f 64/64/64 61/61/61 62/62/62
f 67/67/67 66/66/66 65/65/65
f 68/68/68 65/65/65 66/66/66
f 71/71/71 70/70/70 69/69/69
f 72/72/72 69/69/69 70/70/70
f 75/75/75 74/74/74 73/73/73
f 76/76/76 73/73/73 74/74/74
f 75/75/75 73/73/73 77/77/77
f 78/78/78 77/77/77 73/73/73
f 78/78/78 79/79/79 77/77/77
f 80/80/80 77/77/77 79/79/79
f 83/83/83 82/82/82 81/81/81
f 84/84/84 81/81/81 82/82/82
f 87/87/87 86/86/86 85/85/85
f 88/88/88 85/85/85 86/86/86
f 86/86/86 87/87/87 89/89/89
f 90/90/90 89/89/89 87/87/87
f 89/89/89 90/90/90 91/91/91
f 92/92/92 91/91/91 90/90/90
f 95/95/95 94/94/94 93/93/93
f 96/96/96 93/93/93 94/94/94
f 99/99/99 98/98/98 97/97/97
f 100/100/100 97/97/97 98/98/98
f 103/103/103 102/102/102 101/101/101
f 104/104/104 101/101/101 102/102/102
f 107/107/107 106/106/106 105/105/105
f 108/108/108 105/105/105 106/106/106
f 111/111/111 110/110/110 109/109/109
f 112/112/112 109/109/109 110/110/110
f 115/115/115 114/114/114 113/113/113
f 116/116/116 113/113/113 114/114/114
