g royale_truck_waggon_lod0_A
v -1.560199 -7.813429 1.371309
v 1.439801 2.186571 1.371309
v -1.560199 2.186571 1.371309
v 1.439801 -7.813429 1.371309
v 1.439801 -7.813429 5.051776
v -1.560199 2.186571 5.051775
v 1.439801 2.186571 5.051775
v -1.560199 -7.813429 5.051776
v -1.435199 -7.813429 1.676776
v -1.560199 -7.813429 5.051776
v -1.435199 -7.813429 4.926776
v -1.560199 -7.813429 1.371309
v 1.439801 -7.813429 1.371309
v 1.314801 -7.813429 1.676776
v 1.314801 -7.813429 4.926776
v 1.439801 -7.813429 5.051776
v 1.439801 2.186571 1.371309
v 1.439801 -7.813429 5.051776
v 1.439801 2.186571 5.051775
v 1.439801 -7.813429 1.371309
v -1.560199 -7.813429 1.371309
v -1.560199 2.186571 5.051775
v -1.560199 -7.813429 5.051776
v -1.560199 2.186571 1.371309
v -1.560199 2.186571 1.371309
v 1.439801 2.186571 5.051775
v -1.560199 2.186571 5.051775
v 1.439801 2.186571 1.371309
v -1.435199 -7.813429 1.676776
v 1.314801 2.061571 1.676775
v 1.314801 -7.813429 1.676776
v -1.435199 2.061571 1.676775
v 1.314801 -7.813429 4.926776
v -1.435199 2.061571 4.926775
v -1.435199 -7.813429 4.926776
v 1.314801 2.061571 4.926775
v 1.314801 -7.813429 1.676776
v 1.314801 2.061571 4.926775
v 1.314801 -7.813429 4.926776
v 1.314801 2.061571 1.676775
v -1.435199 -7.813429 4.926776
v -1.435199 2.061571 1.676775
v -1.435199 -7.813429 1.676776
v -1.435199 2.061571 4.926775
v 1.314801 2.061571 4.926775
v -1.435199 2.061571 1.676775
v -1.435199 2.061571 4.926775
v 1.314801 2.061571 1.676775
v 0.9622038 -9.131179 4.926776
v 1.31808 -7.80303 1.676776
v 0.9622038 -9.131179 1.676777
v 1.31808 -7.80303 4.926776
v 1.197339 -7.770677 1.676776
v 1.31808 -7.80303 4.926776
v 1.197339 -7.770677 4.926776
v 1.31808 -7.80303 1.676776
v 0.8414631 -9.098825 4.926776
v 1.31808 -7.80303 4.926776
v 0.9622038 -9.131179 4.926776
v 1.197339 -7.770677 4.926776
v 1.197339 -7.770677 1.676776
v 0.8414631 -9.098825 4.926776
v 0.8414631 -9.098825 1.676777
v 1.197339 -7.770677 4.926776
v 1.197339 -7.770677 1.676776
v 0.9622038 -9.131179 1.676777
v 1.31808 -7.80303 1.676776
v 0.8414631 -9.098825 1.676777
v 0.9622038 -9.131179 4.926776
v 0.8414631 -9.098825 1.676777
v 0.8414631 -9.098825 4.926776
v 0.9622038 -9.131179 1.676777
v -1.078971 -9.124787 1.676776
v -1.440838 -7.792383 1.676776
v -1.202072 -9.146494 1.676776
v -1.317738 -7.770677 1.676776
v -1.317738 -7.770677 4.926776
v -1.440838 -7.792383 1.676776
v -1.317738 -7.770677 1.676776
v -1.440838 -7.792383 4.926776
v -1.440838 -7.792383 4.926776
v -1.202072 -9.146494 1.676776
v -1.440838 -7.792383 1.676776
v -1.202072 -9.146494 4.926776
v -1.317738 -7.770677 4.926776
v -1.202072 -9.146494 4.926776
v -1.440838 -7.792383 4.926776
v -1.078971 -9.124787 4.926776
v -1.317738 -7.770677 1.676776
v -1.078971 -9.124787 4.926776
v -1.317738 -7.770677 4.926776
v -1.078971 -9.124787 1.676776
v -1.078971 -9.124787 4.926776
v -1.202072 -9.146494 1.676776
v -1.202072 -9.146494 4.926776
v -1.078971 -9.124787 1.676776
vt 0.8735352 0.5522461
vt 0.796875 0.5288086
vt 0.796875 0.5522461
vt 0.8735352 0.5288086
vt 0.8735352 0.5288086
vt 0.796875 0.5522461
vt 0.796875 0.5288086
vt 0.8735352 0.5522461
vt 0.7739258 0.5429688
vt 0.7729492 0.5688477
vt 0.7739258 0.5678711
vt 0.7729492 0.5405273
vt 0.7958984 0.5405273
vt 0.7949219 0.5429688
vt 0.7949219 0.5678711
vt 0.7958984 0.5688477
vt 0.796875 0.5532227
vt 0.8735352 0.581543
vt 0.796875 0.581543
vt 0.8735352 0.5532227
vt 0.8735352 0.5532227
vt 0.796875 0.581543
vt 0.8735352 0.581543
vt 0.796875 0.5532227
vt 0.7958984 0.5405273
vt 0.7729492 0.5688477
vt 0.7958984 0.5688477
vt 0.7729492 0.5405273
vt 0.8735352 0.5512695
vt 0.7978516 0.5297852
vt 0.8735352 0.5297852
vt 0.7978516 0.5512695
vt 0.8735352 0.5297852
vt 0.7978516 0.5512695
vt 0.8735352 0.5512695
vt 0.7978516 0.5297852
vt 0.8735352 0.5551758
vt 0.7978516 0.5805664
vt 0.8735352 0.5805664
vt 0.7978516 0.5551758
vt 0.8735352 0.5805664
vt 0.7978516 0.5551758
vt 0.8735352 0.5551758
vt 0.7978516 0.5805664
vt 0.7949219 0.5678711
vt 0.7739258 0.5429688
vt 0.7739258 0.5678711
vt 0.7949219 0.5429688
vt 0.7836914 0.5678711
vt 0.7944336 0.5429688
vt 0.7836914 0.5429688
vt 0.7944336 0.5678711
vt 0.7841797 0.5429688
vt 0.7832031 0.5678711
vt 0.7841797 0.5678711
vt 0.7832031 0.5429688
vt 0.7949219 0.5429688
vt 0.7841797 0.5419922
vt 0.7949219 0.5419922
vt 0.7841797 0.5429688
vt 0.7841797 0.5429688
vt 0.7949219 0.5678711
vt 0.7949219 0.5429688
vt 0.7841797 0.5678711
vt 0.7841797 0.5429688
vt 0.7949219 0.5419922
vt 0.7841797 0.5419922
vt 0.7949219 0.5429688
vt 0.7705078 0.5673828
vt 0.7695313 0.5424805
vt 0.7695313 0.5673828
vt 0.7705078 0.5424805
vt 0.7949219 0.5419922
vt 0.7841797 0.5429688
vt 0.7949219 0.5429688
vt 0.7841797 0.5419922
vt 0.7832031 0.5678711
vt 0.7841797 0.5429688
vt 0.7832031 0.5429688
vt 0.7841797 0.5678711
vt 0.7944336 0.5678711
vt 0.7836914 0.5429688
vt 0.7944336 0.5429688
vt 0.7836914 0.5678711
vt 0.7841797 0.5419922
vt 0.7949219 0.5429688
vt 0.7841797 0.5429688
vt 0.7949219 0.5419922
vt 0.7949219 0.5429688
vt 0.7841797 0.5678711
vt 0.7949219 0.5678711
vt 0.7841797 0.5429688
vt 0.7705078 0.5673828
vt 0.7695313 0.5424805
vt 0.7695313 0.5673828
vt 0.7705078 0.5424805
vn 0 0 -1
vn 0 0 -1
vn 0 0 -1
vn 0 0 -1
vn 0 0 1
vn 0 0 1
vn 0 0 1
vn 0 0 1
vn 0 -1 1.020046E-07
vn 0 -1 -2.813891E-07
vn 0 -1 0
vn 0 -1 0
vn 0 -1 3.1122E-06
vn 0 -1 1.888012E-06
vn 0 -1 -4.992464E-06
vn 0 -1 -5.08627E-06
vn 1 0 0
vn 1 0 0
vn 1 0 0
vn 1 0 0
vn -1 0 0
vn -1 0 0
vn -1 0 0
vn -1 0 0
vn 0 1 0
vn 0 1 0
vn 0 1 0
vn 0 1 0
vn 0 0 1
vn 0 0 1
vn 0 0 1
vn 0 0 1
vn 0 0 -1
vn 0 0 -1
vn 0 0 -1
vn 0 0 -1
vn -1 0 0
vn -1 0 0
vn -1 0 0
vn -1 0 0
vn 1 0 0
vn 1 0 0
vn 1 0 0
vn 1 0 0
vn 0 -1 0
vn 0 -1 0
vn 0 -1 0
vn 0 -1 0
vn 0.9659258 -0.258819 0
vn 0.9659258 -0.258819 0
vn 0.9659258 -0.2588191 0
vn 0.9659258 -0.258819 0
vn 0.2588189 0.9659258 0
vn 0.2588195 0.9659257 0
vn 0.2588196 0.9659256 0
vn 0.2588189 0.9659258 0
vn 0 0 1
vn 0 0 1
vn 0 0 1
vn 0 0 1
vn -0.9659258 0.258819 0
vn -0.9659258 0.258819 0
vn -0.9659258 0.2588191 0
vn -0.9659258 0.258819 0
vn 0 -2.512301E-07 -1
vn 0 -2.512299E-07 -1
vn 0 -2.512302E-07 -1
vn 0 -2.512299E-07 -1
vn -0.2588266 -0.9659238 0
vn -0.2588269 -0.9659237 0
vn -0.2588266 -0.9659238 0
vn -0.2588269 -0.9659237 0
vn 0 0 -1
vn 0 0 -1
vn 0 0 -1
vn 0 0 -1
vn -0.1736493 0.9848075 0
vn -0.1736493 0.9848075 0
vn -0.1736493 0.9848075 0
vn -0.1736493 0.9848075 0
vn -0.9848077 -0.1736481 0
vn -0.9848077 -0.1736482 0
vn -0.9848077 -0.1736482 0
vn -0.9848077 -0.1736481 0
vn 0 0 1
vn 0 0 1
vn 0 0 1
vn 0 0 1
vn 0.9848077 0.1736484 0
vn 0.9848077 0.1736485 0
vn 0.9848077 0.1736485 0
vn 0.9848077 0.1736484 0
vn 0.1736528 -0.9848069 0
vn 0.1736524 -0.984807 0
vn 0.1736528 -0.9848069 0
vn 0.1736524 -0.984807 0
g royale_truck_waggon_lod0_A_0
f 3/3/3 2/2/2 1/1/1
f 4/4/4 1/1/1 2/2/2
f 7/7/7 6/6/6 5/5/5
f 8/8/8 5/5/5 6/6/6
f 11/11/11 10/10/10 9/9/9
f 12/12/12 9/9/9 10/10/10
f 12/12/12 13/13/13 9/9/9
f 14/14/14 9/9/9 13/13/13
f 14/14/14 13/13/13 15/15/15
f 11/11/11 15/15/15 10/10/10
f 16/16/16 15/15/15 13/13/13
f 16/16/16 10/10/10 15/15/15
f 19/19/19 18/18/18 17/17/17
f 20/20/20 17/17/17 18/18/18
f 23/23/23 22/22/22 21/21/21
f 24/24/24 21/21/21 22/22/22
f 27/27/27 26/26/26 25/25/25
f 28/28/28 25/25/25 26/26/26
f 31/31/31 30/30/30 29/29/29
f 32/32/32 29/29/29 30/30/30
f 35/35/35 34/34/34 33/33/33
f 36/36/36 33/33/33 34/34/34
f 39/39/39 38/38/38 37/37/37
f 40/40/40 37/37/37 38/38/38
f 43/43/43 42/42/42 41/41/41
f 44/44/44 41/41/41 42/42/42
f 47/47/47 46/46/46 45/45/45
f 48/48/48 45/45/45 46/46/46
f 51/51/51 50/50/50 49/49/49
f 52/52/52 49/49/49 50/50/50
f 55/55/55 54/54/54 53/53/53
f 56/56/56 53/53/53 54/54/54
f 59/59/59 58/58/58 57/57/57
f 60/60/60 57/57/57 58/58/58
f 63/63/63 62/62/62 61/61/61
f 64/64/64 61/61/61 62/62/62
f 67/67/67 66/66/66 65/65/65
f 68/68/68 65/65/65 66/66/66
f 71/71/71 70/70/70 69/69/69
f 72/72/72 69/69/69 70/70/70
f 75/75/75 74/74/74 73/73/73
f 76/76/76 73/73/73 74/74/74
f 79/79/79 78/78/78 77/77/77
f 80/80/80 77/77/77 78/78/78
f 83/83/83 82/82/82 81/81/81
f 84/84/84 81/81/81 82/82/82
f 87/87/87 86/86/86 85/85/85
f 88/88/88 85/85/85 86/86/86
f 91/91/91 90/90/90 89/89/89
f 92/92/92 89/89/89 90/90/90
f 95/95/95 94/94/94 93/93/93
f 96/96/96 93/93/93 94/94/94
