g royale_fountain_1_lod1
v 0.1794141 0.1794173 6.172573
v 0.3588354 0.3588435 2.08879
v 0.3588354 -0.3588444 2.08879
v 0.1794141 -0.1794243 6.172573
v -0.358855 -0.3588444 2.08879
v -1.076538 -1.076529 0.2861044
v -1.076538 1.076528 0.2861069
v -0.358855 0.3588435 2.08879
v -0.8971118 0.8971052 5.454887
v -0.8971118 0.8971052 4.737202
v 0.8971021 0.8971052 4.737202
v 0.8971021 0.8971052 5.454887
v 3.588425 3.588429 0.717081
v 3.588425 3.588429 -0.0006045532
v 3.588425 -3.588431 -0.000609436
v 3.588425 -3.588431 0.7170761
v -1.614797 1.614791 2.926759
v -1.794221 1.794212 3.285601
v 1.794209 1.794212 3.285604
v 1.614788 1.614791 2.92676
v 1.794209 1.794212 3.285604
v 1.794209 1.794212 2.567917
v 1.794209 -1.794218 2.567916
v 1.794209 -1.794218 3.285601
v 0.3588354 -0.3588444 2.08879
v 1.076521 -1.076529 0.2861044
v -1.076538 -1.076529 0.2861044
v -0.358855 -0.3588444 2.08879
v 3.22958 -3.229589 0.3582333
v 3.588425 -3.588431 0.7170761
v -3.58844 -3.588431 0.7170761
v -3.229597 -3.229589 0.3582333
v -0.1794287 0.1794173 6.172573
v 0.1794141 0.1794173 6.172573
v 0.1794141 -0.1794243 6.172573
v -0.1794287 -0.1794243 6.172573
v -0.1794287 0.1794173 6.172573
v -0.1794287 -0.1794243 6.172573
v -0.358855 -0.3588444 2.08879
v -0.358855 0.3588435 2.08879
v -0.358855 0.3588435 2.08879
v -1.076538 1.076528 0.2861069
v 1.076521 1.076528 0.2861069
v 0.3588354 0.3588435 2.08879
v -0.8073999 0.8073958 5.096045
v 0.8073901 0.8073958 5.096045
v 0.8073901 -0.8073991 5.096045
v -0.8074072 -0.8073991 5.096043
v 0.1794141 -0.1794243 6.172573
v 0.3588354 -0.3588444 2.08879
v -0.358855 -0.3588444 2.08879
v -0.1794287 -0.1794243 6.172573
v -1.614797 1.614791 2.926759
v 1.614788 1.614791 2.92676
v 1.614788 -1.614797 2.926759
v -1.614797 -1.614794 2.926759
v -0.8073999 0.8073958 5.096045
v -0.8971118 0.8971052 5.454887
v 0.8971021 0.8971052 5.454887
v 0.8073901 0.8073958 5.096045
v -0.8971118 0.8971052 4.737202
v -0.8971118 -0.8971086 4.737201
v 0.8971021 -0.8971086 4.737201
v 0.8971021 0.8971052 4.737202
v 1.614788 1.614791 2.92676
v 1.794209 1.794212 3.285604
v 1.794209 -1.794218 3.285601
v 1.614788 -1.614797 2.926759
v -3.229597 -3.229589 0.3582333
v -3.58844 -3.588431 0.7170761
v -3.58844 3.588429 0.7170785
v -3.229597 3.229584 0.3582358
v 3.22958 3.229584 0.3582382
v 3.588425 3.588429 0.717081
v 3.588425 -3.588431 0.7170761
v 3.22958 -3.229589 0.3582333
v 0.8073901 -0.8073991 5.096045
v 0.8971021 -0.8971086 5.454886
v -0.8971118 -0.8971086 5.454886
v -0.8074072 -0.8073991 5.096043
v -1.614797 -1.614794 2.926759
v -1.794231 -1.794218 3.285601
v -1.794221 1.794212 3.285601
v -1.614797 1.614791 2.926759
v -3.58844 -3.588431 0.7170761
v -3.58844 -3.588431 -0.000609436
v -3.58844 3.588429 -0.000609436
v -3.58844 3.588429 0.7170785
v 0.8971021 -0.8971086 5.454886
v 0.8971021 -0.8971086 4.737201
v -0.8971118 -0.8971086 4.737201
v -0.8971118 -0.8971086 5.454886
v -0.8074072 -0.8073991 5.096043
v -0.8971118 -0.8971086 5.454886
v -0.8971118 0.8971052 5.454887
v -0.8073999 0.8073958 5.096045
v -0.8971118 0.8971052 5.454887
v -0.8971118 -0.8971086 5.454886
v -0.8971118 -0.8971086 4.737201
v -0.8971118 0.8971052 4.737202
v -1.794231 -1.794218 3.285601
v -1.794221 -1.794216 2.567916
v -1.794221 1.794212 2.567916
v -1.794221 1.794212 3.285601
v -3.229597 3.229584 0.3582358
v -3.58844 3.588429 0.7170785
v 3.588425 3.588429 0.717081
v 3.22958 3.229584 0.3582382
v -3.229597 3.229584 0.3582358
v 3.22958 3.229584 0.3582382
v 3.22958 -3.229589 0.3582333
v -3.229597 -3.229589 0.3582333
v 3.588425 -3.588431 0.7170761
v 3.588425 -3.588431 -0.000609436
v -3.58844 -3.588431 -0.000609436
v -3.58844 -3.588431 0.7170761
v -0.1794287 0.1794173 6.172573
v -0.358855 0.3588435 2.08879
v 0.3588354 0.3588435 2.08879
v 0.1794141 0.1794173 6.172573
v 0.3588354 -0.3588444 2.08879
v 0.3588354 0.3588435 2.08879
v 1.076521 1.076528 0.2861069
v 1.076521 -1.076529 0.2861044
v 1.794209 -1.794218 3.285601
v 1.794209 -1.794218 2.567916
v -1.794221 -1.794216 2.567916
v -1.794231 -1.794218 3.285601
v 1.614788 -1.614797 2.926759
v 1.794209 -1.794218 3.285601
v -1.794231 -1.794218 3.285601
v -1.614797 -1.614794 2.926759
v 0.8073901 0.8073958 5.096045
v 0.8971021 0.8971052 5.454887
v 0.8971021 -0.8971086 5.454886
v 0.8073901 -0.8073991 5.096045
v -1.794221 1.794212 2.567916
v -1.794221 -1.794216 2.567916
v 1.794209 -1.794218 2.567916
v 1.794209 1.794212 2.567917
v -1.794221 1.794212 3.285601
v -1.794221 1.794212 2.567916
v 1.794209 1.794212 2.567917
v 1.794209 1.794212 3.285604
v 0.8971021 0.8971052 5.454887
v 0.8971021 0.8971052 4.737202
v 0.8971021 -0.8971086 4.737201
v 0.8971021 -0.8971086 5.454886
v -3.58844 3.588429 0.7170785
v -3.58844 3.588429 -0.000609436
v 3.588425 3.588429 -0.0006045532
v 3.588425 3.588429 0.717081
v 0.9174517 0.2510236 3.292914
v 0.9174517 0.07160588 5.467438
v 0.9174517 0.4304498 5.467438
v -0.5104193 -1.80968 0.5813301
v -0.8692645 -1.809677 3.300195
v -0.1515741 -1.809677 3.300195
v 3.495989 -3.496828 0.5831735
v -3.495749 -3.496828 0.5831735
v -3.495749 3.494911 0.5831708
v 3.496005 3.494908 0.5831708
v 1.810657 1.008319 0.5813301
v 1.810657 0.6494769 3.300195
v 1.810665 1.367165 3.300195
v -0.9192718 -0.1946582 3.292914
v -0.9192718 -0.01523738 5.467436
v -0.9192718 -0.3740789 5.467438
v 0.8840396 0.8829594 5.44365
v 0.8840343 -0.8848733 5.44365
v -0.8837969 -0.8848733 5.443649
v -0.8837889 0.8829594 5.44365
v -0.3528961 0.9163446 3.292914
v -0.1734735 0.9163446 5.467438
v -0.5323187 0.9163446 5.467438
v 0.1935309 -0.9183806 3.292914
v 0.0141095 -0.9183782 5.467438
v 0.3729523 -0.9183782 5.467438
v -1.776146 1.775318 3.239805
v 1.776389 1.775313 3.239805
v 1.776389 -1.777228 3.239808
v -1.776146 -1.777228 3.239805
v -1.004998 1.811282 0.5813289
v -0.6461542 1.811282 3.300192
v -1.363842 1.811282 3.300192
v -1.813452 -0.3740795 0.5813301
v -1.813452 -0.01523738 3.300195
v -1.813452 -0.7329217 3.300195
vt 1.6875 -1.375
vt 1.4375 2.375
vt 2.375 2.375
vt 2.125 -1.375
vt 1.6875 0.5
vt 2.3125 -1.3125
vt 0.5 -1.3125
vt 1.125 0.5
vt 1 1
vt 1 0
vt -1.4375 0
vt -1.4375 1
vt 5.840788 -4.952826
vt 5.840788 -5.958994
vt -4.220874 -5.958994
vt -4.220874 -4.952826
vt -3.719984 -5.403199
vt -3.719984 -4.900115
vt 5.335511 -4.900115
vt 5.335511 -5.403199
vt 1 1
vt 1 0
vt -4 0
vt -4 1
vt -0.125 2.3125
vt 0.5 0.5
vt -1.3125 0.5
vt -0.6875 2.3125
vt -3.719984 -5.403199
vt -3.719984 -4.900115
vt 5.335511 -4.900115
vt 5.335511 -5.403199
vt 4.82389 4.773614
vt 3.815339 4.773614
vt 3.815339 5.782166
vt 4.82389 5.782166
vt 1.1875 -1.375
vt 0.75 -1.375
vt 0.5 2.375
vt 1.4375 2.375
vt -0.125 0.5
vt 0.5 -1.3125
vt -1.3125 -1.3125
vt -0.6875 0.5
vt -1.393224 0.9167815
vt -1.393224 -1.755846
vt -4.034411 -1.755846
vt -4.034411 0.9167815
vt -1.125 -1.375
vt -1.375 2.375
vt -0.4375 2.375
vt -0.6875 -1.375
vt 0.5876667 0.853897
vt 0.5876667 -3.705293
vt -3.971525 -3.705293
vt -3.971525 0.853897
vt -4.034411 -0.8125638
vt -4.034411 -0.6867968
vt -1.393224 -0.6867968
vt -1.393224 -0.8125638
vt -1.204569 -1.913059
vt -4.223066 -1.913059
vt -4.223066 1.105441
vt -1.204569 1.105441
vt -3.971525 -2.133159
vt -3.971525 -1.881618
vt 0.5562226 -1.881618
vt 0.5562226 -2.133159
vt -3.719984 -5.403199
vt -3.719984 -4.900115
vt 5.335511 -4.900115
vt 5.335511 -5.403199
vt -3.719984 -5.403199
vt -3.719984 -4.900115
vt 5.335511 -4.900115
vt 5.335511 -5.403199
vt -4.034411 -0.8125638
vt -4.034411 -0.6867968
vt -1.393224 -0.6867968
vt -1.393224 -0.8125638
vt -3.719984 -5.403199
vt -3.719984 -4.900115
vt 5.335511 -4.900115
vt 5.335511 -5.403199
vt 5.838595 -4.959173
vt 5.838595 -5.965341
vt -4.223066 -5.965341
vt -4.223066 -4.959173
vt 1 1
vt 1 0
vt -1.4375 0
vt -1.4375 1
vt -4.034411 -0.8125638
vt -4.034411 -0.6867968
vt -1.393224 -0.6867968
vt -1.393224 -0.8125638
vt -1.4375 1
vt 1 1
vt 1 0
vt -1.4375 0
vt 1 1
vt 1 0
vt -4.0625 0
vt -4.0625 1
vt -3.719984 -5.403199
vt -3.719984 -4.900115
vt 5.335511 -4.900115
vt 5.335511 -5.403199
vt 5.335511 0.6023554
vt 5.335511 -8.484582
vt -3.719984 -8.484582
vt -3.719984 0.6023554
vt 5.841719 -4.454822
vt 5.841719 -5.460989
vt -4.219946 -5.460989
vt -4.219946 -4.454822
vt -0.1875 -1.375
vt -0.4375 2.375
vt 0.5 2.375
vt 0.25 -1.375
vt 1.125 2.3125
vt 1.6875 2.3125
vt 2.3125 0.5
vt 0.5 0.5
vt 1 1
vt 1 0
vt -4 0
vt -4 1
vt -3.971525 -2.133159
vt -3.971525 -1.881618
vt 0.5562226 -1.881618
vt 0.5562226 -2.133159
vt -4.034411 -0.8125638
vt -4.034411 -0.6867968
vt -1.393224 -0.6867968
vt -1.393224 -0.8125638
vt 0.8077642 -3.925392
vt -4.223066 -3.925392
vt -4.223066 1.105441
vt 0.8077642 1.105441
vt 1 1
vt 1 0
vt -4.0625 0
vt -4.0625 1
vt 1 1
vt 1 0
vt -1.4375 0
vt -1.4375 1
vt 5.841721 -4.454819
vt 5.841721 -5.460986
vt -4.219944 -5.460986
vt -4.219944 -4.454819
vt 3.046998 0.5339716
vt -0.1065369 0.007247495
vt -0.1065367 0.5339715
vt 2.572996 0.9984937
vt -1.182217 0.007247613
vt -1.182217 0.9984937
vt 5.044997 -4.045006
vt -4.045003 -4.045003
vt -4.045 5.044997
vt 5.045 5.044994
vt 2.572996 0.9984937
vt -1.182217 0.007247613
vt -1.182217 0.9984937
vt 3.046998 0.5339716
vt -0.1065369 0.007247495
vt -0.1065367 0.5339715
vt 1.624999 1.624995
vt 1.624998 -0.6250048
vt -0.6250017 -0.6250041
vt -0.6250011 1.624996
vt 3.046998 0.5339716
vt -0.1065369 0.007247495
vt -0.1065367 0.5339715
vt 3.046998 0.5339716
vt -0.1065369 0.007247495
vt -0.1065367 0.5339715
vt -1.750001 2.749996
vt 2.749999 2.749995
vt 2.749998 -1.750005
vt -1.750002 -1.750004
vt 2.572996 0.9984937
vt -1.182217 0.007247613
vt -1.182217 0.9984937
vt 2.572996 0.9984937
vt -1.182217 0.007247613
vt -1.182217 0.9984937
vn 0.9990363 0 0.04389275
vn 0.9990363 0 0.04389275
vn 0.9990363 0 0.04389275
vn 0.9990363 0 0.04389275
vn -0.929078 -3.12546E-07 0.3698838
vn -0.929078 -3.12546E-07 0.3698838
vn -0.929078 -3.12546E-07 0.3698838
vn -0.929078 -3.12546E-07 0.3698838
vn 0 1 0
vn 0 1 0
vn 0 1 0
vn 0 1 0
vn 1 0 0
vn 1 0 0
vn 1 0 0
vn 1 0 0
vn -2.499081E-07 -0.8944275 0.447213
vn -2.499081E-07 -0.8944275 0.447213
vn -2.499081E-07 -0.8944275 0.447213
vn -2.499081E-07 -0.8944275 0.447213
vn 0.7190541 -3.359209E-05 0.6949541
vn 1 0 0
vn 1 0 0
vn 1 0 0
vn 0 -0.9290779 0.3698841
vn 0 -0.9290779 0.3698841
vn 0 -0.9290779 0.3698841
vn 0 -0.9290779 0.3698841
vn 0 0.7071078 0.7071058
vn 0 0.7071078 0.7071058
vn 0 0.7071078 0.7071058
vn 0 0.7071078 0.7071058
vn 0 0 1
vn 0 0 1
vn 0 0 1
vn 0 0 1
vn -0.9990362 0 0.04389394
vn -0.9990362 0 0.04389394
vn -0.9990362 0 0.04389394
vn -0.9990362 0 0.04389394
vn 0 0.9290777 0.3698845
vn 0 0.9290777 0.3698845
vn 0 0.9290777 0.3698845
vn 0 0.9290777 0.3698845
vn -5.99219E-07 -3.779738E-07 1
vn -5.99219E-07 -3.779738E-07 1
vn -5.99219E-07 -3.779738E-07 1
vn -5.99219E-07 -3.779738E-07 1
vn 0 -0.9990363 0.04389245
vn 0 -0.9990363 0.04389245
vn 0 -0.9990363 0.04389245
vn 0 -0.9990363 0.04389245
vn -2.247076E-07 -1.889875E-07 1
vn -2.247076E-07 -1.889875E-07 1
vn -2.247076E-07 -1.889875E-07 1
vn -2.247076E-07 -1.889875E-07 1
vn 0 -0.9701433 0.2425323
vn 0 -0.9701433 0.2425323
vn 0 -0.9701433 0.2425323
vn 0 -0.9701433 0.2425323
vn 0 6.803555E-07 -1
vn 0 6.803555E-07 -1
vn 0 6.803555E-07 -1
vn 0 6.803555E-07 -1
vn -0.8944276 -2.395706E-07 0.4472128
vn -0.8944276 -2.395706E-07 0.4472128
vn 0.1339321 -0.1323515 0.9821126
vn -0.8944276 -2.395706E-07 0.4472128
vn 0.7071068 -2.458616E-07 0.7071068
vn 0.7071068 -2.458616E-07 0.7071068
vn 0.7071068 -2.458616E-07 0.7071068
vn 0.7071068 -2.458616E-07 0.7071068
vn -0.7071044 -5.19925E-07 0.7071092
vn -0.7071044 -5.19925E-07 0.7071092
vn -0.7071044 -5.19925E-07 0.7071092
vn -0.7071044 -5.19925E-07 0.7071092
vn 0 0.9701433 0.2425326
vn 0 0.9701433 0.2425326
vn 0 0.9701433 0.2425326
vn 0 0.9701433 0.2425326
vn 0.89442 -1.285232E-06 0.447228
vn 0.89442 -1.285232E-06 0.447228
vn -0.1339529 0.1323513 0.9821098
vn 0.89442 -1.285232E-06 0.447228
vn -1 0 0
vn -1 0 0
vn -1 0 0
vn -1 0 0
vn 0 -1 0
vn 0 -1 0
vn 0 -1 0
vn 0 -1 0
vn 0.9701442 -2.279088E-06 0.2425291
vn 0.9701442 -2.279088E-06 0.2425291
vn 0.9701442 -2.279088E-06 0.2425291
vn 0.9701442 -2.279088E-06 0.2425291
vn -1 0 0
vn -1 0 0
vn -1 0 0
vn -1 0 0
vn -1 1.365098E-06 -6.803551E-06
vn -1 1.365098E-06 -6.803551E-06
vn -1 1.365098E-06 -6.803551E-06
vn -1 1.365098E-06 -6.803551E-06
vn -2.504894E-07 -0.7071044 0.7071092
vn -2.504894E-07 -0.7071044 0.7071092
vn -2.504894E-07 -0.7071044 0.7071092
vn -2.504894E-07 -0.7071044 0.7071092
vn -1.872561E-07 -5.669625E-07 1
vn -1.872561E-07 -5.669625E-07 1
vn -1.872561E-07 -5.669625E-07 1
vn -1.872561E-07 -5.669625E-07 1
vn 0 -1 0
vn 0 -1 0
vn 0 -1 0
vn 0 -1 0
vn 0 0.9990362 0.04389395
vn 0 0.9990362 0.04389395
vn 0 0.9990362 0.04389395
vn 0 0.9990362 0.04389395
vn 0.9290776 -3.155806E-07 0.3698848
vn 0.9290776 -3.155806E-07 0.3698848
vn 0.9290776 -3.155806E-07 0.3698848
vn 0.9290776 -3.155806E-07 0.3698848
vn -3.40177E-07 -1 -1.668451E-06
vn -3.40177E-07 -1 -1.668451E-06
vn -3.40177E-07 -1 -1.668451E-06
vn -3.40177E-07 -1 -1.668451E-06
vn 3.2131E-07 0.894426 0.447216
vn 3.2131E-07 0.894426 0.447216
vn 3.2131E-07 0.894426 0.447216
vn 3.2131E-07 0.894426 0.447216
vn -0.9701417 -1.105592E-07 0.242539
vn -0.9701417 -1.105592E-07 0.242539
vn -0.9701417 -1.105592E-07 0.242539
vn -0.9701417 -1.105592E-07 0.242539
vn 1.805122E-07 1.700888E-07 -1
vn 1.805122E-07 1.700888E-07 -1
vn 1.805122E-07 1.700888E-07 -1
vn 1.805122E-07 1.700888E-07 -1
vn 0 1 0
vn 0 1 0
vn 0 1 0
vn 0 1 0
vn 1 0 0
vn 1 0 0
vn 1 0 0
vn 1 0 0
vn 0 1 0
vn 0 1 0
vn 0 1 0
vn 0 1 0
vn 1 0 0
vn 1 0 0
vn 1 0 0
vn 0 -1 9.008402E-07
vn 0 -1 9.008402E-07
vn 0 -1 9.008402E-07
vn 0 3.710085E-07 1
vn 0 3.710085E-07 1
vn 0 3.710085E-07 1
vn 0 3.710085E-07 1
vn 1 -1.040975E-05 -1.346919E-06
vn 1 -1.040975E-05 -1.346919E-06
vn 1 -1.040975E-05 -1.346919E-06
vn -1 2.548579E-07 0
vn -1 2.548579E-07 0
vn -1 2.548579E-07 0
vn -4.999636E-07 -3.452529E-07 1
vn -4.999636E-07 -3.452529E-07 1
vn -4.999636E-07 -3.452529E-07 1
vn -4.999636E-07 -3.452529E-07 1
vn 0 1 0
vn 0 1 0
vn 0 1 0
vn 0 -1 1.126352E-06
vn 0 -1 1.126352E-06
vn 0 -1 1.126352E-06
vn -4.333215E-07 3.865655E-07 1
vn -4.333215E-07 3.865655E-07 1
vn -4.333215E-07 3.865655E-07 1
vn -4.333215E-07 3.865655E-07 1
vn 0 1 0
vn 0 1 0
vn 0 1 0
vn -1 0 0
vn -1 0 0
vn -1 0 0
g royale_fountain_1_lod1_0
f 3/3/3 2/2/2 1/1/1
f 4/4/4 3/3/3 1/1/1
f 7/7/7 6/6/6 5/5/5
f 8/8/8 7/7/7 5/5/5
f 11/11/11 10/10/10 9/9/9
f 12/12/12 11/11/11 9/9/9
f 15/15/15 14/14/14 13/13/13
f 16/16/16 15/15/15 13/13/13
f 19/19/19 18/18/18 17/17/17
f 20/20/20 19/19/19 17/17/17
f 23/23/23 22/22/22 21/21/21
f 24/24/24 23/23/23 21/21/21
f 27/27/27 26/26/26 25/25/25
f 28/28/28 27/27/27 25/25/25
f 31/31/31 30/30/30 29/29/29
f 32/32/32 31/31/31 29/29/29
f 35/35/35 34/34/34 33/33/33
f 36/36/36 35/35/35 33/33/33
f 39/39/39 38/38/38 37/37/37
f 40/40/40 39/39/39 37/37/37
f 43/43/43 42/42/42 41/41/41
f 44/44/44 43/43/43 41/41/41
f 47/47/47 46/46/46 45/45/45
f 48/48/48 47/47/47 45/45/45
f 51/51/51 50/50/50 49/49/49
f 52/52/52 51/51/51 49/49/49
f 55/55/55 54/54/54 53/53/53
f 56/56/56 55/55/55 53/53/53
f 59/59/59 58/58/58 57/57/57
f 60/60/60 59/59/59 57/57/57
f 63/63/63 62/62/62 61/61/61
f 64/64/64 63/63/63 61/61/61
f 67/67/67 66/66/66 65/65/65
f 68/68/68 67/67/67 65/65/65
f 71/71/71 70/70/70 69/69/69
f 72/72/72 71/71/71 69/69/69
f 75/75/75 74/74/74 73/73/73
f 76/76/76 75/75/75 73/73/73
f 79/79/79 78/78/78 77/77/77
f 80/80/80 79/79/79 77/77/77
f 83/83/83 82/82/82 81/81/81
f 84/84/84 83/83/83 81/81/81
f 87/87/87 86/86/86 85/85/85
f 88/88/88 87/87/87 85/85/85
f 91/91/91 90/90/90 89/89/89
f 92/92/92 91/91/91 89/89/89
f 95/95/95 94/94/94 93/93/93
f 96/96/96 95/95/95 93/93/93
f 99/99/99 98/98/98 97/97/97
f 100/100/100 99/99/99 97/97/97
f 103/103/103 102/102/102 101/101/101
f 104/104/104 103/103/103 101/101/101
f 107/107/107 106/106/106 105/105/105
f 108/108/108 107/107/107 105/105/105
f 111/111/111 110/110/110 109/109/109
f 112/112/112 111/111/111 109/109/109
f 115/115/115 114/114/114 113/113/113
f 116/116/116 115/115/115 113/113/113
f 119/119/119 118/118/118 117/117/117
f 120/120/120 119/119/119 117/117/117
f 123/123/123 122/122/122 121/121/121
f 124/124/124 123/123/123 121/121/121
f 127/127/127 126/126/126 125/125/125
f 128/128/128 127/127/127 125/125/125
f 131/131/131 130/130/130 129/129/129
f 132/132/132 131/131/131 129/129/129
f 135/135/135 134/134/134 133/133/133
f 136/136/136 135/135/135 133/133/133
f 139/139/139 138/138/138 137/137/137
f 140/140/140 139/139/139 137/137/137
f 143/143/143 142/142/142 141/141/141
f 144/144/144 143/143/143 141/141/141
f 147/147/147 146/146/146 145/145/145
f 148/148/148 147/147/147 145/145/145
f 151/151/151 150/150/150 149/149/149
f 152/152/152 151/151/151 149/149/149
g royale_fountain_1_lod1_1
f 155/155/155 154/154/154 153/153/153
f 158/158/158 157/157/157 156/156/156
f 161/161/161 160/160/160 159/159/159
f 162/162/162 161/161/161 159/159/159
f 165/165/165 164/164/164 163/163/163
f 168/168/168 167/167/167 166/166/166
f 171/171/171 170/170/170 169/169/169
f 172/172/172 171/171/171 169/169/169
f 175/175/175 174/174/174 173/173/173
f 178/178/178 177/177/177 176/176/176
f 181/181/181 180/180/180 179/179/179
f 182/182/182 181/181/181 179/179/179
f 185/185/185 184/184/184 183/183/183
f 188/188/188 187/187/187 186/186/186
