g royal_grass_mesh_lod0
v -1.445921 0 -0.8831368
v -1.239055 0 -1.861506
v -1.239055 0.9999999 -1.861506
v -1.445921 0.9999999 -0.8831368
v -0.8533036 0 -1.268888
v -1.831673 0 -1.475755
v -1.831673 1 -1.475755
v -0.8533036 1 -1.268888
v 0.3531198 0 -0.7065991
v 0.1242097 0 -1.680047
v 0.1242097 0.9999999 -1.680047
v 0.3531198 0.9999999 -0.7065991
v 0.7253885 0 -1.307778
v -0.248059 0 -1.078868
v -0.248059 1 -1.078868
v 0.7253885 1 -1.307778
v 1.710525 0 -0.09502106
v 1.481614 0 -1.068469
v 1.481614 0.9999999 -1.068469
v 1.710525 0.9999999 -0.09502106
v 2.082793 0 -0.6961998
v 1.109346 0 -0.4672898
v 1.109346 1 -0.4672898
v 2.082793 1 -0.6961998
v -0.8252866 0 0.4867239
v -1.054197 0 -0.4867236
v -1.054197 0.9999999 -0.4867236
v -0.8252866 0.9999999 0.4867239
v -0.453018 0 -0.1144549
v -1.426465 0 0.1144551
v -1.426465 1 0.1144551
v -0.453018 1 -0.1144549
v 0.9050316 0 0.7999712
v 0.6761216 0 -0.1734763
v 0.6761216 0.9999999 -0.1734763
v 0.9050316 0.9999999 0.7999712
v 1.2773 0 0.1987924
v 0.3038529 0 0.4277024
v 0.3038529 1 0.4277024
v 1.2773 1 0.1987924
v -1.44103 0 -0.8821025
v -1.44103 0.9999999 -0.8821025
v -1.234163 0.9999999 -1.860472
v -1.234163 0 -1.860472
v -0.8522694 0 -1.27378
v -0.8522694 1 -1.27378
v -1.830638 1 -1.480646
v -1.830638 0 -1.480646
v 0.3579869 0 -0.7077436
v 0.3579869 0.9999999 -0.7077436
v 0.1290768 0.9999999 -1.681191
v 0.1290768 0 -1.681191
v 0.7242441 0 -1.312645
v 0.7242441 1 -1.312645
v -0.2492034 1 -1.083735
v -0.2492034 0 -1.083735
v 1.715392 0 -0.09616552
v 1.715392 0.9999999 -0.09616552
v 1.486481 0.9999999 -1.069613
v 1.486481 0 -1.069613
v 2.081649 0 -0.7010669
v 2.081649 1 -0.7010669
v 1.108201 1 -0.472157
v 1.108201 0 -0.472157
v -0.8204195 0 0.4855794
v -0.8204195 0.9999999 0.4855794
v -1.04933 0.9999999 -0.487868
v -1.04933 0 -0.487868
v -0.4541624 0 -0.119322
v -0.4541624 1 -0.119322
v -1.42761 1 0.109588
v -1.42761 0 0.109588
v 0.9098988 0 0.7988268
v 0.9098988 0.9999999 0.7988268
v 0.6809887 0.9999999 -0.1746207
v 0.6809887 0 -0.1746207
v 1.276156 0 0.1939253
v 1.276156 1 0.1939253
v 0.3027085 1 0.4228353
v 0.3027085 0 0.4228353
vt 0.2510377 0.0001000166
vt 0.7508379 9.995699E-05
vt 0.7508379 0.4999001
vt 0.2510378 0.4999001
vt 0.7508379 0.0001000166
vt 0.2510377 0.0001000166
vt 0.2510378 0.4999001
vt 0.7508379 0.4999001
vt 0.2510377 0.0001000166
vt 0.7508379 9.995699E-05
vt 0.7508379 0.4999001
vt 0.2510378 0.4999001
vt 0.7508379 0.0001000166
vt 0.2510377 0.0001000166
vt 0.2510378 0.4999001
vt 0.7508379 0.4999001
vt 0.2510377 0.0001000166
vt 0.7508379 9.995699E-05
vt 0.7508379 0.4999001
vt 0.2510378 0.4999001
vt 0.7508379 0.0001000166
vt 0.2510377 0.0001000166
vt 0.2510378 0.4999001
vt 0.7508379 0.4999001
vt 0.2510377 0.0001000166
vt 0.7508379 9.995699E-05
vt 0.7508379 0.4999001
vt 0.2510378 0.4999001
vt 0.7508379 0.0001000166
vt 0.2510377 0.0001000166
vt 0.2510378 0.4999001
vt 0.7508379 0.4999001
vt 0.2510377 0.0001000166
vt 0.7508379 9.995699E-05
vt 0.7508379 0.4999001
vt 0.2510378 0.4999001
vt 0.7508379 0.0001000166
vt 0.2510377 0.0001000166
vt 0.2510378 0.4999001
vt 0.7508379 0.4999001
vt 0.2510377 0.0001000166
vt 0.2510378 0.4999001
vt 0.7508379 0.4999001
vt 0.7508379 9.995699E-05
vt 0.7508379 0.0001000166
vt 0.7508379 0.4999001
vt 0.2510378 0.4999001
vt 0.2510377 0.0001000166
vt 0.2510377 0.0001000166
vt 0.2510378 0.4999001
vt 0.7508379 0.4999001
vt 0.7508379 9.995699E-05
vt 0.7508379 0.0001000166
vt 0.7508379 0.4999001
vt 0.2510378 0.4999001
vt 0.2510377 0.0001000166
vt 0.2510377 0.0001000166
vt 0.2510378 0.4999001
vt 0.7508379 0.4999001
vt 0.7508379 9.995699E-05
vt 0.7508379 0.0001000166
vt 0.7508379 0.4999001
vt 0.2510378 0.4999001
vt 0.2510377 0.0001000166
vt 0.2510377 0.0001000166
vt 0.2510378 0.4999001
vt 0.7508379 0.4999001
vt 0.7508379 9.995699E-05
vt 0.7508379 0.0001000166
vt 0.7508379 0.4999001
vt 0.2510378 0.4999001
vt 0.2510377 0.0001000166
vt 0.2510377 0.0001000166
vt 0.2510378 0.4999001
vt 0.7508379 0.4999001
vt 0.7508379 9.995699E-05
vt 0.7508379 0.0001000166
vt 0.7508379 0.4999001
vt 0.2510378 0.4999001
vt 0.2510377 0.0001000166
vn -0.9783691 0 -0.2068667
vn -0.9783691 0 -0.2068667
vn -0.9783691 0 -0.2068667
vn -0.9783691 0 -0.2068667
vn -0.2068668 0 0.9783691
vn -0.2068668 0 0.9783691
vn -0.2068668 0 0.9783691
vn -0.2068668 0 0.9783691
vn -0.9734476 0 0.2289101
vn -0.9734476 0 0.2289101
vn -0.9734476 0 0.2289101
vn -0.9734476 0 0.2289101
vn 0.22891 0 0.9734476
vn 0.22891 0 0.9734476
vn 0.22891 0 0.9734476
vn 0.22891 0 0.9734476
vn -0.9734476 0 0.2289101
vn -0.9734476 0 0.2289101
vn -0.9734476 0 0.2289101
vn -0.9734476 0 0.2289101
vn 0.22891 0 0.9734476
vn 0.22891 0 0.9734476
vn 0.22891 0 0.9734476
vn 0.22891 0 0.9734476
vn -0.9734476 0 0.2289101
vn -0.9734476 0 0.2289101
vn -0.9734476 0 0.2289101
vn -0.9734476 0 0.2289101
vn 0.22891 0 0.9734476
vn 0.22891 0 0.9734476
vn 0.22891 0 0.9734476
vn 0.22891 0 0.9734476
vn -0.9734476 0 0.2289101
vn -0.9734476 0 0.2289101
vn -0.9734476 0 0.2289101
vn -0.9734476 0 0.2289101
vn 0.22891 0 0.9734476
vn 0.22891 0 0.9734476
vn 0.22891 0 0.9734476
vn 0.22891 0 0.9734476
vn 0.9783691 0 0.2068667
vn 0.9783691 0 0.2068667
vn 0.9783691 0 0.2068667
vn 0.9783691 0 0.2068667
vn 0.2068668 0 -0.9783691
vn 0.2068668 0 -0.9783691
vn 0.2068668 0 -0.9783691
vn 0.2068668 0 -0.9783691
vn 0.9734476 0 -0.2289101
vn 0.9734476 0 -0.2289101
vn 0.9734476 0 -0.2289101
vn 0.9734476 0 -0.2289101
vn -0.22891 0 -0.9734476
vn -0.22891 0 -0.9734476
vn -0.22891 0 -0.9734476
vn -0.22891 0 -0.9734476
vn 0.9734476 0 -0.2289101
vn 0.9734476 0 -0.2289101
vn 0.9734476 0 -0.2289101
vn 0.9734476 0 -0.2289101
vn -0.22891 0 -0.9734476
vn -0.22891 0 -0.9734476
vn -0.22891 0 -0.9734476
vn -0.22891 0 -0.9734476
vn 0.9734476 0 -0.2289101
vn 0.9734476 0 -0.2289101
vn 0.9734476 0 -0.2289101
vn 0.9734476 0 -0.2289101
vn -0.22891 0 -0.9734476
vn -0.22891 0 -0.9734476
vn -0.22891 0 -0.9734476
vn -0.22891 0 -0.9734476
vn 0.9734476 0 -0.2289101
vn 0.9734476 0 -0.2289101
vn 0.9734476 0 -0.2289101
vn 0.9734476 0 -0.2289101
vn -0.22891 0 -0.9734476
vn -0.22891 0 -0.9734476
vn -0.22891 0 -0.9734476
vn -0.22891 0 -0.9734476
g royal_grass_mesh_lod0_0
f 3/3/3 2/2/2 1/1/1
f 4/4/4 3/3/3 1/1/1
f 7/7/7 6/6/6 5/5/5
f 8/8/8 7/7/7 5/5/5
f 11/11/11 10/10/10 9/9/9
f 12/12/12 11/11/11 9/9/9
f 15/15/15 14/14/14 13/13/13
f 16/16/16 15/15/15 13/13/13
f 19/19/19 18/18/18 17/17/17
f 20/20/20 19/19/19 17/17/17
f 23/23/23 22/22/22 21/21/21
f 24/24/24 23/23/23 21/21/21
f 27/27/27 26/26/26 25/25/25
f 28/28/28 27/27/27 25/25/25
f 31/31/31 30/30/30 29/29/29
f 32/32/32 31/31/31 29/29/29
f 35/35/35 34/34/34 33/33/33
f 36/36/36 35/35/35 33/33/33
f 39/39/39 38/38/38 37/37/37
f 40/40/40 39/39/39 37/37/37
f 43/43/43 42/42/42 41/41/41
f 44/44/44 43/43/43 41/41/41
f 47/47/47 46/46/46 45/45/45
f 48/48/48 47/47/47 45/45/45
f 51/51/51 50/50/50 49/49/49
f 52/52/52 51/51/51 49/49/49
f 55/55/55 54/54/54 53/53/53
f 56/56/56 55/55/55 53/53/53
f 59/59/59 58/58/58 57/57/57
f 60/60/60 59/59/59 57/57/57
f 63/63/63 62/62/62 61/61/61
f 64/64/64 63/63/63 61/61/61
f 67/67/67 66/66/66 65/65/65
f 68/68/68 67/67/67 65/65/65
f 71/71/71 70/70/70 69/69/69
f 72/72/72 71/71/71 69/69/69
f 75/75/75 74/74/74 73/73/73
f 76/76/76 75/75/75 73/73/73
f 79/79/79 78/78/78 77/77/77
f 80/80/80 79/79/79 77/77/77
