g royale_carriage_locomotiv_LOD_0_A
v 1.759291 5.126364 -0.980313
v 5.999897 5.126364 -0.9803132
v 5.999897 5.126364 0.9803128
v 1.759291 5.126365 0.9803128
v -8.073412 1.727893 -1.155766
v -8.07341 4.952682 -1.155767
v -8.073412 4.952682 1.155767
v -8.073412 1.727893 1.155767
v 1.759291 4.952681 -1.155768
v -8.07341 4.952682 -1.155767
v -8.073412 1.727893 -1.155766
v 1.759291 1.727893 -1.155767
v -8.073412 4.952682 1.155767
v -8.07341 4.952682 -1.155767
v 1.759291 4.952681 -1.155768
v 1.759291 4.952682 1.155767
v 1.759291 1.727893 1.155767
v -8.073412 1.727893 1.155767
v -8.073412 4.952682 1.155767
v 1.759291 4.952682 1.155767
v 1.759291 5.126364 -0.980313
v 1.759291 4.760537 -1.461133
v 5.999897 4.760538 -1.461133
v 5.999897 5.126364 -0.9803132
v 5.999897 4.760537 1.461133
v 1.759291 4.760538 1.461133
v 1.759291 5.126365 0.9803128
v 5.999897 5.126364 0.9803128
v 1.759291 5.126364 -0.980313
v 1.759291 5.126365 0.9803128
v 1.759291 4.760538 1.461133
v 1.759291 4.760537 -1.461133
v 1.759291 1.727893 1.461133
v 1.759291 1.727893 -1.461133
v 5.999897 5.126364 0.9803128
v 5.999897 5.126364 -0.9803132
v 5.999897 4.760538 -1.461133
v 5.999897 4.760537 1.461133
v 5.999897 4.560304 1.261295
v 5.999897 3.732723 1.261295
v 5.999897 1.727893 1.461133
v 5.999897 3.732723 -1.249847
v 5.999897 1.727893 -1.461133
v 5.999897 4.760538 -1.461133
v 5.999897 4.560304 -1.249847
v 5.999897 4.560304 -1.249847
v 6 1.727893 1.174327
v 6 3.32454 1.174327
v 7.582226 3.32454 1.174327
v 7.582226 1.727893 1.174327
v 6 3.32454 -1.174323
v 6 1.727893 -1.174323
v 7.582226 1.727893 -1.174323
v 7.582226 3.32454 -1.174323
v 7.89957 3.3279 0.8220651
v 7.89957 3.3279 -0.8220606
v 7.892734 1.727893 -0.8220606
v 7.892734 1.727893 0.8220651
v 7.582226 1.727893 1.174327
v 7.582226 3.32454 1.174327
v 7.89957 3.3279 0.8220651
v 7.892734 1.727893 0.8220651
v 7.582226 3.32454 -1.174323
v 7.582226 1.727893 -1.174323
v 7.892734 1.727893 -0.8220606
v 7.89957 3.3279 -0.8220606
v 6.000736 3.680858 0.5632271
v 6.000736 3.680858 -0.5632224
v 7.276276 3.680858 -0.5632226
v 7.276276 3.680858 0.5632271
v 6.000736 3.325514 0.5632271
v 6.000736 3.680858 0.5632271
v 7.276276 3.680858 0.5632271
v 7.582413 3.325514 0.5632271
v 7.582413 3.325514 0.5632271
v 7.276276 3.680858 0.5632271
v 7.276276 3.680858 -0.5632226
v 7.582413 3.325514 -0.5632227
v 7.582413 3.325514 -0.5632227
v 7.276276 3.680858 -0.5632226
v 6.000736 3.680858 -0.5632224
v 6.000736 3.325514 -0.5632224
v 6 3.32454 1.174327
v 6 3.32454 -1.174323
v 7.582226 3.32454 -1.174323
v 7.582226 3.32454 1.174327
v 7.89957 3.3279 -0.8220606
v 7.89957 3.3279 0.8220651
v 8.169322 1.727893 1.313529
v 8.169322 2.154994 1.313529
v 8.358567 2.154994 1.313529
v 8.358567 1.727893 1.313529
v 8.169322 2.579425 0.8913282
v 8.169322 2.579425 -0.886379
v 8.358567 2.579425 -0.886379
v 8.358567 2.579425 0.8913282
v 8.169322 2.154994 -1.312133
v 8.169322 1.727893 -1.312133
v 8.358567 1.727893 -1.312133
v 8.358567 2.154994 -1.312133
v 8.358567 2.154994 -1.312133
v 8.358567 1.727893 -1.312133
v 8.358567 1.727893 1.313529
v 8.358567 2.154994 1.313529
v 8.358567 2.579425 -0.886379
v 8.358567 2.579425 0.8913282
v 8.169322 2.154994 1.313529
v 8.169322 1.727893 1.313529
v 8.169322 1.727893 -1.312133
v 8.169322 2.154994 -1.312133
v 8.169322 2.579425 0.8913282
v 8.169322 2.579425 -0.886379
v 8.169322 2.579425 0.8913282
v 8.358567 2.579425 0.8913282
v 8.358567 2.154994 1.313529
v 8.169322 2.154994 1.313529
v 8.169322 2.154994 -1.312133
v 8.358567 2.154994 -1.312133
v 8.358567 2.579425 -0.886379
v 8.169322 2.579425 -0.886379
v 1.759291 1.727893 -1.461133
v 2.199079 1.727893 -1.461133
v 2.199079 4.560304 -1.461133
v 1.759291 4.760537 -1.461133
v 3.66932 4.560304 -1.461133
v 4.702025 4.560304 -1.461133
v 5.999897 4.760538 -1.461133
v 5.848269 4.560304 -1.461133
v 3.66932 1.727893 -1.461133
v 4.702025 3.388392 -1.461133
v 5.848269 3.388392 -1.461133
v 5.999897 1.727893 -1.461133
v 5.848269 4.560304 -1.461133
v 5.999897 4.760538 -1.461133
v 5.848269 4.560304 1.461133
v 5.999897 4.760537 1.461133
v 5.999897 1.727893 1.461133
v 5.848269 3.388392 1.461133
v 4.702025 3.388392 1.461133
v 3.66932 1.727893 1.461133
v 3.66932 4.560304 1.461133
v 4.702025 4.560304 1.461133
v 2.199079 4.560304 1.461133
v 1.759291 4.760538 1.461133
v 2.199079 1.727893 1.461133
v 1.759291 1.727893 1.461133
v 5.999897 4.560304 1.261295
v 5.848269 4.560304 1.261294
v 5.848269 3.732723 1.261295
v 5.999897 3.732723 1.261295
v 5.999897 4.560304 -1.249847
v 5.848269 4.560304 -1.249847
v 5.848269 4.560304 1.261294
v 5.999897 4.560304 1.261295
v 4.702025 4.560304 -1.312133
v 4.702025 4.560304 -1.461133
v 5.848269 4.560304 -1.461133
v 4.702025 4.560304 1.313529
v 5.848269 4.560304 1.461133
v 4.702025 4.560304 1.461133
v 3.66932 4.560304 -1.312133
v 3.66932 4.560304 1.313529
v 2.199079 4.560304 -1.461133
v 3.66932 4.560304 -1.461133
v 2.199079 4.560304 1.461133
v 3.66932 4.560304 1.461133
v 3.66932 1.727893 1.461133
v 3.66932 1.727893 1.313529
v 3.66932 4.560304 1.313529
v 3.66932 4.560304 1.461133
v 3.66932 4.560304 -1.461133
v 3.66932 4.560304 -1.312133
v 3.66932 1.727893 -1.312133
v 3.66932 1.727893 -1.461133
v 4.702025 3.388392 1.461133
v 4.702025 3.388392 1.313529
v 5.848269 3.388392 1.313529
v 5.848269 3.388392 1.461133
v 5.848269 3.388392 1.461133
v 5.848269 3.388392 1.313529
v 5.848269 3.732723 1.261295
v 5.848269 4.560304 1.261294
v 5.848269 4.560304 1.461133
v 5.848269 3.388392 -1.312133
v 5.84827 1.727893 -1.312133
v 5.84827 1.727893 1.313529
v 5.848269 3.732723 -1.249847
v 5.848269 3.388392 -1.461133
v 5.848269 4.560304 -1.461133
v 5.848269 4.560304 -1.249847
v 4.702025 4.560304 1.461133
v 4.702025 4.560304 1.313529
v 4.702025 3.388392 1.313529
v 4.702025 3.388392 1.461133
v 4.702025 3.388392 -1.461133
v 4.702025 3.388392 -1.312133
v 4.702025 4.560304 -1.312133
v 4.702025 4.560304 -1.461133
v 5.999897 3.732723 1.261295
v 5.848269 3.732723 1.261295
v 5.848269 3.732723 -1.249847
v 5.999897 3.732723 -1.249847
v 5.999897 3.732723 -1.249847
v 5.848269 3.732723 -1.249847
v 5.848269 4.560304 -1.249847
v 5.999897 4.560304 -1.249847
v 5.848269 3.388392 -1.461133
v 5.848269 3.388392 -1.312133
v 4.702025 3.388392 -1.312133
v 4.702025 3.388392 -1.461133
v 3.66932 1.727893 1.313529
v 4.702025 3.388392 1.313529
v 4.702025 4.560304 1.313529
v 3.66932 4.560304 1.313529
v 5.84827 1.727893 1.313529
v 5.848269 3.388392 1.313529
v 3.66932 4.560304 -1.312133
v 4.702025 4.560304 -1.312133
v 4.702025 3.388392 -1.312133
v 3.66932 1.727893 -1.312133
v 5.848269 3.388392 -1.312133
v 5.84827 1.727893 -1.312133
v 2.199079 1.727893 1.461133
v 2.199079 4.560304 1.461133
v 2.199079 4.560304 -1.461133
v 2.199079 1.727893 -1.461133
v 5.109752 2.972607 1.369825
v 5.109752 2.972607 -1.369821
v 5.901954 3.169545 -1.369821
v 5.901954 3.169545 1.369825
v 5.109752 1.730102 -1.369821
v 5.109752 2.972607 -1.369821
v 5.109752 2.972607 1.369825
v 5.109752 1.730102 1.369825
vt 0.7381998 0.8114389
vt 0.7580384 0.8114389
vt 0.7580384 0.8021952
vt 0.7381998 0.8021952
vt 0.710592 0.7776217
vt 0.710592 0.7926692
vt 0.7213693 0.7926692
vt 0.7213693 0.7776217
vt 0.7547849 0.7656335
vt 0.7089407 0.7656335
vt 0.7089407 0.7505861
vt 0.7547849 0.7505861
vt 0.7089407 0.7656335
vt 0.7089407 0.7764108
vt 0.7547849 0.7764108
vt 0.7547849 0.7656335
vt 0.7547849 0.7505861
vt 0.7089407 0.7505861
vt 0.7089407 0.7656335
vt 0.7547849 0.7656335
vt 0.7381998 0.8022375
vt 0.7381998 0.7997785
vt 0.7580384 0.7997785
vt 0.7580384 0.8022375
vt 0.7580384 0.7997785
vt 0.7381998 0.7997785
vt 0.7381998 0.8021952
vt 0.7580384 0.8021952
vt 0.7113498 0.793543
vt 0.7204911 0.793543
vt 0.7227328 0.7918374
vt 0.709108 0.7918374
vt 0.7227328 0.7776859
vt 0.709108 0.7776859
vt 0.7259803 0.793803
vt 0.7351229 0.7937948
vt 0.7373359 0.792087
vt 0.723664 0.7920991
vt 0.7246405 0.7910488
vt 0.7246405 0.7871209
vt 0.723664 0.7773799
vt 0.7363593 0.7871209
vt 0.7373359 0.7773739
vt 0.7373359 0.792087
vt 0.7363593 0.7910488
vt 0.7363593 0.7910488
vt 0.7680753 0.79435
vt 0.768074 0.7868009
vt 0.7605914 0.7868015
vt 0.7605927 0.7943513
vt 0.768074 0.775694
vt 0.7680739 0.7681525
vt 0.7605914 0.7681525
vt 0.7605914 0.775694
vt 0.7590906 0.7851353
vt 0.7590907 0.77736
vt 0.7515333 0.7773598
vt 0.7515332 0.7851351
vt 0.7605927 0.7943513
vt 0.7605914 0.7868015
vt 0.7589256 0.7868021
vt 0.7589269 0.7943516
vt 0.7605914 0.775694
vt 0.7605914 0.7681525
vt 0.7589255 0.7681525
vt 0.7589255 0.7757099
vt 0.7454077 0.7773728
vt 0.740021 0.777373
vt 0.740021 0.7834435
vt 0.7454079 0.7834434
vt 0.7470955 0.7773728
vt 0.7454077 0.7773728
vt 0.7454079 0.7834434
vt 0.7470956 0.7849282
vt 0.7454079 0.7851312
vt 0.7454079 0.7834434
vt 0.740021 0.7834435
vt 0.7400211 0.7851312
vt 0.7383332 0.7849283
vt 0.740021 0.7834435
vt 0.740021 0.777373
vt 0.7383332 0.777373
vt 0.768074 0.7868009
vt 0.768074 0.775694
vt 0.7605914 0.775694
vt 0.7605914 0.7868015
vt 0.7590907 0.77736
vt 0.7590906 0.7851353
vt 0.768783 0.7509012
vt 0.768783 0.7528805
vt 0.7696654 0.7528805
vt 0.7696654 0.7509012
vt 0.7586662 0.7569153
vt 0.7674918 0.7569153
vt 0.7674918 0.7559758
vt 0.7586662 0.7559758
vt 0.7566848 0.7528805
vt 0.7566848 0.7509012
vt 0.7558025 0.7509012
vt 0.7558025 0.7528805
vt 0.7687831 0.7528805
vt 0.7687831 0.7509012
vt 0.7566848 0.7509012
vt 0.7566848 0.7528805
vt 0.7668043 0.7548593
vt 0.7586637 0.7548593
vt 0.768783 0.7528805
vt 0.768783 0.7509012
vt 0.7566848 0.7509012
vt 0.7566848 0.7528805
vt 0.7668043 0.7548593
vt 0.7586637 0.7548593
vt 0.7586662 0.7569153
vt 0.7586662 0.7559758
vt 0.756559 0.7559758
vt 0.756559 0.7569153
vt 0.769599 0.7569153
vt 0.769599 0.7559758
vt 0.7674918 0.7559758
vt 0.7674918 0.7569153
vt 0.7381998 0.7857518
vt 0.7402487 0.7857518
vt 0.7402487 0.798811
vt 0.7381998 0.7997785
vt 0.7471357 0.798811
vt 0.7519674 0.798811
vt 0.7580384 0.7997785
vt 0.7573385 0.798811
vt 0.7471357 0.7857757
vt 0.7519674 0.7934309
vt 0.7573385 0.7934309
vt 0.7580384 0.7857757
vt 0.7573385 0.798811
vt 0.7580384 0.7997785
vt 0.7573385 0.798811
vt 0.7580384 0.7997785
vt 0.7580384 0.7857757
vt 0.7573385 0.7934309
vt 0.7519674 0.7934309
vt 0.7471357 0.7857757
vt 0.7471357 0.798811
vt 0.7519674 0.798811
vt 0.7402487 0.798811
vt 0.7381998 0.7997785
vt 0.7402487 0.7857518
vt 0.7381998 0.7857518
vt 0.751937 0.7934309
vt 0.7515106 0.7934309
vt 0.7515106 0.7976948
vt 0.751937 0.7976947
vt 0.7361992 0.8117152
vt 0.7361993 0.8111119
vt 0.7248065 0.8111098
vt 0.7248064 0.8117131
vt 0.7362002 0.8061297
vt 0.7368468 0.8061298
vt 0.7368459 0.811112
vt 0.7248074 0.8061276
vt 0.724166 0.8111097
vt 0.7241669 0.8061275
vt 0.7362011 0.801454
vt 0.7248082 0.8014519
vt 0.7368488 0.7947364
vt 0.7368476 0.8014542
vt 0.7241689 0.7947342
vt 0.7241678 0.8014519
vt 0.7475553 0.7857757
vt 0.7471589 0.7857758
vt 0.7471611 0.7988104
vt 0.7475553 0.7988104
vt 0.7471575 0.7988104
vt 0.7475553 0.7988104
vt 0.7475553 0.7857757
vt 0.747156 0.7857758
vt 0.7573385 0.7934192
vt 0.7573385 0.7929798
vt 0.7519674 0.7929798
vt 0.7519674 0.7934197
vt 0.7373359 0.7854055
vt 0.7363754 0.7854055
vt 0.7363593 0.7871179
vt 0.7363593 0.7913357
vt 0.7373359 0.7913357
vt 0.7246392 0.7854056
vt 0.7246391 0.7776733
vt 0.7363752 0.7776729
vt 0.7246405 0.7871179
vt 0.723664 0.7854056
vt 0.723664 0.7913357
vt 0.7246405 0.7913357
vt 0.751937 0.7934309
vt 0.751511 0.7934309
vt 0.751511 0.798793
vt 0.751937 0.798793
vt 0.751937 0.7934309
vt 0.7515109 0.7934309
vt 0.7515109 0.798793
vt 0.751937 0.7987931
vt 0.7397875 0.7865558
vt 0.7402316 0.7865559
vt 0.7402301 0.7987996
vt 0.7397861 0.7987995
vt 0.751937 0.7934309
vt 0.7515106 0.7934309
vt 0.7515106 0.7976948
vt 0.751937 0.7976947
vt 0.7519674 0.7929798
vt 0.7519674 0.7934228
vt 0.7573385 0.7934225
vt 0.7573385 0.7929798
vt 0.7471357 0.7857757
vt 0.7519674 0.7934309
vt 0.7519674 0.798811
vt 0.7471357 0.798811
vt 0.7573171 0.7857757
vt 0.7573385 0.7934309
vt 0.7471357 0.798811
vt 0.7519674 0.798811
vt 0.7519674 0.7934309
vt 0.7471357 0.7857757
vt 0.7573385 0.7934309
vt 0.7573171 0.7857757
vt 0.7091102 0.794546
vt 0.7091122 0.8079991
vt 0.722739 0.8079971
vt 0.722737 0.7945439
vt 0.7641988 0.7949239
vt 0.7641988 0.8115255
vt 0.7700582 0.8115255
vt 0.7700582 0.7949239
vt 0.7583394 0.8115255
vt 0.7641988 0.8115255
vt 0.7641988 0.7949239
vt 0.7583395 0.7949238
vn 0 1 -3.758612E-07
vn 0 1 -3.758612E-07
vn 0 1 -3.758612E-07
vn 0 1 -3.758612E-07
vn -1 1.531254E-07 -2.640461E-07
vn -1 1.531254E-07 -2.640461E-07
vn -1 1.531254E-07 -2.640461E-07
vn -1 1.531254E-07 -2.640461E-07
vn 0 -2.720737E-07 -1
vn 0 -2.720737E-07 -1
vn 0 -2.720737E-07 -1
vn 0 -2.720737E-07 -1
vn 0 1 -1.46478E-07
vn 0 1 -1.46478E-07
vn 0 1 -1.464781E-07
vn 0 1 -1.464781E-07
vn 0 0 1
vn 0 0 1
vn 0 0 1
vn 0 0 1
vn 0 0.7958406 -0.6055062
vn 0 0.7958406 -0.6055062
vn 0 0.7958406 -0.6055062
vn 0 0.7958406 -0.6055062
vn 0 0.7958402 0.6055067
vn 0 0.7958402 0.6055066
vn 0 0.7958402 0.6055067
vn 0 0.7958402 0.6055066
vn -1 0 0
vn -1 0 0
vn -1 0 0
vn -1 0 0
vn -1 0 1.044312E-07
vn -1 0 1.044312E-07
vn 1 0 0
vn 1 0 0
vn 1 -1.491179E-07 0
vn 1 -1.171347E-07 0
vn 1 -2.100113E-07 0
vn 1 0 0
vn 1 0 0
vn 1 1.972299E-07 0
vn 1 1.9723E-07 0
vn 1 0 0
vn 1 0 0
vn 1 -3.590466E-07 0
vn 0 0 1
vn 0 0 1
vn 0 0 1
vn 0 0 1
vn 0 0 -1
vn 0 0 -1
vn 0 0 -1
vn 0 0 -1
vn 0.9999909 -0.00427267 0
vn 0.9999909 -0.00427267 0
vn 0.9999909 -0.00427267 0
vn 0.9999909 -0.00427267 0
vn 0.7465659 -0.001596353 0.6653095
vn 0.7465659 -0.001596352 0.6653095
vn 0.7465659 -0.001596352 0.6653095
vn 0.7465659 -0.001596352 0.6653095
vn 0.7465659 -0.001596352 -0.6653096
vn 0.7465659 -0.001596352 -0.6653095
vn 0.7465659 -0.001596352 -0.6653096
vn 0.7465659 -0.001596352 -0.6653095
vn 0 1 0
vn 0 1 0
vn 0 1 0
vn 0 1 0
vn 0 0 1
vn 0 0 1
vn 0 0 1
vn 0 0 1
vn 0.757615 0.6527017 0
vn 0.757615 0.6527017 0
vn 0.757615 0.6527017 0
vn 0.757615 0.6527017 0
vn -1.442776E-07 0 -1
vn -1.442776E-07 0 -1
vn -1.442776E-07 0 -1
vn -1.442776E-07 0 -1
vn 0 1 0
vn 0 1 0
vn 0 1 0
vn 0 1 0
vn -0.01058916 0.999944 0
vn -0.01058916 0.999944 0
vn 0 0 1
vn 0 0 1
vn 0 0 1
vn 0 0 1
vn 0 1 0
vn 0 1 0
vn 0 1 0
vn 0 1 0
vn 0 0 -1
vn 0 0 -1
vn 0 0 -1
vn 0 0 -1
vn 1 -1.900032E-07 0
vn 1 -1.900033E-07 0
vn 1 -1.900033E-07 0
vn 1 -1.900032E-07 0
vn 1 -1.900032E-07 0
vn 1 -1.900032E-07 0
vn -1 -3.800065E-07 0
vn -1 -3.800065E-07 0
vn -1 -3.800065E-07 0
vn -1 -3.800065E-07 0
vn -1 -3.800065E-07 0
vn -1 -3.800065E-07 0
vn 0 0.7052426 0.708966
vn 0 0.7052426 0.708966
vn 0 0.7052426 0.708966
vn 0 0.7052426 0.708966
vn 0 0.7082049 -0.706007
vn 0 0.7082049 -0.706007
vn 0 0.7082049 -0.706007
vn 0 0.7082049 -0.706007
vn 3.02883E-07 0 -1
vn 3.028829E-07 0 -1
vn 2.396309E-07 0 -1
vn 2.799605E-07 0 -1
vn 0 0 -1
vn 0 0 -1
vn 0 -1.836025E-07 -1
vn 0 -1.836025E-07 -1
vn 0 0 -1
vn 0 0 -1
vn 1.225442E-06 0 -1
vn 1.225442E-06 0 -1
vn 1.225442E-06 0 -1
vn 1.225442E-06 0 -1
vn 1.222698E-07 0 1
vn 0 0 1
vn 0 0 1
vn 0 0 1
vn 0 0 1
vn 0 0 1
vn 0 0 1
vn 0 0 1
vn 0 0 1
vn -1.045969E-07 0 1
vn -1.135812E-07 0 1
vn -1.135812E-07 0 1
vn 7.78238E-07 0 -1
vn 7.78238E-07 0 -1
vn 7.78238E-07 0 -1
vn 7.78238E-07 0 -1
vn 0 -1 0
vn 0 -1 0
vn 0 -1 0
vn 0 -1 0
vn 0 -1 0
vn 0 -1 0
vn 0 -1 0
vn 0 -1 0
vn 0 -1 0
vn 0 -1 0
vn 0 -1 0
vn 0 -1 0
vn 0 -1 0
vn 0 -1 0
vn 0 -1 0
vn 0 -1 0
vn -1 1.167925E-07 0
vn -1 1.167925E-07 0
vn -1 1.167925E-07 0
vn -1 1.167925E-07 0
vn -1 -1.156985E-07 0
vn -1 -1.156985E-07 0
vn -1 -1.156985E-07 0
vn -1 -1.156985E-07 0
vn 0 1 0
vn 0 1 0
vn 0 1 0
vn 0 1 0
vn -1 0 0
vn -1 0 0
vn -1 0 0
vn -1 0 0
vn -1 0 0
vn -1 -2.448983E-07 0
vn -1 -3.583789E-07 0
vn -1 -3.583789E-07 0
vn -1 0 0
vn -1 3.49819E-07 0
vn -1 0 0
vn -1 0 0
vn 1 -2.822776E-07 0
vn 1 -2.822776E-07 0
vn 1 -2.822776E-07 0
vn 1 -2.822776E-07 0
vn 1 -2.796339E-07 0
vn 1 -2.796339E-07 0
vn 1 -2.796339E-07 0
vn 1 -2.796339E-07 0
vn 0 1 -1.282399E-07
vn 0 1 -1.282399E-07
vn 0 1 -1.282399E-07
vn 0 1 -1.282399E-07
vn 0 0 1
vn 0 0 1
vn 0 0 1
vn 0 0 1
vn 0 1 0
vn 0 1 0
vn 0 1 0
vn 0 1 0
vn 0 0 -1
vn 0 0 -1
vn 0 0 -1
vn 0 0 -1
vn 0 0 -1
vn 0 0 -1
vn 1.889228E-07 0 1
vn 1.889228E-07 0 1
vn 1.889228E-07 0 1
vn 1.889228E-07 0 1
vn 0 0 1
vn 0 0 1
vn 1 0 0
vn 1 0 0
vn 1 0 0
vn 1 0 0
vn -0.2412524 0.9704624 0
vn -0.2412524 0.9704624 0
vn -0.2412524 0.9704624 0
vn -0.2412524 0.9704624 0
vn -1 0 0
vn -1 0 0
vn -1 0 0
vn -1 0 0
g royale_carriage_locomotiv_LOD_0_A_0
f 3/3/3 2/2/2 1/1/1
f 4/4/4 3/3/3 1/1/1
f 7/7/7 6/6/6 5/5/5
f 8/8/8 7/7/7 5/5/5
f 11/11/11 10/10/10 9/9/9
f 12/12/12 11/11/11 9/9/9
f 15/15/15 14/14/14 13/13/13
f 16/16/16 15/15/15 13/13/13
f 19/19/19 18/18/18 17/17/17
f 20/20/20 19/19/19 17/17/17
f 23/23/23 22/22/22 21/21/21
f 24/24/24 23/23/23 21/21/21
f 27/27/27 26/26/26 25/25/25
f 28/28/28 27/27/27 25/25/25
f 31/31/31 30/30/30 29/29/29
f 32/32/32 31/31/31 29/29/29
f 33/33/33 31/31/31 32/32/32
f 34/34/34 33/33/33 32/32/32
f 37/37/37 36/36/36 35/35/35
f 38/38/38 37/37/37 35/35/35
f 38/38/38 39/39/39 37/37/37
f 40/40/40 39/39/39 38/38/38
f 41/41/41 40/40/40 38/38/38
f 42/42/42 40/40/40 41/41/41
f 43/43/43 42/42/42 41/41/41
f 42/42/42 43/43/43 44/44/44
f 45/45/45 42/42/42 44/44/44
f 39/39/39 46/46/46 37/37/37
f 49/49/49 48/48/48 47/47/47
f 50/50/50 49/49/49 47/47/47
f 53/53/53 52/52/52 51/51/51
f 54/54/54 53/53/53 51/51/51
f 57/57/57 56/56/56 55/55/55
f 58/58/58 57/57/57 55/55/55
f 61/61/61 60/60/60 59/59/59
f 62/62/62 61/61/61 59/59/59
f 65/65/65 64/64/64 63/63/63
f 66/66/66 65/65/65 63/63/63
f 69/69/69 68/68/68 67/67/67
f 70/70/70 69/69/69 67/67/67
f 73/73/73 72/72/72 71/71/71
f 74/74/74 73/73/73 71/71/71
f 77/77/77 76/76/76 75/75/75
f 78/78/78 77/77/77 75/75/75
f 81/81/81 80/80/80 79/79/79
f 82/82/82 81/81/81 79/79/79
f 85/85/85 84/84/84 83/83/83
f 86/86/86 85/85/85 83/83/83
f 87/87/87 85/85/85 86/86/86
f 88/88/88 87/87/87 86/86/86
f 91/91/91 90/90/90 89/89/89
f 92/92/92 91/91/91 89/89/89
f 95/95/95 94/94/94 93/93/93
f 96/96/96 95/95/95 93/93/93
f 99/99/99 98/98/98 97/97/97
f 100/100/100 99/99/99 97/97/97
f 103/103/103 102/102/102 101/101/101
f 101/101/101 104/104/104 103/103/103
f 101/101/101 105/105/105 104/104/104
f 105/105/105 106/106/106 104/104/104
f 109/109/109 108/108/108 107/107/107
f 107/107/107 110/110/110 109/109/109
f 107/107/107 111/111/111 110/110/110
f 111/111/111 112/112/112 110/110/110
f 115/115/115 114/114/114 113/113/113
f 116/116/116 115/115/115 113/113/113
f 119/119/119 118/118/118 117/117/117
f 120/120/120 119/119/119 117/117/117
f 123/123/123 122/122/122 121/121/121
f 124/124/124 123/123/123 121/121/121
f 125/125/125 123/123/123 124/124/124
f 126/126/126 125/125/125 124/124/124
f 124/124/124 127/127/127 126/126/126
f 127/127/127 128/128/128 126/126/126
f 125/125/125 126/126/126 129/129/129
f 126/126/126 130/130/130 129/129/129
f 130/130/130 131/131/131 129/129/129
f 131/131/131 132/132/132 129/129/129
f 132/132/132 131/131/131 133/133/133
f 134/134/134 132/132/132 133/133/133
f 137/137/137 136/136/136 135/135/135
f 138/138/138 137/137/137 135/135/135
f 138/138/138 139/139/139 137/137/137
f 139/139/139 140/140/140 137/137/137
f 140/140/140 139/139/139 141/141/141
f 139/139/139 142/142/142 141/141/141
f 142/142/142 135/135/135 136/136/136
f 143/143/143 141/141/141 142/142/142
f 144/144/144 143/143/143 142/142/142
f 144/144/144 142/142/142 136/136/136
f 145/145/145 143/143/143 144/144/144
f 146/146/146 145/145/145 144/144/144
f 149/149/149 148/148/148 147/147/147
f 150/150/150 149/149/149 147/147/147
f 153/153/153 152/152/152 151/151/151
f 154/154/154 153/153/153 151/151/151
f 155/155/155 152/152/152 153/153/153
f 152/152/152 155/155/155 156/156/156
f 157/157/157 152/152/152 156/156/156
f 158/158/158 155/155/155 153/153/153
f 158/158/158 153/153/153 159/159/159
f 160/160/160 158/158/158 159/159/159
f 161/161/161 155/155/155 158/158/158
f 162/162/162 161/161/161 158/158/158
f 163/163/163 161/161/161 162/162/162
f 163/163/163 164/164/164 161/161/161
f 165/165/165 163/163/163 162/162/162
f 166/166/166 165/165/165 162/162/162
f 169/169/169 168/168/168 167/167/167
f 170/170/170 169/169/169 167/167/167
f 173/173/173 172/172/172 171/171/171
f 174/174/174 173/173/173 171/171/171
f 177/177/177 176/176/176 175/175/175
f 178/178/178 177/177/177 175/175/175
f 181/181/181 180/180/180 179/179/179
f 182/182/182 181/181/181 179/179/179
f 183/183/183 182/182/182 179/179/179
f 180/180/180 181/181/181 184/184/184
f 180/180/180 184/184/184 185/185/185
f 186/186/186 180/180/180 185/185/185
f 181/181/181 187/187/187 184/184/184
f 188/188/188 184/184/184 187/187/187
f 188/188/188 187/187/187 189/189/189
f 187/187/187 190/190/190 189/189/189
f 193/193/193 192/192/192 191/191/191
f 194/194/194 193/193/193 191/191/191
f 197/197/197 196/196/196 195/195/195
f 198/198/198 197/197/197 195/195/195
f 201/201/201 200/200/200 199/199/199
f 202/202/202 201/201/201 199/199/199
f 205/205/205 204/204/204 203/203/203
f 206/206/206 205/205/205 203/203/203
f 209/209/209 208/208/208 207/207/207
f 210/210/210 209/209/209 207/207/207
f 213/213/213 212/212/212 211/211/211
f 214/214/214 213/213/213 211/211/211
f 211/211/211 212/212/212 215/215/215
f 212/212/212 216/216/216 215/215/215
f 219/219/219 218/218/218 217/217/217
f 220/220/220 219/219/219 217/217/217
f 221/221/221 219/219/219 220/220/220
f 222/222/222 221/221/221 220/220/220
f 225/225/225 224/224/224 223/223/223
f 226/226/226 225/225/225 223/223/223
f 229/229/229 228/228/228 227/227/227
f 230/230/230 229/229/229 227/227/227
f 233/233/233 232/232/232 231/231/231
f 234/234/234 233/233/233 231/231/231
