g royale_martian_tower_mesh_lod02
v -0.7757978 16.87185 -2.746127
v -0.7757978 5.610346 -2.746129
v -0.7735043 16.87185 -4.421531
v 3.579039 12.53509 -7.922297
v 3.579039 13.2609 -7.922297
v -3.531254 13.26089 -7.922254
v -3.531253 12.53509 -7.922246
v 0.858057 7.005721 -4.419292
v 0.8603516 16.87185 -4.419287
v -0.7735043 16.87185 -4.421531
v -0.7757978 7.005721 -4.409112
v 0.9789219 1.195703 5.246007
v 0.9789219 0.4569576 5.246007
v -0.980278 0.4569576 5.256187
v -0.980278 1.195703 5.256187
v 0.9744157 2.717012 8.816347
v 0.9744157 4.39317 8.816349
v 0.9789219 4.393169 4.04358
v 0.9789219 1.195703 5.246007
v 0.9789219 0.4569579 4.04358
v 0.9789219 0.4569576 5.246007
v 0.9744157 4.39317 8.816349
v 0.9744157 2.717012 8.816347
v -0.9847841 2.717012 8.826239
v -0.9847841 4.39317 8.82624
v -0.980278 1.195703 5.256187
v -0.980278 0.4569576 5.256187
v -0.980278 0.4569579 4.05376
v -0.980278 4.393169 4.05376
v -0.9847841 4.39317 8.82624
v -0.9847841 2.717012 8.826239
v 0.858057 7.005721 -4.419292
v -0.7757978 7.005721 -4.409112
v -0.7757978 5.610346 -2.746129
v 0.858057 5.610346 -2.746129
v -0.9847841 2.717012 8.826239
v 0.9744157 2.717012 8.816347
v 0.9789219 1.195703 5.246007
v -0.980278 1.195703 5.256187
v 1.886871 12.53508 5.190464
v 3.579164 12.53508 9.243833
v 3.579164 13.26089 9.243833
v 1.886871 13.26089 5.190464
v -3.531253 12.53509 -7.922246
v -3.531254 13.26089 -7.922254
v -8.559036 13.2609 -2.894546
v -8.559028 12.53509 -2.894546
v 8.607048 12.53509 -2.894287
v 8.607048 13.2609 -2.894286
v 3.579039 13.2609 -7.922297
v 3.579039 12.53509 -7.922297
v -8.559028 12.53508 4.216132
v -8.559028 13.26089 4.216132
v -3.531257 13.26089 9.243831
v -3.531257 12.53508 9.243831
v -8.559028 12.53509 -2.894546
v -8.559036 13.2609 -2.894546
v -8.559028 13.26089 4.216132
v -8.559028 12.53508 4.216132
v 0.858057 16.87185 -2.746127
v 0.858057 5.610346 -2.746129
v -0.7757978 5.610346 -2.746129
v -0.7757978 16.87185 -2.746127
v -3.531257 12.53508 9.243831
v -3.531257 13.26089 9.243831
v 3.579164 13.26089 9.243833
v 3.579164 12.53508 9.243833
v -0.7757978 16.87185 -2.746127
v -0.7735043 16.87185 -4.421531
v 0.8603516 16.87185 -4.419287
v 0.858057 16.87185 -2.746127
v 8.606995 12.53508 4.216005
v 8.606995 13.26089 4.216005
v 8.607048 13.2609 -2.894286
v 8.607048 12.53509 -2.894287
v 0.8603516 16.87185 -4.419287
v 0.858057 5.610346 -2.746129
v 0.858057 16.87185 -2.746127
v 0.8603516 16.87185 -4.419287
v 0.858057 7.005721 -4.419292
v 0.858057 5.610346 -2.746129
v -0.7757978 5.610346 -2.746129
v -0.7757978 7.005721 -4.409112
v -0.7735043 16.87185 -4.421531
v 8.606995 12.53508 4.216005
v 4.553623 12.53509 2.523713
v 4.553623 13.2609 2.523713
v 8.606995 13.26089 4.216005
v 6.774353 7.284736 5.928617
v 6.774349 8.960897 5.928618
v 3.112483 8.960899 2.321933
v 3.974399 5.844254 3.165266
v 3.974399 0.4572973 3.165265
v 3.112483 0.4572977 2.32193
v 5.390169 8.960897 7.327196
v 5.390169 7.284738 7.327199
v 2.590216 5.844254 4.563846
v 1.728301 8.960899 3.720511
v 1.7283 0.4572973 3.720512
v 2.590216 0.4572969 4.563844
v 5.390169 7.284738 7.327199
v 6.774353 7.284736 5.928617
v 3.974399 5.844254 3.165266
v 2.590216 5.844254 4.563846
v 6.774349 8.960897 5.928618
v 6.774353 7.284736 5.928617
v 5.390169 7.284738 7.327199
v 5.390169 8.960897 7.327196
v 3.974399 5.844254 3.165266
v 3.974399 0.4572973 3.165265
v 2.590216 0.4572969 4.563844
v 2.590216 5.844254 4.563846
v 0.9744157 4.39317 8.816349
v -0.9847841 4.39317 8.82624
v -0.980278 4.393169 4.05376
v 0.9789219 4.393169 4.04358
v 4.553625 8.960896 -1.247642
v 4.553625 13.2609 -1.247642
v 1.886873 13.2609 -3.914393
v 1.886873 8.960896 -3.914394
v -1.884482 8.960894 5.190461
v -1.884482 13.26089 5.190463
v 1.886871 13.26089 5.190464
v 1.886871 8.960894 5.190463
v 8.607048 12.53509 -2.894287
v 4.553625 12.53509 -1.247642
v 4.553623 12.53509 2.523713
v 8.606995 12.53508 4.216005
v -3.531253 12.53509 -7.922246
v -1.88448 12.53509 -3.914393
v 1.886873 12.53509 -3.914393
v 3.579039 12.53509 -7.922297
v -3.531257 12.53508 9.243831
v -1.884482 12.53508 5.190462
v -4.551232 12.53509 2.523713
v -8.559028 12.53508 4.216132
v -3.531257 13.26089 9.243831
v -1.884482 13.26089 5.190463
v 1.886871 13.26089 5.190464
v 3.579164 13.26089 9.243833
v -8.559028 13.26089 4.216132
v -4.551232 13.2609 2.523712
v -8.559036 13.2609 -2.894546
v -4.551232 13.2609 -1.247643
v -3.531254 13.26089 -7.922254
v -1.88448 13.2609 -3.914393
v 3.579039 13.2609 -7.922297
v 1.886873 13.2609 -3.914393
v 8.607048 13.2609 -2.894286
v 4.553625 13.2609 -1.247642
v 8.606995 13.26089 4.216005
v 4.553623 13.2609 2.523713
v 3.579164 12.53508 9.243833
v 1.886871 12.53508 5.190464
v -1.884482 12.53508 5.190462
v -3.531257 12.53508 9.243831
v -8.559028 12.53509 -2.894546
v -4.551232 12.53509 -1.247643
v -1.88448 12.53509 -3.914393
v -3.531253 12.53509 -7.922246
v -8.559028 12.53508 4.216132
v -4.551232 12.53509 2.523713
v -4.551232 12.53509 -1.247643
v -8.559028 12.53509 -2.894546
v 3.579039 12.53509 -7.922297
v 1.886873 12.53509 -3.914393
v 4.553625 12.53509 -1.247642
v 8.607048 12.53509 -2.894287
v -4.551232 13.2609 -1.247643
v -4.551232 13.2609 2.523712
v -4.551232 8.960896 2.523712
v -4.551232 8.960896 -1.247643
v 1.886873 8.960896 -3.914394
v 1.886873 13.2609 -3.914393
v -1.88448 13.2609 -3.914393
v -1.88448 8.960896 -3.914394
v -4.551232 8.960896 2.523712
v -4.551232 13.2609 2.523712
v -1.884482 13.26089 5.190463
v -1.884482 8.960894 5.190461
v -1.88448 13.2609 -3.914393
v -4.551232 13.2609 -1.247643
v -4.551232 8.960896 -1.247643
v -1.88448 8.960896 -3.914394
v 4.553623 13.2609 2.523713
v 4.553623 8.960896 2.523712
v 1.886871 8.960894 5.190463
v 1.886871 13.26089 5.190464
v 4.553623 8.960896 2.523712
v 4.553623 13.2609 2.523713
v 4.553625 13.2609 -1.247642
v 4.553625 8.960896 -1.247642
v -1.409178 1.396194E-06 -2.751734
v -1.40617 8.960896 -2.751732
v -3.396471 8.960896 -0.7614309
v -3.401579 4.1243E-06 -0.7665397
v 3.400974 3.360197E-06 2.051161
v 3.398846 8.960896 2.053282
v 3.398846 8.960896 -0.7614309
v 3.400964 4.621943E-07 -0.7665494
v 1.408533 2.974448E-07 4.043582
v 1.408543 8.960896 4.043582
v 3.398846 8.960896 2.053282
v 3.400974 3.360197E-06 2.051161
v -1.409156 1.204626E-06 4.043582
v -1.406168 8.960896 4.043582
v 1.408543 8.960896 4.043582
v 1.408533 2.974448E-07 4.043582
v 3.400964 4.621943E-07 -0.7665494
v 3.398846 8.960896 -0.7614309
v 1.408542 8.960896 -2.751732
v 1.408542 7.858471E-07 -2.751734
v -3.401587 3.360194E-06 2.051172
v -3.396469 8.960896 2.053282
v -1.406168 8.960896 4.043582
v -1.409156 1.204626E-06 4.043582
v -3.401579 4.1243E-06 -0.7665397
v -3.396471 8.960896 -0.7614309
v -3.396469 8.960896 2.053282
v -3.401587 3.360194E-06 2.051172
v 1.408542 7.858471E-07 -2.751734
v 1.410796 8.960895 -2.749742
v -1.40617 8.960896 -2.751732
v -1.409178 1.396194E-06 -2.751734
v 6.774349 8.960897 5.928618
v 5.390169 8.960897 7.327196
v 1.728301 8.960899 3.720511
v 3.112483 8.960899 2.321933
vt -4.055634 -2.906896
vt 6.130752 -2.906896
vt -4.055638 -3.602487
vt -3.055029 1.793988
vt -3.055029 2.519797
vt 4.055263 2.519799
vt 4.055263 1.79399
vt -0.3340456 -3.735378
vt -0.3363431 6.130754
vt 1.297514 6.130754
vt 1.299809 -3.735378
vt -1.415864 -3.013225
vt -1.415864 -3.75197
vt -3.375063 -3.75197
vt -3.375063 -3.013225
vt -1.491916 3.742262
vt 0.1842432 3.742264
vt 0.1842413 -1.030506
vt -3.013225 0.1719232
vt -3.75197 -1.030505
vt -3.75197 0.1719232
vt -1.420369 0.1842432
vt -1.420369 -1.491916
vt -3.379569 -1.491915
vt -3.379569 0.1842437
vt 4.013225 0.1821027
vt 4.75197 0.1821027
vt 4.75197 -1.020324
vt 0.8157582 -1.020325
vt 0.8157563 3.752155
vt 2.491915 3.752153
vt 1.334046 -4.580059
vt -0.2998092 -4.569879
vt -0.2998096 -2.906896
vt 1.334045 -2.906896
vt -3.379569 3.752153
vt -1.420369 3.742262
vt -1.415864 0.1719232
vt -3.375063 0.1821027
vt 1.793989 5.029696
vt 1.793988 9.083065
vt 2.519797 9.083065
vt 2.519798 5.029696
vt 4.055263 1.79399
vt 4.055263 2.519799
vt 9.083037 2.5198
vt 9.083037 1.793991
vt 1.793987 -3.055055
vt 2.519796 -3.055055
vt 2.519797 -8.083065
vt 1.793988 -8.083065
vt -8.083037 1.793991
vt -8.083037 2.5198
vt -3.055267 2.519799
vt -3.055267 1.79399
vt -0.7939911 -3.055314
vt -1.5198 -3.055314
vt -1.5198 4.055365
vt -0.7939911 4.055365
vt 1.334048 5.055634
vt 1.334045 -5.130752
vt -0.2998096 -5.130752
vt -0.2998071 5.055634
vt -3.055267 1.79399
vt -3.055267 2.519799
vt 4.055155 2.519797
vt 4.055155 1.793988
vt 1.299807 -2.906896
vt 1.298859 -3.602487
vt -0.3349979 -3.600244
vt -0.3340478 -2.906896
vt 1.793987 4.055237
vt 2.519796 4.055237
vt 2.519796 -3.055055
vt 1.793987 -3.055055
vt 5.055638 -3.600244
vt -5.130752 -2.906896
vt 5.055634 -2.906896
vt 5.055638 -3.600244
vt -3.735378 -4.580059
vt -5.130752 -2.906896
vt 6.130752 -2.906896
vt 4.735378 -4.569879
vt -4.055638 -3.602487
vt 9.082985 1.793987
vt 5.029613 1.793988
vt 5.029614 2.519797
vt 9.082985 2.519796
vt -3.379569 3.075808
vt -3.379565 4.751969
vt 0.2823 4.75197
vt -0.5796156 1.635326
vt -0.5796142 -3.751632
vt 0.2823021 -3.751631
vt 2.995385 4.75197
vt 2.995385 3.075809
vt 0.1954312 1.635326
vt -0.6664822 4.751971
vt -0.6664854 -3.751631
vt 0.1954298 -3.751632
vt 2.995385 2.253114
vt 4.379569 0.8545313
vt 1.579616 -1.90882
vt 0.1954312 -0.5102396
vt 4.751969 0.8545322
vt 3.075808 0.8545313
vt 3.075809 2.253114
vt 4.75197 2.25311
vt 1.635326 -1.90882
vt -3.751632 -1.908819
vt -3.751632 -0.5102408
vt 1.635326 -0.5102396
vt 0.9726273 0.9714749
vt 0.972738 0.9714743
vt 0.9727378 0.9717441
vt 0.972627 0.9717446
vt 0.8493156 0.002211094
vt 0.8493156 0.1328273
vt 0.7347602 0.1328273
vt 0.7347602 0.002211094
vt 0.7347555 0.002219126
vt 0.7347555 0.1328354
vt 0.8493139 0.1328354
vt 0.8493139 0.002219126
vt 0.9718336 0.9714764
vt 0.9719266 0.9717056
vt 0.9721394 0.9717038
vt 0.9722354 0.9714764
vt 0.9718336 0.9714764
vt 0.9719266 0.9717029
vt 0.9721394 0.9717013
vt 0.9722354 0.9714764
vt 0.9718336 0.9714764
vt 0.9719298 0.9717042
vt 0.9721425 0.9717025
vt 0.9722354 0.9714764
vt 0.9784275 0.9883689
vt 0.9753636 0.9808276
vt 0.968347 0.9808276
vt 0.9651984 0.9883689
vt 0.9877818 0.9790148
vt 0.9803252 0.975866
vt 0.9877818 0.9657852
vt 0.9803252 0.9688493
vt 0.9784275 0.9564311
vt 0.9753636 0.9638878
vt 0.9651986 0.956431
vt 0.968347 0.9638878
vt 0.9558439 0.9657857
vt 0.9633854 0.9688493
vt 0.955844 0.9790146
vt 0.9633854 0.975866
vt 0.9718336 0.9714764
vt 0.9719292 0.9717055
vt 0.972142 0.9717038
vt 0.9722354 0.9714764
vt 0.9718336 0.9714764
vt 0.9719279 0.9717024
vt 0.9721407 0.9717007
vt 0.9722354 0.9714764
vt 0.9718336 0.9714764
vt 0.9719292 0.9717029
vt 0.972142 0.9717012
vt 0.9722354 0.9714764
vt 0.9718336 0.9714764
vt 0.9719261 0.9717042
vt 0.9721389 0.9717025
vt 0.9722354 0.9714764
vt 0.7347502 0.1328295
vt 0.8493084 0.1328295
vt 0.8493084 0.002213329
vt 0.7347502 0.002213329
vt 0.8493091 0.002211019
vt 0.8493091 0.1328272
vt 0.7347508 0.1328272
vt 0.7347508 0.002211019
vt 0.7347555 0.002218187
vt 0.7347555 0.1328345
vt 0.849311 0.1328345
vt 0.849311 0.002218187
vt 0.8493108 0.1328251
vt 0.734755 0.1328251
vt 0.734755 0.002208889
vt 0.8493108 0.002208889
vt 0.7553036 0.2700043
vt 0.7553036 0.1393881
vt 0.640748 0.1393881
vt 0.640748 0.2700043
vt 0.8493189 0.002220005
vt 0.8493189 0.1328362
vt 0.7347608 0.1328363
vt 0.7347608 0.002220035
vt 0.7623643 0.1395472
vt 0.7623643 0.4117424
vt 0.8478593 0.4117424
vt 0.8478592 0.1395472
vt 0.8478645 0.1395516
vt 0.8478645 0.4117467
vt 0.7623651 0.4117467
vt 0.762365 0.1395516
vt 0.7623646 0.1395468
vt 0.7623646 0.4117417
vt 0.8478597 0.4117417
vt 0.8478597 0.1395468
vt 0.762359 0.1395508
vt 0.762359 0.4117458
vt 0.8478585 0.4117458
vt 0.8478585 0.1395508
vt 0.7623693 0.1395461
vt 0.7623693 0.4117412
vt 0.8478643 0.4117412
vt 0.8478643 0.1395461
vt 0.7623696 0.1395456
vt 0.7623696 0.4117406
vt 0.8478644 0.4117406
vt 0.8478644 0.1395456
vt 0.7623614 0.1395464
vt 0.7623613 0.4117413
vt 0.8478608 0.4117413
vt 0.8478609 0.1395464
vt 0.7623643 0.1395472
vt 0.7623643 0.4117424
vt 0.8478593 0.4117424
vt 0.8478592 0.1395472
vt 0.9726257 0.9714751
vt 0.972737 0.9714746
vt 0.9727392 0.971765
vt 0.9726279 0.9717656
vn -0.999999 0 -0.001368997
vn -0.999999 0 -0.001368997
vn -0.999999 0 -0.001368997
vn -6.652644E-06 -5.466034E-06 -1
vn -6.652643E-06 -5.466034E-06 -1
vn -6.652644E-06 -5.466034E-06 -1
vn -6.652644E-06 -5.466034E-06 -1
vn -0.002428447 -0.0006285061 -0.9999968
vn -0.002428447 -0.000628506 -0.9999968
vn -0.002428447 -0.000628506 -0.9999968
vn -0.002428447 -0.000628506 -0.9999968
vn 0.005195955 0 0.9999865
vn 0.005195955 0 0.9999865
vn 0.005195955 0 0.9999865
vn 0.005195955 0 0.9999865
vn 0.9999994 0.0002550365 0.001033704
vn 0.9999994 0.0002550365 0.001033704
vn 0.9999994 0.0002550365 0.001033704
vn 0.9999994 0.0002550365 0.001033704
vn 1 0 0
vn 1 0 0
vn 0.005048607 -1.092379E-06 0.9999872
vn 0.005048607 -1.092379E-06 0.9999872
vn 0.005048607 -1.092379E-06 0.9999872
vn 0.005048607 -1.092379E-06 0.9999872
vn -1 0 0
vn -1 0 0
vn -1 0 0
vn -0.9999994 -0.0002550491 -0.001033755
vn -0.9999994 -0.0002550491 -0.001033755
vn -0.9999994 -0.0002550491 -0.001033755
vn -0.001998757 -0.7670168 -0.6416239
vn -0.001998757 -0.7670168 -0.6416239
vn -0.001998757 -0.7670168 -0.6416239
vn -0.001998757 -0.7670168 -0.6416239
vn 0.002008007 -0.9199589 0.3920096
vn 0.002008007 -0.9199589 0.3920096
vn 0.002008007 -0.9199589 0.3920096
vn 0.002008007 -0.9199589 0.3920096
vn 0.9228027 1.225266E-07 -0.3852728
vn 0.9228027 1.225266E-07 -0.3852728
vn 0.9228027 1.225266E-07 -0.3852728
vn 0.9228027 1.225266E-07 -0.3852728
vn -0.7071016 -8.326112E-06 -0.707112
vn -0.7071016 -8.326111E-06 -0.707112
vn -0.7071016 -8.326112E-06 -0.707112
vn -0.7071016 -8.326111E-06 -0.707112
vn 0.7071069 3.027515E-07 -0.7071066
vn 0.7071069 3.027515E-07 -0.7071066
vn 0.7071069 3.027515E-07 -0.7071067
vn 0.7071068 3.027516E-07 -0.7071068
vn -0.7071016 0 0.7071119
vn -0.7071016 0 0.7071119
vn -0.7071016 0 0.7071119
vn -0.7071016 0 0.7071119
vn -1 -5.886464E-06 6.008479E-07
vn -1 -5.886464E-06 6.00848E-07
vn -1 -5.886464E-06 6.00848E-07
vn -1 -5.886464E-06 6.008479E-07
vn 0 -1.625942E-07 1
vn 0 -1.625942E-07 1
vn 0 -1.625942E-07 1
vn 0 -1.625942E-07 1
vn -2.575171E-07 0 1
vn -2.575171E-07 0 1
vn -2.575171E-07 0 1
vn -2.575171E-07 0 1
vn 0 1 7.2909E-07
vn 0 1 7.2909E-07
vn 0 1 7.290901E-07
vn 0 1 7.2909E-07
vn 1 0 7.553971E-06
vn 1 0 7.553971E-06
vn 1 0 7.553971E-06
vn 1 0 7.553971E-06
vn 0.999999 0 0.00137138
vn 0.999999 0 0.001371381
vn 0.999999 0 0.001371381
vn 0.9999999 -0.0002325673 -0.000193955
vn 0.9999999 -0.0002325673 -0.000193955
vn 0.9999999 -0.0002325673 -0.000193955
vn -0.9999999 0.0002327204 0.0001952708
vn -0.9999999 0.0002327204 0.0001952708
vn -0.9999999 0.0002327204 0.0001952708
vn -0.3852723 0 0.9228029
vn -0.3852723 0 0.9228029
vn -0.3852723 0 0.9228029
vn -0.3852723 0 0.9228029
vn 0.7019281 0.0009067297 -0.7122472
vn 0.7019281 0.0009067297 -0.7122472
vn 0.7019281 0.0009067297 -0.7122472
vn 0.7019281 0.0009067297 -0.7122472
vn 0.6993601 1.894805E-07 -0.7147696
vn 0.69936 1.894805E-07 -0.7147696
vn -0.7019286 -0.0009049072 0.7122468
vn -0.7019286 -0.0009049072 0.7122468
vn -0.7019286 -0.0009049072 0.7122468
vn -0.7019286 -0.0009049072 0.7122468
vn -0.6993601 0 0.7147695
vn -0.6993601 0 0.7147695
vn 0.2443876 -0.9390274 0.2418724
vn 0.2443876 -0.9390274 0.2418724
vn 0.2443876 -0.9390274 0.2418724
vn 0.2443876 -0.9390274 0.2418724
vn 0.7107558 1.287973E-06 0.7034388
vn 0.7107559 1.287974E-06 0.7034388
vn 0.7107559 1.287974E-06 0.7034388
vn 0.7107559 1.287974E-06 0.7034388
vn 0.7107552 -1.796487E-07 0.7034394
vn 0.7107552 -1.796487E-07 0.7034394
vn 0.7107552 -1.796487E-07 0.7034394
vn 0.7107552 -1.796487E-07 0.7034394
vn 0 1 -1.918298E-07
vn 0 1 -1.918298E-07
vn 0 1 -1.918298E-07
vn 0 1 -1.918298E-07
vn 0.7071067 0 -0.7071069
vn 0.7071067 0 -0.7071069
vn 0.7071067 0 -0.7071069
vn 0.7071068 0 -0.7071068
vn -4.855166E-07 -2.838844E-07 1
vn -4.855166E-07 -2.838844E-07 1
vn -4.855166E-07 -2.838844E-07 1
vn -4.855166E-07 -2.838844E-07 1
vn -1.367015E-07 -1 -2.058048E-07
vn -1.351798E-07 -1 -2.056318E-07
vn -2.998923E-07 -1 -2.243616E-07
vn -2.998923E-07 -1 -2.243616E-07
vn 0 -1 -2.460596E-07
vn 0 -1 -2.458331E-07
vn 0 -1 -2.460075E-07
vn 0 -1 -2.454643E-07
vn 0 -1 -1.846938E-07
vn 0 -1 -1.86408E-07
vn 1.79207E-07 -1 -2.976836E-07
vn 1.78046E-07 -1 -2.983697E-07
vn 0 1 1.846938E-07
vn 0 1 0
vn 0 1 0
vn 0 1 0
vn 0 1 4.656534E-07
vn 0 1 4.665361E-07
vn 3.296007E-07 1 1.371192E-07
vn 3.302675E-07 1 1.354963E-07
vn 0 1 -2.2127E-07
vn 0 1 -2.215296E-07
vn -1.815756E-07 1 0
vn 0 1 1.870318E-07
vn 1.367015E-07 1 2.058048E-07
vn 0 1 1.870318E-07
vn 2.998923E-07 1 2.243616E-07
vn 2.998922E-07 1 2.243616E-07
vn 0 -1 0
vn 0 -1 0
vn 0 -1 -1.86408E-07
vn 0 -1 -1.846938E-07
vn 1.377442E-07 -1 -2.058504E-07
vn 1.371102E-07 -1 -2.057796E-07
vn 0 -1 -2.458331E-07
vn 0 -1 -2.460596E-07
vn 1.78046E-07 -1 -2.983697E-07
vn 1.79207E-07 -1 -2.976836E-07
vn 1.371102E-07 -1 -2.057796E-07
vn 1.377442E-07 -1 -2.058504E-07
vn 0 -1 -2.454643E-07
vn 0 -1 -2.460075E-07
vn -1.351798E-07 -1 -2.056318E-07
vn -1.367015E-07 -1 -2.058048E-07
vn -1 0 0
vn -1 0 0
vn -1 0 0
vn -1 0 0
vn 0 2.129132E-07 -1
vn 0 2.129132E-07 -1
vn 0 2.129132E-07 -1
vn 0 2.129132E-07 -1
vn -0.7071066 0 0.7071069
vn -0.7071067 0 0.7071069
vn -0.7071066 0 0.7071069
vn -0.7071067 0 0.7071069
vn -0.7071066 1.324819E-07 -0.7071069
vn -0.7071066 1.324819E-07 -0.7071069
vn -0.7071066 1.324819E-07 -0.7071069
vn -0.7071066 1.324819E-07 -0.7071069
vn 0.7071067 -1.445257E-07 0.7071069
vn 0.7071066 -1.445257E-07 0.7071069
vn 0.7071066 -1.445257E-07 0.7071069
vn 0.7071066 -1.445257E-07 0.7071069
vn 1 0 5.664359E-07
vn 1 0 5.664358E-07
vn 1 0 5.664358E-07
vn 1 0 5.664358E-07
vn -0.7064661 0.0005217404 -0.7077467
vn -0.7064661 0.0005217404 -0.7077467
vn -0.7064661 0.0005217404 -0.7077467
vn -0.7064661 0.0005217404 -0.7077467
vn 1 0.0002369822 -1.679761E-06
vn 1 0.0002369822 -1.679761E-06
vn 1 0.0002369822 -1.679761E-06
vn 1 0.0002369822 -1.679761E-06
vn 0.7071049 -1.52855E-07 0.7071087
vn 0.7071049 -1.52855E-07 0.7071086
vn 0.7071049 -1.52855E-07 0.7071086
vn 0.7071049 -1.52855E-07 0.7071086
vn 0 -1.021692E-07 1
vn 0 -1.021692E-07 1
vn 0 -1.021692E-07 1
vn 0 -1.021692E-07 1
vn 0.7064631 0.0002857196 -0.7077498
vn 0.706463 0.0002857196 -0.7077499
vn 0.7064631 0.0002857195 -0.7077498
vn 0.7064631 0.0002857196 -0.7077498
vn -0.7071049 0.0002364867 0.7071086
vn -0.7071049 0.0002364867 0.7071086
vn -0.7071049 0.0002364867 0.7071087
vn -0.7071049 0.0002364868 0.7071086
vn -0.9999998 0.0005705643 -1.029324E-06
vn -0.9999998 0.0005705643 -1.029324E-06
vn -0.9999998 0.0005705643 -1.029324E-06
vn -0.9999998 0.0005705643 -1.029324E-06
vn 0.0003531788 0.0001111075 -0.9999999
vn 0.0003531788 0.0001111075 -0.9999999
vn 0.0003531788 0.0001111075 -0.9999999
vn 0.0003531788 0.0001111075 -0.9999999
vn 3.376107E-07 1 3.341354E-07
vn 3.376107E-07 1 3.341354E-07
vn 3.376107E-07 1 3.341354E-07
vn 3.376107E-07 1 3.341354E-07
g royale_martian_tower_mesh_lod02_0
f 3/3/3 2/2/2 1/1/1
f 6/6/6 5/5/5 4/4/4
f 7/7/7 6/6/6 4/4/4
f 10/10/10 9/9/9 8/8/8
f 11/11/11 10/10/10 8/8/8
f 14/14/14 13/13/13 12/12/12
f 15/15/15 14/14/14 12/12/12
f 18/18/18 17/17/17 16/16/16
f 19/19/19 18/18/18 16/16/16
f 18/18/18 19/19/19 20/20/20
f 19/19/19 21/21/21 20/20/20
f 24/24/24 23/23/23 22/22/22
f 25/25/25 24/24/24 22/22/22
f 28/28/28 27/27/27 26/26/26
f 29/29/29 28/28/28 26/26/26
f 29/29/29 26/26/26 30/30/30
f 26/26/26 31/31/31 30/30/30
f 34/34/34 33/33/33 32/32/32
f 35/35/35 34/34/34 32/32/32
f 38/38/38 37/37/37 36/36/36
f 39/39/39 38/38/38 36/36/36
f 42/42/42 41/41/41 40/40/40
f 43/43/43 42/42/42 40/40/40
f 46/46/46 45/45/45 44/44/44
f 47/47/47 46/46/46 44/44/44
f 50/50/50 49/49/49 48/48/48
f 51/51/51 50/50/50 48/48/48
f 54/54/54 53/53/53 52/52/52
f 55/55/55 54/54/54 52/52/52
f 58/58/58 57/57/57 56/56/56
f 59/59/59 58/58/58 56/56/56
f 62/62/62 61/61/61 60/60/60
f 63/63/63 62/62/62 60/60/60
f 66/66/66 65/65/65 64/64/64
f 67/67/67 66/66/66 64/64/64
f 70/70/70 69/69/69 68/68/68
f 71/71/71 70/70/70 68/68/68
f 74/74/74 73/73/73 72/72/72
f 75/75/75 74/74/74 72/72/72
f 78/78/78 77/77/77 76/76/76
f 81/81/81 80/80/80 79/79/79
f 84/84/84 83/83/83 82/82/82
f 87/87/87 86/86/86 85/85/85
f 88/88/88 87/87/87 85/85/85
f 91/91/91 90/90/90 89/89/89
f 92/92/92 91/91/91 89/89/89
f 92/92/92 93/93/93 91/91/91
f 93/93/93 94/94/94 91/91/91
f 97/97/97 96/96/96 95/95/95
f 98/98/98 97/97/97 95/95/95
f 98/98/98 99/99/99 97/97/97
f 99/99/99 100/100/100 97/97/97
f 103/103/103 102/102/102 101/101/101
f 104/104/104 103/103/103 101/101/101
f 107/107/107 106/106/106 105/105/105
f 108/108/108 107/107/107 105/105/105
f 111/111/111 110/110/110 109/109/109
f 112/112/112 111/111/111 109/109/109
g royale_martian_tower_mesh_lod02_1
f 115/115/115 114/114/114 113/113/113
f 116/116/116 115/115/115 113/113/113
f 119/119/119 118/118/118 117/117/117
f 120/120/120 119/119/119 117/117/117
f 123/123/123 122/122/122 121/121/121
f 124/124/124 123/123/123 121/121/121
f 127/127/127 126/126/126 125/125/125
f 128/128/128 127/127/127 125/125/125
f 131/131/131 130/130/130 129/129/129
f 132/132/132 131/131/131 129/129/129
f 135/135/135 134/134/134 133/133/133
f 136/136/136 135/135/135 133/133/133
f 139/139/139 138/138/138 137/137/137
f 140/140/140 139/139/139 137/137/137
f 137/137/137 138/138/138 141/141/141
f 138/138/138 142/142/142 141/141/141
f 141/141/141 142/142/142 143/143/143
f 142/142/142 144/144/144 143/143/143
f 143/143/143 144/144/144 145/145/145
f 144/144/144 146/146/146 145/145/145
f 145/145/145 146/146/146 147/147/147
f 146/146/146 148/148/148 147/147/147
f 147/147/147 148/148/148 149/149/149
f 148/148/148 150/150/150 149/149/149
f 149/149/149 150/150/150 151/151/151
f 150/150/150 152/152/152 151/151/151
f 155/155/155 154/154/154 153/153/153
f 156/156/156 155/155/155 153/153/153
f 159/159/159 158/158/158 157/157/157
f 160/160/160 159/159/159 157/157/157
f 163/163/163 162/162/162 161/161/161
f 164/164/164 163/163/163 161/161/161
f 167/167/167 166/166/166 165/165/165
f 168/168/168 167/167/167 165/165/165
f 171/171/171 170/170/170 169/169/169
f 172/172/172 171/171/171 169/169/169
f 175/175/175 174/174/174 173/173/173
f 176/176/176 175/175/175 173/173/173
f 179/179/179 178/178/178 177/177/177
f 180/180/180 179/179/179 177/177/177
f 183/183/183 182/182/182 181/181/181
f 184/184/184 183/183/183 181/181/181
f 187/187/187 186/186/186 185/185/185
f 188/188/188 187/187/187 185/185/185
f 191/191/191 190/190/190 189/189/189
f 192/192/192 191/191/191 189/189/189
f 195/195/195 194/194/194 193/193/193
f 196/196/196 195/195/195 193/193/193
f 199/199/199 198/198/198 197/197/197
f 200/200/200 199/199/199 197/197/197
f 203/203/203 202/202/202 201/201/201
f 204/204/204 203/203/203 201/201/201
f 207/207/207 206/206/206 205/205/205
f 208/208/208 207/207/207 205/205/205
f 211/211/211 210/210/210 209/209/209
f 212/212/212 211/211/211 209/209/209
f 215/215/215 214/214/214 213/213/213
f 216/216/216 215/215/215 213/213/213
f 219/219/219 218/218/218 217/217/217
f 220/220/220 219/219/219 217/217/217
f 223/223/223 222/222/222 221/221/221
f 224/224/224 223/223/223 221/221/221
f 227/227/227 226/226/226 225/225/225
f 228/228/228 227/227/227 225/225/225
