g royale_car_survivors_roll_mesh1
v -0.04398234 0.5311368 1.507548E-07
v -0.04398234 0.4599779 -0.2655682
v 0.3450463 0.4599779 -0.2655682
v 0.3450463 0.5311368 1.507548E-07
v -0.04398234 0.4599779 -0.2655682
v -0.04398234 0.2655686 -0.4599777
v 0.3450463 0.2655686 -0.4599777
v 0.3450463 0.4599779 -0.2655682
v -0.04398234 0.2655686 -0.4599777
v -0.04398234 2.068322E-07 -0.5311366
v 0.3450463 2.068322E-07 -0.5311366
v 0.3450463 0.2655686 -0.4599777
v -0.04398234 2.068322E-07 -0.5311366
v -0.04398234 -0.265568 -0.4599779
v 0.3450463 -0.265568 -0.4599779
v 0.3450463 2.068322E-07 -0.5311366
v -0.04398234 -0.265568 -0.4599779
v -0.04398234 -0.4599776 -0.2655686
v 0.3450463 -0.4599776 -0.2655686
v 0.3450463 -0.265568 -0.4599779
v -0.04398234 -0.4599776 -0.2655686
v -0.04398234 -0.5311366 -2.629097E-07
v 0.3450463 -0.5311366 -3.189872E-07
v 0.3450463 -0.4599776 -0.2655686
v -0.04398234 -0.5311366 -2.629097E-07
v -0.04398234 -0.4599778 0.265568
v 0.3450463 -0.4599778 0.265568
v 0.3450463 -0.5311366 -3.189872E-07
v -0.04398234 -0.4599778 0.265568
v -0.04398234 -0.2655685 0.4599776
v 0.3450463 -0.2655685 0.4599773
v 0.3450463 -0.4599778 0.265568
v -0.04398234 -0.2655685 0.4599776
v -0.04398234 -3.189872E-07 0.5311366
v 0.3450463 -3.189872E-07 0.5311368
v 0.3450463 -0.2655685 0.4599773
v -0.04398234 -3.189872E-07 0.5311366
v -0.04398234 0.2655678 0.4599781
v 0.3450463 0.2655678 0.4599779
v 0.3450463 -3.189872E-07 0.5311368
v 0.3450463 -0.4599776 -0.2655686
v 0.3450463 -0.5311366 -3.189872E-07
v 0.3450463 -0.4599778 0.265568
v 0.3450463 -0.2655685 0.4599773
v 0.3450463 -0.265568 -0.4599779
v 0.3450463 -3.189872E-07 0.5311368
v 0.3450463 2.068322E-07 -0.5311366
v 0.3450463 0.2655678 0.4599779
v 0.3450463 0.2655686 -0.4599777
v 0.3450463 0.4599776 0.2655687
v 0.3450463 0.4599779 -0.2655682
v 0.3450463 0.5311368 1.507548E-07
v -0.04398234 0.2655678 0.4599781
v -0.04398234 0.4599776 0.2655687
v 0.3450463 0.4599776 0.2655687
v 0.3450463 0.2655678 0.4599779
v -0.04398234 0.4599776 0.2655687
v -0.04398234 0.5311368 1.507548E-07
v 0.3450463 0.5311368 1.507548E-07
v 0.3450463 0.4599776 0.2655687
v -0.04398234 -0.4599778 0.265568
v -0.04398234 -0.5311366 -2.629097E-07
v -0.04398234 -0.4599776 -0.2655686
v -0.04398234 -0.2655685 0.4599776
v -0.04398234 -0.265568 -0.4599779
v -0.04398234 -3.189872E-07 0.5311366
v -0.04398234 2.068322E-07 -0.5311366
v -0.04398234 0.2655678 0.4599781
v -0.04398234 0.2655686 -0.4599777
v -0.04398234 0.4599776 0.2655687
v -0.04398234 0.4599779 -0.2655682
v -0.04398234 0.5311368 1.507548E-07
vt 0.2125027 0.3977765
vt 0.2055848 0.3977765
vt 0.2055848 0.3599565
vt 0.2125027 0.3599565
vt 0.2055848 0.3977765
vt 0.186685 0.3977765
vt 0.186685 0.3599565
vt 0.2055848 0.3599565
vt 0.186685 0.3977765
vt 0.1608673 0.3977765
vt 0.1608673 0.3599565
vt 0.186685 0.3599565
vt 0.1608673 0.3977765
vt 0.1350497 0.3977765
vt 0.1350497 0.3599565
vt 0.1608673 0.3599565
vt 0.1350497 0.3977765
vt 0.11615 0.3977765
vt 0.11615 0.3599565
vt 0.1350497 0.3599565
vt 0.11615 0.3977765
vt 0.1092321 0.3977765
vt 0.1092321 0.3599565
vt 0.11615 0.3599565
vt 0.1092321 0.3977765
vt 0.11615 0.3977765
vt 0.11615 0.3599565
vt 0.1092321 0.3599565
vt 0.11615 0.3977765
vt 0.1350497 0.3977765
vt 0.1350497 0.3599565
vt 0.11615 0.3599565
vt 0.1350497 0.3977765
vt 0.1608673 0.3977765
vt 0.1608673 0.3599565
vt 0.1350497 0.3599565
vt 0.1608673 0.3977765
vt 0.186685 0.3977765
vt 0.186685 0.3599565
vt 0.1608673 0.3599565
vt 0.1096772 0.2639401
vt 0.1018819 0.2930322
vt 0.1096772 0.3221243
vt 0.130974 0.3434213
vt 0.130974 0.2426432
vt 0.160066 0.3512164
vt 0.160066 0.2348481
vt 0.1891582 0.3434213
vt 0.1891582 0.2426432
vt 0.2104551 0.3221243
vt 0.2104551 0.2639401
vt 0.2182504 0.2930322
vt 0.186685 0.3977765
vt 0.2055848 0.3977765
vt 0.2055848 0.3599565
vt 0.186685 0.3599565
vt 0.2055848 0.3977765
vt 0.2125027 0.3977765
vt 0.2125027 0.3599565
vt 0.2055848 0.3599565
vt 0.1096772 0.3221243
vt 0.1018819 0.2930322
vt 0.1096772 0.2639401
vt 0.130974 0.3434213
vt 0.130974 0.2426432
vt 0.160066 0.3512164
vt 0.160066 0.2348481
vt 0.1891582 0.3434213
vt 0.1891582 0.2426432
vt 0.2104551 0.3221243
vt 0.2104551 0.2639401
vt 0.2182504 0.2930322
vn 0 0.9659258 -0.258819
vn 0 0.9659258 -0.258819
vn 0 0.9659258 -0.258819
vn 0 0.9659258 -0.258819
vn 0 0.7071071 -0.7071065
vn 0 0.7071071 -0.7071065
vn 0 0.7071071 -0.7071065
vn 0 0.7071071 -0.7071065
vn 0 0.2588195 -0.9659257
vn 0 0.2588195 -0.9659257
vn 0 0.2588195 -0.9659257
vn 0 0.2588195 -0.9659257
vn 0 -0.2588189 -0.9659259
vn 0 -0.2588189 -0.9659259
vn 0 -0.2588189 -0.9659259
vn 0 -0.2588189 -0.9659259
vn 0 -0.7071064 -0.7071072
vn 0 -0.7071065 -0.7071071
vn 0 -0.7071065 -0.7071071
vn 0 -0.7071064 -0.7071072
vn 0 -0.9659256 -0.25882
vn 0 -0.9659256 -0.25882
vn 0 -0.9659256 -0.25882
vn 0 -0.9659256 -0.25882
vn 0 -0.9659258 0.2588193
vn 0 -0.9659258 0.2588193
vn 0 -0.9659258 0.2588193
vn 0 -0.9659258 0.2588192
vn 3.138549E-07 -0.7071071 0.7071065
vn 3.13855E-07 -0.7071071 0.7071065
vn 3.138549E-07 -0.7071071 0.7071065
vn 3.138549E-07 -0.7071071 0.7071065
vn 2.853225E-07 -0.2588205 0.9659255
vn 2.853225E-07 -0.2588205 0.9659255
vn 2.853225E-07 -0.2588205 0.9659255
vn 2.853225E-07 -0.2588205 0.9659255
vn 1.462279E-07 0.2588188 0.9659259
vn 1.462279E-07 0.2588188 0.9659259
vn 1.462279E-07 0.2588188 0.9659259
vn 1.462279E-07 0.2588188 0.9659259
vn 1 0 0
vn 1 0 0
vn 1 0 0
vn 1 0 0
vn 1 0 0
vn 1 0 0
vn 1 0 0
vn 1 0 0
vn 1 0 0
vn 1 0 0
vn 1 0 0
vn 1 0 0
vn 2.068588E-07 0.7071058 0.7071077
vn 2.068588E-07 0.7071059 0.7071077
vn 2.068588E-07 0.7071059 0.7071077
vn 2.068588E-07 0.7071059 0.7071077
vn 0 0.9659256 0.2588201
vn 0 0.9659256 0.2588201
vn 0 0.9659256 0.2588201
vn 0 0.9659256 0.2588201
vn -1 0 0
vn -1 0 0
vn -1 0 0
vn -1 0 0
vn -1 0 0
vn -1 0 0
vn -1 0 0
vn -1 0 0
vn -1 0 0
vn -1 0 0
vn -1 0 0
vn -1 0 0
g royale_car_survivors_roll_mesh1_0
f 3/3/3 2/2/2 1/1/1
f 4/4/4 3/3/3 1/1/1
f 7/7/7 6/6/6 5/5/5
f 8/8/8 7/7/7 5/5/5
f 11/11/11 10/10/10 9/9/9
f 12/12/12 11/11/11 9/9/9
f 15/15/15 14/14/14 13/13/13
f 16/16/16 15/15/15 13/13/13
f 19/19/19 18/18/18 17/17/17
f 20/20/20 19/19/19 17/17/17
f 23/23/23 22/22/22 21/21/21
f 24/24/24 23/23/23 21/21/21
f 27/27/27 26/26/26 25/25/25
f 28/28/28 27/27/27 25/25/25
f 31/31/31 30/30/30 29/29/29
f 32/32/32 31/31/31 29/29/29
f 35/35/35 34/34/34 33/33/33
f 36/36/36 35/35/35 33/33/33
f 39/39/39 38/38/38 37/37/37
f 40/40/40 39/39/39 37/37/37
f 43/43/43 42/42/42 41/41/41
f 41/41/41 44/44/44 43/43/43
f 41/41/41 45/45/45 44/44/44
f 45/45/45 46/46/46 44/44/44
f 45/45/45 47/47/47 46/46/46
f 47/47/47 48/48/48 46/46/46
f 47/47/47 49/49/49 48/48/48
f 49/49/49 50/50/50 48/48/48
f 49/49/49 51/51/51 50/50/50
f 51/51/51 52/52/52 50/50/50
f 55/55/55 54/54/54 53/53/53
f 56/56/56 55/55/55 53/53/53
f 59/59/59 58/58/58 57/57/57
f 60/60/60 59/59/59 57/57/57
f 63/63/63 62/62/62 61/61/61
f 61/61/61 64/64/64 63/63/63
f 64/64/64 65/65/65 63/63/63
f 64/64/64 66/66/66 65/65/65
f 66/66/66 67/67/67 65/65/65
f 66/66/66 68/68/68 67/67/67
f 68/68/68 69/69/69 67/67/67
f 68/68/68 70/70/70 69/69/69
f 70/70/70 71/71/71 69/69/69
f 70/70/70 72/72/72 71/71/71
