g royale_cactus_03_mesh_lod01
v 0.3749826 0.3749945 5.469602
v 0.3749826 -0.3749927 5.469601
v -0.3750028 9.155117E-07 5.469602
v 0.3749826 0.3749941 -1.144409E-07
v 0.3749826 0.3749945 5.469602
v -0.3750028 9.155117E-07 5.469602
v -0.3750028 4.577559E-07 -1.144409E-07
v -0.3750028 4.577559E-07 -1.144409E-07
v -0.3750028 9.155117E-07 5.469602
v 0.3749826 -0.3749927 5.469601
v 0.3749826 -0.3749932 -1.144409E-07
v 0.3749826 -0.3749932 -1.144409E-07
v 0.3749826 -0.3749927 5.469601
v 0.3749826 0.3749945 5.469602
v 0.3749826 0.3749941 -1.144409E-07
v 0.3749826 -1.968635 2.719601
v 0.3749826 -1.968633 2.219601
v -0.3750028 -1.968635 2.469601
v 0.3749826 -0.3749911 2.719601
v 0.3749826 -1.968635 2.719601
v -0.3750028 -1.968635 2.469601
v -0.3750028 2.288779E-06 2.469601
v -0.3750028 2.288779E-06 2.469601
v -0.3750028 -1.968635 2.469601
v 0.3749826 -1.968633 2.219601
v 0.3749826 -0.3749916 2.219601
v 0.3749826 -0.3749916 2.219601
v 0.3749826 -1.968633 2.219601
v 0.3749826 -1.968635 2.719601
v 0.3749826 -0.3749911 2.719601
v 0.3749826 -1.218647 3.719602
v 0.3749826 -1.968635 3.7196
v -0.3750028 -1.593641 3.719601
v 0.3749826 -1.218647 2.719601
v 0.3749826 -1.218647 3.719602
v -0.3750028 -1.593641 3.719601
v -0.3750028 -1.593641 2.469601
v -0.3750028 -1.593641 2.469601
v -0.3750028 -1.593641 3.719601
v 0.3749826 -1.968635 3.7196
v 0.3749826 -1.968634 2.719601
v 0.3749826 -1.968634 2.719601
v 0.3749826 -1.968635 3.7196
v 0.3749826 -1.218647 3.719602
v 0.3749826 -1.218647 2.719601
v 0.3749991 1.968641 3.22049
v -0.3749863 1.96864 2.97049
v 0.3749991 1.968639 2.72049
v -0.3749881 9.155117E-07 2.97049
v -0.3749863 1.96864 2.97049
v 0.3749991 1.968641 3.22049
v 0.3749991 0.3749936 3.22049
v 0.3749991 0.3749936 3.22049
v 0.3749991 1.968641 3.22049
v 0.3749991 1.968639 2.72049
v 0.3749991 0.3749936 2.72049
v 0.3749991 0.3749936 2.72049
v 0.3749991 1.968639 2.72049
v -0.3749863 1.96864 2.97049
v -0.3749881 9.155117E-07 2.97049
v 0.375001 1.218652 4.532937
v -0.3749872 1.593647 4.532936
v 0.375001 1.96864 4.532936
v -0.3749872 1.593646 2.97049
v -0.3749872 1.593647 4.532936
v 0.375001 1.218652 4.532937
v 0.3750028 1.218651 3.220489
v 0.3750028 1.218651 3.220489
v 0.375001 1.218652 4.532937
v 0.375001 1.96864 4.532936
v 0.375001 1.96864 3.22049
v 0.375001 1.96864 3.22049
v 0.375001 1.96864 4.532936
v -0.3749872 1.593647 4.532936
v -0.3749872 1.593646 2.97049
vt 0.8656945 0.742902
vt 0.8656943 0.2272476
vt 0.1342862 0.485075
vt 0.1343056 -1.351919
vt 0.1343056 4.28893
vt 0.8657124 4.28893
vt 0.8657138 -1.351919
vt 0.134286 -1.351919
vt 0.1342862 4.288929
vt 0.8656929 4.288929
vt 0.8656943 -1.351919
vt 0.1342947 -1.351919
vt 0.1342951 4.288929
vt 0.865706 4.28893
vt 0.8657047 -1.351919
vt 0.8656941 0.1633567
vt 0.8656941 -0.3522978
vt 0.1342858 -0.0944705
vt 0.8939876 0.4750981
vt 0.8656941 -0.6106392
vt 0.1342858 -0.6106392
vt 0.1342862 0.7428994
vt 0.8464502 0.7361081
vt 0.8657144 -0.6106386
vt 0.134306 -0.610638
vt 0.1343057 0.4850715
vt 0.499999 -0.3522978
vt -1.054168 -0.3522978
vt -1.05417 0.1633567
vt 0.4999995 0.1633567
vt 0.8656938 -0.09498346
vt 0.8656936 -0.6106377
vt 0.1342854 -0.3528103
vt 0.134306 0.1633563
vt 0.1343054 1.194666
vt 0.8657138 1.194667
vt 0.8657142 -0.09447098
vt 0.1342857 -0.09447002
vt 0.1342857 1.194664
vt 0.8656939 1.194664
vt 0.8656941 0.1633567
vt -1.054169 0.1633567
vt -1.054169 1.194664
vt -0.3227598 1.194666
vt -0.3227589 0.1633563
vt 0.1342892 0.7443081
vt 0.8656975 0.486481
vt 0.1342892 0.2286538
vt 0.1586811 0.2358379
vt 0.1343026 1.580784
vt 0.8657108 1.580784
vt 0.8657106 0.4850705
vt 0.4999975 0.7443081
vt 2.054169 0.7443081
vt 2.054168 0.2286538
vt 0.4999976 0.2286538
vt 0.1099092 0.4936648
vt 0.1342892 1.580782
vt 0.8656975 1.580782
vt 0.8656998 0.2272444
vt 0.8657138 1.065127
vt 0.134303 1.322954
vt 0.865714 1.580781
vt 0.1343025 0.4864798
vt 0.1343027 2.097849
vt 0.8657148 2.097847
vt 0.8657144 0.7443076
vt 1.322757 0.7443076
vt 1.322759 2.097847
vt 2.054169 2.097845
vt 2.054168 0.7443081
vt 0.134287 0.7443081
vt 0.134288 2.097845
vt 0.8657007 2.097843
vt 0.8656991 0.4864816
vn 0 -8.138159E-07 1
vn 0 -8.138159E-07 1
vn 0 -8.138159E-07 1
vn 0 1 -1.284948E-07
vn 0 1 -1.284948E-07
vn 0 1 -1.284948E-07
vn 0 1 -1.284948E-07
vn 0 -1 1.284948E-07
vn 0 -1 1.284948E-07
vn 0 -1 1.284948E-07
vn 0 -1 1.284948E-07
vn 1 0 0
vn 1 0 0
vn 1 0 0
vn 1 0 0
vn 0 -1 -1.831023E-06
vn 0 -1 -1.831023E-06
vn 0 -1 -1.831023E-06
vn 0 0 1
vn 0 0 1
vn 0 0 1
vn 0 0 1
vn 0 0 -1
vn 0 0 -1
vn 0 0 -1
vn 0 0 -1
vn 1 0 0
vn 1 0 0
vn 1 0 0
vn 1 0 0
vn 0 -1.220724E-06 1
vn 0 -1.220724E-06 1
vn 0 -1.220724E-06 1
vn 0 1 9.155108E-07
vn 0 1 9.155108E-07
vn 0 1 9.155108E-07
vn 0 1 9.155108E-07
vn 0 -1 -9.155141E-07
vn 0 -1 -9.155131E-07
vn 0 -1 -9.155141E-07
vn 0 -1 -9.155141E-07
vn 1 0 0
vn 1 0 0
vn 1 0 0
vn 1 0 0
vn 0 1 -3.662047E-06
vn 0 1 -3.662047E-06
vn 0 1 -3.662047E-06
vn 0 0 1
vn 0 0 1
vn 0 0 1
vn 0 0 1
vn 1 0 0
vn 1 0 0
vn 1 0 0
vn 1 0 0
vn 0 0 -1
vn 0 0 -1
vn 0 0 -1
vn 0 0 -1
vn 0 2.03454E-06 1
vn 0 2.03454E-06 1
vn 0 2.03454E-06 1
vn -1.2207E-06 -1 3.255438E-06
vn -1.220703E-06 -1 3.255442E-06
vn -1.2207E-06 -1 3.255438E-06
vn -1.2207E-06 -1 3.255438E-06
vn 1 2.4414E-06 0
vn 1 0 3.255442E-06
vn 1 2.441401E-06 0
vn 1 2.4414E-06 0
vn 0 1 0
vn 0 1 0
vn 0 1 0
vn 0 1 0
g royale_cactus_03_mesh_lod01_0
f 3/3/3 2/2/2 1/1/1
f 6/6/6 5/5/5 4/4/4
f 7/7/7 6/6/6 4/4/4
f 10/10/10 9/9/9 8/8/8
f 11/11/11 10/10/10 8/8/8
f 14/14/14 13/13/13 12/12/12
f 15/15/15 14/14/14 12/12/12
f 18/18/18 17/17/17 16/16/16
f 21/21/21 20/20/20 19/19/19
f 22/22/22 21/21/21 19/19/19
f 25/25/25 24/24/24 23/23/23
f 26/26/26 25/25/25 23/23/23
f 29/29/29 28/28/28 27/27/27
f 30/30/30 29/29/29 27/27/27
f 33/33/33 32/32/32 31/31/31
f 36/36/36 35/35/35 34/34/34
f 37/37/37 36/36/36 34/34/34
f 40/40/40 39/39/39 38/38/38
f 41/41/41 40/40/40 38/38/38
f 44/44/44 43/43/43 42/42/42
f 45/45/45 44/44/44 42/42/42
f 48/48/48 47/47/47 46/46/46
f 51/51/51 50/50/50 49/49/49
f 52/52/52 51/51/51 49/49/49
f 55/55/55 54/54/54 53/53/53
f 56/56/56 55/55/55 53/53/53
f 59/59/59 58/58/58 57/57/57
f 60/60/60 59/59/59 57/57/57
f 63/63/63 62/62/62 61/61/61
f 66/66/66 65/65/65 64/64/64
f 67/67/67 66/66/66 64/64/64
f 70/70/70 69/69/69 68/68/68
f 71/71/71 70/70/70 68/68/68
f 74/74/74 73/73/73 72/72/72
f 75/75/75 74/74/74 72/72/72
