g royale_city_buildings_mesh_13
v -17.32796 8.165836E-06 36.0145
v -17.32795 13.57007 36.01455
v -32.31049 13.57007 36.01455
v -32.31049 8.165836E-06 36.01451
v -32.31049 8.165836E-06 36.01451
v -32.31049 13.57007 36.01455
v -32.31048 13.57008 46.0407
v -32.31048 7.439852E-06 46.04065
v -17.32795 7.439852E-06 46.04064
v -17.32794 13.57008 46.04069
v -17.32795 13.57007 36.01455
v -17.32796 8.165836E-06 36.0145
v -17.32795 7.439852E-06 46.04064
v -32.31048 7.439852E-06 46.04065
v -32.31048 13.57008 46.0407
v -17.32794 13.57008 46.04069
v -32.31048 13.57008 46.0407
v -32.31049 13.57007 36.01455
v -17.32795 13.57007 36.01455
v -17.32794 13.57008 46.04069
vt 0.5440042 0.009070295
vt 0.5440042 0.4557823
vt 0.9882506 0.4557823
vt 0.9882506 0.009070295
vt 0.5440042 0.009070295
vt 0.5440042 0.4557823
vt 0.9882506 0.4557823
vt 0.9882506 0.009070295
vt 0.5440042 0.009070295
vt 0.5440042 0.4557823
vt 0.9882506 0.4557823
vt 0.9882506 0.009070295
vt 0.5440042 0.009070295
vt 0.9882506 0.009070295
vt 0.9882506 0.4557823
vt 0.5440042 0.4557823
vt 32.81048 46.54075
vt 32.81048 36.51461
vt 17.82795 36.5146
vt 17.82794 46.54075
vn -5.092193E-07 0 -1
vn -5.092193E-07 0 -1
vn -5.092193E-07 0 -1
vn -5.092193E-07 0 -1
vn -1 0 3.804748E-07
vn -1 0 3.804748E-07
vn -1 0 3.804748E-07
vn -1 0 3.804748E-07
vn 1 0 -9.511872E-07
vn 1 0 -9.511872E-07
vn 1 0 -9.511872E-07
vn 1 0 -9.511872E-07
vn 4.888504E-07 0 1
vn 4.888504E-07 0 1
vn 4.888504E-07 0 1
vn 4.888504E-07 0 1
vn 0 1 0
vn 0 1 0
vn 0 1 0
vn 0 1 0
g royale_city_buildings_mesh_13_0
f 3/3/3 2/2/2 1/1/1
f 4/4/4 3/3/3 1/1/1
f 7/7/7 6/6/6 5/5/5
f 8/8/8 7/7/7 5/5/5
f 11/11/11 10/10/10 9/9/9
f 12/12/12 11/11/11 9/9/9
f 15/15/15 14/14/14 13/13/13
f 16/16/16 15/15/15 13/13/13
g royale_city_buildings_mesh_13_1
f 19/19/19 18/18/18 17/17/17
f 20/20/20 19/19/19 17/17/17
