g Royale_jail_computer
v 0.2190137 0.05348511 0.1000024
v -0.2209766 -0.2863623 0.1000016
v -0.2208594 0.05363647 0.1000013
v 0.2188965 -0.2865149 0.1000027
v 0.2190137 0.05348511 2.5177E-06
v -0.2208594 0.05363647 0.1000013
v -0.2208594 0.05363647 1.449585E-06
v 0.2190137 0.05348511 0.1000024
v -0.2208594 0.05363647 1.449585E-06
v -0.2209766 -0.2863623 0.1000016
v -0.2209717 -0.2863623 1.907349E-06
v -0.2208594 0.05363647 0.1000013
v -0.2209717 -0.2863623 1.907349E-06
v 0.2188965 -0.2865149 0.1000027
v 0.2188965 -0.2865149 2.975464E-06
v -0.2209766 -0.2863623 0.1000016
v 0.2188965 -0.2865149 2.975464E-06
v 0.2190137 0.05348511 0.1000024
v 0.2190137 0.05348511 2.5177E-06
v 0.2188965 -0.2865149 0.1000027
v 0.1991308 0.02349243 0.3999987
v -0.2009277 -0.1506396 0.3999976
v -0.2008691 0.02362915 0.4000016
v 0.1990723 -0.1507764 0.3999987
v 0.1990039 0.02349243 0.0999987
v -0.2008691 0.02362915 0.4000016
v -0.2008691 0.02362915 0.1000018
v 0.1991308 0.02349243 0.3999987
v -0.2008691 0.02362915 0.1000018
v -0.2009277 -0.1506396 0.3999976
v -0.2009277 -0.1506396 0.1000016
v -0.2008691 0.02362915 0.4000016
v 0.1989453 -0.1507764 0.1000027
v 0.1991308 0.02349243 0.3999987
v 0.1990039 0.02349243 0.0999987
v 0.1990723 -0.1507764 0.3999987
v 0.1271484 -0.2493408 0.1539155
v -0.1290381 -0.1506641 0.1539147
v -0.1290723 -0.2492505 0.1539187
v 0.1271826 -0.1507519 0.1539155
v -0.1290723 -0.2492505 0.3460847
v 0.1271826 -0.1507519 0.3460815
v 0.1271484 -0.2493408 0.3460815
v -0.1290381 -0.1506641 0.3460807
v -0.1290723 -0.2492505 0.1539187
v 0.1271484 -0.2493408 0.3460815
v 0.1271484 -0.2493408 0.1539155
v -0.1290723 -0.2492505 0.3460847
v -0.1290381 -0.1506641 0.1539147
v -0.1290723 -0.2492505 0.3460847
v -0.1290723 -0.2492505 0.1539187
v -0.1290381 -0.1506641 0.3460807
v 0.1271484 -0.2493408 0.3460815
v 0.1271826 -0.1507519 0.1539155
v 0.1271484 -0.2493408 0.1539155
v 0.1271826 -0.1507519 0.3460815
v 0.1989453 -0.1507764 0.1000027
v -0.1290381 -0.1506641 0.1539147
v 0.1271826 -0.1507519 0.1539155
v -0.2009277 -0.1506396 0.1000016
v -0.2009277 -0.1506396 0.3999976
v -0.1290381 -0.1506641 0.3460807
v 0.1990723 -0.1507764 0.3999987
v 0.1271826 -0.1507519 0.3460815
v 0.3093994 0.2863025 0.02000244
v -0.3094043 0.1170056 0.02000122
v -0.3093408 0.2865137 0.02000092
v 0.3093457 0.116792 0.02000275
v 0.3093994 0.2863025 2.5177E-06
v -0.3093408 0.2865137 0.02000092
v -0.3093408 0.2865137 9.155273E-07
v 0.3093994 0.2863025 0.02000244
v -0.3093408 0.2865137 9.155273E-07
v -0.3094043 0.1170056 0.02000122
v -0.3094043 0.1170056 1.220703E-06
v -0.3093408 0.2865137 0.02000092
v -0.3094043 0.1170056 1.220703E-06
v 0.3093457 0.116792 0.02000275
v 0.3093457 0.116792 2.670288E-06
v -0.3094043 0.1170056 0.02000122
v 0.3093457 0.116792 2.670288E-06
v 0.3093994 0.2863025 0.02000244
v 0.3093994 0.2863025 2.5177E-06
v 0.3093457 0.116792 0.02000275
vt 0.6708984 0.7851563
vt 0.6523438 0.8095703
vt 0.6708984 0.8095703
vt 0.6523438 0.7851563
vt 0.6767578 0.8105469
vt 0.6708984 0.8359375
vt 0.6767578 0.8359375
vt 0.6708984 0.8105469
vt 0.6513672 0.7851563
vt 0.6455078 0.8046875
vt 0.6513672 0.8046875
vt 0.6455078 0.7851563
vt 0.6767578 0.7851563
vt 0.6708984 0.8095703
vt 0.6767578 0.8095703
vt 0.6708984 0.7851563
vt 0.6455078 0.7851563
vt 0.640625 0.8046875
vt 0.6455078 0.8046875
vt 0.640625 0.7851563
vt 0.6523438 0.8115234
vt 0.6425781 0.8339844
vt 0.6523438 0.8339844
vt 0.6425781 0.8115234
vt 0.6201172 0.8232422
vt 0.6425781 0.8398438
vt 0.6425781 0.8232422
vt 0.6201172 0.8398438
vt 0.6201172 0.7880859
vt 0.6298828 0.8056641
vt 0.6298828 0.7880859
vt 0.6201172 0.8056641
vt 0.6298828 0.7880859
vt 0.6396484 0.8056641
vt 0.6396484 0.7880859
vt 0.6298828 0.8056641
vt 0.6201172 0.8398438
vt 0.6347656 0.8457031
vt 0.6347656 0.8398438
vt 0.6201172 0.8457031
vt 0.6494141 0.8457031
vt 0.6347656 0.8398438
vt 0.6347656 0.8457031
vt 0.6494141 0.8398438
vt 0.6240234 0.8095703
vt 0.6386719 0.8203125
vt 0.6386719 0.8095703
vt 0.6240234 0.8203125
vt 0.6533203 0.8115234
vt 0.6582031 0.8222656
vt 0.6582031 0.8115234
vt 0.6533203 0.8222656
vt 0.6533203 0.8330078
vt 0.6582031 0.8222656
vt 0.6533203 0.8222656
vt 0.6582031 0.8330078
vt 0.6425781 0.8066406
vt 0.6240234 0.8095703
vt 0.6386719 0.8095703
vt 0.6201172 0.8066406
vt 0.6201172 0.8232422
vt 0.6240234 0.8203125
vt 0.6425781 0.8232422
vt 0.6386719 0.8203125
vt 0.6689453 0.8105469
vt 0.6591797 0.8457031
vt 0.6689453 0.8457031
vt 0.6591797 0.8105469
vt 0.6708984 0.8105469
vt 0.6699219 0.8457031
vt 0.6708984 0.8457031
vt 0.6699219 0.8105469
vt 0.6494141 0.8359375
vt 0.6582031 0.8369141
vt 0.6582031 0.8359375
vt 0.6494141 0.8369141
vt 0.6699219 0.8105469
vt 0.6689453 0.8457031
vt 0.6699219 0.8457031
vt 0.6689453 0.8105469
vt 0.6494141 0.8369141
vt 0.6582031 0.8378906
vt 0.6582031 0.8369141
vt 0.6494141 0.8378906
vn -2.427925E-06 8.98414E-07 1
vn -2.427925E-06 8.984146E-07 1
vn -2.427926E-06 8.98416E-07 1
vn -2.427924E-06 8.984127E-07 1
vn 0.0003441157 1 0
vn 0.0003441157 1 0
vn 0.0003441157 1 0
vn 0.0003441157 1 0
vn -1 0.000342055 -8.891926E-06
vn -1 0.0003329243 -3.993634E-05
vn -1 0.000330309 -4.882828E-05
vn -1 0.0003446703 0
vn -0.0003468913 -1 0
vn -0.0003468941 -1 0
vn -0.0003468946 -1 0
vn -0.0003468908 -1 0
vn 1 -0.0003446692 0
vn 1 -0.0003446691 0
vn 1 -0.0003446691 0
vn 1 -0.0003446691 0
vn 0 -5.954718E-06 1
vn 4.647864E-06 -1.681214E-05 1
vn 7.240143E-06 -2.276776E-05 1
vn -2.670288E-06 0 1
vn 0.0003418414 1 0
vn 0.0003418609 1 0
vn 0.0003419054 1 0
vn 0.0003417969 1 -1.446406E-07
vn -1 0.0003362263 0
vn -1 0.0003362263 0
vn -1 0.0003362263 0
vn -1 0.0003362263 0
vn 0.9999999 -0.0003362327 -0.0004231789
vn 0.9999999 -0.0003362295 -0.0004231807
vn 0.9999999 -0.0003362359 -0.000423177
vn 0.9999999 -0.0003362263 -0.0004231826
vn -6.46354E-07 -9.40978E-06 -1
vn -8.896289E-06 -3.082842E-05 -1
vn -1.252038E-05 -4.023736E-05 -1
vn 2.977665E-06 0 -1
vn 6.5368E-07 3.083129E-05 1
vn 8.888723E-06 9.406912E-06 1
vn 1.250619E-05 0 1
vn -2.963861E-06 4.024273E-05 1
vn -0.0003525555 -1 0
vn -0.0003525555 -1 0
vn -0.0003525556 -1 0
vn -0.0003525556 -1 0
vn -1 0.0003466977 0
vn -1 0.0003466977 0
vn -1 0.0003466978 0
vn -1 0.0003466978 0
vn 1 -0.0003466891 0
vn 1 -0.0003466891 0
vn 1 -0.0003466891 0
vn 1 -0.0003466891 0
vn -0.0003411824 -1 -7.476681E-07
vn -0.0003408631 -1 1.390409E-06
vn -0.0003416202 -1 -1.931322E-06
vn -0.0003405472 -1 1.25671E-06
vn -0.0003405028 -1 -1.197412E-06
vn -0.0003408093 -1 -1.290733E-06
vn -0.0003409685 -1 1.119449E-06
vn -0.000341419 -1 2.418961E-06
vn -2.465453E-06 1.801145E-06 1
vn -2.465483E-06 1.801256E-06 1
vn -2.465491E-06 1.801285E-06 1
vn -2.465445E-06 1.801117E-06 1
vn 0.0003413091 1 0
vn 0.0003413091 1 0
vn 0.0003413091 1 0
vn 0.0003413091 1 0
vn -1 0.0003744752 0
vn -1 0.0003744752 0
vn -1 0.0003744751 0
vn -1 0.0003744751 0
vn -0.0003452494 -1 0
vn -0.0003452494 -1 0
vn -0.0003452494 -1 0
vn -0.0003452493 -1 0
vn 1 -0.0003168591 0
vn 1 -0.0003168591 0
vn 1 -0.0003168591 0
vn 1 -0.000316859 0
g Royale_jail_computer_0
f 3/3/3 2/2/2 1/1/1
f 4/4/4 1/1/1 2/2/2
f 7/7/7 6/6/6 5/5/5
f 8/8/8 5/5/5 6/6/6
f 11/11/11 10/10/10 9/9/9
f 12/12/12 9/9/9 10/10/10
f 15/15/15 14/14/14 13/13/13
f 16/16/16 13/13/13 14/14/14
f 19/19/19 18/18/18 17/17/17
f 20/20/20 17/17/17 18/18/18
f 23/23/23 22/22/22 21/21/21
f 24/24/24 21/21/21 22/22/22
f 27/27/27 26/26/26 25/25/25
f 28/28/28 25/25/25 26/26/26
f 31/31/31 30/30/30 29/29/29
f 32/32/32 29/29/29 30/30/30
f 35/35/35 34/34/34 33/33/33
f 36/36/36 33/33/33 34/34/34
f 39/39/39 38/38/38 37/37/37
f 40/40/40 37/37/37 38/38/38
f 43/43/43 42/42/42 41/41/41
f 44/44/44 41/41/41 42/42/42
f 47/47/47 46/46/46 45/45/45
f 48/48/48 45/45/45 46/46/46
f 51/51/51 50/50/50 49/49/49
f 52/52/52 49/49/49 50/50/50
f 55/55/55 54/54/54 53/53/53
f 56/56/56 53/53/53 54/54/54
f 59/59/59 58/58/58 57/57/57
f 60/60/60 57/57/57 58/58/58
f 60/60/60 58/58/58 61/61/61
f 62/62/62 61/61/61 58/58/58
f 61/61/61 62/62/62 63/63/63
f 57/57/57 63/63/63 59/59/59
f 64/64/64 63/63/63 62/62/62
f 64/64/64 59/59/59 63/63/63
f 67/67/67 66/66/66 65/65/65
f 68/68/68 65/65/65 66/66/66
f 71/71/71 70/70/70 69/69/69
f 72/72/72 69/69/69 70/70/70
f 75/75/75 74/74/74 73/73/73
f 76/76/76 73/73/73 74/74/74
f 79/79/79 78/78/78 77/77/77
f 80/80/80 77/77/77 78/78/78
f 83/83/83 82/82/82 81/81/81
f 84/84/84 81/81/81 82/82/82
