g royale_stool_on_wheels
v 0.260542 0.2330556 5.397796E-06
v 0.2239362 0.1953241 0.05460562
v 0.2605688 0.2330556 0.05460348
v 0.2239099 0.1953241 1.564026E-06
v 0.2311316 0.2616138 4.005432E-06
v 0.1945257 0.2238823 0.05460377
v 0.1944995 0.2238823 -2.861023E-07
v 0.2311584 0.2616138 0.05460973
v -0.2234778 0.1945604 5.569458E-06
v -0.1945117 0.2235205 0.05460336
v -0.1945386 0.2235205 7.171631E-06
v -0.2234515 0.1945604 0.05460365
v -0.2325012 -0.2609346 0.05460806
v -0.2612061 -0.2316061 -1.335144E-07
v -0.2611792 -0.2316061 0.05460586
v -0.232406 -0.2609346 1.811981E-06
v 0.2615253 -0.2324522 0.054603
v 0.2325592 -0.2614046 3.299713E-06
v 0.2325854 -0.2614046 0.05460901
v 0.2614984 -0.2324522 4.901886E-06
v 0.2244006 -0.1952248 1.316071E-06
v 0.1952435 -0.2241846 0.05460342
v 0.1953387 -0.2241847 -7.05719E-07
v 0.2243054 -0.1952248 0.05460544
v 0.2325592 -0.2614046 3.299713E-06
v 0.1952435 -0.2241846 0.05460342
v 0.2325854 -0.2614046 0.05460901
v 0.1953387 -0.2241847 -7.05719E-07
v -0.2324872 -0.2676866 0.08939189
v 0.2677704 0.2326033 0.05330418
v -0.2325049 -0.2676866 0.05330415
v 0.267666 0.2326033 0.08939199
v -0.2324457 0.2676985 0.08939189
v -0.2677521 0.2325989 0.05329965
v -0.2324634 0.2676985 0.05330415
v -0.2677344 0.2325989 0.08938739
v 0.2676459 -0.232599 0.08939199
v -0.2324634 0.2676985 0.05330415
v 0.2676282 -0.232599 0.05330425
v -0.2324457 0.2676985 0.08939189
v 0.06578369 0.06301773 0.7401675
v 0.06601929 -0.06408035 0.05210682
v 0.0658673 -0.06408035 0.7401674
v 0.06581359 0.06301773 0.05210691
v -0.06104797 0.06301834 0.7401698
v 0.06581359 0.06301773 0.05210691
v 0.06578369 0.06301773 0.7401675
v -0.06113952 0.06301819 0.05210732
v -0.2618317 -0.264702 0.7401686
v -0.06104797 0.06301834 0.7401698
v -0.2617926 0.2636412 0.7401686
v -0.06108642 -0.06407974 0.7401698
v 0.2666107 -0.2646956 0.7401688
v 0.0658673 -0.06408035 0.7401674
v 0.2666504 0.2636401 0.7401688
v 0.06578369 0.06301773 0.7401675
v 0.2665814 0.2636401 0.8490351
v -0.2619 -0.264702 0.8490353
v -0.261861 0.2636412 0.8490353
v 0.2666638 -0.2646956 0.8490351
v 0.2666504 0.2636401 0.7401688
v 0.2666638 -0.2646956 0.8490351
v 0.2665814 0.2636401 0.8490351
v 0.2666107 -0.2646956 0.7401688
v 0.2311316 0.2616138 4.005432E-06
v 0.2239099 0.1953241 1.564026E-06
v 0.260542 0.2330556 5.397796E-06
v 0.1944995 0.2238823 -2.861023E-07
v -0.2612061 -0.2316061 -1.335144E-07
v -0.2234479 -0.1948744 0.05460365
v -0.2611792 -0.2316061 0.05460586
v -0.2234747 -0.1948744 5.550384E-06
v 0.2326007 -0.2676988 0.08938522
v -0.2324457 0.2676985 0.08939189
v 0.2676459 -0.232599 0.08939199
v -0.2677344 0.2325989 0.08938739
v -0.232406 -0.2609346 1.811981E-06
v -0.2234747 -0.1948744 5.550384E-06
v -0.2612061 -0.2316061 -1.335144E-07
v -0.1949194 -0.2242181 7.343292E-06
v -0.2606714 0.231788 0.05460562
v -0.2317584 0.260748 1.487732E-06
v -0.2318536 0.2607481 0.05460777
v -0.2606982 0.231788 -3.433227E-07
v 0.2326422 0.2676939 0.08938522
v -0.2677722 -0.2326111 0.05329965
v 0.2326245 0.2676939 0.05329748
v -0.2677545 -0.2326111 0.08938739
v 0.267666 0.2326033 0.08939199
v 0.2326245 0.2676939 0.05329748
v 0.2677704 0.2326033 0.05330418
v 0.2326422 0.2676939 0.08938522
v -0.2677545 -0.2326111 0.08938739
v 0.267666 0.2326033 0.08939199
v -0.2324872 -0.2676866 0.08939189
v 0.2326422 0.2676939 0.08938522
v 0.232583 -0.2676988 0.05329748
v -0.2324634 0.2676985 0.05330415
v -0.2677521 0.2325989 0.05329965
v 0.2676282 -0.232599 0.05330425
v -0.2677344 0.2325989 0.08938739
v 0.232583 -0.2676988 0.05329748
v -0.2677521 0.2325989 0.05329965
v 0.2326007 -0.2676988 0.08938522
v -0.2677722 -0.2326111 0.05329965
v 0.2677704 0.2326033 0.05330418
v 0.2326245 0.2676939 0.05329748
v -0.2325049 -0.2676866 0.05330415
v -0.1949194 -0.2242181 7.343292E-06
v -0.2234479 -0.1948744 0.05460365
v -0.2234747 -0.1948744 5.550384E-06
v -0.1948926 -0.2242181 0.05460354
v -0.2606982 0.231788 -3.433227E-07
v -0.1945386 0.2235205 7.171631E-06
v -0.2317584 0.260748 1.487732E-06
v -0.2234778 0.1945604 5.569458E-06
v -0.2617926 0.2636412 0.7401686
v 0.2665814 0.2636401 0.8490351
v -0.261861 0.2636412 0.8490353
v 0.2666504 0.2636401 0.7401688
v -0.2618317 -0.264702 0.7401686
v 0.2666638 -0.2646956 0.8490351
v 0.2666107 -0.2646956 0.7401688
v -0.2619 -0.264702 0.8490353
v -0.261861 0.2636412 0.8490353
v -0.2618317 -0.264702 0.7401686
v -0.2617926 0.2636412 0.7401686
v -0.2619 -0.264702 0.8490353
v 0.2614984 -0.2324522 4.901886E-06
v 0.1953387 -0.2241847 -7.05719E-07
v 0.2325592 -0.2614046 3.299713E-06
v 0.2244006 -0.1952248 1.316071E-06
v -0.06104797 0.06301834 0.7401698
v -0.06105591 -0.0640799 0.05210729
v -0.06113952 0.06301819 0.05210732
v -0.06108642 -0.06407974 0.7401698
v 0.0658673 -0.06408035 0.7401674
v -0.06105591 -0.0640799 0.05210729
v -0.06108642 -0.06407974 0.7401698
v 0.06601929 -0.06408035 0.05210682
v 0.2326007 -0.2676988 0.08938522
v 0.2676282 -0.232599 0.05330425
v 0.232583 -0.2676988 0.05329748
v 0.2676459 -0.232599 0.08939199
v -0.2677545 -0.2326111 0.08938739
v -0.2325049 -0.2676866 0.05330415
v -0.2677722 -0.2326111 0.05329965
v -0.2324872 -0.2676866 0.08939189
v 0.2614984 -0.2324522 4.901886E-06
v 0.2243054 -0.1952248 0.05460544
v 0.2244006 -0.1952248 1.316071E-06
v 0.2615253 -0.2324522 0.054603
v -0.232406 -0.2609346 1.811981E-06
v -0.1948926 -0.2242181 0.05460354
v -0.1949194 -0.2242181 7.343292E-06
v -0.2325012 -0.2609346 0.05460806
v -0.2606982 0.231788 -3.433227E-07
v -0.2234515 0.1945604 0.05460365
v -0.2234778 0.1945604 5.569458E-06
v -0.2606714 0.231788 0.05460562
v -0.2317584 0.260748 1.487732E-06
v -0.1945117 0.2235205 0.05460336
v -0.2318536 0.2607481 0.05460777
v -0.1945386 0.2235205 7.171631E-06
v 0.1944995 0.2238823 -2.861023E-07
v 0.2239362 0.1953241 0.05460562
v 0.2239099 0.1953241 1.564026E-06
v 0.1945257 0.2238823 0.05460377
v 0.2311584 0.2616138 0.05460973
v 0.260542 0.2330556 5.397796E-06
v 0.2605688 0.2330556 0.05460348
v 0.2311316 0.2616138 4.005432E-06
vt 0.7578125 0.0078125
vt 0.78125 0.02734375
vt 0.7578125 0.02734375
vt 0.78125 0.0078125
vt 0.78125 0.0078125
vt 0.7578125 0.02734375
vt 0.7578125 0.0078125
vt 0.78125 0.02734375
vt 0.7578125 0.0078125
vt 0.78125 0.02734375
vt 0.7578125 0.02734375
vt 0.78125 0.0078125
vt 0.7578125 0.0078125
vt 0.78125 0.02734375
vt 0.7578125 0.02734375
vt 0.78125 0.0078125
vt 0.7578125 0.0078125
vt 0.78125 0.02734375
vt 0.7578125 0.02734375
vt 0.78125 0.0078125
vt 0.7578125 0.0078125
vt 0.78125 0.02734375
vt 0.7578125 0.02734375
vt 0.78125 0.0078125
vt 0.7578125 0.0078125
vt 0.78125 0.02734375
vt 0.7578125 0.02734375
vt 0.78125 0.0078125
vt 0.96875 0.3085938
vt 0.8398438 0.3007813
vt 0.96875 0.3007813
vt 0.8398438 0.3085938
vt 0.9492188 0.3007813
vt 0.96875 0.3085938
vt 0.9492188 0.3085938
vt 0.96875 0.3007813
vt 0.96875 0.3085938
vt 0.8398438 0.3007813
vt 0.96875 0.3007813
vt 0.8398438 0.3085938
vt 0.828125 0.1054688
vt 0.8085938 0.0078125
vt 0.8085938 0.1054688
vt 0.828125 0.0078125
vt 0.828125 0.1054688
vt 0.8085938 0.0078125
vt 0.8085938 0.1054688
vt 0.828125 0.0078125
vt 0.5859375 0.1367188
vt 0.6171875 0.0859375
vt 0.5859375 0.0546875
vt 0.6171875 0.1054688
vt 0.6640625 0.1367188
vt 0.6367188 0.1054688
vt 0.6640625 0.0546875
vt 0.6367188 0.0859375
vt 0.5859375 0.0546875
vt 0.6640625 0.1367188
vt 0.6640625 0.0546875
vt 0.5859375 0.1367188
vt 0.6640625 0.0234375
vt 0.5859375 0.0390625
vt 0.6640625 0.0390625
vt 0.5859375 0.0234375
vt 0.7578125 0.0078125
vt 0.78125 0.02734375
vt 0.7578125 0.02734375
vt 0.78125 0.0078125
vt 0.7578125 0.0078125
vt 0.78125 0.02734375
vt 0.7578125 0.02734375
vt 0.78125 0.0078125
vt 0.8398438 0.3007813
vt 0.96875 0.3085938
vt 0.8398438 0.3085938
vt 0.96875 0.3007813
vt 0.7578125 0.0078125
vt 0.78125 0.02734375
vt 0.7578125 0.02734375
vt 0.78125 0.0078125
vt 0.7578125 0.0078125
vt 0.78125 0.02734375
vt 0.7578125 0.02734375
vt 0.78125 0.0078125
vt 0.8398438 0.3007813
vt 0.96875 0.3085938
vt 0.8398438 0.3085938
vt 0.96875 0.3007813
vt 0.96875 0.3085938
vt 0.9492188 0.3007813
vt 0.96875 0.3007813
vt 0.9492188 0.3085938
vt 0.96875 0.3085938
vt 0.8398438 0.3007813
vt 0.96875 0.3007813
vt 0.8398438 0.3085938
vt 0.96875 0.3007813
vt 0.8398438 0.3085938
vt 0.8398438 0.3007813
vt 0.96875 0.3085938
vt 0.8398438 0.3007813
vt 0.96875 0.3085938
vt 0.8398438 0.3085938
vt 0.96875 0.3007813
vt 0.96875 0.3007813
vt 0.8398438 0.3085938
vt 0.8398438 0.3007813
vt 0.96875 0.3085938
vt 0.7578125 0.0078125
vt 0.78125 0.02734375
vt 0.7578125 0.02734375
vt 0.78125 0.0078125
vt 0.7578125 0.0078125
vt 0.78125 0.02734375
vt 0.7578125 0.02734375
vt 0.78125 0.0078125
vt 0.6640625 0.0234375
vt 0.5859375 0.0390625
vt 0.6640625 0.0390625
vt 0.5859375 0.0234375
vt 0.5859375 0.0234375
vt 0.6640625 0.0390625
vt 0.6640625 0.0234375
vt 0.5859375 0.0390625
vt 0.5859375 0.0390625
vt 0.6640625 0.0234375
vt 0.5859375 0.0234375
vt 0.6640625 0.0390625
vt 0.7578125 0.0078125
vt 0.78125 0.02734375
vt 0.7578125 0.02734375
vt 0.78125 0.0078125
vt 0.828125 0.0078125
vt 0.8085938 0.1054688
vt 0.828125 0.1054688
vt 0.8085938 0.0078125
vt 0.8085938 0.0078125
vt 0.828125 0.1054688
vt 0.828125 0.0078125
vt 0.8085938 0.1054688
vt 0.96875 0.3085938
vt 0.9492188 0.3007813
vt 0.96875 0.3007813
vt 0.9492188 0.3085938
vt 0.9492188 0.3007813
vt 0.96875 0.3085938
vt 0.9492188 0.3085938
vt 0.96875 0.3007813
vt 0.78125 0.0078125
vt 0.7578125 0.02734375
vt 0.7578125 0.0078125
vt 0.78125 0.02734375
vt 0.78125 0.0078125
vt 0.7578125 0.02734375
vt 0.7578125 0.0078125
vt 0.78125 0.02734375
vt 0.78125 0.0078125
vt 0.7578125 0.02734375
vt 0.7578125 0.0078125
vt 0.78125 0.02734375
vt 0.7578125 0.0078125
vt 0.78125 0.02734375
vt 0.7578125 0.02734375
vt 0.78125 0.0078125
vt 0.7578125 0.0078125
vt 0.78125 0.02734375
vt 0.7578125 0.02734375
vt 0.78125 0.0078125
vt 0.7578125 0.0078125
vt 0.78125 0.02734375
vt 0.7578125 0.02734375
vt 0.78125 0.0078125
vn 0.7174794 -0.6965795 -0.000348785
vn 0.7174793 -0.6965798 -0.0003489775
vn 0.7174765 -0.6965827 -0.0003529092
vn 0.7174823 -0.6965767 -0.0003448536
vn -0.7174794 0.6965796 0.0003487609
vn -0.7174793 0.6965797 0.0003489526
vn -0.7174823 0.6965767 0.0003448536
vn -0.7174765 0.6965827 0.0003528598
vn 0.7073589 -0.7068544 -0.0003447005
vn 0.7073576 -0.7068558 -0.0003432685
vn 0.7073619 -0.7068514 -0.0003479462
vn 0.7073546 -0.7068588 -0.000340023
vn -0.7143812 -0.6997567 -0.0003038151
vn -0.7141149 -0.7000282 -0.0005896006
vn -0.7149912 -0.6991333 0.0003516358
vn -0.7135046 -0.7006494 -0.001244111
vn 0.7072626 -0.7069509 -0.0003431887
vn 0.7072639 -0.7069495 -0.000344628
vn 0.7072595 -0.706954 -0.0003399299
vn 0.7072671 -0.7069464 -0.0003478873
vn -0.7058621 0.7083482 -0.001232
vn -0.7058618 0.7083485 -0.001231644
vn -0.7058629 0.7083475 -0.001232814
vn -0.7058611 0.7083492 -0.001230831
vn -0.7065383 -0.7076746 -0.0004633783
vn -0.706512 -0.7077009 -0.0004275179
vn -0.7059497 -0.708262 0.0003393002
vn -0.7071004 -0.7071121 -0.001231016
vn 0.7071199 -0.7070935 -0.00026923
vn 0.7071993 -0.7070116 0.001967597
vn 0.7071171 -0.7070963 -0.0003468244
vn 0.707202 -0.7070087 0.002045309
vn -0.705205 0.7090034 0.0003458867
vn -0.705205 0.7090034 0.0003458867
vn -0.705205 0.7090034 0.0003458866
vn -0.705205 0.7090034 0.0003458866
vn 0.7072523 0.7069611 -0.0003468908
vn 0.7072523 0.7069611 -0.0003468908
vn 0.7072523 0.7069611 -0.0003468908
vn 0.7072523 0.7069611 -0.0003468908
vn 0.9999998 0.0007695874 0.0002002477
vn 0.9999989 0.001506658 6.40963E-05
vn 0.9999998 0.0006579023 0.0002208781
vn 0.9999987 0.001618342 4.346592E-05
vn 4.67216E-06 1 0
vn 3.745785E-06 1 -1.964289E-07
vn 4.812297E-06 1 0
vn 3.605769E-06 1 -2.222444E-07
vn 3.18591E-06 2.896414E-06 -1
vn -5.984976E-06 -1.20736E-05 -1
vn 4.362747E-07 -1.593236E-06 -1
vn 9.802555E-07 -7.05039E-07 -1
vn 5.369197E-07 -1.741124E-06 -1
vn -6.199825E-06 -1.248305E-05 -1
vn 3.228444E-06 2.986319E-06 -1
vn 7.420038E-07 -2.908043E-07 -1
vn 3.609074E-07 0 1
vn 3.60879E-07 0 1
vn 2.887506E-07 1.443809E-07 1
vn 4.330259E-07 0 1
vn 0.9999999 0.0001260665 0.0004884676
vn 1 -4.520009E-05 -0.0003427005
vn 0.9999998 0.0001559566 0.0006335264
vn 0.9999999 -7.509023E-05 -0.0004877594
vn 8.108791E-05 2.799555E-05 -1
vn 8.329697E-05 2.775489E-05 -1
vn 7.515458E-05 2.864193E-05 -1
vn 8.923029E-05 2.71085E-05 -1
vn -0.6975516 0.7165346 0.0003430843
vn -0.6975516 0.7165345 0.0003430832
vn -0.6975516 0.7165346 0.000343059
vn -0.6975516 0.7165346 0.0003431086
vn -9.508544E-05 -9.505996E-05 1
vn -6.333175E-05 -6.747871E-05 1
vn -9.664524E-05 -9.641481E-05 1
vn -6.178058E-05 -6.613135E-05 1
vn 0.0001084146 4.193332E-05 -1
vn 0.000107814 4.201453E-05 -1
vn 0.0001100319 4.171467E-05 -1
vn 0.0001061877 4.223439E-05 -1
vn -0.7082353 0.7059764 -0.000588475
vn -0.7079641 0.7062483 -0.0003006684
vn -0.7088463 0.7053618 -0.001237959
vn -0.7073527 0.7068607 0.0003478794
vn -0.707042 0.7071715 0.0003467876
vn -0.707042 0.7071715 0.0003467876
vn -0.7070419 0.7071716 0.0003467876
vn -0.7070419 0.7071716 0.0003467876
vn 0.7070422 0.7071706 0.001087266
vn 0.7072878 0.7069255 0.0006104652
vn 0.7065488 0.7076614 0.00204342
vn 0.7077804 0.7064325 -0.0003471498
vn -6.544678E-05 6.54426E-05 1
vn -9.303561E-05 9.719491E-05 1
vn -6.409526E-05 6.388711E-05 1
vn -9.438815E-05 9.875157E-05 1
vn 9.508544E-05 9.505996E-05 -1
vn 6.333175E-05 6.747871E-05 -1
vn 6.178058E-05 6.613135E-05 -1
vn 9.664524E-05 9.641481E-05 -1
vn -0.7070802 -0.7071332 0.0003468063
vn -0.7070802 -0.7071332 0.0003468063
vn -0.7070803 -0.7071331 0.0003468064
vn -0.7070803 -0.7071331 0.0003468064
vn 6.531298E-05 -6.546976E-05 -1
vn 9.183613E-05 -9.60025E-05 -1
vn 9.313798E-05 -9.750115E-05 -1
vn 6.401141E-05 -6.397141E-05 -1
vn 0.7166691 0.6974131 -0.000352517
vn 0.7166691 0.6974133 -0.0003525192
vn 0.7166691 0.6974133 -0.000352512
vn 0.7166691 0.6974133 -0.0003525243
vn 0.0001076329 -4.765565E-05 -1
vn 0.0001074939 -4.876824E-05 -1
vn 0.0001080023 -4.470006E-05 -1
vn 0.0001071246 -5.172381E-05 -1
vn 2.021252E-06 1 0
vn 2.02125E-06 1 0
vn 2.021252E-06 1 0
vn 2.02125E-06 1 0
vn 1.212509E-05 -1 0
vn 1.212715E-05 -1 0
vn 1.212751E-05 -1 0
vn 1.212473E-05 -1 0
vn -0.9999999 7.393393E-05 -0.0006279182
vn -0.9999999 7.393387E-05 -0.000627918
vn -0.9999999 7.393394E-05 -0.0006279183
vn -0.9999999 7.393385E-05 -0.0006279179
vn 8.21569E-05 -2.082015E-05 -1
vn 8.240397E-05 -1.884299E-05 -1
vn 8.149469E-05 -2.611945E-05 -1
vn 8.306603E-05 -1.354512E-05 -1
vn -1 0.0001908544 -2.372268E-05
vn -0.9999999 -0.0005462177 0.0001124285
vn -0.9999998 -0.0006579024 0.0001330588
vn -1 0.0003025392 -4.435299E-05
vn -4.66754E-06 -1 1.957032E-07
vn -3.742312E-06 -1 0
vn -4.807665E-06 -1 2.215513E-07
vn -3.602305E-06 -1 0
vn 0.7076573 -0.7065559 -0.0003470894
vn 0.7076573 -0.7065559 -0.0003470894
vn 0.7076572 -0.7065559 -0.0003470893
vn 0.7076572 -0.7065559 -0.0003470893
vn -0.7051761 -0.7090322 0.0003458724
vn -0.7051761 -0.7090322 0.0003458724
vn -0.7051761 -0.7090322 0.0003458724
vn -0.7051761 -0.7090322 0.0003458724
vn 0.707773 0.7064397 0.000462091
vn 0.7077455 0.7064673 0.0004244591
vn 0.7083389 0.7058713 0.001235152
vn 0.7071792 0.7070342 -0.0003478441
vn 0.6991638 -0.7149614 0.0004180286
vn 0.6991349 -0.7149895 0.0004567537
vn 0.6997304 -0.7144068 -0.0003441923
vn 0.698568 -0.7155426 0.001218067
vn -0.7071778 -0.7070358 0.0003437745
vn -0.7071779 -0.7070357 0.0003439573
vn -0.707175 -0.7070386 0.0003399366
vn -0.7071807 -0.7070328 0.0003477948
vn 0.7066137 0.7075993 0.0004231396
vn 0.7065876 0.7076256 0.0004589953
vn 0.7060218 0.7081891 0.001229084
vn 0.7071792 0.7070342 -0.0003478563
vn -0.6966363 -0.7174245 0.0003348341
vn -0.6966363 -0.7174245 0.0003348341
vn -0.6966361 -0.7174245 0.0003348341
vn -0.6966361 -0.7174245 0.0003348341
vn 0.6966363 0.7174245 -0.0003426387
vn 0.6966363 0.7174245 -0.0003426301
vn 0.6966362 0.7174245 -0.0003426584
vn 0.6966363 0.7174245 -0.0003426104
g royale_stool_on_wheels_0
f 3/3/3 2/2/2 1/1/1
f 4/4/4 1/1/1 2/2/2
f 7/7/7 6/6/6 5/5/5
f 8/8/8 5/5/5 6/6/6
f 11/11/11 10/10/10 9/9/9
f 12/12/12 9/9/9 10/10/10
f 15/15/15 14/14/14 13/13/13
f 16/16/16 13/13/13 14/14/14
f 19/19/19 18/18/18 17/17/17
f 20/20/20 17/17/17 18/18/18
f 23/23/23 22/22/22 21/21/21
f 24/24/24 21/21/21 22/22/22
f 27/27/27 26/26/26 25/25/25
f 28/28/28 25/25/25 26/26/26
f 31/31/31 30/30/30 29/29/29
f 32/32/32 29/29/29 30/30/30
f 35/35/35 34/34/34 33/33/33
f 36/36/36 33/33/33 34/34/34
f 39/39/39 38/38/38 37/37/37
f 40/40/40 37/37/37 38/38/38
f 43/43/43 42/42/42 41/41/41
f 44/44/44 41/41/41 42/42/42
f 47/47/47 46/46/46 45/45/45
f 48/48/48 45/45/45 46/46/46
f 51/51/51 50/50/50 49/49/49
f 52/52/52 49/49/49 50/50/50
f 49/49/49 52/52/52 53/53/53
f 54/54/54 53/53/53 52/52/52
f 53/53/53 54/54/54 55/55/55
f 56/56/56 55/55/55 54/54/54
f 55/55/55 56/56/56 51/51/51
f 50/50/50 51/51/51 56/56/56
f 59/59/59 58/58/58 57/57/57
f 60/60/60 57/57/57 58/58/58
f 63/63/63 62/62/62 61/61/61
f 64/64/64 61/61/61 62/62/62
f 67/67/67 66/66/66 65/65/65
f 68/68/68 65/65/65 66/66/66
f 71/71/71 70/70/70 69/69/69
f 72/72/72 69/69/69 70/70/70
f 75/75/75 74/74/74 73/73/73
f 76/76/76 73/73/73 74/74/74
f 79/79/79 78/78/78 77/77/77
f 80/80/80 77/77/77 78/78/78
f 83/83/83 82/82/82 81/81/81
f 84/84/84 81/81/81 82/82/82
f 87/87/87 86/86/86 85/85/85
f 88/88/88 85/85/85 86/86/86
f 91/91/91 90/90/90 89/89/89
f 92/92/92 89/89/89 90/90/90
f 95/95/95 94/94/94 93/93/93
f 96/96/96 93/93/93 94/94/94
f 99/99/99 98/98/98 97/97/97
f 100/100/100 97/97/97 98/98/98
f 103/103/103 102/102/102 101/101/101
f 104/104/104 101/101/101 102/102/102
f 107/107/107 106/106/106 105/105/105
f 108/108/108 105/105/105 106/106/106
f 111/111/111 110/110/110 109/109/109
f 112/112/112 109/109/109 110/110/110
f 115/115/115 114/114/114 113/113/113
f 116/116/116 113/113/113 114/114/114
f 119/119/119 118/118/118 117/117/117
f 120/120/120 117/117/117 118/118/118
f 123/123/123 122/122/122 121/121/121
f 124/124/124 121/121/121 122/122/122
f 127/127/127 126/126/126 125/125/125
f 128/128/128 125/125/125 126/126/126
f 131/131/131 130/130/130 129/129/129
f 132/132/132 129/129/129 130/130/130
f 135/135/135 134/134/134 133/133/133
f 136/136/136 133/133/133 134/134/134
f 139/139/139 138/138/138 137/137/137
f 140/140/140 137/137/137 138/138/138
f 143/143/143 142/142/142 141/141/141
f 144/144/144 141/141/141 142/142/142
f 147/147/147 146/146/146 145/145/145
f 148/148/148 145/145/145 146/146/146
f 151/151/151 150/150/150 149/149/149
f 152/152/152 149/149/149 150/150/150
f 155/155/155 154/154/154 153/153/153
f 156/156/156 153/153/153 154/154/154
f 159/159/159 158/158/158 157/157/157
f 160/160/160 157/157/157 158/158/158
f 163/163/163 162/162/162 161/161/161
f 164/164/164 161/161/161 162/162/162
f 167/167/167 166/166/166 165/165/165
f 168/168/168 165/165/165 166/166/166
f 171/171/171 170/170/170 169/169/169
f 172/172/172 169/169/169 170/170/170
