g royale_trash_can_big_lod2_A
v -1.25001 -0.985083 1.249996
v 1.24999 -0.9850757 1.249997
v 1.24999 -0.9850757 -3.356934E-06
v -1.25001 -0.985083 -3.509521E-06
v -1.250007 0.5149152 1.249997
v -1.25001 -0.985083 1.249996
v -1.25001 -0.985083 -3.509521E-06
v -1.250007 0.5149152 -3.356934E-06
v -1.25001 -0.985083 1.249996
v -1.250007 0.5149152 1.249997
v 1.24999 0.5149231 1.249997
v 1.24999 -0.9850757 1.249997
v 1.24999 -0.9850757 1.249997
v 1.24999 0.5149231 1.249997
v 1.24999 0.5149231 -3.356934E-06
v 1.24999 -0.9850757 -3.356934E-06
v 1.24999 0.5149231 1.249997
v -1.250007 0.5149152 1.249997
v -1.250007 0.5149152 -3.356934E-06
v 1.24999 0.5149231 -3.356934E-06
v -1.250005 0.5210093 1.269833
v 1.249997 0.5210161 1.269832
v 1.249997 -0.5396474 2.330494
v -1.250005 -0.539648 2.330494
vt 0.5488861 0.9341995
vt 0.5229228 0.9342203
vt 0.5229579 0.9474065
vt 0.5489212 0.9474065
vt 0.5542089 0.9129074
vt 0.554251 0.9287308
vt 0.5672327 0.9287205
vt 0.5671906 0.9128971
vt 0.5463711 0.9262685
vt 0.5463711 0.9155437
vt 0.5249215 0.9155437
vt 0.5249215 0.9262685
vt 0.5175286 0.9287602
vt 0.5174863 0.9129367
vt 0.5045047 0.9129472
vt 0.5045469 0.9287707
vt 0.5228514 0.907468
vt 0.5488148 0.9074473
vt 0.5487797 0.8942611
vt 0.5228163 0.8942818
vt 0.5931701 0.8848318
vt 0.5673332 0.8848318
vt 0.5673332 0.897994
vt 0.5931701 0.897994
vn 2.929688E-06 -1 0
vn 2.929688E-06 -1 0
vn 2.929688E-06 -1 0
vn 2.929688E-06 -1 0
vn -1 1.614585E-06 0
vn -1 1.614585E-06 0
vn -1 1.614585E-06 0
vn -1 1.614585E-06 0
vn 0 -1.52588E-07 1
vn 0 -1.52588E-07 1
vn 0 -1.52588E-07 1
vn 0 -1.52588E-07 1
vn 1 0 0
vn 1 0 0
vn 1 0 0
vn 1 0 0
vn -3.173832E-06 1 0
vn -3.173832E-06 1 0
vn -3.173832E-06 1 0
vn -3.173832E-06 1 0
vn -9.374983E-07 0.7071071 0.7071064
vn -9.374983E-07 0.7071071 0.7071064
vn -9.374983E-07 0.7071071 0.7071064
vn -9.374983E-07 0.7071071 0.7071064
g royale_trash_can_big_lod2_A_0
f 3/3/3 2/2/2 1/1/1
f 4/4/4 3/3/3 1/1/1
f 7/7/7 6/6/6 5/5/5
f 8/8/8 7/7/7 5/5/5
f 11/11/11 10/10/10 9/9/9
f 12/12/12 11/11/11 9/9/9
f 15/15/15 14/14/14 13/13/13
f 16/16/16 15/15/15 13/13/13
f 19/19/19 18/18/18 17/17/17
f 20/20/20 19/19/19 17/17/17
f 23/23/23 22/22/22 21/21/21
f 24/24/24 23/23/23 21/21/21
