g royale_church_lod0
v -7.560719 3.499997 7.231076
v -7.56116 4.938927 10.02909
v -7.560256 -0.05774149 10.03061
v -7.560258 -0.0578589 7.231077
v -7.560719 3.499997 4.731076
v -7.560722 3.499997 -4.770766
v -7.560257 -0.05791284 4.731077
v -7.56026 -0.05791256 -4.770766
v -7.561164 4.938928 -10.06878
v -7.560723 3.499997 -7.270766
v -7.560261 -0.05774073 -10.0703
v -7.56026 -0.05785847 -7.270766
v -7.442262 -0.05786012 7.231076
v -7.442726 3.499996 7.231076
v -7.560719 3.499997 7.231076
v -7.560258 -0.0578589 7.231077
v -7.442725 3.499996 4.731076
v -7.442262 -0.05791406 4.731076
v -7.560257 -0.05791284 4.731077
v -7.560719 3.499997 4.731076
v -7.442726 3.499996 7.231076
v -7.442725 3.499996 4.731076
v -7.560719 3.499997 4.731076
v -7.560719 3.499997 7.231076
v -7.560261 -0.05774073 -10.0703
v 7.560256 -0.05773107 -10.0703
v 7.561154 4.938938 -10.06879
v -7.561164 4.938928 -10.06878
v -8.307254E-06 9.920074 -10.07055
v -7.560723 3.499997 -7.270766
v -7.44273 3.499997 -7.270766
v -7.442265 -0.05785969 -7.270766
v -7.56026 -0.05785847 -7.270766
v -7.56026 -0.05791256 -4.770766
v -7.442265 -0.05791378 -4.770766
v -7.442728 3.499997 -4.770766
v -7.560722 3.499997 -4.770766
v -7.560722 3.499997 -4.770766
v -7.442728 3.499997 -4.770766
v -7.44273 3.499997 -7.270766
v -7.560723 3.499997 -7.270766
v 7.56026 -0.05773182 10.0306
v -7.560256 -0.05774149 10.03061
v -7.56116 4.938927 10.02909
v 7.561158 4.938937 10.02909
v -4.393366E-06 9.920074 10.03086
v 7.560718 3.500002 7.231081
v 7.56026 -0.05785045 7.231081
v 7.56026 -0.05773182 10.0306
v 7.561158 4.938937 10.02909
v 7.560718 3.500002 4.731081
v 7.560715 3.500002 -4.770763
v 7.560257 -0.05790411 -4.770762
v 7.560259 -0.05790439 4.731081
v 7.561154 4.938938 -10.06879
v 7.560716 3.500003 -7.270761
v 7.560256 -0.05773107 -10.0703
v 7.560258 -0.05785001 -7.270761
v 7.560718 3.500002 7.231081
v 7.442725 3.500002 7.231081
v 7.442264 -0.05785076 7.231081
v 7.56026 -0.05785045 7.231081
v 7.560259 -0.05790439 4.731081
v 7.442264 -0.05790469 4.731081
v 7.442724 3.500002 4.731081
v 7.560718 3.500002 4.731081
v 7.560718 3.500002 4.731081
v 7.442724 3.500002 4.731081
v 7.442725 3.500002 7.231081
v 7.560718 3.500002 7.231081
v 7.442262 -0.05785025 -7.270761
v 7.442723 3.500002 -7.270761
v 7.560716 3.500003 -7.270761
v 7.560258 -0.05785001 -7.270761
v 7.442721 3.500002 -4.770763
v 7.442262 -0.05790441 -4.770762
v 7.560257 -0.05790411 -4.770762
v 7.560715 3.500002 -4.770763
v 7.442723 3.500002 -7.270761
v 7.442721 3.500002 -4.770763
v 7.560715 3.500002 -4.770763
v 7.560716 3.500003 -7.270761
v -7.844945 5.407815 -10.57666
v -7.844938 5.407807 10.53881
v -7.503576 4.895338 10.53881
v -7.503584 4.895345 -10.57666
v 7.503564 4.895356 -10.57666
v 7.503573 4.89535 10.5388
v 7.844933 5.40782 10.5388
v 7.844926 5.407826 -10.57666
v -1.239476E-05 10.43097 -10.57666
v -7.844945 5.407815 -10.57666
v -7.503584 4.895345 -10.57666
v -1.199067E-05 9.799352 -10.57666
v 7.844926 5.407826 -10.57666
v 7.503564 4.895356 -10.57666
v -4.621313E-06 10.43097 10.53881
v -4.217228E-06 9.799347 10.53881
v -7.503576 4.895338 10.53881
v -7.844938 5.407807 10.53881
v 7.844933 5.40782 10.5388
v 7.503573 4.89535 10.5388
v -7.503584 4.895345 -10.57666
v -7.503583 4.895346 -10.05459
v -1.199067E-05 9.799352 -10.05459
v -1.199067E-05 9.799352 -10.57666
v -1.199067E-05 9.799352 -10.57666
v -1.199067E-05 9.799352 -10.05459
v 7.503565 4.895356 -10.0546
v 7.503564 4.895356 -10.57666
v -4.217228E-06 9.799347 10.53881
v -4.881024E-06 9.799347 10.03083
v -7.503576 4.895339 10.03086
v -7.503576 4.895338 10.53881
v 7.503573 4.89535 10.5388
v 7.503573 4.895349 10.03085
v -4.881024E-06 9.799347 10.03083
v -4.217228E-06 9.799347 10.53881
v -1.239476E-05 10.43097 -10.57666
v -4.621313E-06 10.43097 10.53881
v -7.844938 5.407807 10.53881
v -7.844945 5.407815 -10.57666
v -4.621313E-06 10.43097 10.53881
v -1.239476E-05 10.43097 -10.57666
v 7.844926 5.407826 -10.57666
v 7.844933 5.40782 10.5388
v -1.153315 5.916154 10.05545
v 1.153316 5.972271 10.05545
v 1.153318 1.596685 10.05545
v -1.153312 1.596684 10.05545
v 0.002193004 7.814065 10.05545
v -6.626546E-06 7.283808 -10.10067
v -0.4033203 6.477177 -10.09841
v 0.4033093 6.477178 -10.09831
v 0.4033124 1.596685 -10.10295
v -0.4033184 1.596685 -10.10277
v -2.000006 6.283805 -10.09728
v -2.403321 5.477175 -10.09502
v -1.596691 5.477175 -10.09493
v -1.596689 1.596684 -10.10275
v -2.40332 1.596684 -10.10257
v 1.999993 6.283808 -10.09728
v 1.596678 5.477178 -10.09502
v 2.403308 5.477178 -10.09492
v 2.40331 1.596687 -10.10275
v 1.59668 1.596687 -10.10257
v 0.9999915 11.93488 -10.25459
v -1.000008 11.93488 -10.25459
v -1.000008 11.93488 -9.854595
v 0.9999917 11.93488 -9.854595
v 0.9999912 12.43488 -10.25459
v 0.9999913 12.43488 -9.854595
v -1.000008 12.43488 -9.854595
v -1.000009 12.43488 -10.25459
v 0.9999913 12.43488 -9.854595
v 0.9999917 11.93488 -9.854595
v -1.000008 11.93488 -9.854595
v -1.000008 12.43488 -9.854595
v 0.9999912 12.43488 -10.25459
v 0.9999915 11.93488 -10.25459
v 0.9999917 11.93488 -9.854595
v 0.9999913 12.43488 -9.854595
v -1.000009 12.43488 -10.25459
v -1.000008 11.93488 -10.25459
v 0.9999915 11.93488 -10.25459
v 0.9999912 12.43488 -10.25459
v -1.000008 12.43488 -9.854595
v -1.000008 11.93488 -9.854595
v -1.000008 11.93488 -10.25459
v -1.000009 12.43488 -10.25459
v 0.2499908 13.16245 -10.30459
v 0.2499909 13.16245 -9.804594
v -0.2500091 13.16245 -9.804594
v -0.2500092 13.16245 -10.30459
v 0.2499909 13.16245 -9.804594
v 0.2499928 10.16245 -9.804594
v -0.2500072 10.16245 -9.804594
v -0.2500091 13.16245 -9.804594
v 0.2499908 13.16245 -10.30459
v 0.2499927 10.16245 -10.30459
v 0.2499928 10.16245 -9.804594
v 0.2499909 13.16245 -9.804594
v -0.2500092 13.16245 -10.30459
v -0.2500073 10.16245 -10.30459
v 0.2499927 10.16245 -10.30459
v 0.2499908 13.16245 -10.30459
v -0.2500091 13.16245 -9.804594
v -0.2500072 10.16245 -9.804594
v -0.2500073 10.16245 -10.30459
v -0.2500092 13.16245 -10.30459
v 0.9999979 11.93488 9.477349
v -1.000002 11.93488 9.477349
v -1.000001 11.93488 9.877348
v 0.9999992 11.93488 9.877348
v 0.9999987 12.43488 9.477349
v 0.9999988 12.43488 9.877348
v -1.000001 12.43488 9.877348
v -1.000001 12.43488 9.477349
v 0.9999988 12.43488 9.877348
v 0.9999992 11.93488 9.877348
v -1.000001 11.93488 9.877348
v -1.000001 12.43488 9.877348
v 0.9999987 12.43488 9.477349
v 0.9999979 11.93488 9.477349
v 0.9999992 11.93488 9.877348
v 0.9999988 12.43488 9.877348
v -1.000001 12.43488 9.477349
v -1.000002 11.93488 9.477349
v 0.9999979 11.93488 9.477349
v 0.9999987 12.43488 9.477349
v -1.000001 12.43488 9.877348
v -1.000001 11.93488 9.877348
v -1.000002 11.93488 9.477349
v -1.000001 12.43488 9.477349
v 0.249999 10.16245 9.427349
v -0.250001 10.16245 9.427349
v -0.2500009 10.16245 9.927349
v 0.2499991 10.16245 9.927349
v 0.2499983 13.16245 9.427349
v 0.2499984 13.16245 9.927349
v -0.2500016 13.16245 9.927349
v -0.2500017 13.16245 9.427349
v 0.2499984 13.16245 9.927349
v 0.2499991 10.16245 9.927349
v -0.2500009 10.16245 9.927349
v -0.2500016 13.16245 9.927349
v 0.2499983 13.16245 9.427349
v 0.249999 10.16245 9.427349
v 0.2499991 10.16245 9.927349
v 0.2499984 13.16245 9.927349
v -0.2500017 13.16245 9.427349
v -0.250001 10.16245 9.427349
v 0.249999 10.16245 9.427349
v 0.2499983 13.16245 9.427349
v -0.2500016 13.16245 9.927349
v -0.2500009 10.16245 9.927349
v -0.250001 10.16245 9.427349
v -0.2500017 13.16245 9.427349
vt 12.10147 -1.789734
vt 16.5783 0.5125546
vt 16.58072 -7.482115
vt 12.10147 -7.482304
vt 8.101472 -1.789732
vt -7.101478 -1.789728
vt 8.10147 -7.482389
vt -7.101478 -7.482386
vt -15.5783 0.5125623
vt -11.10148 -1.789728
vt -15.58072 -7.482107
vt -11.10148 -7.482298
vt 8.482304 12.40762
vt 2.789734 12.40836
vt 2.789732 12.59715
vt 8.482304 12.59642
vt -1.789733 12.40835
vt -7.482389 12.40762
vt -7.48239 12.59641
vt -1.789732 12.59714
vt 12.10147 12.40836
vt 8.101471 12.40836
vt 8.101471 12.59715
vt 12.10147 12.59715
vt 12.59641 -7.482247
vt -11.59641 -7.482246
vt -11.59786 0.5124235
vt 12.59785 0.5124226
vt 0.4999981 8.48225
vt -1.789727 12.59715
vt -1.789728 12.40836
vt -7.482298 12.40762
vt -7.482299 12.59641
vt 8.482386 12.59642
vt 8.482386 12.40763
vt 2.789729 12.40836
vt 2.789727 12.59715
vt -7.101478 12.59715
vt -7.101478 12.40836
vt -11.10148 12.40836
vt -11.10148 12.59715
vt 12.59641 -7.482251
vt -11.59641 -7.482252
vt -11.59785 0.5124178
vt 12.59786 0.5124187
vt 0.4999981 8.482246
vt -11.10148 -1.78974
vt -11.10148 -7.482304
vt -15.58072 -7.482115
vt -15.5783 0.5125546
vt -7.101483 -1.789739
vt 8.101467 -1.789736
vt 8.101466 -7.482386
vt -7.101482 -7.48239
vt 16.5783 0.5125623
vt 12.10146 -1.789734
vt 16.58072 -7.482107
vt 12.10146 -7.482299
vt 2.789741 -11.59715
vt 2.78974 -11.40836
vt 8.482304 -11.40762
vt 8.482304 -11.59641
vt -7.48239 -11.59641
vt -7.48239 -11.40762
vt -1.789739 -11.40836
vt -1.789739 -11.59715
vt 8.101482 -11.59715
vt 8.101482 -11.40836
vt 12.10148 -11.40836
vt 12.10148 -11.59715
vt -7.482299 -11.40762
vt -1.789735 -11.40836
vt -1.789734 -11.59715
vt -7.482299 -11.59642
vt 2.789736 -11.40836
vt 8.482386 -11.40762
vt 8.482386 -11.59641
vt 2.789736 -11.59715
vt -11.10146 -11.40836
vt -7.101467 -11.40836
vt -7.101467 -11.59715
vt -11.10146 -11.59715
vt 0.1433998 -16.39237
vt 0.1434028 17.39237
vt 0.963355 17.39237
vt 0.9633521 -16.39237
vt 0.03664634 -16.39237
vt 0.03664342 17.39237
vt 0.8565964 17.39237
vt 0.8565993 -16.39237
vt 0.4999977 8.893644
vt 13.0519 0.8566002
vt 12.50572 0.03664792
vt 0.4999979 7.883049
vt -12.0519 0.8565993
vt -11.50572 0.03664634
vt 0.5000023 8.893641
vt 0.5000021 7.883046
vt -11.50572 0.036645
vt -12.0519 0.8565972
vt 13.0519 0.8565964
vt 12.50572 0.03664342
vt -10.05773 8.003576
vt -9.535667 8.003575
vt -9.535668 0.500001
vt -10.05773 0.5000009
vt -10.05773 0.5000009
vt -9.535668 0.500001
vt -9.535669 -7.003573
vt -10.05774 -7.003572
vt 11.05773 0.4999973
vt 10.54976 0.4999978
vt 10.54978 8.003572
vt 11.05773 8.003572
vt 11.05773 -7.003577
vt 10.54978 -7.003577
vt 10.54976 0.4999978
vt 11.05773 0.4999973
vt 0.500002 -16.39238
vt 0.500002 17.39238
vt -12.0519 17.39238
vt -12.0519 -16.39238
vt 0.500002 17.39238
vt 0.500002 -16.39238
vt 13.0519 -16.39238
vt 13.0519 17.39238
vt -0.2381218 1.274901
vt 1.238122 1.310814
vt 1.238121 -1.489561
vt -0.2381225 -1.489561
vt 0.501404 2.489563
vt 0.1700812 2.150196
vt 0.4282029 1.633952
vt -0.0880405 1.633952
vt -0.08803979 -1.489563
vt 0.4282036 -1.489563
vt 1.826636 1.510195
vt 2.084758 0.9939516
vt 1.568514 0.9939515
vt 1.568515 -1.489563
vt 2.084758 -1.489563
vt -0.8275373 1.510195
vt -0.5694156 0.9939518
vt -1.085659 0.9939517
vt -1.085658 -1.489563
vt -0.569415 -1.489562
vt 0.8881754 0.7767693
vt 0.8881754 0.9086878
vt 0.9145591 0.9086878
vt 0.9145591 0.7767693
vt 0.915656 0.7778021
vt 0.8892722 0.7778021
vt 0.8892722 0.9097204
vt 0.915656 0.9097204
vt 0.9668786 0.8626668
vt 0.9668786 0.8296873
vt 0.8349602 0.8296873
vt 0.8349602 0.8626668
vt 0.9153555 0.8606974
vt 0.9153555 0.8277179
vt 0.8889719 0.8277179
vt 0.8889719 0.8606974
vt 0.9678152 0.8635071
vt 0.9678152 0.8305276
vt 0.8358967 0.8305276
vt 0.8358967 0.8635071
vt 0.9165925 0.861634
vt 0.9165925 0.8286545
vt 0.8902088 0.8286545
vt 0.8902088 0.861634
vt 0.918954 0.8272715
vt 0.8859744 0.8272715
vt 0.8859744 0.8602509
vt 0.918954 0.8602509
vt 0.9174092 0.910657
vt 0.9174092 0.7127793
vt 0.8844298 0.7127793
vt 0.8844298 0.910657
vt 0.9186533 0.9086878
vt 0.9186533 0.7108101
vt 0.8856741 0.7108101
vt 0.8856741 0.9086878
vt 0.9183458 0.9114975
vt 0.9183458 0.7136198
vt 0.8853663 0.7136198
vt 0.8853663 0.9114975
vt 0.9198906 0.9096244
vt 0.9198906 0.7117466
vt 0.886911 0.7117466
vt 0.886911 0.9096244
vt 0.8881754 0.7767693
vt 0.8881754 0.9086878
vt 0.9145591 0.9086878
vt 0.9145591 0.7767693
vt 0.915656 0.7778021
vt 0.8892722 0.7778021
vt 0.8892722 0.9097204
vt 0.915656 0.9097204
vt 0.9668786 0.8626668
vt 0.9668786 0.8296873
vt 0.8349602 0.8296873
vt 0.8349602 0.8626668
vt 0.9153555 0.8606974
vt 0.9153555 0.8277179
vt 0.8889719 0.8277179
vt 0.8889719 0.8606974
vt 0.9678152 0.8635071
vt 0.9678152 0.8305276
vt 0.8358967 0.8305276
vt 0.8358967 0.8635071
vt 0.9165925 0.861634
vt 0.9165925 0.8286545
vt 0.8902088 0.8286545
vt 0.8902088 0.861634
vt 0.8848776 0.8262386
vt 0.8848776 0.8592184
vt 0.9178571 0.8592184
vt 0.9178571 0.8262386
vt 0.918954 0.8272715
vt 0.8859744 0.8272715
vt 0.8859744 0.8602509
vt 0.918954 0.8602509
vt 0.9174092 0.910657
vt 0.9174092 0.7127793
vt 0.8844298 0.7127793
vt 0.8844298 0.910657
vt 0.9186533 0.9086878
vt 0.9186533 0.7108101
vt 0.8856741 0.7108101
vt 0.8856741 0.9086878
vt 0.9183458 0.9114975
vt 0.9183458 0.7136198
vt 0.8853663 0.7136198
vt 0.8853663 0.9114975
vt 0.9198906 0.9096244
vt 0.9198906 0.7117466
vt 0.886911 0.7117466
vt 0.886911 0.9096244
vn -1 -0.0001595372 -3.760007E-05
vn -1 -0.0001595372 -3.760007E-05
vn -1 -0.0001595372 -3.760007E-05
vn -1 -0.0001595372 -3.760007E-05
vn -0.9999999 -0.0003069 0
vn -1 -0.000129867 3.385155E-07
vn -1 -0.000129867 3.385155E-07
vn -1 -0.000129867 3.385155E-07
vn -1 -0.0001598161 3.770665E-05
vn -1 -0.0001598161 3.770665E-05
vn -1 -0.0001598161 3.770665E-05
vn -1 -0.0001598161 3.770665E-05
vn -4.041181E-06 -1.419809E-07 -1
vn -4.041181E-06 -1.419809E-07 -1
vn -4.041181E-06 -1.419809E-07 -1
vn -4.041181E-06 -1.419809E-07 -1
vn 4.041173E-06 1.419785E-07 1
vn 4.041173E-06 1.419785E-07 1
vn 4.041173E-06 1.419785E-07 1
vn 4.041173E-06 1.419785E-07 1
vn 0 -1 0
vn 0 -1 0
vn 0 -1 0
vn 0 -1 0
vn -2.524609E-07 0.0003027573 -0.9999999
vn -2.524609E-07 0.0003027573 -0.9999999
vn -2.524609E-07 0.0003027573 -0.9999999
vn -2.524609E-07 0.0003027573 -0.9999999
vn -2.520521E-07 -0.0003540904 -0.9999999
vn 4.041182E-06 2.811888E-07 1
vn 4.041182E-06 2.811888E-07 1
vn 4.041182E-06 2.811888E-07 1
vn 4.041182E-06 2.811888E-07 1
vn -4.041152E-06 0 -1
vn -4.041152E-06 0 -1
vn -4.041152E-06 0 -1
vn -4.041152E-06 0 -1
vn 0 -1 0
vn 0 -1 0
vn 0 -1 0
vn 0 -1 0
vn 2.520726E-07 0.0003029181 0.9999999
vn 2.520726E-07 0.0003029181 0.9999999
vn 2.520726E-07 0.0003029181 0.9999999
vn 2.520726E-07 0.0003029181 0.9999999
vn 2.524973E-07 -0.0003540904 0.9999999
vn 1 -0.0001585897 -3.763644E-05
vn 1 -0.0001585897 -3.763644E-05
vn 1 -0.0001585897 -3.763644E-05
vn 1 -0.0001585897 -3.763644E-05
vn 0.9999999 -0.0003051636 -5.302117E-07
vn 1 -0.0001287279 -3.385158E-07
vn 1 -0.0001287279 -3.385158E-07
vn 1 -0.0001287279 -3.385158E-07
vn 1 -0.0001586454 3.728134E-05
vn 1 -0.0001586454 3.728134E-05
vn 1 -0.0001586454 3.728134E-05
vn 1 -0.0001586454 3.728134E-05
vn 0 1.125875E-07 -1
vn 0 1.125875E-07 -1
vn 0 1.125875E-07 -1
vn 0 1.125875E-07 -1
vn 0 -1.552888E-07 1
vn 0 -1.552888E-07 1
vn 0 -1.552888E-07 1
vn 0 -1.552888E-07 1
vn 0 -1 0
vn 0 -1 0
vn 0 -1 0
vn 0 -1 0
vn 0 0 1
vn 0 0 1
vn 0 0 1
vn 0 0 1
vn 0 -1.419801E-07 -1
vn 0 -1.419801E-07 -1
vn 0 -1.419801E-07 -1
vn 0 -1.419801E-07 -1
vn 0 -1 0
vn 0 -1 0
vn 0 -1 0
vn 0 -1 0
vn -0.8322635 -0.5543802 1.466974E-07
vn -0.8322635 -0.5543802 1.466974E-07
vn -0.8322635 -0.5543802 1.466974E-07
vn -0.8322635 -0.5543802 1.466974E-07
vn 0.8322647 -0.5543784 -4.767662E-07
vn 0.8322647 -0.5543784 -4.767662E-07
vn 0.8322647 -0.5543784 -4.767662E-07
vn 0.8322647 -0.5543784 -4.767662E-07
vn -5.208364E-07 -1.50229E-06 -1
vn -5.208364E-07 -1.50229E-06 -1
vn -5.208364E-07 -1.50229E-06 -1
vn -5.208364E-07 -1.50229E-06 -1
vn -2.083343E-07 8.649544E-07 -1
vn -2.083343E-07 8.649544E-07 -1
vn 7.123413E-07 -1.456764E-06 1
vn 7.123413E-07 -1.456764E-06 1
vn 7.123413E-07 -1.456764E-06 1
vn 7.123413E-07 -1.456764E-06 1
vn 5.208366E-07 0 1
vn 5.208366E-07 0 1
vn 0.5470793 -0.8370808 0
vn 0.5470793 -0.8370808 0
vn 0.5470793 -0.8370808 0
vn 0.5470793 -0.8370808 0
vn -0.547078 -0.8370817 4.075715E-07
vn -0.547078 -0.8370817 4.075715E-07
vn -0.547078 -0.8370817 4.075715E-07
vn -0.547078 -0.8370817 4.075715E-07
vn 0.5470802 -0.8370802 -1.256658E-06
vn 0.5470802 -0.8370802 -1.256658E-06
vn 0.5470802 -0.8370802 -1.256658E-06
vn 0.5470802 -0.8370802 -1.256658E-06
vn -0.5470785 -0.8370813 1.256657E-06
vn -0.5470785 -0.8370813 1.256657E-06
vn -0.5470785 -0.8370813 1.256657E-06
vn -0.5470785 -0.8370813 1.256657E-06
vn -0.5392367 0.8421543 4.266625E-07
vn -0.5392367 0.8421543 4.266625E-07
vn -0.5392367 0.8421543 4.266625E-07
vn -0.5392367 0.8421543 4.266625E-07
vn 0.5392355 0.842155 0
vn 0.5392355 0.842155 0
vn 0.5392355 0.842155 0
vn 0.5392355 0.842155 0
vn 2.080588E-07 0 1
vn 2.080588E-07 0 1
vn 2.080588E-07 0 1
vn 2.080588E-07 0 1
vn 4.19665E-07 -4.42239E-07 1
vn 0.0001158637 -0.002864006 -0.9999959
vn 0.0001158637 -0.002864006 -0.9999959
vn 0.0001158637 -0.002864006 -0.9999959
vn -5.675016E-05 0.0009217568 -0.9999996
vn -5.675016E-05 0.0009217568 -0.9999996
vn 0.0001158676 -0.002861077 -0.9999959
vn 0.0001158676 -0.002861077 -0.9999959
vn 0.0001158676 -0.002861077 -0.9999959
vn -5.675139E-05 0.001980392 -0.999998
vn -5.675139E-05 0.001980392 -0.999998
vn 0.0001158664 -0.002866933 -0.9999959
vn 0.0001158664 -0.002866933 -0.9999959
vn 0.0001158664 -0.002866933 -0.9999959
vn -5.615981E-05 0.001981003 -0.999998
vn -5.615981E-05 0.001981003 -0.999998
vn 1.192094E-06 -1 0
vn 1.192094E-06 -1 0
vn 1.192094E-06 -1 0
vn 1.192094E-06 -1 0
vn -1.192094E-06 1 0
vn -1.192094E-06 1 0
vn -1.192094E-06 1 0
vn -1.192094E-06 1 0
vn 0 0 1
vn 0 0 1
vn 0 0 1
vn 0 0 1
vn 1 6.556502E-07 -1.490118E-07
vn 1 6.556502E-07 -1.490118E-07
vn 1 6.556502E-07 -1.490118E-07
vn 1 6.556502E-07 -1.490118E-07
vn 0 -1.907349E-06 -1
vn 0 -1.907349E-06 -1
vn 0 -1.907349E-06 -1
vn 0 -1.907349E-06 -1
vn -1 -5.960459E-07 2.980235E-07
vn -1 -5.960459E-07 2.980235E-07
vn -1 -5.960459E-07 2.980235E-07
vn -1 -5.960459E-07 2.980235E-07
vn 0 1 0
vn 0 1 0
vn 0 1 0
vn 0 1 0
vn 0 0 1
vn 0 0 1
vn 0 0 1
vn 0 0 1
vn 1 6.407495E-07 -2.38419E-07
vn 1 6.407495E-07 -2.38419E-07
vn 1 6.407495E-07 -2.38419E-07
vn 1 6.407495E-07 -2.38419E-07
vn 0 0 -1
vn 0 0 -1
vn 0 0 -1
vn 0 0 -1
vn -1 -6.457174E-07 1.192095E-07
vn -1 -6.457174E-07 1.192095E-07
vn -1 -6.457174E-07 1.192095E-07
vn -1 -6.457174E-07 1.192095E-07
vn 1.192092E-06 -1 0
vn 1.192092E-06 -1 0
vn 1.192092E-06 -1 0
vn 1.192092E-06 -1 0
vn -1.192097E-06 1 0
vn -1.192097E-06 1 0
vn -1.192097E-06 1 0
vn -1.192097E-06 1 0
vn 0 0 1
vn 0 0 1
vn 0 0 1
vn 0 0 1
vn 1 -5.364387E-07 -1.788141E-06
vn 1 -5.364387E-07 -1.788141E-06
vn 1 -5.364387E-07 -1.788141E-06
vn 1 -5.364387E-07 -1.788141E-06
vn 0 1.907349E-06 -1
vn 0 1.907349E-06 -1
vn 0 1.907349E-06 -1
vn 0 1.907349E-06 -1
vn -1 5.96047E-07 1.788141E-06
vn -1 5.96047E-07 1.788141E-06
vn -1 5.96047E-07 1.788141E-06
vn -1 5.96047E-07 1.788141E-06
vn 0 -1 0
vn 0 -1 0
vn 0 -1 0
vn 0 -1 0
vn 0 1 0
vn 0 1 0
vn 0 1 0
vn 0 1 0
vn 0 3.178915E-07 1
vn 0 3.178915E-07 1
vn 0 3.178915E-07 1
vn 0 3.178915E-07 1
vn 1 2.309676E-07 -1.986822E-07
vn 1 2.309676E-07 -1.986822E-07
vn 1 2.309676E-07 -1.986822E-07
vn 1 2.309676E-07 -1.986822E-07
vn 0 0 -1
vn 0 0 -1
vn 0 0 -1
vn 0 0 -1
vn -1 -2.334515E-07 2.384186E-07
vn -1 -2.334515E-07 2.384186E-07
vn -1 -2.334515E-07 2.384186E-07
vn -1 -2.334515E-07 2.384186E-07
g royale_church_lod0_0
f 3/3/3 2/2/2 1/1/1
f 4/4/4 3/3/3 1/1/1
f 1/1/1 2/2/2 5/5/5
f 5/5/5 2/2/2 6/6/6
f 5/5/5 6/6/6 7/7/7
f 6/6/6 8/8/8 7/7/7
f 2/2/2 9/9/9 6/6/6
f 9/9/9 10/10/10 6/6/6
f 9/9/9 11/11/11 10/10/10
f 11/11/11 12/12/12 10/10/10
f 15/15/15 14/14/14 13/13/13
f 16/16/16 15/15/15 13/13/13
f 19/19/19 18/18/18 17/17/17
f 20/20/20 19/19/19 17/17/17
f 23/23/23 22/22/22 21/21/21
f 24/24/24 23/23/23 21/21/21
f 27/27/27 26/26/26 25/25/25
f 28/28/28 27/27/27 25/25/25
f 27/27/27 28/28/28 29/29/29
f 32/32/32 31/31/31 30/30/30
f 33/33/33 32/32/32 30/30/30
f 36/36/36 35/35/35 34/34/34
f 37/37/37 36/36/36 34/34/34
f 40/40/40 39/39/39 38/38/38
f 41/41/41 40/40/40 38/38/38
f 44/44/44 43/43/43 42/42/42
f 45/45/45 44/44/44 42/42/42
f 44/44/44 45/45/45 46/46/46
f 49/49/49 48/48/48 47/47/47
f 50/50/50 49/49/49 47/47/47
f 50/50/50 47/47/47 51/51/51
f 50/50/50 51/51/51 52/52/52
f 52/52/52 51/51/51 53/53/53
f 51/51/51 54/54/54 53/53/53
f 55/55/55 50/50/50 52/52/52
f 56/56/56 55/55/55 52/52/52
f 57/57/57 55/55/55 56/56/56
f 58/58/58 57/57/57 56/56/56
f 61/61/61 60/60/60 59/59/59
f 62/62/62 61/61/61 59/59/59
f 65/65/65 64/64/64 63/63/63
f 66/66/66 65/65/65 63/63/63
f 69/69/69 68/68/68 67/67/67
f 70/70/70 69/69/69 67/67/67
f 73/73/73 72/72/72 71/71/71
f 74/74/74 73/73/73 71/71/71
f 77/77/77 76/76/76 75/75/75
f 78/78/78 77/77/77 75/75/75
f 81/81/81 80/80/80 79/79/79
f 82/82/82 81/81/81 79/79/79
g royale_church_lod0_1
f 85/85/85 84/84/84 83/83/83
f 86/86/86 85/85/85 83/83/83
f 89/89/89 88/88/88 87/87/87
f 90/90/90 89/89/89 87/87/87
f 93/93/93 92/92/92 91/91/91
f 94/94/94 93/93/93 91/91/91
f 91/91/91 95/95/95 94/94/94
f 95/95/95 96/96/96 94/94/94
f 99/99/99 98/98/98 97/97/97
f 100/100/100 99/99/99 97/97/97
f 101/101/101 97/97/97 98/98/98
f 102/102/102 101/101/101 98/98/98
f 105/105/105 104/104/104 103/103/103
f 106/106/106 105/105/105 103/103/103
f 109/109/109 108/108/108 107/107/107
f 110/110/110 109/109/109 107/107/107
f 113/113/113 112/112/112 111/111/111
f 114/114/114 113/113/113 111/111/111
f 117/117/117 116/116/116 115/115/115
f 118/118/118 117/117/117 115/115/115
g royale_church_lod0_2
f 121/121/121 120/120/120 119/119/119
f 122/122/122 121/121/121 119/119/119
f 125/125/125 124/124/124 123/123/123
f 126/126/126 125/125/125 123/123/123
g royale_church_lod0_3
f 129/129/129 128/128/128 127/127/127
f 130/130/130 129/129/129 127/127/127
f 131/131/131 127/127/127 128/128/128
f 134/134/134 133/133/133 132/132/132
f 133/133/133 134/134/134 135/135/135
f 136/136/136 133/133/133 135/135/135
f 139/139/139 138/138/138 137/137/137
f 138/138/138 139/139/139 140/140/140
f 141/141/141 138/138/138 140/140/140
f 144/144/144 143/143/143 142/142/142
f 143/143/143 144/144/144 145/145/145
f 146/146/146 143/143/143 145/145/145
g royale_church_lod0_4
f 149/149/149 148/148/148 147/147/147
f 150/150/150 149/149/149 147/147/147
f 153/153/153 152/152/152 151/151/151
f 154/154/154 153/153/153 151/151/151
f 157/157/157 156/156/156 155/155/155
f 158/158/158 157/157/157 155/155/155
f 161/161/161 160/160/160 159/159/159
f 162/162/162 161/161/161 159/159/159
f 165/165/165 164/164/164 163/163/163
f 166/166/166 165/165/165 163/163/163
f 169/169/169 168/168/168 167/167/167
f 170/170/170 169/169/169 167/167/167
f 173/173/173 172/172/172 171/171/171
f 174/174/174 173/173/173 171/171/171
f 177/177/177 176/176/176 175/175/175
f 178/178/178 177/177/177 175/175/175
f 181/181/181 180/180/180 179/179/179
f 182/182/182 181/181/181 179/179/179
f 185/185/185 184/184/184 183/183/183
f 186/186/186 185/185/185 183/183/183
f 189/189/189 188/188/188 187/187/187
f 190/190/190 189/189/189 187/187/187
f 193/193/193 192/192/192 191/191/191
f 194/194/194 193/193/193 191/191/191
f 197/197/197 196/196/196 195/195/195
f 198/198/198 197/197/197 195/195/195
f 201/201/201 200/200/200 199/199/199
f 202/202/202 201/201/201 199/199/199
f 205/205/205 204/204/204 203/203/203
f 206/206/206 205/205/205 203/203/203
f 209/209/209 208/208/208 207/207/207
f 210/210/210 209/209/209 207/207/207
f 213/213/213 212/212/212 211/211/211
f 214/214/214 213/213/213 211/211/211
f 217/217/217 216/216/216 215/215/215
f 218/218/218 217/217/217 215/215/215
f 221/221/221 220/220/220 219/219/219
f 222/222/222 221/221/221 219/219/219
f 225/225/225 224/224/224 223/223/223
f 226/226/226 225/225/225 223/223/223
f 229/229/229 228/228/228 227/227/227
f 230/230/230 229/229/229 227/227/227
f 233/233/233 232/232/232 231/231/231
f 234/234/234 233/233/233 231/231/231
f 237/237/237 236/236/236 235/235/235
f 238/238/238 237/237/237 235/235/235
