g royale_hat_laser_ears_mesh
v 0.3732972 -0.1881426 0.407399
v 0.3732972 -0.1881426 0.1901573
v 0.3732972 -0.2191771 0.1901573
v 0.3732972 -0.2191771 0.407399
v 0.3422626 0.09309319 0.407399
v 0.3422626 0.09309322 0.1280882
v 0.3422626 -0.09311388 0.1280882
v 0.3422626 -0.09311391 0.407399
v 0.3112281 -0.09311391 0.3763644
v 0.3112281 -0.09311388 0.1591228
v 0.3112281 -0.1241484 0.1591228
v 0.3112281 -0.1241484 0.3763644
v 0.2801936 -0.2191771 0.4384332
v 0.2801936 -0.1881426 0.4384332
v 0.3422626 -0.1881426 0.4384332
v 0.3422626 -0.2191771 0.4384332
v 0.3422626 -0.2191771 0.4384332
v 0.3422626 -0.1881426 0.4384332
v 0.3732972 -0.1881426 0.407399
v 0.3732972 -0.2191771 0.407399
v 0.2801936 -0.1241484 0.3763644
v 0.2801936 -0.09311391 0.3763644
v 0.3112281 -0.09311391 0.3763644
v 0.3112281 -0.1241484 0.3763644
v 0.2801936 -0.09311388 0.1591228
v 0.2801936 -0.09311391 0.3763644
v 0.2801936 -0.1241484 0.3763644
v 0.2801936 -0.1241484 0.1591228
v 0.2801936 -0.1881426 0.1591228
v 0.2801936 -0.1881426 0.4384332
v 0.2801936 -0.2191771 0.4384332
v 0.2801936 -0.2191771 0.1591228
v 0.3422626 -0.2191771 0.4384332
v 0.3732972 -0.2191771 0.407399
v 0.3732972 -0.2191771 0.1901573
v 0.3422626 -0.2191771 0.1591228
v 0.2801936 -0.2191771 0.1591228
v 0.2801936 -0.2191771 0.4384332
v 0.2801936 -0.1241484 0.3763644
v 0.3112281 -0.1241484 0.3763644
v 0.3112281 -0.1241484 0.1591228
v 0.2801936 -0.1241484 0.1591228
v 0.3422626 0.09309319 0.407399
v 0.249159 0.09309319 0.407399
v 0.249159 0.09309319 0.1280882
v 0.3422626 0.09309322 0.1280882
v 0.3422626 -0.09311388 0.1280882
v 0.249159 -0.09311391 0.1280882
v 0.249159 -0.09311391 0.407399
v 0.3422626 -0.09311391 0.407399
v 0.3422626 0.09309322 0.1280882
v 0.249159 0.09309319 0.1280882
v 0.249159 -0.09311391 0.1280882
v 0.3422626 -0.09311388 0.1280882
v 0.3422626 -0.1881426 0.1591228
v 0.3422626 -0.2191771 0.1591228
v 0.3732972 -0.2191771 0.1901573
v 0.3732972 -0.1881426 0.1901573
v 0.2801936 -0.1881426 0.1591228
v 0.2801936 -0.2191771 0.1591228
v 0.3422626 -0.2191771 0.1591228
v 0.3422626 -0.1881426 0.1591228
v 0.2801936 -0.09311388 0.1591228
v 0.2801936 -0.1241484 0.1591228
v 0.3112281 -0.1241484 0.1591228
v 0.3112281 -0.09311388 0.1591228
v 0.249159 -0.09311391 0.407399
v 0.249159 0.09309319 0.407399
v 0.3422626 0.09309319 0.407399
v 0.3422626 -0.09311391 0.407399
v 0.249159 0.09309319 0.407399
v 0.249159 -0.09311391 0.407399
v 0.249159 -0.09311391 0.1280882
v 0.249159 0.09309319 0.1280882
v 0.3422626 -0.1881426 0.4384332
v 0.3422626 -0.1881426 0.1591228
v 0.3732972 -0.1881426 0.1901573
v 0.3732972 -0.1881426 0.407399
v 0.2801936 -0.1881426 0.1591228
v 0.2801936 -0.1881426 0.4384332
v -0.3734944 -0.1881426 0.407399
v -0.3734944 -0.2191771 0.407399
v -0.3734944 -0.2191771 0.1901573
v -0.3734944 -0.1881426 0.1901573
v -0.3424598 0.09309319 0.407399
v -0.3424598 -0.09311391 0.407399
v -0.3424598 -0.09311388 0.1280882
v -0.3424598 0.09309322 0.1280882
v -0.3114252 -0.09311391 0.3763644
v -0.3114252 -0.1241484 0.3763644
v -0.3114252 -0.1241484 0.1591228
v -0.3114252 -0.09311388 0.1591228
v -0.2803908 -0.2191771 0.4384332
v -0.3424598 -0.2191771 0.4384332
v -0.3424598 -0.1881426 0.4384332
v -0.2803908 -0.1881426 0.4384332
v -0.3424598 -0.2191771 0.4384332
v -0.3734944 -0.2191771 0.407399
v -0.3734944 -0.1881426 0.407399
v -0.3424598 -0.1881426 0.4384332
v -0.2803908 -0.1241484 0.3763644
v -0.3114252 -0.1241484 0.3763644
v -0.3114252 -0.09311391 0.3763644
v -0.2803908 -0.09311391 0.3763644
v -0.2803908 -0.09311388 0.1591228
v -0.2803908 -0.1241484 0.1591228
v -0.2803908 -0.1241484 0.3763644
v -0.2803908 -0.09311391 0.3763644
v -0.2803908 -0.1881426 0.1591228
v -0.2803908 -0.2191771 0.1591228
v -0.2803908 -0.2191771 0.4384332
v -0.2803908 -0.1881426 0.4384332
v -0.3424598 -0.2191771 0.4384332
v -0.3424598 -0.2191771 0.1591228
v -0.3734944 -0.2191771 0.1901573
v -0.3734944 -0.2191771 0.407399
v -0.2803908 -0.2191771 0.1591228
v -0.2803908 -0.2191771 0.4384332
v -0.2803908 -0.1241484 0.3763644
v -0.2803908 -0.1241484 0.1591228
v -0.3114252 -0.1241484 0.1591228
v -0.3114252 -0.1241484 0.3763644
v -0.3424598 0.09309319 0.407399
v -0.3424598 0.09309322 0.1280882
v -0.2493562 0.09309319 0.1280882
v -0.2493562 0.09309319 0.407399
v -0.3424598 -0.09311388 0.1280882
v -0.3424598 -0.09311391 0.407399
v -0.2493562 -0.09311391 0.407399
v -0.2493562 -0.09311391 0.1280882
v -0.3424598 0.09309322 0.1280882
v -0.3424598 -0.09311388 0.1280882
v -0.2493562 -0.09311391 0.1280882
v -0.2493562 0.09309319 0.1280882
v -0.3424598 -0.1881426 0.1591228
v -0.3734944 -0.1881426 0.1901573
v -0.3734944 -0.2191771 0.1901573
v -0.3424598 -0.2191771 0.1591228
v -0.2803908 -0.1881426 0.1591228
v -0.3424598 -0.1881426 0.1591228
v -0.3424598 -0.2191771 0.1591228
v -0.2803908 -0.2191771 0.1591228
v -0.2803908 -0.09311388 0.1591228
v -0.3114252 -0.09311388 0.1591228
v -0.3114252 -0.1241484 0.1591228
v -0.2803908 -0.1241484 0.1591228
v -0.2493562 -0.09311391 0.407399
v -0.3424598 -0.09311391 0.407399
v -0.3424598 0.09309319 0.407399
v -0.2493562 0.09309319 0.407399
v -0.2493562 0.09309319 0.407399
v -0.2493562 0.09309319 0.1280882
v -0.2493562 -0.09311391 0.1280882
v -0.2493562 -0.09311391 0.407399
v -0.3424598 -0.1881426 0.4384332
v -0.3734944 -0.1881426 0.407399
v -0.3734944 -0.1881426 0.1901573
v -0.3424598 -0.1881426 0.1591228
v -0.2803908 -0.1881426 0.1591228
v -0.2803908 -0.1881426 0.4384332
vt 0.375 0.25
vt 0.15625 0.25
vt 0.15625 0.21875
vt 0.375 0.21875
vt 0.1875 0.71875
vt 0.1875 0.4375
vt 0.375 0.4375
vt 0.375 0.71875
vt 0.625 0.125
vt 0.625 0.34375
vt 0.59375 0.34375
vt 0.59375 0.125
vt 0.40625 0.125
vt 0.4375 0.125
vt 0.4375 0.1875
vt 0.40625 0.1875
vt 0.40625 0.1875
vt 0.4375 0.1875
vt 0.4375 0.21875
vt 0.40625 0.21875
vt 0.5625 0.125
vt 0.5625 0.09375
vt 0.59375 0.09375
vt 0.59375 0.125
vt 0.53125 0.34375
vt 0.53125 0.125
vt 0.5625 0.125
vt 0.5625 0.34375
vt 0.125 0.09375
vt 0.40625 0.09375
vt 0.40625 0.125
vt 0.125 0.125
vt 0.40625 0.1875
vt 0.375 0.21875
vt 0.15625 0.21875
vt 0.125 0.1875
vt 0.125 0.125
vt 0.40625 0.125
vt 0.5625 0.125
vt 0.59375 0.125
vt 0.59375 0.34375
vt 0.5625 0.34375
vt 0.1875 0.71875
vt 0.09375 0.71875
vt 0.09375 0.4375
vt 0.1875 0.4375
vt 0.375 0.4375
vt 0.46875 0.4375
vt 0.46875 0.71875
vt 0.375 0.71875
vt 0.1875 0.4375
vt 0.1875 0.34375
vt 0.375 0.34375
vt 0.375 0.4375
vt 0.09375 0.1875
vt 0.125 0.1875
vt 0.125 0.21875
vt 0.09375 0.21875
vt 0.09375 0.125
vt 0.125 0.125
vt 0.125 0.1875
vt 0.09375 0.1875
vt 0.5625 0.375
vt 0.5625 0.34375
vt 0.59375 0.34375
vt 0.59375 0.375
vt 0.375 0.8125
vt 0.1875 0.8125
vt 0.1875 0.71875
vt 0.375 0.71875
vt 0.1875 0.71875
vt 0.375 0.71875
vt 0.375 0.4375
vt 0.1875 0.4375
vt 0.40625 0.1875
vt 0.125 0.1875
vt 0.15625 0.21875
vt 0.375 0.21875
vt 0.125 0.125
vt 0.40625 0.125
vt 0.375 0.25
vt 0.375 0.21875
vt 0.15625 0.21875
vt 0.15625 0.25
vt 0.1875 0.71875
vt 0.375 0.71875
vt 0.375 0.4375
vt 0.1875 0.4375
vt 0.625 0.125
vt 0.59375 0.125
vt 0.59375 0.34375
vt 0.625 0.34375
vt 0.40625 0.125
vt 0.40625 0.1875
vt 0.4375 0.1875
vt 0.4375 0.125
vt 0.40625 0.1875
vt 0.40625 0.21875
vt 0.4375 0.21875
vt 0.4375 0.1875
vt 0.5625 0.125
vt 0.59375 0.125
vt 0.59375 0.09375
vt 0.5625 0.09375
vt 0.53125 0.34375
vt 0.5625 0.34375
vt 0.5625 0.125
vt 0.53125 0.125
vt 0.125 0.09375
vt 0.125 0.125
vt 0.40625 0.125
vt 0.40625 0.09375
vt 0.40625 0.1875
vt 0.125 0.1875
vt 0.15625 0.21875
vt 0.375 0.21875
vt 0.125 0.125
vt 0.40625 0.125
vt 0.5625 0.125
vt 0.5625 0.34375
vt 0.59375 0.34375
vt 0.59375 0.125
vt 0.1875 0.71875
vt 0.1875 0.4375
vt 0.09375 0.4375
vt 0.09375 0.71875
vt 0.375 0.4375
vt 0.375 0.71875
vt 0.46875 0.71875
vt 0.46875 0.4375
vt 0.1875 0.4375
vt 0.375 0.4375
vt 0.375 0.34375
vt 0.1875 0.34375
vt 0.09375 0.1875
vt 0.09375 0.21875
vt 0.125 0.21875
vt 0.125 0.1875
vt 0.09375 0.125
vt 0.09375 0.1875
vt 0.125 0.1875
vt 0.125 0.125
vt 0.5625 0.375
vt 0.59375 0.375
vt 0.59375 0.34375
vt 0.5625 0.34375
vt 0.375 0.8125
vt 0.375 0.71875
vt 0.1875 0.71875
vt 0.1875 0.8125
vt 0.1875 0.71875
vt 0.1875 0.4375
vt 0.375 0.4375
vt 0.375 0.71875
vt 0.40625 0.1875
vt 0.375 0.21875
vt 0.15625 0.21875
vt 0.125 0.1875
vt 0.125 0.125
vt 0.40625 0.125
vn 1 0 0
vn 1 0 0
vn 1 0 0
vn 1 0 0
vn 1 0 0
vn 1 0 0
vn 1 0 0
vn 1 0 0
vn 1 0 0
vn 1 0 0
vn 1 0 0
vn 1 0 0
vn 0 0 1
vn 0 0 1
vn 0 0 1
vn 0 0 1
vn 0.7071033 0 0.7071103
vn 0.7071033 0 0.7071103
vn 0.7071033 0 0.7071103
vn 0.7071033 0 0.7071103
vn 0 0 1
vn 0 0 1
vn 0 0 1
vn 0 0 1
vn -1 0 0
vn -1 0 0
vn -1 0 0
vn -1 0 0
vn -1 0 0
vn -1 0 0
vn -1 0 0
vn -1 0 0
vn 0 -1 -1.980342E-07
vn 0 -1 -1.980342E-07
vn 0 -1 -1.980342E-07
vn 0 -1 -1.980342E-07
vn 0 -1 -1.760306E-07
vn 0 -1 -1.760304E-07
vn 0 -1 -1.697438E-07
vn 0 -1 -1.697438E-07
vn 0 -1 -1.697438E-07
vn 0 -1 -1.697438E-07
vn -2.048631E-07 1 0
vn -2.048631E-07 1 0
vn -2.048631E-07 1 0
vn -2.048631E-07 1 0
vn 2.048631E-07 -1 0
vn 2.048631E-07 -1 0
vn 2.048631E-07 -1 0
vn 2.048631E-07 -1 0
vn 0 0 -1
vn 0 0 -1
vn 0 0 -1
vn 0 0 -1
vn 0.7071069 0 -0.7071066
vn 0.7071069 0 -0.7071066
vn 0.7071069 0 -0.7071066
vn 0.7071069 0 -0.7071066
vn 0 0 -1
vn 0 0 -1
vn 0 0 -1
vn 0 0 -1
vn 0 0 -1
vn 0 0 -1
vn 0 0 -1
vn 0 0 -1
vn 0 0 1
vn 0 0 1
vn 0 0 1
vn 0 0 1
vn -1 0 0
vn -1 0 0
vn -1 0 0
vn -1 0 0
vn 0 1 1.485256E-07
vn 0 1 1.485256E-07
vn 0 1 1.485256E-07
vn 0 1 1.485256E-07
vn 0 1 0
vn 0 1 1.760304E-07
vn -1 0 0
vn -1 0 0
vn -1 0 0
vn -1 0 0
vn -1 0 0
vn -1 0 0
vn -1 0 0
vn -1 0 0
vn -1 0 0
vn -1 0 0
vn -1 0 0
vn -1 0 0
vn 0 0 1
vn 0 0 1
vn 0 0 1
vn 0 0 1
vn -0.7071033 0 0.7071103
vn -0.7071033 0 0.7071103
vn -0.7071033 0 0.7071103
vn -0.7071033 0 0.7071103
vn 0 0 1
vn 0 0 1
vn 0 0 1
vn 0 0 1
vn 1 0 0
vn 1 0 0
vn 1 0 0
vn 1 0 0
vn 1 0 0
vn 1 0 0
vn 1 0 0
vn 1 0 0
vn 0 -1 -1.980341E-07
vn 0 -1 -1.980341E-07
vn 0 -1 -1.980341E-07
vn 0 -1 -1.980341E-07
vn 0 -1 0
vn 0 -1 -1.760304E-07
vn 0 -1 -1.697438E-07
vn 0 -1 -1.697438E-07
vn 0 -1 -1.697438E-07
vn 0 -1 -1.697438E-07
vn 2.04863E-07 1 0
vn 2.04863E-07 1 0
vn 2.04863E-07 1 0
vn 2.04863E-07 1 0
vn -2.04863E-07 -1 0
vn -2.04863E-07 -1 0
vn -2.04863E-07 -1 0
vn -2.04863E-07 -1 0
vn 0 0 -1
vn 0 0 -1
vn 0 0 -1
vn 0 0 -1
vn -0.7071069 0 -0.7071066
vn -0.7071069 0 -0.7071066
vn -0.7071069 0 -0.7071066
vn -0.7071069 0 -0.7071066
vn 0 0 -1
vn 0 0 -1
vn 0 0 -1
vn 0 0 -1
vn 0 0 -1
vn 0 0 -1
vn 0 0 -1
vn 0 0 -1
vn 0 0 1
vn 0 0 1
vn 0 0 1
vn 0 0 1
vn 1 0 0
vn 1 0 0
vn 1 0 0
vn 1 0 0
vn 0 1 1.485256E-07
vn 0 1 1.485256E-07
vn 0 1 1.485256E-07
vn 0 1 1.485256E-07
vn 0 1 1.760304E-07
vn 0 1 0
g royale_hat_laser_ears_mesh_0
f 3/3/3 2/2/2 1/1/1
f 4/4/4 3/3/3 1/1/1
f 7/7/7 6/6/6 5/5/5
f 8/8/8 7/7/7 5/5/5
f 11/11/11 10/10/10 9/9/9
f 12/12/12 11/11/11 9/9/9
f 15/15/15 14/14/14 13/13/13
f 16/16/16 15/15/15 13/13/13
f 19/19/19 18/18/18 17/17/17
f 20/20/20 19/19/19 17/17/17
f 23/23/23 22/22/22 21/21/21
f 24/24/24 23/23/23 21/21/21
f 27/27/27 26/26/26 25/25/25
f 28/28/28 27/27/27 25/25/25
f 31/31/31 30/30/30 29/29/29
f 32/32/32 31/31/31 29/29/29
f 35/35/35 34/34/34 33/33/33
f 36/36/36 35/35/35 33/33/33
f 36/36/36 33/33/33 37/37/37
f 37/37/37 33/33/33 38/38/38
f 41/41/41 40/40/40 39/39/39
f 42/42/42 41/41/41 39/39/39
f 45/45/45 44/44/44 43/43/43
f 46/46/46 45/45/45 43/43/43
f 49/49/49 48/48/48 47/47/47
f 50/50/50 49/49/49 47/47/47
f 53/53/53 52/52/52 51/51/51
f 54/54/54 53/53/53 51/51/51
f 57/57/57 56/56/56 55/55/55
f 58/58/58 57/57/57 55/55/55
f 61/61/61 60/60/60 59/59/59
f 62/62/62 61/61/61 59/59/59
f 65/65/65 64/64/64 63/63/63
f 66/66/66 65/65/65 63/63/63
f 69/69/69 68/68/68 67/67/67
f 70/70/70 69/69/69 67/67/67
f 73/73/73 72/72/72 71/71/71
f 74/74/74 73/73/73 71/71/71
f 77/77/77 76/76/76 75/75/75
f 78/78/78 77/77/77 75/75/75
f 75/75/75 76/76/76 79/79/79
f 75/75/75 79/79/79 80/80/80
f 83/83/83 82/82/82 81/81/81
f 84/84/84 83/83/83 81/81/81
f 87/87/87 86/86/86 85/85/85
f 88/88/88 87/87/87 85/85/85
f 91/91/91 90/90/90 89/89/89
f 92/92/92 91/91/91 89/89/89
f 95/95/95 94/94/94 93/93/93
f 96/96/96 95/95/95 93/93/93
f 99/99/99 98/98/98 97/97/97
f 100/100/100 99/99/99 97/97/97
f 103/103/103 102/102/102 101/101/101
f 104/104/104 103/103/103 101/101/101
f 107/107/107 106/106/106 105/105/105
f 108/108/108 107/107/107 105/105/105
f 111/111/111 110/110/110 109/109/109
f 112/112/112 111/111/111 109/109/109
f 115/115/115 114/114/114 113/113/113
f 116/116/116 115/115/115 113/113/113
f 113/113/113 114/114/114 117/117/117
f 113/113/113 117/117/117 118/118/118
f 121/121/121 120/120/120 119/119/119
f 122/122/122 121/121/121 119/119/119
f 125/125/125 124/124/124 123/123/123
f 126/126/126 125/125/125 123/123/123
f 129/129/129 128/128/128 127/127/127
f 130/130/130 129/129/129 127/127/127
f 133/133/133 132/132/132 131/131/131
f 134/134/134 133/133/133 131/131/131
f 137/137/137 136/136/136 135/135/135
f 138/138/138 137/137/137 135/135/135
f 141/141/141 140/140/140 139/139/139
f 142/142/142 141/141/141 139/139/139
f 145/145/145 144/144/144 143/143/143
f 146/146/146 145/145/145 143/143/143
f 149/149/149 148/148/148 147/147/147
f 150/150/150 149/149/149 147/147/147
f 153/153/153 152/152/152 151/151/151
f 154/154/154 153/153/153 151/151/151
f 157/157/157 156/156/156 155/155/155
f 158/158/158 157/157/157 155/155/155
f 158/158/158 155/155/155 159/159/159
f 159/159/159 155/155/155 160/160/160
