g royale_barrier_A
v 0.3981403 2.008105 -0.2155638
v 0.3981402 2.008105 0.2155641
v -0.6018598 2.008105 0.2155638
v -0.6018596 2.008105 -0.2155641
v 0.3981403 -7.629394E-08 -0.2155638
v 0.3981403 2.008105 -0.2155638
v -0.6018596 2.008105 -0.2155641
v -0.6018596 -7.629394E-08 -0.2155641
v -0.6018596 -7.629394E-08 -0.2155641
v -0.6018596 2.008105 -0.2155641
v -0.6018598 2.008105 0.2155638
v -0.6018598 -7.629394E-08 0.2155638
v -0.6018598 -7.629394E-08 0.2155638
v -0.6018598 2.008105 0.2155638
v 0.3981402 2.008105 0.2155641
v 0.3981402 -7.629394E-08 0.2155641
v 0.3981402 -7.629394E-08 0.2155641
v 0.3981402 2.008105 0.2155641
v 0.3981403 2.008105 -0.2155638
v 0.3981403 -7.629394E-08 -0.2155638
v 1.39814 1.525813 0.1056963
v -8.60186 1.525813 0.105693
v -8.60186 1.525813 -0.01535919
v 1.39814 1.525813 -0.01535355
v 1.39814 1.154481 0.1056963
v 1.39814 1.525813 0.1056963
v 1.39814 1.525813 -0.01535355
v 1.39814 1.154482 -0.01535355
v -8.60186 1.154481 -0.01535683
v -8.60186 1.525813 -0.01535919
v -8.60186 1.525813 0.105693
v -8.60186 1.154481 0.105693
v -8.60186 1.154481 0.105693
v -8.60186 1.525813 0.105693
v 1.39814 1.525813 0.1056963
v 1.39814 1.154481 0.1056963
v -8.60186 1.154481 -0.01535683
v 1.39814 1.154482 -0.01535355
v 1.39814 1.525813 -0.01535355
v -8.60186 1.525813 -0.01535919
v 1.39814 1.154481 0.1056963
v 1.39814 1.154482 -0.01535355
v -8.60186 1.154481 -0.01535683
v -8.60186 1.154481 0.105693
vt 0.2578125 0.5141602
vt 0.2578125 0.5102539
vt 0.253418 0.5102539
vt 0.253418 0.5141602
vt 0.253418 0.519043
vt 0.262207 0.519043
vt 0.262207 0.5102539
vt 0.253418 0.5102539
vt 0.253418 0.5141602
vt 0.262207 0.5141602
vt 0.262207 0.5102539
vt 0.253418 0.5102539
vt 0.253418 0.519043
vt 0.262207 0.519043
vt 0.262207 0.5102539
vt 0.253418 0.5102539
vt 0.253418 0.5141602
vt 0.262207 0.5141602
vt 0.262207 0.5102539
vt 0.253418 0.5102539
vt 0.3305664 0.5805664
vt 0.2509766 0.5805664
vt 0.2509766 0.581543
vt 0.3305664 0.581543
vt 0.2509766 0.581543
vt 0.2539063 0.581543
vt 0.2539063 0.5805664
vt 0.2509766 0.5805664
vt 0.2509766 0.581543
vt 0.2539063 0.581543
vt 0.2539063 0.5805664
vt 0.2509766 0.5805664
vt 0.3305664 0.5834961
vt 0.3305664 0.5805664
vt 0.2509766 0.5805664
vt 0.2509766 0.5834961
vt 0.2509766 0.5834961
vt 0.3305664 0.5834961
vt 0.3305664 0.5805664
vt 0.2509766 0.5805664
vt 0.3305664 0.581543
vt 0.3305664 0.5805664
vt 0.2509766 0.5805664
vt 0.2509766 0.581543
vn 0 1 0
vn 0 1 0
vn 0 1 0
vn 0 1 0
vn 3.258414E-07 0 -1
vn 3.258414E-07 0 -1
vn 3.258414E-07 0 -1
vn 3.258414E-07 0 -1
vn -1 0 -3.258414E-07
vn -1 0 -3.258414E-07
vn -1 0 -3.258414E-07
vn -1 0 -3.258414E-07
vn -3.258414E-07 0 1
vn -3.258414E-07 0 1
vn -3.258414E-07 0 1
vn -3.258414E-07 0 1
vn 1 0 3.258414E-07
vn 1 0 3.258414E-07
vn 1 0 3.258414E-07
vn 1 0 3.258414E-07
vn 0 1 0
vn 0 1 0
vn 0 1 0
vn 0 1 0
vn 1 0 3.258414E-07
vn 1 0 3.258414E-07
vn 1 0 3.258414E-07
vn 1 0 3.258414E-07
vn -1 0 -3.258414E-07
vn -1 0 -3.258414E-07
vn -1 0 -3.258414E-07
vn -1 0 -3.258414E-07
vn -3.258414E-07 0 1
vn -3.258414E-07 0 1
vn -3.258414E-07 0 1
vn -3.258414E-07 0 1
vn 4.479117E-07 -3.287368E-06 -1
vn 4.479117E-07 -3.287368E-06 -1
vn 4.479117E-07 -3.287368E-06 -1
vn 4.479117E-07 -3.287368E-06 -1
vn 0 -1 -1.260538E-06
vn 0 -1 -1.260538E-06
vn 0 -1 -1.260538E-06
vn 0 -1 -1.260538E-06
g royale_barrier_A_0
f 3/3/3 2/2/2 1/1/1
f 4/4/4 3/3/3 1/1/1
f 7/7/7 6/6/6 5/5/5
f 8/8/8 7/7/7 5/5/5
f 11/11/11 10/10/10 9/9/9
f 12/12/12 11/11/11 9/9/9
f 15/15/15 14/14/14 13/13/13
f 16/16/16 15/15/15 13/13/13
f 19/19/19 18/18/18 17/17/17
f 20/20/20 19/19/19 17/17/17
f 23/23/23 22/22/22 21/21/21
f 24/24/24 23/23/23 21/21/21
f 27/27/27 26/26/26 25/25/25
f 28/28/28 27/27/27 25/25/25
f 31/31/31 30/30/30 29/29/29
f 32/32/32 31/31/31 29/29/29
f 35/35/35 34/34/34 33/33/33
f 36/36/36 35/35/35 33/33/33
f 39/39/39 38/38/38 37/37/37
f 40/40/40 39/39/39 37/37/37
f 43/43/43 42/42/42 41/41/41
f 44/44/44 43/43/43 41/41/41
