g royale_city02_buildings_mesh_10
v -47.65052 -14.60026 -6.103516E-05
v -47.65052 -4.600267 -6.103516E-05
v -47.64311 -4.600255 9.772886
v -47.64311 -14.60025 9.772886
v -37.65053 -14.60026 -6.103516E-05
v -47.65052 -14.60026 -6.103516E-05
v -47.64311 -14.60025 9.772886
v -37.64312 -14.60025 9.772889
v -37.6357 -14.60024 25.1684
v -47.6357 -14.60024 25.1684
v -47.65052 -4.600267 -6.103516E-05
v -37.65053 -4.600275 -6.103516E-05
v -37.64312 -4.600262 9.772889
v -47.64311 -4.600255 9.772886
v -47.6357 -4.600243 25.1684
v -37.6357 -4.600253 25.1684
v -37.64312 -4.600262 9.772889
v -37.65053 -4.600275 -6.103516E-05
v -37.65053 -14.60026 -6.103516E-05
v -37.64312 -14.60025 9.772889
v -47.62087 -14.60021 27.30082
v -47.6357 -14.60024 25.1684
v -47.6357 -4.600243 25.1684
v -47.62087 -4.600221 27.30082
v -37.62088 -14.60021 27.30083
v -37.6357 -14.60024 25.1684
v -47.6357 -14.60024 25.1684
v -47.62087 -14.60021 27.30082
v -47.62087 -4.600221 27.30082
v -47.6357 -4.600243 25.1684
v -37.6357 -4.600253 25.1684
v -37.62088 -4.600228 27.30083
v -37.62088 -4.600228 27.30083
v -37.6357 -4.600253 25.1684
v -37.6357 -14.60024 25.1684
v -37.62088 -14.60021 27.30083
v -47.6357 -14.60024 25.1684
v -47.64311 -14.60025 9.772886
v -47.64311 -4.600255 9.772886
v -47.6357 -4.600243 25.1684
v -37.6357 -4.600253 25.1684
v -37.64312 -4.600262 9.772889
v -37.64312 -14.60025 9.772889
v -37.6357 -14.60024 25.1684
v -37.62088 -14.60021 27.30083
v -47.62087 -14.60021 27.30082
v -47.62087 -4.600221 27.30082
v -37.62088 -4.600228 27.30083
vt 0.5097655 0
vt 0.3398438 0
vt 0.3398438 0.1425634
vt 0.5097656 0.1425634
vt 0.2265625 4.470348E-08
vt 0.05920075 4.470348E-08
vt 0.05916922 0.1425635
vt 0.2265221 0.1425635
vt 0.2264406 0.3671464
vt 0.05909833 0.3671465
vt 0.2265624 5.960464E-08
vt 0.05920075 5.960464E-08
vt 0.05923227 0.1425635
vt 0.2266028 0.1425635
vt 0.2266843 0.3671464
vt 0.05930316 0.3671464
vt 0.3398438 0.1425634
vt 0.3398438 4.470348E-08
vt 0.5097655 4.470348E-08
vt 0.5097655 0.1425634
vt 0.1737063 0.6738281
vt 0.1737065 0.6427209
vt 0.006344728 0.642721
vt 0.006344561 0.6738281
vt 0.1737063 0.6738281
vt 0.1735845 0.6427211
vt 0.006242156 0.6427212
vt 0.006344575 0.6738281
vt 0.1737063 0.6738281
vt 0.1738281 0.6427211
vt 0.006446991 0.6427211
vt 0.006344583 0.6738281
vt 0.006344575 0.6738281
vt 0.006344784 0.6427209
vt 0.1737064 0.6427209
vt 0.1737063 0.6738281
vt 0.2265627 0.3671462
vt 0.2265625 0.1425634
vt 0.05920079 0.1425634
vt 0.0592009 0.3671463
vt 0.05920095 0.3671462
vt 0.05920082 0.1425634
vt 0.2265625 0.1425634
vt 0.2265626 0.3671462
vt -4.499996 -4.499993
vt -4.499992 5.499996
vt 5.5 5.499993
vt 5.499989 -4.499996
vn -0.9999997 0 0.000758431
vn -0.9999997 0 0.000758431
vn -0.9999997 0 0.000758431
vn -0.9999997 0 0.000758431
vn -2.44141E-07 -1 1.249248E-06
vn -2.44141E-07 -1 1.249248E-06
vn -2.44141E-07 -1 1.249248E-06
vn -2.44141E-07 -1 1.249248E-06
vn 0 -1 6.343163E-07
vn 0 -1 6.343163E-07
vn 7.324227E-07 1 -1.249619E-06
vn 7.324228E-07 1 -1.249619E-06
vn 7.324227E-07 1 -1.249619E-06
vn 7.324227E-07 1 -1.249619E-06
vn 8.54493E-07 1 -7.140172E-07
vn 8.54493E-07 1 -7.140172E-07
vn 0.9999997 0 -0.0007584309
vn 0.9999997 0 -0.0007584309
vn 0.9999997 0 -0.0007584309
vn 0.9999997 0 -0.0007584309
vn -0.9999758 0 0.006953952
vn -0.9999758 0 0.006953953
vn -0.9999758 0 0.006953952
vn -0.9999758 0 0.006953953
vn 0 -1 1.144899E-05
vn 0 -1 1.144899E-05
vn 0 -1 1.144899E-05
vn 0 -1 1.144899E-05
vn 8.544943E-07 1 -1.088248E-05
vn 8.544943E-07 1 -1.088248E-05
vn 8.544943E-07 1 -1.088248E-05
vn 8.544944E-07 1 -1.088248E-05
vn 0.9999758 0 -0.0069528
vn 0.9999758 0 -0.0069528
vn 0.9999758 0 -0.0069528
vn 0.9999758 0 -0.0069528
vn -0.9999999 0 0.0004814459
vn -0.9999999 0 0.0004814459
vn -0.9999999 0 0.0004814459
vn -0.9999999 0 0.0004814459
vn 0.9999999 0 -0.0004816046
vn 0.9999999 0 -0.0004816046
vn 0.9999999 0 -0.0004816046
vn 0.9999999 0 -0.0004816046
vn -2.441409E-07 0 1
vn -2.441409E-07 0 1
vn -2.441409E-07 0 1
vn -2.441409E-07 0 1
g royale_city02_buildings_mesh_10_0
f 3/3/3 2/2/2 1/1/1
f 4/4/4 3/3/3 1/1/1
f 7/7/7 6/6/6 5/5/5
f 8/8/8 7/7/7 5/5/5
f 7/7/7 8/8/8 9/9/9
f 10/10/10 7/7/7 9/9/9
f 13/13/13 12/12/12 11/11/11
f 14/14/14 13/13/13 11/11/11
f 13/13/13 14/14/14 15/15/15
f 16/16/16 13/13/13 15/15/15
f 19/19/19 18/18/18 17/17/17
f 20/20/20 19/19/19 17/17/17
f 23/23/23 22/22/22 21/21/21
f 24/24/24 23/23/23 21/21/21
f 27/27/27 26/26/26 25/25/25
f 28/28/28 27/27/27 25/25/25
f 31/31/31 30/30/30 29/29/29
f 32/32/32 31/31/31 29/29/29
f 35/35/35 34/34/34 33/33/33
f 36/36/36 35/35/35 33/33/33
f 39/39/39 38/38/38 37/37/37
f 40/40/40 39/39/39 37/37/37
f 43/43/43 42/42/42 41/41/41
f 44/44/44 43/43/43 41/41/41
g royale_city02_buildings_mesh_10_1
f 47/47/47 46/46/46 45/45/45
f 48/48/48 47/47/47 45/45/45
