g royale_pit_lod_2_A
v -1.994591 0.9903639 1.903374
v -1.994585 0.990364 -2.096623
v 2.005406 0.9903644 -2.096628
v 2.005408 0.9903645 1.903373
v 2.005406 0.9903644 -2.096628
v -1.994585 0.990364 -2.096623
v -1.99459 -0.009636688 -2.096621
v 2.005408 -0.00963623 -2.096627
v 2.005408 -0.00963623 -2.096627
v 2.005408 -0.009635314 1.903373
v 2.005408 0.9903645 1.903373
v 2.005406 0.9903644 -2.096628
v -1.994585 0.990364 -2.096623
v -1.994591 0.9903639 1.903374
v -1.994592 -0.009636078 1.903374
v -1.99459 -0.009636688 -2.096621
v 2.005408 0.9903645 1.903373
v 2.005408 -0.009635314 1.903373
v -1.994592 -0.009636078 1.903374
v -1.994591 0.9903639 1.903374
v -1.590492 0.9903635 -1.470255
v -1.590492 3.490363 -1.470269
v -1.340496 3.490364 -1.470271
v -1.340496 0.9903634 -1.470257
v -1.340496 0.9903634 -1.470257
v -1.340496 3.490364 -1.470271
v -1.340496 3.490364 -1.720263
v -1.340496 0.9903634 -1.720259
v -1.340496 0.9903634 -1.720259
v -1.340496 3.490364 -1.720263
v -1.590492 3.490364 -1.720273
v -1.590496 0.9903635 -1.720258
v -1.590496 0.9903635 -1.720258
v -1.590492 3.490364 -1.720273
v -1.590492 3.490363 -1.470269
v -1.590492 0.9903635 -1.470255
v 1.380336 0.9903634 -1.470257
v 1.380336 3.490363 -1.470271
v 1.630336 3.490363 -1.470263
v 1.63034 0.9903634 -1.470254
v 1.63034 0.9903634 -1.470254
v 1.630336 3.490363 -1.470263
v 1.630336 3.490363 -1.720269
v 1.630336 0.9903634 -1.720255
v 1.630336 0.9903634 -1.720255
v 1.630336 3.490363 -1.720269
v 1.380336 3.490364 -1.720261
v 1.38034 0.9903634 -1.720254
v 1.38034 0.9903634 -1.720254
v 1.380336 3.490364 -1.720261
v 1.380336 3.490363 -1.470271
v 1.380336 0.9903634 -1.470257
v 1.38034 0.9903634 1.562885
v 1.380336 3.490364 1.562873
v 1.630333 3.490363 1.562871
v 1.630336 0.9903634 1.562883
v 1.630336 0.9903634 1.562883
v 1.630333 3.490363 1.562871
v 1.630329 3.490364 1.312871
v 1.630336 0.9903634 1.312881
v 1.630336 0.9903634 1.312881
v 1.630329 3.490364 1.312871
v 1.380336 3.490364 1.312871
v 1.380336 0.9903633 1.312883
v 1.380336 0.9903633 1.312883
v 1.380336 3.490364 1.312871
v 1.380336 3.490364 1.562873
v 1.38034 0.9903634 1.562885
v -1.590496 0.9903633 1.562881
v -1.5905 3.490364 1.562871
v -1.340492 3.490363 1.562873
v -1.340492 0.9903633 1.562885
v -1.340492 0.9903633 1.562885
v -1.340492 3.490363 1.562873
v -1.340496 3.490364 1.312873
v -1.340492 0.9903633 1.312885
v -1.340492 0.9903633 1.312885
v -1.340496 3.490364 1.312873
v -1.590496 3.490364 1.312875
v -1.590496 0.9903633 1.312879
v -1.590496 0.9903633 1.312879
v -1.590496 3.490364 1.312875
v -1.5905 3.490364 1.562871
v -1.590496 0.9903633 1.562881
v 2.005337 3.479932 -2.095271
v -1.994669 3.47993 -2.095271
v -1.994663 3.47993 1.904726
v 2.005327 3.479928 1.904734
v 1.015993 5.469221 -1.098879
v -0.9840005 5.469221 -1.098876
v -1.994669 3.47993 -2.095271
v 2.005337 3.479932 -2.095271
v 2.005337 3.479932 -2.095271
v 2.005327 3.479928 1.904734
v 1.015993 5.469217 0.9011182
v 1.015993 5.469221 -1.098879
v -0.9840005 5.469221 -1.098876
v -0.9840015 5.469219 0.9011176
v -1.994663 3.47993 1.904726
v -1.994669 3.47993 -2.095271
v 2.005327 3.479928 1.904734
v -1.994663 3.47993 1.904726
v -0.9840015 5.469219 0.9011176
v 1.015993 5.469217 0.9011182
v 1.015993 5.469221 -1.098879
v 1.015993 5.469217 0.9011182
v -0.9840015 5.469219 0.9011176
v -0.9840005 5.469221 -1.098876
vt 0.7719727 0.8125
vt 0.7719727 0.8427734
vt 0.8022461 0.8427734
vt 0.8022461 0.8125
vt 0.7719727 0.8203125
vt 0.8022461 0.8203125
vt 0.8022461 0.8125
vt 0.7719727 0.8125
vt 0.8022461 0.8125
vt 0.7719727 0.8125
vt 0.7719727 0.8203125
vt 0.8022461 0.8203125
vt 0.7719727 0.8203125
vt 0.8022461 0.8203125
vt 0.8022461 0.8125
vt 0.7719727 0.8125
vt 0.8022461 0.8203125
vt 0.8022461 0.8125
vt 0.7719727 0.8125
vt 0.7719727 0.8203125
vt 0.8227539 0.8354492
vt 0.8227539 0.8544922
vt 0.824707 0.8544922
vt 0.824707 0.8354492
vt 0.8227539 0.8354492
vt 0.8227539 0.8544922
vt 0.824707 0.8544922
vt 0.824707 0.8354492
vt 0.8227539 0.8354492
vt 0.8227539 0.8544922
vt 0.824707 0.8544922
vt 0.824707 0.8354492
vt 0.8227539 0.8354492
vt 0.8227539 0.8544922
vt 0.824707 0.8544922
vt 0.824707 0.8354492
vt 0.8227539 0.8354492
vt 0.8227539 0.8544922
vt 0.824707 0.8544922
vt 0.824707 0.8354492
vt 0.8227539 0.8354492
vt 0.8227539 0.8544922
vt 0.824707 0.8544922
vt 0.824707 0.8354492
vt 0.8227539 0.8354492
vt 0.8227539 0.8544922
vt 0.824707 0.8544922
vt 0.824707 0.8354492
vt 0.8227539 0.8354492
vt 0.8227539 0.8544922
vt 0.824707 0.8544922
vt 0.824707 0.8354492
vt 0.8227539 0.8354492
vt 0.8227539 0.8544922
vt 0.824707 0.8544922
vt 0.824707 0.8354492
vt 0.8208008 0.8354492
vt 0.8208008 0.8540039
vt 0.8227539 0.8540039
vt 0.8227539 0.8354492
vt 0.8227539 0.8354492
vt 0.8227539 0.8544922
vt 0.824707 0.8544922
vt 0.824707 0.8354492
vt 0.8227539 0.8354492
vt 0.8227539 0.8544922
vt 0.824707 0.8544922
vt 0.824707 0.8354492
vt 0.8227539 0.8354492
vt 0.8227539 0.8544922
vt 0.824707 0.8544922
vt 0.824707 0.8354492
vt 0.8208008 0.8354492
vt 0.8208008 0.8540039
vt 0.8227539 0.8540039
vt 0.8227539 0.8354492
vt 0.8227539 0.8354492
vt 0.8227539 0.8544922
vt 0.824707 0.8544922
vt 0.824707 0.8354492
vt 0.8227539 0.8354492
vt 0.8227539 0.8544922
vt 0.824707 0.8544922
vt 0.824707 0.8354492
vt 0.8017578 0.8447266
vt 0.7719727 0.8447266
vt 0.7719727 0.8745117
vt 0.8017578 0.8745117
vt 0.7793169 0.8599872
vt 0.7938985 0.8600565
vt 0.8013441 0.8438704
vt 0.7721809 0.8437319
vt 0.8014539 0.8443316
vt 0.7722925 0.8446822
vt 0.7798039 0.8607913
vt 0.7943846 0.860616
vt 0.7797678 0.860863
vt 0.7943481 0.860666
vt 0.8014449 0.8443005
vt 0.772284 0.8446945
vt 0.8014485 0.8443115
vt 0.7722875 0.8446902
vt 0.7798665 0.860838
vt 0.7944469 0.8606486
vt 0.8168945 0.8671875
vt 0.8168945 0.8520508
vt 0.8017578 0.8520508
vt 0.8017578 0.8671875
vn -1.335146E-07 1 0
vn -1.335146E-07 1 0
vn -1.335146E-07 1 0
vn -1.335146E-07 1 0
vn -1.373293E-06 -1.2207E-06 -1
vn -1.373293E-06 -1.2207E-06 -1
vn -1.373293E-06 -1.2207E-06 -1
vn -1.373293E-06 -1.2207E-06 -1
vn 1 9.15527E-07 -3.814698E-07
vn 1 9.15527E-07 -3.814698E-07
vn 1 9.15527E-07 -3.814698E-07
vn 1 9.15527E-07 -3.814698E-07
vn -1 3.051756E-06 -1.068117E-06
vn -1 3.051756E-06 -1.068117E-06
vn -1 3.051756E-06 -1.068117E-06
vn -1 3.051756E-06 -1.068117E-06
vn 0 0 1
vn 0 0 1
vn 0 0 1
vn 0 0 1
vn 7.324334E-06 5.371095E-06 1
vn 7.324334E-06 5.371095E-06 1
vn 7.324334E-06 5.371095E-06 1
vn 7.324335E-06 5.371095E-06 1
vn 1 0 0
vn 1 0 0
vn 1 0 0
vn 1 0 0
vn 1.52589E-05 -3.845226E-06 -1
vn 1.52589E-05 -3.845226E-06 -1
vn 1.52589E-05 -3.845226E-06 -1
vn 1.52589E-05 -3.845226E-06 -1
vn -1 6.104004E-07 8.544828E-06
vn -1 6.104004E-07 8.544829E-06
vn -1 6.104004E-07 8.544828E-06
vn -1 6.104004E-07 8.544828E-06
vn -2.258284E-05 4.57762E-06 1
vn -2.258284E-05 4.57762E-06 1
vn -2.258284E-05 4.577621E-06 1
vn -2.258284E-05 4.57762E-06 1
vn 1 7.323883E-07 -7.324107E-06
vn 1 7.323883E-07 -7.324106E-06
vn 1 7.323883E-07 -7.324107E-06
vn 1 7.323883E-07 -7.324107E-06
vn -1.892104E-05 -4.21144E-06 -1
vn -1.892104E-05 -4.21144E-06 -1
vn -1.892104E-05 -4.21144E-06 -1
vn -1.892104E-05 -4.21144E-06 -1
vn -1 -7.324526E-07 -7.32441E-06
vn -1 -7.324525E-07 -7.32441E-06
vn -1 -7.324526E-07 -7.32441E-06
vn -1 -7.324526E-07 -7.32441E-06
vn 7.93469E-06 4.638684E-06 1
vn 7.934689E-06 4.638684E-06 1
vn 7.934689E-06 4.638683E-06 1
vn 7.93469E-06 4.638684E-06 1
vn 1 2.197234E-06 -7.324189E-06
vn 1 2.197234E-06 -7.32419E-06
vn 1 2.197234E-06 -7.324189E-06
vn 1 2.197234E-06 -7.324189E-06
vn -3.662161E-06 -4.272466E-06 -1
vn -3.662162E-06 -4.272466E-06 -1
vn -3.662161E-06 -4.272466E-06 -1
vn -3.662162E-06 -4.272466E-06 -1
vn -1 -7.323878E-07 7.32416E-06
vn -1 -7.323878E-07 7.32416E-06
vn -1 -7.323878E-07 7.32416E-06
vn -1 -7.323878E-07 7.32416E-06
vn -1.159641E-05 4.27245E-06 1
vn -1.159641E-05 4.27245E-06 1
vn -1.159641E-05 4.27245E-06 1
vn -1.159641E-05 4.27245E-06 1
vn 1 9.765284E-07 -7.324218E-06
vn 1 9.765284E-07 -7.324218E-06
vn 1 9.765284E-07 -7.324218E-06
vn 1 9.765284E-07 -7.324218E-06
vn 7.934505E-06 -3.112786E-06 -1
vn 7.934505E-06 -3.112786E-06 -1
vn 7.934505E-06 -3.112786E-06 -1
vn 7.934505E-06 -3.112786E-06 -1
vn -1 -7.324419E-07 -7.324246E-06
vn -1 -7.324419E-07 -7.324247E-06
vn -1 -7.324419E-07 -7.324246E-06
vn -1 -7.324419E-07 -7.324246E-06
vn 0 -1 -4.196166E-07
vn 0 -1 -4.196166E-07
vn 0 -1 -4.196166E-07
vn 0 -1 -4.196166E-07
vn -6.145007E-07 0.4478422 -0.8941126
vn -6.145007E-07 0.4478422 -0.8941126
vn -6.145007E-07 0.4478423 -0.8941126
vn -6.145006E-07 0.4478422 -0.8941126
vn 0.8953803 0.4453023 1.999958E-06
vn 0.8953803 0.4453024 1.999959E-06
vn 0.8953803 0.4453024 1.999959E-06
vn 0.8953803 0.4453024 1.999959E-06
vn -0.8915368 0.4529483 9.555691E-07
vn -0.8915368 0.4529482 9.55569E-07
vn -0.8915368 0.4529482 9.555691E-07
vn -0.8915368 0.4529482 9.55569E-07
vn -9.93461E-07 0.4504306 0.8928114
vn -9.93461E-07 0.4504306 0.8928114
vn -9.93461E-07 0.4504306 0.8928114
vn -9.934612E-07 0.4504306 0.8928114
vn 6.103546E-07 1 1.525882E-06
vn 6.103546E-07 1 1.525883E-06
vn 6.103546E-07 1 1.525883E-06
vn 6.103546E-07 1 1.525883E-06
g royale_pit_lod_2_A_0
f 3/3/3 2/2/2 1/1/1
f 4/4/4 3/3/3 1/1/1
f 7/7/7 6/6/6 5/5/5
f 8/8/8 7/7/7 5/5/5
f 11/11/11 10/10/10 9/9/9
f 12/12/12 11/11/11 9/9/9
f 15/15/15 14/14/14 13/13/13
f 16/16/16 15/15/15 13/13/13
f 19/19/19 18/18/18 17/17/17
f 20/20/20 19/19/19 17/17/17
f 23/23/23 22/22/22 21/21/21
f 24/24/24 23/23/23 21/21/21
f 27/27/27 26/26/26 25/25/25
f 28/28/28 27/27/27 25/25/25
f 31/31/31 30/30/30 29/29/29
f 32/32/32 31/31/31 29/29/29
f 35/35/35 34/34/34 33/33/33
f 36/36/36 35/35/35 33/33/33
f 39/39/39 38/38/38 37/37/37
f 40/40/40 39/39/39 37/37/37
f 43/43/43 42/42/42 41/41/41
f 44/44/44 43/43/43 41/41/41
f 47/47/47 46/46/46 45/45/45
f 48/48/48 47/47/47 45/45/45
f 51/51/51 50/50/50 49/49/49
f 52/52/52 51/51/51 49/49/49
f 55/55/55 54/54/54 53/53/53
f 56/56/56 55/55/55 53/53/53
f 59/59/59 58/58/58 57/57/57
f 60/60/60 59/59/59 57/57/57
f 63/63/63 62/62/62 61/61/61
f 64/64/64 63/63/63 61/61/61
f 67/67/67 66/66/66 65/65/65
f 68/68/68 67/67/67 65/65/65
f 71/71/71 70/70/70 69/69/69
f 72/72/72 71/71/71 69/69/69
f 75/75/75 74/74/74 73/73/73
f 76/76/76 75/75/75 73/73/73
f 79/79/79 78/78/78 77/77/77
f 80/80/80 79/79/79 77/77/77
f 83/83/83 82/82/82 81/81/81
f 84/84/84 83/83/83 81/81/81
f 87/87/87 86/86/86 85/85/85
f 88/88/88 87/87/87 85/85/85
f 91/91/91 90/90/90 89/89/89
f 92/92/92 91/91/91 89/89/89
f 95/95/95 94/94/94 93/93/93
f 96/96/96 95/95/95 93/93/93
f 99/99/99 98/98/98 97/97/97
f 100/100/100 99/99/99 97/97/97
f 103/103/103 102/102/102 101/101/101
f 104/104/104 103/103/103 101/101/101
f 107/107/107 106/106/106 105/105/105
f 108/108/108 107/107/107 105/105/105
