g royale_ dino_bone_lod02
v 3.31106 0.7769226 -0.7653698
v 3.31106 0.7769226 0.7755561
v -2.826139 0.7769226 0.7755561
v -2.826139 0.7769226 -0.7653698
v -2.826139 -0.7640035 0.7755561
v -2.826139 -0.7640035 -0.7653698
v -2.826139 0.7769226 -0.7653698
v -2.826139 0.7769226 0.7755561
v 3.31106 -0.7640035 -0.7653698
v 3.31106 0.7769226 -0.7653698
v -2.826139 0.7769226 -0.7653698
v -2.826139 -0.7640035 -0.7653698
v 3.31106 -0.7640035 0.7755561
v 3.31106 0.7769226 0.7755561
v 3.31106 0.7769226 -0.7653698
v 3.31106 -0.7640035 -0.7653698
v 3.31106 0.7769226 0.7755561
v 3.31106 -0.7640035 0.7755561
v -2.826139 -0.7640035 0.7755561
v -2.826139 0.7769226 0.7755561
v -2.826139 -0.7640035 -0.7653698
v -2.826139 -0.7640035 0.7755561
v 3.31106 -0.7640035 0.7755561
v 3.31106 -0.7640035 -0.7653698
vt 0.81106 0.2653699
vt 0.81106 -1.275556
vt -5.326139 -1.275556
vt -5.326139 0.2653699
vt 0.7244438 0.7359965
vt 2.26537 0.7359965
vt 2.26537 2.276923
vt 0.7244438 2.276923
vt 0.81106 0.7359965
vt 0.81106 2.276923
vt -5.326139 2.276923
vt -5.326139 0.7359965
vt 0.7244438 0.7359965
vt 0.7244438 2.276923
vt 2.26537 2.276923
vt 2.26537 0.7359965
vt 0.81106 0.2769226
vt 0.81106 -1.264004
vt -5.326139 -1.264004
vt -5.326139 0.2769226
vt 0.6738605 0.2653699
vt 0.6738605 -1.275556
vt 6.81106 -1.275556
vt 6.81106 0.2653699
vn 0 1 0
vn 0 1 0
vn 0 1 0
vn 0 1 0
vn -1 0 0
vn -1 0 0
vn -1 0 0
vn -1 0 0
vn 0 0 -1
vn 0 0 -1
vn 0 0 -1
vn 0 0 -1
vn 1 0 0
vn 1 0 0
vn 1 0 0
vn 1 0 0
vn 0 0 1
vn 0 0 1
vn 0 0 1
vn 0 0 1
vn 0 -1 0
vn 0 -1 0
vn 0 -1 0
vn 0 -1 0
g royale_ dino_bone_lod02_0
f 3/3/3 2/2/2 1/1/1
f 4/4/4 3/3/3 1/1/1
f 7/7/7 6/6/6 5/5/5
f 8/8/8 7/7/7 5/5/5
f 11/11/11 10/10/10 9/9/9
f 12/12/12 11/11/11 9/9/9
f 15/15/15 14/14/14 13/13/13
f 16/16/16 15/15/15 13/13/13
f 19/19/19 18/18/18 17/17/17
f 20/20/20 19/19/19 17/17/17
f 23/23/23 22/22/22 21/21/21
f 24/24/24 23/23/23 21/21/21
