g royale_villagehouses_2_mesh_lod01
v -5.000006 1.316065 3.332137
v -5.000005 0.06606445 3.707137
v -5.000005 0.06606445 1.207137
v -5.000006 1.316065 0.3321378
v -5.000007 -2.433935 1.207137
v -5.000007 -4.996435 0.3321387
v -5.000007 -4.996435 0.01963928
v -5.000005 5.003564 0.01963745
v -5.000005 3.816064 0.3321378
v -5.000007 -2.433935 3.707137
v -5.000007 -4.996435 4.519638
v -5.000005 5.003564 0.3321362
v -5.000004 5.003564 4.519635
v -5.000005 1.066064 6.707138
v -5.000006 -1.058936 6.707138
v -5.000005 3.816064 3.332137
v 4.999993 -4.996436 0.3321362
v 4.999995 -1.246435 0.3321381
v 4.999993 -4.996436 0.01963745
v 4.999993 -4.996436 4.519635
v 4.999998 -1.246435 3.332138
v 4.999995 5.003565 0.01963501
v 4.999997 1.253565 0.3321381
v 4.999995 5.003565 0.332135
v 4.999999 1.253565 3.332138
v 4.999996 5.003565 4.519633
v 4.999999 1.066065 6.707135
v 4.999998 -1.058935 6.707135
v 4.999993 -4.996436 0.3321362
v -5.000007 -4.996435 0.3321387
v -5.000007 -4.996435 4.519638
v 4.999993 -4.996436 4.519635
v 4.999993 -4.996436 0.01963745
v -5.000007 -4.996435 0.01963928
v 4.249996 5.003564 1.207134
v 4.999995 5.003565 0.332135
v 4.999996 5.003565 4.519633
v 4.249996 5.003564 3.707134
v 1.749996 5.003565 3.707134
v -5.000004 5.003564 4.519635
v 1.749996 5.003565 1.207135
v -5.000005 5.003564 0.3321362
v -5.000005 5.003564 0.01963745
v 4.999995 5.003565 0.01963501
v -4.500006 1.316065 3.332138
v -4.500006 1.316065 0.332139
v -4.500006 0.06606476 1.207139
v -4.500005 0.06606476 3.707138
v -4.500003 4.503564 4.519635
v -4.500007 -2.433935 1.207139
v -4.500007 -4.496435 0.3321405
v -4.500007 -2.433935 3.707138
v -4.500006 -4.496435 4.519638
v -4.500005 0.7535647 6.582138
v -4.500005 -0.7464352 6.582138
v -4.500005 3.816064 3.332138
v -4.500005 3.816064 0.332139
v -4.500005 4.503564 0.3321381
v 4.499994 -1.246435 0.3321393
v 4.499994 -1.246435 3.332139
v 4.499993 -4.496436 4.519634
v 4.499991 -4.496436 0.3321381
v 4.499996 4.503564 4.519632
v 4.499994 0.7535647 6.582135
v 4.499996 -0.7464352 6.582135
v 4.499995 1.253565 3.332139
v 4.499992 4.503564 0.3321368
v 4.499995 1.253565 0.3321393
v 4.499991 -4.496436 0.3321381
v 4.499993 -4.496436 4.519634
v -4.500006 -4.496435 4.519638
v -4.500007 -4.496435 0.3321405
v 4.249995 4.503564 1.207136
v 4.249995 4.503564 3.707135
v 4.499996 4.503564 4.519632
v 4.499992 4.503564 0.3321368
v -4.500003 4.503564 4.519635
v 1.749995 4.503565 3.707135
v 1.749995 4.503565 1.207136
v -4.500005 4.503564 0.3321381
v -4.500007 -2.433935 1.207139
v -5.000007 -2.433935 1.207137
v -5.000005 0.06606445 1.207137
v -4.500006 0.06606476 1.207139
v -4.500007 -2.433935 3.707138
v -5.000007 -2.433935 3.707137
v -5.000007 -2.433935 1.207137
v -4.500007 -2.433935 1.207139
v -4.500005 0.06606476 3.707138
v -5.000005 0.06606445 3.707137
v -5.000007 -2.433935 3.707137
v -4.500007 -2.433935 3.707138
v -4.500006 0.06606476 1.207139
v -5.000005 0.06606445 1.207137
v -5.000005 0.06606445 3.707137
v -4.500005 0.06606476 3.707138
v 4.249995 4.503564 1.207136
v 4.249996 5.003564 1.207134
v 4.249996 5.003564 3.707134
v 4.249995 4.503564 3.707135
v 1.749995 4.503565 1.207136
v 1.749996 5.003565 1.207135
v 4.249996 5.003564 1.207134
v 4.249995 4.503564 1.207136
v 1.749995 4.503565 3.707135
v 1.749996 5.003565 3.707134
v 1.749996 5.003565 1.207135
v 1.749995 4.503565 1.207136
v 4.249995 4.503564 3.707135
v 4.249996 5.003564 3.707134
v 1.749996 5.003565 3.707134
v 1.749995 4.503565 3.707135
v 4.999999 1.253565 3.332138
v 4.999997 1.253565 0.3321381
v 4.499995 1.253565 0.3321393
v 4.499995 1.253565 3.332139
v 4.999998 -1.246435 3.332138
v 4.999999 1.253565 3.332138
v 4.499995 1.253565 3.332139
v 4.499994 -1.246435 3.332139
v 4.999995 -1.246435 0.3321381
v 4.999998 -1.246435 3.332138
v 4.499994 -1.246435 3.332139
v 4.499994 -1.246435 0.3321393
v 4.499995 1.253565 0.3321393
v 4.999997 1.253565 0.3321381
v 4.999995 -1.246435 0.3321381
v 4.499994 -1.246435 0.3321393
v -4.500007 -4.496435 0.3321405
v -4.500006 1.316065 0.332139
v -4.500005 3.816064 0.332139
v -5.000005 3.816064 0.3321378
v -5.000006 1.316065 0.3321378
v 4.499992 4.503564 0.3321368
v -4.500005 4.503564 0.3321381
v 4.499991 -4.496436 0.3321381
v -5.000005 3.816064 3.332137
v -5.000006 1.316065 3.332137
v -4.500006 1.316065 3.332138
v -4.500005 3.816064 3.332138
v -5.000005 3.816064 0.3321378
v -5.000005 3.816064 3.332137
v -4.500005 3.816064 3.332138
v -4.500005 3.816064 0.332139
v -5.000006 1.316065 3.332137
v -5.000006 1.316065 0.3321378
v -4.500006 1.316065 0.332139
v -4.500006 1.316065 3.332138
v 4.499992 -4.479404 4.082134
v 4.499994 4.520596 4.082134
v -4.500003 4.520596 4.082134
v -2.312505 -4.479403 4.082134
v -4.500005 -4.479404 4.082134
v -5.500003 3.816066 0.3321353
v -5.000003 3.816064 0.3321365
v -5.000004 1.316065 0.3321365
v -5.500004 1.316066 0.3321353
v -5.500003 3.816066 0.3321353
v -5.500004 1.316066 0.3321353
v -5.500004 1.316066 0.01963165
v -5.500003 3.816066 0.01963161
v -5.500004 1.316066 0.3321353
v -5.000004 1.316065 0.3321365
v -5.000004 1.316065 0.01963287
v -5.500004 1.316066 0.01963165
v -5.000003 3.816064 0.3321365
v -5.500003 3.816066 0.3321353
v -5.500003 3.816066 0.01963161
v -5.000003 3.816064 0.01963283
v -5.36352 -1.220751 7.519855
v -5.363523 1.220743 7.519855
v 5.361016 1.220751 7.519852
v 5.361016 -1.220743 7.519852
v -5.36352 -1.220751 6.019855
v -5.363523 1.220753 6.019856
v -5.363523 1.220743 7.519855
v -5.36352 -1.220751 7.519855
v -5.363522 -5.220751 4.019855
v -5.363522 -5.220751 5.519855
v -5.363522 5.220753 5.519856
v -5.363522 5.220753 4.019856
v -5.36352 -1.220751 6.019855
v 5.361016 -1.220743 6.019854
v 5.361016 1.220751 6.019854
v -5.363523 1.220753 6.019856
v 5.361016 1.220751 6.019854
v 5.361016 -1.220743 6.019854
v 5.361016 -1.220743 7.519852
v 5.361016 1.220751 7.519852
v 5.361015 5.220751 4.019855
v 5.361015 5.220751 5.519855
v 5.361018 -5.220752 5.519852
v 5.361018 -5.220752 4.019853
v -5.363522 5.220753 4.019856
v -5.363523 1.220753 6.019856
v 5.361016 1.220751 6.019854
v 5.361015 5.220751 4.019855
v 5.361015 5.220751 5.519855
v 5.361016 1.220751 7.519852
v -5.363523 1.220743 7.519855
v -5.363522 5.220753 5.519856
v -5.363522 5.220753 4.019856
v 5.361015 5.220751 4.019855
v 5.361015 5.220751 5.519855
v -5.363522 5.220753 5.519856
v 5.361018 -5.220752 4.019853
v -5.363522 -5.220751 4.019855
v -5.363522 -5.220751 5.519855
v 5.361018 -5.220752 5.519852
v -5.363522 -5.220751 5.519855
v -5.36352 -1.220751 7.519855
v 5.361016 -1.220743 7.519852
v 5.361018 -5.220752 5.519852
v 5.361018 -5.220752 4.019853
v 5.361016 -1.220743 6.019854
v -5.36352 -1.220751 6.019855
v -5.363522 -5.220751 4.019855
v 3.181798 -3.356524 5.348374
v 3.181798 -3.356524 8.348373
v 3.181793 -4.169024 8.348373
v 3.181793 -4.169024 5.348374
v 3.181793 -4.169024 5.348374
v 3.181793 -4.169024 8.348373
v 3.994298 -4.169024 8.348373
v 3.994298 -4.169024 5.348374
v 3.994298 -4.169024 5.348374
v 3.994298 -4.169024 8.348373
v 3.994298 -3.356523 8.348373
v 3.994298 -3.356523 5.348374
v 3.994298 -3.356523 8.348373
v 3.994298 -4.169024 8.348373
v 3.181793 -4.169024 8.348373
v 3.181798 -3.356524 8.348373
v 3.994298 -3.356523 5.348374
v 3.994298 -3.356523 8.348373
v 3.181798 -3.356524 8.348373
v 3.181798 -3.356524 5.348374
vt 0.4394531 0.8886719
vt 0.4785156 0.9003906
vt 0.4785156 0.8222656
vt 0.4394532 0.7949219
vt 0.5566406 0.8222656
vt 0.6367188 0.7949219
vt 0.6367188 0.7851563
vt 0.3242188 0.7851563
vt 0.3613281 0.7949219
vt 0.5566406 0.9003906
vt 0.6367188 0.9257813
vt 0.3242188 0.7949219
vt 0.3242188 0.9257813
vt 0.4472656 0.9941406
vt 0.5136719 0.9941406
vt 0.3613281 0.8886719
vt 0.005859375 0.7949219
vt 0.1230469 0.7949219
vt 0.005859375 0.7851563
vt 0.005859375 0.9257813
vt 0.1230469 0.8886719
vt 0.3183594 0.7851563
vt 0.2011719 0.7949219
vt 0.3183594 0.7949219
vt 0.2011719 0.8886719
vt 0.3183594 0.9257813
vt 0.1953125 0.9941406
vt 0.1289063 0.9941406
vt 0.9550781 0.7167969
vt 0.6425781 0.7167969
vt 0.6425781 0.8476563
vt 0.9550781 0.8476563
vt 0.9550781 0.7070313
vt 0.6425781 0.7070313
vt 0.6640625 0.8886719
vt 0.640625 0.8613281
vt 0.640625 0.9921875
vt 0.6640625 0.9667969
vt 0.7421875 0.9667969
vt 0.953125 0.9921875
vt 0.7421875 0.8886719
vt 0.953125 0.8613281
vt 0.953125 0.8515625
vt 0.640625 0.8515625
vt 0.4394532 0.8886719
vt 0.4394531 0.7949219
vt 0.4785156 0.8222656
vt 0.4785156 0.9003906
vt 0.3398438 0.9257813
vt 0.5566406 0.8222656
vt 0.6210938 0.7949219
vt 0.5566406 0.9003906
vt 0.6210938 0.9257813
vt 0.4570313 0.9902344
vt 0.5039063 0.9902344
vt 0.3613281 0.8886719
vt 0.3613281 0.7949219
vt 0.3398438 0.7949219
vt 0.2011719 0.7949219
vt 0.2011719 0.8886719
vt 0.3027344 0.9257813
vt 0.3027344 0.7949219
vt 0.02148438 0.9257813
vt 0.1386719 0.9902344
vt 0.1855469 0.9902344
vt 0.1230469 0.8886719
vt 0.02148438 0.7949219
vt 0.1230469 0.7949219
vt 0.65625 0.7167969
vt 0.65625 0.8476563
vt 0.9375 0.8476563
vt 0.9375 0.7167969
vt 0.6640625 0.8886719
vt 0.6640625 0.9667969
vt 0.65625 0.9921875
vt 0.65625 0.8613281
vt 0.9375 0.9921875
vt 0.7421875 0.9667969
vt 0.7421875 0.8886719
vt 0.9375 0.8613281
vt 0.6113281 0.04296875
vt 0.6113281 0.02736044
vt 0.6893692 0.02736044
vt 0.6893692 0.04296875
vt 0.6893697 0.02736044
vt 0.6893697 0.04296875
vt 0.6113281 0.04296875
vt 0.6113281 0.02736044
vt 0.6893692 0.02736044
vt 0.6893692 0.04296875
vt 0.6113281 0.04296875
vt 0.6113281 0.02736044
vt 0.6113281 0.04296875
vt 0.6113281 0.02736044
vt 0.6893697 0.02736044
vt 0.6893697 0.04296875
vt 0.6113281 0.04296875
vt 0.6113281 0.02736044
vt 0.6893697 0.02736044
vt 0.6893697 0.04296875
vt 0.6113281 0.04296875
vt 0.6113281 0.02736044
vt 0.6893697 0.02736044
vt 0.6893697 0.04296875
vt 0.6893697 0.02736044
vt 0.6893697 0.04296875
vt 0.6113281 0.04296875
vt 0.6113281 0.02736044
vt 0.6113281 0.04296875
vt 0.6113281 0.02736044
vt 0.6893697 0.02736044
vt 0.6893697 0.04296875
vt 0.6113281 0.02736042
vt 0.7049778 0.02736042
vt 0.7049778 0.04296874
vt 0.6113281 0.04296874
vt 0.6113281 0.02736045
vt 0.6893693 0.02736044
vt 0.6893693 0.04296874
vt 0.6113281 0.04296876
vt 0.7049778 0.04296874
vt 0.6113281 0.04296874
vt 0.6113281 0.02736042
vt 0.7049778 0.02736042
vt 0.7695313 0.3964844
vt 0.7695313 0.4121094
vt 0.8476563 0.4121094
vt 0.8476562 0.3964844
vt 0.9492188 0.1152344
vt 0.767578 0.1152344
vt 0.6894531 0.1152344
vt 0.6894531 0.09960938
vt 0.7675781 0.09960942
vt 0.6679688 0.3964844
vt 0.6679688 0.1152344
vt 0.9492188 0.3964844
vt 0.6113281 0.02736044
vt 0.6893697 0.02736043
vt 0.6893697 0.04296873
vt 0.6113281 0.04296875
vt 0.704978 0.04296875
vt 0.6113281 0.04296875
vt 0.6113281 0.02736044
vt 0.704978 0.02736044
vt 0.6113281 0.02736042
vt 0.704978 0.02736042
vt 0.704978 0.04296873
vt 0.6113281 0.04296873
vt 0.9492188 0.4160156
vt 0.6679688 0.4160156
vt 0.6679688 0.6972656
vt 0.9492188 0.6289063
vt 0.9492188 0.6972656
vt 0.6113281 0.03009227
vt 0.6113282 0.04296874
vt 0.6757106 0.04296875
vt 0.6757104 0.03009228
vt 0.6113281 0.04296875
vt 0.6826366 0.04296878
vt 0.6826366 0.03405511
vt 0.6113281 0.03405508
vt 0.6199134 0.04296863
vt 0.6199134 0.02923244
vt 0.6113281 0.02923256
vt 0.6113282 0.04296875
vt 0.6210938 0.04296874
vt 0.6210939 0.02734374
vt 0.6113281 0.02734369
vt 0.6113281 0.04296869
vt 0.005859375 0.09765625
vt 0.005859375 0.1796875
vt 0.359375 0.1796875
vt 0.359375 0.09765625
vt 0.2207031 0.1269531
vt 0.1464844 0.1269531
vt 0.1464844 0.171875
vt 0.2207031 0.171875
vt 0.3417969 0.06445313
vt 0.3417969 0.1113281
vt 0.02539063 0.1113281
vt 0.02539063 0.06445313
vt 0.359375 0.1796875
vt 0.005859375 0.1796875
vt 0.005859375 0.09960938
vt 0.359375 0.09960938
vt 0.1464844 0.1269531
vt 0.2207031 0.1269531
vt 0.2207031 0.171875
vt 0.1464844 0.171875
vt 0.02539063 0.06445313
vt 0.02539063 0.1113281
vt 0.3417969 0.1113281
vt 0.3417969 0.06445313
vt 0.359375 0.04882813
vt 0.359375 0.1796875
vt 0.005859375 0.1796875
vt 0.005859375 0.04882813
vt 0.359375 0.1796875
vt 0.359375 0.04882813
vt 0.005859375 0.04882813
vt 0.005859375 0.1796875
vt 0.359375 0.1640625
vt 0.005859375 0.1640625
vt 0.005859375 0.1152344
vt 0.359375 0.1152344
vt 0.005859375 0.1640625
vt 0.359375 0.1640625
vt 0.359375 0.1152344
vt 0.005859375 0.1152344
vt 0.005859375 0.04882813
vt 0.005859375 0.1796875
vt 0.359375 0.1796875
vt 0.359375 0.04882813
vt 0.005859375 0.1796875
vt 0.005859375 0.046875
vt 0.359375 0.046875
vt 0.359375 0.1796875
vt 0.7597656 0.001976174
vt 0.835856 0.001976174
vt 0.835856 0.02343748
vt 0.7597656 0.02343748
vt 0.7597656 0.001976174
vt 0.835856 0.001976174
vt 0.835856 0.02343748
vt 0.7597656 0.02343748
vt 0.7597656 0.001976174
vt 0.835856 0.001976174
vt 0.835856 0.02343748
vt 0.7597656 0.02343748
vt 0.7597425 0.001976307
vt 0.7597425 0.0234375
vt 0.7382813 0.0234375
vt 0.7382813 0.001976307
vt 0.7597656 0.001976174
vt 0.835856 0.001976174
vt 0.835856 0.02343748
vt 0.7597656 0.02343748
vn -1 -4.882812E-07 0
vn -1 -4.882812E-07 0
vn -1 -4.882812E-07 0
vn -1 -4.882812E-07 0
vn -1 2.77039E-07 4.897659E-07
vn -1 2.770391E-07 4.897659E-07
vn -1 1.946637E-07 2.335967E-07
vn -1 1.946637E-07 2.335967E-07
vn -1 1.946637E-07 2.335967E-07
vn -1 4.882812E-07 1.539963E-06
vn -1 4.882812E-07 1.539963E-06
vn -1 0 0
vn -1 3.020297E-07 0
vn -1 3.020297E-07 0
vn -1 3.020297E-07 0
vn -1 1.296128E-07 2.547555E-07
vn 1 -4.882812E-07 0
vn 1 -4.882812E-07 0
vn 1 -4.882812E-07 0
vn 1 -8.675834E-07 -3.396739E-07
vn 1 -8.675834E-07 -3.396739E-07
vn 1 -1.953136E-07 -5.85934E-06
vn 1 -1.953136E-07 -5.85934E-06
vn 1 4.882813E-07 0
vn 1 7.317138E-07 -5.09511E-07
vn 1 7.317137E-07 -5.09511E-07
vn 1 -2.516916E-07 -1.674107E-06
vn 1 -2.516915E-07 -1.674106E-06
vn 0 -1 0
vn 0 -1 0
vn 0 -1 0
vn 0 -1 0
vn 0 -1 0
vn 0 -1 0
vn -8.138028E-07 1 0
vn -8.138028E-07 1 0
vn -8.138028E-07 1 0
vn -8.138028E-07 1 0
vn 0 1 0
vn 0 1 0
vn 0 1 0
vn 0 1 0
vn 0 1 0
vn 0 1 0
vn 1 1.886541E-07 -1.10973E-07
vn 1 1.886542E-07 -1.10973E-07
vn 1 1.886542E-07 -1.10973E-07
vn 1 1.886542E-07 -1.10973E-07
vn 1 0 -1.864868E-06
vn 1 -2.202772E-07 4.510445E-07
vn 1 -2.202772E-07 4.510445E-07
vn 1 2.986937E-07 -1.825351E-07
vn 1 2.986937E-07 -1.825352E-07
vn 1 -2.325149E-07 0
vn 1 -2.325149E-07 0
vn 1 -1.424154E-06 -2.034506E-07
vn 1 -8.877843E-07 -2.915114E-07
vn 1 -8.877844E-07 -2.915114E-07
vn -1 6.254569E-07 3.396741E-07
vn -1 6.254569E-07 3.396741E-07
vn -1 6.254569E-07 3.396741E-07
vn -1 6.254569E-07 3.396741E-07
vn -1 -4.686841E-07 5.095113E-07
vn -1 0 0
vn -1 0 0
vn -1 -4.686841E-07 5.095113E-07
vn -1 -4.686842E-07 5.095113E-07
vn -1 -4.686841E-07 5.095113E-07
vn 0 1 0
vn 0 1 0
vn 0 1 0
vn 0 1 0
vn 0 -1 0
vn 0 -1 0
vn 0 -1 0
vn 0 -1 0
vn 0 -1 -5.71568E-07
vn 0 -1 -5.71568E-07
vn 0 -1 5.307413E-07
vn 0 -1 5.307413E-07
vn -2.441409E-06 0 1
vn -2.441409E-06 0 1
vn -2.441409E-06 0 1
vn -2.441409E-06 0 1
vn -6.10352E-07 1 0
vn -6.10352E-07 1 0
vn -6.103519E-07 1 0
vn -6.103518E-07 1 0
vn 1.220703E-06 0 -1
vn 1.220703E-06 0 -1
vn 1.220703E-06 0 -1
vn 1.220703E-06 0 -1
vn 6.103518E-07 -1 0
vn 6.103518E-07 -1 0
vn 6.103518E-07 -1 0
vn 6.103518E-07 -1 0
vn -1 2.441406E-06 0
vn -1 2.441406E-06 0
vn -1 2.441406E-06 0
vn -1 2.441406E-06 0
vn 2.441412E-07 2.441406E-06 1
vn 2.441412E-07 2.441406E-06 1
vn 2.441412E-07 2.441406E-06 1
vn 2.441412E-07 2.441406E-06 1
vn 1 -2.441406E-06 0
vn 1 -2.441406E-06 0
vn 1 -2.441406E-06 0
vn 1 -2.441406E-06 0
vn -1.220706E-07 -1.220703E-06 -1
vn -1.220706E-07 -1.220703E-06 -1
vn -1.220706E-07 -1.220703E-06 -1
vn -1.220706E-07 -1.220703E-06 -1
vn 7.629358E-07 -1 0
vn 7.629357E-07 -1 0
vn 7.629358E-07 -1 0
vn 7.629358E-07 -1 0
vn -1.220694E-06 0 -1
vn -1.220694E-06 0 -1
vn -1.220694E-06 0 -1
vn -1.220694E-06 0 -1
vn -4.577614E-07 1 0
vn -4.577614E-07 1 0
vn -4.577614E-07 1 0
vn -4.577614E-07 1 0
vn 2.4414E-06 0 1
vn 2.4414E-06 0 1
vn 2.4414E-06 0 1
vn 2.4414E-06 0 1
vn 0 1.835644E-07 1
vn -2.441407E-06 0 1
vn -2.441406E-06 0 1
vn -2.441407E-06 0 1
vn -2.441406E-06 0 1
vn 1.356337E-07 1.331676E-06 1
vn 1.356337E-07 1.331676E-06 1
vn 2.712674E-07 -3.756012E-07 1
vn 1.220703E-06 0 -1
vn 1.220703E-06 0 -1
vn 1.220703E-06 0 -1
vn 1.220703E-06 0 -1
vn 0 -1 0
vn 0 -1 0
vn 0 -1 0
vn 0 -1 0
vn 0 1 0
vn 0 1 0
vn 0 1 0
vn 0 1 0
vn 0 0 -1
vn 0 0 -1
vn 0 0 -1
vn 0 0 -1
vn 0 0 -1
vn -2.441406E-06 0 1
vn -2.441406E-06 0 1
vn -2.441406E-06 0 1
vn -2.441406E-06 0 1
vn -1 2.441407E-07 0
vn -1 2.441407E-07 0
vn -1 2.441407E-07 0
vn -1 2.441407E-07 0
vn -2.441407E-06 -1 0
vn -2.441407E-06 -1 0
vn -2.441407E-06 -1 0
vn -2.441407E-06 -1 0
vn 2.441407E-06 1 0
vn 2.441407E-06 1 0
vn 2.441407E-06 1 0
vn 2.441407E-06 1 0
vn 2.276467E-07 0 1
vn 2.276468E-07 0 1
vn 2.276468E-07 0 1
vn 2.276467E-07 0 1
vn -1 -1.249952E-06 0
vn -1 -1.249953E-06 0
vn -1 -1.249953E-06 0
vn -1 -1.249953E-06 0
vn -1 4.577636E-07 0
vn -1 4.577636E-07 0
vn -1 1.525879E-07 0
vn -1 1.52588E-07 0
vn -1.707351E-07 2.499904E-07 -1
vn -1.707351E-07 2.499904E-07 -1
vn -1.707351E-07 2.499904E-07 -1
vn -1.707352E-07 2.499904E-07 -1
vn 1 0 0
vn 1 0 0
vn 1 0 0
vn 1 0 0
vn 1 1.525879E-07 0
vn 1 1.525879E-07 0
vn 1 4.577626E-07 0
vn 1 4.577626E-07 0
vn -2.524807E-07 -0.4472135 -0.8944273
vn -2.524807E-07 -0.4472135 -0.8944273
vn -2.524807E-07 -0.4472135 -0.8944273
vn -2.524807E-07 -0.4472135 -0.8944273
vn 0 0.4472128 0.8944275
vn 0 0.4472128 0.8944275
vn 0 0.4472128 0.8944275
vn 0 0.4472128 0.8944275
vn 1.70735E-07 1 0
vn 1.707351E-07 1 0
vn 1.70735E-07 1 0
vn 1.707351E-07 1 0
vn 0 -1 0
vn 0 -1 0
vn 0 -1 0
vn 0 -1 0
vn 3.542871E-07 -0.4472132 0.8944274
vn 3.542871E-07 -0.4472132 0.8944274
vn 3.542871E-07 -0.4472132 0.8944274
vn 3.542871E-07 -0.4472132 0.8944274
vn -2.850585E-07 0.4472133 -0.8944273
vn -2.850585E-07 0.4472134 -0.8944273
vn -2.850585E-07 0.4472134 -0.8944273
vn -2.850585E-07 0.4472134 -0.8944273
vn -1 6.760818E-06 0
vn -1 6.760818E-06 0
vn -1 6.760818E-06 0
vn -1 6.760818E-06 0
vn 3.755987E-07 -1 0
vn 3.755987E-07 -1 0
vn 3.755987E-07 -1 0
vn 3.755987E-07 -1 0
vn 1 -7.512019E-07 0
vn 1 -7.512019E-07 0
vn 1 -7.512019E-07 0
vn 1 -7.512019E-07 0
vn 0 0 1
vn 0 0 1
vn 0 0 1
vn 0 0 1
vn -3.75601E-07 1 0
vn -3.75601E-07 1 0
vn -3.75601E-07 1 0
vn -3.75601E-07 1 0
g royale_villagehouses_2_mesh_lod01_0
f 3/3/3 2/2/2 1/1/1
f 4/4/4 3/3/3 1/1/1
f 3/3/3 4/4/4 5/5/5
f 4/4/4 6/6/6 5/5/5
f 7/7/7 6/6/6 4/4/4
f 4/4/4 8/8/8 7/7/7
f 4/4/4 9/9/9 8/8/8
f 10/10/10 5/5/5 6/6/6
f 2/2/2 10/10/10 11/11/11
f 11/11/11 10/10/10 6/6/6
f 8/8/8 9/9/9 12/12/12
f 13/13/13 2/2/2 11/11/11
f 13/13/13 11/11/11 14/14/14
f 11/11/11 15/15/15 14/14/14
f 12/12/12 9/9/9 16/16/16
f 13/13/13 12/12/12 16/16/16
f 16/16/16 1/1/1 2/2/2
f 13/13/13 16/16/16 2/2/2
f 19/19/19 18/18/18 17/17/17
f 20/20/20 17/17/17 18/18/18
f 21/21/21 20/20/20 18/18/18
f 18/18/18 19/19/19 22/22/22
f 23/23/23 18/18/18 22/22/22
f 22/22/22 24/24/24 23/23/23
f 25/25/25 23/23/23 24/24/24
f 26/26/26 25/25/25 24/24/24
f 21/21/21 25/25/25 26/26/26
f 20/20/20 21/21/21 26/26/26
f 20/20/20 26/26/26 27/27/27
f 28/28/28 20/20/20 27/27/27
f 31/31/31 30/30/30 29/29/29
f 32/32/32 31/31/31 29/29/29
f 29/29/29 30/30/30 33/33/33
f 30/30/30 34/34/34 33/33/33
f 37/37/37 36/36/36 35/35/35
f 38/38/38 37/37/37 35/35/35
f 37/37/37 38/38/38 39/39/39
f 40/40/40 37/37/37 39/39/39
f 35/35/35 36/36/36 41/41/41
f 40/40/40 39/39/39 41/41/41
f 36/36/36 42/42/42 41/41/41
f 42/42/42 40/40/40 41/41/41
f 42/42/42 36/36/36 43/43/43
f 36/36/36 44/44/44 43/43/43
f 47/47/47 46/46/46 45/45/45
f 48/48/48 47/47/47 45/45/45
f 49/49/49 48/48/48 45/45/45
f 46/46/46 47/47/47 50/50/50
f 51/51/51 46/46/46 50/50/50
f 51/51/51 50/50/50 52/52/52
f 53/53/53 51/51/51 52/52/52
f 52/52/52 48/48/48 53/53/53
f 53/53/53 48/48/48 49/49/49
f 49/49/49 54/54/54 53/53/53
f 54/54/54 55/55/55 53/53/53
f 56/56/56 49/49/49 45/45/45
f 56/56/56 57/57/57 49/49/49
f 57/57/57 58/58/58 49/49/49
f 61/61/61 60/60/60 59/59/59
f 62/62/62 61/61/61 59/59/59
f 63/63/63 60/60/60 61/61/61
f 63/63/63 61/61/61 64/64/64
f 61/61/61 65/65/65 64/64/64
f 63/63/63 66/66/66 60/60/60
f 66/66/66 63/63/63 67/67/67
f 68/68/68 66/66/66 67/67/67
f 71/71/71 70/70/70 69/69/69
f 72/72/72 71/71/71 69/69/69
f 75/75/75 74/74/74 73/73/73
f 76/76/76 75/75/75 73/73/73
f 75/75/75 77/77/77 74/74/74
f 77/77/77 78/78/78 74/74/74
f 76/76/76 73/73/73 79/79/79
f 78/78/78 77/77/77 79/79/79
f 80/80/80 76/76/76 79/79/79
f 77/77/77 80/80/80 79/79/79
f 83/83/83 82/82/82 81/81/81
f 84/84/84 83/83/83 81/81/81
f 87/87/87 86/86/86 85/85/85
f 88/88/88 87/87/87 85/85/85
f 91/91/91 90/90/90 89/89/89
f 92/92/92 91/91/91 89/89/89
f 95/95/95 94/94/94 93/93/93
f 96/96/96 95/95/95 93/93/93
f 99/99/99 98/98/98 97/97/97
f 100/100/100 99/99/99 97/97/97
f 103/103/103 102/102/102 101/101/101
f 104/104/104 103/103/103 101/101/101
f 107/107/107 106/106/106 105/105/105
f 108/108/108 107/107/107 105/105/105
f 111/111/111 110/110/110 109/109/109
f 112/112/112 111/111/111 109/109/109
f 115/115/115 114/114/114 113/113/113
f 116/116/116 115/115/115 113/113/113
f 119/119/119 118/118/118 117/117/117
f 120/120/120 119/119/119 117/117/117
f 123/123/123 122/122/122 121/121/121
f 124/124/124 123/123/123 121/121/121
f 127/127/127 126/126/126 125/125/125
f 128/128/128 127/127/127 125/125/125
f 128/128/128 125/125/125 129/129/129
f 125/125/125 130/130/130 129/129/129
f 130/130/130 125/125/125 131/131/131
f 130/130/130 131/131/131 132/132/132
f 133/133/133 130/130/130 132/132/132
f 125/125/125 134/134/134 131/131/131
f 135/135/135 131/131/131 134/134/134
f 128/128/128 129/129/129 136/136/136
f 139/139/139 138/138/138 137/137/137
f 140/140/140 139/139/139 137/137/137
f 143/143/143 142/142/142 141/141/141
f 144/144/144 143/143/143 141/141/141
f 147/147/147 146/146/146 145/145/145
f 148/148/148 147/147/147 145/145/145
f 151/151/151 150/150/150 149/149/149
f 149/149/149 152/152/152 151/151/151
f 152/152/152 153/153/153 151/151/151
f 156/156/156 155/155/155 154/154/154
f 157/157/157 156/156/156 154/154/154
f 160/160/160 159/159/159 158/158/158
f 161/161/161 160/160/160 158/158/158
f 164/164/164 163/163/163 162/162/162
f 165/165/165 164/164/164 162/162/162
f 168/168/168 167/167/167 166/166/166
f 169/169/169 168/168/168 166/166/166
f 172/172/172 171/171/171 170/170/170
f 173/173/173 172/172/172 170/170/170
f 176/176/176 175/175/175 174/174/174
f 177/177/177 176/176/176 174/174/174
f 177/177/177 174/174/174 178/178/178
f 179/179/179 177/177/177 178/178/178
f 175/175/175 176/176/176 180/180/180
f 181/181/181 175/175/175 180/180/180
f 184/184/184 183/183/183 182/182/182
f 185/185/185 184/184/184 182/182/182
f 188/188/188 187/187/187 186/186/186
f 189/189/189 188/188/188 186/186/186
f 189/189/189 186/186/186 190/190/190
f 191/191/191 189/189/189 190/190/190
f 187/187/187 188/188/188 192/192/192
f 193/193/193 187/187/187 192/192/192
f 196/196/196 195/195/195 194/194/194
f 197/197/197 196/196/196 194/194/194
f 200/200/200 199/199/199 198/198/198
f 201/201/201 200/200/200 198/198/198
f 204/204/204 203/203/203 202/202/202
f 205/205/205 204/204/204 202/202/202
f 208/208/208 207/207/207 206/206/206
f 209/209/209 208/208/208 206/206/206
f 212/212/212 211/211/211 210/210/210
f 213/213/213 212/212/212 210/210/210
f 216/216/216 215/215/215 214/214/214
f 217/217/217 216/216/216 214/214/214
f 220/220/220 219/219/219 218/218/218
f 221/221/221 220/220/220 218/218/218
f 224/224/224 223/223/223 222/222/222
f 225/225/225 224/224/224 222/222/222
f 228/228/228 227/227/227 226/226/226
f 229/229/229 228/228/228 226/226/226
f 232/232/232 231/231/231 230/230/230
f 233/233/233 232/232/232 230/230/230
f 236/236/236 235/235/235 234/234/234
f 237/237/237 236/236/236 234/234/234
