g royale_three_story_house_green_lod02
v 1.397541 15.00001 5.557509
v 6.586027 7.892018 5.557513
v 1.121765 14.40292 5.557509
v 6.585031 8.818933 5.557513
v 6.586034 7.892012 -5.942487
v 1.391883 14.99999 -5.923085
v 1.121765 14.40291 -5.912635
v 6.585042 8.818928 -5.942487
v -0.9665455 14.40292 -5.911171
v -6.429669 8.819113 -5.942501
v -6.429959 7.891882 -5.942501
v -1.243939 15 -5.923086
v -6.429669 8.819118 5.557498
v -0.9665493 14.40292 5.557509
v -6.429955 7.891886 5.557498
v -1.243939 15.00001 5.557509
v -4.167019 10.58875 -1.118359
v -6.429955 7.891886 5.557498
v -4.167023 10.58875 1.235341
v -6.429959 7.891882 -5.942501
v -0.9665455 14.40292 -5.911171
v -1.458813 13.81625 -1.118359
v -0.9665493 14.40292 5.557509
v -1.458817 13.81625 1.235332
v -4.936963 10.59828 1.235332
v -6.429669 8.819113 -5.942501
v -4.936959 10.59828 -1.11837
v -6.429669 8.819118 5.557498
v -2.234776 13.81902 -1.118369
v -1.243939 15 -5.923086
v -1.243939 15.00001 5.557509
v -2.234787 13.81902 1.235332
v -0.9665493 14.40292 5.557509
v -1.243939 15.00001 5.557509
v 1.397541 15.00001 5.557509
v 1.121765 14.40292 5.557509
v 1.824901 1.187504 4.919709
v 0.8249012 3.312504 4.919707
v 1.824901 3.687504 4.919709
v 0.8249012 0.3125043 4.919707
v 1.824901 5.250004 4.919709
v 4.324901 1.187504 4.919711
v 5.074899 0.3125043 4.919711
v 5.074899 4.291534E-06 4.919711
v -4.925099 2.384186E-06 4.919698
v -0.6750988 0.3125043 4.919707
v 4.324901 3.687504 4.919711
v 4.324901 5.250004 4.919711
v 5.074899 9.750004 4.919711
v 4.324901 7.750004 4.919711
v 2.824901 9.312504 4.919709
v 1.824901 7.750004 4.919709
v 2.824901 11.8125 4.919707
v 1.137401 14.4375 4.919707
v 0.3249012 11.8125 4.919707
v -4.925099 0.3125024 4.919698
v 0.3249012 9.312504 4.919707
v -0.6750988 11.4375 4.919707
v -0.6750988 8.437504 4.919707
v -1.425099 7.750004 4.919707
v -3.925099 7.750004 4.919707
v -2.175099 8.437504 4.919707
v -0.9875988 14.4375 4.919707
v -2.175099 11.4375 4.919707
v -4.925099 9.75 4.919698
v -3.925099 5.250004 4.919707
v -1.425099 5.250004 4.919707
v -0.6750988 3.312504 4.919707
v 5.074904 0.3125024 -5.08029
v 4.324905 0.3125024 -5.08029
v 5.074904 2.384186E-06 -5.08029
v 5.074904 9.75 -5.08029
v 4.324905 3.3125 -5.0803
v -4.925095 4.768372E-07 -5.080303
v 2.824905 0.3125024 -5.080291
v -4.925095 9.75 -5.080303
v 2.824905 3.3125 -5.0803
v -4.925095 0.3125005 -5.080303
v -0.987595 14.4375 -5.080302
v 1.137405 14.4375 -5.080301
v -4.925095 9.75 -5.080303
v -4.925095 1.1875 -4.330303
v -4.925095 0.3125005 -5.080303
v -4.925095 3.687498 -4.330303
v -4.925095 4.999999 -4.330303
v -4.925095 7.499999 -4.330303
v -4.925099 9.75 4.919698
v -4.925095 7.5 -1.830304
v -4.925095 5 -1.830303
v -4.925099 7.375 2.232198
v -4.925099 7.375 3.732198
v -4.925099 0.3125024 4.919698
v -4.925099 4.375 3.732198
v -4.925099 4.375 2.232198
v -4.925095 3.6875 -1.830303
v -4.925095 1.1875 -1.830303
v -4.925099 2.384186E-06 4.919698
v -4.925095 4.768372E-07 -5.080303
v 4.574905 0.3125043 -4.58029
v 4.574901 0.3125062 4.419711
v 4.324905 0.3125024 -4.58029
v 5.074904 9.75 -5.08029
v 5.074904 0.3125024 -5.08029
v 5.074899 0.3125043 4.919711
v 5.074899 9.750004 4.919711
v 5.074904 2.384186E-06 -5.08029
v 5.074899 4.291534E-06 4.919711
v -1.243939 15.00001 5.557509
v -1.243939 15 -5.923086
v 1.391883 14.99999 -5.923085
v 1.397541 15.00001 5.557509
v -0.9665493 14.40292 5.557509
v 1.121765 14.40292 5.557509
v 1.121765 14.40291 -5.912635
v -0.9665455 14.40292 -5.911171
v 6.586027 7.892018 5.557513
v 6.586034 7.892012 -5.942487
v 1.121765 14.40291 -5.912635
v 1.121765 14.40292 5.557509
v 1.121765 14.40291 -5.912635
v 1.391883 14.99999 -5.923085
v -1.243939 15 -5.923086
v -0.9665455 14.40292 -5.911171
v 1.397541 15.00001 5.557509
v 1.391883 14.99999 -5.923085
v 6.585042 8.818928 -5.942487
v 6.585031 8.818933 5.557513
v 6.586034 7.892012 -5.942487
v 6.586027 7.892018 5.557513
v 6.585031 8.818933 5.557513
v 6.585042 8.818928 -5.942487
v -6.429959 7.891882 -5.942501
v -6.429669 8.819113 -5.942501
v -6.429669 8.819118 5.557498
v -6.429955 7.891886 5.557498
vt 0.9790071 0.6422502
vt 0.8117164 0.63068
vt 0.9737457 0.6302693
vt 0.825219 0.6419002
vt 0.7965025 0.6922996
vt 0.9566413 0.7033755
vt 0.9516048 0.6919066
vt 0.8094274 0.7030406
vt 0.9515954 0.6919066
vt 0.8091531 0.7030612
vt 0.7962039 0.6923006
vt 0.9566413 0.7033968
vt 0.825177 0.6419034
vt 0.9737442 0.6302693
vt 0.8116711 0.6306802
vt 0.9790071 0.6422535
vt 0.8345035 0.5509177
vt 0.992927 0.4689745
vt 0.8891324 0.5509177
vt 0.7206935 0.4689746
vt 0.7206935 0.6674591
vt 0.8345035 0.6492494
vt 0.992927 0.6674591
vt 0.8909532 0.6492494
vt 0.8889368 0.6456271
vt 0.7197001 0.6989734
vt 0.8337511 0.6456273
vt 0.9919503 0.6989734
vt 0.833751 0.5462927
vt 0.7197001 0.5095021
vt 0.9919504 0.5095021
vt 0.8889368 0.5462927
vt 0.9304861 0.6412256
vt 0.9257903 0.6302693
vt 0.9790071 0.6302693
vt 0.9727465 0.6412256
vt 0.2148475 0.03907101
vt 0.1835977 0.1054768
vt 0.2148475 0.1171954
vt 0.1835977 0.0117275
vt 0.2148475 0.1660232
vt 0.2929719 0.03907101
vt 0.3164092 0.0117275
vt 0.3164092 0.001961994
vt 0.00391155 0.001961994
vt 0.1367231 0.0117275
vt 0.2929719 0.1171954
vt 0.2929719 0.1660232
vt 0.3164092 0.3066471
vt 0.2929719 0.2441476
vt 0.2460972 0.2929754
vt 0.2148475 0.2441476
vt 0.2460972 0.3710998
vt 0.1933632 0.4531304
vt 0.1679728 0.3710998
vt 0.00391155 0.0117275
vt 0.1679728 0.2929754
vt 0.1367231 0.3593811
vt 0.1367231 0.2656319
vt 0.1132857 0.2441476
vt 0.03516132 0.2441476
vt 0.0898484 0.2656319
vt 0.1269575 0.4531304
vt 0.0898484 0.3593811
vt 0.00391155 0.3066471
vt 0.03516132 0.1660232
vt 0.1132857 0.1660232
vt 0.1367231 0.1054768
vt 0.6289068 0.0117275
vt 0.6523441 0.0117275
vt 0.6289068 0.001961994
vt 0.6289068 0.3066471
vt 0.6523441 0.1054768
vt 0.9414044 0.001961994
vt 0.6992188 0.0117275
vt 0.9414044 0.3066471
vt 0.6992188 0.1054768
vt 0.9414044 0.0117275
vt 0.8183585 0.4531304
vt 0.7519528 0.4531304
vt 0.3925498 0.7617565
vt 0.4159872 0.4941805
vt 0.3925498 0.466837
vt 0.4159872 0.5723048
vt 0.4159872 0.6133202
vt 0.4159872 0.6914446
vt 0.7050475 0.7617565
vt 0.4941117 0.6914446
vt 0.4941117 0.6133202
vt 0.6210639 0.6875384
vt 0.6679385 0.6875384
vt 0.7050475 0.466837
vt 0.6679385 0.5937891
vt 0.6210639 0.5937891
vt 0.4941117 0.5723048
vt 0.4941117 0.4941805
vt 0.7050475 0.4570715
vt 0.3925498 0.4570715
vt 1.960368 0.9623188
vt 1.960368 0.6810709
vt 1.952556 0.9623188
vt 0.6289068 0.3066471
vt 0.6289068 0.0117275
vt 0.3164092 0.0117275
vt 0.3164092 0.3066471
vt 0.6289068 0.001961994
vt 0.3164092 0.001961994
vt 0.992927 0.7165332
vt 0.7206767 0.7165332
vt 0.7206767 0.6687057
vt 0.9929268 0.6687057
vt 0.992927 0.6674591
vt 0.992927 0.7056991
vt 0.7206935 0.705699
vt 0.7206935 0.6674591
vt 0.9880441 0.7028797
vt 0.7158107 0.7028797
vt 0.7158107 0.502574
vt 0.9880441 0.5025742
vt 0.9101186 0.7024118
vt 0.9056167 0.6919066
vt 0.9566413 0.6919066
vt 0.9506385 0.7024117
vt 0.9929268 0.6687057
vt 0.7206767 0.6687057
vt 0.7206767 0.4755553
vt 0.9929268 0.4755553
vt 0.9366252 0.7354435
vt 0.7797346 0.7354435
vt 0.7797346 0.7227228
vt 0.9366252 0.7227228
vt 0.9366252 0.7227228
vt 0.9366252 0.7354458
vt 0.7797079 0.7354458
vt 0.7797079 0.7227228
vn -4.503007E-07 7.541614E-07 1
vn -4.503007E-07 7.541614E-07 1
vn -4.503007E-07 7.541614E-07 1
vn -8.488553E-05 4.594841E-05 1
vn -0.0170956 -0.009763541 -0.9998062
vn -0.0170956 -0.009763541 -0.9998062
vn -0.01723893 -0.009571429 -0.9998056
vn -0.003740911 -4.041429E-06 -0.9999931
vn 0.00554682 -0.0002186847 -0.9999846
vn 0.005736491 -2.455829E-06 -0.9999835
vn 0.005736491 -2.455829E-06 -0.9999835
vn 0.0178508 -0.01176212 -0.9997715
vn -2.095448E-06 -7.532997E-07 1
vn -2.095448E-06 -7.532997E-07 1
vn -2.095448E-06 -7.532997E-07 1
vn -1.420361E-06 -7.929397E-07 1
vn 0.7660466 -0.6427851 1.841469E-06
vn 0.7660466 -0.6427851 1.841469E-06
vn 0.7660466 -0.6427851 1.841469E-06
vn 0.7660441 -0.642788 0
vn 0.7660416 -0.6427909 0.0002880148
vn 0.76605 -0.642781 6.824515E-07
vn 0.76605 -0.642781 6.824515E-07
vn 0.7660471 -0.6427845 1.764567E-06
vn -0.7660798 0.6427454 -2.093587E-06
vn -0.7660798 0.6427454 -2.093587E-06
vn -0.7660798 0.6427454 -2.093587E-06
vn -0.7660846 0.6427398 -3.57078E-07
vn -0.7660757 0.6427505 -3.679619E-06
vn -0.7661735 0.6426337 3.871244E-05
vn -0.7660757 0.6427505 -3.679619E-06
vn -0.7660757 0.6427505 -3.679619E-06
vn 0 0 1
vn 0 0 1
vn 0 0 1
vn 0 0 1
vn -1.907349E-06 0 1
vn -1.907349E-06 0 1
vn -1.907349E-06 0 1
vn -1.907349E-06 0 1
vn -1.907348E-06 0 1
vn -8.975763E-07 -1.282252E-06 1
vn -8.975763E-07 -1.282252E-06 1
vn -1.335143E-06 -4.882801E-06 1
vn 0 -2.441391E-05 1
vn 0 0 1
vn 0 0 1
vn 0 0 1
vn 0 0 1
vn 0 0 1
vn -9.14385E-07 4.571925E-07 1
vn -7.629393E-07 7.324222E-07 1
vn -9.960605E-07 1.017253E-06 1
vn 0 2.906436E-07 1
vn 0 2.906436E-07 1
vn -9.53674E-06 0 1
vn 0 0 1
vn 0 0 1
vn -5.868761E-07 6.402294E-07 1
vn -5.868761E-07 6.402294E-07 1
vn -9.536743E-06 0 1
vn 0 0 1
vn -4.580503E-06 2.290252E-06 1
vn -4.580503E-06 2.290252E-06 1
vn -4.580503E-06 2.290252E-06 1
vn -9.53674E-06 0 1
vn 0 0 1
vn 0 0 1
vn 6.35783E-07 0 -1
vn 6.35783E-07 0 -1
vn 6.35783E-07 0 -1
vn 6.357826E-07 -1.347354E-07 -1
vn 4.000133E-05 -2.966987E-06 -1
vn 1.28746E-06 0 -1
vn 3.178915E-07 3.865536E-05 -1
vn 3.271952E-07 -1.043113E-07 -1
vn 3.271952E-07 -1.043113E-07 -1
vn 3.271952E-07 -1.043113E-07 -1
vn 4.487879E-07 -1.531863E-06 -1
vn 4.487879E-07 -1.531863E-06 -1
vn -1 0 -6.736773E-07
vn -1 0 -6.736773E-07
vn -1 0 -6.736773E-07
vn -1 0 2.03451E-06
vn -1 0 9.688121E-07
vn -1 -1.695425E-06 0
vn -1 3.139368E-06 -2.336274E-06
vn -1 0 -6.781682E-07
vn -1 3.139368E-06 -2.336274E-06
vn -1 3.139368E-06 -2.336274E-06
vn -1 0 0
vn -1 0 -5.086263E-07
vn -1 0 0
vn -1 -5.586446E-07 -9.613884E-07
vn -1 0 -5.086263E-07
vn -1 0 -5.086263E-07
vn -1 0 -3.814697E-07
vn -1 0 -3.814697E-07
vn -7.629393E-06 1 -2.119308E-07
vn -7.629393E-06 1 -2.119308E-07
vn -7.629393E-06 1 -2.119308E-07
vn 1 0 5.845853E-07
vn 1 0 5.845853E-07
vn 1 0 5.845853E-07
vn 1 0 5.845853E-07
vn 1 0 5.722046E-07
vn 1 0 5.722046E-07
vn 2.04629E-06 1 -9.973547E-07
vn -9.877743E-05 1 0.0001015569
vn 2.04629E-06 1 -9.973547E-07
vn 2.04629E-06 1 -9.973547E-07
vn -3.185323E-06 -1 5.820451E-07
vn -3.185323E-06 -1 5.820451E-07
vn 0.0002182539 -1 9.232501E-05
vn 0.0002557234 -1 0.0001258717
vn -0.7659881 -0.6428548 0
vn -0.7659881 -0.6428548 0
vn -0.7659295 -0.6429246 -0.0002215862
vn -0.7659881 -0.6428548 0
vn -0.0004244651 -0.0189366 -0.9998206
vn -0.0003096766 -0.01872608 -0.9998247
vn -0.0002145602 -0.01861814 -0.9998267
vn -0.0002692023 -0.01844151 -0.9998299
vn 0.7658128 0.6430635 -0.0001887377
vn 0.7658128 0.6430635 -0.0001887377
vn 0.7658128 0.6430635 -0.0001887377
vn 0.7657982 0.6430809 -0.0002818631
vn 0.9999994 0.00107208 8.05201E-07
vn 0.9999994 0.00107208 8.05201E-07
vn 0.9999995 0.0009789413 -2.194282E-05
vn 0.9999994 0.00107208 8.05201E-07
vn -1 0.0003106124 1.8585E-07
vn -1 0.0003106124 1.8585E-07
vn -1 0.0003106124 1.8585E-07
vn -1 0.0003106124 1.8585E-07
g royale_three_story_house_green_lod02_0
f 3/3/3 2/2/2 1/1/1
f 4/4/4 1/1/1 2/2/2
f 7/7/7 6/6/6 5/5/5
f 8/8/8 5/5/5 6/6/6
f 11/11/11 10/10/10 9/9/9
f 12/12/12 9/9/9 10/10/10
f 15/15/15 14/14/14 13/13/13
f 16/16/16 13/13/13 14/14/14
f 19/19/19 18/18/18 17/17/17
f 18/18/18 20/20/20 17/17/17
f 20/20/20 21/21/21 17/17/17
f 21/21/21 22/22/22 17/17/17
f 21/21/21 23/23/23 22/22/22
f 24/24/24 22/22/22 23/23/23
f 18/18/18 19/19/19 24/24/24
f 23/23/23 18/18/18 24/24/24
f 27/27/27 26/26/26 25/25/25
f 28/28/28 25/25/25 26/26/26
f 26/26/26 27/27/27 29/29/29
f 30/30/30 26/26/26 29/29/29
f 30/30/30 29/29/29 31/31/31
f 25/25/25 28/28/28 31/31/31
f 32/32/32 31/31/31 29/29/29
f 32/32/32 25/25/25 31/31/31
f 35/35/35 34/34/34 33/33/33
f 36/36/36 35/35/35 33/33/33
f 39/39/39 38/38/38 37/37/37
f 40/40/40 37/37/37 38/38/38
f 39/39/39 41/41/41 38/38/38
f 37/37/37 40/40/40 42/42/42
f 43/43/43 42/42/42 40/40/40
f 44/44/44 43/43/43 40/40/40
f 45/45/45 44/44/44 40/40/40
f 46/46/46 45/45/45 40/40/40
f 47/47/47 42/42/42 43/43/43
f 47/47/47 43/43/43 48/48/48
f 48/48/48 41/41/41 39/39/39
f 47/47/47 48/48/48 39/39/39
f 49/49/49 48/48/48 43/43/43
f 48/48/48 49/49/49 50/50/50
f 49/49/49 51/51/51 50/50/50
f 51/51/51 52/52/52 50/50/50
f 53/53/53 51/51/51 49/49/49
f 54/54/54 53/53/53 49/49/49
f 55/55/55 53/53/53 54/54/54
f 45/45/45 46/46/46 56/56/56
f 51/51/51 57/57/57 52/52/52
f 55/55/55 58/58/58 57/57/57
f 55/55/55 54/54/54 58/58/58
f 59/59/59 57/57/57 58/58/58
f 59/59/59 52/52/52 57/57/57
f 59/59/59 60/60/60 52/52/52
f 60/60/60 59/59/59 61/61/61
f 62/62/62 61/61/61 59/59/59
f 54/54/54 63/63/63 58/58/58
f 64/64/64 58/58/58 63/63/63
f 64/64/64 63/63/63 65/65/65
f 65/65/65 61/61/61 62/62/62
f 64/64/64 65/65/65 62/62/62
f 56/56/56 66/66/66 65/65/65
f 61/61/61 65/65/65 66/66/66
f 67/67/67 66/66/66 56/56/56
f 52/52/52 60/60/60 67/67/67
f 46/46/46 67/67/67 56/56/56
f 46/46/46 68/68/68 67/67/67
f 68/68/68 38/38/38 67/67/67
f 38/38/38 41/41/41 67/67/67
f 41/41/41 52/52/52 67/67/67
f 71/71/71 70/70/70 69/69/69
f 69/69/69 70/70/70 72/72/72
f 73/73/73 72/72/72 70/70/70
f 71/71/71 74/74/74 70/70/70
f 75/75/75 70/70/70 74/74/74
f 72/72/72 73/73/73 76/76/76
f 77/77/77 76/76/76 73/73/73
f 75/75/75 74/74/74 77/77/77
f 76/76/76 77/77/77 78/78/78
f 74/74/74 78/78/78 77/77/77
f 79/79/79 72/72/72 76/76/76
f 80/80/80 72/72/72 79/79/79
f 83/83/83 82/82/82 81/81/81
f 84/84/84 81/81/81 82/82/82
f 84/84/84 85/85/85 81/81/81
f 85/85/85 86/86/86 81/81/81
f 81/81/81 86/86/86 87/87/87
f 88/88/88 87/87/87 86/86/86
f 88/88/88 89/89/89 87/87/87
f 85/85/85 84/84/84 89/89/89
f 90/90/90 87/87/87 89/89/89
f 91/91/91 87/87/87 90/90/90
f 87/87/87 91/91/91 92/92/92
f 93/93/93 92/92/92 91/91/91
f 92/92/92 93/93/93 94/94/94
f 90/90/90 89/89/89 94/94/94
f 94/94/94 95/95/95 92/92/92
f 89/89/89 95/95/95 94/94/94
f 84/84/84 95/95/95 89/89/89
f 96/96/96 92/92/92 95/95/95
f 92/92/92 96/96/96 83/83/83
f 82/82/82 83/83/83 96/96/96
f 92/92/92 83/83/83 97/97/97
f 83/83/83 98/98/98 97/97/97
f 101/101/101 100/100/100 99/99/99
f 104/104/104 103/103/103 102/102/102
f 105/105/105 104/104/104 102/102/102
f 103/103/103 104/104/104 106/106/106
f 104/104/104 107/107/107 106/106/106
f 110/110/110 109/109/109 108/108/108
f 111/111/111 110/110/110 108/108/108
f 114/114/114 113/113/113 112/112/112
f 115/115/115 114/114/114 112/112/112
f 118/118/118 117/117/117 116/116/116
f 119/119/119 118/118/118 116/116/116
f 122/122/122 121/121/121 120/120/120
f 123/123/123 122/122/122 120/120/120
f 126/126/126 125/125/125 124/124/124
f 127/127/127 126/126/126 124/124/124
f 130/130/130 129/129/129 128/128/128
f 131/131/131 130/130/130 128/128/128
f 134/134/134 133/133/133 132/132/132
f 135/135/135 134/134/134 132/132/132
