g rp_arms_mesh
v -0.5000252 0.1230783 0.7497164
v -0.2500242 0.1230782 0.7497165
v -0.2500246 0.1230785 1.499716
v -0.5000255 0.1230786 1.499716
v -0.5000253 -0.126922 0.7497165
v -0.5000256 -0.1269218 1.499716
v -0.2500247 -0.1269219 1.499716
v -0.2500244 -0.1269222 0.7497166
v -0.5000252 0.1230783 0.7497164
v -0.5000253 -0.126922 0.7497165
v -0.2500244 -0.1269222 0.7497166
v -0.2500242 0.1230782 0.7497165
v -0.2500242 0.1230782 0.7497165
v -0.2500244 -0.1269222 0.7497166
v -0.2500247 -0.1269219 1.499716
v -0.2500246 0.1230785 1.499716
v -0.2500246 0.1230785 1.499716
v -0.2500247 -0.1269219 1.499716
v -0.5000256 -0.1269218 1.499716
v -0.5000255 0.1230786 1.499716
v -0.5000255 0.1230786 1.499716
v -0.5000256 -0.1269218 1.499716
v -0.5000253 -0.126922 0.7497165
v -0.5000252 0.1230783 0.7497164
v 0.4999751 -0.1269199 0.7497065
v 0.249974 -0.1269184 0.7497064
v 0.2499736 -0.1269182 1.499706
v 0.4999747 -0.1269197 1.499706
v 0.4999764 0.1230804 0.7497064
v 0.4999761 0.1230807 1.499706
v 0.2499752 0.1230822 1.499706
v 0.2499755 0.1230819 0.7497063
v 0.4999751 -0.1269199 0.7497065
v 0.4999764 0.1230804 0.7497064
v 0.2499755 0.1230819 0.7497063
v 0.249974 -0.1269184 0.7497064
v 0.249974 -0.1269184 0.7497064
v 0.2499755 0.1230819 0.7497063
v 0.2499752 0.1230822 1.499706
v 0.2499736 -0.1269182 1.499706
v 0.2499736 -0.1269182 1.499706
v 0.2499752 0.1230822 1.499706
v 0.4999761 0.1230807 1.499706
v 0.4999747 -0.1269197 1.499706
v 0.4999747 -0.1269197 1.499706
v 0.4999761 0.1230807 1.499706
v 0.4999764 0.1230804 0.7497064
v 0.4999751 -0.1269199 0.7497065
vt 0.7528891 0.6444821
vt 0.7490007 0.6444821
vt 0.7490007 0.6561904
vt 0.7528891 0.6561904
vt 0.7412183 0.6444944
vt 0.7412183 0.6561828
vt 0.7450942 0.6561828
vt 0.7450942 0.6444944
vt 0.7451187 0.6600834
vt 0.7451187 0.6561971
vt 0.7489951 0.6561971
vt 0.7489951 0.6600834
vt 0.7489889 0.6444889
vt 0.745109 0.6444889
vt 0.745109 0.6561869
vt 0.7489889 0.6561869
vt 0.7412164 0.66009
vt 0.7412164 0.6562011
vt 0.7450967 0.6562011
vt 0.7450967 0.66009
vt 0.7373225 0.6561834
vt 0.741201 0.6561834
vt 0.741201 0.6444809
vt 0.7373225 0.6444809
vt 0.7412183 0.6444794
vt 0.7450763 0.6444794
vt 0.7450763 0.656176
vt 0.7412183 0.656176
vt 0.7528475 0.6445116
vt 0.7528475 0.656109
vt 0.7490321 0.656109
vt 0.7490321 0.6445116
vt 0.7451187 0.6561971
vt 0.7451187 0.6600834
vt 0.7489951 0.6600834
vt 0.7489951 0.6561971
vt 0.745109 0.6444889
vt 0.7489889 0.6444889
vt 0.7489889 0.6561869
vt 0.745109 0.6561869
vt 0.7412164 0.6562011
vt 0.7412164 0.66009
vt 0.7450967 0.66009
vt 0.7450967 0.6562011
vt 0.741201 0.6561834
vt 0.7373225 0.6561834
vt 0.7373225 0.6444809
vt 0.741201 0.6444809
vn 3.051748E-07 1 -3.560385E-07
vn 3.051749E-07 1 -3.560386E-07
vn 3.051748E-07 1 -3.560385E-07
vn 3.051748E-07 1 -3.560385E-07
vn -4.95909E-07 -1 3.178915E-07
vn -4.959091E-07 -1 3.178915E-07
vn -4.95909E-07 -1 3.178915E-07
vn -4.959091E-07 -1 3.178915E-07
vn 4.577618E-07 -4.577633E-07 -1
vn 4.577618E-07 -4.577633E-07 -1
vn 4.577618E-07 -4.577633E-07 -1
vn 4.577618E-07 -4.577633E-07 -1
vn 1 -4.959097E-07 4.704799E-07
vn 1 -4.959097E-07 4.704799E-07
vn 1 -4.959097E-07 4.704799E-07
vn 1 -4.959097E-07 4.704799E-07
vn -6.103494E-07 0 1
vn -6.103493E-07 0 1
vn -6.103493E-07 0 1
vn -6.103494E-07 0 1
vn -1 4.57763E-07 -4.577641E-07
vn -1 4.57763E-07 -4.577641E-07
vn -1 4.57763E-07 -4.577641E-07
vn -1 4.57763E-07 -4.577641E-07
vn -6.027197E-06 -1 3.17889E-07
vn -6.027196E-06 -1 3.17889E-07
vn -6.027196E-06 -1 3.17889E-07
vn -6.027197E-06 -1 3.17889E-07
vn 5.950907E-06 1 -4.068986E-07
vn 5.950906E-06 1 -4.068986E-07
vn 5.950906E-06 1 -4.068986E-07
vn 5.950906E-06 1 -4.068986E-07
vn 4.577592E-07 -4.577658E-07 -1
vn 4.577592E-07 -4.577658E-07 -1
vn 4.577592E-07 -4.577659E-07 -1
vn 4.577592E-07 -4.577659E-07 -1
vn -1 6.179802E-06 -4.831975E-07
vn -1 6.179802E-06 -4.831975E-07
vn -1 6.179802E-06 -4.831975E-07
vn -1 6.179802E-06 -4.831975E-07
vn -3.051727E-07 3.051771E-07 1
vn -3.051727E-07 3.051771E-07 1
vn -3.051727E-07 3.051771E-07 1
vn -3.051727E-07 3.051771E-07 1
vn 1 -5.493156E-06 4.069032E-07
vn 1 -5.493157E-06 4.069032E-07
vn 1 -5.493156E-06 4.069032E-07
vn 1 -5.493156E-06 4.069032E-07
g rp_arms_mesh_0
f 3/3/3 2/2/2 1/1/1
f 4/4/4 3/3/3 1/1/1
f 7/7/7 6/6/6 5/5/5
f 8/8/8 7/7/7 5/5/5
f 11/11/11 10/10/10 9/9/9
f 12/12/12 11/11/11 9/9/9
f 15/15/15 14/14/14 13/13/13
f 16/16/16 15/15/15 13/13/13
f 19/19/19 18/18/18 17/17/17
f 20/20/20 19/19/19 17/17/17
f 23/23/23 22/22/22 21/21/21
f 24/24/24 23/23/23 21/21/21
f 27/27/27 26/26/26 25/25/25
f 28/28/28 27/27/27 25/25/25
f 31/31/31 30/30/30 29/29/29
f 32/32/32 31/31/31 29/29/29
f 35/35/35 34/34/34 33/33/33
f 36/36/36 35/35/35 33/33/33
f 39/39/39 38/38/38 37/37/37
f 40/40/40 39/39/39 37/37/37
f 43/43/43 42/42/42 41/41/41
f 44/44/44 43/43/43 41/41/41
f 47/47/47 46/46/46 45/45/45
f 48/48/48 47/47/47 45/45/45
