g sharp_fans_rocket
v 0.03234544 -0.01383334 0.04382721
v -0.05065458 -0.01383334 -0.03915067
v -0.05065458 -0.01383334 0.04382721
v 0.03234544 -0.01383334 -0.03915067
v 0.03234544 0.01383274 0.04382721
v -0.05065458 0.01383274 -0.03915067
v 0.03234544 0.01383274 -0.03915067
v -0.05065458 0.01383274 0.04382721
v -0.05065458 0.01383274 -0.03915067
v -0.05065458 -0.01383334 0.04382721
v -0.05065458 -0.01383334 -0.03915067
v -0.05065458 0.01383274 0.04382721
v 0.03234544 0.01383274 0.04382721
v 0.03234544 -0.01383334 -0.03915067
v 0.03234544 -0.01383334 0.04382721
v 0.03234544 0.01383274 -0.03915067
v 0.03234544 0.01383274 0.04382721
v -0.05065458 -0.01383334 0.04382721
v -0.05065458 0.01383274 0.04382721
v 0.03234544 -0.01383334 0.04382721
v -0.05065458 0.01383274 -0.03915067
v 0.03234544 -0.01383334 -0.03915067
v 0.03234544 0.01383274 -0.03915067
v -0.05065458 -0.01383334 -0.03915067
v -0.0322101 -0.01383338 0.04384935
v 0.01390102 -0.0138334 0.3666272
v 0.01390102 -0.01383338 0.04384935
v -0.0322101 -0.0138334 0.3666272
v -0.0322101 0.01383332 0.04384935
v 0.01390102 0.01383331 0.3666272
v -0.0322101 0.01383331 0.3666272
v 0.01390102 0.01383332 0.04384935
v -0.0322101 -0.01383338 0.04384935
v 0.01390102 0.01383332 0.04384935
v -0.0322101 0.01383332 0.04384935
v 0.01390102 -0.01383338 0.04384935
v 0.01390102 -0.01383338 0.04384935
v 0.01390102 0.01383331 0.3666272
v 0.01390102 0.01383332 0.04384935
v 0.01390102 -0.0138334 0.3666272
v 0.01390102 -0.0138334 0.3666272
v -0.0322101 0.01383331 0.3666272
v 0.01390102 0.01383331 0.3666272
v -0.0322101 -0.0138334 0.3666272
v -0.0322101 -0.0138334 0.3666272
v -0.0322101 0.01383332 0.04384935
v -0.0322101 0.01383331 0.3666272
v -0.0322101 -0.01383338 0.04384935
v -0.05059028 -0.01383338 -0.02084203
v -0.3733681 -0.0138334 0.02526915
v -0.05059028 -0.01383338 0.02526909
v -0.3733681 -0.0138334 -0.02084197
v -0.05059028 0.01383332 -0.02084203
v -0.3733681 0.01383331 0.02526915
v -0.3733681 0.01383331 -0.02084197
v -0.05059028 0.01383332 0.02526909
v -0.05059028 -0.01383338 -0.02084203
v -0.05059028 0.01383332 0.02526909
v -0.05059028 0.01383332 -0.02084203
v -0.05059028 -0.01383338 0.02526909
v -0.05059028 -0.01383338 0.02526909
v -0.3733681 0.01383331 0.02526915
v -0.05059028 0.01383332 0.02526909
v -0.3733681 -0.0138334 0.02526915
v -0.3733681 -0.0138334 0.02526915
v -0.3733681 0.01383331 -0.02084197
v -0.3733681 0.01383331 0.02526915
v -0.3733681 -0.0138334 -0.02084197
v -0.3733681 -0.0138334 -0.02084197
v -0.05059028 0.01383332 -0.02084203
v -0.3733681 0.01383331 -0.02084197
v -0.05059028 -0.01383338 -0.02084203
v -0.05188572 -0.01214433 0.0177865
v -0.2433349 -0.01214434 0.2817163
v -0.01876453 -0.01214433 0.04986799
v -0.2764561 -0.01214434 0.2496348
v -0.05188572 0.01214426 0.0177865
v -0.2433349 0.01214425 0.2817163
v -0.2764561 0.01214425 0.2496348
v -0.01876453 0.01214426 0.04986799
v -0.05188572 -0.01214433 0.0177865
v -0.01876453 0.01214426 0.04986799
v -0.05188572 0.01214426 0.0177865
v -0.01876453 -0.01214433 0.04986799
v -0.01876453 -0.01214433 0.04986799
v -0.2433349 0.01214425 0.2817163
v -0.01876453 0.01214426 0.04986799
v -0.2433349 -0.01214434 0.2817163
v -0.2433349 -0.01214434 0.2817163
v -0.2764561 0.01214425 0.2496348
v -0.2433349 0.01214425 0.2817163
v -0.2764561 -0.01214434 0.2496348
v -0.2764561 -0.01214434 0.2496348
v -0.05188572 0.01214426 0.0177865
v -0.2764561 0.01214425 0.2496348
v -0.05188572 -0.01214433 0.0177865
v 0.0001355978 -0.01214433 0.05001571
v 0.257806 -0.01214434 0.2498099
v 0.0332602 -0.01214432 0.01793773
v 0.2246814 -0.01214434 0.2818879
v 0.0001356006 0.01214426 0.05001571
v 0.257806 0.01214425 0.2498099
v 0.2246814 0.01214425 0.2818879
v 0.0332602 0.01214426 0.01793773
v 0.0001355978 -0.01214433 0.05001571
v 0.0332602 0.01214426 0.01793773
v 0.0001356006 0.01214426 0.05001571
v 0.0332602 -0.01214432 0.01793773
v 0.0332602 -0.01214432 0.01793773
v 0.257806 0.01214425 0.2498099
v 0.0332602 0.01214426 0.01793773
v 0.257806 -0.01214434 0.2498099
v 0.257806 -0.01214434 0.2498099
v 0.2246814 0.01214425 0.2818879
v 0.257806 0.01214425 0.2498099
v 0.2246814 -0.01214434 0.2818879
v 0.2246814 -0.01214434 0.2818879
v 0.0001356006 0.01214426 0.05001571
v 0.2246814 0.01214425 0.2818879
v 0.0001355978 -0.01214433 0.05001571
v 0.03239709 -0.01383338 0.02533348
v 0.3551749 -0.0138334 -0.02077765
v 0.03239709 -0.01383338 -0.02077764
v 0.3551749 -0.0138334 0.02533347
v 0.0323971 0.01383332 0.02533348
v 0.3551749 0.01383331 -0.02077765
v 0.3551749 0.01383331 0.02533347
v 0.0323971 0.01383332 -0.02077764
v 0.03239709 -0.01383338 0.02533348
v 0.0323971 0.01383332 -0.02077764
v 0.0323971 0.01383332 0.02533348
v 0.03239709 -0.01383338 -0.02077764
v 0.03239709 -0.01383338 -0.02077764
v 0.3551749 0.01383331 -0.02077765
v 0.0323971 0.01383332 -0.02077764
v 0.3551749 -0.0138334 -0.02077765
v 0.3551749 -0.0138334 -0.02077765
v 0.3551749 0.01383331 0.02533347
v 0.3551749 0.01383331 -0.02077765
v 0.3551749 -0.0138334 0.02533347
v 0.3551749 -0.0138334 0.02533347
v 0.0323971 0.01383332 0.02533348
v 0.3551749 0.01383331 0.02533347
v 0.03239709 -0.01383338 0.02533348
v 0.2996036 -0.004341692 0.01530226
v -0.009242082 -0.004341692 0.01530226
v 0.2074108 -0.004341728 0.2319552
v -0.009242082 0.004880533 0.01530226
v 0.2996036 0.004880533 0.01530226
v 0.2074108 0.004880497 0.2319552
v 0.2074108 -0.004341728 0.2319552
v 0.2996036 0.004880533 0.01530226
v 0.2996036 -0.004341692 0.01530226
v 0.2074108 0.004880497 0.2319552
v -0.225895 -0.004341728 0.2319552
v -0.009242082 -0.004341692 0.01530226
v -0.3180877 -0.004341692 0.01530228
v -0.009242082 0.004880533 0.01530226
v -0.225895 0.004880497 0.2319552
v -0.3180877 0.004880533 0.01530228
v -0.3180877 -0.004341692 0.01530228
v -0.225895 0.004880497 0.2319552
v -0.225895 -0.004341728 0.2319552
v -0.3180877 0.004880533 0.01530228
v -0.009242082 -0.004341742 0.3195383
v -0.009242082 -0.004341693 0.01530228
v -0.225895 -0.004341728 0.2319552
v -0.009242082 0.004880533 0.01530228
v -0.009242082 0.004880482 0.3195383
v -0.225895 0.004880497 0.2319552
v -0.225895 -0.004341728 0.2319552
v -0.009242082 0.004880482 0.3195383
v -0.009242082 -0.004341742 0.3195383
v -0.225895 0.004880497 0.2319552
v 0.2074108 -0.004341728 0.2319552
v -0.009242082 -0.004341693 0.01530226
v -0.009242082 -0.004341742 0.3195383
v -0.009242082 0.004880533 0.01530226
v 0.2074108 0.004880497 0.2319552
v -0.009242082 0.004880482 0.3195383
v -0.009242082 -0.004341742 0.3195383
v 0.2074108 0.004880497 0.2319552
v 0.2074108 -0.004341728 0.2319552
v -0.009242082 0.004880482 0.3195383
vt 0.375 0.140625
vt 0.4453125 0.0703125
vt 0.375 0.0703125
vt 0.4453125 0.140625
vt 0.375 0.140625
vt 0.4453125 0.0703125
vt 0.375 0.0703125
vt 0.4453125 0.140625
vt 0.4609375 0.046875
vt 0.5390625 0.0234375
vt 0.4609375 0.0234375
vt 0.5390625 0.046875
vt 0.6171875 0.046875
vt 0.703125 0.0234375
vt 0.6171875 0.0234375
vt 0.703125 0.046875
vt 0.6171875 0.046875
vt 0.5390625 0.0234375
vt 0.5390625 0.046875
vt 0.6171875 0.0234375
vt 0.4609375 0.046875
vt 0.375 0.0234375
vt 0.375 0.046875
vt 0.4609375 0.0234375
vt 0.5703125 0.140625
vt 0.8359375 0.1015625
vt 0.5703125 0.1015625
vt 0.8359375 0.140625
vt 0.5703125 0.1015625
vt 0.8359375 0.140625
vt 0.8359375 0.1015625
vt 0.5703125 0.140625
vt 0.125 0.21875
vt 0.1796875 0.1953125
vt 0.125 0.1953125
vt 0.1796875 0.21875
vt 0.140625 0.21875
vt 0.3984375 0.1953125
vt 0.140625 0.1953125
vt 0.3984375 0.21875
vt 0.4375 0.234375
vt 0.390625 0.2578125
vt 0.4375 0.2578125
vt 0.390625 0.234375
vt 0.421875 0.3125
vt 0.125 0.3359375
vt 0.421875 0.3359375
vt 0.125 0.3125
vt 0.5703125 0.140625
vt 0.8359375 0.1015625
vt 0.5703125 0.1015625
vt 0.8359375 0.140625
vt 0.5703125 0.1015625
vt 0.8359375 0.140625
vt 0.8359375 0.1015625
vt 0.5703125 0.140625
vt 0.125 0.21875
vt 0.1796875 0.1953125
vt 0.125 0.1953125
vt 0.1796875 0.21875
vt 0.140625 0.21875
vt 0.3984375 0.1953125
vt 0.140625 0.1953125
vt 0.3984375 0.21875
vt 0.4375 0.234375
vt 0.390625 0.2578125
vt 0.4375 0.2578125
vt 0.390625 0.234375
vt 0.421875 0.3125
vt 0.125 0.3359375
vt 0.421875 0.3359375
vt 0.125 0.3125
vt 0.5703125 0.140625
vt 0.8359375 0.1015625
vt 0.5703125 0.1015625
vt 0.8359375 0.140625
vt 0.5703125 0.1015625
vt 0.8359375 0.140625
vt 0.8359375 0.1015625
vt 0.5703125 0.140625
vt 0.125 0.21875
vt 0.1796875 0.1953125
vt 0.125 0.1953125
vt 0.1796875 0.21875
vt 0.140625 0.21875
vt 0.3984375 0.1953125
vt 0.140625 0.1953125
vt 0.3984375 0.21875
vt 0.4375 0.234375
vt 0.390625 0.2578125
vt 0.4375 0.2578125
vt 0.390625 0.234375
vt 0.421875 0.3125
vt 0.125 0.3359375
vt 0.421875 0.3359375
vt 0.125 0.3125
vt 0.5703125 0.140625
vt 0.8359375 0.1015625
vt 0.5703125 0.1015625
vt 0.8359375 0.140625
vt 0.5703125 0.1015625
vt 0.8359375 0.140625
vt 0.8359375 0.1015625
vt 0.5703125 0.140625
vt 0.125 0.21875
vt 0.1796875 0.1953125
vt 0.125 0.1953125
vt 0.1796875 0.21875
vt 0.140625 0.21875
vt 0.3984375 0.1953125
vt 0.140625 0.1953125
vt 0.3984375 0.21875
vt 0.4375 0.234375
vt 0.390625 0.2578125
vt 0.4375 0.2578125
vt 0.390625 0.234375
vt 0.421875 0.3125
vt 0.125 0.3359375
vt 0.421875 0.3359375
vt 0.125 0.3125
vt 0.5703125 0.140625
vt 0.8359375 0.1015625
vt 0.5703125 0.1015625
vt 0.8359375 0.140625
vt 0.5703125 0.1015625
vt 0.8359375 0.140625
vt 0.8359375 0.1015625
vt 0.5703125 0.140625
vt 0.125 0.21875
vt 0.1796875 0.1953125
vt 0.125 0.1953125
vt 0.1796875 0.21875
vt 0.140625 0.21875
vt 0.3984375 0.1953125
vt 0.140625 0.1953125
vt 0.3984375 0.21875
vt 0.4375 0.234375
vt 0.390625 0.2578125
vt 0.4375 0.2578125
vt 0.390625 0.234375
vt 0.421875 0.3125
vt 0.125 0.3359375
vt 0.421875 0.3359375
vt 0.125 0.3125
vt 0.1243406 0.359375
vt 0.2414937 0.6484375
vt 0.3664594 0.359375
vt 0.2414937 0.6484375
vt 0.1243406 0.359375
vt 0.3664594 0.359375
vt 0.3664938 0.3515625
vt 0.1243406 0.359375
vt 0.1243062 0.3515625
vt 0.3664594 0.359375
vt 0.4155255 0.703125
vt 0.532713 0.9921875
vt 0.657713 0.703125
vt 0.532713 0.9921875
vt 0.4155255 0.703125
vt 0.657713 0.703125
vt 0.657713 0.7109375
vt 0.4155255 0.703125
vt 0.4155255 0.7109375
vt 0.657713 0.703125
vt 0.7413203 0.359375
vt 0.8487422 0.65625
vt 0.9717891 0.359375
vt 0.8487422 0.65625
vt 0.7413203 0.359375
vt 0.9717891 0.359375
vt 0.9717766 0.3515625
vt 0.7413203 0.359375
vt 0.7414627 0.3515625
vt 0.9717891 0.359375
vt 0.4235841 0.359375
vt 0.5405104 0.6484375
vt 0.6652492 0.359375
vt 0.5405104 0.6484375
vt 0.4235841 0.359375
vt 0.6652492 0.359375
vt 0.6652619 0.351763
vt 0.4235841 0.359375
vt 0.423608 0.351763
vt 0.6652492 0.359375
vn 0 -1 0
vn 0 -1 0
vn 0 -1 0
vn 0 -1 0
vn 0 1 0
vn 0 1 0
vn 0 1 0
vn 0 1 0
vn -1 0 0
vn -1 0 0
vn -1 0 0
vn -1 0 0
vn 1 0 0
vn 1 0 0
vn 1 0 0
vn 1 0 0
vn 0 0 1
vn 0 0 1
vn 0 0 1
vn 0 0 1
vn 0 0 -1
vn 0 0 -1
vn 0 0 -1
vn 0 0 -1
vn 0 -1 0
vn 0 -1 0
vn 0 -1 0
vn 0 -1 0
vn 0 1 0
vn 0 1 0
vn 0 1 0
vn 0 1 0
vn 0 0 -1
vn 0 0 -1
vn 0 0 -1
vn 0 0 -1
vn 1 0 0
vn 1 0 0
vn 1 0 0
vn 1 0 0
vn 0 0 1
vn 0 0 1
vn 0 0 1
vn 0 0 1
vn -1 0 0
vn -1 0 0
vn -1 0 0
vn -1 0 0
vn 0 -1 0
vn 0 -1 0
vn 0 -1 0
vn 0 -1 0
vn 0 1 0
vn 0 1 0
vn 0 1 0
vn 0 1 0
vn 1 0 0
vn 1 0 0
vn 1 0 0
vn 1 0 0
vn 0 0 1
vn 0 0 1
vn 0 0 1
vn 0 0 1
vn -1 0 0
vn -1 0 0
vn -1 0 0
vn -1 0 0
vn 0 0 -1
vn 0 0 -1
vn 0 0 -1
vn 0 0 -1
vn 0 -1 0
vn 0 -1 0
vn 0 -1 0
vn 0 -1 0
vn 0 1 0
vn 0 1 0
vn 0 1 0
vn 0 1 0
vn 0.6957625 0 -0.7182719
vn 0.6957557 0 -0.7182785
vn 0.6957625 0 -0.7182719
vn 0.6957557 0 -0.7182785
vn 0.7182986 0 0.695735
vn 0.7182202 0 0.6958159
vn 0.7182986 0 0.695735
vn 0.7182202 0 0.6958159
vn -0.6958159 0 0.7182202
vn -0.6957092 0 0.7183235
vn -0.6958159 0 0.7182202
vn -0.6957092 0 0.7183235
vn -0.7179068 0 -0.6961392
vn -0.7182986 0 -0.695735
vn -0.7179068 0 -0.6961392
vn -0.7182594 0 -0.6957754
vn 0 -1 0
vn 0 -1 0
vn 0 -1 0
vn 0 -1 0
vn 0 1 0
vn 0 1 0
vn 0 1 0
vn 0 1 0
vn -0.6956673 0 -0.7183642
vn -0.695715 0 -0.7183179
vn -0.6956672 0 -0.7183642
vn -0.695688 0 -0.7183442
vn 0.7183902 0 -0.6956404
vn 0.7185367 0 -0.6954889
vn 0.7183835 0 -0.6956473
vn 0.7185367 0 -0.6954889
vn 0.6953824 0 0.71864
vn 0.6954889 0 0.7185367
vn 0.6953824 0 0.71864
vn 0.6954889 0 0.7185367
vn -0.71864 0 0.6953824
vn -0.7184603 0 0.695568
vn -0.71864 0 0.6953824
vn -0.7184603 0 0.695568
vn 0 -1 0
vn 0 -1 0
vn 0 -1 0
vn 0 -1 0
vn 0 1 0
vn 0 1 0
vn 0 1 0
vn 0 1 0
vn -1 0 0
vn -1 0 0
vn -1 0 0
vn -1 0 0
vn 0 0 -1
vn 0 0 -1
vn 0 0 -1
vn 0 0 -1
vn 1 0 0
vn 1 0 0
vn 1 0 0
vn 1 0 0
vn 0 0 1
vn 0 0 1
vn 0 0 1
vn 0 0 1
vn 0 -1 0
vn 0 -1 0
vn 0 -1 0
vn 0 1 0
vn 0 1 0
vn 0 1 0
vn 0.920256 0 0.3913169
vn 0.9200888 0 0.3917099
vn 0.9200888 0 0.3917099
vn 0.920256 0 0.3913169
vn 0 -1 0
vn 0 -1 0
vn 0 -1 0
vn 0 1 0
vn 0 1 0
vn 0 1 0
vn -0.9202704 0 0.3912829
vn -0.920256 0 0.3913169
vn -0.920256 0 0.3913169
vn -0.9202704 0 0.3912829
vn 0 -1 0
vn 0 -1 0
vn 0 -1 0
vn 0 1 0
vn 0 1 0
vn 0 1 0
vn -0.3746994 0 0.9271464
vn -0.3745049 0 0.9272249
vn -0.3745049 0 0.9272249
vn -0.3746994 0 0.9271464
vn 0 -1 0
vn 0 -1 0
vn 0 -1 0
vn 0 1 0
vn 0 1 0
vn 0 1 0
vn 0.3744992 0 0.9272272
vn 0.3746994 0 0.9271464
vn 0.3746994 0 0.9271464
vn 0.3744992 0 0.9272272
g sharp_fans_rocket_0
f 3/3/3 2/2/2 1/1/1
f 4/4/4 1/1/1 2/2/2
f 7/7/7 6/6/6 5/5/5
f 8/8/8 5/5/5 6/6/6
f 11/11/11 10/10/10 9/9/9
f 12/12/12 9/9/9 10/10/10
f 15/15/15 14/14/14 13/13/13
f 16/16/16 13/13/13 14/14/14
f 19/19/19 18/18/18 17/17/17
f 20/20/20 17/17/17 18/18/18
f 23/23/23 22/22/22 21/21/21
f 24/24/24 21/21/21 22/22/22
f 27/27/27 26/26/26 25/25/25
f 27/27/27 26/26/26 25/25/25
f 28/28/28 25/25/25 26/26/26
f 28/28/28 25/25/25 26/26/26
f 31/31/31 30/30/30 29/29/29
f 31/31/31 30/30/30 29/29/29
f 32/32/32 29/29/29 30/30/30
f 32/32/32 29/29/29 30/30/30
f 35/35/35 34/34/34 33/33/33
f 35/35/35 34/34/34 33/33/33
f 36/36/36 33/33/33 34/34/34
f 36/36/36 33/33/33 34/34/34
f 39/39/39 38/38/38 37/37/37
f 39/39/39 38/38/38 37/37/37
f 40/40/40 37/37/37 38/38/38
f 40/40/40 37/37/37 38/38/38
f 43/43/43 42/42/42 41/41/41
f 43/43/43 42/42/42 41/41/41
f 44/44/44 41/41/41 42/42/42
f 44/44/44 41/41/41 42/42/42
f 47/47/47 46/46/46 45/45/45
f 47/47/47 46/46/46 45/45/45
f 48/48/48 45/45/45 46/46/46
f 48/48/48 45/45/45 46/46/46
f 51/51/51 50/50/50 49/49/49
f 52/52/52 49/49/49 50/50/50
f 55/55/55 54/54/54 53/53/53
f 56/56/56 53/53/53 54/54/54
f 59/59/59 58/58/58 57/57/57
f 60/60/60 57/57/57 58/58/58
f 63/63/63 62/62/62 61/61/61
f 64/64/64 61/61/61 62/62/62
f 67/67/67 66/66/66 65/65/65
f 68/68/68 65/65/65 66/66/66
f 71/71/71 70/70/70 69/69/69
f 72/72/72 69/69/69 70/70/70
f 75/75/75 74/74/74 73/73/73
f 76/76/76 73/73/73 74/74/74
f 79/79/79 78/78/78 77/77/77
f 80/80/80 77/77/77 78/78/78
f 83/83/83 82/82/82 81/81/81
f 84/84/84 81/81/81 82/82/82
f 87/87/87 86/86/86 85/85/85
f 88/88/88 85/85/85 86/86/86
f 91/91/91 90/90/90 89/89/89
f 92/92/92 89/89/89 90/90/90
f 95/95/95 94/94/94 93/93/93
f 96/96/96 93/93/93 94/94/94
f 99/99/99 98/98/98 97/97/97
f 100/100/100 97/97/97 98/98/98
f 103/103/103 102/102/102 101/101/101
f 104/104/104 101/101/101 102/102/102
f 107/107/107 106/106/106 105/105/105
f 108/108/108 105/105/105 106/106/106
f 111/111/111 110/110/110 109/109/109
f 112/112/112 109/109/109 110/110/110
f 115/115/115 114/114/114 113/113/113
f 116/116/116 113/113/113 114/114/114
f 119/119/119 118/118/118 117/117/117
f 120/120/120 117/117/117 118/118/118
f 123/123/123 122/122/122 121/121/121
f 124/124/124 121/121/121 122/122/122
f 127/127/127 126/126/126 125/125/125
f 128/128/128 125/125/125 126/126/126
f 131/131/131 130/130/130 129/129/129
f 132/132/132 129/129/129 130/130/130
f 135/135/135 134/134/134 133/133/133
f 136/136/136 133/133/133 134/134/134
f 139/139/139 138/138/138 137/137/137
f 140/140/140 137/137/137 138/138/138
f 143/143/143 142/142/142 141/141/141
f 144/144/144 141/141/141 142/142/142
f 147/147/147 146/146/146 145/145/145
f 150/150/150 149/149/149 148/148/148
f 153/153/153 152/152/152 151/151/151
f 154/154/154 151/151/151 152/152/152
f 157/157/157 156/156/156 155/155/155
f 160/160/160 159/159/159 158/158/158
f 163/163/163 162/162/162 161/161/161
f 164/164/164 161/161/161 162/162/162
f 167/167/167 166/166/166 165/165/165
f 170/170/170 169/169/169 168/168/168
f 173/173/173 172/172/172 171/171/171
f 174/174/174 171/171/171 172/172/172
f 177/177/177 176/176/176 175/175/175
f 180/180/180 179/179/179 178/178/178
f 183/183/183 182/182/182 181/181/181
f 184/184/184 181/181/181 182/182/182
