g Skameiki
v 21.00438 3.314749 -2.559339
v 21.00438 3.31475 3.14131
v 21.00438 -0.01975031 3.141311
v 21.00438 -0.01975124 -2.559338
v 19.58088 3.31475 3.14131
v 21.00438 3.31475 3.14131
v 21.00438 3.314749 -2.559339
v 19.58088 3.314749 -2.559339
v 21.00438 3.329425 3.14131
v 19.58088 3.329425 3.14131
v 19.58088 3.329423 -2.559339
v 21.00438 3.329424 -2.559339
v 19.58088 3.329423 -2.559339
v 19.58088 3.329425 3.14131
v 19.58088 3.31475 3.14131
v 19.58088 3.314749 -2.559339
v 21.00438 3.314749 -2.559339
v 21.00438 -0.01975124 -2.559338
v 21.00438 -0.01975031 3.141311
v 21.00438 3.31475 3.14131
v 20.72166 0.5527717 -2.376116
v 20.72166 0.5527725 2.623885
v 20.17566 0.5527725 2.623885
v 20.17566 0.5527717 -2.376116
v 20.17566 0.5527725 2.623885
v 20.17566 0.4527724 2.623885
v 20.17566 0.4527716 -2.376116
v 20.17566 0.5527717 -2.376116
v 20.72166 0.5527717 -2.376116
v 20.72166 0.4527716 -2.376116
v 20.72166 0.4527724 2.623885
v 20.72166 0.5527725 2.623885
v 20.9378 3.380072 3.123559
v 20.9378 1.119244E-06 3.123559
v 21.07705 1.119244E-06 3.123559
v 21.07705 3.380072 3.123559
v 20.9378 3.380071 -2.660381
v 20.9378 1.769206E-07 -2.660381
v 21.07705 1.769206E-07 -2.660381
v 21.07705 3.380071 -2.660381
v 21.07705 3.380071 -2.521275
v 21.07705 1.995838E-07 -2.521275
v 20.9378 1.995838E-07 -2.521275
v 20.9378 3.380071 -2.521275
v 21.07705 3.380072 3.262665
v 21.07705 1.141907E-06 3.262666
v 20.9378 1.141907E-06 3.262666
v 20.9378 3.380072 3.262665
v 21.07705 3.380071 -2.660381
v 21.07705 1.769206E-07 -2.660381
v 21.07705 1.995838E-07 -2.521275
v 21.07705 3.380071 -2.521275
v 20.9378 3.380071 -2.521275
v 20.9378 1.995838E-07 -2.521275
v 20.9378 1.769206E-07 -2.660381
v 20.9378 3.380071 -2.660381
v 21.07705 3.380072 3.123559
v 21.07705 1.119244E-06 3.123559
v 21.07705 1.141907E-06 3.262666
v 21.07705 3.380072 3.262665
v 20.9378 3.380072 3.262665
v 20.9378 1.141907E-06 3.262666
v 20.9378 1.119244E-06 3.123559
v 20.9378 3.380072 3.123559
v 19.55778 3.240818 3.123559
v 20.9378 3.240818 3.123559
v 20.9378 3.380072 3.123559
v 19.55778 3.380072 3.123559
v 19.55778 3.380072 3.262665
v 20.9378 3.380072 3.262665
v 20.9378 3.240818 3.262665
v 19.55778 3.240818 3.262665
v 19.55778 3.240817 -2.660381
v 20.9378 3.240817 -2.660381
v 20.9378 3.380071 -2.660381
v 19.55778 3.380071 -2.660381
v 19.55778 3.380071 -2.521275
v 20.9378 3.380071 -2.521275
v 20.9378 3.240817 -2.521275
v 19.55778 3.240817 -2.521275
v 19.55778 3.380072 3.123559
v 20.9378 3.380072 3.123559
v 20.9378 3.380072 3.262665
v 19.55778 3.380072 3.262665
v 19.55778 3.240818 3.262665
v 20.9378 3.240818 3.262665
v 20.9378 3.240818 3.123559
v 19.55778 3.240818 3.123559
v 19.55778 3.240817 -2.521275
v 20.9378 3.240817 -2.521275
v 20.9378 3.240817 -2.660381
v 19.55778 3.240817 -2.660381
v 19.55778 3.380071 -2.660381
v 20.9378 3.380071 -2.660381
v 20.9378 3.380071 -2.521275
v 19.55778 3.380071 -2.521275
v 20.72166 0.5527725 2.623885
v 20.72166 0.4527724 2.623885
v 20.17566 0.4527724 2.623885
v 20.17566 0.5527725 2.623885
v 20.17566 0.5527717 -2.376116
v 20.17566 0.4527716 -2.376116
v 20.72166 0.4527716 -2.376116
v 20.72166 0.5527717 -2.376116
v 20.56443 0.4932822 -2.231326
v 20.56443 -3.635291E-07 -2.231326
v 20.56443 -3.817551E-07 -2.343196
v 20.56443 0.4932822 -2.343196
v 20.6763 0.4932822 -2.343196
v 20.6763 -3.817551E-07 -2.343196
v 20.6763 -3.635291E-07 -2.231326
v 20.6763 0.4932822 -2.231326
v 20.33758 0.4932822 -2.343196
v 20.33758 -3.817551E-07 -2.343196
v 20.33758 -3.635291E-07 -2.231326
v 20.33758 0.4932822 -2.231326
v 20.22571 0.4932822 -2.231326
v 20.22571 -3.635291E-07 -2.231326
v 20.22571 -3.817551E-07 -2.343196
v 20.22571 0.4932822 -2.343196
v 20.22571 0.4932825 0.02878154
v 20.22571 4.689141E-09 0.02878162
v 20.22571 -1.353681E-08 -0.08308849
v 20.22571 0.4932825 -0.08308858
v 20.33758 0.4932829 2.465619
v 20.33758 4.017003E-07 2.465619
v 20.33758 4.199262E-07 2.577489
v 20.33758 0.4932829 2.577489
v 20.6763 0.4932829 2.465619
v 20.6763 4.017003E-07 2.465619
v 20.6763 4.199262E-07 2.577489
v 20.6763 0.4932829 2.577489
v 20.56443 0.4932829 2.577489
v 20.56443 4.199262E-07 2.577489
v 20.56443 4.017003E-07 2.465619
v 20.56443 0.4932829 2.465619
v 20.22571 0.4932829 2.577489
v 20.22571 4.199262E-07 2.577489
v 20.22571 4.017003E-07 2.465619
v 20.22571 0.4932829 2.465619
v 20.6763 0.4932825 -0.08308858
v 20.6763 -1.353681E-08 -0.08308849
v 20.6763 4.689141E-09 0.02878162
v 20.6763 0.4932825 0.02878154
v 20.56443 0.4932825 0.02878154
v 20.56443 4.689141E-09 0.02878162
v 20.56443 -1.353681E-08 -0.08308849
v 20.56443 0.4932825 -0.08308858
v 20.33758 0.4932825 -0.08308858
v 20.33758 -1.353681E-08 -0.08308849
v 20.33758 4.689141E-09 0.02878162
v 20.33758 0.4932825 0.02878154
v 20.56443 0.4932822 -2.343196
v 20.56443 -3.817551E-07 -2.343196
v 20.6763 -3.817551E-07 -2.343196
v 20.6763 0.4932822 -2.343196
v 20.22571 0.4932829 2.465619
v 20.22571 4.017003E-07 2.465619
v 20.33758 4.017003E-07 2.465619
v 20.33758 0.4932829 2.465619
v 20.56443 0.4932829 2.465619
v 20.56443 4.017003E-07 2.465619
v 20.6763 4.017003E-07 2.465619
v 20.6763 0.4932829 2.465619
v 20.6763 0.4932829 2.577489
v 20.6763 4.199262E-07 2.577489
v 20.56443 4.199262E-07 2.577489
v 20.56443 0.4932829 2.577489
v 20.56443 0.4932825 -0.08308858
v 20.56443 -1.353681E-08 -0.08308849
v 20.6763 -1.353681E-08 -0.08308849
v 20.6763 0.4932825 -0.08308858
v 20.6763 0.4932825 0.02878154
v 20.6763 4.689141E-09 0.02878162
v 20.56443 4.689141E-09 0.02878162
v 20.56443 0.4932825 0.02878154
v 20.6763 0.4932822 -2.231326
v 20.6763 -3.635291E-07 -2.231326
v 20.56443 -3.635291E-07 -2.231326
v 20.56443 0.4932822 -2.231326
v 20.33758 0.4932829 2.577489
v 20.33758 4.199262E-07 2.577489
v 20.22571 4.199262E-07 2.577489
v 20.22571 0.4932829 2.577489
v 20.33758 0.4932825 0.02878154
v 20.33758 4.689141E-09 0.02878162
v 20.22571 4.689141E-09 0.02878162
v 20.22571 0.4932825 0.02878154
v 20.22571 0.4932825 -0.08308858
v 20.22571 -1.353681E-08 -0.08308849
v 20.33758 -1.353681E-08 -0.08308849
v 20.33758 0.4932825 -0.08308858
v 20.33758 0.4932822 -2.231326
v 20.33758 -3.635291E-07 -2.231326
v 20.22571 -3.635291E-07 -2.231326
v 20.22571 0.4932822 -2.231326
v 20.22571 0.4932822 -2.343196
v 20.22571 -3.817551E-07 -2.343196
v 20.33758 -3.817551E-07 -2.343196
v 20.33758 0.4932822 -2.343196
v 19.55778 3.240818 3.123559
v 19.55778 3.380072 3.123559
v 19.55778 3.380072 3.262665
v 19.55778 3.240818 3.262665
v 19.55778 3.240817 -2.660381
v 19.55778 3.380071 -2.660381
v 19.55778 3.380071 -2.521275
v 19.55778 3.240817 -2.521275
v 20.9378 3.380071 -2.660381
v 21.07705 3.380071 -2.660381
v 21.07705 3.380071 -2.521275
v 20.9378 3.380071 -2.521275
v 20.9378 3.380072 3.123559
v 21.07705 3.380072 3.123559
v 21.07705 3.380072 3.262665
v 20.9378 3.380072 3.262665
vt 1.333626 1.925162
vt 1.333625 -0.9251624
vt -0.3336254 -0.9251621
vt -0.3336247 1.925162
vt 1.925162 0.8558739
vt 1.925162 0.1441261
vt -0.925162 0.1441261
vt -0.925162 0.8558739
vt 1.925162 0.1441264
vt 1.925162 0.8558741
vt -0.925162 0.8558741
vt -0.925162 0.1441264
vt -0.925162 0.8558741
vt 1.925162 0.8558741
vt 1.925162 0.8558739
vt -0.925162 0.8558739
vt 1.333626 1.925162
vt -0.3336247 1.925162
vt -0.3336254 -0.9251621
vt 1.333625 -0.9251624
vt 0.08019123 0.5332239
vt 0.2448961 0.5332239
vt 0.2448961 0.5144049
vt 0.08019123 0.5144049
vt 0.2448961 0.5332239
vt 0.2448961 0.5297772
vt 0.08019123 0.5297772
vt 0.08019123 0.5332239
vt 0.2448961 0.5332239
vt 0.2448961 0.5297772
vt 0.08019123 0.5297772
vt 0.08019123 0.5332239
vt 0.06077162 0.009563777
vt 0.1364993 0.009563762
vt 0.1364993 0.003962713
vt 0.06077162 0.003962722
vt 0.06077162 0.009563777
vt 0.1364993 0.009563762
vt 0.1364993 0.003962713
vt 0.06077162 0.003962722
vt 0.06077162 0.009563777
vt 0.1364993 0.009563762
vt 0.1364993 0.003962713
vt 0.06077162 0.003962722
vt 0.06077162 0.009563777
vt 0.1364993 0.009563762
vt 0.1364993 0.003962713
vt 0.06077162 0.003962722
vt 0.06077162 0.009563777
vt 0.1364993 0.009563762
vt 0.1364993 0.003962713
vt 0.06077162 0.003962722
vt 0.06077162 0.009563777
vt 0.1364993 0.009563762
vt 0.1364993 0.003962713
vt 0.06077162 0.003962722
vt 0.06077162 0.009563777
vt 0.1364993 0.009563762
vt 0.1364993 0.003962713
vt 0.06077162 0.003962722
vt 0.06077162 0.009563777
vt 0.1364993 0.009563762
vt 0.1364993 0.003962713
vt 0.06077162 0.003962722
vt 0.1055811 0.009563777
vt 0.1364993 0.009563762
vt 0.1364993 0.003962713
vt 0.1055811 0.003962717
vt 0.1055811 0.009563777
vt 0.1364993 0.009563762
vt 0.1364993 0.003962713
vt 0.1055811 0.003962717
vt 0.1055811 0.009563777
vt 0.1364993 0.009563762
vt 0.1364993 0.003962713
vt 0.1055811 0.003962717
vt 0.1055811 0.009563777
vt 0.1364993 0.009563762
vt 0.1364993 0.003962713
vt 0.1055811 0.003962717
vt 0.1055811 0.009563777
vt 0.1364993 0.009563762
vt 0.1364993 0.003962713
vt 0.1055811 0.003962717
vt 0.1055811 0.009563777
vt 0.1364993 0.009563762
vt 0.1364993 0.003962713
vt 0.1055811 0.003962717
vt 0.1055811 0.009563777
vt 0.1364993 0.009563762
vt 0.1364993 0.003962713
vt 0.1055811 0.003962717
vt 0.1055811 0.009563777
vt 0.1364993 0.009563762
vt 0.1364993 0.003962713
vt 0.1055811 0.003962717
vt 0.09817705 0.5332239
vt 0.09817705 0.5297772
vt 0.08019123 0.5297772
vt 0.08019123 0.5332239
vt 0.09817705 0.5332239
vt 0.09817705 0.5297772
vt 0.08019123 0.5297772
vt 0.08019123 0.5332239
vt 0.08387641 0.5332239
vt 0.08387641 0.5162219
vt 0.08019123 0.5162219
vt 0.08019123 0.5332239
vt 0.08387641 0.5332239
vt 0.08387641 0.5162219
vt 0.08019123 0.5162219
vt 0.08019123 0.5332239
vt 0.08387641 0.5332239
vt 0.08387641 0.5162219
vt 0.08019123 0.5162219
vt 0.08019123 0.5332239
vt 0.08387641 0.5332239
vt 0.08387641 0.5162219
vt 0.08019123 0.5162219
vt 0.08019123 0.5332239
vt 0.08387641 0.5332239
vt 0.08387641 0.5162219
vt 0.08019123 0.5162219
vt 0.08019123 0.5332239
vt 0.08387641 0.5332239
vt 0.08387641 0.5162219
vt 0.08019123 0.5162219
vt 0.08019123 0.5332239
vt 0.08387641 0.5332239
vt 0.08387641 0.5162219
vt 0.08019123 0.5162219
vt 0.08019123 0.5332239
vt 0.08387641 0.5332239
vt 0.08387641 0.5162219
vt 0.08019123 0.5162219
vt 0.08019123 0.5332239
vt 0.08387641 0.5332239
vt 0.08387641 0.5162219
vt 0.08019123 0.5162219
vt 0.08019123 0.5332239
vt 0.08387641 0.5332239
vt 0.08387641 0.5162219
vt 0.08019123 0.5162219
vt 0.08019123 0.5332239
vt 0.08387641 0.5332239
vt 0.08387641 0.5162219
vt 0.08019123 0.5162219
vt 0.08019123 0.5332239
vt 0.08387641 0.5332239
vt 0.08387641 0.5162219
vt 0.08019123 0.5162219
vt 0.08019123 0.5332239
vt 0.08387641 0.5332239
vt 0.08387641 0.5162219
vt 0.08019123 0.5162219
vt 0.08019123 0.5332239
vt 0.08387641 0.5332239
vt 0.08387641 0.5162219
vt 0.08019123 0.5162219
vt 0.08019123 0.5332239
vt 0.08387641 0.5332239
vt 0.08387641 0.5162219
vt 0.08019123 0.5162219
vt 0.08019123 0.5332239
vt 0.08387641 0.5332239
vt 0.08387641 0.5162219
vt 0.08019123 0.5162219
vt 0.08019123 0.5332239
vt 0.08387641 0.5332239
vt 0.08387641 0.5162219
vt 0.08019123 0.5162219
vt 0.08019123 0.5332239
vt 0.08387641 0.5332239
vt 0.08387641 0.5162219
vt 0.08019123 0.5162219
vt 0.08019123 0.5332239
vt 0.08387641 0.5332239
vt 0.08387641 0.5162219
vt 0.08019123 0.5162219
vt 0.08019123 0.5332239
vt 0.08387641 0.5332239
vt 0.08387641 0.5162219
vt 0.08019123 0.5162219
vt 0.08019123 0.5332239
vt 0.08387641 0.5332239
vt 0.08387641 0.5162219
vt 0.08019123 0.5162219
vt 0.08019123 0.5332239
vt 0.08387641 0.5332239
vt 0.08387641 0.5162219
vt 0.08019123 0.5162219
vt 0.08019123 0.5332239
vt 0.08387641 0.5332239
vt 0.08387641 0.5162219
vt 0.08019123 0.5162219
vt 0.08019123 0.5332239
vt 0.08387641 0.5332239
vt 0.08387641 0.5162219
vt 0.08019123 0.5162219
vt 0.08019123 0.5332239
vt 0.1367916 0.003945434
vt 0.1367916 0.009546461
vt 0.1423927 0.009546461
vt 0.1423927 0.003945434
vt 0.1367916 0.003945434
vt 0.1367916 0.009546461
vt 0.1423927 0.009546461
vt 0.1423927 0.003945434
vt 0.1367916 0.003945434
vt 0.1367916 0.009546461
vt 0.1423927 0.009546461
vt 0.1423927 0.003945434
vt 0.1367916 0.003945434
vt 0.1367916 0.009546461
vt 0.1423927 0.009546461
vt 0.1423927 0.003945434
vn -1 0 0
vn -1 0 0
vn -1 0 0
vn -1 0 0
vn 0 -1 0
vn 0 -1 0
vn 0 -1 0
vn 0 -1 0
vn 0 1 0
vn 0 1 0
vn 0 1 0
vn 0 1 0
vn -1 0 0
vn -1 0 0
vn -1 0 0
vn -1 0 0
vn 1 0 0
vn 1 0 0
vn 1 0 0
vn 1 0 0
vn 0 1 0
vn 0 1 0
vn 0 1 0
vn 0 1 0
vn -1 0 0
vn -1 0 0
vn -1 0 0
vn -1 0 0
vn 1 0 0
vn 1 0 0
vn 1 0 0
vn 1 0 0
vn 0 0 -1
vn 0 0 -1
vn 0 0 -1
vn 0 0 -1
vn 0 0 -1
vn 0 0 -1
vn 0 0 -1
vn 0 0 -1
vn 0 0 1
vn 0 0 1
vn 0 0 1
vn 0 0 1
vn 0 0 1
vn 0 0 1
vn 0 0 1
vn 0 0 1
vn 1 0 0
vn 1 0 0
vn 1 0 0
vn 1 0 0
vn -1 0 0
vn -1 0 0
vn -1 0 0
vn -1 0 0
vn 1 0 0
vn 1 0 0
vn 1 0 0
vn 1 0 0
vn -1 0 0
vn -1 0 0
vn -1 0 0
vn -1 0 0
vn 0 0 -1
vn 0 0 -1
vn 0 0 -1
vn 0 0 -1
vn 0 0 1
vn 0 0 1
vn 0 0 1
vn 0 0 1
vn 0 0 -1
vn 0 0 -1
vn 0 0 -1
vn 0 0 -1
vn 0 0 1
vn 0 0 1
vn 0 0 1
vn 0 0 1
vn 0 1 0
vn 0 1 0
vn 0 1 0
vn 0 1 0
vn 0 -1 0
vn 0 -1 0
vn 0 -1 0
vn 0 -1 0
vn 0 -1 0
vn 0 -1 0
vn 0 -1 0
vn 0 -1 0
vn 0 1 0
vn 0 1 0
vn 0 1 0
vn 0 1 0
vn 0 0 1
vn 0 0 1
vn 0 0 1
vn 0 0 1
vn 0 0 -1
vn 0 0 -1
vn 0 0 -1
vn 0 0 -1
vn -1 0 0
vn -1 0 0
vn -1 0 0
vn -1 0 0
vn 1 0 0
vn 1 0 0
vn 1 0 0
vn 1 0 0
vn 1 0 0
vn 1 0 0
vn 1 0 0
vn 1 0 0
vn -1 0 0
vn -1 0 0
vn -1 0 0
vn -1 0 0
vn -1 0 0
vn -1 0 0
vn -1 0 0
vn -1 0 0
vn 1 0 0
vn 1 0 0
vn 1 0 0
vn 1 0 0
vn 1 0 0
vn 1 0 0
vn 1 0 0
vn 1 0 0
vn -1 0 0
vn -1 0 0
vn -1 0 0
vn -1 0 0
vn -1 0 0
vn -1 0 0
vn -1 0 0
vn -1 0 0
vn 1 0 0
vn 1 0 0
vn 1 0 0
vn 1 0 0
vn -1 0 0
vn -1 0 0
vn -1 0 0
vn -1 0 0
vn 1 0 0
vn 1 0 0
vn 1 0 0
vn 1 0 0
vn 0 0 -1
vn 0 0 -1
vn 0 0 -1
vn 0 0 -1
vn 0 0 -1
vn 0 0 -1
vn 0 0 -1
vn 0 0 -1
vn 0 0 -1
vn 0 0 -1
vn 0 0 -1
vn 0 0 -1
vn 0 0 1
vn 0 0 1
vn 0 0 1
vn 0 0 1
vn 0 0 -1
vn 0 0 -1
vn 0 0 -1
vn 0 0 -1
vn 0 0 1
vn 0 0 1
vn 0 0 1
vn 0 0 1
vn 0 0 1
vn 0 0 1
vn 0 0 1
vn 0 0 1
vn 0 0 1
vn 0 0 1
vn 0 0 1
vn 0 0 1
vn 0 0 1
vn 0 0 1
vn 0 0 1
vn 0 0 1
vn 0 0 -1
vn 0 0 -1
vn 0 0 -1
vn 0 0 -1
vn 0 0 1
vn 0 0 1
vn 0 0 1
vn 0 0 1
vn 0 0 -1
vn 0 0 -1
vn 0 0 -1
vn 0 0 -1
vn -1 0 0
vn -1 0 0
vn -1 0 0
vn -1 0 0
vn -1 0 0
vn -1 0 0
vn -1 0 0
vn -1 0 0
vn 0 1 0
vn 0 1 0
vn 0 1 0
vn 0 1 0
vn 0 1 0
vn 0 1 0
vn 0 1 0
vn 0 1 0
g Skameiki_0
f 3/3/3 2/2/2 1/1/1
f 4/4/4 3/3/3 1/1/1
f 7/7/7 6/6/6 5/5/5
f 8/8/8 7/7/7 5/5/5
f 11/11/11 10/10/10 9/9/9
f 12/12/12 11/11/11 9/9/9
f 15/15/15 14/14/14 13/13/13
f 16/16/16 15/15/15 13/13/13
f 19/19/19 18/18/18 17/17/17
f 20/20/20 19/19/19 17/17/17
g Skameiki_1
f 23/23/23 22/22/22 21/21/21
f 24/24/24 23/23/23 21/21/21
f 27/27/27 26/26/26 25/25/25
f 28/28/28 27/27/27 25/25/25
f 31/31/31 30/30/30 29/29/29
f 32/32/32 31/31/31 29/29/29
f 35/35/35 34/34/34 33/33/33
f 36/36/36 35/35/35 33/33/33
f 39/39/39 38/38/38 37/37/37
f 40/40/40 39/39/39 37/37/37
f 43/43/43 42/42/42 41/41/41
f 44/44/44 43/43/43 41/41/41
f 47/47/47 46/46/46 45/45/45
f 48/48/48 47/47/47 45/45/45
f 51/51/51 50/50/50 49/49/49
f 52/52/52 51/51/51 49/49/49
f 55/55/55 54/54/54 53/53/53
f 56/56/56 55/55/55 53/53/53
f 59/59/59 58/58/58 57/57/57
f 60/60/60 59/59/59 57/57/57
f 63/63/63 62/62/62 61/61/61
f 64/64/64 63/63/63 61/61/61
f 67/67/67 66/66/66 65/65/65
f 68/68/68 67/67/67 65/65/65
f 71/71/71 70/70/70 69/69/69
f 72/72/72 71/71/71 69/69/69
f 75/75/75 74/74/74 73/73/73
f 76/76/76 75/75/75 73/73/73
f 79/79/79 78/78/78 77/77/77
f 80/80/80 79/79/79 77/77/77
f 83/83/83 82/82/82 81/81/81
f 84/84/84 83/83/83 81/81/81
f 87/87/87 86/86/86 85/85/85
f 88/88/88 87/87/87 85/85/85
f 91/91/91 90/90/90 89/89/89
f 92/92/92 91/91/91 89/89/89
f 95/95/95 94/94/94 93/93/93
f 96/96/96 95/95/95 93/93/93
f 99/99/99 98/98/98 97/97/97
f 100/100/100 99/99/99 97/97/97
f 103/103/103 102/102/102 101/101/101
f 104/104/104 103/103/103 101/101/101
f 107/107/107 106/106/106 105/105/105
f 108/108/108 107/107/107 105/105/105
f 111/111/111 110/110/110 109/109/109
f 112/112/112 111/111/111 109/109/109
f 115/115/115 114/114/114 113/113/113
f 116/116/116 115/115/115 113/113/113
f 119/119/119 118/118/118 117/117/117
f 120/120/120 119/119/119 117/117/117
f 123/123/123 122/122/122 121/121/121
f 124/124/124 123/123/123 121/121/121
f 127/127/127 126/126/126 125/125/125
f 128/128/128 127/127/127 125/125/125
f 131/131/131 130/130/130 129/129/129
f 132/132/132 131/131/131 129/129/129
f 135/135/135 134/134/134 133/133/133
f 136/136/136 135/135/135 133/133/133
f 139/139/139 138/138/138 137/137/137
f 140/140/140 139/139/139 137/137/137
f 143/143/143 142/142/142 141/141/141
f 144/144/144 143/143/143 141/141/141
f 147/147/147 146/146/146 145/145/145
f 148/148/148 147/147/147 145/145/145
f 151/151/151 150/150/150 149/149/149
f 152/152/152 151/151/151 149/149/149
f 155/155/155 154/154/154 153/153/153
f 156/156/156 155/155/155 153/153/153
f 159/159/159 158/158/158 157/157/157
f 160/160/160 159/159/159 157/157/157
f 163/163/163 162/162/162 161/161/161
f 164/164/164 163/163/163 161/161/161
f 167/167/167 166/166/166 165/165/165
f 168/168/168 167/167/167 165/165/165
f 171/171/171 170/170/170 169/169/169
f 172/172/172 171/171/171 169/169/169
f 175/175/175 174/174/174 173/173/173
f 176/176/176 175/175/175 173/173/173
f 179/179/179 178/178/178 177/177/177
f 180/180/180 179/179/179 177/177/177
f 183/183/183 182/182/182 181/181/181
f 184/184/184 183/183/183 181/181/181
f 187/187/187 186/186/186 185/185/185
f 188/188/188 187/187/187 185/185/185
f 191/191/191 190/190/190 189/189/189
f 192/192/192 191/191/191 189/189/189
f 195/195/195 194/194/194 193/193/193
f 196/196/196 195/195/195 193/193/193
f 199/199/199 198/198/198 197/197/197
f 200/200/200 199/199/199 197/197/197
f 203/203/203 202/202/202 201/201/201
f 204/204/204 203/203/203 201/201/201
f 207/207/207 206/206/206 205/205/205
f 208/208/208 207/207/207 205/205/205
f 211/211/211 210/210/210 209/209/209
f 212/212/212 211/211/211 209/209/209
f 215/215/215 214/214/214 213/213/213
f 216/216/216 215/215/215 213/213/213
