g sky_islands2_sky_rock
v -1.7 1.7 1.810005
v -1.7 1.7 2.810001
v -2.7 1.7 2.810001
v -2.7 1.7 1.810005
v -1.7 2.7 1.810005
v -1.7 2.7 2.810001
v -1.7 1.7 2.810001
v -1.7 1.7 1.810005
v 1.7 2.7 1.810005
v 1.7 2.7 2.810001
v -1.7 2.7 2.810001
v -1.7 2.7 1.810005
v 1.7 1.7 1.810005
v 1.7 1.7 2.810001
v 1.7 2.7 2.810001
v 1.7 2.7 1.810005
v 2.7 1.7 1.810005
v 2.7 1.7 2.810001
v 1.7 1.7 2.810001
v 1.7 1.7 1.810005
v 2.7 -1.7 1.810005
v 2.7 -1.7 2.810001
v 2.7 1.7 2.810001
v 2.7 1.7 1.810005
v 1.7 -1.7 1.810005
v 1.7 -1.7 2.810001
v 2.7 -1.7 2.810001
v 2.7 -1.7 1.810005
v 1.7 -2.7 1.810005
v 1.7 -2.7 2.810001
v 1.7 -1.7 2.810001
v 1.7 -1.7 1.810005
v -1.7 -2.7 1.810005
v -1.7 -2.7 2.810001
v 1.7 -2.7 2.810001
v 1.7 -2.7 1.810005
v -1.7 -1.7 1.810005
v -1.7 -1.7 2.810001
v -1.7 -2.7 2.810001
v -1.7 -2.7 1.810005
v -2.7 -1.7 1.810005
v -2.7 -1.7 2.810001
v -1.7 -1.7 2.810001
v -1.7 -1.7 1.810005
v -2.7 1.7 1.810005
v -2.7 1.7 2.810001
v -2.7 -1.7 2.810001
v -2.7 -1.7 1.810005
v -1.7 -1.7 3.080001
v 1.7 -1.7 3.080001
v 1.7 -1.7 2.810001
v -1.7 -1.7 2.810001
v -1.7 1.7 3.080001
v -1.7 -1.7 3.080001
v -1.7 -1.7 2.810001
v -1.7 1.7 2.810001
v 1 1.7 3.080001
v -1.7 1.7 3.080001
v -1.7 1.7 2.810001
v 1 1.7 2.810001
v 1.7 -1 3.080001
v 1.7 -1 2.810001
v 1.7 -1.7 2.810001
v 1.7 -1.7 3.080001
v 1 1 3.080001
v 1 1.7 3.080001
v 1 1.7 2.810001
v 1 0.9999997 2.810001
v 1.7 -1 3.080001
v 1 -1 3.080001
v 1 -1 2.810001
v 1.7 -1 2.810001
v -2.7 1.7 -0.1899995
v -2.7 -1.7 -0.1899995
v -1.7 -1.7 -0.1899995
v -1.7 1.7 -0.1899995
v -1.7 -2.7 -0.1899995
v 1.7 -2.7 -0.1899995
v 1.7 -1.7 -0.1899995
v -1.7 -1.7 -0.1899995
v 2.7 -1.7 -0.1899995
v 2.7 1.7 -0.1899995
v 1.7 1.7 -0.1899995
v 1.7 -1.7 -0.1899995
v 1.7 2.7 -0.1899995
v -1.7 2.7 -0.1899995
v -1.7 1.7 -0.1899995
v 1.7 1.7 -0.1899995
v -1.7 -1.7 -0.1899995
v 1.7 -1.7 -0.1899995
v 1.7 -1.7 -2.19
v -1.7 -1.7 -2.19
v 1.7 -1.7 -0.1899995
v 1.7 1.7 -0.1899995
v 1.7 1.7 -2.19
v 1.7 -1.7 -2.19
v 1.7 1.7 -0.1899995
v -1.7 1.7 -0.1899995
v -1.7 1.7 -2.19
v 1.7 1.7 -2.19
v -1.7 1.7 -0.1899995
v -1.7 -1.7 -0.1899995
v -1.7 -1.7 -2.19
v -1.7 1.7 -2.19
v 1.7 1.7 -2.19
v -1.7 1.7 -2.19
v -1 1 -2.19
v 1 1 -2.19
v -1.7 -1.7 -2.19
v -1 -0.9999997 -2.19
v 1.7 -1.7 -2.19
v 1 -0.9999997 -2.19
v -1 -0.9999997 -2.19
v 1 -0.9999997 -2.19
v 1 -0.9999997 -3.79
v -1 -0.9999997 -3.79
v 1 -0.9999997 -2.19
v 1 1 -2.19
v 1 1 -3.79
v 1 -0.9999997 -3.79
v 1 1 -2.19
v -1 1 -2.19
v -1 1 -3.79
v 1 1 -3.79
v -1 1 -2.19
v -1 -0.9999997 -2.19
v -1 -0.9999997 -3.79
v -1 1 -3.79
v -1 1 -3.79
v -1 -0.9999997 -3.79
v 1 -0.9999997 -3.79
v 1 1 -3.79
v -1 -1 3.79
v 1 -1 3.79
v 1 -1 3.080001
v -1 -1 3.080001
v -1 1 3.79
v -1 -1 3.79
v -1 -1 3.080001
v -1 1 3.080001
v 1 1 3.79
v -1 1 3.79
v -1 1 3.080001
v 1 1 3.080001
v 1 1 3.79
v 1 -1 3.79
v -1 -1 3.79
v -1 1 3.79
v 1 -1 3.080001
v 1 1 3.080001
v 1 0.9999997 2.810001
v 1 -1 2.810001
v 1 -1 3.79
v 1 1 3.79
v -1.7 1.7 -0.1899995
v -1.7 1.7 1.810005
v -2.7 1.7 1.810005
v -2.7 1.7 -0.1899995
v -1.7 2.7 -0.1899995
v -1.7 2.7 1.810005
v -1.7 1.7 1.810005
v -1.7 1.7 -0.1899995
v 1.7 2.7 -0.1899995
v 1.7 2.7 1.810005
v -1.7 2.7 1.810005
v -1.7 2.7 -0.1899995
v 1.7 1.7 -0.1899995
v 1.7 1.7 1.810005
v 1.7 2.7 1.810005
v 1.7 2.7 -0.1899995
v 2.7 1.7 -0.1899995
v 2.7 1.7 1.810005
v 1.7 1.7 1.810005
v 1.7 1.7 -0.1899995
v 2.7 -1.7 -0.1899995
v 2.7 -1.7 1.810005
v 2.7 1.7 1.810005
v 2.7 1.7 -0.1899995
v 1.7 -1.7 -0.1899995
v 1.7 -1.7 1.810005
v 2.7 -1.7 1.810005
v 2.7 -1.7 -0.1899995
v 1.7 -2.7 -0.1899995
v 1.7 -2.7 1.810005
v 1.7 -1.7 1.810005
v 1.7 -1.7 -0.1899995
v -1.7 -2.7 -0.1899995
v -1.7 -2.7 1.810005
v 1.7 -2.7 1.810005
v 1.7 -2.7 -0.1899995
v -1.7 -1.7 -0.1899995
v -1.7 -1.7 1.810005
v -1.7 -2.7 1.810005
v -1.7 -2.7 -0.1899995
v -2.7 -1.7 -0.1899995
v -2.7 -1.7 1.810005
v -1.7 -1.7 1.810005
v -1.7 -1.7 -0.1899995
v -2.7 1.7 -0.1899995
v -2.7 1.7 1.810005
v -2.7 -1.7 1.810005
v -2.7 -1.7 -0.1899995
v -1.7 -1.7 2.810001
v 1.7 -1.7 2.810001
v 1.7 -2.7 2.810001
v -1.7 -2.7 2.810001
v -1.7 1.7 2.810001
v -1.7 -1.7 2.810001
v -2.7 -1.7 2.810001
v -2.7 1.7 2.810001
v -1 -1 3.080001
v 1 -1 3.080001
v 1.7 -1.7 3.080001
v -1.7 -1.7 3.080001
v -1.7 1.7 3.080001
v -1 1 3.080001
v 1 1.7 3.080001
v 1 1 3.080001
v 1.7 -1 3.080001
v 1.7 -1 2.810001
v 2.7 1.7 2.810001
v 2.7 -1.7 2.810001
v 1.7 -1.7 2.810001
v 1.7 1.7 2.810001
v 1 0.9999997 2.810001
v 1 1.7 2.810001
v 1.7 2.7 2.810001
v -1.7 2.7 2.810001
v -1.7 1.7 2.810001
v 1 -1 2.810001
vt 2.2 2.384186E-07
vt 2.2 1
vt 3.2 1
vt 3.2 0
vt -2.200001 2.384186E-07
vt -2.200001 1
vt -1.200001 1
vt -1.200001 2.384186E-07
vt -1.200001 2.384186E-07
vt -1.200001 1
vt 2.199999 1
vt 2.199999 2.384186E-07
vt 2.2 2.384186E-07
vt 2.2 1
vt 3.2 1
vt 3.2 2.384186E-07
vt -2.200001 2.384186E-07
vt -2.200001 1
vt -1.200001 1
vt -1.200001 2.384186E-07
vt -1.200001 2.384186E-07
vt -1.200001 1
vt 2.2 1
vt 2.2 2.384186E-07
vt 2.2 2.384186E-07
vt 2.2 1
vt 3.2 1
vt 3.2 2.384186E-07
vt -2.200001 2.384186E-07
vt -2.200001 1
vt -1.2 1
vt -1.200001 2.384186E-07
vt -1.200001 2.384186E-07
vt -1.200001 1
vt 2.199999 1
vt 2.199999 2.384186E-07
vt 2.2 2.384186E-07
vt 2.2 1
vt 3.2 1
vt 3.2 2.384186E-07
vt -2.200001 2.384186E-07
vt -2.200001 1
vt -1.200001 1
vt -1.200001 2.384186E-07
vt -1.200001 0
vt -1.200001 1
vt 2.199999 1
vt 2.199999 2.384186E-07
vt -1.200001 0.9926286
vt 2.2 0.9926286
vt 2.2 0.7226286
vt -1.200001 0.7226286
vt -1.200659 0.9926286
vt 2.199341 0.9926286
vt 2.199341 0.7226286
vt -1.200659 0.7226286
vt -0.500001 0.9926286
vt 2.2 0.9926286
vt 2.2 0.7226286
vt -0.500001 0.7226288
vt -0.499342 0.9926286
vt -0.499342 0.7226286
vt -1.199342 0.7226286
vt -1.199342 0.9926286
vt 1.500658 0.9926286
vt 2.200658 0.9926286
vt 2.200658 0.7226288
vt 1.500658 0.7226286
vt -1.2 0.9926286
vt -0.5 0.9926286
vt -0.5 0.7226288
vt -1.2 0.7226286
vt 3.2 2.200001
vt 3.200001 -1.199999
vt 2.200001 -1.199999
vt 2.2 2.2
vt 2.200001 -2.2
vt -1.199999 -2.2
vt -1.2 -1.2
vt 2.200001 -1.199999
vt -2.2 -1.200001
vt -2.200001 2.199999
vt -1.200001 2.2
vt -1.2 -1.2
vt -1.200001 3.2
vt 2.199999 3.2
vt 2.2 2.2
vt -1.200001 2.2
vt -1.200001 0.3100005
vt 2.2 0.3100005
vt 2.2 -1.69
vt -1.200001 -1.69
vt -1.2 0.3100005
vt 2.2 0.3100005
vt 2.2 -1.69
vt -1.2 -1.69
vt -1.200001 0.3100005
vt 2.2 0.3100005
vt 2.2 -1.69
vt -1.200001 -1.69
vt -1.2 0.3100005
vt 2.199999 0.3100005
vt 2.199999 -1.69
vt -1.2 -1.69
vt -1.200001 2.2
vt 2.2 2.2
vt 1.5 1.500001
vt -0.5 1.5
vt 2.200001 -1.199999
vt 1.5 -0.4999994
vt -1.2 -1.2
vt -0.5 -0.4999999
vt -0.5 -1.69
vt 1.5 -1.69
vt 1.5 -3.29
vt -0.5 -3.29
vt -0.4999999 -1.69
vt 1.5 -1.69
vt 1.5 -3.29
vt -0.4999999 -3.29
vt -0.5 -1.69
vt 1.5 -1.69
vt 1.5 -3.29
vt -0.5 -3.29
vt -0.5000006 -1.69
vt 1.499999 -1.69
vt 1.499999 -3.29
vt -0.5000006 -3.29
vt 1.5 1.500001
vt 1.5 -0.4999994
vt -0.5 -0.4999999
vt -0.5 1.5
vt -0.5 4.29
vt 1.5 4.29
vt 1.5 3.58
vt -0.5 3.58
vt -0.5000002 4.29
vt 1.5 4.29
vt 1.5 3.58
vt -0.5000002 3.58
vt -0.5 4.29
vt 1.5 4.29
vt 1.5 3.58
vt -0.5 3.58
vt 1.5 1.5
vt 1.5 -0.5000002
vt -0.5 -0.4999998
vt -0.5 1.5
vt -0.5000002 3.58
vt 1.5 3.58
vt 1.499999 3.31
vt -0.5000005 3.310001
vt -0.5000002 4.29
vt 1.5 4.29
vt 2.2 0.3100005
vt 2.2 2.310005
vt 3.2 2.310005
vt 3.2 0.3100005
vt -2.2 0.3100005
vt -2.2 2.310005
vt -1.2 2.310005
vt -1.2 0.3100005
vt -1.200001 0.3100005
vt -1.200001 2.310005
vt 2.199999 2.310005
vt 2.199999 0.3100005
vt 2.2 0.3100005
vt 2.2 2.310005
vt 3.2 2.310005
vt 3.2 0.3100005
vt -2.200001 0.3100005
vt -2.200001 2.310005
vt -1.200001 2.310005
vt -1.200001 0.3100005
vt -1.200001 0.3100005
vt -1.200001 2.310005
vt 2.199999 2.310005
vt 2.199999 0.3100005
vt 2.2 0.3100005
vt 2.2 2.310005
vt 3.2 2.310005
vt 3.2 0.3100005
vt -2.2 0.3100005
vt -2.2 2.310005
vt -1.2 2.310005
vt -1.2 0.3100005
vt -1.200001 0.3100005
vt -1.200001 2.310005
vt 2.199999 2.310005
vt 2.199999 0.3100005
vt 2.199999 0.3100005
vt 2.199999 2.310005
vt 3.2 2.310005
vt 3.2 0.3100005
vt -2.200001 0.3100005
vt -2.200001 2.310005
vt -1.200001 2.310005
vt -1.200001 0.3100005
vt -1.200001 0.3100005
vt -1.200001 2.310005
vt 2.199999 2.310005
vt 2.199999 0.3100005
vt -1.200001 -1.199999
vt 2.2 -1.2
vt 2.199999 -2.2
vt -1.200001 -2.2
vt -1.2 2.2
vt -1.200001 -1.199999
vt -2.200001 -1.199999
vt -2.2 2.200001
vt -0.5 -0.4999998
vt 1.5 -0.5000002
vt 2.2 -1.2
vt -1.200001 -1.2
vt -1.2 2.2
vt -0.5 1.5
vt 1.500001 2.2
vt 1.5 1.5
vt 2.2 -0.5000005
vt 2.2 -0.5000004
vt 3.200001 2.199999
vt 3.2 -1.200001
vt 2.2 -1.2
vt 2.200001 2.2
vt 1.5 1.499999
vt 1.500001 2.2
vt 2.200001 3.2
vt -1.199999 3.2
vt -1.2 2.2
vt 1.5 -0.5000005
vn 1.90735E-07 1 0
vn 1.525879E-07 1 0
vn 2.288816E-07 1 0
vn 1.751073E-07 1 0
vn -1 0 0
vn -1 0 0
vn -1 0 0
vn -1 0 0
vn 0 1 0
vn 0 1 0
vn 0 1 0
vn 0 1 0
vn 1 0 0
vn 1 0 0
vn 1 0 0
vn 1 0 0
vn 0 1 0
vn 0 1 1.525885E-07
vn 0 1 1.525885E-07
vn 0 1 0
vn 1 0 0
vn 1 0 0
vn 1 0 0
vn 1 0 0
vn -1.144408E-07 -1 0
vn 0 -1 0
vn 0 -1 0
vn -1.300685E-07 -1 0
vn 1 0 0
vn 1 0 0
vn 1 0 0
vn 1 0 0
vn 0 -1 0
vn 0 -1 0
vn 0 -1 0
vn 0 -1 0
vn -1 0 0
vn -1 0 0
vn -1 0 0
vn -1 0 0
vn -3.051758E-07 -1 0
vn -3.051758E-07 -1 0
vn -1.525879E-07 -1 0
vn -3.051758E-07 -1 0
vn -1 0 0
vn -1 0 0
vn -1 0 0
vn -1 0 0
vn 0 -1 0
vn 0 -1 0
vn 0 -1 0
vn -1.525879E-07 -1 0
vn -1 0 0
vn -1 0 0
vn -1 0 0
vn -1 0 0
vn 0 1 0
vn 0 1 0
vn 1.525879E-07 1 0
vn 0 1 0
vn 1 0 0
vn 1 0 0
vn 1 0 0
vn 1 0 0
vn 1 0 0
vn 1 0 0
vn 1 0 0
vn 1 0 0
vn -2.503446E-07 1 -1.98669E-07
vn 0 0.08916803 -0.9960166
vn 0 1 -6.490417E-07
vn -3.269741E-07 1 0
vn 0 0 -1
vn 0 0 -1
vn 0 0 -1
vn 0 0 -1
vn 0 0 -1
vn 0 0 -1
vn 0 0 -1
vn 0 0 -1
vn 0 0 -1
vn 0 0 -1
vn 0 0 -1
vn 0 0 -1
vn 0 0 -1
vn 0 0 -1
vn 0 0 -1
vn 0 0 -1
vn -1.525879E-07 -1 0
vn 0 -1 0
vn 0 -1 0
vn 0 -1 0
vn 1 0 0
vn 1 0 0
vn 1 0 0
vn 1 0 0
vn 0 1 0
vn 1.300685E-07 1 0
vn 0 1 0
vn 0 1 0
vn -1 0 0
vn -1 0 0
vn -1 0 0
vn -1 0 0
vn 0 0 -1
vn 0 0 -1
vn 0 0 -1
vn 0 0 -1
vn 0 0 -1
vn 0 0 -1
vn 0 0 -1
vn 0 0 -1
vn 0 -1 0
vn 0 -1 0
vn 0 -1 0
vn 0 -1 0
vn 1 0 0
vn 1 0 0
vn 1 0 0
vn 1 0 0
vn 0 1 0
vn 0 1 0
vn 0 1 0
vn 0 1 0
vn -1 0 0
vn -1 0 0
vn -1 0 0
vn -1 0 0
vn 0 0 -1
vn 0 0 -1
vn 0 0 -1
vn 0 0 -1
vn 0 -1 0
vn 0 -1 0
vn 0 0.08916803 -0.9960166
vn 0 -1 0
vn -1 0 0
vn -1 0 0
vn -1 0 0
vn -1 0 0
vn 0 1 0
vn 0 1 0
vn 0 1 0
vn 0 1 0
vn 0 0 1
vn 0 0 1
vn 0 0 1
vn 0 0 1
vn 1 0 0
vn 1 0 0
vn 1 0 0
vn 1 0 0
vn 1 0 0
vn 1 0 0
vn 1.300685E-07 1 0
vn 1.90735E-07 1 0
vn 1.751073E-07 1 0
vn 3.051758E-07 1 0
vn -1 0 0
vn -1 0 0
vn -1 0 0
vn -1 0 0
vn 0 1 0
vn 0 1 0
vn 0 1 0
vn 0 1 0
vn 1 0 0
vn 1 0 0
vn 1 0 0
vn 1 0 0
vn 0 1 0
vn 0 1 0
vn 0 1 0
vn 0 1 0
vn 1 0 0
vn 1 0 0
vn 1 0 0
vn 1 0 0
vn 0 -1 0
vn -1.144408E-07 -1 0
vn -1.300685E-07 -1 0
vn 0 -1 0
vn 1 0 0
vn 1 0 0
vn 1 0 0
vn 1 0 0
vn 0 -1 0
vn 0 -1 0
vn 0 -1 0
vn 0 -1 0
vn -1 0 0
vn -1 0 0
vn -1 0 0
vn -1 0 0
vn -3.051758E-07 -1 0
vn -3.051758E-07 -1 0
vn -3.051758E-07 -1 0
vn -1.525879E-07 -1 0
vn -1 0 0
vn -1 0 0
vn -1 0 0
vn -1 0 0
vn 0 0 1
vn 0 0 1
vn 0 0 1
vn 0 0 1
vn 0 0 1
vn 0 0 1
vn 0 0 1
vn 0 0 1
vn 0 0 1
vn 0 0 1
vn 0 0 1
vn 0 0 1
vn 0 0 1
vn 0 0 1
vn 0 0 1
vn 0 0 1
vn 0 0 1
vn 0 0 1
vn 0 0 1
vn 0 0 1
vn 0 0 1
vn 0 0 1
vn 0 0 1
vn 0 0 1
vn 0 0 1
vn 0 0 1
vn 0 0 1
vn 0 0 1
g sky_islands2_sky_rock_0
f 3/3/3 2/2/2 1/1/1
f 4/4/4 3/3/3 1/1/1
f 7/7/7 6/6/6 5/5/5
f 8/8/8 7/7/7 5/5/5
f 11/11/11 10/10/10 9/9/9
f 12/12/12 11/11/11 9/9/9
f 15/15/15 14/14/14 13/13/13
f 16/16/16 15/15/15 13/13/13
f 19/19/19 18/18/18 17/17/17
f 20/20/20 19/19/19 17/17/17
f 23/23/23 22/22/22 21/21/21
f 24/24/24 23/23/23 21/21/21
f 27/27/27 26/26/26 25/25/25
f 28/28/28 27/27/27 25/25/25
f 31/31/31 30/30/30 29/29/29
f 32/32/32 31/31/31 29/29/29
f 35/35/35 34/34/34 33/33/33
f 36/36/36 35/35/35 33/33/33
f 39/39/39 38/38/38 37/37/37
f 40/40/40 39/39/39 37/37/37
f 43/43/43 42/42/42 41/41/41
f 44/44/44 43/43/43 41/41/41
f 47/47/47 46/46/46 45/45/45
f 48/48/48 47/47/47 45/45/45
f 51/51/51 50/50/50 49/49/49
f 52/52/52 51/51/51 49/49/49
f 55/55/55 54/54/54 53/53/53
f 56/56/56 55/55/55 53/53/53
f 59/59/59 58/58/58 57/57/57
f 60/60/60 59/59/59 57/57/57
f 63/63/63 62/62/62 61/61/61
f 64/64/64 63/63/63 61/61/61
f 67/67/67 66/66/66 65/65/65
f 68/68/68 67/67/67 65/65/65
f 71/71/71 70/70/70 69/69/69
f 72/72/72 71/71/71 69/69/69
g sky_islands2_sky_rock_1
f 75/75/75 74/74/74 73/73/73
f 76/76/76 75/75/75 73/73/73
f 79/79/79 78/78/78 77/77/77
f 80/80/80 79/79/79 77/77/77
f 83/83/83 82/82/82 81/81/81
f 84/84/84 83/83/83 81/81/81
f 87/87/87 86/86/86 85/85/85
f 88/88/88 87/87/87 85/85/85
f 91/91/91 90/90/90 89/89/89
f 92/92/92 91/91/91 89/89/89
f 95/95/95 94/94/94 93/93/93
f 96/96/96 95/95/95 93/93/93
f 99/99/99 98/98/98 97/97/97
f 100/100/100 99/99/99 97/97/97
f 103/103/103 102/102/102 101/101/101
f 104/104/104 103/103/103 101/101/101
f 107/107/107 106/106/106 105/105/105
f 108/108/108 107/107/107 105/105/105
f 106/106/106 107/107/107 109/109/109
f 107/107/107 110/110/110 109/109/109
f 109/109/109 110/110/110 111/111/111
f 108/108/108 105/105/105 111/111/111
f 110/110/110 112/112/112 111/111/111
f 112/112/112 108/108/108 111/111/111
f 115/115/115 114/114/114 113/113/113
f 116/116/116 115/115/115 113/113/113
f 119/119/119 118/118/118 117/117/117
f 120/120/120 119/119/119 117/117/117
f 123/123/123 122/122/122 121/121/121
f 124/124/124 123/123/123 121/121/121
f 127/127/127 126/126/126 125/125/125
f 128/128/128 127/127/127 125/125/125
f 131/131/131 130/130/130 129/129/129
f 132/132/132 131/131/131 129/129/129
f 135/135/135 134/134/134 133/133/133
f 136/136/136 135/135/135 133/133/133
f 139/139/139 138/138/138 137/137/137
f 140/140/140 139/139/139 137/137/137
f 143/143/143 142/142/142 141/141/141
f 144/144/144 143/143/143 141/141/141
f 147/147/147 146/146/146 145/145/145
f 148/148/148 147/147/147 145/145/145
f 151/151/151 150/150/150 149/149/149
f 152/152/152 151/151/151 149/149/149
f 149/149/149 150/150/150 153/153/153
f 150/150/150 154/154/154 153/153/153
f 157/157/157 156/156/156 155/155/155
f 158/158/158 157/157/157 155/155/155
f 161/161/161 160/160/160 159/159/159
f 162/162/162 161/161/161 159/159/159
f 165/165/165 164/164/164 163/163/163
f 166/166/166 165/165/165 163/163/163
f 169/169/169 168/168/168 167/167/167
f 170/170/170 169/169/169 167/167/167
f 173/173/173 172/172/172 171/171/171
f 174/174/174 173/173/173 171/171/171
f 177/177/177 176/176/176 175/175/175
f 178/178/178 177/177/177 175/175/175
f 181/181/181 180/180/180 179/179/179
f 182/182/182 181/181/181 179/179/179
f 185/185/185 184/184/184 183/183/183
f 186/186/186 185/185/185 183/183/183
f 189/189/189 188/188/188 187/187/187
f 190/190/190 189/189/189 187/187/187
f 193/193/193 192/192/192 191/191/191
f 194/194/194 193/193/193 191/191/191
f 197/197/197 196/196/196 195/195/195
f 198/198/198 197/197/197 195/195/195
f 201/201/201 200/200/200 199/199/199
f 202/202/202 201/201/201 199/199/199
g sky_islands2_sky_rock_2
f 205/205/205 204/204/204 203/203/203
f 206/206/206 205/205/205 203/203/203
f 209/209/209 208/208/208 207/207/207
f 210/210/210 209/209/209 207/207/207
f 213/213/213 212/212/212 211/211/211
f 214/214/214 213/213/213 211/211/211
f 215/215/215 214/214/214 211/211/211
f 216/216/216 215/215/215 211/211/211
f 217/217/217 215/215/215 216/216/216
f 218/218/218 217/217/217 216/216/216
f 213/213/213 219/219/219 212/212/212
f 222/222/222 221/221/221 220/220/220
f 223/223/223 222/222/222 220/220/220
f 220/220/220 221/221/221 224/224/224
f 220/220/220 224/224/224 225/225/225
f 224/224/224 226/226/226 225/225/225
f 224/224/224 227/227/227 226/226/226
f 227/227/227 228/228/228 226/226/226
f 228/228/228 229/229/229 226/226/226
f 220/220/220 225/225/225 230/230/230
