g SM_Glass_1_Mesh
v 2.736842 4.007155 0.6899987
v -2.687637 4.007155 -3.000001
v -2.687637 4.007155 0.6899987
v 2.736842 4.007155 -3.000001
v 2.736842 4.132155 0.6899987
v 2.736842 4.007155 -3.000001
v 2.736842 4.007155 0.6899987
v 2.736842 4.132155 -3.000001
v -2.687637 4.132155 0.6899987
v 2.736842 4.132155 -3.000001
v 2.736842 4.132155 0.6899987
v -2.687637 4.132155 -3.000001
v -2.687637 4.007155 0.6899987
v -2.687637 4.132155 -3.000001
v -2.687637 4.132155 0.6899987
v -2.687637 4.007155 -3.000001
v -10.04423 -3.953111 2.999996
v -10.04423 1.684927 0.6900009
v -10.04423 -3.953111 0.6899966
v -10.04423 1.684927 3.000001
v -10.16923 1.684927 3.000001
v -10.16923 -3.953111 0.6899963
v -10.16923 1.684927 0.6900009
v -10.16923 -3.953111 2.999996
v 10.20669 -3.997305 2.873252
v 10.20669 1.640733 0.6192145
v 10.20669 -3.997303 0.6192102
v 10.20669 1.640731 2.873255
v 10.1384 1.640731 2.873255
v 10.1384 -3.997303 0.6192108
v 10.1384 1.640733 0.6192148
v 10.1384 -3.997305 2.873252
v 10.16923 0.5924553 0.5676736
v 10.16923 1.664568 -3.038176
v 10.16923 0.5924556 -3.038183
v 10.16923 1.664568 0.5676818
v 10.04423 1.664568 0.5676818
v 10.04423 0.5924556 -3.038183
v 10.04423 1.664568 -3.038176
v 10.04423 0.5924553 0.5676736
v 10.16923 -3.944229 0.5676779
v 10.16923 -2.872117 -3.038171
v 10.16923 -3.944229 -3.038179
v 10.16923 -2.872117 0.5676861
v 10.04423 -2.872117 0.5676861
v 10.04423 -3.944229 -3.038179
v 10.04423 -2.872117 -3.038171
v 10.04423 -3.944229 0.5676779
v -10.02707 0.5440568 0.5676733
v -10.02707 1.664568 -3.038176
v -10.02707 0.544057 -3.038183
v -10.02707 1.664568 0.5676818
v -10.1708 1.664568 0.5676818
v -10.1708 0.5445462 -3.038183
v -10.1708 1.664568 -3.038176
v -10.1708 0.5445461 0.5676733
v -10.05514 -3.944229 0.5676779
v -10.05514 -2.872117 -3.038171
v -10.05514 -3.944229 -3.038179
v -10.05514 -2.872117 0.5676861
v -10.16892 -2.872117 0.5676861
v -10.16892 -3.944229 -3.038179
v -10.16892 -2.872117 -3.038171
v -10.16892 -3.944229 0.5676779
v -7.259472 3.947388 2.999999
v 7.252441 3.947388 0.6899987
v -7.259472 3.947388 0.6899987
v 7.252441 3.947388 2.999999
v 7.252441 4.072388 2.999999
v -7.259472 4.072387 0.6899987
v 7.252441 4.072388 0.6899987
v -7.259472 4.072388 2.999999
v -9.989003 -2.463793 -2.884334
v -9.989005 -1.306486 0.3397937
v -9.989007 -2.463788 0.3397928
v -9.988999 -1.306488 -2.884335
v -9.989002 -0.4241182 -2.84136
v -9.989006 0.7023363 0.2968185
v -9.989007 -0.4241151 0.2968179
v -9.989 0.7023351 -2.84136
vt 0.007910565 0.4936699
vt 0.1750404 0.3799799
vt 0.1750404 0.4936699
vt 0.007910565 0.3799799
vt 0.1788917 0.4936699
vt 0.1750404 0.3799799
vt 0.1750404 0.4936699
vt 0.1788917 0.3799799
vt 0.1750404 0.4936699
vt 0.007910565 0.3799799
vt 0.007910565 0.4936699
vt 0.1750404 0.3799799
vt 0.1788916 0.4936699
vt 0.1750404 0.3799799
vt 0.1750404 0.4936699
vt 0.1788916 0.3799799
vt 0.3152667 0.3562667
vt 0.1367586 0.2850895
vt 0.3134193 0.2850928
vt 0.1367586 0.3562613
vt 0.1367586 0.3562649
vt 0.3123237 0.2850895
vt 0.1367586 0.2850932
vt 0.3104682 0.3562648
vt 0.178781 0.3545369
vt 0.005071267 0.2850895
vt 0.1787809 0.2850893
vt 0.005071357 0.3545372
vt 0.005071387 0.3545373
vt 0.178781 0.2850895
vt 0.005071327 0.2850896
vt 0.178781 0.3545371
vt 0.09017621 0.4914753
vt 0.05714418 0.380378
vt 0.09017621 0.3803779
vt 0.05714415 0.4914756
vt 0.05714415 0.4914758
vt 0.09017618 0.3803781
vt 0.05714415 0.3803782
vt 0.09017618 0.4914755
vt 0.1875417 0.4900344
vt 0.2205738 0.3789372
vt 0.1875417 0.378937
vt 0.2205738 0.4900348
vt 0.1875417 0.490035
vt 0.2205738 0.3789372
vt 0.1875417 0.3789374
vt 0.2205738 0.4900346
vt 0.1860505 0.4900344
vt 0.2205738 0.3789372
vt 0.1860505 0.378937
vt 0.2205738 0.4900348
vt 0.2205738 0.490035
vt 0.1860656 0.3789372
vt 0.2205738 0.3789374
vt 0.1860656 0.4900346
vt 0.1875417 0.4900344
vt 0.2205738 0.3789372
vt 0.1875417 0.378937
vt 0.2205738 0.4900348
vt 0.2205738 0.490035
vt 0.1875417 0.3789372
vt 0.2205738 0.3789374
vt 0.1875417 0.4900346
vt 0.4519711 0.3562613
vt 0.004854798 0.2850895
vt 0.4519711 0.2850895
vt 0.004854798 0.3562613
vt 0.005071329 0.3562613
vt 0.4521877 0.2850895
vt 0.005071329 0.2850895
vt 0.4521877 0.3562613
vt 0.05205733 0.381387
vt 0.08900053 0.484307
vt 0.05205733 0.484307
vt 0.08900053 0.381387
vt 0.2148702 0.2828204
vt 0.177927 0.3857404
vt 0.2148702 0.3857404
vt 0.177927 0.2828204
vn 0 -1 0
vn 0 -1 0
vn 0 -1 0
vn 0 -1 0
vn 1 0 0
vn 1 0 0
vn 1 0 0
vn 1 0 0
vn 0 1 0
vn 0 1 0
vn 0 1 0
vn 0 1 0
vn -1 0 0
vn -1 0 0
vn -1 0 0
vn -1 0 0
vn 1 0 0
vn 1 0 0
vn 1 0 0
vn 1 0 0
vn -1 0 0
vn -1 0 0
vn -1 0 0
vn -1 0 0
vn 1 0 0
vn 1 0 0
vn 1 0 0
vn 1 0 0
vn -1 0 0
vn -1 0 0
vn -1 0 0
vn -1 0 0
vn 1 0 0
vn 1 0 0
vn 1 0 0
vn 1 0 0
vn -1 0 0
vn -1 0 0
vn -1 0 0
vn -1 0 0
vn 1 0 0
vn 1 0 0
vn 1 0 0
vn 1 0 0
vn -1 0 0
vn -1 0 0
vn -1 0 0
vn -1 0 0
vn 1 0 0
vn 1 0 0
vn 1 0 0
vn 1 0 0
vn -1 0 0
vn -1 0 0
vn -1 0 0
vn -1 0 0
vn 1 0 0
vn 1 0 0
vn 1 0 0
vn 1 0 0
vn -1 0 0
vn -1 0 0
vn -1 0 0
vn -1 0 0
vn 0 -1 0
vn 0 -1 0
vn 0 -1 0
vn 0 -1 0
vn 0 1 0
vn 0 1 0
vn 0 1 0
vn 0 1 0
vn -1 0 0
vn -1 0 0
vn -1 0 0
vn -1 0 0
vn -1 0 0
vn -1 0 0
vn -1 0 0
vn -1 0 0
g SM_Glass_1_Mesh_0
f 3/3/3 2/2/2 1/1/1
f 4/4/4 1/1/1 2/2/2
f 7/7/7 6/6/6 5/5/5
f 8/8/8 5/5/5 6/6/6
f 11/11/11 10/10/10 9/9/9
f 12/12/12 9/9/9 10/10/10
f 15/15/15 14/14/14 13/13/13
f 16/16/16 13/13/13 14/14/14
f 19/19/19 18/18/18 17/17/17
f 20/20/20 17/17/17 18/18/18
f 23/23/23 22/22/22 21/21/21
f 24/24/24 21/21/21 22/22/22
f 27/27/27 26/26/26 25/25/25
f 28/28/28 25/25/25 26/26/26
f 31/31/31 30/30/30 29/29/29
f 32/32/32 29/29/29 30/30/30
f 35/35/35 34/34/34 33/33/33
f 36/36/36 33/33/33 34/34/34
f 39/39/39 38/38/38 37/37/37
f 40/40/40 37/37/37 38/38/38
f 43/43/43 42/42/42 41/41/41
f 44/44/44 41/41/41 42/42/42
f 47/47/47 46/46/46 45/45/45
f 48/48/48 45/45/45 46/46/46
f 51/51/51 50/50/50 49/49/49
f 52/52/52 49/49/49 50/50/50
f 55/55/55 54/54/54 53/53/53
f 56/56/56 53/53/53 54/54/54
f 59/59/59 58/58/58 57/57/57
f 60/60/60 57/57/57 58/58/58
f 63/63/63 62/62/62 61/61/61
f 64/64/64 61/61/61 62/62/62
f 67/67/67 66/66/66 65/65/65
f 68/68/68 65/65/65 66/66/66
f 71/71/71 70/70/70 69/69/69
f 72/72/72 69/69/69 70/70/70
f 75/75/75 74/74/74 73/73/73
f 76/76/76 73/73/73 74/74/74
f 79/79/79 78/78/78 77/77/77
f 80/80/80 77/77/77 78/78/78
