g Small_doors_field
v 16.91777 -9.098503 -1.327599E-07
v 17.49463 -8.099357 -1.327599E-07
v 17.49463 -8.099355 1
v 16.91777 -9.098503 1.000001
v 17.56866 -8.147897 1
v 17.56866 -8.147898 1.982792E-08
v 16.99306 -9.144871 1.982797E-08
v 16.99306 -9.144871 1.000001
v 17.56866 -8.147897 1
v 16.99306 -9.144871 1.000001
v 16.91777 -9.098503 1.000001
v 17.49463 -8.099355 1
v 17.52416 -5.759857 -1.447865E-07
v 17.03658 -4.714236 -1.447865E-07
v 17.03658 -4.714236 1
v 17.52416 -5.759857 1
v 17.60427 -5.722503 1
v 17.11774 -4.679157 1
v 17.11775 -4.679156 7.801339E-09
v 17.60427 -5.722502 7.801339E-09
v 17.52416 -5.759857 1
v 17.03658 -4.714236 1
v 17.11774 -4.679157 1
v 17.60427 -5.722503 1
v 16.99306 -9.144871 1.000001
v 16.99306 -9.144871 1.982797E-08
v 16.91777 -9.098503 -1.327599E-07
v 16.91777 -9.098503 1.000001
v 17.11775 -4.679156 7.801339E-09
v 17.11774 -4.679157 1
v 17.03658 -4.714236 1
v 17.03658 -4.714236 -1.447865E-07
v 16.91777 4.630157 -1.525879E-07
v 17.49463 5.629304 -1.525879E-07
v 17.49463 5.629305 1
v 16.91777 4.630157 1
v 17.56866 5.580764 1
v 17.56866 5.580763 -4.744088E-15
v 16.99306 4.58379 2.739075E-15
v 16.99306 4.58379 1
v 17.56866 5.580764 1
v 16.99306 4.58379 1
v 16.91777 4.630157 1
v 17.49463 5.629305 1
v 17.52416 7.990581 -1.491544E-07
v 17.03658 9.036202 -1.491544E-07
v 17.03658 9.036202 1
v 17.52416 7.990581 1
v 17.60427 8.027935 1
v 17.11774 9.071281 1
v 17.11775 9.071282 3.433473E-09
v 17.60427 8.027936 3.43348E-09
v 17.52416 7.990581 1
v 17.03658 9.036202 1
v 17.11774 9.071281 1
v 17.60427 8.027935 1
v 16.99306 4.58379 1
v 16.99306 4.58379 2.739075E-15
v 16.91777 4.630157 -1.525879E-07
v 16.91777 4.630157 1
v 17.11775 9.071282 3.433473E-09
v 17.11774 9.071281 1
v 17.03658 9.036202 1
v 17.03658 9.036202 -1.491544E-07
v -16.88025 8.934601 -1.525879E-07
v -17.45712 7.935454 -1.525879E-07
v -17.45711 7.935453 1
v -16.88025 8.934601 1
v -17.53115 7.983994 1
v -17.53115 7.983995 4.009005E-15
v -16.95555 8.980968 -1.105265E-14
v -16.95554 8.980968 1
v -17.53115 7.983994 1
v -16.95554 8.980968 1
v -16.88025 8.934601 1
v -17.45711 7.935453 1
v -17.48664 5.652726 -1.525879E-07
v -16.99907 4.607105 -1.525879E-07
v -16.99906 4.607105 1
v -17.48664 5.652726 1
v -17.56675 5.615373 1
v -17.08023 4.572026 1
v -17.08023 4.572025 5.060706E-16
v -17.56675 5.615371 1.050499E-15
v -17.48664 5.652726 1
v -16.99906 4.607105 1
v -17.08023 4.572026 1
v -17.56675 5.615373 1
v -16.95554 8.980968 1
v -16.95555 8.980968 -1.105265E-14
v -16.88025 8.934601 -1.525879E-07
v -16.88025 8.934601 1
v -17.08023 4.572025 5.060706E-16
v -17.08023 4.572026 1
v -16.99906 4.607105 1
v -16.99907 4.607105 -1.525879E-07
v -16.88026 -4.720038 -1.440325E-07
v -17.45712 -5.719186 -1.440325E-07
v -17.45711 -5.719187 1
v -16.88025 -4.720038 1
v -17.53115 -5.670646 1
v -17.53115 -5.670644 8.555371E-09
v -16.95555 -4.673671 8.55537E-09
v -16.95554 -4.673671 1
v -17.53115 -5.670646 1
v -16.95554 -4.673671 1
v -16.88025 -4.720038 1
v -17.45711 -5.719187 1
v -17.48665 -8.099629 -1.366203E-07
v -16.99907 -9.145251 -1.366203E-07
v -16.99907 -9.145251 1.000001
v -17.48665 -8.099629 1
v -17.56676 -8.136983 1
v -17.08024 -9.18033 1
v -17.08024 -9.18033 1.596753E-08
v -17.56676 -8.136985 1.596756E-08
v -17.48665 -8.099629 1
v -16.99907 -9.145251 1.000001
v -17.08024 -9.18033 1
v -17.56676 -8.136983 1
v -16.95554 -4.673671 1
v -16.95555 -4.673671 8.55537E-09
v -16.88026 -4.720038 -1.440325E-07
v -16.88025 -4.720038 1
v -17.08024 -9.18033 1.596753E-08
v -17.08024 -9.18033 1
v -16.99907 -9.145251 1.000001
v -16.99907 -9.145251 -1.366203E-07
vt 0.2822266 0.07910156
vt 0.2822266 0.1074219
vt 0.3154297 0.1074219
vt 0.3154297 0.07910156
vt 0.6514746 0.9226065
vt 0.5805426 0.9226065
vt 0.5805426 0.9842216
vt 0.6514746 0.9842218
vt 0.546875 0.9931641
vt 0.4833984 0.9931641
vt 0.4833984 0.9980469
vt 0.5478516 0.9980469
vt 0.3154297 0.07910156
vt 0.3154297 0.1074219
vt 0.3486328 0.1074219
vt 0.3486328 0.07910156
vt 0.5805426 0.9842216
vt 0.5805426 0.9226065
vt 0.5096105 0.9226065
vt 0.5096105 0.9842215
vt 0.4833984 0.9980469
vt 0.4833984 0.9931641
vt 0.4189453 0.9931641
vt 0.4189453 0.9980469
vt 0.2802734 0.078125
vt 0.2773438 0.078125
vt 0.2773438 0.1074219
vt 0.2802734 0.1074219
vt 0.2773438 0.1074219
vt 0.2802734 0.1074219
vt 0.2802734 0.078125
vt 0.2773438 0.078125
vt 0.3164063 0.078125
vt 0.3164063 0.1074219
vt 0.3505859 0.1074219
vt 0.3505859 0.078125
vt 0.6514746 0.9226065
vt 0.5805426 0.9226065
vt 0.5805426 0.9842216
vt 0.6514746 0.9842218
vt 0.4619141 0.9941406
vt 0.3935547 0.9941406
vt 0.3935547 0.9980469
vt 0.4619141 0.9980469
vt 0.3261719 0.078125
vt 0.3261719 0.1074219
vt 0.359375 0.1074219
vt 0.359375 0.078125
vt 0.5805426 0.9842216
vt 0.5805426 0.9226065
vt 0.5096105 0.9226065
vt 0.5096105 0.9842215
vt 0.4482422 0.9980469
vt 0.4482422 0.9941406
vt 0.3916016 0.9941406
vt 0.3916016 0.9980469
vt 0.2978516 0.078125
vt 0.2949219 0.078125
vt 0.2949219 0.1074219
vt 0.2978516 0.1074219
vt 0.2861328 0.1074219
vt 0.2880859 0.1074219
vt 0.2880859 0.078125
vt 0.2861328 0.078125
vt 0.3164063 0.078125
vt 0.3164063 0.1074219
vt 0.3505859 0.1074219
vt 0.3505859 0.078125
vt 0.6514746 0.9226065
vt 0.5805426 0.9226065
vt 0.5805426 0.9842216
vt 0.6514746 0.9842218
vt 0.546875 0.9931641
vt 0.4833984 0.9931641
vt 0.4833984 0.9980469
vt 0.5478516 0.9980469
vt 0.2890625 0.078125
vt 0.2890625 0.1074219
vt 0.3222656 0.1074219
vt 0.3222656 0.078125
vt 0.5805426 0.9842216
vt 0.5805426 0.9226065
vt 0.5096105 0.9226065
vt 0.5096105 0.9842215
vt 0.4833984 0.9980469
vt 0.4833984 0.9931641
vt 0.4189453 0.9931641
vt 0.4189453 0.9980469
vt 0.2802734 0.078125
vt 0.2773438 0.078125
vt 0.2773438 0.1074219
vt 0.2802734 0.1074219
vt 0.2773438 0.1074219
vt 0.2802734 0.1074219
vt 0.2802734 0.078125
vt 0.2773438 0.078125
vt 0.2822266 0.07910156
vt 0.2822266 0.1074219
vt 0.3154297 0.1074219
vt 0.3154297 0.07910156
vt 0.6514746 0.9226065
vt 0.5805426 0.9226065
vt 0.5805426 0.9842216
vt 0.6514746 0.9842218
vt 0.546875 0.9931641
vt 0.4833984 0.9931641
vt 0.4833984 0.9980469
vt 0.5478516 0.9980469
vt 0.3242188 0.07714844
vt 0.3242188 0.1074219
vt 0.359375 0.1074219
vt 0.359375 0.07714844
vt 0.5805426 0.9842216
vt 0.5805426 0.9226065
vt 0.5096105 0.9226065
vt 0.5096105 0.9842215
vt 0.4833984 0.9980469
vt 0.4833984 0.9931641
vt 0.4189453 0.9931641
vt 0.4189453 0.9980469
vt 0.2802734 0.078125
vt 0.2773438 0.078125
vt 0.2773438 0.1074219
vt 0.2802734 0.1074219
vt 0.2773438 0.1074219
vt 0.2802734 0.1074219
vt 0.2802734 0.078125
vt 0.2773438 0.078125
vn -0.8660253 0.5000002 0
vn -0.8660253 0.5000002 0
vn -0.8660253 0.5000002 0
vn -0.8660253 0.5000002 0
vn 0.8660256 -0.4999998 0
vn 0.8660256 -0.4999998 0
vn 0.8660256 -0.4999998 0
vn 0.8660256 -0.4999998 0
vn 0 0 1
vn 0 0 1
vn 0 0 1
vn 0 0 1
vn -0.906308 -0.4226178 0
vn -0.906308 -0.4226178 0
vn -0.906308 -0.4226178 0
vn -0.906308 -0.4226178 0
vn 0.9063074 0.4226191 0
vn 0.9063074 0.4226191 0
vn 0.9063074 0.4226191 0
vn 0.9063074 0.4226191 0
vn 0 0 1
vn 0 0 1
vn 0 0 1
vn 0 0 1
vn -0.5243747 -0.8514877 0
vn -0.5243747 -0.8514877 0
vn -0.5243747 -0.8514877 0
vn -0.5243747 -0.8514877 0
vn -0.3967256 0.9179373 0
vn -0.3967256 0.9179373 0
vn -0.3967256 0.9179373 0
vn -0.3967256 0.9179373 0
vn -0.8660252 0.5000004 0
vn -0.8660252 0.5000004 0
vn -0.8660252 0.5000004 0
vn -0.8660252 0.5000004 0
vn 0.8660256 -0.4999997 0
vn 0.8660256 -0.4999997 0
vn 0.8660256 -0.4999997 0
vn 0.8660256 -0.4999997 0
vn 0 0 1
vn 0 0 1
vn 0 0 1
vn 0 0 1
vn -0.906308 -0.4226178 0
vn -0.906308 -0.4226178 0
vn -0.906308 -0.4226178 0
vn -0.906308 -0.4226178 0
vn 0.9063074 0.4226191 0
vn 0.9063074 0.4226191 0
vn 0.9063074 0.4226191 0
vn 0.9063074 0.4226191 0
vn 0 0 1
vn 0 0 1
vn 0 0 1
vn 0 0 1
vn -0.5243747 -0.8514877 0
vn -0.5243747 -0.8514877 0
vn -0.5243747 -0.8514877 0
vn -0.5243747 -0.8514877 0
vn -0.3967271 0.9179367 0
vn -0.3967271 0.9179367 0
vn -0.3967271 0.9179367 0
vn -0.3967271 0.9179367 0
vn 0.8660252 -0.5000004 0
vn 0.8660252 -0.5000004 0
vn 0.8660252 -0.5000004 0
vn 0.8660252 -0.5000004 0
vn -0.866025 0.5000007 0
vn -0.866025 0.5000007 0
vn -0.866025 0.5000007 0
vn -0.866025 0.5000007 0
vn 0 0 1
vn 0 0 1
vn 0 0 1
vn 0 0 1
vn 0.9063089 0.4226159 0
vn 0.9063089 0.4226159 0
vn 0.9063089 0.4226159 0
vn 0.9063089 0.4226159 0
vn -0.9063084 -0.4226169 0
vn -0.9063084 -0.4226169 0
vn -0.9063084 -0.4226169 0
vn -0.9063084 -0.4226169 0
vn 0 0 1
vn 0 0 1
vn 0 0 1
vn 0 0 1
vn 0.5243889 0.8514789 0
vn 0.5243889 0.8514789 0
vn 0.5243889 0.8514789 0
vn 0.5243889 0.8514789 0
vn 0.396722 -0.9179388 0
vn 0.396722 -0.9179388 0
vn 0.396722 -0.9179388 0
vn 0.396722 -0.9179388 0
vn 0.8660256 -0.4999997 0
vn 0.8660256 -0.4999997 0
vn 0.8660256 -0.4999997 0
vn 0.8660256 -0.4999997 0
vn -0.866025 0.5000007 0
vn -0.866025 0.5000007 0
vn -0.866025 0.5000007 0
vn -0.866025 0.5000007 0
vn 0 0 1
vn 0 0 1
vn 0 0 1
vn 0 0 1
vn 0.9063069 0.4226202 0
vn 0.9063069 0.4226202 0
vn 0.9063069 0.4226202 0
vn 0.9063069 0.4226202 0
vn -0.9063065 -0.422621 0
vn -0.9063065 -0.422621 0
vn -0.9063065 -0.422621 0
vn -0.9063065 -0.422621 0
vn 0 0 1
vn 0 0 1
vn 0 0 1
vn 0 0 1
vn 0.5243869 0.8514801 0
vn 0.5243869 0.8514801 0
vn 0.5243869 0.8514801 0
vn 0.5243869 0.8514801 0
vn 0.3967133 -0.9179426 0
vn 0.3967133 -0.9179426 0
vn 0.3967133 -0.9179426 0
vn 0.3967133 -0.9179426 0
g Small_doors_field_0
f 3/3/3 2/2/2 1/1/1
f 4/4/4 3/3/3 1/1/1
f 7/7/7 6/6/6 5/5/5
f 8/8/8 7/7/7 5/5/5
f 11/11/11 10/10/10 9/9/9
f 12/12/12 11/11/11 9/9/9
f 15/15/15 14/14/14 13/13/13
f 16/16/16 15/15/15 13/13/13
f 19/19/19 18/18/18 17/17/17
f 20/20/20 19/19/19 17/17/17
f 23/23/23 22/22/22 21/21/21
f 24/24/24 23/23/23 21/21/21
f 27/27/27 26/26/26 25/25/25
f 28/28/28 27/27/27 25/25/25
f 31/31/31 30/30/30 29/29/29
f 32/32/32 31/31/31 29/29/29
f 35/35/35 34/34/34 33/33/33
f 36/36/36 35/35/35 33/33/33
f 39/39/39 38/38/38 37/37/37
f 40/40/40 39/39/39 37/37/37
f 43/43/43 42/42/42 41/41/41
f 44/44/44 43/43/43 41/41/41
f 47/47/47 46/46/46 45/45/45
f 48/48/48 47/47/47 45/45/45
f 51/51/51 50/50/50 49/49/49
f 52/52/52 51/51/51 49/49/49
f 55/55/55 54/54/54 53/53/53
f 56/56/56 55/55/55 53/53/53
f 59/59/59 58/58/58 57/57/57
f 60/60/60 59/59/59 57/57/57
f 63/63/63 62/62/62 61/61/61
f 64/64/64 63/63/63 61/61/61
f 67/67/67 66/66/66 65/65/65
f 68/68/68 67/67/67 65/65/65
f 71/71/71 70/70/70 69/69/69
f 72/72/72 71/71/71 69/69/69
f 75/75/75 74/74/74 73/73/73
f 76/76/76 75/75/75 73/73/73
f 79/79/79 78/78/78 77/77/77
f 80/80/80 79/79/79 77/77/77
f 83/83/83 82/82/82 81/81/81
f 84/84/84 83/83/83 81/81/81
f 87/87/87 86/86/86 85/85/85
f 88/88/88 87/87/87 85/85/85
f 91/91/91 90/90/90 89/89/89
f 92/92/92 91/91/91 89/89/89
f 95/95/95 94/94/94 93/93/93
f 96/96/96 95/95/95 93/93/93
f 99/99/99 98/98/98 97/97/97
f 100/100/100 99/99/99 97/97/97
f 103/103/103 102/102/102 101/101/101
f 104/104/104 103/103/103 101/101/101
f 107/107/107 106/106/106 105/105/105
f 108/108/108 107/107/107 105/105/105
f 111/111/111 110/110/110 109/109/109
f 112/112/112 111/111/111 109/109/109
f 115/115/115 114/114/114 113/113/113
f 116/116/116 115/115/115 113/113/113
f 119/119/119 118/118/118 117/117/117
f 120/120/120 119/119/119 117/117/117
f 123/123/123 122/122/122 121/121/121
f 124/124/124 123/123/123 121/121/121
f 127/127/127 126/126/126 125/125/125
f 128/128/128 127/127/127 125/125/125
