g Sniper_Floor2
v 6.478769 -13.56516 -3.035698E-05
v 12.71107 -13.56516 0.2499696
v 12.71107 -13.56516 -3.035698E-05
v 6.478769 -13.56516 0.2499696
v 18.70747 -3.785426 0.2499845
v 0.9823694 7.434843 0.2499882
v 18.70747 7.434843 0.2499882
v 0.9823702 -11.56516 0.2499816
v 6.478769 -11.56516 0.2499816
v 12.71107 -11.56516 0.2499816
v 18.70747 -11.56516 0.2499816
v 24.95747 7.434843 0.2499882
v 24.95747 -3.785425 0.2499845
v 12.71107 -13.56516 0.2499696
v 6.478769 -13.56516 0.2499696
v 18.70747 -11.56516 0.2499816
v 18.70747 -3.785424 -1.547927E-05
v 18.70747 -11.56516 -1.84122E-05
v 18.70747 -3.785426 0.2499845
v 0.9823694 7.434843 -1.174833E-05
v 0.9823702 -11.56516 0.2499816
v 0.9823702 -11.56516 -1.84122E-05
v 0.9823694 7.434843 0.2499882
v 24.95747 7.434843 0.2499882
v 24.95747 -3.785423 -1.547927E-05
v 24.95747 -3.785425 0.2499845
v 24.95747 7.434843 -1.174833E-05
v 18.70747 7.434843 0.2499882
v 24.95747 7.434843 -1.174833E-05
v 24.95747 7.434843 0.2499882
v 18.70747 7.434843 -1.174833E-05
v 18.70747 -3.785424 -1.547927E-05
v 24.95747 -3.785425 0.2499845
v 24.95747 -3.785423 -1.547927E-05
v 18.70747 -3.785426 0.2499845
v 0.9823702 -11.56516 -1.84122E-05
v 6.478769 -11.56516 0.2499816
v 6.50115 -11.53927 -1.791062E-05
v 0.9823702 -11.56516 0.2499816
v 18.70747 -11.56516 0.2499816
v 12.69052 -11.53927 -1.793661E-05
v 12.71107 -11.56516 0.2499816
v 18.70747 -11.56516 -1.84122E-05
v 12.71107 -11.56516 0.2499816
v 12.71107 -13.56516 -3.035698E-05
v 12.71107 -13.56516 0.2499696
v 12.69052 -11.53927 -1.793661E-05
v 6.50115 -11.53927 -1.791062E-05
v 6.478769 -13.56516 0.2499696
v 6.478769 -13.56516 -3.035698E-05
v 6.478769 -11.56516 0.2499816
vt -5.491151 0.3749924
vt 0.2411447 0.6249924
vt 0.2411447 0.3749924
vt -5.491151 0.6249924
vt -5.237549 1.220271
vt 12.48755 -10
vt -5.23755 -9.999998
vt 12.48755 9
vt 6.491151 9
vt 0.7588549 9.000002
vt -5.237546 9.000004
vt -11.48755 -9.999996
vt -11.48755 1.220271
vt 0.7588553 11
vt 6.491151 11
vt -8.000004 0.6250041
vt -0.220269 0.3750057
vt -8.000002 0.375004
vt -0.2202709 0.6250057
vt -10 0.3750076
vt 9 0.6250041
vt 8.999998 0.375004
vt -10 0.6250076
vt 11 0.6250076
vt -0.2202694 0.3750057
vt -0.2202713 0.6250057
vt 11 0.3750076
vt -5.23755 0.6250076
vt -11.48755 0.3750076
vt -11.48755 0.6250076
vt -5.23755 0.3750076
vt 6.237549 0.3750082
vt 12.48755 0.6250083
vt 12.48755 0.3750082
vt 6.237549 0.6250083
vt -11.48755 0.375004
vt -5.491151 0.6250041
vt -5.46877 0.3750045
vt -11.48755 0.6250041
vt 6.237546 0.6250041
vt 0.2206008 0.3750045
vt 0.2411451 0.6250041
vt 6.237546 0.375004
vt -8.000002 0.6250041
vt -10 0.3749924
vt -10 0.6249924
vt -7.974112 0.3750045
vt 8.97411 0.3750045
vt 11 0.6249924
vt 11 0.3749924
vt 9 0.6250041
vn 0 -1 0
vn 0 -1 0
vn 0 -1 0
vn 0 -1 0
vn 0 0 1
vn 0 0 1
vn 0 0 1
vn 0 0 1
vn 0 -3.172555E-06 1
vn 0 0 1
vn 0 0 1
vn 0 0 1
vn 0 0 1
vn 0 -5.970001E-06 1
vn 0 0 1
vn 1 0 0
vn 1 0 0
vn 1 0 0
vn 1 0 0
vn -1 0 0
vn -1 0 0
vn -1 0 0
vn -1 0 0
vn 1 0 0
vn 1 0 0
vn 1 0 0
vn 1 0 0
vn 0 1 0
vn 0 1 0
vn 0 1 0
vn 0 1 0
vn 0 -1 -8.544923E-06
vn 0 -1 -8.544923E-06
vn 0 -1 0
vn 0 -1 0
vn 0.00233631 -0.998677 -0.05137005
vn 0.00233631 -0.998677 -0.05137005
vn 0.004666219 -0.9947124 -0.1025945
vn 0 -1 0
vn -0.002154165 -0.9986668 -0.05157563
vn -0.002154165 -0.9986668 -0.05157563
vn 0 -0.9946804 -0.1030089
vn -0.004302588 -0.9999908 0
vn 0.9991681 0.005058365 -0.04046497
vn 0.9991681 0.005058365 -0.04046497
vn 1 0 0
vn 0.996674 0.01010832 -0.08086262
vn -0.9989884 0.005529115 -0.04462763
vn -0.9989884 0.005529115 -0.04462763
vn -0.999939 0.01104651 0
vn -0.9960169 0 -0.08916503
g Sniper_Floor2_0
f 3/3/3 2/2/2 1/1/1
f 4/4/4 1/1/1 2/2/2
f 7/7/7 6/6/6 5/5/5
f 8/8/8 5/5/5 6/6/6
f 8/8/8 9/9/9 5/5/5
f 9/9/9 10/10/10 5/5/5
f 10/10/10 11/11/11 5/5/5
f 7/7/7 5/5/5 12/12/12
f 13/13/13 12/12/12 5/5/5
f 10/10/10 9/9/9 14/14/14
f 15/15/15 14/14/14 9/9/9
f 18/18/18 17/17/17 16/16/16
f 19/19/19 16/16/16 17/17/17
f 22/22/22 21/21/21 20/20/20
f 23/23/23 20/20/20 21/21/21
f 26/26/26 25/25/25 24/24/24
f 27/27/27 24/24/24 25/25/25
f 30/30/30 29/29/29 28/28/28
f 31/31/31 28/28/28 29/29/29
f 34/34/34 33/33/33 32/32/32
f 35/35/35 32/32/32 33/33/33
f 38/38/38 37/37/37 36/36/36
f 39/39/39 36/36/36 37/37/37
f 42/42/42 41/41/41 40/40/40
f 43/43/43 40/40/40 41/41/41
f 46/46/46 45/45/45 44/44/44
f 47/47/47 44/44/44 45/45/45
f 50/50/50 49/49/49 48/48/48
f 51/51/51 48/48/48 49/49/49
