g Spooky_Lunapark_Road_Markings_Mesh
v -4.63035 27.78287 525.0912
v -5.159926 27.78287 525.0912
v -5.159943 27.78499 452.541
v -4.63036 27.78499 452.541
v -4.630396 16.65517 278.2338
v -5.159989 16.65517 278.2337
v -4.630433 0.05102327 102.75
v -5.160035 0.05102468 102.75
v 0.315335 27.78284 524.9775
v -0.1560517 27.78284 524.9775
v -0.1560386 27.79116 452.541
v 0.3153521 27.79117 452.541
v 0.3153862 16.65827 278.2338
v -0.156013 16.65826 278.2337
v 0.3154172 0.05102447 102.75
v -0.1559905 0.05102449 102.75
v 4.696588 27.78286 524.8212
v 4.240889 27.78286 524.8212
v 4.334602 27.79969 452.541
v 4.790215 27.79969 452.541
v 5.016761 16.66254 278.2338
v 4.561361 16.66254 278.2337
v 5.244876 0.05102413 102.75
v 4.789692 0.05102435 102.75
vt 24.24507 0.7420506
vt 24.24505 0.7581878
vt 21.22737 0.7581923
vt 21.21983 0.742602
vt 13.9268 0.7439311
vt 13.95254 0.7582032
vt 6.583163 0.7452694
vt 6.627242 0.7582142
vt 18.27612 0.7395735
vt 18.27612 0.7250762
vt 15.98877 0.7250534
vt 15.98876 0.7394165
vt 10.46589 0.7390376
vt 10.46589 0.7249985
vt 4.904696 0.738656
vt 4.904695 0.7249432
vt 24.23395 0.7442189
vt 24.23394 0.7578557
vt 21.22869 0.7578667
vt 21.22517 0.74458
vt 13.94464 0.7454541
vt 13.95669 0.7578933
vt 6.613604 0.7463341
vt 6.63424 0.7579201
vn 0 1 2.934389E-05
vn 0 1 2.934389E-05
vn 0 0.9994923 -0.03186253
vn 0 0.9994923 -0.03186253
vn 0 0.9968771 -0.0789695
vn 0 0.9968771 -0.0789695
vn 0 0.9955534 -0.09419855
vn 0 0.9955534 -0.09419855
vn 0 1 0.0001148466
vn 0 1 0.0001148466
vn -8.139295E-06 0.9994934 -0.03182858
vn -8.139295E-06 0.9994934 -0.03182858
vn -5.455032E-06 0.9968756 -0.07898696
vn -5.455032E-06 0.9968756 -0.07898696
vn 0 0.9955518 -0.09421596
vn 0 0.9955518 -0.09421596
vn 0 1 0.0002329261
vn 0 1 0.0002329261
vn 0 0.9994948 -0.03178171
vn 0 0.9994948 -0.03178171
vn 0 0.9968737 -0.07901113
vn 0 0.9968737 -0.07901113
vn 0 0.9955496 -0.09423999
vn 0 0.9955496 -0.09423999
g Spooky_Lunapark_Road_Markings_Mesh_0
f 3/3/3 2/2/2 1/1/1
f 4/4/4 3/3/3 1/1/1
f 3/3/3 4/4/4 5/5/5
f 6/6/6 3/3/3 5/5/5
f 6/6/6 5/5/5 7/7/7
f 8/8/8 6/6/6 7/7/7
f 11/11/11 10/10/10 9/9/9
f 12/12/12 11/11/11 9/9/9
f 11/11/11 12/12/12 13/13/13
f 14/14/14 11/11/11 13/13/13
f 14/14/14 13/13/13 15/15/15
f 16/16/16 14/14/14 15/15/15
f 19/19/19 18/18/18 17/17/17
f 20/20/20 19/19/19 17/17/17
f 19/19/19 20/20/20 21/21/21
f 22/22/22 19/19/19 21/21/21
f 22/22/22 21/21/21 23/23/23
f 24/24/24 22/22/22 23/23/23
