g Spooky_Lunapark_Rampant_006
v -29.50498 3.847841 2.325439E-06
v -32.5 3.847842 2.325439E-06
v -32.5 3.847842 1.000002
v -29.50498 3.847841 1.000002
v -29.50498 3.847841 1.000002
v -32.5 3.847842 1.000002
v -32.5 6.847842 1.000002
v -29.50498 6.84784 1.000002
v -32.5 6.847842 1.000002
v -32.5 6.847842 0.7499996
v -29.50498 6.84784 0.7499996
v -29.50498 6.84784 1.000002
v -32.5 6.847842 0.7499996
v -32.5 7.097842 0.7499996
v -29.50498 7.097842 0.7499996
v -29.50498 6.84784 0.7499996
v -32.5 7.097842 0.7499996
v -32.5 7.097842 0.4999996
v -29.50498 7.097842 0.4999996
v -29.50498 7.097842 0.7499996
v -32.5 7.097842 0.4999996
v -32.5 7.347842 0.4999996
v -29.50498 7.34784 0.4999996
v -29.50498 7.097842 0.4999996
v -32.5 7.347842 0.4999996
v -32.5 7.347842 0.2499996
v -29.50498 7.34784 0.2499996
v -29.50498 7.34784 0.4999996
v -32.5 7.347842 0.2499996
v -32.5 7.597842 0.2499996
v -29.50498 7.59784 0.2499996
v -29.50498 7.34784 0.2499996
v -32.5 7.597842 0.2499996
v -32.5 7.597842 -3.875733E-07
v -29.50498 7.59784 -3.875733E-07
v -29.50498 7.59784 0.2499996
v -29.50498 6.84784 0.7499996
v -29.50498 3.847841 2.325439E-06
v -29.50498 3.847841 1.000002
v -29.50498 6.84784 1.000002
v -29.50498 7.097842 0.4999996
v -29.50498 7.097842 0.7499996
v -29.50498 7.34784 0.2499996
v -29.50498 7.59784 -3.875733E-07
v -29.50498 7.59784 0.2499996
v -29.50498 7.34784 0.4999996
vt 1.997511 -0.1859146
vt -0.9975128 -0.1859146
vt -0.9975128 0.8140825
vt 1.997511 0.8140825
vt -0.9975109 2.375
vt 1.997513 2.375
vt 1.997513 -0.625001
vt -0.9975109 -0.625
vt 1.997513 0.8140826
vt 1.997513 0.5640809
vt -0.9975109 0.5640809
vt -0.9975109 0.8140826
vt 1.997513 -0.625001
vt 1.997513 -0.875001
vt -0.9975109 -0.875
vt -0.9975109 -0.625
vt 1.997513 0.5640809
vt 1.997513 0.3140815
vt -0.9975109 0.3140815
vt -0.9975109 0.5640809
vt 1.997513 -0.875001
vt 1.997513 -1.125
vt -0.9975109 -1.124999
vt -0.9975109 -0.875
vt 1.997513 0.3140815
vt 1.997513 0.06408203
vt -0.9975109 0.06408203
vt -0.9975109 0.3140815
vt 1.997513 -1.125
vt 1.997513 -1.375001
vt -0.9975109 -1.375
vt -0.9975109 -1.124999
vt 1.997513 0.06408203
vt 1.997513 -0.1859174
vt -0.9975109 -0.1859174
vt -0.9975109 0.06408203
vt 1.625 0.5640809
vt -1.375 -0.1859146
vt -1.375 0.8140825
vt 1.625 0.8140826
vt 1.875 0.3140815
vt 1.875 0.5640809
vt 2.124999 0.06408203
vt 2.375 -0.1859174
vt 2.375 0.06408203
vt 2.124999 0.3140815
vn 0 -1 0
vn 0 -1 0
vn 0 -1 0
vn 0 -1 0
vn 0 0 1
vn 0 0 1
vn 0 0 1
vn 0 0 1
vn 0 1 0
vn 0 1 0
vn 0 1 0
vn 0 1 0
vn 0 0 1
vn 0 0 1
vn 0 0 1
vn 0 0 1
vn 0 1 0
vn 0 1 0
vn 0 1 0
vn 0 1 0
vn 0 0 1
vn 0 0 1
vn 0 0 1
vn 0 0 1
vn 0 1 0
vn 0 1 0
vn 0 1 0
vn 0 1 0
vn 0 0 1
vn 0 0 1
vn 0 0 1
vn 0 0 1
vn 0 1 0
vn 0 1 0
vn 0 1 0
vn 0 1 0
vn 1 0 0
vn 1 0 0
vn 1 0 0
vn 1 0 0
vn 1 0 0
vn 1 0 0
vn 1 0 0
vn 1 0 0
vn 1 0 0
vn 1 0 0
g Spooky_Lunapark_Rampant_006_0
f 3/3/3 2/2/2 1/1/1
f 4/4/4 3/3/3 1/1/1
f 7/7/7 6/6/6 5/5/5
f 8/8/8 7/7/7 5/5/5
f 11/11/11 10/10/10 9/9/9
f 12/12/12 11/11/11 9/9/9
f 15/15/15 14/14/14 13/13/13
f 16/16/16 15/15/15 13/13/13
f 19/19/19 18/18/18 17/17/17
f 20/20/20 19/19/19 17/17/17
f 23/23/23 22/22/22 21/21/21
f 24/24/24 23/23/23 21/21/21
f 27/27/27 26/26/26 25/25/25
f 28/28/28 27/27/27 25/25/25
f 31/31/31 30/30/30 29/29/29
f 32/32/32 31/31/31 29/29/29
f 35/35/35 34/34/34 33/33/33
f 36/36/36 35/35/35 33/33/33
f 39/39/39 38/38/38 37/37/37
f 40/40/40 39/39/39 37/37/37
f 38/38/38 41/41/41 37/37/37
f 41/41/41 42/42/42 37/37/37
f 38/38/38 43/43/43 41/41/41
f 43/43/43 38/38/38 44/44/44
f 45/45/45 43/43/43 44/44/44
f 43/43/43 46/46/46 41/41/41
