g Spooky_Lunapark_gate
v -4.562539 3.474181 51.40966
v -4.562541 0.2241808 51.40968
v -4.562542 0.2241715 51.15968
v -4.562545 3.474178 51.15966
v -0.87752 3.474175 51.15967
v -4.562545 3.474178 51.15966
v -4.562542 0.2241715 51.15968
v -0.3750189 0.2241715 51.15968
v -0.8775246 3.974169 51.15966
v -0.375022 3.974175 51.15966
v -0.3750189 0.2241715 51.15968
v -4.562542 0.2241715 51.15968
v -4.562541 0.2241808 51.40968
v -0.3750189 0.2241808 51.40968
v -0.87752 3.474178 51.40967
v -0.3750189 0.2241808 51.40968
v -4.562541 0.2241808 51.40968
v -4.562539 3.474181 51.40966
v -0.375022 3.974178 51.40966
v -0.8775246 3.974172 51.40966
v -0.87752 3.474178 51.40967
v -4.562539 3.474181 51.40966
v -4.562545 3.474178 51.15966
v -0.87752 3.474175 51.15967
v -0.375022 3.974178 51.40966
v -0.8775246 3.974172 51.40966
v -0.8775246 3.974169 51.15966
v -0.375022 3.974175 51.15966
v -0.87752 3.474175 51.15967
v -0.8775246 3.974169 51.15966
v -0.8775246 3.974172 51.40966
v -0.87752 3.474178 51.40967
v -0.3750189 0.2241808 51.40968
v -0.375022 3.974178 51.40966
v -0.375022 3.974175 51.15966
v -0.3750189 0.2241715 51.15968
vt 0.9257813 0.7890625
vt 0.9716797 0.7890625
vt 0.9716797 0.7841797
vt 0.9257813 0.7841797
vt 0.9853516 0.7832031
vt 0.9277344 0.7832031
vt 0.9277344 0.7324219
vt 0.9931641 0.7324219
vt 0.9853516 0.7910156
vt 0.9931641 0.7910156
vt 0.984375 0.7841797
vt 0.9257813 0.7841797
vt 0.9257813 0.7890625
vt 0.984375 0.7890625
vt 0.9853516 0.7832031
vt 0.9931641 0.7324219
vt 0.9277344 0.7324219
vt 0.9277344 0.7832031
vt 0.9931641 0.7910156
vt 0.9853516 0.7910156
vt 0.9257813 0.7890625
vt 0.9775391 0.7890625
vt 0.9775391 0.7841797
vt 0.9257813 0.7841797
vt 0.9257813 0.7890625
vt 0.9326172 0.7890625
vt 0.9326172 0.7841797
vt 0.9257813 0.7841797
vt 0.9326172 0.7841797
vt 0.9257813 0.7841797
vt 0.9257813 0.7890625
vt 0.9326172 0.7890625
vt 0.9257813 0.7890625
vt 0.9785156 0.7890625
vt 0.9785156 0.7841797
vt 0.9257813 0.7841797
vn -1 0 1.58693E-05
vn -1 0 1.58693E-05
vn -1 0 1.58693E-05
vn -1 0 1.58693E-05
vn -5.977391E-06 -6.051932E-06 -1
vn 0 0 -1
vn 0 0 -1
vn -5.977391E-06 -6.051932E-06 -1
vn -1.257501E-05 0 -1
vn -1.257501E-05 0 -1
vn 0 -1 3.723181E-05
vn 0 -1 3.723181E-05
vn 0 -1 3.723181E-05
vn 0 -1 3.723181E-05
vn 5.667268E-06 5.652368E-06 1
vn 5.667268E-06 5.652368E-06 1
vn 0 0 1
vn 0 0 1
vn 1.2575E-05 0 1
vn 1.2575E-05 0 1
vn 0 1 -1.220704E-05
vn 0 1 -1.220704E-05
vn 0 1 -1.220704E-05
vn 0 1 -1.220704E-05
vn -1.244989E-05 1 -1.159668E-05
vn -1.244989E-05 1 -1.159668E-05
vn -1.244989E-05 1 -1.159668E-05
vn -1.244989E-05 1 -1.159668E-05
vn -1 0 0
vn -1 0 0
vn -1 0 0
vn -1 0 0
vn 1 0 0
vn 1 0 0
vn 1 0 0
vn 1 0 0
g Spooky_Lunapark_gate_0
f 3/3/3 2/2/2 1/1/1
f 4/4/4 3/3/3 1/1/1
f 7/7/7 6/6/6 5/5/5
f 8/8/8 7/7/7 5/5/5
f 5/5/5 9/9/9 8/8/8
f 9/9/9 10/10/10 8/8/8
f 13/13/13 12/12/12 11/11/11
f 14/14/14 13/13/13 11/11/11
f 17/17/17 16/16/16 15/15/15
f 18/18/18 17/17/17 15/15/15
f 16/16/16 19/19/19 15/15/15
f 19/19/19 20/20/20 15/15/15
f 23/23/23 22/22/22 21/21/21
f 24/24/24 23/23/23 21/21/21
f 27/27/27 26/26/26 25/25/25
f 28/28/28 27/27/27 25/25/25
f 31/31/31 30/30/30 29/29/29
f 32/32/32 31/31/31 29/29/29
f 35/35/35 34/34/34 33/33/33
f 36/36/36 35/35/35 33/33/33
