g Spooky_Lunapark_Сashbox_01
v 28.83661 4.809595 4.749999
v 32.83662 4.809592 4.75
v 32.83662 4.809592 5
v 28.83661 4.809595 5
v 32.33662 4.309581 1.000001
v 32.33662 4.309581 3.100586E-06
v 32.33661 1.809582 3.100586E-06
v 32.33661 1.809582 1.000001
v 32.83662 4.809592 5
v 32.83662 4.809592 4.75
v 32.83662 1.309587 4.75
v 32.83662 1.309587 5
v 28.83661 1.309589 5
v 32.83662 1.309587 5
v 32.83662 1.309587 4.75
v 28.83661 1.309589 4.749999
v 32.33661 1.809582 1.000001
v 32.33661 1.809582 3.100586E-06
v 29.34159 1.809582 1.550293E-06
v 29.3416 1.809582 1.000001
v 29.3416 4.309581 1.550293E-06
v 29.3416 4.309581 1.000001
v 29.3416 1.809582 1.000001
v 29.34159 1.809582 1.550293E-06
v 28.83661 1.309589 4.749999
v 28.83661 4.809595 4.749999
v 28.83661 4.809595 5
v 28.83661 1.309589 5
v 30.58662 4.559591 4.75
v 30.58662 4.809591 4.75
v 31.08662 4.809591 4.75
v 31.08662 4.559591 4.75
v 29.08661 2.809608 4.75
v 28.83661 2.809611 4.75
v 28.83661 3.309608 4.75
v 29.08661 3.309608 4.75
v 32.58662 3.309614 4.75
v 32.83662 3.309608 4.75
v 32.83662 2.809611 4.75
v 32.58662 2.809614 4.75
v 32.33662 4.559591 2.5
v 32.58662 4.559591 1.000001
v 32.58662 4.559591 4.75
v 32.33661 4.559591 4.5
v 29.08661 4.559591 4.749999
v 29.33661 4.559591 4.5
v 29.33661 4.559591 2.5
v 29.08661 4.559591 1.000001
v 32.58662 4.559591 1.000001
v 32.58662 3.726259 1.25
v 32.58662 3.726259 2.500003
v 32.58662 4.309591 2.500003
v 32.58662 4.559591 4.75
v 32.58662 4.309591 4.5
v 32.58662 1.559591 4.75
v 32.58662 1.809591 4.5
v 32.58662 1.809591 2.500003
v 32.58662 1.559591 1.000001
v 32.58662 2.392923 2.500003
v 32.58662 2.392923 1.25
v 29.33661 4.559591 2.5
v 32.33662 4.559591 2.5
v 32.33662 4.309591 2.500001
v 29.33661 4.309591 2.500001
v 32.33661 4.559591 4.5
v 32.33661 4.309591 4.5
v 32.33662 4.309591 2.500001
v 32.33662 4.559591 2.5
v 32.58662 4.309591 2.500003
v 32.33662 4.309591 2.500001
v 32.33661 4.309591 4.5
v 32.58662 4.309591 4.5
v 32.58662 3.726259 2.500003
v 32.33661 3.726259 2.500003
v 32.33662 4.309591 2.500001
v 32.58662 4.309591 2.500003
v 32.58662 3.726259 1.25
v 32.33661 3.726259 1.25
v 32.33661 3.726259 2.500003
v 32.58662 3.726259 2.500003
v 32.33662 4.309591 2.500001
v 32.33661 3.726259 2.500003
v 32.33661 3.726259 1.25
v 32.33662 4.309591 1.25
v 32.33661 4.559591 4.5
v 29.33661 4.559591 4.5
v 29.33661 4.309591 4.5
v 32.33661 4.309591 4.5
v 32.33661 4.309591 4.5
v 29.33661 4.309591 4.5
v 29.33661 4.309591 4.75
v 32.33661 4.309591 4.75
v 32.33661 1.809591 4.5
v 32.33661 4.309591 4.5
v 32.33661 4.309591 4.75
v 32.33661 1.809591 4.75
v 32.58662 1.809591 2.500003
v 32.58662 1.809591 4.5
v 32.33661 1.809591 4.5
v 32.33661 1.809591 2.500001
v 29.33661 1.809591 4.5
v 32.33661 1.809591 4.75
v 29.33661 1.809591 4.75
v 29.33661 1.809591 2.500001
v 29.08661 1.809591 2.500001
v 29.08661 1.809591 4.5
v 32.33661 1.809591 1.25
v 29.33661 1.809591 1.25
v 32.58662 2.392923 2.500003
v 32.58662 1.809591 2.500003
v 32.33661 1.809591 2.500001
v 32.33661 2.392923 2.500003
v 32.58662 2.392923 1.25
v 32.58662 2.392923 2.500003
v 32.33661 2.392923 2.500003
v 32.33661 2.392923 1.25
v 32.58662 1.809591 4.5
v 32.58662 4.309591 4.5
v 32.33661 4.309591 4.5
v 32.33661 1.809591 4.5
v 32.33661 1.809591 2.500001
v 32.33661 1.809591 1.25
v 32.33661 2.392923 1.25
v 32.33661 2.392923 2.500003
v 29.33661 4.559591 4.5
v 29.33661 4.559591 2.5
v 29.33661 4.309591 2.500001
v 29.33661 4.309591 4.5
v 29.08661 4.309591 2.500001
v 29.08661 4.309591 4.5
v 29.33661 4.309591 4.5
v 29.33661 4.309591 2.500001
v 29.33661 4.309591 4.75
v 29.33661 4.309591 4.5
v 29.33661 1.809591 4.5
v 29.33661 1.809591 4.75
v 29.08661 4.559591 4.749999
v 29.08661 4.309591 4.5
v 29.08661 4.309591 2.500001
v 29.08661 4.559591 1.000001
v 29.08661 1.559591 4.749999
v 29.08661 1.809591 4.5
v 29.08661 1.809591 2.500001
v 29.08661 1.559591 1.000001
v 29.08661 1.809591 4.5
v 29.33661 1.809591 4.5
v 29.33661 4.309591 4.5
v 29.08661 4.309591 4.5
v 31.08662 4.559591 4.25
v 31.08662 4.809591 4.25
v 30.58662 4.809591 4.25
v 30.58662 4.559591 4.25
v 30.58662 4.809591 4.75
v 30.58662 4.559591 4.75
v 30.58662 4.559591 4.5
v 30.58662 4.559591 4.25
v 30.58662 4.809591 4.25
v 31.08662 4.809591 4.25
v 31.08662 4.559591 4.25
v 31.08662 4.559591 4.75
v 31.08662 4.809591 4.75
v 31.08662 4.559591 4.75
v 31.08662 4.559591 4.25
v 30.58662 4.559591 4.25
v 30.58662 4.559591 4.5
v 30.58662 4.559591 4.75
v 29.08661 4.309591 2.500001
v 29.33661 4.309591 2.500001
v 29.33661 1.809591 2.500001
v 29.08661 1.809591 2.500001
v 29.33661 4.309591 2.500001
v 29.33661 4.309591 1.25
v 29.33661 1.809591 1.25
v 29.33661 1.809591 2.500001
v 29.08661 1.559591 1.000001
v 29.08661 1.559591 4.749999
v 32.58662 1.559591 4.75
v 32.58662 1.559591 1.000001
v 29.33661 4.309591 1.25
v 29.33661 4.309591 2.500001
v 32.33662 4.309591 2.500001
v 32.33662 4.309591 1.25
v 29.08661 3.309608 4.25
v 28.83661 3.309608 4.25
v 28.83661 2.809611 4.25
v 29.08661 2.809608 4.25
v 29.08661 2.809608 4.5
v 29.08661 2.809608 4.25
v 28.83661 2.809611 4.25
v 28.83661 2.809611 4.75
v 29.08661 2.809608 4.75
v 28.83661 3.309608 4.25
v 29.08661 3.309608 4.25
v 29.08661 3.309608 4.75
v 28.83661 3.309608 4.75
v 29.08661 3.309608 4.25
v 29.08661 2.809608 4.25
v 29.08661 2.809608 4.5
v 29.08661 2.809608 4.75
v 29.08661 3.309608 4.75
v 32.58662 2.809614 4.25
v 32.83662 2.809611 4.25
v 32.83662 3.309608 4.25
v 32.58662 3.309614 4.25
v 32.58662 3.309614 4.5
v 32.58662 3.309614 4.25
v 32.83662 3.309608 4.25
v 32.83662 3.309608 4.75
v 32.58662 3.309614 4.75
v 32.83662 2.809611 4.25
v 32.58662 2.809614 4.25
v 32.58662 2.809614 4.75
v 32.83662 2.809611 4.75
v 32.58662 3.309614 4.75
v 32.58662 2.809614 4.75
v 32.58662 2.809614 4.25
v 32.58662 3.309614 4.25
v 32.58662 3.309614 4.25
v 32.58662 3.309614 4.5
v 32.58662 3.309614 4.75
v 31.58662 3.809593 5
v 31.58662 3.809593 5.500001
v 30.08662 3.809593 5.500001
v 30.08662 3.809593 5
v 31.58662 2.309589 5
v 31.58662 2.309589 5.500001
v 31.58662 3.809593 5.500001
v 31.58662 3.809593 5
v 30.08662 2.309589 5.500001
v 31.58662 2.309589 5.500001
v 31.58662 2.309589 5
v 30.08662 2.309589 5
v 30.08662 2.309589 5
v 30.08662 3.809593 5
v 30.08662 3.809593 5.500001
v 30.08662 2.309589 5.500001
v 30.33662 3.559596 5.500001
v 31.33662 3.559596 5.500001
v 31.33662 3.559596 6.000001
v 30.33662 3.559596 6.000001
v 31.33662 3.559596 5.500001
v 31.33662 2.559586 5.500001
v 31.33661 2.559586 6.000001
v 31.33662 3.559596 6.000001
v 30.33662 2.559586 6.000001
v 31.33661 2.559586 6.000001
v 31.33662 2.559586 5.500001
v 30.33662 2.559586 5.500001
v 30.33662 2.559586 6.000001
v 30.33662 2.559586 5.500001
v 30.33662 3.559596 5.500001
v 30.33662 3.559596 6.000001
v 30.33662 3.559596 6.000001
v 31.33662 3.559596 6.000001
v 31.33661 2.559586 6.000001
v 30.33662 2.559586 6.000001
v 32.58662 2.392923 1.25
v 32.33661 2.392923 1.25
v 32.33661 3.726259 1.25
v 32.58662 3.726259 1.25
v 32.33662 4.309591 1.25
v 32.33661 1.809591 1.25
v 29.33661 1.809591 1.25
v 29.33661 4.309591 1.25
v 31.08662 4.809591 4.25
v 31.08662 4.809591 4.75
v 30.58662 4.809591 4.75
v 30.58662 4.809591 4.25
v 28.83661 3.309608 4.25
v 28.83661 3.309608 4.75
v 28.83661 2.809611 4.75
v 28.83661 2.809611 4.25
v 32.83662 2.809611 4.25
v 32.83662 2.809611 4.75
v 32.83662 3.309608 4.75
v 32.83662 3.309608 4.25
v 28.83661 4.809595 5
v 32.83662 4.809592 5
v 32.83662 1.309587 5
v 28.83661 1.309589 5
v 32.83662 4.809592 4.75
v 28.83661 4.809595 4.749999
v 28.83661 1.309589 4.749999
v 32.83662 1.309587 4.75
v 30.08662 3.809593 5.500001
v 31.58662 3.809593 5.500001
v 31.58662 2.309589 5.500001
v 30.08662 2.309589 5.500001
v 32.58662 4.559591 1.000001
v 29.08661 4.559591 1.000001
v 29.08661 1.559591 1.000001
v 32.58662 1.559591 1.000001
vt 2.499996 2.249997
vt -1.500008 2.249999
vt -1.500008 2.499999
vt 2.499996 2.499999
vt 1.749988 -1.5
vt 1.749988 -2.499998
vt -0.7500108 -2.499998
vt -0.7500108 -1.5
vt 2.250001 2.499999
vt 2.250001 2.249999
vt -1.250005 2.249999
vt -1.250005 2.499999
vt -1.500004 2.499999
vt 2.5 2.499999
vt 2.5 2.249999
vt -1.500004 2.249997
vt 2 -1.5
vt 2 -2.499998
vt -0.9950237 -2.5
vt -0.995018 -1.5
vt -0.7499886 -2.5
vt -0.7499886 -1.5
vt 1.75001 -1.5
vt 1.75001 -2.5
vt 2.250001 2.249997
vt -1.250006 2.249997
vt -1.250006 2.499999
vt 2.250001 2.499999
vt 0.2500057 1.999999
vt 0.2500057 2.249999
vt 0.7500057 2.249999
vt 0.7500057 1.999998
vt -1.249998 0.2500157
vt -1.499998 0.2500188
vt -1.499998 0.7500162
vt -1.249998 0.7500162
vt 2.250004 0.7500215
vt 2.500008 0.7500153
vt 2.5 0.2500179
vt 2.25 0.250021
vt -1.000004 -2.145767E-06
vt -1.250004 -1.5
vt -1.250004 2.249999
vt -1 1.999998
vt 2.249996 2.249997
vt 1.999996 1.999998
vt 1.999996 -2.145767E-06
vt 2.249996 -1.5
vt 1.999998 -1.5
vt 1.166666 -1.250002
vt 1.166666 9.536743E-07
vt 1.749998 9.536743E-07
vt 1.999998 2.249999
vt 1.749998 1.999998
vt -1.000002 2.249999
vt -0.7500015 1.999998
vt -0.7500015 9.536743E-07
vt -1.000002 -1.5
vt -0.1666698 9.536743E-07
vt -0.1666698 -1.250002
vt -0.9999962 1.999999
vt 2.000004 1.999998
vt 2.000004 1.749998
vt -0.9999962 1.749999
vt -0.9999981 1.999998
vt -0.7499981 1.999998
vt -0.7499981 -4.768372E-07
vt -0.9999981 -2.145767E-06
vt 2.250004 9.536743E-07
vt 2.000004 -4.768372E-07
vt 2 1.999998
vt 2.250004 1.999998
vt 2.25 1.166666
vt 2 1.166666
vt 2.000004 1.749998
vt 2.250004 1.749998
vt 2.25 -1.250002
vt 2 -1.250002
vt 2 9.536743E-07
vt 2.25 9.536743E-07
vt -0.7499981 -4.768372E-07
vt -0.166666 9.536743E-07
vt -0.166666 -1.250002
vt -0.7499981 -1.250002
vt -1 1.999998
vt 1.999996 1.999999
vt 1.999996 1.749999
vt -1 1.749998
vt 2 1.999998
vt -0.9999962 1.999998
vt -0.9999962 2.249999
vt 2 2.249999
vt 1.750002 1.999998
vt -0.7499981 1.999998
vt -0.7499981 2.249999
vt 1.750002 2.249999
vt -1.25 9.536743E-07
vt -1.25 1.999998
vt -1 1.999998
vt -1 -4.768372E-07
vt 1.999998 1.999998
vt -1 2.249999
vt 1.999998 2.249999
vt 1.999998 -4.768372E-07
vt 2.250004 -4.768372E-07
vt 2.250004 1.999998
vt -1 -1.250002
vt 2.000004 -1.250002
vt 2.25 -0.1666698
vt 2.25 -0.7500015
vt 2 -0.7500015
vt 2 -0.1666696
vt -1.250004 -1.250002
vt -1.25 9.536743E-07
vt -1 9.536743E-07
vt -1 -1.250002
vt -1.25 -0.7500015
vt -1.250004 1.749998
vt -1 1.749998
vt -1 -0.7500015
vt 1.750002 -4.768372E-07
vt 1.750002 -1.250002
vt 1.16667 -1.250002
vt 1.16667 9.536743E-07
vt 1.999999 1.999998
vt 1.999999 -2.145767E-06
vt 1.749999 -4.768372E-07
vt 1.749999 1.999998
vt -1.249996 -4.768372E-07
vt -1.249996 1.999998
vt -0.9999962 1.999998
vt -0.9999962 -4.768372E-07
vt 1.749999 2.249999
vt 1.749999 1.999998
vt -0.7500008 1.999998
vt -0.7500008 2.249999
vt -0.9999986 2.249997
vt -0.7499986 1.999998
vt -0.7499986 -4.768372E-07
vt -0.9999986 -1.5
vt 2.000001 2.249997
vt 1.750001 1.999998
vt 1.750001 -4.768372E-07
vt 2.000001 -1.5
vt 2.250004 -0.7500007
vt 1.999998 -0.7500008
vt 1.999996 1.749999
vt 2.249996 1.749999
vt 0.2499943 1.999998
vt 0.2499943 2.249999
vt 0.7499943 2.249999
vt 0.7499943 1.999999
vt -1.249999 2.249999
vt -0.9999986 2.249999
vt -0.9999986 1.999998
vt -0.9999986 1.749998
vt -1.249999 1.749998
vt 2.249999 1.749998
vt 1.999998 1.749998
vt 1.999998 2.249999
vt 2.249999 2.249999
vt 0.7500057 2.249999
vt 0.7500057 1.749998
vt 0.2500057 1.749998
vt 0.2500057 1.999998
vt 0.2500057 2.249999
vt -1.249996 1.749999
vt -0.9999962 1.749999
vt -0.9999981 -0.7500008
vt -1.250004 -0.7500007
vt 1.749999 -4.768372E-07
vt 1.749999 -1.250002
vt -0.7500008 -1.250002
vt -0.7500008 -4.768372E-07
vt -1.250004 -1.5
vt -1.250004 2.249997
vt 2.25 2.249999
vt 2.25 -1.5
vt -0.9999962 -1.250002
vt -0.9999962 -4.768372E-07
vt 2.000004 -4.768372E-07
vt 2.000004 -1.250002
vt 2.249998 0.7500162
vt 2.499998 0.7500162
vt 2.499998 0.2500188
vt 2.249998 0.2500157
vt -1.249998 1.999998
vt -1.249998 1.749998
vt -1.499998 1.749998
vt -1.499998 2.249999
vt -1.249998 2.249999
vt 2.499998 1.749998
vt 2.249998 1.749998
vt 2.249998 2.249999
vt 2.499998 2.249999
vt 0.7500162 1.749998
vt 0.2500157 1.749998
vt 0.2500157 1.999998
vt 0.2500157 2.249999
vt 0.7500162 2.249999
vt -1.25 0.250021
vt -1.5 0.2500179
vt -1.500008 0.7500153
vt -1.250004 0.7500215
vt -1.250004 1.999998
vt -1.250004 1.749998
vt -1.500008 1.749998
vt -1.500008 2.249999
vt -1.250004 2.249999
vt 2.5 1.749998
vt 2.25 1.749998
vt 2.25 2.249999
vt 2.5 2.249999
vt 0.2499785 2.249999
vt 0.749979 2.249999
vt 0.749979 1.749998
vt 0.2499785 1.749998
vt 0.2499785 1.749998
vt 0.2499785 1.999998
vt 0.2499785 2.249999
vt -0.2500038 2.499999
vt -0.2500038 2.999999
vt 1.249996 2.999999
vt 1.249996 2.499999
vt -0.2500041 2.499999
vt -0.2500041 2.999999
vt 1.25 2.999999
vt 1.25 2.499999
vt -0.2499962 2.999999
vt 1.250004 2.999999
vt 1.250004 2.499999
vt -0.2499962 2.499999
vt 1.250004 2.499999
vt -0.250001 2.499999
vt -0.250001 2.999999
vt 1.250004 2.999999
vt 0.5078065 3.246094
vt 0.4921858 3.246094
vt 0.4921858 3.253905
vt 0.5078065 3.253905
vt 0.5078089 3.246094
vt 0.492188 3.246094
vt 0.492188 3.253905
vt 0.5078089 3.253905
vt 0.4921921 3.253905
vt 0.5078127 3.253905
vt 0.5078127 3.246094
vt 0.4921921 3.246094
vt 0.5078117 3.253905
vt 0.5078117 3.246094
vt 0.4921909 3.246094
vt 0.4921909 3.253905
vt 0.4921921 0.507809
vt 0.5078127 0.507809
vt 0.5078127 0.4921882
vt 0.4921921 0.4921882
vt 2.250004 -0.1666698
vt 2 -0.1666696
vt 2 1.166666
vt 2.25 1.166666
vt 2.000004 1.749998
vt 2 -0.7500015
vt -1.000004 -0.7500008
vt -0.9999962 1.749999
vt 0.6923946 0.8528703
vt 0.6923946 0.8603516
vt 0.6998759 0.8603516
vt 0.6998759 0.8528703
vt 0.6923828 0.8528703
vt 0.6923828 0.8603516
vt 0.6998641 0.8603516
vt 0.6998641 0.8528703
vt 0.6924169 0.8528703
vt 0.6924169 0.8603516
vt 0.6998982 0.8603516
vt 0.6998982 0.8528703
vt 0.5781239 0.9218599
vt 0.6406068 0.9218599
vt 0.6406068 0.8671875
vt 0.5781239 0.8671875
vt 0.5781239 0.9218599
vt 0.6406068 0.9218599
vt 0.6406068 0.8671875
vt 0.5781239 0.8671875
vt 0.5976498 0.9062393
vt 0.6210809 0.9062393
vt 0.6210809 0.8828082
vt 0.5976498 0.8828082
vt 0.5820291 0.9179547
vt 0.6367017 0.9179547
vt 0.6367017 0.8710927
vt 0.5820291 0.8710927
vn 0 1 0
vn 0 1 0
vn 0 1 0
vn 0 1 0
vn 1 0 0
vn 1 0 0
vn 1 0 0
vn 1 0 0
vn 1 0 0
vn 1 0 0
vn 1 0 0
vn 1 0 0
vn 0 -1 0
vn 0 -1 0
vn 0 -1 0
vn 0 -1 0
vn 0 -1 0
vn 0 -1 0
vn 0 -1 0
vn 0 -1 0
vn -1 0 0
vn -1 0 0
vn -1 0 0
vn -1 0 0
vn -1 0 0
vn -1 0 0
vn -1 0 0
vn -1 0 0
vn 0 0 1
vn 0 0 1
vn 0 0 1
vn 0 0 1
vn 0 0 1
vn 0 0 1
vn 0 0 1
vn 0 0 1
vn 0 0 1
vn 0 0 1
vn 0 0 1
vn 0 0 1
vn 0 1 0
vn 0 1 0
vn 0 1 0
vn 0 1 0
vn 0 1 0
vn 0 1 0
vn 0 1 0
vn 0 1 0
vn 1 0 0
vn 1 0 0
vn 1 0 0
vn 1 0 0
vn 1 0 0
vn 1 0 0
vn 1 0 0
vn 1 0 0
vn 1 0 0
vn 1 0 4.741294E-06
vn 1 0 0
vn 1 0 6.687348E-06
vn 0 0 1
vn 0 0 1
vn 0 0 1
vn 0 0 1
vn -1 0 0
vn -1 0 0
vn -1 6.277917E-06 0
vn -1 0 0
vn 0 -1 0
vn 0 -1 0
vn 0 -1 0
vn 0 -1 0
vn 0 0 1
vn 0 0 1
vn 0 0 1
vn 0 0 1
vn 0 -1 0
vn 0 -1 0
vn 0 -1 0
vn 0 -1 0
vn -1 6.277917E-06 0
vn -1 1.255583E-05 0
vn -1 1.255583E-05 0
vn -1 1.255583E-05 0
vn 0 0 -1
vn 0 0 -1
vn 0 0 -1
vn 0 0 -1
vn 0 -1 0
vn 0 -1 0
vn 0 -1 0
vn 0 -1 0
vn -1 0 0
vn -1 0 0
vn -1 0 0
vn -1 0 0
vn 0 1 0
vn 0 1 0
vn 0 1 0
vn 0 1 0
vn 0 1 0
vn 0 1 0
vn 0 1 0
vn 0 1 0
vn 0 1 0
vn 0 1 0
vn 0 1 0
vn 0 1 0
vn 0 0 1
vn 0 0 1
vn 0 0 1
vn 0 0 1
vn 0 1 0
vn 0 1 0
vn 0 1 0
vn 0 1 0
vn 0 0 -1
vn 0 0 -1
vn 0 0 -1
vn 0 0 -1
vn -1 0 0
vn -1 0 0
vn -1 0 0
vn -1 0 0
vn 1 0 0
vn 1 0 0
vn 1 0 0
vn 1 0 0
vn 0 -1 0
vn 0 -1 0
vn 0 -1 0
vn 0 -1 0
vn 1 0 0
vn 1 0 0
vn 1 0 0
vn 1 0 0
vn -1 0 0
vn -1 0 0
vn -1 0 0
vn -1 0 0
vn -1 0 0
vn -1 0 0
vn -1 0 0
vn -1 0 0
vn 0 0 -1
vn 0 0 -1
vn 0 0 -1
vn 0 0 -1
vn 0 0 -1
vn 0 0 -1
vn 0 0 -1
vn 0 0 -1
vn -1 0 0
vn -1 0 0
vn -1 0 0
vn -1 0 0
vn -1 0 0
vn 1 0 0
vn 1 0 0
vn 1 0 0
vn 1 0 0
vn 0 -1 0
vn 0 -1 0
vn 0 -1 0
vn 0 -1 0
vn 0 -1 0
vn 0 0 1
vn 0 0 1
vn 0 0 1
vn 0 0 1
vn 1 0 0
vn 1 0 0
vn 1 0 0
vn 1 0 0
vn 0 -1 0
vn 0 -1 0
vn 0 -1 0
vn 0 -1 0
vn 0 -1 0
vn 0 -1 0
vn 0 -1 0
vn 0 -1 0
vn 0 0 -1
vn 0 0 -1
vn 0 0 -1
vn 0 0 -1
vn -1.220703E-05 -1 0
vn -1.220703E-05 -1 0
vn -1.220703E-05 -1 0
vn -1.220703E-05 -1 0
vn -1.220703E-05 -1 0
vn 0 1 0
vn 0 1 0
vn 0 1 0
vn 0 1 0
vn 1 0 0
vn 1 0 0
vn 1 0 0
vn 1 0 0
vn 1 0 0
vn 0 0 -1
vn 0 0 -1
vn 0 0 -1
vn 0 0 -1
vn 1.831055E-05 1 0
vn 1.220703E-05 1 0
vn 2.441406E-05 1 0
vn 2.441406E-05 1 0
vn 1.220703E-05 1 0
vn -1.220703E-05 -1 0
vn -1.220703E-05 -1 0
vn -1.220703E-05 -1 0
vn -1.220703E-05 -1 0
vn -1 9.765618E-06 0
vn -1 0 0
vn -1 9.765618E-06 0
vn -1 0 0
vn 1.220703E-05 1 0
vn 1.831055E-05 1 0
vn 1.220703E-05 1 0
vn 0 1 0
vn 0 1 0
vn 0 1 0
vn 0 1 0
vn 1 0 0
vn 1 0 0
vn 1 0 0
vn 1 0 0
vn 0 -1 0
vn 0 -1 0
vn 0 -1 0
vn 0 -1 0
vn -1 0 0
vn -1 0 0
vn -1 0 0
vn -1 0 0
vn 0 1 0
vn 0 1 0
vn 0 1 0
vn 0 1 0
vn 1 0 0
vn 1 0 0
vn 1 0 0
vn 1 0 0
vn 0 -1 0
vn 0 -1 0
vn 0 -1 0
vn 0 -1 0
vn -1 0 0
vn -1 0 0
vn -1 0 0
vn -1 0 0
vn 0 0 1
vn 0 0 1
vn 0 0 1
vn 0 0 1
vn 0 0 1
vn 0 0 1
vn 0 0 1
vn 0 0 1
vn 0 0 1
vn 0 0 1
vn 0 0 1
vn 0 0 1
vn 0 1 0
vn 0 1 0
vn 0 1 0
vn 0 1 0
vn -1 0 0
vn -1 0 0
vn -1 0 0
vn -1 0 0
vn 1 0 0
vn 1 0 0
vn 1 0 0
vn 1 0 0
vn 0 0 1
vn 0 0 1
vn 0 0 1
vn 0 0 1
vn 0 0 -1
vn 0 0 -1
vn 0 0 -1
vn 0 0 -1
vn 0 0 1
vn 0 0 1
vn 0 0 1
vn 0 0 1
vn 0 0 -1
vn 0 0 -1
vn 0 0 -1
vn 0 0 -1
g Spooky_Lunapark_Сashbox_01_0
f 3/3/3 2/2/2 1/1/1
f 4/4/4 3/3/3 1/1/1
f 7/7/7 6/6/6 5/5/5
f 8/8/8 7/7/7 5/5/5
f 11/11/11 10/10/10 9/9/9
f 12/12/12 11/11/11 9/9/9
f 15/15/15 14/14/14 13/13/13
f 16/16/16 15/15/15 13/13/13
f 19/19/19 18/18/18 17/17/17
f 20/20/20 19/19/19 17/17/17
f 23/23/23 22/22/22 21/21/21
f 24/24/24 23/23/23 21/21/21
f 27/27/27 26/26/26 25/25/25
f 28/28/28 27/27/27 25/25/25
f 31/31/31 30/30/30 29/29/29
f 32/32/32 31/31/31 29/29/29
f 35/35/35 34/34/34 33/33/33
f 36/36/36 35/35/35 33/33/33
f 39/39/39 38/38/38 37/37/37
f 40/40/40 39/39/39 37/37/37
g Spooky_Lunapark_Сashbox_01_1
f 43/43/43 42/42/42 41/41/41
f 44/44/44 43/43/43 41/41/41
f 43/43/43 44/44/44 45/45/45
f 44/44/44 46/46/46 45/45/45
f 46/46/46 47/47/47 45/45/45
f 41/41/41 42/42/42 47/47/47
f 47/47/47 48/48/48 45/45/45
f 42/42/42 48/48/48 47/47/47
f 51/51/51 50/50/50 49/49/49
f 52/52/52 51/51/51 49/49/49
f 52/52/52 49/49/49 53/53/53
f 54/54/54 52/52/52 53/53/53
f 53/53/53 55/55/55 54/54/54
f 55/55/55 56/56/56 54/54/54
f 57/57/57 56/56/56 55/55/55
f 58/58/58 57/57/57 55/55/55
f 59/59/59 57/57/57 58/58/58
f 60/60/60 59/59/59 58/58/58
f 49/49/49 50/50/50 60/60/60
f 58/58/58 49/49/49 60/60/60
f 63/63/63 62/62/62 61/61/61
f 64/64/64 63/63/63 61/61/61
f 67/67/67 66/66/66 65/65/65
f 68/68/68 67/67/67 65/65/65
f 71/71/71 70/70/70 69/69/69
f 72/72/72 71/71/71 69/69/69
f 75/75/75 74/74/74 73/73/73
f 76/76/76 75/75/75 73/73/73
f 79/79/79 78/78/78 77/77/77
f 80/80/80 79/79/79 77/77/77
f 83/83/83 82/82/82 81/81/81
f 84/84/84 83/83/83 81/81/81
f 87/87/87 86/86/86 85/85/85
f 88/88/88 87/87/87 85/85/85
f 91/91/91 90/90/90 89/89/89
f 92/92/92 91/91/91 89/89/89
f 95/95/95 94/94/94 93/93/93
f 96/96/96 95/95/95 93/93/93
f 99/99/99 98/98/98 97/97/97
f 100/100/100 99/99/99 97/97/97
f 99/99/99 100/100/100 101/101/101
f 102/102/102 99/99/99 101/101/101
f 103/103/103 102/102/102 101/101/101
f 100/100/100 104/104/104 101/101/101
f 101/101/101 104/104/104 105/105/105
f 106/106/106 101/101/101 105/105/105
f 100/100/100 107/107/107 104/104/104
f 107/107/107 108/108/108 104/104/104
f 111/111/111 110/110/110 109/109/109
f 112/112/112 111/111/111 109/109/109
f 115/115/115 114/114/114 113/113/113
f 116/116/116 115/115/115 113/113/113
f 119/119/119 118/118/118 117/117/117
f 120/120/120 119/119/119 117/117/117
f 123/123/123 122/122/122 121/121/121
f 124/124/124 123/123/123 121/121/121
f 127/127/127 126/126/126 125/125/125
f 128/128/128 127/127/127 125/125/125
f 131/131/131 130/130/130 129/129/129
f 132/132/132 131/131/131 129/129/129
f 135/135/135 134/134/134 133/133/133
f 136/136/136 135/135/135 133/133/133
f 139/139/139 138/138/138 137/137/137
f 140/140/140 139/139/139 137/137/137
f 137/137/137 138/138/138 141/141/141
f 138/138/138 142/142/142 141/141/141
f 142/142/142 143/143/143 141/141/141
f 139/139/139 140/140/140 143/143/143
f 143/143/143 144/144/144 141/141/141
f 140/140/140 144/144/144 143/143/143
f 147/147/147 146/146/146 145/145/145
f 148/148/148 147/147/147 145/145/145
f 151/151/151 150/150/150 149/149/149
f 152/152/152 151/151/151 149/149/149
f 155/155/155 154/154/154 153/153/153
f 153/153/153 156/156/156 155/155/155
f 153/153/153 157/157/157 156/156/156
f 160/160/160 159/159/159 158/158/158
f 161/161/161 160/160/160 158/158/158
f 164/164/164 163/163/163 162/162/162
f 162/162/162 165/165/165 164/164/164
f 162/162/162 166/166/166 165/165/165
f 169/169/169 168/168/168 167/167/167
f 170/170/170 169/169/169 167/167/167
f 173/173/173 172/172/172 171/171/171
f 174/174/174 173/173/173 171/171/171
f 177/177/177 176/176/176 175/175/175
f 178/178/178 177/177/177 175/175/175
f 181/181/181 180/180/180 179/179/179
f 182/182/182 181/181/181 179/179/179
f 185/185/185 184/184/184 183/183/183
f 186/186/186 185/185/185 183/183/183
f 189/189/189 188/188/188 187/187/187
f 187/187/187 190/190/190 189/189/189
f 187/187/187 191/191/191 190/190/190
f 194/194/194 193/193/193 192/192/192
f 195/195/195 194/194/194 192/192/192
f 198/198/198 197/197/197 196/196/196
f 196/196/196 199/199/199 198/198/198
f 196/196/196 200/200/200 199/199/199
f 203/203/203 202/202/202 201/201/201
f 204/204/204 203/203/203 201/201/201
f 207/207/207 206/206/206 205/205/205
f 205/205/205 208/208/208 207/207/207
f 205/205/205 209/209/209 208/208/208
f 212/212/212 211/211/211 210/210/210
f 213/213/213 212/212/212 210/210/210
f 216/216/216 215/215/215 214/214/214
f 214/214/214 217/217/217 216/216/216
f 220/220/220 219/219/219 218/218/218
g Spooky_Lunapark_Сashbox_01_2
f 223/223/223 222/222/222 221/221/221
f 224/224/224 223/223/223 221/221/221
f 227/227/227 226/226/226 225/225/225
f 228/228/228 227/227/227 225/225/225
f 231/231/231 230/230/230 229/229/229
f 232/232/232 231/231/231 229/229/229
f 235/235/235 234/234/234 233/233/233
f 236/236/236 235/235/235 233/233/233
g Spooky_Lunapark_Сashbox_01_3
f 239/239/239 238/238/238 237/237/237
f 240/240/240 239/239/239 237/237/237
f 243/243/243 242/242/242 241/241/241
f 244/244/244 243/243/243 241/241/241
f 247/247/247 246/246/246 245/245/245
f 248/248/248 247/247/247 245/245/245
f 251/251/251 250/250/250 249/249/249
f 252/252/252 251/251/251 249/249/249
f 255/255/255 254/254/254 253/253/253
f 256/256/256 255/255/255 253/253/253
f 259/259/259 258/258/258 257/257/257
f 260/260/260 259/259/259 257/257/257
f 263/263/263 262/262/262 261/261/261
f 264/264/264 263/263/263 261/261/261
g Spooky_Lunapark_Сashbox_01_4
f 267/267/267 266/266/266 265/265/265
f 268/268/268 267/267/267 265/265/265
f 271/271/271 270/270/270 269/269/269
f 272/272/272 271/271/271 269/269/269
f 275/275/275 274/274/274 273/273/273
f 276/276/276 275/275/275 273/273/273
f 279/279/279 278/278/278 277/277/277
f 280/280/280 279/279/279 277/277/277
f 283/283/283 282/282/282 281/281/281
f 284/284/284 283/283/283 281/281/281
f 287/287/287 286/286/286 285/285/285
f 288/288/288 287/287/287 285/285/285
f 291/291/291 290/290/290 289/289/289
f 292/292/292 291/291/291 289/289/289
