g Spooky_Lunapark_Stairs
v 35.72143 -2.250001 2
v 35.72143 2.249999 2
v 36.22143 2.249999 2
v 36.22143 -2.250001 2
v 35.72143 -2.250001 2
v 35.72143 -2.250001 1.5
v 35.72143 2.249999 1.5
v 35.72143 2.249999 2
v 35.72143 -2.250001 1.5
v 35.22143 -2.250001 1.5
v 35.22143 2.249999 1.5
v 35.72143 2.249999 1.5
v 35.22143 -2.250001 1.5
v 35.22143 -2.250001 1
v 35.22143 2.249999 1
v 35.22143 2.249999 1.5
v 35.22143 -2.250001 1
v 36.22144 -2.250001 1
v 36.22144 2.249999 1
v 35.22143 2.249999 1
v 35.22143 2.249999 1
v 36.22144 2.249999 1
v 35.72143 2.249999 1.5
v 35.22143 2.249999 1.5
v 36.22143 2.249999 2
v 35.72143 2.249999 2
v 35.22143 -2.250001 1
v 35.22143 -2.250001 1.5
v 35.72143 -2.250001 1.5
v 36.22144 -2.250001 1
v 36.22143 -2.250001 2
v 35.72143 -2.250001 2
v 36.22143 2.249999 2
v 36.22143 2.249999 1.5
v 36.22143 -2.250001 1.5
v 36.22143 -2.250001 2
v 36.22143 -2.250001 1
v 36.22143 2.249999 1
vt 0.5000019 2.750002
vt 0.500001 -1.749996
vt 2.384186E-06 -1.749996
vt 3.33786E-06 2.750002
vt 2.750002 0.8300761
vt 2.750002 0.330076
vt -1.749996 0.330076
vt -1.749996 0.8300761
vt 0.5000019 2.750002
vt 0.9999995 2.750002
vt 0.9999995 -1.749996
vt 0.500001 -1.749996
vt 2.750002 0.330076
vt 2.750002 -0.1699239
vt -1.749996 -0.1699239
vt -1.749996 0.330076
vt 4.768372E-07 2.750002
vt 0.999999 2.750002
vt 1 -1.749996
vt 4.768372E-07 -1.749996
vt 0.9999995 -0.1699239
vt 0 -0.1699239
vt 0.500001 0.330076
vt 0.9999995 0.330076
vt 2.384186E-06 0.830076
vt 0.500001 0.8300761
vt 4.768372E-07 -0.1699239
vt 4.768372E-07 0.330076
vt 0.4999981 0.330076
vt 0.999999 -0.1699239
vt 0.9999967 0.830076
vt 0.4999981 0.8300761
vt 2.750002 0.8300761
vt 2.750002 0.330076
vt -1.749996 0.330076
vt -1.749996 0.8300761
vt -1.749996 -0.1699239
vt 2.750002 -0.1699239
vn 0 0 1
vn 0 0 1
vn 0 0 1
vn 0 0 1
vn -1 0 0
vn -1 0 0
vn -1 0 0
vn -1 0 0
vn 0 0 1
vn 0 0 1
vn 0 0 1
vn 0 0 1
vn -1 0 0
vn -1 0 0
vn -1 0 0
vn -1 0 0
vn 0 0 -1
vn 0 0 -1
vn 0 0 -1
vn 0 0 -1
vn 0 1 0
vn 0 1 0
vn 0 1 0
vn 0 1 0
vn 0 1 0
vn 0 1 0
vn 0 -1 0
vn 0 -1 0
vn 0 -1 0
vn 0 -1 0
vn 0 -1 0
vn 0 -1 0
vn 1 0 0
vn 1 0 0
vn 1 0 0
vn 1 0 0
vn 1 0 0
vn 1 0 0
g Spooky_Lunapark_Stairs_0
f 3/3/3 2/2/2 1/1/1
f 4/4/4 3/3/3 1/1/1
f 7/7/7 6/6/6 5/5/5
f 8/8/8 7/7/7 5/5/5
f 11/11/11 10/10/10 9/9/9
f 12/12/12 11/11/11 9/9/9
f 15/15/15 14/14/14 13/13/13
f 16/16/16 15/15/15 13/13/13
f 19/19/19 18/18/18 17/17/17
f 20/20/20 19/19/19 17/17/17
f 23/23/23 22/22/22 21/21/21
f 24/24/24 23/23/23 21/21/21
f 22/22/22 23/23/23 25/25/25
f 23/23/23 26/26/26 25/25/25
f 29/29/29 28/28/28 27/27/27
f 30/30/30 29/29/29 27/27/27
f 30/30/30 31/31/31 29/29/29
f 31/31/31 32/32/32 29/29/29
f 35/35/35 34/34/34 33/33/33
f 36/36/36 35/35/35 33/33/33
f 35/35/35 37/37/37 34/34/34
f 37/37/37 38/38/38 34/34/34
