g stairs_collision_02
v 4.430509 -26.02749 -6.231751
v 4.430509 -29.1456 -6.23175
v -1.055996 -29.1456 -3.484791
v -1.055996 -26.02749 -3.484792
v -1.89533 -32.52481 -3.48128
v -1.89533 -29.1456 -3.48128
v 5.280005 -29.1456 0.1056093
v 5.280005 -32.5248 0.1056103
v -2.745598 13.30324 -6.233153
v -0.2111987 13.30324 -6.233153
v -0.2111987 1.4784 -0.3168009
v -2.745598 1.4784 -0.3168006
v -0.6128638 -1.478401 -0.3160528
v -0.6128638 1.478401 -0.3160542
v 0.2112012 1.478401 0.1055993
v 0.2112012 -1.478401 0.1056007
v -2.745598 -1.900801 0.1056009
v -2.745598 -1.102381 -0.315987
v -0.2111987 -1.102381 -0.315987
v -0.2111987 -1.900801 0.1056008
v 9.849504 -27.62368 5.810322
v 18.4747 -27.15751 5.810321
v 18.4747 -27.15751 11.8243
v 9.849504 -27.62367 8.950153
v 1.627805 -27.15751 11.8243
v 1.609989 -27.62367 8.950153
v 52.68195 -27.15751 5.810321
v 52.68195 -27.15751 11.8243
v 52.68195 -27.15748 122.045
v 18.4747 -27.15748 122.045
v 1.627805 -27.15748 122.045
v 51.47488 -29.71351 121.8602
v 51.47488 -29.71355 5.347311
v 51.47488 15.67868 5.347297
v 51.47488 15.67872 121.8602
v 51.47488 15.67872 121.8602
v 51.47488 15.67868 5.347297
v 62.05027 15.67868 5.347297
v 62.05027 15.67872 121.8602
v 2.071014 -28.32238 122.3744
v 2.071007 2.267067 122.3744
v 2.071007 2.267023 3.756767
v 2.071014 -28.32242 3.756783
v 1.82783 8.001745 3.756765
v 1.82783 8.001762 37.33051
v 23.13765 -16.81269 -5.993349
v 23.13765 -13.94716 -5.99335
v 34.37418 -13.94716 -5.99335
v 34.37418 -16.81269 -5.993349
v 35.8755 -16.81269 -5.993349
v 35.8755 -13.94716 -5.99335
v 47.11203 -13.94716 -5.99335
v 47.11203 -16.81269 -5.993349
v 10.25631 -8.295626 -5.993352
v 10.25631 -5.430101 -5.993353
v 21.49284 -5.430101 -5.993353
v 21.49284 -8.295626 -5.993352
vt 0 0
vt 0 0
vt 0 0
vt 0 0
vt 0 0
vt 0 0
vt 0 0
vt 0 0
vt 0 0
vt 0 0
vt 0 0
vt 0 0
vt 0 0
vt 0 0
vt 0 0
vt 0 0
vt 0 0
vt 0 0
vt 0 0
vt 0 0
vt 0 0
vt 0 0
vt 0 0
vt 0 0
vt 0 0
vt 0 0
vt 0 0
vt 0 0
vt 0 0
vt 0 0
vt 0 0
vt 0 0
vt 0 0
vt 0 0
vt 0 0
vt 0 0
vt 0 0
vt 0 0
vt 0 0
vt 0 0
vt 0 0
vt 0 0
vt 0 0
vt 0 0
vt 0 0
vt 0 0
vt 0 0
vt 0 0
vt 0 0
vt 0 0
vt 0 0
vt 0 0
vt 0 0
vt 0 0
vt 0 0
vt 0 0
vt 0 0
vn 0.4476968 0 0.8941855
vn 0.4476968 0 0.8941855
vn 0.4476968 0 0.8941855
vn 0.4476968 0 0.8941855
vn -0.4471361 0 0.894466
vn -0.4471361 0 0.894466
vn -0.4471361 0 0.894466
vn -0.4471361 0 0.894466
vn 0 0.4474516 0.8943081
vn 0 0.4474516 0.8943081
vn 0 0.4474516 0.8943081
vn 0 0.4474516 0.8943081
vn -0.4555091 0 0.8902311
vn -0.4555091 0 0.8902311
vn -0.4555091 0 0.8902311
vn -0.4555091 0 0.8902311
vn 0 0.4669314 0.8842935
vn 0 0.4669314 0.8842935
vn 0 0.4669314 0.8842935
vn 0 0.4669314 0.8842935
vn -0.0539677 0.9985427 0
vn -0.02699369 0.9996356 0
vn -0.01081841 0.9994264 -0.03209401
vn -0.02708109 0.9963996 -0.08033853
vn 0 0.99677 -0.08030932
vn 0 0.9871008 -0.1600996
vn 0 1 0
vn 0 1 0
vn 0 1 0
vn 0 1 0
vn 0 1 0
vn -1 0 0
vn -1 0 0
vn -1 0 0
vn -1 0 0
vn 0 1 0
vn 0 1 0
vn 0 1 0
vn 0 1 0
vn 1 0 0
vn 0.9997755 0.02118802 0
vn 0.9997755 0.02118802 0
vn 1 0 0
vn 0.9991021 0.04236631 0
vn 0.9991021 0.04236631 0
vn 0 0 1
vn 0 0 1
vn 0 0 1
vn 0 0 1
vn 0 0 1
vn 0 0 1
vn 0 0 1
vn 0 0 1
vn 0 0 1
vn 0 0 1
vn 0 0 1
vn 0 0 1
g stairs_collision_02_0
f 3/3/3 2/2/2 1/1/1
f 4/4/4 3/3/3 1/1/1
f 7/7/7 6/6/6 5/5/5
f 8/8/8 7/7/7 5/5/5
f 11/11/11 10/10/10 9/9/9
f 12/12/12 11/11/11 9/9/9
f 15/15/15 14/14/14 13/13/13
f 16/16/16 15/15/15 13/13/13
f 19/19/19 18/18/18 17/17/17
f 20/20/20 19/19/19 17/17/17
f 23/23/23 22/22/22 21/21/21
f 24/24/24 23/23/23 21/21/21
f 25/25/25 23/23/23 24/24/24
f 26/26/26 25/25/25 24/24/24
f 27/27/27 22/22/22 23/23/23
f 28/28/28 27/27/27 23/23/23
f 29/29/29 28/28/28 23/23/23
f 30/30/30 29/29/29 23/23/23
f 30/30/30 23/23/23 25/25/25
f 31/31/31 30/30/30 25/25/25
f 34/34/34 33/33/33 32/32/32
f 35/35/35 34/34/34 32/32/32
f 38/38/38 37/37/37 36/36/36
f 39/39/39 38/38/38 36/36/36
f 42/42/42 41/41/41 40/40/40
f 43/43/43 42/42/42 40/40/40
f 42/42/42 44/44/44 41/41/41
f 44/44/44 45/45/45 41/41/41
f 48/48/48 47/47/47 46/46/46
f 49/49/49 48/48/48 46/46/46
f 52/52/52 51/51/51 50/50/50
f 53/53/53 52/52/52 50/50/50
f 56/56/56 55/55/55 54/54/54
f 57/57/57 56/56/56 54/54/54
