g stone_skull
v -8.345361E-08 -0.1025214 -0.597538
v -0.4950167 0.2475083 -0.2475086
v -0.4950168 -0.2475083 0.2475082
v -1.251804E-07 -0.597538 -0.1025214
v 0.4950169 0.2475082 -0.2475081
v 0.4950165 -0.2475083 0.2475087
v -2.08634E-08 0.1025215 0.597538
v 1.251804E-07 0.597538 0.1025214
v -8.345361E-08 -0.1025214 -0.597538
v -1.251804E-07 -0.597538 -0.1025214
v 0.4950165 -0.2475083 0.2475087
v 0.4950169 0.2475082 -0.2475081
v -1.251804E-07 -0.597538 -0.1025214
v -0.4950168 -0.2475083 0.2475082
v -2.08634E-08 0.1025215 0.597538
v 0.4950165 -0.2475083 0.2475087
v -0.4950168 -0.2475083 0.2475082
v -0.4950167 0.2475083 -0.2475086
v 1.251804E-07 0.597538 0.1025214
v -2.08634E-08 0.1025215 0.597538
v 0.4950169 0.2475082 -0.2475081
v 1.251804E-07 0.597538 0.1025214
v -0.4950167 0.2475083 -0.2475086
v -8.345361E-08 -0.1025214 -0.597538
vt 0.4140625 0.15625
vt 0.4140625 0.484375
vt 0.578125 0.484375
vt 0.578125 0.15625
vt 0.578125 0.484375
vt 0.578125 0.15625
vt 0.4140625 0.15625
vt 0.4140625 0.484375
vt 0.4140625 0.15625
vt 0.4140625 0.484375
vt 0.578125 0.484375
vt 0.578125 0.15625
vt 0.578125 0.15625
vt 0.4140625 0.15625
vt 0.4140625 0.484375
vt 0.578125 0.484375
vt 0.4140625 0.15625
vt 0.4140625 0.484375
vt 0.578125 0.484375
vt 0.578125 0.15625
vt 0.4140625 0.484375
vt 0.578125 0.484375
vt 0.578125 0.15625
vt 0.4140625 0.15625
vn -0.7071068 -0.4999999 -0.5000001
vn -0.7071068 -0.4999999 -0.5000001
vn -0.7071068 -0.4999999 -0.5000001
vn -0.7071068 -0.4999999 -0.5000001
vn 0.7071067 0.5 0.5
vn 0.7071067 0.5 0.5
vn 0.7071067 0.5 0.5
vn 0.7071067 0.5 0.5
vn 0.7071068 -0.5000002 -0.4999997
vn 0.7071068 -0.5000002 -0.4999997
vn 0.7071068 -0.5000002 -0.4999997
vn 0.7071068 -0.5000002 -0.4999997
vn -3.230571E-07 -0.7071067 0.7071069
vn -3.230571E-07 -0.7071067 0.7071069
vn -3.230571E-07 -0.7071067 0.7071069
vn -3.230571E-07 -0.7071067 0.7071069
vn -0.7071069 0.5000001 0.4999998
vn -0.7071069 0.5000001 0.4999998
vn -0.7071069 0.5000001 0.4999998
vn -0.7071069 0.5000001 0.4999998
vn 4.560805E-07 0.7071068 -0.7071068
vn 4.560805E-07 0.7071068 -0.7071068
vn 4.560805E-07 0.7071068 -0.7071068
vn 4.560805E-07 0.7071068 -0.7071068
g stone_skull_0
f 3/3/3 2/2/2 1/1/1
f 4/4/4 3/3/3 1/1/1
f 7/7/7 6/6/6 5/5/5
f 8/8/8 7/7/7 5/5/5
f 11/11/11 10/10/10 9/9/9
f 12/12/12 11/11/11 9/9/9
f 15/15/15 14/14/14 13/13/13
f 16/16/16 15/15/15 13/13/13
f 19/19/19 18/18/18 17/17/17
f 20/20/20 19/19/19 17/17/17
f 23/23/23 22/22/22 21/21/21
f 24/24/24 23/23/23 21/21/21
