g Swamp_campaign3_sekvoya10
v -0.503923 1.010974 -0.6612271
v -0.503923 0.01097168 23.09291
v -0.503923 0.01097412 -0.6612273
v -0.503923 1.010972 23.09291
v 0.4960773 1.010974 -0.6612271
v -0.503923 0.01097412 -0.6612273
v 0.4960773 0.01097412 -0.6612273
v -0.503923 1.010974 -0.6612271
v 0.4960773 0.01097412 -0.6612273
v -0.503923 0.01097168 23.09291
v 0.4960773 0.01097168 23.09291
v -0.503923 0.01097412 -0.6612273
v 0.4960773 0.01097168 23.09291
v -0.503923 1.010972 23.09291
v 0.4960773 1.010972 23.09291
v -0.503923 0.01097168 23.09291
v 0.4960773 1.010972 23.09291
v -0.503923 1.010974 -0.6612271
v 0.4960773 1.010974 -0.6612271
v -0.503923 1.010972 23.09291
v 0.4960773 1.010974 -0.6612271
v 0.4960773 0.01097168 23.09291
v 0.4960773 1.010972 23.09291
v 0.4960773 0.01097412 -0.6612273
v 4.496078 -4.061687 22.83093
v 4.496078 5.077673 20.83093
v 4.496078 -4.061679 20.83093
v 4.496078 5.077668 22.83093
v 4.496078 5.077668 22.83093
v -3.503922 5.077673 20.83093
v 4.496078 5.077673 20.83093
v -3.503922 5.077668 22.83093
v -3.503922 5.077668 22.83093
v -3.503922 -4.061679 20.83093
v -3.503922 5.077673 20.83093
v -3.503922 -4.061687 22.83093
v -3.503922 -4.061687 22.83093
v 4.496078 -4.061679 20.83093
v -3.503922 -4.061679 20.83093
v 4.496078 -4.061687 22.83093
v 4.496078 5.077673 20.83093
v -3.503922 -4.061679 20.83093
v 4.496078 -4.061679 20.83093
v -3.503922 5.077673 20.83093
v 4.496078 5.077668 22.83093
v -3.503922 -4.061687 22.83093
v -3.503922 5.077668 22.83093
v 4.496078 -4.061687 22.83093
v -2.503923 2.792825 24.83093
v 2.496078 2.79283 21.83093
v 2.496078 2.792825 24.83093
v -2.503923 2.79283 21.83093
v 2.496078 2.792825 24.83093
v 2.496078 -1.776848 21.83093
v 2.496078 -1.776851 24.83093
v 2.496078 2.79283 21.83093
v 2.496078 -1.776851 24.83093
v -2.503923 -1.776848 21.83093
v -2.503923 -1.776851 24.83093
v 2.496078 -1.776848 21.83093
v -2.503923 -1.776851 24.83093
v -2.503923 2.79283 21.83093
v -2.503923 2.792825 24.83093
v -2.503923 -1.776848 21.83093
v -2.503923 2.792825 24.83093
v 2.496078 -1.776851 24.83093
v -2.503923 -1.776851 24.83093
v 2.496078 2.792825 24.83093
v -2.483096 1.977583 14.57091
v -2.483096 -5.006575 15.57091
v -2.483096 -5.006575 14.57091
v -2.483096 1.977583 15.57091
v 3.516904 1.977583 14.57091
v -2.483096 -5.006575 14.57091
v 3.516904 -5.006575 14.57091
v -2.483096 1.977583 14.57091
v 3.516904 -5.006575 14.57091
v -2.483096 -5.006575 15.57091
v 3.516904 -5.006575 15.57091
v -2.483096 -5.006575 14.57091
v 3.516904 -5.006575 15.57091
v -2.483096 1.977583 15.57091
v 3.516904 1.977583 15.57091
v -2.483096 -5.006575 15.57091
v 3.516904 1.977583 15.57091
v -2.483096 1.977583 14.57091
v 3.516904 1.977583 14.57091
v -2.483096 1.977583 15.57091
v 3.516904 1.977583 14.57091
v 3.516904 -5.006575 15.57091
v 3.516904 1.977583 15.57091
v 3.516904 -5.006575 14.57091
v -1.503929 1.073877 15.57635
v -1.503929 -3.609614 16.57635
v -1.503929 -3.609614 15.57635
v -1.503929 1.073877 16.57635
v 2.496078 1.073877 15.57635
v -1.503929 -3.609614 15.57635
v 2.496078 -3.609614 15.57635
v -1.503929 1.073877 15.57635
v 2.496078 -3.609614 15.57635
v -1.503929 -3.609614 16.57635
v 2.496078 -3.609614 16.57635
v -1.503929 -3.609614 15.57635
v 2.496078 -3.609614 16.57635
v -1.503929 1.073877 16.57635
v 2.496078 1.073877 16.57635
v -1.503929 -3.609614 16.57635
v 2.496078 1.073877 16.57635
v -1.503929 1.073877 15.57635
v 2.496078 1.073877 15.57635
v -1.503929 1.073877 16.57635
v 2.496078 1.073877 15.57635
v 2.496078 -3.609614 16.57635
v 2.496078 1.073877 16.57635
v 2.496078 -3.609614 15.57635
v -1.536432 3.023381 8.360595
v -1.536432 -0.9797803 9.360598
v -1.536432 -0.9797803 8.360598
v -1.536432 3.023381 9.360595
v 4.493471 3.023381 8.360595
v -1.536432 -0.9797803 8.360598
v 4.493471 -0.9797803 8.360598
v -1.536432 3.023381 8.360595
v 4.493471 -0.9797803 8.360598
v -1.536432 -0.9797803 9.360598
v 4.493471 -0.9797803 9.360598
v -1.536432 -0.9797803 8.360598
v 4.493471 -0.9797803 9.360598
v -1.536432 3.023381 9.360595
v 4.493471 3.023381 9.360595
v -1.536432 -0.9797803 9.360598
v 4.493471 3.023381 9.360595
v -1.536432 3.023381 8.360595
v 4.493471 3.023381 8.360595
v -1.536432 3.023381 9.360595
v 4.493471 3.023381 8.360595
v 4.493471 -0.9797803 9.360598
v 4.493471 3.023381 9.360595
v 4.493471 -0.9797803 8.360598
v -4.559695 2.011177 9.358719
v -4.559695 -1.943516 10.35872
v -4.559695 -1.943518 9.358718
v -4.559695 2.011177 10.35872
v 1.478402 2.011177 9.358719
v -4.559695 -1.943518 9.358718
v 1.478402 -1.943518 9.358718
v -4.559695 2.011177 9.358719
v 1.478402 -1.943518 9.358718
v -4.559695 -1.943516 10.35872
v 1.478402 -1.943516 10.35872
v -4.559695 -1.943518 9.358718
v 1.478402 -1.943516 10.35872
v -4.559695 2.011177 10.35872
v 1.478402 2.011177 10.35872
v -4.559695 -1.943516 10.35872
v 1.478402 2.011177 10.35872
v -4.559695 2.011177 9.358719
v 1.478402 2.011177 9.358719
v -4.559695 2.011177 10.35872
v 1.478402 2.011177 9.358719
v 1.478402 -1.943516 10.35872
v 1.478402 2.011177 10.35872
v 1.478402 -1.943518 9.358718
vt 0.9730013 0.01834958
vt 0.9937587 0.5114111
vt 0.9937586 0.01834958
vt 0.9730014 0.5114111
vt 0.9937587 0.001866676
vt 0.9730012 0.02262355
vt 0.9937587 0.02262355
vt 0.9730012 0.001866675
vt 0.9937587 0.02262355
vt 0.9730012 0.5156851
vt 0.9937587 0.5156851
vt 0.9730012 0.02262355
vt 0.9730012 0.02689858
vt 0.9937587 0.006141705
vt 0.9730012 0.006141703
vt 0.9937587 0.02689858
vt 0.9730012 0.5114113
vt 0.9937587 0.01834976
vt 0.9730012 0.01834976
vt 0.9937587 0.5114113
vt 0.9937587 0.01834955
vt 0.9730013 0.5114111
vt 0.9937586 0.5114111
vt 0.9730014 0.01834955
vt 0.7523159 0.1716356
vt 0.9420199 0.130122
vt 0.7523161 0.130122
vt 0.9420199 0.1716356
vt 0.7660933 0.1555224
vt 0.9321489 0.1140088
vt 0.7660933 0.1140088
vt 0.9321489 0.1555224
vt 0.7786832 0.1916557
vt 0.968387 0.150142
vt 0.7786832 0.150142
vt 0.9683872 0.1916557
vt 0.7250777 0.2014211
vt 0.8911332 0.1599075
vt 0.7250777 0.1599075
vt 0.8911332 0.2014211
vt 0.868184 0.07067515
vt 0.7021285 0.2603794
vt 0.868184 0.2603795
vt 0.7021285 0.07067513
vt 0.7729293 0.07360476
vt 0.9389848 0.2633092
vt 0.9389848 0.07360478
vt 0.7729293 0.2633091
vt 0.9005247 0.195686
vt 0.7967409 0.1334155
vt 0.7967409 0.195686
vt 0.9005247 0.1334155
vt 0.8843398 0.2113112
vt 0.7894883 0.1490407
vt 0.7894882 0.2113112
vt 0.8843399 0.1490406
vt 0.8599974 0.2410959
vt 0.7562135 0.1788254
vt 0.7562135 0.2410959
vt 0.8599974 0.1788254
vt 0.9307268 0.2313307
vt 0.835875 0.1690602
vt 0.8358752 0.2313307
vt 0.9307268 0.1690603
vt 0.9073607 0.1307966
vt 0.8035768 0.2256487
vt 0.9073607 0.2256487
vt 0.8035768 0.1307966
vt 0.7907969 0.07214118
vt 0.9357656 0.09289788
vt 0.9357656 0.07214108
vt 0.7907969 0.09289798
vt 0.8772117 0.08327712
vt 0.7526711 0.2282463
vt 0.8772117 0.2282463
vt 0.7526711 0.08327711
vt 0.900161 0.08190675
vt 0.7756203 0.1026636
vt 0.900161 0.1026636
vt 0.7756203 0.08190678
vt 0.7639015 0.231176
vt 0.8884422 0.08620678
vt 0.7639015 0.08620676
vt 0.8884422 0.231176
vt 0.7145851 0.1212182
vt 0.8391258 0.1004615
vt 0.7145851 0.1004614
vt 0.8391258 0.1212183
vt 0.8283437 0.1351295
vt 0.683375 0.1558861
vt 0.8283437 0.1558862
vt 0.683375 0.1351294
vt 0.8053963 0.2215552
vt 0.9026115 0.242312
vt 0.9026115 0.2215552
vt 0.8053963 0.242312
vt 0.8364354 0.1462168
vt 0.7534083 0.2434316
vt 0.8364354 0.2434316
vt 0.7534083 0.1462168
vt 0.8042089 0.1907935
vt 0.7211818 0.2115503
vt 0.8042089 0.2115502
vt 0.7211818 0.1907935
vt 0.8041896 0.2463613
vt 0.8872167 0.1491465
vt 0.8041896 0.1491465
vt 0.8872167 0.2463613
vt 0.6606349 0.2276635
vt 0.743662 0.2069068
vt 0.6606349 0.2069068
vt 0.743662 0.2276635
vt 0.7780998 0.1654029
vt 0.6808846 0.1861596
vt 0.7780998 0.1861596
vt 0.6808846 0.1654029
vt 0.7934141 0.1234107
vt 0.8765078 0.1441675
vt 0.8765078 0.1234107
vt 0.7934141 0.1441675
vt 0.808675 0.1337463
vt 0.6835125 0.2168396
vt 0.808675 0.2168396
vt 0.6835125 0.1337463
vt 0.7959797 0.1790747
vt 0.6708172 0.1998315
vt 0.7959797 0.1998315
vt 0.6708172 0.1790748
vt 0.8324383 0.2197692
vt 0.9576008 0.136676
vt 0.8324383 0.136676
vt 0.9576008 0.2197693
vt 0.7289227 0.2032495
vt 0.8540851 0.1824927
vt 0.7289227 0.1824927
vt 0.8540851 0.2032495
vt 0.8330507 0.1409888
vt 0.7499571 0.1617456
vt 0.8330507 0.1617455
vt 0.7499571 0.1409888
vt 0.7939171 0.1234107
vt 0.8760047 0.1441675
vt 0.8760048 0.1234107
vt 0.7939171 0.1441675
vt 0.80876 0.1342494
vt 0.6834275 0.2163366
vt 0.80876 0.2163366
vt 0.6834275 0.1342494
vt 0.7960647 0.1790747
vt 0.6707321 0.1998315
vt 0.7960647 0.1998315
vt 0.6707321 0.1790748
vt 0.8323532 0.2192662
vt 0.9576858 0.1371791
vt 0.8323532 0.1371791
vt 0.9576858 0.2192663
vt 0.7288376 0.2032495
vt 0.8541702 0.1824928
vt 0.7288376 0.1824928
vt 0.8541702 0.2032495
vt 0.8325478 0.1409888
vt 0.7504603 0.1617456
vt 0.8325478 0.1617456
vt 0.7504602 0.1409888
vn -1 0 0
vn -1 0 0
vn -1 0 0
vn -1 0 0
vn 0 0 -1
vn 0 0 -1
vn 0 0 -1
vn 0 0 -1
vn 0 -1 0
vn 0 -1 0
vn 0 -1 0
vn 0 -1 0
vn 0 0 1
vn 0 0 1
vn 0 0 1
vn 0 0 1
vn 0 1 0
vn 0 1 0
vn 0 1 0
vn 0 1 0
vn 1 0 0
vn 1 0 0
vn 1 0 0
vn 1 0 0
vn 1 0 0
vn 1 0 0
vn 1 0 0
vn 1 0 0
vn 0 1 0
vn 0 1 0
vn 0 1 0
vn 0 1 0
vn -1 0 0
vn -1 0 0
vn -1 0 0
vn -1 0 0
vn 0 -1 0
vn 0 -1 0
vn 0 -1 0
vn 0 -1 0
vn 0 0 -1
vn 0 0 -1
vn 0 0 -1
vn 0 0 -1
vn 0 0 1
vn 0 0 1
vn 0 0 1
vn 0 0 1
vn 0 1 0
vn 0 1 0
vn 0 1 0
vn 0 1 0
vn 1 0 0
vn 1 0 0
vn 1 0 0
vn 1 0 0
vn 0 -1 0
vn 0 -1 0
vn 0 -1 0
vn 0 -1 0
vn -1 0 0
vn -1 0 0
vn -1 0 0
vn -1 0 0
vn 0 0 1
vn 0 0 1
vn 0 0 1
vn 0 0 1
vn -1 0 0
vn -1 0 0
vn -1 0 0
vn -1 0 0
vn 0 0 -1
vn 0 0 -1
vn 0 0 -1
vn 0 0 -1
vn 0 -1 0
vn 0 -1 0
vn 0 -1 0
vn 0 -1 0
vn 0 0 1
vn 0 0 1
vn 0 0 1
vn 0 0 1
vn 0 1 0
vn 0 1 0
vn 0 1 0
vn 0 1 0
vn 1 0 0
vn 1 0 0
vn 1 0 0
vn 1 0 0
vn -1 0 0
vn -1 0 0
vn -1 0 0
vn -1 0 0
vn 0 0 -1
vn 0 0 -1
vn 0 0 -1
vn 0 0 -1
vn 0 -1 0
vn 0 -1 0
vn 0 -1 0
vn 0 -1 0
vn 0 0 1
vn 0 0 1
vn 0 0 1
vn 0 0 1
vn 0 1 0
vn 0 1 0
vn 0 1 0
vn 0 1 0
vn 1 0 0
vn 1 0 0
vn 1 0 0
vn 1 0 0
vn -1 0 0
vn -1 0 0
vn -1 0 0
vn -1 0 0
vn 0 0 -1
vn 0 0 -1
vn 0 0 -1
vn 0 0 -1
vn 0 -1 0
vn 0 -1 0
vn 0 -1 0
vn 0 -1 0
vn 0 0 1
vn 0 0 1
vn 0 0 1
vn 0 0 1
vn 0 1 0
vn 0 1 0
vn 0 1 0
vn 0 1 0
vn 1 0 0
vn 1 0 0
vn 1 0 0
vn 1 0 0
vn -1 0 0
vn -1 0 0
vn -1 0 0
vn -1 0 0
vn 0 0 -1
vn 0 0 -1
vn 0 0 -1
vn 0 0 -1
vn 0 -1 0
vn 0 -1 0
vn 0 -1 0
vn 0 -1 0
vn 0 0 1
vn 0 0 1
vn 0 0 1
vn 0 0 1
vn 0 1 0
vn 0 1 0
vn 0 1 0
vn 0 1 0
vn 1 0 0
vn 1 0 0
vn 1 0 0
vn 1 0 0
g Swamp_campaign3_sekvoya10_0
f 3/3/3 2/2/2 1/1/1
f 4/4/4 1/1/1 2/2/2
f 7/7/7 6/6/6 5/5/5
f 8/8/8 5/5/5 6/6/6
f 11/11/11 10/10/10 9/9/9
f 12/12/12 9/9/9 10/10/10
f 15/15/15 14/14/14 13/13/13
f 16/16/16 13/13/13 14/14/14
f 19/19/19 18/18/18 17/17/17
f 20/20/20 17/17/17 18/18/18
f 23/23/23 22/22/22 21/21/21
f 24/24/24 21/21/21 22/22/22
f 27/27/27 26/26/26 25/25/25
f 28/28/28 25/25/25 26/26/26
f 31/31/31 30/30/30 29/29/29
f 32/32/32 29/29/29 30/30/30
f 35/35/35 34/34/34 33/33/33
f 36/36/36 33/33/33 34/34/34
f 39/39/39 38/38/38 37/37/37
f 40/40/40 37/37/37 38/38/38
f 43/43/43 42/42/42 41/41/41
f 44/44/44 41/41/41 42/42/42
f 47/47/47 46/46/46 45/45/45
f 48/48/48 45/45/45 46/46/46
f 51/51/51 50/50/50 49/49/49
f 52/52/52 49/49/49 50/50/50
f 55/55/55 54/54/54 53/53/53
f 56/56/56 53/53/53 54/54/54
f 59/59/59 58/58/58 57/57/57
f 60/60/60 57/57/57 58/58/58
f 63/63/63 62/62/62 61/61/61
f 64/64/64 61/61/61 62/62/62
f 67/67/67 66/66/66 65/65/65
f 68/68/68 65/65/65 66/66/66
f 71/71/71 70/70/70 69/69/69
f 72/72/72 69/69/69 70/70/70
f 75/75/75 74/74/74 73/73/73
f 76/76/76 73/73/73 74/74/74
f 79/79/79 78/78/78 77/77/77
f 80/80/80 77/77/77 78/78/78
f 83/83/83 82/82/82 81/81/81
f 84/84/84 81/81/81 82/82/82
f 87/87/87 86/86/86 85/85/85
f 88/88/88 85/85/85 86/86/86
f 91/91/91 90/90/90 89/89/89
f 92/92/92 89/89/89 90/90/90
f 95/95/95 94/94/94 93/93/93
f 96/96/96 93/93/93 94/94/94
f 99/99/99 98/98/98 97/97/97
f 100/100/100 97/97/97 98/98/98
f 103/103/103 102/102/102 101/101/101
f 104/104/104 101/101/101 102/102/102
f 107/107/107 106/106/106 105/105/105
f 108/108/108 105/105/105 106/106/106
f 111/111/111 110/110/110 109/109/109
f 112/112/112 109/109/109 110/110/110
f 115/115/115 114/114/114 113/113/113
f 116/116/116 113/113/113 114/114/114
f 119/119/119 118/118/118 117/117/117
f 120/120/120 117/117/117 118/118/118
f 123/123/123 122/122/122 121/121/121
f 124/124/124 121/121/121 122/122/122
f 127/127/127 126/126/126 125/125/125
f 128/128/128 125/125/125 126/126/126
f 131/131/131 130/130/130 129/129/129
f 132/132/132 129/129/129 130/130/130
f 135/135/135 134/134/134 133/133/133
f 136/136/136 133/133/133 134/134/134
f 139/139/139 138/138/138 137/137/137
f 140/140/140 137/137/137 138/138/138
f 143/143/143 142/142/142 141/141/141
f 144/144/144 141/141/141 142/142/142
f 147/147/147 146/146/146 145/145/145
f 148/148/148 145/145/145 146/146/146
f 151/151/151 150/150/150 149/149/149
f 152/152/152 149/149/149 150/150/150
f 155/155/155 154/154/154 153/153/153
f 156/156/156 153/153/153 154/154/154
f 159/159/159 158/158/158 157/157/157
f 160/160/160 157/157/157 158/158/158
f 163/163/163 162/162/162 161/161/161
f 164/164/164 161/161/161 162/162/162
