g sword_Mesh
v 0.03024585 0.06950587 0.03084095
v 0.03024584 -0.05837079 -0.03084098
v 0.03024585 -0.05837082 0.03084095
v 0.03024585 0.06950586 -0.03084099
v -0.03024585 0.06950587 0.03084095
v -0.03024585 -0.05837079 -0.03084099
v -0.03024585 0.06950586 -0.03084099
v -0.03024584 -0.05837082 0.03084095
v -0.03024585 -0.05837079 -0.03084099
v 0.03024585 0.06950586 -0.03084099
v -0.03024585 0.06950586 -0.03084099
v 0.03024584 -0.05837079 -0.03084098
v 0.03024585 -0.05837082 0.03084095
v -0.03024585 0.06950587 0.03084095
v 0.03024585 0.06950587 0.03084095
v -0.03024584 -0.05837082 0.03084095
v 0.1457579 0.06950588 0.04265205
v 0.1457579 0.1306853 -0.04265215
v 0.1457579 0.06950587 -0.04265215
v 0.1457579 0.1306853 0.04265205
v -0.1457579 0.06950588 0.04265205
v -0.1457579 0.1306853 -0.04265216
v -0.1457579 0.1306853 0.04265205
v -0.1457579 0.06950586 -0.04265216
v -0.1457579 0.1306853 0.04265205
v 0.1457579 0.06950588 0.04265205
v -0.1457579 0.06950588 0.04265205
v 0.1457579 0.1306853 0.04265205
v -0.1457579 0.06950586 -0.04265216
v 0.1457579 0.1306853 -0.04265215
v -0.1457579 0.1306853 -0.04265216
v 0.1457579 0.06950587 -0.04265215
v -0.1457579 0.1306853 -0.04265216
v 0.1457579 0.1306853 0.04265205
v -0.1457579 0.1306853 0.04265205
v 0.1457579 0.1306853 -0.04265215
v -0.1457579 0.06950586 -0.04265216
v 0.1457579 0.06950588 0.04265205
v 0.1457579 0.06950587 -0.04265215
v -0.1457579 0.06950588 0.04265205
v 0.05648738 0.1306853 0.01813809
v 0.05648737 0.6081423 -0.01813819
v 0.05648737 0.1306853 -0.01813815
v 0.05648738 0.6081423 0.01813806
v -0.05648738 0.1306853 -0.01813816
v -0.05648737 0.6081423 0.01813808
v -0.05648737 0.1306853 0.0181381
v -0.05648739 0.6081423 -0.01813818
v 0.04356316 0.6081423 0.01813806
v 0.05648737 0.6081423 -0.01813819
v 0.05648738 0.6081423 0.01813806
v 0.04356315 0.6081423 -0.01813819
v -0.04356315 0.6081423 -0.01813818
v -0.05648737 0.6081423 0.01813808
v -0.05648739 0.6081423 -0.01813818
v -0.04356314 0.6081423 0.01813808
v 0.04356316 0.6319817 0.01813806
v 0.04356315 0.6081423 -0.01813819
v 0.04356316 0.6081423 0.01813806
v 0.04356315 0.6319817 -0.01813819
v -0.04356315 0.6081423 -0.01813818
v -0.04356314 0.6319817 0.01813808
v -0.04356314 0.6081423 0.01813808
v -0.04356315 0.6319817 -0.01813818
v 0.03125325 0.6319818 0.01813808
v 0.04356315 0.6319817 -0.01813819
v 0.04356316 0.6319817 0.01813806
v 0.03125324 0.6319818 -0.01813818
v -0.03125324 0.6319818 -0.01813818
v -0.04356314 0.6319817 0.01813808
v -0.04356315 0.6319817 -0.01813818
v -0.03125323 0.6319818 0.01813809
v 0.03125324 0.6572739 0.01813808
v 0.03125324 0.6319818 -0.01813818
v 0.03125325 0.6319818 0.01813808
v 0.03125324 0.6572741 -0.01813819
v -0.03125324 0.6319818 -0.01813818
v -0.03125324 0.6572739 0.01813809
v -0.03125323 0.6319818 0.01813809
v -0.03125325 0.6572741 -0.01813818
v 0.03125324 0.6572739 0.01813808
v 0.01926524 0.6572741 -0.01813819
v 0.03125324 0.6572741 -0.01813819
v 0.01926524 0.6572739 0.01813808
v -0.01926524 0.6572741 -0.01813818
v -0.03125324 0.6572739 0.01813809
v -0.03125325 0.6572741 -0.01813818
v -0.01926523 0.6572739 0.01813809
v -0.01926524 0.6572741 -0.01813818
v -0.01839427 0.6834399 0.01813808
v -0.01926523 0.6572739 0.01813809
v -0.01839428 0.68344 -0.0181382
v 0.01839428 0.6834399 0.01813806
v 0.01926524 0.6572741 -0.01813819
v 0.01926524 0.6572739 0.01813808
v 0.01839428 0.68344 -0.0181382
v 0.01839428 0.6834399 0.01813806
v 0.0066001 0.68344 -0.01813816
v 0.01839428 0.68344 -0.0181382
v 0.006600108 0.6834399 0.01813809
v -0.00660003 0.68344 -0.01813816
v -0.006600013 0.6834399 0.01813811
v -0.006600013 0.6834399 0.01813811
v -0.01839428 0.68344 -0.0181382
v -0.00660003 0.68344 -0.01813816
v -0.01839427 0.6834399 0.01813808
v -0.04356315 0.6081423 -0.01813818
v -0.05648739 0.6081423 -0.01813818
v -0.05648738 0.1306853 -0.01813816
v 0.04356315 0.6081423 -0.01813819
v 0.03125324 0.6319818 -0.01813818
v -0.03125324 0.6319818 -0.01813818
v 0.01926524 0.6572741 -0.01813819
v -0.01926524 0.6572741 -0.01813818
v 0.0066001 0.68344 -0.01813816
v -0.00660003 0.68344 -0.01813816
v 0.01839428 0.68344 -0.0181382
v -0.01839428 0.68344 -0.0181382
v 0.03125324 0.6572741 -0.01813819
v -0.03125325 0.6572741 -0.01813818
v 0.04356315 0.6319817 -0.01813819
v -0.04356315 0.6319817 -0.01813818
v 0.05648737 0.1306853 -0.01813815
v 0.05648737 0.6081423 -0.01813819
v -0.05648737 0.1306853 0.0181381
v -0.05648737 0.6081423 0.01813808
v -0.04356314 0.6081423 0.01813808
v 0.04356316 0.6081423 0.01813806
v 0.03125325 0.6319818 0.01813808
v -0.03125323 0.6319818 0.01813809
v 0.01926524 0.6572739 0.01813808
v -0.01926523 0.6572739 0.01813809
v 0.006600108 0.6834399 0.01813809
v -0.006600013 0.6834399 0.01813811
v 0.01839428 0.6834399 0.01813806
v -0.01839427 0.6834399 0.01813808
v 0.03125324 0.6572739 0.01813808
v -0.03125324 0.6572739 0.01813809
v 0.04356316 0.6319817 0.01813806
v -0.04356314 0.6319817 0.01813808
v 0.05648738 0.1306853 0.01813809
v 0.05648738 0.6081423 0.01813806
v 0.04458243 -0.1055343 -0.03084096
v 0.04458239 -0.0583708 0.03084095
v 0.04458237 -0.05837078 -0.03084098
v 0.04458245 -0.1055343 0.03084097
v -0.04458234 -0.1055343 -0.03084098
v -0.04458237 -0.0583708 0.03084095
v -0.04458233 -0.1055343 0.03084096
v -0.04458239 -0.05837078 -0.03084099
v 0.0302459 -0.1055342 0.03084096
v 0.04458243 -0.1055343 -0.03084096
v 0.03024589 -0.1055342 -0.03084098
v 0.04458245 -0.1055343 0.03084097
v 0.04458237 -0.05837078 -0.03084098
v 0.03024585 -0.05837082 0.03084095
v 0.03024584 -0.05837079 -0.03084098
v 0.04458239 -0.0583708 0.03084095
v -0.03024582 -0.1055342 -0.03084099
v -0.04458233 -0.1055343 0.03084096
v -0.03024581 -0.1055342 0.03084096
v -0.04458234 -0.1055343 -0.03084098
v -0.04458237 -0.0583708 0.03084095
v -0.03024585 -0.05837079 -0.03084099
v -0.03024584 -0.05837082 0.03084095
v -0.04458239 -0.05837078 -0.03084099
v -0.04458233 -0.1055343 0.03084096
v -0.04458237 -0.0583708 0.03084095
v -0.03024581 -0.1055342 0.03084096
v -0.03024584 -0.05837082 0.03084095
v 0.03024585 -0.05837082 0.03084095
v 0.0302459 -0.1055342 0.03084096
v 0.04458239 -0.0583708 0.03084095
v 0.04458245 -0.1055343 0.03084097
v 0.03024593 -0.1175276 0.03084093
v -0.03024576 -0.1175276 0.03084095
v -0.03024585 -0.05837079 -0.03084099
v 0.03024589 -0.1055342 -0.03084098
v 0.03024584 -0.05837079 -0.03084098
v -0.03024582 -0.1055342 -0.03084099
v 0.04458237 -0.05837078 -0.03084098
v 0.04458243 -0.1055343 -0.03084096
v -0.04458239 -0.05837078 -0.03084099
v -0.04458234 -0.1055343 -0.03084098
v 0.0302459 -0.1175276 -0.03084098
v -0.03024578 -0.1175276 -0.03084098
v -0.03024581 -0.1055342 0.03084096
v -0.03024578 -0.1175276 -0.03084098
v -0.03024582 -0.1055342 -0.03084099
v -0.03024576 -0.1175276 0.03084095
v 0.0302459 -0.1175276 -0.03084098
v 0.0302459 -0.1055342 0.03084096
v 0.03024589 -0.1055342 -0.03084098
v 0.03024593 -0.1175276 0.03084093
v 0.0302459 -0.1175276 -0.03084098
v -0.03024576 -0.1175276 0.03084095
v 0.03024593 -0.1175276 0.03084093
v -0.03024578 -0.1175276 -0.03084098
vt 0.40625 0.421875
vt 0.484375 0.59375
vt 0.40625 0.59375
vt 0.484375 0.421875
vt 0.640625 0.421875
vt 0.5625 0.59375
vt 0.5625 0.421875
vt 0.640625 0.59375
vt 0.5625 0.59375
vt 0.484375 0.421875
vt 0.5625 0.421875
vt 0.484375 0.59375
vt 0.71875 0.59375
vt 0.640625 0.421875
vt 0.71875 0.421875
vt 0.640625 0.59375
vt 0.921875 0.796875
vt 0.84375 0.90625
vt 0.921875 0.90625
vt 0.84375 0.796875
vt 0.40625 0.796875
vt 0.484375 0.90625
vt 0.484375 0.796875
vt 0.40625 0.90625
vt 0.484375 0.796875
vt 0.84375 0.71875
vt 0.484375 0.71875
vt 0.84375 0.796875
vt 0.484375 0.984375
vt 0.84375 0.90625
vt 0.484375 0.90625
vt 0.84375 0.984375
vt 0.484375 0.90625
vt 0.84375 0.796875
vt 0.484375 0.796875
vt 0.84375 0.90625
vt 0.484375 0.609375
vt 0.84375 0.71875
vt 0.84375 0.609375
vt 0.484375 0.71875
vt 0.34375 0.234375
vt 0.390625 0.8125
vt 0.390625 0.234375
vt 0.34375 0.8125
vt 0.15625 0.234375
vt 0.203125 0.8125
vt 0.203125 0.234375
vt 0.15625 0.8125
vt 0.34375 0.828125
vt 0.390625 0.8125
vt 0.34375 0.8125
vt 0.390625 0.828125
vt 0.15625 0.828125
vt 0.203125 0.8125
vt 0.15625 0.8125
vt 0.203125 0.828125
vt 0.34375 0.859375
vt 0.390625 0.828125
vt 0.34375 0.828125
vt 0.390625 0.859375
vt 0.15625 0.828125
vt 0.203125 0.859375
vt 0.203125 0.828125
vt 0.15625 0.859375
vt 0.34375 0.875
vt 0.390625 0.859375
vt 0.34375 0.859375
vt 0.390625 0.875
vt 0.15625 0.875
vt 0.203125 0.859375
vt 0.15625 0.859375
vt 0.203125 0.875
vt 0.34375 0.90625
vt 0.390625 0.875
vt 0.34375 0.875
vt 0.390625 0.90625
vt 0.15625 0.875
vt 0.203125 0.90625
vt 0.203125 0.875
vt 0.15625 0.90625
vt 0.34375 0.90625
vt 0.390625 0.921875
vt 0.390625 0.90625
vt 0.34375 0.921875
vt 0.15625 0.921875
vt 0.203125 0.90625
vt 0.15625 0.90625
vt 0.203125 0.921875
vt 0.15625 0.921875
vt 0.203125 0.953125
vt 0.203125 0.921875
vt 0.15625 0.953125
vt 0.34375 0.953125
vt 0.390625 0.921875
vt 0.34375 0.921875
vt 0.390625 0.953125
vt 0.34375 0.953125
vt 0.390625 0.96875
vt 0.390625 0.953125
vt 0.34375 0.96875
vt 0.390625 0.984375
vt 0.34375 0.984375
vt 0.203125 0.96875
vt 0.15625 0.953125
vt 0.15625 0.96875
vt 0.203125 0.953125
vt 0.140625 0.8125
vt 0.15625 0.8125
vt 0.15625 0.234375
vt 0.03125 0.8125
vt 0.046875 0.84375
vt 0.125 0.84375
vt 0.0625 0.875
vt 0.109375 0.875
vt 0.078125 0.90625
vt 0.09375 0.90625
vt 0.0625 0.90625
vt 0.109375 0.90625
vt 0.046875 0.875
vt 0.125 0.875
vt 0.03125 0.84375
vt 0.140625 0.84375
vt 0.015625 0.234375
vt 0.015625 0.8125
vt 0.203125 0.234375
vt 0.203125 0.8125
vt 0.21875 0.8125
vt 0.328125 0.8125
vt 0.3125 0.84375
vt 0.234375 0.84375
vt 0.296875 0.875
vt 0.25 0.875
vt 0.28125 0.90625
vt 0.265625 0.90625
vt 0.296875 0.90625
vt 0.25 0.90625
vt 0.3125 0.875
vt 0.234375 0.875
vt 0.328125 0.84375
vt 0.21875 0.84375
vt 0.34375 0.234375
vt 0.34375 0.8125
vt 0.734375 0.34375
vt 0.65625 0.40625
vt 0.734375 0.40625
vt 0.65625 0.34375
vt 0.84375 0.34375
vt 0.921875 0.40625
vt 0.921875 0.34375
vt 0.84375 0.40625
vt 0.84375 0.328125
vt 0.859375 0.21875
vt 0.84375 0.21875
vt 0.859375 0.328125
vt 0.734375 0.40625
vt 0.75 0.515625
vt 0.75 0.40625
vt 0.734375 0.515625
vt 0.734375 0.21875
vt 0.71875 0.328125
vt 0.734375 0.328125
vt 0.71875 0.21875
vt 0.84375 0.515625
vt 0.828125 0.40625
vt 0.828125 0.515625
vt 0.84375 0.40625
vt 0.546875 0.34375
vt 0.546875 0.40625
vt 0.5625 0.34375
vt 0.5625 0.40625
vt 0.640625 0.40625
vt 0.640625 0.34375
vt 0.65625 0.40625
vt 0.65625 0.34375
vt 0.640625 0.328125
vt 0.5625 0.328125
vt 0.75 0.40625
vt 0.828125 0.34375
vt 0.828125 0.40625
vt 0.75 0.34375
vt 0.84375 0.40625
vt 0.84375 0.34375
vt 0.734375 0.40625
vt 0.734375 0.34375
vt 0.828125 0.328125
vt 0.75 0.328125
vt 0.734375 0.328125
vt 0.75 0.21875
vt 0.734375 0.21875
vt 0.75 0.328125
vt 0.828125 0.21875
vt 0.84375 0.328125
vt 0.84375 0.21875
vt 0.828125 0.328125
vt 0.828125 0.21875
vt 0.75 0.328125
vt 0.828125 0.328125
vt 0.75 0.21875
vn 1 0 -1.088466E-07
vn 1 0 -1.088466E-07
vn 1 0 -1.088466E-07
vn 1 0 -1.088466E-07
vn -1 0 1.088465E-07
vn -1 0 1.088465E-07
vn -1 0 1.088466E-07
vn -1 0 1.088466E-07
vn 1.109882E-07 0 -1
vn 1.109882E-07 0 -1
vn 1.109882E-07 0 -1
vn 1.109882E-07 0 -1
vn 0 0 1
vn 0 0 1
vn 0 0 1
vn 0 0 1
vn 1 0 0
vn 1 0 0
vn 1 0 0
vn 1 0 0
vn -1 0 0
vn -1 0 0
vn -1 0 0
vn -1 0 0
vn 0 0 1
vn 0 0 1
vn 0 0 1
vn 0 0 1
vn 0 0 -1
vn 0 0 -1
vn 0 0 -1
vn 0 0 -1
vn 0 1 -1.967625E-07
vn 0 1 -1.967625E-07
vn 0 1 -1.967624E-07
vn 0 1 -1.967625E-07
vn 0 -1 1.180575E-07
vn 0 -1 1.180575E-07
vn 0 -1 1.180575E-07
vn 0 -1 1.180575E-07
vn 1 0 -3.701523E-07
vn 1 0 -3.701522E-07
vn 1 0 -3.701523E-07
vn 1 0 -3.701522E-07
vn -1 0 3.701521E-07
vn -1 0 3.701522E-07
vn -1 0 3.701521E-07
vn -1 0 3.701522E-07
vn 0 1 0
vn 0 1 0
vn 0 1 0
vn 0 1 0
vn 0 1 0
vn 0 1 0
vn 0 1 0
vn 0 1 0
vn 1 0 -2.776142E-07
vn 1 0 -2.776142E-07
vn 1 0 -2.776142E-07
vn 1 0 -2.776142E-07
vn -1 0 3.701522E-07
vn -1 0 3.701522E-07
vn -1 0 3.701522E-07
vn -1 0 3.701522E-07
vn 8.726454E-06 1 0
vn 8.726457E-06 1 0
vn 8.726453E-06 1 0
vn 8.726458E-06 1 0
vn -8.726457E-06 1 0
vn -8.726458E-06 1 0
vn -8.726455E-06 1 0
vn -8.726459E-06 1 0
vn 1 1.327263E-07 0
vn 1 1.327262E-07 0
vn 1 1.327265E-07 0
vn 1 1.327259E-07 0
vn -1 -1.327262E-07 2.776138E-07
vn -1 -1.327263E-07 2.776139E-07
vn -1 -1.327265E-07 2.77614E-07
vn -1 -1.327259E-07 2.776136E-07
vn 0 1 2.961217E-06
vn 0 1 2.961216E-06
vn 0 1 2.961216E-06
vn 0 1 2.961216E-06
vn 0 1 2.961216E-06
vn 0 1 2.961216E-06
vn 0 1 2.961216E-06
vn 0 1 2.961216E-06
vn -0.9994465 0.03326765 2.929221E-07
vn -0.9994465 0.03326768 2.740504E-07
vn -0.9994465 0.03326773 2.372431E-07
vn -0.9994465 0.0332676 3.297295E-07
vn 0.9994465 0.03326775 0
vn 0.9994465 0.03326776 0
vn 0.9994465 0.03326772 0
vn 0.9994465 0.03326778 0
vn 0 1 2.961217E-06
vn 0 1 2.961217E-06
vn 0 1 2.961216E-06
vn 0 1 2.961217E-06
vn 0 1 2.961216E-06
vn 0 1 2.961216E-06
vn 0 1 2.961216E-06
vn 0 1 2.961216E-06
vn 0 1 2.961216E-06
vn 0 1 2.961216E-06
vn 0 0 -1
vn 0 0 -1
vn 0 0 -1
vn -1.200047E-07 0 -1
vn -2.183868E-07 0 -1
vn 1.020808E-07 0 -1
vn -3.383632E-07 -1.400873E-07 -1
vn 1.570555E-07 0 -1
vn -1.24848E-06 4.517383E-07 -1
vn 9.525345E-07 4.369982E-07 -1
vn -3.13089E-06 -4.89097E-07 -1
vn 3.130871E-06 -6.173896E-07 -1
vn 0 -5.309039E-07 -1
vn 0 -2.65452E-07 -1
vn -8.181055E-07 0 -1
vn 5.454047E-07 -1.40814E-07 -1
vn 0 0 -1
vn 0 0 -1
vn 1.208378E-07 0 1
vn 0 0 1
vn 0 -1.079802E-07 1
vn 1.966274E-07 0 1
vn 3.756319E-07 -1.982411E-07 1
vn 0 -3.061654E-07 1
vn 4.430869E-07 0 1
vn 0 -2.071647E-07 1
vn 1.40739E-06 -3.365435E-07 1
vn -3.601214E-07 -5.95452E-07 1
vn 2.846265E-06 6.079164E-07 1
vn -2.846245E-06 6.079158E-07 1
vn 0 0 1
vn 0 0 1
vn 1.090807E-06 0 1
vn -1.090807E-06 0 1
vn 1.168084E-07 0 1
vn 0 0 1
vn 1 1.067648E-06 -1.632694E-07
vn 1 1.067648E-06 -1.632694E-07
vn 1 1.067648E-06 -1.632694E-07
vn 1 1.281176E-06 -3.265383E-07
vn -1 -1.067647E-06 2.17692E-07
vn -1 -1.067647E-06 2.17692E-07
vn -1 -1.067647E-06 2.17692E-07
vn -1 -9.964716E-07 1.632694E-07
vn -5.619653E-06 -1 -8.707713E-07
vn -5.619654E-06 -1 -8.707713E-07
vn -5.619655E-06 -1 -8.707714E-07
vn -6.556259E-06 -1 -1.088464E-06
vn -9.366094E-07 1 4.353864E-07
vn -9.366094E-07 1 4.353864E-07
vn -9.366095E-07 1 4.353864E-07
vn -9.366091E-07 1 4.353865E-07
vn 8.429498E-06 -1 -6.530802E-07
vn 8.429498E-06 -1 -6.530802E-07
vn 8.429498E-06 -1 -6.530802E-07
vn 6.556272E-06 -1 -1.088467E-06
vn 9.366094E-07 1 4.353862E-07
vn 9.366094E-07 1 4.353862E-07
vn 9.366094E-07 1 4.353862E-07
vn 9.366093E-07 1 4.353862E-07
vn 0 2.847059E-07 1
vn 0 2.847059E-07 1
vn 0 2.847059E-07 1
vn -4.683047E-07 1.423531E-07 1
vn 4.683046E-07 1.423538E-07 1
vn 4.683046E-07 1.423538E-07 1
vn 4.683046E-07 1.423538E-07 1
vn -9.36605E-07 5.694105E-07 1
vn 3.329645E-07 -1.119592E-06 1
vn 3.329645E-07 -1.119593E-06 1
vn 1.109883E-07 0 -1
vn 1.109882E-07 0 -1
vn 1.109882E-07 0 -1
vn 2.774706E-07 1.423536E-07 -1
vn -2.341523E-07 0 -1
vn 7.024548E-07 -3.558819E-07 -1
vn -9.366091E-07 -2.135306E-07 -1
vn -9.36609E-07 -2.135306E-07 -1
vn 2.774708E-07 5.597973E-07 -1
vn 0 -8.396945E-07 -1
vn -1 -3.638676E-06 1.088442E-07
vn -1 -3.638676E-06 1.088442E-07
vn -1 -3.638676E-06 1.088442E-07
vn -1 -4.478376E-06 2.721145E-07
vn 1 1.119594E-06 -2.176922E-07
vn 1 1.119594E-06 -2.176922E-07
vn 1 1.119594E-06 -2.176922E-07
vn 1 2.239194E-06 -4.353855E-07
vn -2.219767E-07 -1 -4.353864E-07
vn -2.219767E-07 -1 -4.353864E-07
vn -2.219767E-07 -1 -4.353864E-07
vn -2.219766E-07 -1 -4.353863E-07
g sword_Mesh_0
f 3/3/3 2/2/2 1/1/1
f 4/4/4 1/1/1 2/2/2
f 7/7/7 6/6/6 5/5/5
f 8/8/8 5/5/5 6/6/6
f 11/11/11 10/10/10 9/9/9
f 12/12/12 9/9/9 10/10/10
f 15/15/15 14/14/14 13/13/13
f 16/16/16 13/13/13 14/14/14
f 19/19/19 18/18/18 17/17/17
f 20/20/20 17/17/17 18/18/18
f 23/23/23 22/22/22 21/21/21
f 24/24/24 21/21/21 22/22/22
f 27/27/27 26/26/26 25/25/25
f 28/28/28 25/25/25 26/26/26
f 31/31/31 30/30/30 29/29/29
f 32/32/32 29/29/29 30/30/30
f 35/35/35 34/34/34 33/33/33
f 36/36/36 33/33/33 34/34/34
f 39/39/39 38/38/38 37/37/37
f 40/40/40 37/37/37 38/38/38
f 43/43/43 42/42/42 41/41/41
f 44/44/44 41/41/41 42/42/42
f 47/47/47 46/46/46 45/45/45
f 48/48/48 45/45/45 46/46/46
f 51/51/51 50/50/50 49/49/49
f 52/52/52 49/49/49 50/50/50
f 55/55/55 54/54/54 53/53/53
f 56/56/56 53/53/53 54/54/54
f 59/59/59 58/58/58 57/57/57
f 60/60/60 57/57/57 58/58/58
f 63/63/63 62/62/62 61/61/61
f 64/64/64 61/61/61 62/62/62
f 67/67/67 66/66/66 65/65/65
f 68/68/68 65/65/65 66/66/66
f 71/71/71 70/70/70 69/69/69
f 72/72/72 69/69/69 70/70/70
f 75/75/75 74/74/74 73/73/73
f 76/76/76 73/73/73 74/74/74
f 79/79/79 78/78/78 77/77/77
f 80/80/80 77/77/77 78/78/78
f 83/83/83 82/82/82 81/81/81
f 84/84/84 81/81/81 82/82/82
f 87/87/87 86/86/86 85/85/85
f 88/88/88 85/85/85 86/86/86
f 91/91/91 90/90/90 89/89/89
f 92/92/92 89/89/89 90/90/90
f 95/95/95 94/94/94 93/93/93
f 96/96/96 93/93/93 94/94/94
f 99/99/99 98/98/98 97/97/97
f 100/100/100 97/97/97 98/98/98
f 98/98/98 101/101/101 100/100/100
f 102/102/102 100/100/100 101/101/101
f 105/105/105 104/104/104 103/103/103
f 106/106/106 103/103/103 104/104/104
f 109/109/109 108/108/108 107/107/107
f 110/110/110 109/109/109 107/107/107
f 110/110/110 107/107/107 111/111/111
f 112/112/112 111/111/111 107/107/107
f 111/111/111 112/112/112 113/113/113
f 114/114/114 113/113/113 112/112/112
f 113/113/113 114/114/114 115/115/115
f 116/116/116 115/115/115 114/114/114
f 117/117/117 113/113/113 115/115/115
f 118/118/118 116/116/116 114/114/114
f 119/119/119 111/111/111 113/113/113
f 120/120/120 114/114/114 112/112/112
f 121/121/121 110/110/110 111/111/111
f 122/122/122 112/112/112 107/107/107
f 123/123/123 109/109/109 110/110/110
f 124/124/124 123/123/123 110/110/110
f 127/127/127 126/126/126 125/125/125
f 128/128/128 127/127/127 125/125/125
f 128/128/128 129/129/129 127/127/127
f 130/130/130 127/127/127 129/129/129
f 129/129/129 131/131/131 130/130/130
f 132/132/132 130/130/130 131/131/131
f 131/131/131 133/133/133 132/132/132
f 134/134/134 132/132/132 133/133/133
f 135/135/135 133/133/133 131/131/131
f 136/136/136 132/132/132 134/134/134
f 137/137/137 131/131/131 129/129/129
f 138/138/138 130/130/130 132/132/132
f 139/139/139 129/129/129 128/128/128
f 140/140/140 127/127/127 130/130/130
f 141/141/141 128/128/128 125/125/125
f 142/142/142 128/128/128 141/141/141
f 145/145/145 144/144/144 143/143/143
f 146/146/146 143/143/143 144/144/144
f 149/149/149 148/148/148 147/147/147
f 150/150/150 147/147/147 148/148/148
f 153/153/153 152/152/152 151/151/151
f 154/154/154 151/151/151 152/152/152
f 157/157/157 156/156/156 155/155/155
f 158/158/158 155/155/155 156/156/156
f 161/161/161 160/160/160 159/159/159
f 162/162/162 159/159/159 160/160/160
f 165/165/165 164/164/164 163/163/163
f 166/166/166 163/163/163 164/164/164
f 169/169/169 168/168/168 167/167/167
f 170/170/170 168/168/168 169/169/169
f 170/170/170 169/169/169 171/171/171
f 172/172/172 171/171/171 169/169/169
f 173/173/173 171/171/171 172/172/172
f 174/174/174 173/173/173 172/172/172
f 172/172/172 169/169/169 175/175/175
f 176/176/176 175/175/175 169/169/169
f 179/179/179 178/178/178 177/177/177
f 180/180/180 177/177/177 178/178/178
f 181/181/181 178/178/178 179/179/179
f 182/182/182 178/178/178 181/181/181
f 183/183/183 177/177/177 180/180/180
f 184/184/184 183/183/183 180/180/180
f 178/178/178 185/185/185 180/180/180
f 186/186/186 180/180/180 185/185/185
f 189/189/189 188/188/188 187/187/187
f 190/190/190 187/187/187 188/188/188
f 193/193/193 192/192/192 191/191/191
f 194/194/194 191/191/191 192/192/192
f 197/197/197 196/196/196 195/195/195
f 198/198/198 195/195/195 196/196/196
