# Mesh "sword_Mesh" exported with Unity Assets Bundle Extractor; 224 vertices, 444 indices, 256 bits per vertex
g sword_Mesh
# SubMesh 0
# Vertices
v 0.044582 -0.093541 -0.030841
vt 0.937763 0.258130
vn 1.000000 0.000000 -0.000000
v 0.044582 -0.058371 0.030841
vt 0.785630 0.298126
vn 1.000000 0.000000 -0.000000
v 0.044582 -0.058371 -0.030841
vt 0.937763 0.298126
vn 1.000000 0.000000 -0.000000
v 0.044582 -0.093541 0.030841
vt 0.785630 0.258130
vn 1.000000 0.000000 -0.000000
v -0.044582 -0.093541 -0.030841
vt 0.937763 0.258130
vn -1.000000 0.000000 0.000000
v -0.044582 -0.058371 0.030841
vt 0.785630 0.298126
vn -1.000000 0.000000 0.000000
v -0.044582 -0.093541 0.030841
vt 0.785630 0.258130
vn -1.000000 0.000000 0.000000
v -0.044582 -0.058371 -0.030841
vt 0.937763 0.298126
vn -1.000000 0.000000 0.000000
v 0.030246 -0.093541 0.030841
vt 0.424829 0.006683
vn -0.000000 -1.000000 -0.000001
v 0.044582 -0.093541 -0.030841
vt 0.446543 0.121245
vn -0.000000 -1.000000 -0.000001
v 0.030246 -0.093541 -0.030841
vt 0.424829 0.121245
vn -0.000000 -1.000000 -0.000001
v 0.044582 -0.093541 0.030841
vt 0.446543 0.006683
vn -0.000000 -1.000000 -0.000001
v 0.044582 -0.058371 -0.030841
vt 0.446543 0.121245
vn -0.000000 1.000000 0.000000
v 0.030246 -0.058371 0.030841
vt 0.424829 0.006683
vn -0.000000 1.000000 0.000000
v 0.030246 -0.058371 -0.030841
vt 0.424829 0.121245
vn -0.000000 1.000000 0.000000
v 0.044582 -0.058371 0.030841
vt 0.446543 0.006683
vn -0.000000 1.000000 0.000000
v -0.030246 -0.093541 -0.030841
vt 0.333208 0.121245
vn -0.000000 -1.000000 -0.000001
v -0.044582 -0.093541 0.030841
vt 0.311494 0.006683
vn -0.000000 -1.000000 -0.000001
v -0.030246 -0.093541 0.030841
vt 0.333208 0.006683
vn -0.000000 -1.000000 -0.000001
v -0.044582 -0.093541 -0.030841
vt 0.311494 0.121245
vn -0.000000 -1.000000 -0.000001
v -0.044582 -0.058371 0.030841
vt 0.311494 0.006683
vn -0.000000 1.000000 0.000000
v -0.030246 -0.058371 -0.030841
vt 0.333208 0.121245
vn -0.000000 1.000000 0.000000
v -0.030246 -0.058371 0.030841
vt 0.333208 0.006683
vn -0.000000 1.000000 0.000000
v -0.044582 -0.058371 -0.030841
vt 0.311494 0.121245
vn -0.000000 1.000000 0.000000
v -0.030246 -0.093541 0.030841
vt 0.785630 0.258130
vn -1.000000 0.000000 0.000000
v -0.030246 -0.105534 -0.030841
vt 0.937763 0.244491
vn -1.000000 0.000000 0.000000
v -0.030246 -0.093541 -0.030841
vt 0.937763 0.258130
vn -1.000000 0.000000 0.000000
v -0.030246 -0.105534 0.030841
vt 0.785630 0.244491
vn -1.000000 0.000000 0.000000
v 0.030246 -0.105534 -0.030841
vt 0.937763 0.244491
vn 1.000000 0.000000 -0.000000
v 0.030246 -0.093541 0.030841
vt 0.785630 0.258130
vn 1.000000 0.000000 -0.000000
v 0.030246 -0.093541 -0.030841
vt 0.937763 0.258130
vn 1.000000 0.000000 -0.000000
v 0.030246 -0.105534 0.030841
vt 0.785630 0.244491
vn 1.000000 0.000000 -0.000000
v 0.030246 -0.105534 -0.030841
vt 0.424829 0.121245
vn -0.000000 -1.000000 -0.000000
v -0.030246 -0.105534 0.030841
vt 0.333208 0.006683
vn -0.000000 -1.000000 -0.000000
v 0.030246 -0.105534 0.030841
vt 0.424829 0.006683
vn -0.000000 -1.000000 -0.000000
v -0.030246 -0.105534 -0.030841
vt 0.333208 0.121245
vn -0.000000 -1.000000 -0.000000
v 0.030246 0.069506 0.030841
vt 0.785630 0.443548
vn 1.000000 0.000000 -0.000000
v 0.030246 -0.058371 -0.030841
vt 0.937763 0.298126
vn 1.000000 0.000000 -0.000000
v 0.030246 -0.058371 0.030841
vt 0.785630 0.298126
vn 1.000000 0.000000 -0.000000
v 0.030246 0.069506 -0.030841
vt 0.937763 0.443548
vn 1.000000 0.000000 -0.000000
v -0.030246 0.069506 0.030841
vt 0.785630 0.443548
vn -1.000000 0.000000 0.000000
v -0.030246 -0.058371 -0.030841
vt 0.937763 0.298126
vn -1.000000 0.000000 0.000000
v -0.030246 0.069506 -0.030841
vt 0.937763 0.443548
vn -1.000000 0.000000 0.000000
v -0.030246 -0.058371 0.030841
vt 0.785630 0.298126
vn -1.000000 0.000000 0.000000
v 0.145758 0.069506 0.042652
vt 0.756499 0.443548
vn 1.000000 0.000000 0.000000
v 0.145758 0.130685 -0.042652
vt 0.966894 0.513121
vn 1.000000 0.000000 0.000000
v 0.145758 0.069506 -0.042652
vt 0.966894 0.443548
vn 1.000000 0.000000 0.000000
v 0.145758 0.130685 0.042652
vt 0.756499 0.513121
vn 1.000000 0.000000 0.000000
v -0.145758 0.069506 0.042652
vt 0.756499 0.443548
vn -1.000000 0.000000 0.000000
v -0.145758 0.130685 -0.042652
vt 0.966894 0.513121
vn -1.000000 0.000000 0.000000
v -0.145758 0.130685 0.042652
vt 0.756499 0.513121
vn -1.000000 0.000000 0.000000
v -0.145758 0.069506 -0.042652
vt 0.966894 0.443548
vn -1.000000 0.000000 0.000000
v -0.145758 0.130685 0.042652
vt 0.030855 0.513919
vn -0.000000 0.000000 1.000000
v 0.145758 0.069506 0.042652
vt 0.725399 0.444254
vn -0.000000 0.000000 1.000000
v -0.145758 0.069506 0.042652
vt 0.030855 0.444254
vn -0.000000 0.000000 1.000000
v 0.145758 0.130685 0.042652
vt 0.725399 0.513919
vn -0.000000 0.000000 1.000000
v -0.145758 0.069506 -0.042652
vt 0.725498 0.444051
vn -0.000000 0.000000 -1.000000
v 0.145758 0.130685 -0.042652
vt 0.030960 0.513712
vn -0.000000 0.000000 -1.000000
v -0.145758 0.130685 -0.042652
vt 0.725498 0.513712
vn -0.000000 0.000000 -1.000000
v 0.145758 0.069506 -0.042652
vt 0.030960 0.444051
vn -0.000000 0.000000 -1.000000
v 0.056487 0.130685 0.018138
vt 0.816961 0.513121
vn 1.000000 0.000000 -0.000000
v 0.056487 0.590813 -0.018138
vt 0.906433 0.865800
vn 1.000000 0.000000 -0.000000
v 0.056487 0.130685 -0.018138
vt 0.906432 0.513121
vn 1.000000 0.000000 -0.000000
v 0.056487 0.590813 0.018138
vt 0.816961 0.865800
vn 1.000000 0.000000 -0.000000
v 0.056487 0.608142 0.018138
vt 0.816961 0.885507
vn 1.000000 0.000000 -0.000000
v 0.056487 0.608142 -0.018138
vt 0.906433 0.885507
vn 1.000000 0.000000 -0.000000
v -0.056487 0.130685 -0.018138
vt 0.906433 0.513121
vn -1.000000 0.000000 0.000000
v -0.056487 0.590813 0.018138
vt 0.816961 0.865800
vn -1.000000 0.000000 0.000000
v -0.056487 0.130685 0.018138
vt 0.816961 0.513121
vn -1.000000 0.000000 0.000000
v -0.056487 0.590813 -0.018138
vt 0.906433 0.865800
vn -1.000000 0.000000 0.000000
v -0.056487 0.608142 -0.018138
vt 0.906433 0.885507
vn -1.000000 0.000000 0.000000
v -0.056487 0.608142 0.018138
vt 0.816961 0.885507
vn -1.000000 0.000000 0.000000
v 0.043563 0.608142 0.018138
vt 0.482434 0.158599
vn -0.000000 1.000000 0.000001
v 0.056487 0.608142 -0.018138
vt 0.513510 0.200907
vn -0.000000 1.000000 0.000001
v 0.056487 0.608142 0.018138
vt 0.513510 0.158599
vn -0.000000 1.000000 0.000001
v 0.043563 0.608142 -0.018138
vt 0.482434 0.200907
vn -0.000000 1.000000 0.000001
v -0.043563 0.608142 -0.018138
vt 0.272939 0.200907
vn -0.000000 1.000000 0.000001
v -0.056487 0.608142 0.018138
vt 0.241862 0.158599
vn -0.000000 1.000000 0.000001
v -0.056487 0.608142 -0.018138
vt 0.241862 0.200907
vn -0.000000 1.000000 0.000001
v -0.043563 0.608142 0.018138
vt 0.272939 0.158599
vn -0.000000 1.000000 0.000001
v 0.043563 0.631982 0.018138
vt 0.820810 0.912552
vn 1.000000 0.000000 -0.000000
v 0.043563 0.608142 -0.018138
vt 0.910282 0.885442
vn 1.000000 0.000000 -0.000000
v 0.043563 0.608142 0.018138
vt 0.820810 0.885442
vn 1.000000 0.000000 -0.000000
v 0.043563 0.631982 -0.018138
vt 0.910282 0.912552
vn 1.000000 0.000000 -0.000000
v -0.043563 0.608142 -0.018138
vt 0.910282 0.885442
vn -1.000000 0.000000 0.000000
v -0.043563 0.631982 0.018138
vt 0.820810 0.912552
vn -1.000000 0.000000 0.000000
v -0.043563 0.608142 0.018138
vt 0.820810 0.885442
vn -1.000000 0.000000 0.000000
v -0.043563 0.631982 -0.018138
vt 0.910282 0.912552
vn -1.000000 0.000000 0.000000
v 0.029840 0.631982 0.018138
vt 0.449437 0.158599
vn -0.000000 1.000000 0.000001
v 0.043563 0.631982 -0.018138
vt 0.482434 0.200907
vn -0.000000 1.000000 0.000001
v 0.043563 0.631982 0.018138
vt 0.482434 0.158599
vn -0.000000 1.000000 0.000001
v 0.029840 0.631982 -0.018138
vt 0.449437 0.200907
vn -0.000000 1.000000 0.000001
v -0.029840 0.631982 -0.018138
vt 0.305935 0.200907
vn -0.000000 1.000000 0.000001
v -0.043563 0.631982 0.018138
vt 0.272939 0.158599
vn -0.000000 1.000000 0.000001
v -0.043563 0.631982 -0.018138
vt 0.272939 0.200907
vn -0.000000 1.000000 0.000001
v -0.029840 0.631982 0.018138
vt 0.305935 0.158599
vn -0.000000 1.000000 0.000001
v 0.029840 0.657274 0.018138
vt 0.820810 0.941314
vn 1.000000 0.000000 0.000000
v 0.029840 0.631982 -0.018138
vt 0.910282 0.912552
vn 1.000000 0.000000 0.000000
v 0.029840 0.631982 0.018138
vt 0.820810 0.912552
vn 1.000000 0.000000 0.000000
v 0.029840 0.657274 -0.018138
vt 0.910282 0.941315
vn 1.000000 0.000000 0.000000
v -0.029840 0.631982 -0.018138
vt 0.910282 0.912552
vn -1.000000 0.000000 0.000000
v -0.029840 0.657274 0.018138
vt 0.820810 0.941314
vn -1.000000 0.000000 0.000000
v -0.029840 0.631982 0.018138
vt 0.820810 0.912552
vn -1.000000 0.000000 0.000000
v -0.029840 0.657274 -0.018138
vt 0.910282 0.941315
vn -1.000000 0.000000 0.000000
v 0.029840 0.657274 0.018138
vt 0.449437 0.158599
vn -0.000000 1.000000 0.000002
v 0.018394 0.657274 -0.018138
vt 0.421915 0.200907
vn -0.000000 1.000000 0.000002
v 0.029840 0.657274 -0.018138
vt 0.449437 0.200907
vn -0.000000 1.000000 0.000002
v 0.018394 0.657274 0.018138
vt 0.421915 0.158599
vn -0.000000 1.000000 0.000002
v -0.018394 0.657274 -0.018138
vt 0.333457 0.200907
vn -0.000000 1.000000 0.000002
v -0.029840 0.657274 0.018138
vt 0.305935 0.158599
vn -0.000000 1.000000 0.000002
v -0.029840 0.657274 -0.018138
vt 0.305935 0.200907
vn -0.000000 1.000000 0.000002
v -0.018394 0.657274 0.018138
vt 0.333457 0.158599
vn -0.000000 1.000000 0.000002
v -0.018394 0.657274 -0.018138
vt 0.910282 0.941315
vn -1.000000 0.000000 0.000000
v -0.018394 0.683440 0.018138
vt 0.820810 0.971070
vn -1.000000 0.000000 0.000000
v -0.018394 0.657274 0.018138
vt 0.820810 0.941314
vn -1.000000 0.000000 0.000000
v -0.018394 0.683440 -0.018138
vt 0.910282 0.971071
vn -1.000000 0.000000 0.000000
v 0.018394 0.683440 0.018138
vt 0.820810 0.971070
vn 1.000000 0.000000 0.000000
v 0.018394 0.657274 -0.018138
vt 0.910282 0.941315
vn 1.000000 0.000000 0.000000
v 0.018394 0.657274 0.018138
vt 0.820810 0.941314
vn 1.000000 0.000000 0.000000
v 0.018394 0.683440 -0.018138
vt 0.910282 0.971071
vn 1.000000 0.000000 0.000000
v 0.018394 0.683440 0.018138
vt 0.421915 0.158599
vn -0.000000 1.000000 0.000003
v 0.006600 0.683440 -0.018138
vt 0.393556 0.200907
vn -0.000000 1.000000 0.000003
v 0.018394 0.683440 -0.018138
vt 0.421915 0.200907
vn -0.000000 1.000000 0.000003
v 0.006600 0.683440 0.018138
vt 0.393556 0.158599
vn -0.000000 1.000000 0.000003
v -0.006600 0.683440 0.018138
vt 0.361816 0.158599
vn -0.000000 1.000000 0.000003
v -0.018394 0.683440 -0.018138
vt 0.333457 0.200907
vn -0.000000 1.000000 0.000003
v -0.006600 0.683440 -0.018138
vt 0.361816 0.200907
vn -0.000000 1.000000 0.000003
v -0.018394 0.683440 0.018138
vt 0.333457 0.158599
vn -0.000000 1.000000 0.000003
v 0.006600 0.696206 0.018138
vt 0.820810 0.985588
vn 1.000000 0.000000 0.000000
v 0.006600 0.683440 -0.018138
vt 0.910282 0.971071
vn 1.000000 0.000000 0.000000
v 0.006600 0.683440 0.018138
vt 0.820810 0.971070
vn 1.000000 0.000000 0.000000
v 0.006600 0.696206 -0.018138
vt 0.910282 0.985588
vn 1.000000 0.000000 0.000000
v -0.006600 0.683440 -0.018138
vt 0.910282 0.971071
vn -1.000000 0.000000 0.000000
v -0.006600 0.696206 0.018138
vt 0.820810 0.985588
vn -1.000000 0.000000 0.000000
v -0.006600 0.683440 0.018138
vt 0.820810 0.971070
vn -1.000000 0.000000 0.000000
v -0.006600 0.696206 -0.018138
vt 0.910282 0.985588
vn -1.000000 0.000000 0.000000
v 0.006600 0.696206 0.018138
vt 0.393556 0.158599
vn -0.000000 1.000000 0.000004
v -0.006600 0.696206 -0.018138
vt 0.361816 0.200907
vn -0.000000 1.000000 0.000004
v 0.006600 0.696206 -0.018138
vt 0.393556 0.200907
vn -0.000000 1.000000 0.000004
v -0.006600 0.696206 0.018138
vt 0.361816 0.158599
vn -0.000000 1.000000 0.000004
v -0.030246 -0.093541 -0.030841
vt 0.450290 0.258401
vn 0.000000 0.000000 -1.000000
v -0.044582 -0.058371 -0.030841
vt 0.484447 0.298447
vn 0.000000 0.000000 -1.000000
v -0.044582 -0.093541 -0.030841
vt 0.484447 0.258401
vn 0.000000 0.000000 -1.000000
v -0.030246 -0.058371 -0.030841
vt 0.450290 0.298447
vn 0.000000 0.000000 -1.000000
v 0.030246 -0.093541 -0.030841
vt 0.306168 0.258401
vn 0.000000 0.000000 -1.000000
v 0.030246 -0.058371 -0.030841
vt 0.306168 0.298447
vn 0.000000 0.000000 -1.000000
v 0.030246 0.069506 -0.030841
vt 0.306168 0.444051
vn 0.000000 0.000000 -1.000000
v -0.030246 0.069506 -0.030841
vt 0.450290 0.444051
vn 0.000000 0.000000 -1.000000
v 0.044582 -0.093541 -0.030841
vt 0.272011 0.258401
vn 0.000000 0.000000 -1.000000
v 0.044582 -0.058371 -0.030841
vt 0.272011 0.298447
vn 0.000000 0.000000 -1.000000
v 0.030246 -0.105534 -0.030841
vt 0.306168 0.244745
vn 0.000000 0.000000 -1.000000
v -0.030246 -0.105534 -0.030841
vt 0.450290 0.244745
vn 0.000000 0.000000 -1.000000
v -0.030246 -0.093541 0.030841
vt 0.306065 0.258594
vn -0.000000 0.000000 1.000000
v 0.030246 -0.105534 0.030841
vt 0.450188 0.244937
vn -0.000000 0.000000 1.000000
v -0.030246 -0.105534 0.030841
vt 0.306065 0.244937
vn -0.000000 0.000000 1.000000
v 0.030246 -0.093541 0.030841
vt 0.450188 0.258594
vn -0.000000 0.000000 1.000000
v -0.030246 -0.058371 0.030841
vt 0.306065 0.298641
vn -0.000000 0.000000 1.000000
v 0.030246 -0.058371 0.030841
vt 0.450188 0.298641
vn -0.000000 0.000000 1.000000
v 0.044582 -0.058371 0.030841
vt 0.484345 0.298641
vn -0.000000 0.000000 1.000000
v 0.044582 -0.093541 0.030841
vt 0.484345 0.258594
vn -0.000000 0.000000 1.000000
v -0.030246 0.069506 0.030841
vt 0.306065 0.444254
vn -0.000000 0.000000 1.000000
v 0.030246 0.069506 0.030841
vt 0.450188 0.444254
vn -0.000000 0.000000 1.000000
v -0.044582 -0.093541 0.030841
vt 0.271908 0.258594
vn -0.000000 0.000000 1.000000
v -0.044582 -0.058371 0.030841
vt 0.271908 0.298641
vn -0.000000 0.000000 1.000000
v -0.056487 0.130685 0.018138
vt 0.243310 0.157604
vn -0.000000 1.000000 -0.000000
v -0.145758 0.130685 -0.042652
vt 0.030496 0.227970
vn -0.000000 1.000000 -0.000000
v -0.056487 0.130685 -0.018138
vt 0.243310 0.199594
vn -0.000000 1.000000 -0.000000
v -0.145758 0.130685 0.042652
vt 0.030496 0.129229
vn -0.000000 1.000000 -0.000000
v 0.056487 0.130685 0.018138
vt 0.512633 0.157604
vn -0.000000 1.000000 -0.000000
v 0.145758 0.130685 0.042652
vt 0.725447 0.129229
vn -0.000000 1.000000 -0.000000
v 0.145758 0.130685 -0.042652
vt 0.725447 0.227970
vn -0.000000 1.000000 -0.000000
v 0.056487 0.130685 -0.018138
vt 0.512633 0.199594
vn -0.000000 1.000000 -0.000000
v -0.145758 0.069506 -0.042652
vt 0.769775 0.119089
vn -0.000000 -1.000000 0.000000
v -0.030246 0.069506 -0.030841
vt 0.460694 0.104269
vn -0.000000 -1.000000 0.000000
v 0.030246 0.069506 -0.030841
vt 0.298834 0.104269
vn -0.000000 -1.000000 0.000000
v -0.145758 0.069506 0.042652
vt 0.769775 0.012054
vn -0.000000 -1.000000 0.000000
v -0.030246 0.069506 0.030841
vt 0.460694 0.026874
vn -0.000000 -1.000000 0.000000
v 0.145758 0.069506 -0.042652
vt -0.010246 0.119089
vn -0.000000 -1.000000 0.000000
v 0.030246 0.069506 0.030841
vt 0.298834 0.026874
vn -0.000000 -1.000000 0.000000
v 0.145758 0.069506 0.042652
vt -0.010246 0.012054
vn -0.000000 -1.000000 0.000000
v -0.043563 0.608142 -0.018138
vt 0.482018 0.886565
vn -0.000000 0.000000 -1.000000
v -0.029840 0.631982 -0.018138
vt 0.449324 0.913709
vn -0.000000 0.000000 -1.000000
v -0.043563 0.631982 -0.018138
vt 0.482018 0.913709
vn -0.000000 0.000000 -1.000000
v 0.006600 0.683440 -0.018138
vt 0.362504 0.972301
vn -0.000000 0.000000 -1.000000
v 0.006600 0.696206 -0.018138
vt 0.362504 0.986837
vn -0.000000 0.000000 -1.000000
v -0.018394 0.657274 -0.018138
vt 0.422053 0.942508
vn -0.000000 0.000000 -1.000000
v -0.029840 0.657274 -0.018138
vt 0.449324 0.942508
vn -0.000000 0.000000 -1.000000
v -0.006600 0.683440 -0.018138
vt 0.393954 0.972301
vn -0.000000 0.000000 -1.000000
v -0.018394 0.683440 -0.018138
vt 0.422053 0.972301
vn -0.000000 0.000000 -1.000000
v -0.006600 0.696206 -0.018138
vt 0.393954 0.986837
vn -0.000000 0.000000 -1.000000
v 0.018394 0.657274 -0.018138
vt 0.334405 0.942508
vn -0.000000 0.000000 -1.000000
v 0.018394 0.683440 -0.018138
vt 0.334405 0.972301
vn -0.000000 0.000000 -1.000000
v 0.029840 0.631982 -0.018138
vt 0.307134 0.913709
vn -0.000000 0.000000 -1.000000
v 0.029840 0.657274 -0.018138
vt 0.307134 0.942508
vn -0.000000 0.000000 -1.000000
v 0.043563 0.608142 -0.018138
vt 0.274440 0.886565
vn -0.000000 0.000000 -1.000000
v 0.043563 0.631982 -0.018138
vt 0.274440 0.913709
vn -0.000000 0.000000 -1.000000
v 0.056487 0.590813 -0.018138
vt 0.243648 0.866833
vn -0.000000 -0.000000 -1.000000
v 0.056487 0.608142 -0.018138
vt 0.243648 0.886565
vn -0.000000 0.000000 -1.000000
v -0.056487 0.590813 -0.018138
vt 0.512810 0.866833
vn -0.000000 -0.000000 -1.000000
v -0.056487 0.608142 -0.018138
vt 0.512810 0.886565
vn -0.000000 0.000000 -1.000000
v -0.056487 0.130685 -0.018138
vt 0.512810 0.513712
vn -0.000000 0.000000 -1.000000
v 0.056487 0.130685 -0.018138
vt 0.243648 0.513712
vn -0.000000 0.000000 -1.000000
v -0.056487 0.130685 0.018138
vt 0.243544 0.513919
vn 0.000000 0.000000 1.000000
v 0.056487 0.590813 0.018138
vt 0.512709 0.867060
vn 0.000000 0.000000 1.000000
v 0.056487 0.130685 0.018138
vt 0.512709 0.513919
vn 0.000000 0.000000 1.000000
v -0.056487 0.590813 0.018138
vt 0.243544 0.867060
vn 0.000000 0.000000 1.000000
v -0.056487 0.608142 0.018138
vt 0.243544 0.886793
vn 0.000000 0.000000 1.000000
v -0.043563 0.608142 0.018138
vt 0.274336 0.886793
vn 0.000000 0.000000 1.000000
v -0.029840 0.631982 0.018138
vt 0.307031 0.913939
vn 0.000000 0.000000 1.000000
v -0.018394 0.657274 0.018138
vt 0.334302 0.942739
vn 0.000000 0.000000 1.000000
v 0.043563 0.608142 0.018138
vt 0.481917 0.886793
vn 0.000000 0.000000 1.000000
v 0.056487 0.608142 0.018138
vt 0.512709 0.886793
vn 0.000000 0.000000 1.000000
v -0.006600 0.683440 0.018138
vt 0.362402 0.972534
vn 0.000000 0.000000 1.000000
v 0.029840 0.631982 0.018138
vt 0.449222 0.913939
vn 0.000000 0.000000 1.000000
v 0.043563 0.631982 0.018138
vt 0.481917 0.913939
vn 0.000000 0.000000 1.000000
v -0.006600 0.696206 0.018138
vt 0.362402 0.987071
vn 0.000000 0.000000 1.000000
v 0.018394 0.657274 0.018138
vt 0.421951 0.942739
vn 0.000000 0.000000 1.000000
v 0.029840 0.657274 0.018138
vt 0.449222 0.942739
vn 0.000000 0.000000 1.000000
v 0.006600 0.683440 0.018138
vt 0.393851 0.972534
vn 0.000000 0.000000 1.000000
v 0.018394 0.683440 0.018138
vt 0.421951 0.972534
vn 0.000000 0.000000 1.000000
v 0.006600 0.696206 0.018138
vt 0.393851 0.987071
vn 0.000000 0.000000 1.000000
v -0.018394 0.683440 0.018138
vt 0.334302 0.972534
vn 0.000000 0.000000 1.000000
v -0.029840 0.657274 0.018138
vt 0.307031 0.942739
vn 0.000000 0.000000 1.000000
v -0.043563 0.631982 0.018138
vt 0.274336 0.913939
vn 0.000000 0.000000 1.000000
# Faces (1 to 224)
g sword_Mesh_0
f -222/-222/-222 -223/-223/-223 -224/-224/-224
f -221/-221/-221 -224/-224/-224 -223/-223/-223
f -218/-218/-218 -219/-219/-219 -220/-220/-220
f -217/-217/-217 -220/-220/-220 -219/-219/-219
f -214/-214/-214 -215/-215/-215 -216/-216/-216
f -213/-213/-213 -216/-216/-216 -215/-215/-215
f -210/-210/-210 -211/-211/-211 -212/-212/-212
f -209/-209/-209 -212/-212/-212 -211/-211/-211
f -206/-206/-206 -207/-207/-207 -208/-208/-208
f -205/-205/-205 -208/-208/-208 -207/-207/-207
f -202/-202/-202 -203/-203/-203 -204/-204/-204
f -201/-201/-201 -204/-204/-204 -203/-203/-203
f -198/-198/-198 -199/-199/-199 -200/-200/-200
f -197/-197/-197 -200/-200/-200 -199/-199/-199
f -194/-194/-194 -195/-195/-195 -196/-196/-196
f -193/-193/-193 -196/-196/-196 -195/-195/-195
f -190/-190/-190 -191/-191/-191 -192/-192/-192
f -189/-189/-189 -192/-192/-192 -191/-191/-191
f -186/-186/-186 -187/-187/-187 -188/-188/-188
f -185/-185/-185 -188/-188/-188 -187/-187/-187
f -182/-182/-182 -183/-183/-183 -184/-184/-184
f -181/-181/-181 -184/-184/-184 -183/-183/-183
f -178/-178/-178 -179/-179/-179 -180/-180/-180
f -177/-177/-177 -180/-180/-180 -179/-179/-179
f -174/-174/-174 -175/-175/-175 -176/-176/-176
f -173/-173/-173 -176/-176/-176 -175/-175/-175
f -170/-170/-170 -171/-171/-171 -172/-172/-172
f -169/-169/-169 -172/-172/-172 -171/-171/-171
f -166/-166/-166 -167/-167/-167 -168/-168/-168
f -165/-165/-165 -168/-168/-168 -167/-167/-167
f -162/-162/-162 -163/-163/-163 -164/-164/-164
f -161/-161/-161 -164/-164/-164 -163/-163/-163
f -161/-161/-161 -163/-163/-163 -160/-160/-160
f -159/-159/-159 -160/-160/-160 -163/-163/-163
f -156/-156/-156 -157/-157/-157 -158/-158/-158
f -155/-155/-155 -158/-158/-158 -157/-157/-157
f -155/-155/-155 -157/-157/-157 -154/-154/-154
f -153/-153/-153 -154/-154/-154 -157/-157/-157
f -150/-150/-150 -151/-151/-151 -152/-152/-152
f -149/-149/-149 -152/-152/-152 -151/-151/-151
f -146/-146/-146 -147/-147/-147 -148/-148/-148
f -145/-145/-145 -148/-148/-148 -147/-147/-147
f -142/-142/-142 -143/-143/-143 -144/-144/-144
f -141/-141/-141 -144/-144/-144 -143/-143/-143
f -138/-138/-138 -139/-139/-139 -140/-140/-140
f -137/-137/-137 -140/-140/-140 -139/-139/-139
f -134/-134/-134 -135/-135/-135 -136/-136/-136
f -133/-133/-133 -136/-136/-136 -135/-135/-135
f -130/-130/-130 -131/-131/-131 -132/-132/-132
f -129/-129/-129 -132/-132/-132 -131/-131/-131
f -126/-126/-126 -127/-127/-127 -128/-128/-128
f -125/-125/-125 -128/-128/-128 -127/-127/-127
f -122/-122/-122 -123/-123/-123 -124/-124/-124
f -121/-121/-121 -124/-124/-124 -123/-123/-123
f -118/-118/-118 -119/-119/-119 -120/-120/-120
f -117/-117/-117 -120/-120/-120 -119/-119/-119
f -114/-114/-114 -115/-115/-115 -116/-116/-116
f -113/-113/-113 -116/-116/-116 -115/-115/-115
f -110/-110/-110 -111/-111/-111 -112/-112/-112
f -109/-109/-109 -112/-112/-112 -111/-111/-111
f -106/-106/-106 -107/-107/-107 -108/-108/-108
f -105/-105/-105 -108/-108/-108 -107/-107/-107
f -102/-102/-102 -103/-103/-103 -104/-104/-104
f -101/-101/-101 -104/-104/-104 -103/-103/-103
f -98/-98/-98 -99/-99/-99 -100/-100/-100
f -97/-97/-97 -100/-100/-100 -99/-99/-99
f -94/-94/-94 -95/-95/-95 -96/-96/-96
f -93/-93/-93 -96/-96/-96 -95/-95/-95
f -90/-90/-90 -91/-91/-91 -92/-92/-92
f -89/-89/-89 -92/-92/-92 -91/-91/-91
f -86/-86/-86 -87/-87/-87 -88/-88/-88
f -85/-85/-85 -88/-88/-88 -87/-87/-87
f -82/-82/-82 -83/-83/-83 -84/-84/-84
f -83/-83/-83 -81/-81/-81 -84/-84/-84
f -81/-81/-81 -80/-80/-80 -84/-84/-84
f -79/-79/-79 -80/-80/-80 -81/-81/-81
f -78/-78/-78 -79/-79/-79 -81/-81/-81
f -77/-77/-77 -78/-78/-78 -81/-81/-81
f -76/-76/-76 -80/-80/-80 -79/-79/-79
f -75/-75/-75 -76/-76/-76 -79/-79/-79
f -80/-80/-80 -74/-74/-74 -84/-84/-84
f -74/-74/-74 -73/-73/-73 -84/-84/-84
f -70/-70/-70 -71/-71/-71 -72/-72/-72
f -71/-71/-71 -69/-69/-69 -72/-72/-72
f -69/-69/-69 -68/-68/-68 -72/-72/-72
f -67/-67/-67 -68/-68/-68 -69/-69/-69
f -66/-66/-66 -67/-67/-67 -69/-69/-69
f -65/-65/-65 -66/-66/-66 -69/-69/-69
f -64/-64/-64 -68/-68/-68 -67/-67/-67
f -63/-63/-63 -64/-64/-64 -67/-67/-67
f -72/-72/-72 -68/-68/-68 -62/-62/-62
f -68/-68/-68 -61/-61/-61 -62/-62/-62
f -58/-58/-58 -59/-59/-59 -60/-60/-60
f -59/-59/-59 -57/-57/-57 -60/-60/-60
f -60/-60/-60 -57/-57/-57 -56/-56/-56
f -57/-57/-57 -55/-55/-55 -56/-56/-56
f -59/-59/-59 -58/-58/-58 -54/-54/-54
f -58/-58/-58 -53/-53/-53 -54/-54/-54
f -54/-54/-54 -53/-53/-53 -55/-55/-55
f -55/-55/-55 -53/-53/-53 -56/-56/-56
f -50/-50/-50 -51/-51/-51 -52/-52/-52
f -52/-52/-52 -51/-51/-51 -49/-49/-49
f -51/-51/-51 -48/-48/-48 -49/-49/-49
f -52/-52/-52 -47/-47/-47 -50/-50/-50
f -50/-50/-50 -47/-47/-47 -46/-46/-46
f -47/-47/-47 -45/-45/-45 -46/-46/-46
f -46/-46/-46 -45/-45/-45 -48/-48/-48
f -48/-48/-48 -45/-45/-45 -49/-49/-49
f -42/-42/-42 -43/-43/-43 -44/-44/-44
f -43/-43/-43 -41/-41/-41 -44/-44/-44
f -40/-40/-40 -41/-41/-41 -43/-43/-43
f -39/-39/-39 -40/-40/-40 -43/-43/-43
f -38/-38/-38 -39/-39/-39 -43/-43/-43
f -37/-37/-37 -40/-40/-40 -39/-39/-39
f -36/-36/-36 -37/-37/-37 -39/-39/-39
f -35/-35/-35 -40/-40/-40 -37/-37/-37
f -41/-41/-41 -34/-34/-34 -44/-44/-44
f -33/-33/-33 -34/-34/-34 -41/-41/-41
f -34/-34/-34 -32/-32/-32 -44/-44/-44
f -31/-31/-31 -32/-32/-32 -34/-34/-34
f -32/-32/-32 -30/-30/-30 -44/-44/-44
f -29/-29/-29 -30/-30/-30 -32/-32/-32
f -30/-30/-30 -28/-28/-28 -44/-44/-44
f -27/-27/-27 -28/-28/-28 -30/-30/-30
f -28/-28/-28 -26/-26/-26 -44/-44/-44
f -26/-26/-26 -25/-25/-25 -44/-44/-44
f -26/-26/-26 -28/-28/-28 -24/-24/-24
f -23/-23/-23 -24/-24/-24 -28/-28/-28
f -20/-20/-20 -21/-21/-21 -22/-22/-22
f -19/-19/-19 -22/-22/-22 -21/-21/-21
f -18/-18/-18 -19/-19/-19 -21/-21/-21
f -17/-17/-17 -18/-18/-18 -21/-21/-21
f -16/-16/-16 -17/-17/-17 -21/-21/-21
f -15/-15/-15 -16/-16/-16 -21/-21/-21
f -14/-14/-14 -15/-15/-15 -21/-21/-21
f -13/-13/-13 -14/-14/-14 -21/-21/-21
f -12/-12/-12 -15/-15/-15 -14/-14/-14
f -11/-11/-11 -12/-12/-12 -14/-14/-14
f -10/-10/-10 -11/-11/-11 -14/-14/-14
f -9/-9/-9 -12/-12/-12 -11/-11/-11
f -8/-8/-8 -9/-9/-9 -11/-11/-11
f -7/-7/-7 -8/-8/-8 -11/-11/-11
f -6/-6/-6 -9/-9/-9 -8/-8/-8
f -5/-5/-5 -6/-6/-6 -8/-8/-8
f -4/-4/-4 -9/-9/-9 -6/-6/-6
f -3/-3/-3 -15/-15/-15 -12/-12/-12
f -2/-2/-2 -16/-16/-16 -15/-15/-15
f -1/-1/-1 -17/-17/-17 -16/-16/-16

