g Table_07
v -23.61835 2.048329 10.47676
v -23.74335 2.048329 10.47676
v -23.74335 2.048329 10.35176
v -23.61835 2.048329 10.35176
v -23.74335 0.6733291 10.35176
v -23.74335 2.048329 10.35176
v -23.74335 2.048329 10.47676
v -23.74335 0.6733291 10.47676
v -23.61835 0.6733291 10.35176
v -23.61835 0.6733291 10.47676
v -23.61835 2.048329 10.47676
v -23.61835 2.048329 10.35176
v -23.74335 0.6733291 10.47676
v -23.74335 2.048329 10.47676
v -23.61835 2.048329 10.47676
v -23.61835 0.6733291 10.47676
v -23.74335 0.6733291 10.35176
v -23.61835 0.6733291 10.35176
v -23.61835 2.048329 10.35176
v -23.74335 2.048329 10.35176
v -23.74335 1.216414 10.04968
v -23.74335 1.216414 10.75801
v -23.74335 1.924748 10.75801
v -23.74335 1.924748 10.04968
v -23.82668 1.216414 10.04968
v -23.82668 1.924747 10.04968
v -23.82668 1.924748 10.75801
v -23.82668 1.216414 10.75801
v -23.74335 1.216414 10.04968
v -23.82668 1.216414 10.04968
v -23.82668 1.216414 10.75801
v -23.74335 1.216414 10.75801
v -23.74335 1.216414 10.75801
v -23.82668 1.216414 10.75801
v -23.82668 1.924748 10.75801
v -23.74335 1.924748 10.75801
v -23.74335 1.924748 10.75801
v -23.82668 1.924748 10.75801
v -23.82668 1.924747 10.04968
v -23.74335 1.924748 10.04968
v -23.74335 1.924748 10.04968
v -23.82668 1.924747 10.04968
v -23.82668 1.216414 10.04968
v -23.74335 1.216414 10.04968
v 0.06250473 1.375001 -0.06250055
v 0.06250229 1.375001 0.06249944
v -0.06249771 1.375001 0.06249944
v -0.06249771 1.375001 -0.06250055
v -0.06249771 6.103515E-07 0.06249944
v -0.06249771 1.375001 0.06249944
v 0.06250229 1.375001 0.06249944
v 0.06250229 6.103515E-07 0.06250127
v -0.06249771 6.103515E-07 -0.06250055
v 0.06250473 6.103515E-07 -0.06249872
v 0.06250473 1.375001 -0.06250055
v -0.06249771 1.375001 -0.06250055
v 0.06250229 6.103515E-07 0.06250127
v 0.06250229 1.375001 0.06249944
v 0.06250473 1.375001 -0.06250055
v 0.06250473 6.103515E-07 -0.06249872
v -0.06249771 6.103515E-07 0.06249944
v -0.06249771 6.103515E-07 -0.06250055
v -0.06249771 1.375001 -0.06250055
v -0.06249771 1.375001 0.06249944
v -0.3645827 0.5430859 0.06250127
v 0.3437547 0.5430859 0.0625025
v 0.3437547 1.251419 0.0625025
v -0.3645827 1.251419 0.06250127
v -0.3645827 0.543086 0.145835
v -0.3645827 1.251419 0.145835
v 0.3437547 1.251419 0.1458356
v 0.3437547 0.5430861 0.1458356
v -0.3645827 0.5430859 0.06250127
v -0.3645827 0.543086 0.145835
v 0.3437547 0.5430861 0.1458356
v 0.3437547 0.5430859 0.0625025
v 0.3437547 0.5430859 0.0625025
v 0.3437547 0.5430861 0.1458356
v 0.3437547 1.251419 0.1458356
v 0.3437547 1.251419 0.0625025
v 0.3437547 1.251419 0.0625025
v 0.3437547 1.251419 0.1458356
v -0.3645827 1.251419 0.145835
v -0.3645827 1.251419 0.06250127
v -0.3645827 1.251419 0.06250127
v -0.3645827 1.251419 0.145835
v -0.3645827 0.543086 0.145835
v -0.3645827 0.5430859 0.06250127
vt 0.5685458 0.9543469
vt 0.5685458 0.9426281
vt 0.556827 0.9426281
vt 0.556827 0.9543469
vt 0.6040843 0.8999047
vt 0.475178 0.8999047
vt 0.475178 0.8881859
vt 0.6040843 0.8881859
vt 0.6040843 0.8881859
vt 0.6040843 0.8999047
vt 0.475178 0.8999047
vt 0.475178 0.8881859
vt 0.6040843 0.8881859
vt 0.475178 0.8881859
vt 0.475178 0.8999047
vt 0.6040843 0.8999047
vt 0.6040843 0.8999047
vt 0.6040843 0.8881859
vt 0.475178 0.8881859
vt 0.475178 0.8999047
vt 0.4764816 0.9350452
vt 0.5434223 0.9350452
vt 0.5434223 0.870133
vt 0.4764816 0.870133
vt 0.1816406 0.8925781
vt 0.1816406 0.9589844
vt 0.2480469 0.9589844
vt 0.2480469 0.8925781
vt 0.4764816 0.9350452
vt 0.4764816 0.9431592
vt 0.5434223 0.9431592
vt 0.5434223 0.9350452
vt 0.5434223 0.9350452
vt 0.5515364 0.9350452
vt 0.5515364 0.870133
vt 0.5434223 0.870133
vt 0.5434223 0.870133
vt 0.5434223 0.8620189
vt 0.4764816 0.8620189
vt 0.4764816 0.870133
vt 0.4764816 0.870133
vt 0.4683676 0.870133
vt 0.4683676 0.9350452
vt 0.4764816 0.9350452
vt 0.5685458 0.9543469
vt 0.5685458 0.9426281
vt 0.556827 0.9426281
vt 0.556827 0.9543469
vt 0.6040843 0.8999047
vt 0.475178 0.8999047
vt 0.475178 0.8881859
vt 0.6040843 0.8881859
vt 0.6040843 0.8881859
vt 0.6040843 0.8999047
vt 0.475178 0.8999047
vt 0.475178 0.8881859
vt 0.6040843 0.8881859
vt 0.475178 0.8881859
vt 0.475178 0.8999047
vt 0.6040843 0.8999047
vt 0.6040843 0.8999047
vt 0.6040843 0.8881859
vt 0.475178 0.8881859
vt 0.475178 0.8999047
vt 0.4764816 0.9350452
vt 0.5434223 0.9350452
vt 0.5434223 0.870133
vt 0.4764816 0.870133
vt 0.1816406 0.8925781
vt 0.1816406 0.9589844
vt 0.2480469 0.9589844
vt 0.2480469 0.8925781
vt 0.4764816 0.9350452
vt 0.4764816 0.9431592
vt 0.5434223 0.9431592
vt 0.5434223 0.9350452
vt 0.5434223 0.9350452
vt 0.5515364 0.9350452
vt 0.5515364 0.870133
vt 0.5434223 0.870133
vt 0.5434223 0.870133
vt 0.5434223 0.8620189
vt 0.4764816 0.8620189
vt 0.4764816 0.870133
vt 0.4764816 0.870133
vt 0.4683676 0.870133
vt 0.4683676 0.9350452
vt 0.4764816 0.9350452
vn -6.103486E-07 1 -6.103486E-07
vn -6.103486E-07 1 -6.103486E-07
vn -6.103486E-07 1 -6.103486E-07
vn -6.103486E-07 1 -6.103486E-07
vn -1 0 0
vn -1 0 0
vn -1 0 0
vn -1 0 0
vn 1 0 0
vn 1 0 0
vn 1 0 0
vn 1 0 0
vn -9.765625E-06 0 1
vn -9.765625E-06 0 1
vn -9.765624E-06 0 1
vn -9.765625E-06 0 1
vn 4.882812E-06 -4.43892E-07 -1
vn 4.882812E-06 -4.43892E-07 -1
vn 4.882812E-06 -4.43892E-07 -1
vn 4.882812E-06 -4.43892E-07 -1
vn 1 0 0
vn 1 0 0
vn 1 0 0
vn 1 0 0
vn -1 0 0
vn -1 0 0
vn -1 0 0
vn -1 0 0
vn 9.155363E-07 -1 1.615636E-07
vn 9.155363E-07 -1 1.615636E-07
vn 9.155363E-07 -1 1.615636E-07
vn 9.155363E-07 -1 1.615636E-07
vn 0 0 1
vn 0 0 1
vn 0 0 1
vn 0 0 1
vn -4.577682E-07 1 -1.615636E-07
vn -4.577682E-07 1 -1.615636E-07
vn -4.577682E-07 1 -1.615636E-07
vn -4.577682E-07 1 -1.615636E-07
vn 0 0 -1
vn 0 0 -1
vn 0 0 -1
vn 0 0 -1
vn -1.525864E-07 1 -1.525894E-07
vn -1.525864E-07 1 -1.525894E-07
vn -1.525864E-07 1 -1.525894E-07
vn -1.525864E-07 1 -1.525894E-07
vn -7.324219E-06 6.658379E-07 1
vn -7.324219E-06 6.658379E-07 1
vn -7.324219E-06 6.65838E-07 1
vn -7.324219E-06 6.658379E-07 1
vn 7.324075E-06 -6.658379E-07 -1
vn 7.324075E-06 -6.658379E-07 -1
vn 7.324075E-06 -6.658379E-07 -1
vn 7.324075E-06 -6.658379E-07 -1
vn 1 0 1.953125E-05
vn 1 0 1.953125E-05
vn 1 0 1.953125E-05
vn 1 0 1.953125E-05
vn -1 0 0
vn -1 0 0
vn -1 0 0
vn -1 0 0
vn 1.723336E-06 0 -1
vn 1.723336E-06 0 -1
vn 1.723336E-06 0 -1
vn 1.723336E-06 0 -1
vn -8.616678E-07 0 1
vn -8.616678E-07 0 1
vn -8.616678E-07 0 1
vn -8.616678E-07 0 1
vn 0 -1 1.831052E-06
vn 0 -1 1.831053E-06
vn 0 -1 1.831052E-06
vn 0 -1 1.831052E-06
vn 1 0 0
vn 1 0 0
vn 1 0 0
vn 1 0 0
vn 0 1 9.155262E-07
vn 0 1 9.155262E-07
vn 0 1 9.155263E-07
vn 0 1 9.155262E-07
vn -1 0 0
vn -1 0 0
vn -1 0 0
vn -1 0 0
g Table_07_0
f 3/3/3 2/2/2 1/1/1
f 4/4/4 3/3/3 1/1/1
f 7/7/7 6/6/6 5/5/5
f 8/8/8 7/7/7 5/5/5
f 11/11/11 10/10/10 9/9/9
f 12/12/12 11/11/11 9/9/9
f 15/15/15 14/14/14 13/13/13
f 16/16/16 15/15/15 13/13/13
f 19/19/19 18/18/18 17/17/17
f 20/20/20 19/19/19 17/17/17
f 23/23/23 22/22/22 21/21/21
f 24/24/24 23/23/23 21/21/21
f 27/27/27 26/26/26 25/25/25
f 28/28/28 27/27/27 25/25/25
f 31/31/31 30/30/30 29/29/29
f 32/32/32 31/31/31 29/29/29
f 35/35/35 34/34/34 33/33/33
f 36/36/36 35/35/35 33/33/33
f 39/39/39 38/38/38 37/37/37
f 40/40/40 39/39/39 37/37/37
f 43/43/43 42/42/42 41/41/41
f 44/44/44 43/43/43 41/41/41
f 47/47/47 46/46/46 45/45/45
f 48/48/48 47/47/47 45/45/45
f 51/51/51 50/50/50 49/49/49
f 52/52/52 51/51/51 49/49/49
f 55/55/55 54/54/54 53/53/53
f 56/56/56 55/55/55 53/53/53
f 59/59/59 58/58/58 57/57/57
f 60/60/60 59/59/59 57/57/57
f 63/63/63 62/62/62 61/61/61
f 64/64/64 63/63/63 61/61/61
f 67/67/67 66/66/66 65/65/65
f 68/68/68 67/67/67 65/65/65
f 71/71/71 70/70/70 69/69/69
f 72/72/72 71/71/71 69/69/69
f 75/75/75 74/74/74 73/73/73
f 76/76/76 75/75/75 73/73/73
f 79/79/79 78/78/78 77/77/77
f 80/80/80 79/79/79 77/77/77
f 83/83/83 82/82/82 81/81/81
f 84/84/84 83/83/83 81/81/81
f 87/87/87 86/86/86 85/85/85
f 88/88/88 87/87/87 85/85/85
