g Table_02
v -0.53125 1.251417 0.06250112
v -0.5312494 0.5430838 0.06250112
v 0.5312476 0.5430835 0.06250051
v 0.5312476 1.251417 0.06250051
v 0.9062476 0.8972501 0.06250051
v 0.53125 0.5430835 0.145833
v -0.53125 0.5430838 0.1458336
v -0.53125 1.251417 0.1458336
v 0.53125 1.251417 0.145833
v 0.90625 0.8972501 0.145833
v 0.5312476 0.5430835 0.06250051
v -0.5312494 0.5430838 0.06250112
v -0.53125 0.5430838 0.1458336
v 0.53125 0.5430835 0.145833
v 0.5312476 1.251417 0.06250051
v 0.9062476 0.8972501 0.06250051
v 0.90625 0.8972501 0.145833
v 0.53125 1.251417 0.145833
v -0.53125 1.251417 0.06250112
v -0.53125 1.251417 0.1458336
v -0.53125 0.5430838 0.1458336
v -0.5312494 0.5430838 0.06250112
v 0.9062476 0.8972501 0.06250051
v 0.5312476 0.5430835 0.06250051
v 0.53125 0.5430835 0.145833
v 0.90625 0.8972501 0.145833
v -0.53125 1.251417 0.06250112
v 0.5312476 1.251417 0.06250051
v 0.53125 1.251417 0.145833
v -0.53125 1.251417 0.1458336
v 0.06250061 1.374999 -0.06249888
v 0.0625 1.374998 0.06250112
v -0.0625 1.374998 0.06250112
v -0.06249939 1.374999 -0.06249949
v -0.06249939 -1.220703E-06 0.06250112
v -0.0625 1.374998 0.06250112
v 0.0625 1.374998 0.06250112
v 0.06250061 -1.525879E-06 0.06250112
v -0.06249939 -1.220703E-06 -0.06249949
v 0.06250061 -1.525879E-06 -0.06249888
v 0.06250061 1.374999 -0.06249888
v -0.06249939 1.374999 -0.06249949
v 0.06250061 -1.525879E-06 0.06250112
v 0.0625 1.374998 0.06250112
v 0.06250061 1.374999 -0.06249888
v 0.06250061 -1.525879E-06 -0.06249888
v -0.06249939 -1.220703E-06 0.06250112
v -0.06249939 -1.220703E-06 -0.06249949
v -0.06249939 1.374999 -0.06249949
v -0.0625 1.374998 0.06250112
vt 0.4778112 0.8668027
vt 0.4778112 0.9332089
vt 0.5774205 0.9332089
vt 0.5774205 0.8668027
vt 0.6125769 0.9000058
vt 0.4140625 0.8925781
vt 0.3144531 0.8925781
vt 0.3144531 0.9589844
vt 0.4140625 0.9589844
vt 0.4492188 0.9257813
vt 0.5774205 0.9332089
vt 0.4778112 0.9332089
vt 0.4778112 0.9410214
vt 0.5774205 0.9410214
vt 0.5866755 0.8559676
vt 0.5866755 0.9043239
vt 0.5944881 0.9043239
vt 0.5944881 0.8559676
vt 0.4778112 0.8668027
vt 0.4699987 0.8668027
vt 0.4699987 0.9332089
vt 0.4778112 0.9332089
vt 0.5866756 0.8960756
vt 0.5866756 0.9444335
vt 0.594488 0.9444335
vt 0.594488 0.8960756
vt 0.4778112 0.8668027
vt 0.5774205 0.8668027
vt 0.5774205 0.8589902
vt 0.4778112 0.8589902
vt 0.5685458 0.9543469
vt 0.5685458 0.9426281
vt 0.556827 0.9426281
vt 0.556827 0.9543469
vt 0.6040843 0.8999047
vt 0.475178 0.8999047
vt 0.475178 0.8881859
vt 0.6040843 0.8881859
vt 0.6040843 0.8881859
vt 0.6040843 0.8999047
vt 0.475178 0.8999047
vt 0.475178 0.8881859
vt 0.6040843 0.8881859
vt 0.475178 0.8881859
vt 0.475178 0.8999047
vt 0.6040843 0.8999047
vt 0.6040843 0.8999047
vt 0.6040843 0.8881859
vt 0.475178 0.8881859
vt 0.475178 0.8999047
vn -5.744501E-07 0 -1
vn -5.7445E-07 0 -1
vn -3.783796E-07 0 -1
vn -3.783797E-07 0 -1
vn 0 0 -1
vn 3.783786E-07 0 1
vn 5.744486E-07 0 1
vn 5.744484E-07 0 1
vn 3.783787E-07 0 1
vn 0 0 1
vn 0.369444 -0.9292529 -1.084914E-05
vn -2.872247E-07 -1 0
vn -2.872247E-07 -1 0
vn 0.3694558 -0.9292483 -1.084948E-05
vn 0.3694444 0.9292529 -1.035651E-05
vn 0.6866238 0.727013 -2.016344E-05
vn 0.6866238 0.727013 -2.016345E-05
vn 0.3694561 0.9292481 -1.035687E-05
vn -1 -4.308366E-07 -3.662145E-06
vn -1 -4.308366E-07 -3.662145E-06
vn -1 -4.308366E-07 -3.662145E-06
vn -1 -4.308366E-07 -3.662145E-06
vn 0.6866233 -0.7270133 -2.016345E-05
vn 0.369444 -0.9292529 -1.084914E-05
vn 0.3694558 -0.9292483 -1.084948E-05
vn 0.6866235 -0.7270133 -2.016345E-05
vn 0 1 9.155374E-07
vn 0.3694444 0.9292529 -1.035651E-05
vn 0.3694561 0.9292481 -1.035687E-05
vn 0 1 9.155374E-07
vn 0 1 3.6621E-06
vn 0 1 3.662101E-06
vn 0 1 3.662101E-06
vn 0 1 3.6621E-06
vn 0 0 1
vn 0 0 1
vn 0 0 1
vn 0 0 1
vn 4.882812E-06 0 -1
vn 4.882812E-06 0 -1
vn 4.882812E-06 0 -1
vn 4.882812E-06 0 -1
vn 1 2.21946E-07 2.441407E-06
vn 1 2.21946E-07 2.441407E-06
vn 1 2.21946E-07 2.441407E-06
vn 1 2.21946E-07 2.441407E-06
vn -1 -2.219461E-07 -2.441395E-06
vn -1 -2.219461E-07 -2.441395E-06
vn -1 -2.219461E-07 -2.441395E-06
vn -1 -2.219461E-07 -2.441395E-06
g Table_02_0
f 3/3/3 2/2/2 1/1/1
f 4/4/4 3/3/3 1/1/1
f 5/5/5 3/3/3 4/4/4
f 8/8/8 7/7/7 6/6/6
f 9/9/9 8/8/8 6/6/6
f 10/10/10 9/9/9 6/6/6
f 13/13/13 12/12/12 11/11/11
f 14/14/14 13/13/13 11/11/11
f 17/17/17 16/16/16 15/15/15
f 18/18/18 17/17/17 15/15/15
f 21/21/21 20/20/20 19/19/19
f 22/22/22 21/21/21 19/19/19
f 25/25/25 24/24/24 23/23/23
f 26/26/26 25/25/25 23/23/23
f 29/29/29 28/28/28 27/27/27
f 30/30/30 29/29/29 27/27/27
f 33/33/33 32/32/32 31/31/31
f 34/34/34 33/33/33 31/31/31
f 37/37/37 36/36/36 35/35/35
f 38/38/38 37/37/37 35/35/35
f 41/41/41 40/40/40 39/39/39
f 42/42/42 41/41/41 39/39/39
f 45/45/45 44/44/44 43/43/43
f 46/46/46 45/45/45 43/43/43
f 49/49/49 48/48/48 47/47/47
f 50/50/50 49/49/49 47/47/47
