g Tile_Campaign4.001
v -45 20.00001 21.12887
v -20.49997 20.00001 42.50004
v -20.49997 20.00001 21.12887
v -45 20.00001 93.9481
v 45 20.00001 93.9481
v 20.49997 20.00001 42.50004
v 45 20.00001 21.12887
v 20.49997 20.00001 21.12887
v 45 20.00001 93.9481
v 45 -14.99996 93.9481
v 45 20.00001 21.12887
v 45 -14.99996 21.12887
v 45 -14.99996 21.12887
v 20.49997 -14.99996 42.50004
v 20.49997 -14.99996 21.12887
v 45 -14.99996 93.9481
v -45 -14.99996 93.9481
v -20.49997 -14.99996 42.50004
v -45 -14.99996 21.12887
v -20.49997 -14.99996 21.12887
v 45 -14.99996 21.12887
v 20.49997 -14.99996 21.12887
v 45 20.00001 21.12887
v 20.49997 20.00001 21.12887
v -20.49997 -14.99996 42.50004
v 20.49997 20.00001 42.50004
v 20.49997 -14.99996 42.50004
v -14.00002 -6.866455E-05 42.50004
v -16.00002 -6.866455E-05 42.50004
v -20.49997 3.499954 42.50004
v -20.49997 20.00001 42.50004
v -14.00002 2.999989 42.50004
v -45 20.00001 93.9481
v -45 20.00001 21.12887
v -45 -14.99996 93.9481
v -45 -14.99996 21.12887
v 45 20.00001 93.9481
v -45 20.00001 93.9481
v 45 -14.99996 93.9481
v -45 -14.99996 93.9481
v -20.49997 -14.99996 21.12887
v -20.49997 3.499954 42.50004
v -20.49997 -14.99996 42.50004
v -20.49997 0.08831787 32.91164
v -20.49997 0.08831787 30.94995
v -20.49997 20.00001 21.12887
v -20.49997 20.00001 42.50004
v -20.49997 2.911606 32.91164
v -20.49997 2.911606 31.08842
v -45 20.00001 21.12887
v -20.49997 20.00001 21.12887
v -45 -14.99996 21.12887
v -20.49997 -14.99996 21.12887
v 20.49997 -14.99996 42.50004
v 20.49997 -6.866455E-05 31.12897
v 20.49997 -14.99996 31.12897
v 20.49997 -14.99996 21.12887
v 20.49997 -6.866455E-05 33.00003
v 20.49997 20.00001 42.50004
v 20.49997 2.999989 33.00003
v 20.49997 20.00001 21.12887
v 20.49997 2.999989 31.00004
v 20.49997 -6.866455E-05 31.00004
vt -44.51273 -42.37701
vt -20.01273 -21.00594
vt -20.01273 -42.37701
vt -44.51273 30.44217
vt 45.48727 30.44217
vt 20.98728 -21.00594
vt 45.48727 -42.37701
vt 20.98728 -42.37701
vt 93.37843 20.00002
vt 93.37843 -14.99999
vt 20.55924 19.99999
vt 20.55924 -14.99999
vt -44.51273 -42.377
vt -20.01273 -21.00593
vt -20.01273 -42.377
vt -44.51273 30.44217
vt 45.48727 30.44217
vt 20.98728 -21.00594
vt 45.48727 -42.377
vt 20.98728 -42.377
vt 44.99999 -14.99999
vt 20.50002 -14.99999
vt 44.99999 19.99999
vt 20.50002 19.99999
vt -20.5 -14.99999
vt 20.50002 19.99999
vt 20.50002 -14.99999
vt -13.99998 7.629395E-06
vt -16 7.629395E-06
vt -20.5 3.5
vt -20.5 19.99999
vt -13.99998 3
vt -93.5178 20.00002
vt -20.69861 19.99999
vt -93.5178 -14.99999
vt -20.69861 -14.99999
vt -44.5697 20.00002
vt 45.43032 20.00002
vt -44.5697 -14.99999
vt 45.43032 -14.99999
vt 21.12894 -14.99999
vt 42.49999 3.5
vt 42.50002 -14.99999
vt 32.91161 0.08838654
vt 30.95001 0.08838654
vt 21.12894 19.99999
vt 42.49999 19.99999
vt 32.91161 2.911613
vt 31.08839 2.911613
vt -45 19.99999
vt -20.5 19.99999
vt -45 -14.99999
vt -20.5 -14.99999
vt -41.5 -14.99999
vt -30.12892 7.629395E-06
vt -30.12892 -14.99999
vt -20.12893 -14.99999
vt -31.99999 7.629395E-06
vt -41.5 19.99999
vt -31.99999 3
vt -20.12893 19.99999
vt -29.99999 3
vt -29.99999 7.629395E-06
vn -0.0009775162 -0.9999995 0
vn -0.0009775162 -0.9999995 0
vn -0.0009775162 -0.9999995 0
vn -0.0009775162 -0.9999995 0
vn -0.0009775162 -0.9999995 0
vn -0.0009775162 -0.9999995 0
vn -0.0009775162 -0.9999995 0
vn -0.0009775162 -0.9999995 0
vn -0.9999995 0.0009775162 0
vn -0.9999995 0.0009775162 0
vn -0.9999995 0.0009775162 0
vn -0.9999995 0.0009775162 0
vn -0.0009775162 0.9999995 0
vn -0.0009775162 0.9999995 0
vn -0.0009775162 0.9999995 0
vn -0.0009775162 0.9999995 0
vn -0.0009775162 0.9999995 0
vn -0.0009775162 0.9999995 0
vn -0.0009775162 0.9999995 0
vn -0.0009775162 0.9999995 0
vn -0.0009775162 0.0009775162 0.999999
vn -0.0009775162 0.0009775162 0.999999
vn -0.0009775162 0.0009775162 0.999999
vn -0.0009775162 0.0009775162 0.999999
vn -0.0009775162 0.0009775162 0.999999
vn -0.0009775162 0.0009775162 0.999999
vn -0.0009775162 0.0009775162 0.999999
vn -0.0009775162 0.0009775162 0.999999
vn -0.0009775162 0.0009775162 0.999999
vn -0.0009775162 0.0009775162 0.999999
vn -0.0009775162 0.0009775162 0.999999
vn -0.0009775162 0.0009775162 0.999999
vn 0.9999995 0.0009775162 0
vn 0.9999995 0.0009775162 0
vn 0.9999995 0.0009775162 0
vn 0.9999995 0.0009775162 0
vn -0.0009775162 0.0009775162 -0.999999
vn -0.0009775162 0.0009775162 -0.999999
vn -0.0009775162 0.0009775162 -0.999999
vn -0.0009775162 0.0009775162 -0.999999
vn -0.9999995 0.0009775162 0
vn -0.9999995 0.0009775162 0
vn -0.9999995 0.0009775162 0
vn -0.9999995 0.0009775162 0
vn -0.9999995 0.0009775162 0
vn -0.9999995 0.0009775162 0
vn -0.9999995 0.0009775162 0
vn -0.9999995 0.0009775162 0
vn -0.9999995 0.0009775162 0
vn -0.0009775162 0.0009775162 0.999999
vn -0.0009775162 0.0009775162 0.999999
vn -0.0009775162 0.0009775162 0.999999
vn -0.0009775162 0.0009775162 0.999999
vn 0.9999995 0.0009775162 0
vn 0.9999995 0.0009775162 0
vn 0.9999995 0.0009775162 0
vn 0.9999995 0.0009775162 0
vn 0.9999995 0.0009775162 0
vn 0.9999995 0.0009775162 0
vn 0.9999995 0.0009775162 0
vn 0.9999995 0.0009775162 0
vn 0.9999995 0.0009775162 0
vn 0.9999995 0.0009775162 0
g Tile_Campaign4.001_0
f 3/3/3 2/2/2 1/1/1
f 1/1/1 2/2/2 4/4/4
f 4/4/4 2/2/2 5/5/5
f 6/6/6 5/5/5 2/2/2
f 7/7/7 5/5/5 6/6/6
f 8/8/8 7/7/7 6/6/6
f 11/11/11 10/10/10 9/9/9
f 10/10/10 11/11/11 12/12/12
f 15/15/15 14/14/14 13/13/13
f 13/13/13 14/14/14 16/16/16
f 16/16/16 14/14/14 17/17/17
f 18/18/18 17/17/17 14/14/14
f 19/19/19 17/17/17 18/18/18
f 20/20/20 19/19/19 18/18/18
f 23/23/23 22/22/22 21/21/21
f 22/22/22 23/23/23 24/24/24
f 27/27/27 26/26/26 25/25/25
f 25/25/25 26/26/26 28/28/28
f 29/29/29 25/25/25 28/28/28
f 30/30/30 25/25/25 29/29/29
f 31/31/31 30/30/30 26/26/26
f 28/28/28 26/26/26 32/32/32
f 26/26/26 30/30/30 32/32/32
f 35/35/35 34/34/34 33/33/33
f 34/34/34 35/35/35 36/36/36
f 39/39/39 38/38/38 37/37/37
f 38/38/38 39/39/39 40/40/40
f 43/43/43 42/42/42 41/41/41
f 42/42/42 44/44/44 41/41/41
f 44/44/44 45/45/45 41/41/41
f 41/41/41 45/45/45 46/46/46
f 47/47/47 46/46/46 42/42/42
f 42/42/42 46/46/46 48/48/48
f 48/48/48 46/46/46 49/49/49
f 49/49/49 46/46/46 45/45/45
f 52/52/52 51/51/51 50/50/50
f 51/51/51 52/52/52 53/53/53
f 56/56/56 55/55/55 54/54/54
f 56/56/56 57/57/57 55/55/55
f 55/55/55 58/58/58 54/54/54
f 54/54/54 58/58/58 59/59/59
f 58/58/58 60/60/60 59/59/59
f 59/59/59 60/60/60 61/61/61
f 60/60/60 62/62/62 61/61/61
f 61/61/61 62/62/62 57/57/57
f 62/62/62 63/63/63 57/57/57
