g tokyo_3018_cafe_glass8
v 0.377456 -5.5 12.25
v 0.377456 -9 6.25
v 0.377456 -9 12.25
v 0.377456 -5.5 6.25
v 0.25 -9 12.25
v 0.25 -5.5 6.25
v 0.25 -5.5 12.25
v 0.25 -9 6.25
vt -4.999997 3.500001
vt -8.499996 -2.499999
vt -8.499996 3.500001
vt -4.999997 -2.499999
vt 9.499996 3.500001
vt 5.999997 -2.499999
vt 5.999997 3.500001
vt 9.499996 -2.499999
vn 1 0 0
vn 1 0 0
vn 1 0 0
vn 1 0 0
vn -1 0 0
vn -1 0 0
vn -1 0 0
vn -1 0 0
g tokyo_3018_cafe_glass8_0
f 3/3/3 2/2/2 1/1/1
f 4/4/4 1/1/1 2/2/2
f 7/7/7 6/6/6 5/5/5
f 8/8/8 5/5/5 6/6/6
