g tokyo_3018_pipes001
v -49.94822 -31.49998 9.498413
v -45.25888 -31.49997 9.498405
v -45.25888 -31.49998 7.998396
v -48.45132 -31.49998 7.998407
v -49.94822 -31.49998 7.998404
v -48.45132 -31.49998 7.998404
v -45.25888 -31.49997 9.498405
v -49.94822 -31.49998 9.498413
v -49.94822 -29.99998 9.498413
v -45.25888 -29.99997 9.498405
v -48.45132 -31.49998 7.998407
v -45.25888 -31.49998 7.998396
v -45.25888 -29.99998 7.998396
v -48.45132 -29.99998 7.998406
v -49.94822 -31.49998 7.998404
v -49.94822 -31.49998 -11.25116
v -49.94822 -29.99998 -11.25116
v -49.94822 -29.99998 7.998405
v -48.45132 -31.49998 7.998404
v -48.45132 -31.49998 7.998407
v -48.45132 -29.99998 7.998406
v -48.45132 -31.49998 7.998404
v -48.45132 -29.99998 7.998406
v -48.45132 -29.99998 7.998403
v -48.45132 -31.49998 -11.25116
v -48.45132 -29.99998 -11.25116
v -45.25888 -31.49998 7.998396
v -45.25888 -31.49997 9.498405
v -45.25888 -29.99997 9.498405
v -45.25888 -29.99998 7.998396
v -49.94822 -31.49998 -11.25116
v -49.94822 -31.49998 7.998404
v -48.45132 -31.49998 7.998404
v -48.45132 -31.49998 -11.25116
v -49.94822 -31.49998 9.498413
v -49.94822 -31.49998 7.998404
v -49.94822 -29.99998 7.998405
v -49.94822 -29.99998 9.498413
vt 0.5986328 0.9560097
vt 0.6455078 0.9560097
vt 0.6455078 0.9716347
vt 0.6136328 0.9716347
vt 0.5986328 0.9716347
vt 0.6136328 0.9716347
vt 0.6445313 0.9560097
vt 0.5986328 0.9560097
vt 0.5986328 0.9716347
vt 0.6445313 0.9716347
vt 0.5976563 0.9560097
vt 0.6298828 0.9560097
vt 0.6298828 0.9716347
vt 0.5976563 0.9716347
vt 0.5986328 0.9560097
vt 0.7997233 0.9560097
vt 0.7997233 0.9716347
vt 0.5986328 0.9716347
vt 0.5986329 0.9560097
vt 0.5986328 0.9560097
vt 0.5986328 0.9716347
vt 0.5986329 0.9560097
vt 0.5986328 0.9716347
vt 0.5986329 0.9716347
vt 0.8017824 0.9560097
vt 0.8017824 0.9716347
vt 0.5986328 0.9716797
vt 0.5986329 0.9560097
vt 0.6142579 0.9560097
vt 0.6142578 0.9716796
vt 0.7964001 0.9716051
vt 0.5986328 0.9716325
vt 0.5986398 0.9560097
vt 0.7964072 0.9561018
vt 0.5986328 0.9560097
vt 0.6143026 0.9560097
vt 0.6143026 0.9716347
vt 0.5986328 0.9716347
vn 0 -1 0
vn 0 -1 0
vn 0 -1 0
vn 0 -1 0
vn 0 -1 0
vn 0 -1 0
vn 0 0 1
vn 0 0 1
vn 0 0 1
vn 0 0 1
vn 0 0 -1
vn 0 0 -1
vn 0 0 -1
vn 0 0 -1
vn -1 0 0
vn -1 0 0
vn -1 0 0
vn -1 0 0
vn 1 0 0
vn 1 0 0
vn 1 0 0
vn 1 0 0
vn 1 0 0
vn 1 0 0
vn 1 0 0
vn 1 0 0
vn 1 0 0
vn 1 0 0
vn 1 0 0
vn 1 0 0
vn 0 -1 0
vn 0 -1 0
vn 0 -1 0
vn 0 -1 0
vn -1 0 0
vn -1 0 0
vn -1 0 0
vn -1 0 0
g tokyo_3018_pipes001_0
f 3/3/3 2/2/2 1/1/1
f 4/4/4 3/3/3 1/1/1
f 4/4/4 1/1/1 5/5/5
f 6/6/6 4/4/4 5/5/5
f 9/9/9 8/8/8 7/7/7
f 10/10/10 9/9/9 7/7/7
f 13/13/13 12/12/12 11/11/11
f 14/14/14 13/13/13 11/11/11
f 17/17/17 16/16/16 15/15/15
f 18/18/18 17/17/17 15/15/15
f 21/21/21 20/20/20 19/19/19
f 24/24/24 23/23/23 22/22/22
f 24/24/24 22/22/22 25/25/25
f 26/26/26 24/24/24 25/25/25
f 29/29/29 28/28/28 27/27/27
f 30/30/30 29/29/29 27/27/27
f 33/33/33 32/32/32 31/31/31
f 34/34/34 33/33/33 31/31/31
f 37/37/37 36/36/36 35/35/35
f 38/38/38 37/37/37 35/35/35
