g tokyo_3018_cafe_glass5
v 5.25 9.622542 12.25
v 7.75 9.622542 6.25
v 5.25 9.622542 6.249999
v 7.75 9.622542 12.25
v 7.75 9.749998 12.25
v 5.25 9.749998 6.249999
v 7.75 9.749998 6.25
v 5.25 9.749998 12.25
vt -6.874998 3.499999
vt -4.374998 -2.499999
vt -6.874998 -2.5
vt -4.374998 3.500001
vt 5.374998 3.500001
vt 7.874998 -2.5
vt 5.374998 -2.499999
vt 7.874998 3.499999
vn 0 -1 0
vn 0 -1 0
vn 0 -1 0
vn 0 -1 0
vn 0 1 0
vn 0 1 0
vn 0 1 0
vn 0 1 0
g tokyo_3018_cafe_glass5_0
f 3/3/3 2/2/2 1/1/1
f 4/4/4 1/1/1 2/2/2
f 7/7/7 6/6/6 5/5/5
f 8/8/8 5/5/5 6/6/6
