g tokyo_3018_wire01
v 44.21622 -34.58974 1.021477
v 45.25667 -36.03071 1.021477
v 44.11789 -34.65502 1.021477
v 45.34301 -35.94737 1.021477
v 45.34301 -35.94737 1.021477
v 47.54998 -36.75664 1.021477
v 45.25667 -36.03071 1.021477
v 47.60518 -36.65009 1.021477
v 47.60518 -36.65009 1.021477
v 49.38676 -36.17529 1.021477
v 47.54998 -36.75664 1.021477
v 49.38083 -36.14695 1.021477
v 44.99165 -31.63147 5.052481
v 44.96669 -31.47912 3.479149
v 44.99303 -31.51073 5.052515
v 44.96192 -31.59896 3.483144
v 44.99303 -31.51073 5.052515
v 46.79371 -29.09782 5.052497
v 44.99165 -31.63147 5.052481
v 46.69883 -29.02435 5.052498
v 46.69883 -29.02435 5.052498
v 48.0132 -25.71666 5.052495
v 46.79371 -29.09782 5.052497
v 47.90775 -25.65937 5.052495
v 49.17812 -26.7702 5.052495
v 51.47981 -25.97315 5.052495
v 49.22743 -26.87959 5.052495
v 51.39618 -25.88709 5.052495
v 51.39618 -25.88709 5.052495
v 52.32485 -24.02286 5.052495
v 51.47981 -25.97315 5.052495
v 52.24614 -23.99076 5.052495
v 44.04638 -32.9746 1.021477
v 44.9901 -31.94137 1.00402
v 44.99349 -32.06076 1.00402
v 43.93333 -32.92881 1.021477
v 44.98446 -31.94242 1.003309
v 44.97951 -32.02795 3.042739
v 44.98569 -32.0615 0.9969015
v 44.97893 -31.90879 3.056846
v 52.07804 -34.70136 1.021464
v 53.05535 -37.81173 1.021464
v 51.9731 -34.75955 1.021464
v 53.16003 -37.75306 1.021464
v 53.16003 -37.75306 1.021464
v 54.4053 -40.43431 1.021464
v 53.05535 -37.81173 1.021464
v 54.49175 -40.35109 1.021464
v 54.49175 -40.35109 1.021464
v 57.88526 -42.76071 1.021464
v 54.4053 -40.43431 1.021464
v 57.91687 -42.64495 1.021464
v 57.91687 -42.64495 1.021464
v 63.04024 -43.97428 1.021464
v 57.88526 -42.76071 1.021464
v 63.14492 -43.91561 1.021464
v 51.9731 -34.75955 1.021464
v 49.92279 -32.7756 1.021464
v 52.07804 -34.70136 1.021464
v 49.83656 -32.85906 1.021464
v 62.86563 -43.67566 1.021464
v 62.84705 -41.47478 1.021464
v 62.97905 -43.63647 1.021464
v 62.73063 -41.4457 1.021464
v 62.73063 -41.4457 1.021464
v 62.90598 -38.5021 1.021464
v 62.84705 -41.47478 1.021464
v 62.8059 -38.56831 1.021464
v 62.8059 -38.56831 1.021464
v 62.35434 -36.77947 1.021464
v 62.90598 -38.5021 1.021464
v 62.23492 -36.76763 1.021464
v 62.23492 -36.76763 1.021464
v 63.39373 -33.90281 1.021463
v 62.35434 -36.77947 1.021464
v 63.27901 -33.86761 1.021463
v 63.27901 -33.86761 1.021463
v 64.62601 -31.21561 1.021463
v 63.39373 -33.90281 1.021463
v 64.51128 -31.18042 1.021463
v 64.51128 -31.18042 1.021463
v 64.61562 -27.33072 1.021463
v 64.62601 -31.21561 1.021463
v 64.49881 -27.35817 1.021463
v 64.49881 -27.35817 1.021463
v 62.43134 -24.22797 1.021463
v 64.61562 -27.33072 1.021463
v 62.31233 -24.24343 1.021463
v 62.31233 -24.24343 1.021463
v 62.6811 -21.2258 1.021463
v 62.43134 -24.22797 1.021463
v 62.5621 -21.24126 1.021463
v 62.5621 -21.24126 1.021463
v 61.02592 -18.73094 1.021463
v 62.6811 -21.2258 1.021463
v 60.90692 -18.7464 1.021463
v 60.90692 -18.7464 1.021463
v 60.94744 -16.37168 1.021463
v 61.02592 -18.73094 1.021463
v 60.82844 -16.38714 1.021463
v 44.04638 -32.9746 1.021477
v 44.11789 -34.65502 1.021477
v 43.93333 -32.92881 1.021477
v 44.21622 -34.58974 1.021477
v 52.24614 -23.99076 5.052495
v 52.32485 -24.02286 5.367371
v 52.32485 -24.02286 5.052495
v 52.24614 -23.99076 5.367371
v 49.22743 -26.87959 5.052495
v 46.89686 -28.81182 5.052495
v 49.17812 -26.7702 5.052495
v 46.81418 -29.04105 5.052495
v 13.86521 -37.69733 5.052498
v 15.21325 -40.67873 5.052496
v 13.76429 -37.745 5.052497
v 15.29424 -40.61013 5.052496
v 16.09988 -43.72063 5.052495
v 15.72642 -46.12763 5.052495
v 15.98012 -43.71299 5.052495
v 15.84162 -46.09403 5.052495
v 15.84162 -46.09403 5.052495
v 17.05402 -47.7875 5.052495
v 15.72642 -46.12763 5.052495
v 17.11924 -47.73298 5.052495
v 17.11924 -47.73298 5.052495
v 17.05402 -47.7875 5.367371
v 17.05402 -47.7875 5.052495
v 17.11924 -47.73298 5.367371
v 15.98012 -43.71299 5.052495
v 15.29424 -40.61013 5.052496
v 16.09988 -43.72063 5.052495
v 15.21325 -40.67873 5.052496
v 14.69347 -36.26721 5.052498
v 11.43813 -36.59683 5.052496
v 14.68039 -36.15636 5.052497
v 11.4774 -36.69543 5.052496
v 8.317534 -36.35867 5.052495
v 11.4774 -36.69543 5.052496
v 8.272192 -36.46977 5.052495
v 11.43813 -36.59683 5.052496
v -4.979448 -33.20857 0.01397209
v -6.90041 -35.8573 0.01396996
v -5.070879 -33.14455 0.01397148
v -6.800679 -35.89364 0.01397026
v -9.102661 -38.13533 0.01396843
v -11.3782 -39.00425 0.01396843
v -9.155386 -38.02753 0.01396843
v -11.29191 -39.08764 0.01396843
v -11.29191 -39.08764 0.01396843
v -12.1616 -40.98011 0.01396843
v -11.3782 -39.00425 0.01396843
v -12.08191 -41.00972 0.01396843
v -12.08191 -41.00972 0.01396843
v -12.1616 -40.98011 0.3288445
v -12.1616 -40.98011 0.01396843
v -12.08191 -41.00972 0.3288445
v -9.155386 -38.02753 0.01396843
v -6.800679 -35.89364 0.01397026
v -9.102661 -38.13533 0.01396843
v -6.90041 -35.8573 0.01396996
v -5.278857 -32.56244 0.01397179
v -8.549102 -32.4554 0.01396965
v -5.277056 -32.45084 0.01397118
v -8.523315 -32.55836 0.01396996
v -11.37175 -32.56244 0.01397179
v -14.64199 -32.4554 0.01396965
v -11.36995 -32.45084 0.01397118
v -14.61621 -32.55836 0.01396996
vt 0.7378618 0.7498729
vt 0.7126115 0.7528714
vt 0.7380306 0.7528714
vt 0.7126115 0.7498729
vt 0.7458179 0.7498729
vt 0.7126115 0.7528714
vt 0.746591 0.7528714
vt 0.7126115 0.7498729
vt 0.750744 0.7498729
vt 0.7126115 0.7528714
vt 0.7503583 0.7528714
vt 0.7126115 0.7498729
vt 0.7126115 0.7528714
vt 0.7388051 0.7498729
vt 0.7126115 0.7498729
vt 0.7391481 0.7528714
vt 0.7646762 0.7498729
vt 0.7126115 0.7528714
vt 0.7647859 0.7528714
vt 0.7126115 0.7498729
vt 0.7564536 0.7498729
vt 0.7126115 0.7528714
vt 0.7566769 0.7528714
vt 0.7126115 0.7498729
vt 0.7466839 0.7498729
vt 0.7126115 0.7528714
vt 0.746612 0.7528714
vt 0.7126115 0.7498729
vt 0.7448696 0.7498729
vt 0.7126115 0.7528714
vt 0.7454315 0.7528714
vt 0.7126115 0.7498729
vt 0.7126115 0.7498729
vt 0.7311578 0.7528714
vt 0.7313669 0.7498729
vt 0.7126115 0.7528714
vt 0.7415841 0.7498729
vt 0.7126115 0.7528714
vt 0.7417777 0.7528714
vt 0.7126115 0.7498729
vt 0.757765 0.7498729
vt 0.7126115 0.7528714
vt 0.7574993 0.7528714
vt 0.7126115 0.7498729
vt 0.7126115 0.7528714
vt 0.7536982 0.7498729
vt 0.7126115 0.7498729
vt 0.7532111 0.7528714
vt 0.7700278 0.7498729
vt 0.7126115 0.7528714
vt 0.770394 0.7528714
vt 0.7126115 0.7498729
vt 0.78627 0.7498729
vt 0.7126115 0.7528714
vt 0.7863271 0.7528714
vt 0.7126115 0.7498729
vt 0.7524095 0.7498729
vt 0.7126115 0.7528714
vt 0.7529433 0.7528714
vt 0.7126115 0.7498729
vt 0.7440076 0.7498729
vt 0.7126115 0.7528714
vt 0.743575 0.7528714
vt 0.7126115 0.7498729
vt 0.7126115 0.7528714
vt 0.753938 0.7498729
vt 0.7126115 0.7498729
vt 0.753022 0.7528714
vt 0.739373 0.7498729
vt 0.7126115 0.7528714
vt 0.7389358 0.7528714
vt 0.7126115 0.7498729
vt 0.7126115 0.7528714
vt 0.7554978 0.7498729
vt 0.7126115 0.7498729
vt 0.7553976 0.7528714
vt 0.7126115 0.7528714
vt 0.7583734 0.7498729
vt 0.7126115 0.7498729
vt 0.7578857 0.7528714
vt 0.7657076 0.7498729
vt 0.7126115 0.7528714
vt 0.7661844 0.7528714
vt 0.7126115 0.7498729
vt 0.7703718 0.7498729
vt 0.7126115 0.7528714
vt 0.7711498 0.7528714
vt 0.7126115 0.7498729
vt 0.7126115 0.7528714
vt 0.7548051 0.7498729
vt 0.7126115 0.7498729
vt 0.7544656 0.7528714
vt 0.7126115 0.7528714
vt 0.7542162 0.7498729
vt 0.7126115 0.7498729
vt 0.7549269 0.7528714
vt 0.7458763 0.7498729
vt 0.7126115 0.7528714
vt 0.7457057 0.7528714
vt 0.7126115 0.7498729
vt 0.7385819 0.7498729
vt 0.7126115 0.7528714
vt 0.7384021 0.7528714
vt 0.7126115 0.7498729
vt 0.7126115 0.7498729
vt 0.7126115 0.7528714
vt 0.7126115 0.7528714
vt 0.7126115 0.7498729
vt 0.7126115 0.7528714
vt 0.7552111 0.7498729
vt 0.7126115 0.7498729
vt 0.758441 0.7528714
vt 0.7646762 0.7498729
vt 0.7126115 0.7528714
vt 0.7647859 0.7528714
vt 0.7126115 0.7498729
vt 0.7466839 0.7498729
vt 0.7126115 0.7528714
vt 0.746612 0.7528714
vt 0.7126115 0.7498729
vt 0.7448696 0.7498729
vt 0.7126115 0.7528714
vt 0.7454315 0.7528714
vt 0.7126115 0.7498729
vt 0.7126115 0.7498729
vt 0.7126115 0.7528714
vt 0.7126115 0.7528714
vt 0.7126115 0.7498729
vt 0.7126115 0.7528714
vt 0.7545748 0.7498729
vt 0.7126115 0.7498729
vt 0.7547133 0.7528714
vt 0.7646762 0.7498729
vt 0.7126115 0.7528714
vt 0.7647859 0.7528714
vt 0.7126115 0.7498729
vt 0.7126115 0.7528714
vt 0.7545748 0.7498729
vt 0.7126115 0.7498729
vt 0.7547133 0.7528714
vt 0.7646762 0.7498729
vt 0.7126115 0.7528714
vt 0.7647859 0.7528714
vt 0.7126115 0.7498729
vt 0.7466839 0.7498729
vt 0.7126115 0.7528714
vt 0.746612 0.7528714
vt 0.7126115 0.7498729
vt 0.7448696 0.7498729
vt 0.7126115 0.7528714
vt 0.7454315 0.7528714
vt 0.7126115 0.7498729
vt 0.7126115 0.7498729
vt 0.7126115 0.7528714
vt 0.7126115 0.7528714
vt 0.7126115 0.7498729
vt 0.7126115 0.7528714
vt 0.7545748 0.7498729
vt 0.7126115 0.7498729
vt 0.7547133 0.7528714
vt 0.7646762 0.7498729
vt 0.7126115 0.7528714
vt 0.7647859 0.7528714
vt 0.7126115 0.7498729
vt 0.7646762 0.7498729
vt 0.7126115 0.7528714
vt 0.7647859 0.7528714
vt 0.7126115 0.7498729
vn 0 0 1
vn 0 0 1
vn 0 0 1
vn 0 0 1
vn 0 0 1
vn 0 0 1
vn 0 0 1
vn 0 0 1
vn 0 0 1
vn 0 0 1
vn 0 0 1
vn 0 0 1
vn -0.9994949 0.0259337 0.01836519
vn -0.9994949 0.0259337 0.01836519
vn -0.9997907 0.01143667 0.01696606
vn -0.9989871 0.04042524 0.01976043
vn 0.0001994807 -0.0001417842 1
vn 0.0001348455 -9.489218E-05 1
vn 0.0003914085 -0.0002850146 0.9999999
vn 4.540844E-06 0 1
vn 4.540844E-06 0 1
vn 0 0 1
vn 0.0001348455 -9.489218E-05 1
vn 0 0 1
vn 0 0 1
vn 0 0 1
vn 0 0 1
vn 0 0 1
vn 0 0 1
vn 0 0 1
vn 0 0 1
vn 0 0 1
vn 0.005732789 0.003210697 0.9999784
vn 0.01146589 0.006421438 0.9999137
vn 0.01793616 0.0005104535 0.9998389
vn 0.002497072 0.006166064 0.9999779
vn -0.999969 -0.007393308 -0.002735315
vn -0.999969 -0.007393308 -0.002735315
vn -0.9999437 -0.01022044 -0.002853818
vn -0.9999862 -0.00456612 -0.00261679
vn 0 0 1
vn 0 0 1
vn 0 0 1
vn 0 0 1
vn 0 0 1
vn 0 0 1
vn 0 0 1
vn 0 0 1
vn 0 0 1
vn 0 0 1
vn 0 0 1
vn 0 0 1
vn 0 0 1
vn 0 0 1
vn 0 0 1
vn 0 0 1
vn 0 0 1
vn 0 0 1
vn 0 0 1
vn 0 0 1
vn 0 0 1
vn 0 0 1
vn 0 0 1
vn 0 0 1
vn 0 0 1
vn 0 0 1
vn 0 0 1
vn 0 0 1
vn 0 0 1
vn 0 0 1
vn 0 0 1
vn 0 0 1
vn 0 0 1
vn 0 0 1
vn 0 0 1
vn 0 0 1
vn 0 0 1
vn 0 0 1
vn 0 0 1
vn 0 0 1
vn 0 0 1
vn 0 0 1
vn 0 0 1
vn 0 0 1
vn 0 0 1
vn 0 0 1
vn 0 0 1
vn 0 0 1
vn 0 0 1
vn 0 0 1
vn 0 0 1
vn 0 0 1
vn 0 0 1
vn 0 0 1
vn 0 0 1
vn 0 0 1
vn 0 0 1
vn 0 0 1
vn 0 0 1
vn 0 0 1
vn 0.005732789 0.003210697 0.9999784
vn 0 0 1
vn 0.002497072 0.006166064 0.9999779
vn 0 0 1
vn -0.3776462 -0.9259499 0
vn -0.3776462 -0.9259499 0
vn -0.3776462 -0.9259499 0
vn -0.3776462 -0.9259499 0
vn 0 0 1
vn 0 0 1
vn 0 0 1
vn 0 0 1
vn 0 0 1
vn 0 0 1
vn 0 0 1
vn 0 0 1
vn 0 0 1
vn 0 0 1
vn 0 0 1
vn 0 0 1
vn 0 0 1
vn 0 0 1
vn 0 0 1
vn 0 0 1
vn -0.6413758 0.7672269 0
vn -0.6413758 0.7672269 0
vn -0.6413758 0.7672269 0
vn -0.6413758 0.7672269 0
vn 0 0 1
vn 0 0 1
vn 0 0 1
vn 0 0 1
vn 0 0 1
vn 0 3.693188E-06 1
vn 0 0 1
vn 0 0 1
vn 0 0 1
vn 0 0 1
vn 0 0 1
vn 0 3.693188E-06 1
vn 0 0 1
vn 0 0 1
vn 0 0 1
vn 0 0 1
vn 0 0 1
vn 0 0 1
vn 0 0 1
vn 0 0 1
vn 0 0 1
vn 0 0 1
vn 0 0 1
vn 0 0 1
vn 0.3483524 0.9373637 0
vn 0.3483524 0.9373637 0
vn 0.3483524 0.9373637 0
vn 0.3483524 0.9373637 0
vn 0 0 1
vn 0 0 1
vn 0 0 1
vn 0 0 1
vn 0 0 1
vn 0 0 1
vn 0 0 1
vn 0 0 1
vn 0 0 1
vn 0 0 1
vn 0 0 1
vn 0 0 1
g tokyo_3018_wire01_0
f 3/3/3 2/2/2 1/1/1
f 4/4/4 1/1/1 2/2/2
f 7/7/7 6/6/6 5/5/5
f 8/8/8 5/5/5 6/6/6
f 11/11/11 10/10/10 9/9/9
f 12/12/12 9/9/9 10/10/10
f 15/15/15 14/14/14 13/13/13
f 16/16/16 13/13/13 14/14/14
f 19/19/19 18/18/18 17/17/17
f 20/20/20 17/17/17 18/18/18
f 23/23/23 22/22/22 21/21/21
f 24/24/24 21/21/21 22/22/22
f 27/27/27 26/26/26 25/25/25
f 28/28/28 25/25/25 26/26/26
f 31/31/31 30/30/30 29/29/29
f 32/32/32 29/29/29 30/30/30
f 35/35/35 34/34/34 33/33/33
f 36/36/36 33/33/33 34/34/34
f 39/39/39 38/38/38 37/37/37
f 40/40/40 37/37/37 38/38/38
f 43/43/43 42/42/42 41/41/41
f 44/44/44 41/41/41 42/42/42
f 47/47/47 46/46/46 45/45/45
f 48/48/48 45/45/45 46/46/46
f 51/51/51 50/50/50 49/49/49
f 52/52/52 49/49/49 50/50/50
f 55/55/55 54/54/54 53/53/53
f 56/56/56 53/53/53 54/54/54
f 59/59/59 58/58/58 57/57/57
f 60/60/60 57/57/57 58/58/58
f 63/63/63 62/62/62 61/61/61
f 64/64/64 61/61/61 62/62/62
f 67/67/67 66/66/66 65/65/65
f 68/68/68 65/65/65 66/66/66
f 71/71/71 70/70/70 69/69/69
f 72/72/72 69/69/69 70/70/70
f 75/75/75 74/74/74 73/73/73
f 76/76/76 73/73/73 74/74/74
f 79/79/79 78/78/78 77/77/77
f 80/80/80 77/77/77 78/78/78
f 83/83/83 82/82/82 81/81/81
f 84/84/84 81/81/81 82/82/82
f 87/87/87 86/86/86 85/85/85
f 88/88/88 85/85/85 86/86/86
f 91/91/91 90/90/90 89/89/89
f 92/92/92 89/89/89 90/90/90
f 95/95/95 94/94/94 93/93/93
f 96/96/96 93/93/93 94/94/94
f 99/99/99 98/98/98 97/97/97
f 100/100/100 97/97/97 98/98/98
f 103/103/103 102/102/102 101/101/101
f 104/104/104 101/101/101 102/102/102
f 107/107/107 106/106/106 105/105/105
f 108/108/108 105/105/105 106/106/106
f 111/111/111 110/110/110 109/109/109
f 112/112/112 109/109/109 110/110/110
f 115/115/115 114/114/114 113/113/113
f 116/116/116 113/113/113 114/114/114
f 119/119/119 118/118/118 117/117/117
f 120/120/120 117/117/117 118/118/118
f 123/123/123 122/122/122 121/121/121
f 124/124/124 121/121/121 122/122/122
f 127/127/127 126/126/126 125/125/125
f 128/128/128 125/125/125 126/126/126
f 131/131/131 130/130/130 129/129/129
f 132/132/132 129/129/129 130/130/130
f 135/135/135 134/134/134 133/133/133
f 136/136/136 133/133/133 134/134/134
f 139/139/139 138/138/138 137/137/137
f 140/140/140 137/137/137 138/138/138
f 143/143/143 142/142/142 141/141/141
f 144/144/144 141/141/141 142/142/142
f 147/147/147 146/146/146 145/145/145
f 148/148/148 145/145/145 146/146/146
f 151/151/151 150/150/150 149/149/149
f 152/152/152 149/149/149 150/150/150
f 155/155/155 154/154/154 153/153/153
f 156/156/156 153/153/153 154/154/154
f 159/159/159 158/158/158 157/157/157
f 160/160/160 157/157/157 158/158/158
f 163/163/163 162/162/162 161/161/161
f 164/164/164 161/161/161 162/162/162
f 167/167/167 166/166/166 165/165/165
f 168/168/168 165/165/165 166/166/166
