g tokyo_3018_ad_plane
v 30.05612 -3.187499 1.150332
v 30.05612 -3.187499 3.150332
v 30.05612 3.187501 3.150332
v 30.05612 3.187501 1.150332
v 30.05612 -3.187499 1.150332
v 30.05612 3.187501 1.150332
v 29.99362 3.187501 1.150332
v 29.99362 -3.187499 1.150332
v 30.05612 -3.187499 3.150332
v 30.05612 -3.187499 1.150332
v 29.99362 -3.187499 1.150332
v 29.99362 -3.187499 3.150332
v 30.05612 3.187501 1.150332
v 30.05612 3.187501 3.150332
v 29.99362 3.187501 3.150332
v 29.99362 3.187501 1.150332
v 30.05612 3.187501 3.150332
v 30.05612 -3.187499 3.150332
v 29.99362 -3.187499 3.150332
v 29.99362 3.187501 3.150332
vt 0.34375 0.2441407
vt 0.375 0.2441407
vt 0.375 0.1445313
vt 0.34375 0.1445313
vt 0.34375 0.2441407
vt 0.34375 0.1445313
vt 0.3427734 0.1445313
vt 0.3427734 0.2441407
vt 0.375 0.2441407
vt 0.34375 0.2441407
vt 0.34375 0.2451172
vt 0.375 0.2451172
vt 0.34375 0.1445313
vt 0.375 0.1445313
vt 0.375 0.1435547
vt 0.34375 0.1435547
vt 0.375 0.1445313
vt 0.375 0.2441407
vt 0.3759766 0.2441407
vt 0.3759766 0.1445313
vn 1 0 0
vn 1 0 0
vn 1 0 0
vn 1 0 0
vn 0 0 -1
vn 0 0 -1
vn 0 0 -1
vn 0 0 -1
vn 0 -1 0
vn 0 -1 0
vn 0 -1 0
vn 0 -1 0
vn 0 1 0
vn 0 1 0
vn 0 1 0
vn 0 1 0
vn 0 0 1
vn 0 0 1
vn 0 0 1
vn 0 0 1
g tokyo_3018_ad_plane_0
f 3/3/3 2/2/2 1/1/1
f 4/4/4 3/3/3 1/1/1
f 7/7/7 6/6/6 5/5/5
f 8/8/8 7/7/7 5/5/5
f 11/11/11 10/10/10 9/9/9
f 12/12/12 11/11/11 9/9/9
f 15/15/15 14/14/14 13/13/13
f 16/16/16 15/15/15 13/13/13
f 19/19/19 18/18/18 17/17/17
f 20/20/20 19/19/19 17/17/17
