g tokyo_3018_Low_02
v 66.72771 -99.14922 13.368
v 66.72771 -99.14921 46.632
v 38.7901 -99.14921 46.632
v 38.7901 -99.14922 13.368
v 61.7277 -99.14922 -51.632
v 61.7277 -99.14921 -18.368
v 38.7901 -99.14921 -18.368
v 38.7901 -99.14922 -51.632
v 66.72771 -259.4132 46.63201
v 38.7901 -259.4132 46.63201
v 38.7901 -99.14921 46.632
v 66.72771 -99.14921 46.632
v 66.72771 -259.4132 13.36801
v 66.72771 -259.4132 46.63201
v 66.72771 -99.14921 46.632
v 66.72771 -99.14922 13.368
v 38.7901 -259.4132 13.36801
v 66.72771 -259.4132 13.36801
v 66.72771 -99.14922 13.368
v 38.7901 -99.14922 13.368
v 38.7901 -259.4132 46.63201
v 38.7901 -259.4132 13.36801
v 38.7901 -99.14922 13.368
v 38.7901 -99.14921 46.632
v 61.7277 -259.4132 -18.36799
v 38.7901 -259.4132 -18.36799
v 38.7901 -99.14921 -18.368
v 61.7277 -99.14921 -18.368
v 61.7277 -259.4132 -51.63198
v 61.7277 -259.4132 -18.36799
v 61.7277 -99.14921 -18.368
v 61.7277 -99.14922 -51.632
v 38.7901 -259.4132 -51.63198
v 61.7277 -259.4132 -51.63198
v 61.7277 -99.14922 -51.632
v 38.7901 -99.14922 -51.632
v 38.7901 -259.4132 -18.36799
v 38.7901 -259.4132 -51.63198
v 38.7901 -99.14922 -51.632
v 38.7901 -99.14921 -18.368
v 31.72771 -99.14922 -51.632
v 31.72771 -99.14921 -9.367996
v -31.2099 -99.14921 -9.367996
v -31.2099 -99.14922 -51.632
v 31.72771 -259.4132 -9.36799
v -31.2099 -259.4132 -9.36799
v -31.2099 -99.14921 -9.367996
v 31.72771 -99.14921 -9.367996
v 31.72771 -259.4132 -51.63198
v 31.72771 -259.4132 -9.36799
v 31.72771 -99.14921 -9.367996
v 31.72771 -99.14922 -51.632
v -31.2099 -259.4132 -51.63198
v 31.72771 -259.4132 -51.63198
v 31.72771 -99.14922 -51.632
v -31.2099 -99.14922 -51.632
v -31.2099 -259.4132 -9.36799
v -31.2099 -259.4132 -51.63198
v -31.2099 -99.14922 -51.632
v -31.2099 -99.14921 -9.367996
v 31.72771 -99.14922 9.368005
v 31.72771 -99.14921 50.632
v -26.2099 -99.14921 50.632
v -26.2099 -99.14922 9.368005
v 31.72771 -259.4132 50.63201
v -26.2099 -259.4132 50.63201
v -26.2099 -99.14921 50.632
v 31.72771 -99.14921 50.632
v 31.72771 -259.4132 9.368011
v 31.72771 -259.4132 50.63201
v 31.72771 -99.14921 50.632
v 31.72771 -99.14922 9.368005
v -26.2099 -259.4132 9.368011
v 31.72771 -259.4132 9.368011
v 31.72771 -99.14922 9.368005
v -26.2099 -99.14922 9.368005
v -26.2099 -259.4132 50.63201
v -26.2099 -259.4132 9.368011
v -26.2099 -99.14922 9.368005
v -26.2099 -99.14921 50.632
v -28.27229 -99.14922 13.368
v -28.27229 -99.14921 36.632
v -56.2099 -99.14921 36.632
v -56.2099 -99.14922 13.368
v -28.27229 -259.4132 36.63201
v -56.2099 -259.4132 36.63201
v -56.2099 -99.14921 36.632
v -28.27229 -99.14921 36.632
v -28.27229 -259.4132 13.36801
v -28.27229 -259.4132 36.63201
v -28.27229 -99.14921 36.632
v -28.27229 -99.14922 13.368
v -56.2099 -259.4132 13.36801
v -28.27229 -259.4132 13.36801
v -28.27229 -99.14922 13.368
v -56.2099 -99.14922 13.368
v -56.2099 -259.4132 36.63201
v -56.2099 -259.4132 13.36801
v -56.2099 -99.14922 13.368
v -56.2099 -99.14921 36.632
v -39.27229 -99.14922 -40.632
v -39.27229 -99.14921 -13.368
v -56.2099 -99.14921 -13.368
v -56.2099 -99.14922 -40.632
v -39.27229 -259.4132 -13.36799
v -56.2099 -259.4132 -13.36799
v -56.2099 -99.14921 -13.368
v -39.27229 -99.14921 -13.368
v -39.27229 -259.4132 -40.63199
v -39.27229 -259.4132 -13.36799
v -39.27229 -99.14921 -13.368
v -39.27229 -99.14922 -40.632
v -56.2099 -259.4132 -40.63199
v -39.27229 -259.4132 -40.63199
v -39.27229 -99.14922 -40.632
v -56.2099 -99.14922 -40.632
v -56.2099 -259.4132 -13.36799
v -56.2099 -259.4132 -40.63199
v -56.2099 -99.14922 -40.632
v -56.2099 -99.14921 -13.368
vt 1 0.9162042
vt 1 0.9162042
vt 0.7727498 0.9162042
vt 0.7727498 0.9162042
vt 0.9593289 0.9162042
vt 0.9593289 0.9162042
vt 0.7727498 0.9162042
vt 0.7727498 0.9162042
vt 0.9999997 0.08379561
vt 0.7727495 0.08379573
vt 0.7727498 0.9162042
vt 1 0.9162042
vt 0.9999997 0.08379561
vt 0.9999997 0.08379561
vt 1 0.9162042
vt 1 0.9162042
vt 0.7727495 0.08379573
vt 0.9999997 0.08379561
vt 1 0.9162042
vt 0.7727498 0.9162042
vt 0.7727495 0.08379573
vt 0.7727495 0.08379573
vt 0.7727498 0.9162042
vt 0.7727498 0.9162042
vt 0.9593287 0.08379561
vt 0.7727495 0.08379573
vt 0.7727498 0.9162042
vt 0.9593289 0.9162042
vt 0.9593287 0.08379561
vt 0.9593287 0.08379561
vt 0.9593289 0.9162042
vt 0.9593289 0.9162042
vt 0.7727495 0.08379573
vt 0.9593287 0.08379561
vt 0.9593289 0.9162042
vt 0.7727498 0.9162042
vt 0.7727495 0.08379573
vt 0.7727495 0.08379573
vt 0.7727498 0.9162042
vt 0.7727498 0.9162042
vt 0.7153028 0.9162042
vt 0.7153028 0.9162042
vt 0.2033555 0.9162043
vt 0.2033555 0.9162043
vt 0.7153025 0.08379573
vt 0.2033552 0.08379573
vt 0.2033555 0.9162043
vt 0.7153028 0.9162042
vt 0.7153025 0.08379573
vt 0.7153025 0.08379573
vt 0.7153028 0.9162042
vt 0.7153028 0.9162042
vt 0.2033552 0.08379573
vt 0.7153025 0.08379573
vt 0.7153028 0.9162042
vt 0.2033555 0.9162043
vt 0.2033552 0.08379573
vt 0.2033552 0.08379573
vt 0.2033555 0.9162043
vt 0.2033555 0.9162043
vt 0.7153028 0.9162042
vt 0.7153028 0.9162042
vt 0.2440265 0.9162043
vt 0.2440265 0.9162043
vt 0.7153025 0.08379573
vt 0.2440262 0.08379573
vt 0.2440265 0.9162043
vt 0.7153028 0.9162042
vt 0.7153025 0.08379573
vt 0.7153025 0.08379573
vt 0.7153028 0.9162042
vt 0.7153028 0.9162042
vt 0.2440262 0.08379573
vt 0.7153025 0.08379573
vt 0.7153028 0.9162042
vt 0.2440265 0.9162043
vt 0.2440262 0.08379573
vt 0.2440262 0.08379573
vt 0.2440265 0.9162043
vt 0.2440265 0.9162043
vt 0.2272505 0.9162043
vt 0.2272505 0.9162043
vt 3.278255E-07 0.9162043
vt 3.278255E-07 0.9162043
vt 0.2272502 0.08379573
vt 2.980232E-08 0.08379585
vt 3.278255E-07 0.9162043
vt 0.2272505 0.9162043
vt 0.2272502 0.08379573
vt 0.2272502 0.08379573
vt 0.2272505 0.9162043
vt 0.2272505 0.9162043
vt 2.980232E-08 0.08379585
vt 0.2272502 0.08379573
vt 0.2272505 0.9162043
vt 3.278255E-07 0.9162043
vt 2.980232E-08 0.08379585
vt 2.980232E-08 0.08379585
vt 3.278255E-07 0.9162043
vt 3.278255E-07 0.9162043
vt 0.1377743 0.9162043
vt 0.1377743 0.9162043
vt 3.278255E-07 0.9162043
vt 3.278255E-07 0.9162043
vt 0.137774 0.08379573
vt 2.980232E-08 0.08379585
vt 3.278255E-07 0.9162043
vt 0.1377743 0.9162043
vt 0.137774 0.08379573
vt 0.137774 0.08379573
vt 0.1377743 0.9162043
vt 0.1377743 0.9162043
vt 2.980232E-08 0.08379585
vt 0.137774 0.08379573
vt 0.1377743 0.9162043
vt 3.278255E-07 0.9162043
vt 2.980232E-08 0.08379585
vt 2.980232E-08 0.08379585
vt 3.278255E-07 0.9162043
vt 3.278255E-07 0.9162043
vn 0 1 0
vn 0 1 0
vn 0 1 0
vn 0 1 0
vn 0 1 0
vn 0 1 0
vn 0 1 0
vn 0 1 0
vn 0 0 1
vn 0 0 1
vn 0 0 1
vn 0 0 1
vn 1 0 0
vn 1 0 0
vn 1 0 0
vn 1 0 0
vn 0 0 -1
vn 0 0 -1
vn 0 0 -1
vn 0 0 -1
vn -1 0 0
vn -1 0 0
vn -1 0 0
vn -1 0 0
vn 0 0 1
vn 0 0 1
vn 0 0 1
vn 0 0 1
vn 1 0 0
vn 1 0 0
vn 1 0 0
vn 1 0 0
vn 0 0 -1
vn 0 0 -1
vn 0 0 -1
vn 0 0 -1
vn -1 0 0
vn -1 0 0
vn -1 0 0
vn -1 0 0
vn 0 1 0
vn 0 1 0
vn 0 1 0
vn 0 1 0
vn 0 0 1
vn 0 0 1
vn 0 0 1
vn 0 0 1
vn 1 0 0
vn 1 0 0
vn 1 0 0
vn 1 0 0
vn 0 0 -1
vn 0 0 -1
vn 0 0 -1
vn 0 0 -1
vn -1 0 0
vn -1 0 0
vn -1 0 0
vn -1 0 0
vn 0 1 0
vn 0 1 0
vn 0 1 0
vn 0 1 0
vn 0 0 1
vn 0 0 1
vn 0 0 1
vn 0 0 1
vn 1 0 0
vn 1 0 0
vn 1 0 0
vn 1 0 0
vn 0 0 -1
vn 0 0 -1
vn 0 0 -1
vn 0 0 -1
vn -1 0 0
vn -1 0 0
vn -1 0 0
vn -1 0 0
vn 0 1 0
vn 0 1 0
vn 0 1 0
vn 0 1 0
vn 0 0 1
vn 0 0 1
vn 0 0 1
vn 0 0 1
vn 1 0 0
vn 1 0 0
vn 1 0 0
vn 1 0 0
vn 0 0 -1
vn 0 0 -1
vn 0 0 -1
vn 0 0 -1
vn -1 0 0
vn -1 0 0
vn -1 0 0
vn -1 0 0
vn 0 1 0
vn 0 1 0
vn 0 1 0
vn 0 1 0
vn 0 0 1
vn 0 0 1
vn 0 0 1
vn 0 0 1
vn 1 0 0
vn 1 0 0
vn 1 0 0
vn 1 0 0
vn 0 0 -1
vn 0 0 -1
vn 0 0 -1
vn 0 0 -1
vn -1 0 0
vn -1 0 0
vn -1 0 0
vn -1 0 0
g tokyo_3018_Low_02_0
f 3/3/3 2/2/2 1/1/1
f 4/4/4 3/3/3 1/1/1
f 7/7/7 6/6/6 5/5/5
f 8/8/8 7/7/7 5/5/5
f 11/11/11 10/10/10 9/9/9
f 12/12/12 11/11/11 9/9/9
f 15/15/15 14/14/14 13/13/13
f 16/16/16 15/15/15 13/13/13
f 19/19/19 18/18/18 17/17/17
f 20/20/20 19/19/19 17/17/17
f 23/23/23 22/22/22 21/21/21
f 24/24/24 23/23/23 21/21/21
f 27/27/27 26/26/26 25/25/25
f 28/28/28 27/27/27 25/25/25
f 31/31/31 30/30/30 29/29/29
f 32/32/32 31/31/31 29/29/29
f 35/35/35 34/34/34 33/33/33
f 36/36/36 35/35/35 33/33/33
f 39/39/39 38/38/38 37/37/37
f 40/40/40 39/39/39 37/37/37
f 43/43/43 42/42/42 41/41/41
f 44/44/44 43/43/43 41/41/41
f 47/47/47 46/46/46 45/45/45
f 48/48/48 47/47/47 45/45/45
f 51/51/51 50/50/50 49/49/49
f 52/52/52 51/51/51 49/49/49
f 55/55/55 54/54/54 53/53/53
f 56/56/56 55/55/55 53/53/53
f 59/59/59 58/58/58 57/57/57
f 60/60/60 59/59/59 57/57/57
f 63/63/63 62/62/62 61/61/61
f 64/64/64 63/63/63 61/61/61
f 67/67/67 66/66/66 65/65/65
f 68/68/68 67/67/67 65/65/65
f 71/71/71 70/70/70 69/69/69
f 72/72/72 71/71/71 69/69/69
f 75/75/75 74/74/74 73/73/73
f 76/76/76 75/75/75 73/73/73
f 79/79/79 78/78/78 77/77/77
f 80/80/80 79/79/79 77/77/77
f 83/83/83 82/82/82 81/81/81
f 84/84/84 83/83/83 81/81/81
f 87/87/87 86/86/86 85/85/85
f 88/88/88 87/87/87 85/85/85
f 91/91/91 90/90/90 89/89/89
f 92/92/92 91/91/91 89/89/89
f 95/95/95 94/94/94 93/93/93
f 96/96/96 95/95/95 93/93/93
f 99/99/99 98/98/98 97/97/97
f 100/100/100 99/99/99 97/97/97
f 103/103/103 102/102/102 101/101/101
f 104/104/104 103/103/103 101/101/101
f 107/107/107 106/106/106 105/105/105
f 108/108/108 107/107/107 105/105/105
f 111/111/111 110/110/110 109/109/109
f 112/112/112 111/111/111 109/109/109
f 115/115/115 114/114/114 113/113/113
f 116/116/116 115/115/115 113/113/113
f 119/119/119 118/118/118 117/117/117
f 120/120/120 119/119/119 117/117/117
