g toy_story_plane_propeller_mesh
v -0.0799999 -0.64 0.2000002
v -0.07999999 -0.16 0.2000002
v 0.08000003 -0.16 0.2000002
v 0.08000012 -0.64 0.2000002
v -0.07999999 -0.08000002 0.4000002
v -0.07999999 0.08000001 0.4000002
v 0.08000003 0.08000004 0.4000002
v 0.08000003 -0.07999997 0.4000002
v 0.08000012 -0.64 0.1200003
v 0.08000003 -0.16 0.1200003
v -0.07999999 -0.16 0.1200003
v -0.0799999 -0.64 0.1200003
v 0.1600001 -0.16 0.3200003
v -0.16 -0.16 0.3200003
v -0.16 0.16 0.3200003
v 0.1600001 0.1600001 0.3200003
v -0.16 -0.16 0.3200003
v -0.16 -0.16 2.479553E-07
v -0.16 0.16 2.479553E-07
v -0.16 0.16 0.3200003
v 0.08000003 0.08000004 0.4000002
v -0.07999999 0.08000001 0.4000002
v -0.07999999 0.08000001 0.3200003
v 0.08000003 0.08000004 0.3200003
v 0.08000012 -0.64 0.1200003
v -0.0799999 -0.64 0.1200003
v -0.0799999 -0.64 0.2000002
v 0.08000012 -0.64 0.2000002
v -0.16 -0.16 0.3200003
v 0.1600001 -0.16 0.3200003
v 0.1600001 -0.16 2.479553E-07
v -0.16 -0.16 2.479553E-07
v -0.16 0.16 0.3200003
v -0.16 0.16 2.479553E-07
v 0.1600001 0.1600001 2.479553E-07
v 0.1600001 0.1600001 0.3200003
v -0.07999999 -0.08000002 0.4000002
v -0.07999999 -0.08000002 0.3200003
v -0.07999999 0.08000001 0.3200003
v -0.07999999 0.08000001 0.4000002
v -0.0800001 0.16 0.2000002
v -0.0800001 0.64 0.2000002
v 0.07999993 0.64 0.2000002
v 0.07999993 0.16 0.2000002
v 0.07999993 0.64 0.2000002
v -0.0800001 0.64 0.2000002
v -0.0800001 0.64 0.1200003
v 0.07999993 0.64 0.1200003
v 0.08000003 0.08000004 0.4000002
v 0.08000003 0.08000004 0.3200003
v 0.08000003 -0.07999997 0.3200003
v 0.08000003 -0.07999997 0.4000002
v 0.1600001 0.1600001 0.3200003
v 0.1600001 0.1600001 2.479553E-07
v 0.1600001 -0.16 2.479553E-07
v 0.1600001 -0.16 0.3200003
v 0.08000003 -0.16 0.2000002
v 0.08000003 -0.16 0.1200003
v 0.08000012 -0.64 0.1200003
v 0.08000012 -0.64 0.2000002
v 0.07999993 0.16 0.1200003
v 0.07999993 0.64 0.1200003
v -0.0800001 0.64 0.1200003
v -0.0800001 0.16 0.1200003
v 0.07999993 0.64 0.2000002
v 0.07999993 0.64 0.1200003
v 0.07999993 0.16 0.1200003
v 0.07999993 0.16 0.2000002
v 0.08000003 -0.07999997 0.3200003
v -0.07999999 -0.08000002 0.3200003
v -0.07999999 -0.08000002 0.4000002
v 0.08000003 -0.07999997 0.4000002
v -0.0800001 0.16 0.2000002
v -0.0800001 0.16 0.1200003
v -0.0800001 0.64 0.1200003
v -0.0800001 0.64 0.2000002
v -0.0799999 -0.64 0.2000002
v -0.0799999 -0.64 0.1200003
v -0.07999999 -0.16 0.1200003
v -0.07999999 -0.16 0.2000002
vt 0.1416016 0.5214844
vt 0.1230469 0.5214844
vt 0.1230469 0.5283203
vt 0.1416016 0.5283203
vt 0.1259766 0.515625
vt 0.1328125 0.515625
vt 0.1328125 0.5087891
vt 0.1259766 0.5087891
vt 0.0859375 0.5927734
vt 0.1044922 0.5927734
vt 0.1044922 0.5869141
vt 0.0859375 0.5869141
vt 0.03808594 0.4921875
vt 0.03808594 0.5048828
vt 0.05078125 0.5048828
vt 0.05078125 0.4921875
vt 0.06542969 0.5048828
vt 0.06542969 0.4921875
vt 0.05273438 0.4921875
vt 0.05273438 0.5048828
vt 0.004882813 0.5341797
vt 0.004882813 0.5410156
vt 0.0078125 0.5410156
vt 0.0078125 0.5341797
vt 0.001953125 0.5820313
vt 0.001953125 0.5888672
vt 0.004882813 0.5888672
vt 0.004882813 0.5820313
vt 0.002929688 0.5107422
vt 0.015625 0.5107422
vt 0.015625 0.4980469
vt 0.002929688 0.4980469
vt 0.1005859 0.4824219
vt 0.1132813 0.4824219
vt 0.1132813 0.4707031
vt 0.1005859 0.4707031
vt 0.1894531 0.6318359
vt 0.1894531 0.6357422
vt 0.1953125 0.6357422
vt 0.1953125 0.6318359
vt 0.009765625 0.5332031
vt 0.009765625 0.5146484
vt 0.002929688 0.5146484
vt 0.002929688 0.5332031
vt 0.001953125 0.5761719
vt 0.001953125 0.5820313
vt 0.004882813 0.5820313
vt 0.004882813 0.5761719
vt 0.009765625 0.5478516
vt 0.009765625 0.5449219
vt 0.002929688 0.5449219
vt 0.002929688 0.5478516
vt 0.06835938 0.5048828
vt 0.08105469 0.5048828
vt 0.08105469 0.4921875
vt 0.06835938 0.4921875
vt 0.1894531 0.6357422
vt 0.1894531 0.6318359
vt 0.1699219 0.6318359
vt 0.1699219 0.6357422
vt 0.08105469 0.5820313
vt 0.09960938 0.5820313
vt 0.09960938 0.5751953
vt 0.08105469 0.5751953
vt 0.1279297 0.5986328
vt 0.1279297 0.5947266
vt 0.109375 0.5947266
vt 0.109375 0.5986328
vt 0.004882813 0.5751953
vt 0.004882813 0.5693359
vt 0.001953125 0.5693359
vt 0.001953125 0.5751953
vt 0.1787109 0.5996094
vt 0.1816406 0.5996094
vt 0.1816406 0.5810547
vt 0.1787109 0.5810547
vt 0.1835938 0.6113281
vt 0.1865234 0.6113281
vt 0.1865234 0.5917969
vt 0.1835938 0.5917969
vn 0 0 1
vn 0 0 1
vn 0 0 1
vn 0 0 1
vn 0 0 1
vn 0 0 1
vn 0 0 1
vn 0 0 1
vn 0 0 -1
vn 0 0 -1
vn 0 0 -1
vn 0 0 -1
vn 0 0 1
vn 0 0 1
vn 0 0 1
vn 0 0 1
vn -1 0 0
vn -1 0 0
vn -1 0 0
vn -1 0 0
vn 0 1 0
vn 0 1 0
vn 0 1 0
vn 0 1 0
vn 0 -1 0
vn 0 -1 0
vn 0 -1 0
vn 0 -1 0
vn 0 -1 0
vn 0 -1 0
vn 0 -1 0
vn 0 -1 0
vn 0 1 0
vn 0 1 0
vn 0 1 0
vn 0 1 0
vn -1 0 0
vn -1 0 0
vn -1 0 0
vn -1 0 0
vn 0 0 1
vn 0 0 1
vn 0 0 1
vn 0 0 1
vn 0 1 0
vn 0 1 0
vn 0 1 0
vn 0 1 0
vn 1 0 0
vn 1 0 0
vn 1 0 0
vn 1 0 0
vn 1 0 0
vn 1 0 0
vn 1 0 0
vn 1 0 0
vn 1 0 0
vn 1 0 0
vn 1 0 0
vn 1 0 0
vn 0 0 -1
vn 0 0 -1
vn 0 0 -1
vn 0 0 -1
vn 1 0 0
vn 1 0 0
vn 1 0 0
vn 1 0 0
vn 0 -1 0
vn 0 -1 0
vn 0 -1 0
vn 0 -1 0
vn -1 0 0
vn -1 0 0
vn -1 0 0
vn -1 0 0
vn -1 0 0
vn -1 0 0
vn -1 0 0
vn -1 0 0
g toy_story_plane_propeller_mesh_0
f 3/3/3 2/2/2 1/1/1
f 4/4/4 3/3/3 1/1/1
f 7/7/7 6/6/6 5/5/5
f 8/8/8 7/7/7 5/5/5
f 11/11/11 10/10/10 9/9/9
f 12/12/12 11/11/11 9/9/9
f 15/15/15 14/14/14 13/13/13
f 16/16/16 15/15/15 13/13/13
f 19/19/19 18/18/18 17/17/17
f 20/20/20 19/19/19 17/17/17
f 23/23/23 22/22/22 21/21/21
f 24/24/24 23/23/23 21/21/21
f 27/27/27 26/26/26 25/25/25
f 28/28/28 27/27/27 25/25/25
f 31/31/31 30/30/30 29/29/29
f 32/32/32 31/31/31 29/29/29
f 35/35/35 34/34/34 33/33/33
f 36/36/36 35/35/35 33/33/33
f 39/39/39 38/38/38 37/37/37
f 40/40/40 39/39/39 37/37/37
f 43/43/43 42/42/42 41/41/41
f 44/44/44 43/43/43 41/41/41
f 47/47/47 46/46/46 45/45/45
f 48/48/48 47/47/47 45/45/45
f 51/51/51 50/50/50 49/49/49
f 52/52/52 51/51/51 49/49/49
f 55/55/55 54/54/54 53/53/53
f 56/56/56 55/55/55 53/53/53
f 59/59/59 58/58/58 57/57/57
f 60/60/60 59/59/59 57/57/57
f 63/63/63 62/62/62 61/61/61
f 64/64/64 63/63/63 61/61/61
f 67/67/67 66/66/66 65/65/65
f 68/68/68 67/67/67 65/65/65
f 71/71/71 70/70/70 69/69/69
f 72/72/72 71/71/71 69/69/69
f 75/75/75 74/74/74 73/73/73
f 76/76/76 75/75/75 73/73/73
f 79/79/79 78/78/78 77/77/77
f 80/80/80 79/79/79 77/77/77
