g toy_story_wallpic
v 0.0188719 -0.00359478 -0.02058157
v 0.02426387 -0.003594742 -0.02597356
v -0.02426397 -0.00359478 -0.02597356
v -0.01887196 -0.003594799 -0.02058157
v 0.0188719 -0.003594646 0.02058166
v 0.02426387 -0.003594646 0.02597361
v -0.01887196 -0.003594666 0.02058166
v -0.02426397 -0.003594646 0.02597361
v -0.01887196 -0.002019348 -0.02058161
v -0.01887196 -0.002019215 0.02058166
v 0.01887189 -0.002019253 0.02058166
v 0.01887189 -0.002019329 -0.02058161
v -0.02426397 -0.00359478 -0.02597356
v 0.02426387 -0.003594742 -0.02597356
v 0.02426394 -1.144409E-07 -0.0259736
v -0.02426397 -1.144409E-07 -0.0259736
v 0.02426387 -0.003594742 -0.02597356
v 0.02426387 -0.003594646 0.02597361
v 0.02426387 -1.907349E-08 0.02597359
v 0.02426394 -1.144409E-07 -0.0259736
v -0.02426397 -0.003594646 0.02597361
v -0.02426397 3.814697E-08 0.02597359
v 0.02426387 -1.907349E-08 0.02597359
v 0.02426387 -0.003594646 0.02597361
v -0.02426397 -0.00359478 -0.02597356
v -0.02426397 -1.144409E-07 -0.0259736
v -0.02426397 3.814697E-08 0.02597359
v -0.02426397 -0.003594646 0.02597361
v -0.01887196 -0.003594666 0.02058166
v -0.01887196 -0.002019215 0.02058166
v -0.01887196 -0.002019348 -0.02058161
v -0.01887196 -0.003594799 -0.02058157
v -0.01887196 -0.003594666 0.02058166
v 0.0188719 -0.003594646 0.02058166
v 0.01887189 -0.002019253 0.02058166
v -0.01887196 -0.002019215 0.02058166
v 0.0188719 -0.00359478 -0.02058157
v 0.01887189 -0.002019329 -0.02058161
v 0.01887189 -0.002019253 0.02058166
v 0.0188719 -0.003594646 0.02058166
v 0.01887189 -0.002019329 -0.02058161
v 0.0188719 -0.00359478 -0.02058157
v -0.01887196 -0.003594799 -0.02058157
v -0.01887196 -0.002019348 -0.02058161
vt 0.7586131 0.492426
vt 0.7501895 0.5008513
vt 0.8260088 0.5008513
vt 0.8175846 0.492426
vt 0.7586131 0.4281105
vt 0.7501889 0.4196896
vt 0.8175846 0.428111
vt 0.8260088 0.4196896
vt 0.8642578 0.8476563
vt 0.8642578 0.9335938
vt 0.9423828 0.9335938
vt 0.9423828 0.8476563
vt 0.8260088 0.5008513
vt 0.7501895 0.5008513
vt 0.7501895 0.5064689
vt 0.8260093 0.5064689
vt 0.7501895 0.5008513
vt 0.7501889 0.4196896
vt 0.7445719 0.419689
vt 0.7445719 0.5008513
vt 0.8260088 0.4196896
vt 0.8260093 0.414072
vt 0.7501895 0.414072
vt 0.7501889 0.4196896
vt 0.8260088 0.5008513
vt 0.8316258 0.5008513
vt 0.8316258 0.4196896
vt 0.8260088 0.4196896
vt 0.8175846 0.428111
vt 0.8151216 0.4281105
vt 0.8151216 0.492426
vt 0.8175846 0.492426
vt 0.8175846 0.428111
vt 0.7586131 0.4281105
vt 0.7586131 0.430574
vt 0.8175846 0.430574
vt 0.7586131 0.492426
vt 0.7610766 0.492426
vt 0.7610766 0.4281116
vt 0.7586131 0.4281105
vt 0.7586131 0.4899625
vt 0.7586131 0.492426
vt 0.8175846 0.492426
vt 0.8175846 0.4899625
vn 6.632588E-07 -1 -5.306066E-06
vn 6.632589E-07 -1 -5.306066E-06
vn 6.632588E-07 -1 -5.306066E-06
vn 6.632588E-07 -1 -5.306066E-06
vn 3.537394E-06 -1 2.458176E-06
vn 3.537394E-06 -1 2.458176E-06
vn 2.210863E-07 -1 1.768698E-06
vn 2.210863E-07 -1 1.768698E-06
vn -2.526702E-07 -1 2.54849E-06
vn -2.526702E-07 -1 2.54849E-06
vn -2.526702E-07 -1 2.54849E-06
vn -2.526702E-07 -1 2.54849E-06
vn 0 -1.193868E-05 -1
vn 0 -1.193869E-05 -1
vn 0 -1.193869E-05 -1
vn 0 -1.193868E-05 -1
vn 1 -9.285685E-06 6.425659E-07
vn 1 -9.285685E-06 6.425658E-07
vn 1 -9.285685E-06 6.425659E-07
vn 1 -9.285685E-06 6.425659E-07
vn 0 7.959101E-06 1
vn 0 7.959101E-06 1
vn 0 7.959101E-06 1
vn 0 7.959101E-06 1
vn -1 0 0
vn -1 0 0
vn -1 0 0
vn -1 0 0
vn 1 0 0
vn 1 0 0
vn 1 0 0
vn 1 0 0
vn 0 0 -1
vn 0 0 -1
vn 0 0 -1
vn 0 0 -1
vn -1 -6.053452E-06 0
vn -1 -6.053452E-06 0
vn -1 -6.053451E-06 0
vn -1 -6.053452E-06 0
vn 0 2.11867E-05 1
vn 0 2.11867E-05 1
vn 0 2.11867E-05 1
vn 0 2.11867E-05 1
g toy_story_wallpic_0
f 3/3/3 2/2/2 1/1/1
f 4/4/4 3/3/3 1/1/1
f 5/5/5 1/1/1 2/2/2
f 6/6/6 5/5/5 2/2/2
f 5/5/5 6/6/6 7/7/7
f 6/6/6 8/8/8 7/7/7
f 8/8/8 3/3/3 4/4/4
f 7/7/7 8/8/8 4/4/4
f 11/11/11 10/10/10 9/9/9
f 12/12/12 11/11/11 9/9/9
f 15/15/15 14/14/14 13/13/13
f 16/16/16 15/15/15 13/13/13
f 19/19/19 18/18/18 17/17/17
f 20/20/20 19/19/19 17/17/17
f 23/23/23 22/22/22 21/21/21
f 24/24/24 23/23/23 21/21/21
f 27/27/27 26/26/26 25/25/25
f 28/28/28 27/27/27 25/25/25
f 31/31/31 30/30/30 29/29/29
f 32/32/32 31/31/31 29/29/29
f 35/35/35 34/34/34 33/33/33
f 36/36/36 35/35/35 33/33/33
f 39/39/39 38/38/38 37/37/37
f 40/40/40 39/39/39 37/37/37
f 43/43/43 42/42/42 41/41/41
f 44/44/44 43/43/43 41/41/41
