g Training_Wall2
v 13.81453 1.307072E-05 19.11283
v 13.81453 5.000013 19.11282
v -10.98547 1.293541E-05 19.11282
v -10.98547 5.000013 19.11282
v 14.01453 1.296997E-05 19.31283
v -11.18548 1.296997E-05 19.31282
v 14.01453 5.000013 19.31282
v -11.18547 5.000013 19.31282
v 13.81453 5.000013 19.11282
v 14.01453 5.000013 19.31282
v -10.98547 5.000013 19.11282
v -11.18547 5.000013 19.31282
vt -11.9 -2
vt -11.9 3
vt 12.9 -2
vt 12.9 3
vt -12.09999 -2
vt 13.10001 -2
vt -12.09999 3
vt 13.10001 3
vt -11.9 17.9
vt -12.09999 18.10001
vt 12.9 17.9
vt 13.10001 18.1
vn 0 0 -1
vn 0 0 -1
vn 0 0 -1
vn 0 0 -1
vn 0 0 1
vn 0 0 1
vn 0 0 1
vn 0 0 1
vn 0 1 0
vn 0 1 0
vn 0 1 0
vn 0 1 0
g Training_Wall2_0
f 3/3/3 2/2/2 1/1/1
f 4/4/4 2/2/2 3/3/3
f 7/7/7 6/6/6 5/5/5
f 7/7/7 8/8/8 6/6/6
f 11/11/11 10/10/10 9/9/9
f 12/12/12 10/10/10 11/11/11
