g Turrel_Platform_12
v -2.005195 -2 -1.159883
v -2.005195 -2 0
v 1.994805 -2 0
v 1.994805 -2 -1.159883
v -2.005195 -2 0
v -2.005195 2 0
v 1.994805 2 0
v 1.994805 -2 0
v -2.005195 2 0
v -2.005195 2 -1.159883
v 1.994805 2 -1.159883
v 1.994805 2 0
v 1.994805 -2 -1.159883
v 1.994805 -2 0
v 1.994805 2 0
v 1.994805 2 -1.159883
v -2.005195 2 -1.159883
v -2.005195 2 0
v -2.005195 -2 0
v -2.005195 -2 -1.159883
vt -13.00519 -33.41946
vt -13.00519 -32.25958
vt -9.005188 -32.25958
vt -9.005188 -33.41946
vt -13.00519 -1.999992
vt -13.00519 2.000008
vt -9.005188 2.000008
vt -9.005188 -1.999992
vt 14.00519 -32.25958
vt 14.00519 -33.41946
vt 10.00519 -33.41946
vt 10.00519 -32.25958
vt -1.999992 -33.41946
vt -1.999992 -32.25958
vt 2.000008 -32.25958
vt 2.000008 -33.41946
vt -1.000008 -33.41946
vt -1.000008 -32.25958
vt 2.999992 -32.25958
vt 2.999992 -33.41946
vn 0 -1 0
vn 0 -1 0
vn 0 -1 0
vn 0 -1 0
vn 0 0 1
vn 0 0 1
vn 0 0 1
vn 0 0 1
vn 0 1 0
vn 0 1 0
vn 0 1 0
vn 0 1 0
vn 1 0 0
vn 1 0 0
vn 1 0 0
vn 1 0 0
vn -1 0 0
vn -1 0 0
vn -1 0 0
vn -1 0 0
g Turrel_Platform_12_0
f 3/3/3 2/2/2 1/1/1
f 4/4/4 3/3/3 1/1/1
f 7/7/7 6/6/6 5/5/5
f 8/8/8 7/7/7 5/5/5
f 11/11/11 10/10/10 9/9/9
f 12/12/12 11/11/11 9/9/9
f 15/15/15 14/14/14 13/13/13
f 16/16/16 15/15/15 13/13/13
f 19/19/19 18/18/18 17/17/17
f 20/20/20 19/19/19 17/17/17
