g Underwater_Ground_In
v 230.1705 37.61474 -10.29187
v 205.1287 110.5591 -10.29187
v 220.6718 75.12441 -10.29187
v 230.1707 -39.50766 -10.29187
v -222.5038 -77.01823 -10.29187
v 220.672 -77.01739 -10.29187
v 205.129 -112.4521 -10.29187
v 157.7592 -173.3132 -10.29187
v 93.19439 -215.4957 -10.29187
v 18.43125 -234.4285 -10.29187
v -58.42847 -228.0598 -10.29187
v -95.02568 -215.4961 -10.29187
v -129.0558 -197.08 -10.29187
v -159.5906 -173.3138 -10.29187
v -185.7972 -144.846 -10.29187
v -206.9607 -112.4529 -10.29187
v 157.7588 171.42 -10.29187
v 183.9653 142.9521 -10.29187
v 127.224 195.1861 -10.29187
v 93.19392 213.6023 -10.29187
v 56.59676 226.1661 -10.29187
v -20.26247 -234.4285 -10.29187
v 56.59723 -228.0596 -10.29187
v 127.2245 -197.0795 -10.29187
v 18.43079 232.5349 -10.29187
v -20.2629 232.5349 -10.29187
v -58.42887 226.1661 -10.29187
v -95.02602 213.6023 -10.29187
v -129.0561 195.1861 -10.29187
v -159.5909 171.42 -10.29187
v -185.7975 142.9521 -10.29187
v -206.9609 110.559 -10.29187
v -222.504 75.12429 -10.29187
v -232.0027 37.61458 -10.29187
v -235.198 -0.946985 -10.29187
v -232.0026 -39.50854 -10.29187
v 183.9656 -144.8453 -10.29187
v 233.3659 -0.946797 -10.29187
vt 231.5866 39.06151
vt 206.5448 112.0058
vt 222.0879 76.57117
vt 231.5867 -38.06088
vt -221.0878 -75.57136
vt 222.088 -75.57062
vt 206.5451 -111.0053
vt 159.1752 -171.8664
vt 94.6104 -214.0489
vt 19.84726 -232.9816
vt -57.01246 -226.613
vt -93.60967 -214.0492
vt -127.6398 -195.6331
vt -158.1746 -171.867
vt -184.3812 -143.3991
vt -205.5447 -111.006
vt 159.1749 172.8668
vt 185.3814 144.3989
vt 128.6401 196.6329
vt 94.61004 215.0491
vt 58.01287 227.6129
vt -18.84646 -232.9817
vt 58.01324 -226.6128
vt 128.6405 -195.6327
vt 19.84691 233.9817
vt -18.84678 233.9817
vt -57.01275 227.613
vt -93.6099 215.0492
vt -127.64 196.633
vt -158.1748 172.8668
vt -184.3814 144.3989
vt -205.5448 112.0058
vt -221.0879 76.57116
vt -230.5866 39.06147
vt -233.7819 0.4998972
vt -230.5866 -38.06166
vt 185.3817 -143.3985
vt 234.7819 0.4999735
vn 0 0 1
vn 0 0 1
vn 0 0 1
vn 0 0 1
vn 0 0 1
vn 0 0 1
vn 0 0 1
vn 0 0 1
vn 0 0 1
vn 0 0 1
vn 0 0 1
vn 0 0 1
vn 0 0 1
vn 0 0 1
vn 0 0 1
vn 0 0 1
vn 0 0 1
vn 0 0 1
vn 0 0 1
vn 0 0 1
vn 0 0 1
vn 0 0 1
vn 0 0 1
vn 0 0 1
vn 0 0 1
vn 0 0 1
vn 0 0 1
vn 0 0 1
vn 0 0 1
vn 0 0 1
vn 0 0 1
vn 0 0 1
vn 0 0 1
vn 0 0 1
vn 0 0 1
vn 0 0 1
vn 0 0 1
vn 0 0 1
g Underwater_Ground_In_0
f 3/3/3 2/2/2 1/1/1
f 2/2/2 4/4/4 1/1/1
f 4/4/4 2/2/2 5/5/5
f 6/6/6 4/4/4 5/5/5
f 7/7/7 6/6/6 5/5/5
f 8/8/8 7/7/7 5/5/5
f 9/9/9 8/8/8 5/5/5
f 10/10/10 9/9/9 5/5/5
f 11/11/11 10/10/10 5/5/5
f 12/12/12 11/11/11 5/5/5
f 13/13/13 12/12/12 5/5/5
f 14/14/14 13/13/13 5/5/5
f 15/15/15 14/14/14 5/5/5
f 16/16/16 15/15/15 5/5/5
f 2/2/2 17/17/17 5/5/5
f 18/18/18 17/17/17 2/2/2
f 17/17/17 19/19/19 5/5/5
f 19/19/19 20/20/20 5/5/5
f 20/20/20 21/21/21 5/5/5
f 22/22/22 10/10/10 11/11/11
f 23/23/23 9/9/9 10/10/10
f 24/24/24 8/8/8 9/9/9
f 21/21/21 25/25/25 5/5/5
f 25/25/25 26/26/26 5/5/5
f 26/26/26 27/27/27 5/5/5
f 27/27/27 28/28/28 5/5/5
f 28/28/28 29/29/29 5/5/5
f 29/29/29 30/30/30 5/5/5
f 30/30/30 31/31/31 5/5/5
f 31/31/31 32/32/32 5/5/5
f 32/32/32 33/33/33 5/5/5
f 33/33/33 34/34/34 5/5/5
f 34/34/34 35/35/35 5/5/5
f 35/35/35 36/36/36 5/5/5
f 37/37/37 7/7/7 8/8/8
f 1/1/1 4/4/4 38/38/38
