g ventilationHatch
v 0.1873732 0.5409919 -0.5400513
v 0.187373 -0.5409919 -0.5400513
v 0.1873729 -0.5409919 0.5400513
v 0.1873731 0.5409919 0.5400513
v -0.03686901 0.4666265 -0.4656859
v -0.03686905 0.4666265 0.4656859
v -0.03686921 -0.4666265 0.4656859
v -0.03686916 -0.4666265 -0.4656859
v 0.1873732 0.5409919 -0.5400513
v -0.036869 0.5409919 -0.5400513
v -0.03686917 -0.5409919 -0.5400513
v 0.187373 -0.5409919 -0.5400513
v 0.187373 -0.5409919 -0.5400513
v -0.03686917 -0.5409919 -0.5400513
v -0.03686922 -0.5409919 0.5400513
v 0.1873729 -0.5409919 0.5400513
v 0.1873729 -0.5409919 0.5400513
v -0.03686922 -0.5409919 0.5400513
v -0.03686904 0.5409919 0.5400513
v 0.1873731 0.5409919 0.5400513
v 0.1873731 0.5409919 0.5400513
v -0.03686904 0.5409919 0.5400513
v -0.036869 0.5409919 -0.5400513
v 0.1873732 0.5409919 -0.5400513
v -0.036869 0.5409919 -0.5400513
v -0.03686901 0.4666265 -0.4656859
v -0.03686916 -0.4666265 -0.4656859
v -0.03686917 -0.5409919 -0.5400513
v -0.03686921 -0.4666265 0.4656859
v -0.03686922 -0.5409919 0.5400513
v -0.03686905 0.4666265 0.4656859
v -0.03686904 0.5409919 0.5400513
vt 0.8544946 0.4635192
vt 0.8270024 0.4635192
vt 0.8270024 0.4909634
vt 0.8544946 0.4909634
vt 0.8551956 0.3917626
vt 0.8551956 0.4048133
vt 0.8696552 0.4048133
vt 0.8696552 0.3917626
vt 0.8375635 0.4909874
vt 0.8432612 0.4909874
vt 0.8432612 0.4634952
vt 0.8375635 0.4634952
vt 0.8439335 0.4635192
vt 0.8382358 0.4635192
vt 0.8382358 0.4909634
vt 0.8439335 0.4909634
vt 0.8439335 0.4634952
vt 0.8382358 0.4634952
vt 0.8382358 0.4909874
vt 0.8439335 0.4909874
vt 0.8375635 0.4909634
vt 0.8432612 0.4909634
vt 0.8432612 0.4635192
vt 0.8375635 0.4635192
vt 0.8270024 0.4635192
vt 0.8288919 0.4654087
vt 0.8526051 0.4654087
vt 0.8544946 0.4635192
vt 0.8526051 0.4890739
vt 0.8544946 0.4909634
vt 0.8288919 0.4890739
vt 0.8270024 0.4909634
vn 1 -1.586543E-07 0
vn 1 -1.586543E-07 0
vn 1 -1.586543E-07 0
vn 1 -1.586543E-07 0
vn -1 1.635011E-07 0
vn -1 1.635011E-07 0
vn -1 1.635011E-07 0
vn -1 1.635011E-07 0
vn 0 0 -1
vn 0 0 -1
vn 0 0 -1
vn 0 0 -1
vn 0 -1 0
vn 0 -1 0
vn 0 -1 0
vn 0 -1 0
vn 0 0 1
vn 0 0 1
vn 0 0 1
vn 0 0 1
vn 0 1 0
vn 0 1 0
vn 0 1 0
vn 0 1 0
vn -1 1.63265E-07 0
vn -1 1.63265E-07 0
vn -1 1.63265E-07 0
vn -1 1.63265E-07 0
vn -1 1.603022E-07 0
vn -1 1.603022E-07 0
vn -1 1.63265E-07 0
vn -1 1.63265E-07 0
g ventilationHatch_0
f 3/3/3 2/2/2 1/1/1
f 4/4/4 3/3/3 1/1/1
f 7/7/7 6/6/6 5/5/5
f 8/8/8 7/7/7 5/5/5
f 11/11/11 10/10/10 9/9/9
f 12/12/12 11/11/11 9/9/9
f 15/15/15 14/14/14 13/13/13
f 16/16/16 15/15/15 13/13/13
f 19/19/19 18/18/18 17/17/17
f 20/20/20 19/19/19 17/17/17
f 23/23/23 22/22/22 21/21/21
f 24/24/24 23/23/23 21/21/21
f 27/27/27 26/26/26 25/25/25
f 28/28/28 27/27/27 25/25/25
f 29/29/29 27/27/27 28/28/28
f 30/30/30 29/29/29 28/28/28
f 31/31/31 29/29/29 30/30/30
f 32/32/32 31/31/31 30/30/30
f 26/26/26 31/31/31 32/32/32
f 25/25/25 26/26/26 32/32/32
