g vfx=CylinderThin
v 0.5929533 -1.338926E-08 -0.02005895
v 0.5929533 -1.338926E-08 0.02005892
v 0.5727488 0.1534676 0.02005892
v 0.5727488 0.1534676 -0.02005895
v 0.5135126 0.2964766 0.02005892
v 0.5135126 0.2964766 -0.02005895
v 0.4192813 0.4192813 0.02005892
v 0.4192813 0.4192813 -0.02005895
v 0.2964766 0.5135126 0.02005892
v 0.2964766 0.5135126 -0.02005895
v 0.1534676 0.5727488 0.02005892
v 0.1534676 0.5727488 -0.02005895
v 4.476673E-08 0.5929533 0.02005892
v 4.476673E-08 0.5929533 -0.02005895
v -0.1534675 0.5727489 0.02005892
v -0.1534675 0.5727489 -0.02005895
v -0.2964765 0.5135126 0.02005892
v -0.2964765 0.5135126 -0.02005895
v -0.4192812 0.4192814 0.02005892
v -0.4192812 0.4192814 -0.02005895
v -0.5135126 0.2964767 0.02005892
v -0.5135126 0.2964767 -0.02005895
v -0.5727488 0.1534678 0.02005892
v -0.5727488 0.1534678 -0.02005895
v -0.5929533 2.175153E-07 0.02005892
v -0.5929533 2.175153E-07 -0.02005895
v -0.5727489 -0.1534673 0.02005892
v -0.5727489 -0.1534673 -0.02005895
v -0.5135127 -0.2964764 0.02005892
v -0.5135127 -0.2964764 -0.02005895
v -0.4192815 -0.4192811 0.02005892
v -0.4192815 -0.4192811 -0.02005895
v -0.2964768 -0.5135125 0.02005892
v -0.2964768 -0.5135125 -0.02005895
v -0.1534678 -0.5727487 0.02005892
v -0.1534678 -0.5727487 -0.02005895
v -0.1534678 -0.5727487 -0.02005895
v -0.1534678 -0.5727487 0.02005892
v -2.756713E-07 -0.5929533 0.02005892
v -2.756713E-07 -0.5929533 -0.02005895
v 0.1534673 -0.5727489 0.02005892
v 0.1534673 -0.5727489 -0.02005895
v 0.2964763 -0.5135127 0.02005892
v 0.2964763 -0.5135127 -0.02005895
v 0.419281 -0.4192815 0.02005892
v 0.419281 -0.4192815 -0.02005895
v 0.5135124 -0.296477 0.02005892
v 0.5135124 -0.296477 -0.02005895
v 0.5727487 -0.153468 0.02005892
v 0.5727487 -0.153468 -0.02005895
vt 0.291687 5.001589E-05
vt 0.2916869 0.99995
vt 0.3333499 0.99995
vt 0.3333499 5.001589E-05
vt 0.3750119 0.99995
vt 0.375012 5.001589E-05
vt 0.4166749 0.9999501
vt 0.4166749 5.001589E-05
vt 0.4583379 0.9999501
vt 0.458338 5.001589E-05
vt 0.4999999 0.9999501
vt 0.4999999 5.001589E-05
vt 0.541662 0.9999501
vt 0.5416619 5.001589E-05
vt 0.583325 0.9999501
vt 0.583325 5.001589E-05
vt 0.624988 0.99995
vt 0.624988 5.001589E-05
vt 0.6666499 0.99995
vt 0.6666499 5.001589E-05
vt 0.7083119 0.99995
vt 0.7083119 5.001589E-05
vt 0.749975 0.99995
vt 0.749975 5.001589E-05
vt 0.7916369 0.99995
vt 0.7916369 5.001589E-05
vt 0.8332989 0.99995
vt 0.8332989 5.001589E-05
vt 0.8749619 0.99995
vt 0.8749619 5.001589E-05
vt 0.916625 0.99995
vt 0.916625 5.001589E-05
vt 0.9582869 0.99995
vt 0.9582869 5.001589E-05
vt 0.9999499 0.99995
vt 0.9999499 5.001589E-05
vt 4.994869E-05 5.001589E-05
vt 4.994869E-05 0.99995
vt 0.04171294 0.99995
vt 0.04171294 5.001589E-05
vt 0.08337492 0.99995
vt 0.08337492 5.001589E-05
vt 0.125037 0.99995
vt 0.125037 5.001589E-05
vt 0.1666989 0.99995
vt 0.1666989 5.001589E-05
vt 0.2083629 0.99995
vt 0.2083629 5.001589E-05
vt 0.2500249 0.99995
vt 0.250025 5.001589E-05
vn 1 -1.961487E-07 0
vn 1 -1.961487E-07 0
vn 0.9659258 0.258819 0
vn 0.9659258 0.258819 0
vn 0.8660255 0.4999999 0
vn 0.8660255 0.4999999 0
vn 0.7071068 0.7071068 0
vn 0.7071068 0.7071068 0
vn 0.4999999 0.8660255 0
vn 0.4999999 0.8660255 0
vn 0.2588191 0.9659258 0
vn 0.2588191 0.9659258 0
vn 2.344217E-07 1 0
vn 2.344217E-07 1 0
vn -0.2588189 0.9659258 0
vn -0.2588189 0.9659258 0
vn -0.4999999 0.8660255 0
vn -0.4999999 0.8660255 0
vn -0.7071066 0.7071069 0
vn -0.7071066 0.7071069 0
vn -0.8660253 0.5000002 0
vn -0.8660253 0.5000002 0
vn -0.9659257 0.2588193 0
vn -0.9659257 0.2588193 0
vn -1 2.48774E-07 0
vn -1 2.48774E-07 0
vn -0.9659259 -0.2588187 0
vn -0.9659259 -0.2588187 0
vn -0.8660258 -0.4999994 0
vn -0.8660258 -0.4999994 0
vn -0.7071071 -0.7071064 0
vn -0.7071071 -0.7071064 0
vn -0.5000001 -0.8660253 0
vn -0.5000001 -0.8660253 0
vn -0.2588194 -0.9659257 0
vn -0.2588194 -0.9659257 0
vn -0.2588194 -0.9659257 0
vn -0.2588194 -0.9659257 0
vn -4.975481E-07 -1 0
vn -4.975481E-07 -1 0
vn 0.2588185 -0.9659259 0
vn 0.2588185 -0.9659259 0
vn 0.4999993 -0.8660258 0
vn 0.4999993 -0.8660258 0
vn 0.7071062 -0.7071072 0
vn 0.7071062 -0.7071072 0
vn 0.8660253 -0.5000004 0
vn 0.8660253 -0.5000004 0
vn 0.9659257 -0.2588194 0
vn 0.9659257 -0.2588194 0
g vfx=CylinderThin_0
f 3/3/3 2/2/2 1/1/1
f 4/4/4 3/3/3 1/1/1
f 5/5/5 3/3/3 4/4/4
f 6/6/6 5/5/5 4/4/4
f 7/7/7 5/5/5 6/6/6
f 8/8/8 7/7/7 6/6/6
f 9/9/9 7/7/7 8/8/8
f 10/10/10 9/9/9 8/8/8
f 11/11/11 9/9/9 10/10/10
f 12/12/12 11/11/11 10/10/10
f 13/13/13 11/11/11 12/12/12
f 14/14/14 13/13/13 12/12/12
f 15/15/15 13/13/13 14/14/14
f 16/16/16 15/15/15 14/14/14
f 17/17/17 15/15/15 16/16/16
f 18/18/18 17/17/17 16/16/16
f 19/19/19 17/17/17 18/18/18
f 20/20/20 19/19/19 18/18/18
f 21/21/21 19/19/19 20/20/20
f 22/22/22 21/21/21 20/20/20
f 23/23/23 21/21/21 22/22/22
f 24/24/24 23/23/23 22/22/22
f 25/25/25 23/23/23 24/24/24
f 26/26/26 25/25/25 24/24/24
f 27/27/27 25/25/25 26/26/26
f 28/28/28 27/27/27 26/26/26
f 29/29/29 27/27/27 28/28/28
f 30/30/30 29/29/29 28/28/28
f 31/31/31 29/29/29 30/30/30
f 32/32/32 31/31/31 30/30/30
f 33/33/33 31/31/31 32/32/32
f 34/34/34 33/33/33 32/32/32
f 35/35/35 33/33/33 34/34/34
f 36/36/36 35/35/35 34/34/34
f 39/39/39 38/38/38 37/37/37
f 40/40/40 39/39/39 37/37/37
f 41/41/41 39/39/39 40/40/40
f 42/42/42 41/41/41 40/40/40
f 43/43/43 41/41/41 42/42/42
f 44/44/44 43/43/43 42/42/42
f 45/45/45 43/43/43 44/44/44
f 46/46/46 45/45/45 44/44/44
f 47/47/47 45/45/45 46/46/46
f 48/48/48 47/47/47 46/46/46
f 49/49/49 47/47/47 48/48/48
f 50/50/50 49/49/49 48/48/48
f 2/2/2 49/49/49 50/50/50
f 1/1/1 2/2/2 50/50/50
