g vfx=Helix001
v 0.2817071 -0.08521646 -0.01405964
v 0.2027293 -0.0646214 0.1305101
v 0.2171929 0.001772307 0.1240128
v 0.3032017 0.009775904 -0.01790003
v 0.2324941 -0.1669809 -0.01032883
v 0.1688883 -0.122221 0.1396708
v 0.1619454 -0.2278924 -0.006363182
v 0.1197771 -0.165612 0.1501808
v 0.07800955 -0.2630005 -0.001009903
v 0.06077918 -0.191107 0.1616614
v -0.01050183 -0.2701346 0.006586418
v -0.001973098 -0.1969124 0.1739102
v -0.09479499 -0.249945 0.01675285
v -0.06222554 -0.183227 0.1867969
v -0.1669284 -0.2056823 0.02933982
v -0.1142142 -0.1521422 0.2002296
v -0.2205231 -0.1427457 0.04391848
v -0.1532091 -0.1073617 0.2141385
v -0.2512853 -0.0680582 0.05999976
v -0.1759326 -0.05377626 0.2284689
v -0.257308 0.01066652 0.07718558
v -0.180822 0.003060839 0.2431763
v -0.2391339 0.08569235 0.09521702
v -0.1681124 0.05750108 0.2582231
v -0.199588 0.1499918 0.1139368
v -0.1397435 0.104355 0.2735776
v -0.1434059 0.1978787 0.1332121
v -0.09910315 0.13938 0.2892118
v -0.07670053 0.2254832 0.1528732
v -0.05063822 0.1596586 0.3051016
v -0.006324926 0.2310405 0.172697
v 0.0006208807 0.1638293 0.321225
v 0.06080841 0.2149692 0.1924399
v 0.04957569 0.1521589 0.337562
v 0.1183871 0.1797417 0.2118983
v 0.09156312 0.1264516 0.3540941
v 0.1612753 0.1295665 0.230964
v 0.1227947 0.08981049 0.370805
v 0.1859602 0.06991921 0.2496491
v 0.140695 0.04627978 0.3876783
v 0.1908267 0.006966504 0.2680704
v 0.1441063 0.0004073797 0.4046989
v 0.1762432 -0.0530536 0.2864034
v 0.1333449 -0.04322464 0.4218526
v 0.1444515 -0.1044407 0.3048242
v 0.1101086 -0.08045673 0.4391253
v 0.09928008 -0.1425684 0.3234633
v 0.07725038 -0.1079475 0.4565035
v 0.0457093 -0.1642996 0.3423814
v 0.0384432 -0.1234722 0.4739736
v -0.01066226 -0.1682421 0.3615763
v -0.00222256 -0.1260972 0.4915232
v -0.06419832 -0.1548226 0.3810002
v -0.04066899 -0.1162163 0.5091392
v -0.1097925 -0.1261755 0.4005893
v -0.07324286 -0.09545064 0.5268089
v -0.1433627 -0.08586145 0.4202825
v -0.09706431 -0.06642669 0.5445201
v -0.1622254 -0.03844835 0.4400356
v -0.1102836 -0.03246089 0.5622607
v -0.1653148 0.0109987 0.4598198
v -0.1122187 0.002813892 0.5800192
v -0.1532222 0.05746203 0.4796117
v -0.1033648 0.03583757 0.5977855
v -0.1280594 0.09649311 0.4993945
v -0.08528043 0.06348567 0.6155486
v -0.09316627 0.1246499 0.5191653
v -0.06036723 0.08336787 0.6333004
v -0.0526957 0.139812 0.5389237
v -0.03157178 0.09403409 0.6510327
v -0.0111285 0.1413364 0.5586719
v -0.002045577 0.09506891 0.6687407
v 0.02722534 0.1300438 0.5784138
v 0.02519705 0.0870698 0.6864212
v 0.05867875 0.1080441 0.598157
v 0.04758433 0.07151868 0.7040734
v 0.08053061 0.07842866 0.6179125
v 0.06322809 0.05056673 0.7217005
v 0.0912962 0.04487148 0.637695
v 0.07107325 0.02676227 0.7393085
v 0.09078783 0.01118753 0.6575245
v 0.07094918 0.002754508 0.7569075
v 0.08004659 -0.01909411 0.6774246
v 0.06352296 -0.01899075 0.7745111
v 0.06114323 -0.04310117 0.6974246
v 0.05016842 -0.03643758 0.7921374
v 0.03687639 -0.05888964 0.7175552
v 0.03276993 -0.04816135 0.8098063
v 0.01040999 -0.06559891 0.7378535
v 0.01348719 -0.05345608 0.8275407
v -0.01511001 -0.06347588 0.7583547
v -0.005492004 -0.05235957 0.8453632
v -0.03691669 -0.05377664 0.7790948
v -0.02219 -0.04560163 0.8632949
v -0.05293314 -0.03854673 0.8001144
v -0.03504781 -0.03447543 0.8813621
v -0.1862567 0.1178978 -0.008191356
v -0.1284559 0.08508113 0.1535255
v -0.1503978 0.04255055 0.1473307
v -0.2196216 0.0544815 -0.01235853
v -0.1357116 0.1666349 -0.004391594
v -0.09493473 0.118097 0.162284
v -0.07397471 0.1964893 -0.0006933784
v -0.05361529 0.1386633 0.1723675
v -0.007637353 0.2054565 0.004146747
v -0.008832303 0.1452531 0.1834256
v 0.05662473 0.1936715 0.01117603
v 0.0349158 0.1377636 0.1952735
v 0.1126859 0.1632714 0.02097562
v 0.07341042 0.1174705 0.207795
v 0.1555211 0.1180786 0.03365096
v 0.1031116 0.08684716 0.220909
v 0.1816251 0.0631447 0.04896234
v 0.1214768 0.04927529 0.2345555
v 0.1892647 0.004207605 0.06649661
v 0.1271677 0.008679398 0.2486881
v 0.1785536 -0.05288764 0.08580505
v 0.1201333 -0.03087763 0.2632699
v 0.1513506 -0.1027464 0.1064732
v 0.1015636 -0.06559604 0.2782705
v 0.1110017 -0.1409123 0.1281285
v 0.07372377 -0.09229919 0.2936646
v 0.06195506 -0.1642462 0.1504166
v 0.039692 -0.1087184 0.3094301
v 0.009292042 -0.1711616 0.1729838
v 0.003025231 -0.1136794 0.3255489
v -0.04178109 -0.1617097 0.1954862
v -0.03260609 -0.107173 0.342004
v -0.08643124 -0.1375041 0.2176272
v -0.06378233 -0.09031004 0.3587807
v -0.1206431 -0.101504 0.2392081
v -0.08766002 -0.06516791 0.3758656
v -0.1415683 -0.05767835 0.2601631
v -0.1022274 -0.03454832 0.3932465
v -0.147753 -0.01058732 0.2805659
v -0.10647 -0.001671835 0.4109119
v -0.1392236 0.03507886 0.3005971
v -0.1004289 0.03015658 0.4288507
v -0.11743 0.07495701 0.3204885
v -0.08515454 0.05787744 0.4470524
v -0.08505056 0.105423 0.340459
v -0.06256043 0.07897054 0.4655072
v -0.04568755 0.1239178 0.3606674
v -0.03519601 0.09168271 0.4842043
v -0.003477507 0.1291605 0.381186
v -0.005966055 0.09517014 0.5031342
v 0.03733555 0.1212277 0.4020094
v 0.02217705 0.08954318 0.5222869
v 0.07282737 0.101496 0.423074
v 0.04653074 0.07581319 0.5416522
v 0.09977521 0.07245462 0.4442933
v 0.06490522 0.05574882 0.5612198
v 0.115956 0.03741139 0.4655813
v 0.07582018 0.03166183 0.5809797
v 0.1203328 0.000123747 0.4868735
v 0.07862173 0.006145516 0.600922
v 0.1131123 -0.03560574 0.5082368
v 0.07350809 -0.01820439 0.6210366
v 0.09567036 -0.06632373 0.5297667
v 0.06146524 -0.0390561 0.6413147
v 0.07035507 -0.08927083 0.551462
v 0.0441228 -0.05456843 0.661747
v 0.04019528 -0.1026367 0.5733228
v 0.02355034 -0.06355286 0.6823265
v 0.008546205 -0.1057055 0.5953514
v 0.002016829 -0.06556005 0.7030461
v -0.02128519 -0.09887335 0.6175532
v -0.01825823 -0.06088185 0.7239026
v -0.04639224 -0.08354429 0.6399357
v -0.03533308 -0.05047424 0.7448941
v -0.06455629 -0.06191989 0.662511
v -0.04772827 -0.03581419 0.7660225
v -0.07444643 -0.03671148 0.6852957
v -0.05455131 -0.01870916 0.7872936
v -0.07570715 -0.01081288 0.7083111
v -0.05554918 -0.001085158 0.8087169
v -0.06893154 0.01302893 0.7315855
v -0.05108854 0.01522453 0.8303079
v -0.05553147 0.03250414 0.7551526
v -0.04207285 0.02866397 0.8520865
v -0.03752559 0.04596584 0.7790541
v -0.02980757 0.03809858 0.8740793
v -0.01727302 0.05256538 0.8033352
v -0.01583438 0.04290271 0.8963153
v 0.002813881 0.05229366 0.8280497
v -0.00175142 0.04298972 0.9188293
v 0.02054619 0.04592514 0.8532523
v 0.01096009 0.03878419 0.9416567
v 0.03419685 0.03487946 0.8790007
v 0.02108777 0.03114306 0.9648316
v 0.04267929 0.02100584 0.905361
v 0.02780668 0.02123023 0.9883964
vt 0.967015 5E-05
vt 0.967015 0.99995
vt 0.99995 0.99995
vt 0.99995 5E-05
vt 0.934636 5E-05
vt 0.934636 0.99995
vt 0.902907 5E-05
vt 0.902907 0.99995
vt 0.871821 5E-05
vt 0.871821 0.99995
vt 0.841352 5E-05
vt 0.841352 0.99995
vt 0.811466 5E-05
vt 0.811466 0.99995
vt 0.782133 5E-05
vt 0.782133 0.99995
vt 0.753332 5E-05
vt 0.753332 0.99995
vt 0.725053 5E-05
vt 0.725053 0.99995
vt 0.697288 5E-05
vt 0.697288 0.99995
vt 0.67003 5E-05
vt 0.67003 0.99995
vt 0.64327 5E-05
vt 0.64327 0.99995
vt 0.617002 5E-05
vt 0.617002 0.99995
vt 0.591226 5E-05
vt 0.591226 0.99995
vt 0.565944 5E-05
vt 0.565944 0.99995
vt 0.541161 5E-05
vt 0.541161 0.99995
vt 0.51688 5E-05
vt 0.51688 0.99995
vt 0.493099 5E-05
vt 0.493099 0.99995
vt 0.469808 5E-05
vt 0.469808 0.99995
vt 0.44699 5E-05
vt 0.44699 0.99995
vt 0.424628 5E-05
vt 0.424628 0.99995
vt 0.402701 5E-05
vt 0.402701 0.99995
vt 0.381197 5E-05
vt 0.381197 0.99995
vt 0.360106 5E-05
vt 0.360106 0.99995
vt 0.339429 5E-05
vt 0.339429 0.99995
vt 0.319171 5E-05
vt 0.319171 0.99995
vt 0.299342 5E-05
vt 0.299342 0.99995
vt 0.279956 5E-05
vt 0.279956 0.99995
vt 0.261027 5E-05
vt 0.261027 0.99995
vt 0.242568 5E-05
vt 0.242568 0.99995
vt 0.224591 5E-05
vt 0.224591 0.99995
vt 0.207106 5E-05
vt 0.207106 0.99995
vt 0.190118 5E-05
vt 0.190118 0.99995
vt 0.173627 5E-05
vt 0.173627 0.99995
vt 0.157632 5E-05
vt 0.157632 0.99995
vt 0.142124 5E-05
vt 0.142124 0.99995
vt 0.127093 5E-05
vt 0.127093 0.99995
vt 0.112525 5E-05
vt 0.112525 0.99995
vt 0.098407 5E-05
vt 0.098407 0.99995
vt 0.084723 5E-05
vt 0.084723 0.99995
vt 0.071459 5E-05
vt 0.071459 0.99995
vt 0.058605 5E-05
vt 0.058605 0.99995
vt 0.046147 5E-05
vt 0.046147 0.99995
vt 0.034074 5E-05
vt 0.034074 0.99995
vt 0.022377 5E-05
vt 0.022377 0.99995
vt 0.011042 5E-05
vt 0.011042 0.99995
vt 5E-05 5E-05
vt 5E-05 0.99995
vt 0.96955 5E-05
vt 0.96955 0.99995
vt 0.99995 0.99995
vt 0.99995 5E-05
vt 0.93962 5E-05
vt 0.939621 0.99995
vt 0.910263 6.4E-05
vt 0.910263 0.99995
vt 0.881465 5E-05
vt 0.881464 0.999936
vt 0.853189 6.4E-05
vt 0.853189 0.999936
vt 0.82538 6.4E-05
vt 0.82538 0.999936
vt 0.797983 5E-05
vt 0.797983 0.999936
vt 0.770959 6.4E-05
vt 0.770958 0.99995
vt 0.744284 6.4E-05
vt 0.744284 0.99995
vt 0.717957 5E-05
vt 0.717956 0.999936
vt 0.691978 6.4E-05
vt 0.691978 0.99995
vt 0.666363 5E-05
vt 0.666362 0.99995
vt 0.641124 6.4E-05
vt 0.641125 0.99995
vt 0.616287 6.4E-05
vt 0.616287 0.999936
vt 0.591877 6.4E-05
vt 0.591876 0.999936
vt 0.567913 6.4E-05
vt 0.567913 0.99995
vt 0.54441 6.4E-05
vt 0.54441 0.99995
vt 0.521364 6.4E-05
vt 0.521364 0.999936
vt 0.49876 5E-05
vt 0.49876 0.99995
vt 0.476569 5E-05
vt 0.476569 0.99995
vt 0.454758 7.9E-05
vt 0.454759 0.99995
vt 0.433298 6.4E-05
vt 0.433297 0.99995
vt 0.412162 5E-05
vt 0.412163 0.99995
vt 0.391339 5E-05
vt 0.391339 0.99995
vt 0.370824 6.4E-05
vt 0.370824 0.99995
vt 0.350625 7.9E-05
vt 0.350625 0.99995
vt 0.330756 6.4E-05
vt 0.330756 0.99995
vt 0.311231 6.4E-05
vt 0.311231 0.99995
vt 0.292068 6.4E-05
vt 0.292068 0.999936
vt 0.273265 5E-05
vt 0.273266 0.99995
vt 0.254816 6.4E-05
vt 0.254815 0.999936
vt 0.236723 5E-05
vt 0.236722 0.99995
vt 0.218987 5E-05
vt 0.218987 0.99995
vt 0.201605 6.4E-05
vt 0.201605 0.999936
vt 0.184569 5E-05
vt 0.184568 0.99995
vt 0.167865 5E-05
vt 0.167865 0.99995
vt 0.151478 6.4E-05
vt 0.151478 0.99995
vt 0.13539 6.4E-05
vt 0.135391 0.999936
vt 0.119579 6.4E-05
vt 0.119579 0.99995
vt 0.104022 6.4E-05
vt 0.104023 0.999936
vt 0.088698 5E-05
vt 0.088698 0.999936
vt 0.073577 6.4E-05
vt 0.073577 0.99995
vt 0.058636 5E-05
vt 0.058636 0.99995
vt 0.043845 6.4E-05
vt 0.043844 0.99995
vt 0.029172 6.4E-05
vt 0.029172 0.99995
vt 0.014588 5E-05
vt 0.014588 0.99995
vt 5E-05 6.4E-05
vt 5E-05 0.99995
vn 0.8249969 -0.2831047 0.4891133
vn 0.8188713 -0.3041396 0.4867741
vn 0.8526509 -0.1580786 0.4979935
vn 0.8526509 -0.1580786 0.4979935
vn 0.709248 -0.5340566 0.460164
vn 0.6971831 -0.5515605 0.4579484
vn 0.5176034 -0.7374882 0.4338178
vn 0.5015272 -0.7494941 0.4321217
vn 0.2715193 -0.8687704 0.4141439
vn 0.2524802 -0.8750321 0.4130043
vn -0.002454365 -0.9155002 0.4023103
vn -0.02372681 -0.9154643 0.4016991
vn -0.2766041 -0.8748242 0.3977095
vn -0.2988758 -0.8675204 0.3975947
vn -0.524551 -0.752204 0.3987923
vn -0.5457551 -0.7367896 0.3991145
vn -0.7232166 -0.5603972 0.4036244
vn -0.7406332 -0.5366784 0.4042756
vn -0.8546761 -0.3181558 0.4102506
vn -0.8652896 -0.2868567 0.4110806
vn -0.9076458 -0.04829597 0.4169492
vn -0.9084784 -0.0111762 0.4177823
vn -0.8781404 0.2246691 0.4223662
vn -0.8665909 0.2647264 0.4230132
vn -0.7691812 0.4767601 0.4255117
vn -0.7434696 0.5157255 0.4257701
vn -0.5899135 0.6861658 0.4256508
vn -0.5496462 0.7190341 0.4252988
vn -0.3547088 0.8342331 0.4221811
vn -0.3014519 0.8555109 0.4209843
vn -0.08260212 0.9062439 0.414607
vn -0.02027824 0.910795 0.4123604
vn 0.2030663 0.8925376 0.402667
vn 0.2681967 0.8767254 0.3992781
vn 0.4754297 0.7902688 0.3865771
vn 0.5354453 0.7531589 0.3821648
vn 0.7060865 0.6054345 0.367275
vn 0.7528086 0.549612 0.3622236
vn 0.8686421 0.3541243 0.3464922
vn 0.8954699 0.2856186 0.3414025
vn 0.9431623 0.0617948 0.3265369
vn 0.9466485 -0.01106011 0.322078
vn 0.9200341 -0.2398617 0.3098446
vn 0.9005452 -0.3082654 0.3065792
vn 0.8018137 -0.5176912 0.2984805
vn 0.7630775 -0.5741569 0.2967435
vn 0.602587 -0.7420143 0.293775
vn 0.5504647 -0.7815128 0.2936434
vn 0.3453549 -0.8905151 0.2961635
vn 0.286402 -0.9107507 0.2975012
vn 0.05835328 -0.9504965 0.305207
vn -0.00135394 -0.9514678 0.3077453
vn -0.2288578 -0.9194558 0.3197269
vn -0.2843248 -0.9026285 0.3231428
vn -0.4888669 -0.80421 0.338017
vn -0.5362066 -0.771705 0.3419853
vn -0.6990317 -0.618975 0.3580848
vn -0.7350743 -0.5730724 0.3622898
vn -0.8429714 -0.38289 0.3778816
vn -0.8647666 -0.3259723 0.3819959
vn -0.9109288 -0.117516 0.3954728
vn -0.9154045 -0.05238928 0.3991115
vn -0.8992 0.1551311 0.4091134
vn -0.8831426 0.2247021 0.4117864
vn -0.809177 0.4136768 0.4172577
vn -0.7696023 0.4823936 0.4183404
vn -0.6465662 0.6377851 0.418548
vn -0.5814771 0.6984014 0.4172767
vn -0.4211564 0.8081235 0.4117811
vn -0.330776 0.8512948 0.4072891
vn -0.1475272 0.9063458 0.3959458
vn -0.0359643 0.9212114 0.3873965
vn 0.1534258 0.9161007 0.3704321
vn 0.276411 0.8921496 0.3573041
vn 0.4529623 0.8260025 0.3354771
vn 0.5712606 0.7566662 0.3179899
vn 0.7149543 0.6349167 0.2927819
vn 0.8082405 0.5221079 0.2723059
vn 0.9007953 0.3578455 0.245997
vn 0.9504187 0.2145985 0.2250598
vn 0.9792954 0.02800196 0.2004906
vn 0.9754248 -0.1240341 0.1821043
vn 0.937171 -0.3089227 0.1621024
vn 0.8822278 -0.4467216 0.1487075
vn 0.7832648 -0.6067619 0.1354111
vn 0.6892292 -0.7131226 0.1281375
vn 0.5439295 -0.8301378 0.1225226
vn 0.4263729 -0.8963935 0.1211811
vn 0.2538393 -0.9594032 0.1229277
vn 0.1269936 -0.983806 0.1264848
vn -0.05220174 -0.9895884 0.1341254
vn -0.1773545 -0.9739631 0.141214
vn -0.3440416 -0.926491 0.1524792
vn -0.4593582 -0.8734126 0.1616798
vn -0.5323856 -0.8299907 0.1663758
vn -0.5323856 -0.8299907 0.1663758
vn -0.7683939 0.5164042 0.378018
vn -0.754103 0.5385275 0.3759212
vn -0.8331905 0.3973294 0.3846076
vn -0.8331904 0.3973295 0.3846076
vn -0.5757889 0.7363925 0.3552369
vn -0.5544459 0.7536042 0.3530871
vn -0.3231693 0.885262 0.334474
vn -0.2971919 0.8949869 0.3326791
vn -0.03962145 0.9469813 0.3188362
vn -0.01004978 0.9481987 0.3175191
vn 0.2461374 0.9185583 0.309301
vn 0.2779652 0.909691 0.308541
vn 0.5076382 0.8055521 0.3055966
vn 0.539046 0.784934 0.3054636
vn 0.7219292 0.6202267 0.3068177
vn 0.7488492 0.587171 0.3073356
vn 0.8706933 0.3803699 0.3117881
vn 0.8883954 0.3359221 0.3129055
vn 0.9414974 0.1079911 0.3192498
vn 0.9455299 0.05509033 0.3208399
vn 0.9288033 -0.1725104 0.3279704
vn 0.9157636 -0.2292992 0.3298467
vn 0.8342654 -0.4365387 0.3368016
vn 0.8023243 -0.4914641 0.3387311
vn 0.6662005 -0.6613362 0.3446902
vn 0.6154646 -0.7079645 0.3463954
vn 0.4385518 -0.8274769 0.3506485
vn 0.3713281 -0.8592725 0.3518044
vn 0.1698366 -0.9198003 0.3537273
vn 0.09079428 -0.9308373 0.3539751
vn -0.1176448 -0.9281755 0.353058
vn -0.2015131 -0.9140271 0.3520609
vn -0.398525 -0.8485667 0.348012
vn -0.4783177 -0.807343 0.3455569
vn -0.6456204 -0.6845584 0.3384584
vn -0.7115346 -0.6178799 0.3345787
vn -0.8324161 -0.4488288 0.3250172
vn -0.8753825 -0.3623003 0.3200684
vn -0.9368646 -0.1634541 0.3091398
vn -0.9504465 -0.06617639 0.3037633
vn -0.9455431 0.1419641 0.2929069
vn -0.9273909 0.2388932 0.2878822
vn -0.8565792 0.4343453 0.2785967
vn -0.8088703 0.5199013 0.2746478
vn -0.6801791 0.6822205 0.2682009
vn -0.6089498 0.7473326 0.2658461
vn -0.436711 0.860276 0.2630755
vn -0.3504557 0.899024 0.2625582
vn -0.1532002 0.9523389 0.2637809
vn -0.06127013 0.9622782 0.2650782
vn 0.1407118 0.9524972 0.2700913
vn 0.2294728 0.9342537 0.2729694
vn 0.4165094 0.8645806 0.2811056
vn 0.4945874 0.8210061 0.2851885
vn 0.6496808 0.7004586 0.2954195
vn 0.7111243 0.6357287 0.300252
vn 0.8214987 0.4777185 0.3113276
vn 0.8616985 0.3966835 0.3164142
vn 0.9196253 0.217581 0.3270287
vn 0.9349208 0.1256219 0.331877
vn 0.9383478 -0.05720435 0.3409269
vn 0.9258109 -0.1542471 0.3450824
vn 0.877897 -0.3249204 0.3517435
vn 0.83515 -0.420387 0.354682
vn 0.7429188 -0.5654282 0.3582773
vn 0.6686022 -0.6510476 0.3593161
vn 0.5420052 -0.7596672 0.3593551
vn 0.4366269 -0.8254717 0.3577057
vn 0.2877261 -0.8899175 0.3539216
vn 0.154983 -0.9243234 0.3487214
vn -0.00257313 -0.9400325 0.3410751
vn -0.1540534 -0.9307929 0.3314996
vn -0.305372 -0.8967773 0.3202161
vn -0.4603171 -0.8334484 0.3057321
vn -0.5898359 -0.7531186 0.2913864
vn -0.7260717 -0.6314653 0.2721606
vn -0.8189769 -0.5136676 0.2557781
vn -0.9107236 -0.3409394 0.2331157
vn -0.9555838 -0.2002987 0.2161946
vn -0.9812667 0.002254713 0.1926408
vn -0.9731885 0.1469197 0.1769711
vn -0.9243712 0.3482631 0.1557261
vn -0.8668328 0.4776536 0.1429964
vn -0.7517965 0.6470832 0.1268279
vn -0.655726 0.7456898 0.1181954
vn -0.4948215 0.8621868 0.1085616
vn -0.3754789 0.9209312 0.1044093
vn -0.1926263 0.9760273 0.1013202
vn -0.06610325 0.9926602 0.1012725
vn 0.1176992 0.9876181 0.1037172
vn 0.237093 0.9655955 0.1068285
vn 0.4060183 0.9068131 0.1133104
vn 0.5073082 0.8536029 0.1183236
vn 0.6501746 0.7490578 0.1272219
vn 0.6900856 0.7121093 0.1291595
vn 0.6900856 0.7121092 0.1291595
g vfx=Helix001_0
f 3/3/3 2/2/2 1/1/1
f 4/4/4 3/3/3 1/1/1
f 1/1/1 2/2/2 5/5/5
f 2/2/2 6/6/6 5/5/5
f 5/5/5 6/6/6 7/7/7
f 6/6/6 8/8/8 7/7/7
f 7/7/7 8/8/8 9/9/9
f 8/8/8 10/10/10 9/9/9
f 9/9/9 10/10/10 11/11/11
f 10/10/10 12/12/12 11/11/11
f 11/11/11 12/12/12 13/13/13
f 12/12/12 14/14/14 13/13/13
f 13/13/13 14/14/14 15/15/15
f 14/14/14 16/16/16 15/15/15
f 15/15/15 16/16/16 17/17/17
f 16/16/16 18/18/18 17/17/17
f 17/17/17 18/18/18 19/19/19
f 18/18/18 20/20/20 19/19/19
f 19/19/19 20/20/20 21/21/21
f 20/20/20 22/22/22 21/21/21
f 21/21/21 22/22/22 23/23/23
f 22/22/22 24/24/24 23/23/23
f 23/23/23 24/24/24 25/25/25
f 24/24/24 26/26/26 25/25/25
f 25/25/25 26/26/26 27/27/27
f 26/26/26 28/28/28 27/27/27
f 27/27/27 28/28/28 29/29/29
f 28/28/28 30/30/30 29/29/29
f 29/29/29 30/30/30 31/31/31
f 30/30/30 32/32/32 31/31/31
f 31/31/31 32/32/32 33/33/33
f 32/32/32 34/34/34 33/33/33
f 33/33/33 34/34/34 35/35/35
f 34/34/34 36/36/36 35/35/35
f 35/35/35 36/36/36 37/37/37
f 36/36/36 38/38/38 37/37/37
f 37/37/37 38/38/38 39/39/39
f 38/38/38 40/40/40 39/39/39
f 39/39/39 40/40/40 41/41/41
f 40/40/40 42/42/42 41/41/41
f 41/41/41 42/42/42 43/43/43
f 42/42/42 44/44/44 43/43/43
f 43/43/43 44/44/44 45/45/45
f 44/44/44 46/46/46 45/45/45
f 45/45/45 46/46/46 47/47/47
f 46/46/46 48/48/48 47/47/47
f 47/47/47 48/48/48 49/49/49
f 48/48/48 50/50/50 49/49/49
f 49/49/49 50/50/50 51/51/51
f 50/50/50 52/52/52 51/51/51
f 51/51/51 52/52/52 53/53/53
f 52/52/52 54/54/54 53/53/53
f 53/53/53 54/54/54 55/55/55
f 54/54/54 56/56/56 55/55/55
f 55/55/55 56/56/56 57/57/57
f 56/56/56 58/58/58 57/57/57
f 57/57/57 58/58/58 59/59/59
f 58/58/58 60/60/60 59/59/59
f 59/59/59 60/60/60 61/61/61
f 60/60/60 62/62/62 61/61/61
f 61/61/61 62/62/62 63/63/63
f 62/62/62 64/64/64 63/63/63
f 63/63/63 64/64/64 65/65/65
f 64/64/64 66/66/66 65/65/65
f 65/65/65 66/66/66 67/67/67
f 66/66/66 68/68/68 67/67/67
f 67/67/67 68/68/68 69/69/69
f 68/68/68 70/70/70 69/69/69
f 69/69/69 70/70/70 71/71/71
f 70/70/70 72/72/72 71/71/71
f 71/71/71 72/72/72 73/73/73
f 72/72/72 74/74/74 73/73/73
f 73/73/73 74/74/74 75/75/75
f 74/74/74 76/76/76 75/75/75
f 75/75/75 76/76/76 77/77/77
f 76/76/76 78/78/78 77/77/77
f 77/77/77 78/78/78 79/79/79
f 78/78/78 80/80/80 79/79/79
f 79/79/79 80/80/80 81/81/81
f 80/80/80 82/82/82 81/81/81
f 81/81/81 82/82/82 83/83/83
f 82/82/82 84/84/84 83/83/83
f 83/83/83 84/84/84 85/85/85
f 84/84/84 86/86/86 85/85/85
f 85/85/85 86/86/86 87/87/87
f 86/86/86 88/88/88 87/87/87
f 87/87/87 88/88/88 89/89/89
f 88/88/88 90/90/90 89/89/89
f 89/89/89 90/90/90 91/91/91
f 90/90/90 92/92/92 91/91/91
f 91/91/91 92/92/92 93/93/93
f 92/92/92 94/94/94 93/93/93
f 93/93/93 94/94/94 95/95/95
f 94/94/94 96/96/96 95/95/95
f 99/99/99 98/98/98 97/97/97
f 100/100/100 99/99/99 97/97/97
f 97/97/97 98/98/98 101/101/101
f 98/98/98 102/102/102 101/101/101
f 101/101/101 102/102/102 103/103/103
f 102/102/102 104/104/104 103/103/103
f 103/103/103 104/104/104 105/105/105
f 104/104/104 106/106/106 105/105/105
f 105/105/105 106/106/106 107/107/107
f 106/106/106 108/108/108 107/107/107
f 107/107/107 108/108/108 109/109/109
f 108/108/108 110/110/110 109/109/109
f 109/109/109 110/110/110 111/111/111
f 110/110/110 112/112/112 111/111/111
f 111/111/111 112/112/112 113/113/113
f 112/112/112 114/114/114 113/113/113
f 113/113/113 114/114/114 115/115/115
f 114/114/114 116/116/116 115/115/115
f 115/115/115 116/116/116 117/117/117
f 116/116/116 118/118/118 117/117/117
f 117/117/117 118/118/118 119/119/119
f 118/118/118 120/120/120 119/119/119
f 119/119/119 120/120/120 121/121/121
f 120/120/120 122/122/122 121/121/121
f 121/121/121 122/122/122 123/123/123
f 122/122/122 124/124/124 123/123/123
f 123/123/123 124/124/124 125/125/125
f 124/124/124 126/126/126 125/125/125
f 125/125/125 126/126/126 127/127/127
f 126/126/126 128/128/128 127/127/127
f 127/127/127 128/128/128 129/129/129
f 128/128/128 130/130/130 129/129/129
f 129/129/129 130/130/130 131/131/131
f 130/130/130 132/132/132 131/131/131
f 131/131/131 132/132/132 133/133/133
f 132/132/132 134/134/134 133/133/133
f 133/133/133 134/134/134 135/135/135
f 134/134/134 136/136/136 135/135/135
f 135/135/135 136/136/136 137/137/137
f 136/136/136 138/138/138 137/137/137
f 137/137/137 138/138/138 139/139/139
f 138/138/138 140/140/140 139/139/139
f 139/139/139 140/140/140 141/141/141
f 140/140/140 142/142/142 141/141/141
f 141/141/141 142/142/142 143/143/143
f 142/142/142 144/144/144 143/143/143
f 143/143/143 144/144/144 145/145/145
f 144/144/144 146/146/146 145/145/145
f 145/145/145 146/146/146 147/147/147
f 146/146/146 148/148/148 147/147/147
f 147/147/147 148/148/148 149/149/149
f 148/148/148 150/150/150 149/149/149
f 149/149/149 150/150/150 151/151/151
f 150/150/150 152/152/152 151/151/151
f 151/151/151 152/152/152 153/153/153
f 152/152/152 154/154/154 153/153/153
f 153/153/153 154/154/154 155/155/155
f 154/154/154 156/156/156 155/155/155
f 155/155/155 156/156/156 157/157/157
f 156/156/156 158/158/158 157/157/157
f 157/157/157 158/158/158 159/159/159
f 158/158/158 160/160/160 159/159/159
f 159/159/159 160/160/160 161/161/161
f 160/160/160 162/162/162 161/161/161
f 161/161/161 162/162/162 163/163/163
f 162/162/162 164/164/164 163/163/163
f 163/163/163 164/164/164 165/165/165
f 164/164/164 166/166/166 165/165/165
f 165/165/165 166/166/166 167/167/167
f 166/166/166 168/168/168 167/167/167
f 167/167/167 168/168/168 169/169/169
f 168/168/168 170/170/170 169/169/169
f 169/169/169 170/170/170 171/171/171
f 170/170/170 172/172/172 171/171/171
f 171/171/171 172/172/172 173/173/173
f 172/172/172 174/174/174 173/173/173
f 173/173/173 174/174/174 175/175/175
f 174/174/174 176/176/176 175/175/175
f 175/175/175 176/176/176 177/177/177
f 176/176/176 178/178/178 177/177/177
f 177/177/177 178/178/178 179/179/179
f 178/178/178 180/180/180 179/179/179
f 179/179/179 180/180/180 181/181/181
f 180/180/180 182/182/182 181/181/181
f 181/181/181 182/182/182 183/183/183
f 182/182/182 184/184/184 183/183/183
f 183/183/183 184/184/184 185/185/185
f 184/184/184 186/186/186 185/185/185
f 185/185/185 186/186/186 187/187/187
f 186/186/186 188/188/188 187/187/187
f 187/187/187 188/188/188 189/189/189
f 188/188/188 190/190/190 189/189/189
f 189/189/189 190/190/190 191/191/191
f 190/190/190 192/192/192 191/191/191
