g vfx=crystal
v 0.02443243 0.2553737 0.3123896
v 0.2690337 0.1126762 0.002106983
v 0.004062692 -0.000952711 0.793781
v 0.2690337 0.1126762 0.002106983
v 0.2221865 -0.1839543 -0.06216022
v 0.004062692 -0.000952711 0.793781
v 0.2221865 -0.1839543 -0.06216022
v 0.004062669 -0.2706604 0.05526115
v 0.004062692 -0.000952711 0.793781
v 0.004062669 -0.2706604 0.05526115
v -0.2269287 -0.1167633 -0.1059699
v 0.004062692 -0.000952711 0.793781
v -0.2269287 -0.1167633 -0.1059699
v -0.1711012 0.182049 -0.18241
v 0.004062692 -0.000952711 0.793781
v -0.1711012 0.182049 -0.18241
v 0.02443243 0.2553737 0.3123896
v 0.004062692 -0.000952711 0.793781
v 0.004062692 -0.0009525744 -0.502256
v 0.004062699 0.2821945 -0.1959704
v -0.1711012 0.182049 -0.18241
v 0.004062692 -0.0009525744 -0.502256
v -0.1711012 0.182049 -0.18241
v -0.2269287 -0.1167633 -0.1059699
v 0.004062692 -0.0009525744 -0.502256
v -0.2269287 -0.1167633 -0.1059699
v 0.004062669 -0.2706604 0.05526115
v 0.004062692 -0.0009525744 -0.502256
v 0.004062669 -0.2706604 0.05526115
v 0.2221865 -0.1839543 -0.06216022
v 0.004062692 -0.0009525744 -0.502256
v 0.2221865 -0.1839543 -0.06216022
v 0.2690337 0.1126762 0.002106983
v -0.1711012 0.182049 -0.18241
v 0.004062699 0.2821945 -0.1959704
v 0.02443243 0.2553737 0.3123896
v 0.004062699 0.2821945 -0.1959704
v 0.004062692 -0.0009525744 -0.502256
v 0.2690337 0.1126762 0.002106983
v 0.2690337 0.1126762 0.002106983
v 0.02443243 0.2553737 0.3123896
v 0.004062699 0.2821945 -0.1959704
vt 0.854131 0.4847
vt 0.487004 0.343608
vt 0.941851 0.988117
vt 0.487004 0.343608
vt 0.248938 0.504937
vt 0.941851 0.988117
vt 0.248938 0.504937
vt 0.244937 0.750715
vt 0.941851 0.988117
vt 0.777525 0.262637
vt 0.465524 0.254564
vt 0.993559 0.996002
vt 0.465524 0.254564
vt 0.205006 0.4128
vt 0.993559 0.996002
vt 0.205006 0.4128
vt 0.481679 0.855777
vt 0.993559 0.996002
vt 0.056049 0.044991
vt 0.011554 0.448177
vt 0.205006 0.4128
vt 0.056049 0.044991
vt 0.205006 0.4128
vt 0.465524 0.254564
vt 0.056049 0.044991
vt 0.465524 0.254564
vt 0.657178 0.008208
vt 0.014974 0.07338
vt 0.05213 0.652134
vt 0.248938 0.504937
vt 0.014974 0.07338
vt 0.248938 0.504937
vt 0.487004 0.343608
vt 0.205006 0.4128
vt 0.080512 0.565045
vt 0.481679 0.855777
vt 0.39983 0.006646
vt 0.014974 0.07338
vt 0.487004 0.343608
vt 0.487004 0.343608
vt 0.844484 0.179538
vt 0.39983 0.006646
vn 0.7535629 0.5664853 0.3335229
vn 0.7535628 0.5664853 0.3335229
vn 0.7535629 0.5664853 0.3335229
vn 0.9359585 -0.2091831 0.2832387
vn 0.9359585 -0.2091831 0.2832386
vn 0.9359585 -0.2091831 0.2832386
vn 0.4873101 -0.820242 0.2995527
vn 0.4873101 -0.820242 0.2995527
vn 0.4873101 -0.820242 0.2995527
vn -0.6543226 -0.7103289 0.2594124
vn -0.6543226 -0.7103289 0.2594124
vn -0.6543226 -0.7103289 0.2594124
vn -0.9489431 0.2319757 0.2137619
vn -0.9489431 0.2319757 0.2137619
vn -0.9489431 0.2319757 0.2137619
vn -0.8156599 0.5242618 0.2446396
vn -0.8156599 0.5242618 0.2446396
vn -0.8156599 0.5242618 0.2446396
vn -0.4271148 0.6639513 -0.6137928
vn -0.4271148 0.6639513 -0.6137928
vn -0.4271148 0.6639513 -0.6137929
vn -0.8678685 0.03538159 -0.4955324
vn -0.8678685 0.03538158 -0.4955325
vn -0.8678685 0.03538158 -0.4955325
vn -0.2836385 -0.8632264 -0.4175996
vn -0.2836385 -0.8632264 -0.4175996
vn -0.2836385 -0.8632264 -0.4175996
vn 0.1224752 -0.8934191 -0.4322059
vn 0.1224752 -0.8934192 -0.4322059
vn 0.1224752 -0.8934192 -0.4322059
vn 0.8883071 -0.04119278 -0.4573987
vn 0.8883071 -0.04119278 -0.4573987
vn 0.8883071 -0.04119278 -0.4573987
vn -0.4914397 0.8684443 0.06551037
vn -0.4914397 0.8684443 0.06551037
vn -0.4914397 0.8684443 0.06551037
vn 0.6989169 0.5251728 -0.4854985
vn 0.6989169 0.5251728 -0.4854985
vn 0.6989168 0.5251728 -0.4854985
vn 0.52609 0.8500966 0.02377046
vn 0.52609 0.8500966 0.02377046
vn 0.52609 0.8500966 0.02377046
g vfx=crystal_0
f 3/3/3 2/2/2 1/1/1
f 6/6/6 5/5/5 4/4/4
f 9/9/9 8/8/8 7/7/7
f 12/12/12 11/11/11 10/10/10
f 15/15/15 14/14/14 13/13/13
f 18/18/18 17/17/17 16/16/16
f 21/21/21 20/20/20 19/19/19
f 24/24/24 23/23/23 22/22/22
f 27/27/27 26/26/26 25/25/25
f 30/30/30 29/29/29 28/28/28
f 33/33/33 32/32/32 31/31/31
f 36/36/36 35/35/35 34/34/34
f 39/39/39 38/38/38 37/37/37
f 42/42/42 41/41/41 40/40/40
