g VolumeLights
v 30.32592 29.66246 -22.40343
v 31.42852 35.91562 -25.88345
v 31.10123 35.97332 -26.02111
v 27.57528 30.14747 -23.56036
v 27.57528 30.14747 -23.56036
v 31.10123 35.97332 -26.02111
v 30.96566 35.99723 -26.35345
v 26.43592 30.34835 -26.35343
v 31.10123 35.97332 -26.68579
v 27.57528 30.14744 -29.1465
v 27.57528 30.14744 -29.1465
v 31.10123 35.97332 -26.68579
v 31.42852 35.91562 -26.82345
v 30.3259 29.66243 -30.30342
v 30.3259 29.66243 -30.30342
v 31.42852 35.91562 -26.82345
v 31.75581 35.85791 -26.68579
v 33.07655 29.17742 -29.14651
v 33.07655 29.17742 -29.14651
v 31.75581 35.85791 -26.68579
v 31.89138 35.834 -26.35345
v 34.2159 28.97653 -26.35343
v 31.75581 35.85791 -26.02111
v 33.07656 29.17743 -23.56036
v 33.07656 29.17743 -23.56036
v 31.75581 35.85791 -26.02111
v 31.42852 35.91562 -25.88345
v 30.32592 29.66246 -22.40343
vt 0.01 0.9758579
vt 0.33095 0.04284962
vt 0.3804636 0.04284962
vt 0.1535176 0.9758579
vt 0.1535176 0.9758579
vt 0.3804636 0.04284962
vt 0.5 0.04284962
vt 0.5 0.9758579
vt 0.6195363 0.04284962
vt 0.8464822 0.9758579
vt 0.8464822 0.9758579
vt 0.6195363 0.04284962
vt 0.66905 0.04284962
vt 0.99 0.9758579
vt 0.99 0.9758579
vt 0.66905 0.04284962
vt 0.6195363 0.04284962
vt 0.8464822 0.9758579
vt 0.8464822 0.9758579
vt 0.6195363 0.04284962
vt 0.5 0.04284962
vt 0.5 0.9758579
vt 0.3804636 0.04284962
vt 0.1535176 0.9758579
vt 0.1535176 0.9758579
vt 0.3804636 0.04284962
vt 0.33095 0.04284962
vt 0.01 0.9758579
vn -0.08345892 -0.4733149 -0.8769308
vn -0.08345892 -0.4733149 -0.8769308
vn 0.5272053 -0.5809913 -0.6200836
vn 0.5272053 -0.5809913 -0.6200836
vn 0.5272053 -0.5809913 -0.6200836
vn 0.5272053 -0.5809913 -0.6200836
vn 0.7801515 -0.6255907 0
vn 0.7801515 -0.6255907 0
vn 0.5272064 -0.5809858 0.6200878
vn 0.5272064 -0.5809858 0.6200878
vn 0.5272064 -0.5809858 0.6200878
vn 0.5272064 -0.5809858 0.6200878
vn -0.08345416 -0.4733088 0.8769345
vn -0.08345416 -0.4733088 0.8769345
vn -0.08345416 -0.4733088 0.8769345
vn -0.08345416 -0.4733088 0.8769345
vn -0.6941211 -0.3656338 0.6200869
vn -0.6941211 -0.3656338 0.6200869
vn -0.6941211 -0.3656338 0.6200869
vn -0.6941211 -0.3656338 0.6200869
vn -0.947068 -0.3210332 0
vn -0.947068 -0.3210332 0
vn -0.6941235 -0.3656373 -0.6200821
vn -0.6941235 -0.3656373 -0.6200821
vn -0.6941235 -0.3656373 -0.6200821
vn -0.6941235 -0.3656373 -0.6200821
vn -0.08345892 -0.4733149 -0.8769308
vn -0.08345892 -0.4733149 -0.8769308
g VolumeLights_0
f 3/3/3 2/2/2 1/1/1
f 4/4/4 3/3/3 1/1/1
f 7/7/7 6/6/6 5/5/5
f 8/8/8 7/7/7 5/5/5
f 9/9/9 7/7/7 8/8/8
f 10/10/10 9/9/9 8/8/8
f 13/13/13 12/12/12 11/11/11
f 14/14/14 13/13/13 11/11/11
f 17/17/17 16/16/16 15/15/15
f 18/18/18 17/17/17 15/15/15
f 21/21/21 20/20/20 19/19/19
f 22/22/22 21/21/21 19/19/19
f 23/23/23 21/21/21 22/22/22
f 24/24/24 23/23/23 22/22/22
f 27/27/27 26/26/26 25/25/25
f 28/28/28 27/27/27 25/25/25
