g Vystup
v 3.991368 0 25.50137
v 3.98757 0 36.50137
v 2.98757 0 36.50103
v -2.013811 0 40.4993
v -2.012429 0 36.4993
v -3.012429 0 36.49896
v 2.986189 0 40.50103
v -2.014156 -1 41.4993
v 2.985844 -1 41.50103
v -3.008631 0 25.49896
v -7.005524 0 16.49758
v 6.994475 0 16.50241
v 4.991714 0 24.50172
v 4.991368 0 25.50172
v 6.991713 0 24.50241
v -5.008286 0 24.49827
v -5.008631 0 25.49827
v -7.008286 0 24.49758
v -2.014156 -1 41.4993
v 2.985844 -1 41.50103
v 2.985844 -1.376108 41.50103
v -2.014156 -1.376108 41.4993
v -7.005528 -5 16.49758
v -7.006909 -5 20.49758
v -14.00691 0 20.49516
v -14.00553 0 16.49516
v 6.994472 -5 16.50241
v 6.993091 -5 20.50241
v 13.99447 0 16.50483
v 13.99309 0 20.50483
v -16.00691 0 20.49447
v -16.00552 0 16.49447
v 15.99447 0 16.50552
v 15.99309 0 20.50552
v -5.006908 -5.952295 20.49827
v -3.006908 -5.952295 20.49896
v -3.005528 -5.952295 16.49896
v -5.005528 -5.952295 16.49827
v -12.00725 -3 21.49585
v -17.00725 -3 21.49412
v -17.00587 -3 17.49413
v -12.00587 -3 17.49585
v 16.99274 -3 21.50587
v 11.99275 -3 21.50414
v 11.99413 -3 17.50414
v 16.99413 -3 17.50587
v 4.991714 -2 24.50172
v 4.991714 0 24.50172
v 6.991713 0 24.50241
v 6.991713 -2 24.50241
v 3.991368 -2 25.50137
v 3.991368 0 25.50137
v 4.991368 0 25.50172
v 4.991368 -2 25.50172
v 2.98757 -1 36.50103
v 2.98757 0 36.50103
v 3.98757 0 36.50137
v 3.98757 -2 36.50137
v -3.012429 -2 36.49896
v -2.012429 -1 36.4993
v -2.012429 0 36.4993
v -3.012429 0 36.49896
v -5.008631 -2 25.49827
v -5.008631 0 25.49827
v -3.008631 0 25.49896
v -3.008631 -2 25.49896
v -7.008286 -2 24.49758
v -7.008286 0 24.49758
v -5.008286 0 24.49827
v -5.008286 -2 24.49827
v -7.005524 0 16.49758
v -7.008286 0 24.49758
v -7.008286 -2 24.49758
v -7.005524 -2 16.49758
v 6.994475 -2 16.50241
v 6.991713 -2 24.50241
v 6.991713 0 24.50241
v 6.994475 0 16.50241
v 4.991714 -2 24.50172
v 4.991368 -2 25.50172
v 4.991368 0 25.50172
v 4.991714 0 24.50172
v -5.008286 0 24.49827
v -5.008631 0 25.49827
v -5.008631 -2 25.49827
v -5.008286 -2 24.49827
v 3.991368 -2 25.50137
v 3.98757 -2 36.50137
v 3.98757 0 36.50137
v 3.991368 0 25.50137
v -3.008631 0 25.49896
v -3.012429 0 36.49896
v -3.012429 -2 36.49896
v -3.008631 -2 25.49896
v 2.986189 0 40.50103
v 2.98757 0 36.50103
v 2.98757 -1 36.50103
v 2.986189 -1 40.50103
v 2.985844 -1 41.50103
v 2.985844 -1.376108 41.50103
v -2.013811 -1 40.4993
v -2.012429 -1 36.4993
v -2.012429 0 36.4993
v -2.013811 0 40.4993
v -2.014156 -1.376108 41.4993
v -2.014156 -1 41.4993
v -16.00552 0 16.49447
v -16.00691 0 20.49447
v -16.00691 -5.952295 20.49447
v -16.00553 -5.952295 16.49447
v 4.994472 -5.952295 16.50172
v 2.994472 -5.952295 16.50103
v 2.993091 -5.952295 20.50103
v 4.993091 -5.952295 20.50172
v 0.9930909 -5.952295 20.50034
v 0.994472 -5.952295 16.50034
v -1.005527 -5.952295 16.49965
v -1.006909 -5.952295 20.49965
v -7.005528 -5.952295 16.49758
v -7.006909 -5.952295 20.49758
v -7.006909 -6.952295 20.49758
v -7.005528 -6.952295 16.49758
v -5.006908 -5.952295 20.49827
v -5.005528 -5.952295 16.49827
v -5.005528 -6.952295 16.49827
v -5.006908 -6.952295 20.49827
v -3.005528 -5.952295 16.49896
v -3.006908 -5.952295 20.49896
v -3.006908 -6.952295 20.49896
v -3.005528 -6.952295 16.49896
v -1.006909 -5.952295 20.49965
v -1.005527 -5.952295 16.49965
v -1.005527 -6.952295 16.49965
v -1.006909 -6.952295 20.49965
v 4.994472 -5.952295 16.50172
v 4.993091 -5.952295 20.50172
v 4.993091 -6.952295 20.50172
v 4.994472 -6.952295 16.50172
v 6.993091 -5.952295 20.50241
v 6.994472 -5.952295 16.50241
v 6.994472 -6.952295 16.50241
v 6.993091 -6.952295 20.50241
v 0.994472 -5.952295 16.50034
v 0.9930909 -5.952295 20.50034
v 0.9930909 -6.952295 20.50034
v 0.994472 -6.952295 16.50034
v 2.993091 -5.952295 20.50103
v 2.994472 -5.952295 16.50103
v 2.994472 -6.952295 16.50103
v 2.993091 -6.952295 20.50103
v 15.99309 0 20.50552
v 15.99447 0 16.50552
v 15.99447 -5.952295 16.50552
v 15.99309 -5.952295 20.50552
v 15.99309 0 20.50552
v 15.99309 -5.952295 20.50552
v 6.993091 -5.952295 20.50241
v 13.99309 0 20.50483
v 6.993091 -5 20.50241
v 4.993091 -5.952295 20.50172
v 2.993091 -5.952295 20.50103
v 0.9930909 -5.952295 20.50034
v -1.006909 -5.952295 20.49965
v -3.006908 -5.952295 20.49896
v -5.006908 -5.952295 20.49827
v -7.006909 -5.952295 20.49758
v -7.006909 -5 20.49758
v -14.00691 0 20.49516
v -16.00691 -5.952295 20.49447
v -16.00691 0 20.49447
v -5.006908 -6.952295 20.49827
v -7.006909 -6.952295 20.49758
v -1.006909 -6.952295 20.49965
v -3.006908 -6.952295 20.49896
v 2.993091 -6.952295 20.50103
v 0.9930909 -6.952295 20.50034
v 6.993091 -6.952295 20.50241
v 4.993091 -6.952295 20.50172
v -12.00725 -4 21.49585
v -12.00725 -3 21.49585
v -12.00587 -3 17.49585
v -12.00587 -4 17.49585
v -17.00587 -4 17.49413
v -17.00587 -3 17.49413
v -17.00725 -3 21.49412
v -17.00725 -4 21.49412
v -17.00725 -4 21.49412
v -17.00725 -3 21.49412
v -12.00725 -3 21.49585
v -12.00725 -4 21.49585
v 16.99274 -4 21.50587
v 16.99274 -3 21.50587
v 16.99413 -3 17.50587
v 16.99413 -4 17.50587
v 11.99413 -4 17.50414
v 11.99413 -3 17.50414
v 11.99275 -3 21.50414
v 11.99275 -4 21.50414
v 11.99275 -4 21.50414
v 11.99275 -3 21.50414
v 16.99274 -3 21.50587
v 16.99274 -4 21.50587
vt -1.991376 26.00137
vt -1.987578 37.00137
vt -0.987578 37.00103
vt 4.013803 40.9993
vt 4.012421 36.9993
vt 5.012421 36.99896
vt -0.9861969 41.00103
vt 4.014148 41.9993
vt -0.9858519 42.00103
vt 5.008623 25.99896
vt 9.005516 16.99758
vt -4.994483 17.00241
vt -2.991722 25.00172
vt -2.991376 26.00172
vt -4.991721 25.00241
vt 7.008278 24.99827
vt 7.008623 25.99827
vt 9.008278 24.99758
vt -3.014148 -3.547705
vt 1.985852 -3.547705
vt 1.985852 -3.923813
vt -3.014148 -3.923813
vt 9.00552 16.99758
vt 9.006901 20.99758
vt 16.0069 20.99516
vt 16.00552 16.99516
vt -4.99448 17.00241
vt -4.993099 21.00241
vt -11.99448 17.00483
vt -11.9931 21.00483
vt 18.0069 20.99447
vt 18.00551 16.99447
vt -13.99448 17.00552
vt -13.9931 21.00552
vt -6.0069 20.99827
vt -4.0069 20.99896
vt -4.00552 16.99896
vt -6.00552 16.99827
vt 14.00725 21.99585
vt 19.00725 21.99412
vt 19.00586 17.99413
vt 14.00587 17.99585
vt -14.99275 22.00587
vt -9.992753 22.00414
vt -9.994133 18.00414
vt -14.99413 18.00587
vt 5.499994 7
vt 5.499994 9
vt 7.499994 9
vt 7.499994 7
vt 4.499994 7
vt 4.499994 9
vt 5.499994 9
vt 5.499994 7
vt 3.499991 8
vt 3.499991 9
vt 4.499991 9
vt 4.499991 7
vt -2.500009 7
vt -1.500009 8
vt -1.500009 9
vt -2.500009 9
vt -4.500006 7
vt -4.500006 9
vt -2.500006 9
vt -2.500006 7
vt -6.500006 7
vt -6.500006 9
vt -4.500006 9
vt -4.500006 7
vt 6.000001 9
vt 14 9
vt 14 7
vt 6.000001 7
vt -5.000005 7
vt -13 7
vt -13 9
vt -5.000005 9
vt -13 7
vt -14 7
vt -14 9
vt -13 9
vt 14 9
vt 15 9
vt 15 7
vt 14 7
vt -14 7
vt -25 7
vt -25 9
vt -14 9
vt 15 9
vt 26 9
vt 26 7
vt 15 7
vt -29 9
vt -25 9
vt -25 8
vt -29 8
vt -30 8
vt -30 7.623892
vt 30 8
vt 26 8
vt 26 9
vt 30 9
vt 31 7.623892
vt 31 8
vt 5.999999 9
vt 10 9
vt 10 3.047704
vt 5.999999 3.047704
vt 6.000007 -4.499992
vt 6.000005 -2.499992
vt 10 -2.499991
vt 10.00001 -4.499991
vt 10 -0.499992
vt 6.000005 -0.499992
vt 6.000005 1.500008
vt 10 1.500008
vt 6.000003 3.047705
vt 10 3.047705
vt 10 2.047705
vt 6.000003 2.047705
vt -9.000003 3.047705
vt -5.000003 3.047705
vt -5.000003 2.047705
vt -9.000003 2.047705
vt 6.000005 3.047705
vt 10 3.047705
vt 10 2.047705
vt 6.000005 2.047705
vt -9.000005 3.047705
vt -5.000005 3.047705
vt -5.000005 2.047705
vt -9.000005 2.047705
vt 6.000007 3.047705
vt 10.00001 3.047705
vt 10.00001 2.047705
vt 6.000007 2.047705
vt -9.000007 3.047705
vt -5.000007 3.047705
vt -5.000007 2.047705
vt -9.000007 2.047705
vt 6.000005 3.047705
vt 10 3.047705
vt 10 2.047705
vt 6.000005 2.047705
vt -9.000005 3.047705
vt -5.000005 3.047705
vt -5.000005 2.047705
vt -9.000005 2.047705
vt -9.000009 9
vt -5.000007 9
vt -5.000007 3.047705
vt -9.000009 3.047705
vt 16.49999 9
vt 16.49999 3.047705
vt 7.499991 3.047705
vt 14.49999 9
vt 7.499991 4
vt 5.499991 3.047705
vt 3.499991 3.047705
vt 1.499992 3.047705
vt -0.500008 3.047705
vt -2.500008 3.047705
vt -4.500008 3.047705
vt -6.500009 3.047705
vt -6.500009 4
vt -13.50001 9
vt -15.50001 3.047704
vt -15.50001 9
vt -4.500008 2.047705
vt -6.500009 2.047705
vt -0.500008 2.047705
vt -2.500008 2.047705
vt 3.499991 2.047705
vt 1.499992 2.047705
vt 7.499991 2.047705
vt 5.499991 2.047705
vt -9.999999 5
vt -9.999999 6
vt -5.999999 6
vt -5.999999 5
vt 6.999999 5
vt 6.999999 6
vt 11 6
vt 11 5
vt -16.50001 5
vt -16.50001 6
vt -11.50001 6
vt -11.50001 5
vt -10.00001 5
vt -10.00001 6
vt -6.000009 6
vt -6.000009 5
vt 7.000007 5
vt 7.000007 6
vt 11.00001 6
vt 11.00001 5
vt 12.49999 5
vt 12.49999 6
vt 17.49999 6
vt 17.49999 5
vn 0 1 0
vn 0 1 0
vn 0 1 0
vn -6.458988E-05 0.9822902 0.1873655
vn 0 1 0
vn 0 1 0
vn -0.0001744884 0.8628567 0.5054488
vn -0.0003192011 0.382684 0.9238792
vn -0.0003193879 0.3826846 0.923879
vn 0 1 0
vn 0 1 0
vn 0 1 0
vn 0 1 0
vn 0 1 0
vn 0 1 0
vn 0 1 0
vn 0 1 0
vn 0 1 0
vn -0.0003192011 0.382684 0.9238792
vn -0.0003193879 0.3826846 0.923879
vn -0.0003457031 0 1
vn -0.0003457031 0 1
vn 0.4046014 0.9144931 0.0001397423
vn 0.2023007 0.9793235 6.98557E-05
vn 0.4046014 0.9144931 0.0001397423
vn 0.2023007 0.9793235 6.988655E-05
vn -0.2023007 0.9793235 -6.985574E-05
vn -0.4046013 0.9144932 -0.0001396806
vn -0.4046013 0.9144932 -0.0001396806
vn -0.2023007 0.9793235 -6.982484E-05
vn 0 1 0
vn 0 1 0
vn 0 1 0
vn 0 1 0
vn 0 -1 0
vn 0 -1 0
vn 0 -1 0
vn 0 -1 0
vn 0 1 0
vn 0 1 0
vn 0 1 0
vn 0 1 0
vn 0 1 0
vn 0 1 0
vn 0 1 0
vn 0 1 0
vn -0.0003442384 0 1
vn -0.0003442384 0 1
vn -0.0003442384 0 1
vn -0.0003442384 0 1
vn -0.0003491212 0 1
vn -0.0003491212 0 1
vn -0.0003491212 0 1
vn -0.0003491212 0 1
vn -0.0003457555 0 1
vn -0.0003466797 0 1
vn -0.0003466797 0 1
vn -0.0003458078 0 1
vn -0.0003445348 0 1
vn -0.0003444825 0 1
vn -0.0003442384 0 1
vn -0.0003442384 0 1
vn -0.0003460693 0 1
vn -0.0003454589 0 1
vn -0.0003460693 0 1
vn -0.0003466796 0 1
vn -0.000345459 0 1
vn -0.000345459 0 1
vn -0.000345459 0 1
vn -0.000345459 0 1
vn -1 0 -0.0003452301
vn -1 0 -0.0003452301
vn -1 0 -0.0003452301
vn -1 0 -0.0003452301
vn 1 0 0.0003452302
vn 1 0 0.0003452302
vn 1 0 0.0003452302
vn 1 0 0.0003452302
vn 1 0 0.0003460693
vn 1 0 0.0003460693
vn 1 0 0.0003460693
vn 1 0 0.0003460693
vn -1 0 -0.0003451538
vn -1 0 -0.0003451538
vn -1 0 -0.0003451538
vn -1 0 -0.0003451538
vn 1 0 0.0003452648
vn 1 0 0.0003452648
vn 1 0 0.0003452648
vn 1 0 0.0003452648
vn -1 0 -0.0003452648
vn -1 0 -0.0003452648
vn -1 0 -0.0003452648
vn -1 0 -0.0003452649
vn 1 0 0.000345255
vn 1 0 0.0003453064
vn 1 0 0.0003453064
vn 1 0 0.0003452036
vn 1 0 0.0003451521
vn 1 0 0.0003451521
vn -1 0 -0.0003453318
vn -1 0 -0.0003454971
vn -1 0 -0.0003454971
vn -1 0 -0.0003451665
vn -1 0 -0.0003450012
vn -1 0 -0.0003450012
vn -1 0 -0.0003460691
vn -1 0 -0.0003466795
vn -1 0 -0.0003460691
vn -1 0 -0.0003454588
vn 0 -1 0
vn 0 -1 0
vn 0 -1 0
vn 0 -1 0
vn 0 -1 0
vn 0 -1 0
vn 0 -1 0
vn 0 -1 0
vn -1 0 -0.0003453063
vn -1 0 -0.0003453063
vn -1 0 -0.0003453063
vn -1 0 -0.0003453063
vn 1 0 0.0003450013
vn 1 0 0.0003450013
vn 1 0 0.0003450013
vn 1 0 0.0003450013
vn -1 0 -0.0003450014
vn -1 0 -0.0003450014
vn -1 0 -0.0003450014
vn -1 0 -0.0003450014
vn 1 0 0.0003454971
vn 1 0 0.0003454971
vn 1 0 0.0003454971
vn 1 0 0.0003454971
vn -1 0 -0.0003452302
vn -1 0 -0.0003452302
vn -1 0 -0.0003452302
vn -1 0 -0.0003452302
vn 1 0 0.0003453065
vn 1 0 0.0003453065
vn 1 0 0.0003453065
vn 1 0 0.0003453065
vn -1 0 -0.0003452683
vn -1 0 -0.0003452683
vn -1 0 -0.0003452683
vn -1 0 -0.0003452683
vn 1 0 0.00034523
vn 1 0 0.00034523
vn 1 0 0.00034523
vn 1 0 0.00034523
vn 1 0 0.0003454589
vn 1 0 0.0003457639
vn 1 0 0.0003454589
vn 1 0 0.0003451538
vn -0.0003453911 0 1
vn -0.0003453233 0 1
vn -0.000345397 0 1
vn -0.0003453718 0 1
vn -0.0003451296 -1.13968E-06 1
vn -0.0003451539 0 1
vn -0.0003450521 0 1
vn -0.000345459 0 1
vn -0.0003462728 5.127953E-06 1
vn -0.0003460695 0 1
vn -0.0003442382 -8.546893E-06 1
vn -0.0003447387 -2.144552E-06 1
vn -0.0003451974 0 1
vn -0.0003453557 0 1
vn -0.0003453911 0 1
vn -0.000345459 0 1
vn -0.0003442381 0 1
vn -0.0003442381 0 1
vn -0.0003466798 0 1
vn -0.0003466798 0 1
vn -0.0003454589 0 1
vn -0.0003454589 0 1
vn -0.0003454591 0 1
vn -0.0003454591 0 1
vn 1 0 0.0003448488
vn 1 0 0.0003448488
vn 1 0 0.0003448488
vn 1 0 0.0003448488
vn -1 0 -0.0003457643
vn -1 0 -0.0003457643
vn -1 0 -0.0003457643
vn -1 0 -0.0003457643
vn -0.0003452148 0 1
vn -0.0003452148 0 1
vn -0.0003452148 0 1
vn -0.0003452148 0 1
vn 1 0 0.000345459
vn 1 0 0.000345459
vn 1 0 0.000345459
vn 1 0 0.000345459
vn -1 0 -0.0003451537
vn -1 0 -0.0003451537
vn -1 0 -0.0003451537
vn -1 0 -0.0003451537
vn -0.0003452149 0 1
vn -0.0003452149 0 1
vn -0.0003452149 0 1
vn -0.0003452149 0 1
g Vystup_0
f 3/3/3 2/2/2 1/1/1
f 3/3/3 1/1/1 4/4/4
f 1/1/1 5/5/5 4/4/4
f 1/1/1 6/6/6 5/5/5
f 3/3/3 4/4/4 7/7/7
f 7/7/7 4/4/4 8/8/8
f 8/8/8 9/9/9 7/7/7
f 6/6/6 1/1/1 10/10/10
f 1/1/1 11/11/11 10/10/10
f 12/12/12 11/11/11 1/1/1
f 1/1/1 13/13/13 12/12/12
f 1/1/1 14/14/14 13/13/13
f 13/13/13 15/15/15 12/12/12
f 16/16/16 10/10/10 11/11/11
f 17/17/17 10/10/10 16/16/16
f 18/18/18 16/16/16 11/11/11
f 21/21/21 20/20/20 19/19/19
f 19/19/19 22/22/22 21/21/21
f 25/25/25 24/24/24 23/23/23
f 23/23/23 26/26/26 25/25/25
f 27/27/27 23/23/23 24/24/24
f 24/24/24 28/28/28 27/27/27
f 29/29/29 27/27/27 28/28/28
f 28/28/28 30/30/30 29/29/29
f 31/31/31 25/25/25 26/26/26
f 26/26/26 32/32/32 31/31/31
f 33/33/33 29/29/29 30/30/30
f 30/30/30 34/34/34 33/33/33
f 37/37/37 36/36/36 35/35/35
f 35/35/35 38/38/38 37/37/37
f 41/41/41 40/40/40 39/39/39
f 39/39/39 42/42/42 41/41/41
f 45/45/45 44/44/44 43/43/43
f 43/43/43 46/46/46 45/45/45
g Vystup_1
f 49/49/49 48/48/48 47/47/47
f 47/47/47 50/50/50 49/49/49
f 53/53/53 52/52/52 51/51/51
f 51/51/51 54/54/54 53/53/53
f 57/57/57 56/56/56 55/55/55
f 57/57/57 55/55/55 58/58/58
f 55/55/55 59/59/59 58/58/58
f 55/55/55 60/60/60 59/59/59
f 60/60/60 61/61/61 59/59/59
f 61/61/61 62/62/62 59/59/59
f 65/65/65 64/64/64 63/63/63
f 63/63/63 66/66/66 65/65/65
f 69/69/69 68/68/68 67/67/67
f 67/67/67 70/70/70 69/69/69
f 73/73/73 72/72/72 71/71/71
f 71/71/71 74/74/74 73/73/73
f 77/77/77 76/76/76 75/75/75
f 75/75/75 78/78/78 77/77/77
f 81/81/81 80/80/80 79/79/79
f 79/79/79 82/82/82 81/81/81
f 85/85/85 84/84/84 83/83/83
f 83/83/83 86/86/86 85/85/85
f 89/89/89 88/88/88 87/87/87
f 87/87/87 90/90/90 89/89/89
f 93/93/93 92/92/92 91/91/91
f 91/91/91 94/94/94 93/93/93
f 97/97/97 96/96/96 95/95/95
f 97/97/97 95/95/95 98/98/98
f 95/95/95 99/99/99 98/98/98
f 99/99/99 100/100/100 98/98/98
f 103/103/103 102/102/102 101/101/101
f 103/103/103 101/101/101 104/104/104
f 101/101/101 105/105/105 104/104/104
f 105/105/105 106/106/106 104/104/104
f 109/109/109 108/108/108 107/107/107
f 107/107/107 110/110/110 109/109/109
f 113/113/113 112/112/112 111/111/111
f 111/111/111 114/114/114 113/113/113
f 117/117/117 116/116/116 115/115/115
f 115/115/115 118/118/118 117/117/117
f 121/121/121 120/120/120 119/119/119
f 119/119/119 122/122/122 121/121/121
f 125/125/125 124/124/124 123/123/123
f 123/123/123 126/126/126 125/125/125
f 129/129/129 128/128/128 127/127/127
f 127/127/127 130/130/130 129/129/129
f 133/133/133 132/132/132 131/131/131
f 131/131/131 134/134/134 133/133/133
f 137/137/137 136/136/136 135/135/135
f 135/135/135 138/138/138 137/137/137
f 141/141/141 140/140/140 139/139/139
f 139/139/139 142/142/142 141/141/141
f 145/145/145 144/144/144 143/143/143
f 143/143/143 146/146/146 145/145/145
f 149/149/149 148/148/148 147/147/147
f 147/147/147 150/150/150 149/149/149
f 153/153/153 152/152/152 151/151/151
f 151/151/151 154/154/154 153/153/153
f 157/157/157 156/156/156 155/155/155
f 157/157/157 155/155/155 158/158/158
f 157/157/157 158/158/158 159/159/159
f 157/157/157 159/159/159 160/160/160
f 159/159/159 161/161/161 160/160/160
f 159/159/159 162/162/162 161/161/161
f 159/159/159 163/163/163 162/162/162
f 159/159/159 164/164/164 163/163/163
f 159/159/159 165/165/165 164/164/164
f 159/159/159 166/166/166 165/165/165
f 159/159/159 167/167/167 166/166/166
f 167/167/167 168/168/168 166/166/166
f 168/168/168 169/169/169 166/166/166
f 168/168/168 170/170/170 169/169/169
f 166/166/166 171/171/171 165/165/165
f 166/166/166 172/172/172 171/171/171
f 164/164/164 173/173/173 163/163/163
f 164/164/164 174/174/174 173/173/173
f 162/162/162 175/175/175 161/161/161
f 162/162/162 176/176/176 175/175/175
f 160/160/160 178/178/178 177/177/177
f 157/157/157 160/160/160 177/177/177
f 181/181/181 180/180/180 179/179/179
f 179/179/179 182/182/182 181/181/181
f 185/185/185 184/184/184 183/183/183
f 183/183/183 186/186/186 185/185/185
f 189/189/189 188/188/188 187/187/187
f 187/187/187 190/190/190 189/189/189
f 193/193/193 192/192/192 191/191/191
f 191/191/191 194/194/194 193/193/193
f 197/197/197 196/196/196 195/195/195
f 195/195/195 198/198/198 197/197/197
f 201/201/201 200/200/200 199/199/199
f 199/199/199 202/202/202 201/201/201
