g Wall
v 50.4996 25 -55.50003
v 50.4996 40.375 -55.50004
v 50.50003 40.37501 55.49959
v 50.50003 25 55.49959
v 50.50003 25 55.49959
v 50.50003 40.37501 55.49959
v -50.49961 40.37499 55.50003
v -50.49961 24.99999 55.50003
v -50.50004 24.99998 -55.4996
v -50.49961 24.99999 55.50003
v -50.49961 40.37499 55.50003
v -50.50004 40.37498 -55.49961
v -50.50004 24.99998 -55.4996
v -50.50004 40.37498 -55.49961
v 50.4996 40.375 -55.50004
v 50.4996 25 -55.50003
v -50.49961 40.37499 55.50003
v 50.50003 40.37501 55.49959
v 50.4996 40.375 -55.50004
v -50.50004 40.37498 -55.49961
vt -14.04275 -0.7066016
vt -14.04275 3.043395
vt 13.70716 3.043393
vt 13.70716 -0.706604
vt -12.125 -0.706604
vt -12.125 3.043393
vt 13.1249 3.043389
vt 13.1249 -0.7066073
vt 15.04265 -0.706605
vt -12.70726 -0.7066073
vt -12.70726 3.043389
vt 15.04265 3.043392
vt -12.12501 -0.706605
vt -12.12501 3.043392
vt 13.1249 3.043395
vt 13.1249 -0.7066016
vt 25.74981 -27.25001
vt -24.75001 -27.2498
vt -24.74981 28.25001
vt 25.75001 28.24981
vn -1 0 0
vn -1 0 0
vn -1 0 0
vn -1 0 0
vn 0 0 -1
vn 0 0 -1
vn 0 0 -1
vn 0 0 -1
vn 1 0 0
vn 1 0 0
vn 1 0 0
vn 1 0 0
vn 0 0 1
vn 0 0 1
vn 0 0 1
vn 0 0 1
vn 0 -1 0
vn 0 -1 0
vn 0 -1 0
vn 0 -1 0
g Wall_0
f 3/3/3 2/2/2 1/1/1
f 4/4/4 3/3/3 1/1/1
f 7/7/7 6/6/6 5/5/5
f 8/8/8 7/7/7 5/5/5
f 11/11/11 10/10/10 9/9/9
f 12/12/12 11/11/11 9/9/9
f 15/15/15 14/14/14 13/13/13
f 16/16/16 15/15/15 13/13/13
g Wall_1
f 19/19/19 18/18/18 17/17/17
f 20/20/20 19/19/19 17/17/17
