g Water
v -258.819 965.9258 -2.999842
v 0 1000 -2.999837
v -500 866.0254 -2.999859
v 258.819 965.9258 -2.999842
v -707.1067 707.1067 -2.999885
v 500 866.0254 -2.999859
v -866.0254 500 -2.999918
v 707.1067 707.1067 -2.999885
v -965.9258 258.819 -15.57011
v 866.0254 500 -2.999918
v -1000 0 -15.57016
v 965.9258 258.819 -2.999958
v -965.9258 -258.819 -15.5702
v 1000 4.887621E-07 -3
v -866.0254 -500 -15.57024
v 965.9258 -258.819 -3.000042
v -707.1067 -707.1067 -15.57027
v 866.0254 -500 -3.000081
v -500 -866.0254 -3.000141
v 707.1067 -707.1067 -3.000115
v -258.819 -965.9258 -3.000157
v 500 -866.0254 -3.000141
v 0 -1000 -3.000163
v 258.819 -965.9258 -3.000157
vt 518.1379 -1931.352
vt 0.5 -1999.5
vt 1000.5 -1731.551
vt -517.1384 -1931.352
vt 1414.713 -1413.713
vt -999.5001 -1731.551
vt 1732.551 -999.5
vt -1413.714 -1413.714
vt 1932.352 -517.1381
vt -1731.551 -999.5
vt 2000.5 0.5
vt -1931.352 -517.1381
vt 1932.352 518.1381
vt -1999.5 0.5
vt 1732.551 1000.5
vt -1931.352 518.1381
vt 1414.714 1414.714
vt -1731.551 1000.5
vt 1000.5 1732.551
vt -1413.713 1414.713
vt 518.1384 1932.352
vt -999.5001 1732.551
vt 0.5 2000.5
vt -517.1379 1932.352
vn 0 0 1
vn 0 0 1
vn 0 0 1
vn 0 0 1
vn 0 0 1
vn 0 0 1
vn 0.002416224 -0.01835321 0.9998286
vn 0.0003382184 -0.01994738 0.999801
vn -0.001990056 -0.0196411 0.9998051
vn -0.006425875 -0.002124866 0.9999771
vn -0.006443559 -0.0008067102 0.9999789
vn -0.006211048 -0.00138894 0.9999797
vn -0.006211048 -0.001388941 0.9999797
vn -0.006443559 -0.0008067128 0.9999789
vn -0.006425875 -0.002124867 0.9999771
vn -0.00722184 -0.0001208561 0.9999739
vn -0.01012503 0.01908651 0.9997665
vn -0.008046716 0.02068064 0.9997538
vn -0.005228776 0.0195139 0.9997959
vn 0 0 1
vn 0 0 1
vn 0 0 1
vn 0 0 1
vn 0 0 1
g Water_0
f 3/3/3 2/2/2 1/1/1
f 2/2/2 3/3/3 4/4/4
f 5/5/5 4/4/4 3/3/3
f 4/4/4 5/5/5 6/6/6
f 7/7/7 6/6/6 5/5/5
f 6/6/6 7/7/7 8/8/8
f 9/9/9 8/8/8 7/7/7
f 8/8/8 9/9/9 10/10/10
f 11/11/11 10/10/10 9/9/9
f 10/10/10 11/11/11 12/12/12
f 13/13/13 12/12/12 11/11/11
f 12/12/12 13/13/13 14/14/14
f 15/15/15 14/14/14 13/13/13
f 14/14/14 15/15/15 16/16/16
f 17/17/17 16/16/16 15/15/15
f 16/16/16 17/17/17 18/18/18
f 19/19/19 18/18/18 17/17/17
f 18/18/18 19/19/19 20/20/20
f 21/21/21 20/20/20 19/19/19
f 20/20/20 21/21/21 22/22/22
f 23/23/23 22/22/22 21/21/21
f 22/22/22 23/23/23 24/24/24
