g Water
v 47.1735 -4.814575 55.80138
v 50.13829 -4.81458 52.74534
v 50.13829 -4.81458 55.80138
v 47.1735 -4.814575 52.74534
v 50.13829 -5.01457 55.23148
v 50.13829 -4.81458 52.74534
v 50.13829 -5.01457 52.74534
v 50.13829 -4.81458 55.80138
v 50.13829 -205 55.80136
v 50.13829 -205 55.23146
v 47.1735 -5.014565 52.74534
v 47.1735 -4.814575 55.80138
v 47.1735 -5.014565 55.23148
v 47.1735 -4.814575 52.74534
v 47.1735 -205 55.23147
v 47.1735 -205 55.80136
v 47.1735 -205 55.23147
v 50.13829 -205 55.80136
v 50.13829 -205 55.23146
v 47.1735 -205 55.80136
v 47.1735 -5.014565 55.23148
v 50.13829 -205 55.23146
v 50.13829 -5.01457 55.23148
v 47.1735 -205 55.23147
v 50.13829 -4.81458 55.80138
v 47.1735 -205 55.80136
v 47.1735 -4.814575 55.80138
v 50.13829 -205 55.80136
v -18.51272 5.999985 9.615678
v -15.32463 5.999987 6.624279
v -18.51272 5.999985 6.624279
v -15.32463 5.999987 9.615678
v -18.51272 6.199985 9.615678
v -15.32463 6.199986 6.624279
v -15.32463 6.199986 9.615678
v -18.51272 6.199985 6.624279
v -18.51272 6.199985 9.815678
v -15.32463 6.199986 9.815678
v -18.51272 5.999985 9.815678
v -15.32463 6.199986 9.815678
v -15.32463 5.999987 9.815678
v -18.51272 6.199985 9.815678
v -18.51272 -2.441406E-06 9.815678
v -15.32463 -1.220703E-06 9.815678
v -15.32463 5.999987 9.615678
v -15.32463 6.199986 6.624279
v -15.32463 5.999987 6.624279
v -15.32463 6.199986 9.615678
v -15.32463 6.199986 9.815678
v -15.32463 5.999987 9.815678
v -15.32463 -1.220703E-06 9.815678
v -15.32463 -1.220703E-06 9.615678
v -15.32463 -0.6435913 9.815678
v -15.32463 -0.6435913 9.615678
v -15.32463 -1.220703E-06 24.98847
v -15.32463 -0.6435913 24.98847
v -15.32463 -1.220703E-06 26.48847
v -15.32463 -0.6435913 26.48847
v -15.32463 -200.6436 26.48847
v -15.32463 -200.6436 24.98847
v -15.32463 5.999987 6.624279
v -18.51272 6.199985 6.624279
v -18.51272 5.999985 6.624279
v -15.32463 6.199986 6.624279
v -18.51272 5.999985 6.624279
v -18.51272 6.199985 9.615678
v -18.51272 5.999985 9.615678
v -18.51272 6.199985 6.624279
v -18.51272 5.999985 9.815678
v -18.51272 6.199985 9.815678
v -18.51272 -2.441406E-06 9.615678
v -18.51272 -2.441406E-06 9.815678
v -18.51272 -0.6435913 9.615678
v -18.51272 -0.6435913 9.815678
v -18.51272 -0.6435913 24.98847
v -18.51272 -2.441406E-06 24.98847
v -18.51272 -0.6435913 26.48847
v -18.51272 -2.441406E-06 26.48847
v -18.51272 -200.6436 24.98847
v -18.51272 -200.6436 26.48847
v -18.51272 -0.6435913 9.615678
v -15.32463 -0.6435913 9.815678
v -15.32463 -0.6435913 9.615678
v -18.51272 -0.6435913 9.815678
v -15.32463 -0.6435913 24.98847
v -18.51272 -0.6435913 24.98847
v -18.51272 5.999985 9.615678
v -15.32463 -1.220703E-06 9.615678
v -15.32463 5.999987 9.615678
v -18.51272 -2.441406E-06 9.615678
v -15.32463 -0.6435913 9.615678
v -18.51272 -0.6435913 9.615678
v -15.32463 -1.220703E-06 26.48847
v -18.51272 -0.6435913 26.48847
v -18.51272 -2.441406E-06 26.48847
v -15.32463 -0.6435913 26.48847
v -18.51272 -200.6436 26.48847
v -15.32463 -200.6436 26.48847
v -15.32463 -1.220703E-06 9.815678
v -18.51272 -2.441406E-06 24.98847
v -18.51272 -2.441406E-06 9.815678
v -15.32463 -1.220703E-06 24.98847
v -18.51272 -2.441406E-06 26.48847
v -15.32463 -1.220703E-06 26.48847
v -18.51272 -200.6436 24.98847
v -15.32463 -200.6436 26.48847
v -15.32463 -200.6436 24.98847
v -18.51272 -200.6436 26.48847
v -18.51272 -0.6435913 24.98847
v -15.32463 -200.6436 24.98847
v -15.32463 -0.6435913 24.98847
v -18.51272 -200.6436 24.98847
v 53.53974 4.374995 22.43839
v 61.03974 -195.625 22.43839
v 61.03974 4.374995 22.43839
v 53.53974 -195.625 22.43839
v 53.53974 4.374995 22.63839
v 61.03974 -195.625 22.63839
v 53.53974 -195.625 22.63839
v 61.03974 4.374995 22.63839
v 53.53974 4.999995 22.43839
v 61.03974 4.999995 18.40386
v 61.03974 4.999995 22.43839
v 53.53974 4.999995 18.40387
v 60.23257 4.999994 9.403868
v 53.53974 4.999995 9.403862
v 64.22983 4.999995 18.40387
v 64.22983 4.999995 9.403872
v 53.53974 4.999995 23.93839
v 61.03974 4.999995 23.93839
v 61.03974 4.999995 23.93839
v 53.53974 4.374995 23.93839
v 53.53974 4.999995 23.93839
v 61.03974 4.374995 23.93839
v 53.53974 -195.625 23.93839
v 61.03974 -195.625 23.93839
v 53.53974 4.999995 22.43839
v 53.53974 4.374995 23.93839
v 53.53974 4.374995 22.43839
v 53.53974 4.999995 23.93839
v 53.53974 -195.625 22.43839
v 53.53974 -195.625 23.93839
v 53.53974 -195.625 22.43839
v 61.03974 -195.625 23.93839
v 61.03974 -195.625 22.43839
v 53.53974 -195.625 23.93839
v 61.03974 4.374995 22.43839
v 61.03974 4.999995 23.93839
v 61.03974 4.999995 22.43839
v 61.03974 4.374995 23.93839
v 61.03974 -195.625 23.93839
v 61.03974 -195.625 22.43839
v 53.53974 4.999995 22.63839
v 61.03974 4.999995 18.40386
v 53.53974 4.999995 18.40387
v 61.03974 4.999995 22.63839
v 53.53974 4.999995 23.93839
v 61.03974 4.999995 23.93839
v 53.53974 4.999995 22.63839
v 53.53974 4.374995 23.93839
v 53.53974 4.999995 23.93839
v 53.53974 4.374995 22.63839
v 53.53974 -195.625 22.63839
v 53.53974 -195.625 23.93839
v 53.53974 -195.625 22.63839
v 61.03974 -195.625 23.93839
v 53.53974 -195.625 23.93839
v 61.03974 -195.625 22.63839
v 61.03974 4.374995 22.63839
v 61.03974 4.999995 23.93839
v 61.03974 4.374995 23.93839
v 61.03974 4.999995 22.63839
v 61.03974 -195.625 23.93839
v 61.03974 -195.625 22.63839
vt 5.443668 -58.36444
vt 8.408459 -55.3084
vt 8.408459 -58.36444
vt 5.443668 -55.3084
vt -57.79454 -9.390295
vt -55.3084 -9.190305
vt -55.3084 -9.390295
vt -58.36444 -9.190304
vt -58.36446 -209.3757
vt -57.79457 -209.3757
vt 56.3084 -9.390289
vt 59.36444 -9.190299
vt 58.79454 -9.390289
vt 56.3084 -9.1903
vt 58.79457 -209.3757
vt 59.36447 -209.3757
vt -4.443638 -57.79457
vt -7.408428 -58.36446
vt -7.408428 -57.79457
vt -4.443638 -58.36447
vt -4.443668 -9.390289
vt -7.408428 -209.3757
vt -7.408459 -9.390295
vt -4.443638 -209.3757
vt 8.408459 -9.190304
vt 5.443638 -209.3757
vt 5.443668 -9.190299
vt 8.408428 -209.3757
vt 61.24255 -12.17873
vt 58.05446 -9.187334
vt 61.24255 -9.187334
vt 58.05446 -12.17873
vt -60.24255 -12.17873
vt -57.05446 -9.187334
vt -57.05446 -12.17873
vt -60.24255 -9.187334
vt -60.24255 -12.37873
vt -57.05446 -12.37873
vt -60.24255 1.624262
vt -57.05446 1.824263
vt -57.05446 1.624263
vt -60.24255 1.824262
vt -60.24255 -4.375725
vt -57.05446 -4.375725
vt -12.17873 1.624263
vt -9.187334 1.824263
vt -9.187334 1.624263
vt -12.17873 1.824263
vt -12.37873 1.824263
vt -12.37873 1.624263
vt -12.37873 -4.375725
vt -12.17873 -4.375725
vt -12.37873 -5.019315
vt -12.17873 -5.019315
vt -27.55152 -4.375722
vt -27.55152 -5.019312
vt -29.05152 -4.375721
vt -29.05152 -5.019311
vt -29.05156 -205.0193
vt -27.55156 -205.0193
vt 58.05446 1.624263
vt 61.24255 1.824262
vt 61.24255 1.624262
vt 58.05446 1.824263
vt 10.18733 1.624262
vt 13.17873 1.824262
vt 13.17873 1.624262
vt 10.18733 1.824262
vt 13.37873 1.624262
vt 13.37873 1.824262
vt 13.17873 -4.375725
vt 13.37873 -4.375725
vt 13.17873 -5.019314
vt 13.37873 -5.019314
vt 28.55152 -5.019311
vt 28.55152 -4.375722
vt 30.05152 -5.019311
vt 30.05152 -4.375722
vt 28.55156 -205.0193
vt 30.05156 -205.0193
vt 61.24255 -12.17873
vt 58.05446 -12.37873
vt 58.05446 -12.17873
vt 61.24255 -12.37873
vt 58.05446 -27.55152
vt 61.24255 -27.55152
vt 61.24255 1.624262
vt 58.05446 -4.375725
vt 58.05446 1.624263
vt 61.24255 -4.375725
vt 58.05446 -5.019315
vt 61.24255 -5.019314
vt -57.05446 -4.375721
vt -60.24255 -5.019311
vt -60.24255 -4.375722
vt -57.05446 -5.019311
vt -60.24258 -205.0193
vt -57.05449 -205.0193
vt -57.05446 -12.37873
vt -60.24255 -27.55152
vt -60.24255 -12.37873
vt -57.05446 -27.55152
vt -60.24255 -29.05152
vt -57.05446 -29.05152
vt 61.24258 -27.55156
vt 58.05449 -29.05156
vt 58.05449 -27.55156
vt 61.24258 -29.05156
vt 61.24255 -5.019311
vt 58.05449 -205.0193
vt 58.05446 -5.019312
vt 61.24258 -205.0193
vt -10.80991 -0.0007362366
vt -18.30988 -200.0008
vt -18.30991 -0.0007371902
vt -10.80988 -200.0008
vt 11.80991 -0.0007362366
vt 19.30988 -200.0008
vt 11.80988 -200.0008
vt 19.30991 -0.0007371902
vt 11.80991 -25.00145
vt 19.30991 -20.96692
vt 19.30991 -25.00145
vt 11.80991 -20.96693
vt 18.50274 -11.96693
vt 11.80991 -11.96692
vt 22.5 -20.96693
vt 22.5 -11.96693
vt 11.80991 -26.50145
vt 19.30991 -26.50145
vt 19.30991 0.6242633
vt 11.80991 -0.0007357597
vt 11.80991 0.6242642
vt 19.30991 -0.0007367134
vt 11.80988 -200.0008
vt 19.30988 -200.0008
vt 26.00145 0.6242638
vt 27.50145 -0.0007357597
vt 26.00145 -0.0007362366
vt 27.50145 0.6242642
vt 26.00149 -200.0008
vt 27.50149 -200.0008
vt -10.80988 -25.00149
vt -18.30988 -26.50149
vt -18.30988 -25.00149
vt -10.80988 -26.50149
vt -25.00145 -0.0007371902
vt -26.50145 0.6242633
vt -25.00145 0.6242628
vt -26.50145 -0.0007367134
vt -26.50149 -200.0008
vt -25.00149 -200.0008
vt -10.80991 -25.20145
vt -18.30991 -20.96692
vt -10.80991 -20.96693
vt -18.30991 -25.20145
vt -10.80991 -26.50145
vt -18.30991 -26.50145
vt -25.20145 0.6242638
vt -26.50145 -0.0007357597
vt -26.50145 0.6242642
vt -25.20145 -0.0007362366
vt -25.20149 -200.0008
vt -26.50149 -200.0008
vt 11.80988 -25.20149
vt 19.30988 -26.50149
vt 11.80988 -26.50149
vt 19.30988 -25.20149
vt 26.20145 -0.0007371902
vt 27.50145 0.6242633
vt 27.50145 -0.0007367134
vt 26.20145 0.6242628
vt 27.50149 -200.0008
vt 26.20149 -200.0008
vn 0 1 0
vn 0 1 0
vn 0 1 0
vn 0 1 0
vn 1 0 0
vn 1 0 0
vn 1 0 0
vn 1 0 0
vn 1 0 0
vn 1 0 0
vn -1 0 0
vn -1 0 0
vn -1 0 0
vn -1 0 0
vn -1 0 0
vn -1 0 0
vn 0 -1 0
vn 0 -1 0
vn 0 -1 0
vn 0 -1 0
vn 0 0 -1
vn 0 0 -1
vn 0 0 -1
vn 0 0 -1
vn 0 0 1
vn 0 0 1
vn 0 0 1
vn 0 0 1
vn 0 -1 0
vn 0 -1 0
vn 0 -1 0
vn 0 -1 0
vn 0 1 0
vn 0 1 0
vn 0 1 0
vn 0 1 0
vn 0 1 0
vn 0 1 0
vn 0 0 1
vn 0 0 1
vn 0 0 1
vn 0 0 1
vn 0 0 1
vn 0 0 1
vn 1 0 0
vn 1 0 0
vn 1 0 0
vn 1 0 0
vn 1 0 0
vn 1 0 0
vn 1 0 0
vn 1 0 0
vn 1 0 0
vn 1 0 0
vn 1 0 0
vn 1 0 0
vn 1 0 0
vn 1 0 0
vn 1 0 0
vn 1 0 0
vn 0 0 -1
vn 0 0 -1
vn 0 0 -1
vn 0 0 -1
vn -1 0 0
vn -1 0 0
vn -1 0 0
vn -1 0 0
vn -1 0 0
vn -1 0 0
vn -1 0 0
vn -1 0 0
vn -1 0 0
vn -1 0 0
vn -1 0 0
vn -1 0 0
vn -1 0 0
vn -1 0 0
vn -1 0 0
vn -1 0 0
vn 0 -1 0
vn 0 -1 0
vn 0 -1 0
vn 0 -1 0
vn 0 -1 0
vn 0 -1 0
vn 0 0 -1
vn 0 0 -1
vn 0 0 -1
vn 0 0 -1
vn 0 0 -1
vn 0 0 -1
vn 0 0 1
vn 0 0 1
vn 0 0 1
vn 0 0 1
vn 0 0 1
vn 0 0 1
vn 0 1 0
vn 0 1 0
vn 0 1 0
vn 0 1 0
vn 0 1 0
vn 0 1 0
vn 0 -1 0
vn 0 -1 0
vn 0 -1 0
vn 0 -1 0
vn 0 0 -1
vn 0 0 -1
vn 0 0 -1
vn 0 0 -1
vn 0 0 -1
vn 0 0 -1
vn 0 0 -1
vn 0 0 -1
vn 0 0 1
vn 0 0 1
vn 0 0 1
vn 0 0 1
vn 0 1 0
vn 0 1 0
vn 0 1 0
vn 0 1 0
vn 0 1 0
vn 0 1 0
vn 0 1 0
vn 0 1 0
vn 0 1 0
vn 0 1 0
vn 0 0 1
vn 0 0 1
vn 0 0 1
vn 0 0 1
vn 0 0 1
vn 0 0 1
vn -1 0 0
vn -1 0 0
vn -1 0 0
vn -1 0 0
vn -1 0 0
vn -1 0 0
vn 0 -1 0
vn 0 -1 0
vn 0 -1 0
vn 0 -1 0
vn 1 0 0
vn 1 0 0
vn 1 0 0
vn 1 0 0
vn 1 0 0
vn 1 0 0
vn 0 -1 0
vn 0 -1 0
vn 0 -1 0
vn 0 -1 0
vn 0 -1 0
vn 0 -1 0
vn 1 0 0
vn 1 0 0
vn 1 0 0
vn 1 0 0
vn 1 0 0
vn 1 0 0
vn 0 1 0
vn 0 1 0
vn 0 1 0
vn 0 1 0
vn -1 0 0
vn -1 0 0
vn -1 0 0
vn -1 0 0
vn -1 0 0
vn -1 0 0
g Water_0
f 3/3/3 2/2/2 1/1/1
f 4/4/4 1/1/1 2/2/2
f 7/7/7 6/6/6 5/5/5
f 8/8/8 5/5/5 6/6/6
f 8/8/8 9/9/9 5/5/5
f 10/10/10 5/5/5 9/9/9
f 13/13/13 12/12/12 11/11/11
f 14/14/14 11/11/11 12/12/12
f 13/13/13 15/15/15 12/12/12
f 16/16/16 12/12/12 15/15/15
f 19/19/19 18/18/18 17/17/17
f 20/20/20 17/17/17 18/18/18
f 23/23/23 22/22/22 21/21/21
f 24/24/24 21/21/21 22/22/22
f 27/27/27 26/26/26 25/25/25
f 28/28/28 25/25/25 26/26/26
f 31/31/31 30/30/30 29/29/29
f 32/32/32 29/29/29 30/30/30
f 35/35/35 34/34/34 33/33/33
f 36/36/36 33/33/33 34/34/34
f 33/33/33 37/37/37 35/35/35
f 38/38/38 35/35/35 37/37/37
f 41/41/41 40/40/40 39/39/39
f 42/42/42 39/39/39 40/40/40
f 39/39/39 43/43/43 41/41/41
f 44/44/44 41/41/41 43/43/43
f 47/47/47 46/46/46 45/45/45
f 48/48/48 45/45/45 46/46/46
f 48/48/48 49/49/49 45/45/45
f 50/50/50 45/45/45 49/49/49
f 50/50/50 51/51/51 45/45/45
f 52/52/52 45/45/45 51/51/51
f 51/51/51 53/53/53 52/52/52
f 54/54/54 52/52/52 53/53/53
f 51/51/51 55/55/55 53/53/53
f 56/56/56 53/53/53 55/55/55
f 55/55/55 57/57/57 56/56/56
f 58/58/58 56/56/56 57/57/57
f 58/58/58 59/59/59 56/56/56
f 60/60/60 56/56/56 59/59/59
f 63/63/63 62/62/62 61/61/61
f 64/64/64 61/61/61 62/62/62
f 67/67/67 66/66/66 65/65/65
f 68/68/68 65/65/65 66/66/66
f 67/67/67 69/69/69 66/66/66
f 70/70/70 66/66/66 69/69/69
f 67/67/67 71/71/71 69/69/69
f 72/72/72 69/69/69 71/71/71
f 71/71/71 73/73/73 72/72/72
f 74/74/74 72/72/72 73/73/73
f 74/74/74 75/75/75 72/72/72
f 76/76/76 72/72/72 75/75/75
f 75/75/75 77/77/77 76/76/76
f 78/78/78 76/76/76 77/77/77
f 75/75/75 79/79/79 77/77/77
f 80/80/80 77/77/77 79/79/79
f 83/83/83 82/82/82 81/81/81
f 84/84/84 81/81/81 82/82/82
f 82/82/82 85/85/85 84/84/84
f 86/86/86 84/84/84 85/85/85
f 89/89/89 88/88/88 87/87/87
f 90/90/90 87/87/87 88/88/88
f 88/88/88 91/91/91 90/90/90
f 92/92/92 90/90/90 91/91/91
f 95/95/95 94/94/94 93/93/93
f 96/96/96 93/93/93 94/94/94
f 94/94/94 97/97/97 96/96/96
f 98/98/98 96/96/96 97/97/97
f 101/101/101 100/100/100 99/99/99
f 102/102/102 99/99/99 100/100/100
f 100/100/100 103/103/103 102/102/102
f 104/104/104 102/102/102 103/103/103
f 107/107/107 106/106/106 105/105/105
f 108/108/108 105/105/105 106/106/106
f 111/111/111 110/110/110 109/109/109
f 112/112/112 109/109/109 110/110/110
f 115/115/115 114/114/114 113/113/113
f 116/116/116 113/113/113 114/114/114
f 119/119/119 118/118/118 117/117/117
f 120/120/120 117/117/117 118/118/118
f 123/123/123 122/122/122 121/121/121
f 124/124/124 121/121/121 122/122/122
f 122/122/122 125/125/125 124/124/124
f 126/126/126 124/124/124 125/125/125
f 122/122/122 127/127/127 125/125/125
f 128/128/128 125/125/125 127/127/127
f 121/121/121 129/129/129 123/123/123
f 130/130/130 123/123/123 129/129/129
f 133/133/133 132/132/132 131/131/131
f 134/134/134 131/131/131 132/132/132
f 132/132/132 135/135/135 134/134/134
f 136/136/136 134/134/134 135/135/135
f 139/139/139 138/138/138 137/137/137
f 140/140/140 137/137/137 138/138/138
f 139/139/139 141/141/141 138/138/138
f 142/142/142 138/138/138 141/141/141
f 145/145/145 144/144/144 143/143/143
f 146/146/146 143/143/143 144/144/144
f 149/149/149 148/148/148 147/147/147
f 150/150/150 147/147/147 148/148/148
f 150/150/150 151/151/151 147/147/147
f 152/152/152 147/147/147 151/151/151
f 155/155/155 154/154/154 153/153/153
f 156/156/156 153/153/153 154/154/154
f 153/153/153 156/156/156 157/157/157
f 158/158/158 157/157/157 156/156/156
f 161/161/161 160/160/160 159/159/159
f 162/162/162 159/159/159 160/160/160
f 162/162/162 160/160/160 163/163/163
f 164/164/164 163/163/163 160/160/160
f 167/167/167 166/166/166 165/165/165
f 168/168/168 165/165/165 166/166/166
f 171/171/171 170/170/170 169/169/169
f 172/172/172 169/169/169 170/170/170
f 171/171/171 169/169/169 173/173/173
f 174/174/174 173/173/173 169/169/169
