g Water_2
v 58.0448 -9.104561 1.909215
v 55.0448 -9.604561 1.909215
v 55.0448 -9.104561 1.909215
v 58.0448 -9.604561 1.909215
v 54.0448 -10.10456 1.909215
v 54.0448 -9.604561 1.909215
v 53.5448 -14.10456 1.909215
v 53.5448 -11.10456 1.909215
v 53.5448 -10.10456 1.909215
v 53.0448 -14.10456 1.909215
v 53.0448 -11.10456 1.909215
v 53.5448 -15.10456 1.909215
v 54.0448 -15.10456 1.909215
v 59.5448 -11.10456 1.909215
v 59.0448 -10.10456 1.909215
v 59.5448 -10.10456 1.909215
v 59.0448 -9.604561 1.909215
v 54.0448 -15.60456 1.909215
v 55.0448 -15.60456 1.909215
v 58.0448 -15.60456 1.909215
v 59.0448 -15.10456 1.909215
v 59.5448 -14.10456 1.909215
v 60.0448 -11.10456 1.909215
v 60.0448 -14.10456 1.909215
v 59.5448 -15.10456 1.909215
v 59.0448 -15.60456 1.909215
v 55.0448 -16.10456 1.909215
v 58.0448 -16.10456 1.909215
v 50.3371 -26.00071 2.637346
v 51.04261 -25.43147 2.637346
v 51.04261 -26.00071 2.637346
v 50.3371 -25.43147 2.637346
v 50.86365 -25.61495 3.080816
v 50.82104 -25.65331 2.637346
v 50.82104 -25.65331 3.080816
v 50.86365 -25.61495 2.637346
v 50.82104 -25.65331 3.080816
v 50.78347 -25.61157 2.637346
v 50.78347 -25.61157 3.080816
v 50.82104 -25.65331 2.637346
v 50.78347 -25.61157 3.080816
v 50.82607 -25.57322 2.637346
v 50.82607 -25.57322 3.080816
v 50.78347 -25.61157 2.637346
v 50.82607 -25.57322 3.080816
v 50.86365 -25.61495 2.637346
v 50.86365 -25.61495 3.080816
v 50.82607 -25.57322 2.637346
vt -32.62075 -10.99907
vt -29.62075 -10.49907
vt -29.62075 -10.99907
vt -32.62075 -10.49907
vt -28.62075 -9.999069
vt -28.62075 -10.49907
vt -28.12075 -5.999069
vt -28.12075 -8.999069
vt -28.12075 -9.999069
vt -27.62075 -5.999069
vt -27.62075 -8.999069
vt -28.12075 -4.999069
vt -28.62075 -4.999069
vt -34.12075 -8.999067
vt -33.62075 -9.999067
vt -34.12075 -9.999067
vt -33.62075 -10.49907
vt -28.62075 -4.499069
vt -29.62075 -4.499069
vt -32.62075 -4.499068
vt -33.62075 -4.999068
vt -34.12075 -5.999068
vt -34.62075 -8.999067
vt -34.62075 -5.999067
vt -34.12075 -4.999068
vt -33.62075 -4.499068
vt -29.62075 -3.999069
vt -32.62075 -3.999068
vt 3.464974 3.265349
vt 4.643379 4.216148
vt 4.643379 3.265349
vt 3.464974 4.216149
vt 0.7407198 0.3791198
vt 0 0.283362
vt 0.7407198 0.283362
vt 0 0.3791198
vt 0.7407198 0.283362
vt 0 0.1895558
vt 0.7407198 0.1895558
vt 0 0.283362
vt 0.7407198 0.1895558
vt 0 0.09379819
vt 0.7407198 0.09379813
vt 0 0.1895558
vt 0.7407198 0.09379813
vt 0 0
vt 0.7407198 -2.980232E-08
vt 0 0.09379819
vn 0 0 1
vn 0 0 1
vn 0 0 1
vn 0 0 1
vn 0 0 1
vn 0 0 1
vn 0 0 1
vn 0 0 1
vn 0 0 1
vn 0 0 1
vn 0 0 1
vn 0 0 1
vn 0 0 1
vn 0 0 1
vn 0 0 1
vn 0 0 1
vn 0 0 1
vn 0 0 1
vn 0 0 1
vn 0 0 1
vn 0 0 1
vn 0 0 1
vn 0 0 1
vn 0 0 1
vn 0 0 1
vn 0 0 1
vn 0 0 1
vn 0 0 1
vn 0 0 1
vn 0 0 1
vn 0 0 1
vn 0 0 1
vn 0.6690871 -0.743184 0
vn 0.669087 -0.7431841 0
vn 0.669087 -0.7431841 0
vn 0.669087 -0.7431841 0
vn -0.7431341 -0.6691425 0
vn -0.7431342 -0.6691424 0
vn -0.7431342 -0.6691424 0
vn -0.7431342 -0.6691424 0
vn -0.6690871 0.743184 0
vn -0.669087 0.7431841 0
vn -0.669087 0.7431841 0
vn -0.669087 0.7431841 0
vn 0.7431341 0.6691425 0
vn 0.7431342 0.6691424 0
vn 0.7431342 0.6691424 0
vn 0.7431342 0.6691424 0
g Water_2_0
f 3/3/3 2/2/2 1/1/1
f 4/4/4 1/1/1 2/2/2
f 5/5/5 4/4/4 2/2/2
f 6/6/6 5/5/5 2/2/2
f 4/4/4 5/5/5 7/7/7
f 8/8/8 7/7/7 5/5/5
f 9/9/9 8/8/8 5/5/5
f 7/7/7 8/8/8 10/10/10
f 11/11/11 10/10/10 8/8/8
f 7/7/7 12/12/12 4/4/4
f 13/13/13 4/4/4 12/12/12
f 14/14/14 4/4/4 13/13/13
f 14/14/14 15/15/15 4/4/4
f 14/14/14 16/16/16 15/15/15
f 15/15/15 17/17/17 4/4/4
f 13/13/13 18/18/18 14/14/14
f 19/19/19 14/14/14 18/18/18
f 20/20/20 14/14/14 19/19/19
f 14/14/14 20/20/20 21/21/21
f 14/14/14 21/21/21 22/22/22
f 14/14/14 22/22/22 23/23/23
f 24/24/24 23/23/23 22/22/22
f 25/25/25 22/22/22 21/21/21
f 26/26/26 21/21/21 20/20/20
f 19/19/19 27/27/27 20/20/20
f 28/28/28 20/20/20 27/27/27
f 31/31/31 30/30/30 29/29/29
f 32/32/32 29/29/29 30/30/30
f 35/35/35 34/34/34 33/33/33
f 36/36/36 33/33/33 34/34/34
f 39/39/39 38/38/38 37/37/37
f 40/40/40 37/37/37 38/38/38
f 43/43/43 42/42/42 41/41/41
f 44/44/44 41/41/41 42/42/42
f 47/47/47 46/46/46 45/45/45
f 48/48/48 45/45/45 46/46/46
