g water
v -1733.143 -683.7512 -5.675734
v 15.4 825.4292 -5.675734
v 15.4 -683.7512 -5.675734
v -1733.143 825.4292 -5.675734
v -45.35414 -75.90297 -4.555011
v -42.12586 -72.54722 -4.555011
v -42.12586 -75.90297 -4.555011
v -45.35414 -72.54722 -4.555011
vt -13.16049 -11.29047
vt 14.1605 12.29047
vt 14.16049 -11.29047
vt -13.16049 12.29048
vt 13.21121 -1.792846
vt 13.26165 -1.740412
vt 13.26165 -1.792846
vt 13.21121 -1.740412
vn 0 0 1
vn 0 0 1
vn 0 0 1
vn 0 0 1
vn 0 0 1
vn 0 0 1
vn 0 0 1
vn 0 0 1
g water_0
f 3/3/3 2/2/2 1/1/1
f 4/4/4 1/1/1 2/2/2
f 7/7/7 6/6/6 5/5/5
f 8/8/8 5/5/5 6/6/6
