g Water
v -258.819 -6 -965.9258
v -707.1067 -6 -707.1067
v -500 -6 -866.0254
v -866.0254 -6 -500
v -965.9258 -6 -258.819
v -1000 -6 0
v -965.9258 -6 258.819
v -866.0254 -6 500
v -707.1067 -6 707.1067
v -500 -6 866.0254
v -258.819 -6 965.9258
v 0 -6 1000
v 258.819 -6 965.9258
v 500 -6 866.0254
v 707.1067 -6 707.1067
v 866.0254 -6 500
v 965.9258 -6 258.819
v 1000 -6 0
v 965.9258 -6 -258.819
v 866.0254 -6 -500
v 707.1067 -6 -707.1067
v 500 -6 -866.0254
v 258.819 -6 -965.9258
v 0 -6 -1000
vt 518.1381 -1931.352
vt 1414.714 -1413.714
vt 1000.5 -1731.551
vt 1732.551 -999.5
vt 1932.352 -517.1381
vt 2000.5 0.5
vt 1932.352 518.1381
vt 1732.551 1000.5
vt 1414.714 1414.714
vt 1000.5 1732.551
vt 518.1381 1932.352
vt 0.5 2000.5
vt -517.1381 1932.352
vt -999.5 1732.551
vt -1413.714 1414.714
vt -1731.551 1000.5
vt -1931.352 518.1381
vt -1999.5 0.5
vt -1931.352 -517.1381
vt -1731.551 -999.5
vt -1413.714 -1413.714
vt -999.5 -1731.551
vt -517.1381 -1931.352
vt 0.5 -1999.5
vn 0 1 0
vn 0 1 0
vn 0 1 0
vn 0 1 0
vn 0 1 0
vn 0 1 0
vn 0 1 0
vn 0 1 0
vn 0 1 0
vn 0 1 0
vn 0 1 0
vn 0 1 0
vn 0 1 0
vn 0 1 0
vn 0 1 0
vn 0 1 0
vn 0 1 0
vn 0 1 0
vn 0 1 0
vn 0 1 0
vn 0 1 0
vn 0 1 0
vn 0 1 0
vn 0 1 0
g Water_0
f 3/3/3 2/2/2 1/1/1
f 2/2/2 4/4/4 1/1/1
f 4/4/4 5/5/5 1/1/1
f 5/5/5 6/6/6 1/1/1
f 6/6/6 7/7/7 1/1/1
f 7/7/7 8/8/8 1/1/1
f 8/8/8 9/9/9 1/1/1
f 9/9/9 10/10/10 1/1/1
f 10/10/10 11/11/11 1/1/1
f 11/11/11 12/12/12 1/1/1
f 12/12/12 13/13/13 1/1/1
f 13/13/13 14/14/14 1/1/1
f 14/14/14 15/15/15 1/1/1
f 15/15/15 16/16/16 1/1/1
f 16/16/16 17/17/17 1/1/1
f 17/17/17 18/18/18 1/1/1
f 18/18/18 19/19/19 1/1/1
f 19/19/19 20/20/20 1/1/1
f 20/20/20 21/21/21 1/1/1
f 21/21/21 22/22/22 1/1/1
f 22/22/22 23/23/23 1/1/1
f 23/23/23 24/24/24 1/1/1
