g white_house_prototype_road01
v 4.999999 -124.371 0.0625
v -4.999991 -124.371 0.0625
v -4.999991 -59.99999 0.06249999
v 4.999999 -60 0.06249999
v -4.999991 -59.99999 0.06249999
v -4.999991 -124.371 0.0625
v -4.999991 -124.371 -0.100002
v -4.999991 -59.99999 -0.1000019
v 4.999999 -124.371 0.0625
v 4.999999 -60 0.06249999
v 4.999999 -60 -0.1000019
v 4.999999 -124.371 -0.100002
vt 5.499968 -110.4648
vt -4.500006 -110.4648
vt -4.500007 -46.09377
vt 5.499978 -46.09377
vt 47.09377 0.581251
vt 111.4648 0.581251
vt 111.4648 0.418749
vt 47.09377 0.418749
vt -110.4648 0.581251
vt -46.09377 0.581251
vt -46.09377 0.418749
vt -110.4648 0.4187491
vn 0 0 1
vn 0 0 1
vn 0 0 1
vn 0 0 1
vn -1 0 0
vn -1 0 0
vn -1 0 0
vn -1 0 0
vn 1 0 0
vn 1 0 0
vn 1 0 0
vn 1 0 0
g white_house_prototype_road01_0
f 3/3/3 2/2/2 1/1/1
f 4/4/4 3/3/3 1/1/1
f 7/7/7 6/6/6 5/5/5
f 8/8/8 7/7/7 5/5/5
f 11/11/11 10/10/10 9/9/9
f 12/12/12 11/11/11 9/9/9
