# Mesh "Wings_Body" exported with Unity Assets Bundle Extractor; 24 vertices, 36 indices, 256 bits per vertex
g Wings_Body
# SubMesh 0
# Vertices
v -0.157480 0.078740 0.477567
vt 0.315039 0.495920
vn -0.000000 0.000000 1.000000
v 0.157480 -0.078740 0.477567
vt 0.434944 0.379126
vn -0.000000 0.000000 1.000000
v -0.157480 -0.078740 0.477567
vt 0.315039 0.379126
vn -0.000000 0.000000 1.000000
v 0.157480 0.078740 0.477567
vt 0.434944 0.495920
vn -0.000000 0.000000 1.000000
v 0.157480 -0.078740 0.005126
vt 0.560092 0.495384
vn -0.000000 0.000000 -1.000000
v -0.157480 0.078740 0.005126
vt 0.439732 0.378915
vn -0.000000 0.000000 -1.000000
v -0.157480 -0.078740 0.005126
vt 0.439732 0.495384
vn -0.000000 0.000000 -1.000000
v 0.157480 0.078740 0.005126
vt 0.560092 0.378915
vn -0.000000 0.000000 -1.000000
v 0.157480 -0.078740 0.477567
vt 0.438896 0.371626
vn 1.000000 -0.000000 0.000000
v 0.157480 0.078740 0.005126
vt 0.498652 0.003235
vn 1.000000 -0.000000 0.000000
v 0.157480 -0.078740 0.005126
vt 0.438896 0.003236
vn 1.000000 -0.000000 0.000000
v 0.157480 0.078740 0.477567
vt 0.498652 0.371625
vn 1.000000 -0.000000 0.000000
v 0.157480 0.078740 0.477567
vt 0.622840 0.370897
vn 0.000000 1.000000 0.000000
v -0.157480 0.078740 0.005126
vt 0.502083 0.003981
vn 0.000000 1.000000 0.000000
v 0.157480 0.078740 0.005126
vt 0.622840 0.003981
vn 0.000000 1.000000 0.000000
v -0.157480 0.078740 0.477567
vt 0.502083 0.370897
vn 0.000000 1.000000 0.000000
v -0.157480 0.078740 0.477567
vt 0.252414 0.372622
vn -1.000000 0.000000 0.000000
v -0.157480 -0.078740 0.005126
vt 0.310213 0.002635
vn -1.000000 0.000000 0.000000
v -0.157480 0.078740 0.005126
vt 0.252414 0.002635
vn -1.000000 0.000000 0.000000
v -0.157480 -0.078740 0.477567
vt 0.310213 0.372622
vn -1.000000 0.000000 0.000000
v 0.157480 -0.078740 0.005126
vt 0.436209 0.003083
vn -0.000000 -1.000000 0.000000
v -0.157480 -0.078740 0.477567
vt 0.313787 0.371805
vn -0.000000 -1.000000 0.000000
v 0.157480 -0.078740 0.477567
vt 0.436209 0.371805
vn -0.000000 -1.000000 0.000000
v -0.157480 -0.078740 0.005126
vt 0.313787 0.003083
vn -0.000000 -1.000000 0.000000
# Faces (1 to 24)
g Wings_Body_0
f -22/-22/-22 -23/-23/-23 -24/-24/-24
f -21/-21/-21 -24/-24/-24 -23/-23/-23
f -18/-18/-18 -19/-19/-19 -20/-20/-20
f -17/-17/-17 -20/-20/-20 -19/-19/-19
f -14/-14/-14 -15/-15/-15 -16/-16/-16
f -13/-13/-13 -16/-16/-16 -15/-15/-15
f -10/-10/-10 -11/-11/-11 -12/-12/-12
f -9/-9/-9 -12/-12/-12 -11/-11/-11
f -6/-6/-6 -7/-7/-7 -8/-8/-8
f -8/-8/-8 -7/-7/-7 -5/-5/-5
f -2/-2/-2 -3/-3/-3 -4/-4/-4
f -1/-1/-1 -4/-4/-4 -3/-3/-3

