g Winter_tree_012
v 0.2477783 -0.2485059 2.983131
v -0.2522412 -0.2485156 -0.02159281
v -0.2522412 -0.2485059 2.983133
v 0.2477783 -0.2485156 -0.02159246
v 0.2477783 0.2514941 2.983133
v 0.2477783 -0.2485156 -0.02159246
v 0.2477783 -0.2485059 2.983131
v 0.2477783 0.2514844 -0.02159246
v -0.2522412 0.2514941 2.983133
v 0.2477783 0.2514844 -0.02159246
v 0.2477783 0.2514941 2.983133
v -0.2522412 0.2514844 -0.02159403
v -0.2522412 -0.2485059 2.983133
v -0.2522412 0.2514844 -0.02159403
v -0.2522412 0.2514941 2.983133
v -0.2522412 -0.2485156 -0.02159281
v -0.5000293 -2.5 2.978408
v 0.4999707 -2.49999 4.978409
v 0.4999707 -2.5 2.978408
v -0.5000293 -2.5 4.978408
v 2.49999 -0.5 2.978407
v 2.50001 0.5 4.978407
v 2.50001 0.5 2.978407
v 2.49999 -0.5 4.978407
v 0.5000098 2.5 2.978406
v -0.4999902 2.5 4.978406
v -0.4999902 2.5 2.978406
v 0.5000098 2.5 4.978406
v -2.49999 0.5000098 2.978405
v -2.50001 -0.4999902 4.978408
v -2.50001 -0.4999902 2.978407
v -2.49999 0.5000098 4.978405
v 1.49999 -0.5 2.978407
v 1.50001 -1.49999 4.978409
v 1.49999 -0.4999902 4.978407
v 1.50001 -1.5 2.978408
v -0.5000147 -1.49999 5.978408
v 0.5000049 -0.4999804 5.978406
v 0.5000049 -1.49998 5.978409
v -0.5000147 -0.4999902 5.978405
v -1.500029 -1.5 2.978407
v -1.50001 -0.5 4.978405
v -1.500029 -1.5 4.978405
v -1.50001 -0.5 2.978407
v -1.49999 0.5 2.978405
v -1.49999 1.5 4.978405
v -1.49999 0.5 4.978405
v -1.49999 1.5 2.978405
v 0.5000098 1.50001 5.978406
v -0.4999902 0.5000098 5.978405
v -0.4999902 1.50001 5.978405
v 0.5000098 0.5000195 5.978406
v 1.50001 1.50001 2.978407
v 1.50001 0.5000098 4.978407
v 1.50001 1.50001 4.978407
v 1.50001 0.5 2.978407
v 0.5000098 -1.5 2.978408
v 0.4999707 -2.49999 4.978409
v 0.5000098 -1.49999 4.978406
v 0.4999707 -2.5 2.978408
v -0.5000293 -2.5 2.978408
v -0.5000098 -1.49999 4.978406
v -0.5000293 -2.5 4.978408
v -0.5000098 -1.5 2.978407
v -0.4999902 1.5 2.978406
v -0.4999902 2.5 4.978406
v -0.4999902 1.5 4.978406
v -0.4999902 2.5 2.978406
v 0.5000098 2.5 4.978406
v -0.4999902 1.5 4.978406
v -0.4999902 2.5 4.978406
v 0.5000098 1.50001 4.978406
v 0.5000098 2.5 2.978406
v 0.5000098 1.50001 4.978406
v 0.5000098 2.5 4.978406
v 0.5000098 1.5 2.978406
v 0.5000098 1.5 2.978406
v 1.50001 1.50001 4.978407
v 0.5000098 1.50001 4.978406
v 1.50001 1.50001 2.978407
v 1.50001 0.5000098 4.978407
v 0.5000098 1.50001 4.978406
v 1.50001 1.50001 4.978407
v 0.5000098 0.5000098 4.978406
v 1.499985 -0.4999804 5.978406
v 0.5000098 0.5000195 5.978406
v 1.50001 0.5000195 5.978406
v 0.5000049 -0.4999804 5.978406
v 1.50001 -1.49999 4.978409
v 0.5000098 -0.4999902 4.978406
v 1.49999 -0.4999902 4.978407
v 0.5000098 -1.49999 4.978406
v 1.50001 -1.5 2.978408
v 0.5000098 -1.49999 4.978406
v 1.50001 -1.49999 4.978409
v 0.5000098 -1.5 2.978408
v -0.5000098 -1.5 2.978407
v -1.500029 -1.5 4.978405
v -0.5000098 -1.49999 4.978406
v -1.500029 -1.5 2.978407
v -1.50001 -0.5 4.978405
v -0.5000098 -1.49999 4.978406
v -1.500029 -1.5 4.978405
v -0.5000098 -0.4999902 4.978406
v -1.49999 0.5000098 5.978405
v -0.5000147 -0.4999902 5.978405
v -1.500015 -0.4999902 5.978405
v -0.4999902 0.5000098 5.978405
v -1.49999 1.5 4.978405
v -0.4999902 0.5 4.978406
v -1.49999 0.5 4.978405
v -0.4999902 1.5 4.978406
v -1.49999 1.5 2.978405
v -0.4999902 1.5 4.978406
v -1.49999 1.5 4.978405
v -0.4999902 1.5 2.978406
v 2.49999 -0.5 2.978407
v 1.49999 -0.4999902 4.978407
v 2.49999 -0.5 4.978407
v 1.49999 -0.5 2.978407
v 1.50001 0.5 2.978407
v 2.50001 0.5 4.978407
v 1.50001 0.5000098 4.978407
v 2.50001 0.5 2.978407
v 2.49999 -0.5 4.978407
v 1.50001 0.5000098 4.978407
v 2.50001 0.5 4.978407
v 1.49999 -0.4999902 4.978407
v -1.50001 -0.5 2.978407
v -2.50001 -0.4999902 4.978408
v -1.50001 -0.5 4.978405
v -2.50001 -0.4999902 2.978407
v -2.49999 0.5000098 4.978405
v -1.50001 -0.5 4.978405
v -2.50001 -0.4999902 4.978408
v -1.49999 0.5 4.978405
v -2.49999 0.5000098 2.978405
v -1.49999 0.5 4.978405
v -2.49999 0.5000098 4.978405
v -1.49999 0.5 2.978405
v -0.4999951 0.5000098 6.978405
v 0.5000049 -0.4999902 6.978405
v -0.5000147 -0.4999902 6.978405
v 0.5000049 0.5000098 6.978405
v 0.5000049 -0.4999804 5.978406
v 0.5000098 -1.49999 4.978406
v 0.5000049 -1.49998 5.978409
v 0.5000098 -0.4999902 4.978406
v 1.499985 -0.4999804 5.978406
v 0.5000098 -0.4999902 4.978406
v 0.5000049 -0.4999804 5.978406
v 1.49999 -0.4999902 4.978407
v 1.50001 0.5000195 5.978406
v 1.49999 -0.4999902 4.978407
v 1.499985 -0.4999804 5.978406
v 1.50001 0.5000098 4.978407
v 0.5000098 0.5000195 5.978406
v 1.50001 0.5000098 4.978407
v 1.50001 0.5000195 5.978406
v 0.5000098 0.5000098 4.978406
v 0.5000098 1.50001 5.978406
v 0.5000098 0.5000098 4.978406
v 0.5000098 0.5000195 5.978406
v 0.5000098 1.50001 4.978406
v -0.4999902 1.50001 5.978405
v 0.5000098 1.50001 4.978406
v 0.5000098 1.50001 5.978406
v -0.4999902 1.5 4.978406
v -0.4999902 0.5000098 5.978405
v -0.4999902 1.5 4.978406
v -0.4999902 1.50001 5.978405
v -0.4999902 0.5 4.978406
v -1.49999 0.5000098 5.978405
v -0.4999902 0.5 4.978406
v -0.4999902 0.5000098 5.978405
v -1.49999 0.5 4.978405
v -1.500015 -0.4999902 5.978405
v -1.49999 0.5 4.978405
v -1.49999 0.5000098 5.978405
v -1.50001 -0.5 4.978405
v -0.5000147 -0.4999902 5.978405
v -1.50001 -0.5 4.978405
v -1.500015 -0.4999902 5.978405
v -0.5000098 -0.4999902 4.978406
v -0.5000147 -1.49999 5.978408
v -0.5000098 -0.4999902 4.978406
v -0.5000147 -0.4999902 5.978405
v -0.5000098 -1.49999 4.978406
v 0.5000049 -0.4999902 6.978405
v -0.5000147 -0.4999902 5.978405
v -0.5000147 -0.4999902 6.978405
v 0.5000049 -0.4999804 5.978406
v 0.5000049 0.5000098 6.978405
v 0.5000049 -0.4999804 5.978406
v 0.5000049 -0.4999902 6.978405
v 0.5000098 0.5000195 5.978406
v -0.4999951 0.5000098 6.978405
v 0.5000098 0.5000195 5.978406
v 0.5000049 0.5000098 6.978405
v -0.4999902 0.5000098 5.978405
v -0.5000147 -0.4999902 6.978405
v -0.4999902 0.5000098 5.978405
v -0.4999951 0.5000098 6.978405
v -0.5000147 -0.4999902 5.978405
v 0.5000098 -1.49999 4.978406
v -0.5000147 -1.49999 5.978408
v 0.5000049 -1.49998 5.978409
v -0.5000098 -1.49999 4.978406
v 0.4999707 -2.49999 4.978409
v -0.5000098 -1.49999 4.978406
v 0.5000098 -1.49999 4.978406
v -0.5000293 -2.5 4.978408
v -1.50001 -0.5 2.978407
v -2.49999 0.5000098 2.978405
v -2.50001 -0.4999902 2.978407
v -1.49999 0.5 2.978405
v -0.5000098 -1.5 2.978407
v 1.49999 -0.5 2.978407
v 0.5000098 -1.5 2.978408
v 1.50001 -1.5 2.978408
v -0.5000293 -2.5 2.978408
v 0.4999707 -2.5 2.978408
v -1.500029 -1.5 2.978407
v -0.4999902 1.5 2.978406
v -1.49999 1.5 2.978405
v 0.5000098 2.5 2.978406
v -0.4999902 2.5 2.978406
v 0.5000098 1.5 2.978406
v 1.50001 0.5 2.978407
v 1.50001 1.50001 2.978407
v 2.49999 -0.5 2.978407
v 2.50001 0.5 2.978407
v -1.49999 0.5 2.978405
v 0.5000098 1.5 2.978406
v -0.4999902 1.5 2.978406
vt 0.8320313 0.75
vt 0.8007813 0.5507813
vt 0.8007813 0.75
vt 0.8320313 0.5507813
vt 0.8320313 0.75
vt 0.8007813 0.5507813
vt 0.8007813 0.75
vt 0.8320313 0.5507813
vt 0.8320313 0.75
vt 0.8007813 0.5507813
vt 0.8007813 0.75
vt 0.8320313 0.5507813
vt 0.8320313 0.75
vt 0.8007813 0.5507813
vt 0.8007813 0.75
vt 0.8320313 0.5507813
vt 0.1535288 0.3784527
vt 0.2277475 0.5268902
vt 0.2277475 0.3784527
vt 0.1535288 0.5268902
vt 0.1535288 0.3784527
vt 0.2277475 0.5268902
vt 0.2277475 0.3784527
vt 0.1535288 0.5268902
vt 0.1535288 0.3784527
vt 0.2277475 0.5268902
vt 0.2277475 0.3784527
vt 0.1535288 0.5268902
vt 0.1535288 0.3784527
vt 0.2277475 0.5268902
vt 0.2277475 0.3784527
vt 0.1535288 0.5268902
vt 0.1535288 0.3745465
vt 0.07931004 0.5268902
vt 0.1535288 0.5268902
vt 0.07931004 0.3745465
vt 0.3515625 0.6367188
vt 0.2773438 0.7148438
vt 0.3515625 0.7148438
vt 0.2773438 0.6367188
vt 0.3019663 0.3745465
vt 0.2277475 0.5268902
vt 0.3019663 0.5268902
vt 0.2277475 0.3745465
vt 0.1535288 0.3745465
vt 0.07931004 0.5268902
vt 0.1535288 0.5268902
vt 0.07931004 0.3745465
vt 0.1289063 0.7148438
vt 0.203125 0.6367188
vt 0.1289063 0.6367188
vt 0.203125 0.7148438
vt 0.3019663 0.3745465
vt 0.2277475 0.5268902
vt 0.3019663 0.5268902
vt 0.2277475 0.3745465
vt 0.1925913 0.3745465
vt 0.1183725 0.5268902
vt 0.1925913 0.5268902
vt 0.1183725 0.3745465
vt 0.2668101 0.3745465
vt 0.1925913 0.5268902
vt 0.2668101 0.5268902
vt 0.1925913 0.3745465
vt 0.1925913 0.3745465
vt 0.1183725 0.5268902
vt 0.1925913 0.5268902
vt 0.1183725 0.3745465
vt 0.1679688 0.6757813
vt 0.2421875 0.6015625
vt 0.1679688 0.6015625
vt 0.2421875 0.6757813
vt 0.2277475 0.3784527
vt 0.1535288 0.5268902
vt 0.2277475 0.5268902
vt 0.1535288 0.3784527
vt 0.2277475 0.3784527
vt 0.1535288 0.5268902
vt 0.2277475 0.5268902
vt 0.1535288 0.3784527
vt 0.3164063 0.75
vt 0.2421875 0.6757813
vt 0.2421875 0.75
vt 0.3164063 0.6757813
vt 0.2773438 0.7890625
vt 0.203125 0.7148438
vt 0.203125 0.7890625
vt 0.2773438 0.7148438
vt 0.2773438 0.7148438
vt 0.203125 0.6367188
vt 0.203125 0.7148438
vt 0.2773438 0.6367188
vt 0.2277475 0.3784527
vt 0.1535288 0.5268902
vt 0.2277475 0.5268902
vt 0.1535288 0.3784527
vt 0.2277475 0.3784527
vt 0.1535288 0.5268902
vt 0.2277475 0.5268902
vt 0.1535288 0.3784527
vt 0.203125 0.6367188
vt 0.2773438 0.7148438
vt 0.2773438 0.6367188
vt 0.203125 0.7148438
vt 0.203125 0.5625
vt 0.2773438 0.6367188
vt 0.2773438 0.5625
vt 0.203125 0.6367188
vt 0.203125 0.6367188
vt 0.2773438 0.7148438
vt 0.2773438 0.6367188
vt 0.203125 0.7148438
vt 0.2277475 0.3784527
vt 0.1535288 0.5268902
vt 0.2277475 0.5268902
vt 0.1535288 0.3784527
vt 0.2277475 0.3784527
vt 0.1535288 0.5268902
vt 0.2277475 0.5268902
vt 0.1535288 0.3784527
vt 0.2277475 0.3784527
vt 0.1535288 0.5268902
vt 0.2277475 0.5268902
vt 0.1535288 0.3784527
vt 0.2773438 0.7148438
vt 0.203125 0.6367188
vt 0.203125 0.7148438
vt 0.2773438 0.6367188
vt 0.2277475 0.3784527
vt 0.1535288 0.5268902
vt 0.2277475 0.5268902
vt 0.1535288 0.3784527
vt 0.203125 0.6367188
vt 0.2773438 0.7148438
vt 0.2773438 0.6367188
vt 0.203125 0.7148438
vt 0.2277475 0.3784527
vt 0.1535288 0.5268902
vt 0.2277475 0.5268902
vt 0.1535288 0.3784527
vt 0.203125 0.6367188
vt 0.2773438 0.7148438
vt 0.2773438 0.6367188
vt 0.203125 0.7148438
vt 0.0390625 0.5546875
vt 0.140625 0.453125
vt 0.140625 0.5546875
vt 0.0390625 0.453125
vt 0.140625 0.5546875
vt 0.0390625 0.453125
vt 0.0390625 0.5546875
vt 0.140625 0.453125
vt 0.0390625 0.5546875
vt 0.140625 0.453125
vt 0.140625 0.5546875
vt 0.0390625 0.453125
vt 0.140625 0.5546875
vt 0.0390625 0.453125
vt 0.0390625 0.5546875
vt 0.140625 0.453125
vt 0.140625 0.5546875
vt 0.0390625 0.453125
vt 0.0390625 0.5546875
vt 0.140625 0.453125
vt 0.140625 0.5546875
vt 0.0390625 0.453125
vt 0.0390625 0.5546875
vt 0.140625 0.453125
vt 0.0390625 0.5546875
vt 0.140625 0.453125
vt 0.140625 0.5546875
vt 0.0390625 0.453125
vt 0.140625 0.5546875
vt 0.0390625 0.453125
vt 0.0390625 0.5546875
vt 0.140625 0.453125
vt 0.0390625 0.5546875
vt 0.140625 0.453125
vt 0.140625 0.5546875
vt 0.0390625 0.453125
vt 0.140625 0.5546875
vt 0.0390625 0.453125
vt 0.0390625 0.5546875
vt 0.140625 0.453125
vt 0.0390625 0.5546875
vt 0.140625 0.453125
vt 0.140625 0.5546875
vt 0.0390625 0.453125
vt 0.2460938 0.5585938
vt 0.171875 0.484375
vt 0.171875 0.5585938
vt 0.2460938 0.484375
vt 0.2460938 0.5585938
vt 0.171875 0.484375
vt 0.171875 0.5585938
vt 0.2460938 0.484375
vt 0.2460938 0.5585938
vt 0.171875 0.484375
vt 0.171875 0.5585938
vt 0.2460938 0.484375
vt 0.2460938 0.5585938
vt 0.171875 0.484375
vt 0.171875 0.5585938
vt 0.2460938 0.484375
vt 0.140625 0.453125
vt 0.0390625 0.5546875
vt 0.140625 0.5546875
vt 0.0390625 0.453125
vt 0.2773438 0.7148438
vt 0.203125 0.6367188
vt 0.203125 0.7148438
vt 0.2773438 0.6367188
vt 0.1984726 0.1367188
vt 0.2726914 0.0625
vt 0.1984726 0.0625
vt 0.2726914 0.1367188
vt 0.1242539 0.2148438
vt 0.1984726 0.3632813
vt 0.1242539 0.2890625
vt 0.1242539 0.3632813
vt 0.05003511 0.2148438
vt 0.05003511 0.2890625
vt 0.1242539 0.1367188
vt 0.3469101 0.2148438
vt 0.3469101 0.1367188
vt 0.4211289 0.2890625
vt 0.4211289 0.2148438
vt 0.3469101 0.2890625
vt 0.2726914 0.3632813
vt 0.3469101 0.3632813
vt 0.1984726 0.4375
vt 0.2726914 0.4375
vt 0.2726914 0.1367188
vt 0.3469101 0.2890625
vt 0.3469101 0.2148438
vn 0 -1 3.250089E-06
vn 0 -1 3.250089E-06
vn 0 -1 3.250089E-06
vn 0 -1 3.250091E-06
vn 1 0 0
vn 1 0 0
vn 1 0 0
vn 1 0 0
vn 0 1 -3.250089E-06
vn 0 1 -3.250089E-06
vn 0 1 -3.250089E-06
vn 0 1 -3.250088E-06
vn -1 0 0
vn -1 0 0
vn -1 0 0
vn -1 0 0
vn 0 -1 4.88281E-06
vn 0 -1 4.88281E-06
vn 0 -1 4.88281E-06
vn 9.765627E-06 -1 0
vn 1 -1.953125E-05 0
vn 1 -1.953125E-05 0
vn 1 -1.953125E-05 0
vn 1 -1.953125E-05 0
vn 0 1 0
vn 0 1 0
vn 0 1 0
vn 0 1 0
vn -1 1.953125E-05 0
vn -1 1.953125E-05 0
vn -1 1.953125E-05 0
vn -1 1.953125E-05 0
vn 1 1.953125E-05 0
vn 1 1.953125E-05 0
vn 1 1.953125E-05 0
vn 1 1.953125E-05 0
vn -6.103635E-07 2.441406E-06 1
vn -6.103635E-07 2.441406E-06 1
vn -6.103635E-07 2.441406E-06 1
vn -6.103635E-07 2.441406E-06 1
vn -1 1.953125E-05 0
vn -1 1.953125E-05 0
vn -1 1.953125E-05 0
vn -1 1.953125E-05 0
vn -1 0 0
vn -1 0 0
vn -1 0 0
vn -1 0 0
vn -6.103515E-07 0 1
vn -6.103515E-07 0 1
vn -6.103515E-07 0 1
vn -6.103517E-07 0 1
vn 1 0 0
vn 1 0 0
vn 1 0 0
vn 1 0 0
vn 1 -3.90625E-05 0
vn 1 -3.90625E-05 0
vn 1 -3.90625E-05 0
vn 1 -3.90625E-05 0
vn -1 1.953106E-05 0
vn -1 1.953106E-05 0
vn -1 1.953106E-05 0
vn -1 1.953125E-05 0
vn -1 0 0
vn -1 0 0
vn -1 0 0
vn -1 0 0
vn -3.051758E-07 0 1
vn -3.051758E-07 0 1
vn -3.051758E-07 0 1
vn -3.051758E-07 0 1
vn 1 0 0
vn 1 0 0
vn 1 0 0
vn 1 0 0
vn 0 1 -4.882812E-06
vn 0 1 -4.882812E-06
vn 0 1 -4.882812E-06
vn -9.765627E-06 1 0
vn -6.103515E-07 0 1
vn -6.103515E-07 0 1
vn -6.103515E-07 0 1
vn -6.103515E-07 0 1
vn 0 0 1
vn 0 0 1
vn 0 0 1
vn 0 0 1
vn -6.103635E-07 2.441395E-06 1
vn -6.103635E-07 2.441394E-06 1
vn -6.103635E-07 2.441394E-06 1
vn -3.051758E-06 0 1
vn 0 -1 4.882809E-06
vn 0 -1 4.882809E-06
vn 0 -1 4.882809E-06
vn 0 -1 4.882815E-06
vn 9.765432E-06 -1 4.882816E-06
vn 9.765431E-06 -1 4.882816E-06
vn 9.765431E-06 -1 4.882816E-06
vn 0 -1 0
vn -6.103397E-07 0 1
vn -6.103397E-07 0 1
vn -6.103397E-07 0 1
vn -6.103515E-07 0 1
vn -6.103515E-07 0 1
vn -6.103515E-07 0 1
vn -6.103515E-07 0 1
vn -6.103515E-07 0 1
vn -6.103515E-07 0 1
vn -6.103515E-07 0 1
vn -6.103515E-07 0 1
vn -6.103515E-07 0 1
vn 0 1 0
vn 0 1 0
vn 0 1 0
vn 0 1 0
vn -9.765625E-06 -1 0
vn -9.765625E-06 -1 0
vn -9.765625E-06 -1 0
vn 0 -1 4.882811E-06
vn 9.765625E-06 1 -4.882811E-06
vn 9.765625E-06 1 -4.882811E-06
vn 9.765625E-06 1 -4.882811E-06
vn 0 1 0
vn 0 0 1
vn 0 0 1
vn 0 0 1
vn 0 0 1
vn -9.765625E-06 -1 0
vn -9.765627E-06 -1 0
vn -9.765625E-06 -1 0
vn -9.765625E-06 -1 0
vn 2.44143E-06 2.441358E-06 1
vn 2.44143E-06 2.441358E-06 1
vn 2.44143E-06 2.441358E-06 1
vn 0 0 1
vn 9.765625E-06 1 0
vn 9.765625E-06 1 0
vn 9.765625E-06 1 0
vn 9.765625E-06 1 0
vn 0 0 1
vn 0 0 1
vn 0 0 1
vn 0 0 1
vn 1 0 4.882801E-06
vn 1 0 4.8828E-06
vn 1 0 4.882801E-06
vn 1 0 4.882812E-06
vn 0 -1 9.765625E-06
vn 0 -1 9.765625E-06
vn 0 -1 9.765625E-06
vn 0 -1 9.765631E-06
vn 1 -2.441406E-05 4.883054E-06
vn 1 -2.441406E-05 4.883054E-06
vn 1 -2.441406E-05 4.883054E-06
vn 1 -1.953125E-05 0
vn 0 1 -9.765629E-06
vn 0 1 -9.765629E-06
vn 0 1 -9.765629E-06
vn 0 1 -9.765624E-06
vn 1 0 0
vn 1 0 0
vn 1 0 0
vn 1 0 0
vn 0 1 0
vn 0 1 0
vn 0 1 0
vn -9.765622E-06 1 -9.765628E-06
vn -1 0 0
vn -1 0 0
vn -1 0 0
vn -1 0 0
vn 0 1 -9.765628E-06
vn 0 1 -9.765628E-06
vn 0 1 -9.765628E-06
vn 0 1 -9.765628E-06
vn -1 2.441406E-05 0
vn -1 2.441406E-05 0
vn -1 2.441406E-05 0
vn -1 1.953125E-05 -4.883005E-06
vn 0 -1 9.765628E-06
vn 0 -1 9.765627E-06
vn 0 -1 9.765628E-06
vn 9.765625E-06 -1 0
vn -1 0 -4.882814E-06
vn -1 0 -4.882814E-06
vn -1 0 -4.882814E-06
vn -1 0 -4.882802E-06
vn 0 -1 0
vn 0 -1 0
vn 0 -1 0
vn 9.765439E-06 -1 -9.765631E-06
vn 1 0 0
vn 1 0 0
vn 1 0 0
vn 1 -4.882812E-06 4.882767E-06
vn 0 1 9.765629E-06
vn 0 1 9.765629E-06
vn 0 1 9.765631E-06
vn -9.765625E-06 1 0
vn -1 1.953125E-05 -4.882812E-06
vn -1 1.953125E-05 -4.882812E-06
vn -1 1.953125E-05 -4.882812E-06
vn -1 2.441406E-05 0
vn 9.765428E-06 -1 9.765649E-06
vn 9.765428E-06 -1 9.765648E-06
vn 9.765428E-06 -1 9.765648E-06
vn 0 -1 0
vn -3.051698E-07 2.441418E-06 1
vn -3.051698E-07 2.441418E-06 1
vn -3.051699E-07 2.441418E-06 1
vn -3.051996E-07 2.441388E-06 1
vn 0 -1.220703E-06 -1
vn 0 -1.220703E-06 -1
vn 0 -1.220703E-06 -1
vn 0 -1.220703E-06 -1
vn 3.051698E-07 -1.220709E-06 -1
vn 3.051758E-07 0 -1
vn 3.051758E-07 -1.220697E-06 -1
vn 3.051758E-07 -1.220697E-06 -1
vn -9.155273E-07 0 -1
vn -9.155273E-07 0 -1
vn 6.103397E-07 0 -1
vn 6.103515E-07 0 -1
vn 6.103515E-07 0 -1
vn 3.051758E-07 0 -1
vn 3.051758E-07 0 -1
vn 3.051758E-07 0 -1
vn 3.051758E-07 0 -1
vn 3.051758E-07 0 -1
vn 3.051758E-07 0 -1
vn 3.051758E-07 0 -1
vn 3.051758E-07 3.051758E-07 -1
vn 3.051758E-07 3.051758E-07 -1
vn 3.051758E-07 3.051758E-07 -1
g Winter_tree_012_0
f 3/3/3 2/2/2 1/1/1
f 4/4/4 1/1/1 2/2/2
f 7/7/7 6/6/6 5/5/5
f 8/8/8 5/5/5 6/6/6
f 11/11/11 10/10/10 9/9/9
f 12/12/12 9/9/9 10/10/10
f 15/15/15 14/14/14 13/13/13
f 16/16/16 13/13/13 14/14/14
f 19/19/19 18/18/18 17/17/17
f 20/20/20 17/17/17 18/18/18
f 23/23/23 22/22/22 21/21/21
f 24/24/24 21/21/21 22/22/22
f 27/27/27 26/26/26 25/25/25
f 28/28/28 25/25/25 26/26/26
f 31/31/31 30/30/30 29/29/29
f 32/32/32 29/29/29 30/30/30
f 35/35/35 34/34/34 33/33/33
f 36/36/36 33/33/33 34/34/34
f 39/39/39 38/38/38 37/37/37
f 40/40/40 37/37/37 38/38/38
f 43/43/43 42/42/42 41/41/41
f 44/44/44 41/41/41 42/42/42
f 47/47/47 46/46/46 45/45/45
f 48/48/48 45/45/45 46/46/46
f 51/51/51 50/50/50 49/49/49
f 52/52/52 49/49/49 50/50/50
f 55/55/55 54/54/54 53/53/53
f 56/56/56 53/53/53 54/54/54
f 59/59/59 58/58/58 57/57/57
f 60/60/60 57/57/57 58/58/58
f 63/63/63 62/62/62 61/61/61
f 64/64/64 61/61/61 62/62/62
f 67/67/67 66/66/66 65/65/65
f 68/68/68 65/65/65 66/66/66
f 71/71/71 70/70/70 69/69/69
f 72/72/72 69/69/69 70/70/70
f 75/75/75 74/74/74 73/73/73
f 76/76/76 73/73/73 74/74/74
f 79/79/79 78/78/78 77/77/77
f 80/80/80 77/77/77 78/78/78
f 83/83/83 82/82/82 81/81/81
f 84/84/84 81/81/81 82/82/82
f 87/87/87 86/86/86 85/85/85
f 88/88/88 85/85/85 86/86/86
f 91/91/91 90/90/90 89/89/89
f 92/92/92 89/89/89 90/90/90
f 95/95/95 94/94/94 93/93/93
f 96/96/96 93/93/93 94/94/94
f 99/99/99 98/98/98 97/97/97
f 100/100/100 97/97/97 98/98/98
f 103/103/103 102/102/102 101/101/101
f 104/104/104 101/101/101 102/102/102
f 107/107/107 106/106/106 105/105/105
f 108/108/108 105/105/105 106/106/106
f 111/111/111 110/110/110 109/109/109
f 112/112/112 109/109/109 110/110/110
f 115/115/115 114/114/114 113/113/113
f 116/116/116 113/113/113 114/114/114
f 119/119/119 118/118/118 117/117/117
f 120/120/120 117/117/117 118/118/118
f 123/123/123 122/122/122 121/121/121
f 124/124/124 121/121/121 122/122/122
f 127/127/127 126/126/126 125/125/125
f 128/128/128 125/125/125 126/126/126
f 131/131/131 130/130/130 129/129/129
f 132/132/132 129/129/129 130/130/130
f 135/135/135 134/134/134 133/133/133
f 136/136/136 133/133/133 134/134/134
f 139/139/139 138/138/138 137/137/137
f 140/140/140 137/137/137 138/138/138
f 143/143/143 142/142/142 141/141/141
f 144/144/144 141/141/141 142/142/142
f 147/147/147 146/146/146 145/145/145
f 148/148/148 145/145/145 146/146/146
f 151/151/151 150/150/150 149/149/149
f 152/152/152 149/149/149 150/150/150
f 155/155/155 154/154/154 153/153/153
f 156/156/156 153/153/153 154/154/154
f 159/159/159 158/158/158 157/157/157
f 160/160/160 157/157/157 158/158/158
f 163/163/163 162/162/162 161/161/161
f 164/164/164 161/161/161 162/162/162
f 167/167/167 166/166/166 165/165/165
f 168/168/168 165/165/165 166/166/166
f 171/171/171 170/170/170 169/169/169
f 172/172/172 169/169/169 170/170/170
f 175/175/175 174/174/174 173/173/173
f 176/176/176 173/173/173 174/174/174
f 179/179/179 178/178/178 177/177/177
f 180/180/180 177/177/177 178/178/178
f 183/183/183 182/182/182 181/181/181
f 184/184/184 181/181/181 182/182/182
f 187/187/187 186/186/186 185/185/185
f 188/188/188 185/185/185 186/186/186
f 191/191/191 190/190/190 189/189/189
f 192/192/192 189/189/189 190/190/190
f 195/195/195 194/194/194 193/193/193
f 196/196/196 193/193/193 194/194/194
f 199/199/199 198/198/198 197/197/197
f 200/200/200 197/197/197 198/198/198
f 203/203/203 202/202/202 201/201/201
f 204/204/204 201/201/201 202/202/202
f 207/207/207 206/206/206 205/205/205
f 208/208/208 205/205/205 206/206/206
f 211/211/211 210/210/210 209/209/209
f 212/212/212 209/209/209 210/210/210
f 215/215/215 214/214/214 213/213/213
f 214/214/214 216/216/216 213/213/213
f 216/216/216 217/217/217 213/213/213
f 218/218/218 217/217/217 216/216/216
f 219/219/219 217/217/217 218/218/218
f 220/220/220 219/219/219 218/218/218
f 221/221/221 217/217/217 219/219/219
f 222/222/222 221/221/221 219/219/219
f 217/217/217 223/223/223 213/213/213
f 225/225/225 224/224/224 216/216/216
f 227/227/227 226/226/226 224/224/224
f 226/226/226 228/228/228 224/224/224
f 229/229/229 218/218/218 228/228/228
f 230/230/230 229/229/229 228/228/228
f 231/231/231 218/218/218 229/229/229
f 232/232/232 231/231/231 229/229/229
f 234/234/234 218/218/218 233/233/233
f 235/235/235 234/234/234 233/233/233
