g Winter_tree_091
v 0.117583 2.331409 -0.1175488
v 0.1175977 -0.07807373 0.1176074
v 0.117583 2.331408 0.1176074
v 0.1175977 -0.07807251 -0.1175488
v -0.1175732 2.331406 -0.1175488
v 0.1175977 -0.07807251 -0.1175488
v 0.117583 2.331409 -0.1175488
v -0.1175684 -0.07807251 -0.1175488
v -0.1175732 2.331408 0.1176074
v -0.1175684 -0.07807251 -0.1175488
v -0.1175732 2.331406 -0.1175488
v -0.1175684 -0.07807251 0.1176074
v 0.117583 2.331408 0.1176074
v -0.1175684 -0.07807251 0.1176074
v -0.1175732 2.331408 0.1176074
v 0.1175977 -0.07807373 0.1176074
v 0.8217676 4.160063 -0.8841406
v -0.821665 4.16006 0.8840137
v -0.8216748 4.160061 -0.8841308
v 0.8217676 4.16006 0.8840137
v 0.8217676 4.16006 0.8840137
v -0.821665 1.74648 0.8840234
v -0.821665 4.16006 0.8840137
v -0.821665 1.74648 0.8840234
v 0.8217676 4.16006 0.8840137
v 0.8217676 1.746478 0.8840234
v 0.8217676 4.160063 -0.8841406
v 0.8217676 1.746478 0.8840234
v 0.8217676 4.16006 0.8840137
v 0.8217676 1.746478 0.8840234
v 0.8217676 4.160063 -0.8841406
v 0.8217676 1.746476 -0.8841211
v -0.8216748 4.160061 -0.8841308
v 0.8217676 1.746476 -0.8841211
v 0.8217676 4.160063 -0.8841406
v 0.8217676 1.746476 -0.8841211
v -0.8216748 4.160061 -0.8841308
v -0.8216748 1.74648 -0.8841211
v -0.821665 4.16006 0.8840137
v -0.8216748 1.74648 -0.8841211
v -0.8216748 4.160061 -0.8841308
v -0.8216748 1.74648 -0.8841211
v -0.821665 4.16006 0.8840137
v -0.821665 1.74648 0.8840234
vt 1.503268 -12.61253
vt 1.158237 -12.57886
vt 1.503268 -12.57886
vt 1.158237 -12.61253
vt -10.48538 1.503268
vt -10.51905 1.158237
vt -10.51905 1.503268
vt -10.48538 1.158237
vt -0.503268 -12.57886
vt -0.158237 -12.61253
vt -0.5032676 -12.61253
vt -0.158237 -12.57886
vt 11.51905 1.503268
vt 11.48538 1.158237
vt 11.48538 1.503268
vt 11.51905 1.158237
vt -10.61989 -12.7223
vt -10.38455 -12.46911
vt -10.38455 -12.7223
vt -10.61989 -12.46911
vt 11.61989 1.765126
vt 11.38455 1.419508
vt 11.38455 1.765126
vt 11.38455 1.419508
vt 11.61989 1.765126
vt 11.61989 1.419508
vt 1.765126 -12.7223
vt 1.419508 -12.46911
vt 1.765126 -12.46911
vt 1.419508 -12.46911
vt 1.765126 -12.7223
vt 1.419507 -12.7223
vt -10.38455 1.765126
vt -10.61989 1.419507
vt -10.61989 1.765126
vt -10.61989 1.419507
vt -10.38455 1.765126
vt -10.38455 1.419508
vt -0.7651259 -12.46911
vt -0.4195077 -12.7223
vt -0.7651261 -12.7223
vt -0.4195077 -12.7223
vt -0.7651259 -12.46911
vt -0.4195077 -12.46911
vn 1 6.079497E-06 0
vn 1 6.079497E-06 0
vn 1 6.079497E-06 0
vn 1 6.079497E-06 0
vn 0 0 -1
vn 0 0 -1
vn 0 0 -1
vn 0 0 -1
vn -1 -2.026502E-06 0
vn -1 -2.026502E-06 0
vn -1 -2.026502E-06 0
vn -1 -2.0265E-06 0
vn 0 0 1
vn 0 0 1
vn 0 0 1
vn 0 0 1
vn -1.114154E-06 1 6.903927E-07
vn -1.114154E-06 1 6.903927E-07
vn -1.114154E-06 1 6.903927E-07
vn 0 1 1.725957E-06
vn 0 4.046115E-06 1
vn 0 4.046115E-06 1
vn 0 4.046115E-06 1
vn 0 4.046114E-06 1
vn 0 4.046114E-06 1
vn 0 4.046114E-06 1
vn 1 0 0
vn 1 0 0
vn 1 0 0
vn 1 0 0
vn 1 0 0
vn 1 0 0
vn -5.942167E-06 -8.092211E-06 -1
vn -5.942167E-06 -8.092211E-06 -1
vn -5.942167E-06 -8.092211E-06 -1
vn 0 -4.046114E-06 -1
vn 0 -4.046114E-06 -1
vn 0 -4.046114E-06 -1
vn -1 0 5.523092E-06
vn -1 0 5.523092E-06
vn -1 0 5.523092E-06
vn -1 0 5.523093E-06
vn -1 0 5.523092E-06
vn -1 0 5.523093E-06
g Winter_tree_091_0
f 3/3/3 2/2/2 1/1/1
f 4/4/4 1/1/1 2/2/2
f 7/7/7 6/6/6 5/5/5
f 8/8/8 5/5/5 6/6/6
f 11/11/11 10/10/10 9/9/9
f 12/12/12 9/9/9 10/10/10
f 15/15/15 14/14/14 13/13/13
f 16/16/16 13/13/13 14/14/14
g Winter_tree_091_1
f 19/19/19 18/18/18 17/17/17
f 20/20/20 17/17/17 18/18/18
f 23/23/23 22/22/22 21/21/21
f 26/26/26 25/25/25 24/24/24
f 29/29/29 28/28/28 27/27/27
f 32/32/32 31/31/31 30/30/30
f 35/35/35 34/34/34 33/33/33
f 38/38/38 37/37/37 36/36/36
f 41/41/41 40/40/40 39/39/39
f 44/44/44 43/43/43 42/42/42
