g Winter_tree_075
v 0.2324365 4.290227 -0.232456
v 0.2324609 -0.7933456 0.2324267
v 0.2324365 4.290228 0.2324267
v 0.2324609 -0.7933426 -0.232456
v -0.2324609 4.290222 -0.232456
v 0.2324609 -0.7933426 -0.232456
v 0.2324365 4.290227 -0.232456
v -0.2324463 -0.7933426 -0.232456
v -0.2324609 4.290228 0.2324267
v -0.2324463 -0.7933426 -0.232456
v -0.2324609 4.290222 -0.232456
v -0.2324463 -0.7933432 0.2324267
v 0.2324365 4.290228 0.2324267
v -0.2324463 -0.7933432 0.2324267
v -0.2324609 4.290228 0.2324267
v 0.2324609 -0.7933456 0.2324267
v 1.536323 5.765283 -1.592471
v -1.536245 5.765283 1.592305
v -1.53625 5.765279 -1.592461
v 1.536323 5.765283 1.592305
v 1.536323 5.765283 1.592305
v -1.536245 2.324289 1.592314
v -1.536245 5.765283 1.592305
v -1.536245 2.324289 1.592314
v 1.536323 5.765283 1.592305
v 1.536323 2.324287 1.592314
v 1.536323 5.765283 -1.592471
v 1.536323 2.324287 1.592314
v 1.536323 5.765283 1.592305
v 1.536323 2.324287 1.592314
v 1.536323 5.765283 -1.592471
v 1.536323 2.324281 -1.592461
v -1.53625 5.765279 -1.592461
v 1.536323 2.324281 -1.592461
v 1.536323 5.765283 -1.592471
v 1.536323 2.324281 -1.592461
v -1.53625 5.765279 -1.592461
v -1.53625 2.324286 -1.592461
v -1.536245 5.765283 1.592305
v -1.53625 2.324286 -1.592461
v -1.53625 5.765279 -1.592461
v -1.53625 2.324286 -1.592461
v -1.536245 5.765283 1.592305
v -1.536245 2.324289 1.592314
vt 0.8267646 -6.339747
vt 0.4611135 -6.306329
vt 0.8267646 -6.306329
vt 0.4611137 -6.339747
vt -5.258543 0.8262703
vt -5.291984 0.4608383
vt -5.291982 0.8262708
vt -5.258544 0.4608383
vt -0.3244646 -6.306329
vt 0.04118631 -6.339747
vt -0.3244642 -6.339747
vt 0.04118634 -6.306329
vt 5.794282 0.8262708
vt 5.760844 0.4608382
vt 5.760843 0.8262708
vt 5.794284 0.460838
vt -5.385768 -6.437512
vt -5.164764 -6.208574
vt -5.164764 -6.437511
vt -5.385768 -6.208574
vt 5.888068 0.9323051
vt 5.667065 0.6849492
vt 5.667065 0.9323051
vt 5.667065 0.6849492
vt 5.888068 0.9323051
vt 5.888068 0.684949
vt 0.9328623 -6.437512
vt 0.6853585 -6.208573
vt 0.9328623 -6.208574
vt 0.6853585 -6.208573
vt 0.9328623 -6.437512
vt 0.6853581 -6.437511
vt -5.164764 0.9323049
vt -5.385768 0.6849487
vt -5.385768 0.9323051
vt -5.385768 0.6849487
vt -5.164764 0.9323049
vt -5.164764 0.684949
vt -0.4305623 -6.208574
vt -0.1830584 -6.437511
vt -0.4305621 -6.437511
vt -0.1830584 -6.437511
vt -0.4305623 -6.208574
vt -0.1830586 -6.208573
vn 1 4.802539E-06 0
vn 1 4.802539E-06 0
vn 1 4.802539E-06 0
vn 1 4.802543E-06 0
vn 0 0 -1
vn 0 0 -1
vn 0 0 -1
vn 0 0 -1
vn -1 -2.881529E-06 0
vn -1 -2.881529E-06 0
vn -1 -2.881529E-06 0
vn -1 -2.881525E-06 0
vn 0 0 1
vn 0 0 1
vn 0 0 1
vn 0 0 1
vn -1.191874E-06 1 -1.149882E-06
vn -1.191874E-06 1 -1.149882E-06
vn -1.191874E-06 1 -1.149882E-06
vn 0 1 0
vn 0 2.838025E-06 1
vn 0 2.838025E-06 1
vn 0 2.838025E-06 1
vn 0 2.838023E-06 1
vn 0 2.838023E-06 1
vn 0 2.838023E-06 1
vn 1 0 0
vn 1 0 0
vn 1 0 0
vn 1 0 0
vn 1 0 0
vn 1 0 0
vn -3.178318E-06 -2.838019E-06 -1
vn -3.178317E-06 -2.838019E-06 -1
vn -3.178318E-06 -2.838019E-06 -1
vn 0 0 -1
vn 0 0 -1
vn 0 0 -1
vn -1 0 1.533178E-06
vn -1 0 1.533178E-06
vn -1 0 1.533178E-06
vn -1 0 1.533173E-06
vn -1 0 1.533173E-06
vn -1 0 1.533173E-06
g Winter_tree_075_0
f 3/3/3 2/2/2 1/1/1
f 4/4/4 1/1/1 2/2/2
f 7/7/7 6/6/6 5/5/5
f 8/8/8 5/5/5 6/6/6
f 11/11/11 10/10/10 9/9/9
f 12/12/12 9/9/9 10/10/10
f 15/15/15 14/14/14 13/13/13
f 16/16/16 13/13/13 14/14/14
g Winter_tree_075_1
f 19/19/19 18/18/18 17/17/17
f 20/20/20 17/17/17 18/18/18
f 23/23/23 22/22/22 21/21/21
f 26/26/26 25/25/25 24/24/24
f 29/29/29 28/28/28 27/27/27
f 32/32/32 31/31/31 30/30/30
f 35/35/35 34/34/34 33/33/33
f 38/38/38 37/37/37 36/36/36
f 41/41/41 40/40/40 39/39/39
f 44/44/44 43/43/43 42/42/42
