g Worning_06
v -0.06249995 0.188063 -3.66331
v 1.230704E-08 0.188063 -1.663309
v -0.06249993 0.188063 -1.663309
v -9.15063E-09 0.188063 -3.66331
v -7.43698E-08 0.1880634 -3.66331
v -8.297522E-08 0.1255634 -1.663309
v -7.43698E-08 0.1880634 -1.663309
v -8.297522E-08 0.1255634 -3.66331
v -0.06249995 0.1255631 -3.66331
v 1.323836E-08 0.1255631 -1.663309
v -8.219308E-09 0.1255631 -3.66331
v -0.06249993 0.1255631 -1.663309
v -0.06249984 0.1880634 -3.66331
v -0.06249985 0.1255634 -1.663309
v -0.06249985 0.1255634 -3.66331
v -0.06249984 0.1880634 -1.663309
vt 0.4628412 0.8346363
vt 0.4619666 0.8626227
vt 0.4628412 0.8626227
vt 0.4619666 0.8346363
vt 0.4628412 0.8346363
vt 0.4619666 0.8626227
vt 0.4628412 0.8626227
vt 0.4619666 0.8346363
vt 0.4628412 0.8346363
vt 0.4619666 0.8626227
vt 0.4619666 0.8346363
vt 0.4628412 0.8626227
vt 0.4628412 0.8346363
vt 0.4619666 0.8626227
vt 0.4619666 0.8346363
vt 0.4628412 0.8626227
vn 0 1 0
vn 0 1 0
vn 0 1 0
vn 0 1 0
vn 1 0 0
vn 1 0 0
vn 1 0 0
vn 1 0 0
vn 0 -1 0
vn 0 -1 0
vn 0 -1 0
vn 0 -1 0
vn -1 0 0
vn -1 0 0
vn -1 0 0
vn -1 0 0
g Worning_06_0
f 3/3/3 2/2/2 1/1/1
f 4/4/4 1/1/1 2/2/2
f 7/7/7 6/6/6 5/5/5
f 8/8/8 5/5/5 6/6/6
f 11/11/11 10/10/10 9/9/9
f 12/12/12 9/9/9 10/10/10
f 15/15/15 14/14/14 13/13/13
f 16/16/16 13/13/13 14/14/14
