# Mesh "xvost" exported with Unity Assets Bundle Extractor; 48 vertices, 72 indices, 32 bytes per vertex
g xvost
# SubMesh 0
# Vertices
v 0.500000 -0.491321 -1.020000
vt 8.361328 -0.233712
vn 1.000000 0.000000 0.000000
v 0.500000 -0.491321 -0.020000
vt 4.136603 0.083149
vn 1.000000 0.000000 0.000000
v 0.500000 0.508679 -0.020000
vt 4.453465 4.307873
vn 1.000000 0.000000 0.000000
v 0.500000 0.508679 -1.020000
vt 8.678188 3.991011
vn 1.000000 0.000000 0.000000
v -0.500000 -0.491321 -1.020000
vt 2.479503 -0.232958
vn -0.000000 0.000000 -1.000000
v 0.500000 -0.491321 -1.020000
vt -1.757087 -0.233712
vn -0.000000 0.000000 -1.000000
v 0.500000 0.508679 -1.020000
vt -1.757851 3.991011
vn -0.000000 0.000000 -1.000000
v -0.500000 0.508679 -1.020000
vt 2.478739 3.991766
vn -0.000000 0.000000 -1.000000
v -0.500000 0.508679 -1.020000
vt -1.478739 8.678345
vn -0.000000 1.000000 0.000000
v 0.500000 0.508679 -1.020000
vt 2.757851 8.678188
vn -0.000000 1.000000 0.000000
v 0.500000 0.508679 -0.020000
vt 2.757751 4.453465
vn -0.000000 1.000000 0.000000
v -0.500000 0.508679 -0.020000
vt -1.478839 4.453621
vn -0.000000 1.000000 0.000000
v -0.500000 0.508679 -0.020000
vt -1.478839 4.308627
vn -0.000000 0.000000 1.000000
v 0.500000 0.508679 -0.020000
vt 2.757751 4.307873
vn -0.000000 0.000000 1.000000
v 0.500000 -0.491321 -0.020000
vt 2.756987 0.083149
vn -0.000000 0.000000 1.000000
v -0.500000 -0.491321 -0.020000
vt -1.479603 0.083903
vn -0.000000 0.000000 1.000000
v -0.500000 -0.491321 -0.020000
vt 2.479603 4.136760
vn -0.000000 -1.000000 0.000000
v 0.500000 -0.491321 -0.020000
vt -1.756987 4.136603
vn -0.000000 -1.000000 0.000000
v 0.500000 -0.491321 -1.020000
vt -1.757087 8.361328
vn -0.000000 -1.000000 0.000000
v -0.500000 -0.491321 -1.020000
vt 2.479503 8.361485
vn -0.000000 -1.000000 0.000000
v -0.500000 -0.491321 -1.020000
vt -7.361485 -0.232958
vn -1.000000 0.000000 0.000000
v -0.500000 0.508679 -1.020000
vt -7.678345 3.991766
vn -1.000000 0.000000 0.000000
v -0.500000 0.508679 -0.020000
vt -3.453621 4.308627
vn -1.000000 0.000000 0.000000
v -0.500000 -0.491321 -0.020000
vt -3.136760 0.083903
vn -1.000000 0.000000 0.000000
v -0.083131 0.450012 -0.194762
vt 0.712763 5.173288
vn -0.000000 -1.000000 0.000000
v 0.084986 0.450012 -0.194762
vt 0.000519 5.173262
vn -0.000000 -1.000000 0.000000
v 0.084986 0.450012 -0.826293
vt 0.000456 7.841304
vn -0.000000 -1.000000 0.000000
v -0.083131 0.450012 -0.826293
vt 0.712700 7.841331
vn -0.000000 -1.000000 0.000000
v -0.083131 0.936316 -0.194762
vt 0.287608 5.327379
vn -0.000000 1.000000 -0.000000
v -0.083131 0.936316 -0.826293
vt 0.287671 7.995421
vn -0.000000 1.000000 -0.000000
v 0.084986 0.936316 -0.826293
vt 0.999916 7.995395
vn -0.000000 1.000000 -0.000000
v 0.084986 0.936316 -0.194762
vt 0.999853 5.327353
vn -0.000000 1.000000 -0.000000
v -0.083131 0.450012 -0.194762
vt 0.287237 4.005086
vn -0.000000 0.000000 1.000000
v -0.083131 0.936316 -0.194762
vt 0.287608 6.059583
vn -0.000000 0.000000 1.000000
v 0.084986 0.936316 -0.194762
vt 0.999853 6.059456
vn -0.000000 0.000000 1.000000
v 0.084986 0.450012 -0.194762
vt 0.999481 4.004959
vn -0.000000 0.000000 1.000000
v 0.084986 0.450012 -0.194762
vt 5.173262 4.004959
vn 1.000000 0.000000 0.000000
v 0.084986 0.936316 -0.194762
vt 5.327353 6.059456
vn 1.000000 0.000000 0.000000
v 0.084986 0.936316 -0.826293
vt 7.995395 5.859349
vn 1.000000 0.000000 0.000000
v 0.084986 0.450012 -0.826293
vt 7.841304 3.804851
vn 1.000000 0.000000 0.000000
v 0.084986 0.450012 -0.826293
vt 0.000456 3.804851
vn -0.000000 -0.000000 -1.000000
v 0.084986 0.936316 -0.826293
vt 0.000084 5.859349
vn -0.000000 -0.000000 -1.000000
v -0.083131 0.936316 -0.826293
vt 0.712329 5.859475
vn -0.000000 -0.000000 -1.000000
v -0.083131 0.450012 -0.826293
vt 0.712700 3.804978
vn -0.000000 -0.000000 -1.000000
v -0.083131 0.450012 -0.826293
vt -6.841331 3.804978
vn -1.000000 0.000000 0.000000
v -0.083131 0.936316 -0.826293
vt -6.995421 5.859475
vn -1.000000 0.000000 0.000000
v -0.083131 0.936316 -0.194762
vt -4.327379 6.059583
vn -1.000000 0.000000 0.000000
v -0.083131 0.450012 -0.194762
vt -4.173288 4.005086
vn -1.000000 0.000000 0.000000
# Faces (1 to 48)
f -46/-46/-46 -47/-47/-47 -48/-48/-48
f -45/-45/-45 -46/-46/-46 -48/-48/-48
f -42/-42/-42 -43/-43/-43 -44/-44/-44
f -41/-41/-41 -42/-42/-42 -44/-44/-44
f -38/-38/-38 -39/-39/-39 -40/-40/-40
f -37/-37/-37 -38/-38/-38 -40/-40/-40
f -34/-34/-34 -35/-35/-35 -36/-36/-36
f -33/-33/-33 -34/-34/-34 -36/-36/-36
f -30/-30/-30 -31/-31/-31 -32/-32/-32
f -29/-29/-29 -30/-30/-30 -32/-32/-32
f -26/-26/-26 -27/-27/-27 -28/-28/-28
f -25/-25/-25 -26/-26/-26 -28/-28/-28
f -22/-22/-22 -23/-23/-23 -24/-24/-24
f -21/-21/-21 -22/-22/-22 -24/-24/-24
f -18/-18/-18 -19/-19/-19 -20/-20/-20
f -17/-17/-17 -18/-18/-18 -20/-20/-20
f -14/-14/-14 -15/-15/-15 -16/-16/-16
f -13/-13/-13 -14/-14/-14 -16/-16/-16
f -10/-10/-10 -11/-11/-11 -12/-12/-12
f -9/-9/-9 -10/-10/-10 -12/-12/-12
f -6/-6/-6 -7/-7/-7 -8/-8/-8
f -5/-5/-5 -6/-6/-6 -8/-8/-8
f -2/-2/-2 -3/-3/-3 -4/-4/-4
f -1/-1/-1 -2/-2/-2 -4/-4/-4

