g Yacht_transp
v -4.500002 -5.923249 4.000031
v -4.500002 -5.423249 3.000031
v -4.500002 -5.423249 4.000031
v -4.500002 -5.923249 3.000031
v -4.500002 -5.923249 4.000031
v -4.500002 -5.423249 3.000031
v -4.500002 -5.923249 3.000031
v -4.500002 -5.423249 4.000031
v -2.839485 7.102586 4.669248
v -2.839485 -2.247252 3.906185
v -2.839485 7.102586 3.906185
v -2.839485 -2.247252 4.669248
v -2.839485 -2.247252 5.838486
v -2.839485 5.891036 4.669248
v -2.839485 5.891036 5.838486
v -2.839485 -2.247252 4.669248
v -2.839485 -5.4473 4.500019
v -2.839485 -2.247252 5.838486
v -2.839485 -5.4473 5.838486
v -2.839485 -2.247252 4.500019
v -2.669235 6.097491 4.919749
v 2.669235 7.364161 4.919749
v 2.669235 6.097491 4.919749
v -2.669235 7.364161 4.919749
v -2.669235 6.097491 5.838488
v 2.669235 6.097491 4.919749
v 2.669235 6.097491 5.838488
v -2.669235 6.097491 4.919749
v -2.669235 7.364162 4.919749
v 2.669235 7.364161 4.000008
v 2.669235 7.364162 4.919749
v -2.669236 7.364161 4.000008
v 2.78837 -0.04965271 3.906185
v 2.78837 -2.247252 4.669248
v 2.78837 -0.04965286 4.669248
v 2.78837 -2.247252 3.906185
v 2.78837 -2.247252 5.838486
v 2.78837 -0.04965256 5.838486
v 2.78837 5.891036 5.838486
v 2.78837 3.556567 4.669248
v 2.78837 3.556568 5.838486
v 2.78837 5.891036 4.669248
v 2.78837 -5.4473 4.500019
v 2.78837 -2.247252 5.838486
v 2.78837 -2.247252 4.500019
v 2.78837 -5.4473 5.838486
v -2.839485 7.102586 4.669248
v -2.839485 -2.247252 3.906185
v -2.839485 -2.247252 4.669248
v -2.839485 7.102586 3.906185
v -2.839485 -2.247252 5.838486
v -2.839485 5.891036 4.669248
v -2.839485 -2.247252 4.669248
v -2.839485 5.891036 5.838486
v -2.839485 -5.4473 4.500019
v -2.839485 -2.247252 5.838486
v -2.839485 -2.247252 4.500019
v -2.839485 -5.4473 5.838486
v -2.669235 6.097491 4.919749
v 2.669235 7.364161 4.919749
v -2.669235 7.364161 4.919749
v 2.669235 6.097491 4.919749
v -2.669235 6.097491 5.838488
v 2.669235 6.097491 4.919749
v -2.669235 6.097491 4.919749
v 2.669235 6.097491 5.838488
v -2.669235 7.364162 4.919749
v 2.669235 7.364161 4.000009
v -2.669236 7.364161 4.000009
v 2.669235 7.364162 4.919749
v 2.78837 -2.247252 4.669248
v 2.78837 -0.04965286 3.906185
v 2.78837 -0.04965271 4.669248
v 2.78837 -2.247252 3.906185
v 2.78837 -0.04965286 5.838486
v 2.78837 -2.247252 5.838486
v 2.78837 -0.04965256 4.669248
v 2.78837 3.556568 4.669248
v 2.78837 5.891036 5.838486
v 2.78837 3.556567 5.838486
v 2.78837 5.891036 4.669248
v 2.78837 -5.4473 4.500019
v 2.78837 -2.247252 5.838486
v 2.78837 -5.4473 5.838486
v 2.78837 -2.247252 4.500019
v 2.788371 2.364938 3.906185
v 2.78837 -0.03802567 4.669248
v 2.788371 2.364938 4.669248
v 2.78837 -0.03802567 3.906185
v 2.78837 -0.03802536 5.838486
v 2.788371 2.364938 4.669248
v 2.788371 2.364938 5.838486
v 2.788371 2.364938 4.669248
v 2.78837 -0.03802567 3.906185
v 2.788371 2.364938 3.906185
v 2.78837 -0.03802567 4.669248
v 2.788371 2.364938 5.838486
v 2.78837 -0.03802536 4.669248
v 2.78837 -0.03802567 5.838486
v 2.78837 7.102586 3.906185
v 2.78837 3.556568 4.669248
v 2.78837 7.102586 4.669248
v 2.78837 3.556568 3.906185
v 2.78837 7.102586 4.669248
v 2.78837 3.556568 3.906185
v 2.78837 7.102586 3.906185
v 2.78837 3.556568 4.669248
vt 0.2656399 1
vt 0.2343585 0.9374356
vt 0.2343585 1
vt 0.2656399 0.9374356
vt 0.2656399 1
vt 0.2343585 0.9374356
vt 0.2656399 0.9374356
vt 0.2343585 1
vt 0.2111849 0.7313926
vt 0.796142 0.6836535
vt 0.2111849 0.6836535
vt 0.796142 0.7313926
vt 0.796142 0.8045432
vt 0.2869849 0.7313926
vt 0.2869849 0.8045432
vt 0.796142 0.7313926
vt 0.9963469 0.7208044
vt 0.796142 0.8045432
vt 0.9963469 0.8045432
vt 0.796142 0.7208044
vt 0.9964159 0.7470892
vt 0.6624238 0.6678427
vt 0.6624238 0.7470892
vt 0.9964159 0.6678427
vt 0.9964159 0.8045686
vt 0.6624238 0.7470892
vt 0.6624238 0.8045686
vt 0.9964159 0.7470892
vt 0.9964159 0.6678427
vt 0.6624238 0.6103014
vt 0.6624238 0.6678432
vt 0.9964159 0.610302
vt 0.6586529 0.6836536
vt 0.796142 0.7313926
vt 0.6586529 0.7313925
vt 0.796142 0.6836535
vt 0.796142 0.8045432
vt 0.6586533 0.8045432
vt 0.2869849 0.8045432
vt 0.4330366 0.7313926
vt 0.4330367 0.8045433
vt 0.2869849 0.7313926
vt 0.9963469 0.7208044
vt 0.796142 0.8045432
vt 0.796142 0.7208044
vt 0.9963469 0.8045432
vt 0.2111849 0.7313926
vt 0.796142 0.6836535
vt 0.796142 0.7313926
vt 0.2111849 0.6836535
vt 0.796142 0.8045432
vt 0.2869849 0.7313926
vt 0.796142 0.7313926
vt 0.2869849 0.8045432
vt 0.9963469 0.7208044
vt 0.796142 0.8045432
vt 0.796142 0.7208044
vt 0.9963469 0.8045432
vt 0.9964159 0.7470892
vt 0.6624238 0.6678427
vt 0.9964159 0.6678427
vt 0.6624238 0.7470892
vt 0.9964159 0.8045686
vt 0.6624238 0.7470892
vt 0.9964159 0.7470892
vt 0.6624238 0.8045686
vt 0.9964159 0.6678427
vt 0.6624238 0.6103014
vt 0.9964157 0.610302
vt 0.6624238 0.6678432
vt 0.796142 0.7313926
vt 0.6586529 0.6836535
vt 0.6586529 0.7313926
vt 0.796142 0.6836535
vt 0.6586533 0.8045433
vt 0.796142 0.8045432
vt 0.6586533 0.7313926
vt 0.4330367 0.7313926
vt 0.2869849 0.8045432
vt 0.4330366 0.8045433
vt 0.2869849 0.7313926
vt 0.9963469 0.7208044
vt 0.796142 0.8045432
vt 0.9963469 0.8045432
vt 0.796142 0.7208044
vt 0.4330356 0.6836536
vt 0.5833731 0.7313925
vt 0.4330357 0.7313925
vt 0.5833731 0.6836536
vt 0.5833737 0.8045432
vt 0.4330366 0.7313926
vt 0.4330367 0.8045433
vt 0.4330356 0.7313926
vt 0.5833731 0.6836535
vt 0.4330357 0.6836536
vt 0.5833731 0.7313926
vt 0.4330366 0.8045433
vt 0.5833737 0.7313926
vt 0.5833737 0.8045433
vt 0.2111849 0.6836535
vt 0.4330357 0.7313925
vt 0.2111849 0.7313926
vt 0.4330356 0.6836536
vt 0.2111849 0.7313926
vt 0.4330357 0.6836536
vt 0.2111849 0.6836535
vt 0.4330356 0.7313926
vn -1 0 0
vn -1 0 0
vn -1 0 0
vn -1 0 0
vn 1 0 0
vn 1 0 0
vn 1 0 0
vn 1 0 0
vn -1 0 0
vn -1 0 0
vn -1 0 0
vn -1 0 0
vn -1 0 0
vn -1 0 0
vn -1 0 0
vn -1 0 0
vn -1 0 0
vn -1 0 0
vn -1 0 0
vn -1 0 0
vn 0 0 1
vn 0 0 1
vn 0 0 1
vn 0 0 1
vn 0 1 0
vn 0 1 0
vn 0 1 0
vn 0 1 0
vn 0 1 -1.327224E-06
vn 0 1 -1.327224E-06
vn 0 1 -1.327224E-06
vn 0 1 -1.327224E-06
vn 1 0 0
vn 1 0 0
vn 1 0 0
vn 1 0 0
vn 1 0 0
vn 1 0 0
vn 1 0 0
vn 1 0 0
vn 1 0 0
vn 1 0 0
vn 1 0 0
vn 1 0 0
vn 1 0 0
vn 1 0 0
vn 1 0 0
vn 1 0 0
vn 1 0 0
vn 1 0 0
vn 1 0 0
vn 1 0 0
vn 1 0 0
vn 1 0 0
vn 1 0 0
vn 1 0 0
vn 1 0 0
vn 1 0 0
vn 0 0 -1
vn 0 0 -1
vn 0 0 -1
vn 0 0 -1
vn 0 -1 0
vn 0 -1 0
vn 0 -1 0
vn 0 -1 0
vn 0 -1 1.327225E-06
vn 0 -1 1.327225E-06
vn 0 -1 1.327225E-06
vn 0 -1 1.327225E-06
vn -1 0 0
vn -1 0 0
vn -1 0 0
vn -1 0 0
vn -1 0 0
vn -1 0 0
vn -1 0 0
vn -1 0 0
vn -1 0 0
vn -1 0 0
vn -1 0 0
vn -1 0 0
vn -1 0 0
vn -1 0 0
vn -1 0 0
vn 1 -1.269997E-07 0
vn 1 -1.269997E-07 0
vn 1 -1.269997E-07 0
vn 1 -1.269997E-07 0
vn 1 -1.269998E-07 0
vn 1 -1.269998E-07 0
vn 1 -1.269998E-07 0
vn -1 1.269997E-07 0
vn -1 1.269997E-07 0
vn -1 1.269997E-07 0
vn -1 1.269997E-07 0
vn -1 1.269998E-07 0
vn -1 1.269998E-07 0
vn -1 1.269998E-07 0
vn 1 0 0
vn 1 0 0
vn 1 0 0
vn 1 0 0
vn -1 0 0
vn -1 0 0
vn -1 0 0
vn -1 0 0
g Yacht_transp_0
f 3/3/3 2/2/2 1/1/1
f 4/4/4 1/1/1 2/2/2
f 7/7/7 6/6/6 5/5/5
f 8/8/8 5/5/5 6/6/6
f 11/11/11 10/10/10 9/9/9
f 12/12/12 9/9/9 10/10/10
f 15/15/15 14/14/14 13/13/13
f 16/16/16 13/13/13 14/14/14
f 19/19/19 18/18/18 17/17/17
f 20/20/20 17/17/17 18/18/18
f 23/23/23 22/22/22 21/21/21
f 24/24/24 21/21/21 22/22/22
f 27/27/27 26/26/26 25/25/25
f 28/28/28 25/25/25 26/26/26
f 31/31/31 30/30/30 29/29/29
f 32/32/32 29/29/29 30/30/30
f 35/35/35 34/34/34 33/33/33
f 36/36/36 33/33/33 34/34/34
f 34/34/34 35/35/35 37/37/37
f 38/38/38 37/37/37 35/35/35
f 41/41/41 40/40/40 39/39/39
f 42/42/42 39/39/39 40/40/40
f 45/45/45 44/44/44 43/43/43
f 46/46/46 43/43/43 44/44/44
f 49/49/49 48/48/48 47/47/47
f 50/50/50 47/47/47 48/48/48
f 53/53/53 52/52/52 51/51/51
f 54/54/54 51/51/51 52/52/52
f 57/57/57 56/56/56 55/55/55
f 58/58/58 55/55/55 56/56/56
f 61/61/61 60/60/60 59/59/59
f 62/62/62 59/59/59 60/60/60
f 65/65/65 64/64/64 63/63/63
f 66/66/66 63/63/63 64/64/64
f 69/69/69 68/68/68 67/67/67
f 70/70/70 67/67/67 68/68/68
f 73/73/73 72/72/72 71/71/71
f 74/74/74 71/71/71 72/72/72
f 76/76/76 75/75/75 71/71/71
f 77/77/77 71/71/71 75/75/75
f 80/80/80 79/79/79 78/78/78
f 81/81/81 78/78/78 79/79/79
f 84/84/84 83/83/83 82/82/82
f 85/85/85 82/82/82 83/83/83
f 88/88/88 87/87/87 86/86/86
f 89/89/89 86/86/86 87/87/87
f 87/87/87 91/91/91 90/90/90
f 92/92/92 90/90/90 91/91/91
f 95/95/95 94/94/94 93/93/93
f 96/96/96 93/93/93 94/94/94
f 93/93/93 98/98/98 97/97/97
f 99/99/99 97/97/97 98/98/98
f 102/102/102 101/101/101 100/100/100
f 103/103/103 100/100/100 101/101/101
f 106/106/106 105/105/105 104/104/104
f 107/107/107 104/104/104 105/105/105
