g yellow
v -0.22 0.06000001 -0.22
v -0.1 0.06 -0.09999999
v -0.1 0.06 0.09999999
v -0.22 0.06000001 0.22
v -0.06 0.06 0.09999999
v -0.06 0.06 0.22
v 0.22 0.05999999 -0.22
v 0.09999999 0.05999999 -0.09999999
v 0.09999999 0.05999999 0.09999999
v 0.22 0.05999999 0.22
v 0.05999999 0.05999999 0.22
v 0.05999999 0.05999999 0.09999999
v -0.22 -0.05999999 -0.22
v -0.22 -0.05999999 0.22
v -0.1 -0.05999999 0.09999999
v -0.1 -0.05999999 -0.09999999
v 0.22 -0.06000001 -0.22
v 0.09999999 -0.06 -0.09999999
v 0.09999999 -0.06 0.09999999
v 0.22 -0.06000001 0.22
v 0.05999998 -0.06 0.22
v 0.05999998 -0.06 0.09999999
v -0.06000001 -0.05999999 0.09999999
v -0.06000001 -0.05999999 0.22
v -0.22 -0.05999999 -0.22
v -0.22 0.06000001 -0.22
v -0.22 0.06000001 0.22
v -0.22 -0.05999999 0.22
v 0.05999998 -0.06 0.09999999
v 0.05999999 0.05999999 0.09999999
v 0.05999999 0.05999999 0.22
v 0.05999998 -0.06 0.22
v 0.09999999 -0.06 -0.09999999
v 0.09999999 0.05999999 -0.09999999
v 0.09999999 0.05999999 0.09999999
v 0.09999999 -0.06 0.09999999
v -0.1 0.06 0.09999999
v -0.1 0.06 -0.09999999
v -0.1 -0.05999999 -0.09999999
v -0.1 -0.05999999 0.09999999
v -0.06 0.06 0.22
v -0.06 0.06 0.09999999
v -0.06000001 -0.05999999 0.09999999
v -0.06000001 -0.05999999 0.22
v 0.22 0.05999999 0.22
v 0.22 0.05999999 -0.22
v 0.22 -0.06000001 -0.22
v 0.22 -0.06000001 0.22
v 0.22 0.05999999 -0.22
v -0.22 0.06000001 -0.22
v -0.22 -0.05999999 -0.22
v 0.22 -0.06000001 -0.22
v -0.06 0.06 0.09999999
v -0.1 0.06 0.09999999
v -0.1 -0.05999999 0.09999999
v -0.06000001 -0.05999999 0.09999999
v 0.09999999 0.05999999 0.09999999
v 0.05999999 0.05999999 0.09999999
v 0.05999998 -0.06 0.09999999
v 0.09999999 -0.06 0.09999999
v -0.1 -0.05999999 -0.09999999
v -0.1 0.06 -0.09999999
v 0.09999999 0.05999999 -0.09999999
v 0.09999999 -0.06 -0.09999999
v -0.22 -0.05999999 0.22
v -0.22 0.06000001 0.22
v -0.06 0.06 0.22
v -0.06000001 -0.05999999 0.22
v 0.05999998 -0.06 0.22
v 0.05999999 0.05999999 0.22
v 0.22 0.05999999 0.22
v 0.22 -0.06000001 0.22
vt 0.34375 0.203125
vt 0.3203125 0.1796875
vt 0.28125 0.1796875
vt 0.2578125 0.203125
vt 0.28125 0.171875
vt 0.2578125 0.171875
vt 0.34375 0.1171875
vt 0.3203125 0.140625
vt 0.28125 0.140625
vt 0.2578125 0.1171875
vt 0.2578125 0.1484375
vt 0.28125 0.1484375
vt 0.34375 0.1171875
vt 0.2578125 0.1171875
vt 0.28125 0.140625
vt 0.3203125 0.140625
vt 0.34375 0.203125
vt 0.3203125 0.1796875
vt 0.28125 0.1796875
vt 0.2578125 0.203125
vt 0.2578125 0.171875
vt 0.28125 0.171875
vt 0.28125 0.1484375
vt 0.2578125 0.1484375
vt 0.2578125 0.1171875
vt 0.2578125 0.140625
vt 0.34375 0.140625
vt 0.34375 0.1171875
vt 0.34375 0.640625
vt 0.3671875 0.640625
vt 0.3671875 0.6171875
vt 0.34375 0.6171875
vt 0.328125 0.6953125
vt 0.328125 0.71875
vt 0.3671875 0.71875
vt 0.3671875 0.6953125
vt 0.65625 0.8359375
vt 0.6171875 0.8359375
vt 0.6171875 0.859375
vt 0.65625 0.859375
vt 0.1015625 0.84375
vt 0.1015625 0.8671875
vt 0.125 0.8671875
vt 0.125 0.84375
vt 0.34375 0.1171875
vt 0.2578125 0.1171875
vt 0.2578125 0.140625
vt 0.34375 0.140625
vt 0.2578125 0.140625
vt 0.34375 0.140625
vt 0.34375 0.1171875
vt 0.2578125 0.1171875
vt 0.7109375 0.5234375
vt 0.7109375 0.515625
vt 0.6875 0.515625
vt 0.6875 0.5234375
vt 0.34375 0.8671875
vt 0.34375 0.859375
vt 0.3203125 0.859375
vt 0.3203125 0.8671875
vt 0.8359375 0.3046875
vt 0.8359375 0.328125
vt 0.875 0.328125
vt 0.875 0.3046875
vt 0.328125 0.6953125
vt 0.328125 0.71875
vt 0.359375 0.71875
vt 0.359375 0.6953125
vt 0.328125 0.6953125
vt 0.328125 0.71875
vt 0.359375 0.71875
vt 0.359375 0.6953125
vn 0 1 0
vn 0 1 0
vn 0 1 0
vn 0 1 0
vn 0 1 0
vn 0 1 0
vn 0 1 0
vn 0 1 0
vn 0 1 0
vn 0 1 0
vn 0 1 0
vn 0 1 0
vn 0 -1 0
vn 0 -1 0
vn 0 -1 0
vn 0 -1 0
vn 0 -1 0
vn 0 -1 0
vn 0 -1 0
vn 0 -1 0
vn 0 -1 0
vn 0 -1 0
vn 0 -1 0
vn 0 -1 0
vn -1 0 0
vn -1 0 0
vn -1 0 0
vn -1 0 0
vn -1 0 0
vn -1 0 0
vn -1 0 0
vn -1 0 0
vn -1 0 0
vn -1 0 0
vn -1 0 0
vn -1 0 0
vn 1 0 0
vn 1 0 0
vn 1 0 0
vn 1 0 0
vn 1 0 0
vn 1 0 0
vn 1 0 0
vn 1 0 0
vn 1 0 0
vn 1 0 0
vn 1 0 0
vn 1 0 0
vn 0 0 -1
vn 0 0 -1
vn 0 0 -1
vn 0 0 -1
vn 0 0 -1
vn 0 0 -1
vn 0 0 -1
vn 0 0 -1
vn 0 0 -1
vn 0 0 -1
vn 0 0 -1
vn 0 0 -1
vn 0 0 1
vn 0 0 1
vn 0 0 1
vn 0 0 1
vn 0 0 1
vn 0 0 1
vn 0 0 1
vn 0 0 1
vn 0 0 1
vn 0 0 1
vn 0 0 1
vn 0 0 1
g yellow_0
f 3/3/3 2/2/2 1/1/1
f 4/4/4 3/3/3 1/1/1
f 5/5/5 3/3/3 4/4/4
f 6/6/6 5/5/5 4/4/4
f 7/7/7 1/1/1 2/2/2
f 8/8/8 7/7/7 2/2/2
f 7/7/7 8/8/8 9/9/9
f 10/10/10 7/7/7 9/9/9
f 11/11/11 10/10/10 9/9/9
f 12/12/12 11/11/11 9/9/9
f 15/15/15 14/14/14 13/13/13
f 16/16/16 15/15/15 13/13/13
f 16/16/16 13/13/13 17/17/17
f 18/18/18 16/16/16 17/17/17
f 19/19/19 18/18/18 17/17/17
f 20/20/20 19/19/19 17/17/17
f 19/19/19 20/20/20 21/21/21
f 22/22/22 19/19/19 21/21/21
f 14/14/14 15/15/15 23/23/23
f 24/24/24 14/14/14 23/23/23
f 27/27/27 26/26/26 25/25/25
f 28/28/28 27/27/27 25/25/25
f 31/31/31 30/30/30 29/29/29
f 32/32/32 31/31/31 29/29/29
f 35/35/35 34/34/34 33/33/33
f 36/36/36 35/35/35 33/33/33
f 39/39/39 38/38/38 37/37/37
f 40/40/40 39/39/39 37/37/37
f 43/43/43 42/42/42 41/41/41
f 44/44/44 43/43/43 41/41/41
f 47/47/47 46/46/46 45/45/45
f 48/48/48 47/47/47 45/45/45
f 51/51/51 50/50/50 49/49/49
f 52/52/52 51/51/51 49/49/49
f 55/55/55 54/54/54 53/53/53
f 56/56/56 55/55/55 53/53/53
f 59/59/59 58/58/58 57/57/57
f 60/60/60 59/59/59 57/57/57
f 63/63/63 62/62/62 61/61/61
f 64/64/64 63/63/63 61/61/61
f 67/67/67 66/66/66 65/65/65
f 68/68/68 67/67/67 65/65/65
f 71/71/71 70/70/70 69/69/69
f 72/72/72 71/71/71 69/69/69
