g Zemlya_5
v 26 14 0.5000023
v 25 14 0.5000023
v 26 14 -0.07562625
v 25 14 -0.07562625
v 22 23 -0.07562479
v 17 23 -0.07562479
v 22 23 0.5000038
v 17 23 0.5000038
v 26 19 -0.07562543
v 22 19 -0.07562543
v 26 19 0.5000031
v 22 19 0.5000031
v 25 5.000001 -0.07562771
v 25 5.000001 0.5000008
v 27.99999 5.000001 -0.07562771
v 27.99999 5.000001 0.5000008
v 27.99999 -10 0.4999984
v 34 -10 0.4999984
v 27.99999 -10 -0.07563016
v 34 -10 -0.07563016
v 50 -10 0.4999984
v 50 -10 -0.07563016
v 41 -10 0.4999984
v 41 -10 -0.07563016
v 17 30 -0.07562365
v 12 30 -0.07562365
v 17 30 0.5000049
v 12 30 0.5000049
v 34 -7.999999 -0.07562983
v 34 -7.999998 0.4999987
v 41 -7.999999 -0.07562983
v 41 -7.999998 0.4999987
v 50 -7.999998 0.4999987
v 50 -10 -0.07563016
v 50 -10 0.4999984
v 12 33 -0.07562315
v 12 33 0.5000054
v 12 30 -0.07562365
v 12 30 0.5000049
v 27.99999 -10 0.4999984
v 27.99999 -10 -0.07563016
v 27.99999 5.000001 0.5000008
v 27.99999 5.000001 -0.07562771
v 34 -10 0.4999984
v 34 -7.999998 0.4999987
v 34 -10 -0.07563016
v 34 -7.999999 -0.07562983
v 22 19 -0.07562543
v 22 23 -0.07562479
v 22 19 0.5000031
v 22 23 0.5000038
v 41 -10 -0.07563016
v 41 -7.999999 -0.07562983
v 41 -10 0.4999984
v 41 -7.999998 0.4999987
v 25 5.000001 0.5000008
v 25 5.000001 -0.07562771
v 25 14 0.5000023
v 25 14 -0.07562625
v 26 14 -0.07562625
v 26 19 -0.07562543
v 26 14 0.5000023
v 26 19 0.5000031
v 17 30 -0.07562365
v 17 30 0.5000049
v 17 23 -0.07562479
v 17 23 0.5000038
v 12 33 0.5000054
v 7.018845 33 -0.07373875
v 7.018845 33 0.5000047
v 12 33 -0.07562315
v 7.003874 50 0.5000082
v 8.45 39.7 0.5000065
v 7.018845 33 0.5000047
v 11.3 39.7 0.5000065
v 11.3 37.75 0.5000061
v 12 33 0.5000054
v 8.45 48.25 0.5000079
v 17 30 0.5000049
v 12 30 0.5000049
v 17.3 37.75 0.5000061
v 22 23 0.5000038
v 17 23 0.5000038
v 25.49389 48.22018 0.5000079
v 50 50 0.5000082
v 37.25 34.22032 0.5000055
v 25.49392 34.22032 0.5000055
v 42.20612 8.703707 0.5000014
v 37.25 8.703707 0.5000014
v 27.99999 5.000001 0.5000008
v 34.25 8.65 0.5000014
v 29.25 5 0.5000008
v 31.04351 5 0.5000008
v 37.44699 5.611914 0.5000009
v 37.44738 3.169969 0.5000005
v 31.04394 3.168606 0.5000005
v 42.2 5.611914 0.5000009
v 46.20612 8.703707 0.5000014
v 29.25 -0.9999962 0.4999999
v 27.99999 -10 0.4999984
v 37.42 -1.738086 0.4999997
v 31.04351 -0.9999962 0.4999999
v 31.04351 0.7038589 0.5000001
v 37.42 0.7038589 0.5000001
v 44.9 -1.738086 0.4999997
v 34 -7.999998 0.4999987
v 34 -10 0.4999984
v 41 -7.999998 0.4999987
v 50 -7.999998 0.4999987
v 50 -10 0.4999984
v 41 -10 0.4999984
v 46.20612 4.003891 0.5000007
v 44.9 4.003891 0.5000007
v 26 19 0.5000031
v 34.25 32.1 0.5000052
v 26 14 0.5000023
v 25 5.000001 0.5000008
v 25 14 0.5000023
v 23.4 32.1 0.5000052
v 22 19 0.5000031
v 17.3 39.65 0.5000064
v 23.4 39.65 0.5000064
vt -25.5 1
vt -24.5 1
vt -25.5 0.4243715
vt -24.5 0.4243715
vt 22.5 0.4243715
vt 17.5 0.4243715
vt 22.5 1
vt 17.5 1
vt 26.5 0.4243715
vt 22.5 0.4243715
vt 26.5 1
vt 22.5 1
vt 25.5 0.4243715
vt 25.5 1
vt 28.5 0.4243715
vt 28.5 1
vt 28.5 1
vt 34.5 1
vt 28.5 0.4243715
vt 34.5 0.4243715
vt 50.5 1
vt 50.5 0.4243715
vt 41.5 1
vt 41.5 0.4243715
vt 17.5 0.4243715
vt 12.5 0.4243715
vt 17.5 1
vt 12.5 1
vt 34.5 0.4243715
vt 34.5 1
vt 41.5 0.4243715
vt 41.5 1
vt -7.499998 1
vt -9.500001 0.4243715
vt -9.500002 1
vt -32.5 0.4243715
vt -32.5 1
vt -29.5 0.4243715
vt -29.5 1
vt 10.5 1
vt 10.5 0.4243715
vt -4.500001 1
vt -4.500001 0.4243715
vt -9.500002 1
vt -7.499998 1
vt -9.500001 0.4243715
vt -7.499999 0.4243715
vt -18.5 0.4243715
vt -22.5 0.4243715
vt -18.5 1
vt -22.5 1
vt 10.5 0.4243715
vt 8.499999 0.4243715
vt 10.5 1
vt 8.499998 1
vt -4.500001 1
vt -4.500001 0.4243715
vt -13.5 1
vt -13.5 0.4243715
vt -13.5 0.4243715
vt -18.5 0.4243715
vt -13.5 1
vt -18.5 1
vt -29.5 0.4243715
vt -29.5 1
vt -22.5 0.4243715
vt -22.5 1
vt 12.5 1
vt 7.518846 0.4262555
vt 7.518846 0.9999975
vt 12.5 0.4243715
vt -6.503876 -49.5
vt -7.95 -39.2
vt -6.518845 -32.5
vt -10.8 -39.2
vt -10.8 -37.25
vt -11.5 -32.5
vt -7.95 -47.75
vt -16.5 -29.5
vt -11.5 -29.5
vt -16.8 -37.25
vt -21.5 -22.5
vt -16.5 -22.5
vt -24.99389 -47.72018
vt -49.5 -49.5
vt -36.75 -33.72032
vt -24.99392 -33.72032
vt -41.70612 -8.203707
vt -36.75 -8.203707
vt -27.5 -4.500001
vt -33.75 -8.15
vt -28.75 -4.5
vt -30.54351 -4.5
vt -36.94699 -5.111914
vt -36.94738 -2.66997
vt -30.54394 -2.668606
vt -41.7 -5.111914
vt -45.70612 -8.203707
vt -28.75 1.499996
vt -27.5 10.5
vt -36.92 2.238086
vt -30.54351 1.499996
vt -30.54351 -0.203859
vt -36.92 -0.203859
vt -44.4 2.238086
vt -33.5 8.499998
vt -33.5 10.5
vt -40.5 8.499998
vt -49.5 8.499998
vt -49.5 10.5
vt -40.5 10.5
vt -45.70612 -3.503891
vt -44.4 -3.503891
vt -25.5 -18.5
vt -33.75 -31.6
vt -25.5 -13.5
vt -24.5 -4.500001
vt -24.5 -13.5
vt -22.9 -31.6
vt -21.5 -18.5
vt -16.8 -39.15
vt -22.9 -39.15
vn 0 1 0
vn 0 1 0
vn 0 1 0
vn 0 1 0
vn 0 -1 0
vn 0 -1 0
vn 0 -1 0
vn 0 -1 0
vn 0 -1 0
vn 0 -1 0
vn 0 -1 0
vn 0 -1 0
vn 0 -1 0
vn 0 -1 0
vn 0 -1 0
vn 0 -1 0
vn 0 -1 0
vn 0 -1 0
vn 0 -1 0
vn 0 -1 0
vn 0 -1 0
vn 0 -1 0
vn 0 -1 0
vn 0 -1 0
vn 0 -1 0
vn 0 -1 0
vn 0 -1 0
vn 0 -1 0
vn 0 -1 0
vn 0 -1 0
vn 0 -1 0
vn 0 -1 0
vn 1 0 0
vn 1 0 0
vn 1 0 0
vn -1 0 0
vn -1 0 0
vn -1 0 0
vn -1 0 0
vn -1 0 0
vn -1 0 0
vn -1 0 0
vn -1 0 0
vn 1 0 0
vn 1 0 0
vn 1 0 0
vn 1 0 0
vn -1 0 0
vn -1 0 0
vn -1 0 0
vn -1 0 0
vn -1 0 0
vn -1 0 0
vn -1 0 0
vn -1 0 0
vn -1 0 0
vn -1 0 0
vn -1 0 0
vn -1 0 0
vn -1 0 0
vn -1 0 0
vn -1 0 0
vn -1 0 0
vn -1 0 0
vn -1 0 0
vn -1 0 0
vn -1 0 0
vn 0 -1 0
vn 0 -1 0
vn 0 -1 0
vn 0 -1 0
vn 0 0 1
vn 0 0 1
vn 0 0 1
vn 0 0 1
vn 0 0 1
vn 0 0 1
vn 0 0 1
vn 0 0 1
vn 0 0 1
vn 0 0 1
vn 0 0 1
vn 0 0 1
vn 0 0 1
vn 0 0 1
vn 0 0 1
vn 0 0 1
vn 0 0 1
vn 0 0 1
vn 0 0 1
vn 0 0 1
vn 0 0 1
vn 0 0 1
vn 0 0 1
vn 0 0 1
vn 0 0 1
vn 0 0 1
vn 0 0 1
vn 0 0 1
vn 0 0 1
vn 0 0 1
vn 0 0 1
vn 0 0 1
vn 0 0 1
vn 0 0 1
vn 0 0 1
vn 0 0 1
vn 0 0 1
vn 0 0 1
vn 0 0 1
vn 0 0 1
vn 0 0 1
vn 0 0 1
vn 0 0 1
vn 0 0 1
vn 0 0 1
vn 0 0 1
vn 0 0 1
vn 0 0 1
vn 0 0 1
vn 0 0 1
vn 0 0 1
g Zemlya_5_0
f 3/3/3 2/2/2 1/1/1
f 2/2/2 3/3/3 4/4/4
f 7/7/7 6/6/6 5/5/5
f 6/6/6 7/7/7 8/8/8
f 11/11/11 10/10/10 9/9/9
f 10/10/10 11/11/11 12/12/12
f 15/15/15 14/14/14 13/13/13
f 14/14/14 15/15/15 16/16/16
f 19/19/19 18/18/18 17/17/17
f 18/18/18 19/19/19 20/20/20
f 23/23/23 22/22/22 21/21/21
f 22/22/22 23/23/23 24/24/24
f 27/27/27 26/26/26 25/25/25
f 26/26/26 27/27/27 28/28/28
f 31/31/31 30/30/30 29/29/29
f 30/30/30 31/31/31 32/32/32
f 35/35/35 34/34/34 33/33/33
f 38/38/38 37/37/37 36/36/36
f 37/37/37 38/38/38 39/39/39
f 42/42/42 41/41/41 40/40/40
f 41/41/41 42/42/42 43/43/43
f 46/46/46 45/45/45 44/44/44
f 45/45/45 46/46/46 47/47/47
f 50/50/50 49/49/49 48/48/48
f 49/49/49 50/50/50 51/51/51
f 54/54/54 53/53/53 52/52/52
f 53/53/53 54/54/54 55/55/55
f 58/58/58 57/57/57 56/56/56
f 57/57/57 58/58/58 59/59/59
f 62/62/62 61/61/61 60/60/60
f 61/61/61 62/62/62 63/63/63
f 66/66/66 65/65/65 64/64/64
f 65/65/65 66/66/66 67/67/67
f 70/70/70 69/69/69 68/68/68
f 71/71/71 68/68/68 69/69/69
f 74/74/74 73/73/73 72/72/72
f 75/75/75 73/73/73 74/74/74
f 76/76/76 75/75/75 74/74/74
f 77/77/77 76/76/76 74/74/74
f 73/73/73 78/78/78 72/72/72
f 77/77/77 79/79/79 76/76/76
f 80/80/80 79/79/79 77/77/77
f 79/79/79 81/81/81 76/76/76
f 82/82/82 81/81/81 79/79/79
f 83/83/83 82/82/82 79/79/79
f 78/78/78 84/84/84 72/72/72
f 72/72/72 84/84/84 85/85/85
f 84/84/84 86/86/86 85/85/85
f 87/87/87 86/86/86 84/84/84
f 86/86/86 88/88/88 85/85/85
f 89/89/89 88/88/88 86/86/86
f 90/90/90 88/88/88 89/89/89
f 91/91/91 90/90/90 89/89/89
f 92/92/92 88/88/88 90/90/90
f 93/93/93 88/88/88 92/92/92
f 94/94/94 88/88/88 93/93/93
f 95/95/95 94/94/94 93/93/93
f 96/96/96 95/95/95 93/93/93
f 97/97/97 88/88/88 94/94/94
f 88/88/88 98/98/98 85/85/85
f 92/92/92 90/90/90 99/99/99
f 90/90/90 100/100/100 99/99/99
f 99/99/99 100/100/100 101/101/101
f 102/102/102 99/99/99 101/101/101
f 103/103/103 102/102/102 101/101/101
f 104/104/104 103/103/103 101/101/101
f 101/101/101 100/100/100 105/105/105
f 100/100/100 106/106/106 105/105/105
f 107/107/107 106/106/106 100/100/100
f 106/106/106 108/108/108 105/105/105
f 108/108/108 109/109/109 105/105/105
f 110/110/110 109/109/109 108/108/108
f 111/111/111 110/110/110 108/108/108
f 105/105/105 109/109/109 112/112/112
f 112/112/112 109/109/109 98/98/98
f 113/113/113 105/105/105 112/112/112
f 98/98/98 109/109/109 85/85/85
f 115/115/115 114/114/114 91/91/91
f 116/116/116 91/91/91 114/114/114
f 90/90/90 91/91/91 116/116/116
f 117/117/117 90/90/90 116/116/116
f 118/118/118 117/117/117 116/116/116
f 119/119/119 114/114/114 115/115/115
f 82/82/82 114/114/114 119/119/119
f 120/120/120 114/114/114 82/82/82
f 81/81/81 82/82/82 119/119/119
f 121/121/121 81/81/81 119/119/119
f 122/122/122 121/121/121 119/119/119
g Zemlya_5_1
f 112/112/112 98/98/98 113/113/113
f 98/98/98 97/97/97 113/113/113
f 88/88/88 97/97/97 98/98/98
f 97/97/97 95/95/95 113/113/113
f 94/94/94 95/95/95 97/97/97
f 95/95/95 103/103/103 113/113/113
f 96/96/96 103/103/103 95/95/95
f 92/92/92 103/103/103 96/96/96
f 93/93/93 92/92/92 96/96/96
f 102/102/102 103/103/103 92/92/92
f 99/99/99 102/102/102 92/92/92
f 103/103/103 104/104/104 113/113/113
f 113/113/113 104/104/104 105/105/105
f 104/104/104 101/101/101 105/105/105
f 78/78/78 73/73/73 84/84/84
f 73/73/73 75/75/75 84/84/84
f 75/75/75 121/121/121 84/84/84
f 81/81/81 121/121/121 75/75/75
f 76/76/76 81/81/81 75/75/75
f 121/121/121 122/122/122 84/84/84
f 84/84/84 122/122/122 87/87/87
f 122/122/122 119/119/119 87/87/87
f 87/87/87 119/119/119 86/86/86
f 119/119/119 115/115/115 86/86/86
f 115/115/115 91/91/91 86/86/86
f 91/91/91 89/89/89 86/86/86
