g ZoneCollider
v 19.39998 32.62902 7.999987
v 19.39998 3.999981 6.999987
v 19.39998 32.62902 6.999987
v 19.39998 3.999981 7.999987
v 19.39998 3.999981 -6.999977
v 19.39998 32.62902 -6.999977
v 19.39998 3.999981 -7.999979
v 19.39998 32.62902 -7.999979
v 18.39998 32.62902 7.999987
v 19.39998 3.999981 7.999987
v 19.39998 32.62902 7.999987
v 18.39998 3.999981 7.999987
v 14.39998 32.62902 7.999987
v 14.39998 3.999981 7.999987
v 19.39998 32.62902 -7.999979
v 19.39998 3.999981 -7.999979
v 18.39998 32.62902 -7.999979
v 18.39998 3.999981 -7.999979
v 14.39998 32.62902 -7.999979
v 14.39998 3.999981 -7.999979
v -19.39999 33.62902 21.9
v 24.44695 33.62902 21.9
v -19.39999 33.62902 -27.77024
v 24.44695 33.62902 -27.77024
v -19.39999 33.62902 6.999987
v -19.39999 4.999983 6.999987
v -19.39999 33.62902 21.9
v -19.39999 4.999983 21.9
v -19.39999 33.62902 21.9
v -19.39999 4.999983 21.9
v 14.39998 33.62902 21.9
v 14.39998 4.999983 21.9
v 14.39998 33.62902 21.9
v 14.39998 4.999983 21.9
v 14.39998 33.62902 7.999987
v 14.39998 4.999983 7.999987
v 14.39998 33.62902 -7.999979
v 14.39998 4.999983 -7.999979
v 14.39998 33.62902 -21.89999
v 14.39998 4.999983 -21.89999
v 14.39998 33.62902 -21.89999
v 14.39998 4.999983 -21.89999
v -19.39999 33.62902 -21.89999
v -19.39999 4.999983 -21.89999
v -19.39999 33.62902 -21.89999
v -19.39999 4.999983 -21.89999
v -19.39999 33.62902 -6.999977
v -19.39999 4.999983 -6.999977
v -19.39999 33.62902 -6.999977
v -19.39999 4.999983 6.999987
v -19.39999 33.62902 6.999987
v -19.39999 4.999983 -6.999977
vt 19.9 -7.5
vt 19.9 -6.500004
vt 19.9 -6.500004
vt 19.9 -7.5
vt 19.90001 7.5
vt 19.90001 7.5
vt 19.90001 8.499996
vt 19.90001 8.499996
vt 18.9 -7.5
vt 19.9 -7.5
vt 19.9 -7.5
vt 18.9 -7.5
vt 14.9 -7.5
vt 14.9 -7.5
vt -18.9 2.500008
vt -18.9 2.500008
vt -17.90001 2.500008
vt -17.90001 2.500008
vt -13.90001 2.500008
vt -13.90001 2.500008
vt 5.722046E-06 1.000002
vt 1.000002 1.000002
vt 5.722046E-06 5.722046E-06
vt 1.000002 5.722046E-06
vt 7.5 1.000002
vt 7.5 1.000002
vt 22.39999 1.000002
vt 22.39999 1.000002
vt -16.4 1.000002
vt -16.4 1.000002
vt 17.4 1.000002
vt 17.4 1.000002
vt -21.4 1.000002
vt -21.4 1.000002
vt -6.500004 1.000002
vt -6.500004 1.000002
vt 7.5 1.000002
vt 7.5 1.000002
vt 22.4 1.000002
vt 22.4 1.000002
vt -16.4 1.000002
vt -16.4 1.000002
vt 17.4 1.000002
vt 17.4 1.000002
vt -21.4 1.000002
vt -21.4 1.000002
vt -6.500004 1.000002
vt -6.500004 1.000002
vt 17.4 -6.500004
vt 17.4 7.5
vt 17.4 7.5
vt 17.4 -6.500004
vn -0.9999995 0.0009775162 0
vn -0.9999995 0.0009775162 0
vn -0.9999995 0.0009775162 0
vn -0.9999995 0.0009775162 0
vn -0.9999995 0.0009775162 0
vn -0.9999995 0.0009775162 0
vn -0.9999995 0.0009775162 0
vn -0.9999995 0.0009775162 0
vn -0.0009775162 0.0009775162 -0.999999
vn -0.0009775162 0.0009775162 -0.999999
vn -0.0009775162 0.0009775162 -0.999999
vn -0.0009775162 0.0009775162 -0.999999
vn -0.0009775162 0.0009775162 -0.999999
vn -0.0009775162 0.0009775162 -0.999999
vn -0.0009775162 0.0009775162 0.999999
vn -0.0009775162 0.0009775162 0.999999
vn -0.0009775162 0.0009775162 0.999999
vn -0.0009775162 0.0009775162 0.999999
vn -0.0009775162 0.0009775162 0.999999
vn -0.0009775162 0.0009775162 0.999999
vn -0.0009775162 -0.9999995 0
vn -0.0009775162 -0.9999995 0
vn -0.0009775162 -0.9999995 0
vn -0.0009775162 -0.9999995 0
vn 0.9999995 0.0009775162 0
vn 0.9999995 0.0009775162 0
vn 0.9999995 0.0009775162 0
vn 0.9999995 0.0009775162 0
vn 0.0009775162 0.0009775162 -0.999999
vn 0.0009775162 0.0009775162 -0.999999
vn 0.0009775162 0.0009775162 -0.999999
vn 0.0009775162 0.0009775162 -0.999999
vn -0.9999995 0.0009775162 0
vn -0.9999995 0.0009775162 0
vn -0.9999995 0.0009775162 0
vn -0.9999995 0.0009775162 0
vn -0.9999995 0.0009775162 0
vn -0.9999995 0.0009775162 0
vn -0.9999995 0.0009775162 0
vn -0.9999995 0.0009775162 0
vn -0.0009775162 0.0009775162 0.999999
vn -0.0009775162 0.0009775162 0.999999
vn -0.0009775162 0.0009775162 0.999999
vn -0.0009775162 0.0009775162 0.999999
vn 0.9999995 0.0009775162 0
vn 0.9999995 0.0009775162 0
vn 0.9999995 0.0009775162 0
vn 0.9999995 0.0009775162 0
vn 0.9999995 0.0009775162 0
vn 0.9999995 0.0009775162 0
vn 0.9999995 0.0009775162 0
vn 0.9999995 0.0009775162 0
g ZoneCollider_0
f 3/3/3 2/2/2 1/1/1
f 4/4/4 1/1/1 2/2/2
f 2/2/2 3/3/3 5/5/5
f 6/6/6 5/5/5 3/3/3
f 5/5/5 6/6/6 7/7/7
f 8/8/8 7/7/7 6/6/6
f 11/11/11 10/10/10 9/9/9
f 12/12/12 9/9/9 10/10/10
f 9/9/9 12/12/12 13/13/13
f 14/14/14 13/13/13 12/12/12
f 17/17/17 16/16/16 15/15/15
f 16/16/16 17/17/17 18/18/18
f 19/19/19 18/18/18 17/17/17
f 18/18/18 19/19/19 20/20/20
f 23/23/23 22/22/22 21/21/21
f 22/22/22 23/23/23 24/24/24
g ZoneCollider_1
f 27/27/27 26/26/26 25/25/25
f 26/26/26 27/27/27 28/28/28
f 31/31/31 30/30/30 29/29/29
f 30/30/30 31/31/31 32/32/32
f 35/35/35 34/34/34 33/33/33
f 34/34/34 35/35/35 36/36/36
f 39/39/39 38/38/38 37/37/37
f 38/38/38 39/39/39 40/40/40
f 43/43/43 42/42/42 41/41/41
f 42/42/42 43/43/43 44/44/44
f 47/47/47 46/46/46 45/45/45
f 46/46/46 47/47/47 48/48/48
f 51/51/51 50/50/50 49/49/49
f 52/52/52 49/49/49 50/50/50
